<svg viewBox="0 0 330 200" xmlns="http://www.w3.org/2000/svg"><g><g><g><g><g><line x1="41.149001121520996" y1="176.89999961853027" x2="36.149001121520996" y2="176.89999961853027" style="visibility: inherit;" fill="rgb(0, 0, 0)" stroke="rgb(204, 204, 204)" stroke-width="1px"></line><line x1="41.149001121520996" y1="151.6285711015974" x2="36.149001121520996" y2="151.6285711015974" style="visibility: inherit;" fill="rgb(0, 0, 0)" stroke="rgb(204, 204, 204)" stroke-width="1px"></line><line x1="41.149001121520996" y1="126.35714258466449" x2="36.149001121520996" y2="126.35714258466449" style="visibility: inherit;" fill="rgb(0, 0, 0)" stroke="rgb(204, 204, 204)" stroke-width="1px"></line><line x1="41.149001121520996" y1="101.08571406773157" x2="36.149001121520996" y2="101.08571406773157" style="visibility: inherit;" fill="rgb(0, 0, 0)" stroke="rgb(204, 204, 204)" stroke-width="1px"></line><line x1="41.149001121520996" y1="75.8142855507987" x2="36.149001121520996" y2="75.8142855507987" style="visibility: inherit;" fill="rgb(0, 0, 0)" stroke="rgb(204, 204, 204)" stroke-width="1px"></line><line x1="41.149001121520996" y1="50.542857033865786" x2="36.149001121520996" y2="50.542857033865786" style="visibility: inherit;" fill="rgb(0, 0, 0)" stroke="rgb(204, 204, 204)" stroke-width="1px"></line><line x1="41.149001121520996" y1="25.271428516932904" x2="36.149001121520996" y2="25.271428516932904" style="visibility: inherit;" fill="rgb(0, 0, 0)" stroke="rgb(204, 204, 204)" stroke-width="1px"></line><line x1="41.149001121520996" y1="0" x2="36.149001121520996" y2="0" style="visibility: inherit;" fill="rgb(0, 0, 0)" stroke="rgb(204, 204, 204)" stroke-width="1px"></line></g><g transform="translate(31.149001121520996, 0)"><text style="text-anchor: end; visibility: hidden; font-family: Roboto, sans-serif; font-size: 12px; font-weight: 200;" x="0" y="176.89999961853027" dx="0em" dy="0.3em" fill="rgb(33, 33, 33)" stroke="none" stroke-width="1px">200</text><text style="text-anchor: end; visibility: inherit; font-family: Roboto, sans-serif; font-size: 12px; font-weight: 200;" x="0" y="151.6285711015974" dx="0em" dy="0.3em" fill="rgb(33, 33, 33)" stroke="none" stroke-width="1px">250</text><text style="text-anchor: end; visibility: inherit; font-family: Roboto, sans-serif; font-size: 12px; font-weight: 200;" x="0" y="126.35714258466449" dx="0em" dy="0.3em" fill="rgb(33, 33, 33)" stroke="none" stroke-width="1px">300</text><text style="text-anchor: end; visibility: inherit; font-family: Roboto, sans-serif; font-size: 12px; font-weight: 200;" x="0" y="101.08571406773157" dx="0em" dy="0.3em" fill="rgb(33, 33, 33)" stroke="none" stroke-width="1px">350</text><text style="text-anchor: end; visibility: inherit; font-family: Roboto, sans-serif; font-size: 12px; font-weight: 200;" x="0" y="75.8142855507987" dx="0em" dy="0.3em" fill="rgb(33, 33, 33)" stroke="none" stroke-width="1px">400</text><text style="text-anchor: end; visibility: inherit; font-family: Roboto, sans-serif; font-size: 12px; font-weight: 200;" x="0" y="50.542857033865786" dx="0em" dy="0.3em" fill="rgb(33, 33, 33)" stroke="none" stroke-width="1px">450</text><text style="text-anchor: end; visibility: inherit; font-family: Roboto, sans-serif; font-size: 12px; font-weight: 200;" x="0" y="25.271428516932904" dx="0em" dy="0.3em" fill="rgb(33, 33, 33)" stroke="none" stroke-width="1px">500</text><text style="text-anchor: end; visibility: hidden; font-family: Roboto, sans-serif; font-size: 12px; font-weight: 200;" x="0" y="0" dx="0em" dy="0.3em" fill="rgb(33, 33, 33)" stroke="none" stroke-width="1px">550</text></g><line x1="41.149001121520996" y1="0" x2="41.149001121520996" y2="176.89999961853027" fill="rgb(0, 0, 0)" stroke="rgb(204, 204, 204)" stroke-width="1px"></line></g></g><g transform="translate(41, 0)" clip-path="url(#clip_0)"><clipPath id="clip_0"><rect width="288" height="176"></rect></clipPath><g><g><g><line x1="0" y1="0" x2="0" y2="176.89999961853027" fill="rgb(0, 0, 0)" stroke="rgb(66, 66, 66)" stroke-width="1px" opacity="0.25"></line><line x1="28.8850998878479" y1="0" x2="28.8850998878479" y2="176.89999961853027" fill="rgb(0, 0, 0)" stroke="rgb(66, 66, 66)" stroke-width="1px" opacity="0.25"></line><line x1="57.7701997756958" y1="0" x2="57.7701997756958" y2="176.89999961853027" fill="rgb(0, 0, 0)" stroke="rgb(66, 66, 66)" stroke-width="1px" opacity="0.25"></line><line x1="86.6552996635437" y1="0" x2="86.6552996635437" y2="176.89999961853027" fill="rgb(0, 0, 0)" stroke="rgb(66, 66, 66)" stroke-width="1px" opacity="0.25"></line><line x1="115.5403995513916" y1="0" x2="115.5403995513916" y2="176.89999961853027" fill="rgb(0, 0, 0)" stroke="rgb(66, 66, 66)" stroke-width="1px" opacity="0.25"></line><line x1="144.4254994392395" y1="0" x2="144.4254994392395" y2="176.89999961853027" fill="rgb(0, 0, 0)" stroke="rgb(66, 66, 66)" stroke-width="1px" opacity="0.25"></line><line x1="173.3105993270874" y1="0" x2="173.3105993270874" y2="176.89999961853027" fill="rgb(0, 0, 0)" stroke="rgb(66, 66, 66)" stroke-width="1px" opacity="0.25"></line><line x1="202.1956992149353" y1="0" x2="202.1956992149353" y2="176.89999961853027" fill="rgb(0, 0, 0)" stroke="rgb(66, 66, 66)" stroke-width="1px" opacity="0.25"></line><line x1="231.0807991027832" y1="0" x2="231.0807991027832" y2="176.89999961853027" fill="rgb(0, 0, 0)" stroke="rgb(66, 66, 66)" stroke-width="1px" opacity="0.25"></line><line x1="259.9658989906311" y1="0" x2="259.9658989906311" y2="176.89999961853027" fill="rgb(0, 0, 0)" stroke="rgb(66, 66, 66)" stroke-width="1px" opacity="0.25"></line><line x1="288.850998878479" y1="0" x2="288.850998878479" y2="176.89999961853027" fill="rgb(0, 0, 0)" stroke="rgb(66, 66, 66)" stroke-width="1px" opacity="0.25"></line></g><g><line x1="0" y1="176.89999961853027" x2="288.850998878479" y2="176.89999961853027" fill="rgb(0, 0, 0)" stroke="rgb(66, 66, 66)" stroke-width="1px" opacity="0.25"></line><line x1="0" y1="151.6285711015974" x2="288.850998878479" y2="151.6285711015974" fill="rgb(0, 0, 0)" stroke="rgb(66, 66, 66)" stroke-width="1px" opacity="0.25"></line><line x1="0" y1="126.35714258466449" x2="288.850998878479" y2="126.35714258466449" fill="rgb(0, 0, 0)" stroke="rgb(66, 66, 66)" stroke-width="1px" opacity="0.25"></line><line x1="0" y1="101.08571406773157" x2="288.850998878479" y2="101.08571406773157" fill="rgb(0, 0, 0)" stroke="rgb(66, 66, 66)" stroke-width="1px" opacity="0.25"></line><line x1="0" y1="75.8142855507987" x2="288.850998878479" y2="75.8142855507987" fill="rgb(0, 0, 0)" stroke="rgb(66, 66, 66)" stroke-width="1px" opacity="0.25"></line><line x1="0" y1="50.542857033865786" x2="288.850998878479" y2="50.542857033865786" fill="rgb(0, 0, 0)" stroke="rgb(66, 66, 66)" stroke-width="1px" opacity="0.25"></line><line x1="0" y1="25.271428516932904" x2="288.850998878479" y2="25.271428516932904" fill="rgb(0, 0, 0)" stroke="rgb(66, 66, 66)" stroke-width="1px" opacity="0.25"></line><line x1="0" y1="0" x2="288.850998878479" y2="0" fill="rgb(0, 0, 0)" stroke="rgb(66, 66, 66)" stroke-width="1px" opacity="0.25"></line></g></g></g><g><g><line x1="0" y1="277.9857136862619" x2="288.850998878479" y2="277.9857136862619" fill="rgb(0, 0, 0)" stroke="rgb(153, 153, 153)" stroke-width="1.5px"></line></g></g><g><g><line x1="28.8850998878479" y1="0" x2="28.8850998878479" y2="176.89999961853027" fill="rgb(0, 0, 0)" stroke="rgb(153, 153, 153)" stroke-width="1.5px"></line></g></g><g><g><g><g><g><path style="fill: none;" stroke="rgb(187, 187, 187)" stroke-width="2px" d="M31.4406686612854,188.35420014892964L31.705690608160403,174.61378464941157L31.9707125550354,161.55150402913205L32.24519957144165,146.80225672740522L32.49129137925415,132.09436111377985L32.7657783956604,125.23622502294829L33.0118702034729,118.90471259549766L33.2579620112854,104.95423693069172L33.51351888862915,94.32335957114502L33.77854083550415,87.19581392022504L34.02463264331665,76.17163644014134L34.28965459019165,70.89875497484968L34.53574639800415,94.21054370852018L34.78183820581665,134.07913995130644L35.027930013629145,151.32378079940622L35.27402182144165,174.64410292243855L35.52011362925415,188.3679682220098L42.18352257925415,178.89889336427063L42.4390794565979,170.6645938863265L42.6851712644104,168.1882499503887L42.9312630722229,162.83739885839086L43.18681994956665,159.33739276052756L43.4423768269104,146.2128024486852L43.7073987737854,142.0043488779771L43.96295565112915,132.15254913555916L44.22797759800415,123.16625850223664L44.47406940581665,121.7138346264437L44.7296262831604,111.25470510889177L44.9757180909729,110.74026784003905L45.23127496831665,105.17372929726422L45.4868318456604,106.33439709730156L45.74238872300415,105.17452003997643L46.00741066987915,99.48853553648708L46.253502477691654,93.07783214206056L46.49959428550415,86.79719034572638L46.764616232379154,85.55997081771316L47.020173109722904,90.10252041972649L47.2662649175354,91.57100021503474L47.5123567253479,91.41992052329589L47.758448533160404,93.2556021544334L48.01400541050415,91.49223928173221L48.26009721831665,90.31721780557358L48.5156540956604,86.49525555439006L48.77121097300415,84.54894336755247L49.03623291987915,87.13237138636747L49.28232472769165,83.83451554418755L49.52841653550415,82.53853164468974L49.802903551910404,78.43260285653217L50.0679254987854,76.70857420578731L50.32348237612915,74.56455250810703L50.56957418394165,70.45845640754916L50.81566599175415,61.64281655178805L51.08068793862915,60.51211890517269L51.3551749550354,63.259644722483124L51.610731832379145,64.34075000901484L51.866288709722895,59.92102335508882L52.1123805175354,61.41332528278672L52.3774024644104,63.18091006126907L52.6424244112854,58.89701653070361L52.8885162190979,52.29524590654887L53.134608026910406,53.07551319538085L53.390164904254156,56.45729775673298L53.6457217815979,57.64713618857387L53.8918135894104,60.185968320891526L54.1379053972229,54.730466366726404L54.39346227456665,56.12409345216016L54.649019151910394,54.40585641372786L54.914041098785404,49.37332292209332L55.1601329065979,51.41799720095775L55.41568978394165,56.962440137872036L55.66178159175415,60.687408539368185L55.90787339956665,49.578859380942966L56.1634302769104,48.97620738397531L56.41898715425415,47.0504406241566L56.66507896206665,46.801395633275014L56.9206358394104,53.60526399205548L57.17619271675415,48.11804280558239L57.441214663629154,50.00811749742268L57.696771540972904,50.796796405766045L57.9428633487854,48.845853075893494L58.19842022612915,57.563726820178765L58.4539771034729,55.19020048674719L58.728464119879156,46.909994254346685L58.9840209972229,47.37179107727648L59.23957787456665,42.23455815801676L59.485669682379154,46.706055694859245L59.73176149019165,49.509653669131886L59.987318367535394,51.166195517366766L60.242875244879144,49.20094493514429L60.48896705269165,50.26961288104729L60.75398899956665,42.24305917509283L61.00008080737915,38.56935109805259L61.2556376847229,40.250040766330436L61.511194562066656,40.675848189507725L61.77621650894165,39.806513452898834L62.041238455816654,34.64554477077048L62.30626040269165,34.78689001935489L62.552352210504154,41.44940702109026L62.807909087847904,46.75324523968281L63.0540008956604,52.71696009285385L63.30955777300415,49.30100033401294L63.584044789410406,44.32620726961457L63.8490667362854,47.7014453995429L64.10462361362914,49.04257535696039L64.3601804909729,46.23255060483068L64.6252024378479,44.832684089291824L64.8902243847229,40.838863987969404L65.1363161925354,36.868777674849845L65.39187306987915,39.44933479438491L65.6474299472229,40.12687215461883L65.90298682456665,39.639386938060866L66.1774738409729,38.89321320238012L66.43303071831664,42.95398486852074L66.68858759566041,40.598279198293476L66.9536095425354,40.310736189237055L67.19970135034791,37.75304656361179L67.4457931581604,39.41860017809912L67.6918849659729,34.861870584219126L67.93797677378541,39.69011654833036L68.1840685815979,38.21426790296773L68.4490905284729,41.012482797510785L68.6951823362854,39.13706181863119L68.9412741440979,35.293865860350834L69.19683102144165,41.15631440546351L69.44292282925414,37.471685536064065L69.6984797065979,40.827890491761195L69.95403658394164,38.114023907154255L70.20012839175415,41.25606861546703L70.44622019956665,38.5602628924371L70.7017770769104,38.66828248921746L70.9667990237854,35.996277512115945L71.22235590112915,36.54965407965878L71.48737784800414,36.1071193738358L71.7429347253479,29.84047953775276L71.99849160269164,30.649373712885634L72.25404848003541,31.762115385418152L72.50960535737916,32.99375253336882L72.77462730425415,36.369644271670595L73.0301841815979,26.858105860177666L73.2952061284729,29.937545182727735L73.55076300581665,32.15862868337664L73.8063198831604,32.64947984933681L74.0713418300354,29.32474686252111L74.34582884644166,30.085806942418476L74.6203158628479,31.792496423068695L74.87587274019165,33.63902230625319L75.14089468706665,40.08210905094252L75.3964515644104,31.927293932689928L75.65200844175415,35.92612860442239L75.9075653190979,33.80725460205428L76.15365712691039,34.87730090568488L76.40921400425414,35.030540020530005L76.6647708815979,32.765188576133106L76.91086268941041,37.0820664179581L77.1569544972229,28.306793862544883L77.41251137456665,32.901547167688875L77.67753332144164,32.805541149114696L77.9330901987854,39.31048206553182L78.1791820065979,40.6617850486189L78.43473888394165,37.70352083655411L78.69029576128541,34.05631717523876L78.9553177081604,29.903597975152117L79.20140951597291,31.228087896368773L79.4475013237854,23.047975817252365L79.6935931315979,31.00968586136589L79.9586150784729,43.11395774954458L80.2047068862854,43.85992889385358L80.4507986940979,45.29967428058741L80.6968905019104,48.34735916486602L80.9429823097229,44.00797697954866L81.1890741175354,40.544896986617815L81.44463099487915,41.80427809568855L81.7001878722229,40.71669662280662L81.96520981909791,38.803587167018975L82.23969683550415,35.84703745726807L82.50471878237916,32.7460368055962L82.75081059019165,33.823789090315955L82.99690239800415,32.835608552005745L83.26192434487915,34.77089194371288L83.52694629175414,32.05119484145862L83.7825031690979,37.074165523623876L84.03806004644164,38.36211173407766L84.28415185425416,37.54325453702432L84.53970873159791,40.83900815496177L84.7858005394104,37.895398732680945L85.0318923472229,39.397891223073024L85.27798415503541,31.070027805151437L85.5430061019104,29.374272878558173L85.7890979097229,37.38898642098225L86.0351897175354,30.312530915537266L86.29074659487915,32.55242536823405L86.56523361128541,39.870586971165686L86.83025555816039,34.72560406369998L87.07634736597291,34.108742212191935L87.3224391737854,38.518608451052046L87.56853098159789,38.43141949839238L87.81462278941041,32.555516431625875L88.08910980581665,34.27254354301195L88.3446666831604,33.251208461030956L88.60022356050415,29.097149774389514L88.84631536831665,29.78939579856171L89.1018722456604,29.15461560771234L89.3479640534729,29.323857627340093L89.6129860003479,26.697100403593904L89.86854287769165,31.950371985841425L90.11463468550414,38.40001573513791L90.36072649331666,32.182868004653805L90.62574844019164,32.47393244781437L90.87184024800416,30.718854457018203L91.11793205581665,31.11572502478776L91.3924190722229,28.021436860637795L91.64797594956666,28.156025481291522L91.9224629659729,26.195333408364984L92.16855477378539,26.93191471112561L92.4146465815979,29.255992618187605L92.6607383894104,28.83338910127614L92.91629526675415,31.84175390234298L93.18131721362916,29.362488256786513L93.4368740909729,27.60742561598369L93.7018960378479,21.294864518150657L93.9669179847229,23.35347427890324L94.22247486206666,26.3903399780098L94.4969618784729,21.572767911373116L94.75251875581665,21.670805545247834L95.02700577222289,20.98760691135244L95.28256264956666,15.80514513876772L95.54758459644165,22.31950436166258L95.8220716128479,21.6004561323597L96.09655862925415,19.758719835235468L96.36158057612916,23.915613955212223L96.6360675925354,25.19403800306203L96.8821594003479,28.51772067332908L97.12825120816039,23.514212489240013L97.40273822456666,25.522606336815567L97.66776017144164,21.710961765414428L97.91385197925416,20.61449622536365L98.15994378706665,27.629352065451634L98.4155006644104,19.931850434046762L98.67105754175415,22.308568479600293L98.93607948862915,24.879130952064752L99.1916363659729,27.207091501650666L99.44719324331665,28.200401084225376L99.72168025972289,26.38080598657967L99.9867022065979,24.470577940638872L100.2517241534729,27.31399513627927L100.4978159612854,32.676098061571984L100.75337283862915,27.323063225295673L101.0089297159729,24.78129919638743L101.2550215237854,21.939646243656153L101.50111333159789,19.085051265791083L101.77560034800416,21.17424373027635L102.04062229487914,17.910102665277485L102.29617917222289,12.9697128569272L102.5422709800354,20.05448729985656L102.79782785737915,22.8092352731094L103.04391966519165,25.255653802838694L103.29001147300416,23.44303781349246L103.53610328081665,21.93193734049671L103.80112522769166,17.443311195282842L104.0566821050354,19.218557188669404L104.32170405191039,24.47870639047106L104.57726092925414,22.80723737006493L104.8517479456604,23.90938698006765L105.0978397534729,28.228463062818836L105.37232676987915,25.230135259121663L105.6278836472229,27.300529919005772L105.89290559409791,21.170919496597513L106.15792754097289,24.307893794165842L106.41348441831664,24.037928722632362L106.66904129566039,22.35134093230243L106.92459817300414,20.45591861366473L107.18962011987915,21.11560816294309L107.4451769972229,17.751303565657512L107.7101989440979,16.96942900076889L107.95629075191039,19.306469350650552L108.2023825597229,22.82537313190793L108.4484743675354,24.074013243622044L108.7134963144104,19.88546496569006L108.9785182612854,18.89085517115854L109.2435402081604,14.69734063450597L109.50856215503539,15.218455350440365L109.78304917144166,16.821953704282173L110.03860604878541,14.683477953463102L110.2846978565979,15.802325791597912L110.54025473394165,14.794429510655663L110.78634654175414,14.829411795119272L111.04190341909789,21.70705921811546L111.29746029644166,20.007750478142523L111.5530171737854,19.490360838544547L111.8180391206604,22.289737982092028L112.07359599800415,19.52016762951681L112.32915287534789,20.888479568803714L112.58470975269164,19.10244987834366L112.84973169956665,21.390907872949114L113.11475364644166,24.088634940851406L113.3892406628479,20.353405526285275L113.64479754019166,22.265777696992966L113.89088934800415,25.247020729001L114.15591129487916,26.052426636821853L114.42093324175414,25.299597475614018L114.6954202581604,25.754413760416625L114.9604422050354,20.10517007238911L115.21599908237916,21.03577333058579L115.4715559597229,21.190613010285798L115.72711283706666,21.689309573229583L115.9826697144104,27.600327087343178L116.23822659175416,20.89408582871872L116.5127136081604,23.072996026686393L116.7777355550354,27.107219361266427L117.0238273628479,16.13859145241046L117.2699191706604,19.92624604285681L117.53494111753541,15.15092983143554L117.79996306441039,11.41874994880732L118.04605487222291,19.189426473788682L118.30161174956666,20.139079481047126L118.5760987659729,16.568052708254484L118.83165564331665,17.371199228907418L119.09667759019165,15.115924898317713L119.36169953706666,19.740878363941984L119.6172564144104,18.90687944454208L119.8822783612854,19.68226151802489L120.13783523862915,17.366664969422608L120.38392704644166,18.571330332658462L120.6394839237854,13.812179213649054L120.8855757315979,18.932063870329834L121.1505976784729,24.231532884981203L121.3966894862854,20.018081326316224L121.67117650269165,16.934322773732926L121.9267333800354,20.478092410824647L122.17282518784789,18.30822985454815L122.4378471347229,16.612186624087478L122.7028690815979,19.532331725729225L122.95842595894165,18.733750554909907L123.2139828362854,16.075928308009313L123.46953971362915,22.235596344514498L123.71563152144165,24.357232727150322L123.9711883987854,22.861277934633595L124.2362103456604,22.86766455075686L124.49176722300415,21.135801009385727L124.75678916987916,18.412616112245967L125.0123460472229,13.335226247235875L125.26790292456666,15.013599314413922L125.53292487144165,12.845221271222277L125.80741188784789,15.185871460333763L126.05350369566041,17.337570291497208L126.30906057300416,16.980862835935948L126.55515238081665,23.303951047302704L126.82017432769166,26.52806776232122L127.06626613550415,18.581594334682165L127.33128808237915,19.465656628215445L127.59631002925416,20.64648161105232L127.84240183706665,18.151798357103775L128.0979587144104,24.44863896340265L128.3440505222229,22.753023479889638L128.6090724690979,23.910557997173292L128.8740944159729,22.487813006891542L129.13911636284791,16.77404952975985L129.41360337925414,18.250694376542217L129.6691602565979,19.682565117837395L129.94364727300416,20.104398068579776L130.20866921987914,18.886627895907964L130.4642260972229,19.267964175091116L130.71978297456667,20.883837901802956L130.9753398519104,19.242088133974466L131.23089672925417,20.029049123250815L131.49591867612915,16.640718861302197L131.76094062300416,14.560287417404975L132.02596256987914,20.675416997799715L132.3004495862854,19.049303720903826L132.55600646362913,23.233258152261666L132.82102841050414,23.19983571681297L133.08605035737915,19.171755903974677L133.34160723472291,23.365903844649562L133.59716411206665,22.09504703267916L133.84325591987914,25.2348092275396L134.0988127972229,22.628138533770986L134.3638347440979,24.570287693375448L134.6099265519104,18.18215944593978L134.86548342925417,25.66518159417039L135.1210403065979,26.797701646068354L135.3860622534729,23.8381032916394L135.6510842003479,18.884604047971813L135.8971760081604,19.133359171862605L136.1621979550354,17.962593481604934L136.40828976284791,22.684588202655892L136.6543815706604,24.256015185886845L136.90993844800414,22.873659330755796L137.1844254644104,22.490240874611636L137.43998234175416,17.9342283949356L137.70500428862914,20.936877333097314L137.95109609644166,25.207286595106943L138.21611804331664,21.639156199432993L138.46220985112916,16.36790315014062L138.72723179800414,13.630520795094382L138.99225374487915,14.4691089408906L139.25727569175416,19.314863137363275L139.52229763862914,25.267319188719654L139.7778545159729,22.64544806796143L140.0239463237854,20.409061453019383L140.27003813159791,20.63682211459802L140.5350600784729,17.618165439387276L140.78115188628541,15.429886676424484L141.03670876362915,20.93254224853655L141.28280057144164,22.015438669272385L141.5383574487854,21.932675281663943L141.79391432612914,25.755265200430657L142.0494712034729,25.297774898415483L142.30502808081664,26.388783117303085L142.55111988862916,23.48066573837753L142.8066767659729,22.88264062453683L143.05276857378541,21.19049240132298L143.30832545112915,22.02124553581899L143.56388232847289,23.57776573175732L143.81943920581665,21.955993584463105L144.07499608316039,28.165099895554178L144.3210878909729,26.27377275193818L144.5671796987854,28.800439972800383L144.8132715065979,26.99596215957626L145.08775852300417,26.526298876430346L145.3622455394104,34.3182842631558L145.60833734722289,40.1197507543416L145.85442915503538,46.24952181591352L146.10052096284792,40.41945369769008L146.36554290972288,38.46229129023007L146.61163471753542,41.031367383301266L146.86719159487913,38.355606386686695L147.12274847222292,39.72495353858093L147.3688402800354,42.80165429834788L147.6149320878479,36.3482933058661L147.87048896519167,36.568977154955505L148.1260458425354,36.21617727084047L148.38160271987917,35.99619898310699L148.6371595972229,32.10439600294965L148.89271647456667,35.785937890496974L149.1482733519104,32.793094842278265L149.41329529878539,32.45700527345282L149.66885217612915,37.51615836023831L149.92440905347289,31.74227455468795L150.19889606987914,29.94297726511656L150.4544529472229,34.89541000420328L150.7005447550354,32.85344024300876L150.94663656284789,35.80761959379744L151.20219344019165,38.486980323827424L151.44828524800414,39.41658703953512L151.70384212534788,31.482250299046775L151.94993393316042,34.1982707170072L152.20549081050416,37.46492365900776L152.46104768784792,36.90067854000299L152.71660456519163,34.74940005509839L152.98162651206664,32.5279829940643L153.24664845894165,36.66660063417748L153.51167040581666,31.01102005345773L153.7672272831604,29.086542638660823L154.04171429956665,36.564621827556344L154.29727117691039,35.017625802705375L154.55282805425415,35.68746351498494L154.8273150706604,37.88941865311947L155.08287194800414,33.00533313470494L155.3384288253479,31.02972351035276L155.5845206331604,25.82840938363143L155.8495425800354,27.54651333926777L156.0956343878479,27.042389391322352L156.34172619566039,24.11617188856453L156.6067481425354,24.52697279964863L156.85283995034789,21.429684272175933L157.10839682769165,20.689220189972463L157.37341877456666,19.05451308459582L157.63844072144167,21.182395357634917L157.8939975987854,17.61223008207766L158.14955447612917,20.73124006415936L158.4240414925354,22.97068591031563L158.67959836987916,27.105667840701123L158.94462031675414,23.531466013803524L159.2001771940979,24.79797078921563L159.4462690019104,29.104702605380297L159.69236080972289,32.53914747589038L159.9573827565979,30.041424951413468L160.2224047034729,29.095394162935204L160.4874266503479,27.360014814157736L160.7524485972229,25.202852500964L160.9985404050354,24.301718323695432L161.27302742144164,26.850642707435227L161.51911922925413,28.597389618878857L161.7746761065979,26.39660313268391L162.03023298394163,23.012999210678156L162.27632479175418,21.18377432913964L162.5508118081604,25.034417186700228L162.7969036159729,24.691580547164474L163.04299542378538,30.692309423385314L163.29855230112915,39.42760364024918L163.55410917847288,38.71974029061794L163.82859619487914,30.67775962985448L164.10308321128542,28.19287456610085L164.35864008862913,29.007221006136454L164.63312710503538,26.35745802034064L164.90761412144167,27.622580635653037L165.1821011378479,23.344144139671084L165.4471230847229,24.92035022282365L165.7121450315979,26.694558416827036L165.96770190894165,31.541233952863397L166.24218892534788,31.45741309511093L166.49774580269164,33.05674145790109L166.75330268003538,27.57375919608075L167.01832462691038,31.815750155475698L167.2644164347229,22.62187260240911L167.53890345112916,24.14435460728789L167.78499525894165,19.73377820367152L168.05001720581666,20.590147368596817L168.3055740831604,22.90621782083637L168.56113096050416,22.47753268608443L168.80722276831665,23.59001328754749L169.07224471519166,25.709510566890184L169.33726666206667,26.961348405102235L169.58335846987916,24.796328158123647L169.85784548628538,29.201557435275284L170.11340236362915,29.930754478349762L170.35949417144167,31.801513144742163L170.62451611831665,28.5320087767606L170.8990031347229,29.282647364547927L171.15456001206667,24.35346154863118L171.4101168894104,25.954135903046406L171.66567376675417,28.955800667543766L171.9212306440979,25.336275542395352L172.17678752144167,24.03139637852299L172.42287932925416,27.529785741084467L172.66897113706665,25.257608768856645L172.93399308394166,28.213464891356722L173.1895499612854,22.9841645383841L173.4545719081604,23.82432321659984L173.71012878550417,26.68038881466282L173.9656856628479,28.209267871164666L174.22124254019167,28.905667738577907L174.46733434800416,29.099994953732136L174.71342615581665,29.190758404113677L174.95951796362914,28.89967781367587L175.2150748409729,30.15023684333762L175.4800967878479,28.223337114145597L175.74511873472292,31.318325392463223L176.00067561206666,30.9163080790294L176.24676741987915,24.088608238096413L176.5212544362854,28.278234315249527L176.76734624409792,24.385166061434187L177.04183326050415,25.315706603217375L177.2973901378479,26.723788881951517L177.5434819456604,26.055579334346533L177.7895737534729,28.04799238759237L178.06406076987915,25.415287702683322L178.3196176472229,28.452636421960396L178.5657094550354,30.913908106808577L178.82126633237914,29.84500657940118L179.0768232097229,32.98915413484389L179.3229150175354,26.02196180341265L179.5879369644104,20.421819070841085L179.84349384175414,19.676795681518374L180.08958564956666,19.771710650662417L180.35460759644164,19.74513311865705L180.61962954331665,24.53668100872973L180.86572135112917,24.76862922740685L181.14020836753542,33.74130383501642L181.41469538394165,29.165189361851883L181.6702522612854,24.5272977886184L181.9163440690979,19.527402197952703L182.17190094644164,18.017726412605292L182.41799275425413,23.403729249536735L182.6735496315979,20.726616769403744L182.92910650894163,25.885534140479795L183.19412845581664,26.891018865902144L183.44022026362913,24.850996017542034L183.6957771409729,25.90899353756146L183.95133401831666,30.516570434560826L184.21635596519164,26.25209331085323L184.4719128425354,25.416775322532903L184.7369347894104,22.324892919613948L185.00195673628542,24.42467417315668L185.2669786831604,28.365362715818293L185.51307049097292,30.308293329768357L185.7591622987854,30.86551989490268L186.01471917612915,24.591710445052378L186.27974112300413,24.32345173816691L186.54476306987914,27.045635807483574L186.8003199472229,24.244970463434147L187.0653418940979,19.022961941957472L187.32089877144165,21.9013336227487L187.5764556487854,21.575392402252028L187.85094266519167,21.13370271233747L188.10649954253537,24.455825037416748L188.37152148941038,22.96531848740986L188.6365434362854,17.441438161836505L188.9015653831604,16.40992943701623L189.17605239956663,17.108593563122135L189.44107434644164,22.032183550417216L189.6966312237854,21.28945331527521L189.9427230315979,21.634762762467627L190.19827990894163,20.64509703129928L190.44437171675418,20.833175600817352L190.70939366362913,26.49422420238318L190.95548547144165,28.264177906450968L191.20157727925417,24.38112510119025L191.44766908706666,26.67621779770899L191.70322596441042,28.39203148548126L191.96824791128537,25.764375038759727L192.22380478862917,21.85839218300441L192.47936166597287,21.255779314290244L192.75384868237916,25.63158642589847L193.0094055597229,23.841684461452854L193.26496243706666,20.185788084670225L193.52998438394167,23.25448230640487L193.7855412612854,21.574789144192245L194.0316330690979,19.364050781545686L194.28718994644166,26.95994596667624L194.5427468237854,24.455192349401194L194.79830370112916,25.951607115927853L195.0538605784729,31.317377903988202L195.30941745581666,32.58134636946201L195.5649743331604,30.060525146944848L195.82053121050416,31.810335681371793L196.08555315737917,28.300339467915645L196.34111003472287,29.188389040863242L196.61559705112916,26.163197848526448L196.8711539284729,23.359936961287577L197.12671080581666,21.38073265475266L197.4011978222229,28.079987324332347L197.67568483862914,30.092133570001593L197.9312417159729,39.53624117268804L198.18679859331664,33.419470303515226L198.43289040112913,32.49890341991623L198.67898220894168,32.74011452618731L198.94400415581663,30.650096663519026L199.1995610331604,30.94492342862721L199.4645829800354,26.496901277799285L199.72013985737914,31.197195822276637L199.96623166519166,36.12286013510354L200.2217885425354,39.58635880889711L200.47734541987916,36.80351477937529L200.72343722769165,34.640966147323184L200.96952903550417,35.10929037527735L201.23455098237915,33.48963410002121L201.49010785972288,30.81575779808029L201.74566473706665,28.99113993801021L201.99175654487914,32.16899285951802L202.2473134222229,35.376893201274164L202.51233536909788,33.307927119599555L202.7584271769104,38.141697701634854L203.02344912378538,36.54838416768889L203.2884710706604,34.069632064834956L203.5534930175354,35.450151168729775L203.7995848253479,32.87345229730999L204.0456766331604,30.90656127126412L204.30123351050415,35.03111914559256L204.56625545737916,34.14132347844939L204.82181233472292,35.26021354460503L205.0679041425354,30.743784809492077L205.33292608941042,30.683102545272984L205.60741310581665,29.714303338026674L205.8819001222229,31.07282806451817L206.1469220690979,27.46378940827931L206.40247894644165,29.06262446534726L206.64857075425417,39.30047608644347L206.89466256206666,38.366397342218825L207.1502194394104,41.09741175502044L207.39631124722288,39.767559189097035L207.6424030550354,36.90067900514855L207.8884948628479,33.586384021124495L208.16298187925415,34.87526945388802L208.42800382612916,31.318968287056755L208.69302577300417,32.1834735284556L208.95804771987915,36.37599208459699L209.21360459722288,32.60250216111247L209.46916147456665,38.15359747588327L209.73418342144166,29.71975069318409L210.0086704378479,29.35314156712604L210.2547622456604,26.213135329791385L210.51031912300417,28.871467260491595L210.75641093081666,29.444244539140666L211.00250273862915,31.87376624502409L211.24859454644164,34.33187862814352L211.5041514237854,32.72294693310822L211.75024323159792,29.73689164882057L212.0152651784729,33.37424123370045L212.2613569862854,31.57543850716444L212.5074487940979,33.322953712245315L212.7535406019104,29.796569220717227L213.02802761831663,32.03710461922434L213.29304956519164,29.45208891088667L213.55807151206665,27.11133500516522L213.82309345894166,30.485983732620817L214.07865033628542,28.877912573049805L214.35313735269165,26.12792973048704L214.59922916050414,22.0732179946997L214.8547860378479,25.58192837763588L215.11034291519164,25.982073556386915L215.3658997925354,26.421561859496617L215.62145666987914,24.705760380647792L215.86754847769163,21.894273595953567L216.13257042456664,27.03158652227947L216.3881273019104,23.58992919239469L216.64368417925414,20.380378470202047L216.9181711956604,21.07797779545936L217.1831931425354,21.91056063539619L217.44821508941038,23.392432236654038L217.7132370362854,19.963053058283737L217.95932884409788,25.3597195711803L218.20542065191037,22.678516666626706L218.47044259878538,20.669240313988247L218.71653440659787,20.58133674539121L218.97209128394164,19.51410346174987L219.2276481612854,14.763281734245954L219.49267010816038,14.591523101844372L219.74822698550415,13.325809456718614L220.00378386284788,14.032765780989967L220.2498756706604,14.337813417885567L220.5148976175354,17.620849143170595L220.7609894253479,22.509816721600313L221.0260113722229,23.16981139535179L221.30049838862917,20.330688992711742L221.54659019644166,24.41142352554073L221.8021470737854,19.5456859825507L222.0482388815979,20.592241250938713L222.32272589800417,20.770533013666626L222.58774784487915,24.31574268302971L222.84330472222288,25.602346695165426L223.1083266690979,22.202425671152987L223.35441847691038,22.10468352270238L223.60051028472293,22.38888069941059L223.85606716206664,19.36606773441988L224.1116240394104,21.676737553255933L224.36718091675414,19.123060906039495L224.6227377940979,17.977268386463393L224.8877597409729,16.131194125821107L225.16224675737917,11.862313506219145L225.4178036347229,13.779839916931431L225.67336051206667,18.98792546722066L225.9289173894104,14.62406773151164L226.18447426675417,11.045488164701617L226.44949621362915,6.478687521072246L226.69558802144167,9.788066392217786L226.94167982925416,16.868292776184635L227.18777163706665,13.976016094060688L227.45279358394166,10.665035746666076L227.71781553081664,12.796258996983598L227.98283747769165,17.87150065034327L228.24785942456666,13.914244991304033L228.5034163019104,15.924175954450686L228.74950810972288,12.834867793554203L229.00506498706665,15.37429132783333L229.25115679487914,12.501481939466242L229.5256438112854,13.59411685701343L229.78120068862916,18.118206870767693L230.0367575659729,12.775696349100926L230.3017795128479,10.343683310102511L230.56680145972288,10.438890452659539L230.82235833706665,13.772304902724679L231.07791521441038,11.901271710296713L231.33347209175415,13.764332870990824L231.58902896909788,13.885996508729596L231.8540509159729,16.307497664824098L232.10014272378538,15.444311421510982L232.37462974019166,12.753229576972792L232.62072154800416,12.289528689029106L232.8762784253479,9.89235810502867L233.13183530269166,14.473998773175895L233.37792711050415,17.739140995914344L233.6334839878479,16.520930322876616L233.90797100425416,18.001037971903244L234.15406281206666,17.83299006708442L234.41908475894166,14.15851232938819L234.66517656675416,14.06369381838141L234.93019851362916,13.833172696805768L235.1857553909729,10.977971685690155L235.45077733784788,10.35016515313126L235.70633421519165,12.98707440511077L235.97135616206666,10.383812362087333L236.2269130394104,7.485764088652188L236.47300484722288,10.378306926824978L236.7380267940979,14.422818147210432L237.0030487409729,13.99840058662231L237.25860561831666,15.102545896948651L237.5141624956604,11.852070738066795L237.76971937300416,13.871460627201976L238.01581118081666,12.450843296828044L238.2713680581604,18.060641237068126L238.5174598659729,15.83193411762909L238.7824818128479,16.62024922475265L239.0285736206604,16.447237397562734L239.29359556753542,15.91514868944911L239.5586175144104,10.393522645163257L239.81417439175416,10.865288946814232L240.06026619956666,11.935896766006055L240.30635800737915,13.383763562368937L240.57137995425416,12.360507542146083L240.82693683159792,18.65026274255251L241.0730286394104,16.02560116886546L241.32858551675415,14.688390203493576L241.57467732456666,11.023827553433696L241.82076913237916,9.845460908462993L242.0763260097229,9.727766192252217L242.3413479565979,11.182270201870844L242.6063699034729,9.570018727676965L242.8713918503479,10.919593870530468L243.1364137972229,16.32663505054201L243.3825056050354,9.014454699700254L243.65699262144165,15.99053440065643L243.9125494987854,15.11072304200269L244.18703651519166,10.92668490238435L244.45205846206665,10.205671654821588L244.71708040894165,10.973555277355883L244.9726372862854,13.938945615676253L245.22819416362915,12.069987513477495L245.49321611050416,16.726916144859665L245.75823805737915,10.156954025382975L246.0327250737854,9.643944352329488L246.28828195112914,8.788224856877596L246.53437375894163,6.267331075486682L246.7899306362854,6.952767430260606L247.0549525831604,10.369379585416544L247.3199745300354,12.46852004386161L247.57553140737915,11.92892046399126L247.84055335425415,9.426413134271808L248.09611023159792,3.6989780117360387L248.37059724800415,8.905333151440919L248.61668905581664,7.160398226789669L248.8722459331604,6.6116965552436495L249.12780281050414,1.624672402482984L249.4022898269104,2.3250973280869482L249.6673117737854,5.067337532348423L249.9323337206604,1.689355919364872L250.20682073706664,6.71161732699907L250.4623776144104,7.43156735453851L250.7273995612854,9.169285429072335L250.99242150816042,14.60624503803316L251.24797838550415,10.382500479150636L251.51300033237914,12.750096464835524L251.77802227925415,13.180946929474453L252.03357915659788,8.057074818915769L252.2986011034729,13.15011199813799L252.55415798081665,14.291993782454831L252.80024978862915,17.792826425377115L253.0558066659729,17.61504750041838L253.3018984737854,12.83987859301041L253.5479902815979,10.45220734658742L253.7940820894104,7.6365738469726825L254.04963896675417,8.524003346836897L254.31466091362913,12.216278060030863L254.5702177909729,10.660277047865577" fill="none"></path></g></g></g></g><g opacity="0.2"><g><g><g><path style="fill: none;" stroke="rgb(187, 187, 187)" stroke-width="2px" d="M31.166181644879153,184.83807244251182L31.4406686612854,170.56719619154748L31.705690608160403,154.0779361345061L31.9707125550354,142.0007337112959L32.24519957144165,124.7072810857111L32.49129137925415,110.04980627252237L32.7657783956604,114.95385777561908L33.0118702034729,109.41012323818752L33.2579620112854,84.03206545774293L33.51351888862915,78.37866303899092L33.77854083550415,76.50514692974976L34.02463264331665,59.63597481210883L34.28965459019165,62.98960628332287L34.53574639800415,129.177766558423L34.78183820581665,193.8815620339548L41.69133896362915,180.67738716618825L41.93743077144165,173.21532847517852L42.18352257925415,172.62831224545246L42.4390794565979,158.31314466942317L42.6851712644104,164.47373404648437L42.9312630722229,154.81112222039715L43.18681994956665,154.08738361373378L43.4423768269104,126.5259169809244L43.7073987737854,135.6916685219154L43.96295565112915,117.37484952193302L44.22797759800415,109.68682255225322L44.47406940581665,119.53519881275433L44.7296262831604,95.56601083256405L44.9757180909729,109.96861193675997L45.23127496831665,96.82392148310201L45.4868318456604,108.0753987973576L45.74238872300415,103.43470445398872L46.00741066987915,90.95955878125305L46.253502477691654,83.4617770504208L46.49959428550415,77.37622765122515L46.764616232379154,83.70414152569337L47.020173109722904,96.91634482274648L47.2662649175354,93.77371990799705L47.5123567253479,91.19330098568761L47.758448533160404,96.00912460113975L48.01400541050415,88.84719497268037L48.26009721831665,88.5546855913357L48.5156540956604,80.76231217761473L48.77121097300415,81.62947508729611L49.03623291987915,91.00751341458991L49.28232472769165,78.88773178091772L49.52841653550415,80.59455579544301L49.802903551910404,72.2737096742958L50.0679254987854,74.12253122967002L50.32348237612915,71.34851996158666L50.56957418394165,64.29931225671234L50.81566599175415,48.419356768146386L51.08068793862915,58.81607243524964L51.3551749550354,67.38093344844877L51.610731832379145,65.96240793881239L51.866288709722895,53.29143337419988L52.1123805175354,63.65177817433358L52.3774024644104,65.83228722899254L52.6424244112854,52.47117623485542L52.8885162190979,42.39258997031671L53.134608026910406,54.2459141286288L53.390164904254156,61.52997459876118L53.6457217815979,59.43189383633517L53.8918135894104,63.99421651936802L54.1379053972229,46.5472134354787L54.39346227456665,58.21453408031076L54.649019151910394,51.82850085607946L54.914041098785404,41.82452268464158L55.1601329065979,54.48500861925439L55.41568978394165,65.27910454324348L55.66178159175415,66.27486114161239L55.90787339956665,32.916035643305094L56.1634302769104,48.072229388523844L56.41898715425415,44.16179048442847L56.66507896206665,46.42782814695268L56.9206358394104,63.81106653022612L57.17619271675415,39.8872110258728L57.441214663629154,52.84322953518314L57.696771540972904,51.97981476828106L57.9428633487854,45.919438081084685L58.19842022612915,70.64053743660665L58.4539771034729,51.62991098659978L58.728464119879156,34.48968490574591L58.9840209972229,48.06448631167113L59.23957787456665,34.528708779127165L59.485669682379154,53.41330200012291L59.73176149019165,53.715050630540865L59.987318367535394,53.65100828971913L60.242875244879144,46.25306906181054L60.48896705269165,51.87261479990175L60.75398899956665,30.203228616161166L61.00008080737915,33.05878898249224L61.2556376847229,42.771075268747175L61.511194562066656,41.31455932427365L61.77621650894165,38.50251134798547L62.041238455816654,26.904091747577937L62.30626040269165,34.99890789223153L62.552352210504154,51.44318252369329L62.807909087847904,54.70900256757159L63.0540008956604,61.66253237261038L63.30955777300415,44.177060695751564L63.584044789410406,36.86401767301706L63.8490667362854,52.76430259443536L64.10462361362914,51.054270293086624L64.3601804909729,42.017513476636125L64.6252024378479,42.73288431598357L64.8902243847229,34.8481338359858L65.1363161925354,30.91364820517051L65.39187306987915,43.320170473687554L65.6474299472229,41.14317819496966L65.90298682456665,38.908159113224L66.1774738409729,37.77395259885899L66.43303071831664,49.045142367731636L66.68858759566041,37.064720692952555L66.9536095425354,39.87942167565243L67.19970135034791,33.91651212517389L67.4457931581604,41.916930599830145L67.6918849659729,28.026776193399147L67.93797677378541,46.932485494497236L68.1840685815979,36.00049493492381L68.4490905284729,45.20980513932532L68.6951823362854,36.32393035031174L68.9412741440979,29.529071922930225L69.19683102144165,49.949987223132545L69.44292282925414,31.9447422319649L69.6984797065979,45.86219792530689L69.95403658394164,34.04322403024384L70.20012839175415,45.96913567793623L70.44622019956665,34.51655430789222L70.7017770769104,38.83031188438795L70.9667990237854,31.988270046463665L71.22235590112915,37.37971893097306L71.48737784800414,35.44331731510132L71.7429347253479,20.44051978362824L71.99849160269164,31.86271497558486L72.25404848003541,33.431227894217L72.50960535737916,34.841208255294816L72.77462730425415,41.43348187912323L73.0301841815979,12.590798242938302L73.2952061284729,34.55670416655285L73.55076300581665,35.490253934349994L73.8063198831604,33.38575659827711L74.0713418300354,24.33764738229752L74.34582884644166,31.227397062264586L74.6203158628479,34.35253064404392L74.87587274019165,36.40881113102993L75.14089468706665,49.746739167976536L75.3964515644104,19.69507125531107L75.65200844175415,41.92438061202112L75.9075653190979,30.628943598502087L76.15365712691039,36.48237036113079L76.40921400425414,35.260398692797665L76.6647708815979,29.367161409537736L76.91086268941041,43.55738318069555L77.1569544972229,15.143885029424986L77.41251137456665,39.793677125404855L77.67753332144164,32.66153212125347L77.9330901987854,49.06789344015747L78.1791820065979,42.68873952324951L78.43473888394165,33.26612451845696L78.69029576128541,28.585511683265718L78.9553177081604,23.674519175022144L79.20140951597291,33.214822778193714L79.4475013237854,10.777807698577778L79.6935931315979,42.952250927536184L79.9586150784729,61.27036558181263L80.2047068862854,44.97888561031715L80.4507986940979,47.45929236068823L80.6968905019104,52.91888649128394L80.9429823097229,37.49890370157265L81.1890741175354,35.350276997221606L81.44463099487915,43.693349759294655L81.7001878722229,39.08532441348369L81.96520981909791,35.93392298333747L82.23969683550415,31.412212892641723L82.50471878237916,28.094535828088418L82.75081059019165,35.440417517395524L82.99690239800415,31.353337744540433L83.26192434487915,37.67381703127358L83.52694629175414,27.971649188077183L83.7825031690979,44.60862154687173L84.03806004644164,40.29403104975836L84.28415185425416,36.314968741444346L84.53970873159791,45.78263858186796L84.7858005394104,33.47998459925975L85.0318923472229,41.65162995866116L85.27798415503541,18.578232678269107L85.5430061019104,26.83064048866825L85.7890979097229,49.41105673461837L86.0351897175354,19.697847657369813L86.29074659487915,35.91226704727925L86.56523361128541,50.84782937556306L86.83025555816039,27.008129702501467L87.07634736597291,33.18344943492989L87.3224391737854,45.133407809342195L87.56853098159789,38.300636069402934L87.81462278941041,23.74166183147613L88.08910980581665,36.848084210091045L88.3446666831604,31.719205838059505L88.60022356050415,22.866061744427334L88.84631536831665,30.82776483481999L89.1018722456604,28.202445321438304L89.3479640534729,29.577720656781796L89.6129860003479,22.756964567974535L89.86854287769165,39.83027935921264L90.11463468550414,48.074481359082604L90.36072649331666,22.8571464089276L90.62574844019164,32.910529112555245L90.87184024800416,28.086237470823935L91.11793205581665,31.711030876442088L91.3924190722229,23.380004614412815L91.64797594956666,28.35790841227215L91.9224629659729,23.254295298975194L92.16855477378539,28.03678666526651L92.4146465815979,32.742109478780606L92.6607383894104,28.199483825908978L92.91629526675415,36.354301103943236L93.18131721362916,25.6435897884518L93.4368740909729,24.97483165477951L93.7018960378479,11.826022871401099L93.9669179847229,26.44138892003219L94.22247486206666,30.9456385266696L94.4969618784729,14.346409811418104L94.75251875581665,21.817861996059907L95.02700577222289,19.962808960509395L95.28256264956666,8.031452479890676L95.54758459644165,32.091043196004875L95.8220716128479,20.521883788405347L96.09655862925415,16.996115389549114L96.36158057612916,30.150955135177355L96.6360675925354,27.111674074836777L96.8821594003479,33.50324467872967L97.12825120816039,16.00895021310641L97.40273822456666,28.535197108178906L97.66776017144164,15.993494908312735L97.91385197925416,18.969797915287444L98.15994378706665,38.151635825583604L98.4155006644104,8.385597986939503L98.67105754175415,25.873645547930582L98.93607948862915,28.73497466076148L99.1916363659729,30.699032326029506L99.44719324331665,29.690365458087424L99.72168025972289,23.651413340111038L99.9867022065979,21.605235871727672L100.2517241534729,31.579120929739947L100.4978159612854,40.71925244951104L100.75337283862915,19.293510970881243L101.0089297159729,20.968653153025073L101.2550215237854,17.677166814559275L101.50111333159789,14.803158798993428L101.77560034800416,24.308032427004235L102.04062229487914,13.013891067779296L102.29617917222289,5.559128144401725L102.5422709800354,30.681648964250602L102.79782785737915,26.941357232988647L103.04391966519165,28.925281597432587L103.29001147300416,20.724113829473158L103.53610328081665,19.6652866310031L103.80112522769166,10.710371977462032L104.0566821050354,21.881426178749276L104.32170405191039,32.368930193173505L104.57726092925414,20.300033839455747L104.8517479456604,25.562611395071734L105.0978397534729,34.70707718694566L105.37232676987915,20.732643553575866L105.6278836472229,30.406121908831903L105.89290559409791,11.976503862985084L106.15792754097289,29.01335524051833L106.41348441831664,23.63298111533214L106.66904129566039,19.821459246807493L106.92459817300414,17.612785135708158L107.18962011987915,22.105142486860615L107.4451769972229,12.704846669729195L107.7101989440979,15.796617153435955L107.95629075191039,22.812029875472984L108.2023825597229,28.103728803794038L108.4484743675354,25.94697341119322L108.7134963144104,13.602642548792065L108.9785182612854,17.39894047936126L109.2435402081604,8.407068829527118L109.50856215503539,16.00012742434196L109.78304917144166,19.227201235044877L110.03860604878541,11.475764327234522L110.2846978565979,17.48059754880013L110.54025473394165,13.28258508924229L110.78634654175414,14.881885221814734L111.04190341909789,32.02353035260974L111.29746029644166,17.458787368183092L111.5530171737854,18.71427637914762L111.8180391206604,26.488803697413207L112.07359599800415,15.365812100653995L112.32915287534789,22.940947477734053L112.58470975269164,16.42340534265352L112.84973169956665,24.823594864857313L113.11475364644166,28.13522554270491L113.3892406628479,14.75056140443609L113.64479754019166,25.13433595305442L113.89088934800415,29.718885277013094L114.15591129487916,27.260535498553164L114.42093324175414,24.17035373380225L114.6954202581604,26.436638187620552L114.9604422050354,11.631304540347776L115.21599908237916,22.4316782178808L115.4715559597229,21.42287252983577L115.72711283706666,22.437354417645338L115.9826697144104,36.466853358513575L116.23822659175416,10.834723940782048L116.5127136081604,26.34136132363796L116.7777355550354,33.15855436313648L117.0238273628479,-0.31435041087345156L117.2699191706604,25.607727928526334L117.53494111753541,7.987955514303675L117.79996306441039,5.820480124864923L118.04605487222291,30.845441261260678L118.30161174956666,21.563558991934745L118.5760987659729,11.21151254906551L118.83165564331665,18.575919009886814L119.09667759019165,11.733013402433137L119.36169953706666,26.678308562378426L119.6172564144104,17.655881065442223L119.8822783612854,20.845334628249155L120.13783523862915,13.893270146519145L120.38392704644166,20.37832837751235L120.6394839237854,6.673452535134936L120.8855757315979,26.611890855350904L121.1505976784729,32.18073640695823L121.3966894862854,13.697903988318785L121.67117650269165,12.308684944858038L121.9267333800354,25.793746866462257L122.17282518784789,15.053436020133416L122.4378471347229,14.068121778396558L122.7028690815979,23.912549378191883L122.95842595894165,17.53587879868091L123.2139828362854,12.089194937658371L123.46953971362915,31.47509839927229L123.71563152144165,27.5396873011041L123.9711883987854,20.617345745858547L124.2362103456604,22.87724447494174L124.49176722300415,18.53800569732907L124.75678916987916,14.327838766536283L125.0123460472229,5.71914144972073L125.26790292456666,17.531158915181038L125.53292487144165,9.59265420643479L125.80741188784789,18.696846744001054L126.05350369566041,20.565118538242356L126.30906057300416,16.445801652594074L126.55515238081665,32.788583364352824L126.82017432769166,31.36424283484895L127.06626613550415,6.661884193223509L127.33128808237915,20.79175006851538L127.59631002925416,22.417719085307652L127.84240183706665,14.409773476181016L128.0979587144104,33.89389987285098L128.3440505222229,20.20960025462005L128.6090724690979,25.64685977309876L128.8740944159729,20.35369552146893L129.13911636284791,8.203404314062295L129.41360337925414,20.465661646715773L129.6691602565979,21.830371229780148L129.94364727300416,20.737147494693385L130.20866921987914,17.059972636900245L130.4642260972229,19.839968593865798L130.71978297456667,23.307648491870744L130.9753398519104,16.779463482231705L131.23089672925417,21.209490607165325L131.49591867612915,11.55822346837926L131.76094062300416,11.439640251559062L132.02596256987914,29.848111368391795L132.3004495862854,16.610133805560015L132.55600646362913,29.50918979929844L132.82102841050414,23.14970206363991L133.08605035737915,13.129636184717194L133.34160723472291,29.657125755661905L133.59716411206665,20.1887618147236L133.84325591987914,29.944452519830254L134.0988127972229,18.718132493118084L134.3638347440979,27.483511432782144L134.6099265519104,8.599967074786386L134.86548342925417,36.889714816516324L135.1210403065979,28.496481723915288L135.3860622534729,19.39870575999592L135.6510842003479,11.454355182470422L135.8971760081604,19.506491857698755L136.1621979550354,16.20644494621848L136.40828976284791,29.76758028423231L136.6543815706604,26.613155660733224L136.90993844800414,20.800125548059253L137.1844254644104,21.91511319039539L137.43998234175416,11.100209675421613L137.70500428862914,25.44085074033988L137.95109609644166,31.612900488121344L138.21611804331664,16.286960605922093L138.46220985112916,8.461023576202061L138.72723179800414,9.524447262524959L138.99225374487915,15.726991159584966L139.25727569175416,26.583494432072282L139.52229763862914,34.19600326575423L139.7778545159729,18.712641386824128L140.0239463237854,17.05448153060629L140.27003813159791,20.97846310696598L140.5350600784729,13.09018042657126L140.78115188628541,12.147468531980246L141.03670876362915,29.18652560670461L141.28280057144164,23.639783300376056L141.5383574487854,21.808530200251344L141.79391432612914,31.48915007858072L142.0494712034729,24.611539445392726L142.30502808081664,28.02529544563449L142.55111988862916,19.11848966998912L142.8066767659729,21.98560295377575L143.05276857378541,18.652270066502314L143.30832545112915,23.267375237563062L143.56388232847289,25.912546025664785L143.81943920581665,19.523335363521802L144.07499608316039,37.47875936219086L144.3210878909729,23.436782036514163L144.5671796987854,32.5904408040937L144.8132715065979,24.289245439740064L145.08775852300417,25.821803951711455L145.3622455394104,46.006262343243996L145.60833734722289,48.821950491120305L145.85442915503538,55.444178408271405L146.10052096284792,31.674351520354897L146.36554290972288,35.52654767904014L146.61163471753542,44.88498152290803L146.86719159487913,34.341964891764796L147.12274847222292,41.778974266422274L147.3688402800354,47.41670543799826L147.6149320878479,26.66825181714342L147.87048896519167,36.90000292858958L148.1260458425354,35.686977444667974L148.38160271987917,35.66623155150678L148.6371595972229,26.266691532713594L148.89271647456667,41.30825072181793L149.1482733519104,28.30383026995014L149.41329529878539,31.95287092021467L149.66885217612915,45.10488799041653L149.92440905347289,23.08144884636244L150.19889606987914,27.244031330759498L150.4544529472229,42.32405911283335L150.7005447550354,29.790485601216954L150.94663656284789,40.2388886199805L151.20219344019165,42.506021418872315L151.44828524800414,40.810997113096704L151.70384212534788,19.58074518831431L151.94993393316042,38.272301343947845L152.20549081050416,42.36490307200866L152.46104768784792,36.05431086149583L152.71660456519163,31.522482327741542L152.98162651206664,29.19585740251317L153.24664845894165,42.87452709434721L153.51167040581666,22.527649182378088L153.7672272831604,26.199826516465475L154.04171429956665,47.78174061089971L154.29727117691039,32.69713176542893L154.55282805425415,36.69222008340426L154.8273150706604,41.19235136032122L155.08287194800414,25.679204857083146L155.3384288253479,28.06630907382451L155.5845206331604,18.026438193549396L155.8495425800354,30.12366927272224L156.0956343878479,26.28620346940421L156.34172619566039,19.72684563442783L156.6067481425354,25.143174166274765L156.85283995034789,16.78375148096687L157.10839682769165,19.5785240666673L157.37341877456666,16.602452426530817L157.63844072144167,24.374218767193554L157.8939975987854,12.256982168741855L158.14955447612917,25.409755037281922L158.4240414925354,26.32985467955005L158.67959836987916,33.308140736279306L158.94462031675414,18.170163273457106L159.2001771940979,26.697727952333757L159.4462690019104,35.56480032962731L159.69236080972289,37.69081478165547L159.9573827565979,26.294841164698095L160.2224047034729,27.676347980217876L160.4874266503479,24.756945790991544L160.7524485972229,21.967109031173337L160.9985404050354,22.95001705779262L161.27302742144164,30.67402928304492L161.51911922925413,31.217509986044274L161.7746761065979,23.095423403391443L162.03023298394163,17.93759332766955L162.27632479175418,18.439937006831837L162.5508118081604,30.810381473041065L162.7969036159729,24.17732558786088L163.04299542378538,39.69340273771651L163.29855230112915,52.53054496554491L163.55410917847288,37.6579452661711L163.82859619487914,18.61478863870925L164.10308321128542,24.46554697047038L164.35864008862913,30.228740666189868L164.63312710503538,22.382813541646875L164.90761412144167,29.520264558621648L165.1821011378479,16.926489395698123L165.4471230847229,27.284659347552473L165.7121450315979,29.355870707832175L165.96770190894165,38.811247256917916L166.24218892534788,31.331681808482216L166.49774580269164,35.455734002086274L166.75330268003538,19.349285803350263L167.01832462691038,38.178736594568136L167.2644164347229,8.831056272809267L167.53890345112916,26.428077614606096L167.78499525894165,13.117913598246933L168.05001720581666,21.87470111598477L168.3055740831604,26.380323499195676L168.56113096050416,21.834504983956496L168.80722276831665,25.25873418974208L169.07224471519166,28.888756485904192L169.33726666206667,28.83910516242031L169.58335846987916,21.548797787655744L169.85784548628538,35.80940135100274L170.11340236362915,31.02455004296149L170.35949417144167,34.60765114433082L170.62451611831665,23.62775222478818L170.8990031347229,30.40860524622891L171.15456001206667,16.959682824756023L171.4101168894104,28.35514743466928L171.66567376675417,33.458297814289764L171.9212306440979,19.906987854672735L172.17678752144167,22.074077632714427L172.42287932925416,32.777369784926655L172.66897113706665,21.849343310514904L172.93399308394166,32.64724907510682L173.1895499612854,15.140214008925089L173.4545719081604,25.08456123392347L173.71012878550417,30.964487211757305L173.9656856628479,30.502586455917413L174.22124254019167,29.950267539697734L174.46733434800416,29.391485776463522L174.71342615581665,29.32690357968593L174.95951796362914,28.463056928019164L175.2150748409729,32.026075387830254L175.4800967878479,25.332987520357637L175.74511873472292,35.960807809939645L176.00067561206666,30.313282108878653L176.24676741987915,13.847058476696914L176.5212544362854,34.562673430979146L176.76734624409792,18.545563680711197L177.04183326050415,26.711517415892196L177.2973901378479,28.835912300052758L177.5434819456604,25.053265012939054L177.7895737534729,31.036611967461155L178.06406076987915,21.46623067531985L178.3196176472229,33.008659500876014L178.5657094550354,34.60581563408088L178.82126633237914,28.24165428829014L179.0768232097229,37.705375468007986L179.3229150175354,15.571173306265845L179.5879369644104,12.021604971983809L179.84349384175414,18.55926059753435L180.08958564956666,19.914083104378413L180.35460759644164,19.70526682064902L180.61962954331665,31.724002843838782L180.86572135112917,25.116551555422557L181.14020836753542,47.20031574643084L181.41469538394165,22.301017652105067L181.6702522612854,17.57046042876818L181.9163440690979,12.027558811954213L182.17190094644164,15.753212734584235L182.41799275425413,31.482733504933847L182.6735496315979,16.71094804920422L182.92910650894163,33.62391019709392L183.19412845581664,28.399245954035674L183.44022026362913,21.790961745001834L183.6957771409729,27.49598981759062L183.95133401831666,37.427935780059954L184.21635596519164,19.855377625291833L184.4719128425354,24.163798340052434L184.7369347894104,17.687069315235462L185.00195673628542,27.574346053470755L185.2669786831604,34.27639552981077L185.51307049097292,33.22268925069349L185.7591622987854,31.701359742604126L186.01471917612915,15.18099627027688L186.27974112300413,23.9210636778387L186.54476306987914,31.128911911458545L186.8003199472229,20.043972447360044L187.0653418940979,11.189949159742595L187.32089877144165,26.218891143935533L187.5764556487854,21.08648057150704L187.85094266519167,20.4711681774656L188.10649954253537,29.439008525035717L188.37152148941038,20.729558662399487L188.6365434362854,9.155617673476561L188.9015653831604,14.862666349785878L189.17605239956663,18.15658975228102L189.44107434644164,29.417568531359848L189.6966312237854,20.175357962562202L189.9427230315979,22.152726933256325L190.19827990894163,19.16059843454677L190.44437171675418,21.11529345509447L190.70939366362913,34.98579710473191L190.95548547144165,30.919108462552714L191.20157727925417,18.556545893299123L191.44766908706666,30.11885684248709L191.70322596441042,30.96575201713963L191.96824791128537,21.82289036867741L192.22380478862917,15.999417899371391L192.47936166597287,20.351860011218978L192.75384868237916,32.19529709331075L193.0094055597229,21.156831514784475L193.26496243706666,14.701943519496284L193.52998438394167,27.85752363900688L193.7855412612854,19.05524940087328L194.0316330690979,16.047943237575897L194.28718994644166,38.353788744372025L194.5427468237854,20.698061923488616L194.79830370112916,28.19622926571789L195.0538605784729,39.366034086078706L195.30941745581666,34.47729906767274L195.5649743331604,26.279293313169116L195.82053121050416,34.43505148301217L196.08555315737917,23.035345147731388L196.34111003472287,30.520463400284555L196.61559705112916,21.625411060021214L196.8711539284729,19.15504563042928L197.12671080581666,18.41192619495028L197.4011978222229,38.128869328701896L197.67568483862914,33.11035293850548L197.9312417159729,53.70240257671768L198.18679859331664,24.24431399975605L198.43289040112913,31.11805309451767L198.67898220894168,33.10193118559397L198.94400415581663,27.51506986951655L199.1995610331604,31.38716357628947L199.4645829800354,19.8248680515574L199.72013985737914,38.24763763899266L199.96623166519166,43.5113566043439L200.2217885425354,44.78160681958743L200.47734541987916,32.6292487350926L200.72343722769165,31.39714319924509L200.96952903550417,35.811776717208566L201.23455098237915,31.060149687136963L201.49010785972288,26.80494334516897L201.74566473706665,26.25421314790512L201.99175654487914,36.935772241779745L202.2473134222229,40.1887437139084L202.51233536909788,30.204477997087615L202.7584271769104,45.39235357468782L203.02344912378538,34.15841386676998L203.2884710706604,30.351503910554033L203.5534930175354,37.52092982457202L203.7995848253479,29.008403990180234L204.0456766331604,27.956224732195256L204.30123351050415,41.217955957085195L204.56625545737916,32.80662997773466L204.82181233472292,36.93854864383849L205.0679041425354,23.969141706822647L205.33292608941042,30.592079148944293L205.60741310581665,28.26110452715724L205.8819001222229,33.11061515425548L206.1469220690979,22.050231423920984L206.40247894644165,31.46087705094917L206.64857075425417,54.657253518087764L206.89466256206666,36.96527922588185L207.1502194394104,45.19393337422283L207.39631124722288,37.772780340211966L207.6424030550354,32.60035872922579L207.8884948628479,28.614941545088417L208.16298187925415,36.80859760303334L208.42800382612916,25.984516536809796L208.69302577300417,33.480231390553854L208.95804771987915,42.664769918809014L209.21360459722288,26.942267275885676L209.46916147456665,46.48024044803943L209.73418342144166,17.068980519135277L210.0086704378479,28.80322787803897L210.2547622456604,21.503125973789395L210.51031912300417,32.858965156542006L210.75641093081666,30.303410457114232L211.00250273862915,35.51804880384922L211.24859454644164,38.019047202822655L211.5041514237854,30.30954939055522L211.75024323159792,25.257808722389157L212.0152651784729,38.830265611020316L212.2613569862854,28.87723441736041L212.5074487940979,35.94422651986657L212.7535406019104,24.506992483425083L213.02802761831663,35.39790771698496L213.29304956519164,25.574565348380204L213.55807151206665,23.60020414658307L213.82309345894166,35.54795682380424L214.07865033628542,26.46580583369326L214.35313735269165,22.00295546664291L214.59922916050414,15.991150391018675L214.8547860378479,30.844993952040102L215.11034291519164,26.582291324513495L215.3658997925354,27.08079431416117L215.62145666987914,22.132058162374562L215.86754847769163,17.677043418912223L216.13257042456664,34.737555911768325L216.3881273019104,18.427443197567488L216.64368417925414,15.56605238691304L216.9181711956604,22.124376783345365L217.1831931425354,23.15943489530141L217.44821508941038,25.61523963854082L217.7132370362854,14.818984290728272L217.95932884409788,33.45471934052517L218.20542065191037,18.656712309796294L218.47044259878538,17.65532578503047L218.71653440659787,20.449481392495635L218.97209128394164,17.91325353628789L219.2276481612854,7.637049142990062L219.49267010816038,14.333885153241988L219.74822698550415,11.427238989030018L220.00378386284788,15.093200267397005L220.2498756706604,14.795384873228949L220.5148976175354,22.545402731098164L220.7609894253479,29.843268089244877L221.0260113722229,24.15980340597901L221.30049838862917,16.072005388751688L221.54659019644166,30.53252532478422L221.8021470737854,12.247079668065668L222.0482388815979,22.16207415352076L222.32272589800417,21.03797065775841L222.58774784487915,29.633557187074327L222.84330472222288,27.532252713369L223.1083266690979,17.102544135134345L223.35441847691038,21.958070300026534L223.60051028472293,22.815176464472895L223.85606716206664,14.831848286933788L224.1116240394104,25.142742281510063L224.36718091675414,15.292545935214896L224.6227377940979,16.258579607099364L224.8877597409729,13.36208273485768L225.16224675737917,5.458992576816319L225.4178036347229,16.65612953299989L225.67336051206667,26.800053792654406L225.9289173894104,8.078281127948175L226.18447426675417,5.677618814486619L226.44949621362915,-0.3715134443718606L226.69558802144167,14.752134698936047L226.94167982925416,27.48863235213495L227.18777163706665,9.637601070874698L227.45279358394166,5.6985652255742485L227.71781553081664,15.993093872459799L227.98283747769165,25.484363130382754L228.24785942456666,7.978361502745121L228.5034163019104,18.939072399170676L228.74950810972288,8.200905552209418L229.00506498706665,19.183426629252008L229.25115679487914,8.192267856915553L229.5256438112854,15.233069233334232L229.78120068862916,24.904341891399152L230.0367575659729,4.761930566600729L230.3017795128479,6.695663751604907L230.56680145972288,10.581701166495082L230.82235833706665,18.772426577822447L231.07791521441038,9.094721921654758L231.33347209175415,16.558924612032047L231.58902896909788,14.068491965337726L231.8540509159729,19.93974939896593L232.10014272378538,14.149532056541325L232.37462974019166,8.71660681016544L232.62072154800416,11.59397735711353L232.8762784253479,6.296602229027939L233.13183530269166,21.34645977539676L233.37792711050415,22.636854330022064L233.6334839878479,14.693614313320053L233.90797100425416,20.221199445443265L234.15406281206666,17.58091820985612L234.41908475894166,8.646795722843885L234.66517656675416,13.921466051871286L234.93019851362916,13.487391014442386L235.1857553909729,6.695170169016689L235.45077733784788,9.408455354292942L235.70633421519165,16.942438283080037L235.97135616206666,6.4789192975521965L236.2269130394104,3.138691678499541L236.47300484722288,14.717121184084093L236.7380267940979,20.489584977788624L237.0030487409729,13.361774245740046L237.25860561831666,16.758763862438176L237.5141624956604,6.97635799974403L237.76971937300416,16.90054546090474L238.01581118081666,10.319917301267182L238.2713680581604,26.47533814742828L238.5174598659729,12.488873438470588L238.7824818128479,17.80272188543808L239.0285736206604,16.18771965677784L239.29359556753542,15.11701562727868L239.5586175144104,2.1110835787344673L239.81417439175416,11.5729383992906L240.06026619956666,13.541808494793779L240.30635800737915,15.555563756913351L240.57137995425416,10.825623511811711L240.82693683159792,28.084895543162204L241.0730286394104,12.088608808334852L241.32858551675415,12.682573755435708L241.57467732456666,5.526983578343818L241.82076913237916,8.077910941007007L242.0763260097229,9.551224117935963L242.3413479565979,13.364026216298805L242.6063699034729,7.1516415163861256L242.8713918503479,12.943956584810673L243.1364137972229,24.437196820559404L243.3825056050354,-1.9538158265624395L243.65699262144165,26.45465395209064L243.9125494987854,13.79100600402203L244.18703651519166,4.650627692956814L244.45205846206665,9.124151783477455L244.71708040894165,12.125380711157344L244.9726372862854,18.387031123156866L245.22819416362915,9.266550360179307L245.49321611050416,23.71230909193284L245.75823805737915,0.30201084616794033L246.0327250737854,8.874429842749219L246.28828195112914,7.50464561369968L246.53437375894163,2.4859904034003395L246.7899306362854,7.9809219624215135L247.0549525831604,15.49429781815038L247.3199745300354,15.617230731529258L247.57553140737915,11.119521094185773L247.84055335425415,5.672652139692632L248.09611023159792,-4.892174672067616L248.37059724800415,16.714865860998238L248.61668905581664,4.542995839812795L248.8722459331604,5.78864404792465L249.12780281050414,-5.855863826658044L249.4022898269104,3.3757347164928455L249.6673117737854,9.180697838740558L249.9323337206604,-3.377616500110436L250.20682073706664,14.245009438450376L250.4623776144104,8.511492395847709L250.7273995612854,11.775862540873105L250.99242150816042,22.761684451474405L251.24797838550415,4.0468836408268185L251.51300033237914,16.301490443362848L251.77802227925415,13.82722262643277L252.03357915659788,0.37126665307774176L252.2986011034729,20.789667766971313L252.55415798081665,16.004816458930062L252.80024978862915,23.044075389760554L253.0558066659729,17.348379112980332L253.3018984737854,5.677125231898382L253.5479902815979,6.870700476952903L253.7940820894104,3.413123597550607L254.04963896675417,9.85514759663326L254.31466091362913,17.754690129821793L254.5702177909729,8.326275529617638" fill="none"></path></g></g></g></g></g></g><g transform="translate(41, 176)" clip-path="url(#clip_1)"><clipPath id="clip_1"><rect width="288" height="23"></rect></clipPath><g><g><line x1="0" y1="0" x2="0" y2="5" style="visibility: inherit;" fill="rgb(0, 0, 0)" stroke="rgb(204, 204, 204)" stroke-width="1px"></line><line x1="28.8850998878479" y1="0" x2="28.8850998878479" y2="5" style="visibility: inherit;" fill="rgb(0, 0, 0)" stroke="rgb(204, 204, 204)" stroke-width="1px"></line><line x1="57.7701997756958" y1="0" x2="57.7701997756958" y2="5" style="visibility: inherit;" fill="rgb(0, 0, 0)" stroke="rgb(204, 204, 204)" stroke-width="1px"></line><line x1="86.6552996635437" y1="0" x2="86.6552996635437" y2="5" style="visibility: inherit;" fill="rgb(0, 0, 0)" stroke="rgb(204, 204, 204)" stroke-width="1px"></line><line x1="115.5403995513916" y1="0" x2="115.5403995513916" y2="5" style="visibility: inherit;" fill="rgb(0, 0, 0)" stroke="rgb(204, 204, 204)" stroke-width="1px"></line><line x1="144.4254994392395" y1="0" x2="144.4254994392395" y2="5" style="visibility: inherit;" fill="rgb(0, 0, 0)" stroke="rgb(204, 204, 204)" stroke-width="1px"></line><line x1="173.3105993270874" y1="0" x2="173.3105993270874" y2="5" style="visibility: inherit;" fill="rgb(0, 0, 0)" stroke="rgb(204, 204, 204)" stroke-width="1px"></line><line x1="202.1956992149353" y1="0" x2="202.1956992149353" y2="5" style="visibility: inherit;" fill="rgb(0, 0, 0)" stroke="rgb(204, 204, 204)" stroke-width="1px"></line><line x1="231.0807991027832" y1="0" x2="231.0807991027832" y2="5" style="visibility: inherit;" fill="rgb(0, 0, 0)" stroke="rgb(204, 204, 204)" stroke-width="1px"></line><line x1="259.9658989906311" y1="0" x2="259.9658989906311" y2="5" style="visibility: inherit;" fill="rgb(0, 0, 0)" stroke="rgb(204, 204, 204)" stroke-width="1px"></line><line x1="288.850998878479" y1="0" x2="288.850998878479" y2="5" style="visibility: inherit;" fill="rgb(0, 0, 0)" stroke="rgb(204, 204, 204)" stroke-width="1px"></line></g><g transform="translate(0, 8)"><text style="text-anchor: middle; visibility: hidden; font-family: Roboto, sans-serif; font-size: 12px; font-weight: 200;" x="0" y="0" dx="0em" dy="0.95em" fill="rgb(33, 33, 33)" stroke="none" stroke-width="1px">-50M</text><text style="text-anchor: middle; visibility: inherit; font-family: Roboto, sans-serif; font-size: 12px; font-weight: 200;" x="28.8850998878479" y="0" dx="0em" dy="0.95em" fill="rgb(33, 33, 33)" stroke="none" stroke-width="1px">0</text><text style="text-anchor: middle; visibility: hidden; font-family: Roboto, sans-serif; font-size: 12px; font-weight: 200;" x="57.7701997756958" y="0" dx="0em" dy="0.95em" fill="rgb(33, 33, 33)" stroke="none" stroke-width="1px">50M</text><text style="text-anchor: middle; visibility: inherit; font-family: Roboto, sans-serif; font-size: 12px; font-weight: 200;" x="86.6552996635437" y="0" dx="0em" dy="0.95em" fill="rgb(33, 33, 33)" stroke="none" stroke-width="1px">100M</text><text style="text-anchor: middle; visibility: hidden; font-family: Roboto, sans-serif; font-size: 12px; font-weight: 200;" x="115.5403995513916" y="0" dx="0em" dy="0.95em" fill="rgb(33, 33, 33)" stroke="none" stroke-width="1px">150M</text><text style="text-anchor: middle; visibility: inherit; font-family: Roboto, sans-serif; font-size: 12px; font-weight: 200;" x="144.4254994392395" y="0" dx="0em" dy="0.95em" fill="rgb(33, 33, 33)" stroke="none" stroke-width="1px">200M</text><text style="text-anchor: middle; visibility: hidden; font-family: Roboto, sans-serif; font-size: 12px; font-weight: 200;" x="173.3105993270874" y="0" dx="0em" dy="0.95em" fill="rgb(33, 33, 33)" stroke="none" stroke-width="1px">250M</text><text style="text-anchor: middle; visibility: inherit; font-family: Roboto, sans-serif; font-size: 12px; font-weight: 200;" x="202.1956992149353" y="0" dx="0em" dy="0.95em" fill="rgb(33, 33, 33)" stroke="none" stroke-width="1px">300M</text><text style="text-anchor: middle; visibility: hidden; font-family: Roboto, sans-serif; font-size: 12px; font-weight: 200;" x="231.0807991027832" y="0" dx="0em" dy="0.95em" fill="rgb(33, 33, 33)" stroke="none" stroke-width="1px">350M</text><text style="text-anchor: middle; visibility: inherit; font-family: Roboto, sans-serif; font-size: 12px; font-weight: 200;" x="259.9658989906311" y="0" dx="0em" dy="0.95em" fill="rgb(33, 33, 33)" stroke="none" stroke-width="1px">400M</text><text style="text-anchor: middle; visibility: hidden; font-family: Roboto, sans-serif; font-size: 12px; font-weight: 200;" x="288.850998878479" y="0" dx="0em" dy="0.95em" fill="rgb(33, 33, 33)" stroke="none" stroke-width="1px">450M</text></g><line x1="0" y1="0" x2="288.850998878479" y2="0" fill="rgb(0, 0, 0)" stroke="rgb(204, 204, 204)" stroke-width="1px"></line></g></g></g></g></svg>