<svg viewBox="0 0 330 200" xmlns="http://www.w3.org/2000/svg"><g><g><g><g><g><line x1="41.149001121520996" y1="176.89999961853027" x2="36.149001121520996" y2="176.89999961853027" style="visibility: inherit;" fill="rgb(0, 0, 0)" stroke="rgb(204, 204, 204)" stroke-width="1px"></line><line x1="41.149001121520996" y1="151.6285711015974" x2="36.149001121520996" y2="151.6285711015974" style="visibility: inherit;" fill="rgb(0, 0, 0)" stroke="rgb(204, 204, 204)" stroke-width="1px"></line><line x1="41.149001121520996" y1="126.35714258466449" x2="36.149001121520996" y2="126.35714258466449" style="visibility: inherit;" fill="rgb(0, 0, 0)" stroke="rgb(204, 204, 204)" stroke-width="1px"></line><line x1="41.149001121520996" y1="101.08571406773157" x2="36.149001121520996" y2="101.08571406773157" style="visibility: inherit;" fill="rgb(0, 0, 0)" stroke="rgb(204, 204, 204)" stroke-width="1px"></line><line x1="41.149001121520996" y1="75.8142855507987" x2="36.149001121520996" y2="75.8142855507987" style="visibility: inherit;" fill="rgb(0, 0, 0)" stroke="rgb(204, 204, 204)" stroke-width="1px"></line><line x1="41.149001121520996" y1="50.542857033865786" x2="36.149001121520996" y2="50.542857033865786" style="visibility: inherit;" fill="rgb(0, 0, 0)" stroke="rgb(204, 204, 204)" stroke-width="1px"></line><line x1="41.149001121520996" y1="25.271428516932904" x2="36.149001121520996" y2="25.271428516932904" style="visibility: inherit;" fill="rgb(0, 0, 0)" stroke="rgb(204, 204, 204)" stroke-width="1px"></line><line x1="41.149001121520996" y1="0" x2="36.149001121520996" y2="0" style="visibility: inherit;" fill="rgb(0, 0, 0)" stroke="rgb(204, 204, 204)" stroke-width="1px"></line></g><g transform="translate(31.149001121520996, 0)"><text style="text-anchor: end; visibility: hidden; font-family: Roboto, sans-serif; font-size: 12px; font-weight: 200;" x="0" y="176.89999961853027" dx="0em" dy="0.3em" fill="rgb(33, 33, 33)" stroke="none" stroke-width="1px">200</text><text style="text-anchor: end; visibility: inherit; font-family: Roboto, sans-serif; font-size: 12px; font-weight: 200;" x="0" y="151.6285711015974" dx="0em" dy="0.3em" fill="rgb(33, 33, 33)" stroke="none" stroke-width="1px">250</text><text style="text-anchor: end; visibility: inherit; font-family: Roboto, sans-serif; font-size: 12px; font-weight: 200;" x="0" y="126.35714258466449" dx="0em" dy="0.3em" fill="rgb(33, 33, 33)" stroke="none" stroke-width="1px">300</text><text style="text-anchor: end; visibility: inherit; font-family: Roboto, sans-serif; font-size: 12px; font-weight: 200;" x="0" y="101.08571406773157" dx="0em" dy="0.3em" fill="rgb(33, 33, 33)" stroke="none" stroke-width="1px">350</text><text style="text-anchor: end; visibility: inherit; font-family: Roboto, sans-serif; font-size: 12px; font-weight: 200;" x="0" y="75.8142855507987" dx="0em" dy="0.3em" fill="rgb(33, 33, 33)" stroke="none" stroke-width="1px">400</text><text style="text-anchor: end; visibility: inherit; font-family: Roboto, sans-serif; font-size: 12px; font-weight: 200;" x="0" y="50.542857033865786" dx="0em" dy="0.3em" fill="rgb(33, 33, 33)" stroke="none" stroke-width="1px">450</text><text style="text-anchor: end; visibility: inherit; font-family: Roboto, sans-serif; font-size: 12px; font-weight: 200;" x="0" y="25.271428516932904" dx="0em" dy="0.3em" fill="rgb(33, 33, 33)" stroke="none" stroke-width="1px">500</text><text style="text-anchor: end; visibility: hidden; font-family: Roboto, sans-serif; font-size: 12px; font-weight: 200;" x="0" y="0" dx="0em" dy="0.3em" fill="rgb(33, 33, 33)" stroke="none" stroke-width="1px">550</text></g><line x1="41.149001121520996" y1="0" x2="41.149001121520996" y2="176.89999961853027" fill="rgb(0, 0, 0)" stroke="rgb(204, 204, 204)" stroke-width="1px"></line></g></g><g transform="translate(41, 0)" clip-path="url(#clip_0)"><clipPath id="clip_0"><rect width="288" height="176"></rect></clipPath><g><g><g><line x1="0" y1="0" x2="0" y2="176.89999961853027" fill="rgb(0, 0, 0)" stroke="rgb(66, 66, 66)" stroke-width="1px" opacity="0.25"></line><line x1="36.106374859809875" y1="0" x2="36.106374859809875" y2="176.89999961853027" fill="rgb(0, 0, 0)" stroke="rgb(66, 66, 66)" stroke-width="1px" opacity="0.25"></line><line x1="72.21274971961975" y1="0" x2="72.21274971961975" y2="176.89999961853027" fill="rgb(0, 0, 0)" stroke="rgb(66, 66, 66)" stroke-width="1px" opacity="0.25"></line><line x1="108.31912457942963" y1="0" x2="108.31912457942963" y2="176.89999961853027" fill="rgb(0, 0, 0)" stroke="rgb(66, 66, 66)" stroke-width="1px" opacity="0.25"></line><line x1="144.4254994392395" y1="0" x2="144.4254994392395" y2="176.89999961853027" fill="rgb(0, 0, 0)" stroke="rgb(66, 66, 66)" stroke-width="1px" opacity="0.25"></line><line x1="180.53187429904938" y1="0" x2="180.53187429904938" y2="176.89999961853027" fill="rgb(0, 0, 0)" stroke="rgb(66, 66, 66)" stroke-width="1px" opacity="0.25"></line><line x1="216.63824915885925" y1="0" x2="216.63824915885925" y2="176.89999961853027" fill="rgb(0, 0, 0)" stroke="rgb(66, 66, 66)" stroke-width="1px" opacity="0.25"></line><line x1="252.74462401866913" y1="0" x2="252.74462401866913" y2="176.89999961853027" fill="rgb(0, 0, 0)" stroke="rgb(66, 66, 66)" stroke-width="1px" opacity="0.25"></line><line x1="288.850998878479" y1="0" x2="288.850998878479" y2="176.89999961853027" fill="rgb(0, 0, 0)" stroke="rgb(66, 66, 66)" stroke-width="1px" opacity="0.25"></line></g><g><line x1="0" y1="176.89999961853027" x2="288.850998878479" y2="176.89999961853027" fill="rgb(0, 0, 0)" stroke="rgb(66, 66, 66)" stroke-width="1px" opacity="0.25"></line><line x1="0" y1="151.6285711015974" x2="288.850998878479" y2="151.6285711015974" fill="rgb(0, 0, 0)" stroke="rgb(66, 66, 66)" stroke-width="1px" opacity="0.25"></line><line x1="0" y1="126.35714258466449" x2="288.850998878479" y2="126.35714258466449" fill="rgb(0, 0, 0)" stroke="rgb(66, 66, 66)" stroke-width="1px" opacity="0.25"></line><line x1="0" y1="101.08571406773157" x2="288.850998878479" y2="101.08571406773157" fill="rgb(0, 0, 0)" stroke="rgb(66, 66, 66)" stroke-width="1px" opacity="0.25"></line><line x1="0" y1="75.8142855507987" x2="288.850998878479" y2="75.8142855507987" fill="rgb(0, 0, 0)" stroke="rgb(66, 66, 66)" stroke-width="1px" opacity="0.25"></line><line x1="0" y1="50.542857033865786" x2="288.850998878479" y2="50.542857033865786" fill="rgb(0, 0, 0)" stroke="rgb(66, 66, 66)" stroke-width="1px" opacity="0.25"></line><line x1="0" y1="25.271428516932904" x2="288.850998878479" y2="25.271428516932904" fill="rgb(0, 0, 0)" stroke="rgb(66, 66, 66)" stroke-width="1px" opacity="0.25"></line><line x1="0" y1="0" x2="288.850998878479" y2="0" fill="rgb(0, 0, 0)" stroke="rgb(66, 66, 66)" stroke-width="1px" opacity="0.25"></line></g></g></g><g><g><line x1="0" y1="277.9857136862619" x2="288.850998878479" y2="277.9857136862619" fill="rgb(0, 0, 0)" stroke="rgb(153, 153, 153)" stroke-width="1.5px"></line></g></g><g><g><line x1="36.106374859809875" y1="0" x2="36.106374859809875" y2="176.89999961853027" fill="rgb(0, 0, 0)" stroke="rgb(153, 153, 153)" stroke-width="1.5px"></line></g></g><g><g><g><g><g><path style="fill: none;" stroke="rgb(187, 187, 187)" stroke-width="2px" d="M39.283735847473146,188.35420014892964L39.50037409663201,174.61378464941157L39.71701234579086,161.55150402913205L39.933650594949725,146.80225672740522L40.15028884410859,132.09436111377985L40.36692709326744,125.23622502294829L40.583565342426304,118.90471259549766L40.87241634130478,104.95423693069172L41.08905459046363,94.32335957114502L41.305692839622495,87.19581392022504L41.52233108878136,76.17163644014134L41.73896933794021,70.89875497484968L41.955607587099074,94.21054370852018L42.244458585977554,134.07913995130644L42.46109683513641,151.32378079940622L42.67773508429527,174.64410292243855L42.89437333345413,188.3679682220098L49.03245705962181,178.89889336427063L49.249095308780674,170.6645938863265L49.46573355793954,168.1882499503887L49.754584556818,162.83739885839086L49.971222805976865,159.33739276052756L50.18786105513573,146.2128024486852L50.40449930429458,142.0043488779771L50.69335030317306,132.15254913555916L50.909988552331924,123.16625850223664L51.12662680149078,121.7138346264437L51.34326505064964,111.25470510889177L51.63211604952812,110.74026784003905L51.84875429868698,105.17372929726422L52.06539254784584,106.33439709730156L52.2820307970047,105.17452003997643L52.570881795883174,99.48853553648708L52.78752004504204,93.07783214206056L53.0041582942009,86.79719034572638L53.220796543359754,85.55997081771316L53.437434792518616,90.10252041972649L53.726285791397096,91.57100021503474L53.94292404055595,91.41992052329589L54.15956228971481,93.2556021544334L54.376200538873675,91.49223928173221L54.59283878803253,90.31721780557358L54.88168978691101,86.49525555439006L55.09832803606987,84.54894336755247L55.31496628522873,87.13237138636747L55.53160453438759,83.83451554418755L55.82045553326607,82.53853164468974L56.037093782424925,78.43260285653217L56.25373203158379,76.70857420578731L56.47037028074265,74.56455250810703L56.687008529901505,70.45845640754916L56.975859528779985,61.64281655178805L57.19249777793885,60.51211890517269L57.4091360270977,63.259644722483124L57.625774276256564,64.34075000901484L57.914625275135045,59.92102335508882L58.1312635242939,61.41332528278672L58.34790177345276,63.18091006126907L58.564540022611624,58.89701653070361L58.78117827177047,52.29524590654887L59.07002927064895,53.07551319538085L59.286667519807814,56.45729775673298L59.50330576896667,57.64713618857387L59.71994401812553,60.185968320891526L59.93658226728439,54.730466366726404L60.22543326616287,56.12409345216016L60.44207151532173,54.40585641372786L60.65870976448059,49.37332292209332L60.94756076335907,51.41799720095775L61.164199012517926,56.962440137872036L61.38083726167679,60.687408539368185L61.59747551083564,49.578859380942966L61.814113759994505,48.97620738397531L62.03075200915337,47.0504406241566L62.31960300803184,46.801395633275014L62.5362412571907,53.60526399205548L62.752879506349565,48.11804280558239L62.96951775550842,50.00811749742268L63.18615600466728,50.796796405766045L63.47500700354576,48.845853075893494L63.69164525270462,57.563726820178765L63.90828350186348,55.19020048674719L64.12492175102234,46.909994254346685L64.41377274990082,47.37179107727648L64.63041099905968,42.23455815801676L64.84704924821854,46.706055694859245L65.0636874973774,49.509653669131886L65.28032574653626,51.166195517366766L65.56917674541474,49.20094493514429L65.7858149945736,50.26961288104729L66.00245324373246,42.24305917509283L66.21909149289131,38.56935109805259L66.43572974205017,40.250040766330436L66.72458074092866,40.675848189507725L66.9412189900875,39.806513452898834L67.15785723924637,34.64554477077048L67.37449548840523,34.78689001935489L67.6633464872837,41.44940702109026L67.87998473644257,46.75324523968281L68.09662298560143,52.71696009285385L68.31326123476028,49.30100033401294L68.60211223363876,44.32620726961457L68.81875048279763,47.7014453995429L69.03538873195647,49.04257535696039L69.32423973083496,46.23255060483068L69.54087797999382,44.832684089291824L69.75751622915267,40.838863987969404L69.97415447831153,36.868777674849845L70.1907927274704,39.44933479438491L70.47964372634887,40.12687215461883L70.69628197550773,39.639386938060866L70.91292022466659,38.89321320238012L71.12955847382545,42.95398486852074L71.41840947270393,40.598279198293476L71.63504772186279,40.310736189237055L71.85168597102165,37.75304656361179L72.06832422018051,39.41860017809912L72.28496246933936,34.861870584219126L72.50160071849822,39.69011654833036L72.79045171737671,38.21426790296773L73.00708996653556,41.012482797510785L73.22372821569442,39.13706181863119L73.44036646485328,35.293865860350834L73.65700471401215,41.15631440546351L73.94585571289063,37.471685536064065L74.16249396204948,40.827890491761195L74.37913221120834,38.114023907154255L74.59577046036719,41.25606861546703L74.88462145924568,38.5602628924371L75.10125970840454,38.66828248921746L75.31789795756339,35.996277512115945L75.53453620672227,36.54965407965878L75.82338720560074,36.1071193738358L76.04002545475959,29.84047953775276L76.25666370391846,30.649373712885634L76.47330195307731,31.762115385418152L76.68994020223617,32.99375253336882L76.97879120111466,36.369644271670595L77.19542945027351,26.858105860177666L77.41206769943238,29.937545182727735L77.62870594859123,32.15862868337664L77.9175569474697,32.64947984933681L78.13419519662858,29.32474686252111L78.35083344578743,30.085806942418476L78.6396844446659,31.792496423068695L78.85632269382478,33.63902230625319L79.07296094298363,40.08210905094252L79.28959919214249,31.927293932689928L79.57845019102098,35.92612860442239L79.79508844017982,33.80725460205428L80.01172668933869,34.87730090568488L80.22836493849755,35.030540020530005L80.51721593737602,32.765188576133106L80.73385418653488,37.0820664179581L80.95049243569375,28.306793862544883L81.16713068485261,32.901547167688875L81.45598168373107,32.805541149114696L81.67261993288994,39.31048206553182L81.88925818204879,40.6617850486189L82.10589643120765,37.70352083655411L82.39474743008614,34.05631717523876L82.61138567924499,29.903597975152117L82.82802392840385,31.228087896368773L83.11687492728234,23.047975817252365L83.33351317644119,31.00968586136589L83.62236417531966,43.11395774954458L83.83900242447854,43.85992889385358L84.92219367027282,45.29967428058741L86.07759766578674,48.34735916486602L87.23300166130066,44.00797697954866L88.4606184065342,40.544896986617815L89.61602240204812,41.80427809568855L89.97708615064622,40.71669662280662L90.26593714952469,38.803587167018975L90.48257539868354,35.84703745726807L90.77142639756202,32.7460368055962L90.98806464672089,33.823789090315955L91.20470289587973,32.835608552005745L91.49355389475822,34.77089194371288L91.71019214391708,32.05119484145862L91.92683039307593,37.074165523623876L92.14346864223481,38.36211173407766L92.43231964111328,37.54325453702432L92.64895789027213,40.83900815496177L92.865596139431,37.895398732680945L93.08223438858985,39.397891223073024L93.37108538746833,31.070027805151437L93.5877236366272,29.374272878558173L93.87657463550568,37.38898642098225L94.09321288466452,30.312530915537266L94.3098511338234,32.55242536823405L94.59870213270187,39.870586971165686L94.81534038186074,34.72560406369998L95.10419138073921,34.108742212191935L95.32082962989807,38.518608451052046L95.53746787905693,38.43141949839238L95.8263188779354,32.555516431625875L96.04295712709427,34.27254354301195L96.33180812597276,33.251208461030956L96.5484463751316,29.097149774389514L96.76508462429047,29.78939579856171L97.05393562316895,29.15461560771234L97.2705738723278,29.323857627340093L97.48721212148666,26.697100403593904L97.77606312036515,31.950371985841425L97.992701369524,38.40001573513791L98.28155236840249,32.182868004653805L98.49819061756135,32.47393244781437L98.7148288667202,30.718854457018203L99.00367986559868,31.11572502478776L99.22031811475755,28.021436860637795L99.509169113636,28.156025481291522L99.72580736279488,26.195333408364984L99.94244561195373,26.93191471112561L100.2312966108322,29.255992618187605L100.44793485999108,28.83338910127614L100.73678585886955,31.84175390234298L100.9534241080284,29.362488256786513L101.24227510690689,27.60742561598369L101.45891335606575,21.294864518150657L101.6755516052246,23.35347427890324L101.96440260410309,26.3903399780098L102.18104085326195,21.572767911373116L102.46989185214044,21.670805545247834L102.68653010129928,20.98760691135244L102.97538110017776,15.80514513876772L103.19201934933663,22.31950436166258L103.4808703482151,21.6004561323597L103.69750859737395,19.758719835235468L103.98635959625244,23.915613955212223L104.2029978454113,25.19403800306203L104.41963609457015,28.51772067332908L104.70848709344864,23.514212489240013L104.9251253426075,25.522606336815567L105.14176359176635,21.710961765414428L105.43061459064484,20.61449622536365L105.6472528398037,27.629352065451634L105.93610383868219,19.931850434046762L106.15274208784103,22.308568479600293L106.44159308671951,24.879130952064752L106.65823133587838,27.207091501650666L106.87486958503723,28.200401084225376L107.1637205839157,26.38080598657967L107.38035883307458,24.470577940638872L107.66920983195305,27.31399513627927L107.8858480811119,32.676098061571984L108.10248633027078,27.323063225295673L108.31912457942963,24.78129919638743L108.6079755783081,21.939646243656153L108.82461382746696,19.085051265791083L109.11346482634544,21.17424373027635L109.3301030755043,17.910102665277485L109.54674132466316,12.9697128569272L109.83559232354163,20.05448729985656L110.05223057270051,22.8092352731094L110.26886882185936,25.255653802838694L111.42427281737326,23.44303781349246L112.65188956260681,21.93193734049671L113.87950630784034,17.443311195282842L115.1793358027935,19.218557188669404L116.40695254802705,24.47870639047106L117.70678204298018,22.80723737006493L118.8621860384941,23.90938698006765L120.16201553344726,28.228463062818836L121.31741952896118,25.230135259121663L122.61724902391434,27.300529919005772L123.5560147702694,21.170919496597513L123.77265301942825,24.307893794165842L124.06150401830674,24.037928722632362L124.2781422674656,22.35134093230243L124.56699326634407,20.45591861366473L124.78363151550293,21.11560816294309L125.0724825143814,17.751303565657512L125.28912076354027,16.96942900076889L125.57797176241876,19.306469350650552L125.7946100115776,22.82537313190793L126.01124826073648,24.074013243622044L126.30009925961495,19.88546496569006L126.5167375087738,18.89085517115854L126.80558850765229,14.69734063450597L127.02222675681114,15.218455350440365L127.31107775568961,16.821953704282173L127.52771600484849,14.683477953463102L127.74435425400733,15.802325791597912L127.9609925031662,14.794429510655663L128.24984350204468,14.829411795119272L128.46648175120353,21.70705921811546L128.6831200003624,20.007750478142523L128.97197099924088,19.490360838544547L129.18860924839973,22.289737982092028L129.4052474975586,19.52016762951681L129.69409849643708,20.888479568803714L129.91073674559593,19.10244987834366L130.1995877444744,21.390907872949114L130.41622599363328,24.088634940851406L130.70507699251175,20.353405526285275L130.9217152416706,22.265777696992966L131.13835349082947,25.247020729001L131.42720448970795,26.052426636821853L131.6438427388668,25.299597475614018L131.93269373774527,25.754413760416625L132.14933198690414,20.10517007238911L132.43818298578262,21.03577333058579L132.6548212349415,21.190613010285798L132.87145948410034,21.689309573229583L133.16031048297882,27.600327087343178L133.3769487321377,20.89408582871872L133.66579973101616,23.072996026686393L133.882437980175,27.107219361266427L134.0990762293339,16.13859145241046L134.38792722821236,19.92624604285681L134.6045654773712,15.15092983143554L134.8934164762497,11.41874994880732L135.11005472540856,19.189426473788682L135.3266929745674,20.139079481047126L135.61554397344588,16.568052708254484L135.83218222260476,17.371199228907418L136.12103322148323,15.115924898317713L136.33767147064208,19.740878363941984L136.62652246952055,18.90687944454208L136.84316071867943,19.68226151802489L137.05979896783828,17.366664969422608L137.34864996671675,18.571330332658462L137.56528821587563,13.812179213649054L137.8541392147541,18.932063870329834L138.07077746391295,24.231532884981203L138.35962846279145,20.018081326316224L138.5762667119503,16.934322773732926L138.79290496110914,20.478092410824647L139.08175595998765,18.30822985454815L139.2983942091465,16.612186624087478L139.51503245830534,19.532331725729225L139.80388345718384,18.733750554909907L140.0205217063427,16.075928308009313L140.23715995550154,22.235596344514498L140.52601095438004,24.357232727150322L140.7426492035389,22.861277934633595L140.95928745269774,22.86766455075686L141.1759257018566,21.135801009385727L141.4647767007351,18.412616112245967L141.68141494989396,13.335226247235875L141.97026594877244,15.013599314413922L142.18690419793128,12.845221271222277L142.40354244709016,15.185871460333763L142.69239344596863,17.337570291497208L142.90903169512748,16.980862835935948L143.19788269400598,23.303951047302704L143.41452094316483,26.52806776232122L143.63115919232368,18.581594334682165L143.92001019120218,19.465656628215445L144.13664844036103,20.64648161105232L144.4254994392395,18.151798357103775L144.64213768839838,24.44863896340265L144.8587759375572,22.753023479889638L145.14762693643567,23.910557997173292L145.36426518559455,22.487813006891542L145.65311618447302,16.77404952975985L145.8697544336319,18.250694376542217L146.08639268279077,19.682565117837395L146.37524368166925,20.104398068579776L146.5918819308281,18.886627895907964L146.88073292970657,19.267964175091116L147.09737117886542,20.883837901802956L147.38622217774392,19.242088133974466L147.60286042690277,20.029049123250815L147.81949867606164,16.640718861302197L148.10834967494011,14.560287417404975L148.32498792409896,20.675416997799715L148.61383892297744,19.049303720903826L148.8304771721363,23.233258152261666L149.11932817101479,23.19983571681297L149.33596642017366,19.171755903974677L149.62481741905214,23.365903844649562L149.84145566821098,22.09504703267916L150.05809391736983,25.2348092275396L150.3469449162483,22.628138533770986L150.56358316540718,24.570287693375448L150.85243416428565,18.18215944593978L151.06907241344453,25.66518159417039L151.28571066260338,26.797701646068354L151.57456166148188,23.8381032916394L151.7911999106407,18.884604047971813L152.08005090951917,19.133359171862605L152.29668915867805,17.962593481604934L152.51332740783693,22.684588202655892L152.8021784067154,24.256015185886845L153.01881665587428,22.873659330755796L153.30766765475275,22.490240874611636L153.5243059039116,17.9342283949356L153.74094415307044,20.936877333097314L154.02979515194892,25.207286595106943L154.2464334011078,21.639156199432993L154.53528439998627,16.36790315014062L154.75192264914511,13.630520795094382L155.0407736480236,14.4691089408906L155.25741189718246,19.314863137363275L155.4740501463413,25.267319188719654L155.76290114521981,22.64544806796143L155.97953939437866,20.409061453019383L156.1961776435375,20.63682211459802L156.48502864241598,17.618165439387276L156.70166689157486,15.429886676424484L156.99051789045333,20.93254224853655L157.2071561396122,22.015438669272385L157.42379438877106,21.932675281663943L157.71264538764956,25.755265200430657L157.92928363680838,25.297774898415483L158.14592188596725,26.388783117303085L158.43477288484573,23.48066573837753L158.6514111340046,22.88264062453683L158.86804938316345,21.19049240132298L159.15690038204195,22.02124553581899L159.37353863120077,23.57776573175732L159.66238963007925,21.955993584463105L159.87902787923812,28.165099895554178L160.095666128397,26.27377275193818L160.38451712727547,28.800439972800383L160.60115537643435,26.99596215957626L160.89000637531282,26.526298876430346L161.10664462447164,34.3182842631558L161.39549562335014,40.1197507543416L161.612133872509,46.24952181591352L161.82877212166787,40.41945369769008L162.11762312054634,38.46229129023007L162.33426136970522,41.031367383301266L162.55089961886407,38.355606386686695L162.83975061774254,39.72495353858093L163.0563888669014,42.80165429834788L163.27302711606026,36.3482933058661L163.56187811493874,36.568977154955505L163.77851636409758,36.21617727084047L164.06736736297606,35.99619898310699L164.28400561213493,32.10439600294965L164.50064386129378,35.785937890496974L164.78949486017228,32.793094842278265L165.00613310933113,32.45700527345282L165.29498410820963,37.51615836023831L165.51162235736845,31.74227455468795L165.80047335624693,29.94297726511656L166.0171116054058,34.89541000420328L166.30596260428428,32.85344024300876L166.52260085344315,35.80761959379744L166.81145185232162,38.486980323827424L167.0280901014805,39.41658703953512L167.31694110035897,31.482250299046775L167.53357934951782,34.1982707170072L167.75021759867667,37.46492365900776L168.03906859755514,36.90067854000299L168.25570684671402,34.74940005509839L168.5445578455925,32.5279829940643L168.76119609475137,36.66660063417748L168.97783434391022,31.01102005345773L169.2666853427887,29.086542638660823L169.48332359194757,36.564621827556344L169.77217459082604,35.017625802705375L169.9888128399849,35.68746351498494L170.20545108914376,37.88941865311947L170.49430208802224,33.00533313470494L170.71094033718109,31.02972351035276L170.99979133605956,25.82840938363143L171.21642958521844,27.54651333926777L171.43306783437728,27.042389391322352L171.64970608353613,24.11617188856453L171.9385570824146,24.52697279964863L172.15519533157348,21.429684272175933L172.37183358073236,20.689220189972463L172.66068457961083,19.05451308459582L172.8773228287697,21.182395357634917L173.16617382764818,17.61223008207766L173.382812076807,20.73124006415936L173.59945032596588,22.97068591031563L173.88830132484435,27.105667840701123L174.10493957400323,23.531466013803524L174.3215778231621,24.79797078921563L174.61042882204057,29.104702605380297L174.8270670711994,32.53914747589038L175.1159180700779,30.041424951413468L175.33255631923674,29.095394162935204L175.54919456839562,27.360014814157736L175.8380455672741,25.202852500964L176.05468381643297,24.301718323695432L176.2713220655918,26.850642707435227L176.5601730644703,28.597389618878857L176.77681131362914,26.39660313268391L176.99344956278802,23.012999210678156L177.2823005616665,21.18377432913964L177.49893881082536,25.034417186700228L177.71557705998418,24.691580547164474L178.0044280588627,30.692309423385314L178.22106630802153,39.42760364024918L178.50991730690004,38.71974029061794L178.72655555605888,30.67775962985448L178.94319380521776,28.19287456610085L179.23204480409623,29.007221006136454L179.5208958029747,26.35745802034064L179.73753405213355,27.622580635653037L179.95417230129243,23.344144139671084L180.2430233001709,24.92035022282365L180.45966154932975,26.694558416827036L180.74851254820825,31.541233952863397L180.96515079736707,31.45741309511093L181.18178904652595,33.05674145790109L181.47064004540442,27.57375919608075L181.6872782945633,31.815750155475698L181.97612929344177,22.62187260240911L182.19276754260065,24.14435460728789L182.40940579175947,19.73377820367152L182.69825679063797,20.590147368596817L182.91489503979682,22.90621782083637L183.1315332889557,22.47753268608443L183.42038428783417,23.59001328754749L183.63702253699304,25.709510566890184L183.85366078615186,26.961348405102235L184.14251178503036,24.796328158123647L184.3591500341892,29.201557435275284L184.5757882833481,29.930754478349762L184.86463928222656,31.801513144742163L185.08127753138544,28.5320087767606L185.3701285302639,29.282647364547927L185.58676677942276,24.35346154863118L185.8034050285816,25.954135903046406L186.09225602746008,28.955800667543766L186.30889427661896,25.336275542395352L186.52553252577783,24.03139637852299L186.8143835246563,27.529785741084467L187.03102177381516,25.257608768856645L187.247660022974,28.213464891356722L187.5365110218525,22.9841645383841L187.75314927101135,23.82432321659984L187.96978752017023,26.68038881466282L188.2586385190487,28.209267871164666L188.47527676820755,28.905667738577907L188.6919150173664,29.099994953732136L188.90855326652527,29.190758404113677L189.19740426540375,28.89967781367587L189.41404251456262,30.15023684333762L189.70289351344107,28.223337114145597L189.91953176259995,31.318325392463223L190.1361700117588,30.9163080790294L190.4250210106373,24.088608238096413L190.64165925979614,28.278234315249527L190.858297508955,24.385166061434187L191.14714850783346,25.315706603217375L191.36378675699234,26.723788881951517L191.5804250061512,26.055579334346533L191.8692760050297,28.04799238759237L192.08591425418854,25.415287702683322L192.30255250334739,28.452636421960396L192.59140350222586,30.913908106808577L192.80804175138474,29.84500657940118L193.0246800005436,32.98915413484389L193.31353099942208,26.02196180341265L193.53016924858093,20.421819070841085L193.74680749773978,19.676795681518374L194.03565849661825,19.771710650662417L194.25229674577713,19.74513311865705L194.468934994936,24.53668100872973L194.75778599381448,24.76862922740685L194.97442424297333,33.74130383501642L195.26327524185183,29.165189361851883L195.47991349101065,24.5272977886184L195.69655174016953,19.527402197952703L195.985402739048,18.017726412605292L196.20204098820687,23.403729249536735L196.41867923736572,20.726616769403744L196.70753023624422,25.885534140479795L196.92416848540304,26.891018865902144L197.14080673456192,24.850996017542034L197.4296577334404,25.90899353756146L197.64629598259927,30.516570434560826L197.86293423175815,26.25209331085323L198.15178523063662,25.416775322532903L198.36842347979544,22.324892919613948L198.65727447867394,24.42467417315668L198.8739127278328,28.365362715818293L199.09055097699166,30.308293329768357L199.30718922615048,30.86551989490268L199.596040225029,24.591710445052378L199.81267847418783,24.32345173816691L200.10152947306634,27.045635807483574L200.31816772222518,24.244970463434147L200.53480597138406,19.022961941957472L200.82365697026253,21.9013336227487L201.04029521942138,21.575392402252028L201.32914621829985,21.13370271233747L201.54578446745873,24.455825037416748L201.76242271661758,22.96531848740986L202.05127371549608,17.441438161836505L202.26791196465493,16.40992943701623L202.5567629635334,17.108593563122135L202.77340121269225,22.032183550417216L202.99003946185113,21.28945331527521L203.2788904607296,21.634762762467627L203.49552870988848,20.64509703129928L203.71216695904732,20.833175600817352L204.0010179579258,26.49422420238318L204.21765620708464,28.264177906450968L204.43429445624352,24.38112510119025L204.65093270540237,26.67621779770899L204.93978370428087,28.39203148548126L205.15642195343972,25.764375038759727L205.37306020259857,21.85839218300441L205.66191120147704,21.255779314290244L205.87854945063592,25.63158642589847L206.09518769979476,23.841684461452854L206.38403869867327,20.185788084670225L206.6006769478321,23.25448230640487L206.81731519699096,21.574789144192245L207.10616619586943,19.364050781545686L207.3228044450283,26.95994596667624L207.53944269418716,24.455192349401194L207.82829369306566,25.951607115927853L208.04493194222448,31.317377903988202L208.26157019138336,32.58134636946201L208.55042119026183,30.060525146944848L208.7670594394207,31.810335681371793L208.98369768857958,28.300339467915645L209.27254868745806,29.188389040863242L209.48918693661687,26.163197848526448L209.70582518577575,23.359936961287577L209.99467618465422,21.38073265475266L210.2113144338131,28.079987324332347L210.50016543269157,30.092133570001593L210.71680368185045,39.53624117268804L210.93344193100927,33.419470303515226L211.15008018016815,32.49890341991623L211.43893117904662,32.74011452618731L211.6555694282055,30.650096663519026L211.87220767736437,30.94492342862721L212.16105867624285,26.496901277799285L212.37769692540166,31.197195822276637L212.59433517456054,36.12286013510354L212.88318617343901,39.58635880889711L213.0998244225979,36.80351477937529L213.31646267175677,34.640966147323184L213.5331009209156,35.10929037527735L213.82195191979406,33.48963410002121L214.03859016895294,30.81575779808029L214.2552284181118,28.99113993801021L214.47186666727066,32.16899285951802L214.76071766614916,35.376893201274164L214.97735591530798,33.307927119599555L215.19399416446686,38.141697701634854L215.48284516334533,36.54838416768889L215.6994834125042,34.069632064834956L215.91612166166308,35.450151168729775L216.1327599108219,32.87345229730999L216.42161090970038,30.90656127126412L216.63824915885925,35.03111914559256L216.85488740801813,34.14132347844939L217.1437384068966,35.26021354460503L217.36037665605542,30.743784809492077L217.5770149052143,30.683102545272984L217.86586590409277,29.714303338026674L218.08250415325165,31.07282806451817L218.29914240241052,27.46378940827931L218.587993401289,29.06262446534726L218.80463165044785,39.30047608644347L219.0212698996067,38.366397342218825L219.23790814876557,41.09741175502044L219.45454639792445,39.767559189097035L219.74339739680292,36.90067900514855L219.96003564596174,33.586384021124495L220.17667389512062,34.87526945388802L220.4655248939991,31.318968287056755L220.68216314315796,32.1834735284556L220.89880139231684,36.37599208459699L221.18765239119531,32.60250216111247L221.40429064035413,38.15359747588327L221.620928889513,29.71975069318409L221.8375671386719,29.35314156712604L222.12641813755036,26.213135329791385L222.34305638670924,28.871467260491595L222.55969463586806,29.444244539140666L222.77633288502693,31.87376624502409L223.0651838839054,34.33187862814352L223.28182213306428,32.72294693310822L223.49846038222313,29.73689164882057L223.71509863138198,33.37424123370045L223.93173688054085,31.57543850716444L224.22058787941933,33.322953712245315L224.4372261285782,29.796569220717227L224.65386437773705,32.03710461922434L224.94271537661555,29.45208891088667L225.15935362577437,27.11133500516522L225.37599187493325,30.485983732620817L225.66484287381172,28.877912573049805L225.8814811229706,26.12792973048704L226.09811937212942,22.0732179946997L226.3147576212883,25.58192837763588L226.60360862016677,25.982073556386915L226.82024686932564,26.421561859496617L227.03688511848452,24.705760380647792L227.25352336764334,21.894273595953567L227.5423743665218,27.03158652227947L227.7590126156807,23.58992919239469L227.97565086483957,20.380378470202047L228.26450186371804,21.07797779545936L228.48114011287691,21.91056063539619L228.69777836203573,23.392432236654038L228.9866293609142,19.963053058283737L229.20326761007308,25.3597195711803L229.41990585923196,22.678516666626706L229.6365441083908,20.669240313988247L229.9253951072693,20.58133674539121L230.14203335642813,19.51410346174987L230.358671605587,14.763281734245954L230.57530985474588,14.591523101844372L230.86416085362436,13.325809456718614L231.0807991027832,14.032765780989967L231.29743735194205,14.337813417885567L231.51407560110093,17.620849143170595L231.8029265999794,22.509816721600313L232.01956484913828,23.16981139535179L232.23620309829712,20.330688992711742L232.5250540971756,24.41142352554073L232.74169234633445,19.5456859825507L232.95833059549332,20.592241250938713L233.2471815943718,20.770533013666626L233.46381984353067,24.31574268302971L233.68045809268952,25.602346695165426L233.96930909156802,22.202425671152987L234.18594734072684,22.10468352270238L234.40258558988572,22.38888069941059L234.61922383904457,19.36606773441988L234.90807483792307,21.676737553255933L235.1247130870819,19.123060906039495L235.34135133624076,17.977268386463393L235.63020233511924,16.131194125821107L235.8468405842781,11.862313506219145L236.063478833437,13.779839916931431L236.2801170825958,18.98792546722066L236.56896808147428,14.62406773151164L236.78560633063316,11.045488164701617L237.00224457979203,6.478687521072246L237.21888282895088,9.788066392217786L237.50773382782938,16.868292776184635L237.7243720769882,13.976016094060688L237.94101032614708,10.665035746666076L238.22986132502555,12.796258996983598L238.44649957418443,17.87150065034327L238.66313782334328,13.914244991304033L238.95198882222178,15.924175954450686L239.1686270713806,12.834867793554203L239.38526532053947,15.37429132783333L239.60190356969835,12.501481939466242L239.89075456857682,13.59411685701343L240.10739281773567,18.118206870767693L240.32403106689452,12.775696349100926L240.612882065773,10.343683310102511L240.82952031493187,10.438890452659539L241.04615856409075,13.772304902724679L241.2627968132496,11.901271710296713L241.55164781212807,13.764332870990824L241.76828606128691,13.885996508729596L241.9849243104458,16.307497664824098L242.27377530932426,15.444311421510982L242.49041355848314,12.753229576972792L242.707051807642,12.289528689029106L242.92369005680084,9.89235810502867L243.2125410556793,14.473998773175895L243.4291793048382,17.739140995914344L243.64581755399703,16.520930322876616L243.86245580315588,18.001037971903244L244.15130680203436,17.83299006708442L244.36794505119323,14.15851232938819L244.5845833003521,14.06369381838141L244.87343429923058,13.833172696805768L245.09007254838946,10.977971685690155L245.30671079754828,10.35016515313126L245.59556179642675,12.98707440511077L245.81220004558563,10.383812362087333L246.0288382947445,7.485764088652188L246.24547654390335,10.378306926824978L246.53432754278185,14.422818147210432L246.75096579194067,13.99840058662231L246.96760404109955,15.102545896948651L247.18424229025842,11.852070738066795L247.4730932891369,13.871460627201976L247.68973153829575,12.450843296828044L247.9063697874546,18.060641237068126L248.12300803661347,15.83193411762909L248.41185903549194,16.62024922475265L248.62849728465082,16.447237397562734L248.84513553380967,15.91514868944911L249.13398653268814,10.393522645163257L249.350624781847,10.865288946814232L249.56726303100587,11.935896766006055L249.7839012801647,13.383763562368937L250.07275227904321,12.360507542146083L250.28939052820206,18.65026274255251L250.5060287773609,16.02560116886546L250.7226670265198,14.688390203493576L250.93930527567863,11.023827553433696L251.2281562745571,9.845460908462993L251.44479452371598,9.727766192252217L251.66143277287483,11.182270201870844L251.9502837717533,9.570018727676965L252.16692202091218,10.919593870530468L252.38356027007103,16.32663505054201L252.6001985192299,9.014454699700254L252.88904951810835,15.99053440065643L253.10568776726723,15.11072304200269L253.32232601642608,10.92668490238435L253.61117701530458,10.205671654821588L253.82781526446342,10.973555277355883L254.04445351362227,13.938945615676253L254.33330451250075,12.069987513477495L254.54994276165962,16.726916144859665L254.76658101081847,10.156954025382975L255.05543200969697,9.643944352329488L255.27207025885582,8.788224856877596L255.48870850801467,6.267331075486682L255.70534675717354,6.952767430260606L255.99419775605202,10.369379585416544L256.21083600521087,12.46852004386161L256.42747425436977,11.92892046399126L256.64411250352856,9.426413134271808L256.93296350240706,3.6989780117360387L257.1496017515659,8.905333151440919L257.3662400007248,7.160398226789669L257.65509099960326,6.6116965552436495L257.87172924876216,1.624672402482984L258.08836749792096,2.3250973280869482L258.37721849679946,5.067337532348423L258.5938567459583,1.689355919364872L258.8104949951172,6.71161732699907L259.09934599399566,7.43156735453851L259.31598424315456,9.169285429072335L259.53262249231335,14.60624503803316L259.74926074147226,10.382500479150636L260.0381117403507,12.750096464835524L260.2547499895096,13.180946929474453L260.47138823866845,8.057074818915769L260.6880264878273,13.15011199813799L260.97687748670575,14.291993782454831L261.19351573586465,17.792826425377115L261.4101539850235,17.61504750041838L261.699004983902,12.83987859301041L261.91564323306085,10.45220734658742L262.1322814822197,7.6365738469726825L262.42113248109814,8.524003346836897L262.63777073025705,12.216278060030863L262.8544089794159,10.660277047865577" fill="none"></path></g></g></g></g><g opacity="0.2"><g><g><g><path style="fill: none;" stroke="rgb(187, 187, 187)" stroke-width="2px" d="M39.06709759831429,184.83807244251182L39.283735847473146,170.56719619154748L39.50037409663201,154.0779361345061L39.71701234579086,142.0007337112959L39.933650594949725,124.7072810857111L40.15028884410859,110.04980627252237L40.36692709326744,114.95385777561908L40.583565342426304,109.41012323818752L40.87241634130478,84.03206545774293L41.08905459046363,78.37866303899092L41.305692839622495,76.50514692974976L41.52233108878136,59.63597481210883L41.73896933794021,62.98960628332287L41.955607587099074,129.177766558423L42.244458585977554,193.8815620339548L48.599180561304095,180.67738716618825L48.81581881046296,173.21532847517852L49.03245705962181,172.62831224545246L49.249095308780674,158.31314466942317L49.46573355793954,164.47373404648437L49.754584556818,154.81112222039715L49.971222805976865,154.08738361373378L50.18786105513573,126.5259169809244L50.40449930429458,135.6916685219154L50.69335030317306,117.37484952193302L50.909988552331924,109.68682255225322L51.12662680149078,119.53519881275433L51.34326505064964,95.56601083256405L51.63211604952812,109.96861193675997L51.84875429868698,96.82392148310201L52.06539254784584,108.0753987973576L52.2820307970047,103.43470445398872L52.570881795883174,90.95955878125305L52.78752004504204,83.4617770504208L53.0041582942009,77.37622765122515L53.220796543359754,83.70414152569337L53.437434792518616,96.91634482274648L53.726285791397096,93.77371990799705L53.94292404055595,91.19330098568761L54.15956228971481,96.00912460113975L54.376200538873675,88.84719497268037L54.59283878803253,88.5546855913357L54.88168978691101,80.76231217761473L55.09832803606987,81.62947508729611L55.31496628522873,91.00751341458991L55.53160453438759,78.88773178091772L55.82045553326607,80.59455579544301L56.037093782424925,72.2737096742958L56.25373203158379,74.12253122967002L56.47037028074265,71.34851996158666L56.687008529901505,64.29931225671234L56.975859528779985,48.419356768146386L57.19249777793885,58.81607243524964L57.4091360270977,67.38093344844877L57.625774276256564,65.96240793881239L57.914625275135045,53.29143337419988L58.1312635242939,63.65177817433358L58.34790177345276,65.83228722899254L58.564540022611624,52.47117623485542L58.78117827177047,42.39258997031671L59.07002927064895,54.2459141286288L59.286667519807814,61.52997459876118L59.50330576896667,59.43189383633517L59.71994401812553,63.99421651936802L59.93658226728439,46.5472134354787L60.22543326616287,58.21453408031076L60.44207151532173,51.82850085607946L60.65870976448059,41.82452268464158L60.94756076335907,54.48500861925439L61.164199012517926,65.27910454324348L61.38083726167679,66.27486114161239L61.59747551083564,32.916035643305094L61.814113759994505,48.072229388523844L62.03075200915337,44.16179048442847L62.31960300803184,46.42782814695268L62.5362412571907,63.81106653022612L62.752879506349565,39.8872110258728L62.96951775550842,52.84322953518314L63.18615600466728,51.97981476828106L63.47500700354576,45.919438081084685L63.69164525270462,70.64053743660665L63.90828350186348,51.62991098659978L64.12492175102234,34.48968490574591L64.41377274990082,48.06448631167113L64.63041099905968,34.528708779127165L64.84704924821854,53.41330200012291L65.0636874973774,53.715050630540865L65.28032574653626,53.65100828971913L65.56917674541474,46.25306906181054L65.7858149945736,51.87261479990175L66.00245324373246,30.203228616161166L66.21909149289131,33.05878898249224L66.43572974205017,42.771075268747175L66.72458074092866,41.31455932427365L66.9412189900875,38.50251134798547L67.15785723924637,26.904091747577937L67.37449548840523,34.99890789223153L67.6633464872837,51.44318252369329L67.87998473644257,54.70900256757159L68.09662298560143,61.66253237261038L68.31326123476028,44.177060695751564L68.60211223363876,36.86401767301706L68.81875048279763,52.76430259443536L69.03538873195647,51.054270293086624L69.32423973083496,42.017513476636125L69.54087797999382,42.73288431598357L69.75751622915267,34.8481338359858L69.97415447831153,30.91364820517051L70.1907927274704,43.320170473687554L70.47964372634887,41.14317819496966L70.69628197550773,38.908159113224L70.91292022466659,37.77395259885899L71.12955847382545,49.045142367731636L71.41840947270393,37.064720692952555L71.63504772186279,39.87942167565243L71.85168597102165,33.91651212517389L72.06832422018051,41.916930599830145L72.28496246933936,28.026776193399147L72.50160071849822,46.932485494497236L72.79045171737671,36.00049493492381L73.00708996653556,45.20980513932532L73.22372821569442,36.32393035031174L73.44036646485328,29.529071922930225L73.65700471401215,49.949987223132545L73.94585571289063,31.9447422319649L74.16249396204948,45.86219792530689L74.37913221120834,34.04322403024384L74.59577046036719,45.96913567793623L74.88462145924568,34.51655430789222L75.10125970840454,38.83031188438795L75.31789795756339,31.988270046463665L75.53453620672227,37.37971893097306L75.82338720560074,35.44331731510132L76.04002545475959,20.44051978362824L76.25666370391846,31.86271497558486L76.47330195307731,33.431227894217L76.68994020223617,34.841208255294816L76.97879120111466,41.43348187912323L77.19542945027351,12.590798242938302L77.41206769943238,34.55670416655285L77.62870594859123,35.490253934349994L77.9175569474697,33.38575659827711L78.13419519662858,24.33764738229752L78.35083344578743,31.227397062264586L78.6396844446659,34.35253064404392L78.85632269382478,36.40881113102993L79.07296094298363,49.746739167976536L79.28959919214249,19.69507125531107L79.57845019102098,41.92438061202112L79.79508844017982,30.628943598502087L80.01172668933869,36.48237036113079L80.22836493849755,35.260398692797665L80.51721593737602,29.367161409537736L80.73385418653488,43.55738318069555L80.95049243569375,15.143885029424986L81.16713068485261,39.793677125404855L81.45598168373107,32.66153212125347L81.67261993288994,49.06789344015747L81.88925818204879,42.68873952324951L82.10589643120765,33.26612451845696L82.39474743008614,28.585511683265718L82.61138567924499,23.674519175022144L82.82802392840385,33.214822778193714L83.11687492728234,10.777807698577778L83.33351317644119,42.952250927536184L83.62236417531966,61.27036558181263L83.83900242447854,44.97888561031715L84.92219367027282,47.45929236068823L86.07759766578674,52.91888649128394L87.23300166130066,37.49890370157265L88.4606184065342,35.350276997221606L89.61602240204812,43.693349759294655L89.97708615064622,39.08532441348369L90.26593714952469,35.93392298333747L90.48257539868354,31.412212892641723L90.77142639756202,28.094535828088418L90.98806464672089,35.440417517395524L91.20470289587973,31.353337744540433L91.49355389475822,37.67381703127358L91.71019214391708,27.971649188077183L91.92683039307593,44.60862154687173L92.14346864223481,40.29403104975836L92.43231964111328,36.314968741444346L92.64895789027213,45.78263858186796L92.865596139431,33.47998459925975L93.08223438858985,41.65162995866116L93.37108538746833,18.578232678269107L93.5877236366272,26.83064048866825L93.87657463550568,49.41105673461837L94.09321288466452,19.697847657369813L94.3098511338234,35.91226704727925L94.59870213270187,50.84782937556306L94.81534038186074,27.008129702501467L95.10419138073921,33.18344943492989L95.32082962989807,45.133407809342195L95.53746787905693,38.300636069402934L95.8263188779354,23.74166183147613L96.04295712709427,36.848084210091045L96.33180812597276,31.719205838059505L96.5484463751316,22.866061744427334L96.76508462429047,30.82776483481999L97.05393562316895,28.202445321438304L97.2705738723278,29.577720656781796L97.48721212148666,22.756964567974535L97.77606312036515,39.83027935921264L97.992701369524,48.074481359082604L98.28155236840249,22.8571464089276L98.49819061756135,32.910529112555245L98.7148288667202,28.086237470823935L99.00367986559868,31.711030876442088L99.22031811475755,23.380004614412815L99.509169113636,28.35790841227215L99.72580736279488,23.254295298975194L99.94244561195373,28.03678666526651L100.2312966108322,32.742109478780606L100.44793485999108,28.199483825908978L100.73678585886955,36.354301103943236L100.9534241080284,25.6435897884518L101.24227510690689,24.97483165477951L101.45891335606575,11.826022871401099L101.6755516052246,26.44138892003219L101.96440260410309,30.9456385266696L102.18104085326195,14.346409811418104L102.46989185214044,21.817861996059907L102.68653010129928,19.962808960509395L102.97538110017776,8.031452479890676L103.19201934933663,32.091043196004875L103.4808703482151,20.521883788405347L103.69750859737395,16.996115389549114L103.98635959625244,30.150955135177355L104.2029978454113,27.111674074836777L104.41963609457015,33.50324467872967L104.70848709344864,16.00895021310641L104.9251253426075,28.535197108178906L105.14176359176635,15.993494908312735L105.43061459064484,18.969797915287444L105.6472528398037,38.151635825583604L105.93610383868219,8.385597986939503L106.15274208784103,25.873645547930582L106.44159308671951,28.73497466076148L106.65823133587838,30.699032326029506L106.87486958503723,29.690365458087424L107.1637205839157,23.651413340111038L107.38035883307458,21.605235871727672L107.66920983195305,31.579120929739947L107.8858480811119,40.71925244951104L108.10248633027078,19.293510970881243L108.31912457942963,20.968653153025073L108.6079755783081,17.677166814559275L108.82461382746696,14.803158798993428L109.11346482634544,24.308032427004235L109.3301030755043,13.013891067779296L109.54674132466316,5.559128144401725L109.83559232354163,30.681648964250602L110.05223057270051,26.941357232988647L110.26886882185936,28.925281597432587L111.42427281737326,20.724113829473158L112.65188956260681,19.6652866310031L113.87950630784034,10.710371977462032L115.1793358027935,21.881426178749276L116.40695254802705,32.368930193173505L117.70678204298018,20.300033839455747L118.8621860384941,25.562611395071734L120.16201553344726,34.70707718694566L121.31741952896118,20.732643553575866L122.61724902391434,30.406121908831903L123.5560147702694,11.976503862985084L123.77265301942825,29.01335524051833L124.06150401830674,23.63298111533214L124.2781422674656,19.821459246807493L124.56699326634407,17.612785135708158L124.78363151550293,22.105142486860615L125.0724825143814,12.704846669729195L125.28912076354027,15.796617153435955L125.57797176241876,22.812029875472984L125.7946100115776,28.103728803794038L126.01124826073648,25.94697341119322L126.30009925961495,13.602642548792065L126.5167375087738,17.39894047936126L126.80558850765229,8.407068829527118L127.02222675681114,16.00012742434196L127.31107775568961,19.227201235044877L127.52771600484849,11.475764327234522L127.74435425400733,17.48059754880013L127.9609925031662,13.28258508924229L128.24984350204468,14.881885221814734L128.46648175120353,32.02353035260974L128.6831200003624,17.458787368183092L128.97197099924088,18.71427637914762L129.18860924839973,26.488803697413207L129.4052474975586,15.365812100653995L129.69409849643708,22.940947477734053L129.91073674559593,16.42340534265352L130.1995877444744,24.823594864857313L130.41622599363328,28.13522554270491L130.70507699251175,14.75056140443609L130.9217152416706,25.13433595305442L131.13835349082947,29.718885277013094L131.42720448970795,27.260535498553164L131.6438427388668,24.17035373380225L131.93269373774527,26.436638187620552L132.14933198690414,11.631304540347776L132.43818298578262,22.4316782178808L132.6548212349415,21.42287252983577L132.87145948410034,22.437354417645338L133.16031048297882,36.466853358513575L133.3769487321377,10.834723940782048L133.66579973101616,26.34136132363796L133.882437980175,33.15855436313648L134.0990762293339,-0.31435041087345156L134.38792722821236,25.607727928526334L134.6045654773712,7.987955514303675L134.8934164762497,5.820480124864923L135.11005472540856,30.845441261260678L135.3266929745674,21.563558991934745L135.61554397344588,11.21151254906551L135.83218222260476,18.575919009886814L136.12103322148323,11.733013402433137L136.33767147064208,26.678308562378426L136.62652246952055,17.655881065442223L136.84316071867943,20.845334628249155L137.05979896783828,13.893270146519145L137.34864996671675,20.37832837751235L137.56528821587563,6.673452535134936L137.8541392147541,26.611890855350904L138.07077746391295,32.18073640695823L138.35962846279145,13.697903988318785L138.5762667119503,12.308684944858038L138.79290496110914,25.793746866462257L139.08175595998765,15.053436020133416L139.2983942091465,14.068121778396558L139.51503245830534,23.912549378191883L139.80388345718384,17.53587879868091L140.0205217063427,12.089194937658371L140.23715995550154,31.47509839927229L140.52601095438004,27.5396873011041L140.7426492035389,20.617345745858547L140.95928745269774,22.87724447494174L141.1759257018566,18.53800569732907L141.4647767007351,14.327838766536283L141.68141494989396,5.71914144972073L141.97026594877244,17.531158915181038L142.18690419793128,9.59265420643479L142.40354244709016,18.696846744001054L142.69239344596863,20.565118538242356L142.90903169512748,16.445801652594074L143.19788269400598,32.788583364352824L143.41452094316483,31.36424283484895L143.63115919232368,6.661884193223509L143.92001019120218,20.79175006851538L144.13664844036103,22.417719085307652L144.4254994392395,14.409773476181016L144.64213768839838,33.89389987285098L144.8587759375572,20.20960025462005L145.14762693643567,25.64685977309876L145.36426518559455,20.35369552146893L145.65311618447302,8.203404314062295L145.8697544336319,20.465661646715773L146.08639268279077,21.830371229780148L146.37524368166925,20.737147494693385L146.5918819308281,17.059972636900245L146.88073292970657,19.839968593865798L147.09737117886542,23.307648491870744L147.38622217774392,16.779463482231705L147.60286042690277,21.209490607165325L147.81949867606164,11.55822346837926L148.10834967494011,11.439640251559062L148.32498792409896,29.848111368391795L148.61383892297744,16.610133805560015L148.8304771721363,29.50918979929844L149.11932817101479,23.14970206363991L149.33596642017366,13.129636184717194L149.62481741905214,29.657125755661905L149.84145566821098,20.1887618147236L150.05809391736983,29.944452519830254L150.3469449162483,18.718132493118084L150.56358316540718,27.483511432782144L150.85243416428565,8.599967074786386L151.06907241344453,36.889714816516324L151.28571066260338,28.496481723915288L151.57456166148188,19.39870575999592L151.7911999106407,11.454355182470422L152.08005090951917,19.506491857698755L152.29668915867805,16.20644494621848L152.51332740783693,29.76758028423231L152.8021784067154,26.613155660733224L153.01881665587428,20.800125548059253L153.30766765475275,21.91511319039539L153.5243059039116,11.100209675421613L153.74094415307044,25.44085074033988L154.02979515194892,31.612900488121344L154.2464334011078,16.286960605922093L154.53528439998627,8.461023576202061L154.75192264914511,9.524447262524959L155.0407736480236,15.726991159584966L155.25741189718246,26.583494432072282L155.4740501463413,34.19600326575423L155.76290114521981,18.712641386824128L155.97953939437866,17.05448153060629L156.1961776435375,20.97846310696598L156.48502864241598,13.09018042657126L156.70166689157486,12.147468531980246L156.99051789045333,29.18652560670461L157.2071561396122,23.639783300376056L157.42379438877106,21.808530200251344L157.71264538764956,31.48915007858072L157.92928363680838,24.611539445392726L158.14592188596725,28.02529544563449L158.43477288484573,19.11848966998912L158.6514111340046,21.98560295377575L158.86804938316345,18.652270066502314L159.15690038204195,23.267375237563062L159.37353863120077,25.912546025664785L159.66238963007925,19.523335363521802L159.87902787923812,37.47875936219086L160.095666128397,23.436782036514163L160.38451712727547,32.5904408040937L160.60115537643435,24.289245439740064L160.89000637531282,25.821803951711455L161.10664462447164,46.006262343243996L161.39549562335014,48.821950491120305L161.612133872509,55.444178408271405L161.82877212166787,31.674351520354897L162.11762312054634,35.52654767904014L162.33426136970522,44.88498152290803L162.55089961886407,34.341964891764796L162.83975061774254,41.778974266422274L163.0563888669014,47.41670543799826L163.27302711606026,26.66825181714342L163.56187811493874,36.90000292858958L163.77851636409758,35.686977444667974L164.06736736297606,35.66623155150678L164.28400561213493,26.266691532713594L164.50064386129378,41.30825072181793L164.78949486017228,28.30383026995014L165.00613310933113,31.95287092021467L165.29498410820963,45.10488799041653L165.51162235736845,23.08144884636244L165.80047335624693,27.244031330759498L166.0171116054058,42.32405911283335L166.30596260428428,29.790485601216954L166.52260085344315,40.2388886199805L166.81145185232162,42.506021418872315L167.0280901014805,40.810997113096704L167.31694110035897,19.58074518831431L167.53357934951782,38.272301343947845L167.75021759867667,42.36490307200866L168.03906859755514,36.05431086149583L168.25570684671402,31.522482327741542L168.5445578455925,29.19585740251317L168.76119609475137,42.87452709434721L168.97783434391022,22.527649182378088L169.2666853427887,26.199826516465475L169.48332359194757,47.78174061089971L169.77217459082604,32.69713176542893L169.9888128399849,36.69222008340426L170.20545108914376,41.19235136032122L170.49430208802224,25.679204857083146L170.71094033718109,28.06630907382451L170.99979133605956,18.026438193549396L171.21642958521844,30.12366927272224L171.43306783437728,26.28620346940421L171.64970608353613,19.72684563442783L171.9385570824146,25.143174166274765L172.15519533157348,16.78375148096687L172.37183358073236,19.5785240666673L172.66068457961083,16.602452426530817L172.8773228287697,24.374218767193554L173.16617382764818,12.256982168741855L173.382812076807,25.409755037281922L173.59945032596588,26.32985467955005L173.88830132484435,33.308140736279306L174.10493957400323,18.170163273457106L174.3215778231621,26.697727952333757L174.61042882204057,35.56480032962731L174.8270670711994,37.69081478165547L175.1159180700779,26.294841164698095L175.33255631923674,27.676347980217876L175.54919456839562,24.756945790991544L175.8380455672741,21.967109031173337L176.05468381643297,22.95001705779262L176.2713220655918,30.67402928304492L176.5601730644703,31.217509986044274L176.77681131362914,23.095423403391443L176.99344956278802,17.93759332766955L177.2823005616665,18.439937006831837L177.49893881082536,30.810381473041065L177.71557705998418,24.17732558786088L178.0044280588627,39.69340273771651L178.22106630802153,52.53054496554491L178.50991730690004,37.6579452661711L178.72655555605888,18.61478863870925L178.94319380521776,24.46554697047038L179.23204480409623,30.228740666189868L179.5208958029747,22.382813541646875L179.73753405213355,29.520264558621648L179.95417230129243,16.926489395698123L180.2430233001709,27.284659347552473L180.45966154932975,29.355870707832175L180.74851254820825,38.811247256917916L180.96515079736707,31.331681808482216L181.18178904652595,35.455734002086274L181.47064004540442,19.349285803350263L181.6872782945633,38.178736594568136L181.97612929344177,8.831056272809267L182.19276754260065,26.428077614606096L182.40940579175947,13.117913598246933L182.69825679063797,21.87470111598477L182.91489503979682,26.380323499195676L183.1315332889557,21.834504983956496L183.42038428783417,25.25873418974208L183.63702253699304,28.888756485904192L183.85366078615186,28.83910516242031L184.14251178503036,21.548797787655744L184.3591500341892,35.80940135100274L184.5757882833481,31.02455004296149L184.86463928222656,34.60765114433082L185.08127753138544,23.62775222478818L185.3701285302639,30.40860524622891L185.58676677942276,16.959682824756023L185.8034050285816,28.35514743466928L186.09225602746008,33.458297814289764L186.30889427661896,19.906987854672735L186.52553252577783,22.074077632714427L186.8143835246563,32.777369784926655L187.03102177381516,21.849343310514904L187.247660022974,32.64724907510682L187.5365110218525,15.140214008925089L187.75314927101135,25.08456123392347L187.96978752017023,30.964487211757305L188.2586385190487,30.502586455917413L188.47527676820755,29.950267539697734L188.6919150173664,29.391485776463522L188.90855326652527,29.32690357968593L189.19740426540375,28.463056928019164L189.41404251456262,32.026075387830254L189.70289351344107,25.332987520357637L189.91953176259995,35.960807809939645L190.1361700117588,30.313282108878653L190.4250210106373,13.847058476696914L190.64165925979614,34.562673430979146L190.858297508955,18.545563680711197L191.14714850783346,26.711517415892196L191.36378675699234,28.835912300052758L191.5804250061512,25.053265012939054L191.8692760050297,31.036611967461155L192.08591425418854,21.46623067531985L192.30255250334739,33.008659500876014L192.59140350222586,34.60581563408088L192.80804175138474,28.24165428829014L193.0246800005436,37.705375468007986L193.31353099942208,15.571173306265845L193.53016924858093,12.021604971983809L193.74680749773978,18.55926059753435L194.03565849661825,19.914083104378413L194.25229674577713,19.70526682064902L194.468934994936,31.724002843838782L194.75778599381448,25.116551555422557L194.97442424297333,47.20031574643084L195.26327524185183,22.301017652105067L195.47991349101065,17.57046042876818L195.69655174016953,12.027558811954213L195.985402739048,15.753212734584235L196.20204098820687,31.482733504933847L196.41867923736572,16.71094804920422L196.70753023624422,33.62391019709392L196.92416848540304,28.399245954035674L197.14080673456192,21.790961745001834L197.4296577334404,27.49598981759062L197.64629598259927,37.427935780059954L197.86293423175815,19.855377625291833L198.15178523063662,24.163798340052434L198.36842347979544,17.687069315235462L198.65727447867394,27.574346053470755L198.8739127278328,34.27639552981077L199.09055097699166,33.22268925069349L199.30718922615048,31.701359742604126L199.596040225029,15.18099627027688L199.81267847418783,23.9210636778387L200.10152947306634,31.128911911458545L200.31816772222518,20.043972447360044L200.53480597138406,11.189949159742595L200.82365697026253,26.218891143935533L201.04029521942138,21.08648057150704L201.32914621829985,20.4711681774656L201.54578446745873,29.439008525035717L201.76242271661758,20.729558662399487L202.05127371549608,9.155617673476561L202.26791196465493,14.862666349785878L202.5567629635334,18.15658975228102L202.77340121269225,29.417568531359848L202.99003946185113,20.175357962562202L203.2788904607296,22.152726933256325L203.49552870988848,19.16059843454677L203.71216695904732,21.11529345509447L204.0010179579258,34.98579710473191L204.21765620708464,30.919108462552714L204.43429445624352,18.556545893299123L204.65093270540237,30.11885684248709L204.93978370428087,30.96575201713963L205.15642195343972,21.82289036867741L205.37306020259857,15.999417899371391L205.66191120147704,20.351860011218978L205.87854945063592,32.19529709331075L206.09518769979476,21.156831514784475L206.38403869867327,14.701943519496284L206.6006769478321,27.85752363900688L206.81731519699096,19.05524940087328L207.10616619586943,16.047943237575897L207.3228044450283,38.353788744372025L207.53944269418716,20.698061923488616L207.82829369306566,28.19622926571789L208.04493194222448,39.366034086078706L208.26157019138336,34.47729906767274L208.55042119026183,26.279293313169116L208.7670594394207,34.43505148301217L208.98369768857958,23.035345147731388L209.27254868745806,30.520463400284555L209.48918693661687,21.625411060021214L209.70582518577575,19.15504563042928L209.99467618465422,18.41192619495028L210.2113144338131,38.128869328701896L210.50016543269157,33.11035293850548L210.71680368185045,53.70240257671768L210.93344193100927,24.24431399975605L211.15008018016815,31.11805309451767L211.43893117904662,33.10193118559397L211.6555694282055,27.51506986951655L211.87220767736437,31.38716357628947L212.16105867624285,19.8248680515574L212.37769692540166,38.24763763899266L212.59433517456054,43.5113566043439L212.88318617343901,44.78160681958743L213.0998244225979,32.6292487350926L213.31646267175677,31.39714319924509L213.5331009209156,35.811776717208566L213.82195191979406,31.060149687136963L214.03859016895294,26.80494334516897L214.2552284181118,26.25421314790512L214.47186666727066,36.935772241779745L214.76071766614916,40.1887437139084L214.97735591530798,30.204477997087615L215.19399416446686,45.39235357468782L215.48284516334533,34.15841386676998L215.6994834125042,30.351503910554033L215.91612166166308,37.52092982457202L216.1327599108219,29.008403990180234L216.42161090970038,27.956224732195256L216.63824915885925,41.217955957085195L216.85488740801813,32.80662997773466L217.1437384068966,36.93854864383849L217.36037665605542,23.969141706822647L217.5770149052143,30.592079148944293L217.86586590409277,28.26110452715724L218.08250415325165,33.11061515425548L218.29914240241052,22.050231423920984L218.587993401289,31.46087705094917L218.80463165044785,54.657253518087764L219.0212698996067,36.96527922588185L219.23790814876557,45.19393337422283L219.45454639792445,37.772780340211966L219.74339739680292,32.60035872922579L219.96003564596174,28.614941545088417L220.17667389512062,36.80859760303334L220.4655248939991,25.984516536809796L220.68216314315796,33.480231390553854L220.89880139231684,42.664769918809014L221.18765239119531,26.942267275885676L221.40429064035413,46.48024044803943L221.620928889513,17.068980519135277L221.8375671386719,28.80322787803897L222.12641813755036,21.503125973789395L222.34305638670924,32.858965156542006L222.55969463586806,30.303410457114232L222.77633288502693,35.51804880384922L223.0651838839054,38.019047202822655L223.28182213306428,30.30954939055522L223.49846038222313,25.257808722389157L223.71509863138198,38.830265611020316L223.93173688054085,28.87723441736041L224.22058787941933,35.94422651986657L224.4372261285782,24.506992483425083L224.65386437773705,35.39790771698496L224.94271537661555,25.574565348380204L225.15935362577437,23.60020414658307L225.37599187493325,35.54795682380424L225.66484287381172,26.46580583369326L225.8814811229706,22.00295546664291L226.09811937212942,15.991150391018675L226.3147576212883,30.844993952040102L226.60360862016677,26.582291324513495L226.82024686932564,27.08079431416117L227.03688511848452,22.132058162374562L227.25352336764334,17.677043418912223L227.5423743665218,34.737555911768325L227.7590126156807,18.427443197567488L227.97565086483957,15.56605238691304L228.26450186371804,22.124376783345365L228.48114011287691,23.15943489530141L228.69777836203573,25.61523963854082L228.9866293609142,14.818984290728272L229.20326761007308,33.45471934052517L229.41990585923196,18.656712309796294L229.6365441083908,17.65532578503047L229.9253951072693,20.449481392495635L230.14203335642813,17.91325353628789L230.358671605587,7.637049142990062L230.57530985474588,14.333885153241988L230.86416085362436,11.427238989030018L231.0807991027832,15.093200267397005L231.29743735194205,14.795384873228949L231.51407560110093,22.545402731098164L231.8029265999794,29.843268089244877L232.01956484913828,24.15980340597901L232.23620309829712,16.072005388751688L232.5250540971756,30.53252532478422L232.74169234633445,12.247079668065668L232.95833059549332,22.16207415352076L233.2471815943718,21.03797065775841L233.46381984353067,29.633557187074327L233.68045809268952,27.532252713369L233.96930909156802,17.102544135134345L234.18594734072684,21.958070300026534L234.40258558988572,22.815176464472895L234.61922383904457,14.831848286933788L234.90807483792307,25.142742281510063L235.1247130870819,15.292545935214896L235.34135133624076,16.258579607099364L235.63020233511924,13.36208273485768L235.8468405842781,5.458992576816319L236.063478833437,16.65612953299989L236.2801170825958,26.800053792654406L236.56896808147428,8.078281127948175L236.78560633063316,5.677618814486619L237.00224457979203,-0.3715134443718606L237.21888282895088,14.752134698936047L237.50773382782938,27.48863235213495L237.7243720769882,9.637601070874698L237.94101032614708,5.6985652255742485L238.22986132502555,15.993093872459799L238.44649957418443,25.484363130382754L238.66313782334328,7.978361502745121L238.95198882222178,18.939072399170676L239.1686270713806,8.200905552209418L239.38526532053947,19.183426629252008L239.60190356969835,8.192267856915553L239.89075456857682,15.233069233334232L240.10739281773567,24.904341891399152L240.32403106689452,4.761930566600729L240.612882065773,6.695663751604907L240.82952031493187,10.581701166495082L241.04615856409075,18.772426577822447L241.2627968132496,9.094721921654758L241.55164781212807,16.558924612032047L241.76828606128691,14.068491965337726L241.9849243104458,19.93974939896593L242.27377530932426,14.149532056541325L242.49041355848314,8.71660681016544L242.707051807642,11.59397735711353L242.92369005680084,6.296602229027939L243.2125410556793,21.34645977539676L243.4291793048382,22.636854330022064L243.64581755399703,14.693614313320053L243.86245580315588,20.221199445443265L244.15130680203436,17.58091820985612L244.36794505119323,8.646795722843885L244.5845833003521,13.921466051871286L244.87343429923058,13.487391014442386L245.09007254838946,6.695170169016689L245.30671079754828,9.408455354292942L245.59556179642675,16.942438283080037L245.81220004558563,6.4789192975521965L246.0288382947445,3.138691678499541L246.24547654390335,14.717121184084093L246.53432754278185,20.489584977788624L246.75096579194067,13.361774245740046L246.96760404109955,16.758763862438176L247.18424229025842,6.97635799974403L247.4730932891369,16.90054546090474L247.68973153829575,10.319917301267182L247.9063697874546,26.47533814742828L248.12300803661347,12.488873438470588L248.41185903549194,17.80272188543808L248.62849728465082,16.18771965677784L248.84513553380967,15.11701562727868L249.13398653268814,2.1110835787344673L249.350624781847,11.5729383992906L249.56726303100587,13.541808494793779L249.7839012801647,15.555563756913351L250.07275227904321,10.825623511811711L250.28939052820206,28.084895543162204L250.5060287773609,12.088608808334852L250.7226670265198,12.682573755435708L250.93930527567863,5.526983578343818L251.2281562745571,8.077910941007007L251.44479452371598,9.551224117935963L251.66143277287483,13.364026216298805L251.9502837717533,7.1516415163861256L252.16692202091218,12.943956584810673L252.38356027007103,24.437196820559404L252.6001985192299,-1.9538158265624395L252.88904951810835,26.45465395209064L253.10568776726723,13.79100600402203L253.32232601642608,4.650627692956814L253.61117701530458,9.124151783477455L253.82781526446342,12.125380711157344L254.04445351362227,18.387031123156866L254.33330451250075,9.266550360179307L254.54994276165962,23.71230909193284L254.76658101081847,0.30201084616794033L255.05543200969697,8.874429842749219L255.27207025885582,7.50464561369968L255.48870850801467,2.4859904034003395L255.70534675717354,7.9809219624215135L255.99419775605202,15.49429781815038L256.21083600521087,15.617230731529258L256.42747425436977,11.119521094185773L256.64411250352856,5.672652139692632L256.93296350240706,-4.892174672067616L257.1496017515659,16.714865860998238L257.3662400007248,4.542995839812795L257.65509099960326,5.78864404792465L257.87172924876216,-5.855863826658044L258.08836749792096,3.3757347164928455L258.37721849679946,9.180697838740558L258.5938567459583,-3.377616500110436L258.8104949951172,14.245009438450376L259.09934599399566,8.511492395847709L259.31598424315456,11.775862540873105L259.53262249231335,22.761684451474405L259.74926074147226,4.0468836408268185L260.0381117403507,16.301490443362848L260.2547499895096,13.82722262643277L260.47138823866845,0.37126665307774176L260.6880264878273,20.789667766971313L260.97687748670575,16.004816458930062L261.19351573586465,23.044075389760554L261.4101539850235,17.348379112980332L261.699004983902,5.677125231898382L261.91564323306085,6.870700476952903L262.1322814822197,3.413123597550607L262.42113248109814,9.85514759663326L262.63777073025705,17.754690129821793L262.8544089794159,8.326275529617638" fill="none"></path></g></g></g></g></g></g><g transform="translate(41, 176)" clip-path="url(#clip_1)"><clipPath id="clip_1"><rect width="288" height="23"></rect></clipPath><g><g><line x1="0" y1="0" x2="0" y2="5" style="visibility: inherit;" fill="rgb(0, 0, 0)" stroke="rgb(204, 204, 204)" stroke-width="1px"></line><line x1="36.106374859809875" y1="0" x2="36.106374859809875" y2="5" style="visibility: inherit;" fill="rgb(0, 0, 0)" stroke="rgb(204, 204, 204)" stroke-width="1px"></line><line x1="72.21274971961975" y1="0" x2="72.21274971961975" y2="5" style="visibility: inherit;" fill="rgb(0, 0, 0)" stroke="rgb(204, 204, 204)" stroke-width="1px"></line><line x1="108.31912457942963" y1="0" x2="108.31912457942963" y2="5" style="visibility: inherit;" fill="rgb(0, 0, 0)" stroke="rgb(204, 204, 204)" stroke-width="1px"></line><line x1="144.4254994392395" y1="0" x2="144.4254994392395" y2="5" style="visibility: inherit;" fill="rgb(0, 0, 0)" stroke="rgb(204, 204, 204)" stroke-width="1px"></line><line x1="180.53187429904938" y1="0" x2="180.53187429904938" y2="5" style="visibility: inherit;" fill="rgb(0, 0, 0)" stroke="rgb(204, 204, 204)" stroke-width="1px"></line><line x1="216.63824915885925" y1="0" x2="216.63824915885925" y2="5" style="visibility: inherit;" fill="rgb(0, 0, 0)" stroke="rgb(204, 204, 204)" stroke-width="1px"></line><line x1="252.74462401866913" y1="0" x2="252.74462401866913" y2="5" style="visibility: inherit;" fill="rgb(0, 0, 0)" stroke="rgb(204, 204, 204)" stroke-width="1px"></line><line x1="288.850998878479" y1="0" x2="288.850998878479" y2="5" style="visibility: inherit;" fill="rgb(0, 0, 0)" stroke="rgb(204, 204, 204)" stroke-width="1px"></line></g><g transform="translate(0, 8)"><text style="text-anchor: middle; visibility: hidden; font-family: Roboto, sans-serif; font-size: 12px; font-weight: 200;" x="0" y="0" dx="0em" dy="0.95em" fill="rgb(33, 33, 33)" stroke="none" stroke-width="1px">-500</text><text style="text-anchor: middle; visibility: inherit; font-family: Roboto, sans-serif; font-size: 12px; font-weight: 200;" x="36.106374859809875" y="0" dx="0em" dy="0.95em" fill="rgb(33, 33, 33)" stroke="none" stroke-width="1px">0</text><text style="text-anchor: middle; visibility: inherit; font-family: Roboto, sans-serif; font-size: 12px; font-weight: 200;" x="72.21274971961975" y="0" dx="0em" dy="0.95em" fill="rgb(33, 33, 33)" stroke="none" stroke-width="1px">500</text><text style="text-anchor: middle; visibility: inherit; font-family: Roboto, sans-serif; font-size: 12px; font-weight: 200;" x="108.31912457942963" y="0" dx="0em" dy="0.95em" fill="rgb(33, 33, 33)" stroke="none" stroke-width="1px">1k</text><text style="text-anchor: middle; visibility: inherit; font-family: Roboto, sans-serif; font-size: 12px; font-weight: 200;" x="144.4254994392395" y="0" dx="0em" dy="0.95em" fill="rgb(33, 33, 33)" stroke="none" stroke-width="1px">1.5k</text><text style="text-anchor: middle; visibility: inherit; font-family: Roboto, sans-serif; font-size: 12px; font-weight: 200;" x="180.53187429904938" y="0" dx="0em" dy="0.95em" fill="rgb(33, 33, 33)" stroke="none" stroke-width="1px">2k</text><text style="text-anchor: middle; visibility: inherit; font-family: Roboto, sans-serif; font-size: 12px; font-weight: 200;" x="216.63824915885925" y="0" dx="0em" dy="0.95em" fill="rgb(33, 33, 33)" stroke="none" stroke-width="1px">2.5k</text><text style="text-anchor: middle; visibility: inherit; font-family: Roboto, sans-serif; font-size: 12px; font-weight: 200;" x="252.74462401866913" y="0" dx="0em" dy="0.95em" fill="rgb(33, 33, 33)" stroke="none" stroke-width="1px">3k</text><text style="text-anchor: middle; visibility: hidden; font-family: Roboto, sans-serif; font-size: 12px; font-weight: 200;" x="288.850998878479" y="0" dx="0em" dy="0.95em" fill="rgb(33, 33, 33)" stroke="none" stroke-width="1px">3.5k</text></g><line x1="0" y1="0" x2="288.850998878479" y2="0" fill="rgb(0, 0, 0)" stroke="rgb(204, 204, 204)" stroke-width="1px"></line></g></g></g></g></svg>