<svg viewBox="0 0 330 200" xmlns="http://www.w3.org/2000/svg"><g><g><g><g><g><line x1="41.149001121520996" y1="176.89999961853027" x2="36.149001121520996" y2="176.89999961853027" style="visibility: inherit;" fill="rgb(0, 0, 0)" stroke="rgb(204, 204, 204)" stroke-width="1px"></line><line x1="41.149001121520996" y1="151.6285711015974" x2="36.149001121520996" y2="151.6285711015974" style="visibility: inherit;" fill="rgb(0, 0, 0)" stroke="rgb(204, 204, 204)" stroke-width="1px"></line><line x1="41.149001121520996" y1="126.35714258466449" x2="36.149001121520996" y2="126.35714258466449" style="visibility: inherit;" fill="rgb(0, 0, 0)" stroke="rgb(204, 204, 204)" stroke-width="1px"></line><line x1="41.149001121520996" y1="101.08571406773157" x2="36.149001121520996" y2="101.08571406773157" style="visibility: inherit;" fill="rgb(0, 0, 0)" stroke="rgb(204, 204, 204)" stroke-width="1px"></line><line x1="41.149001121520996" y1="75.8142855507987" x2="36.149001121520996" y2="75.8142855507987" style="visibility: inherit;" fill="rgb(0, 0, 0)" stroke="rgb(204, 204, 204)" stroke-width="1px"></line><line x1="41.149001121520996" y1="50.542857033865786" x2="36.149001121520996" y2="50.542857033865786" style="visibility: inherit;" fill="rgb(0, 0, 0)" stroke="rgb(204, 204, 204)" stroke-width="1px"></line><line x1="41.149001121520996" y1="25.271428516932904" x2="36.149001121520996" y2="25.271428516932904" style="visibility: inherit;" fill="rgb(0, 0, 0)" stroke="rgb(204, 204, 204)" stroke-width="1px"></line><line x1="41.149001121520996" y1="0" x2="36.149001121520996" y2="0" style="visibility: inherit;" fill="rgb(0, 0, 0)" stroke="rgb(204, 204, 204)" stroke-width="1px"></line></g><g transform="translate(31.149001121520996, 0)"><text style="text-anchor: end; visibility: hidden; font-family: Roboto, sans-serif; font-size: 12px; font-weight: 200;" x="0" y="176.89999961853027" dx="0em" dy="0.3em" fill="rgb(33, 33, 33)" stroke="none" stroke-width="1px">200</text><text style="text-anchor: end; visibility: inherit; font-family: Roboto, sans-serif; font-size: 12px; font-weight: 200;" x="0" y="151.6285711015974" dx="0em" dy="0.3em" fill="rgb(33, 33, 33)" stroke="none" stroke-width="1px">250</text><text style="text-anchor: end; visibility: inherit; font-family: Roboto, sans-serif; font-size: 12px; font-weight: 200;" x="0" y="126.35714258466449" dx="0em" dy="0.3em" fill="rgb(33, 33, 33)" stroke="none" stroke-width="1px">300</text><text style="text-anchor: end; visibility: inherit; font-family: Roboto, sans-serif; font-size: 12px; font-weight: 200;" x="0" y="101.08571406773157" dx="0em" dy="0.3em" fill="rgb(33, 33, 33)" stroke="none" stroke-width="1px">350</text><text style="text-anchor: end; visibility: inherit; font-family: Roboto, sans-serif; font-size: 12px; font-weight: 200;" x="0" y="75.8142855507987" dx="0em" dy="0.3em" fill="rgb(33, 33, 33)" stroke="none" stroke-width="1px">400</text><text style="text-anchor: end; visibility: inherit; font-family: Roboto, sans-serif; font-size: 12px; font-weight: 200;" x="0" y="50.542857033865786" dx="0em" dy="0.3em" fill="rgb(33, 33, 33)" stroke="none" stroke-width="1px">450</text><text style="text-anchor: end; visibility: inherit; font-family: Roboto, sans-serif; font-size: 12px; font-weight: 200;" x="0" y="25.271428516932904" dx="0em" dy="0.3em" fill="rgb(33, 33, 33)" stroke="none" stroke-width="1px">500</text><text style="text-anchor: end; visibility: hidden; font-family: Roboto, sans-serif; font-size: 12px; font-weight: 200;" x="0" y="0" dx="0em" dy="0.3em" fill="rgb(33, 33, 33)" stroke="none" stroke-width="1px">550</text></g><line x1="41.149001121520996" y1="0" x2="41.149001121520996" y2="176.89999961853027" fill="rgb(0, 0, 0)" stroke="rgb(204, 204, 204)" stroke-width="1px"></line></g></g><g transform="translate(41, 0)" clip-path="url(#clip_0)"><clipPath id="clip_0"><rect width="288" height="176"></rect></clipPath><g><g><g><line x1="0" y1="0" x2="0" y2="176.89999961853027" fill="rgb(0, 0, 0)" stroke="rgb(66, 66, 66)" stroke-width="1px" opacity="0.25"></line><line x1="26.259181716225363" y1="0" x2="26.259181716225363" y2="176.89999961853027" fill="rgb(0, 0, 0)" stroke="rgb(66, 66, 66)" stroke-width="1px" opacity="0.25"></line><line x1="52.51836343245073" y1="0" x2="52.51836343245073" y2="176.89999961853027" fill="rgb(0, 0, 0)" stroke="rgb(66, 66, 66)" stroke-width="1px" opacity="0.25"></line><line x1="78.77754514867608" y1="0" x2="78.77754514867608" y2="176.89999961853027" fill="rgb(0, 0, 0)" stroke="rgb(66, 66, 66)" stroke-width="1px" opacity="0.25"></line><line x1="105.03672686490145" y1="0" x2="105.03672686490145" y2="176.89999961853027" fill="rgb(0, 0, 0)" stroke="rgb(66, 66, 66)" stroke-width="1px" opacity="0.25"></line><line x1="131.2959085811268" y1="0" x2="131.2959085811268" y2="176.89999961853027" fill="rgb(0, 0, 0)" stroke="rgb(66, 66, 66)" stroke-width="1px" opacity="0.25"></line><line x1="157.55509029735217" y1="0" x2="157.55509029735217" y2="176.89999961853027" fill="rgb(0, 0, 0)" stroke="rgb(66, 66, 66)" stroke-width="1px" opacity="0.25"></line><line x1="183.81427201357755" y1="0" x2="183.81427201357755" y2="176.89999961853027" fill="rgb(0, 0, 0)" stroke="rgb(66, 66, 66)" stroke-width="1px" opacity="0.25"></line><line x1="210.0734537298029" y1="0" x2="210.0734537298029" y2="176.89999961853027" fill="rgb(0, 0, 0)" stroke="rgb(66, 66, 66)" stroke-width="1px" opacity="0.25"></line><line x1="236.3326354460283" y1="0" x2="236.3326354460283" y2="176.89999961853027" fill="rgb(0, 0, 0)" stroke="rgb(66, 66, 66)" stroke-width="1px" opacity="0.25"></line><line x1="262.5918171622536" y1="0" x2="262.5918171622536" y2="176.89999961853027" fill="rgb(0, 0, 0)" stroke="rgb(66, 66, 66)" stroke-width="1px" opacity="0.25"></line><line x1="288.850998878479" y1="0" x2="288.850998878479" y2="176.89999961853027" fill="rgb(0, 0, 0)" stroke="rgb(66, 66, 66)" stroke-width="1px" opacity="0.25"></line></g><g><line x1="0" y1="176.89999961853027" x2="288.850998878479" y2="176.89999961853027" fill="rgb(0, 0, 0)" stroke="rgb(66, 66, 66)" stroke-width="1px" opacity="0.25"></line><line x1="0" y1="151.6285711015974" x2="288.850998878479" y2="151.6285711015974" fill="rgb(0, 0, 0)" stroke="rgb(66, 66, 66)" stroke-width="1px" opacity="0.25"></line><line x1="0" y1="126.35714258466449" x2="288.850998878479" y2="126.35714258466449" fill="rgb(0, 0, 0)" stroke="rgb(66, 66, 66)" stroke-width="1px" opacity="0.25"></line><line x1="0" y1="101.08571406773157" x2="288.850998878479" y2="101.08571406773157" fill="rgb(0, 0, 0)" stroke="rgb(66, 66, 66)" stroke-width="1px" opacity="0.25"></line><line x1="0" y1="75.8142855507987" x2="288.850998878479" y2="75.8142855507987" fill="rgb(0, 0, 0)" stroke="rgb(66, 66, 66)" stroke-width="1px" opacity="0.25"></line><line x1="0" y1="50.542857033865786" x2="288.850998878479" y2="50.542857033865786" fill="rgb(0, 0, 0)" stroke="rgb(66, 66, 66)" stroke-width="1px" opacity="0.25"></line><line x1="0" y1="25.271428516932904" x2="288.850998878479" y2="25.271428516932904" fill="rgb(0, 0, 0)" stroke="rgb(66, 66, 66)" stroke-width="1px" opacity="0.25"></line><line x1="0" y1="0" x2="288.850998878479" y2="0" fill="rgb(0, 0, 0)" stroke="rgb(66, 66, 66)" stroke-width="1px" opacity="0.25"></line></g></g></g><g><g><line x1="0" y1="277.9857136862619" x2="288.850998878479" y2="277.9857136862619" fill="rgb(0, 0, 0)" stroke="rgb(153, 153, 153)" stroke-width="1.5px"></line></g></g><g><g><line x1="26.259181716225363" y1="0" x2="26.259181716225363" y2="176.89999961853027" fill="rgb(0, 0, 0)" stroke="rgb(153, 153, 153)" stroke-width="1.5px"></line></g></g><g><g><g><g><g><path style="fill: none;" stroke="rgb(187, 187, 187)" stroke-width="2px" d="M29.147691705010153,188.35420014892964L29.41028352217241,174.61378464941157L29.67287533933466,161.55150402913205L29.935467156496916,146.80225672740522L30.198058973659165,132.09436111377985L30.460650790821422,125.23622502294829L30.72324260798368,118.90471259549766L30.985834425145928,104.95423693069172L31.248426242308184,94.32335957114502L31.511018059470434,87.19581392022504L31.77360987663269,76.17163644014134L32.03620169379494,70.89875497484968L32.298793510957196,94.21054370852018L32.56138532811945,134.07913995130644L32.8239771452817,151.32378079940622L33.08656896244396,174.64410292243855L33.34916077960621,188.3679682220098L40.43913984298707,178.89889336427063L40.70173166014931,170.6645938863265L40.96432347731157,168.1882499503887L41.22691529447382,162.83739885839086L41.48950711163608,159.33739276052756L41.752098928798326,146.2128024486852L42.01469074596058,142.0043488779771L42.27728256312284,132.15254913555916L42.53987438028509,123.16625850223664L42.802466197447345,121.7138346264437L43.06505801460959,111.25470510889177L43.32764983177185,110.74026784003905L43.590241648934104,105.17372929726422L43.85283346609636,106.33439709730156L44.11542528325862,105.17452003997643L44.37801710042086,99.48853553648708L44.640608917583116,93.07783214206056L44.903200734745376,86.79719034572638L45.16579255190763,85.55997081771316L45.42838436906988,90.10252041972649L45.69097618623213,91.57100021503474L45.95356800339439,91.41992052329589L46.21615982055664,93.2556021544334L46.478751637718894,91.49223928173221L46.74134345488115,90.31721780557358L47.0039352720434,86.49525555439006L47.26652708920565,84.54894336755247L47.52911890636791,87.13237138636747L47.791710723530166,83.83451554418755L48.05430254069241,82.53853164468974L48.31689435785467,78.43260285653217L48.579486175016925,76.70857420578731L48.84207799217918,74.56455250810703L49.10466980934143,70.45845640754916L49.367261626503684,61.64281655178805L49.62985344366594,60.51211890517269L49.89244526082819,63.259644722483124L50.15503707799045,64.34075000901484L50.4176288951527,59.92102335508882L50.68022071231495,61.41332528278672L50.94281252947721,63.18091006126907L51.20540434663946,58.89701653070361L51.467996163801715,52.29524590654887L51.73058798096396,53.07551319538085L51.99317979812622,56.45729775673298L52.255771615288474,57.64713618857387L52.51836343245073,60.185968320891526L52.78095524961299,54.730466366726404L53.04354706677523,56.12409345216016L53.306138883937486,54.40585641372786L53.568730701099746,49.37332292209332L53.831322518262,51.41799720095775L54.09391433542425,56.962440137872036L54.3565061525865,60.687408539368185L54.61909796974876,49.578859380942966L54.88168978691101,48.97620738397531L55.144281604073264,47.0504406241566L55.40687342123552,46.801395633275014L55.66946523839777,53.60526399205548L55.93205705556002,48.11804280558239L56.19464887272228,50.00811749742268L56.457240689884536,50.796796405766045L56.71983250704678,48.845853075893494L56.982424324209035,57.563726820178765L57.245016141371295,55.19020048674719L57.50760795853355,46.909994254346685L57.7701997756958,47.37179107727648L58.032791592858054,42.23455815801676L58.29538341002031,46.706055694859245L58.55797522718256,49.509653669131886L58.82056704434482,51.166195517366766L59.08315886150707,49.20094493514429L59.34575067866932,50.26961288104729L59.60834249583157,42.24305917509283L59.87093431299383,38.56935109805259L60.133526130156085,40.250040766330436L60.39611794731833,40.675848189507725L60.65870976448059,39.806513452898834L60.921301581642844,34.64554477077048L61.1838933988051,34.78689001935489L61.44648521596736,41.44940702109026L61.7090770331296,46.75324523968281L61.971668850291856,52.71696009285385L62.234260667454116,49.30100033401294L62.49685248461637,44.32620726961457L62.75944430177862,47.7014453995429L63.02203611894087,49.04257535696039L63.28462793610313,46.23255060483068L63.54721975326538,44.832684089291824L63.809811570427634,40.838863987969404L64.07240338758989,36.868777674849845L64.33499520475213,39.44933479438491L64.59758702191439,40.12687215461883L64.86017883907665,39.639386938060866L65.1227706562389,38.89321320238012L65.38536247340116,42.95398486852074L65.6479542905634,40.598279198293476L65.91054610772566,40.310736189237055L66.17313792488793,37.75304656361179L66.43572974205017,39.41860017809912L66.69832155921242,34.861870584219126L66.96091337637468,39.69011654833036L67.22350519353694,38.21426790296773L67.48609701069918,41.012482797510785L67.74868882786144,39.13706181863119L68.01128064502369,35.293865860350834L68.27387246218595,41.15631440546351L68.5364642793482,37.471685536064065L68.79905609651045,40.827890491761195L69.06164791367272,38.114023907154255L69.32423973083496,41.25606861546703L69.5868315479972,38.5602628924371L69.84942336515947,38.66828248921746L70.11201518232173,35.996277512115945L70.37460699948397,36.54965407965878L70.63719881664623,36.1071193738358L70.89979063380848,29.84047953775276L71.16238245097074,30.649373712885634L71.424974268133,31.762115385418152L71.68756608529524,32.99375253336882L71.95015790245749,36.369644271670595L72.21274971961975,26.858105860177666L72.47534153678201,29.937545182727735L72.73793335394426,32.15862868337664L73.00052517110652,32.64947984933681L73.26311698826878,29.32474686252111L73.52570880543101,30.085806942418476L73.78830062259327,31.792496423068695L74.05089243975553,33.63902230625319L74.31348425691777,40.08210905094252L74.57607607408004,31.927293932689928L74.8386678912423,35.92612860442239L75.10125970840454,33.80725460205428L75.3638515255668,34.87730090568488L75.62644334272906,35.030540020530005L75.8890351598913,32.765188576133106L76.15162697705355,37.0820664179581L76.4142187942158,28.306793862544883L76.67681061137806,32.901547167688875L76.93940242854032,32.805541149114696L77.20199424570256,39.31048206553182L77.46458606286483,40.6617850486189L77.72717788002709,37.70352083655411L77.98976969718933,34.05631717523876L78.25236151435159,29.903597975152117L78.51495333151384,31.228087896368773L78.77754514867608,23.047975817252365L79.04013696583834,31.00968586136589L79.3027287830006,43.11395774954458L79.56532060016285,43.85992889385358L79.82791241732511,45.29967428058741L80.09050423448737,48.34735916486602L80.35309605164962,44.00797697954866L80.61568786881188,40.544896986617815L80.87827968597414,41.80427809568855L81.14087150313637,40.71669662280662L81.40346332029863,38.803587167018975L81.66605513746087,35.84703745726807L81.92864695462313,32.7460368055962L82.1912387717854,33.823789090315955L82.45383058894764,32.835608552005745L82.7164224061099,34.77089194371288L82.97901422327216,32.05119484145862L83.2416060404344,37.074165523623876L83.50419785759665,38.36211173407766L83.76678967475891,37.54325453702432L84.02938149192116,40.83900815496177L84.29197330908342,37.895398732680945L84.55456512624568,39.397891223073024L84.81715694340792,31.070027805151437L85.07974876057018,29.374272878558173L85.34234057773244,37.38898642098225L85.60493239489469,30.312530915537266L85.86752421205695,32.55242536823405L86.13011602921918,39.870586971165686L86.39270784638144,34.72560406369998L86.6552996635437,34.108742212191935L86.91789148070595,38.518608451052046L87.18048329786821,38.43141949839238L87.44307511503047,32.555516431625875L87.70566693219271,34.27254354301195L87.96825874935497,33.251208461030956L88.23085056651723,29.097149774389514L88.49344238367947,29.78939579856171L88.75603420084173,29.15461560771234L89.01862601800399,29.323857627340093L89.28121783516623,26.697100403593904L89.54380965232849,31.950371985841425L89.80640146949075,38.40001573513791L90.068993286653,32.182868004653805L90.33158510381526,32.47393244781437L90.59417692097752,30.718854457018203L90.85676873813976,31.11572502478776L91.11936055530201,28.021436860637795L91.38195237246426,28.156025481291522L91.64454418962652,26.195333408364984L91.90713600678878,26.93191471112561L92.16972782395102,29.255992618187605L92.43231964111328,28.83338910127614L92.69491145827554,31.84175390234298L92.95750327543779,29.362488256786513L93.22009509260005,27.60742561598369L93.4826869097623,21.294864518150657L93.74527872692454,23.35347427890324L94.0078705440868,26.3903399780098L94.27046236124906,21.572767911373116L94.5330541784113,21.670805545247834L94.79564599557357,20.98760691135244L95.05823781273583,15.80514513876772L95.32082962989807,22.31950436166258L95.58342144706033,21.6004561323597L95.84601326422259,19.758719835235468L96.10860508138482,23.915613955212223L96.37119689854708,25.19403800306203L96.63378871570934,28.51772067332908L96.89638053287159,23.514212489240013L97.15897235003385,25.522606336815567L97.42156416719611,21.710961765414428L97.68415598435836,20.61449622536365L97.94674780152062,27.629352065451634L98.20933961868286,19.931850434046762L98.47193143584511,22.308568479600293L98.73452325300737,24.879130952064752L98.99711507016961,27.207091501650666L99.25970688733187,28.200401084225376L99.52229870449413,26.38080598657967L99.78489052165638,24.470577940638872L100.04748233881864,27.31399513627927L100.3100741559809,32.676098061571984L100.57266597314315,27.323063225295673L100.8352577903054,24.78129919638743L101.09784960746765,21.939646243656153L101.3604414246299,19.085051265791083L101.62303324179216,21.17424373027635L101.88562505895442,17.910102665277485L102.14821687611666,12.9697128569272L102.41080869327892,20.05448729985656L102.67340051044118,22.8092352731094L102.93599232760343,25.255653802838694L103.19858414476569,23.44303781349246L103.46117596192792,21.93193734049671L103.72376777909018,17.443311195282842L103.98635959625244,19.218557188669404L104.24895141341469,24.47870639047106L104.51154323057695,22.80723737006493L104.77413504773921,23.90938698006765L105.03672686490145,28.228463062818836L105.29931868206371,25.230135259121663L105.56191049922597,27.300529919005772L105.82450231638822,21.170919496597513L106.08709413355047,24.307893794165842L106.34968595071273,24.037928722632362L106.61227776787497,22.35134093230243L106.87486958503723,20.45591861366473L107.13746140219949,21.11560816294309L107.40005321936174,17.751303565657512L107.662645036524,16.96942900076889L107.92523685368626,19.306469350650552L108.1878286708485,22.82537313190793L108.45042048801075,24.074013243622044L108.713012305173,19.88546496569006L108.97560412233526,18.89085517115854L109.23819593949752,14.69734063450597L109.50078775665976,15.218455350440365L109.76337957382202,16.821953704282173L110.02597139098428,14.683477953463102L110.28856320814653,15.802325791597912L110.55115502530879,14.794429510655663L110.81374684247103,14.829411795119272L111.07633865963328,21.70705921811546L111.33893047679554,20.007750478142523L111.6015222939578,19.490360838544547L111.86411411112005,22.289737982092028L112.1267059282823,19.52016762951681L112.38929774544457,20.888479568803714L112.65188956260681,19.10244987834366L112.91448137976907,21.390907872949114L113.17707319693133,24.088634940851406L113.43966501409356,20.353405526285275L113.70225683125582,22.265777696992966L113.96484864841807,25.247020729001L114.22744046558033,26.052426636821853L114.49003228274259,25.299597475614018L114.75262409990484,25.754413760416625L115.0152159170671,20.10517007238911L115.27780773422936,21.03577333058579L115.5403995513916,21.190613010285798L115.80299136855385,21.689309573229583L116.06558318571611,27.600327087343178L116.32817500287835,20.89408582871872L116.59076682004061,23.072996026686393L116.85335863720287,27.107219361266427L117.11595045436512,16.13859145241046L117.37854227152738,19.92624604285681L117.64113408868964,15.15092983143554L117.90372590585189,11.41874994880732L118.16631772301415,19.189426473788682L118.42890954017639,20.139079481047126L118.69150135733864,16.568052708254484L118.9540931745009,17.371199228907418L119.21668499166314,15.115924898317713L119.4792768088254,19.740878363941984L119.74186862598766,18.90687944454208L120.00446044314991,19.68226151802489L120.26705226031217,17.366664969422608L120.52964407747443,18.571330332658462L120.79223589463666,13.812179213649054L121.05482771179892,18.932063870329834L121.31741952896118,24.231532884981203L121.58001134612343,20.018081326316224L121.84260316328569,16.934322773732926L122.10519498044795,20.478092410824647L122.3677867976102,18.30822985454815L122.63037861477245,16.612186624087478L122.89297043193471,19.532331725729225L123.15556224909696,18.733750554909907L123.4181540662592,16.075928308009313L123.68074588342147,22.235596344514498L123.94333770058371,24.357232727150322L124.20592951774597,22.861277934633595L124.46852133490823,22.86766455075686L124.73111315207048,21.135801009385727L124.99370496923274,18.412616112245967L125.256296786395,13.335226247235875L125.51888860355724,15.013599314413922L125.78148042071949,12.845221271222277L126.04407223788174,15.185871460333763L126.306664055044,17.337570291497208L126.56925587220626,16.980862835935948L126.8318476893685,23.303951047302704L127.09443950653076,26.52806776232122L127.35703132369302,18.581594334682165L127.61962314085527,19.465656628215445L127.88221495801753,20.64648161105232L128.14480677517977,18.151798357103775L128.40739859234202,24.44863896340265L128.66999040950427,22.753023479889638L128.93258222666654,23.910557997173292L129.19517404382879,22.487813006891542L129.45776586099103,16.77404952975985L129.7203576781533,18.250694376542217L129.98294949531555,19.682565117837395L130.2455413124778,20.104398068579776L130.50813312964007,18.886627895907964L130.77072494680232,19.267964175091116L131.03331676396456,20.883837901802956L131.2959085811268,19.242088133974466L131.55850039828908,20.029049123250815L131.82109221545133,16.640718861302197L132.08368403261358,14.560287417404975L132.34627584977585,20.675416997799715L132.6088676669381,19.049303720903826L132.87145948410034,23.233258152261666L133.13405130126262,23.19983571681297L133.39664311842483,19.171755903974677L133.6592349355871,23.365903844649562L133.92182675274935,22.09504703267916L134.1844185699116,25.2348092275396L134.44701038707387,22.628138533770986L134.70960220423612,24.570287693375448L134.97219402139837,18.18215944593978L135.23478583856064,25.66518159417039L135.4973776557229,26.797701646068354L135.75996947288513,23.8381032916394L136.02256129004738,18.884604047971813L136.28515310720962,19.133359171862605L136.5477449243719,17.962593481604934L136.81033674153414,22.684588202655892L137.0729285586964,24.256015185886845L137.33552037585866,22.873659330755796L137.5981121930209,22.490240874611636L137.86070401018316,17.9342283949356L138.12329582734543,20.936877333097314L138.38588764450765,25.207286595106943L138.64847946166992,21.639156199432993L138.91107127883217,16.36790315014062L139.1736630959944,13.630520795094382L139.4362549131567,14.4691089408906L139.69884673031893,19.314863137363275L139.96143854748118,25.267319188719654L140.22403036464345,22.64544806796143L140.4866221818057,20.409061453019383L140.74921399896795,20.63682211459802L141.0118058161302,17.618165439387276L141.27439763329247,15.429886676424484L141.5369894504547,20.93254224853655L141.79958126761696,22.015438669272385L142.06217308477923,21.932675281663943L142.32476490194148,25.755265200430657L142.58735671910372,25.297774898415483L142.849948536266,26.388783117303085L143.11254035342824,23.48066573837753L143.3751321705905,22.88264062453683L143.63772398775274,21.19049240132298L143.90031580491498,22.02124553581899L144.16290762207726,23.57776573175732L144.4254994392395,21.955993584463105L144.68809125640175,28.165099895554178L144.95068307356402,26.27377275193818L145.21327489072624,28.800439972800383L145.4758667078885,26.99596215957626L145.73845852505076,26.526298876430346L146.00105034221303,34.3182842631558L146.26364215937528,40.1197507543416L146.52623397653755,46.24952181591352L146.78882579369977,40.41945369769008L147.05141761086202,38.46229129023007L147.3140094280243,41.031367383301266L147.57660124518654,38.355606386686695L147.8391930623488,39.72495353858093L148.10178487951106,42.80165429834788L148.3643766966733,36.3482933058661L148.62696851383555,36.568977154955505L148.88956033099782,36.21617727084047L149.15215214816007,35.99619898310699L149.41474396532232,32.10439600294965L149.6773357824846,35.785937890496974L149.9399275996468,32.793094842278265L150.20251941680908,32.45700527345282L150.46511123397133,37.51615836023831L150.7277030511336,31.74227455468795L150.99029486829585,29.94297726511656L151.25288668545812,34.89541000420328L151.51547850262034,32.85344024300876L151.7780703197826,35.80761959379744L152.04066213694486,38.486980323827424L152.3032539541071,39.41658703953512L152.56584577126938,31.482250299046775L152.8284375884316,34.1982707170072L153.09102940559387,37.46492365900776L153.35362122275612,36.90067854000299L153.6162130399184,34.74940005509839L153.87880485708064,32.5279829940643L154.1413966742429,36.66660063417748L154.40398849140513,31.01102005345773L154.66658030856738,29.086542638660823L154.92917212572965,36.564621827556344L155.1917639428919,35.017625802705375L155.45435576005417,35.68746351498494L155.7169475772164,37.88941865311947L155.97953939437866,33.00533313470494L156.2421312115409,31.02972351035276L156.50472302870318,25.82840938363143L156.76731484586543,27.54651333926777L157.02990666302767,27.042389391322352L157.29249848018992,24.11617188856453L157.55509029735217,24.52697279964863L157.81768211451444,21.429684272175933L158.0802739316767,20.689220189972463L158.34286574883896,19.05451308459582L158.6054575660012,21.182395357634917L158.86804938316345,17.61223008207766L159.1306412003257,20.73124006415936L159.39323301748794,22.97068591031563L159.65582483465022,27.105667840701123L159.91841665181246,23.531466013803524L160.18100846897474,24.79797078921563L160.44360028613696,29.104702605380297L160.70619210329923,32.53914747589038L160.96878392046148,30.041424951413468L161.23137573762375,29.095394162935204L161.493967554786,27.360014814157736L161.75655937194827,25.202852500964L162.0191511891105,24.301718323695432L162.28174300627273,26.850642707435227L162.544334823435,28.597389618878857L162.80692664059725,26.39660313268391L163.06951845775953,23.012999210678156L163.33211027492175,21.18377432913964L163.59470209208402,25.034417186700228L163.85729390924627,24.691580547164474L164.11988572640854,30.692309423385314L164.3824775435708,39.42760364024918L164.64506936073303,38.71974029061794L164.90766117789528,30.67775962985448L165.17025299505752,28.19287456610085L165.4328448122198,29.007221006136454L165.69543662938204,26.35745802034064L165.95802844654432,27.622580635653037L166.22062026370654,23.344144139671084L166.4832120808688,24.92035022282365L166.74580389803106,26.694558416827036L167.0083957151933,31.541233952863397L167.27098753235558,31.45741309511093L167.53357934951782,33.05674145790109L167.79617116668007,27.57375919608075L168.0587629838423,31.815750155475698L168.3213548010046,22.62187260240911L168.58394661816683,24.14435460728789L168.8465384353291,19.73377820367152L169.10913025249135,20.590147368596817L169.37172206965357,22.90621782083637L169.63431388681585,22.47753268608443L169.8969057039781,23.59001328754749L170.15949752114037,25.709510566890184L170.4220893383026,26.961348405102235L170.6846811554649,24.796328158123647L170.9472729726271,29.201557435275284L171.20986478978938,29.930754478349762L171.47245660695162,31.801513144742163L171.7350484241139,28.5320087767606L171.99764024127614,29.282647364547927L172.26023205843836,24.35346154863118L172.52282387560064,25.954135903046406L172.78541569276288,28.955800667543766L173.04800750992516,25.336275542395352L173.3105993270874,24.03139637852299L173.57319114424968,27.529785741084467L173.8357829614119,25.257608768856645L174.09837477857417,28.213464891356722L174.36096659573641,22.9841645383841L174.62355841289866,23.82432321659984L174.88615023006093,26.68038881466282L175.14874204722318,28.209267871164666L175.41133386438543,28.905667738577907L175.67392568154767,29.099994953732136L175.93651749870995,29.190758404113677L176.1991093158722,28.89967781367587L176.46170113303447,30.15023684333762L176.7242929501967,28.223337114145597L176.98688476735893,31.318325392463223L177.2494765845212,30.9163080790294L177.51206840168345,24.088608238096413L177.77466021884572,28.278234315249527L178.03725203600797,24.385166061434187L178.29984385317024,25.315706603217375L178.56243567033246,26.723788881951517L178.82502748749474,26.055579334346533L179.08761930465698,28.04799238759237L179.35021112181923,25.415287702683322L179.6128029389815,28.452636421960396L179.87539475614372,30.913908106808577L180.137986573306,29.84500657940118L180.40057839046824,32.98915413484389L180.66317020763051,26.02196180341265L180.92576202479276,20.421819070841085L181.18835384195503,19.676795681518374L181.45094565911725,19.771710650662417L181.71353747627953,19.74513311865705L181.97612929344177,24.53668100872973L182.23872111060402,24.76862922740685L182.5013129277663,33.74130383501642L182.7639047449285,29.165189361851883L183.02649656209078,24.5272977886184L183.28908837925303,19.527402197952703L183.5516801964153,18.017726412605292L183.81427201357755,23.403729249536735L184.07686383073982,20.726616769403744L184.33945564790204,25.885534140479795L184.6020474650643,26.891018865902144L184.86463928222656,24.850996017542034L185.1272310993888,25.90899353756146L185.38982291655108,30.516570434560826L185.65241473371333,26.25209331085323L185.91500655087557,25.416775322532903L186.17759836803782,22.324892919613948L186.4401901852001,24.42467417315668L186.70278200236234,28.365362715818293L186.9653738195246,30.308293329768357L187.22796563668686,30.86551989490268L187.49055745384908,24.591710445052378L187.75314927101135,24.32345173816691L188.0157410881736,27.045635807483574L188.27833290533587,24.244970463434147L188.54092472249812,19.022961941957472L188.8035165396604,21.9013336227487L189.0661083568226,21.575392402252028L189.32870017398486,21.13370271233747L189.59129199114713,24.455825037416748L189.85388380830938,22.96531848740986L190.11647562547165,17.441438161836505L190.37906744263387,16.40992943701623L190.64165925979614,17.108593563122135L190.9042510769584,22.032183550417216L191.16684289412066,21.28945331527521L191.4294347112829,21.634762762467627L191.69202652844518,20.64509703129928L191.9546183456074,20.833175600817352L192.21721016276965,26.49422420238318L192.47980197993192,28.264177906450968L192.74239379709417,24.38112510119025L193.00498561425644,26.67621779770899L193.2675774314187,28.39203148548126L193.53016924858093,25.764375038759727L193.79276106574318,21.85839218300441L194.05535288290545,21.255779314290244L194.3179447000677,25.63158642589847L194.58053651722994,23.841684461452854L194.84312833439222,20.185788084670225L195.10572015155444,23.25448230640487L195.3683119687167,21.574789144192245L195.63090378587896,19.364050781545686L195.89349560304123,26.95994596667624L196.15608742020348,24.455192349401194L196.41867923736572,25.951607115927853L196.68127105452797,31.317377903988202L196.94386287169021,32.58134636946201L197.2064546888525,30.060525146944848L197.46904650601473,31.810335681371793L197.731638323177,28.300339467915645L197.99423014033923,29.188389040863242L198.2568219575015,26.163197848526448L198.51941377466375,23.359936961287577L198.78200559182602,21.38073265475266L199.04459740898827,28.079987324332347L199.30718922615048,30.092133570001593L199.56978104331276,39.53624117268804L199.832372860475,33.419470303515226L200.09496467763728,32.49890341991623L200.35755649479952,32.74011452618731L200.6201483119618,30.650096663519026L200.88274012912402,30.94492342862721L201.1453319462863,26.496901277799285L201.40792376344854,31.197195822276637L201.6705155806108,36.12286013510354L201.93310739777306,39.58635880889711L202.1956992149353,36.80351477937529L202.45829103209755,34.640966147323184L202.7208828492598,35.10929037527735L202.98347466642207,33.48963410002121L203.24606648358431,30.81575779808029L203.5086583007466,28.99113993801021L203.77125011790883,32.16899285951802L204.03384193507108,35.376893201274164L204.29643375223333,33.307927119599555L204.55902556939557,38.141697701634854L204.82161738655785,36.54838416768889L205.0842092037201,34.069632064834956L205.34680102088237,35.450151168729775L205.60939283804458,32.87345229730999L205.87198465520686,30.90656127126412L206.1345764723691,35.03111914559256L206.39716828953138,34.14132347844939L206.65976010669362,35.26021354460503L206.92235192385584,30.743784809492077L207.18494374101812,30.683102545272984L207.44753555818036,29.714303338026674L207.71012737534264,31.07282806451817L207.97271919250488,27.46378940827931L208.23531100966716,29.06262446534726L208.49790282682937,39.30047608644347L208.76049464399165,38.366397342218825L209.0230864611539,41.09741175502044L209.28567827831614,39.767559189097035L209.54827009547841,36.90067900514855L209.81086191264063,33.586384021124495L210.0734537298029,34.87526945388802L210.33604554696515,31.318968287056755L210.59863736412743,32.1834735284556L210.86122918128967,36.37599208459699L211.12382099845195,32.60250216111247L211.38641281561416,38.15359747588327L211.64900463277644,29.71975069318409L211.91159644993868,29.35314156712604L212.17418826710093,26.213135329791385L212.4367800842632,28.871467260491595L212.69937190142545,29.444244539140666L212.9619637185877,31.87376624502409L213.22455553574994,34.33187862814352L213.48714735291222,32.72294693310822L213.74973917007446,29.73689164882057L214.01233098723674,33.37424123370045L214.27492280439898,31.57543850716444L214.5375146215612,33.322953712245315L214.80010643872347,29.796569220717227L215.06269825588572,32.03710461922434L215.325290073048,29.45208891088667L215.58788189021024,27.11133500516522L215.85047370737252,30.485983732620817L216.11306552453473,28.877912573049805L216.375657341697,26.12792973048704L216.63824915885925,22.0732179946997L216.9008409760215,25.58192837763588L217.16343279318377,25.982073556386915L217.426024610346,26.421561859496617L217.68861642750826,24.705760380647792L217.9512082446705,21.894273595953567L218.21380006183279,27.03158652227947L218.47639187899503,23.58992919239469L218.7389836961573,20.380378470202047L219.00157551331952,21.07797779545936L219.26416733048177,21.91056063539619L219.52675914764404,23.392432236654038L219.7893509648063,19.963053058283737L220.05194278196856,25.3597195711803L220.3145345991308,22.678516666626706L220.57712641629305,20.669240313988247L220.8397182334553,20.58133674539121L221.10231005061758,19.51410346174987L221.36490186777982,14.763281734245954L221.62749368494207,14.591523101844372L221.89008550210434,13.325809456718614L222.15267731926656,14.032765780989967L222.41526913642883,14.337813417885567L222.67786095359108,17.620849143170595L222.94045277075335,22.509816721600313L223.2030445879156,23.16981139535179L223.46563640507787,20.330688992711742L223.7282282222401,24.41142352554073L223.99082003940237,19.5456859825507L224.2534118565646,20.592241250938713L224.51600367372686,20.770533013666626L224.77859549088913,24.31574268302971L225.04118730805135,25.602346695165426L225.30377912521362,22.202425671152987L225.56637094237587,22.10468352270238L225.82896275953814,22.38888069941059L226.0915545767004,19.36606773441988L226.35414639386266,21.676737553255933L226.61673821102488,19.123060906039495L226.87933002818713,17.977268386463393L227.1419218453494,16.131194125821107L227.40451366251165,11.862313506219145L227.66710547967392,13.779839916931431L227.92969729683614,18.98792546722066L228.1922891139984,14.62406773151164L228.45488093116066,11.045488164701617L228.71747274832293,6.478687521072246L228.98006456548518,9.788066392217786L229.24265638264743,16.868292776184635L229.50524819980967,13.976016094060688L229.76784001697192,10.665035746666076L230.0304318341342,12.796258996983598L230.29302365129644,17.87150065034327L230.5556154684587,13.914244991304033L230.81820728562096,15.924175954450686L231.0807991027832,12.834867793554203L231.34339091994545,15.37429132783333L231.6059827371077,12.501481939466242L231.86857455426997,13.59411685701343L232.13116637143222,18.118206870767693L232.3937581885945,12.775696349100926L232.6563500057567,10.343683310102511L232.91894182291898,10.438890452659539L233.18153364008123,13.772304902724679L233.4441254572435,11.901271710296713L233.70671727440575,13.764332870990824L233.96930909156802,13.885996508729596L234.23190090873024,16.307497664824098L234.49449272589248,15.444311421510982L234.75708454305476,12.753229576972792L235.019676360217,12.289528689029106L235.28226817737928,9.89235810502867L235.5448599945415,14.473998773175895L235.80745181170377,17.739140995914344L236.07004362886602,16.520930322876616L236.3326354460283,18.001037971903244L236.59522726319054,17.83299006708442L236.85781908035278,14.15851232938819L237.12041089751503,14.06369381838141L237.38300271467727,13.833172696805768L237.64559453183955,10.977971685690155L237.9081863490018,10.35016515313126L238.17077816616407,12.98707440511077L238.4333699833263,10.383812362087333L238.69596180048856,7.485764088652188L238.9585536176508,10.378306926824978L239.22114543481305,14.422818147210432L239.48373725197533,13.99840058662231L239.74632906913757,15.102545896948651L240.00892088629982,11.852070738066795L240.27151270346207,13.871460627201976L240.53410452062434,12.450843296828044L240.79669633778659,18.060641237068126L241.05928815494886,15.83193411762909L241.3218799721111,16.62024922475265L241.58447178927332,16.447237397562734L241.8470636064356,15.91514868944911L242.10965542359784,10.393522645163257L242.37224724076012,10.865288946814232L242.63483905792236,11.935896766006055L242.89743087508464,13.383763562368937L243.16002269224686,12.360507542146083L243.42261450940913,18.65026274255251L243.68520632657138,16.02560116886546L243.94779814373365,14.688390203493576L244.2103899608959,11.023827553433696L244.4729817780581,9.845460908462993L244.7355735952204,9.727766192252217L244.99816541238263,11.182270201870844L245.2607572295449,9.570018727676965L245.52334904670715,10.919593870530468L245.78594086386943,16.32663505054201L246.04853268103165,9.014454699700254L246.31112449819392,15.99053440065643L246.57371631535617,15.11072304200269L246.8363081325184,10.92668490238435L247.09889994968069,10.205671654821588L247.36149176684293,10.973555277355883L247.62408358400518,13.938945615676253L247.88667540116742,12.069987513477495L248.1492672183297,16.726916144859665L248.41185903549194,10.156954025382975L248.67445085265422,9.643944352329488L248.93704266981646,8.788224856877596L249.19963448697868,6.267331075486682L249.46222630414096,6.952767430260606L249.7248181213032,10.369379585416544L249.98740993846548,12.46852004386161L250.25000175562772,11.92892046399126L250.51259357279,9.426413134271808L250.7751853899522,3.6989780117360387L251.0377772071145,8.905333151440919L251.30036902427673,7.160398226789669L251.56296084143898,6.6116965552436495L251.82555265860125,1.624672402482984L252.08814447576347,2.3250973280869482L252.35073629292575,5.067337532348423L252.613328110088,1.689355919364872L252.87591992725027,6.71161732699907L253.1385117444125,7.43156735453851L253.40110356157479,9.169285429072335L253.663695378737,14.60624503803316L253.92628719589928,10.382500479150636L254.18887901306152,12.750096464835524L254.45147083022377,13.180946929474453L254.71406264738604,8.057074818915769L254.97665446454826,13.15011199813799L255.23924628171054,14.291993782454831L255.50183809887278,17.792826425377115L255.76442991603506,17.61504750041838L256.0270217331973,12.83987859301041L256.28961355035955,10.45220734658742L256.5522053675218,7.6365738469726825L256.81479718468404,8.524003346836897L257.0773890018463,12.216278060030863L257.33998081900853,10.660277047865577" fill="none"></path></g></g></g></g><g opacity="0.2"><g><g><g><path style="fill: none;" stroke="rgb(187, 187, 187)" stroke-width="2px" d="M28.8850998878479,184.83807244251182L29.147691705010153,170.56719619154748L29.41028352217241,154.0779361345061L29.67287533933466,142.0007337112959L29.935467156496916,124.7072810857111L30.198058973659165,110.04980627252237L30.460650790821422,114.95385777561908L30.72324260798368,109.41012323818752L30.985834425145928,84.03206545774293L31.248426242308184,78.37866303899092L31.511018059470434,76.50514692974976L31.77360987663269,59.63597481210883L32.03620169379494,62.98960628332287L32.298793510957196,129.177766558423L32.56138532811945,193.8815620339548L39.913956208662555,180.67738716618825L40.17654802582481,173.21532847517852L40.43913984298707,172.62831224545246L40.70173166014931,158.31314466942317L40.96432347731157,164.47373404648437L41.22691529447382,154.81112222039715L41.48950711163608,154.08738361373378L41.752098928798326,126.5259169809244L42.01469074596058,135.6916685219154L42.27728256312284,117.37484952193302L42.53987438028509,109.68682255225322L42.802466197447345,119.53519881275433L43.06505801460959,95.56601083256405L43.32764983177185,109.96861193675997L43.590241648934104,96.82392148310201L43.85283346609636,108.0753987973576L44.11542528325862,103.43470445398872L44.37801710042086,90.95955878125305L44.640608917583116,83.4617770504208L44.903200734745376,77.37622765122515L45.16579255190763,83.70414152569337L45.42838436906988,96.91634482274648L45.69097618623213,93.77371990799705L45.95356800339439,91.19330098568761L46.21615982055664,96.00912460113975L46.478751637718894,88.84719497268037L46.74134345488115,88.5546855913357L47.0039352720434,80.76231217761473L47.26652708920565,81.62947508729611L47.52911890636791,91.00751341458991L47.791710723530166,78.88773178091772L48.05430254069241,80.59455579544301L48.31689435785467,72.2737096742958L48.579486175016925,74.12253122967002L48.84207799217918,71.34851996158666L49.10466980934143,64.29931225671234L49.367261626503684,48.419356768146386L49.62985344366594,58.81607243524964L49.89244526082819,67.38093344844877L50.15503707799045,65.96240793881239L50.4176288951527,53.29143337419988L50.68022071231495,63.65177817433358L50.94281252947721,65.83228722899254L51.20540434663946,52.47117623485542L51.467996163801715,42.39258997031671L51.73058798096396,54.2459141286288L51.99317979812622,61.52997459876118L52.255771615288474,59.43189383633517L52.51836343245073,63.99421651936802L52.78095524961299,46.5472134354787L53.04354706677523,58.21453408031076L53.306138883937486,51.82850085607946L53.568730701099746,41.82452268464158L53.831322518262,54.48500861925439L54.09391433542425,65.27910454324348L54.3565061525865,66.27486114161239L54.61909796974876,32.916035643305094L54.88168978691101,48.072229388523844L55.144281604073264,44.16179048442847L55.40687342123552,46.42782814695268L55.66946523839777,63.81106653022612L55.93205705556002,39.8872110258728L56.19464887272228,52.84322953518314L56.457240689884536,51.97981476828106L56.71983250704678,45.919438081084685L56.982424324209035,70.64053743660665L57.245016141371295,51.62991098659978L57.50760795853355,34.48968490574591L57.7701997756958,48.06448631167113L58.032791592858054,34.528708779127165L58.29538341002031,53.41330200012291L58.55797522718256,53.715050630540865L58.82056704434482,53.65100828971913L59.08315886150707,46.25306906181054L59.34575067866932,51.87261479990175L59.60834249583157,30.203228616161166L59.87093431299383,33.05878898249224L60.133526130156085,42.771075268747175L60.39611794731833,41.31455932427365L60.65870976448059,38.50251134798547L60.921301581642844,26.904091747577937L61.1838933988051,34.99890789223153L61.44648521596736,51.44318252369329L61.7090770331296,54.70900256757159L61.971668850291856,61.66253237261038L62.234260667454116,44.177060695751564L62.49685248461637,36.86401767301706L62.75944430177862,52.76430259443536L63.02203611894087,51.054270293086624L63.28462793610313,42.017513476636125L63.54721975326538,42.73288431598357L63.809811570427634,34.8481338359858L64.07240338758989,30.91364820517051L64.33499520475213,43.320170473687554L64.59758702191439,41.14317819496966L64.86017883907665,38.908159113224L65.1227706562389,37.77395259885899L65.38536247340116,49.045142367731636L65.6479542905634,37.064720692952555L65.91054610772566,39.87942167565243L66.17313792488793,33.91651212517389L66.43572974205017,41.916930599830145L66.69832155921242,28.026776193399147L66.96091337637468,46.932485494497236L67.22350519353694,36.00049493492381L67.48609701069918,45.20980513932532L67.74868882786144,36.32393035031174L68.01128064502369,29.529071922930225L68.27387246218595,49.949987223132545L68.5364642793482,31.9447422319649L68.79905609651045,45.86219792530689L69.06164791367272,34.04322403024384L69.32423973083496,45.96913567793623L69.5868315479972,34.51655430789222L69.84942336515947,38.83031188438795L70.11201518232173,31.988270046463665L70.37460699948397,37.37971893097306L70.63719881664623,35.44331731510132L70.89979063380848,20.44051978362824L71.16238245097074,31.86271497558486L71.424974268133,33.431227894217L71.68756608529524,34.841208255294816L71.95015790245749,41.43348187912323L72.21274971961975,12.590798242938302L72.47534153678201,34.55670416655285L72.73793335394426,35.490253934349994L73.00052517110652,33.38575659827711L73.26311698826878,24.33764738229752L73.52570880543101,31.227397062264586L73.78830062259327,34.35253064404392L74.05089243975553,36.40881113102993L74.31348425691777,49.746739167976536L74.57607607408004,19.69507125531107L74.8386678912423,41.92438061202112L75.10125970840454,30.628943598502087L75.3638515255668,36.48237036113079L75.62644334272906,35.260398692797665L75.8890351598913,29.367161409537736L76.15162697705355,43.55738318069555L76.4142187942158,15.143885029424986L76.67681061137806,39.793677125404855L76.93940242854032,32.66153212125347L77.20199424570256,49.06789344015747L77.46458606286483,42.68873952324951L77.72717788002709,33.26612451845696L77.98976969718933,28.585511683265718L78.25236151435159,23.674519175022144L78.51495333151384,33.214822778193714L78.77754514867608,10.777807698577778L79.04013696583834,42.952250927536184L79.3027287830006,61.27036558181263L79.56532060016285,44.97888561031715L79.82791241732511,47.45929236068823L80.09050423448737,52.91888649128394L80.35309605164962,37.49890370157265L80.61568786881188,35.350276997221606L80.87827968597414,43.693349759294655L81.14087150313637,39.08532441348369L81.40346332029863,35.93392298333747L81.66605513746087,31.412212892641723L81.92864695462313,28.094535828088418L82.1912387717854,35.440417517395524L82.45383058894764,31.353337744540433L82.7164224061099,37.67381703127358L82.97901422327216,27.971649188077183L83.2416060404344,44.60862154687173L83.50419785759665,40.29403104975836L83.76678967475891,36.314968741444346L84.02938149192116,45.78263858186796L84.29197330908342,33.47998459925975L84.55456512624568,41.65162995866116L84.81715694340792,18.578232678269107L85.07974876057018,26.83064048866825L85.34234057773244,49.41105673461837L85.60493239489469,19.697847657369813L85.86752421205695,35.91226704727925L86.13011602921918,50.84782937556306L86.39270784638144,27.008129702501467L86.6552996635437,33.18344943492989L86.91789148070595,45.133407809342195L87.18048329786821,38.300636069402934L87.44307511503047,23.74166183147613L87.70566693219271,36.848084210091045L87.96825874935497,31.719205838059505L88.23085056651723,22.866061744427334L88.49344238367947,30.82776483481999L88.75603420084173,28.202445321438304L89.01862601800399,29.577720656781796L89.28121783516623,22.756964567974535L89.54380965232849,39.83027935921264L89.80640146949075,48.074481359082604L90.068993286653,22.8571464089276L90.33158510381526,32.910529112555245L90.59417692097752,28.086237470823935L90.85676873813976,31.711030876442088L91.11936055530201,23.380004614412815L91.38195237246426,28.35790841227215L91.64454418962652,23.254295298975194L91.90713600678878,28.03678666526651L92.16972782395102,32.742109478780606L92.43231964111328,28.199483825908978L92.69491145827554,36.354301103943236L92.95750327543779,25.6435897884518L93.22009509260005,24.97483165477951L93.4826869097623,11.826022871401099L93.74527872692454,26.44138892003219L94.0078705440868,30.9456385266696L94.27046236124906,14.346409811418104L94.5330541784113,21.817861996059907L94.79564599557357,19.962808960509395L95.05823781273583,8.031452479890676L95.32082962989807,32.091043196004875L95.58342144706033,20.521883788405347L95.84601326422259,16.996115389549114L96.10860508138482,30.150955135177355L96.37119689854708,27.111674074836777L96.63378871570934,33.50324467872967L96.89638053287159,16.00895021310641L97.15897235003385,28.535197108178906L97.42156416719611,15.993494908312735L97.68415598435836,18.969797915287444L97.94674780152062,38.151635825583604L98.20933961868286,8.385597986939503L98.47193143584511,25.873645547930582L98.73452325300737,28.73497466076148L98.99711507016961,30.699032326029506L99.25970688733187,29.690365458087424L99.52229870449413,23.651413340111038L99.78489052165638,21.605235871727672L100.04748233881864,31.579120929739947L100.3100741559809,40.71925244951104L100.57266597314315,19.293510970881243L100.8352577903054,20.968653153025073L101.09784960746765,17.677166814559275L101.3604414246299,14.803158798993428L101.62303324179216,24.308032427004235L101.88562505895442,13.013891067779296L102.14821687611666,5.559128144401725L102.41080869327892,30.681648964250602L102.67340051044118,26.941357232988647L102.93599232760343,28.925281597432587L103.19858414476569,20.724113829473158L103.46117596192792,19.6652866310031L103.72376777909018,10.710371977462032L103.98635959625244,21.881426178749276L104.24895141341469,32.368930193173505L104.51154323057695,20.300033839455747L104.77413504773921,25.562611395071734L105.03672686490145,34.70707718694566L105.29931868206371,20.732643553575866L105.56191049922597,30.406121908831903L105.82450231638822,11.976503862985084L106.08709413355047,29.01335524051833L106.34968595071273,23.63298111533214L106.61227776787497,19.821459246807493L106.87486958503723,17.612785135708158L107.13746140219949,22.105142486860615L107.40005321936174,12.704846669729195L107.662645036524,15.796617153435955L107.92523685368626,22.812029875472984L108.1878286708485,28.103728803794038L108.45042048801075,25.94697341119322L108.713012305173,13.602642548792065L108.97560412233526,17.39894047936126L109.23819593949752,8.407068829527118L109.50078775665976,16.00012742434196L109.76337957382202,19.227201235044877L110.02597139098428,11.475764327234522L110.28856320814653,17.48059754880013L110.55115502530879,13.28258508924229L110.81374684247103,14.881885221814734L111.07633865963328,32.02353035260974L111.33893047679554,17.458787368183092L111.6015222939578,18.71427637914762L111.86411411112005,26.488803697413207L112.1267059282823,15.365812100653995L112.38929774544457,22.940947477734053L112.65188956260681,16.42340534265352L112.91448137976907,24.823594864857313L113.17707319693133,28.13522554270491L113.43966501409356,14.75056140443609L113.70225683125582,25.13433595305442L113.96484864841807,29.718885277013094L114.22744046558033,27.260535498553164L114.49003228274259,24.17035373380225L114.75262409990484,26.436638187620552L115.0152159170671,11.631304540347776L115.27780773422936,22.4316782178808L115.5403995513916,21.42287252983577L115.80299136855385,22.437354417645338L116.06558318571611,36.466853358513575L116.32817500287835,10.834723940782048L116.59076682004061,26.34136132363796L116.85335863720287,33.15855436313648L117.11595045436512,-0.31435041087345156L117.37854227152738,25.607727928526334L117.64113408868964,7.987955514303675L117.90372590585189,5.820480124864923L118.16631772301415,30.845441261260678L118.42890954017639,21.563558991934745L118.69150135733864,11.21151254906551L118.9540931745009,18.575919009886814L119.21668499166314,11.733013402433137L119.4792768088254,26.678308562378426L119.74186862598766,17.655881065442223L120.00446044314991,20.845334628249155L120.26705226031217,13.893270146519145L120.52964407747443,20.37832837751235L120.79223589463666,6.673452535134936L121.05482771179892,26.611890855350904L121.31741952896118,32.18073640695823L121.58001134612343,13.697903988318785L121.84260316328569,12.308684944858038L122.10519498044795,25.793746866462257L122.3677867976102,15.053436020133416L122.63037861477245,14.068121778396558L122.89297043193471,23.912549378191883L123.15556224909696,17.53587879868091L123.4181540662592,12.089194937658371L123.68074588342147,31.47509839927229L123.94333770058371,27.5396873011041L124.20592951774597,20.617345745858547L124.46852133490823,22.87724447494174L124.73111315207048,18.53800569732907L124.99370496923274,14.327838766536283L125.256296786395,5.71914144972073L125.51888860355724,17.531158915181038L125.78148042071949,9.59265420643479L126.04407223788174,18.696846744001054L126.306664055044,20.565118538242356L126.56925587220626,16.445801652594074L126.8318476893685,32.788583364352824L127.09443950653076,31.36424283484895L127.35703132369302,6.661884193223509L127.61962314085527,20.79175006851538L127.88221495801753,22.417719085307652L128.14480677517977,14.409773476181016L128.40739859234202,33.89389987285098L128.66999040950427,20.20960025462005L128.93258222666654,25.64685977309876L129.19517404382879,20.35369552146893L129.45776586099103,8.203404314062295L129.7203576781533,20.465661646715773L129.98294949531555,21.830371229780148L130.2455413124778,20.737147494693385L130.50813312964007,17.059972636900245L130.77072494680232,19.839968593865798L131.03331676396456,23.307648491870744L131.2959085811268,16.779463482231705L131.55850039828908,21.209490607165325L131.82109221545133,11.55822346837926L132.08368403261358,11.439640251559062L132.34627584977585,29.848111368391795L132.6088676669381,16.610133805560015L132.87145948410034,29.50918979929844L133.13405130126262,23.14970206363991L133.39664311842483,13.129636184717194L133.6592349355871,29.657125755661905L133.92182675274935,20.1887618147236L134.1844185699116,29.944452519830254L134.44701038707387,18.718132493118084L134.70960220423612,27.483511432782144L134.97219402139837,8.599967074786386L135.23478583856064,36.889714816516324L135.4973776557229,28.496481723915288L135.75996947288513,19.39870575999592L136.02256129004738,11.454355182470422L136.28515310720962,19.506491857698755L136.5477449243719,16.20644494621848L136.81033674153414,29.76758028423231L137.0729285586964,26.613155660733224L137.33552037585866,20.800125548059253L137.5981121930209,21.91511319039539L137.86070401018316,11.100209675421613L138.12329582734543,25.44085074033988L138.38588764450765,31.612900488121344L138.64847946166992,16.286960605922093L138.91107127883217,8.461023576202061L139.1736630959944,9.524447262524959L139.4362549131567,15.726991159584966L139.69884673031893,26.583494432072282L139.96143854748118,34.19600326575423L140.22403036464345,18.712641386824128L140.4866221818057,17.05448153060629L140.74921399896795,20.97846310696598L141.0118058161302,13.09018042657126L141.27439763329247,12.147468531980246L141.5369894504547,29.18652560670461L141.79958126761696,23.639783300376056L142.06217308477923,21.808530200251344L142.32476490194148,31.48915007858072L142.58735671910372,24.611539445392726L142.849948536266,28.02529544563449L143.11254035342824,19.11848966998912L143.3751321705905,21.98560295377575L143.63772398775274,18.652270066502314L143.90031580491498,23.267375237563062L144.16290762207726,25.912546025664785L144.4254994392395,19.523335363521802L144.68809125640175,37.47875936219086L144.95068307356402,23.436782036514163L145.21327489072624,32.5904408040937L145.4758667078885,24.289245439740064L145.73845852505076,25.821803951711455L146.00105034221303,46.006262343243996L146.26364215937528,48.821950491120305L146.52623397653755,55.444178408271405L146.78882579369977,31.674351520354897L147.05141761086202,35.52654767904014L147.3140094280243,44.88498152290803L147.57660124518654,34.341964891764796L147.8391930623488,41.778974266422274L148.10178487951106,47.41670543799826L148.3643766966733,26.66825181714342L148.62696851383555,36.90000292858958L148.88956033099782,35.686977444667974L149.15215214816007,35.66623155150678L149.41474396532232,26.266691532713594L149.6773357824846,41.30825072181793L149.9399275996468,28.30383026995014L150.20251941680908,31.95287092021467L150.46511123397133,45.10488799041653L150.7277030511336,23.08144884636244L150.99029486829585,27.244031330759498L151.25288668545812,42.32405911283335L151.51547850262034,29.790485601216954L151.7780703197826,40.2388886199805L152.04066213694486,42.506021418872315L152.3032539541071,40.810997113096704L152.56584577126938,19.58074518831431L152.8284375884316,38.272301343947845L153.09102940559387,42.36490307200866L153.35362122275612,36.05431086149583L153.6162130399184,31.522482327741542L153.87880485708064,29.19585740251317L154.1413966742429,42.87452709434721L154.40398849140513,22.527649182378088L154.66658030856738,26.199826516465475L154.92917212572965,47.78174061089971L155.1917639428919,32.69713176542893L155.45435576005417,36.69222008340426L155.7169475772164,41.19235136032122L155.97953939437866,25.679204857083146L156.2421312115409,28.06630907382451L156.50472302870318,18.026438193549396L156.76731484586543,30.12366927272224L157.02990666302767,26.28620346940421L157.29249848018992,19.72684563442783L157.55509029735217,25.143174166274765L157.81768211451444,16.78375148096687L158.0802739316767,19.5785240666673L158.34286574883896,16.602452426530817L158.6054575660012,24.374218767193554L158.86804938316345,12.256982168741855L159.1306412003257,25.409755037281922L159.39323301748794,26.32985467955005L159.65582483465022,33.308140736279306L159.91841665181246,18.170163273457106L160.18100846897474,26.697727952333757L160.44360028613696,35.56480032962731L160.70619210329923,37.69081478165547L160.96878392046148,26.294841164698095L161.23137573762375,27.676347980217876L161.493967554786,24.756945790991544L161.75655937194827,21.967109031173337L162.0191511891105,22.95001705779262L162.28174300627273,30.67402928304492L162.544334823435,31.217509986044274L162.80692664059725,23.095423403391443L163.06951845775953,17.93759332766955L163.33211027492175,18.439937006831837L163.59470209208402,30.810381473041065L163.85729390924627,24.17732558786088L164.11988572640854,39.69340273771651L164.3824775435708,52.53054496554491L164.64506936073303,37.6579452661711L164.90766117789528,18.61478863870925L165.17025299505752,24.46554697047038L165.4328448122198,30.228740666189868L165.69543662938204,22.382813541646875L165.95802844654432,29.520264558621648L166.22062026370654,16.926489395698123L166.4832120808688,27.284659347552473L166.74580389803106,29.355870707832175L167.0083957151933,38.811247256917916L167.27098753235558,31.331681808482216L167.53357934951782,35.455734002086274L167.79617116668007,19.349285803350263L168.0587629838423,38.178736594568136L168.3213548010046,8.831056272809267L168.58394661816683,26.428077614606096L168.8465384353291,13.117913598246933L169.10913025249135,21.87470111598477L169.37172206965357,26.380323499195676L169.63431388681585,21.834504983956496L169.8969057039781,25.25873418974208L170.15949752114037,28.888756485904192L170.4220893383026,28.83910516242031L170.6846811554649,21.548797787655744L170.9472729726271,35.80940135100274L171.20986478978938,31.02455004296149L171.47245660695162,34.60765114433082L171.7350484241139,23.62775222478818L171.99764024127614,30.40860524622891L172.26023205843836,16.959682824756023L172.52282387560064,28.35514743466928L172.78541569276288,33.458297814289764L173.04800750992516,19.906987854672735L173.3105993270874,22.074077632714427L173.57319114424968,32.777369784926655L173.8357829614119,21.849343310514904L174.09837477857417,32.64724907510682L174.36096659573641,15.140214008925089L174.62355841289866,25.08456123392347L174.88615023006093,30.964487211757305L175.14874204722318,30.502586455917413L175.41133386438543,29.950267539697734L175.67392568154767,29.391485776463522L175.93651749870995,29.32690357968593L176.1991093158722,28.463056928019164L176.46170113303447,32.026075387830254L176.7242929501967,25.332987520357637L176.98688476735893,35.960807809939645L177.2494765845212,30.313282108878653L177.51206840168345,13.847058476696914L177.77466021884572,34.562673430979146L178.03725203600797,18.545563680711197L178.29984385317024,26.711517415892196L178.56243567033246,28.835912300052758L178.82502748749474,25.053265012939054L179.08761930465698,31.036611967461155L179.35021112181923,21.46623067531985L179.6128029389815,33.008659500876014L179.87539475614372,34.60581563408088L180.137986573306,28.24165428829014L180.40057839046824,37.705375468007986L180.66317020763051,15.571173306265845L180.92576202479276,12.021604971983809L181.18835384195503,18.55926059753435L181.45094565911725,19.914083104378413L181.71353747627953,19.70526682064902L181.97612929344177,31.724002843838782L182.23872111060402,25.116551555422557L182.5013129277663,47.20031574643084L182.7639047449285,22.301017652105067L183.02649656209078,17.57046042876818L183.28908837925303,12.027558811954213L183.5516801964153,15.753212734584235L183.81427201357755,31.482733504933847L184.07686383073982,16.71094804920422L184.33945564790204,33.62391019709392L184.6020474650643,28.399245954035674L184.86463928222656,21.790961745001834L185.1272310993888,27.49598981759062L185.38982291655108,37.427935780059954L185.65241473371333,19.855377625291833L185.91500655087557,24.163798340052434L186.17759836803782,17.687069315235462L186.4401901852001,27.574346053470755L186.70278200236234,34.27639552981077L186.9653738195246,33.22268925069349L187.22796563668686,31.701359742604126L187.49055745384908,15.18099627027688L187.75314927101135,23.9210636778387L188.0157410881736,31.128911911458545L188.27833290533587,20.043972447360044L188.54092472249812,11.189949159742595L188.8035165396604,26.218891143935533L189.0661083568226,21.08648057150704L189.32870017398486,20.4711681774656L189.59129199114713,29.439008525035717L189.85388380830938,20.729558662399487L190.11647562547165,9.155617673476561L190.37906744263387,14.862666349785878L190.64165925979614,18.15658975228102L190.9042510769584,29.417568531359848L191.16684289412066,20.175357962562202L191.4294347112829,22.152726933256325L191.69202652844518,19.16059843454677L191.9546183456074,21.11529345509447L192.21721016276965,34.98579710473191L192.47980197993192,30.919108462552714L192.74239379709417,18.556545893299123L193.00498561425644,30.11885684248709L193.2675774314187,30.96575201713963L193.53016924858093,21.82289036867741L193.79276106574318,15.999417899371391L194.05535288290545,20.351860011218978L194.3179447000677,32.19529709331075L194.58053651722994,21.156831514784475L194.84312833439222,14.701943519496284L195.10572015155444,27.85752363900688L195.3683119687167,19.05524940087328L195.63090378587896,16.047943237575897L195.89349560304123,38.353788744372025L196.15608742020348,20.698061923488616L196.41867923736572,28.19622926571789L196.68127105452797,39.366034086078706L196.94386287169021,34.47729906767274L197.2064546888525,26.279293313169116L197.46904650601473,34.43505148301217L197.731638323177,23.035345147731388L197.99423014033923,30.520463400284555L198.2568219575015,21.625411060021214L198.51941377466375,19.15504563042928L198.78200559182602,18.41192619495028L199.04459740898827,38.128869328701896L199.30718922615048,33.11035293850548L199.56978104331276,53.70240257671768L199.832372860475,24.24431399975605L200.09496467763728,31.11805309451767L200.35755649479952,33.10193118559397L200.6201483119618,27.51506986951655L200.88274012912402,31.38716357628947L201.1453319462863,19.8248680515574L201.40792376344854,38.24763763899266L201.6705155806108,43.5113566043439L201.93310739777306,44.78160681958743L202.1956992149353,32.6292487350926L202.45829103209755,31.39714319924509L202.7208828492598,35.811776717208566L202.98347466642207,31.060149687136963L203.24606648358431,26.80494334516897L203.5086583007466,26.25421314790512L203.77125011790883,36.935772241779745L204.03384193507108,40.1887437139084L204.29643375223333,30.204477997087615L204.55902556939557,45.39235357468782L204.82161738655785,34.15841386676998L205.0842092037201,30.351503910554033L205.34680102088237,37.52092982457202L205.60939283804458,29.008403990180234L205.87198465520686,27.956224732195256L206.1345764723691,41.217955957085195L206.39716828953138,32.80662997773466L206.65976010669362,36.93854864383849L206.92235192385584,23.969141706822647L207.18494374101812,30.592079148944293L207.44753555818036,28.26110452715724L207.71012737534264,33.11061515425548L207.97271919250488,22.050231423920984L208.23531100966716,31.46087705094917L208.49790282682937,54.657253518087764L208.76049464399165,36.96527922588185L209.0230864611539,45.19393337422283L209.28567827831614,37.772780340211966L209.54827009547841,32.60035872922579L209.81086191264063,28.614941545088417L210.0734537298029,36.80859760303334L210.33604554696515,25.984516536809796L210.59863736412743,33.480231390553854L210.86122918128967,42.664769918809014L211.12382099845195,26.942267275885676L211.38641281561416,46.48024044803943L211.64900463277644,17.068980519135277L211.91159644993868,28.80322787803897L212.17418826710093,21.503125973789395L212.4367800842632,32.858965156542006L212.69937190142545,30.303410457114232L212.9619637185877,35.51804880384922L213.22455553574994,38.019047202822655L213.48714735291222,30.30954939055522L213.74973917007446,25.257808722389157L214.01233098723674,38.830265611020316L214.27492280439898,28.87723441736041L214.5375146215612,35.94422651986657L214.80010643872347,24.506992483425083L215.06269825588572,35.39790771698496L215.325290073048,25.574565348380204L215.58788189021024,23.60020414658307L215.85047370737252,35.54795682380424L216.11306552453473,26.46580583369326L216.375657341697,22.00295546664291L216.63824915885925,15.991150391018675L216.9008409760215,30.844993952040102L217.16343279318377,26.582291324513495L217.426024610346,27.08079431416117L217.68861642750826,22.132058162374562L217.9512082446705,17.677043418912223L218.21380006183279,34.737555911768325L218.47639187899503,18.427443197567488L218.7389836961573,15.56605238691304L219.00157551331952,22.124376783345365L219.26416733048177,23.15943489530141L219.52675914764404,25.61523963854082L219.7893509648063,14.818984290728272L220.05194278196856,33.45471934052517L220.3145345991308,18.656712309796294L220.57712641629305,17.65532578503047L220.8397182334553,20.449481392495635L221.10231005061758,17.91325353628789L221.36490186777982,7.637049142990062L221.62749368494207,14.333885153241988L221.89008550210434,11.427238989030018L222.15267731926656,15.093200267397005L222.41526913642883,14.795384873228949L222.67786095359108,22.545402731098164L222.94045277075335,29.843268089244877L223.2030445879156,24.15980340597901L223.46563640507787,16.072005388751688L223.7282282222401,30.53252532478422L223.99082003940237,12.247079668065668L224.2534118565646,22.16207415352076L224.51600367372686,21.03797065775841L224.77859549088913,29.633557187074327L225.04118730805135,27.532252713369L225.30377912521362,17.102544135134345L225.56637094237587,21.958070300026534L225.82896275953814,22.815176464472895L226.0915545767004,14.831848286933788L226.35414639386266,25.142742281510063L226.61673821102488,15.292545935214896L226.87933002818713,16.258579607099364L227.1419218453494,13.36208273485768L227.40451366251165,5.458992576816319L227.66710547967392,16.65612953299989L227.92969729683614,26.800053792654406L228.1922891139984,8.078281127948175L228.45488093116066,5.677618814486619L228.71747274832293,-0.3715134443718606L228.98006456548518,14.752134698936047L229.24265638264743,27.48863235213495L229.50524819980967,9.637601070874698L229.76784001697192,5.6985652255742485L230.0304318341342,15.993093872459799L230.29302365129644,25.484363130382754L230.5556154684587,7.978361502745121L230.81820728562096,18.939072399170676L231.0807991027832,8.200905552209418L231.34339091994545,19.183426629252008L231.6059827371077,8.192267856915553L231.86857455426997,15.233069233334232L232.13116637143222,24.904341891399152L232.3937581885945,4.761930566600729L232.6563500057567,6.695663751604907L232.91894182291898,10.581701166495082L233.18153364008123,18.772426577822447L233.4441254572435,9.094721921654758L233.70671727440575,16.558924612032047L233.96930909156802,14.068491965337726L234.23190090873024,19.93974939896593L234.49449272589248,14.149532056541325L234.75708454305476,8.71660681016544L235.019676360217,11.59397735711353L235.28226817737928,6.296602229027939L235.5448599945415,21.34645977539676L235.80745181170377,22.636854330022064L236.07004362886602,14.693614313320053L236.3326354460283,20.221199445443265L236.59522726319054,17.58091820985612L236.85781908035278,8.646795722843885L237.12041089751503,13.921466051871286L237.38300271467727,13.487391014442386L237.64559453183955,6.695170169016689L237.9081863490018,9.408455354292942L238.17077816616407,16.942438283080037L238.4333699833263,6.4789192975521965L238.69596180048856,3.138691678499541L238.9585536176508,14.717121184084093L239.22114543481305,20.489584977788624L239.48373725197533,13.361774245740046L239.74632906913757,16.758763862438176L240.00892088629982,6.97635799974403L240.27151270346207,16.90054546090474L240.53410452062434,10.319917301267182L240.79669633778659,26.47533814742828L241.05928815494886,12.488873438470588L241.3218799721111,17.80272188543808L241.58447178927332,16.18771965677784L241.8470636064356,15.11701562727868L242.10965542359784,2.1110835787344673L242.37224724076012,11.5729383992906L242.63483905792236,13.541808494793779L242.89743087508464,15.555563756913351L243.16002269224686,10.825623511811711L243.42261450940913,28.084895543162204L243.68520632657138,12.088608808334852L243.94779814373365,12.682573755435708L244.2103899608959,5.526983578343818L244.4729817780581,8.077910941007007L244.7355735952204,9.551224117935963L244.99816541238263,13.364026216298805L245.2607572295449,7.1516415163861256L245.52334904670715,12.943956584810673L245.78594086386943,24.437196820559404L246.04853268103165,-1.9538158265624395L246.31112449819392,26.45465395209064L246.57371631535617,13.79100600402203L246.8363081325184,4.650627692956814L247.09889994968069,9.124151783477455L247.36149176684293,12.125380711157344L247.62408358400518,18.387031123156866L247.88667540116742,9.266550360179307L248.1492672183297,23.71230909193284L248.41185903549194,0.30201084616794033L248.67445085265422,8.874429842749219L248.93704266981646,7.50464561369968L249.19963448697868,2.4859904034003395L249.46222630414096,7.9809219624215135L249.7248181213032,15.49429781815038L249.98740993846548,15.617230731529258L250.25000175562772,11.119521094185773L250.51259357279,5.672652139692632L250.7751853899522,-4.892174672067616L251.0377772071145,16.714865860998238L251.30036902427673,4.542995839812795L251.56296084143898,5.78864404792465L251.82555265860125,-5.855863826658044L252.08814447576347,3.3757347164928455L252.35073629292575,9.180697838740558L252.613328110088,-3.377616500110436L252.87591992725027,14.245009438450376L253.1385117444125,8.511492395847709L253.40110356157479,11.775862540873105L253.663695378737,22.761684451474405L253.92628719589928,4.0468836408268185L254.18887901306152,16.301490443362848L254.45147083022377,13.82722262643277L254.71406264738604,0.37126665307774176L254.97665446454826,20.789667766971313L255.23924628171054,16.004816458930062L255.50183809887278,23.044075389760554L255.76442991603506,17.348379112980332L256.0270217331973,5.677125231898382L256.28961355035955,6.870700476952903L256.5522053675218,3.413123597550607L256.81479718468404,9.85514759663326L257.0773890018463,17.754690129821793L257.33998081900853,8.326275529617638" fill="none"></path></g></g></g></g></g></g><g transform="translate(41, 176)" clip-path="url(#clip_1)"><clipPath id="clip_1"><rect width="288" height="23"></rect></clipPath><g><g><line x1="0" y1="0" x2="0" y2="5" style="visibility: inherit;" fill="rgb(0, 0, 0)" stroke="rgb(204, 204, 204)" stroke-width="1px"></line><line x1="26.259181716225363" y1="0" x2="26.259181716225363" y2="5" style="visibility: inherit;" fill="rgb(0, 0, 0)" stroke="rgb(204, 204, 204)" stroke-width="1px"></line><line x1="52.51836343245073" y1="0" x2="52.51836343245073" y2="5" style="visibility: inherit;" fill="rgb(0, 0, 0)" stroke="rgb(204, 204, 204)" stroke-width="1px"></line><line x1="78.77754514867608" y1="0" x2="78.77754514867608" y2="5" style="visibility: inherit;" fill="rgb(0, 0, 0)" stroke="rgb(204, 204, 204)" stroke-width="1px"></line><line x1="105.03672686490145" y1="0" x2="105.03672686490145" y2="5" style="visibility: inherit;" fill="rgb(0, 0, 0)" stroke="rgb(204, 204, 204)" stroke-width="1px"></line><line x1="131.2959085811268" y1="0" x2="131.2959085811268" y2="5" style="visibility: inherit;" fill="rgb(0, 0, 0)" stroke="rgb(204, 204, 204)" stroke-width="1px"></line><line x1="157.55509029735217" y1="0" x2="157.55509029735217" y2="5" style="visibility: inherit;" fill="rgb(0, 0, 0)" stroke="rgb(204, 204, 204)" stroke-width="1px"></line><line x1="183.81427201357755" y1="0" x2="183.81427201357755" y2="5" style="visibility: inherit;" fill="rgb(0, 0, 0)" stroke="rgb(204, 204, 204)" stroke-width="1px"></line><line x1="210.0734537298029" y1="0" x2="210.0734537298029" y2="5" style="visibility: inherit;" fill="rgb(0, 0, 0)" stroke="rgb(204, 204, 204)" stroke-width="1px"></line><line x1="236.3326354460283" y1="0" x2="236.3326354460283" y2="5" style="visibility: inherit;" fill="rgb(0, 0, 0)" stroke="rgb(204, 204, 204)" stroke-width="1px"></line><line x1="262.5918171622536" y1="0" x2="262.5918171622536" y2="5" style="visibility: inherit;" fill="rgb(0, 0, 0)" stroke="rgb(204, 204, 204)" stroke-width="1px"></line><line x1="288.850998878479" y1="0" x2="288.850998878479" y2="5" style="visibility: inherit;" fill="rgb(0, 0, 0)" stroke="rgb(204, 204, 204)" stroke-width="1px"></line></g><g transform="translate(0, 8)"><text style="text-anchor: middle; visibility: hidden; font-family: Roboto, sans-serif; font-size: 12px; font-weight: 200;" x="0" y="0" dx="0em" dy="0.95em" fill="rgb(33, 33, 33)" stroke="none" stroke-width="1px">-100</text><text style="text-anchor: middle; visibility: inherit; font-family: Roboto, sans-serif; font-size: 12px; font-weight: 200;" x="26.259181716225363" y="0" dx="0em" dy="0.95em" fill="rgb(33, 33, 33)" stroke="none" stroke-width="1px">0</text><text style="text-anchor: middle; visibility: hidden; font-family: Roboto, sans-serif; font-size: 12px; font-weight: 200;" x="52.51836343245073" y="0" dx="0em" dy="0.95em" fill="rgb(33, 33, 33)" stroke="none" stroke-width="1px">100</text><text style="text-anchor: middle; visibility: inherit; font-family: Roboto, sans-serif; font-size: 12px; font-weight: 200;" x="78.77754514867608" y="0" dx="0em" dy="0.95em" fill="rgb(33, 33, 33)" stroke="none" stroke-width="1px">200</text><text style="text-anchor: middle; visibility: hidden; font-family: Roboto, sans-serif; font-size: 12px; font-weight: 200;" x="105.03672686490145" y="0" dx="0em" dy="0.95em" fill="rgb(33, 33, 33)" stroke="none" stroke-width="1px">300</text><text style="text-anchor: middle; visibility: inherit; font-family: Roboto, sans-serif; font-size: 12px; font-weight: 200;" x="131.2959085811268" y="0" dx="0em" dy="0.95em" fill="rgb(33, 33, 33)" stroke="none" stroke-width="1px">400</text><text style="text-anchor: middle; visibility: hidden; font-family: Roboto, sans-serif; font-size: 12px; font-weight: 200;" x="157.55509029735217" y="0" dx="0em" dy="0.95em" fill="rgb(33, 33, 33)" stroke="none" stroke-width="1px">500</text><text style="text-anchor: middle; visibility: inherit; font-family: Roboto, sans-serif; font-size: 12px; font-weight: 200;" x="183.81427201357755" y="0" dx="0em" dy="0.95em" fill="rgb(33, 33, 33)" stroke="none" stroke-width="1px">600</text><text style="text-anchor: middle; visibility: hidden; font-family: Roboto, sans-serif; font-size: 12px; font-weight: 200;" x="210.0734537298029" y="0" dx="0em" dy="0.95em" fill="rgb(33, 33, 33)" stroke="none" stroke-width="1px">700</text><text style="text-anchor: middle; visibility: inherit; font-family: Roboto, sans-serif; font-size: 12px; font-weight: 200;" x="236.3326354460283" y="0" dx="0em" dy="0.95em" fill="rgb(33, 33, 33)" stroke="none" stroke-width="1px">800</text><text style="text-anchor: middle; visibility: hidden; font-family: Roboto, sans-serif; font-size: 12px; font-weight: 200;" x="262.5918171622536" y="0" dx="0em" dy="0.95em" fill="rgb(33, 33, 33)" stroke="none" stroke-width="1px">900</text><text style="text-anchor: middle; visibility: hidden; font-family: Roboto, sans-serif; font-size: 12px; font-weight: 200;" x="288.850998878479" y="0" dx="0em" dy="0.95em" fill="rgb(33, 33, 33)" stroke="none" stroke-width="1px">1k</text></g><line x1="0" y1="0" x2="288.850998878479" y2="0" fill="rgb(0, 0, 0)" stroke="rgb(204, 204, 204)" stroke-width="1px"></line></g></g></g></g></svg>