<svg viewBox="0 0 330 200" xmlns="http://www.w3.org/2000/svg"><g><g><g><g><g><line x1="41.149001121520996" y1="176.89999961853027" x2="36.149001121520996" y2="176.89999961853027" style="visibility: inherit;" fill="rgb(0, 0, 0)" stroke="rgb(204, 204, 204)" stroke-width="1px"></line><line x1="41.149001121520996" y1="159.20999965667724" x2="36.149001121520996" y2="159.20999965667724" style="visibility: inherit;" fill="rgb(0, 0, 0)" stroke="rgb(204, 204, 204)" stroke-width="1px"></line><line x1="41.149001121520996" y1="141.51999969482424" x2="36.149001121520996" y2="141.51999969482424" style="visibility: inherit;" fill="rgb(0, 0, 0)" stroke="rgb(204, 204, 204)" stroke-width="1px"></line><line x1="41.149001121520996" y1="123.82999973297119" x2="36.149001121520996" y2="123.82999973297119" style="visibility: inherit;" fill="rgb(0, 0, 0)" stroke="rgb(204, 204, 204)" stroke-width="1px"></line><line x1="41.149001121520996" y1="106.13999977111816" x2="36.149001121520996" y2="106.13999977111816" style="visibility: inherit;" fill="rgb(0, 0, 0)" stroke="rgb(204, 204, 204)" stroke-width="1px"></line><line x1="41.149001121520996" y1="88.44999980926514" x2="36.149001121520996" y2="88.44999980926514" style="visibility: inherit;" fill="rgb(0, 0, 0)" stroke="rgb(204, 204, 204)" stroke-width="1px"></line><line x1="41.149001121520996" y1="70.75999984741212" x2="36.149001121520996" y2="70.75999984741212" style="visibility: inherit;" fill="rgb(0, 0, 0)" stroke="rgb(204, 204, 204)" stroke-width="1px"></line><line x1="41.149001121520996" y1="53.06999988555909" x2="36.149001121520996" y2="53.06999988555909" style="visibility: inherit;" fill="rgb(0, 0, 0)" stroke="rgb(204, 204, 204)" stroke-width="1px"></line><line x1="41.149001121520996" y1="35.379999923706045" x2="36.149001121520996" y2="35.379999923706045" style="visibility: inherit;" fill="rgb(0, 0, 0)" stroke="rgb(204, 204, 204)" stroke-width="1px"></line><line x1="41.149001121520996" y1="17.689999961853022" x2="36.149001121520996" y2="17.689999961853022" style="visibility: inherit;" fill="rgb(0, 0, 0)" stroke="rgb(204, 204, 204)" stroke-width="1px"></line><line x1="41.149001121520996" y1="0" x2="36.149001121520996" y2="0" style="visibility: inherit;" fill="rgb(0, 0, 0)" stroke="rgb(204, 204, 204)" stroke-width="1px"></line></g><g transform="translate(31.149001121520996, 0)"><text style="text-anchor: end; visibility: hidden; font-family: Roboto, sans-serif; font-size: 12px; font-weight: 200;" x="0" y="176.89999961853027" dx="0em" dy="0.3em" fill="rgb(33, 33, 33)" stroke="none" stroke-width="1px">0</text><text style="text-anchor: end; visibility: inherit; font-family: Roboto, sans-serif; font-size: 12px; font-weight: 200;" x="0" y="159.20999965667724" dx="0em" dy="0.3em" fill="rgb(33, 33, 33)" stroke="none" stroke-width="1px">0.2</text><text style="text-anchor: end; visibility: hidden; font-family: Roboto, sans-serif; font-size: 12px; font-weight: 200;" x="0" y="141.51999969482424" dx="0em" dy="0.3em" fill="rgb(33, 33, 33)" stroke="none" stroke-width="1px">0.4</text><text style="text-anchor: end; visibility: inherit; font-family: Roboto, sans-serif; font-size: 12px; font-weight: 200;" x="0" y="123.82999973297119" dx="0em" dy="0.3em" fill="rgb(33, 33, 33)" stroke="none" stroke-width="1px">0.6</text><text style="text-anchor: end; visibility: hidden; font-family: Roboto, sans-serif; font-size: 12px; font-weight: 200;" x="0" y="106.13999977111816" dx="0em" dy="0.3em" fill="rgb(33, 33, 33)" stroke="none" stroke-width="1px">0.8</text><text style="text-anchor: end; visibility: inherit; font-family: Roboto, sans-serif; font-size: 12px; font-weight: 200;" x="0" y="88.44999980926514" dx="0em" dy="0.3em" fill="rgb(33, 33, 33)" stroke="none" stroke-width="1px">1</text><text style="text-anchor: end; visibility: hidden; font-family: Roboto, sans-serif; font-size: 12px; font-weight: 200;" x="0" y="70.75999984741212" dx="0em" dy="0.3em" fill="rgb(33, 33, 33)" stroke="none" stroke-width="1px">1.2</text><text style="text-anchor: end; visibility: inherit; font-family: Roboto, sans-serif; font-size: 12px; font-weight: 200;" x="0" y="53.06999988555909" dx="0em" dy="0.3em" fill="rgb(33, 33, 33)" stroke="none" stroke-width="1px">1.4</text><text style="text-anchor: end; visibility: hidden; font-family: Roboto, sans-serif; font-size: 12px; font-weight: 200;" x="0" y="35.379999923706045" dx="0em" dy="0.3em" fill="rgb(33, 33, 33)" stroke="none" stroke-width="1px">1.6</text><text style="text-anchor: end; visibility: inherit; font-family: Roboto, sans-serif; font-size: 12px; font-weight: 200;" x="0" y="17.689999961853022" dx="0em" dy="0.3em" fill="rgb(33, 33, 33)" stroke="none" stroke-width="1px">1.8</text><text style="text-anchor: end; visibility: hidden; font-family: Roboto, sans-serif; font-size: 12px; font-weight: 200;" x="0" y="0" dx="0em" dy="0.3em" fill="rgb(33, 33, 33)" stroke="none" stroke-width="1px">2</text></g><line x1="41.149001121520996" y1="0" x2="41.149001121520996" y2="176.89999961853027" fill="rgb(0, 0, 0)" stroke="rgb(204, 204, 204)" stroke-width="1px"></line></g></g><g transform="translate(41, 0)" clip-path="url(#clip_0)"><clipPath id="clip_0"><rect width="288" height="176"></rect></clipPath><g><g><g><line x1="0" y1="0" x2="0" y2="176.89999961853027" fill="rgb(0, 0, 0)" stroke="rgb(66, 66, 66)" stroke-width="1px" opacity="0.25"></line><line x1="28.8850998878479" y1="0" x2="28.8850998878479" y2="176.89999961853027" fill="rgb(0, 0, 0)" stroke="rgb(66, 66, 66)" stroke-width="1px" opacity="0.25"></line><line x1="57.7701997756958" y1="0" x2="57.7701997756958" y2="176.89999961853027" fill="rgb(0, 0, 0)" stroke="rgb(66, 66, 66)" stroke-width="1px" opacity="0.25"></line><line x1="86.6552996635437" y1="0" x2="86.6552996635437" y2="176.89999961853027" fill="rgb(0, 0, 0)" stroke="rgb(66, 66, 66)" stroke-width="1px" opacity="0.25"></line><line x1="115.5403995513916" y1="0" x2="115.5403995513916" y2="176.89999961853027" fill="rgb(0, 0, 0)" stroke="rgb(66, 66, 66)" stroke-width="1px" opacity="0.25"></line><line x1="144.4254994392395" y1="0" x2="144.4254994392395" y2="176.89999961853027" fill="rgb(0, 0, 0)" stroke="rgb(66, 66, 66)" stroke-width="1px" opacity="0.25"></line><line x1="173.3105993270874" y1="0" x2="173.3105993270874" y2="176.89999961853027" fill="rgb(0, 0, 0)" stroke="rgb(66, 66, 66)" stroke-width="1px" opacity="0.25"></line><line x1="202.1956992149353" y1="0" x2="202.1956992149353" y2="176.89999961853027" fill="rgb(0, 0, 0)" stroke="rgb(66, 66, 66)" stroke-width="1px" opacity="0.25"></line><line x1="231.0807991027832" y1="0" x2="231.0807991027832" y2="176.89999961853027" fill="rgb(0, 0, 0)" stroke="rgb(66, 66, 66)" stroke-width="1px" opacity="0.25"></line><line x1="259.9658989906311" y1="0" x2="259.9658989906311" y2="176.89999961853027" fill="rgb(0, 0, 0)" stroke="rgb(66, 66, 66)" stroke-width="1px" opacity="0.25"></line><line x1="288.850998878479" y1="0" x2="288.850998878479" y2="176.89999961853027" fill="rgb(0, 0, 0)" stroke="rgb(66, 66, 66)" stroke-width="1px" opacity="0.25"></line></g><g><line x1="0" y1="176.89999961853027" x2="288.850998878479" y2="176.89999961853027" fill="rgb(0, 0, 0)" stroke="rgb(66, 66, 66)" stroke-width="1px" opacity="0.25"></line><line x1="0" y1="159.20999965667724" x2="288.850998878479" y2="159.20999965667724" fill="rgb(0, 0, 0)" stroke="rgb(66, 66, 66)" stroke-width="1px" opacity="0.25"></line><line x1="0" y1="141.51999969482424" x2="288.850998878479" y2="141.51999969482424" fill="rgb(0, 0, 0)" stroke="rgb(66, 66, 66)" stroke-width="1px" opacity="0.25"></line><line x1="0" y1="123.82999973297119" x2="288.850998878479" y2="123.82999973297119" fill="rgb(0, 0, 0)" stroke="rgb(66, 66, 66)" stroke-width="1px" opacity="0.25"></line><line x1="0" y1="106.13999977111816" x2="288.850998878479" y2="106.13999977111816" fill="rgb(0, 0, 0)" stroke="rgb(66, 66, 66)" stroke-width="1px" opacity="0.25"></line><line x1="0" y1="88.44999980926514" x2="288.850998878479" y2="88.44999980926514" fill="rgb(0, 0, 0)" stroke="rgb(66, 66, 66)" stroke-width="1px" opacity="0.25"></line><line x1="0" y1="70.75999984741212" x2="288.850998878479" y2="70.75999984741212" fill="rgb(0, 0, 0)" stroke="rgb(66, 66, 66)" stroke-width="1px" opacity="0.25"></line><line x1="0" y1="53.06999988555909" x2="288.850998878479" y2="53.06999988555909" fill="rgb(0, 0, 0)" stroke="rgb(66, 66, 66)" stroke-width="1px" opacity="0.25"></line><line x1="0" y1="35.379999923706045" x2="288.850998878479" y2="35.379999923706045" fill="rgb(0, 0, 0)" stroke="rgb(66, 66, 66)" stroke-width="1px" opacity="0.25"></line><line x1="0" y1="17.689999961853022" x2="288.850998878479" y2="17.689999961853022" fill="rgb(0, 0, 0)" stroke="rgb(66, 66, 66)" stroke-width="1px" opacity="0.25"></line><line x1="0" y1="0" x2="288.850998878479" y2="0" fill="rgb(0, 0, 0)" stroke="rgb(66, 66, 66)" stroke-width="1px" opacity="0.25"></line></g></g></g><g><g><line x1="0" y1="176.89999961853027" x2="288.850998878479" y2="176.89999961853027" fill="rgb(0, 0, 0)" stroke="rgb(153, 153, 153)" stroke-width="1.5px"></line></g></g><g><g><line x1="28.8850998878479" y1="0" x2="28.8850998878479" y2="176.89999961853027" fill="rgb(0, 0, 0)" stroke="rgb(153, 153, 153)" stroke-width="1.5px"></line></g></g><g><g><g><g><g><path style="fill: none;" stroke="rgb(187, 187, 187)" stroke-width="2px" d="M28.8850998878479,88.44999980926514L29.159586904254148,88.44999980926514L29.4151437815979,88.44999980926514L29.67070065894165,88.44999980926514L29.91679246675415,88.44999980926514L30.1723493440979,88.44999980926514L30.4184411519104,88.44999980926514L30.664532959722898,88.44999980926514L30.910624767535403,88.44999980926514L31.166181644879153,88.44999980926514L31.4406686612854,88.44999980926514L31.705690608160403,88.44999980926514L31.9707125550354,88.44999980926514L32.24519957144165,88.44999980926514L32.49129137925415,88.44999980926514L32.7657783956604,88.44999980926514L33.0118702034729,88.44999980926514L33.2579620112854,88.44999980926514L33.51351888862915,88.44999980926514L33.77854083550415,88.44999980926514L34.02463264331665,88.44999980926514L34.28965459019165,88.44999980926514L34.53574639800415,88.44999980926514L34.78183820581665,88.44999980926514L35.027930013629145,88.44999980926514L35.27402182144165,88.44999980926514L35.52011362925415,88.44999980926514L35.76620543706665,88.44999980926514L36.01229724487915,88.44999980926514L36.25838905269165,88.44999980926514L36.50448086050415,88.44999980926514L36.75057266831666,88.44999980926514L36.99666447612915,88.44999980926514L37.24275628394165,88.44999980926514L37.48884809175415,88.44999980926514L37.73493989956665,88.44999980926514L37.98103170737915,88.44999980926514L38.22712351519165,88.44999980926514L38.47321532300415,88.44999980926514L38.71930713081665,88.44999980926514L38.96539893862915,88.44999980926514L39.211490746441655,88.44999980926514L39.457582554254145,88.44999980926514L39.70367436206665,88.44999980926514L39.949766169879155,88.44999980926514L40.195857977691645,88.44999980926514L40.44194978550415,88.44999980926514L40.688041593316655,88.44999980926514L40.934133401129145,88.44999980926514L41.18022520894165,88.44999980926514L41.4357820862854,88.44999980926514L41.69133896362915,88.44999980926514L41.93743077144165,88.44999980926514L42.18352257925415,88.44999980926514L42.4390794565979,88.44999980926514L42.6851712644104,88.44999980926514L42.9312630722229,88.44999980926514L43.18681994956665,88.44999980926514L43.4423768269104,88.44999980926514L43.7073987737854,88.44999980926514L43.96295565112915,88.44999980926514L44.22797759800415,88.44999980926514L44.47406940581665,88.44999980926514L44.7296262831604,88.44999980926514L44.9757180909729,88.44999980926514L45.23127496831665,88.44999980926514L45.4868318456604,88.44999980926514L45.74238872300415,88.44999980926514L46.00741066987915,88.44999980926514L46.253502477691654,88.44999980926514L46.49959428550415,88.44999980926514L46.764616232379154,88.44999980926514L47.020173109722904,88.44999980926514L47.2662649175354,88.44999980926514L47.5123567253479,88.44999980926514L47.758448533160404,88.44999980926514L48.01400541050415,88.44999980926514L48.26009721831665,88.44999980926514L48.5156540956604,88.44999980926514L48.77121097300415,88.44999980926514L49.03623291987915,88.44999980926514L49.28232472769165,88.44999980926514L49.52841653550415,88.44999980926514L49.802903551910404,88.44999980926514L50.0679254987854,88.44999980926514L50.32348237612915,88.44999980926514L50.56957418394165,88.44999980926514L50.81566599175415,88.44999980926514L51.08068793862915,88.44999980926514L51.3551749550354,88.44999980926514L51.610731832379145,88.44999980926514L51.866288709722895,88.44999980926514L52.1123805175354,88.44999980926514L52.3774024644104,88.44999980926514L52.6424244112854,88.44999980926514L52.8885162190979,88.44999980926514L53.134608026910406,88.44999980926514L53.390164904254156,88.44999980926514L53.6457217815979,88.44999980926514L53.8918135894104,88.44999980926514L54.1379053972229,88.44999980926514L54.39346227456665,88.44999980926514L54.649019151910394,88.44999980926514L54.914041098785404,88.44999980926514L55.1601329065979,88.44999980926514L55.41568978394165,88.44999980926514L55.66178159175415,88.44999980926514L55.90787339956665,88.44999980926514L56.1634302769104,88.44999980926514L56.41898715425415,88.44999980926514L56.66507896206665,88.44999980926514L56.9206358394104,88.44999980926514L57.17619271675415,88.44999980926514L57.441214663629154,88.44999980926514L57.696771540972904,88.44999980926514L57.9428633487854,88.44999980926514L58.19842022612915,88.44999980926514L58.4539771034729,88.44999980926514L58.728464119879156,88.44999980926514L58.9840209972229,88.44999980926514L59.23957787456665,88.44999980926514L59.485669682379154,88.44999980926514L59.73176149019165,88.44999980926514L59.987318367535394,88.44999980926514L60.242875244879144,88.44999980926514L60.48896705269165,88.44999980926514L60.75398899956665,88.44999980926514L61.00008080737915,88.44999980926514L61.2556376847229,88.44999980926514L61.511194562066656,88.44999980926514L61.77621650894165,88.44999980926514L62.041238455816654,88.44999980926514L62.30626040269165,88.44999980926514L62.552352210504154,88.44999980926514L62.807909087847904,88.44999980926514L63.0540008956604,88.44999980926514L63.30955777300415,88.44999980926514L63.584044789410406,88.44999980926514L63.8490667362854,88.44999980926514L64.10462361362914,88.44999980926514L64.3601804909729,88.44999980926514L64.6252024378479,88.44999980926514L64.8902243847229,88.44999980926514L65.1363161925354,88.44999980926514L65.39187306987915,88.44999980926514L65.6474299472229,88.44999980926514L65.90298682456665,88.44999980926514L66.1774738409729,88.44999980926514L66.43303071831664,88.44999980926514L66.68858759566041,88.44999980926514L66.9536095425354,88.44999980926514L67.19970135034791,88.44999980926514L67.4457931581604,88.44999980926514L67.6918849659729,88.44999980926514L67.93797677378541,88.44999980926514L68.1840685815979,88.44999980926514L68.4490905284729,88.44999980926514L68.6951823362854,88.44999980926514L68.9412741440979,88.44999980926514L69.19683102144165,88.44999980926514L69.44292282925414,88.44999980926514L69.6984797065979,88.44999980926514L69.95403658394164,88.44999980926514L70.20012839175415,88.44999980926514L70.44622019956665,88.44999980926514L70.7017770769104,88.44999980926514L70.9667990237854,88.44999980926514L71.22235590112915,88.44999980926514L71.48737784800414,88.44999980926514L71.7429347253479,88.44999980926514L71.99849160269164,88.44999980926514L72.25404848003541,88.44999980926514L72.50960535737916,88.44999980926514L72.77462730425415,88.44999980926514L73.0301841815979,88.44999980926514L73.2952061284729,88.44999980926514L73.55076300581665,88.44999980926514L73.8063198831604,88.44999980926514L74.0713418300354,88.44999980926514L74.34582884644166,88.44999980926514L74.6203158628479,88.44999980926514L74.87587274019165,88.44999980926514L75.14089468706665,88.44999980926514L75.3964515644104,88.44999980926514L75.65200844175415,88.44999980926514L75.9075653190979,88.44999980926514L76.15365712691039,88.44999980926514L76.40921400425414,88.44999980926514L76.6647708815979,88.44999980926514L76.91086268941041,88.44999980926514L77.1569544972229,88.44999980926514L77.41251137456665,88.44999980926514L77.67753332144164,88.44999980926514L77.9330901987854,88.44999980926514L78.1791820065979,88.44999980926514L78.43473888394165,88.44999980926514L78.69029576128541,88.44999980926514L78.9553177081604,88.44999980926514L79.20140951597291,88.44999980926514L79.4475013237854,88.44999980926514L79.6935931315979,88.44999980926514L79.9586150784729,88.44999980926514L80.2047068862854,88.44999980926514L80.4507986940979,88.44999980926514L80.6968905019104,88.44999980926514L80.9429823097229,88.44999980926514L81.1890741175354,88.44999980926514L81.44463099487915,88.44999980926514L81.7001878722229,88.44999980926514L81.96520981909791,88.44999980926514L82.23969683550415,88.44999980926514L82.50471878237916,88.44999980926514L82.75081059019165,88.44999980926514L82.99690239800415,88.44999980926514L83.26192434487915,88.44999980926514L83.52694629175414,88.44999980926514L83.7825031690979,88.44999980926514L84.03806004644164,88.44999980926514L84.28415185425416,88.44999980926514L84.53970873159791,88.44999980926514L84.7858005394104,88.44999980926514L85.0318923472229,88.44999980926514L85.27798415503541,88.44999980926514L85.5430061019104,88.44999980926514L85.7890979097229,88.44999980926514L86.0351897175354,88.44999980926514L86.29074659487915,88.44999980926514L86.56523361128541,88.44999980926514L86.83025555816039,88.44999980926514L87.07634736597291,88.44999980926514L87.3224391737854,88.44999980926514L87.56853098159789,88.44999980926514L87.81462278941041,88.44999980926514L88.08910980581665,88.44999980926514L88.3446666831604,88.44999980926514L88.60022356050415,88.44999980926514L88.84631536831665,88.44999980926514L89.1018722456604,88.44999980926514L89.3479640534729,88.44999980926514L89.6129860003479,88.44999980926514L89.86854287769165,88.44999980926514L90.11463468550414,88.44999980926514L90.36072649331666,88.44999980926514L90.62574844019164,88.44999980926514L90.87184024800416,88.44999980926514L91.11793205581665,88.44999980926514L91.3924190722229,88.44999980926514L91.64797594956666,88.44999980926514L91.9224629659729,88.44999980926514L92.16855477378539,88.44999980926514L92.4146465815979,88.44999980926514L92.6607383894104,88.44999980926514L92.91629526675415,88.44999980926514L93.18131721362916,88.44999980926514L93.4368740909729,88.44999980926514L93.7018960378479,88.44999980926514L93.9669179847229,88.44999980926514L94.22247486206666,88.44999980926514L94.4969618784729,88.44999980926514L94.75251875581665,88.44999980926514L95.02700577222289,88.44999980926514L95.28256264956666,88.44999980926514L95.54758459644165,88.44999980926514L95.8220716128479,88.44999980926514L96.09655862925415,88.44999980926514L96.36158057612916,88.44999980926514L96.6360675925354,88.44999980926514L96.8821594003479,88.44999980926514L97.12825120816039,88.44999980926514L97.40273822456666,88.44999980926514L97.66776017144164,88.44999980926514L97.91385197925416,88.44999980926514L98.15994378706665,88.44999980926514L98.4155006644104,88.44999980926514L98.67105754175415,88.44999980926514L98.93607948862915,88.44999980926514L99.1916363659729,88.44999980926514L99.44719324331665,88.44999980926514L99.72168025972289,88.44999980926514L99.9867022065979,88.44999980926514L100.2517241534729,88.44999980926514L100.4978159612854,88.44999980926514L100.75337283862915,88.44999980926514L101.0089297159729,88.44999980926514L101.2550215237854,88.44999980926514L101.50111333159789,88.44999980926514L101.77560034800416,88.44999980926514L102.04062229487914,88.44999980926514L102.29617917222289,88.44999980926514L102.5422709800354,88.44999980926514L102.79782785737915,88.44999980926514L103.04391966519165,88.44999980926514L103.29001147300416,88.44999980926514L103.53610328081665,88.44999980926514L103.80112522769166,88.44999980926514L104.0566821050354,88.44999980926514L104.32170405191039,88.44999980926514L104.57726092925414,88.44999980926514L104.8517479456604,88.44999980926514L105.0978397534729,88.44999980926514L105.37232676987915,88.44999980926514L105.6278836472229,88.44999980926514L105.89290559409791,88.44999980926514L106.15792754097289,88.44999980926514L106.41348441831664,88.44999980926514L106.66904129566039,88.44999980926514L106.92459817300414,88.44999980926514L107.18962011987915,88.44999980926514L107.4451769972229,88.44999980926514L107.7101989440979,88.44999980926514L107.95629075191039,88.44999980926514L108.2023825597229,88.44999980926514L108.4484743675354,88.44999980926514L108.7134963144104,88.44999980926514L108.9785182612854,88.44999980926514L109.2435402081604,88.44999980926514L109.50856215503539,88.44999980926514L109.78304917144166,88.44999980926514L110.03860604878541,88.44999980926514L110.2846978565979,88.44999980926514L110.54025473394165,88.44999980926514L110.78634654175414,88.44999980926514L111.04190341909789,88.44999980926514L111.29746029644166,88.44999980926514L111.5530171737854,88.44999980926514L111.8180391206604,88.44999980926514L112.07359599800415,88.44999980926514L112.32915287534789,88.44999980926514L112.58470975269164,88.44999980926514L112.84973169956665,88.44999980926514L113.11475364644166,88.44999980926514L113.3892406628479,88.44999980926514L113.64479754019166,88.44999980926514L113.89088934800415,88.44999980926514L114.15591129487916,88.44999980926514L114.42093324175414,88.44999980926514L114.6954202581604,88.44999980926514L114.9604422050354,88.44999980926514L115.21599908237916,88.44999980926514L115.4715559597229,88.44999980926514L115.72711283706666,88.44999980926514L115.9826697144104,88.44999980926514L116.23822659175416,88.44999980926514L116.5127136081604,88.44999980926514L116.7777355550354,88.44999980926514L117.0238273628479,88.44999980926514L117.2699191706604,88.44999980926514L117.53494111753541,88.44999980926514L117.79996306441039,88.44999980926514L118.04605487222291,88.44999980926514L118.30161174956666,88.44999980926514L118.5760987659729,88.44999980926514L118.83165564331665,88.44999980926514L119.09667759019165,88.44999980926514L119.36169953706666,88.44999980926514L119.6172564144104,88.44999980926514L119.8822783612854,88.44999980926514L120.13783523862915,88.44999980926514L120.38392704644166,88.44999980926514L120.6394839237854,88.44999980926514L120.8855757315979,88.44999980926514L121.1505976784729,88.44999980926514L121.3966894862854,88.44999980926514L121.67117650269165,88.44999980926514L121.9267333800354,88.44999980926514L122.17282518784789,88.44999980926514L122.4378471347229,88.44999980926514L122.7028690815979,88.44999980926514L122.95842595894165,88.44999980926514L123.2139828362854,88.44999980926514L123.46953971362915,88.44999980926514L123.71563152144165,88.44999980926514L123.9711883987854,88.44999980926514L124.2362103456604,88.44999980926514L124.49176722300415,88.44999980926514L124.75678916987916,88.44999980926514L125.0123460472229,88.44999980926514L125.26790292456666,88.44999980926514L125.53292487144165,88.44999980926514L125.80741188784789,88.44999980926514L126.05350369566041,88.44999980926514L126.30906057300416,88.44999980926514L126.55515238081665,88.44999980926514L126.82017432769166,88.44999980926514L127.06626613550415,88.44999980926514L127.33128808237915,88.44999980926514L127.59631002925416,88.44999980926514L127.84240183706665,88.44999980926514L128.0979587144104,88.44999980926514L128.3440505222229,88.44999980926514L128.6090724690979,88.44999980926514L128.8740944159729,88.44999980926514L129.13911636284791,88.44999980926514L129.41360337925414,88.44999980926514L129.6691602565979,88.44999980926514L129.94364727300416,88.44999980926514L130.20866921987914,88.44999980926514L130.4642260972229,88.44999980926514L130.71978297456667,88.44999980926514L130.9753398519104,88.44999980926514L131.23089672925417,88.44999980926514L131.49591867612915,88.44999980926514L131.76094062300416,88.44999980926514L132.02596256987914,88.44999980926514L132.3004495862854,88.44999980926514L132.55600646362913,88.44999980926514L132.82102841050414,88.44999980926514L133.08605035737915,88.44999980926514L133.34160723472291,88.44999980926514L133.59716411206665,88.44999980926514L133.84325591987914,88.44999980926514L134.0988127972229,88.44999980926514L134.3638347440979,88.44999980926514L134.6099265519104,88.44999980926514L134.86548342925417,88.44999980926514L135.1210403065979,88.44999980926514L135.3860622534729,88.44999980926514L135.6510842003479,88.44999980926514L135.8971760081604,88.44999980926514L136.1621979550354,88.44999980926514L136.40828976284791,88.44999980926514L136.6543815706604,88.44999980926514L136.90993844800414,88.44999980926514L137.1844254644104,88.44999980926514L137.43998234175416,88.44999980926514L137.70500428862914,88.44999980926514L137.95109609644166,88.44999980926514L138.21611804331664,88.44999980926514L138.46220985112916,88.44999980926514L138.72723179800414,88.44999980926514L138.99225374487915,88.44999980926514L139.25727569175416,88.44999980926514L139.52229763862914,88.44999980926514L139.7778545159729,88.44999980926514L140.0239463237854,88.44999980926514L140.27003813159791,88.44999980926514L140.5350600784729,88.44999980926514L140.78115188628541,88.44999980926514L141.03670876362915,88.44999980926514L141.28280057144164,88.44999980926514L141.5383574487854,88.44999980926514L141.79391432612914,88.44999980926514L142.0494712034729,88.44999980926514L142.30502808081664,88.44999980926514L142.55111988862916,88.44999980926514L142.8066767659729,88.44999980926514L143.05276857378541,88.44999980926514L143.30832545112915,88.44999980926514L143.56388232847289,88.44999980926514L143.81943920581665,88.44999980926514L144.07499608316039,88.44999980926514L144.3210878909729,88.44999980926514L144.5671796987854,88.44999980926514L144.8132715065979,88.44999980926514L145.08775852300417,88.44999980926514L145.3622455394104,88.44999980926514L145.60833734722289,88.44999980926514L145.85442915503538,88.44999980926514L146.10052096284792,88.44999980926514L146.36554290972288,88.44999980926514L146.61163471753542,88.44999980926514L146.86719159487913,88.44999980926514L147.12274847222292,88.44999980926514L147.3688402800354,88.44999980926514L147.6149320878479,88.44999980926514L147.87048896519167,88.44999980926514L148.1260458425354,88.44999980926514L148.38160271987917,88.44999980926514L148.6371595972229,88.44999980926514L148.89271647456667,88.44999980926514L149.1482733519104,88.44999980926514L149.41329529878539,88.44999980926514L149.66885217612915,88.44999980926514L149.92440905347289,88.44999980926514L150.19889606987914,88.44999980926514L150.4544529472229,88.44999980926514L150.7005447550354,88.44999980926514L150.94663656284789,88.44999980926514L151.20219344019165,88.44999980926514L151.44828524800414,88.44999980926514L151.70384212534788,88.44999980926514L151.94993393316042,88.44999980926514L152.20549081050416,88.44999980926514L152.46104768784792,88.44999980926514L152.71660456519163,88.44999980926514L152.98162651206664,88.44999980926514L153.24664845894165,88.44999980926514L153.51167040581666,88.44999980926514L153.7672272831604,88.44999980926514L154.04171429956665,88.44999980926514L154.29727117691039,88.44999980926514L154.55282805425415,88.44999980926514L154.8273150706604,88.44999980926514L155.08287194800414,88.44999980926514L155.3384288253479,88.44999980926514L155.5845206331604,88.44999980926514L155.8495425800354,88.44999980926514L156.0956343878479,88.44999980926514L156.34172619566039,88.44999980926514L156.6067481425354,88.44999980926514L156.85283995034789,88.44999980926514L157.10839682769165,88.44999980926514L157.37341877456666,88.44999980926514L157.63844072144167,88.44999980926514L157.8939975987854,88.44999980926514L158.14955447612917,88.44999980926514L158.4240414925354,88.44999980926514L158.67959836987916,88.44999980926514L158.94462031675414,88.44999980926514L159.2001771940979,88.44999980926514L159.4462690019104,88.44999980926514L159.69236080972289,88.44999980926514L159.9573827565979,88.44999980926514L160.2224047034729,88.44999980926514L160.4874266503479,88.44999980926514L160.7524485972229,88.44999980926514L160.9985404050354,88.44999980926514L161.27302742144164,88.44999980926514L161.51911922925413,88.44999980926514L161.7746761065979,88.44999980926514L162.03023298394163,88.44999980926514L162.27632479175418,88.44999980926514L162.5508118081604,88.44999980926514L162.7969036159729,88.44999980926514L163.04299542378538,88.44999980926514L163.29855230112915,88.44999980926514L163.55410917847288,88.44999980926514L163.82859619487914,88.44999980926514L164.10308321128542,88.44999980926514L164.35864008862913,88.44999980926514L164.63312710503538,88.44999980926514L164.90761412144167,88.44999980926514L165.1821011378479,88.44999980926514L165.4471230847229,88.44999980926514L165.7121450315979,88.44999980926514L165.96770190894165,88.44999980926514L166.24218892534788,88.44999980926514L166.49774580269164,88.44999980926514L166.75330268003538,88.44999980926514L167.01832462691038,88.44999980926514L167.2644164347229,88.44999980926514L167.53890345112916,88.44999980926514L167.78499525894165,88.44999980926514L168.05001720581666,88.44999980926514L168.3055740831604,88.44999980926514L168.56113096050416,88.44999980926514L168.80722276831665,88.44999980926514L169.07224471519166,88.44999980926514L169.33726666206667,88.44999980926514L169.58335846987916,88.44999980926514L169.85784548628538,88.44999980926514L170.11340236362915,88.44999980926514L170.35949417144167,88.44999980926514L170.62451611831665,88.44999980926514L170.8990031347229,88.44999980926514L171.15456001206667,88.44999980926514L171.4101168894104,88.44999980926514L171.66567376675417,88.44999980926514L171.9212306440979,88.44999980926514L172.17678752144167,88.44999980926514L172.42287932925416,88.44999980926514L172.66897113706665,88.44999980926514L172.93399308394166,88.44999980926514L173.1895499612854,88.44999980926514L173.4545719081604,88.44999980926514L173.71012878550417,88.44999980926514L173.9656856628479,88.44999980926514L174.22124254019167,88.44999980926514L174.46733434800416,88.44999980926514L174.71342615581665,88.44999980926514L174.95951796362914,88.44999980926514L175.2150748409729,88.44999980926514L175.4800967878479,88.44999980926514L175.74511873472292,88.44999980926514L176.00067561206666,88.44999980926514L176.24676741987915,88.44999980926514L176.5212544362854,88.44999980926514L176.76734624409792,88.44999980926514L177.04183326050415,88.44999980926514L177.2973901378479,88.44999980926514L177.5434819456604,88.44999980926514L177.7895737534729,88.44999980926514L178.06406076987915,88.44999980926514L178.3196176472229,88.44999980926514L178.5657094550354,88.44999980926514L178.82126633237914,88.44999980926514L179.0768232097229,88.44999980926514L179.3229150175354,88.44999980926514L179.5879369644104,88.44999980926514L179.84349384175414,88.44999980926514L180.08958564956666,88.44999980926514L180.35460759644164,88.44999980926514L180.61962954331665,88.44999980926514L180.86572135112917,88.44999980926514L181.14020836753542,88.44999980926514L181.41469538394165,88.44999980926514L181.6702522612854,88.44999980926514L181.9163440690979,88.44999980926514L182.17190094644164,88.44999980926514L182.41799275425413,88.44999980926514L182.6735496315979,88.44999980926514L182.92910650894163,88.44999980926514L183.19412845581664,88.44999980926514L183.44022026362913,88.44999980926514L183.6957771409729,88.44999980926514L183.95133401831666,88.44999980926514L184.21635596519164,88.44999980926514L184.4719128425354,88.44999980926514L184.7369347894104,88.44999980926514L185.00195673628542,88.44999980926514L185.2669786831604,88.44999980926514L185.51307049097292,88.44999980926514L185.7591622987854,88.44999980926514L186.01471917612915,88.44999980926514L186.27974112300413,88.44999980926514L186.54476306987914,88.44999980926514L186.8003199472229,88.44999980926514L187.0653418940979,88.44999980926514L187.32089877144165,88.44999980926514L187.5764556487854,88.44999980926514L187.85094266519167,88.44999980926514L188.10649954253537,88.44999980926514L188.37152148941038,88.44999980926514L188.6365434362854,88.44999980926514L188.9015653831604,88.44999980926514L189.17605239956663,88.44999980926514L189.44107434644164,88.44999980926514L189.6966312237854,88.44999980926514L189.9427230315979,88.44999980926514L190.19827990894163,88.44999980926514L190.44437171675418,88.44999980926514L190.70939366362913,88.44999980926514L190.95548547144165,88.44999980926514L191.20157727925417,88.44999980926514L191.44766908706666,88.44999980926514L191.70322596441042,88.44999980926514L191.96824791128537,88.44999980926514L192.22380478862917,88.44999980926514L192.47936166597287,88.44999980926514L192.75384868237916,88.44999980926514L193.0094055597229,88.44999980926514L193.26496243706666,88.44999980926514L193.52998438394167,88.44999980926514L193.7855412612854,88.44999980926514L194.0316330690979,88.44999980926514L194.28718994644166,88.44999980926514L194.5427468237854,88.44999980926514L194.79830370112916,88.44999980926514L195.0538605784729,88.44999980926514L195.30941745581666,88.44999980926514L195.5649743331604,88.44999980926514L195.82053121050416,88.44999980926514L196.08555315737917,88.44999980926514L196.34111003472287,88.44999980926514L196.61559705112916,88.44999980926514L196.8711539284729,88.44999980926514L197.12671080581666,88.44999980926514L197.4011978222229,88.44999980926514L197.67568483862914,88.44999980926514L197.9312417159729,88.44999980926514L198.18679859331664,88.44999980926514L198.43289040112913,88.44999980926514L198.67898220894168,88.44999980926514L198.94400415581663,88.44999980926514L199.1995610331604,88.44999980926514L199.4645829800354,88.44999980926514L199.72013985737914,88.44999980926514L199.96623166519166,88.44999980926514L200.2217885425354,88.44999980926514L200.47734541987916,88.44999980926514L200.72343722769165,88.44999980926514L200.96952903550417,88.44999980926514L201.23455098237915,88.44999980926514L201.49010785972288,88.44999980926514L201.74566473706665,88.44999980926514L201.99175654487914,88.44999980926514L202.2473134222229,88.44999980926514L202.51233536909788,88.44999980926514L202.7584271769104,88.44999980926514L203.02344912378538,88.44999980926514L203.2884710706604,88.44999980926514L203.5534930175354,88.44999980926514L203.7995848253479,88.44999980926514L204.0456766331604,88.44999980926514L204.30123351050415,88.44999980926514L204.56625545737916,88.44999980926514L204.82181233472292,88.44999980926514L205.0679041425354,88.44999980926514L205.33292608941042,88.44999980926514L205.60741310581665,88.44999980926514L205.8819001222229,88.44999980926514L206.1469220690979,88.44999980926514L206.40247894644165,88.44999980926514L206.64857075425417,88.44999980926514L206.89466256206666,88.44999980926514L207.1502194394104,88.44999980926514L207.39631124722288,88.44999980926514L207.6424030550354,88.44999980926514L207.8884948628479,88.44999980926514L208.16298187925415,88.44999980926514L208.42800382612916,88.44999980926514L208.69302577300417,88.44999980926514L208.95804771987915,88.44999980926514L209.21360459722288,88.44999980926514L209.46916147456665,88.44999980926514L209.73418342144166,88.44999980926514L210.0086704378479,88.44999980926514L210.2547622456604,88.44999980926514L210.51031912300417,88.44999980926514L210.75641093081666,88.44999980926514L211.00250273862915,88.44999980926514L211.24859454644164,88.44999980926514L211.5041514237854,88.44999980926514L211.75024323159792,88.44999980926514L212.0152651784729,88.44999980926514L212.2613569862854,88.44999980926514L212.5074487940979,88.44999980926514L212.7535406019104,88.44999980926514L213.02802761831663,88.44999980926514L213.29304956519164,88.44999980926514L213.55807151206665,88.44999980926514L213.82309345894166,88.44999980926514L214.07865033628542,88.44999980926514L214.35313735269165,88.44999980926514L214.59922916050414,88.44999980926514L214.8547860378479,88.44999980926514L215.11034291519164,88.44999980926514L215.3658997925354,88.44999980926514L215.62145666987914,88.44999980926514L215.86754847769163,88.44999980926514L216.13257042456664,88.44999980926514L216.3881273019104,88.44999980926514L216.64368417925414,88.44999980926514L216.9181711956604,88.44999980926514L217.1831931425354,88.44999980926514L217.44821508941038,88.44999980926514L217.7132370362854,88.44999980926514L217.95932884409788,88.44999980926514L218.20542065191037,88.44999980926514L218.47044259878538,88.44999980926514L218.71653440659787,88.44999980926514L218.97209128394164,88.44999980926514L219.2276481612854,88.44999980926514L219.49267010816038,88.44999980926514L219.74822698550415,88.44999980926514L220.00378386284788,88.44999980926514L220.2498756706604,88.44999980926514L220.5148976175354,88.44999980926514L220.7609894253479,88.44999980926514L221.0260113722229,88.44999980926514L221.30049838862917,88.44999980926514L221.54659019644166,88.44999980926514L221.8021470737854,88.44999980926514L222.0482388815979,88.44999980926514L222.32272589800417,88.44999980926514L222.58774784487915,88.44999980926514L222.84330472222288,88.44999980926514L223.1083266690979,88.44999980926514L223.35441847691038,88.44999980926514L223.60051028472293,88.44999980926514L223.85606716206664,88.44999980926514L224.1116240394104,88.44999980926514L224.36718091675414,88.44999980926514L224.6227377940979,88.44999980926514L224.8877597409729,88.44999980926514L225.16224675737917,88.44999980926514L225.4178036347229,88.44999980926514L225.67336051206667,88.44999980926514L225.9289173894104,88.44999980926514L226.18447426675417,88.44999980926514L226.44949621362915,88.44999980926514L226.69558802144167,88.44999980926514L226.94167982925416,88.44999980926514L227.18777163706665,88.44999980926514L227.45279358394166,88.44999980926514L227.71781553081664,88.44999980926514L227.98283747769165,88.44999980926514L228.24785942456666,88.44999980926514L228.5034163019104,88.44999980926514L228.74950810972288,88.44999980926514L229.00506498706665,88.44999980926514L229.25115679487914,88.44999980926514L229.5256438112854,88.44999980926514L229.78120068862916,88.44999980926514L230.0367575659729,88.44999980926514L230.3017795128479,88.44999980926514L230.56680145972288,88.44999980926514L230.82235833706665,88.44999980926514L231.07791521441038,88.44999980926514L231.33347209175415,88.44999980926514L231.58902896909788,88.44999980926514L231.8540509159729,88.44999980926514L232.10014272378538,88.44999980926514L232.37462974019166,88.44999980926514L232.62072154800416,88.44999980926514L232.8762784253479,88.44999980926514L233.13183530269166,88.44999980926514L233.37792711050415,88.44999980926514L233.6334839878479,88.44999980926514L233.90797100425416,88.44999980926514L234.15406281206666,88.44999980926514L234.41908475894166,88.44999980926514L234.66517656675416,88.44999980926514L234.93019851362916,88.44999980926514L235.1857553909729,88.44999980926514L235.45077733784788,88.44999980926514L235.70633421519165,88.44999980926514L235.97135616206666,88.44999980926514L236.2269130394104,88.44999980926514L236.47300484722288,88.44999980926514L236.7380267940979,88.44999980926514L237.0030487409729,88.44999980926514L237.25860561831666,88.44999980926514L237.5141624956604,88.44999980926514L237.76971937300416,88.44999980926514L238.01581118081666,88.44999980926514L238.2713680581604,88.44999980926514L238.5174598659729,88.44999980926514L238.7824818128479,88.44999980926514L239.0285736206604,88.44999980926514L239.29359556753542,88.44999980926514L239.5586175144104,88.44999980926514L239.81417439175416,88.44999980926514L240.06026619956666,88.44999980926514L240.30635800737915,88.44999980926514L240.57137995425416,88.44999980926514L240.82693683159792,88.44999980926514L241.0730286394104,88.44999980926514L241.32858551675415,88.44999980926514L241.57467732456666,88.44999980926514L241.82076913237916,88.44999980926514L242.0763260097229,88.44999980926514L242.3413479565979,88.44999980926514L242.6063699034729,88.44999980926514L242.8713918503479,88.44999980926514L243.1364137972229,88.44999980926514L243.3825056050354,88.44999980926514L243.65699262144165,88.44999980926514L243.9125494987854,88.44999980926514L244.18703651519166,88.44999980926514L244.45205846206665,88.44999980926514L244.71708040894165,88.44999980926514L244.9726372862854,88.44999980926514L245.22819416362915,88.44999980926514L245.49321611050416,88.44999980926514L245.75823805737915,88.44999980926514L246.0327250737854,88.44999980926514L246.28828195112914,88.44999980926514L246.53437375894163,88.44999980926514L246.7899306362854,88.44999980926514L247.0549525831604,88.44999980926514L247.3199745300354,88.44999980926514L247.57553140737915,88.44999980926514L247.84055335425415,88.44999980926514L248.09611023159792,88.44999980926514L248.37059724800415,88.44999980926514L248.61668905581664,88.44999980926514L248.8722459331604,88.44999980926514L249.12780281050414,88.44999980926514L249.4022898269104,88.44999980926514L249.6673117737854,88.44999980926514L249.9323337206604,88.44999980926514L250.20682073706664,88.44999980926514L250.4623776144104,88.44999980926514L250.7273995612854,88.44999980926514L250.99242150816042,88.44999980926514L251.24797838550415,88.44999980926514L251.51300033237914,88.44999980926514L251.77802227925415,88.44999980926514L252.03357915659788,88.44999980926514L252.2986011034729,88.44999980926514L252.55415798081665,88.44999980926514L252.80024978862915,88.44999980926514L253.0558066659729,88.44999980926514L253.3018984737854,88.44999980926514L253.5479902815979,88.44999980926514L253.7940820894104,88.44999980926514L254.04963896675417,88.44999980926514L254.31466091362913,88.44999980926514L254.5702177909729,88.44999980926514" fill="none"></path></g></g></g></g><g opacity="0.2"><g><g><g><path style="fill: none;" stroke="rgb(187, 187, 187)" stroke-width="2px" d="M28.8850998878479,88.44999980926514L29.159586904254148,88.44999980926514L29.4151437815979,88.44999980926514L29.67070065894165,88.44999980926514L29.91679246675415,88.44999980926514L30.1723493440979,88.44999980926514L30.4184411519104,88.44999980926514L30.664532959722898,88.44999980926514L30.910624767535403,88.44999980926514L31.166181644879153,88.44999980926514L31.4406686612854,88.44999980926514L31.705690608160403,88.44999980926514L31.9707125550354,88.44999980926514L32.24519957144165,88.44999980926514L32.49129137925415,88.44999980926514L32.7657783956604,88.44999980926514L33.0118702034729,88.44999980926514L33.2579620112854,88.44999980926514L33.51351888862915,88.44999980926514L33.77854083550415,88.44999980926514L34.02463264331665,88.44999980926514L34.28965459019165,88.44999980926514L34.53574639800415,88.44999980926514L34.78183820581665,88.44999980926514L35.027930013629145,88.44999980926514L35.27402182144165,88.44999980926514L35.52011362925415,88.44999980926514L35.76620543706665,88.44999980926514L36.01229724487915,88.44999980926514L36.25838905269165,88.44999980926514L36.50448086050415,88.44999980926514L36.75057266831666,88.44999980926514L36.99666447612915,88.44999980926514L37.24275628394165,88.44999980926514L37.48884809175415,88.44999980926514L37.73493989956665,88.44999980926514L37.98103170737915,88.44999980926514L38.22712351519165,88.44999980926514L38.47321532300415,88.44999980926514L38.71930713081665,88.44999980926514L38.96539893862915,88.44999980926514L39.211490746441655,88.44999980926514L39.457582554254145,88.44999980926514L39.70367436206665,88.44999980926514L39.949766169879155,88.44999980926514L40.195857977691645,88.44999980926514L40.44194978550415,88.44999980926514L40.688041593316655,88.44999980926514L40.934133401129145,88.44999980926514L41.18022520894165,88.44999980926514L41.4357820862854,88.44999980926514L41.69133896362915,88.44999980926514L41.93743077144165,88.44999980926514L42.18352257925415,88.44999980926514L42.4390794565979,88.44999980926514L42.6851712644104,88.44999980926514L42.9312630722229,88.44999980926514L43.18681994956665,88.44999980926514L43.4423768269104,88.44999980926514L43.7073987737854,88.44999980926514L43.96295565112915,88.44999980926514L44.22797759800415,88.44999980926514L44.47406940581665,88.44999980926514L44.7296262831604,88.44999980926514L44.9757180909729,88.44999980926514L45.23127496831665,88.44999980926514L45.4868318456604,88.44999980926514L45.74238872300415,88.44999980926514L46.00741066987915,88.44999980926514L46.253502477691654,88.44999980926514L46.49959428550415,88.44999980926514L46.764616232379154,88.44999980926514L47.020173109722904,88.44999980926514L47.2662649175354,88.44999980926514L47.5123567253479,88.44999980926514L47.758448533160404,88.44999980926514L48.01400541050415,88.44999980926514L48.26009721831665,88.44999980926514L48.5156540956604,88.44999980926514L48.77121097300415,88.44999980926514L49.03623291987915,88.44999980926514L49.28232472769165,88.44999980926514L49.52841653550415,88.44999980926514L49.802903551910404,88.44999980926514L50.0679254987854,88.44999980926514L50.32348237612915,88.44999980926514L50.56957418394165,88.44999980926514L50.81566599175415,88.44999980926514L51.08068793862915,88.44999980926514L51.3551749550354,88.44999980926514L51.610731832379145,88.44999980926514L51.866288709722895,88.44999980926514L52.1123805175354,88.44999980926514L52.3774024644104,88.44999980926514L52.6424244112854,88.44999980926514L52.8885162190979,88.44999980926514L53.134608026910406,88.44999980926514L53.390164904254156,88.44999980926514L53.6457217815979,88.44999980926514L53.8918135894104,88.44999980926514L54.1379053972229,88.44999980926514L54.39346227456665,88.44999980926514L54.649019151910394,88.44999980926514L54.914041098785404,88.44999980926514L55.1601329065979,88.44999980926514L55.41568978394165,88.44999980926514L55.66178159175415,88.44999980926514L55.90787339956665,88.44999980926514L56.1634302769104,88.44999980926514L56.41898715425415,88.44999980926514L56.66507896206665,88.44999980926514L56.9206358394104,88.44999980926514L57.17619271675415,88.44999980926514L57.441214663629154,88.44999980926514L57.696771540972904,88.44999980926514L57.9428633487854,88.44999980926514L58.19842022612915,88.44999980926514L58.4539771034729,88.44999980926514L58.728464119879156,88.44999980926514L58.9840209972229,88.44999980926514L59.23957787456665,88.44999980926514L59.485669682379154,88.44999980926514L59.73176149019165,88.44999980926514L59.987318367535394,88.44999980926514L60.242875244879144,88.44999980926514L60.48896705269165,88.44999980926514L60.75398899956665,88.44999980926514L61.00008080737915,88.44999980926514L61.2556376847229,88.44999980926514L61.511194562066656,88.44999980926514L61.77621650894165,88.44999980926514L62.041238455816654,88.44999980926514L62.30626040269165,88.44999980926514L62.552352210504154,88.44999980926514L62.807909087847904,88.44999980926514L63.0540008956604,88.44999980926514L63.30955777300415,88.44999980926514L63.584044789410406,88.44999980926514L63.8490667362854,88.44999980926514L64.10462361362914,88.44999980926514L64.3601804909729,88.44999980926514L64.6252024378479,88.44999980926514L64.8902243847229,88.44999980926514L65.1363161925354,88.44999980926514L65.39187306987915,88.44999980926514L65.6474299472229,88.44999980926514L65.90298682456665,88.44999980926514L66.1774738409729,88.44999980926514L66.43303071831664,88.44999980926514L66.68858759566041,88.44999980926514L66.9536095425354,88.44999980926514L67.19970135034791,88.44999980926514L67.4457931581604,88.44999980926514L67.6918849659729,88.44999980926514L67.93797677378541,88.44999980926514L68.1840685815979,88.44999980926514L68.4490905284729,88.44999980926514L68.6951823362854,88.44999980926514L68.9412741440979,88.44999980926514L69.19683102144165,88.44999980926514L69.44292282925414,88.44999980926514L69.6984797065979,88.44999980926514L69.95403658394164,88.44999980926514L70.20012839175415,88.44999980926514L70.44622019956665,88.44999980926514L70.7017770769104,88.44999980926514L70.9667990237854,88.44999980926514L71.22235590112915,88.44999980926514L71.48737784800414,88.44999980926514L71.7429347253479,88.44999980926514L71.99849160269164,88.44999980926514L72.25404848003541,88.44999980926514L72.50960535737916,88.44999980926514L72.77462730425415,88.44999980926514L73.0301841815979,88.44999980926514L73.2952061284729,88.44999980926514L73.55076300581665,88.44999980926514L73.8063198831604,88.44999980926514L74.0713418300354,88.44999980926514L74.34582884644166,88.44999980926514L74.6203158628479,88.44999980926514L74.87587274019165,88.44999980926514L75.14089468706665,88.44999980926514L75.3964515644104,88.44999980926514L75.65200844175415,88.44999980926514L75.9075653190979,88.44999980926514L76.15365712691039,88.44999980926514L76.40921400425414,88.44999980926514L76.6647708815979,88.44999980926514L76.91086268941041,88.44999980926514L77.1569544972229,88.44999980926514L77.41251137456665,88.44999980926514L77.67753332144164,88.44999980926514L77.9330901987854,88.44999980926514L78.1791820065979,88.44999980926514L78.43473888394165,88.44999980926514L78.69029576128541,88.44999980926514L78.9553177081604,88.44999980926514L79.20140951597291,88.44999980926514L79.4475013237854,88.44999980926514L79.6935931315979,88.44999980926514L79.9586150784729,88.44999980926514L80.2047068862854,88.44999980926514L80.4507986940979,88.44999980926514L80.6968905019104,88.44999980926514L80.9429823097229,88.44999980926514L81.1890741175354,88.44999980926514L81.44463099487915,88.44999980926514L81.7001878722229,88.44999980926514L81.96520981909791,88.44999980926514L82.23969683550415,88.44999980926514L82.50471878237916,88.44999980926514L82.75081059019165,88.44999980926514L82.99690239800415,88.44999980926514L83.26192434487915,88.44999980926514L83.52694629175414,88.44999980926514L83.7825031690979,88.44999980926514L84.03806004644164,88.44999980926514L84.28415185425416,88.44999980926514L84.53970873159791,88.44999980926514L84.7858005394104,88.44999980926514L85.0318923472229,88.44999980926514L85.27798415503541,88.44999980926514L85.5430061019104,88.44999980926514L85.7890979097229,88.44999980926514L86.0351897175354,88.44999980926514L86.29074659487915,88.44999980926514L86.56523361128541,88.44999980926514L86.83025555816039,88.44999980926514L87.07634736597291,88.44999980926514L87.3224391737854,88.44999980926514L87.56853098159789,88.44999980926514L87.81462278941041,88.44999980926514L88.08910980581665,88.44999980926514L88.3446666831604,88.44999980926514L88.60022356050415,88.44999980926514L88.84631536831665,88.44999980926514L89.1018722456604,88.44999980926514L89.3479640534729,88.44999980926514L89.6129860003479,88.44999980926514L89.86854287769165,88.44999980926514L90.11463468550414,88.44999980926514L90.36072649331666,88.44999980926514L90.62574844019164,88.44999980926514L90.87184024800416,88.44999980926514L91.11793205581665,88.44999980926514L91.3924190722229,88.44999980926514L91.64797594956666,88.44999980926514L91.9224629659729,88.44999980926514L92.16855477378539,88.44999980926514L92.4146465815979,88.44999980926514L92.6607383894104,88.44999980926514L92.91629526675415,88.44999980926514L93.18131721362916,88.44999980926514L93.4368740909729,88.44999980926514L93.7018960378479,88.44999980926514L93.9669179847229,88.44999980926514L94.22247486206666,88.44999980926514L94.4969618784729,88.44999980926514L94.75251875581665,88.44999980926514L95.02700577222289,88.44999980926514L95.28256264956666,88.44999980926514L95.54758459644165,88.44999980926514L95.8220716128479,88.44999980926514L96.09655862925415,88.44999980926514L96.36158057612916,88.44999980926514L96.6360675925354,88.44999980926514L96.8821594003479,88.44999980926514L97.12825120816039,88.44999980926514L97.40273822456666,88.44999980926514L97.66776017144164,88.44999980926514L97.91385197925416,88.44999980926514L98.15994378706665,88.44999980926514L98.4155006644104,88.44999980926514L98.67105754175415,88.44999980926514L98.93607948862915,88.44999980926514L99.1916363659729,88.44999980926514L99.44719324331665,88.44999980926514L99.72168025972289,88.44999980926514L99.9867022065979,88.44999980926514L100.2517241534729,88.44999980926514L100.4978159612854,88.44999980926514L100.75337283862915,88.44999980926514L101.0089297159729,88.44999980926514L101.2550215237854,88.44999980926514L101.50111333159789,88.44999980926514L101.77560034800416,88.44999980926514L102.04062229487914,88.44999980926514L102.29617917222289,88.44999980926514L102.5422709800354,88.44999980926514L102.79782785737915,88.44999980926514L103.04391966519165,88.44999980926514L103.29001147300416,88.44999980926514L103.53610328081665,88.44999980926514L103.80112522769166,88.44999980926514L104.0566821050354,88.44999980926514L104.32170405191039,88.44999980926514L104.57726092925414,88.44999980926514L104.8517479456604,88.44999980926514L105.0978397534729,88.44999980926514L105.37232676987915,88.44999980926514L105.6278836472229,88.44999980926514L105.89290559409791,88.44999980926514L106.15792754097289,88.44999980926514L106.41348441831664,88.44999980926514L106.66904129566039,88.44999980926514L106.92459817300414,88.44999980926514L107.18962011987915,88.44999980926514L107.4451769972229,88.44999980926514L107.7101989440979,88.44999980926514L107.95629075191039,88.44999980926514L108.2023825597229,88.44999980926514L108.4484743675354,88.44999980926514L108.7134963144104,88.44999980926514L108.9785182612854,88.44999980926514L109.2435402081604,88.44999980926514L109.50856215503539,88.44999980926514L109.78304917144166,88.44999980926514L110.03860604878541,88.44999980926514L110.2846978565979,88.44999980926514L110.54025473394165,88.44999980926514L110.78634654175414,88.44999980926514L111.04190341909789,88.44999980926514L111.29746029644166,88.44999980926514L111.5530171737854,88.44999980926514L111.8180391206604,88.44999980926514L112.07359599800415,88.44999980926514L112.32915287534789,88.44999980926514L112.58470975269164,88.44999980926514L112.84973169956665,88.44999980926514L113.11475364644166,88.44999980926514L113.3892406628479,88.44999980926514L113.64479754019166,88.44999980926514L113.89088934800415,88.44999980926514L114.15591129487916,88.44999980926514L114.42093324175414,88.44999980926514L114.6954202581604,88.44999980926514L114.9604422050354,88.44999980926514L115.21599908237916,88.44999980926514L115.4715559597229,88.44999980926514L115.72711283706666,88.44999980926514L115.9826697144104,88.44999980926514L116.23822659175416,88.44999980926514L116.5127136081604,88.44999980926514L116.7777355550354,88.44999980926514L117.0238273628479,88.44999980926514L117.2699191706604,88.44999980926514L117.53494111753541,88.44999980926514L117.79996306441039,88.44999980926514L118.04605487222291,88.44999980926514L118.30161174956666,88.44999980926514L118.5760987659729,88.44999980926514L118.83165564331665,88.44999980926514L119.09667759019165,88.44999980926514L119.36169953706666,88.44999980926514L119.6172564144104,88.44999980926514L119.8822783612854,88.44999980926514L120.13783523862915,88.44999980926514L120.38392704644166,88.44999980926514L120.6394839237854,88.44999980926514L120.8855757315979,88.44999980926514L121.1505976784729,88.44999980926514L121.3966894862854,88.44999980926514L121.67117650269165,88.44999980926514L121.9267333800354,88.44999980926514L122.17282518784789,88.44999980926514L122.4378471347229,88.44999980926514L122.7028690815979,88.44999980926514L122.95842595894165,88.44999980926514L123.2139828362854,88.44999980926514L123.46953971362915,88.44999980926514L123.71563152144165,88.44999980926514L123.9711883987854,88.44999980926514L124.2362103456604,88.44999980926514L124.49176722300415,88.44999980926514L124.75678916987916,88.44999980926514L125.0123460472229,88.44999980926514L125.26790292456666,88.44999980926514L125.53292487144165,88.44999980926514L125.80741188784789,88.44999980926514L126.05350369566041,88.44999980926514L126.30906057300416,88.44999980926514L126.55515238081665,88.44999980926514L126.82017432769166,88.44999980926514L127.06626613550415,88.44999980926514L127.33128808237915,88.44999980926514L127.59631002925416,88.44999980926514L127.84240183706665,88.44999980926514L128.0979587144104,88.44999980926514L128.3440505222229,88.44999980926514L128.6090724690979,88.44999980926514L128.8740944159729,88.44999980926514L129.13911636284791,88.44999980926514L129.41360337925414,88.44999980926514L129.6691602565979,88.44999980926514L129.94364727300416,88.44999980926514L130.20866921987914,88.44999980926514L130.4642260972229,88.44999980926514L130.71978297456667,88.44999980926514L130.9753398519104,88.44999980926514L131.23089672925417,88.44999980926514L131.49591867612915,88.44999980926514L131.76094062300416,88.44999980926514L132.02596256987914,88.44999980926514L132.3004495862854,88.44999980926514L132.55600646362913,88.44999980926514L132.82102841050414,88.44999980926514L133.08605035737915,88.44999980926514L133.34160723472291,88.44999980926514L133.59716411206665,88.44999980926514L133.84325591987914,88.44999980926514L134.0988127972229,88.44999980926514L134.3638347440979,88.44999980926514L134.6099265519104,88.44999980926514L134.86548342925417,88.44999980926514L135.1210403065979,88.44999980926514L135.3860622534729,88.44999980926514L135.6510842003479,88.44999980926514L135.8971760081604,88.44999980926514L136.1621979550354,88.44999980926514L136.40828976284791,88.44999980926514L136.6543815706604,88.44999980926514L136.90993844800414,88.44999980926514L137.1844254644104,88.44999980926514L137.43998234175416,88.44999980926514L137.70500428862914,88.44999980926514L137.95109609644166,88.44999980926514L138.21611804331664,88.44999980926514L138.46220985112916,88.44999980926514L138.72723179800414,88.44999980926514L138.99225374487915,88.44999980926514L139.25727569175416,88.44999980926514L139.52229763862914,88.44999980926514L139.7778545159729,88.44999980926514L140.0239463237854,88.44999980926514L140.27003813159791,88.44999980926514L140.5350600784729,88.44999980926514L140.78115188628541,88.44999980926514L141.03670876362915,88.44999980926514L141.28280057144164,88.44999980926514L141.5383574487854,88.44999980926514L141.79391432612914,88.44999980926514L142.0494712034729,88.44999980926514L142.30502808081664,88.44999980926514L142.55111988862916,88.44999980926514L142.8066767659729,88.44999980926514L143.05276857378541,88.44999980926514L143.30832545112915,88.44999980926514L143.56388232847289,88.44999980926514L143.81943920581665,88.44999980926514L144.07499608316039,88.44999980926514L144.3210878909729,88.44999980926514L144.5671796987854,88.44999980926514L144.8132715065979,88.44999980926514L145.08775852300417,88.44999980926514L145.3622455394104,88.44999980926514L145.60833734722289,88.44999980926514L145.85442915503538,88.44999980926514L146.10052096284792,88.44999980926514L146.36554290972288,88.44999980926514L146.61163471753542,88.44999980926514L146.86719159487913,88.44999980926514L147.12274847222292,88.44999980926514L147.3688402800354,88.44999980926514L147.6149320878479,88.44999980926514L147.87048896519167,88.44999980926514L148.1260458425354,88.44999980926514L148.38160271987917,88.44999980926514L148.6371595972229,88.44999980926514L148.89271647456667,88.44999980926514L149.1482733519104,88.44999980926514L149.41329529878539,88.44999980926514L149.66885217612915,88.44999980926514L149.92440905347289,88.44999980926514L150.19889606987914,88.44999980926514L150.4544529472229,88.44999980926514L150.7005447550354,88.44999980926514L150.94663656284789,88.44999980926514L151.20219344019165,88.44999980926514L151.44828524800414,88.44999980926514L151.70384212534788,88.44999980926514L151.94993393316042,88.44999980926514L152.20549081050416,88.44999980926514L152.46104768784792,88.44999980926514L152.71660456519163,88.44999980926514L152.98162651206664,88.44999980926514L153.24664845894165,88.44999980926514L153.51167040581666,88.44999980926514L153.7672272831604,88.44999980926514L154.04171429956665,88.44999980926514L154.29727117691039,88.44999980926514L154.55282805425415,88.44999980926514L154.8273150706604,88.44999980926514L155.08287194800414,88.44999980926514L155.3384288253479,88.44999980926514L155.5845206331604,88.44999980926514L155.8495425800354,88.44999980926514L156.0956343878479,88.44999980926514L156.34172619566039,88.44999980926514L156.6067481425354,88.44999980926514L156.85283995034789,88.44999980926514L157.10839682769165,88.44999980926514L157.37341877456666,88.44999980926514L157.63844072144167,88.44999980926514L157.8939975987854,88.44999980926514L158.14955447612917,88.44999980926514L158.4240414925354,88.44999980926514L158.67959836987916,88.44999980926514L158.94462031675414,88.44999980926514L159.2001771940979,88.44999980926514L159.4462690019104,88.44999980926514L159.69236080972289,88.44999980926514L159.9573827565979,88.44999980926514L160.2224047034729,88.44999980926514L160.4874266503479,88.44999980926514L160.7524485972229,88.44999980926514L160.9985404050354,88.44999980926514L161.27302742144164,88.44999980926514L161.51911922925413,88.44999980926514L161.7746761065979,88.44999980926514L162.03023298394163,88.44999980926514L162.27632479175418,88.44999980926514L162.5508118081604,88.44999980926514L162.7969036159729,88.44999980926514L163.04299542378538,88.44999980926514L163.29855230112915,88.44999980926514L163.55410917847288,88.44999980926514L163.82859619487914,88.44999980926514L164.10308321128542,88.44999980926514L164.35864008862913,88.44999980926514L164.63312710503538,88.44999980926514L164.90761412144167,88.44999980926514L165.1821011378479,88.44999980926514L165.4471230847229,88.44999980926514L165.7121450315979,88.44999980926514L165.96770190894165,88.44999980926514L166.24218892534788,88.44999980926514L166.49774580269164,88.44999980926514L166.75330268003538,88.44999980926514L167.01832462691038,88.44999980926514L167.2644164347229,88.44999980926514L167.53890345112916,88.44999980926514L167.78499525894165,88.44999980926514L168.05001720581666,88.44999980926514L168.3055740831604,88.44999980926514L168.56113096050416,88.44999980926514L168.80722276831665,88.44999980926514L169.07224471519166,88.44999980926514L169.33726666206667,88.44999980926514L169.58335846987916,88.44999980926514L169.85784548628538,88.44999980926514L170.11340236362915,88.44999980926514L170.35949417144167,88.44999980926514L170.62451611831665,88.44999980926514L170.8990031347229,88.44999980926514L171.15456001206667,88.44999980926514L171.4101168894104,88.44999980926514L171.66567376675417,88.44999980926514L171.9212306440979,88.44999980926514L172.17678752144167,88.44999980926514L172.42287932925416,88.44999980926514L172.66897113706665,88.44999980926514L172.93399308394166,88.44999980926514L173.1895499612854,88.44999980926514L173.4545719081604,88.44999980926514L173.71012878550417,88.44999980926514L173.9656856628479,88.44999980926514L174.22124254019167,88.44999980926514L174.46733434800416,88.44999980926514L174.71342615581665,88.44999980926514L174.95951796362914,88.44999980926514L175.2150748409729,88.44999980926514L175.4800967878479,88.44999980926514L175.74511873472292,88.44999980926514L176.00067561206666,88.44999980926514L176.24676741987915,88.44999980926514L176.5212544362854,88.44999980926514L176.76734624409792,88.44999980926514L177.04183326050415,88.44999980926514L177.2973901378479,88.44999980926514L177.5434819456604,88.44999980926514L177.7895737534729,88.44999980926514L178.06406076987915,88.44999980926514L178.3196176472229,88.44999980926514L178.5657094550354,88.44999980926514L178.82126633237914,88.44999980926514L179.0768232097229,88.44999980926514L179.3229150175354,88.44999980926514L179.5879369644104,88.44999980926514L179.84349384175414,88.44999980926514L180.08958564956666,88.44999980926514L180.35460759644164,88.44999980926514L180.61962954331665,88.44999980926514L180.86572135112917,88.44999980926514L181.14020836753542,88.44999980926514L181.41469538394165,88.44999980926514L181.6702522612854,88.44999980926514L181.9163440690979,88.44999980926514L182.17190094644164,88.44999980926514L182.41799275425413,88.44999980926514L182.6735496315979,88.44999980926514L182.92910650894163,88.44999980926514L183.19412845581664,88.44999980926514L183.44022026362913,88.44999980926514L183.6957771409729,88.44999980926514L183.95133401831666,88.44999980926514L184.21635596519164,88.44999980926514L184.4719128425354,88.44999980926514L184.7369347894104,88.44999980926514L185.00195673628542,88.44999980926514L185.2669786831604,88.44999980926514L185.51307049097292,88.44999980926514L185.7591622987854,88.44999980926514L186.01471917612915,88.44999980926514L186.27974112300413,88.44999980926514L186.54476306987914,88.44999980926514L186.8003199472229,88.44999980926514L187.0653418940979,88.44999980926514L187.32089877144165,88.44999980926514L187.5764556487854,88.44999980926514L187.85094266519167,88.44999980926514L188.10649954253537,88.44999980926514L188.37152148941038,88.44999980926514L188.6365434362854,88.44999980926514L188.9015653831604,88.44999980926514L189.17605239956663,88.44999980926514L189.44107434644164,88.44999980926514L189.6966312237854,88.44999980926514L189.9427230315979,88.44999980926514L190.19827990894163,88.44999980926514L190.44437171675418,88.44999980926514L190.70939366362913,88.44999980926514L190.95548547144165,88.44999980926514L191.20157727925417,88.44999980926514L191.44766908706666,88.44999980926514L191.70322596441042,88.44999980926514L191.96824791128537,88.44999980926514L192.22380478862917,88.44999980926514L192.47936166597287,88.44999980926514L192.75384868237916,88.44999980926514L193.0094055597229,88.44999980926514L193.26496243706666,88.44999980926514L193.52998438394167,88.44999980926514L193.7855412612854,88.44999980926514L194.0316330690979,88.44999980926514L194.28718994644166,88.44999980926514L194.5427468237854,88.44999980926514L194.79830370112916,88.44999980926514L195.0538605784729,88.44999980926514L195.30941745581666,88.44999980926514L195.5649743331604,88.44999980926514L195.82053121050416,88.44999980926514L196.08555315737917,88.44999980926514L196.34111003472287,88.44999980926514L196.61559705112916,88.44999980926514L196.8711539284729,88.44999980926514L197.12671080581666,88.44999980926514L197.4011978222229,88.44999980926514L197.67568483862914,88.44999980926514L197.9312417159729,88.44999980926514L198.18679859331664,88.44999980926514L198.43289040112913,88.44999980926514L198.67898220894168,88.44999980926514L198.94400415581663,88.44999980926514L199.1995610331604,88.44999980926514L199.4645829800354,88.44999980926514L199.72013985737914,88.44999980926514L199.96623166519166,88.44999980926514L200.2217885425354,88.44999980926514L200.47734541987916,88.44999980926514L200.72343722769165,88.44999980926514L200.96952903550417,88.44999980926514L201.23455098237915,88.44999980926514L201.49010785972288,88.44999980926514L201.74566473706665,88.44999980926514L201.99175654487914,88.44999980926514L202.2473134222229,88.44999980926514L202.51233536909788,88.44999980926514L202.7584271769104,88.44999980926514L203.02344912378538,88.44999980926514L203.2884710706604,88.44999980926514L203.5534930175354,88.44999980926514L203.7995848253479,88.44999980926514L204.0456766331604,88.44999980926514L204.30123351050415,88.44999980926514L204.56625545737916,88.44999980926514L204.82181233472292,88.44999980926514L205.0679041425354,88.44999980926514L205.33292608941042,88.44999980926514L205.60741310581665,88.44999980926514L205.8819001222229,88.44999980926514L206.1469220690979,88.44999980926514L206.40247894644165,88.44999980926514L206.64857075425417,88.44999980926514L206.89466256206666,88.44999980926514L207.1502194394104,88.44999980926514L207.39631124722288,88.44999980926514L207.6424030550354,88.44999980926514L207.8884948628479,88.44999980926514L208.16298187925415,88.44999980926514L208.42800382612916,88.44999980926514L208.69302577300417,88.44999980926514L208.95804771987915,88.44999980926514L209.21360459722288,88.44999980926514L209.46916147456665,88.44999980926514L209.73418342144166,88.44999980926514L210.0086704378479,88.44999980926514L210.2547622456604,88.44999980926514L210.51031912300417,88.44999980926514L210.75641093081666,88.44999980926514L211.00250273862915,88.44999980926514L211.24859454644164,88.44999980926514L211.5041514237854,88.44999980926514L211.75024323159792,88.44999980926514L212.0152651784729,88.44999980926514L212.2613569862854,88.44999980926514L212.5074487940979,88.44999980926514L212.7535406019104,88.44999980926514L213.02802761831663,88.44999980926514L213.29304956519164,88.44999980926514L213.55807151206665,88.44999980926514L213.82309345894166,88.44999980926514L214.07865033628542,88.44999980926514L214.35313735269165,88.44999980926514L214.59922916050414,88.44999980926514L214.8547860378479,88.44999980926514L215.11034291519164,88.44999980926514L215.3658997925354,88.44999980926514L215.62145666987914,88.44999980926514L215.86754847769163,88.44999980926514L216.13257042456664,88.44999980926514L216.3881273019104,88.44999980926514L216.64368417925414,88.44999980926514L216.9181711956604,88.44999980926514L217.1831931425354,88.44999980926514L217.44821508941038,88.44999980926514L217.7132370362854,88.44999980926514L217.95932884409788,88.44999980926514L218.20542065191037,88.44999980926514L218.47044259878538,88.44999980926514L218.71653440659787,88.44999980926514L218.97209128394164,88.44999980926514L219.2276481612854,88.44999980926514L219.49267010816038,88.44999980926514L219.74822698550415,88.44999980926514L220.00378386284788,88.44999980926514L220.2498756706604,88.44999980926514L220.5148976175354,88.44999980926514L220.7609894253479,88.44999980926514L221.0260113722229,88.44999980926514L221.30049838862917,88.44999980926514L221.54659019644166,88.44999980926514L221.8021470737854,88.44999980926514L222.0482388815979,88.44999980926514L222.32272589800417,88.44999980926514L222.58774784487915,88.44999980926514L222.84330472222288,88.44999980926514L223.1083266690979,88.44999980926514L223.35441847691038,88.44999980926514L223.60051028472293,88.44999980926514L223.85606716206664,88.44999980926514L224.1116240394104,88.44999980926514L224.36718091675414,88.44999980926514L224.6227377940979,88.44999980926514L224.8877597409729,88.44999980926514L225.16224675737917,88.44999980926514L225.4178036347229,88.44999980926514L225.67336051206667,88.44999980926514L225.9289173894104,88.44999980926514L226.18447426675417,88.44999980926514L226.44949621362915,88.44999980926514L226.69558802144167,88.44999980926514L226.94167982925416,88.44999980926514L227.18777163706665,88.44999980926514L227.45279358394166,88.44999980926514L227.71781553081664,88.44999980926514L227.98283747769165,88.44999980926514L228.24785942456666,88.44999980926514L228.5034163019104,88.44999980926514L228.74950810972288,88.44999980926514L229.00506498706665,88.44999980926514L229.25115679487914,88.44999980926514L229.5256438112854,88.44999980926514L229.78120068862916,88.44999980926514L230.0367575659729,88.44999980926514L230.3017795128479,88.44999980926514L230.56680145972288,88.44999980926514L230.82235833706665,88.44999980926514L231.07791521441038,88.44999980926514L231.33347209175415,88.44999980926514L231.58902896909788,88.44999980926514L231.8540509159729,88.44999980926514L232.10014272378538,88.44999980926514L232.37462974019166,88.44999980926514L232.62072154800416,88.44999980926514L232.8762784253479,88.44999980926514L233.13183530269166,88.44999980926514L233.37792711050415,88.44999980926514L233.6334839878479,88.44999980926514L233.90797100425416,88.44999980926514L234.15406281206666,88.44999980926514L234.41908475894166,88.44999980926514L234.66517656675416,88.44999980926514L234.93019851362916,88.44999980926514L235.1857553909729,88.44999980926514L235.45077733784788,88.44999980926514L235.70633421519165,88.44999980926514L235.97135616206666,88.44999980926514L236.2269130394104,88.44999980926514L236.47300484722288,88.44999980926514L236.7380267940979,88.44999980926514L237.0030487409729,88.44999980926514L237.25860561831666,88.44999980926514L237.5141624956604,88.44999980926514L237.76971937300416,88.44999980926514L238.01581118081666,88.44999980926514L238.2713680581604,88.44999980926514L238.5174598659729,88.44999980926514L238.7824818128479,88.44999980926514L239.0285736206604,88.44999980926514L239.29359556753542,88.44999980926514L239.5586175144104,88.44999980926514L239.81417439175416,88.44999980926514L240.06026619956666,88.44999980926514L240.30635800737915,88.44999980926514L240.57137995425416,88.44999980926514L240.82693683159792,88.44999980926514L241.0730286394104,88.44999980926514L241.32858551675415,88.44999980926514L241.57467732456666,88.44999980926514L241.82076913237916,88.44999980926514L242.0763260097229,88.44999980926514L242.3413479565979,88.44999980926514L242.6063699034729,88.44999980926514L242.8713918503479,88.44999980926514L243.1364137972229,88.44999980926514L243.3825056050354,88.44999980926514L243.65699262144165,88.44999980926514L243.9125494987854,88.44999980926514L244.18703651519166,88.44999980926514L244.45205846206665,88.44999980926514L244.71708040894165,88.44999980926514L244.9726372862854,88.44999980926514L245.22819416362915,88.44999980926514L245.49321611050416,88.44999980926514L245.75823805737915,88.44999980926514L246.0327250737854,88.44999980926514L246.28828195112914,88.44999980926514L246.53437375894163,88.44999980926514L246.7899306362854,88.44999980926514L247.0549525831604,88.44999980926514L247.3199745300354,88.44999980926514L247.57553140737915,88.44999980926514L247.84055335425415,88.44999980926514L248.09611023159792,88.44999980926514L248.37059724800415,88.44999980926514L248.61668905581664,88.44999980926514L248.8722459331604,88.44999980926514L249.12780281050414,88.44999980926514L249.4022898269104,88.44999980926514L249.6673117737854,88.44999980926514L249.9323337206604,88.44999980926514L250.20682073706664,88.44999980926514L250.4623776144104,88.44999980926514L250.7273995612854,88.44999980926514L250.99242150816042,88.44999980926514L251.24797838550415,88.44999980926514L251.51300033237914,88.44999980926514L251.77802227925415,88.44999980926514L252.03357915659788,88.44999980926514L252.2986011034729,88.44999980926514L252.55415798081665,88.44999980926514L252.80024978862915,88.44999980926514L253.0558066659729,88.44999980926514L253.3018984737854,88.44999980926514L253.5479902815979,88.44999980926514L253.7940820894104,88.44999980926514L254.04963896675417,88.44999980926514L254.31466091362913,88.44999980926514L254.5702177909729,88.44999980926514" fill="none"></path></g></g></g></g></g></g><g transform="translate(41, 176)" clip-path="url(#clip_1)"><clipPath id="clip_1"><rect width="288" height="23"></rect></clipPath><g><g><line x1="0" y1="0" x2="0" y2="5" style="visibility: inherit;" fill="rgb(0, 0, 0)" stroke="rgb(204, 204, 204)" stroke-width="1px"></line><line x1="28.8850998878479" y1="0" x2="28.8850998878479" y2="5" style="visibility: inherit;" fill="rgb(0, 0, 0)" stroke="rgb(204, 204, 204)" stroke-width="1px"></line><line x1="57.7701997756958" y1="0" x2="57.7701997756958" y2="5" style="visibility: inherit;" fill="rgb(0, 0, 0)" stroke="rgb(204, 204, 204)" stroke-width="1px"></line><line x1="86.6552996635437" y1="0" x2="86.6552996635437" y2="5" style="visibility: inherit;" fill="rgb(0, 0, 0)" stroke="rgb(204, 204, 204)" stroke-width="1px"></line><line x1="115.5403995513916" y1="0" x2="115.5403995513916" y2="5" style="visibility: inherit;" fill="rgb(0, 0, 0)" stroke="rgb(204, 204, 204)" stroke-width="1px"></line><line x1="144.4254994392395" y1="0" x2="144.4254994392395" y2="5" style="visibility: inherit;" fill="rgb(0, 0, 0)" stroke="rgb(204, 204, 204)" stroke-width="1px"></line><line x1="173.3105993270874" y1="0" x2="173.3105993270874" y2="5" style="visibility: inherit;" fill="rgb(0, 0, 0)" stroke="rgb(204, 204, 204)" stroke-width="1px"></line><line x1="202.1956992149353" y1="0" x2="202.1956992149353" y2="5" style="visibility: inherit;" fill="rgb(0, 0, 0)" stroke="rgb(204, 204, 204)" stroke-width="1px"></line><line x1="231.0807991027832" y1="0" x2="231.0807991027832" y2="5" style="visibility: inherit;" fill="rgb(0, 0, 0)" stroke="rgb(204, 204, 204)" stroke-width="1px"></line><line x1="259.9658989906311" y1="0" x2="259.9658989906311" y2="5" style="visibility: inherit;" fill="rgb(0, 0, 0)" stroke="rgb(204, 204, 204)" stroke-width="1px"></line><line x1="288.850998878479" y1="0" x2="288.850998878479" y2="5" style="visibility: inherit;" fill="rgb(0, 0, 0)" stroke="rgb(204, 204, 204)" stroke-width="1px"></line></g><g transform="translate(0, 8)"><text style="text-anchor: middle; visibility: hidden; font-family: Roboto, sans-serif; font-size: 12px; font-weight: 200;" x="0" y="0" dx="0em" dy="0.95em" fill="rgb(33, 33, 33)" stroke="none" stroke-width="1px">-50M</text><text style="text-anchor: middle; visibility: inherit; font-family: Roboto, sans-serif; font-size: 12px; font-weight: 200;" x="28.8850998878479" y="0" dx="0em" dy="0.95em" fill="rgb(33, 33, 33)" stroke="none" stroke-width="1px">0</text><text style="text-anchor: middle; visibility: hidden; font-family: Roboto, sans-serif; font-size: 12px; font-weight: 200;" x="57.7701997756958" y="0" dx="0em" dy="0.95em" fill="rgb(33, 33, 33)" stroke="none" stroke-width="1px">50M</text><text style="text-anchor: middle; visibility: inherit; font-family: Roboto, sans-serif; font-size: 12px; font-weight: 200;" x="86.6552996635437" y="0" dx="0em" dy="0.95em" fill="rgb(33, 33, 33)" stroke="none" stroke-width="1px">100M</text><text style="text-anchor: middle; visibility: hidden; font-family: Roboto, sans-serif; font-size: 12px; font-weight: 200;" x="115.5403995513916" y="0" dx="0em" dy="0.95em" fill="rgb(33, 33, 33)" stroke="none" stroke-width="1px">150M</text><text style="text-anchor: middle; visibility: inherit; font-family: Roboto, sans-serif; font-size: 12px; font-weight: 200;" x="144.4254994392395" y="0" dx="0em" dy="0.95em" fill="rgb(33, 33, 33)" stroke="none" stroke-width="1px">200M</text><text style="text-anchor: middle; visibility: hidden; font-family: Roboto, sans-serif; font-size: 12px; font-weight: 200;" x="173.3105993270874" y="0" dx="0em" dy="0.95em" fill="rgb(33, 33, 33)" stroke="none" stroke-width="1px">250M</text><text style="text-anchor: middle; visibility: inherit; font-family: Roboto, sans-serif; font-size: 12px; font-weight: 200;" x="202.1956992149353" y="0" dx="0em" dy="0.95em" fill="rgb(33, 33, 33)" stroke="none" stroke-width="1px">300M</text><text style="text-anchor: middle; visibility: hidden; font-family: Roboto, sans-serif; font-size: 12px; font-weight: 200;" x="231.0807991027832" y="0" dx="0em" dy="0.95em" fill="rgb(33, 33, 33)" stroke="none" stroke-width="1px">350M</text><text style="text-anchor: middle; visibility: inherit; font-family: Roboto, sans-serif; font-size: 12px; font-weight: 200;" x="259.9658989906311" y="0" dx="0em" dy="0.95em" fill="rgb(33, 33, 33)" stroke="none" stroke-width="1px">400M</text><text style="text-anchor: middle; visibility: hidden; font-family: Roboto, sans-serif; font-size: 12px; font-weight: 200;" x="288.850998878479" y="0" dx="0em" dy="0.95em" fill="rgb(33, 33, 33)" stroke="none" stroke-width="1px">450M</text></g><line x1="0" y1="0" x2="288.850998878479" y2="0" fill="rgb(0, 0, 0)" stroke="rgb(204, 204, 204)" stroke-width="1px"></line></g></g></g></g></svg>