<svg viewBox="0 0 330 200" xmlns="http://www.w3.org/2000/svg"><g><g><g><g><g><line x1="61.91500186920166" y1="176.89999961853027" x2="56.91500186920166" y2="176.89999961853027" style="visibility: inherit;" fill="rgb(0, 0, 0)" stroke="rgb(204, 204, 204)" stroke-width="1px"></line><line x1="61.91500186920166" y1="157.24444410536023" x2="56.91500186920166" y2="157.24444410536023" style="visibility: inherit;" fill="rgb(0, 0, 0)" stroke="rgb(204, 204, 204)" stroke-width="1px"></line><line x1="61.91500186920166" y1="137.58888859219024" x2="56.91500186920166" y2="137.58888859219024" style="visibility: inherit;" fill="rgb(0, 0, 0)" stroke="rgb(204, 204, 204)" stroke-width="1px"></line><line x1="61.91500186920166" y1="117.9333330790202" x2="56.91500186920166" y2="117.9333330790202" style="visibility: inherit;" fill="rgb(0, 0, 0)" stroke="rgb(204, 204, 204)" stroke-width="1px"></line><line x1="61.91500186920166" y1="98.27777756585016" x2="56.91500186920166" y2="98.27777756585016" style="visibility: inherit;" fill="rgb(0, 0, 0)" stroke="rgb(204, 204, 204)" stroke-width="1px"></line><line x1="61.91500186920166" y1="78.62222205268012" x2="56.91500186920166" y2="78.62222205268012" style="visibility: inherit;" fill="rgb(0, 0, 0)" stroke="rgb(204, 204, 204)" stroke-width="1px"></line><line x1="61.91500186920166" y1="58.966666539510136" x2="56.91500186920166" y2="58.966666539510136" style="visibility: inherit;" fill="rgb(0, 0, 0)" stroke="rgb(204, 204, 204)" stroke-width="1px"></line><line x1="61.91500186920166" y1="39.3111110263401" x2="56.91500186920166" y2="39.3111110263401" style="visibility: inherit;" fill="rgb(0, 0, 0)" stroke="rgb(204, 204, 204)" stroke-width="1px"></line><line x1="61.91500186920166" y1="19.65555551317004" x2="56.91500186920166" y2="19.65555551317004" style="visibility: inherit;" fill="rgb(0, 0, 0)" stroke="rgb(204, 204, 204)" stroke-width="1px"></line><line x1="61.91500186920166" y1="0" x2="56.91500186920166" y2="0" style="visibility: inherit;" fill="rgb(0, 0, 0)" stroke="rgb(204, 204, 204)" stroke-width="1px"></line></g><g transform="translate(51.91500186920166, 0)"><text style="text-anchor: end; visibility: hidden; font-family: Roboto, sans-serif; font-size: 12px; font-weight: 200;" x="0" y="176.89999961853027" dx="0em" dy="0.3em" fill="rgb(33, 33, 33)" stroke="none" stroke-width="1px">0.016</text><text style="text-anchor: end; visibility: inherit; font-family: Roboto, sans-serif; font-size: 12px; font-weight: 200;" x="0" y="157.24444410536023" dx="0em" dy="0.3em" fill="rgb(33, 33, 33)" stroke="none" stroke-width="1px">0.017</text><text style="text-anchor: end; visibility: hidden; font-family: Roboto, sans-serif; font-size: 12px; font-weight: 200;" x="0" y="137.58888859219024" dx="0em" dy="0.3em" fill="rgb(33, 33, 33)" stroke="none" stroke-width="1px">0.018</text><text style="text-anchor: end; visibility: inherit; font-family: Roboto, sans-serif; font-size: 12px; font-weight: 200;" x="0" y="117.9333330790202" dx="0em" dy="0.3em" fill="rgb(33, 33, 33)" stroke="none" stroke-width="1px">0.019</text><text style="text-anchor: end; visibility: hidden; font-family: Roboto, sans-serif; font-size: 12px; font-weight: 200;" x="0" y="98.27777756585016" dx="0em" dy="0.3em" fill="rgb(33, 33, 33)" stroke="none" stroke-width="1px">0.02</text><text style="text-anchor: end; visibility: inherit; font-family: Roboto, sans-serif; font-size: 12px; font-weight: 200;" x="0" y="78.62222205268012" dx="0em" dy="0.3em" fill="rgb(33, 33, 33)" stroke="none" stroke-width="1px">0.021</text><text style="text-anchor: end; visibility: hidden; font-family: Roboto, sans-serif; font-size: 12px; font-weight: 200;" x="0" y="58.966666539510136" dx="0em" dy="0.3em" fill="rgb(33, 33, 33)" stroke="none" stroke-width="1px">0.022</text><text style="text-anchor: end; visibility: inherit; font-family: Roboto, sans-serif; font-size: 12px; font-weight: 200;" x="0" y="39.3111110263401" dx="0em" dy="0.3em" fill="rgb(33, 33, 33)" stroke="none" stroke-width="1px">0.023</text><text style="text-anchor: end; visibility: hidden; font-family: Roboto, sans-serif; font-size: 12px; font-weight: 200;" x="0" y="19.65555551317004" dx="0em" dy="0.3em" fill="rgb(33, 33, 33)" stroke="none" stroke-width="1px">0.024</text><text style="text-anchor: end; visibility: hidden; font-family: Roboto, sans-serif; font-size: 12px; font-weight: 200;" x="0" y="0" dx="0em" dy="0.3em" fill="rgb(33, 33, 33)" stroke="none" stroke-width="1px">0.025</text></g><line x1="61.91500186920166" y1="0" x2="61.91500186920166" y2="176.89999961853027" fill="rgb(0, 0, 0)" stroke="rgb(204, 204, 204)" stroke-width="1px"></line></g></g><g transform="translate(61, 0)" clip-path="url(#clip_0)"><clipPath id="clip_0"><rect width="268" height="176"></rect></clipPath><g><g><g><line x1="0" y1="0" x2="0" y2="176.89999961853027" fill="rgb(0, 0, 0)" stroke="rgb(66, 66, 66)" stroke-width="1px" opacity="0.25"></line><line x1="26.808499813079834" y1="0" x2="26.808499813079834" y2="176.89999961853027" fill="rgb(0, 0, 0)" stroke="rgb(66, 66, 66)" stroke-width="1px" opacity="0.25"></line><line x1="53.61699962615967" y1="0" x2="53.61699962615967" y2="176.89999961853027" fill="rgb(0, 0, 0)" stroke="rgb(66, 66, 66)" stroke-width="1px" opacity="0.25"></line><line x1="80.4254994392395" y1="0" x2="80.4254994392395" y2="176.89999961853027" fill="rgb(0, 0, 0)" stroke="rgb(66, 66, 66)" stroke-width="1px" opacity="0.25"></line><line x1="107.23399925231934" y1="0" x2="107.23399925231934" y2="176.89999961853027" fill="rgb(0, 0, 0)" stroke="rgb(66, 66, 66)" stroke-width="1px" opacity="0.25"></line><line x1="134.04249906539917" y1="0" x2="134.04249906539917" y2="176.89999961853027" fill="rgb(0, 0, 0)" stroke="rgb(66, 66, 66)" stroke-width="1px" opacity="0.25"></line><line x1="160.850998878479" y1="0" x2="160.850998878479" y2="176.89999961853027" fill="rgb(0, 0, 0)" stroke="rgb(66, 66, 66)" stroke-width="1px" opacity="0.25"></line><line x1="187.65949869155884" y1="0" x2="187.65949869155884" y2="176.89999961853027" fill="rgb(0, 0, 0)" stroke="rgb(66, 66, 66)" stroke-width="1px" opacity="0.25"></line><line x1="214.46799850463867" y1="0" x2="214.46799850463867" y2="176.89999961853027" fill="rgb(0, 0, 0)" stroke="rgb(66, 66, 66)" stroke-width="1px" opacity="0.25"></line><line x1="241.2764983177185" y1="0" x2="241.2764983177185" y2="176.89999961853027" fill="rgb(0, 0, 0)" stroke="rgb(66, 66, 66)" stroke-width="1px" opacity="0.25"></line><line x1="268.08499813079834" y1="0" x2="268.08499813079834" y2="176.89999961853027" fill="rgb(0, 0, 0)" stroke="rgb(66, 66, 66)" stroke-width="1px" opacity="0.25"></line></g><g><line x1="0" y1="176.89999961853027" x2="268.08499813079834" y2="176.89999961853027" fill="rgb(0, 0, 0)" stroke="rgb(66, 66, 66)" stroke-width="1px" opacity="0.25"></line><line x1="0" y1="157.24444410536023" x2="268.08499813079834" y2="157.24444410536023" fill="rgb(0, 0, 0)" stroke="rgb(66, 66, 66)" stroke-width="1px" opacity="0.25"></line><line x1="0" y1="137.58888859219024" x2="268.08499813079834" y2="137.58888859219024" fill="rgb(0, 0, 0)" stroke="rgb(66, 66, 66)" stroke-width="1px" opacity="0.25"></line><line x1="0" y1="117.9333330790202" x2="268.08499813079834" y2="117.9333330790202" fill="rgb(0, 0, 0)" stroke="rgb(66, 66, 66)" stroke-width="1px" opacity="0.25"></line><line x1="0" y1="98.27777756585016" x2="268.08499813079834" y2="98.27777756585016" fill="rgb(0, 0, 0)" stroke="rgb(66, 66, 66)" stroke-width="1px" opacity="0.25"></line><line x1="0" y1="78.62222205268012" x2="268.08499813079834" y2="78.62222205268012" fill="rgb(0, 0, 0)" stroke="rgb(66, 66, 66)" stroke-width="1px" opacity="0.25"></line><line x1="0" y1="58.966666539510136" x2="268.08499813079834" y2="58.966666539510136" fill="rgb(0, 0, 0)" stroke="rgb(66, 66, 66)" stroke-width="1px" opacity="0.25"></line><line x1="0" y1="39.3111110263401" x2="268.08499813079834" y2="39.3111110263401" fill="rgb(0, 0, 0)" stroke="rgb(66, 66, 66)" stroke-width="1px" opacity="0.25"></line><line x1="0" y1="19.65555551317004" x2="268.08499813079834" y2="19.65555551317004" fill="rgb(0, 0, 0)" stroke="rgb(66, 66, 66)" stroke-width="1px" opacity="0.25"></line><line x1="0" y1="0" x2="268.08499813079834" y2="0" fill="rgb(0, 0, 0)" stroke="rgb(66, 66, 66)" stroke-width="1px" opacity="0.25"></line></g></g></g><g><g><line x1="0" y1="491.38888782925073" x2="268.08499813079834" y2="491.38888782925073" fill="rgb(0, 0, 0)" stroke="rgb(153, 153, 153)" stroke-width="1.5px"></line></g></g><g><g><line x1="26.808499813079834" y1="0" x2="26.808499813079834" y2="176.89999961853027" fill="rgb(0, 0, 0)" stroke="rgb(153, 153, 153)" stroke-width="1.5px"></line></g></g><g><g><g><g><g><path style="fill: none;" stroke="rgb(187, 187, 187)" stroke-width="2px" d="M28.688406185892337,-88.37134017830616L28.925590634798585,14.94653076792994L29.180344302142334,77.19461457500896L29.426313360267336,113.92386096038561L29.672282418392335,132.05397647081097L29.927036085736084,161.7995132148664L30.155435925423586,168.13702201237155L30.410189592767335,173.21865987293887L30.638589432454832,177.9426943313763L30.866989272142334,171.6198691167469L31.104173721048586,158.2222633743311L31.350142779173584,159.55685933036256L31.578542618861082,144.51768520122974L31.824511676986084,138.54479976405653L32.05291151667358,91.05594378260878L32.28131135636109,162.94711083896152L32.509711196048585,77.30057592007539L32.73811103573608,159.80030373294167L32.96651087542358,53.288622029004095L33.194910715111085,143.09975634865478L33.42331055479858,48.86812864892021L33.65171039448608,135.0629087691734L33.880110234173586,17.440296355456173L34.10851007386109,117.4089389025505L34.33690991354858,11.41157058717449L34.565309753236086,110.33793235211635L34.793709592923584,98.36089948740478L35.02210943261108,78.94435907871008L35.250509272298586,64.08124931383193L35.478909111986084,52.88504609781684L35.70730895167358,36.90107100589994L35.93570879136108,118.55183433581654L36.164108631048585,62.67118692873247L36.39250847073609,128.37688737046793L36.62090831042358,51.099936735044075L36.849308150111085,118.12929149269816L37.07770798979859,34.35776049425928L37.30610782948608,100.32201137721887L37.534507669173585,54.60003317717155L37.76290750886108,108.8814348104225L37.99130734854858,133.39307502237472L38.219707188236086,133.9297775576322L38.456891637142334,130.4673303334562L38.69407608604858,133.67568796530114L38.92247592573609,125.52509013368474L39.150875765423585,94.77905211088337L39.38806021432983,162.21926957677852L39.61646005401733,26.966246745213773L39.844859893704836,119.43469467721246L40.082044342611084,85.1050782471062L40.31922879151733,135.8104268764699L40.56519784964234,84.69481115342575L40.80238229854859,138.87916583168993L41.048351356673585,79.52886656423635L41.27675119636108,132.32805907908661L41.51393564526733,45.907823705470804L41.742335484954836,108.46159229274944L41.979519933861084,28.493539788978122L42.21670438276733,91.12635846286558L42.45388883167358,29.969860234916506L42.69985788979859,94.45372339215953L42.928257729486084,-0.9199461190777805L43.15665756917358,111.9106100730858L43.40262662729859,38.84576485428376L43.639811076204836,90.75868230941035L43.868210915892334,-19.018348540746594L44.09661075557983,111.945627204111L44.32501059526734,36.89923858671258L44.562195044173585,85.94896481533279L44.79059488386108,106.09402205371755L45.02777933276734,117.25801166751928L45.264963781673586,111.32784139005284L45.51093283979858,124.12410602723827L45.73933267948608,21.460983650163463L45.96773251917359,46.642582715685805L46.22248618651734,62.573495693273735L46.46845524464233,75.77722809980355L46.705639693548584,92.05162379062514L46.93403953323608,98.08410272115731L47.162439372923586,81.29952744671535L47.408408431048585,68.49470709930924L47.663162098392334,142.74164142166657L47.90034654729858,125.55302508351016L48.13753099620483,115.11074910367068L48.365930835892335,91.50258415618673L48.611899894017334,155.446168046515L48.85786895214233,122.09722729611235L49.08626879182984,109.09196081235245L49.314668631517335,104.68741558957426L49.551853080423584,87.39254324746153L49.78903752932984,89.22731269545777L50.01743736901733,92.79457682669108L50.245837208704835,81.64464352471698L50.48302165761108,55.60956687889054L50.72020610651733,128.04411773196452L50.96617516464234,98.09476263957097L51.194575004329835,158.5565955864733L51.43175945323608,124.50165565499834L51.66015929292358,105.24164533069388L51.888559132611086,161.60866828656896L52.125743581517334,103.20293310732299L52.36292803042358,162.52227558840832L52.59132787011109,106.97163467046211L52.828512319017335,156.7617794554999L53.06569676792358,97.481263405874L53.31166582604859,148.9548269573521L53.54885027495484,96.9003720715446L53.777250114642335,58.45242705021673L54.01443456354858,125.45378772111566L54.25161901245484,-9.236319446303407L54.50637267979859,129.59710863703702L54.743557128704836,88.44348251652453L54.980741577611084,53.502068885211195L55.20914141729859,131.94190364655574L55.43754125698608,67.76752118686966L55.67472570589233,121.25949267867183L55.91191015479858,72.35793259753248L56.14030999448608,125.31342692272716L56.38627905261109,57.61684312991627L56.614678892298585,118.81412401917639L56.85186334120483,69.65165235859638L57.08904779011109,117.51296211633802L57.33501684823608,37.735380961426735L57.580985906361086,98.84175323110219L57.826954964486085,20.546381791534507L58.05535480417358,96.89133228377965L58.29253925307984,31.281107038978657L58.520939092767335,101.30398788711112L58.758123541673584,21.390375949415596L59.01287720901734,83.35546966864213L59.25884626714233,6.287362794503123L59.49603071604858,75.97416553284576L59.73321516495483,5.885005983867397L59.979184223079834,74.19756536102736L60.22515328120483,12.269509123267952L60.45355312089233,85.08770689021888L60.690737569798586,19.30270891404302L60.927922018704834,79.46975365486173L61.16510646761108,10.18485224343078L61.41986013495483,76.46733125930676L61.65704458386108,8.341852274337912L61.894229032767335,69.89710062300249L62.14019809089233,5.329875863390098L62.36859793057984,85.07438445241662L62.59699777026733,14.279256798872396L62.825397609954834,89.37127922054195L63.05379744964233,10.290830317653997L63.28219728932984,71.50252833131482L63.528166347454835,-10.840440470338041L63.75656618714233,122.52595587941903L63.98496602682983,21.949910380613684L64.22215047573609,139.93436470021805L64.45055031542358,27.268315748442934L64.68773476432983,143.94692944555356L64.92491921323608,13.907093259731113L65.15331905292358,134.37234013436776L65.38171889261109,50.85627036250369L65.61890334151734,89.62791323339303L65.86487239964234,-12.775307169373315L66.10205684854859,114.44780924578959L66.34802590667358,5.990284371395757L66.58521035557983,130.30674013603524L66.82239480448608,19.533650185630968L67.05957925339234,131.3152031615105L67.29676370229859,19.783686014315577L67.54273276042359,69.38289539602415L67.77991720932984,103.94160925771854L68.02588626745482,34.92866988425073L68.26307071636109,88.5511655618154L68.50025516526733,19.234364636219503L68.74622422339233,67.7914127035753L69.0009778907361,8.983115119956738L69.25573155807983,68.56869727120497L69.49291600698608,-19.04796417309718L69.73888506511109,45.85287317746325L69.97606951401734,87.71410995059371L70.21325396292359,-8.418124510996309L70.45043841182984,51.62409802822569L70.67883825151733,-12.123180561420678L70.91602270042358,49.296165629202704L71.15320714932984,99.26272616596842L71.38160698901734,-18.186003588672662L71.61000682870483,106.5517018465849L71.84719127761107,12.345177798500501L72.09316033573609,59.78966514373232L72.33034478464234,104.72360439218374L72.55874462432983,22.873337660677635L72.79592907323608,64.65859779659625L73.03311352214234,84.51047265638306L73.27908258026733,93.54438675277791L73.50748241995484,117.11676201185364L73.73588225964234,121.46418276889789L73.96428209932984,11.881124800963665L74.21025115745483,126.94981411925573L74.43865099714233,-10.941036597805281L74.66705083682983,111.97545772456397L74.89545067651733,37.49808540617966L75.12385051620483,82.28552301321422L75.35225035589234,-23.21598644872784L75.58943480479859,30.88016294884257L75.82661925370483,60.727714062480764L76.07258831182983,70.15441117014225L76.32734197917358,72.40012843227932L76.57331103729858,93.56072927922162L76.80171087698608,110.9011192241466L77.03011071667359,96.50037496498754L77.27607977479857,93.96687317587796L77.52204883292359,117.73696754276634L77.75923328182984,14.427757758655465L77.99641773073608,63.24062281095512L78.2248175704236,82.69912364977394L78.46200201932984,93.58224796780874L78.69040185901733,92.87467865028637L78.91880169870483,111.31823744700449L79.14720153839234,102.30461321029371L79.39317059651732,99.0653082136197L79.62157043620483,100.5862549128609L79.84997027589233,102.79332616642442L80.08715472479858,72.32466028714518L80.34190839214234,146.80367145773562L80.58787745026733,138.46658843621657L80.81627728995484,133.90155106803203L81.04467712964234,122.37414113900431L81.27307696932982,119.1066727348484L81.50147680901733,96.80877631586397L81.75623047636108,99.33556506654969L81.99341492526733,82.9528593739257L82.23059937417358,161.35454519275987L82.45899921386109,124.48069339365988L82.69618366276734,113.86465445543675L82.92458350245484,87.05416675571887L83.17055256057984,153.16822174808988L83.40773700948608,130.22650000638666L83.63613684917358,103.82850955660149L83.8645366888611,88.23241908329574L84.11050574698608,92.27578387175564L84.33890558667359,85.25704739974726L84.56730542636109,61.77994504854609L84.82205909370484,141.20098503662788L85.05924354261109,81.69486709432786L85.31399720995483,161.56140485771456L85.54239704964233,141.3890075978782L85.77079688932984,122.71207903716783L85.99919672901733,98.85937437208936L86.23638117792358,157.8657670168381L86.48235023604859,117.34978137258757L86.71953468495484,84.88227878575414L86.96550374307984,149.16894311620686L87.21147280120482,95.00200951848724L87.4486572501111,151.74141252160555L87.70341091745483,94.52114848346528L87.94059536636108,152.72585703090363L88.19534903370483,129.43721704702548L88.43253348261109,104.79136315574549L88.67850254073608,155.79973269220324L88.93325620807984,70.43618537881447L89.18800987542357,136.0851484897004L89.43397893354859,61.225291049554585L89.68873260089232,140.39321194949986L89.91713244057983,118.12945890751759L90.14553228026733,78.56074937345511L90.4002859476111,148.00795505444998L90.64625500573608,118.82545628630949L90.87465484542359,90.98968883834154L91.10305468511109,71.54248149636761L91.34023913401734,143.28920257088106L91.57742358292359,92.75487327800093L91.82339264104859,154.50449472246223L92.06057708995483,110.85350520981584L92.29776153886108,163.8478625093741L92.55251520620483,101.450244519119L92.79848426432983,161.77066295588295L93.04445332245483,110.43638011458968L93.27285316214233,156.98377353392937L93.51003761104857,81.75879787568512L93.74722205995482,155.89252636340467L93.97562189964233,116.75566007293484L94.20402173932983,64.78205058875275L94.4587754066736,127.9275791712221L94.70474446479858,97.47555246990444L94.94192891370483,158.82991939875416L95.17032875339234,110.90150510273382L95.40751320229859,173.36895393476064L95.63591304198609,122.5101911353439L95.8643128816736,76.9254630743329L96.09271272136108,139.11985003073872L96.3386817794861,86.13835383249427L96.57586622839234,142.2984627421281L96.82183528651733,72.58817605498795L97.05901973542358,135.6367850708154L97.31377340276734,82.397329448555L97.54217324245482,136.10068902477656L97.79692690979859,97.02892217099946L98.03411135870483,59.21678097167831L98.28008041682985,130.6586922641111L98.52604947495483,94.00436303242812L98.76323392386108,51.93112730687358L99.00041837276733,127.46134471729768L99.23760282167358,75.47483979978882L99.48357187979857,141.3559396812014L99.72075632870482,83.0479724030569L99.96672538682984,146.73941211788542L100.19512522651733,112.12629576761405L100.42352506620483,85.51916855590083L100.65192490589233,44.6252011848291L100.89789396401734,120.22666745488283L101.14386302214234,29.450897506161503L101.38983208026733,154.27083110701673L101.63580113839234,89.04480639396681L101.89055480573609,148.50909167948177L102.12773925464234,106.15618093098988L102.35613909432983,32.4478580629236L102.59332354323608,160.58079311032418L102.82172338292358,86.21680126554665L103.05890783182983,145.41970362838202L103.29609228073609,65.25315767150066L103.53327672964234,129.58122771309058L103.77924578776732,79.1521922365602L104.01643023667359,142.98966947328373L104.25361468557983,99.87597885385443L104.49079913448608,153.10092357497186L104.73676819261108,77.71362764992341L104.98273725073608,140.93531535774528L105.23749091807983,76.41374592444583L105.47467536698609,152.21321642072274L105.70307520667359,78.39651399628796L105.94904426479859,133.74676203671933L106.19501332292357,59.033739101601995L106.44976699026734,132.15975080334528L106.69573604839233,81.24378971807683L106.9329204972986,147.5357371345537L107.17010494620484,100.30738642739456L107.40728939511109,151.88853469639963L107.64447384401734,95.3573032936092L107.88165829292359,137.96157923138023L108.13641196026732,17.72730405659787L108.38238101839234,152.0211638229073L108.61078085807982,89.31378308647965L108.83918069776733,140.9432694458248L109.08514975589235,76.40940947960065L109.33111881401733,147.5879588086681L109.55951865370484,42.01370063349256L109.79670310261109,160.17690731211064L110.05145676995483,93.19751812191986L110.28864121886109,153.81943196043488L110.53461027698609,93.38432856818591L110.78057933511109,148.45187190662108L111.01776378401733,84.63126481630344L111.26373284214235,140.02750124296924L111.5009172910486,102.75869917924297L111.72931713073608,65.66109597381775L111.96650157964234,142.18981092593341L112.19490141932982,71.14221080471111L112.44087047745484,146.11605140711396L112.66927031714232,49.36274444927106L112.92402398448608,167.7250481330757L113.16120843339233,126.13314442898339L113.38960827307983,70.04894476693495L113.63557733120483,118.59852362489674L113.88154638932984,59.59685936702052L114.11873083823609,129.23833635404114L114.35591528714234,68.63802627165116L114.59309973604859,135.0899758037143L114.82149957573608,67.8687945647976L115.05868402464233,124.21952950943044L115.30465308276733,62.79141470135862L115.54183753167358,113.03873879540886L115.78780658979858,57.17296193383701L116.02499103870484,127.03309229340776L116.26217548761109,60.49714815824163L116.50814454573609,128.68273266757166L116.76289821307984,78.19062980628509L116.99129805276733,133.60294884859445L117.22848250167358,44.79519701363421L117.45688234136108,107.01612813030167L117.7028513994861,58.964222952306244L117.93125123917358,118.62715588265527L118.17722029729859,29.175470874072932L118.42318935542359,157.86185681385385L118.65158919511109,77.8632780137597L118.88877364401733,128.437106878546L119.11717348370483,43.63543305975114L119.36314254182983,111.92844379755378L119.60911159995483,42.979983994056866L119.85508065807984,98.34482417276865L120.10983432542358,153.90114712580007L120.34701877432983,56.8405139322857L120.60177244167359,113.13277963399716L120.84774149979857,68.00313288436756L121.08492594870482,127.98282908487975L121.3221103976111,79.20687671894986L121.55929484651735,131.00793929528973L121.7964792954236,50.975130821036124L122.04244835354858,117.2177586084985L122.28841741167358,52.03827225892801L122.53438646979859,110.90103669406544L122.78914013714233,52.449520469940936L123.02632458604857,123.54806340969222L123.27229364417359,33.60430117585956L123.51826270229859,156.00682381693122L123.75544715120483,83.47747205237911L123.99263160011108,141.92903545850967L124.22103143979858,73.07218100994203L124.45821588870483,120.70302749147892L124.70418494682983,148.32003411525324L124.93258478651734,183.40536136888625L125.16976923542359,60.04097441367287L125.40695368432984,170.55091890544344L125.65292274245483,70.98191089115501L125.89889180057983,136.3115072506802L126.12729164026733,59.36578908644593L126.37326069839233,129.86681128118815L126.60166053807984,61.3891479372948L126.83006037776734,126.9764993432394L127.06724482667359,16.741713602970453L127.32199849401732,149.7657955344192L127.55918294292358,74.82693751517772L127.80515200104858,136.45373218136106L128.0335518407361,64.43437937575759L128.27952089886108,142.82466274760662L128.5079207385486,71.65981394122805L128.75388979667358,126.304011201613L128.9998588547986,41.85665115922185L129.24582791292357,114.96742033913122L129.4917969710486,44.86332462503959L129.72898141995483,131.2396270073392L129.95738125964232,70.19308113466772L130.18578109932983,120.88338371894523L130.43175015745484,43.280961408398596L130.66014999714233,105.92803018418265L130.89733444604857,28.44197064206493L131.1257342857361,103.75026062964479L131.36291873464234,46.06671759999215L131.60010318354858,107.27673310130471L131.83728763245483,19.335381093574874L132.07447208136108,104.21856439020159L132.3028719210486,39.853641582524155L132.54005636995484,111.13825410086642L132.76845620964232,42.086831593113075L133.00564065854857,110.74005276884097L133.24282510745482,53.07751217275956L133.48000955636107,120.75759072741504L133.71719400526734,49.613404761511966L133.94559384495483,122.89039520983525L134.1739936846423,98.17391926547167L134.40239352432985,131.1165556098845L134.6571471916736,166.99544061099803L134.91190085901732,83.81403026529348L135.14030069870483,136.46700800944012L135.36870053839232,171.33172996649262L135.59710037807986,85.23735854523997L135.84306943620481,144.72939448505787L136.07146927589235,70.59128501213307L136.30865372479857,127.09995425597398L136.54583817370485,94.62554296314751L136.77423801339233,151.4716941876886L137.00263785307985,76.26740647774311L137.2398223019861,126.14671205417879L137.47700675089234,60.17778285671052L137.7141911997986,125.23356957717407L137.95137564870484,54.25512052864254L138.1885600976111,100.45635771222615L138.42574454651734,141.28623896633695L138.67171360464232,50.287035395000316L138.9088980535486,116.91830859360603L139.14608250245482,38.444505612211906L139.40083616979857,106.26805293558817L139.63802061870484,13.197323094889715L139.86642045839233,145.6631418393514L140.09482029807984,75.09631584050682L140.3320047469861,141.64160352543163L140.5604045866736,62.66946320203779L140.79758903557982,131.3410336143361L141.02598887526733,64.50377966268692L141.26317332417358,131.9056849466476L141.50035777307986,52.09778742582722L141.73754222198608,121.89968492533498L141.9835112801111,33.835602774546665L142.22948033823607,153.61332023413283L142.47544939636109,93.81902817425845L142.71263384526733,143.06087693112522L142.96738751261108,58.33020034558215L143.20457196151733,112.7226718151322L143.4417564104236,139.91424102861768L143.69651007776733,57.00710226180499L143.93369452667358,124.33063575180553L144.17087897557983,50.13969949822229L144.39927881526734,113.34775266637513L144.64524787339232,63.981124660323005L144.87364771307983,133.72911695998184L145.10204755276732,22.812091218917153L145.34801661089233,153.5316658712232L145.5764164505798,72.89500483725278L145.8136008994861,114.51773342935027L146.0595699576111,154.13538075661035L146.3055390157361,81.6789075995495L146.54272346464234,135.55163029220768L146.77990791354858,60.73922831650038L147.03466158089233,116.03820972995806L147.2718460297986,48.77832352325866L147.51781508792357,117.99948749372047L147.75499953682984,55.139781023295704L147.98339937651733,128.11079335612976L148.21179921620484,49.54024863117443L148.45776827432982,114.27469930073188L148.70373733245484,32.606139645821074L148.94970639057985,104.57542677220819L149.19567544870483,41.95410628330153L149.42407528839234,85.08488811905086L149.67882895573607,145.18280590354968L149.90722879542358,33.081718401071285L150.14441324432983,154.43155635969515L150.38159769323607,88.42244407699141L150.6099975329236,115.07262359960312L150.86475120026734,163.56805972033206L151.09315103995485,76.32723425294814L151.32155087964233,124.53906775600407L151.5587353285486,146.7449582783862L151.79591977745483,133.07554835316014L152.05067344479858,148.81158762082052L152.30542711214235,71.4982243438978L152.54261156104857,129.7764932314937L152.79736522839232,17.523268017182605L153.0521188957361,141.6701273996991L153.30687256307985,60.30429324478601L153.55284162120483,112.33868374146759L153.79881067932985,29.80776976437921L154.03599512823607,149.4727322505998L154.29074879557982,64.44633702365059L154.5279332444861,118.01765502309021L154.7651176933923,-6.650406844380214L155.01108675151733,131.2684997098781L155.23948659120484,34.592432742157925L155.4942402585486,157.2970642944279L155.7226400982361,76.66282086550657L155.96860915636108,122.71231340105435L156.20579360526733,158.8547058299907L156.44297805417358,68.76690061029538L156.6713778938611,115.37275043720297L156.91734695198608,32.03193018631656L157.1633160101111,111.45083014690563L157.39171584979857,34.836962254522085L157.64646951714232,95.31469275469067L157.8836539660486,137.69546185738145L158.11205380573608,49.15787661221497L158.3580228638611,109.28373162118775L158.61277653120484,5.521526769159117L158.8499609801111,139.26241307153308L159.08714542901734,46.94991271525159L159.3243298779236,104.6189899583935L159.56151432682984,30.414389761608195L159.79869877573609,109.31720070396068L160.0270986154236,47.60797686195359L160.25549845511108,99.81654330878963L160.5014675132361,4.805650891505502L160.7386519621423,134.49424049337279L160.98462102026733,41.22155160589336L161.2218054691736,104.63720371344048L161.45898991807982,2.959018631083806L161.6961743669861,135.10954156655507L161.92457420667358,33.17964641396646L162.15297404636107,154.41196493164966L162.38137388604858,71.3742241402287L162.61855833495483,117.07979692240747L162.86452739307984,-3.485971650107093L163.11049645120485,126.09760181062427L163.34768090011107,25.70531927627239L163.57608073979858,140.63736937528205L163.83083440714233,69.35565176453626L164.05923424682985,115.56031291672988L164.3139879141736,20.693499578892514L164.55117236307984,145.2995227560697L164.77957220276735,45.74103592872911L165.00797204245484,96.66291252837092L165.2627257097986,2.219614589351721L165.49991015870484,132.22153669680972L165.72830999839235,49.192982498414224L165.96549444729857,111.14145353401157L166.20267889620484,15.550168203763628L166.43107873589233,136.90412027128298L166.67704779401734,24.078855296935945L166.91423224292356,149.44320232474985L167.1426320826111,-20.50123463342558L167.38860114073606,118.46508318304136L167.63457019886107,47.65304163816829L167.8629700385486,103.7601885144945L168.11772370589233,-14.963691339567715L168.37247737323608,121.43123452052076L168.60966182214236,-0.35051273568714514L168.83806166182984,129.4674863168802L169.0752461107361,55.976841342513666L169.30364595042357,113.09433088466429L169.54083039932985,27.643814416607263L169.77801484823607,73.99268243827586L170.02398390636108,114.01135297973238L170.25238374604857,19.184595628913854L170.48956819495484,139.58693766188426L170.7267526438611,28.469424832086503L170.97272170198607,142.86538777158472L171.20990615089232,-5.20257988393253L171.45587520901734,121.97389935175585L171.70184426714235,23.02138813059496L171.94781332526733,147.75347380066424L172.17621316495485,45.2943141147142L172.40461300464233,103.60994650638449L172.64179745354858,3.8494985821048893L172.88776651167356,128.81591991175156L173.13373556979857,19.408903839696972L173.37092001870485,135.66454110555682L173.61688907682984,-11.622586290041529L173.85407352573608,120.66332922025163L174.09125797464233,46.766933081381474L174.34601164198608,105.40817129989374L174.58319609089233,-13.419083174703536L174.8291651490173,117.51788704753739L175.07513420714233,35.75034096547624L175.32110326526734,76.80163397699556L175.5758569326111,114.75383583551354L175.82182599073607,-0.0016394199231759253L176.05901043964235,135.04660800798584L176.28741027932983,25.665180038478706L176.52459472823608,148.56941005329114L176.7529945679236,10.881962793719689L176.99896362604858,138.85796839827563L177.2273634657361,38.71456894359994L177.4557633054236,158.78004628179644L177.68416314511109,41.982218122036116L177.92134759401736,153.0619741568185L178.16731665214232,52.34357860626364L178.4045011010486,107.7593556883351L178.64168554995481,12.261626357115867L178.8964392172986,138.87287063987648L179.13362366620484,44.301655719269206L179.3708081151111,103.9064889176701L179.6167771732361,7.476474457855913L179.85396162214232,137.8824666610286L180.08236146182983,27.530508943475205L180.31954591073608,149.8012091878651L180.55673035964233,40.85149497082954L180.79391480854858,156.26155094711638L181.03109925745483,67.32930619433745L181.26828370636107,109.82593582681346L181.50546815526732,138.46756700555727L181.74265260417357,49.08503274494692L181.98862166229858,108.82275870603195L182.22580611120483,-8.901819456257401L182.48055977854858,127.3094393735498L182.71774422745483,46.053221756914L182.9549286763611,96.2648235809504L183.20968234370483,8.484631329836928L183.46443601104858,138.6414065958428L183.70162045995485,55.454076076823284L183.93880490886107,109.37803713427276L184.16720474854858,28.545975941588267L184.3956045882361,89.65595037486482L184.64157364636108,28.601182671881592L184.87875809526733,91.97561275736766L185.12472715339234,25.02110357033124L185.36191160229856,96.69776100238116L185.5903114419861,2.950871248499961L185.82749589089232,130.14512926705225L186.0646803397986,61.557017400616424L186.29308017948608,127.48166632996607L186.5214800191736,13.218783873407126L186.76744907729858,137.19229560156361L187.00463352620483,36.01070305725524L187.24181797511108,155.15158722258408L187.4702178147986,60.57022227413202L187.70740226370484,107.37959714783385L187.95337132182982,31.134192444804544L188.18177116151733,98.34035636567565L188.42774021964232,1.4171592505503392L188.67370927776733,125.40585758751835L188.9196783358923,59.576515127028934L189.14807817557983,115.48838905809832L189.37647801526734,8.067867554042367L189.6136624641736,134.6932969568983L189.85963152229857,0.8872871348244689L190.09681597120485,135.12785068677877L190.32521581089233,17.702254722578875L190.57118486901734,131.63513527746136L190.8259385363611,49.47874984077489L191.08069220370484,100.77927920679633L191.32666126182983,22.57286607194707L191.56384571073608,146.4212921621464L191.7922455504236,14.424468968758209L192.0206453901111,136.57785561579902L192.25782983901732,31.179352844680963L192.48622967870483,150.53585239164707L192.71462951839234,50.2527416293363L192.94302935807983,92.96099168360008L193.19778302542358,11.992566508228355L193.4437520835486,63.40093578361687L193.6897211416736,96.31076286364707L193.9356901997986,117.39919640425734L194.17287464870483,110.55063377130702L194.41005909761108,127.3009011972304L194.6560281557361,140.2046362007564L194.91078182307984,150.1321925554738L195.13918166276733,38.93008424282851L195.3763661116736,151.855370903227L195.6047659513611,35.64426493274049L195.8331657910486,148.87890576456454L196.06156563073608,22.73196982943344L196.29875007964233,140.26552441790693L196.52714991932984,44.023985456002194L196.77311897745486,88.01745339461891L197.00151881714234,119.57827914963661L197.22991865682982,4.5559129560482L197.45831849651734,118.34336682728251L197.71307216386109,132.91109636066636L197.95904122198607,41.50098555702326L198.20501028011108,81.593474329292L198.4509793382361,106.74139095647328L198.68816378714234,109.42962150901715L198.9429174544861,132.47444881506178L199.17131729417358,20.899121372120824L199.40850174307985,56.05923492258912L199.64568619198607,89.4578945041718L199.88287064089235,97.46244976819608L200.12005508979857,119.2307245475002L200.34845492948608,116.31838792792182L200.59442398761107,115.89452929328843L200.83160843651734,116.76771112580495L201.0687928854236,100.17436127307805L201.3235465527673,103.49319316295026L201.56951561089232,107.97454567534442L201.81548466901734,105.04082418148218L202.06145372714232,116.96382509625612L202.28985356682983,12.958613169803629L202.51825340651732,49.395373363517656L202.76422246464233,80.8440756765122L202.9926223043298,99.66943669680072L203.2298067532361,97.6552357720108L203.46699120214234,94.51404729700634L203.71296026026732,104.18925761073677L203.9501447091736,102.21509227867749L204.18732915807982,120.99697464251459L204.41572899776733,25.81914486435498L204.66169805589234,76.6755104566992L204.89009789557986,86.15057324685532L205.13606695370484,87.50466689218855L205.3908206210486,105.01276601140465L205.61922046073607,114.49227406675618L205.85640490964232,113.42429609677147L206.08480474932983,99.48897062035124L206.33955841667358,100.20583164706089L206.5855274747986,96.51461139297227L206.82271192370482,100.25664435121331L207.06868098182983,103.13216469963123L207.2970808215173,108.46441001616114L207.52548066120485,101.80754914463071L207.76266511011107,96.23949710975576L207.99984955901735,108.08024014774611L208.23703400792357,111.88235908815986L208.47421845682985,109.55530437991722L208.72018751495486,97.04516196352716L208.97494118229858,93.09835632038036L209.21212563120483,92.38983501366782L209.4493100801111,95.23155077117275L209.68649452901732,96.45918319048383L209.9236789779236,90.02826100925955L210.16964803604859,103.73945334233373L210.3980478757361,108.15772690117235L210.62644771542358,120.08106561830817L210.85484755511106,15.748692548472093L211.10081661323608,45.638057684729475L211.3467856713611,69.95156628399423L211.59275472948607,85.41933907476574L211.8387237876111,88.3021590378736L212.07590823651734,101.66908288862025L212.30430807620482,108.86581920778842L212.5414925251111,112.525267193754L212.76989236479858,100.03630920923032L213.02464603214233,167.42330887326193L213.26183048104858,141.76605522875133L213.49901492995482,104.89504573915515L213.74498398807984,175.36553468885762L213.99095304620482,131.4113381299452L214.2281374951111,118.32200937823622L214.46532194401732,94.1622404719494L214.7025063929236,82.18630734795599L214.93969084182982,83.38358401092424L215.18565989995483,86.56574574479137L215.4140597396423,60.16640467745095L215.6688134069861,146.8328356513799L215.8972132466736,6.961870083172409L216.13439769557982,148.3537549537839L216.3715821444861,132.92876467977788L216.59998198417358,118.47551883876571L216.83716643307986,96.49982123032581L217.09192010042358,172.62929728960367L217.3203199401111,131.96691955763794L217.5662889982361,121.10534417909815L217.7946888379236,97.80386372253763L218.0406578960486,174.07449760379617L218.27784234495482,131.28542462665808L218.52381140307983,178.46750738057304L218.76099585198608,139.76315319874428L219.0069649101111,123.039563459137L219.2441493590173,109.77984935952901L219.47254919870483,102.36601495701905L219.71851825682984,92.07727070702835L219.96448731495482,170.9925220526623L220.2016717638611,139.22805535878385L220.43885621276732,119.08882869250958L220.6760406616736,108.71895166593569L220.90444050136108,116.29316858778986L221.14162495026733,114.09018758547614L221.37002478995484,92.70798489354608L221.61599384807982,90.20147535637928L221.84439368776734,78.76487319216494L222.09036274589235,70.57788945898741L222.33633180401733,155.2771089656671L222.57351625292358,136.04780421448498L222.8019160926111,123.13606653079952L223.03031593229858,117.13274811397739L223.2762849904236,97.56649125176581L223.51346943932984,176.48813771901703L223.74186927901735,32.41788954107221L223.97905372792357,136.71170889722214L224.2074535676111,25.910076563360498L224.4358534072986,53.235234842103814L224.67303785620481,74.09040930411595L224.91900691432983,69.83973005097131L225.16497597245484,152.47240209205907L225.41094503057982,127.91728639866528L225.65691408870484,117.63228796275189L225.88531392839235,104.75208783639576L226.14006759573607,90.94872840176053L226.37725204464235,86.41925641077368L226.6320057119861,97.6733921364937L226.87797477011108,92.42919170889733L227.1239438282361,105.68511624816814L227.3611282771423,114.2114185420964L227.5983127260486,107.75966136409274L227.8442817841736,109.3475313688392L228.09025084229856,109.41745181104308L228.34500450964234,124.83066893305485L228.58218895854858,134.75681668206806L228.81058879823607,139.99603634317188L229.04777324714235,139.55712068660338L229.29374230526733,139.5835718978776L229.53971136339234,142.17406816416795L229.7768958122986,136.28247177482706L230.02286487042358,136.45206748603377L230.26004931932985,132.5105140987648L230.5148029866736,128.04464849596593L230.74320282636108,128.3787683957359L230.98038727526733,131.32403531433752L231.21757172417358,122.09183538812718L231.47232539151733,129.79423130692976L231.71829444964231,122.62944353657196L231.96426350776733,120.8409362160115L232.21901717511108,138.0524355554822L232.45620162401733,148.0753293597982L232.70217068214234,146.18900068274468L232.94813974026735,147.51102628763272L233.18532418917357,154.10122029385352L233.43129324729858,157.99776904994832L233.6772623054236,154.2445403406163L233.91444675432982,158.3637352035558L234.16041581245483,158.91019935681635L234.39760026136108,158.01385371447736L234.6260001010486,153.51723445348566L234.86318454995484,159.9045682518286L235.09158438964235,47.51103652442272L235.31998422932983,153.12913874324326L235.54838406901735,36.02867581624019L235.7855685179236,144.75419583430593L236.03153757604858,30.45673687340508L236.26872202495483,139.40723606600773" fill="none"></path></g></g></g></g><g opacity="0.2"><g><g><g><path style="fill: none;" stroke="rgb(187, 187, 187)" stroke-width="2px" d="M27.766022217923584,-20.181780633354535L28.003206666829833,123.16250404481984L28.231606506517334,160.8626133749677L28.460006346204832,192.26788129588695L28.688406185892337,202.51107106398106L28.925590634798585,168.361528045139L29.180344302142334,170.00215474695625L29.426313360267336,168.81785160158483L29.672282418392335,159.1899517636599L29.927036085736084,206.35954372788632L30.638589432454832,185.02674696597037L30.866989272142334,162.13723665943988L31.104173721048586,138.12789575109548L31.350142779173584,161.55863127705302L31.578542618861082,121.95974879158186L31.824511676986084,129.58566814863624L32.05291151667358,19.823597395057725L32.28131135636109,270.7830098040797L34.565309753236086,258.72746791363653L34.793709592923584,80.39535070507168L35.02210943261108,49.81954896634402L35.250509272298586,41.78658489647156L35.478909111986084,36.090741377728385L35.70730895167358,12.925108457051968L35.93570879136108,241.02797905782484L37.76290750886108,190.3035372572522L37.99130734854858,170.1605353394775L38.219707188236086,134.7348313605077L38.456891637142334,125.27365949723412L38.69407608604858,138.48822441304506L38.92247592573609,113.29919338629587L39.150875765423585,48.65999507676187L39.38806021432983,263.3795957755154L39.844859893704836,258.13736657515824L40.082044342611084,33.610653601958454L40.31922879151733,211.86844982050525L40.56519784964234,8.021387568865737L40.80238229854859,220.15569784908237L43.40262662729859,-70.75150297391919L43.639811076204836,168.6280584921003L43.868210915892334,-183.68389481598203L44.32501059526734,-75.67034433938498L44.562195044173585,159.52355415826312L44.79059488386108,136.31160791129466L45.02777933276734,134.0039960882218L45.264963781673586,102.43258597385329L45.51093283979858,143.3185029830164L45.73933267948608,-132.53369991544884L45.96773251917359,84.41498131396926L46.22248618651734,86.46986515965561L46.46845524464233,95.5828267095983L46.705639693548584,116.46321732685753L46.93403953323608,107.13282111695563L47.162439372923586,56.122664535052465L47.408408431048585,49.287476578200014L47.663162098392334,254.1120429052026L47.90034654729858,99.77010057627552L48.13753099620483,99.44733513391141L48.365930835892335,56.09033673496085L48.611899894017334,251.36154388200737L48.85786895214233,72.07381617050842L49.08626879182984,89.58406108671257L49.314668631517335,98.080597755407L49.551853080423584,61.45023473429239L49.78903752932984,91.97946686745206L50.01743736901733,98.14547302354099L50.245837208704835,64.91974357175586L50.48302165761108,16.556951910150943L50.72020610651733,236.6959440115755L50.96617516464234,53.170730000980726L51.194575004329835,249.24934500682684L51.43175945323608,73.41924575778599L51.66015929292358,76.3516298442372L51.888559132611086,246.15920272038164L52.125743581517334,15.594330338454046L52.36292803042358,251.5012893100364L52.59132787011109,23.645673293542803L52.828512319017335,231.44699663305664L53.06569676792358,8.560489331435113L53.31166582604859,226.16517228456922L53.54885027495484,18.818689742833342L53.777250114642335,0.7805095182250896L54.01443456354858,225.95582872746417L54.50637267979859,337.8472507620476L54.743557128704836,26.713043335755874L54.980741577611084,1.0899484382411397L55.20914141729859,249.60165578857251L58.758123541673584,-98.48004195712761L59.01287720901734,176.3031102474819L59.25884626714233,-109.31479751670528L59.73321516495483,-99.24873333960007L59.979184223079834,176.66640442676717L60.22515328120483,-80.62257523337117L60.690737569798586,-79.37478805022076L60.927922018704834,169.72032076608977L61.16510646761108,-93.74249987371574L61.41986013495483,175.8910497831207L61.65704458386108,-93.84636620311535L61.894229032767335,162.22997314599934L62.14019809089233,-91.52096127602832L63.05379744964233,-108.32984303667786L63.28219728932984,163.32007535180603L63.528166347454835,-134.35489367281733L65.38171889261109,-74.41783429529252L65.61890334151734,147.78537753972708L65.86487239964234,-166.38013777352268L67.29676370229859,-147.51358970647678L67.54273276042359,143.78170946858705L67.77991720932984,155.77968005026008L68.02588626745482,-68.59073917595099L68.26307071636109,168.98490907816236L68.50025516526733,-84.74083675217447L68.74622422339233,140.62698480460892L69.0009778907361,-79.22933125547114L69.25573155807983,157.9470704980772L69.49291600698608,-150.47295633955028L69.73888506511109,143.2041292033039L69.97606951401734,150.50596511028942L70.21325396292359,-152.61647620338132L70.45043841182984,141.68743183705863L70.67883825151733,-107.74409844589026L70.91602270042358,141.42518491513778L71.15320714932984,174.21256697111693L71.38160698901734,-194.35909822063425L71.84719127761107,-128.96460827362623L72.09316033573609,130.95639616158005L72.33034478464234,172.12451326486095L72.55874462432983,-99.90206243658143L72.79592907323608,127.33648800047413L73.03311352214234,114.28828494606321L73.27908258026733,107.09525789737015L73.50748241995484,152.47532490046729L73.73588225964234,127.98531390446425L73.96428209932984,-152.49346215093763L74.89545067651733,-74.21797307139671L75.12385051620483,149.466679423766L75.35225035589234,-181.46825064164094L75.58943480479859,112.02438704519801L75.82661925370483,105.49904073293807L76.07258831182983,84.29445683163458L76.32734197917358,75.76870432548476L76.57331103729858,125.30163054963502L76.80171087698608,136.91170414153405L77.03011071667359,74.89925857624894L77.27607977479857,90.16662049221368L77.52204883292359,153.39210909309884L77.75923328182984,-140.53605691751093L77.99641773073608,136.45992038940457L78.2248175704236,111.88687490800206L78.46200201932984,109.90693444486101L78.69040185901733,91.81332467400284L78.91880169870483,138.98357564208163L79.14720153839234,88.78417685522764L79.39317059651732,94.20635071860876L79.62157043620483,102.86767496172254L79.84997027589233,106.10393304676974L80.08715472479858,26.621661468226293L80.34190839214234,258.5221882136212L80.58787745026733,125.96096390393804L80.81627728995484,127.05399501575526L81.04467712964234,105.08302624546263L81.27307696932982,114.20547012861452L81.50147680901733,63.361931687387305L81.75623047636108,103.12574819257833L81.99341492526733,58.37880083498966L82.23059937417358,278.9570739210111L82.45899921386109,69.16991569500993L82.69618366276734,97.94059604810205L82.92458350245484,46.83843520614206L83.17055256057984,252.33930423664637L83.40773700948608,95.81391739383177L83.63613684917358,64.23152388192365L83.8645366888611,64.83828337333705L84.11050574698608,98.34083105444557L84.33890558667359,74.72894269173466L84.56730542636109,26.56429152174438L84.82205909370484,260.3325450187506L85.31399720995483,281.36121150279456L85.54239704964233,111.13041170812373L85.77079688932984,94.69668619610226L85.99919672901733,63.0803173744716L86.23638117792358,246.37535598396124L86.48235023604859,56.57580290621179L86.71953468495484,36.18102490550401L86.96550374307984,245.59893961188592L87.21147280120482,13.751609121907919L87.4486572501111,236.85051702628303L87.70341091745483,8.690752426254944L87.94059536636108,240.03291985206099L88.19534903370483,94.50425707120823L88.43253348261109,67.82258231882551L88.67850254073608,232.31228699689L89.68873260089232,259.1450932994178L89.91713244057983,84.73382934454425L90.14553228026733,19.20768507236132L90.4002859476111,252.17876357594236L90.64625500573608,75.05170813409877L90.87465484542359,49.23603766638949L91.10305468511109,42.371670483406795L91.34023913401734,250.90928418265122L91.57742358292359,16.953379338680733L91.82339264104859,247.1289268891541L92.06057708995483,45.37702094084618L92.29776153886108,243.33939845871146L92.55251520620483,7.853817533736374L92.79848426432983,252.25129061102896L93.04445332245483,33.43495585264977L93.27285316214233,226.80486366293889L93.74722205995482,267.0931190949839L93.97562189964233,58.05036063723008L94.20402173932983,-13.178363637520324L94.4587754066736,222.6458720449262L94.70474446479858,51.79751241792794L94.94192891370483,250.86146979202877L95.17032875339234,39.00888365870323L95.40751320229859,267.070127182801L95.63591304198609,46.22204693621892L95.8643128816736,8.548370982816401L96.09271272136108,232.41143046534756L96.3386817794861,6.666109535127663L96.57586622839234,226.53862610657865L97.05901973542358,230.20969859455658L97.31377340276734,2.5381460151643473L97.54217324245482,216.65572838910904L97.79692690979859,38.421271890333905L98.03411135870483,2.498569172696608L98.28008041682985,237.82155920276028L98.52604947495483,39.02286918490368L98.76323392386108,-11.178726281458252L99.96672538682984,242.27657169012815L100.19512522651733,60.206621242207056L100.42352506620483,45.60847773833097L100.65192490589233,-16.715749871778613L101.89055480573609,237.70551960775424L102.12773925464234,42.626814808252014L102.35613909432983,-78.11462623917573L103.53327672964234,226.07333277547548L103.77924578776732,3.5086390217646146L104.01643023667359,238.74588532836904L104.25361468557983,35.205442924710376L104.49079913448608,232.938340656648L106.44976699026734,241.84876835596017L106.69573604839233,4.8698480901741L106.9329204972986,246.97365825926914L107.17010494620484,29.464860366655834L107.40728939511109,229.26025709990725L107.64447384401734,10.560456189423393L107.88165829292359,201.86799313803664L110.28864121886109,244.75230271820737L110.53461027698609,2.7316734798123354L110.78057933511109,231.05318691427382L111.26373284214235,223.12185588296788L111.5009172910486,46.85549608365359L111.72931713073608,10.01469116567999L111.96650157964234,256.98288335410683L112.92402398448608,345.26850365878255L113.16120843339233,63.745288872844945L113.38960827307983,-14.077354726137726L116.50814454573609,230.96110943156668L116.76289821307984,2.45247551435536L116.99129805276733,216.72142741205852L120.60177244167359,197.57117818656437L120.84774149979857,0.30866275992328135L121.08492594870482,217.95237338564812L121.3221103976111,6.042948170055113L121.55929484651735,208.70953315979952L133.94559384495483,232.80588088232025L134.1739936846423,61.09920534892633L134.40239352432985,180.53051012650386L136.30865372479857,211.86295812173546L136.54583817370485,45.91392602390763L136.77423801339233,236.74092102450024L137.95137564870484,-52.21255304415481L138.1885600976111,169.75821348760144L138.42574454651734,202.53106084750314L142.22948033823607,333.27989642351207L142.47544939636109,4.127590084446995L142.71263384526733,216.92365006642535L149.19567544870483,-51.977874450058394L149.42407528839234,149.7810608726749L149.67882895573607,235.32968258029783L150.38159769323607,-10.59122434706431L150.6099975329236,155.04789288352077L150.86475120026734,236.31121390142542L151.5587353285486,180.05379406195948L151.79591977745483,112.57143346532104L152.05067344479858,172.415646522311L152.30542711214235,-44.47182057148633L164.77957220276735,-103.59669431228185L165.00797204245484,173.0457274278335L165.2627257097986,-139.445332319177L169.54083039932985,-100.53196028547826L169.77801484823607,143.51598447077868L170.02398390636108,174.0393587919172L170.25238374604857,-123.05554039731399L175.07513420714233,-86.90097815761546L175.32110326526734,138.37857349427458L175.5758569326111,171.68213862329043L175.82182599073607,-172.1348523030782L181.03109925745483,-66.06906093483106L181.26828370636107,173.57088027552757L181.50546815526732,181.43001377367307L182.71774422745483,-75.83110466803977L182.9549286763611,171.58222631700508L183.20968234370483,-123.1856570468333L192.71462951839234,-100.17192451412974L192.94302935807983,157.0233667649957L193.19778302542358,-109.46007125482926L193.4437520835486,140.5134896966996L193.6897211416736,145.67550348369238L193.9356901997986,149.03184671517272L194.17287464870483,100.27778982188161L194.41005909761108,152.42630233611547L194.6560281557361,159.56023870604542L194.91078182307984,165.02352708754984L195.13918166276733,-127.87307822613937L196.52714991932984,-100.33832298685489L196.77311897745486,154.00765530254395L197.00151881714234,166.91951778216313L197.22991865682982,-167.9776363343344L197.45831849651734,289.0245476341339L197.71307216386109,154.76269066074212L197.95904122198607,-95.61418064844135L198.20501028011108,141.73220748769512L198.4509793382361,144.4632658972452L198.68816378714234,113.46196733783295L198.9429174544861,167.04168977412874L199.17131729417358,-146.46386979229075L199.40850174307985,108.79940524829149L199.64568619198607,139.55588387654578L199.88287064089235,109.46928266423254L200.12005508979857,151.88313671645645L200.34845492948608,111.94988299855432L200.59442398761107,115.25874134133836L200.83160843651734,118.07748387457971L201.0687928854236,75.2843364939878L201.3235465527673,108.4714409977586L201.56951561089232,114.69657444393579L201.81548466901734,100.64024194068887L202.06145372714232,134.84832646841704L202.28985356682983,-143.04920471987506L202.51825340651732,104.05051365408868L202.76422246464233,128.017129146004L202.9926223043298,127.90747822723351L203.2298067532361,94.63393438482592L203.46699120214234,89.80226458449957L203.71296026026732,118.7020730813324L203.9501447091736,99.25384428058855L204.18732915807982,149.16979818827025L204.41572899776733,-116.94759980288451L204.66169805589234,152.96005884521557L204.89009789557986,100.36316743208954L205.13606695370484,89.53580736018853L205.3908206210486,131.27491469022885L205.61922046073607,128.7115361497835L205.85640490964232,111.82232914179426L206.08480474932983,78.58598240572083L206.33955841667358,101.28112318712533L206.5855274747986,90.97778101183928L206.82271192370482,105.8696937885749L207.06868098182983,107.44544522225817L207.2970808215173,116.46277799095594L207.52548066120485,91.82225783733507L207.76266511011107,87.8874190574433L207.99984955901735,125.84135470473164L208.23703400792357,117.58553749878041L208.47421845682985,106.06472231755332L208.72018751495486,78.27994833894206L208.97494118229858,87.17814785566017L209.21212563120483,91.327053053599L209.4493100801111,99.49412440743016L209.68649452901732,98.30063181945059L209.9236789779236,80.38187773742308L210.16964803604859,124.30624184194494L210.3980478757361,114.78513723943021L210.62644771542358,137.9660736940118L210.85484755511106,-140.74986705628206L211.10081661323608,90.47210538911547L211.3467856713611,106.4218291828913L211.59275472948607,108.62099826092303L211.8387237876111,92.62638898253532L212.07590823651734,121.71946866474025L212.30430807620482,119.66092368654068L212.5414925251111,118.01443917270232L212.76989236479858,81.30287223244483L213.02464603214233,268.50380836930935L213.26183048104858,103.2801747619853L213.49901492995482,49.588531504760816L213.74498398807984,281.07126811341135L213.99095304620482,65.48004329157668L214.2281374951111,98.68801625067277L214.46532194401732,57.92258711251923L214.7025063929236,64.22240766196578L214.93969084182982,85.17949900537666L215.18565989995483,91.33898834559206L215.4140597396423,20.567393076440382L215.6688134069861,276.83248211227334L216.13439769557982,360.44158225970097L216.3715821444861,109.79127926876887L216.59998198417358,96.79565007724759L216.83716643307986,63.536274817666104L217.09192010042358,286.82351137852044L217.3203199401111,70.9733529596894L217.5662889982361,104.81298111128866L217.7946888379236,62.85164303769684L218.0406578960486,288.480448425684L218.27784234495482,67.10181516095092L218.52381140307983,249.24063151144543L218.76099585198608,81.70662192600103L219.0069649101111,97.95417884972605L219.2441493590173,89.890278210117L219.47254919870483,91.24526335325402L219.71851825682984,76.64415433204225L219.96448731495482,289.3653990711133L220.2016717638611,91.5813553179662L220.43885621276732,88.8799886930982L220.6760406616736,93.16413612607481L220.90444050136108,127.65449397057108L221.14162495026733,110.78571608200551L221.37002478995484,60.634680855650934L221.61599384807982,86.44171105062907L221.84439368776734,61.60996994584351L222.09036274589235,58.29741385922112L222.33633180401733,282.32593822568657L222.57351625292358,107.20384708771178L222.8019160926111,103.7684600052714L223.03031593229858,108.12777048874409L223.2762849904236,68.21710595844844L223.51346943932984,294.8706074198939L224.2074535676111,-140.29237193743202L224.4358534072986,94.22297226021871L224.67303785620481,105.3731709971341L224.91900691432983,63.46371117125439L225.16497597245484,276.4214101536908L225.41094503057982,91.0846128585746L225.65691408870484,102.20479030888171L225.88531392839235,85.43178764686158L226.14006759573607,70.24368924980772L226.37725204464235,79.62504842429342L226.6320057119861,114.55459572507372L226.87797477011108,84.56289106750273L227.1239438282361,125.56900305707434L227.3611282771423,127.00087198298867L227.5983127260486,98.08202559708715L227.8442817841736,111.72933637595887L228.09025084229856,109.52233247434887L228.34500450964234,147.9504946160726L228.58218895854858,149.64603830558792L228.81058879823607,147.8548658348277L229.04777324714235,138.8987472017507L229.29374230526733,139.62324871478876L229.53971136339234,146.0598125636035L229.7768958122986,127.44507719081577L230.02286487042358,136.70646105284376L230.26004931932985,126.59818401786129L230.5148029866736,121.34585009176772L230.74320282636108,128.87994824539092L230.98038727526733,135.74193569224002L231.21757172417358,108.24353549881164L231.47232539151733,141.34782518513376L231.71829444964231,111.88226188103542L231.96426350776733,118.15817523517073L232.21901717511108,163.8696845646883L232.45620162401733,163.10967006627214L232.70217068214234,143.3595076671643L232.94813974026735,149.4940646949648L233.18532418917357,163.98651130318464L233.43129324729858,163.84259218409056L233.6772623054236,148.6146972766182L233.91444675432982,164.54252749796504L234.16041581245483,159.72989558670733L234.39760026136108,156.6693352509688L234.6260001010486,146.77230556199822L234.86318454995484,169.48556894934308L235.09158438964235,-121.07926106668614" fill="none"></path></g></g></g></g></g></g><g transform="translate(61, 176)" clip-path="url(#clip_1)"><clipPath id="clip_1"><rect width="268" height="23"></rect></clipPath><g><g><line x1="0" y1="0" x2="0" y2="5" style="visibility: inherit;" fill="rgb(0, 0, 0)" stroke="rgb(204, 204, 204)" stroke-width="1px"></line><line x1="26.808499813079834" y1="0" x2="26.808499813079834" y2="5" style="visibility: inherit;" fill="rgb(0, 0, 0)" stroke="rgb(204, 204, 204)" stroke-width="1px"></line><line x1="53.61699962615967" y1="0" x2="53.61699962615967" y2="5" style="visibility: inherit;" fill="rgb(0, 0, 0)" stroke="rgb(204, 204, 204)" stroke-width="1px"></line><line x1="80.4254994392395" y1="0" x2="80.4254994392395" y2="5" style="visibility: inherit;" fill="rgb(0, 0, 0)" stroke="rgb(204, 204, 204)" stroke-width="1px"></line><line x1="107.23399925231934" y1="0" x2="107.23399925231934" y2="5" style="visibility: inherit;" fill="rgb(0, 0, 0)" stroke="rgb(204, 204, 204)" stroke-width="1px"></line><line x1="134.04249906539917" y1="0" x2="134.04249906539917" y2="5" style="visibility: inherit;" fill="rgb(0, 0, 0)" stroke="rgb(204, 204, 204)" stroke-width="1px"></line><line x1="160.850998878479" y1="0" x2="160.850998878479" y2="5" style="visibility: inherit;" fill="rgb(0, 0, 0)" stroke="rgb(204, 204, 204)" stroke-width="1px"></line><line x1="187.65949869155884" y1="0" x2="187.65949869155884" y2="5" style="visibility: inherit;" fill="rgb(0, 0, 0)" stroke="rgb(204, 204, 204)" stroke-width="1px"></line><line x1="214.46799850463867" y1="0" x2="214.46799850463867" y2="5" style="visibility: inherit;" fill="rgb(0, 0, 0)" stroke="rgb(204, 204, 204)" stroke-width="1px"></line><line x1="241.2764983177185" y1="0" x2="241.2764983177185" y2="5" style="visibility: inherit;" fill="rgb(0, 0, 0)" stroke="rgb(204, 204, 204)" stroke-width="1px"></line><line x1="268.08499813079834" y1="0" x2="268.08499813079834" y2="5" style="visibility: inherit;" fill="rgb(0, 0, 0)" stroke="rgb(204, 204, 204)" stroke-width="1px"></line></g><g transform="translate(0, 8)"><text style="text-anchor: middle; visibility: hidden; font-family: Roboto, sans-serif; font-size: 12px; font-weight: 200;" x="0" y="0" dx="0em" dy="0.95em" fill="rgb(33, 33, 33)" stroke="none" stroke-width="1px">-50M</text><text style="text-anchor: middle; visibility: inherit; font-family: Roboto, sans-serif; font-size: 12px; font-weight: 200;" x="26.808499813079834" y="0" dx="0em" dy="0.95em" fill="rgb(33, 33, 33)" stroke="none" stroke-width="1px">0</text><text style="text-anchor: middle; visibility: hidden; font-family: Roboto, sans-serif; font-size: 12px; font-weight: 200;" x="53.61699962615967" y="0" dx="0em" dy="0.95em" fill="rgb(33, 33, 33)" stroke="none" stroke-width="1px">50M</text><text style="text-anchor: middle; visibility: inherit; font-family: Roboto, sans-serif; font-size: 12px; font-weight: 200;" x="80.4254994392395" y="0" dx="0em" dy="0.95em" fill="rgb(33, 33, 33)" stroke="none" stroke-width="1px">100M</text><text style="text-anchor: middle; visibility: hidden; font-family: Roboto, sans-serif; font-size: 12px; font-weight: 200;" x="107.23399925231934" y="0" dx="0em" dy="0.95em" fill="rgb(33, 33, 33)" stroke="none" stroke-width="1px">150M</text><text style="text-anchor: middle; visibility: inherit; font-family: Roboto, sans-serif; font-size: 12px; font-weight: 200;" x="134.04249906539917" y="0" dx="0em" dy="0.95em" fill="rgb(33, 33, 33)" stroke="none" stroke-width="1px">200M</text><text style="text-anchor: middle; visibility: hidden; font-family: Roboto, sans-serif; font-size: 12px; font-weight: 200;" x="160.850998878479" y="0" dx="0em" dy="0.95em" fill="rgb(33, 33, 33)" stroke="none" stroke-width="1px">250M</text><text style="text-anchor: middle; visibility: inherit; font-family: Roboto, sans-serif; font-size: 12px; font-weight: 200;" x="187.65949869155884" y="0" dx="0em" dy="0.95em" fill="rgb(33, 33, 33)" stroke="none" stroke-width="1px">300M</text><text style="text-anchor: middle; visibility: hidden; font-family: Roboto, sans-serif; font-size: 12px; font-weight: 200;" x="214.46799850463867" y="0" dx="0em" dy="0.95em" fill="rgb(33, 33, 33)" stroke="none" stroke-width="1px">350M</text><text style="text-anchor: middle; visibility: inherit; font-family: Roboto, sans-serif; font-size: 12px; font-weight: 200;" x="241.2764983177185" y="0" dx="0em" dy="0.95em" fill="rgb(33, 33, 33)" stroke="none" stroke-width="1px">400M</text><text style="text-anchor: middle; visibility: hidden; font-family: Roboto, sans-serif; font-size: 12px; font-weight: 200;" x="268.08499813079834" y="0" dx="0em" dy="0.95em" fill="rgb(33, 33, 33)" stroke="none" stroke-width="1px">450M</text></g><line x1="0" y1="0" x2="268.08499813079834" y2="0" fill="rgb(0, 0, 0)" stroke="rgb(204, 204, 204)" stroke-width="1px"></line></g></g></g></g></svg>