<svg viewBox="0 0 330 200" xmlns="http://www.w3.org/2000/svg"><g><g><g><g><g><line x1="72.29800224304199" y1="176.89999961853027" x2="67.29800224304199" y2="176.89999961853027" style="visibility: inherit;" fill="rgb(0, 0, 0)" stroke="rgb(204, 204, 204)" stroke-width="1px"></line><line x1="72.29800224304199" y1="159.20999965667724" x2="67.29800224304199" y2="159.20999965667724" style="visibility: inherit;" fill="rgb(0, 0, 0)" stroke="rgb(204, 204, 204)" stroke-width="1px"></line><line x1="72.29800224304199" y1="141.51999969482424" x2="67.29800224304199" y2="141.51999969482424" style="visibility: inherit;" fill="rgb(0, 0, 0)" stroke="rgb(204, 204, 204)" stroke-width="1px"></line><line x1="72.29800224304199" y1="123.82999973297119" x2="67.29800224304199" y2="123.82999973297119" style="visibility: inherit;" fill="rgb(0, 0, 0)" stroke="rgb(204, 204, 204)" stroke-width="1px"></line><line x1="72.29800224304199" y1="106.13999977111816" x2="67.29800224304199" y2="106.13999977111816" style="visibility: inherit;" fill="rgb(0, 0, 0)" stroke="rgb(204, 204, 204)" stroke-width="1px"></line><line x1="72.29800224304199" y1="88.44999980926515" x2="67.29800224304199" y2="88.44999980926515" style="visibility: inherit;" fill="rgb(0, 0, 0)" stroke="rgb(204, 204, 204)" stroke-width="1px"></line><line x1="72.29800224304199" y1="70.75999984741212" x2="67.29800224304199" y2="70.75999984741212" style="visibility: inherit;" fill="rgb(0, 0, 0)" stroke="rgb(204, 204, 204)" stroke-width="1px"></line><line x1="72.29800224304199" y1="53.06999988555909" x2="67.29800224304199" y2="53.06999988555909" style="visibility: inherit;" fill="rgb(0, 0, 0)" stroke="rgb(204, 204, 204)" stroke-width="1px"></line><line x1="72.29800224304199" y1="35.379999923706066" x2="67.29800224304199" y2="35.379999923706066" style="visibility: inherit;" fill="rgb(0, 0, 0)" stroke="rgb(204, 204, 204)" stroke-width="1px"></line><line x1="72.29800224304199" y1="17.689999961853044" x2="67.29800224304199" y2="17.689999961853044" style="visibility: inherit;" fill="rgb(0, 0, 0)" stroke="rgb(204, 204, 204)" stroke-width="1px"></line><line x1="72.29800224304199" y1="0" x2="67.29800224304199" y2="0" style="visibility: inherit;" fill="rgb(0, 0, 0)" stroke="rgb(204, 204, 204)" stroke-width="1px"></line></g><g transform="translate(62.29800224304199, 0)"><text style="text-anchor: end; visibility: hidden; font-family: Roboto, sans-serif; font-size: 12px; font-weight: 200;" x="0" y="176.89999961853027" dx="0em" dy="0.3em" fill="rgb(33, 33, 33)" stroke="none" stroke-width="1px">5e-5</text><text style="text-anchor: end; visibility: inherit; font-family: Roboto, sans-serif; font-size: 12px; font-weight: 200;" x="0" y="159.20999965667724" dx="0em" dy="0.3em" fill="rgb(33, 33, 33)" stroke="none" stroke-width="1px">1e-4</text><text style="text-anchor: end; visibility: hidden; font-family: Roboto, sans-serif; font-size: 12px; font-weight: 200;" x="0" y="141.51999969482424" dx="0em" dy="0.3em" fill="rgb(33, 33, 33)" stroke="none" stroke-width="1px">1.5e-4</text><text style="text-anchor: end; visibility: inherit; font-family: Roboto, sans-serif; font-size: 12px; font-weight: 200;" x="0" y="123.82999973297119" dx="0em" dy="0.3em" fill="rgb(33, 33, 33)" stroke="none" stroke-width="1px">2e-4</text><text style="text-anchor: end; visibility: hidden; font-family: Roboto, sans-serif; font-size: 12px; font-weight: 200;" x="0" y="106.13999977111816" dx="0em" dy="0.3em" fill="rgb(33, 33, 33)" stroke="none" stroke-width="1px">2.5e-4</text><text style="text-anchor: end; visibility: inherit; font-family: Roboto, sans-serif; font-size: 12px; font-weight: 200;" x="0" y="88.44999980926515" dx="0em" dy="0.3em" fill="rgb(33, 33, 33)" stroke="none" stroke-width="1px">3e-4</text><text style="text-anchor: end; visibility: hidden; font-family: Roboto, sans-serif; font-size: 12px; font-weight: 200;" x="0" y="70.75999984741212" dx="0em" dy="0.3em" fill="rgb(33, 33, 33)" stroke="none" stroke-width="1px">3.5e-4</text><text style="text-anchor: end; visibility: inherit; font-family: Roboto, sans-serif; font-size: 12px; font-weight: 200;" x="0" y="53.06999988555909" dx="0em" dy="0.3em" fill="rgb(33, 33, 33)" stroke="none" stroke-width="1px">4e-4</text><text style="text-anchor: end; visibility: hidden; font-family: Roboto, sans-serif; font-size: 12px; font-weight: 200;" x="0" y="35.379999923706066" dx="0em" dy="0.3em" fill="rgb(33, 33, 33)" stroke="none" stroke-width="1px">4.5e-4</text><text style="text-anchor: end; visibility: inherit; font-family: Roboto, sans-serif; font-size: 12px; font-weight: 200;" x="0" y="17.689999961853044" dx="0em" dy="0.3em" fill="rgb(33, 33, 33)" stroke="none" stroke-width="1px">5e-4</text><text style="text-anchor: end; visibility: hidden; font-family: Roboto, sans-serif; font-size: 12px; font-weight: 200;" x="0" y="0" dx="0em" dy="0.3em" fill="rgb(33, 33, 33)" stroke="none" stroke-width="1px">5.5e-4</text></g><line x1="72.29800224304199" y1="0" x2="72.29800224304199" y2="176.89999961853027" fill="rgb(0, 0, 0)" stroke="rgb(204, 204, 204)" stroke-width="1px"></line></g></g><g transform="translate(72, 0)" clip-path="url(#clip_0)"><clipPath id="clip_0"><rect width="257" height="176"></rect></clipPath><g><g><g><line x1="0" y1="0" x2="0" y2="176.89999961853027" fill="rgb(0, 0, 0)" stroke="rgb(66, 66, 66)" stroke-width="1px" opacity="0.25"></line><line x1="25.7701997756958" y1="0" x2="25.7701997756958" y2="176.89999961853027" fill="rgb(0, 0, 0)" stroke="rgb(66, 66, 66)" stroke-width="1px" opacity="0.25"></line><line x1="51.5403995513916" y1="0" x2="51.5403995513916" y2="176.89999961853027" fill="rgb(0, 0, 0)" stroke="rgb(66, 66, 66)" stroke-width="1px" opacity="0.25"></line><line x1="77.3105993270874" y1="0" x2="77.3105993270874" y2="176.89999961853027" fill="rgb(0, 0, 0)" stroke="rgb(66, 66, 66)" stroke-width="1px" opacity="0.25"></line><line x1="103.0807991027832" y1="0" x2="103.0807991027832" y2="176.89999961853027" fill="rgb(0, 0, 0)" stroke="rgb(66, 66, 66)" stroke-width="1px" opacity="0.25"></line><line x1="128.850998878479" y1="0" x2="128.850998878479" y2="176.89999961853027" fill="rgb(0, 0, 0)" stroke="rgb(66, 66, 66)" stroke-width="1px" opacity="0.25"></line><line x1="154.6211986541748" y1="0" x2="154.6211986541748" y2="176.89999961853027" fill="rgb(0, 0, 0)" stroke="rgb(66, 66, 66)" stroke-width="1px" opacity="0.25"></line><line x1="180.3913984298706" y1="0" x2="180.3913984298706" y2="176.89999961853027" fill="rgb(0, 0, 0)" stroke="rgb(66, 66, 66)" stroke-width="1px" opacity="0.25"></line><line x1="206.1615982055664" y1="0" x2="206.1615982055664" y2="176.89999961853027" fill="rgb(0, 0, 0)" stroke="rgb(66, 66, 66)" stroke-width="1px" opacity="0.25"></line><line x1="231.9317979812622" y1="0" x2="231.9317979812622" y2="176.89999961853027" fill="rgb(0, 0, 0)" stroke="rgb(66, 66, 66)" stroke-width="1px" opacity="0.25"></line><line x1="257.701997756958" y1="0" x2="257.701997756958" y2="176.89999961853027" fill="rgb(0, 0, 0)" stroke="rgb(66, 66, 66)" stroke-width="1px" opacity="0.25"></line></g><g><line x1="0" y1="176.89999961853027" x2="257.701997756958" y2="176.89999961853027" fill="rgb(0, 0, 0)" stroke="rgb(66, 66, 66)" stroke-width="1px" opacity="0.25"></line><line x1="0" y1="159.20999965667724" x2="257.701997756958" y2="159.20999965667724" fill="rgb(0, 0, 0)" stroke="rgb(66, 66, 66)" stroke-width="1px" opacity="0.25"></line><line x1="0" y1="141.51999969482424" x2="257.701997756958" y2="141.51999969482424" fill="rgb(0, 0, 0)" stroke="rgb(66, 66, 66)" stroke-width="1px" opacity="0.25"></line><line x1="0" y1="123.82999973297119" x2="257.701997756958" y2="123.82999973297119" fill="rgb(0, 0, 0)" stroke="rgb(66, 66, 66)" stroke-width="1px" opacity="0.25"></line><line x1="0" y1="106.13999977111816" x2="257.701997756958" y2="106.13999977111816" fill="rgb(0, 0, 0)" stroke="rgb(66, 66, 66)" stroke-width="1px" opacity="0.25"></line><line x1="0" y1="88.44999980926515" x2="257.701997756958" y2="88.44999980926515" fill="rgb(0, 0, 0)" stroke="rgb(66, 66, 66)" stroke-width="1px" opacity="0.25"></line><line x1="0" y1="70.75999984741212" x2="257.701997756958" y2="70.75999984741212" fill="rgb(0, 0, 0)" stroke="rgb(66, 66, 66)" stroke-width="1px" opacity="0.25"></line><line x1="0" y1="53.06999988555909" x2="257.701997756958" y2="53.06999988555909" fill="rgb(0, 0, 0)" stroke="rgb(66, 66, 66)" stroke-width="1px" opacity="0.25"></line><line x1="0" y1="35.379999923706066" x2="257.701997756958" y2="35.379999923706066" fill="rgb(0, 0, 0)" stroke="rgb(66, 66, 66)" stroke-width="1px" opacity="0.25"></line><line x1="0" y1="17.689999961853044" x2="257.701997756958" y2="17.689999961853044" fill="rgb(0, 0, 0)" stroke="rgb(66, 66, 66)" stroke-width="1px" opacity="0.25"></line><line x1="0" y1="0" x2="257.701997756958" y2="0" fill="rgb(0, 0, 0)" stroke="rgb(66, 66, 66)" stroke-width="1px" opacity="0.25"></line></g></g></g><g><g><line x1="0" y1="194.5899995803833" x2="257.701997756958" y2="194.5899995803833" fill="rgb(0, 0, 0)" stroke="rgb(153, 153, 153)" stroke-width="1.5px"></line></g></g><g><g><line x1="25.7701997756958" y1="0" x2="25.7701997756958" y2="176.89999961853027" fill="rgb(0, 0, 0)" stroke="rgb(153, 153, 153)" stroke-width="1.5px"></line></g></g><g><g><g><g><g><path style="fill: none;" stroke="rgb(187, 187, 187)" stroke-width="2px" d="M25.7701997756958,142.17518601202215L26.0150867685083,142.17518601202215L26.2430850031958,108.74737057958934L26.471083237883303,26.253173551319612L26.6906370935083,-15.82401924241968L34.7634634772583,-0.4887150195622452L34.98301733288331,6.782767615583493L35.2025711885083,11.145657194431429L35.4221250441333,13.763390940933904L35.641678899758304,15.33403118854516L35.8612327553833,16.276415337007435L36.0807866110083,40.428516308889776L36.3003404666333,31.333106408951245L36.519894322258295,25.875860469118795L36.7394481778833,22.601512905266375L36.9674464125708,20.63690436697187L37.1954446472583,19.458139244001277L37.4149985028833,18.750880170221084L37.6345523585083,41.913195207938465L37.8625505931958,32.22391374857854L38.0821044488208,49.99701535493538L38.3016583044458,60.66087631874517L38.5296565391333,67.05919289702952L38.757654773820796,70.89818284399954L38.994097387570804,73.20157681218137L39.2220956222583,74.5836131930904L39.4585382360083,75.41283502163579L39.678092091633296,75.91036811876302L39.9060903263208,76.20888797703935L40.1256441819458,76.38799989200517L40.3536424166333,76.49546704098462L40.5816406513208,76.55994733037232L40.8096388860083,92.32307905966653L41.0460814997583,86.05651454158144L41.2656353553833,98.02101938639197L41.4851892110083,89.47527873761672L41.721631824758305,100.07227790401313L41.9496300594458,90.7060338481894L42.1691839150708,100.81073097035677L42.3887377706958,91.14910568799559L42.6082916263208,101.0765740742405L42.836289861008304,91.30861155032582L43.055843716633305,85.44783403597702L43.2838419513208,81.93136752736774L43.5118401860083,79.82148762220217L43.7482827997583,78.55555967910286L43.9678366553833,93.52044646890482L44.1873905110083,102.49937854278603L44.4322775038208,107.88673778711473L44.6687201175708,111.11915333371195L44.8967183522583,97.33415910600873L45.1162722078833,104.78760612504834L45.3358260635083,109.25967433647213L45.5722686772583,111.94291526332641L45.8171556700708,113.55285981943895L46.0451539047583,114.5188265531065L46.2731521394458,115.09840659330702L46.4927059950708,115.44615461742734L46.7291486088208,115.65480343189954L46.9655912225708,115.77999272058283L47.1851450781958,115.85510629379282L47.404698933820804,115.90017443771882L47.6326971685083,115.9272153240744L47.860695403195805,115.94343985588776L48.0802492588208,115.95317457497578L48.2998031144458,115.95901540642859L48.5278013491333,115.96251990530028L48.755799583820796,115.96462260462329L48.9922421975708,115.96588422421708L49.211796053195805,115.96664119597338L49.4397942878833,115.96709537902714L49.659348143508296,115.9673678888594L49.8789019991333,115.96753139475875L50.1069002338208,115.96762949829836L50.3348984685083,115.96768836042213L50.5544523241333,115.9677236776964L50.7824505588208,115.96774486806096L51.0104487935083,115.9677575822797L51.2468914072583,115.96776521081094L51.4748896419458,115.96776978792967L51.6944434975708,115.96777253420093L51.92244173225831,115.96777418196368L52.150439966945804,126.45073891398707L52.3953269597583,122.25755400983535L52.623325194445805,119.74164306734434L52.8513234291333,118.23209650184971L53.0708772847583,117.32636856255294L53.2904311403833,116.78293179897489L53.518429375070795,116.45686974082805L53.7464276097583,116.26123250593994L53.9659814653833,116.1438501650071L54.2024240791333,116.07342076044738L54.421977934758296,116.03116311771156L54.6499761694458,116.00580853207003L54.877974404133305,115.99059578068514L55.1144170178833,115.9814681298542L55.350859631633305,115.97599153935563L55.5873022453833,115.9727055850565L55.8068561010083,115.97073401247704L56.034854335695805,115.96955106892933L56.254408191320806,115.96884130280073L56.4824064260083,115.96841544312356L56.72729341882081,115.96815992731723L56.9637360325708,115.96800661783345L57.1917342672583,115.96791463214319L57.419732501945795,115.96785944072904L57.6561751156958,115.96782632588054L57.892617729445796,115.96780645697146L58.1121715850708,115.96779453562598L58.3401698197583,115.9677873828187L58.5681680544458,115.96778309113434L58.796166289133296,126.45074425948948L59.0410532819458,122.2575572171368L59.2690515166333,119.7416449917252L59.4970497513208,118.23209765647825L59.7334923650708,117.32636925533006L59.9530462206958,116.78293221464115L60.1726000763208,116.45686999022782L60.3921539319458,116.26123265557979L60.6117077875708,116.143850254791L60.8312616431958,116.07342081431771L61.0677042569458,126.51412689339949L61.287258112570804,122.29558679748281L61.5068119681958,130.24742648329857L61.7348102028833,124.53556655142225L61.9543640585083,131.59141433566222L62.1823622931958,125.34195926284045L62.4103605278833,132.07524996251314L62.6299143835083,125.632260638951L62.8494682391333,132.24943078817947L63.0774664738208,125.7367691343508L63.3139090875708,132.31213588541934L63.541907322258304,125.77439219269472L63.7783499360083,132.33470972042568L64.0063481706958,125.78793649369854L64.23434640538329,132.34283630102797L64.46234464007081,125.7928124420599L64.6903428747583,132.3457618700448L64.9267854885083,125.79456778347001L65.1547837231958,121.86385133152511L65.39122633694579,129.98838520372394L65.6192245716333,124.38014178367747L65.8472228063208,131.49815947501534L66.0836654200708,125.28600634645231L66.32855241288331,132.04167821268024L66.5734394056958,125.61211758905127L66.8014376403833,132.23734495823962L67.0378802541333,125.72951763638689L67.2658784888208,121.82482124327525L67.4938767235083,129.96496715077402L67.7218749581958,124.36609095190754L67.94142881382079,131.4897289759534L68.1694270485083,125.28094804701513L68.3974252831958,121.55567948965219L68.6169791388208,129.8034820986002L68.8365329944458,124.26919992060321L69.0645312291333,131.43159435717078L69.3009738428833,125.2460672757456L69.5289720775708,121.53475102689049L69.7485259331958,129.79092502094318L69.9765241678833,124.26166567400901L70.2045224025708,120.9441100658485L70.4409650163208,118.95357670095223L70.66051887194581,117.75925668201447L70.8800727275708,117.04266467065179L71.0996265831958,127.09567320719994L71.3360691969458,122.64451458576309L71.5556230525708,130.4567831562667L71.7751769081958,124.66118055520316L71.9947307638208,131.66678273793076L72.21428461944579,125.38718030420158L72.4338384750708,132.1023825873298L72.6618367097583,136.13150395720675L72.8898349444458,128.06601303576718L73.12627755819581,133.70968222626917L73.37116455100829,137.09588374057037L73.6076071647583,128.6446409057853L73.8271610203833,123.5738952049143L74.04671487600831,131.01441152775743L74.2831574897583,135.47872132146333L74.5196001035083,127.67434345432113L74.7475983381958,133.47468047740153L74.97559657288329,126.47191894788405L75.19515042850831,122.27026203017354L75.4231486631958,130.232231622913L75.6427025188208,135.00941337855667L75.86225637444579,127.39275868857712L76.0818102300708,133.30572961795514L76.3182528438208,136.85351217558193L76.53780669944581,138.98218171015805L76.7573605550708,129.77641968753795L76.9853587897583,134.73592621733164L77.2302457825708,137.71163013520783L77.46668839632079,129.0140887425678L77.6862422519458,123.7955639069838L77.9057961075708,131.14741274899916L78.12534996319579,135.55852205420834L78.34490381882081,138.2051876373339L78.58979081163329,139.7931869872092L78.8177890463208,140.74598659713436L79.0457872810083,141.31766636308947L79.26534113663331,141.66067422266255L79.4933393713208,141.8664789384064L79.7128932269458,141.9899617678527L79.94933584069581,142.06405146552046L80.1773340753833,142.10850528412115L80.3968879310083,142.13517757528157L80.6164417866333,142.1511809499778L80.85288440038329,142.16078297479555L81.07243825600831,142.1665441896862L81.2919921116333,142.1700009186206L81.5368791044458,142.1720749559812L81.7648773391333,142.1733193783976L82.0097643319458,142.17406603184742L82.2293181875708,142.17451402391734L82.4488720431958,142.17478281915928L82.6684258988208,142.17494409630442L82.8964241335083,142.17504086259152L83.1328667472583,142.1750989223638L83.3608649819458,142.17513375822713L83.59730759569581,142.17515465974515L83.8337502094458,142.17516720065595L84.06174844413331,142.17517472520245L84.3066354369458,142.17517923993034L84.5346336716333,142.17518194876706L84.7795206644458,142.1751835740691L85.0075188991333,142.1751845492503L85.2439615128833,142.17518513435905L85.4888485056958,142.1751854854243L85.7337354985083,142.17518569606347L85.9701781122583,142.17518582244693L86.21506510507079,142.17518589827702L86.4346189606958,142.1751859437751L86.6541728163208,142.17518597107392L86.8990598091333,142.1751859874532L87.13550242288329,142.17518599728078L87.3550562785083,142.17518600317734L87.5746101341333,142.17518600671525L87.8026083688208,142.17518600883804L88.0306066035083,142.17518601011167L88.2670492172583,142.17518601087588L88.4950474519458,142.17518601133438L88.7230456866333,142.1751860116095L88.9679326794458,142.17518601177457L89.2043752931958,142.1751860118736L89.4408179069458,142.17518601193302L89.66037176257079,142.1751860119687L89.8883699972583,142.17518601199006L90.1163682319458,142.1751860120029L90.33592208757081,142.1751860120106L90.5554759431958,142.17518601201522L90.80036293600831,142.175186012018L91.0368055497583,142.17518601201965L91.26480378444579,142.17518601202067L91.4843576400708,142.17518601202124L91.7123558747583,142.1751860120216L91.9319097303833,142.1751860120218L92.1514635860083,142.17518601202198L92.3710174416333,142.17518601202204L92.6074600553833,142.1751860120221L92.8354582900708,142.17518601202212L93.07190090382079,142.17518601202212L93.2998991385083,142.17518601202215L93.5447861313208,142.17518601202215L93.7643399869458,142.17518601202215L94.00922697975831,142.17518601202215L94.2372252144458,142.17518601202215L94.4736678281958,142.17518601202215L94.7101104419458,142.17518601202215L94.93810867663329,142.17518601202215L95.1661069113208,142.17518601202215L95.3941051460083,142.17518601202215L95.6305477597583,142.17518601202215L95.85854599444579,142.17518601202215L96.0949886081958,142.17518601202215L96.3145424638208,142.17518601202215L96.53409631944581,142.17518601202215L96.7536501750708,142.17518601202215L96.9900927888208,142.17518601202215L97.2265354025708,149.16382713467462L97.46297801632079,146.36837068561366L97.6994206300708,144.69109681617704L97.9443076228833,143.6847324945151L98.1723058575708,143.08091390151793L98.3918597131958,149.70726386837208L98.6198579478833,146.69443272583212L98.8394118035083,144.88673404030814L99.06741003819579,143.80211482899375L99.29540827288331,143.1513433022051L99.52340650757081,142.76088038613193L99.7598491213208,142.526602636488L99.9878473560083,142.38603598670167L100.21584559069579,142.30169599682986L100.4438438253833,142.2510920029068L100.6802864391333,142.22072960655294L100.9167290528833,142.2025121687406L101.1616160456958,142.19158170605326L101.38961428038331,142.18502342844081L101.60916813600831,142.18108846187334L101.84561074975831,142.17872748193287L102.0820533635083,142.17731089396858L102.3269403563208,142.17646094119002L102.5633829700708,142.17595096952286L102.79138120475831,142.17564498652257L103.0193794394458,142.17546139672243L103.2473776741333,142.1753512428423L103.47537590882081,142.17528515051424L103.7033741435083,142.17524549511742L103.9482611363208,149.16386282453178L104.1847037500708,146.36839209952794L104.40425760569579,144.6911096645256L104.6238114613208,143.68474020352426L104.86025407507081,143.0809185269234L105.0966966888208,142.71862552096292L105.31625054444581,149.4898908400391L105.54424877913331,146.5640089088323L105.7891357719458,144.80847975010826L106.0171340066333,143.75516225487382L106.2535766203833,143.12317175773316L106.4900192341333,142.74397745944876L106.7180174688208,142.51646088047812L106.9544600825708,142.37995093309573L107.18245831725831,142.2980449646663L107.4020121728833,142.24890138360865L107.63001040757081,142.21941523497406L107.8495642631958,142.2017235457933L108.0860068769458,142.19110853228483L108.3055607325708,149.17338064683224L108.55044772538331,146.37410279290822L108.7784459600708,144.6945360805538L108.99799981569579,143.68679605314114L109.2344424294458,143.08215203669354L109.4708850431958,142.71936562682498L109.6988832778833,142.50169378090385L109.9268815125708,142.37109067335118L110.1548797472583,142.29272880881956L110.3744336028833,142.2457116901006L110.60243183757079,142.21750141886923L110.8388744513208,142.2005752561304L111.0668726860083,142.1904195584871L111.3033152997583,142.18432613990115L111.5313135344458,142.18067008874954L111.7593117691333,142.17847645805858L111.9957543828833,142.177160279644L112.2406413756958,142.17637057259526L112.46019523132081,142.17589674836603L112.6881934660083,142.17561245382848L112.9077473216333,142.17544187710595L113.14418993538331,142.17533953107244L113.3637437910083,142.17527812345233L113.6001864047583,149.16388240153273L113.8366290185083,146.36840384572852L114.0561828741333,144.69111671224596L114.2841811088208,143.68474443215644L114.5037349644458,143.08092106410274L114.7401775781958,142.7186270432705L114.9766201919458,142.50125063077118L115.2130628056958,142.37082478327156L115.4579497985083,142.2925692747718L115.6859480331958,142.24561596967195L115.93083502600831,142.21744398661204L116.1672776397583,142.20054079677607L116.3952758744458,142.19039888287452L116.6232741091333,142.18431373453356L116.85127234382081,142.180662645529L117.0792705785083,142.17847199212628L117.3157131922583,142.17715760008463L117.5521558060083,142.17636896485965L117.7885984197583,142.17589578372466L118.0334854125708,142.17561187504367L118.26148364725829,142.17544152983507L118.4979262610083,149.16398044536237L118.7343688747583,146.36846267202628L118.96236710944581,144.69115200802463L119.1903653441333,143.68476560962364L119.40991919975829,143.08093377058304L119.6379174344458,142.7186346671587L119.8743600481958,142.5012552051041L120.0939139038208,142.3708275278713L120.32191213850831,149.28121204418414L120.5499103731958,146.43880163131934L120.7863529869458,144.73335538360047L121.0227956006958,143.71008763496914L121.2423494563208,143.09612698579033L121.4787920700708,142.72775059628307L121.6983459256958,142.5067247625787L121.9178997813208,142.3741092623561L122.1458980160083,149.283181084875L122.3907850088208,146.43998305573385L122.6187832435083,144.73406423824918L122.85522585725829,143.7105129477584L123.07477971288331,143.0963821734639L123.3112223266333,142.7279037088872L123.53077618225831,142.50681663014117L123.7672187960083,142.37416438289358L124.0036614097583,142.294573034545L124.2401040235083,142.24681822553586L124.47654663725831,142.21816534013038L124.7045448719458,142.2009736088871L124.9240987275708,142.1906585701411L125.1436525831958,142.18446954689352L125.3800951969458,142.180756132945L125.59964905257081,142.17852808457585L125.8276472872583,142.1771912555544L126.0472011428833,142.1763891581415L126.2751993775708,142.17590789969375L126.5031976122583,142.1756191446251L126.7311958469458,142.17544589158393L126.9591940816333,142.17534193975922L127.17874793725831,142.1752795686644L127.40674617194581,142.1752421460075L127.6263000275708,142.17521969241335L127.8542982622583,142.17520622025688L128.0822964969458,142.175198136963L128.3102947316333,142.17519328698666L128.5382929663208,142.17519037700086L128.7578468219458,142.17518863100938L128.97740067757078,142.17518758341447L129.19695453319582,142.17518695485757L129.44184152600832,142.1751865777234L129.6867285188208,142.1751863514429L129.9062823744458,142.17518621567461L130.1258362300708,142.17518613421365L130.3453900856958,142.17518608533706L130.58183269944578,142.17518605601109L130.80138655507082,142.17518603841552L131.0293847897583,142.1751860278582L131.2573830244458,142.17518602152379L131.4769368800708,142.17518601772312L131.6964907356958,142.17518601544273L131.92448897038332,142.1751860140745L132.1524872050708,142.17518601325355L132.3804854397583,142.175186012761L132.6084836744458,142.17518601246547L132.8364819091333,142.17518601228815L133.0644801438208,142.17518601218174L133.3009227575708,142.17518601211793L133.52892099225832,142.1751860120796L133.7569192269458,142.17518601205663L134.0018062197583,142.17518601204284L134.2298044544458,149.16382713468704L134.4493583100708,146.36837068562107L134.6689121656958,144.69109681618153L134.89691040038332,143.68473249451776L135.1164642560083,143.08091390151952L135.34446249069578,142.7186227457206L135.5640163463208,142.5012480522412L135.7920145810083,142.37082323615357L136.02001281569582,142.292568346501L136.2480110503833,142.24561541270947L136.4844536641333,149.20608477508702L136.7208962778833,146.39372526986105L136.9573388916333,144.7063095667255L137.1853371263208,143.69386014484417L137.4302241191333,143.08639049171535L137.6582223538208,142.72190869983808L137.8862205885083,142.5032196247117L138.1311075813208,142.3720061796359L138.35910581600828,142.2932781125904L138.5871040506958,142.2460412723631L138.8066579063208,142.21769916822672L139.0431005200708,142.20069390574488L139.2626543756958,142.1904907482558L139.48220823132078,149.1730099764148L139.71865084507078,146.37388039065775L139.9382047006958,144.69440263920353L140.1662029353833,143.68671598833097L140.4026455491333,143.08210399780745L140.6390881628833,142.71933680349332L140.8670863975708,142.50167648690487L141.0950846322583,142.3710802969518L141.3399716250708,142.29272258297993L141.5679698597583,142.24570795459684L141.80441247350828,142.21749917756696L142.0324107081958,142.20057391134904L142.2519645638208,142.19041875161827L142.4715184194458,142.18432565577984L142.7079610331958,142.18066979827677L142.9444036469458,142.17847628377493L143.1808462606958,142.17716017507382L143.4172888744458,142.17637050985317L143.6368427300708,142.17589671072074L143.8817297228833,142.17561243124132L144.1012835785083,149.16408298620613L144.3292818131958,146.36852419653255L144.5572800478833,144.69118892272837L144.7768339035083,143.6847877584459L145.0217208963208,143.0809470598764L145.2412747519458,142.7186426407347L145.4608286075708,142.5012599892497L145.68882684225832,142.3708303983587L145.9168250769458,142.29257264382406L146.1617120697583,142.2456179911033L146.40659906257082,142.21744519947083L146.6345972972583,142.20054152449137L146.8794842900708,149.17904044215615L147.12437128288332,146.37749867010257L147.3692582756958,144.6965736068704L147.6057008894458,143.6880185689311L147.8421435031958,150.07152666881998L148.0701417378833,146.91299040610087L148.3150287306958,145.01786864846937L148.5430269653833,143.8807955938905L148.7710252000708,150.18719288379563L149.0074678138208,146.98239013508626L149.2270216694458,152.04814960851309L149.4719086622583,148.0989641699167L149.6914625178833,145.72945290675887L149.9279051316333,144.3077461488642L150.15590336632079,143.4547220941274L150.38390160100832,142.9429076612853L150.6034554566333,142.63581900158005L150.8398980703833,142.4515658057569L151.0763406841333,142.34101388826298L151.2958945397583,142.27468273776665L151.5407815325708,142.23488404746888L151.7687797672583,142.2110048332902L151.98833362288332,142.19667730478298L152.22477623663332,142.18808078767864L152.4696632294458,149.17156400006854L152.69766146413332,146.37301280485L152.9256596988208,144.69388208771883L153.1536579335083,143.68640365744017L153.3816561681958,143.08191659927297L153.6096544028833,142.71922436437265L153.82920825850832,142.50160902343245L154.0487621141333,142.37103981886833L154.2852047278833,149.28133941878232L154.5132029625708,146.43887805607827L154.7496455763208,144.73340123845583L154.9776438110083,143.71011514788236L155.20564204569578,150.08478461619075L155.43364028038332,146.92094517452333L155.6531941360083,152.01128263217535L155.8727479916333,148.07684398411405L156.09230184725828,145.7161807952773L156.32030008194582,144.29978288197523L156.55674269569582,150.4385852566465L156.79318530944582,147.13322555879677L157.0211835441333,152.13865086273938L157.2407373997583,148.15326492245248L157.48562439257083,145.76203335828035L157.7051782481958,144.32729441977708L157.9500652410083,150.4550921793276L158.1780634756958,147.14312971240543L158.39761733132082,145.1559522322521L158.6171711869458,143.96364574416012L158.8620581797583,150.2369029739574L159.09005641444583,147.0122161891833L159.3096102700708,145.07740411831884L159.53760850475828,143.91651687580017L159.76560673944581,150.20862565294144L159.9851605950708,146.99524979657372L160.2216032088208,152.05586540540557L160.4496014435083,148.10359364805223L160.6691552991333,152.72087171629266L160.90559791288328,148.5025974345845L161.14204052663328,145.97163286555954L161.36159438225832,144.4530541241446L161.6064813750708,150.5305480019481L161.8513683678833,147.18840320597772L162.07936660257081,152.17175745104797L162.29892045819582,148.17312887543764L162.5269186928833,145.77395173007147L162.74647254850828,144.33444544285175L162.9744707831958,143.4707416705199L163.2024690178833,142.9525194071208L163.4389116316333,142.64158604908135L163.6584654872583,149.44366715691015L163.8864637219458,146.53627469895494L164.1144619566333,151.7804803468343L164.35090457038328,147.93836261290943L164.5789028050708,152.62173309520702L164.8153454188208,148.44311426193306L165.0517880325708,152.92458408462116L165.2882306463208,148.62482485558155L165.50778450194582,146.0449693181578L165.7273383575708,144.49705599570353L165.95533659225828,150.55694912488346L166.19177920600828,147.20424387973893L166.4282218197583,152.18126185530468L166.6562200544458,148.17883151799168L166.8926626681958,152.76601443825635L167.1206609028833,148.52968306776268L167.34865913757082,152.97652536811896L167.59354613038332,148.65598962568023L167.8215443650708,153.05230930286947L168.0579869788208,148.70145998653055L168.2944295925708,146.09095039672718L168.5308722063208,144.52464464284517L168.7757591991333,143.584861190516L169.0122018128833,150.00963224177093L169.2402000475708,146.8758537498714L169.4597539031958,151.98422777738418L169.68775213788328,148.06061107123938L169.90730599350832,152.69508217020496L170.1437486072583,148.48712370693184L170.3633024628833,152.95098975162043L170.5828563185083,148.64066825578115L170.8024101741333,153.04311648093002L171.03040840882082,148.69594429336686L171.2668510225708,146.087640980829L171.4948492572583,144.52265899330627L171.7228474919458,150.5723109234451L171.96773448475832,147.2134609588759L172.1957327194458,145.19815098013444L172.4237309541333,143.98896499288952L172.6601735678833,150.25209452319504L172.8881718025708,147.0213311187259L173.1077256581958,152.07151419869686L173.3357238928833,148.112982924027L173.5637221275708,152.72650528187754L173.7917203622583,148.50597757393538L174.01971859694578,145.9736609491701L174.2477168316333,144.45427097431093L174.4757150663208,143.5426369893954L174.7037133010083,142.99565659844612L174.9401559147583,142.66746836387654L175.1681541494458,149.45919654578728L175.41304114225832,146.54559233228122L175.6410393769458,144.7974298041776L175.8690376116333,143.7485322873154L176.1139246044458,150.1078348998506L176.3588115972583,146.9347753447192L176.5868098319458,145.03093961164038L176.8148080666333,143.8886381717931L177.03436192225828,143.2032573078847L177.25391577788332,142.7920287895397L177.4903583916333,142.5452916785327L177.7183566263208,142.39724941192847L177.9547992400708,142.30842405196597L178.1827974747583,142.25512883598844L178.4023513303833,149.2117928290544L178.6303495650708,146.3971501022415L178.85834779975832,144.70836446615377L179.0779016553833,143.6950930845011L179.2974555110083,150.07577137816202L179.5338981247583,146.91553723170605L179.76189635944579,152.00803786648498L179.98989459413332,148.07489712469985L180.2094484497583,145.71501267962879L180.4374466844458,144.29908201258613L180.67388929819577,143.44952361236054L180.8934431538208,142.93978857222518L181.12988576757078,149.62258867079643L181.36632838132078,146.64362760728673L181.60277099507078,144.8562509691809L181.8223248506958,143.78382498631743L182.0418787063208,150.12901051925178L182.2698769410083,146.94748071635993L182.5063195547583,152.0272039572773L182.7343177894458,148.08639677917526L182.95387164507082,152.71055359496648L183.19031425882082,148.49640656178877L183.43520125163332,152.9565594645346L183.6800882444458,148.64401008352962L183.9165308581958,153.04512157757912L184.1445290928833,148.6971473513563L184.3640829485083,153.07700393827514L184.5836368041333,148.71627676777393L184.81163503882078,153.0884815881257L185.0311888944458,148.72316335768429L185.2507427500708,146.10397241941942L185.4702966056958,144.53245785646052L185.7151835985083,150.57819024133764L185.9516262122583,147.21698854961144L186.1880688260083,145.20026753457574L186.4245114397583,143.99023492555432L186.65250967444578,143.26421536014146L186.8805079091333,142.82860362089374L187.11695052288331,142.5672365773451L187.3618375156958,142.41041635121593L187.5813913713208,149.3049653381909L187.80938960600832,146.4530536077234L188.0289434616333,151.73054769209537L188.2484973172583,147.9084030200661L188.4680511728833,152.603757339501L188.69604940757083,148.43232880850945L188.9156032631958,152.91811281256702L189.1520458769458,148.62094209234908L189.37159973257081,146.0426396602183L189.5911535881958,151.48429932359232L189.8107074438208,154.74929512161674L190.0555944366333,149.71965147777888L190.2920370503833,153.6905064141287L190.5284796641333,149.08437825328608L190.7649222778833,146.32070135678052L190.9929205125708,144.66249521887718L191.2378075053833,143.66757153613517L191.4573613610083,150.05925844914245L191.68535959569581,146.90562947429433L191.9133578303833,145.01345208938545L192.14135606507082,143.87814565844016L192.3693542997583,143.19696179987295L192.58890815538328,142.78825148473263L192.8253507691333,142.54302529564845L193.0533490038208,142.39588958219792L193.2813472385083,149.2962492767801L193.52623423132079,153.4364650935294L193.76267684507079,155.92059458357897L193.9991194588208,157.41107227760872L194.2355620725708,151.3167177713741L194.4551159281958,154.64874619028578L194.67466978382078,149.65932211898033L194.9111123975708,146.66566767619707L195.13066625319578,144.8694750105271L195.3586644878833,143.79175941112513L195.58666272257082,150.13377117413643L195.8231053363208,146.9503371092907L196.0511035710083,152.02891779303576L196.27910180569577,148.0874250806303L196.4986556613208,152.71117057583953L196.7350982750708,148.49677675031256L196.95465213069582,152.95678157764888L197.19109474444582,155.63278447405068L197.43598173725832,150.24974508923927L197.6555355928833,147.01992145835243L197.88353382757077,145.08202727982032L198.1030876831958,150.90793189535353L198.3479746760083,154.40347466467347L198.5844172897583,156.50080032626542L198.81241552444578,150.77055460056812L199.04885813819578,147.33240716514973L199.2684119938208,145.2695187038987L199.48796584944583,151.02042674980055L199.7159640841333,154.4709715773417L199.9439623188208,149.55265735121384L200.17196055350828,153.59030993818965L200.39995878819582,149.02426036772266L200.63640140194582,153.27327174809494L200.88128839475831,155.8226785763183L201.1092866294458,157.3523226732523L201.3372848641333,151.28146800876027L201.5652830988208,147.638955210065L201.7932813335083,152.44208865350035L202.0297239472583,148.33532759690908L202.2492778028833,145.8712709629543L202.4688316585083,144.39283698258146L202.6883855141333,150.4944177170102L202.9248281278833,154.15536615766746L203.1612707416333,156.35193522206183L203.3977133553833,150.68123553804597L203.6341559691333,154.2674568502889L203.86215420382078,149.4305485149822L204.0817080594458,146.52840351379817L204.3097062941333,144.78711651308777L204.5292601497583,150.730985435314L204.7741471425708,154.29730678864976L205.0021453772583,156.43709960065118L205.23014361194578,157.72097528785204L205.46658622569578,158.4913007001726L205.7030288394458,158.95349594756487L205.9310270741333,152.2421719733478L206.1590253088208,155.20401871147L206.38702354350832,156.98112675434334L206.6150217781958,158.04739158006734L206.8514643919458,158.68715047550174L207.07101824757078,159.0710058127624L207.3159052403833,152.31267789246627L207.5354590960083,159.90541771763412L207.7634573306958,159.8019661580418L207.99145556538332,159.73989522228644L208.2110094210083,159.7026526608332L208.4390076556958,159.68030712396126L208.6838946485083,159.6668998018381L208.9034485041333,159.6588554085642L209.1398911178833,159.65402877259987L209.3594449735083,159.65113279102124L209.59588758725832,159.6493952020741L209.8238858219458,159.64835264870578L210.0603284356958,159.64772711668482L210.2883266703833,159.64735179747223L210.5247692841333,152.6584854832922L210.7527675188208,155.45380681743666L210.97232137444578,150.14235849527086L211.20876398819578,153.94413062462382L211.44520660194578,156.22519390223565L211.67320483663332,150.60519074615024L211.9012030713208,154.22182997515148L212.1292013060083,156.39181351255223L212.3487551616333,150.70516251234022L212.57675339632078,154.28181303486545L212.79630725194582,156.42780334838062L213.0327498656958,157.71539753648972L213.2523037213208,158.48795404935515L213.4887463350708,158.95148795707445L213.7251889488208,159.22960830170598L213.9531871835083,152.40783938583246L214.17274103913329,155.30341915896082L214.3922948947583,150.05212590018533L214.6287375085083,153.88999106757254L214.8567357431958,149.20406904535238L215.0762895988208,153.38115695467278L215.30428783350828,148.89876857761251L215.52384168913332,153.19797667402887L215.7433955447583,148.78886040922617L215.9713937794458,146.14339065034457L216.2078363931958,151.54474991766807L216.4442790069458,154.78556547806218L216.6807216206958,149.74141369164616L216.9171642344458,146.71492261979657L217.13671809007081,144.89902797668682L217.38160508288328,143.80949119082095L217.60960331757082,143.15576911930145L217.8544903103833,142.76353587638974L218.0909329241333,142.5281959306427L218.3273755378833,142.3869919631945L218.5553737725708,142.3022695827256L218.78337200725832,142.2514361544442L219.01981462100832,142.22093609747537L219.2562572347583,142.2026360632941L219.50114422757082,142.19165604278533L219.7291424622583,142.18506803048007L219.94869631788328,142.1811152230969L220.1766945525708,142.178743538667L220.4131371663208,142.17732052800906L220.6495797800708,142.1764667216143L220.87757801475829,142.17595443777745L221.11402062850829,142.17564706747535L221.34201886319582,142.17546264529406L221.58690585600831,142.17535199198528L221.8064597116333,142.17528560000005L222.0344579463208,142.1752457648089L222.2624561810083,142.1752218636942L222.5073431738208,142.17520752302536L222.7437857875708,142.1751989186241L222.9802284013208,142.17519375598332L223.2251153941333,142.17519065839886L223.4531136288208,142.17518879984817L223.6895562425708,142.17518768471777L223.9259988563208,142.17518701563952L224.1539970910083,142.17518661419257L224.3904397047583,142.1751863733244L224.6268823185083,142.1751862288035L224.85488055319578,142.17518614209095L225.09132316694578,142.17518609006345L225.31932140163332,142.17518605884692L225.5388752572583,142.175186040117L225.7668734919458,142.17518602887907L225.9864273475708,149.16382714478877L226.2059812031958,146.36837069168214L226.4255350588208,151.6797379424706L226.6535332935083,147.87791717029123L226.88997590725828,152.58546582963606L227.1179741419458,148.4213539025905" fill="none"></path></g></g></g></g><g opacity="0.2"><g><g><g><path style="fill: none;" stroke="rgb(187, 187, 187)" stroke-width="2px" d="M25.7701997756958,142.17518601202215L26.0150867685083,142.17518601202215L26.2430850031958,76.65666776445386L26.471083237883303,-70.76000215392558L30.5919402203833,-70.76000215392558L30.8114940760083,17.689991559553924L31.0310479316333,-70.76000215392558L31.2506017872583,17.689991559553924L31.470155642883302,-70.76000215392558L31.6897094985083,17.689991559553924L31.9092633541333,-70.76000215392558L32.1288172097583,17.689991559553924L32.3483710653833,-70.76000215392558L32.5679249210083,17.689991559553924L32.78747877663331,-70.76000215392558L33.0070326322583,17.689991559553924L33.2265864878833,-70.76000215392558L34.1048019103833,-70.76000215392558L34.324355766008296,17.689991559553924L34.5439096216333,17.689991559553924L34.7634634772583,17.689991559553924L34.98301733288331,17.689991559553924L35.2025711885083,17.689991559553924L35.4221250441333,17.689991559553924L35.641678899758304,17.689991559553924L35.8612327553833,17.689991559553924L36.0807866110083,76.65666776445386L36.3003404666333,17.689991559553924L36.519894322258295,17.689991559553924L36.7394481778833,17.689991559553924L36.9674464125708,17.689991559553924L37.1954446472583,17.689991559553924L37.4149985028833,17.689991559553924L37.6345523585083,76.65666776445386L37.8625505931958,17.689991559553924L38.0821044488208,76.65666776445386L38.3016583044458,76.65666776445386L38.5296565391333,76.65666776445386L38.757654773820796,76.65666776445386L38.994097387570804,76.65666776445386L39.2220956222583,76.65666776445386L39.4585382360083,76.65666776445386L39.678092091633296,76.65666776445386L39.9060903263208,76.65666776445386L40.1256441819458,76.65666776445386L40.3536424166333,76.65666776445386L40.5816406513208,76.65666776445386L40.8096388860083,115.96777665360779L41.0460814997583,76.65666776445386L41.2656353553833,115.96777665360779L41.4851892110083,76.65666776445386L41.721631824758305,115.96777665360779L41.9496300594458,76.65666776445386L42.1691839150708,115.96777665360779L42.3887377706958,76.65666776445386L42.6082916263208,115.96777665360779L42.836289861008304,76.65666776445386L43.055843716633305,76.65666776445386L43.2838419513208,76.65666776445386L43.5118401860083,76.65666776445386L43.7482827997583,76.65666776445386L43.9678366553833,115.96777665360779L44.1873905110083,115.96777665360779L44.4322775038208,115.96777665360779L44.6687201175708,115.96777665360779L44.8967183522583,76.65666776445386L45.1162722078833,115.96777665360779L45.3358260635083,115.96777665360779L45.5722686772583,115.96777665360779L45.8171556700708,115.96777665360779L46.0451539047583,115.96777665360779L46.2731521394458,115.96777665360779L46.4927059950708,115.96777665360779L46.7291486088208,115.96777665360779L46.9655912225708,115.96777665360779L47.1851450781958,115.96777665360779L47.404698933820804,115.96777665360779L47.6326971685083,115.96777665360779L47.860695403195805,115.96777665360779L48.0802492588208,115.96777665360779L48.2998031144458,115.96777665360779L48.5278013491333,115.96777665360779L48.755799583820796,115.96777665360779L48.9922421975708,115.96777665360779L49.211796053195805,115.96777665360779L49.4397942878833,115.96777665360779L49.659348143508296,115.96777665360779L49.8789019991333,115.96777665360779L50.1069002338208,115.96777665360779L50.3348984685083,115.96777665360779L50.5544523241333,115.96777665360779L50.7824505588208,115.96777665360779L51.0104487935083,115.96777665360779L51.2468914072583,115.96777665360779L51.4748896419458,115.96777665360779L51.6944434975708,115.96777665360779L51.92244173225831,115.96777665360779L52.150439966945804,142.17518601202215L52.3953269597583,115.96777665360779L52.623325194445805,115.96777665360779L52.8513234291333,115.96777665360779L53.0708772847583,115.96777665360779L53.2904311403833,115.96777665360779L53.518429375070795,115.96777665360779L53.7464276097583,115.96777665360779L53.9659814653833,115.96777665360779L54.2024240791333,115.96777665360779L54.421977934758296,115.96777665360779L54.6499761694458,115.96777665360779L54.877974404133305,115.96777665360779L55.1144170178833,115.96777665360779L55.350859631633305,115.96777665360779L55.5873022453833,115.96777665360779L55.8068561010083,115.96777665360779L56.034854335695805,115.96777665360779L56.254408191320806,115.96777665360779L56.4824064260083,115.96777665360779L56.72729341882081,115.96777665360779L56.9637360325708,115.96777665360779L57.1917342672583,115.96777665360779L57.419732501945795,115.96777665360779L57.6561751156958,115.96777665360779L57.892617729445796,115.96777665360779L58.1121715850708,115.96777665360779L58.3401698197583,115.96777665360779L58.5681680544458,115.96777665360779L58.796166289133296,142.17518601202215L59.0410532819458,115.96777665360779L59.2690515166333,115.96777665360779L59.4970497513208,115.96777665360779L59.7334923650708,115.96777665360779L59.9530462206958,115.96777665360779L60.1726000763208,115.96777665360779L60.3921539319458,115.96777665360779L60.6117077875708,115.96777665360779L60.8312616431958,115.96777665360779L61.0677042569458,142.17518601202215L61.287258112570804,115.96777665360779L61.5068119681958,142.17518601202215L61.7348102028833,115.96777665360779L61.9543640585083,142.17518601202215L62.1823622931958,115.96777665360779L62.4103605278833,142.17518601202215L62.6299143835083,115.96777665360779L62.8494682391333,142.17518601202215L63.0774664738208,115.96777665360779L63.3139090875708,142.17518601202215L63.541907322258304,115.96777665360779L63.7783499360083,142.17518601202215L64.0063481706958,115.96777665360779L64.23434640538329,142.17518601202215L64.46234464007081,115.96777665360779L64.6903428747583,142.17518601202215L64.9267854885083,115.96777665360779L65.1547837231958,115.96777665360779L65.39122633694579,142.17518601202215L65.6192245716333,115.96777665360779L65.8472228063208,142.17518601202215L66.0836654200708,115.96777665360779L66.32855241288331,142.17518601202215L66.5734394056958,115.96777665360779L66.8014376403833,142.17518601202215L67.0378802541333,115.96777665360779L67.2658784888208,115.96777665360779L67.4938767235083,142.17518601202215L67.7218749581958,115.96777665360779L67.94142881382079,142.17518601202215L68.1694270485083,115.96777665360779L68.3974252831958,115.96777665360779L68.6169791388208,142.17518601202215L68.8365329944458,115.96777665360779L69.0645312291333,142.17518601202215L69.3009738428833,115.96777665360779L69.5289720775708,115.96777665360779L69.7485259331958,142.17518601202215L69.9765241678833,115.96777665360779L70.2045224025708,115.96777665360779L70.4409650163208,115.96777665360779L70.66051887194581,115.96777665360779L70.8800727275708,115.96777665360779L71.0996265831958,142.17518601202215L71.3360691969458,115.96777665360779L71.5556230525708,142.17518601202215L71.7751769081958,115.96777665360779L71.9947307638208,142.17518601202215L72.21428461944579,115.96777665360779L72.4338384750708,142.17518601202215L72.6618367097583,142.17518601202215L72.8898349444458,115.96777665360779L73.12627755819581,142.17518601202215L73.37116455100829,142.17518601202215L73.6076071647583,115.96777665360779L73.8271610203833,115.96777665360779L74.04671487600831,142.17518601202215L74.2831574897583,142.17518601202215L74.5196001035083,115.96777665360779L74.7475983381958,142.17518601202215L74.97559657288329,115.96777665360779L75.19515042850831,115.96777665360779L75.4231486631958,142.17518601202215L75.6427025188208,142.17518601202215L75.86225637444579,115.96777665360779L76.0818102300708,142.17518601202215L76.3182528438208,142.17518601202215L76.53780669944581,142.17518601202215L76.7573605550708,115.96777665360779L76.9853587897583,142.17518601202215L77.2302457825708,142.17518601202215L77.46668839632079,115.96777665360779L77.6862422519458,115.96777665360779L77.9057961075708,142.17518601202215L78.12534996319579,142.17518601202215L78.34490381882081,142.17518601202215L78.58979081163329,142.17518601202215L78.8177890463208,142.17518601202215L79.0457872810083,142.17518601202215L79.26534113663331,142.17518601202215L79.4933393713208,142.17518601202215L79.7128932269458,142.17518601202215L79.94933584069581,142.17518601202215L80.1773340753833,142.17518601202215L80.3968879310083,142.17518601202215L80.6164417866333,142.17518601202215L80.85288440038329,142.17518601202215L81.07243825600831,142.17518601202215L81.2919921116333,142.17518601202215L81.5368791044458,142.17518601202215L81.7648773391333,142.17518601202215L82.0097643319458,142.17518601202215L82.2293181875708,142.17518601202215L82.4488720431958,142.17518601202215L82.6684258988208,142.17518601202215L82.8964241335083,142.17518601202215L83.1328667472583,142.17518601202215L83.3608649819458,142.17518601202215L83.59730759569581,142.17518601202215L83.8337502094458,142.17518601202215L84.06174844413331,142.17518601202215L84.3066354369458,142.17518601202215L84.5346336716333,142.17518601202215L84.7795206644458,142.17518601202215L85.0075188991333,142.17518601202215L85.2439615128833,142.17518601202215L85.4888485056958,142.17518601202215L85.7337354985083,142.17518601202215L85.9701781122583,142.17518601202215L86.21506510507079,142.17518601202215L86.4346189606958,142.17518601202215L86.6541728163208,142.17518601202215L86.8990598091333,142.17518601202215L87.13550242288329,142.17518601202215L87.3550562785083,142.17518601202215L87.5746101341333,142.17518601202215L87.8026083688208,142.17518601202215L88.0306066035083,142.17518601202215L88.2670492172583,142.17518601202215L88.4950474519458,142.17518601202215L88.7230456866333,142.17518601202215L88.9679326794458,142.17518601202215L89.2043752931958,142.17518601202215L89.4408179069458,142.17518601202215L89.66037176257079,142.17518601202215L89.8883699972583,142.17518601202215L90.1163682319458,142.17518601202215L90.33592208757081,142.17518601202215L90.5554759431958,142.17518601202215L90.80036293600831,142.17518601202215L91.0368055497583,142.17518601202215L91.26480378444579,142.17518601202215L91.4843576400708,142.17518601202215L91.7123558747583,142.17518601202215L91.9319097303833,142.17518601202215L92.1514635860083,142.17518601202215L92.3710174416333,142.17518601202215L92.6074600553833,142.17518601202215L92.8354582900708,142.17518601202215L93.07190090382079,142.17518601202215L93.2998991385083,142.17518601202215L93.5447861313208,142.17518601202215L93.7643399869458,142.17518601202215L94.00922697975831,142.17518601202215L94.2372252144458,142.17518601202215L94.4736678281958,142.17518601202215L94.7101104419458,142.17518601202215L94.93810867663329,142.17518601202215L95.1661069113208,142.17518601202215L95.3941051460083,142.17518601202215L95.6305477597583,142.17518601202215L95.85854599444579,142.17518601202215L96.0949886081958,142.17518601202215L96.3145424638208,142.17518601202215L96.53409631944581,142.17518601202215L96.7536501750708,142.17518601202215L96.9900927888208,142.17518601202215L97.2265354025708,159.64678881865333L97.46297801632079,142.17518601202215L97.6994206300708,142.17518601202215L97.9443076228833,142.17518601202215L98.1723058575708,142.17518601202215L98.3918597131958,159.64678881865333L98.6198579478833,142.17518601202215L98.8394118035083,142.17518601202215L99.06741003819579,142.17518601202215L99.29540827288331,142.17518601202215L99.52340650757081,142.17518601202215L99.7598491213208,142.17518601202215L99.9878473560083,142.17518601202215L100.21584559069579,142.17518601202215L100.4438438253833,142.17518601202215L100.6802864391333,142.17518601202215L100.9167290528833,142.17518601202215L101.1616160456958,142.17518601202215L101.38961428038331,142.17518601202215L101.60916813600831,142.17518601202215L101.84561074975831,142.17518601202215L102.0820533635083,142.17518601202215L102.3269403563208,142.17518601202215L102.5633829700708,142.17518601202215L102.79138120475831,142.17518601202215L103.0193794394458,142.17518601202215L103.2473776741333,142.17518601202215L103.47537590882081,142.17518601202215L103.7033741435083,142.17518601202215L103.9482611363208,159.64678881865333L104.1847037500708,142.17518601202215L104.40425760569579,142.17518601202215L104.6238114613208,142.17518601202215L104.86025407507081,142.17518601202215L105.0966966888208,142.17518601202215L105.31625054444581,159.64678881865333L105.54424877913331,142.17518601202215L105.7891357719458,142.17518601202215L106.0171340066333,142.17518601202215L106.2535766203833,142.17518601202215L106.4900192341333,142.17518601202215L106.7180174688208,142.17518601202215L106.9544600825708,142.17518601202215L107.18245831725831,142.17518601202215L107.4020121728833,142.17518601202215L107.63001040757081,142.17518601202215L107.8495642631958,142.17518601202215L108.0860068769458,142.17518601202215L108.3055607325708,159.64678881865333L108.55044772538331,142.17518601202215L108.7784459600708,142.17518601202215L108.99799981569579,142.17518601202215L109.2344424294458,142.17518601202215L109.4708850431958,142.17518601202215L109.6988832778833,142.17518601202215L109.9268815125708,142.17518601202215L110.1548797472583,142.17518601202215L110.3744336028833,142.17518601202215L110.60243183757079,142.17518601202215L110.8388744513208,142.17518601202215L111.0668726860083,142.17518601202215L111.3033152997583,142.17518601202215L111.5313135344458,142.17518601202215L111.7593117691333,142.17518601202215L111.9957543828833,142.17518601202215L112.2406413756958,142.17518601202215L112.46019523132081,142.17518601202215L112.6881934660083,142.17518601202215L112.9077473216333,142.17518601202215L113.14418993538331,142.17518601202215L113.3637437910083,142.17518601202215L113.6001864047583,159.64678881865333L113.8366290185083,142.17518601202215L114.0561828741333,142.17518601202215L114.2841811088208,142.17518601202215L114.5037349644458,142.17518601202215L114.7401775781958,142.17518601202215L114.9766201919458,142.17518601202215L115.2130628056958,142.17518601202215L115.4579497985083,142.17518601202215L115.6859480331958,142.17518601202215L115.93083502600831,142.17518601202215L116.1672776397583,142.17518601202215L116.3952758744458,142.17518601202215L116.6232741091333,142.17518601202215L116.85127234382081,142.17518601202215L117.0792705785083,142.17518601202215L117.3157131922583,142.17518601202215L117.5521558060083,142.17518601202215L117.7885984197583,142.17518601202215L118.0334854125708,142.17518601202215L118.26148364725829,142.17518601202215L118.4979262610083,159.64678881865333L118.7343688747583,142.17518601202215L118.96236710944581,142.17518601202215L119.1903653441333,142.17518601202215L119.40991919975829,142.17518601202215L119.6379174344458,142.17518601202215L119.8743600481958,142.17518601202215L120.0939139038208,142.17518601202215L120.32191213850831,159.64678881865333L120.5499103731958,142.17518601202215L120.7863529869458,142.17518601202215L121.0227956006958,142.17518601202215L121.2423494563208,142.17518601202215L121.4787920700708,142.17518601202215L121.6983459256958,142.17518601202215L121.9178997813208,142.17518601202215L122.1458980160083,159.64678881865333L122.3907850088208,142.17518601202215L122.6187832435083,142.17518601202215L122.85522585725829,142.17518601202215L123.07477971288331,142.17518601202215L123.3112223266333,142.17518601202215L123.53077618225831,142.17518601202215L123.7672187960083,142.17518601202215L124.0036614097583,142.17518601202215L124.2401040235083,142.17518601202215L124.47654663725831,142.17518601202215L124.7045448719458,142.17518601202215L124.9240987275708,142.17518601202215L125.1436525831958,142.17518601202215L125.3800951969458,142.17518601202215L125.59964905257081,142.17518601202215L125.8276472872583,142.17518601202215L126.0472011428833,142.17518601202215L126.2751993775708,142.17518601202215L126.5031976122583,142.17518601202215L126.7311958469458,142.17518601202215L126.9591940816333,142.17518601202215L127.17874793725831,142.17518601202215L127.40674617194581,142.17518601202215L127.6263000275708,142.17518601202215L127.8542982622583,142.17518601202215L128.0822964969458,142.17518601202215L128.3102947316333,142.17518601202215L128.5382929663208,142.17518601202215L128.7578468219458,142.17518601202215L128.97740067757078,142.17518601202215L129.19695453319582,142.17518601202215L129.44184152600832,142.17518601202215L129.6867285188208,142.17518601202215L129.9062823744458,142.17518601202215L130.1258362300708,142.17518601202215L130.3453900856958,142.17518601202215L130.58183269944578,142.17518601202215L130.80138655507082,142.17518601202215L131.0293847897583,142.17518601202215L131.2573830244458,142.17518601202215L131.4769368800708,142.17518601202215L131.6964907356958,142.17518601202215L131.92448897038332,142.17518601202215L132.1524872050708,142.17518601202215L132.3804854397583,142.17518601202215L132.6084836744458,142.17518601202215L132.8364819091333,142.17518601202215L133.0644801438208,142.17518601202215L133.3009227575708,142.17518601202215L133.52892099225832,142.17518601202215L133.7569192269458,142.17518601202215L134.0018062197583,142.17518601202215L134.2298044544458,159.64678881865333L134.4493583100708,142.17518601202215L134.6689121656958,142.17518601202215L134.89691040038332,142.17518601202215L135.1164642560083,142.17518601202215L135.34446249069578,142.17518601202215L135.5640163463208,142.17518601202215L135.7920145810083,142.17518601202215L136.02001281569582,142.17518601202215L136.2480110503833,142.17518601202215L136.4844536641333,159.64678881865333L136.7208962778833,142.17518601202215L136.9573388916333,142.17518601202215L137.1853371263208,142.17518601202215L137.4302241191333,142.17518601202215L137.6582223538208,142.17518601202215L137.8862205885083,142.17518601202215L138.1311075813208,142.17518601202215L138.35910581600828,142.17518601202215L138.5871040506958,142.17518601202215L138.8066579063208,142.17518601202215L139.0431005200708,142.17518601202215L139.2626543756958,142.17518601202215L139.48220823132078,159.64678881865333L139.71865084507078,142.17518601202215L139.9382047006958,142.17518601202215L140.1662029353833,142.17518601202215L140.4026455491333,142.17518601202215L140.6390881628833,142.17518601202215L140.8670863975708,142.17518601202215L141.0950846322583,142.17518601202215L141.3399716250708,142.17518601202215L141.5679698597583,142.17518601202215L141.80441247350828,142.17518601202215L142.0324107081958,142.17518601202215L142.2519645638208,142.17518601202215L142.4715184194458,142.17518601202215L142.7079610331958,142.17518601202215L142.9444036469458,142.17518601202215L143.1808462606958,142.17518601202215L143.4172888744458,142.17518601202215L143.6368427300708,142.17518601202215L143.8817297228833,142.17518601202215L144.1012835785083,159.64678881865333L144.3292818131958,142.17518601202215L144.5572800478833,142.17518601202215L144.7768339035083,142.17518601202215L145.0217208963208,142.17518601202215L145.2412747519458,142.17518601202215L145.4608286075708,142.17518601202215L145.68882684225832,142.17518601202215L145.9168250769458,142.17518601202215L146.1617120697583,142.17518601202215L146.40659906257082,142.17518601202215L146.6345972972583,142.17518601202215L146.8794842900708,159.64678881865333L147.12437128288332,142.17518601202215L147.3692582756958,142.17518601202215L147.6057008894458,142.17518601202215L147.8421435031958,159.64678881865333L148.0701417378833,142.17518601202215L148.3150287306958,142.17518601202215L148.5430269653833,142.17518601202215L148.7710252000708,159.64678881865333L149.0074678138208,142.17518601202215L149.2270216694458,159.64678881865333L149.4719086622583,142.17518601202215L149.6914625178833,142.17518601202215L149.9279051316333,142.17518601202215L150.15590336632079,142.17518601202215L150.38390160100832,142.17518601202215L150.6034554566333,142.17518601202215L150.8398980703833,142.17518601202215L151.0763406841333,142.17518601202215L151.2958945397583,142.17518601202215L151.5407815325708,142.17518601202215L151.7687797672583,142.17518601202215L151.98833362288332,142.17518601202215L152.22477623663332,142.17518601202215L152.4696632294458,159.64678881865333L152.69766146413332,142.17518601202215L152.9256596988208,142.17518601202215L153.1536579335083,142.17518601202215L153.3816561681958,142.17518601202215L153.6096544028833,142.17518601202215L153.82920825850832,142.17518601202215L154.0487621141333,142.17518601202215L154.2852047278833,159.64678881865333L154.5132029625708,142.17518601202215L154.7496455763208,142.17518601202215L154.9776438110083,142.17518601202215L155.20564204569578,159.64678881865333L155.43364028038332,142.17518601202215L155.6531941360083,159.64678881865333L155.8727479916333,142.17518601202215L156.09230184725828,142.17518601202215L156.32030008194582,142.17518601202215L156.55674269569582,159.64678881865333L156.79318530944582,142.17518601202215L157.0211835441333,159.64678881865333L157.2407373997583,142.17518601202215L157.48562439257083,142.17518601202215L157.7051782481958,142.17518601202215L157.9500652410083,159.64678881865333L158.1780634756958,142.17518601202215L158.39761733132082,142.17518601202215L158.6171711869458,142.17518601202215L158.8620581797583,159.64678881865333L159.09005641444583,142.17518601202215L159.3096102700708,142.17518601202215L159.53760850475828,142.17518601202215L159.76560673944581,159.64678881865333L159.9851605950708,142.17518601202215L160.2216032088208,159.64678881865333L160.4496014435083,142.17518601202215L160.6691552991333,159.64678881865333L160.90559791288328,142.17518601202215L161.14204052663328,142.17518601202215L161.36159438225832,142.17518601202215L161.6064813750708,159.64678881865333L161.8513683678833,142.17518601202215L162.07936660257081,159.64678881865333L162.29892045819582,142.17518601202215L162.5269186928833,142.17518601202215L162.74647254850828,142.17518601202215L162.9744707831958,142.17518601202215L163.2024690178833,142.17518601202215L163.4389116316333,142.17518601202215L163.6584654872583,159.64678881865333L163.8864637219458,142.17518601202215L164.1144619566333,159.64678881865333L164.35090457038328,142.17518601202215L164.5789028050708,159.64678881865333L164.8153454188208,142.17518601202215L165.0517880325708,159.64678881865333L165.2882306463208,142.17518601202215L165.50778450194582,142.17518601202215L165.7273383575708,142.17518601202215L165.95533659225828,159.64678881865333L166.19177920600828,142.17518601202215L166.4282218197583,159.64678881865333L166.6562200544458,142.17518601202215L166.8926626681958,159.64678881865333L167.1206609028833,142.17518601202215L167.34865913757082,159.64678881865333L167.59354613038332,142.17518601202215L167.8215443650708,159.64678881865333L168.0579869788208,142.17518601202215L168.2944295925708,142.17518601202215L168.5308722063208,142.17518601202215L168.7757591991333,142.17518601202215L169.0122018128833,159.64678881865333L169.2402000475708,142.17518601202215L169.4597539031958,159.64678881865333L169.68775213788328,142.17518601202215L169.90730599350832,159.64678881865333L170.1437486072583,142.17518601202215L170.3633024628833,159.64678881865333L170.5828563185083,142.17518601202215L170.8024101741333,159.64678881865333L171.03040840882082,142.17518601202215L171.2668510225708,142.17518601202215L171.4948492572583,142.17518601202215L171.7228474919458,159.64678881865333L171.96773448475832,142.17518601202215L172.1957327194458,142.17518601202215L172.4237309541333,142.17518601202215L172.6601735678833,159.64678881865333L172.8881718025708,142.17518601202215L173.1077256581958,159.64678881865333L173.3357238928833,142.17518601202215L173.5637221275708,159.64678881865333L173.7917203622583,142.17518601202215L174.01971859694578,142.17518601202215L174.2477168316333,142.17518601202215L174.4757150663208,142.17518601202215L174.7037133010083,142.17518601202215L174.9401559147583,142.17518601202215L175.1681541494458,159.64678881865333L175.41304114225832,142.17518601202215L175.6410393769458,142.17518601202215L175.8690376116333,142.17518601202215L176.1139246044458,159.64678881865333L176.3588115972583,142.17518601202215L176.5868098319458,142.17518601202215L176.8148080666333,142.17518601202215L177.03436192225828,142.17518601202215L177.25391577788332,142.17518601202215L177.4903583916333,142.17518601202215L177.7183566263208,142.17518601202215L177.9547992400708,142.17518601202215L178.1827974747583,142.17518601202215L178.4023513303833,159.64678881865333L178.6303495650708,142.17518601202215L178.85834779975832,142.17518601202215L179.0779016553833,142.17518601202215L179.2974555110083,159.64678881865333L179.5338981247583,142.17518601202215L179.76189635944579,159.64678881865333L179.98989459413332,142.17518601202215L180.2094484497583,142.17518601202215L180.4374466844458,142.17518601202215L180.67388929819577,142.17518601202215L180.8934431538208,142.17518601202215L181.12988576757078,159.64678881865333L181.36632838132078,142.17518601202215L181.60277099507078,142.17518601202215L181.8223248506958,142.17518601202215L182.0418787063208,159.64678881865333L182.2698769410083,142.17518601202215L182.5063195547583,159.64678881865333L182.7343177894458,142.17518601202215L182.95387164507082,159.64678881865333L183.19031425882082,142.17518601202215L183.43520125163332,159.64678881865333L183.6800882444458,142.17518601202215L183.9165308581958,159.64678881865333L184.1445290928833,142.17518601202215L184.3640829485083,159.64678881865333L184.5836368041333,142.17518601202215L184.81163503882078,159.64678881865333L185.0311888944458,142.17518601202215L185.2507427500708,142.17518601202215L185.4702966056958,142.17518601202215L185.7151835985083,159.64678881865333L185.9516262122583,142.17518601202215L186.1880688260083,142.17518601202215L186.4245114397583,142.17518601202215L186.65250967444578,142.17518601202215L186.8805079091333,142.17518601202215L187.11695052288331,142.17518601202215L187.3618375156958,142.17518601202215L187.5813913713208,159.64678881865333L187.80938960600832,142.17518601202215L188.0289434616333,159.64678881865333L188.2484973172583,142.17518601202215L188.4680511728833,159.64678881865333L188.69604940757083,142.17518601202215L188.9156032631958,159.64678881865333L189.1520458769458,142.17518601202215L189.37159973257081,142.17518601202215L189.5911535881958,159.64678881865333L189.8107074438208,159.64678881865333L190.0555944366333,142.17518601202215L190.2920370503833,159.64678881865333L190.5284796641333,142.17518601202215L190.7649222778833,142.17518601202215L190.9929205125708,142.17518601202215L191.2378075053833,142.17518601202215L191.4573613610083,159.64678881865333L191.68535959569581,142.17518601202215L191.9133578303833,142.17518601202215L192.14135606507082,142.17518601202215L192.3693542997583,142.17518601202215L192.58890815538328,142.17518601202215L192.8253507691333,142.17518601202215L193.0533490038208,142.17518601202215L193.2813472385083,159.64678881865333L193.52623423132079,159.64678881865333L193.76267684507079,159.64678881865333L193.9991194588208,159.64678881865333L194.2355620725708,142.17518601202215L194.4551159281958,159.64678881865333L194.67466978382078,142.17518601202215L194.9111123975708,142.17518601202215L195.13066625319578,142.17518601202215L195.3586644878833,142.17518601202215L195.58666272257082,159.64678881865333L195.8231053363208,142.17518601202215L196.0511035710083,159.64678881865333L196.27910180569577,142.17518601202215L196.4986556613208,159.64678881865333L196.7350982750708,142.17518601202215L196.95465213069582,159.64678881865333L197.19109474444582,159.64678881865333L197.43598173725832,142.17518601202215L197.6555355928833,142.17518601202215L197.88353382757077,142.17518601202215L198.1030876831958,159.64678881865333L198.3479746760083,159.64678881865333L198.5844172897583,159.64678881865333L198.81241552444578,142.17518601202215L199.04885813819578,142.17518601202215L199.2684119938208,142.17518601202215L199.48796584944583,159.64678881865333L199.7159640841333,159.64678881865333L199.9439623188208,142.17518601202215L200.17196055350828,159.64678881865333L200.39995878819582,142.17518601202215L200.63640140194582,159.64678881865333L200.88128839475831,159.64678881865333L201.1092866294458,159.64678881865333L201.3372848641333,142.17518601202215L201.5652830988208,142.17518601202215L201.7932813335083,159.64678881865333L202.0297239472583,142.17518601202215L202.2492778028833,142.17518601202215L202.4688316585083,142.17518601202215L202.6883855141333,159.64678881865333L202.9248281278833,159.64678881865333L203.1612707416333,159.64678881865333L203.3977133553833,142.17518601202215L203.6341559691333,159.64678881865333L203.86215420382078,142.17518601202215L204.0817080594458,142.17518601202215L204.3097062941333,142.17518601202215L204.5292601497583,159.64678881865333L204.7741471425708,159.64678881865333L205.0021453772583,159.64678881865333L205.23014361194578,159.64678881865333L205.46658622569578,159.64678881865333L205.7030288394458,159.64678881865333L205.9310270741333,142.17518601202215L206.1590253088208,159.64678881865333L206.38702354350832,159.64678881865333L206.6150217781958,159.64678881865333L206.8514643919458,159.64678881865333L207.07101824757078,159.64678881865333L207.3159052403833,142.17518601202215L207.5354590960083,171.29452745538586L207.7634573306958,159.64678881865333L207.99145556538332,159.64678881865333L208.2110094210083,159.64678881865333L208.4390076556958,159.64678881865333L208.6838946485083,159.64678881865333L208.9034485041333,159.64678881865333L209.1398911178833,159.64678881865333L209.3594449735083,159.64678881865333L209.59588758725832,159.64678881865333L209.8238858219458,159.64678881865333L210.0603284356958,159.64678881865333L210.2883266703833,159.64678881865333L210.5247692841333,142.17518601202215L210.7527675188208,159.64678881865333L210.97232137444578,142.17518601202215L211.20876398819578,159.64678881865333L211.44520660194578,159.64678881865333L211.67320483663332,142.17518601202215L211.9012030713208,159.64678881865333L212.1292013060083,159.64678881865333L212.3487551616333,142.17518601202215L212.57675339632078,159.64678881865333L212.79630725194582,159.64678881865333L213.0327498656958,159.64678881865333L213.2523037213208,159.64678881865333L213.4887463350708,159.64678881865333L213.7251889488208,159.64678881865333L213.9531871835083,142.17518601202215L214.17274103913329,159.64678881865333L214.3922948947583,142.17518601202215L214.6287375085083,159.64678881865333L214.8567357431958,142.17518601202215L215.0762895988208,159.64678881865333L215.30428783350828,142.17518601202215L215.52384168913332,159.64678881865333L215.7433955447583,142.17518601202215L215.9713937794458,142.17518601202215L216.2078363931958,159.64678881865333L216.4442790069458,159.64678881865333L216.6807216206958,142.17518601202215L216.9171642344458,142.17518601202215L217.13671809007081,142.17518601202215L217.38160508288328,142.17518601202215L217.60960331757082,142.17518601202215L217.8544903103833,142.17518601202215L218.0909329241333,142.17518601202215L218.3273755378833,142.17518601202215L218.5553737725708,142.17518601202215L218.78337200725832,142.17518601202215L219.01981462100832,142.17518601202215L219.2562572347583,142.17518601202215L219.50114422757082,142.17518601202215L219.7291424622583,142.17518601202215L219.94869631788328,142.17518601202215L220.1766945525708,142.17518601202215L220.4131371663208,142.17518601202215L220.6495797800708,142.17518601202215L220.87757801475829,142.17518601202215L221.11402062850829,142.17518601202215L221.34201886319582,142.17518601202215L221.58690585600831,142.17518601202215L221.8064597116333,142.17518601202215L222.0344579463208,142.17518601202215L222.2624561810083,142.17518601202215L222.5073431738208,142.17518601202215L222.7437857875708,142.17518601202215L222.9802284013208,142.17518601202215L223.2251153941333,142.17518601202215L223.4531136288208,142.17518601202215L223.6895562425708,142.17518601202215L223.9259988563208,142.17518601202215L224.1539970910083,142.17518601202215L224.3904397047583,142.17518601202215L224.6268823185083,142.17518601202215L224.85488055319578,142.17518601202215L225.09132316694578,142.17518601202215L225.31932140163332,142.17518601202215L225.5388752572583,142.17518601202215L225.7668734919458,142.17518601202215L225.9864273475708,159.64678881865333L226.2059812031958,142.17518601202215L226.4255350588208,159.64678881865333L226.6535332935083,142.17518601202215L226.88997590725828,159.64678881865333L227.1179741419458,142.17518601202215" fill="none"></path></g></g></g></g></g></g><g transform="translate(72, 176)" clip-path="url(#clip_1)"><clipPath id="clip_1"><rect width="257" height="23"></rect></clipPath><g><g><line x1="0" y1="0" x2="0" y2="5" style="visibility: inherit;" fill="rgb(0, 0, 0)" stroke="rgb(204, 204, 204)" stroke-width="1px"></line><line x1="25.7701997756958" y1="0" x2="25.7701997756958" y2="5" style="visibility: inherit;" fill="rgb(0, 0, 0)" stroke="rgb(204, 204, 204)" stroke-width="1px"></line><line x1="51.5403995513916" y1="0" x2="51.5403995513916" y2="5" style="visibility: inherit;" fill="rgb(0, 0, 0)" stroke="rgb(204, 204, 204)" stroke-width="1px"></line><line x1="77.3105993270874" y1="0" x2="77.3105993270874" y2="5" style="visibility: inherit;" fill="rgb(0, 0, 0)" stroke="rgb(204, 204, 204)" stroke-width="1px"></line><line x1="103.0807991027832" y1="0" x2="103.0807991027832" y2="5" style="visibility: inherit;" fill="rgb(0, 0, 0)" stroke="rgb(204, 204, 204)" stroke-width="1px"></line><line x1="128.850998878479" y1="0" x2="128.850998878479" y2="5" style="visibility: inherit;" fill="rgb(0, 0, 0)" stroke="rgb(204, 204, 204)" stroke-width="1px"></line><line x1="154.6211986541748" y1="0" x2="154.6211986541748" y2="5" style="visibility: inherit;" fill="rgb(0, 0, 0)" stroke="rgb(204, 204, 204)" stroke-width="1px"></line><line x1="180.3913984298706" y1="0" x2="180.3913984298706" y2="5" style="visibility: inherit;" fill="rgb(0, 0, 0)" stroke="rgb(204, 204, 204)" stroke-width="1px"></line><line x1="206.1615982055664" y1="0" x2="206.1615982055664" y2="5" style="visibility: inherit;" fill="rgb(0, 0, 0)" stroke="rgb(204, 204, 204)" stroke-width="1px"></line><line x1="231.9317979812622" y1="0" x2="231.9317979812622" y2="5" style="visibility: inherit;" fill="rgb(0, 0, 0)" stroke="rgb(204, 204, 204)" stroke-width="1px"></line><line x1="257.701997756958" y1="0" x2="257.701997756958" y2="5" style="visibility: inherit;" fill="rgb(0, 0, 0)" stroke="rgb(204, 204, 204)" stroke-width="1px"></line></g><g transform="translate(0, 8)"><text style="text-anchor: middle; visibility: hidden; font-family: Roboto, sans-serif; font-size: 12px; font-weight: 200;" x="0" y="0" dx="0em" dy="0.95em" fill="rgb(33, 33, 33)" stroke="none" stroke-width="1px">-50M</text><text style="text-anchor: middle; visibility: inherit; font-family: Roboto, sans-serif; font-size: 12px; font-weight: 200;" x="25.7701997756958" y="0" dx="0em" dy="0.95em" fill="rgb(33, 33, 33)" stroke="none" stroke-width="1px">0</text><text style="text-anchor: middle; visibility: hidden; font-family: Roboto, sans-serif; font-size: 12px; font-weight: 200;" x="51.5403995513916" y="0" dx="0em" dy="0.95em" fill="rgb(33, 33, 33)" stroke="none" stroke-width="1px">50M</text><text style="text-anchor: middle; visibility: inherit; font-family: Roboto, sans-serif; font-size: 12px; font-weight: 200;" x="77.3105993270874" y="0" dx="0em" dy="0.95em" fill="rgb(33, 33, 33)" stroke="none" stroke-width="1px">100M</text><text style="text-anchor: middle; visibility: hidden; font-family: Roboto, sans-serif; font-size: 12px; font-weight: 200;" x="103.0807991027832" y="0" dx="0em" dy="0.95em" fill="rgb(33, 33, 33)" stroke="none" stroke-width="1px">150M</text><text style="text-anchor: middle; visibility: inherit; font-family: Roboto, sans-serif; font-size: 12px; font-weight: 200;" x="128.850998878479" y="0" dx="0em" dy="0.95em" fill="rgb(33, 33, 33)" stroke="none" stroke-width="1px">200M</text><text style="text-anchor: middle; visibility: hidden; font-family: Roboto, sans-serif; font-size: 12px; font-weight: 200;" x="154.6211986541748" y="0" dx="0em" dy="0.95em" fill="rgb(33, 33, 33)" stroke="none" stroke-width="1px">250M</text><text style="text-anchor: middle; visibility: inherit; font-family: Roboto, sans-serif; font-size: 12px; font-weight: 200;" x="180.3913984298706" y="0" dx="0em" dy="0.95em" fill="rgb(33, 33, 33)" stroke="none" stroke-width="1px">300M</text><text style="text-anchor: middle; visibility: hidden; font-family: Roboto, sans-serif; font-size: 12px; font-weight: 200;" x="206.1615982055664" y="0" dx="0em" dy="0.95em" fill="rgb(33, 33, 33)" stroke="none" stroke-width="1px">350M</text><text style="text-anchor: middle; visibility: inherit; font-family: Roboto, sans-serif; font-size: 12px; font-weight: 200;" x="231.9317979812622" y="0" dx="0em" dy="0.95em" fill="rgb(33, 33, 33)" stroke="none" stroke-width="1px">400M</text><text style="text-anchor: middle; visibility: hidden; font-family: Roboto, sans-serif; font-size: 12px; font-weight: 200;" x="257.701997756958" y="0" dx="0em" dy="0.95em" fill="rgb(33, 33, 33)" stroke="none" stroke-width="1px">450M</text></g><line x1="0" y1="0" x2="257.701997756958" y2="0" fill="rgb(0, 0, 0)" stroke="rgb(204, 204, 204)" stroke-width="1px"></line></g></g></g></g></svg>