<svg viewBox="0 0 330 200" xmlns="http://www.w3.org/2000/svg"><g><g><g><g><g><line x1="41.149001121520996" y1="176.89999961853027" x2="36.149001121520996" y2="176.89999961853027" style="visibility: inherit;" fill="rgb(0, 0, 0)" stroke="rgb(204, 204, 204)" stroke-width="1px"></line><line x1="41.149001121520996" y1="157.24444410536023" x2="36.149001121520996" y2="157.24444410536023" style="visibility: inherit;" fill="rgb(0, 0, 0)" stroke="rgb(204, 204, 204)" stroke-width="1px"></line><line x1="41.149001121520996" y1="137.58888859219022" x2="36.149001121520996" y2="137.58888859219022" style="visibility: inherit;" fill="rgb(0, 0, 0)" stroke="rgb(204, 204, 204)" stroke-width="1px"></line><line x1="41.149001121520996" y1="117.9333330790202" x2="36.149001121520996" y2="117.9333330790202" style="visibility: inherit;" fill="rgb(0, 0, 0)" stroke="rgb(204, 204, 204)" stroke-width="1px"></line><line x1="41.149001121520996" y1="98.27777756585016" x2="36.149001121520996" y2="98.27777756585016" style="visibility: inherit;" fill="rgb(0, 0, 0)" stroke="rgb(204, 204, 204)" stroke-width="1px"></line><line x1="41.149001121520996" y1="78.62222205268012" x2="36.149001121520996" y2="78.62222205268012" style="visibility: inherit;" fill="rgb(0, 0, 0)" stroke="rgb(204, 204, 204)" stroke-width="1px"></line><line x1="41.149001121520996" y1="58.9666665395101" x2="36.149001121520996" y2="58.9666665395101" style="visibility: inherit;" fill="rgb(0, 0, 0)" stroke="rgb(204, 204, 204)" stroke-width="1px"></line><line x1="41.149001121520996" y1="39.31111102634006" x2="36.149001121520996" y2="39.31111102634006" style="visibility: inherit;" fill="rgb(0, 0, 0)" stroke="rgb(204, 204, 204)" stroke-width="1px"></line><line x1="41.149001121520996" y1="19.65555551317004" x2="36.149001121520996" y2="19.65555551317004" style="visibility: inherit;" fill="rgb(0, 0, 0)" stroke="rgb(204, 204, 204)" stroke-width="1px"></line><line x1="41.149001121520996" y1="0" x2="36.149001121520996" y2="0" style="visibility: inherit;" fill="rgb(0, 0, 0)" stroke="rgb(204, 204, 204)" stroke-width="1px"></line></g><g transform="translate(31.149001121520996, 0)"><text style="text-anchor: end; visibility: hidden; font-family: Roboto, sans-serif; font-size: 12px; font-weight: 200;" x="0" y="176.89999961853027" dx="0em" dy="0.3em" fill="rgb(33, 33, 33)" stroke="none" stroke-width="1px">0</text><text style="text-anchor: end; visibility: inherit; font-family: Roboto, sans-serif; font-size: 12px; font-weight: 200;" x="0" y="157.24444410536023" dx="0em" dy="0.3em" fill="rgb(33, 33, 33)" stroke="none" stroke-width="1px">100</text><text style="text-anchor: end; visibility: hidden; font-family: Roboto, sans-serif; font-size: 12px; font-weight: 200;" x="0" y="137.58888859219022" dx="0em" dy="0.3em" fill="rgb(33, 33, 33)" stroke="none" stroke-width="1px">200</text><text style="text-anchor: end; visibility: inherit; font-family: Roboto, sans-serif; font-size: 12px; font-weight: 200;" x="0" y="117.9333330790202" dx="0em" dy="0.3em" fill="rgb(33, 33, 33)" stroke="none" stroke-width="1px">300</text><text style="text-anchor: end; visibility: hidden; font-family: Roboto, sans-serif; font-size: 12px; font-weight: 200;" x="0" y="98.27777756585016" dx="0em" dy="0.3em" fill="rgb(33, 33, 33)" stroke="none" stroke-width="1px">400</text><text style="text-anchor: end; visibility: inherit; font-family: Roboto, sans-serif; font-size: 12px; font-weight: 200;" x="0" y="78.62222205268012" dx="0em" dy="0.3em" fill="rgb(33, 33, 33)" stroke="none" stroke-width="1px">500</text><text style="text-anchor: end; visibility: hidden; font-family: Roboto, sans-serif; font-size: 12px; font-weight: 200;" x="0" y="58.9666665395101" dx="0em" dy="0.3em" fill="rgb(33, 33, 33)" stroke="none" stroke-width="1px">600</text><text style="text-anchor: end; visibility: inherit; font-family: Roboto, sans-serif; font-size: 12px; font-weight: 200;" x="0" y="39.31111102634006" dx="0em" dy="0.3em" fill="rgb(33, 33, 33)" stroke="none" stroke-width="1px">700</text><text style="text-anchor: end; visibility: hidden; font-family: Roboto, sans-serif; font-size: 12px; font-weight: 200;" x="0" y="19.65555551317004" dx="0em" dy="0.3em" fill="rgb(33, 33, 33)" stroke="none" stroke-width="1px">800</text><text style="text-anchor: end; visibility: hidden; font-family: Roboto, sans-serif; font-size: 12px; font-weight: 200;" x="0" y="0" dx="0em" dy="0.3em" fill="rgb(33, 33, 33)" stroke="none" stroke-width="1px">900</text></g><line x1="41.149001121520996" y1="0" x2="41.149001121520996" y2="176.89999961853027" fill="rgb(0, 0, 0)" stroke="rgb(204, 204, 204)" stroke-width="1px"></line></g></g><g transform="translate(41, 0)" clip-path="url(#clip_0)"><clipPath id="clip_0"><rect width="288" height="176"></rect></clipPath><g><g><g><line x1="0" y1="0" x2="0" y2="176.89999961853027" fill="rgb(0, 0, 0)" stroke="rgb(66, 66, 66)" stroke-width="1px" opacity="0.25"></line><line x1="28.8850998878479" y1="0" x2="28.8850998878479" y2="176.89999961853027" fill="rgb(0, 0, 0)" stroke="rgb(66, 66, 66)" stroke-width="1px" opacity="0.25"></line><line x1="57.7701997756958" y1="0" x2="57.7701997756958" y2="176.89999961853027" fill="rgb(0, 0, 0)" stroke="rgb(66, 66, 66)" stroke-width="1px" opacity="0.25"></line><line x1="86.6552996635437" y1="0" x2="86.6552996635437" y2="176.89999961853027" fill="rgb(0, 0, 0)" stroke="rgb(66, 66, 66)" stroke-width="1px" opacity="0.25"></line><line x1="115.5403995513916" y1="0" x2="115.5403995513916" y2="176.89999961853027" fill="rgb(0, 0, 0)" stroke="rgb(66, 66, 66)" stroke-width="1px" opacity="0.25"></line><line x1="144.4254994392395" y1="0" x2="144.4254994392395" y2="176.89999961853027" fill="rgb(0, 0, 0)" stroke="rgb(66, 66, 66)" stroke-width="1px" opacity="0.25"></line><line x1="173.3105993270874" y1="0" x2="173.3105993270874" y2="176.89999961853027" fill="rgb(0, 0, 0)" stroke="rgb(66, 66, 66)" stroke-width="1px" opacity="0.25"></line><line x1="202.1956992149353" y1="0" x2="202.1956992149353" y2="176.89999961853027" fill="rgb(0, 0, 0)" stroke="rgb(66, 66, 66)" stroke-width="1px" opacity="0.25"></line><line x1="231.0807991027832" y1="0" x2="231.0807991027832" y2="176.89999961853027" fill="rgb(0, 0, 0)" stroke="rgb(66, 66, 66)" stroke-width="1px" opacity="0.25"></line><line x1="259.9658989906311" y1="0" x2="259.9658989906311" y2="176.89999961853027" fill="rgb(0, 0, 0)" stroke="rgb(66, 66, 66)" stroke-width="1px" opacity="0.25"></line><line x1="288.850998878479" y1="0" x2="288.850998878479" y2="176.89999961853027" fill="rgb(0, 0, 0)" stroke="rgb(66, 66, 66)" stroke-width="1px" opacity="0.25"></line></g><g><line x1="0" y1="176.89999961853027" x2="288.850998878479" y2="176.89999961853027" fill="rgb(0, 0, 0)" stroke="rgb(66, 66, 66)" stroke-width="1px" opacity="0.25"></line><line x1="0" y1="157.24444410536023" x2="288.850998878479" y2="157.24444410536023" fill="rgb(0, 0, 0)" stroke="rgb(66, 66, 66)" stroke-width="1px" opacity="0.25"></line><line x1="0" y1="137.58888859219022" x2="288.850998878479" y2="137.58888859219022" fill="rgb(0, 0, 0)" stroke="rgb(66, 66, 66)" stroke-width="1px" opacity="0.25"></line><line x1="0" y1="117.9333330790202" x2="288.850998878479" y2="117.9333330790202" fill="rgb(0, 0, 0)" stroke="rgb(66, 66, 66)" stroke-width="1px" opacity="0.25"></line><line x1="0" y1="98.27777756585016" x2="288.850998878479" y2="98.27777756585016" fill="rgb(0, 0, 0)" stroke="rgb(66, 66, 66)" stroke-width="1px" opacity="0.25"></line><line x1="0" y1="78.62222205268012" x2="288.850998878479" y2="78.62222205268012" fill="rgb(0, 0, 0)" stroke="rgb(66, 66, 66)" stroke-width="1px" opacity="0.25"></line><line x1="0" y1="58.9666665395101" x2="288.850998878479" y2="58.9666665395101" fill="rgb(0, 0, 0)" stroke="rgb(66, 66, 66)" stroke-width="1px" opacity="0.25"></line><line x1="0" y1="39.31111102634006" x2="288.850998878479" y2="39.31111102634006" fill="rgb(0, 0, 0)" stroke="rgb(66, 66, 66)" stroke-width="1px" opacity="0.25"></line><line x1="0" y1="19.65555551317004" x2="288.850998878479" y2="19.65555551317004" fill="rgb(0, 0, 0)" stroke="rgb(66, 66, 66)" stroke-width="1px" opacity="0.25"></line><line x1="0" y1="0" x2="288.850998878479" y2="0" fill="rgb(0, 0, 0)" stroke="rgb(66, 66, 66)" stroke-width="1px" opacity="0.25"></line></g></g></g><g><g><line x1="0" y1="176.89999961853027" x2="288.850998878479" y2="176.89999961853027" fill="rgb(0, 0, 0)" stroke="rgb(153, 153, 153)" stroke-width="1.5px"></line></g></g><g><g><line x1="28.8850998878479" y1="0" x2="28.8850998878479" y2="176.89999961853027" fill="rgb(0, 0, 0)" stroke="rgb(153, 153, 153)" stroke-width="1.5px"></line></g></g><g><g><g><g><g><path style="fill: none;" stroke="rgb(187, 187, 187)" stroke-width="2px" d="M28.8850998878479,176.7034440633986L29.159586904254148,176.58059684144126L29.4151437815979,176.4427071025096L29.67070065894165,176.29154455448287L29.91679246675415,176.12919084542185L30.1723493440979,175.95778385794125L30.4184411519104,175.77931872629895L30.664532959722898,175.59552629976724L30.910624767535403,175.40782402230758L31.166181644879153,175.21732013611876L31.4406686612854,175.02484920764172L31.705690608160403,174.83102078507852L31.9707125550354,174.6362690725217L32.24519957144165,174.44089708055924L32.49129137925415,174.24511271008623L32.7657783956604,174.0490566110406L33.0118702034729,173.85282282331596L33.2579620112854,173.65647360323516L33.51351888862915,173.4600498210778L33.77854083550415,173.26357811568835L34.02463264331665,173.06707574305597L34.28965459019165,172.8705538214317L34.53574639800415,172.6740194809684L34.78183820581665,172.4774772754369L35.027930013629145,172.280930102568L35.27402182144165,172.08437980030433L35.52011362925415,171.88782753100298L35.76620543706665,171.69127402783647L36.01229724487915,171.49471975216457L36.25838905269165,171.29816499367732L36.50448086050415,171.1016099339135L36.75057266831666,170.90505468643127L36.99666447612915,170.7084993221465L37.24275628394165,170.51194388527736L37.48884809175415,170.3153884033558L37.73493989956665,170.11883289350175L37.98103170737915,169.92227736634757L38.22712351519165,169.72572182848896L38.47321532300415,169.52916628401303L38.71930713081665,169.33261073545L38.96539893862915,169.13605518436455L39.211490746441655,168.9394996317237L39.457582554254145,168.7429440781243L39.70367436206665,168.54638852393472L39.949766169879155,168.3498329693819L40.195857977691645,168.15327741460572L40.44194978550415,167.95672185969224L40.688041593316655,167.76016630469437L40.934133401129145,167.56361074964477L41.18022520894165,167.36705519456336L41.4357820862854,167.1704996394625L41.69133896362915,166.97394408434968L41.93743077144165,166.7773885292295L42.18352257925415,166.58083297410488L42.4390794565979,166.38427741897752L42.6851712644104,166.18772186384845L42.9312630722229,165.99116630871836L43.18681994956665,165.79461075358768L43.4423768269104,165.59805519845656L43.7073987737854,165.40149964332522L43.96295565112915,165.20494408819374L44.22797759800415,165.0083885330622L44.47406940581665,164.81183297793058L44.7296262831604,164.61527742279893L44.9757180909729,164.41872186766724L45.23127496831665,164.22216631253556L45.4868318456604,164.02561075740388L45.74238872300415,163.8290552022722L46.00741066987915,163.6324996471405L46.253502477691654,163.4359440920088L46.49959428550415,163.2393885368771L46.764616232379154,163.0428329817454L47.020173109722904,162.8462774266137L47.2662649175354,162.649721871482L47.5123567253479,162.4531663163503L47.758448533160404,162.25661076121858L48.01400541050415,162.0600552060869L48.26009721831665,161.86349965095522L48.5156540956604,161.66694409582348L48.77121097300415,161.4703885406918L49.03623291987915,161.2738329855601L49.28232472769165,161.0772774304284L49.52841653550415,160.8807218752967L49.802903551910404,160.684166320165L50.0679254987854,160.4876107650333L50.32348237612915,160.2910552099016L50.56957418394165,160.0944996547699L50.81566599175415,159.89794409963818L51.08068793862915,159.7013885445065L51.3551749550354,159.5048329893748L51.610731832379145,159.3082774342431L51.866288709722895,159.1117218791114L52.1123805175354,158.9151663239797L52.3774024644104,158.718610768848L52.6424244112854,158.5220552137163L52.8885162190979,158.3254996585846L53.134608026910406,158.12894410345288L53.390164904254156,157.9323885483212L53.6457217815979,157.7358329931895L53.8918135894104,157.53927743805778L54.1379053972229,157.3427218829261L54.39346227456665,157.1461663277944L54.649019151910394,156.9496107726627L54.914041098785404,156.753055217531L55.1601329065979,156.5564996623993L55.41568978394165,156.3599441072676L55.66178159175415,156.1633885521359L55.90787339956665,155.9668329970042L56.1634302769104,155.77027744187248L56.41898715425415,155.5737218867408L56.66507896206665,155.3771663316091L56.9206358394104,155.18061077647738L57.17619271675415,154.98405522134567L57.441214663629154,154.787499666214L57.696771540972904,154.5909441110823L57.9428633487854,154.3943885559506L58.19842022612915,154.1978330008189L58.4539771034729,154.00127744568718L58.728464119879156,153.8047218905555L58.9840209972229,153.6081663354238L59.23957787456665,153.41161078029208L59.485669682379154,153.21505522516037L59.73176149019165,153.0184996700287L59.987318367535394,152.82194411489698L60.242875244879144,152.62538855976527L60.48896705269165,152.4288330046336L60.75398899956665,152.23227744950188L61.00008080737915,152.0357218943702L61.2556376847229,151.8391663392385L61.511194562066656,151.64261078410678L61.77621650894165,151.44605522897507L62.041238455816654,151.2494996738434L62.30626040269165,151.05294411871168L62.552352210504154,150.85638856357997L62.807909087847904,150.6598330084483L63.0540008956604,150.46327745331658L63.30955777300415,150.26672189818487L63.584044789410406,150.0701663430532L63.8490667362854,149.87361078792148L64.10462361362914,149.6770552327898L64.3601804909729,149.4804996776581L64.6252024378479,149.28394412252638L64.8902243847229,149.08738856739467L65.1363161925354,148.890833012263L65.39187306987915,148.69427745713128L65.6474299472229,148.49772190199957L65.90298682456665,148.3011663468679L66.1774738409729,148.10461079173618L66.43303071831664,147.9080552366045L66.68858759566041,147.71149968147276L66.9536095425354,147.51494412634108L67.19970135034791,147.3183885712094L67.4457931581604,147.1218330160777L67.6918849659729,146.92527746094598L67.93797677378541,146.72872190581427L68.1840685815979,146.5321663506826L68.4490905284729,146.33561079555088L68.6951823362854,146.13905524041917L68.9412741440979,145.94249968528746L69.19683102144165,145.74594413015578L69.44292282925414,145.5493885750241L69.6984797065979,145.3528330198924L69.95403658394164,145.15627746476068L70.20012839175415,144.95972190962897L70.44622019956665,144.7631663544973L70.7017770769104,144.56661079936558L70.9667990237854,144.37005524423387L71.22235590112915,144.17349968910216L71.48737784800414,143.97694413397048L71.7429347253479,143.78038857883877L71.99849160269164,143.58383302370706L72.25404848003541,143.38727746857538L72.50960535737916,143.19072191344367L72.77462730425415,142.994166358312L73.0301841815979,142.79761080318028L73.2952061284729,142.60105524804857L73.55076300581665,142.40449969291686L73.8063198831604,142.20794413778518L74.0713418300354,142.01138858265347L74.34582884644166,141.81483302752176L74.6203158628479,141.61827747239008L74.87587274019165,141.42172191725837L75.14089468706665,141.22516636212666L75.3964515644104,141.02861080699498L75.65200844175415,140.83205525186327L75.9075653190979,140.63549969673159L76.15365712691039,140.43894414159988L76.40921400425414,140.24238858646817L76.6647708815979,140.04583303133646L76.91086268941041,139.84927747620478L77.1569544972229,139.65272192107307L77.41251137456665,139.45616636594136L77.67753332144164,139.25961081080968L77.9330901987854,139.06305525567797L78.1791820065979,138.86649970054626L78.43473888394165,138.66994414541455L78.69029576128541,138.47338859028287L78.9553177081604,138.27683303515118L79.20140951597291,138.08027748001948L79.4475013237854,137.88372192488777L79.6935931315979,137.68716636975606L79.9586150784729,137.49061081462438L80.2047068862854,137.29405525949267L80.4507986940979,137.09749970436096L80.6968905019104,136.90094414922925L80.9429823097229,136.70438859409757L81.1890741175354,136.50783303896588L81.44463099487915,136.31127748383415L81.7001878722229,136.11472192870244L81.96520981909791,135.91816637357076L82.23969683550415,135.72161081843907L82.50471878237916,135.52505526330737L82.75081059019165,135.32849970817566L82.99690239800415,135.13194415304395L83.26192434487915,134.93538859791227L83.52694629175414,134.73883304278056L83.7825031690979,134.54227748764885L84.03806004644164,134.34572193251716L84.28415185425416,134.14916637738546L84.53970873159791,133.95261082225377L84.7858005394104,133.75605526712206L85.0318923472229,133.55949971199036L85.27798415503541,133.36294415685865L85.5430061019104,133.16638860172696L85.7890979097229,132.96983304659526L86.0351897175354,132.77327749146355L86.29074659487915,132.57672193633186L86.56523361128541,132.38016638120016L86.83025555816039,132.18361082606845L87.07634736597291,131.98705527093676L87.3224391737854,131.79049971580505L87.56853098159789,131.59394416067335L87.81462278941041,131.39738860554164L88.08910980581665,131.20083305040995L88.3446666831604,131.00427749527827L88.60022356050415,130.80772194014656L88.84631536831665,130.61116638501485L89.1018722456604,130.41461082988315L89.3479640534729,130.21805527475146L89.6129860003479,130.02149971961975L89.86854287769165,129.82494416448804L90.11463468550414,129.62838860935634L90.36072649331666,129.43183305422465L90.62574844019164,129.23527749909297L90.87184024800416,129.03872194396126L91.11793205581665,128.84216638882953L91.3924190722229,128.64561083369784L91.64797594956666,128.44905527856616L91.9224629659729,128.25249972343445L92.16855477378539,128.05594416830274L92.4146465815979,127.85938861317103L92.6607383894104,127.66283305803935L92.91629526675415,127.46627750290766L93.18131721362916,127.26972194777595L93.4368740909729,127.07316639264424L93.7018960378479,126.87661083751254L93.9669179847229,126.68005528238085L94.22247486206666,126.48349972724915L94.4969618784729,126.28694417211744L94.75251875581665,126.09038861698573L95.02700577222289,125.89383306185404L95.28256264956666,125.69727750672236L95.54758459644165,125.50072195159065L95.8220716128479,125.30416639645892L96.09655862925415,125.10761084132724L96.36158057612916,124.91105528619555L96.6360675925354,124.71449973106385L96.8821594003479,124.51794417593214L97.12825120816039,124.32138862080043L97.40273822456666,124.12483306566874L97.66776017144164,123.92827751053704L97.91385197925416,123.73172195540533L98.15994378706665,123.53516640027362L98.4155006644104,123.33861084514193L98.67105754175415,123.14205529001025L98.93607948862915,122.94549973487855L99.1916363659729,122.74894417974684L99.44719324331665,122.55238862461513L99.72168025972289,122.35583306948344L99.9867022065979,122.15927751435174L100.2517241534729,121.96272195922005L100.4978159612854,121.76616640408834L100.75337283862915,121.56961084895663L101.0089297159729,121.37305529382493L101.2550215237854,121.17649973869325L101.50111333159789,120.97994418356153L101.77560034800416,120.78338862842982L102.04062229487914,120.58683307329814L102.29617917222289,120.39027751816644L102.5422709800354,120.19372196303475L102.79782785737915,119.99716640790304L103.04391966519165,119.80061085277133L103.29001147300416,119.60405529763963L103.53610328081665,119.40749974250794L103.80112522769166,119.21094418737623L104.0566821050354,119.01438863224452L104.32170405191039,118.81783307711282L104.57726092925414,118.62127752198114L104.8517479456604,118.42472196684945L105.0978397534729,118.22816641171774L105.37232676987915,118.03161085658603L105.6278836472229,117.83505530145433L105.89290559409791,117.63849974632264L106.15792754097289,117.44194419119093L106.41348441831664,117.24538863605923L106.66904129566039,117.04883308092752L106.92459817300414,116.85227752579583L107.18962011987915,116.65572197066415L107.4451769972229,116.45916641553242L107.7101989440979,116.26261086040071L107.95629075191039,116.06605530526903L108.2023825597229,115.86949975013734L108.4484743675354,115.67294419500564L108.7134963144104,115.47638863987393L108.9785182612854,115.27983308474222L109.2435402081604,115.08327752961053L109.50856215503539,114.88672197447883L109.78304917144166,114.69016641934712L110.03860604878541,114.49361086421541L110.2846978565979,114.29705530908372L110.54025473394165,114.10049975395204L110.78634654175414,113.90394419882034L111.04190341909789,113.70738864368863L111.29746029644166,113.51083308855692L111.5530171737854,113.31427753342523L111.8180391206604,113.11772197829353L112.07359599800415,112.92116642316182L112.32915287534789,112.72461086803013L112.58470975269164,112.52805531289842L112.84973169956665,112.33149975776672L113.11475364644166,112.13494420263504L113.3892406628479,111.93838864750332L113.64479754019166,111.7418330923716L113.89088934800415,111.54527753723993L114.15591129487916,111.34872198210823L114.42093324175414,111.15216642697654L114.6954202581604,110.95561087184483L114.9604422050354,110.75905531671312L115.21599908237916,110.56249976158142L115.4715559597229,110.36594420644973L115.72711283706666,110.16938865131802L115.9826697144104,109.9728330961863L116.23822659175416,109.77627754105461L116.5127136081604,109.57972198592292L116.7777355550354,109.38316643079123L117.0238273628479,109.18661087565953L117.2699191706604,108.9900553205278L117.53494111753541,108.79349976539612L117.79996306441039,108.59694421026443L118.04605487222291,108.40038865513272L118.30161174956666,108.20383310000102L118.5760987659729,108.00727754486931L118.83165564331665,107.81072198973762L119.09667759019165,107.61416643460592L119.36169953706666,107.41761087947421L119.6172564144104,107.2210553243425L119.8822783612854,107.0244997692108L120.13783523862915,106.82794421407912L120.38392704644166,106.63138865894743L120.6394839237854,106.43483310381572L120.8855757315979,106.23827754868401L121.1505976784729,106.04172199355231L121.3966894862854,105.84516643842062L121.67117650269165,105.64861088328891L121.9267333800354,105.4520553281572L122.17282518784789,105.2554997730255L122.4378471347229,105.05894421789381L122.7028690815979,104.86238866276213L122.95842595894165,104.66583310763042L123.2139828362854,104.4692775524987L123.46953971362915,104.27272199736701L123.71563152144165,104.07616644223532L123.9711883987854,103.87961088710361L124.2362103456604,103.68305533197191L124.49176722300415,103.4864997768402L124.75678916987916,103.28994422170851L125.0123460472229,103.09338866657681L125.26790292456666,102.8968331114451L125.53292487144165,102.7002775563134L125.80741188784789,102.5037220011817L126.05350369566041,102.30716644605002L126.30906057300416,102.11061089091832L126.55515238081665,101.91405533578661L126.82017432769166,101.7174997806549L127.06626613550415,101.52094422552321L127.33128808237915,101.32438867039151L127.59631002925416,101.1278331152598L127.84240183706665,100.9312775601281L128.0979587144104,100.7347220049964L128.3440505222229,100.5381664498647L128.6090724690979,100.34161089473302L128.8740944159729,100.14505533960131L129.13911636284791,99.94849978446959L129.41360337925414,99.75194422933791L129.6691602565979,99.55538867420621L129.94364727300416,99.3588331190745L130.20866921987914,99.1622775639428L130.4642260972229,98.9657220088111L130.71978297456667,98.7691664536794L130.9753398519104,98.57261089854771L131.23089672925417,98.376055343416L131.49591867612915,98.17949978828429L131.76094062300416,97.9829442331526L132.02596256987914,97.78638867802091L132.3004495862854,97.58983312288922L132.55600646362913,97.39327756775751L132.82102841050414,97.1967220126258L133.08605035737915,97.0001664574941L133.34160723472291,96.80361090236241L133.59716411206665,96.6070553472307L133.84325591987914,96.41049979209899L134.0988127972229,96.2139442369673L134.3638347440979,96.0173886818356L134.6099265519104,95.82083312670392L134.86548342925417,95.6242775715722L135.1210403065979,95.42772201644048L135.3860622534729,95.2311664613088L135.6510842003479,95.03461090617711L135.8971760081604,94.8380553510454L136.1621979550354,94.64149979591369L136.40828976284791,94.444944240782L136.6543815706604,94.2483886856503L136.90993844800414,94.0518331305186L137.1844254644104,93.85527757538689L137.43998234175416,93.65872202025518L137.70500428862914,93.46216646512349L137.95109609644166,93.2656109099918L138.21611804331664,93.06905535486008L138.46220985112916,92.8724997997284L138.72723179800414,92.67594424459669L138.99225374487915,92.479388689465L139.25727569175416,92.2828331343333L139.52229763862914,92.08627757920159L139.7778545159729,91.88972202406988L140.0239463237854,91.69316646893819L140.27003813159791,91.49661091380649L140.5350600784729,91.30005535867481L140.78115188628541,91.10349980354309L141.03670876362915,90.90694424841138L141.28280057144164,90.7103886932797L141.5383574487854,90.513833138148L141.79391432612914,90.31727758301629L142.0494712034729,90.12072202788458L142.30502808081664,89.92416647275289L142.55111988862916,89.72761091762119L142.8066767659729,89.5310553624895L143.05276857378541,89.33449980735779L143.30832545112915,89.13794425222608L143.56388232847289,88.94138869709438L143.81943920581665,88.7448331419627L144.07499608316039,88.54827758683098L144.3210878909729,88.3517220316993L144.5671796987854,88.15516647656757L144.8132715065979,87.95861092143589L145.08775852300417,87.76205536630418L145.3622455394104,87.56549981117249L145.60833734722289,87.36894425604079L145.85442915503538,87.17238870090908L146.10052096284792,86.97583314577739L146.36554290972288,86.77927759064568L146.61163471753542,86.58272203551398L146.86719159487913,86.38616648038227L147.12274847222292,86.18961092525058L147.3688402800354,85.9930553701189L147.6149320878479,85.79649981498719L147.87048896519167,85.59994425985549L148.1260458425354,85.40338870472378L148.38160271987917,85.20683314959209L148.6371595972229,85.01027759446038L148.89271647456667,84.81372203932868L149.1482733519104,84.61716648419699L149.41329529878539,84.42061092906528L149.66885217612915,84.22405537393358L149.92440905347289,84.02749981880187L150.19889606987914,83.83094426367019L150.4544529472229,83.63438870853847L150.7005447550354,83.43783315340679L150.94663656284789,83.24127759827508L151.20219344019165,83.04472204314338L151.44828524800414,82.84816648801169L151.70384212534788,82.65161093287998L151.94993393316042,82.45505537774828L152.20549081050416,82.25849982261657L152.46104768784792,82.06194426748488L152.71660456519163,81.86538871235317L152.98162651206664,81.66883315722147L153.24664845894165,81.47227760208979L153.51167040581666,81.27572204695808L153.7672272831604,81.07916649182638L154.04171429956665,80.88261093669468L154.29727117691039,80.68605538156298L154.55282805425415,80.48949982643127L154.8273150706604,80.29294427129958L155.08287194800414,80.09638871616787L155.3384288253479,79.89983316103617L155.5845206331604,79.70327760590447L155.8495425800354,79.50672205077277L156.0956343878479,79.31016649564108L156.34172619566039,79.11361094050936L156.6067481425354,78.91705538537768L156.85283995034789,78.72049983024597L157.10839682769165,78.52394427511427L157.37341877456666,78.32738871998258L157.63844072144167,78.13083316485087L157.8939975987854,77.93427760971917L158.14955447612917,77.73772205458746L158.4240414925354,77.54116649945577L158.67959836987916,77.34461094432406L158.94462031675414,77.14805538919236L159.2001771940979,76.95149983406068L159.4462690019104,76.75494427892896L159.69236080972289,76.55838872379728L159.9573827565979,76.36183316866557L160.2224047034729,76.16527761353387L160.4874266503479,75.96872205840216L160.7524485972229,75.77216650327047L160.9985404050354,75.57561094813876L161.27302742144164,75.37905539300706L161.51911922925413,75.18249983787537L161.7746761065979,74.98594428274366L162.03023298394163,74.78938872761196L162.27632479175418,74.59283317248025L162.5508118081604,74.39627761734857L162.7969036159729,74.19972206221685L163.04299542378538,74.00316650708517L163.29855230112915,73.80661095195347L163.55410917847288,73.61005539682176L163.82859619487914,73.41349984169007L164.10308321128542,73.21694428655836L164.35864008862913,73.02038873142666L164.63312710503538,72.82383317629495L164.90761412144167,72.62727762116326L165.1821011378479,72.43072206603158L165.4471230847229,72.23416651089985L165.7121450315979,72.03761095576817L165.96770190894165,71.84105540063646L166.24218892534788,71.64449984550477L166.49774580269164,71.44794429037306L166.75330268003538,71.25138873524136L167.01832462691038,71.05483318010965L167.2644164347229,70.85827762497796L167.53890345112916,70.66172206984626L167.78499525894165,70.46516651471455L168.05001720581666,70.26861095958286L168.3055740831604,70.07205540445115L168.56113096050416,69.87549984931947L168.80722276831665,69.67894429418774L169.07224471519166,69.48238873905606L169.33726666206667,69.28583318392437L169.58335846987916,69.08927762879266L169.85784548628538,68.89272207366096L170.11340236362915,68.69616651852925L170.35949417144167,68.49961096339756L170.62451611831665,68.30305540826585L170.8990031347229,68.10649985313415L171.15456001206667,67.90994429800244L171.4101168894104,67.71338874287075L171.66567376675417,67.51683318773907L171.9212306440979,67.32027763260736L172.17678752144167,67.12372207747566L172.42287932925416,66.92716652234395L172.66897113706665,66.73061096721226L172.93399308394166,66.53405541208055L173.1895499612854,66.33749985694885L173.4545719081604,66.14094430181716L173.71012878550417,65.94438874668545L173.9656856628479,65.74783319155375L174.22124254019167,65.55127763642204L174.46733434800416,65.35472208129035L174.71342615581665,65.15816652615864L174.95951796362914,64.96161097102696L175.2150748409729,64.76505541589526L175.4800967878479,64.56849986076355L175.74511873472292,64.37194430563186L176.00067561206666,64.17538875050015L176.24676741987915,63.97883319536845L176.5212544362854,63.78227764023674L176.76734624409792,63.58572208510505L177.04183326050415,63.38916652997334L177.2973901378479,63.19261097484165L177.5434819456604,62.996055419709954L177.7895737534729,62.799499864578245L178.06406076987915,62.60294430944655L178.3196176472229,62.40638875431484L178.5657094550354,62.20983319918315L178.82126633237914,62.013277644051435L179.0768232097229,61.81672208891975L179.3229150175354,61.62016653378805L179.5879369644104,61.42361097865634L179.84349384175414,61.227055423524654L180.08958564956666,61.03049986839294L180.35460759644164,60.83394431326125L180.61962954331665,60.63738875812954L180.86572135112917,60.440833202997844L181.14020836753542,60.244277647866134L181.41469538394165,60.04772209273444L181.6702522612854,59.85116653760275L181.9163440690979,59.65461098247104L182.17190094644164,59.458055427339346L182.41799275425413,59.26149987220764L182.6735496315979,59.06494431707594L182.92910650894163,58.86838876194423L183.19412845581664,58.67183320681254L183.44022026362913,58.47527765168085L183.6957771409729,58.27872209654914L183.95133401831666,58.08216654141744L184.21635596519164,57.885610986285734L184.4719128425354,57.689055431154046L184.7369347894104,57.49249987602233L185.00195673628542,57.29594432089064L185.2669786831604,57.099388765758945L185.51307049097292,56.902833210627236L185.7591622987854,56.70627765549555L186.01471917612915,56.50972210036383L186.27974112300413,56.31316654523214L186.54476306987914,56.11661099010043L186.8003199472229,55.92005543496874L187.0653418940979,55.72349987983703L187.32089877144165,55.52694432470533L187.5764556487854,55.330388769573645L187.85094266519167,55.13383321444193L188.10649954253537,54.93727765931024L188.37152148941038,54.74072210417853L188.6365434362854,54.544166549046835L188.9015653831604,54.347610993915126L189.17605239956663,54.15105543878343L189.44107434644164,53.95449988365174L189.6966312237854,53.75794432852003L189.9427230315979,53.56138877338834L190.19827990894163,53.36483321825663L190.44437171675418,53.16827766312493L190.70939366362913,52.97172210799322L190.95548547144165,52.775166552861535L191.20157727925417,52.57861099772984L191.44766908706666,52.38205544259813L191.70322596441042,52.185499887466435L191.96824791128537,51.988944332334725L192.22380478862917,51.79238877720304L192.47936166597287,51.59583322207132L192.75384868237916,51.39927766693963L193.0094055597229,51.20272211180792L193.26496243706666,51.00616655667623L193.52998438394167,50.80961100154454L193.7855412612854,50.61305544641282L194.0316330690979,50.416499891281134L194.28718994644166,50.219944336149425L194.5427468237854,50.02338878101773L194.79830370112916,49.82683322588602L195.0538605784729,49.630277670754325L195.30941745581666,49.433722115622636L195.5649743331604,49.23716656049093L195.82053121050416,49.04061100535923L196.08555315737917,48.84405545022752L196.34111003472287,48.64749989509583L196.61559705112916,48.45094433996412L196.8711539284729,48.25438878483243L197.12671080581666,48.05783322970071L197.4011978222229,47.861277674569024L197.67568483862914,47.66472211943733L197.9312417159729,47.46816656430562L198.18679859331664,47.27161100917393L198.43289040112913,47.075055454042214L198.67898220894168,46.878499898910526L198.94400415581663,46.68194434377882L199.1995610331604,46.48538878864712L199.4645829800354,46.28883323351543L199.72013985737914,46.09227767838372L199.96623166519166,45.89572212325203L200.2217885425354,45.69916656812032L200.47734541987916,45.50261101298862L200.72343722769165,45.306055457856914L200.96952903550417,45.10949990272522L201.23455098237915,44.91294434759353L201.49010785972288,44.71638879246182L201.74566473706665,44.519833237330126L201.99175654487914,44.323277682198416L202.2473134222229,44.12672212706672L202.51233536909788,43.93016657193501L202.7584271769104,43.733611016803316L203.02344912378538,43.537055461671606L203.2884710706604,43.34049990653992L203.5534930175354,43.14394435140822L203.7995848253479,42.94738879627651L204.0456766331604,42.75083324114482L204.30123351050415,42.55427768601311L204.56625545737916,42.35772213088142L204.82181233472292,42.161166575749704L205.0679041425354,41.964611020618015L205.33292608941042,41.76805546548632L205.60741310581665,41.57149991035461L205.8819001222229,41.37494435522292L206.1469220690979,41.178388800091206L206.40247894644165,40.98183324495952L206.64857075425417,40.78527768982781L206.89466256206666,40.58872213469611L207.1502194394104,40.392166579564424L207.39631124722288,40.19561102443271L207.6424030550354,39.99905546930102L207.8884948628479,39.80249991416931L208.16298187925415,39.605944359037615L208.42800382612916,39.409388803905905L208.69302577300417,39.21283324877421L208.95804771987915,39.0162776936425L209.21360459722288,38.81972213851081L209.46916147456665,38.62316658337912L209.73418342144166,38.42661102824741L210.0086704378479,38.23005547311571L210.2547622456604,38.033499917984L210.51031912300417,37.836944362852314L210.75641093081666,37.6403888077206L211.00250273862915,37.44383325258891L211.24859454644164,37.247277697457214L211.5041514237854,37.050722142325505L211.75024323159792,36.854166587193816L212.0152651784729,36.6576110320621L212.2613569862854,36.46105547693041L212.5074487940979,36.2644999217987L212.7535406019104,36.06794436666701L213.02802761831663,35.8713888115353L213.29304956519164,35.6748332564036L213.55807151206665,35.478277701271914L213.82309345894166,35.281722146140204L214.07865033628542,35.08516659100851L214.35313735269165,34.8886110358768L214.59922916050414,34.692055480745104L214.8547860378479,34.495499925613395L215.11034291519164,34.298944370481706L215.3658997925354,34.10238881535001L215.62145666987914,33.9058332602183L215.86754847769163,33.709277705086606L216.13257042456664,33.5127221499549L216.3881273019104,33.31616659482321L216.64368417925414,33.11961103969149L216.9181711956604,32.923055484559804L217.1831931425354,32.72649992942811L217.44821508941038,32.5299443742964L217.7132370362854,32.3333888191647L217.95932884409788,32.136833264032994L218.20542065191037,31.940277708901302L218.47044259878538,31.743722153769593L218.71653440659787,31.5471665986379L218.97209128394164,31.350611043506188L219.2276481612854,31.154055488374496L219.49267010816038,30.957499933242804L219.74822698550415,30.760944378111095L220.00378386284788,30.564388822979403L220.2498756706604,30.36783326784769L220.5148976175354,30.171277712715998L220.7609894253479,29.97472215758429L221.0260113722229,29.778166602452597L221.30049838862917,29.581611047320905L221.54659019644166,29.385055492189192L221.8021470737854,29.1884999370575L222.0482388815979,28.99194438192579L222.32272589800417,28.7953888267941L222.58774784487915,28.598833271662386L222.84330472222288,28.402277716530694L223.1083266690979,28.205722161399002L223.35441847691038,28.009166606267293L223.60051028472293,27.8126110511356L223.85606716206664,27.616055496003888L224.1116240394104,27.419499940872196L224.36718091675414,27.222944385740487L224.6227377940979,27.026388830608795L224.8877597409729,26.829833275477082L225.16224675737917,26.63327772034539L225.4178036347229,26.4367221652137L225.67336051206667,26.24016661008199L225.9289173894104,26.043611054950297L226.18447426675417,25.847055499818584L226.44949621362915,25.650499944686892L226.69558802144167,25.453944389555183L226.94167982925416,25.25738883442349L227.18777163706665,25.0608332792918L227.45279358394166,24.864277724160086L227.71781553081664,24.667722169028394L227.98283747769165,24.471166613896685L228.24785942456666,24.274611058764993L228.5034163019104,24.07805550363328L228.74950810972288,23.881499948501588L229.00506498706665,23.68494439336988L229.25115679487914,23.488388838238187L229.5256438112854,23.291833283106495L229.78120068862916,23.095277727974782L230.0367575659729,22.89872217284309L230.3017795128479,22.70216661771138L230.56680145972288,22.50561106257969L230.82235833706665,22.309055507447976L231.07791521441038,22.112499952316284L231.33347209175415,21.915944397184592L231.58902896909788,21.71938884205288L231.8540509159729,21.522833286921188L232.10014272378538,21.326277731789478L232.37462974019166,21.129722176657786L232.62072154800416,20.933166621526073L232.8762784253479,20.73661106639438L233.13183530269166,20.54005551126269L233.37792711050415,20.34349995613098L233.6334839878479,20.14694440099929L233.90797100425416,19.950388845867575L234.15406281206666,19.753833290735884L234.41908475894166,19.557277735604174L234.66517656675416,19.360722180472482L234.93019851362916,19.16416662534077L235.1857553909729,18.967611070209077L235.45077733784788,18.771055515077386L235.70633421519165,18.574499959945676L235.97135616206666,18.377944404813984L236.2269130394104,18.18138884968227L236.47300484722288,17.98483329455058L236.7380267940979,17.78827773941887L237.0030487409729,17.59172218428718L237.25860561831666,17.395166629155487L237.5141624956604,17.198611074023773L237.76971937300416,17.00205551889208L238.01581118081666,16.805499963760372L238.2713680581604,16.60894440862868L238.5174598659729,16.412388853496967L238.7824818128479,16.215833298365276L239.0285736206604,16.019277743233566L239.29359556753542,15.822722188101872L239.5586175144104,15.62616663297018L239.81417439175416,15.42961107783847L240.06026619956666,15.233055522706778L240.30635800737915,15.036499967575066L240.57137995425416,14.839944412443375L240.82693683159792,14.643388857311663L241.0730286394104,14.446833302179972L241.32858551675415,14.25027774704828L241.57467732456666,14.053722191916568L241.82076913237916,13.857166636784877L242.0763260097229,13.660611081653165L242.3413479565979,13.464055526521474L242.6063699034729,13.267499971389762L242.8713918503479,13.07094441625807L243.1364137972229,12.874388861126379L243.3825056050354,12.677833305994668L243.65699262144165,12.481277750862976L243.9125494987854,12.284722195731264L244.18703651519166,12.088166640599573L244.45205846206665,11.891611085467861L244.71708040894165,11.69505553033617L244.9726372862854,11.498499975204458L245.22819416362915,11.301944420072767L245.49321611050416,11.105388864941075L245.75823805737915,10.908833309809363L246.0327250737854,10.712277754677672L246.28828195112914,10.51572219954596L246.53437375894163,10.319166644414269L246.7899306362854,10.122611089282557L247.0549525831604,9.926055534150866L247.3199745300354,9.729499979019174L247.57553140737915,9.532944423887463L247.84055335425415,9.33638886875577L248.09611023159792,9.13983331362406L248.37059724800415,8.943277758492368L248.61668905581664,8.746722203360656L248.8722459331604,8.550166648228965L249.12780281050414,8.353611093097273L249.4022898269104,8.157055537965562L249.6673117737854,7.960499982833869L249.9323337206604,7.763944427702158L250.20682073706664,7.567388872570466L250.4623776144104,7.370833317438755L250.7273995612854,7.174277762307063L250.99242150816042,6.9777222071753515L251.24797838550415,6.78116665204366L251.51300033237914,6.584611096911968L251.77802227925415,6.388055541780257L252.03357915659788,6.191499986648565L252.2986011034729,5.994944431516854L252.55415798081665,5.798388876385162L252.80024978862915,5.601833321253451L253.0558066659729,5.405277766121759L253.3018984737854,5.208722210990067L253.5479902815979,5.012166655858356L253.7940820894104,4.815611100726664L254.04963896675417,4.619055545594953L254.31466091362913,4.422499990463261L254.5702177909729,4.22594443533155" fill="none"></path></g></g></g></g><g opacity="0.2"><g><g><g><path style="fill: none;" stroke="rgb(187, 187, 187)" stroke-width="2px" d="M28.8850998878479,176.7034440633986L29.159586904254148,176.50688850826688L29.4151437815979,176.31033295313517L29.67070065894165,176.11377739800346L29.91679246675415,175.91722184287178L30.1723493440979,175.72066628774007L30.4184411519104,175.52411073260836L30.664532959722898,175.32755517747668L30.910624767535403,175.13099962234497L31.166181644879153,174.93444406721326L31.4406686612854,174.73788851208155L31.705690608160403,174.54133295694987L31.9707125550354,174.34477740181816L32.24519957144165,174.14822184668648L32.49129137925415,173.95166629155477L32.7657783956604,173.75511073642306L33.0118702034729,173.55855518129138L33.2579620112854,173.36199962615967L33.51351888862915,173.16544407102796L33.77854083550415,172.96888851589625L34.02463264331665,172.77233296076457L34.28965459019165,172.57577740563286L34.53574639800415,172.37922185050115L34.78183820581665,172.18266629536947L35.027930013629145,171.98611074023776L35.27402182144165,171.78955518510608L35.52011362925415,171.59299962997437L35.76620543706665,171.39644407484266L36.01229724487915,171.19988851971095L36.25838905269165,171.00333296457927L36.50448086050415,170.80677740944756L36.75057266831666,170.61022185431585L36.99666447612915,170.41366629918417L37.24275628394165,170.21711074405246L37.48884809175415,170.02055518892078L37.73493989956665,169.82399963378904L37.98103170737915,169.62744407865736L38.22712351519165,169.43088852352565L38.47321532300415,169.23433296839397L38.71930713081665,169.03777741326226L38.96539893862915,168.84122185813055L39.211490746441655,168.64466630299887L39.457582554254145,168.44811074786716L39.70367436206665,168.25155519273545L39.949766169879155,168.05499963760374L40.195857977691645,167.85844408247206L40.44194978550415,167.66188852734038L40.688041593316655,167.46533297220867L40.934133401129145,167.26877741707696L41.18022520894165,167.07222186194525L41.4357820862854,166.87566630681357L41.69133896362915,166.67911075168186L41.93743077144165,166.48255519655015L42.18352257925415,166.28599964141844L42.4390794565979,166.08944408628676L42.6851712644104,165.89288853115505L42.9312630722229,165.69633297602334L43.18681994956665,165.49977742089166L43.4423768269104,165.30322186575995L43.7073987737854,165.10666631062827L43.96295565112915,164.91011075549653L44.22797759800415,164.71355520036485L44.47406940581665,164.51699964523314L44.7296262831604,164.32044409010146L44.9757180909729,164.12388853496975L45.23127496831665,163.92733297983804L45.4868318456604,163.73077742470636L45.74238872300415,163.53422186957465L46.00741066987915,163.33766631444294L46.253502477691654,163.14111075931126L46.49959428550415,162.94455520417955L46.764616232379154,162.74799964904787L47.020173109722904,162.55144409391616L47.2662649175354,162.35488853878445L47.5123567253479,162.15833298365274L47.758448533160404,161.96177742852106L48.01400541050415,161.76522187338935L48.26009721831665,161.56866631825764L48.5156540956604,161.37211076312596L48.77121097300415,161.17555520799425L49.03623291987915,160.97899965286254L49.28232472769165,160.78244409773083L49.52841653550415,160.58588854259915L49.802903551910404,160.38933298746744L50.0679254987854,160.19277743233576L50.32348237612915,159.99622187720405L50.56957418394165,159.79966632207234L50.81566599175415,159.60311076694066L51.08068793862915,159.40655521180895L51.3551749550354,159.20999965667724L51.610731832379145,159.01344410154553L51.866288709722895,158.81688854641385L52.1123805175354,158.62033299128217L52.3774024644104,158.42377743615043L52.6424244112854,158.22722188101875L52.8885162190979,158.03066632588704L53.134608026910406,157.83411077075536L53.390164904254156,157.63755521562365L53.6457217815979,157.44099966049194L53.8918135894104,157.24444410536023L54.1379053972229,157.04788855022855L54.39346227456665,156.85133299509684L54.649019151910394,156.65477743996513L54.914041098785404,156.45822188483345L55.1601329065979,156.26166632970174L55.41568978394165,156.06511077457006L55.66178159175415,155.86855521943832L55.90787339956665,155.67199966430664L56.1634302769104,155.47544410917493L56.41898715425415,155.27888855404325L56.66507896206665,155.08233299891154L56.9206358394104,154.88577744377983L57.17619271675415,154.68922188864815L57.441214663629154,154.49266633351644L57.696771540972904,154.29611077838473L57.9428633487854,154.09955522325305L58.19842022612915,153.90299966812134L58.4539771034729,153.70644411298963L58.728464119879156,153.50988855785792L58.9840209972229,153.31333300272624L59.23957787456665,153.11677744759453L59.485669682379154,152.92022189246285L59.73176149019165,152.72366633733114L59.987318367535394,152.52711078219943L60.242875244879144,152.33055522706775L60.48896705269165,152.13399967193604L60.75398899956665,151.93744411680433L61.00008080737915,151.74088856167262L61.2556376847229,151.54433300654094L61.511194562066656,151.34777745140926L61.77621650894165,151.15122189627755L62.041238455816654,150.9546663411458L62.30626040269165,150.75811078601413L62.552352210504154,150.56155523088245L62.807909087847904,150.36499967575074L63.0540008956604,150.16844412061903L63.30955777300415,149.97188856548732L63.584044789410406,149.77533301035564L63.8490667362854,149.57877745522393L64.10462361362914,149.38222190009222L64.3601804909729,149.1856663449605L64.6252024378479,148.98911078982883L64.8902243847229,148.79255523469715L65.1363161925354,148.59599967956544L65.39187306987915,148.39944412443373L65.6474299472229,148.20288856930202L65.90298682456665,148.00633301417034L66.1774738409729,147.80977745903863L66.43303071831664,147.61322190390692L66.68858759566041,147.41666634877524L66.9536095425354,147.22011079364353L67.19970135034791,147.02355523851182L67.4457931581604,146.8269996833801L67.6918849659729,146.63044412824843L67.93797677378541,146.43388857311672L68.1840685815979,146.23733301798504L68.4490905284729,146.04077746285333L68.6951823362854,145.84422190772162L68.9412741440979,145.64766635258994L69.19683102144165,145.45111079745823L69.44292282925414,145.25455524232652L69.6984797065979,145.05799968719484L69.95403658394164,144.86144413206313L70.20012839175415,144.66488857693142L70.44622019956665,144.4683330217997L70.7017770769104,144.27177746666803L70.9667990237854,144.07522191153632L71.22235590112915,143.87866635640464L71.48737784800414,143.68211080127293L71.7429347253479,143.48555524614122L71.99849160269164,143.28899969100954L72.25404848003541,143.09244413587783L72.50960535737916,142.89588858074612L72.77462730425415,142.6993330256144L73.0301841815979,142.50277747048273L73.2952061284729,142.30622191535102L73.55076300581665,142.1096663602193L73.8063198831604,141.9131108050876L74.0713418300354,141.71655524995592L74.34582884644166,141.51999969482424L74.6203158628479,141.32344413969253L74.87587274019165,141.12688858456082L75.14089468706665,140.9303330294291L75.3964515644104,140.73377747429743L75.65200844175415,140.53722191916572L75.9075653190979,140.340666364034L76.15365712691039,140.1441108089023L76.40921400425414,139.94755525377062L76.6647708815979,139.75099969863894L76.91086268941041,139.5544441435072L77.1569544972229,139.35788858837552L77.41251137456665,139.1613330332438L77.67753332144164,138.96477747811213L77.9330901987854,138.76822192298042L78.1791820065979,138.5716663678487L78.43473888394165,138.37511081271703L78.69029576128541,138.17855525758532L78.9553177081604,137.9819997024536L79.20140951597291,137.7854441473219L79.4475013237854,137.58888859219022L79.6935931315979,137.3923330370585L79.9586150784729,137.19577748192683L80.2047068862854,136.99922192679512L80.4507986940979,136.8026663716634L80.6968905019104,136.60611081653173L80.9429823097229,136.40955526140002L81.1890741175354,136.2129997062683L81.44463099487915,136.01644415113662L81.7001878722229,135.81988859600492L81.96520981909791,135.6233330408732L82.23969683550415,135.4267774857415L82.50471878237916,135.23022193060982L82.75081059019165,135.0336663754781L82.99690239800415,134.83711082034642L83.26192434487915,134.64055526521472L83.52694629175414,134.443999710083L83.7825031690979,134.24744415495132L84.03806004644164,134.05088859981961L84.28415185425416,133.8543330446879L84.53970873159791,133.6577774895562L84.7858005394104,133.46122193442451L85.0318923472229,133.2646663792928L85.27798415503541,133.0681108241611L85.5430061019104,132.8715552690294L85.7890979097229,132.6749997138977L86.0351897175354,132.47844415876602L86.29074659487915,132.28188860363431L86.56523361128541,132.08533304850258L86.83025555816039,131.8887774933709L87.07634736597291,131.69222193823921L87.3224391737854,131.4956663831075L87.56853098159789,131.2991108279758L87.81462278941041,131.10255527284409L88.08910980581665,130.9059997177124L88.3446666831604,130.7094441625807L88.60022356050415,130.51288860744899L88.84631536831665,130.3163330523173L89.1018722456604,130.1197774971856L89.3479640534729,129.9232219420539L89.6129860003479,129.7266663869222L89.86854287769165,129.5301108317905L90.11463468550414,129.33355527665879L90.36072649331666,129.1369997215271L90.62574844019164,128.9404441663954L90.87184024800416,128.7438886112637L91.11793205581665,128.547333056132L91.3924190722229,128.3507775010003L91.64797594956666,128.15422194586858L91.9224629659729,127.9576663907369L92.16855477378539,127.7611108356052L92.4146465815979,127.56455528047348L92.6607383894104,127.36799972534179L92.91629526675415,127.1714441702101L93.18131721362916,126.97488861507841L93.4368740909729,126.7783330599467L93.7018960378479,126.58177750481498L93.9669179847229,126.3852219496833L94.22247486206666,126.1886663945516L94.4969618784729,125.9921108394199L94.75251875581665,125.7955552842882L95.02700577222289,125.59899972915649L95.28256264956666,125.4024441740248L95.54758459644165,125.2058886188931L95.8220716128479,125.00933306376139L96.09655862925415,124.81277750862968L96.36158057612916,124.61622195349798L96.6360675925354,124.4196663983663L96.8821594003479,124.22311084323461L97.12825120816039,124.0265552881029L97.40273822456666,123.82999973297119L97.66776017144164,123.6334441778395L97.91385197925416,123.4368886227078L98.15994378706665,123.24033306757609L98.4155006644104,123.04377751244438L98.67105754175415,122.84722195731268L98.93607948862915,122.65066640218099L99.1916363659729,122.45411084704931L99.44719324331665,122.2575552919176L99.72168025972289,122.06099973678587L99.9867022065979,121.86444418165419L100.2517241534729,121.6678886265225L100.4978159612854,121.47133307139079L100.75337283862915,121.27477751625908L101.0089297159729,121.07822196112738L101.2550215237854,120.88166640599569L101.50111333159789,120.68511085086399L101.77560034800416,120.48855529573228L102.04062229487914,120.29199974060057L102.29617917222289,120.09544418546888L102.5422709800354,119.8988886303372L102.79782785737915,119.7023330752055L103.04391966519165,119.50577752007379L103.29001147300416,119.30922196494208L103.53610328081665,119.11266640981039L103.80112522769166,118.91611085467869L104.0566821050354,118.71955529954698L104.32170405191039,118.52299974441527L104.57726092925414,118.32644418928358L104.8517479456604,118.12988863415188L105.0978397534729,117.9333330790202L105.37232676987915,117.73677752388848L105.6278836472229,117.54022196875677L105.89290559409791,117.34366641362509L106.15792754097289,117.14711085849339L106.41348441831664,116.95055530336168L106.66904129566039,116.75399974822997L106.92459817300414,116.55744419309828L107.18962011987915,116.36088863796658L107.4451769972229,116.16433308283489L107.7101989440979,115.96777752770318L107.95629075191039,115.77122197257147L108.2023825597229,115.57466641743977L108.4484743675354,115.37811086230809L108.7134963144104,115.18155530717637L108.9785182612854,114.98499975204469L109.2435402081604,114.78844419691298L109.50856215503539,114.59188864178128L109.78304917144166,114.39533308664959L110.03860604878541,114.19877753151788L110.2846978565979,114.00222197638617L110.54025473394165,113.80566642125447L110.78634654175414,113.60911086612278L111.04190341909789,113.4125553109911L111.29746029644166,113.21599975585937L111.5530171737854,113.01944420072766L111.8180391206604,112.82288864559598L112.07359599800415,112.62633309046429L112.32915287534789,112.42977753533258L112.58470975269164,112.23322198020087L112.84973169956665,112.03666642506917L113.11475364644166,111.84011086993748L113.3892406628479,111.64355531480578L113.64479754019166,111.44699975967407L113.89088934800415,111.25044420454236L114.15591129487916,111.05388864941067L114.42093324175414,110.85733309427899L114.6954202581604,110.66077753914726L114.9604422050354,110.46422198401558L115.21599908237916,110.26766642888386L115.4715559597229,110.07111087375218L115.72711283706666,109.87455531862048L115.9826697144104,109.67799976348877L116.23822659175416,109.48144420835706L116.5127136081604,109.28488865322537L116.7777355550354,109.08833309809367L117.0238273628479,108.89177754296198L117.2699191706604,108.69522198783027L117.53494111753541,108.49866643269856L117.79996306441039,108.30211087756686L118.04605487222291,108.10555532243518L118.30161174956666,107.90899976730347L118.5760987659729,107.71244421217175L118.83165564331665,107.51588865704007L119.09667759019165,107.31933310190837L119.36169953706666,107.12277754677667L119.6172564144104,106.92622199164497L119.8822783612854,106.72966643651326L120.13783523862915,106.53311088138156L120.38392704644166,106.33655532624987L120.6394839237854,106.13999977111816L120.8855757315979,105.94344421598647L121.1505976784729,105.74688866085475L121.3966894862854,105.55033310572307L121.67117650269165,105.35377755059137L121.9267333800354,105.15722199545966L122.17282518784789,104.96066644032796L122.4378471347229,104.76411088519626L122.7028690815979,104.56755533006456L122.95842595894165,104.37099977493287L123.2139828362854,104.17444421980116L123.46953971362915,103.97788866466945L123.71563152144165,103.78133310953775L123.9711883987854,103.58477755440607L124.2362103456604,103.38822199927436L124.49176722300415,103.19166644414264L124.75678916987916,102.99511088901096L125.0123460472229,102.79855533387926L125.26790292456666,102.60199977874757L125.53292487144165,102.40544422361586L125.80741188784789,102.20888866848415L126.05350369566041,102.01233311335245L126.30906057300416,101.81577755822076L126.55515238081665,101.61922200308905L126.82017432769166,101.42266644795734L127.06626613550415,101.22611089282564L127.33128808237915,101.02955533769396L127.59631002925416,100.83299978256227L127.84240183706665,100.63644422743056L128.0979587144104,100.43988867229885L128.3440505222229,100.24333311716715L128.6090724690979,100.04677756203546L128.8740944159729,99.85022200690376L129.13911636284791,99.65366645177205L129.41360337925414,99.45711089664034L129.6691602565979,99.26055534150865L129.94364727300416,99.06399978637697L130.20866921987914,98.86744423124524L130.4642260972229,98.67088867611353L130.71978297456667,98.47433312098185L130.9753398519104,98.27777756585016L131.23089672925417,98.08122201071846L131.49591867612915,97.88466645558675L131.76094062300416,97.68811090045504L132.02596256987914,97.49155534532335L132.3004495862854,97.29499979019165L132.55600646362913,97.09844423505994L132.82102841050414,96.90188867992823L133.08605035737915,96.70533312479654L133.34160723472291,96.50877756966486L133.59716411206665,96.31222201453316L133.84325591987914,96.11566645940145L134.0988127972229,95.91911090426974L134.3638347440979,95.72255534913805L134.6099265519104,95.52599979400635L134.86548342925417,95.32944423887464L135.1210403065979,95.13288868374295L135.3860622534729,94.93633312861124L135.6510842003479,94.73977757347954L135.8971760081604,94.54322201834786L136.1621979550354,94.34666646321614L136.40828976284791,94.15011090808443L136.6543815706604,93.95355535295275L136.90993844800414,93.75699979782105L137.1844254644104,93.56044424268936L137.43998234175416,93.36388868755765L137.70500428862914,93.16733313242594L137.95109609644166,92.97077757729424L138.21611804331664,92.77422202216255L138.46220985112916,92.57766646703084L138.72723179800414,92.38111091189913L138.99225374487915,92.18455535676743L139.25727569175416,91.98799980163575L139.52229763862914,91.79144424650406L139.7778545159729,91.59488869137235L140.0239463237854,91.39833313624064L140.27003813159791,91.20177758110894L140.5350600784729,91.00522202597725L140.78115188628541,90.80866647084554L141.03670876362915,90.61211091571384L141.28280057144164,90.41555536058213L141.5383574487854,90.21899980545044L141.79391432612914,90.02244425031876L142.0494712034729,89.82588869518703L142.30502808081664,89.62933314005532L142.55111988862916,89.43277758492364L142.8066767659729,89.23622202979195L143.05276857378541,89.03966647466025L143.30832545112915,88.84311091952854L143.56388232847289,88.64655536439683L143.81943920581665,88.44999980926514L144.07499608316039,88.25344425413344L144.3210878909729,88.05688869900173L144.5671796987854,87.86033314387004L144.8132715065979,87.66377758873833L145.08775852300417,87.46722203360663L145.3622455394104,87.27066647847492L145.60833734722289,87.07411092334324L145.85442915503538,86.87755536821155L146.10052096284792,86.68099981307984L146.36554290972288,86.48444425794814L146.61163471753542,86.28788870281643L146.86719159487913,86.09133314768474L147.12274847222292,85.89477759255303L147.3688402800354,85.69822203742133L147.6149320878479,85.50166648228962L147.87048896519167,85.30511092715793L148.1260458425354,85.10855537202625L148.38160271987917,84.91199981689452L148.6371595972229,84.71544426176284L148.89271647456667,84.51888870663113L149.1482733519104,84.32233315149944L149.41329529878539,84.12577759636773L149.66885217612915,83.92922204123603L149.92440905347289,83.73266648610434L150.19889606987914,83.53611093097263L150.4544529472229,83.33955537584093L150.7005447550354,83.14299982070922L150.94663656284789,82.94644426557753L151.20219344019165,82.74988871044582L151.44828524800414,82.55333315531414L151.70384212534788,82.35677760018241L151.94993393316042,82.16022204505073L152.20549081050416,81.96366648991904L152.46104768784792,81.76711093478733L152.71660456519163,81.57055537965563L152.98162651206664,81.37399982452392L153.24664845894165,81.17744426939223L153.51167040581666,80.98088871426052L153.7672272831604,80.78433315912882L154.04171429956665,80.58777760399714L154.29727117691039,80.39122204886542L154.55282805425415,80.19466649373373L154.8273150706604,79.99811093860203L155.08287194800414,79.80155538347033L155.3384288253479,79.60499982833862L155.5845206331604,79.40844427320692L155.8495425800354,79.21188871807523L156.0956343878479,79.01533316294352L156.34172619566039,78.81877760781182L156.6067481425354,78.62222205268012L156.85283995034789,78.42566649754842L157.10839682769165,78.22911094241671L157.37341877456666,78.03255538728503L157.63844072144167,77.8359998321533L157.8939975987854,77.63944427702162L158.14955447612917,77.44288872188993L158.4240414925354,77.24633316675822L158.67959836987916,77.04977761162652L158.94462031675414,76.85322205649481L159.2001771940979,76.65666650136312L159.4462690019104,76.46011094623141L159.69236080972289,76.26355539109971L159.9573827565979,76.06699983596802L160.2224047034729,75.87044428083631L160.4874266503479,75.67388872570463L160.7524485972229,75.4773331705729L160.9985404050354,75.28077761544122L161.27302742144164,75.08422206030951L161.51911922925413,74.88766650517782L161.7746761065979,74.69111095004612L162.03023298394163,74.49455539491441L162.27632479175418,74.29799983978272L162.5508118081604,74.10144428465101L162.7969036159729,73.90488872951931L163.04299542378538,73.7083331743876L163.29855230112915,73.51177761925591L163.55410917847288,73.3152220641242L163.82859619487914,73.11866650899252L164.10308321128542,72.92211095386082L164.35864008862913,72.72555539872911L164.63312710503538,72.52899984359742L164.90761412144167,72.33244428846571L165.1821011378479,72.13588873333401L165.4471230847229,71.9393331782023L165.7121450315979,71.74277762307061L165.96770190894165,71.54622206793891L166.24218892534788,71.3496665128072L166.49774580269164,71.15311095767552L166.75330268003538,70.9565554025438L167.01832462691038,70.75999984741212L167.2644164347229,70.56344429228041L167.53890345112916,70.36688873714871L167.78499525894165,70.170333182017L168.05001720581666,69.97377762688531L168.3055740831604,69.77722207175361L168.56113096050416,69.5806665166219L168.80722276831665,69.38411096149021L169.07224471519166,69.1875554063585L169.33726666206667,68.9909998512268L169.58335846987916,68.7944442960951L169.85784548628538,68.59788874096341L170.11340236362915,68.40133318583172L170.35949417144167,68.20477763070001L170.62451611831665,68.00822207556831L170.8990031347229,67.8116665204366L171.15456001206667,67.61511096530491L171.4101168894104,67.4185554101732L171.66567376675417,67.2219998550415L171.9212306440979,67.02544429990981L172.17678752144167,66.8288887447781L172.42287932925416,66.63233318964642L172.66897113706665,66.4357776345147L172.93399308394166,66.23922207938301L173.1895499612854,66.04266652425129L173.4545719081604,65.84611096911961L173.71012878550417,65.6495554139879L173.9656856628479,65.4529998588562L174.22124254019167,65.2564443037245L174.46733434800416,65.0598887485928L174.71342615581665,64.8633331934611L174.95951796362914,64.66677763832939L175.2150748409729,64.4702220831977L175.4800967878479,64.27366652806599L175.74511873472292,64.07711097293429L176.00067561206666,63.880555417802604L176.24676741987915,63.683999862670895L176.5212544362854,63.48744430753921L176.76734624409792,63.29088875240749L177.04183326050415,63.0943331972758L177.2973901378479,62.89777764214409L177.5434819456604,62.7012220870124L177.7895737534729,62.50466653188071L178.06406076987915,62.30811097674899L178.3196176472229,62.111555421617304L178.5657094550354,61.914999866485594L178.82126633237914,61.7184443113539L179.0768232097229,61.52188875622219L179.3229150175354,61.325333201090494L179.5879369644104,61.128777645958785L179.84349384175414,60.932222090827096L180.08958564956666,60.7356665356954L180.35460759644164,60.53911098056369L180.61962954331665,60.342555425431996L180.86572135112917,60.14599987030029L181.14020836753542,59.9494443151686L181.41469538394165,59.75288876003688L181.6702522612854,59.556333204905194L181.9163440690979,59.3597776497735L182.17190094644164,59.16322209464179L182.41799275425413,58.9666665395101L182.6735496315979,58.770110984378384L182.92910650894163,58.573555429246696L183.19412845581664,58.376999874114986L183.44022026362913,58.18044431898329L183.6957771409729,57.98388876385158L183.95133401831666,57.787333208719886L184.21635596519164,57.5907776535882L184.4719128425354,57.39422209845649L184.7369347894104,57.19766654332479L185.00195673628542,57.00111098819308L185.2669786831604,56.80455543306139L185.51307049097292,56.60799987792968L185.7591622987854,56.41144432279799L186.01471917612915,56.214888767666295L186.27974112300413,56.018333212534586L186.54476306987914,55.82177765740289L186.8003199472229,55.62522210227118L187.0653418940979,55.42866654713949L187.32089877144165,55.232110992007776L187.5764556487854,55.03555543687609L187.85094266519167,54.83899988174439L188.10649954253537,54.64244432661268L188.37152148941038,54.44588877148099L188.6365434362854,54.24933321634928L188.9015653831604,54.05277766121759L189.17605239956663,53.85622210608587L189.44107434644164,53.659666550954185L189.6966312237854,53.463110995822476L189.9427230315979,53.26655544069078L190.19827990894163,53.06999988555909L190.44437171675418,52.873444330427375L190.70939366362913,52.67688877529569L190.95548547144165,52.48033322016398L191.20157727925417,52.28377766503228L191.44766908706666,52.08722210990057L191.70322596441042,51.89066655476888L191.96824791128537,51.69411099963719L192.22380478862917,51.49755544450548L192.47936166597287,51.300999889373784L192.75384868237916,51.104444334242075L193.0094055597229,50.90788877911038L193.26496243706666,50.71133322397867L193.52998438394167,50.51477766884698L193.7855412612854,50.31822211371529L194.0316330690979,50.12166655858358L194.28718994644166,49.92511100345188L194.5427468237854,49.72855544832017L194.79830370112916,49.531999893188484L195.0538605784729,49.33544433805677L195.30941745581666,49.13888878292508L195.5649743331604,48.94233322779337L195.82053121050416,48.745777672661674L196.08555315737917,48.549222117529986L196.34111003472287,48.35266656239827L196.61559705112916,48.15611100726658L196.8711539284729,47.95955545213487L197.12671080581666,47.762999897003176L197.4011978222229,47.56644434187147L197.67568483862914,47.36988878673977L197.9312417159729,47.17333323160808L198.18679859331664,46.976777676476374L198.43289040112913,46.78022212134468L198.67898220894168,46.58366656621297L198.94400415581663,46.387111011081274L199.1995610331604,46.190555455949564L199.4645829800354,45.993999900817876L199.72013985737914,45.79744434568616L199.96623166519166,45.60088879055447L200.2217885425354,45.404333235422776L200.47734541987916,45.207777680291066L200.72343722769165,45.01122212515938L200.96952903550417,44.81466657002766L201.23455098237915,44.61811101489597L201.49010785972288,44.42155545976426L201.74566473706665,44.22499990463257L201.99175654487914,44.02844434950088L202.2473134222229,43.83188879436916L202.51233536909788,43.635333239237475L202.7584271769104,43.43877768410576L203.02344912378538,43.24222212897407L203.2884710706604,43.04566657384236L203.5534930175354,42.849111018710666L203.7995848253479,42.65255546357898L204.0456766331604,42.45599990844726L204.30123351050415,42.25944435331557L204.56625545737916,42.06288879818386L204.82181233472292,41.86633324305217L205.0679041425354,41.66977768792046L205.33292608941042,41.47322213278876L205.60741310581665,41.27666657765705L205.8819001222229,41.080111022525365L206.1469220690979,40.88355546739367L206.40247894644165,40.68699991226196L206.64857075425417,40.490444357130265L206.89466256206666,40.293888801998555L207.1502194394104,40.09733324686687L207.39631124722288,39.90077769173515L207.6424030550354,39.70422213660346L207.8884948628479,39.50766658147177L208.16298187925415,39.31111102634006L208.42800382612916,39.11455547120837L208.69302577300417,38.91799991607665L208.95804771987915,38.721444360944965L209.21360459722288,38.524888805813255L209.46916147456665,38.32833325068156L209.73418342144166,38.13177769554985L210.0086704378479,37.935222140418155L210.2547622456604,37.73866658528647L210.51031912300417,37.54211103015476L210.75641093081666,37.34555547502306L211.00250273862915,37.14899991989135L211.24859454644164,36.95244436475966L211.5041514237854,36.75588880962795L211.75024323159792,36.55933325449626L212.0152651784729,36.362777699364564L212.2613569862854,36.166222144232854L212.5074487940979,35.96966658910116L212.7535406019104,35.77311103396945L213.02802761831663,35.57655547883776L213.29304956519164,35.379999923706045L213.55807151206665,35.18344436857436L213.82309345894166,34.98688881344266L214.07865033628542,34.79033325831095L214.35313735269165,34.59377770317926L214.59922916050414,34.39722214804755L214.8547860378479,34.20066659291586L215.11034291519164,34.00411103778415L215.3658997925354,33.807555482652454L215.62145666987914,33.610999927520744L215.86754847769163,33.41444437238905L216.13257042456664,33.21788881725736L216.3881273019104,33.021333262125644L216.64368417925414,32.824777706993956L216.9181711956604,32.628222151862246L217.1831931425354,32.43166659673055L217.44821508941038,32.23511104159884L217.7132370362854,32.038555486467146L217.95932884409788,31.841999931335458L218.20542065191037,31.645444376203745L218.47044259878538,31.448888821072053L218.71653440659787,31.252333265940344L218.97209128394164,31.055777710808652L219.2276481612854,30.85922215567694L219.49267010816038,30.662666600545247L219.74822698550415,30.466111045413555L220.00378386284788,30.269555490281846L220.2498756706604,30.072999935150154L220.5148976175354,29.87644438001844L220.7609894253479,29.67988882488675L221.0260113722229,29.48333326975504L221.30049838862917,29.286777714623348L221.54659019644166,29.090222159491635L221.8021470737854,28.893666604359943L222.0482388815979,28.69711104922825L222.32272589800417,28.50055549409654L222.58774784487915,28.30399993896485L222.84330472222288,28.107444383833137L223.1083266690979,27.910888828701445L223.35441847691038,27.714333273569736L223.60051028472293,27.517777718438044L223.85606716206664,27.321222163306352L224.1116240394104,27.12466660817464L224.36718091675414,26.928111053042947L224.6227377940979,26.731555497911238L224.8877597409729,26.534999942779546L225.16224675737917,26.338444387647833L225.4178036347229,26.14188883251614L225.67336051206667,25.94533327738443L225.9289173894104,25.74877772225274L226.18447426675417,25.552222167121048L226.44949621362915,25.355666611989335L226.69558802144167,25.159111056857643L226.94167982925416,24.962555501725934L227.18777163706665,24.765999946594242L227.45279358394166,24.56944439146253L227.71781553081664,24.372888836330837L227.98283747769165,24.176333281199145L228.24785942456666,23.979777726067436L228.5034163019104,23.783222170935744L228.74950810972288,23.58666661580403L229.00506498706665,23.39011106067234L229.25115679487914,23.19355550554063L229.5256438112854,22.996999950408938L229.78120068862916,22.800444395277246L230.0367575659729,22.603888840145533L230.3017795128479,22.40733328501384L230.56680145972288,22.21077772988213L230.82235833706665,22.01422217475044L231.07791521441038,21.817666619618727L231.33347209175415,21.621111064487035L231.58902896909788,21.424555509355322L231.8540509159729,21.22799995422363L232.10014272378538,21.03144439909194L232.37462974019166,20.83488884396023L232.62072154800416,20.638333288828537L232.8762784253479,20.441777733696824L233.13183530269166,20.245222178565133L233.37792711050415,20.048666623433423L233.6334839878479,19.85211106830173L233.90797100425416,19.65555551317004L234.15406281206666,19.458999958038326L234.41908475894166,19.262444402906635L234.66517656675416,19.065888847774925L234.93019851362916,18.869333292643233L235.1857553909729,18.67277773751152L235.45077733784788,18.47622218237983L235.70633421519165,18.279666627248137L235.97135616206666,18.083111072116427L236.2269130394104,17.886555516984735L236.47300484722288,17.689999961853022L236.7380267940979,17.49344440672133L237.0030487409729,17.29688885158962L237.25860561831666,17.10033329645793L237.5141624956604,16.903777741326216L237.76971937300416,16.707222186194524L238.01581118081666,16.510666631062833L238.2713680581604,16.314111075931123L238.5174598659729,16.11755552079943L238.7824818128479,15.920999965667718L239.0285736206604,15.724444410536027L239.29359556753542,15.527888855404315L239.5586175144104,15.331333300272624L239.81417439175416,15.134777745140932L240.06026619956666,14.93822219000922L240.30635800737915,14.741666634877529L240.57137995425416,14.545111079745817L240.82693683159792,14.348555524614126L241.0730286394104,14.151999969482414L241.32858551675415,13.955444414350723L241.57467732456666,13.758888859219011L241.82076913237916,13.56233330408732L242.0763260097229,13.365777748955628L242.3413479565979,13.169222193823916L242.6063699034729,12.972666638692225L242.8713918503479,12.776111083560513L243.1364137972229,12.579555528428822L243.3825056050354,12.38299997329711L243.65699262144165,12.186444418165419L243.9125494987854,11.989888863033727L244.18703651519166,11.793333307902016L244.45205846206665,11.596777752770324L244.71708040894165,11.400222197638612L244.9726372862854,11.20366664250692L245.22819416362915,11.00711108737521L245.49321611050416,10.810555532243518L245.75823805737915,10.613999977111826L246.0327250737854,10.417444421980115L246.28828195112914,10.220888866848423L246.53437375894163,10.024333311716711L246.7899306362854,9.82777775658502L247.0549525831604,9.631222201453308L247.3199745300354,9.434666646321617L247.57553140737915,9.238111091189905L247.84055335425415,9.041555536058214L248.09611023159792,8.844999980926522L248.37059724800415,8.64844442579481L248.61668905581664,8.451888870663119L248.8722459331604,8.255333315531407L249.12780281050414,8.058777760399716L249.4022898269104,7.8622222052680035L249.6673117737854,7.665666650136312L249.9323337206604,7.46911109500462L250.20682073706664,7.272555539872909L250.4623776144104,7.075999984741217L250.7273995612854,6.879444429609506L250.99242150816042,6.682888874477814L251.24797838550415,6.486333319346103L251.51300033237914,6.289777764214411L251.77802227925415,6.093222209082719L252.03357915659788,5.896666653951008L252.2986011034729,5.700111098819316L252.55415798081665,5.503555543687605L252.80024978862915,5.306999988555913L253.0558066659729,5.110444433424202L253.3018984737854,4.91388887829251L253.5479902815979,4.717333323160799L253.7940820894104,4.520777768029107L254.04963896675417,4.324222212897415L254.31466091362913,4.127666657765704L254.5702177909729,3.9311111026340115" fill="none"></path></g></g></g></g></g></g><g transform="translate(41, 176)" clip-path="url(#clip_1)"><clipPath id="clip_1"><rect width="288" height="23"></rect></clipPath><g><g><line x1="0" y1="0" x2="0" y2="5" style="visibility: inherit;" fill="rgb(0, 0, 0)" stroke="rgb(204, 204, 204)" stroke-width="1px"></line><line x1="28.8850998878479" y1="0" x2="28.8850998878479" y2="5" style="visibility: inherit;" fill="rgb(0, 0, 0)" stroke="rgb(204, 204, 204)" stroke-width="1px"></line><line x1="57.7701997756958" y1="0" x2="57.7701997756958" y2="5" style="visibility: inherit;" fill="rgb(0, 0, 0)" stroke="rgb(204, 204, 204)" stroke-width="1px"></line><line x1="86.6552996635437" y1="0" x2="86.6552996635437" y2="5" style="visibility: inherit;" fill="rgb(0, 0, 0)" stroke="rgb(204, 204, 204)" stroke-width="1px"></line><line x1="115.5403995513916" y1="0" x2="115.5403995513916" y2="5" style="visibility: inherit;" fill="rgb(0, 0, 0)" stroke="rgb(204, 204, 204)" stroke-width="1px"></line><line x1="144.4254994392395" y1="0" x2="144.4254994392395" y2="5" style="visibility: inherit;" fill="rgb(0, 0, 0)" stroke="rgb(204, 204, 204)" stroke-width="1px"></line><line x1="173.3105993270874" y1="0" x2="173.3105993270874" y2="5" style="visibility: inherit;" fill="rgb(0, 0, 0)" stroke="rgb(204, 204, 204)" stroke-width="1px"></line><line x1="202.1956992149353" y1="0" x2="202.1956992149353" y2="5" style="visibility: inherit;" fill="rgb(0, 0, 0)" stroke="rgb(204, 204, 204)" stroke-width="1px"></line><line x1="231.0807991027832" y1="0" x2="231.0807991027832" y2="5" style="visibility: inherit;" fill="rgb(0, 0, 0)" stroke="rgb(204, 204, 204)" stroke-width="1px"></line><line x1="259.9658989906311" y1="0" x2="259.9658989906311" y2="5" style="visibility: inherit;" fill="rgb(0, 0, 0)" stroke="rgb(204, 204, 204)" stroke-width="1px"></line><line x1="288.850998878479" y1="0" x2="288.850998878479" y2="5" style="visibility: inherit;" fill="rgb(0, 0, 0)" stroke="rgb(204, 204, 204)" stroke-width="1px"></line></g><g transform="translate(0, 8)"><text style="text-anchor: middle; visibility: hidden; font-family: Roboto, sans-serif; font-size: 12px; font-weight: 200;" x="0" y="0" dx="0em" dy="0.95em" fill="rgb(33, 33, 33)" stroke="none" stroke-width="1px">-50M</text><text style="text-anchor: middle; visibility: inherit; font-family: Roboto, sans-serif; font-size: 12px; font-weight: 200;" x="28.8850998878479" y="0" dx="0em" dy="0.95em" fill="rgb(33, 33, 33)" stroke="none" stroke-width="1px">0</text><text style="text-anchor: middle; visibility: hidden; font-family: Roboto, sans-serif; font-size: 12px; font-weight: 200;" x="57.7701997756958" y="0" dx="0em" dy="0.95em" fill="rgb(33, 33, 33)" stroke="none" stroke-width="1px">50M</text><text style="text-anchor: middle; visibility: inherit; font-family: Roboto, sans-serif; font-size: 12px; font-weight: 200;" x="86.6552996635437" y="0" dx="0em" dy="0.95em" fill="rgb(33, 33, 33)" stroke="none" stroke-width="1px">100M</text><text style="text-anchor: middle; visibility: hidden; font-family: Roboto, sans-serif; font-size: 12px; font-weight: 200;" x="115.5403995513916" y="0" dx="0em" dy="0.95em" fill="rgb(33, 33, 33)" stroke="none" stroke-width="1px">150M</text><text style="text-anchor: middle; visibility: inherit; font-family: Roboto, sans-serif; font-size: 12px; font-weight: 200;" x="144.4254994392395" y="0" dx="0em" dy="0.95em" fill="rgb(33, 33, 33)" stroke="none" stroke-width="1px">200M</text><text style="text-anchor: middle; visibility: hidden; font-family: Roboto, sans-serif; font-size: 12px; font-weight: 200;" x="173.3105993270874" y="0" dx="0em" dy="0.95em" fill="rgb(33, 33, 33)" stroke="none" stroke-width="1px">250M</text><text style="text-anchor: middle; visibility: inherit; font-family: Roboto, sans-serif; font-size: 12px; font-weight: 200;" x="202.1956992149353" y="0" dx="0em" dy="0.95em" fill="rgb(33, 33, 33)" stroke="none" stroke-width="1px">300M</text><text style="text-anchor: middle; visibility: hidden; font-family: Roboto, sans-serif; font-size: 12px; font-weight: 200;" x="231.0807991027832" y="0" dx="0em" dy="0.95em" fill="rgb(33, 33, 33)" stroke="none" stroke-width="1px">350M</text><text style="text-anchor: middle; visibility: inherit; font-family: Roboto, sans-serif; font-size: 12px; font-weight: 200;" x="259.9658989906311" y="0" dx="0em" dy="0.95em" fill="rgb(33, 33, 33)" stroke="none" stroke-width="1px">400M</text><text style="text-anchor: middle; visibility: hidden; font-family: Roboto, sans-serif; font-size: 12px; font-weight: 200;" x="288.850998878479" y="0" dx="0em" dy="0.95em" fill="rgb(33, 33, 33)" stroke="none" stroke-width="1px">450M</text></g><line x1="0" y1="0" x2="288.850998878479" y2="0" fill="rgb(0, 0, 0)" stroke="rgb(204, 204, 204)" stroke-width="1px"></line></g></g></g></g></svg>