<svg viewBox="0 0 330 200" xmlns="http://www.w3.org/2000/svg"><g><g><g><g><g><line x1="61.91500186920166" y1="176.89999961853027" x2="56.91500186920166" y2="176.89999961853027" style="visibility: inherit;" fill="rgb(0, 0, 0)" stroke="rgb(204, 204, 204)" stroke-width="1px"></line><line x1="61.91500186920166" y1="157.24444410536023" x2="56.91500186920166" y2="157.24444410536023" style="visibility: inherit;" fill="rgb(0, 0, 0)" stroke="rgb(204, 204, 204)" stroke-width="1px"></line><line x1="61.91500186920166" y1="137.58888859219022" x2="56.91500186920166" y2="137.58888859219022" style="visibility: inherit;" fill="rgb(0, 0, 0)" stroke="rgb(204, 204, 204)" stroke-width="1px"></line><line x1="61.91500186920166" y1="117.93333307902017" x2="56.91500186920166" y2="117.93333307902017" style="visibility: inherit;" fill="rgb(0, 0, 0)" stroke="rgb(204, 204, 204)" stroke-width="1px"></line><line x1="61.91500186920166" y1="98.27777756585016" x2="56.91500186920166" y2="98.27777756585016" style="visibility: inherit;" fill="rgb(0, 0, 0)" stroke="rgb(204, 204, 204)" stroke-width="1px"></line><line x1="61.91500186920166" y1="78.62222205268012" x2="56.91500186920166" y2="78.62222205268012" style="visibility: inherit;" fill="rgb(0, 0, 0)" stroke="rgb(204, 204, 204)" stroke-width="1px"></line><line x1="61.91500186920166" y1="58.9666665395101" x2="56.91500186920166" y2="58.9666665395101" style="visibility: inherit;" fill="rgb(0, 0, 0)" stroke="rgb(204, 204, 204)" stroke-width="1px"></line><line x1="61.91500186920166" y1="39.31111102634008" x2="56.91500186920166" y2="39.31111102634008" style="visibility: inherit;" fill="rgb(0, 0, 0)" stroke="rgb(204, 204, 204)" stroke-width="1px"></line><line x1="61.91500186920166" y1="19.655555513170018" x2="56.91500186920166" y2="19.655555513170018" style="visibility: inherit;" fill="rgb(0, 0, 0)" stroke="rgb(204, 204, 204)" stroke-width="1px"></line><line x1="61.91500186920166" y1="0" x2="56.91500186920166" y2="0" style="visibility: inherit;" fill="rgb(0, 0, 0)" stroke="rgb(204, 204, 204)" stroke-width="1px"></line></g><g transform="translate(51.91500186920166, 0)"><text style="text-anchor: end; visibility: hidden; font-family: Roboto, sans-serif; font-size: 12px; font-weight: 200;" x="0" y="176.89999961853027" dx="0em" dy="0.3em" fill="rgb(33, 33, 33)" stroke="none" stroke-width="1px">0.01</text><text style="text-anchor: end; visibility: inherit; font-family: Roboto, sans-serif; font-size: 12px; font-weight: 200;" x="0" y="157.24444410536023" dx="0em" dy="0.3em" fill="rgb(33, 33, 33)" stroke="none" stroke-width="1px">0.015</text><text style="text-anchor: end; visibility: hidden; font-family: Roboto, sans-serif; font-size: 12px; font-weight: 200;" x="0" y="137.58888859219022" dx="0em" dy="0.3em" fill="rgb(33, 33, 33)" stroke="none" stroke-width="1px">0.02</text><text style="text-anchor: end; visibility: inherit; font-family: Roboto, sans-serif; font-size: 12px; font-weight: 200;" x="0" y="117.93333307902017" dx="0em" dy="0.3em" fill="rgb(33, 33, 33)" stroke="none" stroke-width="1px">0.025</text><text style="text-anchor: end; visibility: hidden; font-family: Roboto, sans-serif; font-size: 12px; font-weight: 200;" x="0" y="98.27777756585016" dx="0em" dy="0.3em" fill="rgb(33, 33, 33)" stroke="none" stroke-width="1px">0.03</text><text style="text-anchor: end; visibility: inherit; font-family: Roboto, sans-serif; font-size: 12px; font-weight: 200;" x="0" y="78.62222205268012" dx="0em" dy="0.3em" fill="rgb(33, 33, 33)" stroke="none" stroke-width="1px">0.035</text><text style="text-anchor: end; visibility: hidden; font-family: Roboto, sans-serif; font-size: 12px; font-weight: 200;" x="0" y="58.9666665395101" dx="0em" dy="0.3em" fill="rgb(33, 33, 33)" stroke="none" stroke-width="1px">0.04</text><text style="text-anchor: end; visibility: inherit; font-family: Roboto, sans-serif; font-size: 12px; font-weight: 200;" x="0" y="39.31111102634008" dx="0em" dy="0.3em" fill="rgb(33, 33, 33)" stroke="none" stroke-width="1px">0.045</text><text style="text-anchor: end; visibility: hidden; font-family: Roboto, sans-serif; font-size: 12px; font-weight: 200;" x="0" y="19.655555513170018" dx="0em" dy="0.3em" fill="rgb(33, 33, 33)" stroke="none" stroke-width="1px">0.05</text><text style="text-anchor: end; visibility: hidden; font-family: Roboto, sans-serif; font-size: 12px; font-weight: 200;" x="0" y="0" dx="0em" dy="0.3em" fill="rgb(33, 33, 33)" stroke="none" stroke-width="1px">0.055</text></g><line x1="61.91500186920166" y1="0" x2="61.91500186920166" y2="176.89999961853027" fill="rgb(0, 0, 0)" stroke="rgb(204, 204, 204)" stroke-width="1px"></line></g></g><g transform="translate(61, 0)" clip-path="url(#clip_0)"><clipPath id="clip_0"><rect width="268" height="176"></rect></clipPath><g><g><g><line x1="0" y1="0" x2="0" y2="176.89999961853027" fill="rgb(0, 0, 0)" stroke="rgb(66, 66, 66)" stroke-width="1px" opacity="0.25"></line><line x1="26.808499813079834" y1="0" x2="26.808499813079834" y2="176.89999961853027" fill="rgb(0, 0, 0)" stroke="rgb(66, 66, 66)" stroke-width="1px" opacity="0.25"></line><line x1="53.61699962615967" y1="0" x2="53.61699962615967" y2="176.89999961853027" fill="rgb(0, 0, 0)" stroke="rgb(66, 66, 66)" stroke-width="1px" opacity="0.25"></line><line x1="80.4254994392395" y1="0" x2="80.4254994392395" y2="176.89999961853027" fill="rgb(0, 0, 0)" stroke="rgb(66, 66, 66)" stroke-width="1px" opacity="0.25"></line><line x1="107.23399925231934" y1="0" x2="107.23399925231934" y2="176.89999961853027" fill="rgb(0, 0, 0)" stroke="rgb(66, 66, 66)" stroke-width="1px" opacity="0.25"></line><line x1="134.04249906539917" y1="0" x2="134.04249906539917" y2="176.89999961853027" fill="rgb(0, 0, 0)" stroke="rgb(66, 66, 66)" stroke-width="1px" opacity="0.25"></line><line x1="160.850998878479" y1="0" x2="160.850998878479" y2="176.89999961853027" fill="rgb(0, 0, 0)" stroke="rgb(66, 66, 66)" stroke-width="1px" opacity="0.25"></line><line x1="187.65949869155884" y1="0" x2="187.65949869155884" y2="176.89999961853027" fill="rgb(0, 0, 0)" stroke="rgb(66, 66, 66)" stroke-width="1px" opacity="0.25"></line><line x1="214.46799850463867" y1="0" x2="214.46799850463867" y2="176.89999961853027" fill="rgb(0, 0, 0)" stroke="rgb(66, 66, 66)" stroke-width="1px" opacity="0.25"></line><line x1="241.2764983177185" y1="0" x2="241.2764983177185" y2="176.89999961853027" fill="rgb(0, 0, 0)" stroke="rgb(66, 66, 66)" stroke-width="1px" opacity="0.25"></line><line x1="268.08499813079834" y1="0" x2="268.08499813079834" y2="176.89999961853027" fill="rgb(0, 0, 0)" stroke="rgb(66, 66, 66)" stroke-width="1px" opacity="0.25"></line></g><g><line x1="0" y1="176.89999961853027" x2="268.08499813079834" y2="176.89999961853027" fill="rgb(0, 0, 0)" stroke="rgb(66, 66, 66)" stroke-width="1px" opacity="0.25"></line><line x1="0" y1="157.24444410536023" x2="268.08499813079834" y2="157.24444410536023" fill="rgb(0, 0, 0)" stroke="rgb(66, 66, 66)" stroke-width="1px" opacity="0.25"></line><line x1="0" y1="137.58888859219022" x2="268.08499813079834" y2="137.58888859219022" fill="rgb(0, 0, 0)" stroke="rgb(66, 66, 66)" stroke-width="1px" opacity="0.25"></line><line x1="0" y1="117.93333307902017" x2="268.08499813079834" y2="117.93333307902017" fill="rgb(0, 0, 0)" stroke="rgb(66, 66, 66)" stroke-width="1px" opacity="0.25"></line><line x1="0" y1="98.27777756585016" x2="268.08499813079834" y2="98.27777756585016" fill="rgb(0, 0, 0)" stroke="rgb(66, 66, 66)" stroke-width="1px" opacity="0.25"></line><line x1="0" y1="78.62222205268012" x2="268.08499813079834" y2="78.62222205268012" fill="rgb(0, 0, 0)" stroke="rgb(66, 66, 66)" stroke-width="1px" opacity="0.25"></line><line x1="0" y1="58.9666665395101" x2="268.08499813079834" y2="58.9666665395101" fill="rgb(0, 0, 0)" stroke="rgb(66, 66, 66)" stroke-width="1px" opacity="0.25"></line><line x1="0" y1="39.31111102634008" x2="268.08499813079834" y2="39.31111102634008" fill="rgb(0, 0, 0)" stroke="rgb(66, 66, 66)" stroke-width="1px" opacity="0.25"></line><line x1="0" y1="19.655555513170018" x2="268.08499813079834" y2="19.655555513170018" fill="rgb(0, 0, 0)" stroke="rgb(66, 66, 66)" stroke-width="1px" opacity="0.25"></line><line x1="0" y1="0" x2="268.08499813079834" y2="0" fill="rgb(0, 0, 0)" stroke="rgb(66, 66, 66)" stroke-width="1px" opacity="0.25"></line></g></g></g><g><g><line x1="0" y1="216.21111064487036" x2="268.08499813079834" y2="216.21111064487036" fill="rgb(0, 0, 0)" stroke="rgb(153, 153, 153)" stroke-width="1.5px"></line></g></g><g><g><line x1="26.808499813079834" y1="0" x2="26.808499813079834" y2="176.89999961853027" fill="rgb(0, 0, 0)" stroke="rgb(153, 153, 153)" stroke-width="1.5px"></line></g></g><g><g><g><g><g><path style="fill: none;" stroke="rgb(187, 187, 187)" stroke-width="2px" d="M27.537622378236083,-73.78835345154256L27.766022217923584,23.64284992042639L28.003206666829833,86.54382957333826L28.231606506517334,124.95831193843739L28.460006346204832,148.33256657470446L28.688406185892337,161.13461441865647L28.925590634798585,167.52092804932687L29.180344302142334,170.82324235315235L29.426313360267336,172.957011160284L29.672282418392335,173.9070421301471L29.927036085736084,177.60113358025205L30.155435925423586,176.09785674241445L30.410189592767335,177.94507238161484L31.350142779173584,177.48674031211496L31.578542618861082,175.24270266408078L31.824511676986084,175.03182824046172L32.05291151667358,163.34040668166006L32.28131135636109,167.58374970900752L32.509711196048585,171.88024785135107L32.73811103573608,175.5456040356083L32.96651087542358,179.66151083752766L36.849308150111085,177.38445782792513L37.07770798979859,174.71224048703118L37.30610782948608,171.52399410198342L37.534507669173585,169.1290508534356L37.76290750886108,166.88062563630731L37.99130734854858,164.8193718627124L38.219707188236086,162.65076179115076L38.456891637142334,160.18487819734057L38.69407608604858,160.4020442550975L38.92247592573609,159.6058064401029L39.150875765423585,158.0030855969784L39.38806021432983,157.69002125136637L39.61646005401733,156.89380786092082L39.844859893704836,153.91047102836015L40.082044342611084,151.34126863158573L40.31922879151733,145.86592181510886L40.56519784964234,142.11270969160705L40.80238229854859,134.17312811996828L41.048351356673585,132.52016439299288L41.27675119636108,128.70159352539625L41.51393564526733,127.10477746370253L41.742335484954836,122.80601570681549L41.979519933861084,117.55353735012376L42.21670438276733,117.37729749757158L42.45388883167358,114.09534246756861L42.69985788979859,112.44316787599617L42.928257729486084,109.9598989016136L43.15665756917358,105.75167842670015L43.40262662729859,108.41547594492026L43.639811076204836,114.06932567040553L43.868210915892334,116.82784074735282L44.09661075557983,121.24711362770869L44.32501059526734,121.99964499241698L44.562195044173585,126.68550373305591L44.79059488386108,124.75970681314922L45.02777933276734,121.602617222492L45.264963781673586,118.13732757309143L45.51093283979858,120.33664403446829L45.73933267948608,120.29465872963364L45.96773251917359,112.90358525201432L46.22248618651734,110.18818263348953L46.46845524464233,108.94821610242663L46.705639693548584,110.1433271948006L46.93403953323608,110.52034786239857L47.162439372923586,105.0072459212054L47.408408431048585,103.32907492326328L47.663162098392334,103.47510688649628L47.90034654729858,107.5666255191509L48.13753099620483,107.92605968020396L48.365930835892335,103.47494485599816L48.611899894017334,102.03428761404693L48.85786895214233,107.25494739173915L49.08626879182984,108.15194361297206L49.314668631517335,106.77956616361897L49.551853080423584,105.2124377376168L49.78903752932984,106.9825087971649L50.01743736901733,109.20308899209024L50.245837208704835,107.7276706510787L50.48302165761108,107.39269372101843L50.72020610651733,103.3717375479188L50.96617516464234,104.15868905437473L51.194575004329835,103.21290919369618L51.43175945323608,105.18807437646159L51.66015929292358,105.41908821099169L51.888559132611086,102.17123094636385L52.125743581517334,98.29645627941639L52.36292803042358,96.47338630150773L52.59132787011109,96.03492803931034L52.828512319017335,99.3809301486707L53.06569676792358,96.4081434823682L53.31166582604859,97.06331293946285L53.54885027495484,99.64383877864903L53.777250114642335,95.5977797832475L54.01443456354858,97.08286992551861L54.25161901245484,94.30829855585645L54.50637267979859,93.2378951995348L54.743557128704836,94.98746519880632L54.980741577611084,95.17086901841063L55.20914141729859,97.74762130773988L55.43754125698608,96.83437281597749L55.67472570589233,93.41744312733252L55.91191015479858,92.18229441626904L56.14030999448608,86.60272275392401L56.38627905261109,86.83577823566382L56.614678892298585,87.5040623205697L56.85186334120483,87.64208144769685L57.08904779011109,85.77578798331129L57.33501684823608,82.28171182065256L57.580985906361086,76.00226113689051L57.826954964486085,81.06940725282975L58.05535480417358,83.30250599931803L58.29253925307984,87.99381867010666L58.520939092767335,89.31054699973281L58.758123541673584,82.27293623897654L59.01287720901734,82.33327389489793L59.25884626714233,85.11204549862238L59.49603071604858,91.79023902465399L59.73321516495483,88.2368579223852L59.979184223079834,89.47932731641075L60.22515328120483,90.58246938140005L60.45355312089233,90.33699711175703L60.690737569798586,90.66103330519114L60.927922018704834,86.52604573924076L61.16510646761108,80.18757854314177L61.41986013495483,80.95225016300887L61.65704458386108,80.03145639458535L61.894229032767335,80.6482345598204L62.14019809089233,85.76493340217706L62.36859793057984,90.94083905809238L62.59699777026733,93.6549253766117L62.825397609954834,89.72935713582362L63.05379744964233,90.88200792488705L63.28219728932984,86.1801878564207L63.528166347454835,90.2436006915992L63.75656618714233,92.58864684015286L63.98496602682983,89.76344927761073L64.22215047573609,93.29836104690857L64.45055031542358,92.65355973614805L64.68773476432983,93.38692984951817L64.92491921323608,96.77901678792942L65.15331905292358,98.5018308312053L65.38171889261109,97.88287818289828L65.61890334151734,94.47303020949518L65.86487239964234,95.36454469469574L66.10205684854859,87.9856079233932L66.34802590667358,87.9996213615944L66.58521035557983,81.32713037848711L66.82239480448608,80.7517972599351L67.05957925339234,82.9361412070152L67.29676370229859,81.29607979304109L67.54273276042359,82.2833431350665L67.77991720932984,80.70890233147875L68.02588626745482,80.05824143466653L68.26307071636109,79.97645786510023L68.50025516526733,77.80400701725804L68.74622422339233,71.8687469700113L69.0009778907361,75.08878158730495L69.25573155807983,79.95063390254415L69.49291600698608,79.62473754273914L69.73888506511109,86.15593322304339L69.97606951401734,85.89989637329089L70.21325396292359,87.90464368074396L70.45043841182984,92.93142781901756L70.67883825151733,92.18582523215254L70.91602270042358,92.9358736798022L71.15320714932984,95.1342341109357L71.38160698901734,93.81606339770426L71.61000682870483,89.67487910927397L71.84719127761107,83.79322920297606L72.09316033573609,84.93713892250307L72.33034478464234,86.9256939399519L72.55874462432983,86.17205927675582L72.79592907323608,82.81907825035186L73.03311352214234,81.57711743251404L73.27908258026733,82.26951244772823L73.50748241995484,85.50730186675608L73.73588225964234,86.3295283816437L73.96428209932984,78.98344818769387L74.21025115745483,84.42444569745305L74.43865099714233,86.74383351339146L74.66705083682983,89.25096348832581L74.89545067651733,87.20177554503015L75.12385051620483,86.72233217710999L75.35225035589234,83.36472746357356L75.58943480479859,81.96039634494062L75.82661925370483,84.78608843325526L76.07258831182983,80.5147832240199L76.32734197917358,82.77911837886464L76.57331103729858,86.72529077586405L76.80171087698608,84.86051414756645L77.03011071667359,80.42838768206995L77.27607977479857,80.11381822046872L77.52204883292359,74.02468408679906L77.75923328182984,75.06740564612299L77.99641773073608,78.77973647469416L78.2248175704236,81.15032332888129L78.46200201932984,85.22320065127722L78.69040185901733,84.59452221306954L78.91880169870483,84.81743627608539L79.14720153839234,79.51541633326573L79.39317059651732,80.66618522906207L79.62157043620483,87.56912860320442L79.84997027589233,85.99597514409983L80.08715472479858,78.28963156365099L80.34190839214234,77.85498110417069L80.58787745026733,81.41758473467235L80.81627728995484,82.54395968626228L81.04467712964234,88.09433949934929L81.27307696932982,91.14174343610341L81.50147680901733,83.10324329617885L81.75623047636108,82.24152959619559L81.99341492526733,82.10472023887299L82.23059937417358,80.66039458115426L82.45899921386109,78.41186517918277L82.69618366276734,78.80084237403668L82.92458350245484,70.98128362427246L83.17055256057984,72.08537302873377L83.40773700948608,79.26710282596358L83.63613684917358,83.40847840863277L83.8645366888611,80.93671611655735L84.11050574698608,84.98332199082793L84.33890558667359,87.97702714257873L84.56730542636109,77.84902950530217L84.82205909370484,79.64104152654065L85.05924354261109,74.2371571751956L85.31399720995483,78.26125492661241L85.54239704964233,82.7029441570501L85.77079688932984,84.09380742916122L85.99919672901733,82.46030031606249L86.23638117792358,79.68214064831821L86.48235023604859,82.36588869825907L86.71953468495484,75.7109580742096L86.96550374307984,74.28214561360001L87.21147280120482,72.30599260995083L87.4486572501111,66.88674876166421L87.70341091745483,68.0449047640767L87.94059536636108,65.75973608258002L88.19534903370483,69.97500174356232L88.43253348261109,66.70936160293564L88.67850254073608,61.81183959625063L88.93325620807984,58.4681239613022L89.18800987542357,55.43055062245739L89.43397893354859,53.916074811153614L89.68873260089232,64.01389593240849L89.91713244057983,68.92757966282771L90.14553228026733,63.39460362878619L90.4002859476111,66.23996013717708L90.64625500573608,68.57305196760893L90.87465484542359,74.11742036924406L91.10305468511109,78.14715458712102L91.34023913401734,75.88965274692868L91.57742358292359,75.24849255949808L91.82339264104859,77.0906729759314L92.06057708995483,78.08883012830091L92.29776153886108,73.47938559081373L92.55251520620483,74.2623345282242L92.79848426432983,70.6712928632644L93.04445332245483,73.7605518965416L93.27285316214233,73.97331659595407L93.51003761104857,73.73309310505071L93.74722205995482,73.92135469583555L93.97562189964233,75.75782639222264L94.20402173932983,72.26315461082055L94.4587754066736,70.05280371376173L94.70474446479858,73.1982652802824L94.94192891370483,79.50707731186196L95.17032875339234,80.07067335980602L95.40751320229859,80.62392984598826L95.63591304198609,81.48305167272694L95.8643128816736,78.56739338676307L96.09271272136108,75.54491427082115L96.3386817794861,75.99977663925723L96.57586622839234,70.29397094126345L96.82183528651733,76.13529088226252L97.05901973542358,68.92539486028133L97.31377340276734,75.88075967485287L97.54217324245482,69.75326215254822L97.79692690979859,69.15264215333919L98.03411135870483,67.19369082668418L98.28008041682985,64.3466937876581L98.52604947495483,69.66001466367497L98.76323392386108,72.7103778958487L99.00041837276733,73.20356781476669L99.23760282167358,71.97662051717296L99.48357187979857,71.53771266744089L99.72075632870482,70.73536724228961L99.96672538682984,71.70012490335074L100.19512522651733,76.90470620308699L100.42352506620483,79.4455223633139L100.65192490589233,76.05739901261573L100.89789396401734,73.02420401678496L101.14386302214234,72.00736375832297L101.38983208026733,75.00843669553419L101.63580113839234,74.62848064393614L101.89055480573609,78.75540949290416L102.12773925464234,83.05386182831342L102.35613909432983,82.95850814662914L102.59332354323608,82.58845948663027L102.82172338292358,78.91473798842974L103.05890783182983,76.35160866259898L103.29609228073609,74.4130215779833L103.53327672964234,72.74343804673934L103.77924578776732,74.54216140999343L104.01643023667359,73.3208979175727L104.25361468557983,78.85808992361804L104.49079913448608,76.93664410904461L104.73676819261108,71.8386866693718L104.98273725073608,69.43969514694376L105.23749091807983,70.3784781890723L105.47467536698609,77.84297108611604L105.70307520667359,78.11967081160294L105.94904426479859,77.96756459165171L106.19501332292357,73.57947858594365L106.44976699026734,74.03961030779426L106.69573604839233,77.70089547666603L106.9329204972986,81.34336872699132L107.17010494620484,84.60560639385001L107.40728939511109,82.81028231011847L107.64447384401734,84.57813343354877L107.88165829292359,77.83740420005755L108.13641196026732,74.56990584176096L108.38238101839234,81.43428264597968L108.61078085807982,80.0685849440386L108.83918069776733,75.69515561809975L109.08514975589235,70.39029964012757L109.33111881401733,72.72591360220794L109.55951865370484,74.41127456405245L109.79670310261109,68.72973002578838L110.05145676995483,69.06876030581168L110.28864121886109,71.59313732158866L110.53461027698609,69.71510625840257L110.78057933511109,72.2882691430196L111.01776378401733,74.8555032026327L111.26373284214235,76.76749837989301L111.5009172910486,81.56226716462488L111.72931713073608,82.225467130492L111.96650157964234,87.46043438177405L112.19490141932982,84.95956852501085L112.44087047745484,88.9958880801946L112.66927031714232,83.20162397090004L112.92402398448608,80.60289964137337L113.16120843339233,86.36655099814082L113.38960827307983,78.8250712707928L113.63557733120483,77.99603519943783L113.88154638932984,76.63434025540364L114.11873083823609,76.48241926586195L114.35591528714234,73.22346737172764L114.59309973604859,70.68291252996048L114.82149957573608,67.50351927426287L115.05868402464233,60.331602387133636L115.30465308276733,56.45515285591109L115.54183753167358,54.60646636223059L115.78780658979858,55.576086511704034L116.02499103870484,59.370183130969984L116.26217548761109,57.28270587646617L116.50814454573609,54.02149963016305L116.76289821307984,60.774287951633724L116.99129805276733,60.86113016707619L117.22848250167358,65.30856273702626L117.45688234136108,64.91534310116175L117.7028513994861,68.94238129771031L117.93125123917358,65.73163099282867L118.17722029729859,60.828316892319016L118.42318935542359,63.41627871431809L118.65158919511109,61.325971213150034L118.88877364401733,66.4196164247679L119.11717348370483,63.012129748890075L119.36314254182983,64.2539405809601L119.60911159995483,64.64377421236883L119.85508065807984,50.92907583775369L120.10983432542358,57.16868932082386L120.34701877432983,54.35341257030147L120.60177244167359,53.790738918522955L120.84774149979857,57.50587954770888L121.08492594870482,61.49410002203709L121.3221103976111,62.11663749511276L121.55929484651735,61.296566343721224L121.7964792954236,60.01877432180833L122.04244835354858,60.869159832716846L122.28841741167358,61.62129534448645L122.53438646979859,59.121908869326006L122.78914013714233,68.70256859248501L123.02632458604857,67.61515554145375L123.27229364417359,65.52829356559751L123.51826270229859,65.5148107319511L123.75544715120483,64.16507119769234L123.99263160011108,63.32527062646104L124.22103143979858,60.50864408841289L124.45821588870483,55.01808457940447L124.70418494682983,61.627504795623224L124.93258478651734,57.66583263747101L125.16976923542359,60.31671241436576L125.40695368432984,57.705625025544656L125.65292274245483,58.39717669983266L125.89889180057983,62.8810493748969L126.12729164026733,60.544538456501165L126.37326069839233,65.68197692400118L126.60166053807984,68.48221062132325L126.83006037776734,61.30212898278435L127.06724482667359,50.354355514329534L127.32199849401732,51.984853345792565L127.55918294292358,49.56044862440186L127.80515200104858,53.86532958479226L128.0335518407361,54.5483354100941L128.27952089886108,60.72587535095366L128.5079207385486,59.83641272400107L128.75388979667358,56.24033545911635L128.9998588547986,52.75054063721289L129.24582791292357,47.96850209195143L129.4917969710486,50.6166993871862L129.72898141995483,54.50777889331424L129.95738125964232,60.32288075621604L130.18578109932983,57.22109497212992L130.43175015745484,54.85080976049366L130.66014999714233,53.03360536424316L130.89733444604857,59.645760757757365L131.1257342857361,57.978922524765245L131.36291873464234,58.074517465709846L131.60010318354858,56.636708916568004L131.83728763245483,55.411800122944456L132.07447208136108,58.72931849204634L132.3028719210486,52.72802243089547L132.54005636995484,55.71877120222656L132.76845620964232,54.365718483269156L133.00564065854857,57.201622549006956L133.24282510745482,58.543905377193916L133.48000955636107,61.32471673761491L133.71719400526734,67.65681858511972L133.94559384495483,66.65911742952143L134.1739936846423,65.39679491854469L134.40239352432985,52.43226007863518L134.6571471916736,43.047022512271255L134.91190085901732,46.17725125152851L135.14030069870483,53.61338012353285L135.36870053839232,57.254331120079364L135.59710037807986,46.438659499519346L135.84306943620481,45.71489001834622L136.07146927589235,48.092401531031534L136.30865372479857,49.77058933213046L136.54583817370485,55.84683496243739L136.77423801339233,61.159094713760155L137.00263785307985,61.09393558669497L137.2398223019861,61.30127240437268L137.47700675089234,62.4141978469806L137.7141911997986,62.92155450378284L137.95137564870484,65.60129955680728L138.1885600976111,65.99210413186444L138.42574454651734,60.285207309477975L138.67171360464232,61.30717197132984L138.9088980535486,60.534609183287024L139.14608250245482,52.88006247800952L139.40083616979857,55.18976423588602L139.63802061870484,57.46268648527941L139.86642045839233,56.93043010241311L140.09482029807984,53.45154820285787L140.3320047469861,53.1036377646783L140.5604045866736,53.918298124357655L140.79758903557982,51.33867282069439L141.02598887526733,49.25675304934997L141.26317332417358,46.09723981458919L141.50035777307986,49.19227641730485L141.73754222198608,47.62861733357289L141.9835112801111,46.45287003244093L142.22948033823607,49.389117944680244L142.47544939636109,55.32754524120783L142.71263384526733,53.684213441618546L142.96738751261108,57.88035119760336L143.20457196151733,59.393395658322824L143.4417564104236,55.00651592540612L143.69651007776733,62.21310472040934L143.93369452667358,64.35569081011178L144.17087897557983,71.37882875113894L144.39927881526734,62.17390519710968L144.64524787339232,62.50429943305937L144.87364771307983,59.64499241208156L145.10204755276732,49.42012200293645L145.34801661089233,48.94211811531216L145.5764164505798,42.81616675070955L145.8136008994861,42.851537420768246L146.0595699576111,40.80683253700428L146.3055390157361,42.72024204378377L146.54272346464234,41.48624363633216L146.77990791354858,33.097756345212844L147.03466158089233,40.88234747739074L147.2718460297986,40.208323170192514L147.51781508792357,41.701734240102425L147.75499953682984,47.852507724352606L147.98339937651733,54.700355925538446L148.21179921620484,45.4944572878362L148.45776827432982,45.507962197877276L148.70373733245484,46.216208410103114L148.94970639057985,49.57620113500043L149.19567544870483,56.00443551392844L149.42407528839234,57.24351994904345L149.67882895573607,57.930882060010155L149.90722879542358,54.32988971405905L150.14441324432983,50.67325597878861L150.38159769323607,46.4071801757689L150.6099975329236,36.87204628138664L150.86475120026734,36.96992309874846L151.09315103995485,40.234114220870715L151.32155087964233,40.00591938228126L151.5587353285486,38.24395169947455L151.79591977745483,32.15492227926615L152.05067344479858,30.55245934541428L152.30542711214235,38.577808333247894L152.54261156104857,33.85443780572133L152.79736522839232,31.908951847818038L153.0521188957361,33.05582405889458L153.30687256307985,37.77732042143963L153.55284162120483,34.18860352642985L153.79881067932985,36.57805389150006L154.03599512823607,34.41120237832018L154.29074879557982,40.93170399670686L154.5279332444861,43.92652515992976L154.7651176933923,46.31582424537214L155.01108675151733,48.46313708672781L155.23948659120484,32.7228886773721L155.4942402585486,38.76256527534012L155.7226400982361,29.098252701666702L155.96860915636108,28.696754405316348L156.20579360526733,26.181923094648756L156.44297805417358,35.795814342716724L156.6713778938611,27.728448149180316L156.91734695198608,16.49218223560257L157.1633160101111,26.550018351599007L157.39171584979857,24.267575916743425L157.64646951714232,29.877535318078753L157.8836539660486,38.270187321389656L158.11205380573608,35.33690477482688L158.3580228638611,29.720017082502483L158.61277653120484,37.29097688830506L158.8499609801111,39.7940969385109L159.08714542901734,41.289701109771784L159.3243298779236,42.24040484879272L159.56151432682984,46.09973079833936L159.79869877573609,46.38754515414975L160.0270986154236,53.287040486473515L160.25549845511108,48.90618691679272L160.5014675132361,44.174708543775495L160.7386519621423,36.8461014963721L160.98462102026733,36.44962371275133L161.2218054691736,33.20355140412125L161.45898991807982,33.787232612008935L161.6961743669861,38.24752827886939L161.92457420667358,40.11753015739003L162.15297404636107,38.87624388707472L162.38137388604858,35.16387526592235L162.61855833495483,32.946453378350974L162.86452739307984,30.491733815841265L163.11049645120485,35.481046992246426L163.34768090011107,37.4510583989538L163.57608073979858,30.7950315837328L163.83083440714233,39.95520853959795L164.05923424682985,31.209456516442998L164.3139879141736,34.9380478187639L164.55117236307984,39.22362088582444L164.77957220276735,41.99978898119151L165.00797204245484,36.646794204373414L165.2627257097986,42.38336755050862L165.49991015870484,52.01230918365639L165.72830999839235,49.57282165870535L165.96549444729857,44.09748859043398L166.20267889620484,44.536381026278825L166.43107873589233,37.20843730211827L166.67704779401734,33.99369552411714L166.91423224292356,35.50973012413711L167.1426320826111,34.36334087410169L167.38860114073606,29.118721210657498L167.63457019886107,36.80591416754579L167.8629700385486,29.337242448042307L168.11772370589233,27.513892749062286L168.37247737323608,32.22568343786606L168.60966182214236,36.15375705176728L168.83806166182984,40.584465841195794L169.0752461107361,40.67231918124566L169.30364595042357,40.057182036746845L169.54083039932985,39.63994853523387L169.77801484823607,34.061278183976434L170.02398390636108,39.460644561320194L170.25238374604857,41.41295161796348L170.48956819495484,41.583915283733255L170.7267526438611,42.06899689255068L170.97272170198607,37.21935304215221L171.20990615089232,35.653436676740085L171.45587520901734,28.391626494646314L171.70184426714235,23.993799302783128L171.94781332526733,30.470842604958925L172.17621316495485,37.19555341046997L172.40461300464233,34.8461848844307L172.64179745354858,28.69972608729083L172.88776651167356,28.943567375091412L173.13373556979857,31.377927665412084L173.37092001870485,31.548846940348945L173.61688907682984,36.06368411179682L173.85407352573608,38.437958902958655L174.09125797464233,36.22319404079381L174.34601164198608,39.77512267761839L174.58319609089233,38.811884801740625L174.8291651490173,35.80098772041903L175.07513420714233,34.23413942390654L175.32110326526734,28.564895787290506L175.5758569326111,24.387599559363004L175.82182599073607,28.96572997470218L176.05901043964235,38.38995743584883L176.28741027932983,36.74030023621283L176.52459472823608,40.87085455097079L176.7529945679236,33.93932092313899L176.99896362604858,38.14969109350541L177.2273634657361,39.97897415269965L177.4557633054236,38.18375138876276L177.68416314511109,31.53303846416242L177.92134759401736,25.449889791418386L178.16731665214232,28.36910329137675L178.4045011010486,28.167285394786596L178.64168554995481,21.34259658922268L178.8964392172986,26.157814138432123L179.13362366620484,28.50951384626743L179.3708081151111,29.370092648779337L179.6167771732361,32.580846010020394L179.85396162214232,35.08491343892031L180.08236146182983,35.63469792726432L180.31954591073608,37.16161836460013L180.55673035964233,38.47465496486904L180.79391480854858,39.467629217634325L181.03109925745483,43.799092798278934L181.26828370636107,45.72402381582299L181.50546815526732,43.92459493349386L181.74265260417357,39.37065172092966L181.98862166229858,33.746828775078555L182.22580611120483,24.455342345982345L182.48055977854858,28.367065758311966L182.71774422745483,29.402787580096245L182.9549286763611,19.711940941189535L183.20968234370483,14.28786784467769L183.46443601104858,21.25167412018472L183.70162045995485,23.504518505392458L183.93880490886107,29.09752706791821L184.16720474854858,34.00637875972299L184.3956045882361,31.799697239728182L184.64157364636108,33.19181517443958L184.87875809526733,28.347714583926642L185.12472715339234,30.552745852382458L185.36191160229856,36.513370959334395L185.5903114419861,39.10927716303329L185.82749589089232,38.92790595553289L186.0646803397986,42.58307892332826L186.29308017948608,45.93296584850167L186.5214800191736,48.31164141252363L186.76744907729858,45.39534943101514L187.00463352620483,42.34837934346744L187.24181797511108,42.993757999664204L187.4702178147986,39.5253616054522L187.70740226370484,35.513911106422604L187.95337132182982,37.861563223012936L188.18177116151733,30.05484378693833L188.42774021964232,26.167123091445614L188.67370927776733,22.667784396090035L188.9196783358923,32.47146022922818L189.14807817557983,29.990988851817452L189.37647801526734,27.571185042147285L189.6136624641736,28.37474197665187L189.85963152229857,27.22346040213541L190.09681597120485,31.410087338388806L190.32521581089233,22.34980940710324L190.57118486901734,21.019131208023122L190.8259385363611,20.866647646708717L191.08069220370484,19.874741508528565L191.32666126182983,23.140071681904008L191.56384571073608,29.01622466572058L191.7922455504236,37.206597609050576L192.0206453901111,36.919517778377056L192.25782983901732,40.85655430185389L192.48622967870483,41.55236342560576L192.71462951839234,37.86072263890052L192.94302935807983,28.718078789459376L193.19778302542358,27.096867638884326L193.4437520835486,25.69908639266226L193.6897211416736,24.448906350444805L193.9356901997986,22.01644642827062L194.17287464870483,24.923957621092487L194.41005909761108,23.381634296107006L194.6560281557361,15.514815065448115L194.91078182307984,28.014230588118323L195.13918166276733,26.069271001936624L195.3763661116736,32.36662393377314L195.6047659513611,28.459680046148314L195.8331657910486,30.440594072500698L196.06156563073608,33.202468787818624L196.29875007964233,32.22970547887616L196.52714991932984,27.843325805943444L196.77311897745486,35.885163731180484L197.00151881714234,38.394175480349276L197.22991865682982,45.708762995578475L197.45831849651734,30.38569102083344L197.71307216386109,28.05255242200287L197.95904122198607,22.06313212227148L198.20501028011108,17.21446714815417L198.4509793382361,20.76315444825546L198.68816378714234,15.637302621413392L198.9429174544861,23.544960610253128L199.17131729417358,18.588450488804L199.40850174307985,13.10070539175192L199.64568619198607,13.386203223821925L199.88287064089235,12.173792998681336L200.12005508979857,25.979871378614963L200.34845492948608,19.722835645267317L200.59442398761107,25.696670913120915L200.83160843651734,26.0587361263114L201.0687928854236,24.406841163276308L201.3235465527673,25.990985799927497L201.56951561089232,24.578560084459898L201.81548466901734,21.993554595660562L202.06145372714232,26.823706107287833L202.28985356682983,32.401060649923465L202.51825340651732,33.12331417752833L202.76422246464233,38.19694380225129L202.9926223043298,38.29159606820703L203.2298067532361,34.60372251515461L203.46699120214234,31.6159278435597L203.71296026026732,29.467687708732367L203.9501447091736,28.266464362852354L204.18732915807982,32.8907729433703L204.41572899776733,21.56139864779635L204.66169805589234,22.92805271240205L204.89009789557986,12.000431597463393L205.13606695370484,7.477896285656354L205.3908206210486,24.052732493635393L205.61922046073607,24.116770626177537L205.85640490964232,32.77587771346703L206.08480474932983,22.219386692616187L206.33955841667358,24.831196987862135L206.5855274747986,27.581033990195493L206.82271192370482,27.192230158258543L207.06868098182983,28.494186664841504L207.2970808215173,31.992178637318005L207.52548066120485,30.54357658580153L207.76266511011107,35.99651755681357L207.99984955901735,36.885259773293946L208.23703400792357,40.19960094301673L208.47421845682985,33.86812677657441L208.72018751495486,31.695493907826382L208.97494118229858,30.19945577262345L209.21212563120483,30.500651695061467L209.4493100801111,32.75881885056903L209.68649452901732,33.79842826964837L209.9236789779236,27.186489782923008L210.16964803604859,26.67605085361514L210.3980478757361,27.4653623627178L210.62644771542358,43.272932080260446L210.85484755511106,38.15572345915792L211.10081661323608,38.53096917513558L211.3467856713611,34.028604559943446L211.59275472948607,35.41334357084971L211.8387237876111,36.56188541235931L212.07590823651734,44.22303696293102L212.30430807620482,43.73567426201744L212.5414925251111,43.96183116626364L212.76989236479858,35.123093690903275L213.02464603214233,39.91218766970709L213.26183048104858,38.74578642318283L213.49901492995482,41.35972165124404L213.74498398807984,38.72962489380222L213.99095304620482,43.49107845858582L214.2281374951111,39.72570582319555L214.46532194401732,39.19787574104601L214.7025063929236,36.87268625282427L214.93969084182982,34.91802849782113L215.18565989995483,36.61334162441562L215.4140597396423,23.747661455601005L215.6688134069861,26.747293695224588L215.8972132466736,36.641995186618644L216.13439769557982,37.96984857854797L216.3715821444861,46.166078465049345L216.59998198417358,47.245865827887854L216.83716643307986,38.65623814762611L217.09192010042358,47.11099067385489L217.3203199401111,41.065140907914376L217.5662889982361,45.62618446331569L217.7946888379236,41.7254995297777L218.0406578960486,41.6736888638132L218.27784234495482,42.163326806040594L218.52381140307983,44.66296241292488L218.76099585198608,43.21378647594345L219.0069649101111,42.06061636663153L219.2441493590173,50.05324865983886L219.47254919870483,44.482334253530446L219.71851825682984,39.37634402109317L219.96448731495482,37.53314300686443L220.2016717638611,43.52524452275558L220.43885621276732,40.07268475688289L220.6760406616736,36.13227840795084L220.90444050136108,34.218752228933226L221.14162495026733,43.634778739160296L221.37002478995484,42.76029751145009L221.61599384807982,49.55311140006001L221.84439368776734,47.024884052779655L222.09036274589235,46.251837050786406L222.33633180401733,49.72714140569373L222.57351625292358,54.40925610634045L222.8019160926111,58.80614428756655L223.03031593229858,52.11887477114833L223.2762849904236,48.936787621547914L223.51346943932984,54.80597161153013L223.74186927901735,55.285034024550285L223.97905372792357,60.42610220995594L224.2074535676111,57.237143602812374L224.4358534072986,51.008435478802134L224.67303785620481,51.29666973625459L224.91900691432983,47.20630641737365L225.16497597245484,43.22626898202991L225.41094503057982,42.476811272809435L225.65691408870484,43.26173496666199L225.88531392839235,28.28950503919466L226.14006759573607,30.655267826807L226.37725204464235,32.0763305398682L226.6320057119861,32.57609357155222L226.87797477011108,34.900692400041244L227.1239438282361,39.989165360800776L227.3611282771423,44.54771854231026L227.5983127260486,45.91478188492976L227.8442817841736,44.8565015846942L228.09025084229856,42.80406590949249L228.34500450964234,48.51427576814397L228.58218895854858,53.51601838734162L228.81058879823607,56.70608383715796L229.04777324714235,52.96586419584256L229.29374230526733,48.70940410524747L229.53971136339234,45.889659536687496L229.7768958122986,40.976197776104115L230.02286487042358,41.89277119600873L230.26004931932985,34.42325929259975L230.5148029866736,41.71538527086299L230.74320282636108,46.609006927946446L230.98038727526733,46.13984048651854L231.21757172417358,38.90877302728477L231.47232539151733,38.97957126158803L231.71829444964231,48.15048369811348L231.96426350776733,43.11106661870308L232.21901717511108,48.60478634820439L232.45620162401733,47.568199657298024L232.70217068214234,45.82690177488508L232.94813974026735,51.22224844396087L233.18532418917357,46.51787424306345L233.43129324729858,48.00781779497515L233.6772623054236,48.618259966487614L233.91444675432982,46.21359859122917L234.16041581245483,51.25566327500305L234.39760026136108,55.19882708679005L234.6260001010486,50.1490926816483L234.86318454995484,55.720681618214L235.09158438964235,61.206065290948516L235.31998422932983,59.8695068416582L235.54838406901735,58.460479849838414L235.7855685179236,57.40814230291225L236.03153757604858,60.07274314906022L236.26872202495483,53.83875374394663" fill="none"></path></g></g></g></g><g opacity="0.2"><g><g><g><path style="fill: none;" stroke="rgb(187, 187, 187)" stroke-width="2px" d="M27.063253480423583,-27.792475829856638L27.300437929329835,55.70940439078933L27.537622378236083,111.78203588891631L27.766022217923584,150.84902904286912L28.003206666829833,173.5585287859904L28.231606506517334,179.89163635224702L28.925590634798585,177.00385950433665L29.180344302142334,175.7467620612052L29.426313360267336,176.14605249536032L29.672282418392335,175.3289865689909L29.927036085736084,183.13503364569493L30.155435925423586,173.84470853115008L30.410189592767335,180.71459304083018L30.866989272142334,177.59093308622656L31.104173721048586,175.71829675591502L31.350142779173584,177.76929247887233L31.578542618861082,171.8767692603873L31.824511676986084,174.71552354394584L32.05291151667358,145.80350517018144L32.28131135636109,173.94871398358518L32.509711196048585,178.32496452719647L36.62090831042358,177.08248232505773L36.849308150111085,173.2879271596744L37.07770798979859,170.70391447638468L37.30610782948608,166.7416245249089L37.534507669173585,165.53663598083787L37.76290750886108,163.50798781074116L37.99130734854858,161.72749120238944L38.219707188236086,159.39784668385212L38.456891637142334,156.48605280665515L38.69407608604858,160.72779334173134L38.92247592573609,158.4114497176145L39.150875765423585,155.59900433229583L39.38806021432983,157.2204247329488L39.61646005401733,155.69948777525326L39.844859893704836,149.43546577952083L40.082044342611084,147.48746503642496L40.31922879151733,137.6529015903947L40.56519784964234,136.4828915063548L40.80238229854859,122.2637557625107L41.048351356673585,130.04071880252985L41.27675119636108,122.97373722400141L41.51393564526733,124.70955337116197L41.742335484954836,116.35787307148499L41.979519933861084,109.67481981508624L42.21670438276733,117.11293771874327L42.45388883167358,109.1724099225642L42.69985788979859,109.96490598863747L42.928257729486084,106.23499544003982L43.15665756917358,99.43934771432998L43.40262662729859,112.41117222225043L43.639811076204836,122.55010025863345L43.868210915892334,120.9656133627737L44.09661075557983,127.87602294824245L44.32501059526734,123.12844203947935L44.562195044173585,133.71429184401433L44.79059488386108,121.8710114332892L45.02777933276734,116.86698283650617L45.264963781673586,112.93939309899056L45.51093283979858,123.63561872653358L45.73933267948608,120.23168077238162L45.96773251917359,101.81697503558536L46.22248618651734,106.11507870570233L46.46845524464233,107.08826630583232L46.705639693548584,111.93599383336161L46.93403953323608,111.0858788637955L47.162439372923586,96.73759300941558L47.408408431048585,100.81181842635007L47.663162098392334,103.69415483134577L47.90034654729858,113.70390346813292L48.13753099620483,108.46521092178352L48.365930835892335,96.79827261968941L48.611899894017334,99.87330175112012L48.85786895214233,115.0859370582775L49.08626879182984,109.49743794482148L49.314668631517335,104.7209999895893L49.551853080423584,102.86174509861354L49.78903752932984,109.63761538648706L50.01743736901733,112.53395928447827L50.245837208704835,105.51454313956138L50.48302165761108,106.89022832592806L50.72020610651733,97.34030328826935L50.96617516464234,105.33911631405867L51.194575004329835,101.79423940267836L51.43175945323608,108.15082215060964L51.66015929292358,105.7656089627869L51.888559132611086,97.29944504942199L52.125743581517334,92.48429427899521L52.36292803042358,93.73878133464476L52.59132787011109,95.3772406460142L52.828512319017335,104.39993331271131L53.06569676792358,91.94896348291445L53.31166582604859,98.04606712510486L53.54885027495484,103.51462753742828L53.777250114642335,89.52869129014526L54.01443456354858,99.3105051389253L54.25161901245484,90.1464415013633L54.50637267979859,91.6322901650523L54.743557128704836,97.61182019771366L54.980741577611084,95.4459747478171L55.20914141729859,101.61274974173378L55.43754125698608,95.46450007833391L55.67472570589233,88.29204859436507L55.91191015479858,90.32957134967378L56.14030999448608,78.23336526040643L56.38627905261109,87.18536145827358L56.614678892298585,88.50648844792846L56.85186334120483,87.84911013838752L57.08904779011109,82.97634778673293L57.33501684823608,77.04059757666448L57.580985906361086,66.58308511124741L57.826954964486085,88.67012642673868L58.05535480417358,86.65215411905046L58.29253925307984,95.03078767628966L58.520939092767335,91.28563949417202L58.758123541673584,71.71652009784216L59.01287720901734,82.42378037878001L59.25884626714233,89.28020290420903L59.49603071604858,101.80752931370131L59.73321516495483,82.90678626898205L59.979184223079834,91.34303140744902L60.22515328120483,92.23718247888397L60.45355312089233,89.96878870729256L60.690737569798586,91.14708759534233L60.927922018704834,80.32356439031514L61.16510646761108,70.6798777489933L61.41986013495483,82.09925759280955L61.65704458386108,78.65026574195008L61.894229032767335,81.57340180767295L62.14019809089233,93.43998166571208L62.36859793057984,98.70469754196532L62.59699777026733,97.72605485439067L62.825397609954834,83.8410047746415L63.05379744964233,92.61098410848216L63.28219728932984,79.12745775372116L63.528166347454835,96.33871994436697L63.75656618714233,96.1062160629834L63.98496602682983,85.52565293379752L64.22215047573609,98.60072870085534L64.45055031542358,91.6863577700073L64.68773476432983,94.48698501957332L64.92491921323608,101.86714719554632L65.15331905292358,101.08605189611916L65.38171889261109,96.9544492104377L65.61890334151734,89.35825824939056L65.86487239964234,96.70181642249655L66.10205684854859,76.91720276643943L66.34802590667358,88.02064151889618L66.58521035557983,71.31839390382623L66.82239480448608,79.88879758210709L67.05957925339234,86.21265712763534L67.29676370229859,78.83598767207991L67.54273276042359,83.76423814810462L67.77991720932984,78.34724112609715L68.02588626745482,79.08225008944811L68.26307071636109,79.85378251075079L68.50025516526733,74.54533074549482L68.74622422339233,62.96585689914116L69.0009778907361,79.9188335132454L69.25573155807983,87.24341237540295L69.49291600698608,79.13589300303158L69.73888506511109,95.95272674349981L69.97606951401734,85.51584109866212L70.21325396292359,90.91176464192358L70.45043841182984,100.47160402642803L70.67883825151733,91.06742135185499L70.91602270042358,94.06094635127673L71.15320714932984,98.43177475763599L71.38160698901734,91.83880732785713L71.61000682870483,83.46310267662852L71.84719127761107,74.9707543435292L72.09316033573609,86.65300350179353L72.33034478464234,89.90852646612521L72.55874462432983,85.04160728196172L72.79592907323608,77.78960671074594L73.03311352214234,79.71417620575727L73.27908258026733,83.3081049705495L73.50748241995484,90.36398599529792L73.73588225964234,87.56286815397513L73.96428209932984,67.96432789676913L74.21025115745483,92.58594196209184L74.43865099714233,90.2229152372991L74.66705083682983,93.01165845072727L74.89545067651733,84.12799363008656L75.12385051620483,86.00316712522977L75.35225035589234,78.32832039326891L75.58943480479859,79.85389966699123L75.82661925370483,89.02462656572726L76.07258831182983,74.10782541016687L76.32734197917358,86.17562111113176L76.57331103729858,92.64454937136321L76.80171087698608,82.06334920512003L77.03011071667359,73.78019798382522L77.27607977479857,79.64196402806684L77.52204883292359,64.89098288629452L77.75923328182984,76.63148798510895L77.99641773073608,84.3482327175509L78.2248175704236,84.70620361016199L78.46200201932984,91.33251663487111L78.69040185901733,83.65150455575804L78.91880169870483,85.15180737060916L79.14720153839234,71.56238641903624L79.39317059651732,82.39233857275659L79.62157043620483,97.92354366441795L79.84997027589233,83.63624495544298L80.08715472479858,66.7301161929777L80.34190839214234,77.20300541495024L80.58787745026733,86.7614901804248L80.81627728995484,84.23352211364718L81.04467712964234,96.4199092189798L81.27307696932982,95.71284934123464L81.50147680901733,71.04549308629197L81.75623047636108,80.94895904622075L81.99341492526733,81.89950620288909L82.23059937417358,78.49390609457612L82.45899921386109,75.03907107622558L82.69618366276734,79.38430816631754L82.92458350245484,59.2519454996262L83.17055256057984,73.74150713542568L83.40773700948608,90.0396975218083L83.63613684917358,89.62054178263654L83.8645366888611,77.22907267844425L84.11050574698608,91.05323080223381L84.33890558667359,92.46758487020496L84.56730542636109,62.65703304938733L84.82205909370484,82.32905955839837L85.05924354261109,66.13133064817808L85.31399720995483,84.29740155373759L85.54239704964233,89.3654780027066L85.77079688932984,86.18010233732792L85.99919672901733,80.01003964641436L86.23638117792358,75.51490114670176L86.48235023604859,86.39151077317041L86.71953468495484,65.7285621381354L86.96550374307984,72.13892692268564L87.21147280120482,69.34176310447714L87.4486572501111,58.757882989234275L87.70341091745483,69.78213876769541L87.94059536636108,62.33198306033498L88.19534903370483,76.2979002350358L88.43253348261109,61.81090139199559L88.67850254073608,54.46555658622316L88.93325620807984,53.45255050887954L89.18800987542357,50.874190614190184L89.43397893354859,51.64436109419796L89.68873260089232,79.1606276142908L89.91713244057983,76.29810525845653L90.14553228026733,55.09513957772387L90.4002859476111,70.50799489976336L90.64625500573608,72.07268971325675L90.87465484542359,82.43397297169676L91.10305468511109,84.19175591393656L91.34023913401734,72.5033999866402L91.57742358292359,74.2867522783522L91.82339264104859,79.85394360058137L92.06057708995483,79.58606585685521L92.29776153886108,66.56521878458298L92.55251520620483,75.43675793433994L92.79848426432983,65.28473036582463L93.04445332245483,78.3944404464574L93.27285316214233,74.29246364507281L93.51003761104857,73.37275786869571L93.74722205995482,74.20374708201282L93.97562189964233,78.51253393680332L94.20402173932983,67.02114693871738L94.4587754066736,66.73727736817352L94.70474446479858,77.91645763006346L94.94192891370483,88.97029535923127L95.17032875339234,80.91606743172213L95.40751320229859,81.45381457526162L95.63591304198609,82.77173441283497L95.8643128816736,74.19390595781732L96.09271272136108,71.01119559690827L96.3386817794861,76.68207019191138L96.57586622839234,61.73526239427278L96.82183528651733,84.89727079376112L97.05901973542358,58.11055082730954L97.31377340276734,86.31380689671013L97.54217324245482,60.562015869091226L97.79692690979859,68.25171215452565L98.03411135870483,64.25526383670166L98.28008041682985,60.07619822911903L98.52604947495483,77.62999597770028L98.76323392386108,77.28592274410931L99.00041837276733,73.94335269314365L99.23760282167358,70.13619957078242L99.48357187979857,70.87935089284275L99.72075632870482,69.5318491045627L99.96672538682984,73.1472613949424L100.19512522651733,84.7115781526914L100.42352506620483,83.25674660365425L100.65192490589233,70.97521398656849L100.89789396401734,68.47441152303884L101.14386302214234,70.48210337063L101.38983208026733,79.51004610135104L101.63580113839234,74.05854656653912L101.89055480573609,84.94580276635617L102.12773925464234,89.50154033142734L102.35613909432983,82.81547762410273L102.59332354323608,82.03338649663198L102.82172338292358,73.40415574112893L103.05890783182983,72.50691467385286L103.29609228073609,71.50514095105979L103.53327672964234,70.23906274987343L103.77924578776732,77.24024645487455L104.01643023667359,71.48900267894157L104.25361468557983,87.16387793268609L104.49079913448608,74.05447538718445L104.73676819261108,64.1917505098626L104.98273725073608,65.84120786330169L105.23749091807983,71.7866527522651L105.47467536698609,89.03971043168166L105.70307520667359,78.53472039983333L105.94904426479859,77.73940526172487L106.19501332292357,66.99734957738153L106.44976699026734,74.72980789057016L106.69573604839233,83.1928232299737L106.9329204972986,86.80707860247924L107.17010494620484,89.49896289413803L107.40728939511109,80.1172961845212L107.64447384401734,87.22991011869425L107.88165829292359,67.72631034982066L108.13641196026732,69.66865830431612L108.38238101839234,91.73084785230776L108.61078085807982,78.02003839112703L108.83918069776733,69.13501162919144L109.08514975589235,62.433015673169365L109.33111881401733,76.2293345453285L109.55951865370484,76.93931600681918L109.79670310261109,60.2074132183923L110.05145676995483,69.57730572584666L110.28864121886109,75.37970284525414L110.53461027698609,66.89805966362343L110.78057933511109,76.1480134699452L111.01776378401733,78.70635429205237L111.26373284214235,79.63549114578348L111.5009172910486,88.75442034172269L111.72931713073608,83.22026707929268L111.96650157964234,95.3128852586971L112.19490141932982,81.20826973986601L112.44087047745484,95.05036741297027L112.66927031714232,74.5102278069582L112.92402398448608,76.70481314708343L113.16120843339233,95.01202803329198L113.38960827307983,67.51285167977079L113.63557733120483,76.75248109240533L113.88154638932984,74.59179783935241L114.11873083823609,76.2545377815494L114.35591528714234,68.33503953052619L114.59309973604859,66.87208026730974L114.82149957573608,62.73442939071648L115.05868402464233,49.573727056439814L115.30465308276733,50.64047855907725L115.54183753167358,51.83343662170989L115.78780658979858,57.030516735914176L116.02499103870484,65.06132805986888L116.26217548761109,54.1514899947104L116.50814454573609,49.12969026070831L116.76289821307984,70.90347043383974L116.99129805276733,60.99139349023988L117.22848250167358,71.9797115919514L117.45688234136108,64.32551364736503L117.7028513994861,74.98293859253315L117.93125123917358,60.915505535506156L118.17722029729859,53.47334574155454L118.42318935542359,67.29822144731668L118.65158919511109,58.190509961397936L118.88877364401733,74.06008424219468L119.11717348370483,57.9008997350734L119.36314254182983,66.11665682906514L119.60911159995483,65.22852465948193L119.85508065807984,30.357028275831L120.10983432542358,66.52810954542912L120.34701877432983,50.130497444517914L120.60177244167359,52.946728440855196L120.84774149979857,63.078590491487766L121.08492594870482,67.47643073352944L121.3221103976111,63.050443704726234L121.55929484651735,60.06645961663392L121.7964792954236,58.102086288939006L122.04244835354858,62.14473809907963L122.28841741167358,62.749498612140826L122.53438646979859,55.37282915658542L122.78914013714233,83.07355817722356L123.02632458604857,65.98403596490681L123.27229364417359,62.39800060181307L123.51826270229859,65.49458648148152L123.75544715120483,62.1404618963042L123.99263160011108,62.06556976961411L124.22103143979858,56.28370428134067L124.45821588870483,46.78224531589177L124.70418494682983,71.5416351199514L124.93258478651734,51.723324400242745L125.16976923542359,64.29303207970787L125.40695368432984,53.788993942313L125.65292274245483,59.434504211264645L125.89889180057983,69.60685838749325L126.12729164026733,57.03977207890756L126.37326069839233,73.38813462525115L126.60166053807984,72.68256116730637L126.83006037776734,50.532006524976026L127.06724482667359,33.932695311647336L127.32199849401732,54.43060009298708L127.55918294292358,45.923841542315785L127.80515200104858,60.32265102537792L128.0335518407361,55.57284414804681L128.27952089886108,69.992185262243L128.5079207385486,58.502218783572175L128.75388979667358,50.8462195617893L128.9998588547986,47.515848404357655L129.24582791292357,40.79544427405921L129.4917969710486,54.58899533003836L129.72898141995483,60.34439815250636L129.95738125964232,69.0455335505687L130.18578109932983,52.56841629600075L130.43175015745484,51.2953819430393L130.66014999714233,50.30779876986739L130.89733444604857,69.56399384802864L131.1257342857361,55.478665175277136L131.36291873464234,58.21790987712674L131.60010318354858,54.47999609285523L131.83728763245483,53.574436932509144L132.07447208136108,63.70559604569917L132.3028719210486,43.726078339169106L132.54005636995484,60.2048943592232L132.76845620964232,52.336139404833L133.00564065854857,61.45547864761369L133.24282510745482,60.55732961947433L133.48000955636107,65.49593377824638L133.71719400526734,77.15497135637699L133.94559384495483,65.16256569612403L134.1739936846423,63.50331115207959L134.40239352432985,32.98545781877095L134.6571471916736,28.9691661627254L134.91190085901732,50.87259436041443L135.14030069870483,64.7675734315394L135.36870053839232,62.71575761489913L135.59710037807986,30.21515206867929L135.84306943620481,44.62923579658653L136.07146927589235,51.65866880005956L136.30865372479857,52.287871033778906L136.54583817370485,64.96120340789778L136.77423801339233,69.12748434074427L137.00263785307985,60.99619689609719L137.2398223019861,61.61227763088922L137.47700675089234,64.08358601089247L137.7141911997986,63.682589488986196L137.95137564870484,69.62091713634396L138.1885600976111,66.57831099445019L138.42574454651734,51.7248620758983L138.67171360464232,62.84011896410766L138.9088980535486,59.37576500122279L139.14608250245482,41.39824242009331L139.40083616979857,58.65431687270075L139.63802061870484,60.8720698593695L139.86642045839233,56.13204552811368L140.09482029807984,48.23322535352503L140.3320047469861,52.58177210740891L140.5604045866736,55.1402886638767L140.79758903557982,47.469234865199546L141.02598887526733,46.1338733923333L141.26317332417358,41.35796996244807L141.50035777307986,53.83483132137832L141.73754222198608,45.283128707974925L141.9835112801111,44.68924908074297L142.22948033823607,53.7934898130392L142.47544939636109,64.23518618599925L142.71263384526733,51.21921574223458L142.96738751261108,64.17455783158059L143.20457196151733,61.66296234940202L143.4417564104236,48.426196326031004L143.69651007776733,73.02298791291418L143.93369452667358,67.56956994466537L144.17087897557983,81.91353566267969L144.39927881526734,48.36651986606577L144.64524787339232,62.99989078698391L144.87364771307983,55.356031880614836L145.10204755276732,34.08281638921878L145.34801661089233,48.22511228387577L145.5764164505798,33.62723970380566L145.8136008994861,42.90459342585626L146.0595699576111,37.739775211358335L146.3055390157361,45.590356303953L146.54272346464234,39.635246025154714L146.77990791354858,20.515025408533884L147.03466158089233,52.55923417565762L147.2718460297986,39.19728670939514L147.51781508792357,43.94185084496734L147.75499953682984,57.07866795072786L147.98339937651733,64.97212822731717L148.21179921620484,31.68560933128279L148.45776827432982,45.52821956293889L148.70373733245484,47.27857772844189L148.94970639057985,54.61619022234643L149.19567544870483,65.64678708232046L149.42407528839234,59.10214660171593L149.67882895573607,58.96192522646018L149.90722879542358,48.92840119513232L150.14441324432983,45.18830537588292L150.38159769323607,40.008066471239374L150.6099975329236,22.56934543981319L150.86475120026734,37.116738324791214L151.09315103995485,45.130400904054085L151.32155087964233,39.66362712439709L151.5587353285486,35.601000175264424L151.79591977745483,23.02137814895354L152.05067344479858,28.148764944636465L152.30542711214235,50.61583181499836L152.54261156104857,26.769382014431443L152.79736522839232,28.990722910963147L153.0521188957361,34.77613237550938L153.30687256307985,44.85956496525725L153.55284162120483,28.80552818391521L153.79881067932985,40.162229439105396L154.03599512823607,31.160925108550405L154.29074879557982,50.71245642428686L154.5279332444861,48.41875690476419L154.7651176933923,49.89977287353576L155.01108675151733,51.684106348761304L155.23948659120484,9.112516063338488L155.4942402585486,47.82208017229215L155.7226400982361,14.601783841156614L155.96860915636108,28.094506960790767L156.20579360526733,22.409676128647305L156.44297805417358,50.21665121481865L156.6713778938611,15.627398858875692L156.91734695198608,-0.3622166347640187L157.1633160101111,41.636772525593614L157.39171584979857,20.843912264460073L157.64646951714232,38.29247442008175L157.8836539660486,50.85916532635599L158.11205380573608,30.936980954982715L158.3580228638611,21.294685544015888L158.61277653120484,48.647416597008885L158.8499609801111,43.54877701381963L159.08714542901734,43.53310736666313L159.3243298779236,43.66646045732409L159.56151432682984,51.88871972265929L159.79869877573609,46.81926668786531L160.0270986154236,63.63628348495919L160.25549845511108,42.334906562271584L160.5014675132361,37.077490984249664L160.7386519621423,25.853190925267025L160.98462102026733,35.854907037320174L161.2218054691736,28.33444294117615L161.45898991807982,34.662754423840454L161.6961743669861,44.93797177916005L161.92457420667358,42.922532975170974L162.15297404636107,37.014314481601815L162.38137388604858,29.595322334193753L162.61855833495483,29.62032054699392L162.86452739307984,26.80965447207669L163.11049645120485,42.9650167568542L163.34768090011107,40.40607550901487L163.57608073979858,20.81099136090134L163.83083440714233,53.69547397339571L164.05923424682985,18.09082848171053L164.3139879141736,40.53093477224519L164.55117236307984,45.651980486415255L164.77957220276735,46.16404112424211L165.00797204245484,28.617302039146328L165.2627257097986,50.98822756971148L165.49991015870484,66.45572163337806L165.72830999839235,45.91359037127881L165.96549444729857,35.884488988026874L166.20267889620484,45.19471968004606L166.43107873589233,26.21652171587746L166.67704779401734,29.171582857115453L166.91423224292356,37.78378202416704L167.1426320826111,32.64375699904854L167.38860114073606,21.251791715491176L167.63457019886107,48.33670360287823L167.8629700385486,18.1342348687871L168.11772370589233,24.77886820059226L168.37247737323608,39.29336947107168L168.60966182214236,42.04586747261911L168.83806166182984,47.2305290253386L169.0752461107361,40.804099191320425L169.30364595042357,39.13447631999858L169.54083039932985,39.014098282964426L169.77801484823607,25.693272657090258L170.02398390636108,47.5596941273358L170.25238374604857,44.34141220292844L170.48956819495484,41.840360782387904L170.7267526438611,42.79661930577683L170.97272170198607,29.94488726655453L171.20990615089232,33.30456212862185L171.45587520901734,17.498911221505665L171.70184426714235,17.397058514988316L171.94781332526733,40.186407558222584L172.17621316495485,47.282619618736476L172.40461300464233,31.32213209537184L172.64179745354858,19.48003789158099L172.88776651167356,29.309329306792275L173.13373556979857,35.02946810089307L173.37092001870485,31.805225852754205L173.61688907682984,42.83593986896866L173.85407352573608,41.999371089701405L174.09125797464233,32.9010467475465L174.34601164198608,45.10301563285531L174.58319609089233,37.36702798792393L174.8291651490173,31.28464209843662L175.07513420714233,31.883866979137846L175.32110326526734,20.061030332366467L175.5758569326111,18.121655217471723L175.82182599073607,35.8329255977109L176.05901043964235,52.52629862756884L176.28741027932983,34.2658144367588L176.52459472823608,47.06668602310768L176.7529945679236,23.542020481391344L176.99896362604858,44.465246349055064L177.2273634657361,42.72289874149095L177.4557633054236,35.490917242857385L177.68416314511109,21.556969077261865L177.92134759401736,16.325166782302322L178.16731665214232,32.747923541314236L178.4045011010486,27.864558549901428L178.64168554995481,11.105563380876811L178.8964392172986,33.38064046224625L179.13362366620484,32.03706340802037L179.3708081151111,30.66096085254719L179.6167771732361,37.39697605188195L179.85396162214232,38.84101458227016L180.08236146182983,36.45937465978031L180.31954591073608,39.45199902060381L180.55673035964233,40.4442098652724L180.79391480854858,40.957090596782216L181.03109925745483,50.296288169245855L181.26828370636107,48.61142034213906L181.50546815526732,41.22545161000011L181.74265260417357,32.539736902083376L181.98862166229858,25.311094356301847L182.22580611120483,10.518112702338044L182.48055977854858,34.2346508768064L182.71774422745483,30.956370312772638L182.9549286763611,5.175670982829474L183.20968234370483,6.1517581999099225L183.46443601104858,31.69738353344525L183.70162045995485,26.88378508320406L183.93880490886107,37.487039911706795L184.16720474854858,41.36965629743022L184.3956045882361,28.48967495973602L184.64157364636108,35.27999207650663L184.87875809526733,21.081563698157222L185.12472715339234,33.86029275506621L185.36191160229856,45.454308619762315L185.5903114419861,43.00313646858169L185.82749589089232,38.655849144282335L186.0646803397986,48.065838375021315L186.29308017948608,50.957796236261714L186.5214800191736,51.8796547585566L186.76744907729858,41.0209114587524L187.00463352620483,37.777924212145926L187.24181797511108,43.961825983959386L187.4702178147986,34.32276701413422L187.70740226370484,29.49673535787818L187.95337132182982,41.383041397898495L188.18177116151733,18.344764632826408L188.42774021964232,20.335542048206545L188.67370927776733,17.418776353056643L188.9196783358923,47.17697397893545L189.14807817557983,26.270281785701343L189.37647801526734,23.941479327642067L189.6136624641736,29.580077378408784L189.85963152229857,25.496538040360686L190.09681597120485,37.690027742768905L190.32521581089233,8.759392510174875L190.57118486901734,19.02311390940301L190.8259385363611,20.637922304737142L191.08069220370484,18.38688230125831L191.32666126182983,28.038066941967205L191.56384571073608,37.83045414144539L191.7922455504236,49.49215702404561L192.0206453901111,36.48889803236679L192.25782983901732,46.76210908706915L192.48622967870483,42.59607711123354L192.71462951839234,32.32326145884261L192.94302935807983,15.004113015297689L193.19778302542358,24.66505091302176L193.4437520835486,23.60241452332915L193.6897211416736,22.57363628711866L193.9356901997986,18.36775654500934L194.17287464870483,29.285224410325327L194.41005909761108,21.068149308628822L194.6560281557361,3.7145862194597887L194.91078182307984,46.763353872123645L195.13918166276733,23.151831622664044L195.3763661116736,41.81265333152797L195.6047659513611,22.5992642147111L195.8331657910486,33.411965112029236L196.06156563073608,37.3452808607955L196.29875007964233,30.77056051546248L196.52714991932984,21.263756296544326L196.77311897745486,47.94792061903601L197.00151881714234,42.15769310410243L197.22991865682982,56.6806442684223L197.45831849651734,7.401083058715868L197.71307216386109,24.55284452375707L197.95904122198607,13.079001672674394L198.20501028011108,9.941469686978277L198.4509793382361,26.086185398407366L198.68816378714234,7.94852488115032L198.9429174544861,35.40644759351272L199.17131729417358,11.153685306630363L199.40850174307985,4.86908774617373L199.64568619198607,13.814449971926933L199.88287064089235,10.355177660970385L200.12005508979857,46.68898894851543L200.34845492948608,10.337282045245843L200.59442398761107,34.65742381490122L200.83160843651734,26.60183394609715L201.0687928854236,21.928998718723648L201.3235465527673,28.367202754904298L201.56951561089232,22.45992151125853L201.81548466901734,18.1160463624615L202.06145372714232,34.068933374728715L202.28985356682983,40.767092463876935L202.51825340651732,34.20669446893558L202.76422246464233,45.80738823933577L202.9926223043298,38.43357446714066L203.2298067532361,29.07191218557597L203.46699120214234,27.134235836167363L203.71296026026732,26.245327506491346L203.9501447091736,26.464629344032293L204.18732915807982,39.82723581414717L204.41572899776733,4.567337204435403L204.66169805589234,24.9780338093106L204.89009789557986,-4.391000074944602L205.13606695370484,0.6940933179457951L205.3908206210486,48.91498680560394L205.61922046073607,24.212827824990736L205.85640490964232,45.76453834440122L206.08480474932983,6.384650161339893L206.33955841667358,28.74891243073102L206.5855274747986,31.705789493695566L206.82271192370482,26.609024410353097L207.06868098182983,30.447121424715935L207.2970808215173,37.23916659603279L207.52548066120485,28.37067350852683L207.76266511011107,44.17592901333159L207.99984955901735,38.218373098014496L208.23703400792357,45.171112697600904L208.47421845682985,24.370915526910917L208.72018751495486,28.436544604704405L208.97494118229858,27.955398569819042L209.21212563120483,30.952445578718486L209.4493100801111,36.146069583830325L209.68649452901732,35.35784239826742L209.9236789779236,17.268582052834944L210.16964803604859,25.910392459653334L210.3980478757361,28.64932962637184L210.62644771542358,66.98428665657443L210.85484755511106,30.47991052750419L211.10081661323608,39.09383774910202L211.3467856713611,27.275057637155268L211.59275472948607,37.49045208720909L211.8387237876111,38.284698174623706L212.07590823651734,55.71476428878867L212.30430807620482,43.004630210647065L212.5414925251111,44.30106652263291L212.76989236479858,21.864987477862794L213.02464603214233,47.095828637912774L213.26183048104858,36.99618455339643L213.49901492995482,45.28062449333589L213.74498398807984,34.784479757639474L213.99095304620482,50.633258805761216L214.2281374951111,34.07764687011015L214.46532194401732,38.406130617821674L214.7025063929236,33.38490202049163L214.93969084182982,31.986041865316363L215.18565989995483,39.156311314307345L215.4140597396423,4.449141202379108L215.6688134069861,31.24674205465993L215.8972132466736,51.48404742370976L216.13439769557982,39.96162866644189L216.3715821444861,58.460423294801416L216.59998198417358,48.865546872145615L216.83716643307986,25.771796627233467L217.09192010042358,59.79311946319805L217.3203199401111,31.996366259003594L217.5662889982361,52.46774979641768L217.7946888379236,35.874472129470746L218.0406578960486,41.59597286486647L218.27784234495482,42.89778371938169L218.52381140307983,48.41241582325131L218.76099585198608,41.04002257047133L219.0069649101111,40.330861202663584L219.2441493590173,62.0421970996498L219.47254919870483,36.125962644067805L219.71851825682984,31.71735867243731L219.96448731495482,34.76834148552126L220.2016717638611,52.5133967965923L220.43885621276732,34.89384510807392L220.6760406616736,30.2216688845528L220.90444050136108,31.348462960406806L221.14162495026733,57.75881850450096L221.37002478995484,41.44857566988485L221.61599384807982,59.74233223297489L221.84439368776734,43.23254303185908L222.09036274589235,45.09226654779653L222.33633180401733,54.940097938054684L222.57351625292358,61.43242815731054L222.8019160926111,65.4014765594057L223.03031593229858,42.08797049652096L223.2762849904236,44.16365689714732L223.51346943932984,63.60974759650349L223.74186927901735,56.00362764408052L223.97905372792357,68.13770448806446L224.2074535676111,52.453705692097024L224.4358534072986,41.66537329278677L224.67303785620481,51.729021122433295L224.91900691432983,41.07076143905218L225.16497597245484,37.25621282901426L225.41094503057982,41.35262470897879L225.65691408870484,44.43912050744083L225.88531392839235,5.831160147993638L226.14006759573607,34.20391200822555L226.37725204464235,34.20792460946001L226.6320057119861,33.32573811907824L226.87797477011108,38.387590642774796L227.1239438282361,47.621874801940066L227.3611282771423,51.38554831457449L227.5983127260486,47.96537689885898L227.8442817841736,43.269081134340865L228.09025084229856,39.725412396689926L228.34500450964234,57.07959055612119L228.58218895854858,61.01863231613811L228.81058879823607,61.491182011882465L229.04777324714235,47.35553473386946L229.29374230526733,42.324713969354804L229.53971136339234,41.660042683847536L229.7768958122986,33.60600513522908L230.02286487042358,43.267631325865636L230.26004931932985,23.218991437486267L230.5148029866736,52.653574238257875L230.74320282636108,53.94943941357167L230.98038727526733,45.436090824376606L231.21757172417358,28.06217183843415L231.47232539151733,39.085768613042916L231.71829444964231,61.90685235290166L231.96426350776733,35.55194099958748L232.21901717511108,56.8453659424564L232.45620162401733,46.01331962093849L232.70217068214234,43.21495495126564L232.94813974026735,59.315268447574596L233.18532418917357,39.4613129417174L233.43129324729858,50.24273312284271L233.6772623054236,49.533923223756254L233.91444675432982,42.60660652834152L234.16041581245483,58.81876030066385L234.39760026136108,61.11357280447054L234.6260001010486,42.57449107393569L234.86318454995484,64.07806502306255L235.09158438964235,69.4341408000503L235.31998422932983,57.864669167722724L235.54838406901735,56.346939362108735L235.7855685179236,55.82963598252297L236.03153757604858,64.0696444182822L236.26872202495483,44.487769636276305" fill="none"></path></g></g></g></g></g></g><g transform="translate(61, 176)" clip-path="url(#clip_1)"><clipPath id="clip_1"><rect width="268" height="23"></rect></clipPath><g><g><line x1="0" y1="0" x2="0" y2="5" style="visibility: inherit;" fill="rgb(0, 0, 0)" stroke="rgb(204, 204, 204)" stroke-width="1px"></line><line x1="26.808499813079834" y1="0" x2="26.808499813079834" y2="5" style="visibility: inherit;" fill="rgb(0, 0, 0)" stroke="rgb(204, 204, 204)" stroke-width="1px"></line><line x1="53.61699962615967" y1="0" x2="53.61699962615967" y2="5" style="visibility: inherit;" fill="rgb(0, 0, 0)" stroke="rgb(204, 204, 204)" stroke-width="1px"></line><line x1="80.4254994392395" y1="0" x2="80.4254994392395" y2="5" style="visibility: inherit;" fill="rgb(0, 0, 0)" stroke="rgb(204, 204, 204)" stroke-width="1px"></line><line x1="107.23399925231934" y1="0" x2="107.23399925231934" y2="5" style="visibility: inherit;" fill="rgb(0, 0, 0)" stroke="rgb(204, 204, 204)" stroke-width="1px"></line><line x1="134.04249906539917" y1="0" x2="134.04249906539917" y2="5" style="visibility: inherit;" fill="rgb(0, 0, 0)" stroke="rgb(204, 204, 204)" stroke-width="1px"></line><line x1="160.850998878479" y1="0" x2="160.850998878479" y2="5" style="visibility: inherit;" fill="rgb(0, 0, 0)" stroke="rgb(204, 204, 204)" stroke-width="1px"></line><line x1="187.65949869155884" y1="0" x2="187.65949869155884" y2="5" style="visibility: inherit;" fill="rgb(0, 0, 0)" stroke="rgb(204, 204, 204)" stroke-width="1px"></line><line x1="214.46799850463867" y1="0" x2="214.46799850463867" y2="5" style="visibility: inherit;" fill="rgb(0, 0, 0)" stroke="rgb(204, 204, 204)" stroke-width="1px"></line><line x1="241.2764983177185" y1="0" x2="241.2764983177185" y2="5" style="visibility: inherit;" fill="rgb(0, 0, 0)" stroke="rgb(204, 204, 204)" stroke-width="1px"></line><line x1="268.08499813079834" y1="0" x2="268.08499813079834" y2="5" style="visibility: inherit;" fill="rgb(0, 0, 0)" stroke="rgb(204, 204, 204)" stroke-width="1px"></line></g><g transform="translate(0, 8)"><text style="text-anchor: middle; visibility: hidden; font-family: Roboto, sans-serif; font-size: 12px; font-weight: 200;" x="0" y="0" dx="0em" dy="0.95em" fill="rgb(33, 33, 33)" stroke="none" stroke-width="1px">-50M</text><text style="text-anchor: middle; visibility: inherit; font-family: Roboto, sans-serif; font-size: 12px; font-weight: 200;" x="26.808499813079834" y="0" dx="0em" dy="0.95em" fill="rgb(33, 33, 33)" stroke="none" stroke-width="1px">0</text><text style="text-anchor: middle; visibility: hidden; font-family: Roboto, sans-serif; font-size: 12px; font-weight: 200;" x="53.61699962615967" y="0" dx="0em" dy="0.95em" fill="rgb(33, 33, 33)" stroke="none" stroke-width="1px">50M</text><text style="text-anchor: middle; visibility: inherit; font-family: Roboto, sans-serif; font-size: 12px; font-weight: 200;" x="80.4254994392395" y="0" dx="0em" dy="0.95em" fill="rgb(33, 33, 33)" stroke="none" stroke-width="1px">100M</text><text style="text-anchor: middle; visibility: hidden; font-family: Roboto, sans-serif; font-size: 12px; font-weight: 200;" x="107.23399925231934" y="0" dx="0em" dy="0.95em" fill="rgb(33, 33, 33)" stroke="none" stroke-width="1px">150M</text><text style="text-anchor: middle; visibility: inherit; font-family: Roboto, sans-serif; font-size: 12px; font-weight: 200;" x="134.04249906539917" y="0" dx="0em" dy="0.95em" fill="rgb(33, 33, 33)" stroke="none" stroke-width="1px">200M</text><text style="text-anchor: middle; visibility: hidden; font-family: Roboto, sans-serif; font-size: 12px; font-weight: 200;" x="160.850998878479" y="0" dx="0em" dy="0.95em" fill="rgb(33, 33, 33)" stroke="none" stroke-width="1px">250M</text><text style="text-anchor: middle; visibility: inherit; font-family: Roboto, sans-serif; font-size: 12px; font-weight: 200;" x="187.65949869155884" y="0" dx="0em" dy="0.95em" fill="rgb(33, 33, 33)" stroke="none" stroke-width="1px">300M</text><text style="text-anchor: middle; visibility: hidden; font-family: Roboto, sans-serif; font-size: 12px; font-weight: 200;" x="214.46799850463867" y="0" dx="0em" dy="0.95em" fill="rgb(33, 33, 33)" stroke="none" stroke-width="1px">350M</text><text style="text-anchor: middle; visibility: inherit; font-family: Roboto, sans-serif; font-size: 12px; font-weight: 200;" x="241.2764983177185" y="0" dx="0em" dy="0.95em" fill="rgb(33, 33, 33)" stroke="none" stroke-width="1px">400M</text><text style="text-anchor: middle; visibility: hidden; font-family: Roboto, sans-serif; font-size: 12px; font-weight: 200;" x="268.08499813079834" y="0" dx="0em" dy="0.95em" fill="rgb(33, 33, 33)" stroke="none" stroke-width="1px">450M</text></g><line x1="0" y1="0" x2="268.08499813079834" y2="0" fill="rgb(0, 0, 0)" stroke="rgb(204, 204, 204)" stroke-width="1px"></line></g></g></g></g></svg>