<svg viewBox="0 0 330 200" xmlns="http://www.w3.org/2000/svg"><g><g><g><g><g><line x1="30.766000747680664" y1="176.89999961853027" x2="25.766000747680664" y2="176.89999961853027" style="visibility: inherit;" fill="rgb(0, 0, 0)" stroke="rgb(204, 204, 204)" stroke-width="1px"></line><line x1="30.766000747680664" y1="160.81818147139114" x2="25.766000747680664" y2="160.81818147139114" style="visibility: inherit;" fill="rgb(0, 0, 0)" stroke="rgb(204, 204, 204)" stroke-width="1px"></line><line x1="30.766000747680664" y1="144.73636332425204" x2="25.766000747680664" y2="144.73636332425204" style="visibility: inherit;" fill="rgb(0, 0, 0)" stroke="rgb(204, 204, 204)" stroke-width="1px"></line><line x1="30.766000747680664" y1="128.65454517711294" x2="25.766000747680664" y2="128.65454517711294" style="visibility: inherit;" fill="rgb(0, 0, 0)" stroke="rgb(204, 204, 204)" stroke-width="1px"></line><line x1="30.766000747680664" y1="112.5727270299738" x2="25.766000747680664" y2="112.5727270299738" style="visibility: inherit;" fill="rgb(0, 0, 0)" stroke="rgb(204, 204, 204)" stroke-width="1px"></line><line x1="30.766000747680664" y1="96.49090888283469" x2="25.766000747680664" y2="96.49090888283469" style="visibility: inherit;" fill="rgb(0, 0, 0)" stroke="rgb(204, 204, 204)" stroke-width="1px"></line><line x1="30.766000747680664" y1="80.40909073569559" x2="25.766000747680664" y2="80.40909073569559" style="visibility: inherit;" fill="rgb(0, 0, 0)" stroke="rgb(204, 204, 204)" stroke-width="1px"></line><line x1="30.766000747680664" y1="64.32727258855647" x2="25.766000747680664" y2="64.32727258855647" style="visibility: inherit;" fill="rgb(0, 0, 0)" stroke="rgb(204, 204, 204)" stroke-width="1px"></line><line x1="30.766000747680664" y1="48.245454441417344" x2="25.766000747680664" y2="48.245454441417344" style="visibility: inherit;" fill="rgb(0, 0, 0)" stroke="rgb(204, 204, 204)" stroke-width="1px"></line><line x1="30.766000747680664" y1="32.16363629427822" x2="25.766000747680664" y2="32.16363629427822" style="visibility: inherit;" fill="rgb(0, 0, 0)" stroke="rgb(204, 204, 204)" stroke-width="1px"></line><line x1="30.766000747680664" y1="16.08181814713912" x2="25.766000747680664" y2="16.08181814713912" style="visibility: inherit;" fill="rgb(0, 0, 0)" stroke="rgb(204, 204, 204)" stroke-width="1px"></line><line x1="30.766000747680664" y1="0" x2="25.766000747680664" y2="0" style="visibility: inherit;" fill="rgb(0, 0, 0)" stroke="rgb(204, 204, 204)" stroke-width="1px"></line></g><g transform="translate(20.766000747680664, 0)"><text style="text-anchor: end; visibility: hidden; font-family: Roboto, sans-serif; font-size: 12px; font-weight: 200;" x="0" y="176.89999961853027" dx="0em" dy="0.3em" fill="rgb(33, 33, 33)" stroke="none" stroke-width="1px">38</text><text style="text-anchor: end; visibility: inherit; font-family: Roboto, sans-serif; font-size: 12px; font-weight: 200;" x="0" y="160.81818147139114" dx="0em" dy="0.3em" fill="rgb(33, 33, 33)" stroke="none" stroke-width="1px">39</text><text style="text-anchor: end; visibility: hidden; font-family: Roboto, sans-serif; font-size: 12px; font-weight: 200;" x="0" y="144.73636332425204" dx="0em" dy="0.3em" fill="rgb(33, 33, 33)" stroke="none" stroke-width="1px">40</text><text style="text-anchor: end; visibility: inherit; font-family: Roboto, sans-serif; font-size: 12px; font-weight: 200;" x="0" y="128.65454517711294" dx="0em" dy="0.3em" fill="rgb(33, 33, 33)" stroke="none" stroke-width="1px">41</text><text style="text-anchor: end; visibility: hidden; font-family: Roboto, sans-serif; font-size: 12px; font-weight: 200;" x="0" y="112.5727270299738" dx="0em" dy="0.3em" fill="rgb(33, 33, 33)" stroke="none" stroke-width="1px">42</text><text style="text-anchor: end; visibility: inherit; font-family: Roboto, sans-serif; font-size: 12px; font-weight: 200;" x="0" y="96.49090888283469" dx="0em" dy="0.3em" fill="rgb(33, 33, 33)" stroke="none" stroke-width="1px">43</text><text style="text-anchor: end; visibility: hidden; font-family: Roboto, sans-serif; font-size: 12px; font-weight: 200;" x="0" y="80.40909073569559" dx="0em" dy="0.3em" fill="rgb(33, 33, 33)" stroke="none" stroke-width="1px">44</text><text style="text-anchor: end; visibility: inherit; font-family: Roboto, sans-serif; font-size: 12px; font-weight: 200;" x="0" y="64.32727258855647" dx="0em" dy="0.3em" fill="rgb(33, 33, 33)" stroke="none" stroke-width="1px">45</text><text style="text-anchor: end; visibility: hidden; font-family: Roboto, sans-serif; font-size: 12px; font-weight: 200;" x="0" y="48.245454441417344" dx="0em" dy="0.3em" fill="rgb(33, 33, 33)" stroke="none" stroke-width="1px">46</text><text style="text-anchor: end; visibility: inherit; font-family: Roboto, sans-serif; font-size: 12px; font-weight: 200;" x="0" y="32.16363629427822" dx="0em" dy="0.3em" fill="rgb(33, 33, 33)" stroke="none" stroke-width="1px">47</text><text style="text-anchor: end; visibility: hidden; font-family: Roboto, sans-serif; font-size: 12px; font-weight: 200;" x="0" y="16.08181814713912" dx="0em" dy="0.3em" fill="rgb(33, 33, 33)" stroke="none" stroke-width="1px">48</text><text style="text-anchor: end; visibility: hidden; font-family: Roboto, sans-serif; font-size: 12px; font-weight: 200;" x="0" y="0" dx="0em" dy="0.3em" fill="rgb(33, 33, 33)" stroke="none" stroke-width="1px">49</text></g><line x1="30.766000747680664" y1="0" x2="30.766000747680664" y2="176.89999961853027" fill="rgb(0, 0, 0)" stroke="rgb(204, 204, 204)" stroke-width="1px"></line></g></g><g transform="translate(30, 0)" clip-path="url(#clip_0)"><clipPath id="clip_0"><rect width="299" height="176"></rect></clipPath><g><g><g><line x1="0" y1="0" x2="0" y2="176.89999961853027" fill="rgb(0, 0, 0)" stroke="rgb(66, 66, 66)" stroke-width="1px" opacity="0.25"></line><line x1="29.923399925231934" y1="0" x2="29.923399925231934" y2="176.89999961853027" fill="rgb(0, 0, 0)" stroke="rgb(66, 66, 66)" stroke-width="1px" opacity="0.25"></line><line x1="59.84679985046387" y1="0" x2="59.84679985046387" y2="176.89999961853027" fill="rgb(0, 0, 0)" stroke="rgb(66, 66, 66)" stroke-width="1px" opacity="0.25"></line><line x1="89.7701997756958" y1="0" x2="89.7701997756958" y2="176.89999961853027" fill="rgb(0, 0, 0)" stroke="rgb(66, 66, 66)" stroke-width="1px" opacity="0.25"></line><line x1="119.69359970092773" y1="0" x2="119.69359970092773" y2="176.89999961853027" fill="rgb(0, 0, 0)" stroke="rgb(66, 66, 66)" stroke-width="1px" opacity="0.25"></line><line x1="149.61699962615967" y1="0" x2="149.61699962615967" y2="176.89999961853027" fill="rgb(0, 0, 0)" stroke="rgb(66, 66, 66)" stroke-width="1px" opacity="0.25"></line><line x1="179.5403995513916" y1="0" x2="179.5403995513916" y2="176.89999961853027" fill="rgb(0, 0, 0)" stroke="rgb(66, 66, 66)" stroke-width="1px" opacity="0.25"></line><line x1="209.46379947662354" y1="0" x2="209.46379947662354" y2="176.89999961853027" fill="rgb(0, 0, 0)" stroke="rgb(66, 66, 66)" stroke-width="1px" opacity="0.25"></line><line x1="239.38719940185547" y1="0" x2="239.38719940185547" y2="176.89999961853027" fill="rgb(0, 0, 0)" stroke="rgb(66, 66, 66)" stroke-width="1px" opacity="0.25"></line><line x1="269.3105993270874" y1="0" x2="269.3105993270874" y2="176.89999961853027" fill="rgb(0, 0, 0)" stroke="rgb(66, 66, 66)" stroke-width="1px" opacity="0.25"></line><line x1="299.23399925231934" y1="0" x2="299.23399925231934" y2="176.89999961853027" fill="rgb(0, 0, 0)" stroke="rgb(66, 66, 66)" stroke-width="1px" opacity="0.25"></line></g><g><line x1="0" y1="176.89999961853027" x2="299.23399925231934" y2="176.89999961853027" fill="rgb(0, 0, 0)" stroke="rgb(66, 66, 66)" stroke-width="1px" opacity="0.25"></line><line x1="0" y1="160.81818147139114" x2="299.23399925231934" y2="160.81818147139114" fill="rgb(0, 0, 0)" stroke="rgb(66, 66, 66)" stroke-width="1px" opacity="0.25"></line><line x1="0" y1="144.73636332425204" x2="299.23399925231934" y2="144.73636332425204" fill="rgb(0, 0, 0)" stroke="rgb(66, 66, 66)" stroke-width="1px" opacity="0.25"></line><line x1="0" y1="128.65454517711294" x2="299.23399925231934" y2="128.65454517711294" fill="rgb(0, 0, 0)" stroke="rgb(66, 66, 66)" stroke-width="1px" opacity="0.25"></line><line x1="0" y1="112.5727270299738" x2="299.23399925231934" y2="112.5727270299738" fill="rgb(0, 0, 0)" stroke="rgb(66, 66, 66)" stroke-width="1px" opacity="0.25"></line><line x1="0" y1="96.49090888283469" x2="299.23399925231934" y2="96.49090888283469" fill="rgb(0, 0, 0)" stroke="rgb(66, 66, 66)" stroke-width="1px" opacity="0.25"></line><line x1="0" y1="80.40909073569559" x2="299.23399925231934" y2="80.40909073569559" fill="rgb(0, 0, 0)" stroke="rgb(66, 66, 66)" stroke-width="1px" opacity="0.25"></line><line x1="0" y1="64.32727258855647" x2="299.23399925231934" y2="64.32727258855647" fill="rgb(0, 0, 0)" stroke="rgb(66, 66, 66)" stroke-width="1px" opacity="0.25"></line><line x1="0" y1="48.245454441417344" x2="299.23399925231934" y2="48.245454441417344" fill="rgb(0, 0, 0)" stroke="rgb(66, 66, 66)" stroke-width="1px" opacity="0.25"></line><line x1="0" y1="32.16363629427822" x2="299.23399925231934" y2="32.16363629427822" fill="rgb(0, 0, 0)" stroke="rgb(66, 66, 66)" stroke-width="1px" opacity="0.25"></line><line x1="0" y1="16.08181814713912" x2="299.23399925231934" y2="16.08181814713912" fill="rgb(0, 0, 0)" stroke="rgb(66, 66, 66)" stroke-width="1px" opacity="0.25"></line><line x1="0" y1="0" x2="299.23399925231934" y2="0" fill="rgb(0, 0, 0)" stroke="rgb(66, 66, 66)" stroke-width="1px" opacity="0.25"></line></g></g></g><g><g><line x1="0" y1="788.0090892098168" x2="299.23399925231934" y2="788.0090892098168" fill="rgb(0, 0, 0)" stroke="rgb(153, 153, 153)" stroke-width="1.5px"></line></g></g><g><g><line x1="29.923399925231934" y1="0" x2="29.923399925231934" y2="176.89999961853027" fill="rgb(0, 0, 0)" stroke="rgb(153, 153, 153)" stroke-width="1.5px"></line></g></g><g><g><g><g><g><path style="fill: none;" stroke="rgb(187, 187, 187)" stroke-width="2px" d="M33.40428131429444,189.36552870380726L33.65921910616943,165.79768171823878L33.94357279710693,180.11833204751292L34.19851058898193,183.3248611104846L34.45344838085693,169.80298232893605L34.718191472419434,152.08331368587906L34.992739863669435,161.48632802615157L35.247677655544436,148.35936349210607L35.52222604679443,161.30176476874604L35.77716383866944,183.62673399889093L36.541977214294434,177.6713272326303L36.796915006169435,176.18944228912528L37.051852798044436,174.34128213808194L37.30679058991943,172.9883227140276L37.56172838179443,173.70222972502253L37.81666617366943,173.17556851800566L38.07160396554444,175.57477758463267L38.326541757419434,176.8907004215154L38.581479549294436,176.22872860995676L38.83641734116944,177.29988014363897L39.09135513304443,174.96794016564712L39.34629292491943,172.24642356107256L39.60123071679443,174.005011430993L39.85616850866943,171.24446224419623L40.111106300544435,169.92308881821066L40.366044092419436,168.00873855344346L40.62098188429444,164.8200372762693L40.87591967616943,165.13720685434885L41.13085746804443,164.0151187721976L41.38579525991943,162.56184768344343L41.640733051794435,162.5371889530739L41.895670843669436,158.0244120460285L42.15060863554444,156.04891327261714L42.40554642741943,155.38626819060622L42.66048421929443,143.43294171144126L42.92522731085693,136.8612411080243L43.18997040241943,142.5209821777297L43.444908194294435,144.14232029260398L43.699845986169436,136.55816087195362L43.96458907773194,142.9397237869769L44.21952686960693,146.685327407528L44.47446466148193,136.54871295805592L44.73920775304443,130.49996996856717L45.00395084460693,114.97681406646612L45.278499235856934,113.13580297757576L45.543242327419435,101.22696092384477L45.817790718669436,113.72802002080084L46.07272851054443,109.56695704831111L46.33747160210693,116.4754443388632L46.59240939398193,111.24355776557488L46.85715248554443,106.70180643153788L47.12189557710693,104.75164523904174L47.386638668669434,93.48422995844847L47.661187059919435,105.14886825257975L47.916124851794436,112.94285905205076L48.17106264366943,96.14756259903136L48.44561103491944,96.67381825094077L48.71035412648193,105.7827699901567L48.96529191835694,110.34736683241505L49.22022971023193,112.14913130964138L49.475167502106935,102.75185582057483L49.739910593669435,106.7891079739771L49.99484838554444,97.51425303680355L50.25959147710694,90.86908830680939L50.52433456866943,74.33306231358927L50.79888295991943,84.43009080623582L51.05382075179443,91.03231093298818L51.308758543669434,61.77458832104132L51.593112234606934,55.6174918497677L51.86766062585693,63.33627965217551L52.13240371741943,80.2657409362506L52.38734150929443,90.5641483388274L52.64227930116944,74.03638503736882L52.91682769241943,53.44424730157135L53.20118138335693,63.54721781323497L53.46592447491943,67.46429964101573L53.73066756648193,80.6339982604733L53.985605358356935,68.19134573529624L54.260153749606935,59.786061312282236L54.53470214085693,76.36174141696365L54.78963993273194,85.91192584226366L55.04457772460694,79.21469962682555L55.30932081616944,74.6318954178896L55.57406390773193,81.83610154571254L55.82900169960693,86.66547634824431L56.083939491481935,78.58360895496666L56.34868258304443,72.82676980702384L56.61342567460693,57.404526015919046L56.88797406585694,70.66643677555646L57.14291185773194,68.98575570140738L57.40765494929444,78.21350675829983L57.66259274116943,82.47639180347389L57.917530533044435,74.33717153195695L58.182273624606935,69.03876006696285L58.44701671616943,76.37510111306698L58.70195450804443,71.49300286768292L58.96669759960693,67.88754979682194L59.23144069116943,53.15240692095747L59.50598908241943,54.398971431143025L59.77073217398193,64.28222992790192L60.025669965856935,60.93758239869592L60.290413057419435,60.26021371140211L60.555156148981936,37.8928448368657L60.83950983991944,45.160439908183605L61.10425293148194,49.169305334633925L61.36899602304443,61.438087371081075L61.62393381491944,68.25881354768391L61.87887160679443,60.32362664053293L62.14361469835693,56.02293800987576L62.40835778991943,64.1004101900238L62.66329558179443,46.8043579235245L62.93784397304444,58.47380578965293L63.19278176491943,54.593107228775224L63.45752485648193,51.71825570928268L63.72226794804444,39.983188430456984L63.99681633929443,31.74037962758729L64.27136473054443,26.986981221782465L64.54591312179443,46.58166204511175L64.80085091366944,46.99504173333687L65.06559400523193,57.788394938016204L65.32053179710694,52.18694572742164L65.58527488866943,26.678902773037795L65.86962857960694,21.530313481413977L66.14417697085693,29.996285863633116L66.40892006241943,33.512372828052285L66.67366315398193,23.198442588869696L66.94821154523193,15.043413737043327L67.22275993648194,34.13612292840146L67.47769772835693,35.353478395825114L67.74244081991944,34.55504414817081L68.00718391148193,33.94992723388316L68.27192700304442,9.730377006472809L68.55628069398193,17.915098403515575L68.82102378554443,23.37648616109744L69.08576687710693,14.789689718582064L69.36031526835693,32.02551195960258L69.61525306023194,42.17336878840818L69.87019085210693,47.90997410793085L70.12512864398194,50.889820601422116L70.38006643585693,51.99885963301401L70.63500422773194,30.272432181398788L70.90955261898193,40.04818912559378L71.16449041085694,45.26436834955224L71.41942820273194,37.25760822050876L71.68417129429444,44.53238745528139L71.93910908616944,37.33221532048921L72.20385217773193,32.40884754783962L72.46859526929443,39.88823032077978L72.72353306116943,44.94307682181056L72.97847085304444,36.18555518519877L73.24321394460694,18.299394392225054L73.51776233585693,18.078938766243976L73.78250542741944,7.274768316167633L74.05705381866943,12.008485157566154L74.32179691023194,15.775157160487312L74.58654000179443,18.245925035191988L74.85128309335694,19.5573250387261L75.11602618491943,8.597758302926547L75.39057457616944,12.747213842123054L75.65531766773194,5.266189361103163L75.92986605898193,14.333529496663619L76.19460915054442,20.29042849432226L76.45935224210693,11.504467627711785L76.73390063335692,-4.29265592488807L77.01825432429445,-13.386110915543137L77.30260801523193,4.134281883024109L77.56735110679443,2.466262946983971L77.84189949804444,13.464412754997484L78.10664258960693,19.80488340929487L78.37138568116943,23.541806501925265L78.63612877273194,38.02512054006862L78.89106656460693,35.12805788764379L79.15580965616942,33.8362320938767L79.42055274773195,43.42376984611383L79.67549053960694,49.328433721382204L79.93042833148193,42.19850064921459L80.19517142304443,26.977243419067456L80.46971981429444,29.82313203555052L80.73446290585693,41.63775025555565L80.98940069773192,37.31215040140413L81.25414378929443,34.941517799996426L81.51888688085694,22.030242792180278L81.79343527210693,35.98458296252914L82.04837306398194,43.11853665181549L82.30331085585694,45.49861590073522L82.55824864773193,25.70870481664257L82.83279703898194,36.13085822131214L83.08773483085693,43.398146982674774L83.34267262273194,47.52456629934538L83.59761041460693,49.66990334982156L83.85254820648193,51.463956705945165L84.10748599835694,41.39893965806262L84.37222908991943,34.66523296976042L84.63697218148194,18.6213608558883L84.91152057273194,-2.238186986489111L85.19587426366942,-4.569484006668622L85.47042265491943,16.71933155998097L85.72536044679443,30.161158884590897L85.98029823866943,15.108985237543617L86.25484662991943,6.072920501340638L86.52939502116944,11.533722556894944L86.79413811273193,14.469800071146233L87.05888120429442,27.953118099275542L87.31381899616945,24.698526781747727L87.57856208773194,35.202408316908425L87.83349987960693,41.14754890647754L88.08843767148193,46.37091133281924L88.34337546335694,26.290852758361204L88.61792385460693,36.31657063171559L88.87286164648194,42.325768473328694L89.12779943835693,33.840305107090835L89.39254252991942,6.779220879730342L89.67689622085695,1.8440130790641827L89.95144461210693,20.187935613353197L90.20638240398193,30.464722887386294L90.46132019585693,37.757106548094555L90.71625798773192,42.10630465284575L90.97119577960694,10.385696192709354L91.25554947054442,14.65079035316511L91.52029256210693,16.60130649264098L91.78503565366942,29.229518983649665L92.03997344554443,25.39187938084357L92.30471653710694,33.96241173174358L92.55965432898194,15.744992159564736L92.83420272023194,15.941683294983845L93.09894581179444,27.208680482267194L93.35388360366943,33.17146247000719L93.60882139554444,13.241349453489411L93.88336978679443,24.0873861531749L94.13830757866944,30.645362010324362L94.39324537054443,0.0917442509294919L94.67759906148194,4.923565716195466L94.94234215304444,-15.054032001398213L95.22669584398193,7.415298589842693L95.48163363585692,20.686107732728175L95.73657142773193,28.25727126717713L95.99150921960693,20.908513170147724L96.25625231116943,5.8842669629719575L96.53080070241944,8.676491688015474L96.79554379398193,-0.862478553650245L97.07009218523194,-6.959195631038867L97.34464057648192,1.2554826152137621L97.60938366804444,-17.480369879189993L100.10973508835693,-2.234042484920867L100.36467288023194,16.416148525821807L100.61961067210693,-6.991215583409382L100.90396436304444,-9.672598656414786L101.17851275429443,12.189177264710205L101.43345054616944,24.606417726231868L101.68838833804443,20.47007901144018L101.95313142960693,18.71450473774185L102.21787452116943,6.508275981264465L102.49242291241943,11.061786917874558L102.75716600398194,13.735638114421226L103.02190909554443,-6.149042029847634L103.58081117773193,-7.376528302428702L103.85535956898194,15.933621604344534L104.11029736085693,19.058447727946547L104.37504045241943,21.104281428860943L104.63978354398192,35.45114023872808L104.89472133585694,43.80547414757663L105.14965912773194,14.367485675019001L105.43401281866944,8.918001114508298L105.70856120991942,16.225045571014615L105.97330430148193,31.084858062727317L106.22824209335694,28.389155575359243L106.49298518491943,38.34531329825959L106.74792297679443,44.76144442674008L107.00286076866944,49.23728239591299L107.25779856054443,29.83791603447798L107.53234695179444,30.257451326333666L107.79709004335695,19.883825733699165L108.07163843460692,25.470545363857546L108.33638152616942,7.142035571051189L108.62073521710694,29.605177301103016L108.87567300898193,10.498927333049547L109.16002669991944,21.73604667970767L109.42476979148194,17.732583641796243L109.69931818273194,15.78408297760621L109.97386657398192,26.529603525079L110.23860966554443,33.1411056808675L110.50335275710692,36.698820698700516L110.76809584866943,27.41095654500033L111.04264423991943,32.453965568950906L111.30738733148193,25.118070233293228L111.58193572273193,43.34776094108192L111.83687351460692,55.352723357061926L112.09181130648194,62.901748474360595L112.34674909835694,44.9719533742216L112.62129748960693,35.27624290730667L112.89584588085694,30.47004044921797L113.17039427210693,27.98510075340094L113.44494266335693,15.065361811297127L113.72929635429443,29.08144306506559L113.99403944585694,48.94025877372754L114.24897723773194,49.468685527612195L114.51372032929443,60.88100841836613L114.76865812116942,57.33921782685541L115.03340121273193,56.124242457912494L115.29814430429444,55.78979378465733L115.56288739585695,45.95274484629068L115.83743578710693,50.90780400078476L116.10217887866943,53.790879860108L116.36692197023193,55.864809930845986L116.63166506179442,47.7340294437008L116.90621345304443,44.283332921239676L117.18076184429444,31.459254294868384L117.46511553523193,45.19394758686235L117.72985862679444,64.23283969677702L117.98479641866943,53.0758162079294L118.25934480991944,46.90050184383757L118.53389320116943,32.919449572337285L118.81824689210694,35.558063197420964L119.09279528335693,48.81895370946064L119.35753837491944,56.587250060436496L119.62228146648194,60.41913181734556L119.88702455804444,63.170169384365906L120.15176764960694,65.6594581520176L120.41651074116943,46.12861113934248L120.70086443210693,45.28667903022015L120.97541282335693,66.49364290906635L121.23035061523193,78.82514964520195L121.48528840710694,65.20277439372397L121.75983679835694,57.15695155967859L122.03438518960692,74.24169579084804L122.28932298148194,74.24190467298783L122.55406607304444,52.04347210280868L122.83841976398193,59.5162039948028L123.10316285554443,54.270706326805L123.37771124679443,50.78943320058127L123.65225963804444,59.14064918847579L123.91700272960693,52.824317426465825L124.19155112085694,59.54676531425344L124.45629421241944,75.84362647931017L124.71123200429443,75.01511959670205L124.97597509585694,84.50189066477954L125.23091288773193,69.28582291303506L125.50546127898193,80.5070095357748L125.76039907085692,54.7920473656331L126.04475276179444,60.54485834794947L126.30949585335694,74.86166136621348L126.56443364523193,61.92353914145342L126.83898203648194,55.01334374998229L127.11353042773193,61.75710270122233L127.37827351929444,65.05916663680368L127.64301661085693,68.48670364282752L127.90775970241944,81.26991830045016L128.16269749429443,80.0917061339904L128.4274405858569,70.07606712600524L128.70198897710694,74.09573504679966L128.96673206866944,66.34312786221058L129.24128045991944,71.7473868246723L129.50602355148195,75.1010298345225L129.77076664304442,66.83852985492756L130.04531503429445,51.82292447559664L130.32966872523193,74.24395045967333L130.58460651710695,77.30031451891581L130.84934960866943,89.64453948142368L131.10428740054442,76.09874949467765L131.37883579179444,88.26271862127113L131.63377358366944,75.12279161968304L131.90832197491943,67.60350811691845L132.18287036616945,82.86556111659607L132.43780815804445,81.82918367990588L132.70255124960693,91.77454677584844L132.95748904148192,77.53851434683584L133.23203743273194,68.07165539779332L133.50658582398194,61.53792960651362L133.78113421523193,47.37959585670431L134.06548790616944,59.205166408169504L134.33023099773192,45.31535071711829L134.61458468866945,47.79286206375286L134.88913307991942,58.31714650671888L135.15387617148193,63.570851141405456L135.41861926304443,66.74960048077614L135.68336235460694,68.99460360151473L135.94810544616945,60.23128128810719L136.22265383741941,54.49401850578805L136.49720222866944,51.52351948073159L136.77175061991943,38.6239172887124L137.05610431085694,51.163967650183736L137.32084740241942,47.518083673291244L137.59539579366944,45.298530013410144L137.86994418491943,53.68270814975708L138.13468727648194,59.415886635940396L138.39943036804442,73.40030933546062L138.65436815991941,71.38128864179386L138.91911125148192,59.80297322726366L139.19365964273194,76.84389444372994L139.44859743460694,75.79446347488759L139.71334052616945,76.79566065844253L139.97808361773193,67.30158791090956L140.25263200898192,61.52517196420029L140.52718040023194,78.31942933046838L140.78211819210694,67.42265348151375L141.05666658335693,81.24081380548623L141.31160437523195,90.3113601557701L141.56654216710695,84.29684033162181L141.83128525866942,61.99046279474679L142.11563894960693,69.41715089282923L142.38038204116944,63.38636365333185L142.65493043241943,80.65477100868908L142.90986822429443,70.48786631677827L143.18441661554442,84.83125876638498L143.43935440741944,71.72306074582012L143.71390279866944,63.002323009989226L143.98845118991943,56.90547282751908L144.26299958116942,53.12677852862209L144.53754797241945,60.67986079229843L144.80229106398193,76.1616085033566L145.05722885585692,85.22337777257141L145.31216664773194,69.97976007127899L145.58671503898194,82.93985652042028L145.84165283085693,79.626168805576L146.10639592241944,88.6949668589473L146.36133371429443,84.3905205865863L146.62607680585694,81.53841562337794L146.89081989741942,79.16862653492345L147.15556298898193,76.87419862372691L147.42030608054444,86.26592593415457L147.67524387241943,81.03052094869972L147.93998696398194,88.69113308383608L148.19492475585693,81.90365597917673L148.45966784741944,77.84029818981676L148.72441093898192,74.9618837507485L148.98915403054443,71.38511681015731L149.25389712210693,79.30177535190862L149.50883491398193,82.65445149082583L149.76377270585692,84.7556732628501L150.01871049773194,54.556963048400874L150.30306418866945,36.98750659406062L150.58741787960693,58.1846514562815L150.84235567148193,71.21293838681724L151.09729346335692,77.59735368843106L151.35223125523194,60.421986776446936L151.6267796464819,71.77865863077328L151.88171743835696,68.7463025810304L152.14646052991944,67.22989537586868L152.41120362148195,77.92815651036125L152.66614141335694,84.47547621401777L152.92107920523193,77.54287414372791L153.18582229679444,73.83777346076576L153.45056538835692,70.98337604950895L153.71530847991946,69.87444379485687L153.98005157148194,70.04777520841216L154.24479466304444,70.54253161296477L154.50953775460692,59.99679574352618L154.78408614585692,63.94352469031929L155.04882923741945,67.4143896206034L155.31357232898193,48.939537324053866L155.5979260199194,59.122398560950984L155.86266911148195,75.27481026101401L156.11760690335694,86.23555678892369L156.37254469523194,81.56405678736442L156.63728778679445,88.73607528298518L156.89222557866944,82.75166859081888L157.15696867023192,90.87170266472353L157.41190646210694,85.57148726064047L157.67664955366942,81.02530159968325L157.94139264523196,79.5421299537321L158.20613573679444,66.18280586989282L158.48068412804443,57.69194186716955L158.75523251929442,52.27498222644033L159.02978091054445,59.04612801185668L159.29452400210693,43.42819483962192L159.57887769304443,55.26420382809481L159.84362078460694,60.78376134251005L160.10836387616945,43.76896209538672L160.39271756710693,54.15298613929134L160.6574606586694,59.51499318280779L160.92220375023194,72.88362426413556L161.17714154210694,59.72394710699999L161.45168993335693,73.30039614028362L161.70662772523193,81.32646661586551L161.96156551710692,65.17456981457111L162.2361139083569,76.49496908084109L162.4910517002319,72.66264711788202L162.75579479179444,59.7524342053529L163.03034318304444,53.10295021545819L163.30489157429443,60.613271393402314L163.56963466585694,64.67673313854351L163.83437775741945,46.18339237021375L164.11873144835693,56.28210819765105L164.38347453991946,52.15754402045066L164.65802293116943,59.49888366512639L164.92276602273193,74.93306732483217L165.17770381460693,84.9213524269786L165.43264160648192,68.79534526447964L165.70718999773192,58.10027207213955L165.98173838898194,53.046217211857446L166.25628678023193,49.504184812256675L166.53083517148195,67.84407033657702L166.78577296335695,47.159168670075964L167.07012665429443,65.30925248164795L167.32506444616942,65.74469771633984L167.58980753773193,66.42457407311565L167.8545506292944,76.90564762879838L168.10948842116946,51.50393736887561L168.39384211210694,67.85390757146754L168.64877990398193,77.44041386620087L168.90371769585693,73.13008971507651L169.16846078741943,70.36944813393569L169.4332038789819,48.20224223727133L169.71755756991942,34.84464489013649L170.00191126085696,48.11081563962325L170.26665435241944,34.20286735189193L170.55100804335692,26.74878708971251L170.83536173429445,22.697402039074085L171.11971542523193,31.381346278246546L171.39426381648195,35.8830537240462L171.66881220773195,49.13097407332348L171.93355529929443,36.7738297479758L172.21790899023193,50.585967709155945L172.48265208179444,58.33898940081223L172.74739517335692,51.31364447367945L173.02194356460691,67.96026299232159L173.27688135648194,45.58239721484938L173.56123504741944,63.58093832846056L173.81617283929444,53.070795089919976L174.09072123054443,57.06378660594315L174.3554643221069,60.05202434930705L174.62020741366945,73.37413078882314L174.87514520554444,59.29879480499128L175.14969359679444,50.1299163058523L175.42424198804443,66.82427605370286L175.67917977991942,44.10400219972538L175.96353347085693,51.721917950157525L176.22827656241944,65.03514382754275L176.48321435429443,51.643065778140915L176.75776274554445,33.121018850153085L177.04211643648193,43.1499241039126L177.30685952804444,49.186800226207964L177.57160261960692,53.572601226973305L177.83634571116946,56.21568873048364L178.10108880273194,58.3715064274501L178.36583189429444,69.78280559814155L178.62076968616944,75.89785943019272L178.87570747804443,57.2188918858136L179.15025586929443,56.63766791086786L179.41499896085693,45.632545040690175L179.68954735210693,49.904746854990854L179.95429044366944,52.458276919644234L180.21903353523192,54.61751126789724L180.48377662679445,66.58382016161096L180.73871441866945,74.15365142595313L180.99365221054444,78.54797319735006L181.24859000241943,70.47932081097206L181.51333309398194,55.04750516492247L181.78788148523194,45.88590885514091L182.06242987648196,51.8720798730786L182.32717296804444,65.19866139129327L182.58211075991943,40.8782438502476L182.86646445085694,59.40031595818045L183.12140224273193,37.759467746385724L183.40575593366944,45.625373702436306L183.67049902523195,61.50901574886275L183.92543681710694,70.84831281850549L184.18037460898194,43.63493090378536L184.46472829991944,48.930390366882314L184.72947139148195,62.245890967946565L184.98440918335695,59.74512755559619L185.24915227491942,57.85715108750174L185.51389536648193,68.59834972249942L185.76883315835693,53.45795914224964L186.04338154960695,54.69248245672928L186.30812464116943,66.4344056529838L186.56306243304445,51.95066844561979L186.83761082429442,43.274707765124724L187.1121592155444,59.14660474721143L187.36709700741946,36.1603779802664L187.65145069835694,21.752887124618685L187.93580438929445,34.58462324174291L188.20054748085695,53.146793689417656L188.45548527273195,52.50772721455187L188.72022836429443,63.61016449103237L188.97516615616942,59.78990631234048L189.23990924773193,56.88864665346481L189.5046523392944,44.77630092855626L189.77920073054443,59.44213672967246L190.03413852241943,56.65615762508453L190.29888161398193,54.52525089951724L190.56362470554444,43.151204178205624L190.8381730967944,46.02803675016442L191.10291618835694,36.98666017575636L191.37746457960694,30.744050613601157L191.65201297085693,27.41410034560444L191.92656136210695,47.91752273660366L192.18149915398195,60.17604415003469L192.43643694585694,55.813509859276714L192.70118003741942,41.981217968895514L192.9757284286694,33.47851345056154L193.25027681991943,39.175433113514146L193.51501991148194,31.966790348019767L193.78956830273194,37.43751185809541L194.05431139429442,40.98319815934718L194.31905448585695,21.14085281029467L194.60340817679443,31.08930547250496L194.8681512683569,25.98632403751036L195.14269965960693,22.861862807818735L195.41724805085693,20.83038245373152L195.69179644210692,7.616140290983156L195.97615013304443,10.632757337119111L196.25069852429442,23.567293858283126L196.51544161585693,41.84386993531661L196.77037940773195,41.50918262972036L197.03512249929443,52.685760899540455L197.29006029116945,37.800046211992495L197.56460868241942,49.479704321792376L197.81954647429444,56.72012802683695L198.07448426616943,60.72721766651761L198.32942205804443,52.22652837525314L198.59416514960694,35.25644913228709L198.86871354085693,36.147362558390356L199.13345663241944,35.78155357420143L199.39819972398192,12.869615701328069L199.68255341491945,21.75630654984541L199.94729650648193,27.32173514314705L200.21203959804444,20.51275550183129L200.48658798929443,27.901981520089905L200.75133108085694,43.57004226717473L201.00626887273194,42.02755678967209L201.27101196429444,40.71408084325163L201.53575505585692,40.001624187034984L201.80049814741943,39.94554655203439L202.0652412389819,39.1652055673486L202.32998433054445,39.68758757773906L202.59472742210693,40.36154240686427L202.85947051366944,29.85898457779263L203.13401890491943,34.34774718152204L203.3987619964819,14.248678909564296L203.68311568741944,24.264610532286465L203.94785877898192,30.027308100645996L204.21260187054443,11.23601490486059L204.49695556148194,0.37292823155224475L204.78130925241942,16.517051387327946L205.04605234398196,26.27157167013965L205.31079543554443,43.105395682490915L205.56573322741943,52.167620703490435L205.82067101929445,35.42104754415691L206.09521941054442,36.17886046119265L206.35996250210692,25.60191075906208L206.63451089335695,30.2453187033923L206.89925398491943,43.92391439698547L207.15419177679445,41.077054877527885L207.41893486835693,38.41606886484088L207.68367795991944,48.20584915039946L207.93861575179443,54.84219024267569L208.19355354366942,35.807113525112335L208.46810193491945,36.230335393948856L208.73284502648193,36.53840134427994L208.99758811804443,48.125342247090906L209.25252590991943,44.20048898996713L209.51726900148194,31.65886323208702L209.79181739273193,45.71593017522173L210.04675518460695,32.14831632083184L210.32130357585692,24.783594633500194L210.5958519671069,19.48096834353261L210.87040035835693,38.43579341736902L211.12533815023193,49.57473452152378L211.38027594210695,44.899480794758816L211.64501903366943,31.68161142084223L211.91956742491942,34.71342568649336L212.18431051648196,48.26706869168204L212.43924830835695,34.42058974171991L212.71379669960695,14.641646710221888L212.99815039054445,2.5781659459007793L213.28250408148193,6.360206192237304L213.55705247273193,19.635081089788457L213.8217955642944,38.75396993248917L214.07673335616946,49.71371610320418L214.33167114804445,44.39121215504372L214.59641423960693,52.78476086145839L214.85135203148192,58.17631161552433L215.10628982335695,61.71734039494065L215.36122761523194,30.0538457192939L215.64558130616942,21.785435114578554L215.92012969741944,17.485663219872443L216.19467808866943,14.306854438921352L216.46922647991946,23.854061069589022L216.73396957148194,27.615518028416282L216.99871266304444,20.419612572108072L217.27326105429444,4.808160007048013L217.55761474523194,28.856875262853183L217.81255253710694,31.385593341923123L218.07729562866945,44.06250565888608L218.33223342054444,51.49094228395519L218.58717121241943,56.08713986216789L218.84210900429443,47.89900897591213L219.10685209585694,54.073323982150896L219.36178988773193,35.43729935331689L219.63633827898195,45.979537317922656L219.89127607085695,51.880626932095865L220.14621386273194,55.68166304367724L220.40115165460693,23.980855257315028L220.6855053455444,15.542087176448621L220.96005373679444,11.711611942058417L221.23460212804443,9.146981503925089L221.50915051929442,20.16912992183318L221.77389361085696,4.438860671150693L222.05824730179444,29.20975147617153L222.31318509366943,34.186738162230775L222.57792818523194,37.061965236028506L222.84267127679442,40.00904089750515L223.10741436835696,42.37083337895994L223.37215745991944,55.16377810877145L223.62709525179443,42.08939603787975L223.90164364304442,46.27312557566996L224.16638673460693,49.39870093240422L224.43112982616944,29.307994391610983L224.71548351710692,29.40906532506693L224.9900319083569,29.94694055012704L225.26458029960693,30.61095280489942L225.53912869085693,52.932076202684776L225.79406648273192,66.50454681356676L226.04900427460692,53.371815181231945L226.32355266585694,67.40245102086098L226.57849045773193,64.85731507835399L226.84323354929444,63.56016307223499L227.10797664085695,51.71857922607208L227.3825250321069,55.479702364624785L227.64726812366945,57.00177952526384L227.91201121523193,69.14083964576187L228.16694900710695,54.93202118122149L228.44149739835694,68.74646033441942L228.69643519023194,55.420910921287174L228.97098358148196,36.27321239819829L229.25533727241944,57.19590076783078L229.51027506429443,59.419370074093365L229.7750181558569,71.73279669920504L230.02995594773193,47.721112557545744L230.31430963866944,44.27055231359425L230.58885802991944,53.89887019195615L230.85360112148192,49.079470061585674L231.12814951273194,67.83772245931577L231.38308730460693,79.54045987443845L231.63802509648195,76.00894902040788L231.90276818804443,74.11938313360466L232.16751127960694,73.62149576190593L232.43225437116942,73.59264223900603L232.69699746273196,63.855321795507365L232.97154585398195,48.293951833746924L233.25589954491943,60.171235881722886L233.52064263648194,66.6895812707596L233.78538572804445,71.32743093203548L234.05012881960693,73.56390465709177L234.31487191116943,65.00829064742202L234.58942030241946,80.52556588216962L234.84435809429445,89.65846564698035L235.09929588616944,95.47031507435338L235.35423367804444,78.73017539307008L235.62878206929443,68.21067479843798L235.90333046054442,61.38900687462098L236.17787885179445,57.66678900638304L236.45242724304444,66.26900533127716L236.71717033460692,82.41525049947604L236.9721081264819,81.08358052377157L237.23685121804442,90.69876801063153L237.49178900991942,65.66453398381181L237.77614270085692,70.45614275317945L238.04088579241943,74.19443584385985L238.3056288839819,65.50307101250758L238.58017727523193,60.384812713075206L238.85472566648193,68.31622026961557L239.11946875804443,73.70068423966855L239.3842118496069,78.07791851633363L239.64895494116945,80.84211866233547L239.91369803273193,72.40822796625793L240.18824642398192,88.23747252744619L240.44318421585692,66.49924812457387L240.72753790679445,84.80184715382633L240.98247569866945,85.6567149345016L241.24721879023193,86.1677706459683L241.51196188179443,96.68519054430438L241.76689967366943,92.97915507814787L242.03164276523194,70.10854645506025L242.31599645616944,87.7245495913146L242.57093424804444,77.23169589381968L242.84548263929443,92.18378161978234L243.10042043116943,81.1404378864503L243.37496882241945,85.20303971666365L243.63971191398193,77.0318178093261L243.91426030523192,82.0823598454311L244.17900339679443,74.74799057040168L244.45355178804445,80.84928507049511L244.71829487960693,95.78573865386218L244.97323267148192,84.62609961680388L245.24778106273192,78.03126925831609L245.52232945398194,83.84772695698474L245.78707254554445,87.40807731733365L246.05181563710693,89.23688864449075L246.31655872866943,100.57808943680578L246.57149652054443,96.91986163153462L246.8362396121069,105.38079811653331L247.09117740398196,90.0964472429341L247.36572579523192,101.50649539631794L247.62066358710695,87.53366643973216L247.89521197835694,79.54313143509441L248.16976036960693,84.78240145570791L248.43450346116944,97.49508205817L248.68944125304444,104.27462579079408L248.94437904491943,88.23065640612423L249.21892743616942,88.76856001785244L249.48367052773193,98.92350239784008L249.73860831960693,94.89733417233866L250.00335141116943,102.64864229825454L250.25828920304446,107.20217948502666L250.51322699491945,99.58131235907706L250.77797008648193,84.64790111741304L251.05251847773192,74.62205602099759L251.32706686898194,67.55652912898671L251.60161526023194,63.355420072111414L251.87616365148193,81.47813476203864L252.13110144335693,61.53246676745405L252.41545513429443,71.29137260331792L252.68019822585694,55.792959159584086L252.96455191679445,56.9488842292014L253.23910030804444,57.57127644042563L253.51364869929444,67.55456494301495L253.77839179085692,74.23285438829912L254.04313488241945,68.3612493081285L254.31768327366945,64.47304916697486L254.5922316649194,51.68670189757145L254.87658535585695,64.05123017651628L255.14132844741943,82.79816182726297L255.39626623929442,82.79307249547541L255.66100933085693,72.983780847148L255.93555772210695,68.1399806195325L256.2101061133569,74.77202274466555L256.47484920491945,68.87772428726379L256.74939759616944,76.00320218556945L257.0141406877319,59.48443991099946L257.29849437866943,80.36227196017677L257.55343217054445,81.5420333201977L257.81817526210693,83.05741649055915L258.0829183536694,62.243284429011524L258.3672720446069,60.94783503633219L258.6418204358569,58.0950891783935L258.9163688271069,45.645289540013366L259.2007225180444,58.08279444084119L259.46546560960695,53.96003764624405L259.74001400085695,51.36251116652136L260.01456239210694,59.58525272053032L260.2793054836694,54.24190521016466L260.5538538749194,50.40073163296053L260.82840226616946,58.92654405652244L261.09314535773194,53.37803596425304L261.36769374898194,59.55383137914415L261.6324368405444,73.58209067147038L261.88737463241944,72.06483779716349L262.152117723982,81.97251233875768L262.40705551585694,88.27651389687911L262.66199330773196,91.46936758903801L262.9169310996069,82.58396084513655L263.18167419116946,66.01186062463803L263.4562225824194,66.26706843243845L263.72096567398194,44.21643296935383" fill="none"></path></g></g></g></g><g opacity="0.2"><g><g><g><path style="fill: none;" stroke="rgb(187, 187, 187)" stroke-width="2px" d="M29.923399925231934,320.0560573265168L30.20775361616943,130.9253142914789L30.472496707731935,205.14477245135507L32.021734058356934,224.9326403882541L32.286477149919435,174.26145363422984L32.570830840856935,198.46675427727908L32.845379232106936,186.81108014830534L33.119927623356936,154.5718640202057L33.40428131429444,202.36267386060817L33.65921910616943,130.47361435931418L33.94357279710693,201.58920750929315L34.19851058898193,188.13329780930576L34.45344838085693,149.52359736017124L34.718191472419434,125.50651013446293L34.992739863669435,175.58999006380458L35.247677655544436,128.66963660497012L35.52222604679443,180.71494080847927L36.03210163054443,188.6099660794293L36.28703942241943,173.83564224903967L36.541977214294434,172.8189339812459L36.796915006169435,173.96661866560515L37.051852798044436,171.56904474887813L37.30679058991943,170.95888482421287L37.56172838179443,174.77308984694935L37.81666617366943,172.3855768821271L38.07160396554444,179.17359070721102L38.326541757419434,178.8645845197448L38.581479549294436,175.2357709400345L38.83641734116944,178.90660739812765L39.09135513304443,171.47003025879067L39.34629292491943,168.16414869631726L39.60123071679443,176.64289321954857L39.85616850866943,167.10363847937697L40.111106300544435,167.94102868364809L40.366044092419436,165.13721316013107L40.62098188429444,160.0369853643444L40.87591967616943,165.61296122123895L41.13085746804443,162.33198664945667L41.38579525991943,160.38194105068993L41.640733051794435,162.50020085752345L41.895670843669436,151.25524668588264L42.15060863554444,153.08566511261068L42.40554642741943,154.3923005676122L42.66048421929443,125.5029519929356L42.92522731085693,127.00369020297842L43.18997040241943,151.01059378224653L43.444908194294435,146.57432746490866L43.699845986169436,125.18192174099784L43.96458907773194,152.5120681595019L44.21952686960693,152.30373283835138L44.47446466148193,121.34379128385363L44.73920775304443,121.42685548433589L45.00395084460693,91.69208021331791L45.278499235856934,110.37428634424049L45.543242327419435,83.36369784324911L45.817790718669436,132.47960866623444L46.07272851054443,103.3253625895767L46.33747160210693,126.83817527469101L46.59240939398193,103.39572790564259L46.85715248554443,99.88917943048263L47.12189557710693,101.82640345029756L47.386638668669434,76.58310703755838L47.661187059919435,122.64582569377671L47.916124851794436,124.6338452512573L48.17106264366943,70.9546179195022L48.44561103491944,97.46320172880486L48.71035412648193,119.44619759898079L48.96529191835694,117.19426209580242L49.22022971023193,114.85177802548094L49.475167502106935,88.6559425869749L49.739910593669435,112.84498620408043L49.99484838554444,83.60197063104317L50.25959147710694,80.90134121181802L50.52433456866943,49.52902332375908L50.79888295991943,99.57563354520573L51.05382075179443,100.93564112311685L51.308758543669434,17.888004403120824L51.593112234606934,46.38184714285705L51.86766062585693,74.91446135578735L52.13240371741943,105.65993286236335L52.38734150929443,106.01175944269265L52.64227930116944,49.24474008518088L52.91682769241943,22.55604069787528L53.20118138335693,78.70167358073047L53.46592447491943,73.3399223826868L53.73066756648193,100.38854618965969L53.985605358356935,49.527366947530865L54.260153749606935,47.178134677761015L54.53470214085693,101.225261573986L54.78963993273194,100.2372024802138L55.04457772460694,69.16886030366864L55.30932081616944,67.75768910448558L55.57406390773193,92.64241073744712L55.82900169960693,93.90953855204201L56.083939491481935,66.46080786505031L56.34868258304443,64.19151108510943L56.61342567460693,34.271160329262116L56.88797406585694,90.5593029150127L57.14291185773194,66.46473409018388L57.40765494929444,92.05513334363853L57.66259274116943,88.87071937123518L57.917530533044435,62.12834112468143L58.182273624606935,61.09114286947177L58.44701671616943,87.37961268222318L58.70195450804443,64.16985549960702L58.96669759960693,62.47937019053047L59.23144069116943,31.049692607160644L59.50598908241943,56.268818196421236L59.77073217398193,79.1071176730402L60.025669965856935,55.92061110488696L60.290413057419435,59.24416068046146L60.555156148981936,4.341791525061126L60.83950983991944,56.061832515160354L61.10425293148194,55.18260347430954L61.36899602304443,79.84126042575173L61.62393381491944,78.48990281258806L61.87887160679443,48.42084627980643L62.14361469835693,49.5719050638899L62.40835778991943,76.21661846024587L62.66329558179443,20.860279523775475L62.93784397304444,75.97797758884553L63.19278176491943,48.77205938745862L63.45752485648193,47.40597843004401L63.72226794804444,22.380587512218472L63.99681633929443,19.37616642328265L64.27136473054443,19.856883613075222L64.54591312179443,75.97368328010567L64.80085091366944,47.61511126567479L65.06559400523193,73.97842474503506L65.32053179710694,43.78477191153003L65.58527488866943,-11.583161658537968L65.86962857960694,13.80742954397812L66.14417697085693,42.6952444369619L66.40892006241943,38.786503274680975L66.67366315398193,7.727547230095799L66.94821154523193,2.8108704593039286L67.22275993648194,62.775186715438565L67.47769772835693,37.179511596960694L67.74244081991944,33.35739277668934L68.00718391148193,33.04225186245192L68.27192700304442,-26.598948334642714L68.55628069398193,30.192180499079935L68.82102378554443,31.568567797470177L69.08576687710693,1.909495054808999L69.36031526835693,57.879245321133396L69.61525306023194,57.395154031616656L69.87019085210693,56.514882087214744L70.12512864398194,55.35959034165916L70.38006643585693,53.66241818040197L70.63500422773194,-2.317208996024085L70.90955261898193,54.71182454188635L71.16449041085694,53.088637185490036L71.41942820273194,25.247468026943594L71.68417129429444,55.44455630744051L71.93910908616944,26.53195711830102L72.20385217773193,25.02379588886503L72.46859526929443,51.10730448019007L72.72353306116943,52.5253465733569L72.97847085304444,23.049272730281125L73.24321394460694,-8.529846797235557L73.51776233585693,17.7482553272725L73.78250542741944,-8.931487358947138L74.05705381866943,19.109060419663866L74.32179691023194,21.42516516486914L74.58654000179443,21.952076847248964L74.85128309335694,21.524425044027414L75.11602618491943,-7.841591800772703L75.39057457616944,18.971397150917756L75.65531766773194,-5.955347360426606L75.92986605898193,27.934539700004354L76.19460915054442,29.225776990810118L76.45935224210693,-1.6744736722036897L77.01825432429445,-27.026293401525677L77.30260801523193,30.414871080875113L77.56735110679443,-0.03576545707619516L77.84189949804444,29.961637467017606L78.10664258960693,29.315589390740737L78.37138568116943,29.14719114087082L78.63612877273194,59.75009159728375L78.89106656460693,30.78246390900643L79.15580965616942,31.898493403226226L79.42055274773195,57.80507647446939L79.67549053960694,58.185429534284836L79.93042833148193,31.503601040963L80.19517142304443,4.145357573846756L80.46971981429444,34.09196496027488L80.73446290585693,59.35967758556348L80.98940069773192,30.823750620176725L81.25414378929443,31.38556889788477L81.51888688085694,2.663330280456147L81.79343527210693,56.916093218052325L82.04837306398194,53.81946718574512L82.30331085585694,49.06873477411467L82.55824864773193,-3.976161809496596L82.83279703898194,51.764088328316575L83.08773483085693,54.299080124718856L83.34267262273194,53.714195274351034L83.59761041460693,52.887908925535825L83.85254820648193,54.1550367401307L84.10748599835694,26.30141408623869L84.37222908991943,24.564672937307144L84.63697218148194,-5.444447314919671L85.19587426366942,-8.06642953693781L85.47042265491943,48.65255490995531L85.72536044679443,50.32389987150567L85.98029823866943,-7.469275233027568L86.25484662991943,-7.481176602963721L86.52939502116944,19.724925640226335L86.79413811273193,18.87391634252311L87.05888120429442,48.178095141469385L87.31381899616945,19.816639805456028L87.57856208773194,50.958230619649505L87.83349987960693,50.06525979083115L88.08843767148193,54.20595497233178L88.34337546335694,-3.829235103325934L88.61792385460693,51.35514744174725L88.87286164648194,51.33956523574835L89.12779943835693,21.11211005773392L89.39254252991942,-33.81240546131051L89.67689622085695,-5.5587986219351455L89.95144461210693,47.7038194147866L90.20638240398193,45.879903798436075L90.46132019585693,48.695682039156964L90.71625798773192,48.63010180997265L90.97119577960694,-37.19521649749501L91.25554947054442,21.048431593848697L91.52029256210693,19.527080701854583L91.78503565366942,48.171837720162735L92.03997344554443,19.635419976634285L92.30471653710694,46.81821025809371L92.55965432898194,-11.581137198703466L92.83420272023194,16.236719998112342L93.09894581179444,44.109176263192L93.35388360366943,42.115635451617315L93.60882139554444,-16.653820071287406L93.88336978679443,40.35644120270313L94.13830757866944,40.48232579604849L94.39324537054443,-45.73868238816264L94.67759906148194,12.171297914094552L94.94234215304444,-45.02042857778858L95.22669584398193,41.11929447670395L95.48163363585692,40.59232144705641L95.73657142773193,39.614016568850445L95.99150921960693,9.885376024603662L96.25625231116943,-16.652102347791455L96.53080070241944,12.86482877558063L96.79554379398193,-15.170933916148803L97.07009218523194,-16.10427124712178L97.34464057648192,13.577499984592912L97.60938366804444,-45.58414862079568L97.89373735898194,13.63700683427372L98.15848045054443,-44.9142978046465L98.44283414148192,10.871962783950782L98.70757723304445,-17.848251373643357L99.82538139741943,-41.24566984819103L100.10973508835693,43.2522162805207L100.36467288023194,44.39143504193568L100.61961067210693,-42.102261747256065L100.90396436304444,-13.69467326592315L101.17851275429443,44.9818411463976L101.43345054616944,43.23227841851423L101.68838833804443,14.265570939252605L101.95313142960693,16.081143327194287L102.21787452116943,-11.801067153451614L102.49242291241943,17.892053322789828L102.75716600398194,17.74641490924114L103.02190909554443,-35.976062246251026L103.58081117773193,-7.915269869295023L103.85535956898194,50.898846464504125L104.11029736085693,23.74568691334968L104.37504045241943,24.17303198023266L104.63978354398192,56.9714284535287L104.89472133585694,56.33697501084946L105.14965912773194,-29.789497033817256L105.43401281866944,0.7437742737423537L105.70856120991942,27.185612255774185L105.97330430148193,53.37457680029645L106.22824209335694,24.34560184430699L106.49298518491943,53.279549882610304L106.74792297679443,54.385641119460736L107.00286076866944,55.95103934967217L107.25779856054443,0.7388664923253747L107.53234695179444,30.88675426411713L107.79709004335695,4.323387344747469L108.07163843460692,33.85062480909521L108.33638152616942,-20.35072911815817L108.62073521710694,63.299889896180744L108.87567300898193,-18.160447619030585L109.16002669991944,38.59172569969484L109.42476979148194,11.727389084929275L109.69931818273194,12.861331981321033L109.97386657398192,42.647884346288095L110.23860966554443,43.05835891455023L110.50335275710692,42.0353932254498L110.76809584866943,13.479160314450308L111.04264423991943,40.01847910487679L111.30738733148193,14.114227229806676L111.58193572273193,70.69229700276496L111.83687351460692,73.36016698103181L112.09181130648194,74.22528615030883L112.34674909835694,18.077260724012877L112.62129748960693,20.73267720693416L112.89584588085694,23.260736762084964L113.17039427210693,24.257691209675446L113.44494266335693,-4.314246601858365L113.72929635429443,50.105564945718065L113.99403944585694,78.72848233672067L114.24897723773194,50.26132565843926L114.51372032929443,77.99949275449696L114.76865812116942,52.02653193958923L115.03340121273193,54.30177940449819L115.29814430429444,55.28812077477448L115.56288739585695,31.19717143874071L115.83743578710693,58.34039273252579L116.10217887866943,58.11549364909297L116.36692197023193,58.97570503695301L116.63166506179442,35.537858712983L116.90621345304443,39.10728813754792L117.18076184429444,12.223136355311333L117.46511553523193,65.79598752485352L117.72985862679444,92.79117786164915L117.98479641866943,36.34028097465819L118.25934480991944,37.63753029769975L118.53389320116943,11.947871165086827L118.81824689210694,39.51598363504639L119.09279528335693,68.71028947752018L119.35753837491944,68.2396945869001L119.62228146648194,66.16695445270902L119.88702455804444,67.29672573489636L120.15176764960694,69.39339130349519L120.41651074116943,16.832340620329813L120.70086443210693,44.02378086653665L120.97541282335693,98.30408872733561L121.23035061523193,97.32240974940544L121.48528840710694,44.76921151650724L121.75983679835694,45.08821730861052L122.03438518960692,99.86881213760219L122.28932298148194,74.24221799619738L122.55406607304444,18.745823247540102L122.83841976398193,70.72530183279412L123.10316285554443,46.402459824808325L123.37771124679443,45.56752351124571L123.65225963804444,71.66747317031762L123.91700272960693,43.349819783450755L124.19155112085694,69.630437145935L124.45629421241944,100.28891822689513L124.71123200429443,73.77235927278987L124.97597509585694,98.7320472668957L125.23091288773193,46.46172128541828L125.50546127898193,97.3387894698846L125.76039907085692,16.219604110420658L126.04475276179444,69.17407482142418L126.30949585335694,96.33686589360944L126.56443364523193,42.51635580431321L126.83898203648194,44.64805066277569L127.11353042773193,71.87274112808252L127.37827351929444,70.01226254017554L127.64301661085693,73.62800915186314L127.90775970241944,100.44474028688407L128.16269749429443,78.32438788430062L128.4274405858569,55.052608614027456L128.70198897710694,80.12523692799137L128.96673206866944,54.714217085327114L129.24128045991944,79.85377526836503L129.50602355148195,80.13149434929801L129.77076664304442,54.44477988553528L130.04531503429445,29.29951640660015L130.32966872523193,107.87548943578838L130.58460651710695,81.88486060777954L130.84934960866943,108.16087692518539L131.10428740054442,55.78006451455837L131.37883579179444,106.50867231116123L131.63377358366944,55.41290111730103L131.90832197491943,56.32458286277159L132.18287036616945,105.75864061611222L132.43780815804445,80.27461752487051L132.70255124960693,106.6925914197623L132.95748904148192,56.184465703317L133.23203743273194,53.87136697422961L133.50658582398194,51.737340919594075L133.78113421523193,26.142095231990183L134.06548790616944,76.94352223536737L134.33023099773192,24.48062718054148L134.61458468866945,51.5091290837048L134.88913307991942,74.1035731711679L135.15387617148193,71.45140809343536L135.41861926304443,71.51772448983222L135.68336235460694,72.36210828262251L135.94810544616945,47.0862978179959L136.22265383741941,45.88812433230949L136.49720222866944,47.06777094314681L136.77175061991943,19.27451400068359L137.05610431085694,69.97404319239087L137.32084740241942,42.04925770795274L137.59539579366944,41.969199523588365L137.86994418491943,66.25897535427727L138.13468727648194,68.01565436521525L138.39943036804442,94.37694338474103L138.65436815991941,68.35275760129365L138.91911125148192,42.43550010546857L139.19365964273194,102.40527626842959L139.44859743460694,74.22031702162415L139.71334052616945,78.29745643377498L139.97808361773193,53.06047878961016L140.25263200898192,52.86054804413619L140.52718040023194,103.51081537987059L140.78211819210694,51.077489708081956L141.05666658335693,101.96805429144496L141.31160437523195,103.917179681196L141.56654216710695,75.2750605953995L141.83128525866942,28.530896489434372L142.11563894960693,80.55718303995275L142.38038204116944,54.34018279408603L142.65493043241943,106.55738204172468L142.90986822429443,55.237509278911936L143.18441661554442,106.34634744079483L143.43935440741944,52.06076371497262L143.71390279866944,49.92121640624299L143.98845118991943,47.76019755381407L144.26299958116942,47.45873708027648L144.53754797241945,72.00948418781297L144.80229106398193,99.38423006994378L145.05722885585692,98.81603167639366L145.31216664773194,47.11433351934035L145.58671503898194,102.38000119413219L145.84165283085693,74.65563723330972L146.10639592241944,102.29816393900413L146.36133371429443,77.93385117804495L146.62607680585694,77.26025817856532L146.89081989741942,75.6139429022415L147.15556298898193,73.43255675693217L147.42030608054444,100.35351689979608L147.67524387241943,73.17741347051725L147.93998696398194,100.18205128654053L148.19492475585693,71.72244032218771L148.45966784741944,71.74526150577664L148.72441093898192,70.64426209214633L148.98915403054443,66.01996639927067L149.25389712210693,91.17676316453569L149.50883491398193,87.68346569920158L149.76377270585692,87.90750592088642L150.01871049773194,9.258897726726975L150.30306418866945,10.633321912550446L150.58741787960693,89.98036874961292L150.84235567148193,90.75536878262076L151.09729346335692,87.173976640852L151.35223125523194,34.65893640847076L151.6267796464819,88.81366641226288L151.88171743835696,64.19776850641608L152.14646052991944,64.95528456812595L152.41120362148195,93.9755482121003L152.66614141335694,94.29645576950267L152.92107920523193,67.14397103829305L153.18582229679444,68.28012243632243L153.45056538835692,66.70177993262371L153.71530847991946,68.21104541287853L153.98005157148194,70.30777232874509L154.24479466304444,71.28466621979368L154.50953775460692,44.178191939368176L154.78408614585692,69.86361811050897L155.04882923741945,72.62068701602931L155.31357232898193,21.227258879229673L155.5979260199194,74.39669041629664L155.86266911148195,99.50342781110851L156.11760690335694,102.67667658078824L156.37254469523194,74.5568067850254L156.63728778679445,99.49410302641627L156.89222557866944,73.7750585525692L157.15696867023192,103.05175377558044L157.41190646210694,77.62116415451601L157.67664955366942,74.20602310824722L157.94139264523196,77.31737248480533L158.20613573679444,46.143819744133836L158.48068412804443,44.955645863084506L158.75523251929442,44.1495427653466L159.02978091054445,69.20284668998119L159.29452400210693,20.00129508126967L159.57887769304443,73.01821731080418L159.84362078460694,69.06309761413286L160.10836387616945,18.246763224701606L160.39271756710693,69.72902220514845L160.6574606586694,67.55800374808247L160.92220375023194,92.936570886127L161.17714154210694,39.98443137129652L161.45168993335693,93.66506969020901L161.70662772523193,93.36557232923818L161.96156551710692,40.94672461262962L162.2361139083569,93.4755679802461L162.4910517002319,66.91416417344324L162.75579479179444,40.3871148365592L163.03034318304444,43.1287242306161L163.30489157429443,71.87875316031834L163.56963466585694,70.77192575625536L163.83437775741945,18.4433812177191L164.11873144835693,71.43018193880694L164.38347453991946,45.970697754650075L164.65802293116943,70.51089313214008L164.92276602273193,98.0843428143906L165.17770381460693,99.90378008019815L165.43264160648192,44.60633452073142L165.70718999773192,42.05766228362932L165.98173838898194,45.46513492143408L166.25628678023193,44.19113621285545L166.53083517148195,95.35389862305735L166.78577296335695,16.13181617032454L167.07012665429443,92.53437819900601L167.32506444616942,66.39786556837764L167.58980753773193,67.44438860827954L167.8545506292944,92.62725796232223L168.10948842116946,13.401371978991271L168.39384211210694,92.37886287535565L168.64877990398193,91.82017330830092L168.90371769585693,66.66460348839014L169.16846078741943,66.22848576222434L169.4332038789819,14.951433392274673L169.71755756991942,14.808248869434465L170.00191126085696,68.01007176385345L170.26665435241944,13.340944920294774L170.55100804335692,15.567666696443425L170.83536173429445,16.62032446311655L171.11971542523193,44.40726263700543L171.39426381648195,42.63561489274566L171.66881220773195,69.0028545972395L171.93355529929443,18.238113259954176L172.21790899023193,71.30417465092614L172.48265208179444,69.96852193829677L172.74739517335692,40.77562708298039L173.02194356460691,92.93019077028492L173.27688135648194,12.015598548641051L173.56123504741944,90.57874999887746L173.81617283929444,37.3055802321092L174.09072123054443,63.05327387997783L174.3554643221069,64.53438096435275L174.62020741366945,93.35729044809705L174.87514520554444,38.1857908292434L175.14969359679444,36.376598557143794L175.42424198804443,91.86581567547876L175.67917977991942,10.023591418759178L175.96353347085693,63.14879157580567L176.22827656241944,85.00498264362051L176.48321435429443,31.554948704038072L176.75776274554445,5.337948458171347L177.04211643648193,58.19328198455201L177.30685952804444,58.24211440965088L177.57160261960692,60.15130272812133L177.83634571116946,60.180319985749186L178.10108880273194,61.60523297289977L178.36583189429444,86.8997543541786L178.62076968616944,85.0704401782694L178.87570747804443,29.200440569245L179.15025586929443,55.76583194844915L179.41499896085693,29.124860735423606L179.68954735210693,56.3130495764417L179.95429044366944,56.288572016624535L180.21903353523192,57.85636279027676L180.48377662679445,84.53328350218163L180.73871441866945,85.50839832246658L180.99365221054444,85.1394558544456L181.24859000241943,58.376342231405104L181.51333309398194,31.89978169584818L181.78788148523194,32.14351439046863L182.06242987648196,60.85133639998491L182.32717296804444,85.18853366861532L182.58211075991943,4.397617538679195L182.86646445085694,87.18342412007968L183.12140224273193,5.298195428693863L183.40575593366944,57.42423263651223L183.67049902523195,85.33447881850259L183.92543681710694,84.85725842296961L184.18037460898194,2.8148580317052176L184.46472829991944,56.87357956152779L184.72947139148195,82.21914186954315L184.98440918335695,55.993982437070706L185.24915227491942,55.0251863853601L185.51389536648193,84.71014767499582L185.76883315835693,30.74737327187507L186.04338154960695,56.54426742844886L186.30812464116943,84.04729044736582L186.56306243304445,30.225062634573653L186.83761082429442,30.260766744382135L187.1121592155444,82.95445022034123L187.36709700741946,1.6810378298488866L187.65145069835694,0.14165084114739895L187.93580438929445,53.832227417429245L188.20054748085695,80.99004936092983L188.45548527273195,51.54912750225314L188.72022836429443,80.26382040575317L188.97516615616942,54.05951904430283L189.23990924773193,52.53675716515136L189.5046523392944,26.607782341193268L189.77920073054443,81.44089043134657L190.03413852241943,52.47718896820283L190.29888161398193,51.328890811166445L190.56362470554444,26.090134096237975L190.8381730967944,50.343285608102704L191.10291618835694,23.424595314144184L191.37746457960694,21.380136270368393L191.65201297085693,22.41917494360943L191.92656136210695,78.67265632310261L192.18149915398195,78.56382627018121L192.43643694585694,49.26970842313973L192.70118003741942,21.23278013332377L192.9757284286694,20.724456673060725L193.25027681991943,47.720812607942875L193.51501991148194,21.15382619977821L193.78956830273194,45.64359412320879L194.05431139429442,46.30172761122496L194.31905448585695,-8.622665213284082L194.60340817679443,46.011984465820376L194.8681512683569,18.33185188501837L195.14269965960693,18.175170963281502L195.41724805085693,17.783161922600737L195.69179644210692,-12.20522295313937L195.97615013304443,15.157682906322982L196.25069852429442,42.96909864002902L196.51544161585693,69.25873405086696L196.77037940773195,41.0071516713261L197.03512249929443,69.45062830427064L197.29006029116945,15.471474180670732L197.56460868241942,66.99919148649231L197.81954647429444,67.5807635844037L198.07448426616943,66.73785212603848L198.32942205804443,39.47549443835636L198.59416514960694,9.801330267837997L198.86871354085693,37.48373269754534L199.13345663241944,35.23284009791809L199.39819972398192,-21.498291107982034L199.68255341491945,35.08634282262143L199.94729650648193,35.66987803309961L200.21203959804444,10.29928603985768L200.48658798929443,38.98582054747782L200.75133108085694,67.07213338780208L201.00626887273194,39.71382857341814L201.27101196429444,38.74386692362101L201.53575505585692,38.932939202709925L201.80049814741943,39.861430099533614L202.0652412389819,37.99469409032001L202.32998433054445,40.47116059332489L202.59472742210693,41.37247465055208L202.85947051366944,14.105147834185285L203.13401890491943,41.080891087116136L203.3987619964819,-15.899923498372546L203.68311568741944,39.28850796636966L203.94785877898192,38.67135445318524L204.21260187054443,-16.950924888817433L204.49695556148194,-15.921701778410352L204.78130925241942,40.733236120991265L205.04605234398196,40.90335209435711L205.31079543554443,68.35613170101782L205.56573322741943,65.76095823498987L205.82067101929445,10.301187805156754L206.09521941054442,37.31557983674628L206.35996250210692,9.736486205866232L206.63451089335695,37.210430619887624L206.89925398491943,64.44180793737507L207.15419177679445,36.80676559834154L207.41893486835693,34.42458984581026L207.68367795991944,62.89051957873744L207.93861575179443,64.79670188108999L208.19355354366942,7.254498448767255L208.46810193491945,36.865168197203516L208.73284502648193,37.00050026977657L208.99758811804443,65.50575360130726L209.25252590991943,38.3132091042816L209.51726900148194,12.846424595266974L209.79181739273193,66.8015305899237L210.04675518460695,11.796895539247163L210.32130357585692,13.73651210250285L210.5958519671069,11.527028908581329L210.87040035835693,66.86803102812371L211.12533815023193,66.28314617775588L211.38027594210695,37.88660020461116L211.64501903366943,11.854807359967467L211.91956742491942,39.26114708497004L212.18431051648196,68.5975331994652L212.43924830835695,13.650871316776662L212.71379669960695,-15.026767837025211L212.99815039054445,-15.517055200580884L213.28250408148193,12.03326656174216L213.55705247273193,39.54739343611503L213.8217955642944,67.43230319654025L214.07673335616946,66.15333535927692L214.33167114804445,36.40745623280303L214.59641423960693,65.37508392108032L214.85135203148192,66.26363774662339L215.10628982335695,67.028883564065L215.36122761523194,-17.44139629417623L215.64558130616942,9.38281920750557L215.92012969741944,11.036005377813126L216.19467808866943,9.53864126749448L216.46922647991946,38.174871015590654L216.73396957148194,33.25770346665707L216.99871266304444,9.625754387645763L217.27326105429444,-18.60901884054195L217.55761474523194,64.92994814656083L217.81255253710694,35.17867046052827L218.07729562866945,63.0778741343304L218.33223342054444,62.63359722155888L218.58717121241943,62.98143622948687L218.84210900429443,35.616812646528565L219.10685209585694,63.33479649150898L219.36178988773193,7.4832624100659375L219.63633827898195,61.792894264831304L219.89127607085695,60.732261353355575L220.14621386273194,61.38321721104943L220.40115165460693,-23.5703564222283L220.6855053455444,2.8839350551491085L220.96005373679444,5.965899090473111L221.23460212804443,5.300035846725223L221.50915051929442,36.70235254869543L221.77389361085696,-19.156543204873074L222.05824730179444,66.36608768370273L222.31318509366943,41.65221819131959L222.57792818523194,41.37480584672515L222.84267127679442,44.429654389720376L223.10741436835696,45.91352210114234L223.37215745991944,74.35319520348871L223.62709525179443,22.477822931542264L223.90164364304442,52.54871988235522L224.16638673460693,54.087063967505614L224.43112982616944,-0.828065419578854L224.71548351710692,29.56067172525086L224.9900319083569,30.753753387717143L225.26458029960693,31.606971187057994L225.53912869085693,86.41376129936278L225.79406648273192,86.86325272988985L226.04900427460692,33.6727177327299L226.32355266585694,88.44840478030461L226.57849045773193,61.03961116459356L226.84323354929444,61.61443506305659L227.10797664085695,33.956203456827836L227.3825250321069,61.121387072453885L227.64726812366945,59.28489526622235L227.91201121523193,87.34942982650881L228.16694900710695,33.6187934844109L228.44149739835694,89.46811906421632L228.69643519023194,35.43258680158892L228.97098358148196,7.551664613564994L229.25533727241944,88.57993332227953L229.51027506429443,62.75457403348726L229.7750181558569,90.20293663687268L230.02995594773193,11.703586345056966L230.31430963866944,39.09471194766691L230.58885802991944,68.34134700949919L230.85360112148192,41.850369866029894L231.12814951273194,95.97510105591076L231.38308730460693,97.09456599712246L231.63802509648195,70.711682739362L231.90276818804443,71.28503430339994L232.16751127960694,72.8746647043577L232.43225437116942,73.54936195465615L232.69699746273196,49.24934113025931L232.97154585398195,24.951896891106358L233.25589954491943,77.98716195368682L233.52064263648194,76.46709935431466L233.78538572804445,78.28420542394913L234.05012881960693,76.91861524467623L234.31487191116943,52.17486963291726L234.58942030241946,103.80147873429087L234.84435809429445,103.35781529419647L235.09929588616944,104.18808921541296L235.35423367804444,53.61996587114515L235.62878206929443,52.431423906489556L235.90333046054442,51.156504988895236L236.17787885179445,52.08346220402614L236.45242724304444,79.17232981861822L236.71717033460692,106.63461825177431L236.9721081264819,79.08607556021491L237.23685121804442,105.12154924092135L237.49178900991942,28.113182943582206L237.77614270085692,77.64355590723096L238.04088579241943,79.80187547988051L238.3056288839819,52.46602376547923L238.58017727523193,52.70742526392661L238.85472566648193,80.21333160442605L239.11946875804443,81.77738019474782L239.3842118496069,84.64376993133125L239.64895494116945,84.98841888133823L239.91369803273193,59.757391922141494L240.18824642398192,111.98133936922851L240.44318421585692,33.89191152026548L240.72753790679445,112.25574569770504L240.98247569866945,86.93901660551438L241.24721879023193,86.93435421316826L241.51196188179443,112.4613203918085L241.76689967366943,87.42010187891321L242.03164276523194,35.80263352042874L242.31599645616944,114.14855429569633L242.57093424804444,61.49241534757709L242.84548263929443,114.61191020872636L243.10042043116943,64.57542228645218L243.37496882241945,91.2969424619838L243.63971191398193,64.77498494831987L243.91426030523192,89.65817289958862L244.17900339679443,63.74643665785764L244.45355178804445,90.00122682063508L244.71829487960693,118.19041902891264L244.97323267148192,67.88664106121657L245.24778106273192,68.13902372058443L245.52232945398194,92.57241350498754L245.78707254554445,92.7486028578569L246.05181563710693,91.98010563522655L246.31655872866943,117.58989062527823L246.57149652054443,91.43251992362772L246.8362396121069,118.07220284403128L247.09117740398196,67.16992093253528L247.36572579523192,118.6215676263938L247.62066358710695,66.57442300485326L247.89521197835694,67.55732892813764L248.16976036960693,92.64130648662831L248.43450346116944,116.56410296186301L248.68944125304444,114.44394138973041L248.94437904491943,64.16470232911922L249.21892743616942,89.57541543544491L249.48367052773193,114.15591596782178L249.73860831960693,88.8580818340865L250.00335141116943,114.27560448712823L250.25828920304446,114.0324852651849L250.51322699491945,88.15001167015264L250.77797008648193,62.24778425491702L251.05251847773192,59.583288376374355L251.32706686898194,56.9582387909706L251.60161526023194,57.053756486798434L251.87616365148193,108.66220679692924L252.13110144335693,31.613964775577188L252.41545513429443,85.92973135711377L252.68019822585694,32.54533899398336L252.96455191679445,58.6827718336274L253.23910030804444,58.50486475726211L253.51364869929444,82.52949769689901L253.77839179085692,84.25028855622539L254.04313488241945,59.55384168787252L254.31768327366945,58.640748955244575L254.5922316649194,32.50718099346638L254.87658535585695,82.59802259493352L255.14132844741943,110.91855930338285L255.39626623929442,82.78543849779419L255.66100933085693,58.26984337465678L255.93555772210695,60.87428027810926L256.2101061133569,84.7200859323652L256.47484920491945,60.03627660116102L256.74939759616944,86.69141903302807L257.0141406877319,34.70629649914456L257.29849437866943,111.67902003394293L257.55343217054445,83.31167536022919L257.81817526210693,85.33049124610129L258.0829183536694,31.02208633669017L258.3672720446069,59.004660947313155L258.6418204358569,53.81597039148552L258.9163688271069,26.970590082443035L259.2007225180444,76.7390517920827L259.46546560960695,47.7759024543484L259.74001400085695,47.46622144693737L260.01456239210694,71.91936505154378L260.2793054836694,46.22688394461609L260.5538538749194,44.638971267154304L260.82840226616946,71.7152626918654L261.09314535773194,45.055273825849085L261.36769374898194,68.81752450148105L261.6324368405444,94.62447960995962L261.88737463241944,69.78895848570325L262.152117723982,96.83402415114887L262.40705551585694,97.73251623406132L262.66199330773196,96.2586481272764L262.9169310996069,69.25585072928449L263.18167419116946,41.15371029389048L263.4562225824194,66.64988014413922L263.72096567398194,11.140479774726948" fill="none"></path></g></g></g></g></g></g><g transform="translate(30, 176)" clip-path="url(#clip_1)"><clipPath id="clip_1"><rect width="299" height="23"></rect></clipPath><g><g><line x1="0" y1="0" x2="0" y2="5" style="visibility: inherit;" fill="rgb(0, 0, 0)" stroke="rgb(204, 204, 204)" stroke-width="1px"></line><line x1="29.923399925231934" y1="0" x2="29.923399925231934" y2="5" style="visibility: inherit;" fill="rgb(0, 0, 0)" stroke="rgb(204, 204, 204)" stroke-width="1px"></line><line x1="59.84679985046387" y1="0" x2="59.84679985046387" y2="5" style="visibility: inherit;" fill="rgb(0, 0, 0)" stroke="rgb(204, 204, 204)" stroke-width="1px"></line><line x1="89.7701997756958" y1="0" x2="89.7701997756958" y2="5" style="visibility: inherit;" fill="rgb(0, 0, 0)" stroke="rgb(204, 204, 204)" stroke-width="1px"></line><line x1="119.69359970092773" y1="0" x2="119.69359970092773" y2="5" style="visibility: inherit;" fill="rgb(0, 0, 0)" stroke="rgb(204, 204, 204)" stroke-width="1px"></line><line x1="149.61699962615967" y1="0" x2="149.61699962615967" y2="5" style="visibility: inherit;" fill="rgb(0, 0, 0)" stroke="rgb(204, 204, 204)" stroke-width="1px"></line><line x1="179.5403995513916" y1="0" x2="179.5403995513916" y2="5" style="visibility: inherit;" fill="rgb(0, 0, 0)" stroke="rgb(204, 204, 204)" stroke-width="1px"></line><line x1="209.46379947662354" y1="0" x2="209.46379947662354" y2="5" style="visibility: inherit;" fill="rgb(0, 0, 0)" stroke="rgb(204, 204, 204)" stroke-width="1px"></line><line x1="239.38719940185547" y1="0" x2="239.38719940185547" y2="5" style="visibility: inherit;" fill="rgb(0, 0, 0)" stroke="rgb(204, 204, 204)" stroke-width="1px"></line><line x1="269.3105993270874" y1="0" x2="269.3105993270874" y2="5" style="visibility: inherit;" fill="rgb(0, 0, 0)" stroke="rgb(204, 204, 204)" stroke-width="1px"></line><line x1="299.23399925231934" y1="0" x2="299.23399925231934" y2="5" style="visibility: inherit;" fill="rgb(0, 0, 0)" stroke="rgb(204, 204, 204)" stroke-width="1px"></line></g><g transform="translate(0, 8)"><text style="text-anchor: middle; visibility: hidden; font-family: Roboto, sans-serif; font-size: 12px; font-weight: 200;" x="0" y="0" dx="0em" dy="0.95em" fill="rgb(33, 33, 33)" stroke="none" stroke-width="1px">-50M</text><text style="text-anchor: middle; visibility: inherit; font-family: Roboto, sans-serif; font-size: 12px; font-weight: 200;" x="29.923399925231934" y="0" dx="0em" dy="0.95em" fill="rgb(33, 33, 33)" stroke="none" stroke-width="1px">0</text><text style="text-anchor: middle; visibility: hidden; font-family: Roboto, sans-serif; font-size: 12px; font-weight: 200;" x="59.84679985046387" y="0" dx="0em" dy="0.95em" fill="rgb(33, 33, 33)" stroke="none" stroke-width="1px">50M</text><text style="text-anchor: middle; visibility: inherit; font-family: Roboto, sans-serif; font-size: 12px; font-weight: 200;" x="89.7701997756958" y="0" dx="0em" dy="0.95em" fill="rgb(33, 33, 33)" stroke="none" stroke-width="1px">100M</text><text style="text-anchor: middle; visibility: hidden; font-family: Roboto, sans-serif; font-size: 12px; font-weight: 200;" x="119.69359970092773" y="0" dx="0em" dy="0.95em" fill="rgb(33, 33, 33)" stroke="none" stroke-width="1px">150M</text><text style="text-anchor: middle; visibility: inherit; font-family: Roboto, sans-serif; font-size: 12px; font-weight: 200;" x="149.61699962615967" y="0" dx="0em" dy="0.95em" fill="rgb(33, 33, 33)" stroke="none" stroke-width="1px">200M</text><text style="text-anchor: middle; visibility: hidden; font-family: Roboto, sans-serif; font-size: 12px; font-weight: 200;" x="179.5403995513916" y="0" dx="0em" dy="0.95em" fill="rgb(33, 33, 33)" stroke="none" stroke-width="1px">250M</text><text style="text-anchor: middle; visibility: inherit; font-family: Roboto, sans-serif; font-size: 12px; font-weight: 200;" x="209.46379947662354" y="0" dx="0em" dy="0.95em" fill="rgb(33, 33, 33)" stroke="none" stroke-width="1px">300M</text><text style="text-anchor: middle; visibility: hidden; font-family: Roboto, sans-serif; font-size: 12px; font-weight: 200;" x="239.38719940185547" y="0" dx="0em" dy="0.95em" fill="rgb(33, 33, 33)" stroke="none" stroke-width="1px">350M</text><text style="text-anchor: middle; visibility: inherit; font-family: Roboto, sans-serif; font-size: 12px; font-weight: 200;" x="269.3105993270874" y="0" dx="0em" dy="0.95em" fill="rgb(33, 33, 33)" stroke="none" stroke-width="1px">400M</text><text style="text-anchor: middle; visibility: hidden; font-family: Roboto, sans-serif; font-size: 12px; font-weight: 200;" x="299.23399925231934" y="0" dx="0em" dy="0.95em" fill="rgb(33, 33, 33)" stroke="none" stroke-width="1px">450M</text></g><line x1="0" y1="0" x2="299.23399925231934" y2="0" fill="rgb(0, 0, 0)" stroke="rgb(204, 204, 204)" stroke-width="1px"></line></g></g></g></g></svg>