<svg viewBox="0 0 330 200" xmlns="http://www.w3.org/2000/svg"><g><g><g><g><g><line x1="30.766000747680664" y1="176.89999961853027" x2="25.766000747680664" y2="176.89999961853027" style="visibility: inherit;" fill="rgb(0, 0, 0)" stroke="rgb(204, 204, 204)" stroke-width="1px"></line><line x1="30.766000747680664" y1="154.787499666214" x2="25.766000747680664" y2="154.787499666214" style="visibility: inherit;" fill="rgb(0, 0, 0)" stroke="rgb(204, 204, 204)" stroke-width="1px"></line><line x1="30.766000747680664" y1="132.6749997138977" x2="25.766000747680664" y2="132.6749997138977" style="visibility: inherit;" fill="rgb(0, 0, 0)" stroke="rgb(204, 204, 204)" stroke-width="1px"></line><line x1="30.766000747680664" y1="110.56249976158142" x2="25.766000747680664" y2="110.56249976158142" style="visibility: inherit;" fill="rgb(0, 0, 0)" stroke="rgb(204, 204, 204)" stroke-width="1px"></line><line x1="30.766000747680664" y1="88.44999980926514" x2="25.766000747680664" y2="88.44999980926514" style="visibility: inherit;" fill="rgb(0, 0, 0)" stroke="rgb(204, 204, 204)" stroke-width="1px"></line><line x1="30.766000747680664" y1="66.33749985694885" x2="25.766000747680664" y2="66.33749985694885" style="visibility: inherit;" fill="rgb(0, 0, 0)" stroke="rgb(204, 204, 204)" stroke-width="1px"></line><line x1="30.766000747680664" y1="44.22499990463257" x2="25.766000747680664" y2="44.22499990463257" style="visibility: inherit;" fill="rgb(0, 0, 0)" stroke="rgb(204, 204, 204)" stroke-width="1px"></line><line x1="30.766000747680664" y1="22.112499952316284" x2="25.766000747680664" y2="22.112499952316284" style="visibility: inherit;" fill="rgb(0, 0, 0)" stroke="rgb(204, 204, 204)" stroke-width="1px"></line><line x1="30.766000747680664" y1="0" x2="25.766000747680664" y2="0" style="visibility: inherit;" fill="rgb(0, 0, 0)" stroke="rgb(204, 204, 204)" stroke-width="1px"></line></g><g transform="translate(20.766000747680664, 0)"><text style="text-anchor: end; visibility: hidden; font-family: Roboto, sans-serif; font-size: 12px; font-weight: 200;" x="0" y="176.89999961853027" dx="0em" dy="0.3em" fill="rgb(33, 33, 33)" stroke="none" stroke-width="1px">16</text><text style="text-anchor: end; visibility: inherit; font-family: Roboto, sans-serif; font-size: 12px; font-weight: 200;" x="0" y="154.787499666214" dx="0em" dy="0.3em" fill="rgb(33, 33, 33)" stroke="none" stroke-width="1px">17</text><text style="text-anchor: end; visibility: hidden; font-family: Roboto, sans-serif; font-size: 12px; font-weight: 200;" x="0" y="132.6749997138977" dx="0em" dy="0.3em" fill="rgb(33, 33, 33)" stroke="none" stroke-width="1px">18</text><text style="text-anchor: end; visibility: inherit; font-family: Roboto, sans-serif; font-size: 12px; font-weight: 200;" x="0" y="110.56249976158142" dx="0em" dy="0.3em" fill="rgb(33, 33, 33)" stroke="none" stroke-width="1px">19</text><text style="text-anchor: end; visibility: hidden; font-family: Roboto, sans-serif; font-size: 12px; font-weight: 200;" x="0" y="88.44999980926514" dx="0em" dy="0.3em" fill="rgb(33, 33, 33)" stroke="none" stroke-width="1px">20</text><text style="text-anchor: end; visibility: inherit; font-family: Roboto, sans-serif; font-size: 12px; font-weight: 200;" x="0" y="66.33749985694885" dx="0em" dy="0.3em" fill="rgb(33, 33, 33)" stroke="none" stroke-width="1px">21</text><text style="text-anchor: end; visibility: hidden; font-family: Roboto, sans-serif; font-size: 12px; font-weight: 200;" x="0" y="44.22499990463257" dx="0em" dy="0.3em" fill="rgb(33, 33, 33)" stroke="none" stroke-width="1px">22</text><text style="text-anchor: end; visibility: inherit; font-family: Roboto, sans-serif; font-size: 12px; font-weight: 200;" x="0" y="22.112499952316284" dx="0em" dy="0.3em" fill="rgb(33, 33, 33)" stroke="none" stroke-width="1px">23</text><text style="text-anchor: end; visibility: hidden; font-family: Roboto, sans-serif; font-size: 12px; font-weight: 200;" x="0" y="0" dx="0em" dy="0.3em" fill="rgb(33, 33, 33)" stroke="none" stroke-width="1px">24</text></g><line x1="30.766000747680664" y1="0" x2="30.766000747680664" y2="176.89999961853027" fill="rgb(0, 0, 0)" stroke="rgb(204, 204, 204)" stroke-width="1px"></line></g></g><g transform="translate(30, 0)" clip-path="url(#clip_0)"><clipPath id="clip_0"><rect width="299" height="176"></rect></clipPath><g><g><g><line x1="0" y1="0" x2="0" y2="176.89999961853027" fill="rgb(0, 0, 0)" stroke="rgb(66, 66, 66)" stroke-width="1px" opacity="0.25"></line><line x1="29.923399925231934" y1="0" x2="29.923399925231934" y2="176.89999961853027" fill="rgb(0, 0, 0)" stroke="rgb(66, 66, 66)" stroke-width="1px" opacity="0.25"></line><line x1="59.84679985046387" y1="0" x2="59.84679985046387" y2="176.89999961853027" fill="rgb(0, 0, 0)" stroke="rgb(66, 66, 66)" stroke-width="1px" opacity="0.25"></line><line x1="89.7701997756958" y1="0" x2="89.7701997756958" y2="176.89999961853027" fill="rgb(0, 0, 0)" stroke="rgb(66, 66, 66)" stroke-width="1px" opacity="0.25"></line><line x1="119.69359970092773" y1="0" x2="119.69359970092773" y2="176.89999961853027" fill="rgb(0, 0, 0)" stroke="rgb(66, 66, 66)" stroke-width="1px" opacity="0.25"></line><line x1="149.61699962615967" y1="0" x2="149.61699962615967" y2="176.89999961853027" fill="rgb(0, 0, 0)" stroke="rgb(66, 66, 66)" stroke-width="1px" opacity="0.25"></line><line x1="179.5403995513916" y1="0" x2="179.5403995513916" y2="176.89999961853027" fill="rgb(0, 0, 0)" stroke="rgb(66, 66, 66)" stroke-width="1px" opacity="0.25"></line><line x1="209.46379947662354" y1="0" x2="209.46379947662354" y2="176.89999961853027" fill="rgb(0, 0, 0)" stroke="rgb(66, 66, 66)" stroke-width="1px" opacity="0.25"></line><line x1="239.38719940185547" y1="0" x2="239.38719940185547" y2="176.89999961853027" fill="rgb(0, 0, 0)" stroke="rgb(66, 66, 66)" stroke-width="1px" opacity="0.25"></line><line x1="269.3105993270874" y1="0" x2="269.3105993270874" y2="176.89999961853027" fill="rgb(0, 0, 0)" stroke="rgb(66, 66, 66)" stroke-width="1px" opacity="0.25"></line><line x1="299.23399925231934" y1="0" x2="299.23399925231934" y2="176.89999961853027" fill="rgb(0, 0, 0)" stroke="rgb(66, 66, 66)" stroke-width="1px" opacity="0.25"></line></g><g><line x1="0" y1="176.89999961853027" x2="299.23399925231934" y2="176.89999961853027" fill="rgb(0, 0, 0)" stroke="rgb(66, 66, 66)" stroke-width="1px" opacity="0.25"></line><line x1="0" y1="154.787499666214" x2="299.23399925231934" y2="154.787499666214" fill="rgb(0, 0, 0)" stroke="rgb(66, 66, 66)" stroke-width="1px" opacity="0.25"></line><line x1="0" y1="132.6749997138977" x2="299.23399925231934" y2="132.6749997138977" fill="rgb(0, 0, 0)" stroke="rgb(66, 66, 66)" stroke-width="1px" opacity="0.25"></line><line x1="0" y1="110.56249976158142" x2="299.23399925231934" y2="110.56249976158142" fill="rgb(0, 0, 0)" stroke="rgb(66, 66, 66)" stroke-width="1px" opacity="0.25"></line><line x1="0" y1="88.44999980926514" x2="299.23399925231934" y2="88.44999980926514" fill="rgb(0, 0, 0)" stroke="rgb(66, 66, 66)" stroke-width="1px" opacity="0.25"></line><line x1="0" y1="66.33749985694885" x2="299.23399925231934" y2="66.33749985694885" fill="rgb(0, 0, 0)" stroke="rgb(66, 66, 66)" stroke-width="1px" opacity="0.25"></line><line x1="0" y1="44.22499990463257" x2="299.23399925231934" y2="44.22499990463257" fill="rgb(0, 0, 0)" stroke="rgb(66, 66, 66)" stroke-width="1px" opacity="0.25"></line><line x1="0" y1="22.112499952316284" x2="299.23399925231934" y2="22.112499952316284" fill="rgb(0, 0, 0)" stroke="rgb(66, 66, 66)" stroke-width="1px" opacity="0.25"></line><line x1="0" y1="0" x2="299.23399925231934" y2="0" fill="rgb(0, 0, 0)" stroke="rgb(66, 66, 66)" stroke-width="1px" opacity="0.25"></line></g></g></g><g><g><line x1="0" y1="530.6999988555908" x2="299.23399925231934" y2="530.6999988555908" fill="rgb(0, 0, 0)" stroke="rgb(153, 153, 153)" stroke-width="1.5px"></line></g></g><g><g><line x1="29.923399925231934" y1="0" x2="29.923399925231934" y2="176.89999961853027" fill="rgb(0, 0, 0)" stroke="rgb(153, 153, 153)" stroke-width="1.5px"></line></g></g><g><g><g><g><g><path style="fill: none;" stroke="rgb(187, 187, 187)" stroke-width="2px" d="M30.472496707731935,-8.467482291665934L30.737239799294436,3.6746102877048448L30.992177591169433,1.2606876100406745L31.25692068273193,8.15968393464554L31.511858474606935,12.049864484078835L31.766796266481933,14.314956385856734L32.021734058356934,7.675484763611724L32.286477149919435,-12.25697608578874L33.94357279710693,-5.9761612220573035L34.19851058898193,3.6308343323717738L34.45344838085693,1.563293463337674L34.718191472419434,-7.54597671773563L34.992739863669435,2.729398448131557L35.247677655544436,-6.8110628715908526L35.52222604679443,3.2435913048858622L35.77716383866944,9.244649806460462L36.03210163054443,12.990830798665883L36.28703942241943,15.208481589956367L36.541977214294434,16.671636633923423L36.796915006169435,17.415272497507956L37.051852798044436,17.9137521063926L37.30679058991943,18.11134671871188L37.56172838179443,18.327583648117457L37.81666617366943,18.33120191074698L38.07160396554444,18.46516521373256L38.326541757419434,18.50421046510555L38.581479549294436,18.58003738495381L38.83641734116944,18.55398574959129L39.09135513304443,18.52683221798356L39.34629292491943,18.51723768719204L39.60123071679443,18.442041996173945L39.85616850866943,18.372057466719205L40.111106300544435,18.460695020142015L40.366044092419436,18.604303424800143L40.62098188429444,18.785348151810553L40.87591967616943,18.93768644990039L41.13085746804443,19.169350754284103L41.38579525991943,19.31098113467384L41.640733051794435,19.50114692180566L41.895670843669436,19.80259328126872L42.15060863554444,20.125291378847994L42.40554642741943,20.448981781759365L42.66048421929443,12.971640444586512L42.92522731085693,8.622274702619343L43.18997040241943,13.971937190309072L43.444908194294435,17.392750879662877L43.699845986169436,11.748816399441306L43.96458907773194,16.416398011912232L44.21952686960693,19.377756572246785L44.47446466148193,13.571181355382855L44.73920775304443,10.203102809793242L45.00395084460693,0.6032516590182618L45.278499235856934,2.770670176999817L45.543242327419435,-3.5561154911895736L45.817790718669436,8.282345258783467L46.07272851054443,7.739728604298013L46.33747160210693,15.29067387820624L46.59240939398193,12.30249844020391L46.85715248554443,10.658019824268772L47.12189557710693,9.8488777821934L47.386638668669434,1.8338359649850118L47.661187059919435,12.558120033821133L47.916124851794436,19.079387967535386L48.17106264366943,7.757869156657228L48.44561103491944,8.803143363863255L48.71035412648193,17.270922733721303L48.96529191835694,22.42374547823754L49.22022971023193,25.72092179814915L49.475167502106935,20.1465415445238L49.739910593669435,24.6381925197374L49.99484838554444,19.822976974820477L50.25959147710694,17.150920353624663L50.52433456866943,8.100744620690266L50.79888295991943,18.23686268290015L51.05382075179443,24.489920915715196L51.308758543669434,5.4315764326228555L51.593112234606934,1.824413620845839L51.86766062585693,7.348862550729168L52.13240371741943,18.443919074117172L52.38734150929443,25.20470655466825L52.64227930116944,14.148991270411127L52.91682769241943,0.07315850376899889L53.20118138335693,7.011984629624273L53.46592447491943,11.304542065570303L53.73066756648193,21.63379143427634L53.985605358356935,12.730996372944157L54.260153749606935,7.584511005188075L54.53470214085693,19.80106375940522L54.78963993273194,27.22243351446048L55.04457772460694,24.237086266559537L55.30932081616944,22.592853701803772L55.57406390773193,29.314394371319374L55.82900169960693,33.52294066367176L56.083939491481935,28.642560623479056L56.34868258304443,25.819385194275462L56.61342567460693,16.80354857131679L56.88797406585694,26.575943270430596L57.14291185773194,25.017575372627018L57.40765494929444,31.813207569468577L57.66259274116943,36.0258545455154L57.917530533044435,31.142958118446245L58.182273624606935,28.34843730865081L58.44701671616943,34.16197315295024L58.70195450804443,30.279103884104018L58.96669759960693,28.04372215108406L59.23144069116943,19.35414254499536L59.50598908241943,21.74455271820672L59.77073217398193,30.816562792250874L60.025669965856935,28.89542503770809L60.290413057419435,27.96111411913076L60.555156148981936,12.636901167401968L60.83950983991944,18.518829452873412L61.10425293148194,22.153933155495167L61.36899602304443,31.947487340251545L61.62393381491944,38.01267065865061L61.87887160679443,34.30727655709886L62.14361469835693,32.2972157167408L62.40835778991943,38.63215713205555L62.66329558179443,27.79668226976464L62.93784397304444,36.29802810693386L63.19278176491943,34.17104162610332L63.45752485648193,33.033390272279384L63.72226794804444,25.09020922753397L63.99681633929443,20.53241507167352L64.27136473054443,17.942504326822686L64.54591312179443,31.32662523623407L64.80085091366944,32.15305746080697L65.06559400523193,40.14986102185286L65.32053179710694,37.77059196622468L65.58527488866943,21.698611075520343L65.86962857960694,19.548454503546793L66.14417697085693,25.757229715334617L66.40892006241943,29.647657023905417L66.67366315398193,24.819475737572837L66.94821154523193,22.08594087441757L67.22275993648194,35.22154250461797L67.47769772835693,35.91605419975879L67.74244081991944,36.432583957182864L68.00718391148193,36.88185213024543L68.27192700304442,22.722952829601077L68.55628069398193,28.97607307153659L68.82102378554443,32.8233141454016L69.08576687710693,27.975007699272524L69.36031526835693,39.79278819269089L69.61525306023194,46.986568976312505L69.87019085210693,51.44581492229724L70.12512864398194,54.26116831195903L70.38006643585693,56.082813759929714L70.63500422773194,42.80028044890234L70.90955261898193,49.42694716405636L71.16449041085694,53.51446118903258L71.41942820273194,48.84660695610366L71.68417129429444,53.377104556024356L71.93910908616944,48.920936778985094L72.20385217773193,46.411807826807895L72.46859526929443,52.27082608895841L72.72353306116943,55.93835833231292L72.97847085304444,51.04439437529542L73.24321394460694,41.05987595776611L73.51776233585693,42.36439027336826L73.78250542741944,36.095922129659044L74.05705381866943,39.60683593295228L74.32179691023194,41.835695329929344L74.58654000179443,43.25778522368537L74.85128309335694,44.16979910663528L75.11602618491943,37.575556665214584L75.39057457616944,40.912768833101815L75.65531766773194,35.795239600878254L75.92986605898193,40.000175203280186L76.19460915054442,42.590416113221245L76.45935224210693,37.092928422652655L76.73390063335692,26.682542150704545L77.01825432429445,20.594960556566186L77.30260801523193,31.32582757324747L77.56735110679443,30.700265118740717L77.84189949804444,37.508959555746344L78.10664258960693,41.7365463558111L78.37138568116943,44.40264699475939L78.63612877273194,53.310185618213644L78.89106656460693,51.67064290272944L79.15580965616942,50.807338892594515L79.42055274773195,57.57569109986008L79.67549053960694,61.827018519161165L79.93042833148193,57.45043395655107L80.19517142304443,47.93932906284234L80.46971981429444,49.4862044906446L80.73446290585693,57.685092890445404L80.98940069773192,55.739786300506054L81.25414378929443,54.61499790957664L81.51888688085694,47.04714280751614L81.79343527210693,56.814400849611786L82.04837306398194,62.80892675040076L82.30331085585694,66.55246624037139L82.55824864773193,54.86954710054468L82.83279703898194,62.03001909874135L83.08773483085693,66.57008100273062L83.34267262273194,69.39571228781888L83.59761041460693,71.20832415378811L83.85254820648193,72.39650692714442L84.10748599835694,66.18888499940753L84.37222908991943,62.53047793835633L84.63697218148194,53.42974814876133L84.91152057273194,41.028162933938944L85.19587426366942,40.63717386221531L85.47042265491943,54.51235690471525L85.72536044679443,62.94253619562588L85.98029823866943,54.149812567969526L86.25484662991943,48.95070297311988L86.52939502116944,52.9020005981793L86.79413811273193,55.40720330622589L87.05888120429442,64.02652056580918L87.31381899616945,62.338616793818645L87.57856208773194,68.46521648948735L87.83349987960693,72.25294336025176L88.08843767148193,74.61393028398778L88.34337546335694,62.31423346252781L88.61792385460693,68.97384187593703L88.87286164648194,73.1139677806812L89.12779943835693,68.72297772556013L89.39254252991942,52.298809270777035L89.67689622085695,49.522089707302776L89.95144461210693,61.862317075214904L90.20638240398193,69.45860847525357L90.46132019585693,74.20779599262895L90.71625798773192,77.23515729951505L90.97119577960694,58.43481253905475L91.25554947054442,61.06245917031987L91.52029256210693,62.74786186518338L91.78503565366942,70.71556923591451L92.03997344554443,68.68592764558838L92.30471653710694,74.44839584826113L92.55965432898194,64.18494840704254L92.83420272023194,64.96949501675677L93.09894581179444,72.4137448105041L93.35388360366943,77.02723672974008L93.60882139554444,66.11263206833415L93.88336978679443,73.43092989336662L94.13830757866944,77.93458664867478L94.39324537054443,60.18663220164712L94.67759906148194,63.37571732219393L94.94234215304444,51.70153384130302L95.22669584398193,65.32969417755996L95.48163363585692,73.59006560649007L95.73657142773193,78.70728363218687L95.99150921960693,75.08694339956332L96.25625231116943,66.13681399308055L96.53080070241944,67.74548803168209L96.79554379398193,61.94025768932201L97.07009218523194,58.562458877294546L97.34464057648192,63.4610517919412L97.60938366804444,52.83126549998214L97.89373735898194,60.14096911185553L98.15848045054443,50.990088761096985L98.44283414148192,59.23175840654278L98.70757723304445,57.4859373112811L98.98212562429443,49.7486340015121L99.26647931523193,45.230469496995994L99.55083300616943,49.40464059793604L99.82538139741943,45.17611038842148L100.10973508835693,63.08239256347691L100.36467288023194,73.90378303266473L100.61961067210693,60.14665415059986L100.90396436304444,58.84352836810833L101.17851275429443,71.68466488744033L101.43345054616944,79.4695660199817L101.68838833804443,77.48475758361006L101.95313142960693,76.43399888333184L102.21787452116943,69.19611165531849L102.49242291241943,71.75285652798229L102.75716600398194,73.461040738345L103.02190909554443,61.107831433715965L103.30626278648192,60.479668310370045L103.58081117773193,60.1723443726748L103.85535956898194,73.47800559925365L104.11029736085693,74.83365824701505L104.37504045241943,75.7237431224023L104.63978354398192,83.09452987273556L104.89472133585694,87.66127842714101L105.14965912773194,70.3214021518062L105.43401281866944,66.71927340906247L105.70856120991942,71.23697595591358L105.97330430148193,80.78941132921011L106.22824209335694,79.95602168386068L106.49298518491943,86.20498025842491L106.74792297679443,90.05063533879262L107.00286076866944,92.47952971808056L107.25779856054443,80.6964097835528L107.53234695179444,80.3207179345909L107.79709004335695,73.44459798840487L108.07163843460692,76.14149062695267L108.33638152616942,64.45747423452435L108.62073521710694,77.52572451964886L108.87567300898193,65.49592659514539L109.16002669991944,71.70769017407807L109.42476979148194,68.84182494240518L109.69931818273194,67.14832011227479L109.97386657398192,72.9194718668426L110.23860966554443,76.51840906644527L110.50335275710692,78.77850513347187L110.76809584866943,73.59613110520077L111.04264423991943,77.20789646828484L111.30738733148193,72.81565521085415L111.58193572273193,83.53491281216489L111.83687351460692,90.09545920540641L112.09181130648194,94.1185351452597L112.34674909835694,83.45308802039611L112.62129748960693,77.12025576904679L112.89584588085694,73.41538549098506L113.17039427210693,71.29650368914271L113.44494266335693,63.59056398806289L113.72929635429443,72.2355798507165L113.99403944585694,84.18133287828542L114.24897723773194,84.87447779159751L114.51372032929443,91.98360010341679L114.76865812116942,89.73658864890015L115.03340121273193,88.5046195116878L115.29814430429444,87.8728018825834L115.56288739585695,80.99860307709193L115.83743578710693,83.5444933729951L116.10217887866943,85.16850993214962L116.36692197023193,86.30131697919343L116.63166506179442,80.59458960200513L116.90621345304443,77.28888285301872L117.18076184429444,68.81679510607127L117.46511553523193,76.8995495095896L117.72985862679444,88.35484588669317L117.98479641866943,82.27252674305942L118.25934480991944,78.74487277492723L118.53389320116943,70.18990765288102L118.81824689210694,71.67382493722594L119.09279528335693,79.16155249850124L119.35753837491944,83.86783702980084L119.62228146648194,86.79849922784226L119.88702455804444,88.67153158479583L120.15176764960694,89.9635329997192L120.41651074116943,77.93827676110294L120.70086443210693,77.43769956252062L120.97541282335693,90.15969112880279L121.23035061523193,97.86868521887556L121.48528840710694,89.59663608877766L121.75983679835694,84.77446084968791L122.03438518960692,94.89782510412904L122.28932298148194,94.6079204260406L122.55406607304444,81.5813569498817L122.83841976398193,86.77576182509853L123.10316285554443,83.58076319470155L123.37771124679443,81.79849181844949L123.65225963804444,87.26875846658741L123.91700272960693,84.31070659110378L124.19155112085694,89.10128306159544L124.45629421241944,98.49835417816158L124.71123200429443,97.88194383691535L124.97597509585694,104.09221630274689L125.23091288773193,95.15433754652369L125.50546127898193,102.75881538872851L125.76039907085692,88.23535027783291L126.04475276179444,92.40785219432526L126.30949585335694,101.42819077447305L126.56443364523193,94.14288061757593L126.83898203648194,89.91332235935967L127.11353042773193,93.86060707428335L127.37827351929444,96.26698713663033L127.64301661085693,97.79292389082617L127.90775970241944,105.15686289019276L128.16269749429443,103.2609529365008L128.4274405858569,95.83295475502634L128.70198897710694,97.76030680474109L128.96673206866944,92.5783367387288L129.24128045991944,95.9033435566304L129.50602355148195,97.96540787938919L129.77076664304442,93.01684196673034L130.04531503429445,83.81180940241548L130.32966872523193,97.4238661260455L130.58460651710695,99.37415271345527L130.84934960866943,106.96368435512231L131.10428740054442,98.89784860926363L131.37883579179444,106.78028894873725L131.63377358366944,98.96289340011973L131.90832197491943,94.3491662281782L132.18287036616945,104.2908936579813L132.43780815804445,103.99711009151797L132.70255124960693,110.20936036938227L132.95748904148192,101.36616460373553L133.23203743273194,96.09395440059193L133.50658582398194,93.01137048510512L133.78113421523193,84.9339743469357L134.06548790616944,92.74432458534913L134.33023099773192,84.90962180297447L134.61458468866945,86.61530450282172L134.88913307991942,94.02807806540338L135.15387617148193,98.61559863651915L135.41861926304443,101.4959893587347L135.68336235460694,103.2521613377801L135.94810544616945,98.07137175987341L136.22265383741941,95.06921589543803L136.49720222866944,93.37967255964122L136.77175061991943,86.20924366197002L137.05610431085694,94.60347052793722L137.32084740241942,93.518512481946L137.59539579366944,92.98887028043242L137.86994418491943,99.02162988487099L138.13468727648194,102.7347482098937L138.39943036804442,111.32399499036865L138.65436815991941,110.34444199003092L138.91911125148192,103.61702962674349L139.19365964273194,112.16280252618206L139.44859743460694,111.1586835420984L139.71334052616945,110.65696276941193L139.97808361773193,104.19674744630959L140.25263200898192,100.47456155236335L140.52718040023194,110.75993603560052L140.78211819210694,104.61257569007982L141.05666658335693,113.49703354394242L141.31160437523195,118.9552154848363L141.56654216710695,116.17606186678871L141.83128525866942,102.29002671731875L142.11563894960693,106.39444307449816L142.38038204116944,102.70386531532844L142.65493043241943,112.90785895363472L142.90986822429443,106.75582019604624L143.18441661554442,115.51674571453736L143.43935440741944,108.5683894098763L143.71390279866944,104.58473179542692L143.98845118991943,102.28428827942017L144.26299958116942,101.04927716294162L144.53754797241945,106.66370786300133L144.80229106398193,116.25213110307502L145.05722885585692,122.12346411294997L145.31216664773194,113.44283690699788L145.58671503898194,120.6348506667021L145.84165283085693,118.86316614962448L146.10639592241944,124.04659251773539L146.36133371429443,121.14830460728055L146.62607680585694,119.52573830149146L146.89081989741942,118.6837884072606L147.15556298898193,118.3172939693854L147.42030608054444,124.25610779218937L147.67524387241943,121.82655634278281L147.93998696398194,126.61204028625981L148.19492475585693,123.45518095564364L148.45966784741944,121.66896906645287L148.72441093898192,120.73345433880316L148.98915403054443,120.25020529933202L149.25389712210693,126.23984348379673L149.50883491398193,129.99737145408955L149.76377270585692,132.4323013485165L150.01871049773194,115.7782408515647L150.30306418866945,105.85143079302875L150.58741787960693,118.14141322480188L150.84235567148193,125.61288042489703L151.09729346335692,130.19067417019502L151.35223125523194,120.83583808766522L151.6267796464819,127.41298514461815L151.88171743835696,125.36619744872034L152.14646052991944,124.21878268508789L152.41120362148195,129.59262941281926L152.66614141335694,132.8551997403302L152.92107920523193,128.89001598601612L153.18582229679444,126.55753579161568L153.45056538835692,125.18058666113286L153.71530847991946,124.46591430822839L153.98005157148194,124.20225620748515L154.24479466304444,124.08544468015617L154.50953775460692,118.0954154452105L154.78408614585692,120.62056394100493L155.04882923741945,122.15333332103627L155.31357232898193,110.98644675162319L155.5979260199194,116.36989379964992L155.86266911148195,125.64712477711399L156.11760690335694,131.2772169778806L156.37254469523194,128.6954143800554L156.63728778679445,133.26215849939524L156.89222557866944,130.04592359842152L157.15696867023192,134.133282177943L157.41190646210694,130.65575080142554L157.67664955366942,128.5936773280167L157.94139264523196,127.4322661352721L158.20613573679444,120.82927716894889L158.48068412804443,116.90628593598291L158.75523251929442,114.62327980841637L159.02978091054445,119.36218245949341L159.29452400210693,110.3631931907431L159.57887769304443,117.01119139962577L159.84362078460694,121.03074524394121L160.10836387616945,111.61359247853478L160.39271756710693,118.00181870714921L160.6574606586694,121.94137599560165L160.92220375023194,130.44053956610549L161.17714154210694,123.71719227491829L161.45168993335693,131.66329612183895L161.70662772523193,136.48239658028635L161.96156551710692,127.54353779097627L162.2361139083569,134.06724332763335L162.4910517002319,132.0635656614125L162.75579479179444,124.96947238233824L163.03034318304444,120.77864265452874L163.30489157429443,124.24952780054157L163.56963466585694,126.37170455990827L163.83437775741945,115.79760173604691L164.11873144835693,121.3824383215171L164.38347453991946,118.82185007406001L164.65802293116943,123.24250392960394L164.92276602273193,131.91582536622292L165.17770381460693,137.1681859477403L165.43264160648192,128.51642786455324L165.70718999773192,123.35088120855566L165.98173838898194,120.32745358825237L166.25628678023193,118.57154962481643L166.53083517148195,129.43870157224515L166.78577296335695,118.318625785792L167.07012665429443,129.49334094895798L167.32506444616942,130.27719862789348L167.58980753773193,130.79385649496615L167.8545506292944,136.98811242917495L168.10948842116946,122.93535781383065L168.39384211210694,132.22015794831452L168.64877990398193,137.7788912699979L168.90371769585693,135.19754617368517L169.16846078741943,133.64696771354238L169.4332038789819,120.95007205786504L169.71755756991942,113.37627033483427L170.00191126085696,120.6683480039005L170.26665435241944,113.26888070441605L170.55100804335692,108.78513458232773L170.83536173429445,106.07460856973252L171.11971542523193,110.40907875788469L171.39426381648195,113.04026273228247L171.66881220773195,120.57319628866692L171.93355529929443,113.29534925494495L172.21790899023193,120.77254085048011L172.48265208179444,125.25440199616526L172.74739517335692,122.10661295923992L173.02194356460691,132.0402788556155L173.27688135648194,120.26944937894186L173.56123504741944,130.92407941657305L173.81617283929444,125.44054939553291L174.09072123054443,128.03570482679123L174.3554643221069,129.61282336740913L174.62020741366945,136.49017133941786L174.87514520554444,128.83262118845474L175.14969359679444,124.2099679766759L175.42424198804443,133.29392409876112L175.67917977991942,121.06490935379179L175.96353347085693,125.55765086620241L176.22827656241944,134.19091837475167L176.48321435429443,127.48675979540093L176.75776274554445,117.5385863597111L177.04211643648193,123.40772805104405L177.30685952804444,126.96459050145168L177.57160261960692,129.06979193706013L177.83634571116946,130.3457681183743L178.10108880273194,131.1758497433903L178.36583189429444,137.63470138460784L178.62076968616944,141.59568076133502L178.87570747804443,132.18657179184495L179.15025586929443,132.54150413662205L179.41499896085693,126.884002397395L179.68954735210693,129.3287858185007L179.95429044366944,130.8553099542875L180.21903353523192,131.7257247009791L180.48377662679445,138.15828281282984L180.73871441866945,142.03003192094178L180.99365221054444,144.40657773693562L181.24859000241943,139.90444819814707L181.51333309398194,131.34033479415723L181.78788148523194,126.23262167074915L182.06242987648196,129.0417784310259L182.32717296804444,136.6009558985218L182.58211075991943,123.46530676412577L182.86646445085694,133.30141615809325L183.12140224273193,121.55677642404865L183.40575593366944,126.27655803371215L183.67049902523195,134.956399770942L183.92543681710694,140.1642204607868L184.18037460898194,125.65227429997842L184.46472829991944,128.6775599053723L184.72947139148195,136.398519238814L184.98440918335695,135.2272890328366L185.24915227491942,134.57738931093073L185.51389536648193,140.0860843565773L185.76883315835693,131.64967053083652L186.04338154960695,132.432404036601L186.30812464116943,138.80911426816027L186.56306243304445,130.846170934837L186.83761082429442,126.00451635656596L187.1121592155444,134.88145808393716L187.36709700741946,122.53800272084081L187.65145069835694,115.14046597528521L187.93580438929445,122.49997285797001L188.20054748085695,132.7422579667613L188.45548527273195,133.03154155076777L188.72022836429443,139.1532446229153L188.97516615616942,136.95690190252088L189.23990924773193,135.74954742475492L189.5046523392944,129.18908940918863L189.77920073054443,137.1239434003911L190.03413852241943,136.06848146759776L190.29888161398193,135.4163093494664L190.56362470554444,129.18060985286345L190.8381730967944,131.3338435960173L191.10291618835694,126.75540704830941L191.37746457960694,123.99392084336381L191.65201297085693,122.29223794655816L191.92656136210695,133.01965787254767L192.18149915398195,139.54786847014012L192.43643694585694,137.63456982181305L192.70118003741942,130.68561907054277L192.9757284286694,126.58882550484743L193.25027681991943,129.95522153228316L193.51501991148194,126.1131344749534L193.78956830273194,129.67201694966604L194.05431139429442,131.82475678907034L194.31905448585695,121.42880604666681L194.60340817679443,126.97963147653034L194.8681512683569,124.51408135777176L195.14269965960693,123.0605800199051L195.41724805085693,122.26338423106162L195.69179644210692,116.02741863593987L195.97615013304443,118.20595030240128L196.25069852429442,125.49870534245596L196.51544161585693,135.75730368156147L196.77037940773195,136.12787237691163L197.03512249929443,142.23516649853022L197.29006029116945,134.32644839959508L197.56460868241942,141.23825971327767L197.81954647429444,145.40742998418193L198.07448426616943,147.9427068849634L198.32942205804443,143.67882721385635L198.59416514960694,135.36917772635928L198.86871354085693,136.38673809759075L199.13345663241944,137.04700855026385L199.39819972398192,125.8018182125413L199.68255341491945,130.6911810451328L199.94729650648193,133.65207834095753L200.21203959804444,129.6238492939887L200.48658798929443,133.12417177507493L200.75133108085694,141.0505919624361L201.00626887273194,139.9868812230986L201.27101196429444,139.42102921857952L201.53575505585692,139.13563857544375L201.80049814741943,139.0108655427641L202.0652412389819,138.96086883812347L202.32998433054445,138.9789517364085L202.59472742210693,139.0533863846815L202.85947051366944,133.34134379975237L203.13401890491943,135.74466379515127L203.3987619964819,125.59933939014678L203.68311568741944,131.1175463239094L203.94785877898192,134.41271343845514L204.21260187054443,124.87320156465874L204.49695556148194,119.09280956501486L204.78130925241942,127.28325297663852L205.04605234398196,132.18704244396912L205.31079543554443,140.97162040826262L205.56573322741943,146.29287745970956L205.82067101929445,137.90312338044083L206.09521941054442,138.71366715860378L206.35996250210692,133.44317195811823L206.63451089335695,136.0720108994049L206.89925398491943,143.4387464053943L207.15419177679445,142.1368544327526L207.41893486835693,141.36364838351935L207.68367795991944,146.70164106417616L207.93861575179443,149.90350879514614L208.19355354366942,140.28212107582132L208.46810193491945,140.32652316717096L208.73284502648193,140.35365366644075L208.99758811804443,146.19008528520857L209.25252590991943,143.90106125237048L209.51726900148194,136.8092732316413L209.79181739273193,144.1702810215961L210.04675518460695,137.0144996846047L210.32130357585692,132.80403373562433L210.5958519671069,130.2609005381139L210.87040035835693,140.3196040010749L211.12533815023193,146.37496945420475L211.38027594210695,144.24210535495652L211.64501903366943,137.22338067456798L211.91956742491942,138.79341268621974L212.18431051648196,145.51055785159764L212.43924830835695,138.02615604514335L212.71379669960695,127.78653827574624L212.99815039054445,121.65150653239358L213.28250408148193,123.69893277508494L213.55705247273193,130.76019471387136L213.8217955642944,140.77416977735913L214.07673335616946,146.7913443452332L214.33167114804445,144.6586276864462L214.59641423960693,149.23640107133477L214.85135203148192,152.03796170478014L215.10628982335695,153.62732501833344L215.36122761523194,137.31839086816876L215.64558130616942,133.32516179906668L215.92012969741944,130.92250989915428L216.19467808866943,129.52113802791894L216.46922647991946,134.43683270358582L216.73396957148194,137.37194332615553L216.99871266304444,133.35749571984223L217.27326105429444,125.25945394215707L217.55761474523194,137.74667311151723L217.81255253710694,139.54516071710157L218.07729562866945,146.43021851031804L218.33223342054444,150.59727170080342L218.58717121241943,153.04415909845554L218.84210900429443,148.76385470747812L219.10685209585694,151.92128311782633L219.36178988773193,142.34037639063945L219.63633827898195,148.07402867966462L219.89127607085695,151.52776706347223L220.14621386273194,153.626075014126L220.40115165460693,137.64477670440112L220.6855053455444,133.74192935074464L220.96005373679444,131.32976973631017L221.23460212804443,129.911592448269L221.50915051929442,134.79024481705636L221.77389361085696,126.25416861244399L222.05824730179444,138.33631508127684L222.31318509366943,139.83072160253465L222.57792818523194,140.64257438922098L222.84267127679442,141.10324998989395L223.10741436835696,141.43647518965267L223.37215745991944,147.38838994378702L223.62709525179443,139.50647782204854L223.90164364304442,140.5515286299682L224.16638673460693,141.17585983494064L224.43112982616944,130.07133266333582L224.71548351710692,129.11921266153507L224.9900319083569,128.502896429137L225.26458029960693,128.099652490933L225.53912869085693,139.35972528922738L225.79406648273192,146.13569302707523L226.04900427460692,138.65593106810886L226.32355266585694,145.75685802835278L226.57849045773193,144.2610144995814L226.84323354929444,143.35530931998886L227.10797664085695,137.09179182034765L227.3825250321069,139.07930077686194L227.64726812366945,140.33787102336973L227.91201121523193,146.83402698145L228.16694900710695,139.23784984591518L228.44149739835694,146.12294727565194L228.69643519023194,138.69498115743735L228.97098358148196,128.5077654789683L229.25533727241944,139.63032059244534L229.51027506429443,140.5330802907889L229.7750181558569,146.82543358617892L230.02995594773193,133.3329623475521L230.31430963866944,131.01926940971813L230.58885802991944,135.45181430417406L230.85360112148192,132.3872147997916L231.12814951273194,142.09803219399097L231.38308730460693,147.94203420807912L231.63802509648195,145.67460848653883L231.90276818804443,144.34472239711567L232.16751127960694,143.56048958834197L232.43225437116942,143.17062462748254L232.69699746273196,137.30779630412687L232.97154585398195,128.0466561481366L233.25589954491943,133.99298657517778L233.52064263648194,137.5870859387524L233.78538572804445,139.7652410181236L234.05012881960693,141.16984799375822L234.31487191116943,136.33331065291856L234.58942030241946,144.98304041657403L234.84435809429445,150.21529070830013L235.09929588616944,153.46176854957818L235.35423367804444,144.02567897197832L235.62878206929443,138.3100396298317L235.90333046054442,134.8989099040515L236.17787885179445,132.9231556447854L236.45242724304444,137.51713102476091L236.71717033460692,146.0755843974306L236.9721081264819,145.581274700231L237.23685121804442,151.09752040471582L237.49178900991942,137.32327304651304L237.77614270085692,140.5075173696594L238.04088579241943,142.43552492961976L238.3056288839819,137.94639778564755L238.58017727523193,135.32111205468968L238.85472566648193,139.47598860218696L239.11946875804443,142.01814264566093L239.3842118496069,143.6143923889446L239.64895494116945,144.61870481110833L239.91369803273193,139.58944745080657L240.18824642398192,147.99409786686707L240.44318421585692,135.98115142079962L240.72753790679445,145.8421780147954L240.98247569866945,146.13224649415977L241.24721879023193,146.34060217597326L241.51196188179443,152.1411887310866L241.76689967366943,150.06240769961042L242.03164276523194,137.49297630530478L242.31599645616944,146.97284079322193L242.57093424804444,141.3291661018233L242.84548263929443,149.30714847446856L243.10042043116943,142.74783588509283L243.37496882241945,144.5125367579722L243.63971191398193,139.95817123957437L243.91426030523192,142.9060850011555L244.17900339679443,138.99897331360236L244.45355178804445,142.30694754750314L244.71829487960693,150.06981038348908L244.97323267148192,143.45170856937224L245.24778106273192,139.542745340342L245.52232945398194,142.86254832179876L245.78707254554445,144.92454390294102L246.05181563710693,146.29275754391588L246.31655872866943,152.8007645545855L246.57149652054443,151.07126085458853L246.8362396121069,155.78143873770458L247.09117740398196,147.33545433206103L247.36572579523192,153.61386447864604L247.62066358710695,146.12619604466323L247.89521197835694,141.6514271013158L248.16976036960693,144.68218944505853L248.43450346116944,152.2105514620228L248.68944125304444,156.76955934326864L248.94437904491943,148.24313019966445L249.21892743616942,148.862921705116L249.48367052773193,154.93970755151383L249.73860831960693,153.03821925686228L250.00335141116943,157.55727734437372L250.25828920304446,160.32588631670663L250.51322699491945,156.3908205090949L250.77797008648193,148.47635028851755L251.05251847773192,143.80628467974427L251.32706686898194,141.0373114917772L251.60161526023194,139.44302155201206L251.87616365148193,149.80751378116253L252.13110144335693,139.17855315293866L252.41545513429443,144.05477784502918L252.68019822585694,135.75572640290306L252.96455191679445,136.41708171549644L253.23910030804444,136.81288267313525L253.51364869929444,142.75427883142686L253.77839179085692,146.3998924737984L254.04313488241945,142.96806871958694L254.31768327366945,140.92915158341057L254.5922316649194,134.12956165155904L254.87658535585695,141.31977314513512L255.14132844741943,151.2737583417257L255.39626623929442,151.7025204833685L255.66100933085693,146.43091047833576L255.93555772210695,143.31670021633036L256.2101061133569,147.08125041912646L256.47484920491945,143.84389262960605L256.74939759616944,147.6193285714629L257.0141406877319,138.77128413408317L257.29849437866943,150.25356352599238L257.55343217054445,151.64264249578324L257.81817526210693,152.558350428933L258.0829183536694,141.94136085667066L258.3672720446069,141.20142610004288L258.6418204358569,140.7788739088161L258.9163688271069,134.9793854889587L259.2007225180444,142.67449140701115L259.46546560960695,141.73859659579364L259.74001400085695,141.2221545518766L260.01456239210694,146.57625556850053L260.2793054836694,144.2544840698951L260.5538538749194,142.89700105232316L260.82840226616946,147.70578584208067L261.09314535773194,145.1245259183208L261.36769374898194,149.1480450470347L261.6324368405444,157.17815993965814L261.88737463241944,156.54758080615593L262.152117723982,161.7621578993364L262.40705551585694,164.9541179135769L262.66199330773196,166.920428403441L262.9169310996069,162.54300496965809L263.18167419116946,154.4338581740952L263.4562225824194,155.16645704261717L263.72096567398194,144.57770393328838" fill="none"></path></g></g></g></g><g opacity="0.2"><g><g><g><path style="fill: none;" stroke="rgb(187, 187, 187)" stroke-width="2px" d="M30.472496707731935,-1.4481636016134871L30.737239799294436,17.953711161044794L30.992177591169433,-1.8909298379176107L31.25692068273193,17.703479490251084L31.511858474606935,17.612884912657137L31.766796266481933,17.617482123531317L32.021734058356934,-2.11644622823178L33.119927623356936,-41.38324876444403L33.40428131429444,18.159699949205333L33.65921910616943,-41.005349595337066L33.94357279710693,18.00406959942802L34.19851058898193,18.037262305464537L34.45344838085693,-1.5374928918108708L34.718191472419434,-21.20849428371821L34.992739863669435,18.14152198694137L35.247677655544436,-21.12123162960188L35.52222604679443,18.325241716922392L35.77716383866944,18.24611907839062L36.03210163054443,18.610057909888837L36.28703942241943,18.534942014779517L36.541977214294434,18.866362960186052L36.796915006169435,18.530724390124306L37.051852798044436,18.661470754435868L37.30679058991943,18.407738455178333L37.56172838179443,18.65193892271509L37.81666617366943,18.336629303491463L38.07160396554444,18.6661101415566L38.326541757419434,18.562778337503914L38.581479549294436,18.69377775929479L38.83641734116944,18.51490829766726L39.09135513304443,18.486101921272166L39.34629292491943,18.502845891153356L39.60123071679443,18.329248460344843L39.85616850866943,18.267080672927023L40.111106300544435,18.593651349980064L40.366044092419436,18.81971603149941L40.62098188429444,19.056915242108516L40.87591967616943,19.16619389692505L41.13085746804443,19.51684721075935L41.38579525991943,19.523426705221482L41.640733051794435,19.78639560247393L41.895670843669436,20.25476282043519L42.15060863554444,20.609338525198837L42.40554642741943,20.934517386115658L42.66048421929443,1.7556284389784196L42.92522731085693,2.0982260897212655L43.18997040241943,21.99643092180486L43.444908194294435,22.523971413678737L43.699845986169436,3.282914679123678L43.96458907773194,23.4177704306112L44.21952686960693,23.819794412745978L44.47446466148193,4.861318530090102L44.73920775304443,5.150984991410041L45.00395084460693,-13.796525067142284L45.278499235856934,6.0217979539716L45.543242327419435,-13.046293993473228L45.817790718669436,26.040036383742518L46.07272851054443,6.925803622569674L46.33747160210693,26.61709178906858L46.59240939398193,7.820235283200418L46.85715248554443,8.191301900365943L47.12189557710693,8.635164719080421L47.386638668669434,-10.188726760827649L47.661187059919435,28.644546137075395L47.916124851794436,28.861289868106724L48.17106264366943,-9.224409059660047L48.44561103491944,10.37105467467245L48.71035412648193,29.972591788508453L48.96529191835694,30.152979595011857L49.22022971023193,30.66668627801664L49.475167502106935,11.784971164085619L49.739910593669435,31.375668982557727L49.99484838554444,12.600153657444935L50.25959147710694,13.142835421831023L50.52433456866943,-5.47451897871133L50.79888295991943,33.44103977621489L51.05382075179443,33.86950826493785L51.308758543669434,-23.155940292015657L51.593112234606934,-3.5863305968196073L51.86766062585693,15.635535945554238L52.13240371741943,35.08650385919918L52.38734150929443,35.3458877754947L52.64227930116944,-2.434581655974398L52.91682769241943,-21.040590646194232L53.20118138335693,17.420223818407067L53.46592447491943,17.743378219489387L53.73066756648193,37.127665487335435L53.985605358356935,-0.6231962190540798L54.260153749606935,-0.1352170464460869L54.53470214085693,38.12589289073094L54.78963993273194,38.35448814704341L55.04457772460694,19.75906539470816L55.30932081616944,20.126504854670202L55.57406390773193,39.396705375592774L55.82900169960693,39.83576010220031L56.083939491481935,21.321990563189956L56.34868258304443,21.58462205046999L56.61342567460693,3.2797936368788214L56.88797406585694,41.23453531910127L57.14291185773194,22.68002352592157L57.40765494929444,42.006655864730874L57.66259274116943,42.34482500958575L57.917530533044435,23.81861347784252L58.182273624606935,24.156656093957736L58.44701671616943,42.882276919399374L58.70195450804443,24.45479998083465L58.96669759960693,24.69064955155409L59.23144069116943,6.319773135862306L59.50598908241943,25.330167978023837L59.77073217398193,44.424577903317186L60.025669965856935,26.013718405893997L60.290413057419435,26.559647741264598L60.555156148981936,-10.349418260191214L60.83950983991944,27.341721881080502L61.10425293148194,27.606588709427797L61.36899602304443,46.637818617386074L61.62393381491944,47.110445636249096L61.87887160679443,28.749185404771197L62.14361469835693,29.282124456203746L62.40835778991943,48.1345692550276L62.66329558179443,11.543469976328197L62.93784397304444,49.05004686268785L63.19278176491943,30.980561904857495L63.45752485648193,31.32691324154348L63.72226794804444,13.17543766041581L63.99681633929443,13.695723837882724L64.27136473054443,14.05763820954644L64.54591312179443,51.40280660035114L64.80085091366944,33.39270579766617L65.06559400523193,52.14506636342185L65.32053179710694,34.20168838278232L65.58527488866943,-2.409360260536232L65.86962857960694,16.323219645586505L66.14417697085693,35.070392533016275L66.40892006241943,35.4832979867615L66.67366315398193,17.577203808074046L66.94821154523193,17.985638579684746L67.22275993648194,54.92494494991843L67.47769772835693,36.95782174247006L67.74244081991944,37.207378593318936L68.00718391148193,37.55575438983942L68.27192700304442,1.4846038786345161L68.55628069398193,38.355753434439976L68.82102378554443,38.59417575619909L69.08576687710693,20.702548030079015L69.36031526835693,57.51945893281845L69.61525306023194,57.77724015174499L69.87019085210693,58.13468384127418L70.12512864398194,58.484198396451575L70.38006643585693,58.81528193188569L70.63500422773194,22.87648048236133L70.90955261898193,59.36694723678738L71.16449041085694,59.645732226496875L71.41942820273194,41.8448256067104L71.68417129429444,60.17285095590523L71.93910908616944,42.23668511342612L72.20385217773193,42.64811439854202L72.46859526929443,61.05935348218418L72.72353306116943,61.43965669734462L72.97847085304444,43.70344843976909L73.24321394460694,26.08309833147223L73.51776233585693,44.321161746771395L73.78250542741944,26.693219914095152L74.05705381866943,44.87320663789205L74.32179691023194,45.1789844253949L74.58654000179443,45.39092006431929L74.85128309335694,45.53781993106031L75.11602618491943,27.684193003083692L75.39057457616944,45.918587084932824L75.65531766773194,28.118945752542913L75.92986605898193,46.307578606883L76.19460915054442,46.47577747813284L76.45935224210693,28.84669688679969L76.73390063335692,11.06696274278238L77.01825432429445,11.463588165358487L77.30260801523193,47.42212809826924L77.56735110679443,29.76192143698063L77.84189949804444,47.72200121125479L78.10664258960693,48.07792655590811L78.37138568116943,48.40179795318181L78.63612877273194,66.67149355339507L78.89106656460693,49.211328829503145L79.15580965616942,49.512382877392156L79.42055274773195,67.72821941075836L79.67549053960694,68.20400964811279L79.93042833148193,50.88555711263598L80.19517142304443,33.67267172227912L80.46971981429444,51.806517632348005L80.73446290585693,69.9834254901466L80.98940069773192,52.821826415597116L81.25414378929443,52.927815323182585L81.51888688085694,35.69536015442554L81.79343527210693,71.46528791275523L82.04837306398194,71.80071560158422L82.30331085585694,72.16777547532729L82.55824864773193,37.3451683908047L82.83279703898194,72.77072709603635L83.08773483085693,73.38017385871444L83.34267262273194,73.63415921545129L83.59761041460693,73.92724195274195L83.85254820648193,74.17878108717878L84.10748599835694,56.87745210780213L84.37222908991943,57.04286734677953L84.63697218148194,39.778653464368745L84.91152057273194,22.42578511170541L85.19587426366942,40.0506902546299L85.47042265491943,75.32513146846532L85.72536044679443,75.5878051319919L85.98029823866943,40.960727126484926L86.25484662991943,41.15203858084533L86.52939502116944,58.82894703576858L86.79413811273193,59.165007368295846L87.05888120429442,76.95549645518395L87.31381899616945,59.80676113583286L87.57856208773194,77.65511603299046L87.83349987960693,77.93453366639824L88.08843767148193,78.15541066959167L88.34337546335694,43.86468823033783L88.61792385460693,78.96325449605092L88.87286164648194,79.32415663779739L89.12779943835693,62.13649264287869L89.39254252991942,27.662556588602456L89.67689622085695,45.35701036209139L89.95144461210693,80.37265812708301L90.20638240398193,80.85304557531163L90.46132019585693,81.33157726869194L90.71625798773192,81.77619925984436L90.97119577960694,30.23429539836434L91.25554947054442,65.00392911721747L91.52029256210693,65.27596590747862L91.78503565366942,82.66713029201128L92.03997344554443,65.64146526009927L92.30471653710694,83.09209815227041L92.55965432898194,48.78977724521474L92.83420272023194,66.1463149313281L93.09894581179444,83.58011950112495L93.35388360366943,83.9474746085939L93.60882139554444,49.74072507622532L93.88336978679443,84.40837663091543L94.13830757866944,84.69007178163702L94.39324537054443,33.5647005311057L94.67759906148194,68.1593450030141L94.94234215304444,34.1902586199667L95.22669584398193,85.77193468194537L95.48163363585692,85.98062274988524L95.73657142773193,86.3831106707321L95.99150921960693,69.65643305062804L96.25625231116943,52.711619883356434L96.53080070241944,70.15849908958444L96.79554379398193,53.232412175781974L97.07009218523194,53.49576065925339L97.34464057648192,70.80894116391119L97.60938366804444,36.886586062043534L97.89373735898194,71.10552452966567L98.15848045054443,37.263768234959116L98.44283414148192,71.5942628747116L98.70757723304445,54.86720566838858L98.98212562429443,38.14267903685868L99.26647931523193,38.45322274022192L99.55083300616943,55.66589724934602L99.82538139741943,38.833315074149596L100.10973508835693,89.94181582606006L100.36467288023194,90.13586873644635L100.61961067210693,39.51096082750246L100.90396436304444,56.8888396943712L101.17851275429443,90.94636966643839L101.43345054616944,91.1469177187937L101.68838833804443,74.50754492905253L101.95313142960693,74.85786083291441L102.21787452116943,58.3392808132985L102.49242291241943,75.58797383697811L102.75716600398194,76.02331705388906L103.02190909554443,42.5780174767724L103.30626278648192,59.53742362535104L103.58081117773193,59.71135846613197L103.85535956898194,93.43649743912192L104.11029736085693,76.86713721865726L104.37504045241943,77.05887043548319L104.63978354398192,94.15070999823547L104.89472133585694,94.51140125874917L105.14965912773194,44.311587738804064L105.43401281866944,61.316080294946914L105.70856120991942,78.01352977619035L105.97330430148193,95.11806438915482L106.22824209335694,78.70593721583646L106.49298518491943,95.57841812027118L106.74792297679443,95.81911795934411L107.00286076866944,96.12287128701246L107.25779856054443,63.021729881761075L107.53234695179444,79.75718016114797L107.79709004335695,63.13041806912588L108.07163843460692,80.18682958477439L108.33638152616942,46.93144964588191L108.62073521710694,97.12809994733561L108.87567300898193,47.4512297083902L109.16002669991944,81.02533554247702L109.42476979148194,64.54302709489593L109.69931818273194,64.6080628670793L109.97386657398192,81.57619949869422L110.23860966554443,81.91681486584912L110.50335275710692,82.16864923401181L110.76809584866943,65.82257006279406L111.04264423991943,82.62554451291089L111.30738733148193,66.22729332470817L111.58193572273193,99.61379921413118L111.83687351460692,99.93627879526866L112.09181130648194,100.15314905503965L112.34674909835694,67.45491733310064L112.62129748960693,67.62100739202288L112.89584588085694,67.85808007389232L113.17039427210693,68.11818098637923L113.44494266335693,52.031654436443205L113.72929635429443,85.20310364469697L113.99403944585694,102.09996241963881L114.24897723773194,85.91419516156566L114.51372032929443,102.64728357114564L114.76865812116942,86.36607146712504L115.03340121273193,86.65666580586912L115.29814430429444,86.9250754389268L115.56288739585695,70.68730486885488L115.83743578710693,87.36332881684984L116.10217887866943,87.6045347708814L116.36692197023193,88.00052754975923L116.63166506179442,72.0344985362226L116.90621345304443,72.33032272953915L117.18076184429444,56.10866348565014L117.46511553523193,89.02368111486703L117.72985862679444,105.53779045234842L117.98479641866943,73.14904802760884L118.25934480991944,73.45339182272892L118.53389320116943,57.35745996981177L118.81824689210694,73.89970086374342L119.09279528335693,90.39314384041427L119.35753837491944,90.92726382675028L119.62228146648194,91.19449252490449L119.88702455804444,91.48108012022612L120.15176764960694,91.90153512210418L120.41651074116943,59.90039240317856L120.70086443210693,76.68683376464696L120.97541282335693,109.24267847822603L121.23035061523193,109.43217635398469L121.48528840710694,77.18856239363095L121.75983679835694,77.5411979910532L122.03438518960692,110.08287148579075L122.28932298148194,94.17306340890809L122.55406607304444,62.041511735643326L122.83841976398193,94.56736913792383L123.10316285554443,78.78826524910619L123.37771124679443,79.1250847540714L123.65225963804444,95.47415843879435L123.91700272960693,79.87362877787837L124.19155112085694,96.28714776733295L124.45629421241944,112.59396085301069L124.71123200429443,96.95732832504609L124.97597509585694,113.40762500149413L125.23091288773193,81.74751941218892L125.50546127898193,114.16553215203567L125.76039907085692,66.45015261148956L126.04475276179444,98.66660506906373L126.30949585335694,114.95869864469478L126.56443364523193,83.21491538223017L126.83898203648194,83.5689849720352L127.11353042773193,99.78153414666895L127.37827351929444,99.87655723015087L127.64301661085693,100.08182902212002L127.90775970241944,116.20277138924257L128.16269749429443,100.4170880059628L128.4274405858569,84.69095748281461L128.70198897710694,100.65133487931325L128.96673206866944,84.8053816397105L129.24128045991944,100.89085378348273L129.50602355148195,101.05850436352739L129.77076664304442,85.59399309774199L130.04531503429445,70.00426055594335L130.32966872523193,117.8419512114906L130.58460651710695,102.29958259456998L130.84934960866943,118.3479818176229L131.10428740054442,86.79909499047562L131.37883579179444,118.60394945794769L131.63377358366944,87.2368000771935L131.90832197491943,87.42857547026597L132.18287036616945,119.20348480268603L132.43780815804445,103.55643474182307L132.70255124960693,119.52773578617871L132.95748904148192,88.10137095526534L133.23203743273194,88.18563909587647L133.50658582398194,88.3874946118749L133.78113421523193,72.81788013968162L134.06548790616944,104.45984994296941L134.33023099773192,73.15756762941237L134.61458468866945,89.17382855259257L134.88913307991942,105.14723840927581L135.15387617148193,105.49687949319286L135.41861926304443,105.81657544205791L135.68336235460694,105.88641930634822L135.94810544616945,90.3001873930134L136.22265383741941,90.56598209878484L136.49720222866944,90.84535755594607L136.77175061991943,75.45360031546306L137.05610431085694,107.19481082688799L137.32084740241942,91.89107541295925L137.59539579366944,92.19440697816208L137.86994418491943,108.0707692915289L138.13468727648194,108.30442569742763L138.39943036804442,124.20786516108092L138.65436815991941,108.87511248952433L138.91911125148192,93.52591108181241L139.19365964273194,124.98146187533985L139.44859743460694,109.65250506597295L139.71334052616945,109.90438161038219L139.97808361773193,94.50642446165602L140.25263200898192,94.89128271144409L140.52718040023194,126.18799776045626L140.78211819210694,95.39153517179875L141.05666658335693,126.82372032473631L141.31160437523195,127.14248839617721L141.56654216710695,112.00733143971729L141.83128525866942,81.46097399311384L142.11563894960693,112.55106761026718L142.38038204116944,97.16799867657392L142.65493043241943,128.2138494110941L142.90986822429443,97.52776205966347L143.18441661554442,128.6581339922741L143.43935440741944,98.14585495288475L143.71390279866944,98.60924537375286L143.98845118991943,98.83362300541012L144.26299958116942,99.19676048822384L144.53754797241945,115.08535391309078L144.80229106398193,130.6347659631856L145.05722885585692,130.9304636277625L145.31216664773194,100.42189609806974L145.58671503898194,131.42287130625846L145.84165283085693,116.20563937400811L146.10639592241944,131.82173206990183L146.36133371429443,116.80087274159814L146.62607680585694,117.09188884280775L146.89081989741942,117.42086356591426L147.15556298898193,117.76755231257266L147.42030608054444,133.16432852639537L147.67524387241943,118.18222916867308L147.93998696398194,133.79026620147533L148.19492475585693,118.71989195971946L148.45966784741944,118.9896512326668L148.72441093898192,119.3301822473286L148.98915403054443,119.52533174012524L149.25389712210693,135.22430076049386L149.50883491398193,135.6336634095287L149.76377270585692,136.08469619015705L150.01871049773194,90.797150106137L150.30306418866945,90.96121570522473L150.58741787960693,136.57638687246163L150.84235567148193,136.82008122503976L151.09729346335692,137.05736478814197L151.35223125523194,106.80358396387055L151.6267796464819,137.27870573004748L151.88171743835696,122.29601590487346L152.14646052991944,122.49766053963913L152.41120362148195,137.65339950441648L152.66614141335694,137.74905523159669L152.92107920523193,122.94224035454499L153.18582229679444,123.05881550001504L153.45056538835692,123.11516296540867L153.71530847991946,123.39390577887161L153.98005157148194,123.80676905637029L154.24479466304444,123.91022738916263L154.50953775460692,109.11037159279203L154.78408614585692,124.40828668469658L155.04882923741945,124.4524873910832L155.31357232898193,94.2361168975035L155.5979260199194,124.44506437169002L155.86266911148195,139.56297124331013L156.11760690335694,139.72235527903058L156.37254469523194,124.82271048331768L156.63728778679445,140.1122746784049L156.89222557866944,125.22157124696105L157.15696867023192,140.26432004722528L157.41190646210694,125.43945373664928L157.67664955366942,125.5005671179033L157.94139264523196,125.69014934615507L158.20613573679444,110.9247937194641L158.48068412804443,111.02179908653397L158.75523251929442,111.19877061706666L159.02978091054445,126.47053643610889L159.29452400210693,96.86470928761764L159.57887769304443,126.98318871294987L159.84362078460694,127.06007601041438L160.10836387616945,97.48786333042517L160.39271756710693,127.58415805007098L160.6574606586694,127.85071192828036L160.92220375023194,143.18928492186114L161.17714154210694,113.6321713381376L161.45168993335693,143.58245189221998L161.70662772523193,143.71104726795738L161.96156551710692,114.13524960701125L162.2361139083569,143.85280163261905L162.4910517002319,129.05804916208126L162.75579479179444,114.32833246372684L163.03034318304444,114.49239806281457L163.30489157429443,129.45585551956083L163.56963466585694,129.5549696989583L163.83437775741945,99.93644750025487L164.11873144835693,129.75969319972228L164.38347453991946,114.9809677028743L164.65802293116943,129.8734847129199L164.92276602273193,144.92580752115146L165.17770381460693,145.04672682001637L165.43264160648192,115.5387907397726L165.70718999773192,115.6025612245594L165.98173838898194,115.79231215779737L166.25628678023193,115.93769367966252L166.53083517148195,145.73942949338834L166.78577296335695,101.6385121061121L167.07012665429443,146.25541369370694L167.32506444616942,131.45298514629667L167.58980753773193,131.56884329557533L167.8545506292944,146.2794963304882L168.10948842116946,101.85622589081413L168.39384211210694,146.14735815004042L168.64877990398193,146.1169912525229L168.90371769585693,131.32552852921617L169.16846078741943,131.3211000233282L169.4332038789819,101.90472857434906L169.71755756991942,102.01556775028803L170.00191126085696,131.60646450749982L170.26665435241944,102.16967975518946L170.55100804335692,102.05951539919533L170.83536173429445,102.00881955083969L171.11971542523193,116.91078404011296L171.39426381648195,116.98703869387919L171.66881220773195,131.87259662324368L171.93355529929443,102.3785787043621L172.21790899023193,131.9883282437827L172.48265208179444,131.97719371469293L172.74739517335692,117.38492940385186L173.02194356460691,146.94077770017884L173.27688135648194,102.61320516393153L173.56123504741944,146.9060244730199L173.81617283929444,117.21525436397269L174.09072123054443,131.92843797367868L174.3554643221069,131.97850117833605L174.62020741366945,146.80619329743104L174.87514520554444,117.34629596201012L175.14969359679444,117.27598815900774L175.42424198804443,146.919858281889L175.67917977991942,102.7213872363377L175.96353347085693,132.29676313481832L176.22827656241944,147.14081963757553L176.48321435429443,117.4305219263747L176.75776274554445,102.61632620617638L177.04211643648193,132.2114405880434L177.30685952804444,132.29988417706318L177.57160261960692,132.22759409047285L177.83634571116946,132.25973239034556L178.10108880273194,132.4209721809143L178.36583189429444,147.32297884643413L178.62076968616944,147.53714982642578L178.87570747804443,118.07290833760999L179.15025586929443,133.07390265378763L179.41499896085693,118.39774978855439L179.68954735210693,132.99596095015931L179.95429044366944,133.1450961579676L180.21903353523192,133.03134682101654L180.48377662679445,147.80711998060588L180.73871441866945,147.8376555831096L180.99365221054444,147.97139646092637L181.24859000241943,133.1512538899642L181.51333309398194,118.49416468817253L181.78788148523194,118.57105198563704L182.06242987648196,133.25551357144104L182.32717296804444,147.93972209976573L182.58211075991943,103.76183306253188L182.86646445085694,148.0555802490444L183.12140224273193,103.93981682298181L183.40575593366944,133.3562304482075L183.67049902523195,147.97616237678676L183.92543681710694,147.975951495554L184.18037460898194,103.88435505876578L184.46472829991944,133.21548831346308L184.72947139148195,147.97995823897645L184.98440918335695,133.47044372387063L185.24915227491942,133.60253972807186L185.51389536648193,148.34912692504713L185.76883315835693,118.99504979222547L186.04338154960695,133.60650429524776L186.30812464116943,148.3741796154991L186.56306243304445,118.90175593485219L186.83761082429442,118.74203448915932L187.1121592155444,148.196870674994L187.36709700741946,104.02281967619638L187.65145069835694,104.04416085695175L187.93580438929445,133.53923318199713L188.20054748085695,148.1056856299483L188.45548527273195,133.46546692677748L188.72022836429443,148.33579923113666L188.97516615616942,133.66238782192931L189.23990924773193,133.93851570810602L189.5046523392944,119.34840238583911L189.77920073054443,149.02622438719482L190.03413852241943,134.48528856840767L190.29888161398193,134.4380511722693L190.56362470554444,119.82706060795908L190.8381730967944,134.56369421074805L191.10291618835694,119.88775222674758L191.37746457960694,119.85169153594552L191.65201297085693,119.73971360134965L191.92656136210695,149.1107877615318L192.18149915398195,149.34018436652877L192.43643694585694,134.76462184932234L192.70118003741942,120.26219294363727L192.9757284286694,120.44363515630448L193.25027681991943,135.00481557343664L193.51501991148194,120.35000388895878L193.78956830273194,135.01034066173497L194.05431139429442,135.05386654817676L194.31905448585695,105.83487993306153L194.60340817679443,135.30586962132566L194.8681512683569,120.81575617963381L195.14269965960693,120.8803280131051L195.41724805085693,121.0675905477965L195.69179644210692,106.67347024325727L195.97615013304443,121.47374780209338L196.25069852429442,136.43783790253792L196.51544161585693,151.14520119021972L196.77037940773195,136.68372541993676L197.03512249929443,151.39610768095827L197.29006029116945,122.46337125119226L197.56460868241942,151.6059766838016L197.81954647429444,151.66118539053832L198.07448426616943,151.74562223613566L198.32942205804443,137.2830077071958L198.59416514960694,122.90470349511361L198.86871354085693,137.91307865443787L199.13345663241944,138.0374142292735L199.39819972398192,108.93403270595763L199.68255341491945,138.02522529401995L199.94729650648193,138.09342428469472L200.21203959804444,123.58150572353543L200.48658798929443,138.37465549670424L200.75133108085694,152.94022224347782L201.00626887273194,138.39131511409232L201.27101196429444,138.5722512118009L201.53575505585692,138.7075526107401L201.80049814741943,138.82370599374462L202.0652412389819,138.88587378116245L202.32998433054445,139.00607608383598L202.59472742210693,139.1650383570909L202.85947051366944,124.7732799223586L203.13401890491943,139.34964378824952L203.3987619964819,110.38135278264008L203.68311568741944,139.3948567245534L203.94785877898192,139.35546411027372L204.21260187054443,110.56393375396419L204.49695556148194,110.42222156554908L204.78130925241942,139.56891809407398L205.04605234398196,139.54272664496511L205.31079543554443,154.14848735470287L205.56573322741943,154.2747630368799L205.82067101929445,125.31849226153781L206.09521941054442,139.92948282584803L206.35996250210692,125.53742915738985L206.63451089335695,140.01526931133503L206.89925398491943,154.48884966437845L207.15419177679445,140.18401647379005L207.41893486835693,140.20383930966955L207.68367795991944,154.70863008516153L207.93861575179443,154.70631039160116L208.19355354366942,125.85003949683414L208.46810193491945,140.39312630419545L208.73284502648193,140.39434941534546L208.99758811804443,154.94473271336028L209.25252590991943,140.46752520311338L209.51726900148194,126.17159120054748L209.79181739273193,155.21179270652829L210.04675518460695,126.28082767911746L210.32130357585692,126.48833481215388L210.5958519671069,126.44620074184832L210.87040035835693,155.40765919551632L211.12533815023193,155.45801763389954L211.38027594210695,141.04280920608426L211.64501903366943,126.69529365398512L211.91956742491942,141.1484607036973L212.18431051648196,155.58627559966453L212.43924830835695,126.79955333546195L212.71379669960695,112.42711162165051L212.99815039054445,112.44895891736451L213.28250408148193,126.77007213912202L213.55705247273193,141.35208762205093L213.8217955642944,155.79513237259061L214.07673335616946,155.81710619704427L214.33167114804445,141.45955269826572L214.59641423960693,156.10306114866762L214.85135203148192,156.2403026549482L215.10628982335695,156.01136998866332L215.36122761523194,112.85498964292174L215.64558130616942,127.33531819541349L215.92012969741944,127.31853204928575L216.19467808866943,127.419080221066L216.46922647991946,141.81037471708623L216.73396957148194,141.77460926001004L216.99871266304444,127.33582431037212L217.27326105429444,113.1123912756293L217.55761474523194,156.47750186555731L217.81255253710694,142.2428921254782L218.07729562866945,156.75780520014268L218.33223342054444,156.84785148653145L218.58717121241943,156.71449019493366L218.84210900429443,142.3433981210119L219.10685209585694,156.65742573334865L219.36178988773193,127.96901629985905L219.63633827898195,156.67450711320225L219.89127607085695,156.7083746391836L220.14621386273194,156.77353694010662L220.40115165460693,113.67282923981384L220.6855053455444,127.88765832026002L220.96005373679444,127.71153031465838L221.23460212804443,127.78432651620733L221.50915051929442,142.10822337023728L221.77389361085696,113.45005430552555L222.05824730179444,156.4595347845261L222.31318509366943,142.07233138442143L222.57792818523194,141.8603535692505L222.84267127679442,141.79426339090332L223.10741436835696,141.93631298929085L223.37215745991944,156.31626207498857L223.62709525179443,127.68360963944087L223.90164364304442,142.11910484184773L224.16638673460693,142.1123566423994L224.43112982616944,113.41454190592867L224.71548351710692,127.69103265883405L224.9900319083569,127.5784220805399L225.26458029960693,127.49478658362705L225.53912869085693,156.249834486669L225.79406648273192,156.29964463384704L226.04900427460692,127.43628812965926L226.32355266585694,156.40824846871874L226.57849045773193,142.01724920642437L226.84323354929444,141.99675155060004L227.10797664085695,127.69651557088582L227.3825250321069,142.0605642116334L227.64726812366945,142.22572639313148L227.91201121523193,156.57826091857032L228.16694900710695,127.84358414261305L228.44149739835694,156.45059342025706L228.69643519023194,127.55303198011552L228.97098358148196,113.22694196126486L229.25533727241944,156.31415326266097L229.51027506429443,141.8872198383042L229.7750181558569,156.26396352926395L230.02995594773193,113.0942554896119L230.31430963866944,127.5487300029672L230.58885802991944,142.1006316458579L230.85360112148192,127.79031554321773L231.12814951273194,156.6642582852901L231.38308730460693,156.7080372292112L231.63802509648195,142.27346990422848L231.90276818804443,142.3498932629809L232.16751127960694,142.38414037518123L232.43225437116942,142.58582718619346L232.69699746273196,128.51355381909343L232.97154585398195,114.15494591415109L233.25589954491943,142.9124822157396L233.52064263648194,142.97823498411435L233.78538572804445,143.03247363718037L234.05012881960693,143.27675845721024L234.31487191116943,129.07850464165904L234.58942030241946,157.9576350620573L234.84435809429445,158.06366614588933L235.09929588616944,158.33148531149527L235.35423367804444,129.8715446055785L235.62878206929443,129.73658061661172L235.90333046054442,129.7822153153811L236.17787885179445,129.9595242558862L236.45242724304444,144.40809409472422L236.71717033460692,158.91326445643517L236.9721081264819,144.8398101544317L237.23685121804442,159.3718889614429L237.49178900991942,116.66190200920892L237.77614270085692,145.28388385437893L238.04088579241943,145.32753626956037L238.3056288839819,131.21270706968926L238.58017727523193,131.38318345825292L238.85472566648193,145.70830342343288L239.11946875804443,145.83137371087196L239.3842118496069,146.00876700387016L239.64895494116945,146.125173444354L239.91369803273193,132.0455614103539L240.18824642398192,160.6010734909578L240.44318421585692,117.96173175169861L240.72753790679445,160.63371790578913L240.98247569866945,146.5673492132064L241.24721879023193,146.6531356986934L241.51196188179443,160.84206856375658L241.76689967366943,146.94423615239612L242.03164276523194,118.6388292138463L242.31599645616944,161.19263752509778L242.57093424804444,132.86365406472532L242.84548263929443,161.27412203343647L243.10042043116943,132.9088670010292L243.37496882241945,147.15958806729122L243.63971191398193,133.12662296197777L243.91426030523192,147.32795564352728L244.17900339679443,133.1383057822727L244.45355178804445,147.2689088983543L244.71829487960693,161.71410463746815L244.97323267148192,133.524555848197L245.24778106273192,133.6793004967967L245.52232945398194,147.8422527939838L245.78707254554445,148.0175372746544L246.05181563710693,148.34507800537813L246.31655872866943,162.56277507058985L246.57149652054443,148.47700530459315L246.8362396121069,162.8467055623787L247.09117740398196,134.66647772359556L247.36572579523192,163.03147969852353L247.62066358710695,134.89469339368907L247.89521197835694,134.93927368629465L248.16976036960693,149.22833296067256L248.43450346116944,163.5030944874693L248.68944125304444,163.60807116513752L248.94437904491943,135.45348648425806L249.21892743616942,149.79260896329333L249.48367052773193,164.05488632111064L249.73860831960693,150.18598681488493L250.00335141116943,164.33586447564085L250.25828920304446,164.47879977520597L250.51322699491945,150.4882217976774L250.77797008648193,136.60464495765154L251.05251847773192,136.8011862665844L251.32706686898194,136.88385170982656L251.60161526023194,137.05158664236433L251.87616365148193,165.35425212488826L252.13110144335693,123.23511221060289L252.41545513429443,151.3691148831649L252.68019822585694,123.30714923971391L252.96455191679445,137.40911468438662L253.23910030804444,137.4065841095935L253.51364869929444,151.66637306886423L253.77839179085692,151.86831293735577L254.04313488241945,137.82033308826976L254.31768327366945,137.8707758791461L254.5922316649194,123.93017675378178L254.87658535585695,152.10509038549935L255.14132844741943,166.2047361366117L255.39626623929442,152.34566369583263L255.66100933085693,138.52349547078666L255.93555772210695,138.64538482332227L256.2101061133569,152.72807572332067L256.47484920491945,138.98785594532546L256.74939759616944,153.28248248424825L257.0141406877319,125.49921747801363L257.29849437866943,167.4769826138563L257.55343217054445,153.72626095046962L257.81817526210693,153.93191232865775L258.0829183536694,126.01587649827707L258.3672720446069,140.09152396510126L258.6418204358569,140.1450456219759L258.9163688271069,126.28015285917263L259.2007225180444,154.2171502840897L259.46546560960695,140.33475437896732L259.74001400085695,140.44749148600113L260.01456239210694,154.60740709343645L260.2793054836694,140.7718268219869L260.5538538749194,140.86077652596532L260.82840226616946,154.91896302671694L261.09314535773194,141.25263603268104L261.36769374898194,155.1833237401056L261.6324368405444,169.22333227859326L261.88737463241944,155.6017121059026L262.152117723982,169.58402353910697L262.40705551585694,169.74205793493775L262.66199330773196,169.8698941382372L262.9169310996069,155.9768698189837L263.18167419116946,142.27013798075086L263.4562225824194,156.26535534540017L263.72096567398194,128.69457426929512" fill="none"></path></g></g></g></g></g></g><g transform="translate(30, 176)" clip-path="url(#clip_1)"><clipPath id="clip_1"><rect width="299" height="23"></rect></clipPath><g><g><line x1="0" y1="0" x2="0" y2="5" style="visibility: inherit;" fill="rgb(0, 0, 0)" stroke="rgb(204, 204, 204)" stroke-width="1px"></line><line x1="29.923399925231934" y1="0" x2="29.923399925231934" y2="5" style="visibility: inherit;" fill="rgb(0, 0, 0)" stroke="rgb(204, 204, 204)" stroke-width="1px"></line><line x1="59.84679985046387" y1="0" x2="59.84679985046387" y2="5" style="visibility: inherit;" fill="rgb(0, 0, 0)" stroke="rgb(204, 204, 204)" stroke-width="1px"></line><line x1="89.7701997756958" y1="0" x2="89.7701997756958" y2="5" style="visibility: inherit;" fill="rgb(0, 0, 0)" stroke="rgb(204, 204, 204)" stroke-width="1px"></line><line x1="119.69359970092773" y1="0" x2="119.69359970092773" y2="5" style="visibility: inherit;" fill="rgb(0, 0, 0)" stroke="rgb(204, 204, 204)" stroke-width="1px"></line><line x1="149.61699962615967" y1="0" x2="149.61699962615967" y2="5" style="visibility: inherit;" fill="rgb(0, 0, 0)" stroke="rgb(204, 204, 204)" stroke-width="1px"></line><line x1="179.5403995513916" y1="0" x2="179.5403995513916" y2="5" style="visibility: inherit;" fill="rgb(0, 0, 0)" stroke="rgb(204, 204, 204)" stroke-width="1px"></line><line x1="209.46379947662354" y1="0" x2="209.46379947662354" y2="5" style="visibility: inherit;" fill="rgb(0, 0, 0)" stroke="rgb(204, 204, 204)" stroke-width="1px"></line><line x1="239.38719940185547" y1="0" x2="239.38719940185547" y2="5" style="visibility: inherit;" fill="rgb(0, 0, 0)" stroke="rgb(204, 204, 204)" stroke-width="1px"></line><line x1="269.3105993270874" y1="0" x2="269.3105993270874" y2="5" style="visibility: inherit;" fill="rgb(0, 0, 0)" stroke="rgb(204, 204, 204)" stroke-width="1px"></line><line x1="299.23399925231934" y1="0" x2="299.23399925231934" y2="5" style="visibility: inherit;" fill="rgb(0, 0, 0)" stroke="rgb(204, 204, 204)" stroke-width="1px"></line></g><g transform="translate(0, 8)"><text style="text-anchor: middle; visibility: hidden; font-family: Roboto, sans-serif; font-size: 12px; font-weight: 200;" x="0" y="0" dx="0em" dy="0.95em" fill="rgb(33, 33, 33)" stroke="none" stroke-width="1px">-50M</text><text style="text-anchor: middle; visibility: inherit; font-family: Roboto, sans-serif; font-size: 12px; font-weight: 200;" x="29.923399925231934" y="0" dx="0em" dy="0.95em" fill="rgb(33, 33, 33)" stroke="none" stroke-width="1px">0</text><text style="text-anchor: middle; visibility: hidden; font-family: Roboto, sans-serif; font-size: 12px; font-weight: 200;" x="59.84679985046387" y="0" dx="0em" dy="0.95em" fill="rgb(33, 33, 33)" stroke="none" stroke-width="1px">50M</text><text style="text-anchor: middle; visibility: inherit; font-family: Roboto, sans-serif; font-size: 12px; font-weight: 200;" x="89.7701997756958" y="0" dx="0em" dy="0.95em" fill="rgb(33, 33, 33)" stroke="none" stroke-width="1px">100M</text><text style="text-anchor: middle; visibility: hidden; font-family: Roboto, sans-serif; font-size: 12px; font-weight: 200;" x="119.69359970092773" y="0" dx="0em" dy="0.95em" fill="rgb(33, 33, 33)" stroke="none" stroke-width="1px">150M</text><text style="text-anchor: middle; visibility: inherit; font-family: Roboto, sans-serif; font-size: 12px; font-weight: 200;" x="149.61699962615967" y="0" dx="0em" dy="0.95em" fill="rgb(33, 33, 33)" stroke="none" stroke-width="1px">200M</text><text style="text-anchor: middle; visibility: hidden; font-family: Roboto, sans-serif; font-size: 12px; font-weight: 200;" x="179.5403995513916" y="0" dx="0em" dy="0.95em" fill="rgb(33, 33, 33)" stroke="none" stroke-width="1px">250M</text><text style="text-anchor: middle; visibility: inherit; font-family: Roboto, sans-serif; font-size: 12px; font-weight: 200;" x="209.46379947662354" y="0" dx="0em" dy="0.95em" fill="rgb(33, 33, 33)" stroke="none" stroke-width="1px">300M</text><text style="text-anchor: middle; visibility: hidden; font-family: Roboto, sans-serif; font-size: 12px; font-weight: 200;" x="239.38719940185547" y="0" dx="0em" dy="0.95em" fill="rgb(33, 33, 33)" stroke="none" stroke-width="1px">350M</text><text style="text-anchor: middle; visibility: inherit; font-family: Roboto, sans-serif; font-size: 12px; font-weight: 200;" x="269.3105993270874" y="0" dx="0em" dy="0.95em" fill="rgb(33, 33, 33)" stroke="none" stroke-width="1px">400M</text><text style="text-anchor: middle; visibility: hidden; font-family: Roboto, sans-serif; font-size: 12px; font-weight: 200;" x="299.23399925231934" y="0" dx="0em" dy="0.95em" fill="rgb(33, 33, 33)" stroke="none" stroke-width="1px">450M</text></g><line x1="0" y1="0" x2="299.23399925231934" y2="0" fill="rgb(0, 0, 0)" stroke="rgb(204, 204, 204)" stroke-width="1px"></line></g></g></g></g></svg>