<svg viewBox="0 0 330 200" xmlns="http://www.w3.org/2000/svg"><g><g><g><g><g><line x1="82.68100261688232" y1="176.89999961853027" x2="77.68100261688232" y2="176.89999961853027" style="visibility: inherit;" fill="rgb(0, 0, 0)" stroke="rgb(204, 204, 204)" stroke-width="1px"></line><line x1="82.68100261688232" y1="157.24444410536023" x2="77.68100261688232" y2="157.24444410536023" style="visibility: inherit;" fill="rgb(0, 0, 0)" stroke="rgb(204, 204, 204)" stroke-width="1px"></line><line x1="82.68100261688232" y1="137.5888885921902" x2="77.68100261688232" y2="137.5888885921902" style="visibility: inherit;" fill="rgb(0, 0, 0)" stroke="rgb(204, 204, 204)" stroke-width="1px"></line><line x1="82.68100261688232" y1="117.93333307902013" x2="77.68100261688232" y2="117.93333307902013" style="visibility: inherit;" fill="rgb(0, 0, 0)" stroke="rgb(204, 204, 204)" stroke-width="1px"></line><line x1="82.68100261688232" y1="98.27777756585016" x2="77.68100261688232" y2="98.27777756585016" style="visibility: inherit;" fill="rgb(0, 0, 0)" stroke="rgb(204, 204, 204)" stroke-width="1px"></line><line x1="82.68100261688232" y1="78.62222205268012" x2="77.68100261688232" y2="78.62222205268012" style="visibility: inherit;" fill="rgb(0, 0, 0)" stroke="rgb(204, 204, 204)" stroke-width="1px"></line><line x1="82.68100261688232" y1="58.96666653951008" x2="77.68100261688232" y2="58.96666653951008" style="visibility: inherit;" fill="rgb(0, 0, 0)" stroke="rgb(204, 204, 204)" stroke-width="1px"></line><line x1="82.68100261688232" y1="39.31111102634002" x2="77.68100261688232" y2="39.31111102634002" style="visibility: inherit;" fill="rgb(0, 0, 0)" stroke="rgb(204, 204, 204)" stroke-width="1px"></line><line x1="82.68100261688232" y1="19.65555551317004" x2="77.68100261688232" y2="19.65555551317004" style="visibility: inherit;" fill="rgb(0, 0, 0)" stroke="rgb(204, 204, 204)" stroke-width="1px"></line><line x1="82.68100261688232" y1="0" x2="77.68100261688232" y2="0" style="visibility: inherit;" fill="rgb(0, 0, 0)" stroke="rgb(204, 204, 204)" stroke-width="1px"></line></g><g transform="translate(72.68100261688232, 0)"><text style="text-anchor: end; visibility: hidden; font-family: Roboto, sans-serif; font-size: 12px; font-weight: 200;" x="0" y="176.89999961853027" dx="0em" dy="0.3em" fill="rgb(33, 33, 33)" stroke="none" stroke-width="1px">-0.0165</text><text style="text-anchor: end; visibility: inherit; font-family: Roboto, sans-serif; font-size: 12px; font-weight: 200;" x="0" y="157.24444410536023" dx="0em" dy="0.3em" fill="rgb(33, 33, 33)" stroke="none" stroke-width="1px">-0.016</text><text style="text-anchor: end; visibility: hidden; font-family: Roboto, sans-serif; font-size: 12px; font-weight: 200;" x="0" y="137.5888885921902" dx="0em" dy="0.3em" fill="rgb(33, 33, 33)" stroke="none" stroke-width="1px">-0.0155</text><text style="text-anchor: end; visibility: inherit; font-family: Roboto, sans-serif; font-size: 12px; font-weight: 200;" x="0" y="117.93333307902013" dx="0em" dy="0.3em" fill="rgb(33, 33, 33)" stroke="none" stroke-width="1px">-0.015</text><text style="text-anchor: end; visibility: hidden; font-family: Roboto, sans-serif; font-size: 12px; font-weight: 200;" x="0" y="98.27777756585016" dx="0em" dy="0.3em" fill="rgb(33, 33, 33)" stroke="none" stroke-width="1px">-0.0145</text><text style="text-anchor: end; visibility: inherit; font-family: Roboto, sans-serif; font-size: 12px; font-weight: 200;" x="0" y="78.62222205268012" dx="0em" dy="0.3em" fill="rgb(33, 33, 33)" stroke="none" stroke-width="1px">-0.014</text><text style="text-anchor: end; visibility: hidden; font-family: Roboto, sans-serif; font-size: 12px; font-weight: 200;" x="0" y="58.96666653951008" dx="0em" dy="0.3em" fill="rgb(33, 33, 33)" stroke="none" stroke-width="1px">-0.0135</text><text style="text-anchor: end; visibility: inherit; font-family: Roboto, sans-serif; font-size: 12px; font-weight: 200;" x="0" y="39.31111102634002" dx="0em" dy="0.3em" fill="rgb(33, 33, 33)" stroke="none" stroke-width="1px">-0.013</text><text style="text-anchor: end; visibility: hidden; font-family: Roboto, sans-serif; font-size: 12px; font-weight: 200;" x="0" y="19.65555551317004" dx="0em" dy="0.3em" fill="rgb(33, 33, 33)" stroke="none" stroke-width="1px">-0.0125</text><text style="text-anchor: end; visibility: hidden; font-family: Roboto, sans-serif; font-size: 12px; font-weight: 200;" x="0" y="0" dx="0em" dy="0.3em" fill="rgb(33, 33, 33)" stroke="none" stroke-width="1px">-0.012</text></g><line x1="82.68100261688232" y1="0" x2="82.68100261688232" y2="176.89999961853027" fill="rgb(0, 0, 0)" stroke="rgb(204, 204, 204)" stroke-width="1px"></line></g></g><g transform="translate(82, 0)" clip-path="url(#clip_0)"><clipPath id="clip_0"><rect width="247" height="176"></rect></clipPath><g><g><g><line x1="0" y1="0" x2="0" y2="176.89999961853027" fill="rgb(0, 0, 0)" stroke="rgb(66, 66, 66)" stroke-width="1px" opacity="0.25"></line><line x1="24.731899738311768" y1="0" x2="24.731899738311768" y2="176.89999961853027" fill="rgb(0, 0, 0)" stroke="rgb(66, 66, 66)" stroke-width="1px" opacity="0.25"></line><line x1="49.463799476623535" y1="0" x2="49.463799476623535" y2="176.89999961853027" fill="rgb(0, 0, 0)" stroke="rgb(66, 66, 66)" stroke-width="1px" opacity="0.25"></line><line x1="74.1956992149353" y1="0" x2="74.1956992149353" y2="176.89999961853027" fill="rgb(0, 0, 0)" stroke="rgb(66, 66, 66)" stroke-width="1px" opacity="0.25"></line><line x1="98.92759895324707" y1="0" x2="98.92759895324707" y2="176.89999961853027" fill="rgb(0, 0, 0)" stroke="rgb(66, 66, 66)" stroke-width="1px" opacity="0.25"></line><line x1="123.65949869155884" y1="0" x2="123.65949869155884" y2="176.89999961853027" fill="rgb(0, 0, 0)" stroke="rgb(66, 66, 66)" stroke-width="1px" opacity="0.25"></line><line x1="148.3913984298706" y1="0" x2="148.3913984298706" y2="176.89999961853027" fill="rgb(0, 0, 0)" stroke="rgb(66, 66, 66)" stroke-width="1px" opacity="0.25"></line><line x1="173.12329816818237" y1="0" x2="173.12329816818237" y2="176.89999961853027" fill="rgb(0, 0, 0)" stroke="rgb(66, 66, 66)" stroke-width="1px" opacity="0.25"></line><line x1="197.85519790649414" y1="0" x2="197.85519790649414" y2="176.89999961853027" fill="rgb(0, 0, 0)" stroke="rgb(66, 66, 66)" stroke-width="1px" opacity="0.25"></line><line x1="222.5870976448059" y1="0" x2="222.5870976448059" y2="176.89999961853027" fill="rgb(0, 0, 0)" stroke="rgb(66, 66, 66)" stroke-width="1px" opacity="0.25"></line><line x1="247.31899738311768" y1="0" x2="247.31899738311768" y2="176.89999961853027" fill="rgb(0, 0, 0)" stroke="rgb(66, 66, 66)" stroke-width="1px" opacity="0.25"></line></g><g><line x1="0" y1="176.89999961853027" x2="247.31899738311768" y2="176.89999961853027" fill="rgb(0, 0, 0)" stroke="rgb(66, 66, 66)" stroke-width="1px" opacity="0.25"></line><line x1="0" y1="157.24444410536023" x2="247.31899738311768" y2="157.24444410536023" fill="rgb(0, 0, 0)" stroke="rgb(66, 66, 66)" stroke-width="1px" opacity="0.25"></line><line x1="0" y1="137.5888885921902" x2="247.31899738311768" y2="137.5888885921902" fill="rgb(0, 0, 0)" stroke="rgb(66, 66, 66)" stroke-width="1px" opacity="0.25"></line><line x1="0" y1="117.93333307902013" x2="247.31899738311768" y2="117.93333307902013" fill="rgb(0, 0, 0)" stroke="rgb(66, 66, 66)" stroke-width="1px" opacity="0.25"></line><line x1="0" y1="98.27777756585016" x2="247.31899738311768" y2="98.27777756585016" fill="rgb(0, 0, 0)" stroke="rgb(66, 66, 66)" stroke-width="1px" opacity="0.25"></line><line x1="0" y1="78.62222205268012" x2="247.31899738311768" y2="78.62222205268012" fill="rgb(0, 0, 0)" stroke="rgb(66, 66, 66)" stroke-width="1px" opacity="0.25"></line><line x1="0" y1="58.96666653951008" x2="247.31899738311768" y2="58.96666653951008" fill="rgb(0, 0, 0)" stroke="rgb(66, 66, 66)" stroke-width="1px" opacity="0.25"></line><line x1="0" y1="39.31111102634002" x2="247.31899738311768" y2="39.31111102634002" fill="rgb(0, 0, 0)" stroke="rgb(66, 66, 66)" stroke-width="1px" opacity="0.25"></line><line x1="0" y1="19.65555551317004" x2="247.31899738311768" y2="19.65555551317004" fill="rgb(0, 0, 0)" stroke="rgb(66, 66, 66)" stroke-width="1px" opacity="0.25"></line><line x1="0" y1="0" x2="247.31899738311768" y2="0" fill="rgb(0, 0, 0)" stroke="rgb(66, 66, 66)" stroke-width="1px" opacity="0.25"></line></g></g></g><g><g><line x1="0" y1="-471.7333323160807" x2="247.31899738311768" y2="-471.7333323160807" fill="rgb(0, 0, 0)" stroke="rgb(153, 153, 153)" stroke-width="1.5px"></line></g></g><g><g><line x1="24.731899738311768" y1="0" x2="24.731899738311768" y2="176.89999961853027" fill="rgb(0, 0, 0)" stroke="rgb(153, 153, 153)" stroke-width="1.5px"></line></g></g><g><g><g><g><g><path style="fill: none;" stroke="rgb(187, 187, 187)" stroke-width="2px" d="M29.991492378468017,-64.11672428252062L30.20220025003052,12.497602148841409L30.412908121593016,-43.31616826785737L30.623615993155518,28.48893382097893L30.834323864718016,-11.504930426271155L31.045031736280517,46.17240631212631L31.25573960784302,-27.32026670948868L31.46644747940552,55.543507883331316L31.677155350968015,-4.140711123994073L31.887863222530516,66.64300158488938L32.09857109409302,31.963089096113276L32.309278965655515,8.305667875449934L32.51998683721802,-9.084631224924367L32.73069470878052,-5.310248170365381L32.941402580343016,32.264745392342704L33.152110451905514,137.2737932514872L33.36281832346802,110.86308954482354L33.57352619503052,177.91495864426446L33.784234066593015,122.12098853835842L33.99494193815552,195.39995021393375L34.20564980971802,133.70147794766598L34.416357681280516,195.4478877350867L38.079432986905516,249.7826644325158L38.29824500737426,170.64191428516585L38.50895287893677,217.05630175105114L38.727764899405514,172.25224907614583L38.94657691987427,209.67886949522602L39.392305109718016,208.94344240738334L39.60301298128052,148.56541903574058L39.81372085284302,208.71269032563686L40.04063702221802,169.5960313803529L40.25944904268677,189.03474338042136L40.47015691424927,113.44354669002198L40.680864785811764,180.50814940744482L40.89157265737427,149.44314819115752L41.110384677843015,170.71718440554926L41.32109254940552,189.7726326433343L41.985632759718015,189.88336365948146L42.19634063128051,110.1277140529625L42.40704850284302,151.31757752544308L42.64206882112427,172.22262907655397L42.868984990499264,168.42939384270068L43.08779701096802,158.1757277998754L43.298504882530516,153.63237624578286L43.50921275409302,156.27106671851618L43.736128923468016,163.03944046889754L43.971149241749266,186.03057004660135L44.18996126221801,181.4255966333218L44.40877328268677,158.82709454283338L44.619481154249264,159.0443955998276L44.84639732362427,188.09072300297515L45.07331349299927,151.9519038629652L45.28402136456177,138.25412817146054L45.49472923612427,142.48404552795603L45.71354125659302,138.28438448874275L45.93235327706177,132.95695320801852L46.14306114862426,128.45106842944125L46.35376902018677,126.00144442435065L46.572581040655514,112.75884444465532L46.79139306112427,157.03887113273993L47.01830923049927,130.47667855926616L47.22901710206177,161.9687489425454L47.44782912253052,136.9344721934124L47.65853699409301,122.46074754063491L47.86924486565552,157.46019400207223L48.088056886124264,128.69634288457266L48.30686890659302,148.4665214292035L48.517576778155515,124.03426963239923L48.73638879862427,150.66640117876247L48.955200819093015,133.57408433360123L49.18211698846802,156.51110737241956L49.40092900893677,115.08945158195898L49.61163688049927,95.80334189478071L49.83044890096802,130.42723106382715L50.04926092143677,92.63414950545007L50.28428123971802,136.57241626929073L50.503093260186766,116.25139697992012L50.72190528065552,90.15733345288952L50.93261315221802,127.99234054580859L51.143321023780516,105.67373093891787L51.36213304424926,130.03934151397067L51.580945064718016,99.2802297874159L51.791652936280514,146.4581489172428L52.01856910565552,96.11544127390422L52.229276977218014,128.304286786409L52.44808899768677,107.53807813210717L52.66690101815552,142.2044360049656L52.893817187530516,110.93953421540903L53.12073335690552,142.94177074588524L53.34764952628052,85.88347975772562L53.55835739784302,128.28377026713L53.77716941831177,81.22947892102704L53.98787728987427,120.90815906166064L54.206689310343016,103.17855935415011L54.44170962862427,134.63793633041539L54.66862579799927,89.65770011916582L54.887437818468015,113.65771156791487L55.10624983893676,87.22745064220192L55.33316600831177,119.49004827793108L55.560082177686766,72.17292138420316L55.770790049249264,108.76969507984504L55.98960206971802,75.29532807489215L56.208414090186764,102.17802958705738L56.42722611065552,89.79148475131741L56.66224642893677,115.75400693239698L56.881058449405515,79.66409518357601L57.09987046987427,115.6630269368199L57.32678663924927,63.85643014200326L57.53749451081177,91.67438283585449L57.74820238237427,50.12759278727005L57.958910253936764,95.15605806265147L58.16961812549927,54.85041665334758L58.38032599706177,107.64931369419703L58.60724216643677,51.5267276277118L58.81795003799927,105.79258312695147L59.028657909561765,69.52842867778918L59.24746993003052,112.23925776921307L59.45817780159302,66.63252043406065L59.67698982206176,120.3055520449554L59.89580184253052,50.94946722801647L60.106509714093015,98.5821892060777L60.31721758565552,67.42593492472524L60.536029606124266,100.30090328082656L60.76294577549926,49.39806902139413L60.98175779596802,111.54218495122433L61.20867396534302,64.57550989676696L61.427485985811764,114.26858422457707L61.64629800628052,67.46181659292868L61.86511002674927,113.06648309149251L62.083922047218024,74.13050795739122L62.31083821659303,94.11487197795608L62.52965023706177,115.62049554604278L62.75656640643676,82.3122935896637L62.975378426905515,112.15907634212404L63.19419044737426,86.46490297212021L63.42110661674926,126.33188065728869L63.65612693503052,100.48869471932834L63.891147253311765,112.68756871201491L64.10995927378052,74.97275187117238L64.33687544315552,94.87519423897442L64.55568746362427,108.083543309995L64.77449948409301,48.93417411871038L64.99331150456176,64.53291829858982L65.20401937612426,40.8070960658897L65.42283139659301,70.36419534937612L65.64164341706177,93.66463576912363L65.85235128862426,38.35486256820385L66.06305916018677,102.1550349378513L66.28187118065551,71.04998468417853L66.50878735003052,92.58775649167703L66.72759937049926,104.9405716227608L66.93830724206177,67.95631344012833L67.15711926253051,91.73565594831835L67.37593128299928,105.34537058513955L67.60284745237426,99.36339712927547L67.81355532393677,98.41831224585346L68.02426319549927,101.10668176842155L68.23497106706176,71.57149099706022L68.46188723643677,109.85542352617668L68.67259510799926,41.83050181839415L68.88330297956178,90.8482300671439L69.09401085112427,48.97442030479241L69.30471872268676,73.45543393905271L69.51542659424926,31.12571080426109L69.73423861471802,67.30083281952109L69.95305063518677,86.79818454509457L70.17996680456177,115.93550699075553L70.41498712284302,119.24360626532969L70.64190329221802,106.43382934421442L70.85261116378051,109.39676250851225L71.06331903534303,117.53943057035721L71.29023520471802,121.87058949966452L71.51715137409302,135.92972796333322L71.73596339456176,80.70959794846796L71.95477541503051,88.7623903852101L72.16548328659303,101.34094902254608L72.38429530706178,97.13381324788355L72.59500317862427,93.01494748375494L72.80571105018676,101.43319806084308L73.01641892174928,119.6447921632524L73.24333509112427,107.80153998224277L73.45404296268677,100.9226374675759L73.66475083424926,107.46383610225395L73.88356285471802,114.77297940091735L74.11858317299927,148.4418726971518L74.34549934237427,125.45233050259607L74.55620721393677,113.94186315545765L74.76691508549926,101.14192091647799L74.97762295706175,95.62325389640529L75.18833082862427,115.49683432808212L75.42335114690552,114.87457435493715L75.64216316737426,104.16494796994037L75.86097518784301,127.25810743281819L76.07168305940552,115.85410720287004L76.29049507987428,105.97185409465736L76.50120295143677,119.02935511115956L76.72811912081177,143.212101111164L76.94693114128052,116.79567640059877L77.15763901284302,99.34681462685249L77.36834688440553,115.53361761004527L77.59526305378051,103.85235482854169L77.80597092534302,91.54752002227815L78.01667879690552,105.2729225769912L78.25169911518677,129.0071146240392L78.47051113565553,118.82447845822098L78.70553145393677,134.9037907807387L78.91623932549926,114.87977365457284L79.12694719706177,101.3945546475486L79.33765506862427,97.73766978708707L79.55646708909302,130.2405017452915L79.78338325846802,109.23585548549005L80.00219527893677,100.87984964415604L80.22911144831177,127.49315902262434L80.45602761768676,93.24821431708249L80.67483963815552,132.90057575999813L80.90985995643676,101.66978397924906L81.12867197690552,140.63211926019892L81.36369229518677,120.63762122048959L81.58250431565553,116.29492996235966L81.80942048503051,145.88581244262468L82.04444080331177,115.71233904418195L82.27946112159302,138.2236875442039L82.50637729096802,115.80635144036954L82.74139760924926,121.59386848272428L82.95210548081177,99.85044567968087L83.16281335237427,103.30252415304861L83.39783367065553,134.00129398663L83.62474984003052,102.96994656605548L83.83545771159302,80.36822134165564L84.04616558315551,73.92624373441201L84.26497760362426,108.37671270965878L84.48378962409302,97.5189025003346L84.71070579346802,119.03220670846852L84.92951781393677,94.95471100298353L85.14832983440552,137.41086775215314L85.38335015268676,106.76303221768154L85.61026632206176,133.68831445823233L85.83718249143676,96.9011059586957L86.04789036299927,109.71829001458956L86.26670238346802,75.80933373556005L86.48551440393676,103.1699957127335L86.69622227549927,78.6034705228046L86.90693014706177,77.67752093972001L87.14195046534303,107.30390293735641L87.36886663471802,95.06157945709192L87.58767865518676,109.49837150231495L87.79838652674927,89.1322349931128L88.01719854721802,105.76813510366485L88.22790641878052,83.54056899447764L88.43861429034303,58.50572976576303L88.64932216190552,96.08253041307832L88.87623833128052,71.60115864593372L89.09505035174926,108.10237825245395L89.32196652112427,68.39524156058509L89.54077854159301,117.78991938798238L89.77579885987427,77.19309762675934L89.98650673143676,107.31688863569514L90.22152704971802,86.98699616182445L90.44033907018677,78.19687210985303L90.66725523956177,112.47556453900498L90.89417140893676,90.99736767587115L91.11298342940552,60.08957916790497L91.33179544987426,88.2921937142186L91.55060747034301,77.93265778550207L91.77752363971801,102.26875022677329L91.99633566018676,88.25758605014822L92.22325182956176,100.39993102445744L92.43395970112427,80.121081363967L92.64466757268677,62.92191104152434L92.85537544424926,51.7319379817192L93.08229161362426,93.98601155678904L93.30920778299927,72.07042320658944L93.53612395237427,113.21841853894384L93.76304012174927,101.07080417939869L93.99806044003053,117.586113715375L94.21687246049927,85.02897403355763L94.42758033206177,54.918835311693286L94.64639235253051,84.88332525366634L94.85710022409302,61.95132366483773L95.07591224456176,89.3405282773704L95.29472426503052,63.20571184513892L95.51353628549927,105.57172651393758L95.74045245487426,84.15634157363718L95.95926447534302,108.53075283207134L96.17807649581177,89.18952094194721L96.39688851628051,124.16030376597648L96.62380468565551,98.02118626568078L96.85072085503052,140.04829401644795L97.08574117331176,106.85145302026989L97.30455319378052,116.52054187101506L97.51526106534303,93.08372230604864L97.74217723471803,123.59861350886439L97.96909340409302,102.9355102094635L98.20411372237427,136.7526072134963L98.43102989174928,98.53544899573754L98.64984191221802,119.12117009361128L98.86865393268677,94.47176240994476L99.08746595315552,118.22602298474106L99.30627797362428,97.87065519785853L99.52508999409302,132.48082979950672L99.76011031237427,77.44930728815666L99.98702648174927,104.66773924760444L100.19773435331176,67.48461025896367L100.40844222487426,104.42890316241102L100.63535839424928,85.1117721785603L100.86227456362427,102.25130838022959L101.07298243518677,61.68854810946334L101.29179445565552,119.87645063808823L101.52681477393676,86.7903336281919L101.74562679440551,123.33369424949393L101.97254296378051,104.18205278113042L102.19945913315553,123.92355965546848L102.41827115362427,102.56451074447466L102.64518732299928,121.35092284569669L102.86399934346802,95.03563600337453L103.07470721503051,81.35923024870132L103.29351923549926,108.34493938385259L103.50422710706177,83.33137283498952L103.73114327643677,109.13859256904026L103.94185114799926,88.59471517506792L104.17687146628052,127.34853885197504L104.39568348674926,99.98987904319101L104.60639135831177,92.06896456898689L104.83330752768677,110.16068191539678L105.06022369706177,80.99430585668765L105.27903571753052,97.293791981826L105.49784773799927,68.39347220960192L105.71665975846801,80.70114608272834L105.92736763003052,51.59205013994252L106.14617965049926,78.22291275067305L106.37309581987427,48.2193340058079L106.59190784034301,67.77466568858725L106.81882400971801,46.55588544674713L107.03763603018676,77.64690903169678L107.25644805065552,61.25755816858356L107.48336422003052,107.38191247852902L107.71838453831177,66.5769451939112L107.92909240987427,87.32298082100786L108.14790443034302,40.05331328224367L108.35861230190552,73.87289030069464L108.58552847128053,43.58486070131919L108.79623634284302,77.29573841898274L109.02315251221802,46.77964206494762L109.25006868159302,73.95620213171154L109.46077655315551,47.10235033677563L109.67958857362427,55.546045830500134L109.89029644518676,30.776346979865718L110.11721261456177,64.49951346331635L110.34412878393677,38.577427892236145L110.57104495331177,78.22605893530442L110.80606527159301,98.46805413628184L111.02487729206176,66.18797100188975L111.25989761034302,88.39591767556648L111.486813779718,62.89437537723782L111.70562580018677,81.1188065349064L111.92443782065553,59.20070266910759L112.14324984112427,74.2248471205571L112.36206186159302,46.436238538339126L112.58897803096801,82.28128706442567L112.81589420034301,61.46326655809398L113.04281036971803,99.06153579626107L113.27783068799927,67.29749178003468L113.49664270846802,102.65603023424437L113.72355887784302,68.41325524667036L113.95047504721802,100.15983883082816L114.16928706768677,73.45558250278859L114.38809908815551,82.63727539943889L114.59880695971802,56.002397054235765L114.81761898018677,75.26038304525996L115.04453514956177,64.05630086368015L115.25524302112427,88.40903176826103L115.47405504159302,41.46016226541948L115.69286706206178,86.78828078971756L115.91978323143677,58.74782975585207L116.14669940081177,76.34885133300438L116.35740727237426,47.85623698359264L116.58432344174926,65.8148699145354L116.79503131331177,33.076449992030675L117.00573918487427,64.1954982481314L117.22455120534302,45.08179905242238L117.45957152362426,77.29091970658789L117.67838354409302,57.20122524312859L117.90529971346801,68.84282932718521L118.11600758503052,49.629503673219965L118.34292375440552,71.55535557725868L118.55363162596802,48.176688971954185L118.78054779534301,77.99670572897517L119.00746396471801,54.473281856374754L119.23438013409302,90.08065814780461L119.46129630346802,46.69401604805516L119.68010832393676,69.85186496227823L119.89081619549927,35.29251061565302L120.10152406706177,66.61152443974309L120.32844023643676,24.8546106722677L120.53914810799927,51.2122232635891L120.75796012846803,6.139491819319998L120.96866800003052,49.25031308095435L121.18748002049927,30.56053026163391L121.40629204096801,55.93282639945686L121.62510406143676,11.49302670567362L121.84391608190552,42.28293330587214L122.05462395346802,21.478387809015633L122.27343597393677,45.061257230529385L122.48414384549926,21.413388238993214L122.70295586596802,51.320005836959986L122.92176788643677,28.160807783243428L123.14057990690551,60.92377217186652L123.35939192737426,16.613452729706786L123.57009979893678,51.614773623418465L123.78080767049926,47.10716722150435L123.99151554206178,77.08663166548737L124.22653586034302,111.28045984687783L124.46155617862426,61.72727883541277L124.67226405018675,70.48766808962367L124.88297192174926,80.51314181086147L125.09367979331178,67.67848487363808L125.32059596268675,86.1439365839478L125.53130383424927,53.62775965059802L125.75011585471802,81.27642774479419L125.96892787518678,65.8913181761302L126.17963574674927,78.22561165635152L126.39034361831176,44.48024245970333L126.60915563878054,65.87469821331332L126.82796765924927,42.39049149797091L127.04677967971803,74.82271054055889L127.26559170018676,41.56070865886181L127.48440372065552,48.50237530743967L127.70321574112427,75.05061687692596L127.93013191049927,37.08855525151924L128.14894393096802,64.42147329698734L128.36775595143678,48.01399140780249L128.60277626971802,74.09997391512186L128.82158829018678,23.22383580342812L129.03229616174926,62.45315421835699L129.24300403331176,44.187861008894L129.46181605378052,71.03392017234826L129.67252392534303,40.56798143481403L129.89133594581176,64.11168763654729L130.10204381737427,38.71989596706779L130.32085583784303,70.23203539382307L130.5396678583118,36.306028310372625L130.75847987878052,80.60890921591592L130.9853960481555,50.32840248972706L131.21231221753052,91.91846527583402L131.4392283869055,63.26066505679658L131.65804040737424,99.93354559985809L131.89306072565552,45.33632095730854L132.11187274612428,61.44912608284224L132.33068476659304,86.71248679338136L132.56570508487428,40.17431360317533L132.784517105343,67.307945113994L133.00332912581177,16.7970291759299L133.21403699737425,59.9481160064109L133.44095316674927,32.90343427978783L133.65166103831177,56.87883307840118L133.86236890987425,32.337373801522375L134.08928507924927,69.45391495442136L134.29999295081177,36.08707329599582L134.51880497128053,56.9038847125468L134.74572114065552,89.19450382270196L134.97263731003054,59.94650200973885L135.19144933049927,79.17078953297039L135.41026135096803,60.38143158056005L135.64528166924927,70.5723337965899L135.86409368971803,47.98084305103379L136.09100985909302,74.88699850697093L136.30982187956178,31.802325145854418L136.52052975112426,54.45981351912923L136.73123762268676,41.62867675415489L136.95815379206175,69.94587323526865L137.18506996143677,45.90595227110326L137.41198613081178,73.38688310284225L137.63890230018677,30.72586253889101L137.84961017174928,56.401741571524596L138.08463049003052,70.31629474189727L138.295338361593,24.61493654705858L138.51415038206176,68.65895966294737L138.73296240253052,45.76936208747274L138.94367027409302,79.59438853709813L139.17869059237427,87.33866139382661L139.38939846393677,40.80140636632913L139.60010633549928,58.48433125834514L139.81891835596804,66.60923162325261L140.03773037643677,74.32859355888601L140.272750694718,91.68042023508403L140.50777101299929,54.728294300218025L140.72658303346802,95.35822601549336L140.96160335174926,58.27842302191909L141.19662367003053,104.31927358071124L141.43164398831178,65.56064174511265L141.65856015768676,82.22180925170971L141.88547632706178,39.22929870469189L142.1042883475305,84.14727815038326L142.33930866581176,35.08627693796665L142.55812068628052,55.590818709889255L142.77693270674925,4.752480887912165L143.00384887612427,43.19495914441129L143.21455674768677,32.771935199257925L143.44957706596801,58.38980239073738L143.66028493753052,39.58593021812764L143.88720110690554,56.758456010269875L144.10601312737427,77.00628103980128L144.32482514784303,31.17291750845633L144.5355330194055,58.79693145360509L144.76244918878052,41.01207980923094L144.9893653581555,59.32811227325354L145.20007322971801,45.68309869912753L145.43509354799926,61.08960003214644L145.65390556846802,65.41509148012858L145.86461344003052,37.83483426106385L146.0915296094055,76.07955523549633L146.32654992768676,27.04079029868555L146.54536194815552,69.46226312349124L146.76417396862428,21.586660535591076L146.98298598909304,49.82512335734217L147.20179800956177,19.4546972893373L147.42061003003053,50.00279790377431L147.63131790159304,18.564478145561395L147.8420257731555,56.82877290957445L148.06894194253053,22.901273203541482L148.28775396299926,80.6411964682418L148.51467013237425,37.77897512252074L148.733482152843,67.5316660460717L148.95229417331177,27.630994727667254L149.17110619378053,63.223681952642394L149.381814065343,20.84892086864133L149.5925219369055,61.797453132099434L149.80322980846802,39.102435439926786L150.02204182893678,73.9616164046922L150.24895799831177,33.09916031120699L150.47587416768678,71.92362855898108L150.69468618815552,17.615436371165547L150.90539405971802,80.50040915230717L151.1404143779993,40.83169789446494L151.35112224956177,84.26665718621003L151.586142567843,38.06812394967902L151.80495458831177,70.77672836470484L152.01566245987428,28.221128542273195L152.22637033143678,77.63446085790416L152.46139064971803,32.72878329122028L152.6802026701868,64.17219546640351L152.89091054174926,37.57425528894862L153.109722562218,72.8062660757853L153.32853458268679,31.9323753010148L153.53924245424926,85.43998405865014L153.76615862362428,38.109425799192906L153.984970644093,75.28897424037808L154.19567851565552,17.318640641210624L154.4225946850305,79.53882006744823L154.64951085440552,37.75165743333162L154.86021872596802,86.53327722941036L155.09523904424927,50.590449672458405L155.3302593625305,87.66921307070001L155.54907138299927,21.18488276183704L155.75977925456178,67.58615279564789L155.9785912750305,29.90719949244465L156.18929914659302,63.57329409379403L156.40811116706178,30.941109923575198L156.6269231875305,60.806917043397455L156.8538393569055,65.37707743393386L157.064547228468,31.92249376012526L157.28335924893676,73.5692326196836L157.50217126940552,38.551855891607254L157.7290874387805,78.1963348064153L157.94789945924927,35.99602916688498L158.17481562862426,87.82551464810231L158.40173179799928,53.70543153397192L158.6286479673743,80.14511274455009L158.83935583893677,28.406768618426504L159.05006371049927,60.4947203021466L159.268875730968,35.55870557322318L159.49579190034302,85.29890041137888L159.722708069718,45.414141873941325L159.94152009018677,87.9454068729276L160.1684362595618,29.428199640647012L160.38724828003052,69.71028842705626L160.60606030049928,55.47169884262637L160.84108061878052,80.83911134714359L161.05989263924926,37.99144904219985L161.28680880862427,85.42551350017699L161.51372497799926,60.66348304930604L161.74064114737428,84.46782411822386L161.97566146565552,100.75476700978366L162.2025776350305,39.70472597970531L162.42138965549927,70.2721672706492L162.63209752706177,33.41427899124183L162.8509095475305,67.59065926558236L163.06161741909304,28.25753175948571L163.288533588468,69.99675959017607L163.49924146003053,24.9141147479264L163.709949331593,67.94113764901172L163.9206572031555,32.547960596619184L164.13946922362427,83.22302336150467L164.36638539299926,39.78656220537209L164.58519741346802,65.13070570771853L164.80400943393676,47.09533872975309L165.03902975221803,83.0790324198249L165.25784177268676,44.3720070396942L165.47665379315552,75.37877114389042L165.70356996253054,30.741861737257107L165.92238198299927,65.84462976859726L166.13308985456175,26.86743708147945L166.35190187503053,71.59795633038549L166.57071389549927,32.974076270286865L166.78952591596803,75.8079611466893L167.00833793643676,42.00488651892997L167.22714995690552,60.421549231038185L167.44596197737425,75.42420803126916L167.664773997843,53.67516052837951L167.89169016721803,81.82457335397747L168.11050218768676,53.18446498230416L168.34552250596803,91.23921584980991L168.56433452643677,57.66212741147986L168.78314654690553,95.40432506144788L169.01816686518677,65.52352192978287L169.25318718346801,100.02269195235448L169.47199920393678,58.052787460177925L169.6908112244055,64.41117918646844L169.901519095968,20.158853987658368L170.11222696753052,64.84171877548268L170.3391431369055,40.65464419994731L170.55795515737427,81.30463909748954L170.78487132674928,44.85364304097986L171.00368334721801,63.42335865579L171.21439121878052,25.382983650760785L171.43320323924925,70.82077937986365L171.65201525971804,36.37202224501091L171.86272313128052,66.14470945768814L172.07343100284302,33.67272886894917L172.300347172218,80.06895478635289L172.51915919268677,39.87655109353102L172.73797121315553,75.97806915826227L172.948679084718,43.388992064817714L173.16749110518677,76.15503321135157L173.39440727456176,35.48727786224928L173.6051151461243,77.91907565021226L173.83203131549925,42.492158687102794L174.05894748487427,89.73092120278748L174.28586365424925,43.79116196057186L174.49657152581176,66.84180440644376L174.70727939737426,24.093267682853824L174.92609141784303,81.5768519112444L175.153007587218,22.934454573527837L175.37181960768677,63.20867697867801L175.58252747924928,31.682317888527994L175.80944364862427,88.42118444893141L176.0444639669055,61.21630558748982L176.27948428518675,87.20211388612964L176.50640045456177,51.815565060081234L176.7252124750305,81.50418978922725L176.93592034659304,17.732277655622106L177.1466282181555,61.96639583448163L177.36544023862425,21.877359641844887L177.57614811018675,63.1561300424263L177.78685598174928,22.37085856743698L177.99756385331176,70.60053205169334L178.232584171593,37.788401100423826L178.45950034096802,61.10168038939213L178.686416510343,80.27099985170064L178.91333267971802,83.79567207572542L179.13214470018676,68.60781670743489L179.35095672065552,83.31367010180688L179.57787289003053,112.05339154154181L179.81289320831178,96.55201127369065L180.02360107987425,55.75128223885944L180.24241310034304,78.29293707549516L180.45312097190552,32.01584923344855L180.66382884346802,69.2739166890836L180.8745367150305,27.840845384900998L181.0933487354993,67.43506476299773L181.30405660706177,43.20768068751227L181.53097277643678,43.50366961561709L181.74168064799926,56.504613912459924L181.95238851956177,4.762425084712963L182.16309639112427,75.91945646042767L182.3981167094055,96.36813622160359L182.6250328787805,57.45181192675835L182.85194904815552,78.81566304609983L183.0788652175305,85.7355377702108L183.29767723799927,97.16008267420759L183.5326975562805,93.3332504859104L183.74340542784302,39.01496237493386L183.96221744831178,62.52229286765756L184.1810294687805,80.9787233153282L184.39984148924927,83.27672979353876L184.618653509718,80.79087148858646L184.8293613812805,92.11967602787408L185.05627755065552,90.92129429961868L185.27508957112428,93.63460628285486L185.49390159159302,98.65139630513896L185.72892190987426,104.01572496980053L185.95583807924925,112.58156729396333L186.18275424862426,113.69753199003938L186.40967041799925,102.96947809099716L186.62037828956176,36.13343429464018L186.83108616112426,64.2083779160882L187.05800233049925,66.63448624425257L187.26871020206175,78.70914893946072L187.48752222253052,83.77233627008714L187.70633424299928,94.38130961593961L187.93325041237426,95.94246767244364L188.15206243284302,92.3581617665602L188.37087445331176,82.56541808214718L188.5815823248743,57.75153882984488L188.80849849424928,73.5181959911868L189.01920636581178,98.37962287659023L189.24612253518677,114.70548782233406L189.48114285346801,95.25693468046593L189.69185072503052,97.57135198422941L189.91066274549925,86.97560726417346L190.12137061706179,108.08324431969812L190.35639093534303,110.75252474512297L190.58330710471802,97.7262577118196L190.80211912518675,107.49315960915295L191.02903529456177,92.99888307167075L191.23974316612427,85.24214450985113L191.45045103768678,91.62590334151936L191.6692630581555,91.92796917113516L191.88807507862427,95.92406481407365L192.106887099093,98.04347612883322L192.3256991195618,109.67464883252265L192.55261528893678,117.30630811620131L192.78763560721802,112.39572143483245L193.00644762768675,102.42755157816555L193.22525964815551,100.32113833570955L193.44407166862425,89.99655855672665L193.662883689093,93.59941134151384L193.88979985846802,90.95666274889794L194.10050773003053,87.8482900029664L194.311215601593,80.4174516190033L194.5219234731555,51.32242639170891L194.74883964253053,71.59935677216727L194.97575581190551,90.46938545631109L195.20267198128053,98.0164382214922L195.42958815065552,97.03343530770354L195.64840017112425,81.56665088108359L195.85910804268676,89.58806736541283L196.07792006315552,84.10623732025053L196.28862793471802,101.5144586402222L196.52364825299927,117.75661903250395L196.74246027346803,105.68201946960524L196.96127229393676,98.79575782755904L197.18818846331175,123.96492301731087L197.41510463268676,92.00549257992749L197.63391665315552,77.42227107488097L197.85272867362426,68.64473323270347L198.07154069409302,69.00791934842165L198.29035271456175,81.22809244683106L198.51726888393677,69.46290902331855L198.72797675549927,77.99240329641441L198.96299707378054,91.13990071165298L199.17370494534302,22.39852324555546L199.39251696581175,63.19768473072465L199.6113289862805,56.558975779002274L199.82203685784302,54.55652560932292L200.04084887831178,71.98919488262295L200.27586919659302,88.75786501677791L200.48657706815553,84.37935544177122L200.7134932375305,74.39931902442741L200.92420110909302,73.13203465919742L201.15111727846804,98.9889028602097L201.36992929893677,88.34919646965812L201.59684546831176,95.0279273291899L201.81565748878052,85.25129482329466L202.04257365815553,69.55844025200501L202.26138567862426,50.63229144685994L202.47209355018677,57.48886191711903L202.69900971956176,58.675128329235186L202.92592588893677,89.46479053796683L203.14473790940553,68.21613483314897L203.36354992987427,59.63984167068867L203.58236195034303,49.95834728072352L203.79306982190553,55.41236833147635L204.01188184237427,47.06147603712626L204.22258971393677,54.414731602908624L204.44950588331176,41.22942222860008L204.6602137548743,48.36215228043382L204.88712992424928,48.85885924188018L205.11404609362427,79.17261975013562L205.33285811409303,58.54964961850861L205.5435659856555,45.50248275864367L205.754273857218,60.47773688011025L205.98119002659303,55.83814579492982L206.2000020470618,72.45080759723862L206.41070991862426,-2.2661970781478287L206.629521939093,31.155738492992082L206.84022981065553,-22.313406802356674L207.05093768221803,-1.39220996094131L207.26974970268677,25.841590943738144L207.49666587206175,32.819037642576895L207.72358204143677,69.01827262298049L207.95049821081176,58.09222721747991L208.17741438018678,35.644824585822754L208.38812225174928,43.1547015965509L208.62314257003052,22.245587743933438L208.84195459049928,35.44783928062718L209.07697490878053,38.93686209232731L209.30389107815552,32.94268761237798L209.53080724753053,28.63538136923468L209.74961926799926,31.26723278286213L209.96843128846803,35.43231868135538L210.19534745784304,35.78432102487755L210.422263627218,43.772280447589345L210.65728394549927,48.760619155541775L210.876095965968,44.60732602701863L211.0868038375305,42.52473798753132L211.30561585799927,41.97230872794318L211.53253202737426,52.5721434738762L211.75944819674928,45.16478019690173L211.978260217218,50.19213673374882L212.20517638659302,43.34717307530003L212.42398840706178,51.625732949751686L212.65900872534303,29.22019197149769L212.8697165969055,23.17068558479258L213.08852861737427,31.2249003874599L213.30734063784303,40.664466622906495L213.54236095612427,41.70659770292569L213.76927712549926,37.26700705404971L213.99619329487427,44.55921926489232L214.23121361315552,43.358861441738064L214.45002563362428,53.21010830160358L214.67694180299927,63.08505748017049L214.90385797237428,52.85945346386048L215.12266999284302,61.45471629907343L215.349586162218,68.13366034063975L215.57650233159302,61.92574947176613L215.79531435206175,67.40100426475357L216.02223052143677,59.12720028079635L216.24104254190553,43.3743951122211L216.451750413468,46.450697424420554L216.6705624339368,41.38319157611616L216.88127030549927,-13.123975127841105L217.09197817706178,33.88423040755337L217.30268604862425,-6.184348314891799L217.52149806909304,52.48590222909607L217.748414238468,3.9789961681855948L217.96722625893676,65.62432531995512" fill="none"></path></g></g></g></g><g opacity="0.2"><g><g><g><path style="fill: none;" stroke="rgb(187, 187, 187)" stroke-width="2px" d="M29.570076635343018,-104.98978042214793L29.78078450690552,44.667468271195396L29.991492378468017,-109.77253749209785L30.20220025003052,127.41876507077923L30.412908121593016,-127.03668108076438L30.623615993155518,136.19647671648778L30.834323864718016,-71.49568995714486L31.045031736280517,132.68837954233513L31.25573960784302,-137.5592518709411L31.677155350968015,-93.6670325098852L31.887863222530516,172.81856557812256L32.09857109409302,-20.056778146620328L32.51998683721802,-35.170079606429404L32.73069470878052,0.3513263764355146L32.941402580343016,88.62723552711994L33.152110451905514,294.787364689277L33.36281832346802,71.24703403778484L33.57352619503052,278.4927622127573L33.784234066593015,38.43003341977386L33.99494193815552,305.3183926955592L34.20564980971802,41.15376956429756L34.416357681280516,288.0675024065905L36.33704097206177,341.50480678812266L36.54774884362426,79.2553220745183L36.75845671518677,370.08060505753696L37.641808945968016,338.35894206482646L37.86872511534302,139.75626908172686L38.079432986905516,288.53180723191514L38.29824500737426,51.930789064142004L38.50895287893677,286.67788294987855L38.727764899405514,105.04617006378807L38.94657691987427,265.8188001238462L39.165388940343014,152.04032055798172L39.392305109718016,242.4234311379662L39.60301298128052,57.998383978275974L39.81372085284302,298.9335972604812L40.04063702221802,110.92104296242697L40.25944904268677,218.1928113805237L40.47015691424927,0.05675165442307292L40.680864785811764,281.10505348357907L40.89157265737427,102.84564636672646L41.110384677843015,202.628238727137L41.75871659034302,200.0123595464523L41.985632759718015,174.31040385460315L42.19634063128051,-9.505760356815987L42.64206882112427,203.58020640322044L42.868984990499264,162.73954099192056L43.08779701096802,142.79522873563747L43.298504882530516,146.81734891464404L43.50921275409302,160.22910242761617L43.736128923468016,173.19200109446942L43.971149241749266,220.51726441315728L44.18996126221801,174.5181365134024L44.40877328268677,124.92934140710064L44.619481154249264,159.3703471853189L44.84639732362427,231.66021410769653L45.07331349299927,97.74367515295019L45.28402136456177,117.70746463420353L45.49472923612427,148.82892156269918L45.71354125659302,131.98489292992286L45.93235327706177,124.96580628693216L46.14306114862426,121.6922412615754L46.35376902018677,122.32700841671482L46.572581040655514,92.89494447511227L46.79139306112427,223.45891116486692L47.01830923049927,90.63338969905554L47.22901710206177,209.20685451746408L47.44782912253052,99.38305706971295L47.65853699409301,100.75016056146868L47.86924486565552,209.95936369422813L48.088056886124264,85.55056620832333L48.30686890659302,178.12178924614966L48.517576778155515,87.3858919371928L48.73638879862427,190.61459849830743L48.955200819093015,107.93560906585941L49.18211698846802,190.91664193064682L49.40092900893677,52.95696789626812L49.61163688049927,66.87417736401326L49.83044890096802,182.36306481739666L50.04926092143677,35.944527167884395L50.28428123971802,202.4798164150517L50.503093260186766,85.7698680458643L50.72190528065552,51.01623816234349L50.93261315221802,184.74485118518703L51.143321023780516,72.1958165285818L51.36213304424926,166.58775737654992L51.580945064718016,53.14156219758389L51.791652936280514,217.2250276119832L52.01856910565552,20.60137980889633L52.229276977218014,176.58755505516615L52.44808899768677,76.38876515065449L52.66690101815552,194.20397281425323L52.893817187530516,64.04218153107412L53.12073335690552,190.94512554159954L53.34764952628052,0.2960432754861209L53.55835739784302,191.88420603123652L53.77716941831177,10.64804190187264L53.98787728987427,180.4261792726109L54.206689310343016,76.58415979288422L54.44170962862427,181.82700179481324L54.66862579799927,22.18734580229142L54.887437818468015,149.65772874103843L55.10624983893676,47.58205925363246L55.33316600831177,167.88394473152488L55.560082177686766,1.197231043611432L55.770790049249264,163.6648556233079L55.98960206971802,25.083777567462967L56.208414090186764,142.5020818553052L56.42722611065552,71.21166749770728L56.66224642893677,154.6977902040164L56.881058449405515,25.529227560344573L57.09987046987427,169.6614245666857L57.32678663924927,-13.853465050221844L57.53749451081177,133.40131187663147L57.74820238237427,-12.19259228560661L57.958910253936764,162.69875597572346L58.16961812549927,-5.608045460608133L58.81795003799927,187.19136637581087L59.028657909561765,15.13219700404563L59.24746993003052,176.30550140634887L59.45817780159302,-1.7775855686678255L59.89580184253052,-53.08465999739189L60.106509714093015,170.0312721731696L60.31721758565552,20.691553502696543L60.536029606124266,149.61335581497838L60.76294577549926,-26.95618236775437L61.86511002674927,181.4734828393382L62.083922047218024,15.726545256239268L62.31083821659303,124.0914180088035L62.52965023706177,147.87893089817285L62.75656640643676,32.34999065509499L62.975378426905515,156.9292504708146L63.19419044737426,47.92364291711443L63.42110661674926,186.1323471850413L63.65612693503052,61.72391581238783L63.891147253311765,130.98587970104472L64.10995927378052,18.400526609908503L64.33687544315552,124.72885779067757L64.55568746362427,127.89606691652573L64.77449948409301,-39.78987966821663L64.99331150456176,87.93103456840898L65.20401937612426,5.218362716839441L65.42283139659301,114.69984427460595L65.64164341706177,128.61529639874476L65.85235128862426,-44.609797233175634L66.06305916018677,197.85529349232243L66.28187118065551,24.392409303669414L66.50878735003052,124.89441420292466L66.72759937049926,123.46979431938651L66.93830724206177,12.4799261661797L67.15711926253051,127.40466971060339L67.37593128299928,125.75994254037137L67.60284745237426,90.3904369454793L67.81355532393677,97.00068492072045L68.02426319549927,105.13923605227372L68.23497106706176,27.268704840018337L68.46188723643677,167.2813223198514L68.67259510799926,-60.20688074327956L68.88330297956178,164.37482244026853L69.09401085112427,-13.836294338734938L69.30471872268676,110.17695439044326L69.51542659424926,-32.36887389792633L69.73423861471802,121.56351584241112L69.95305063518677,116.04421213345468L70.17996680456177,159.64149065924684L70.41498712284302,124.20575517719088L70.64190329221802,87.21916396254146L70.85261116378051,113.84116225495895L71.06331903534303,129.75343266312467L71.29023520471802,128.3673278936254L71.51715137409302,157.01843565883627L71.73596339456176,-2.120597073829964L71.95477541503051,100.8415790403234L72.16548328659303,120.20878697855004L72.38429530706178,90.82310958588981L72.59500317862427,86.83664883756185L72.80571105018676,114.0605739264753L73.01641892174928,146.9621833168664L73.24333509112427,90.03666171072832L73.45404296268677,90.60428369557557L73.66475083424926,117.27563405427104L73.88356285471802,125.73669434891252L74.11858317299927,198.94521264150345L74.34549934237427,90.96801721076243L74.55620721393677,96.67616213474999L74.76691508549926,81.94200755800837L74.97762295706175,87.34525336629623L75.18833082862427,145.30720497559741L75.42335114690552,113.9411843952197L75.64216316737426,88.1005083924452L75.86097518784301,161.8978466271348L76.07168305940552,98.74810685794787L76.29049507987428,91.1484744323383L76.50120295143677,138.61560663591285L76.72811912081177,179.48622011117075L76.94693114128052,77.17103933475093L77.15763901284302,73.1735219662331L77.36834688440553,139.81382208483444L77.59526305378051,86.33046065628618L77.80597092534302,73.09026781288283L78.01667879690552,125.86102640906093L78.25169911518677,164.608402694611L78.47051113565553,103.55052420949373L78.70553145393677,159.02275926451526L78.91623932549926,84.84374796532406L79.12694719706177,81.16672613701216L79.33765506862427,92.2523424963946L79.55646708909302,178.99474968259818L79.78338325846802,77.72888609578791L80.00219527893677,88.34584088215504L80.22911144831177,167.41312309032676L80.45602761768676,41.880797258769725L80.67483963815552,192.3791179243715L80.90985995643676,54.82359630812548L81.12867197690552,199.0756221816238L81.36369229518677,90.64587416092557L81.58250431565553,109.78089307516478L81.80942048503051,190.27213616302228L82.04444080331177,70.45212894651786L82.27946112159302,171.99071029423672L82.50637729096802,82.18034728461798L82.74139760924926,130.27514404625632L82.95210548081177,67.23531147511576L83.16281335237427,108.48064186310016L83.39783367065553,180.04944873700214L83.62474984003052,56.42292543519378L83.83545771159302,46.465633505055834L84.04616558315551,64.26327732354655L84.26497760362426,160.05241617252892L84.48378962409302,81.23218718634826L84.71070579346802,151.3021630206694L84.92951781393677,58.83846744475589L85.14832983440552,201.09510287590743L85.38335015268676,60.7912789159741L85.61026632206176,174.07623781905858L85.83718249143676,41.72029320939084L86.04789036299927,128.94406609843054L86.26670238346802,24.94589931701569L86.48551440393676,144.2109886784937L86.69622227549927,41.753682737911255L86.90693014706177,76.28859656509321L87.14195046534303,151.74347593381108L87.36886663471802,76.69809423669516L87.58767865518676,131.1535595701495L87.79838652674927,58.58303022930961L88.01719854721802,130.72198526949293L88.22790641878052,50.19921983069675L88.43861429034303,20.953470922691203L88.64932216190552,152.4477313840511L88.87623833128052,34.87910099521674L89.09505035174926,162.85420766223413L89.32196652112427,8.83453652278189L89.54077854159301,191.88193612907835L89.77579885987427,16.297864984924846L89.98650673143676,152.50257514909893L90.22152704971802,56.49215745101848L90.44033907018677,65.01168603189582L90.66725523956177,163.8936031827329L90.89417140893676,58.78007238117028L91.11298342940552,13.727896405955741L91.33179544987426,130.59611553368896L91.55060747034301,62.39335389242729L91.77752363971801,138.77288888868011L91.99633566018676,67.24083978521071L92.22325182956176,118.61344848592113L92.43395970112427,49.702806873231346L92.64466757268677,37.12315555786035L92.85537544424926,34.94697839201155L93.08229161362426,157.36712191939387L93.30920778299927,39.197040681290225L93.53612395237427,174.9404115374754L93.76304012174927,82.84938264008099L93.99806044003053,142.35907801933942L94.21687246049927,36.19326451083152L94.42758033206177,9.753627228896766L94.64639235253051,129.83006016662603L94.85710022409302,27.553321281594865L95.07591224456176,130.4243351961694L95.29472426503052,24.0034871967917L95.51353628549927,169.12074851713564L95.74045245487426,52.0332641631866L95.95926447534302,145.09236971972257L96.17807649581177,60.17767310676101L96.39688851628051,176.61647800202047L96.62380468565551,58.81251001523729L96.85072085503052,203.08895564259868L97.08574117331176,57.05619152600276L97.30455319378052,131.02417514713284L97.51526106534303,57.9284929585989L97.74217723471803,169.37095031308803L97.96909340409302,71.94085526036224L98.20411372237427,187.4782527195456L98.43102989174928,41.20971166909931L98.64984191221802,149.999751740422L98.86865393268677,57.49765088444497L99.08746595315552,153.85741384693543L99.30627797362428,67.3376035175347L99.52508999409302,184.39609170197917L99.76011031237427,-5.0979764788684685L99.98702648174927,145.49538718677613L100.19773435331176,11.709916776002506L100.40844222487426,159.84534251758205L100.63535839424928,56.13607570278419L100.86227456362427,127.9606126827335L101.07298243518677,0.8444077033139205L101.29179445565552,207.15830443102558L101.52681477393676,37.161158113347426L101.74562679440551,178.14873518144685L101.97254296378051,75.45459057858521L102.19945913315553,153.53581996697554L102.41827115362427,70.52593737798406L102.64518732299928,149.5305409975297L102.86399934346802,55.56270573989122L103.07470721503051,60.84462161669149L103.29351923549926,148.82350308657962L103.50422710706177,45.811023011694864L103.73114327643677,147.8494221701164L103.94185114799926,57.77889908410936L104.17687146628052,185.47927436733588L104.39568348674926,58.951889330014986L104.60639135831177,80.18759285768071L104.83330752768677,137.29825793501158L105.06022369706177,37.244741768623875L105.27903571753052,121.74302116953355L105.49784773799927,25.04299255126586L105.71665975846801,99.16265689241801L105.92736763003052,7.928406225763753L106.14617965049926,118.16920666676889L106.37309581987427,3.213965888510192L106.59190784034301,97.1076632127563L106.81882400971801,14.727715083986798L107.03763603018676,124.28344440912109L107.25644805065552,36.6735318739137L107.48336422003052,176.56844394344722L107.71838453831177,5.369494266984534L107.92909240987427,118.44203426165289L108.14790443034302,-30.851188025902495L108.35861230190552,124.60225582837093L108.58552847128053,-1.8471836977438403L108.79623634284302,127.86205499547806L109.02315251221802,1.0054975338949053L109.25006868159302,114.72104223185741L109.46077655315551,6.821572644371742L109.67958857362427,68.2115890710869L109.89029644518676,-6.378201296085865L110.11721261456177,115.08426318849241L110.34412878393677,-0.305700464384182L110.57104495331177,137.69900549990695L110.80606527159301,128.8310469377479L111.02487729206176,17.76784630030162L111.25989761034302,121.70783768608165L111.486813779718,24.642061929744845L111.70562580018677,108.45545327140933L111.92443782065553,26.323546870409448L112.14324984112427,96.76106379773121L112.36206186159302,4.7533256650122L112.58897803096801,136.04885985355537L112.81589420034301,30.23623579859632L113.04281036971803,155.45893965351164L113.27783068799927,19.651425755695133L113.49664270846802,155.69383791555884L113.72355887784302,17.0490927653093L113.95047504721802,147.779714207065L114.16928706768677,33.39919801072916L114.38809908815551,96.40981474441436L114.59880695971802,16.05007953643116L114.81761898018677,104.14736203179633L115.04453514956177,47.25017759131045L115.25524302112427,124.93812812513234L115.47405504159302,-28.963141988842885L115.69286706206178,154.78045857616456L115.91978323143677,16.687153205053882L116.14669940081177,102.75038369873288L116.35740727237426,5.117315459474988L116.58432344174926,92.75281931094969L116.79503131331177,-16.031179891726218L117.00573918487427,110.87407063228254L117.22455120534302,16.411250258858793L117.45957152362426,125.60460068783608L117.67838354409302,27.06668354793971L117.90529971346801,86.3052354532702L118.11600758503052,20.809515192271995L118.34292375440552,104.44413343331671L118.55363162596802,13.108689063997453L118.78054779534301,122.72673086450648L119.00746396471801,19.188146047474223L119.23438013409302,143.4917225849495L119.46129630346802,-18.38594710156914L119.68010832393676,104.58863833361288L119.89081619549927,-16.546520904284897L120.10152406706177,113.59004517587825L120.32844023643676,-37.780759978945355L120.53914810799927,90.74864215057123L120.75796012846803,-61.46960534708382L120.96866800003052,113.91654497340583L121.18748002049927,2.5258560326533948L121.40629204096801,93.9912706061914L121.62510406143676,-55.166672835001066L121.84391608190552,88.4677932061699L122.05462395346802,-9.728430436269095L122.27343597393677,80.43556136280007L122.48414384549926,-14.058415248311038L122.70295586596802,96.17993223391024L122.92176788643677,-6.577989297331413L123.14057990690551,110.06821875480108L123.35939192737426,-49.852026433532735L123.57009979893678,104.11675496398595L123.78080767049926,40.34575761863329L123.99151554206178,122.05582833146175L124.22653586034302,162.5712021189634L124.46155617862426,-12.602492681784996L124.67226405018675,83.62825197094013L124.88297192174926,95.55135239271814L125.09367979331178,48.42649946780308L125.32059596268675,113.84211414941238L125.53130383424927,4.853494250573478L125.75011585471802,122.74942988608836L125.96892787518678,42.81365382313425L126.17963574674927,96.72705187668352L126.39034361831176,-6.137811335268842L126.60915563878054,97.96638184372843L126.82796765924927,7.164181424957413L127.04677967971803,123.47103910444099L127.26559170018676,-8.332294163683677L127.48440372065552,58.914875280306475L127.70321574112427,114.87297923115538L127.93013191049927,-19.8545371865909L128.14894393096802,105.42085036518944L128.36775595143678,23.40276857402507L128.60277626971802,113.22894767610087L128.82158829018678,-53.090371364112464L129.03229616174926,121.29713184075037L129.24300403331176,16.789921194699538L129.46181605378052,111.3030089175296L129.67252392534303,-5.13092667148731L129.89133594581176,99.42724693914731L130.10204381737427,0.6322084628485821L130.32085583784303,117.50024453395615L130.5396678583118,-14.582982314802992L130.75847987878052,147.06323057423086L130.9853960481555,4.907642400443767L131.21231221753052,154.30355945499454L131.4392283869055,20.273964728240433L131.65804040737424,154.94286641445032L131.89306072565552,-36.559516006515686L132.11187274612428,85.61833377114276L132.33068476659304,124.60752785918994L132.56570508487428,-29.632946182133672L132.784517105343,108.0083923802219L133.00332912581177,-58.96934473116614L133.21403699737425,124.67474625213238L133.44095316674927,-7.663588310146866L133.65166103831177,92.84193127632109L133.86236890987425,-4.474815113795919L134.08928507924927,125.12872668376976L134.29999295081177,-13.963189191642586L134.51880497128053,88.12910183737334L134.74572114065552,137.63043248793463L134.97263731003054,16.074499290294234L135.19144933049927,108.00722081781767L135.41026135096803,32.19739465194463L135.64528166924927,85.85868712063464L135.86409368971803,14.09360693269975L136.09100985909302,115.2462316908766L136.30982187956178,-32.824684895820276L136.52052975112426,88.44604607904147L136.73123762268676,22.381971606693366L136.95815379206175,112.42166795693926L137.18506996143677,9.846070824855191L137.41198613081178,114.6082793504507L137.63890230018677,-33.26566830703578L137.84961017174928,94.91556012047504L138.08463049003052,91.18812449745629L138.295338361593,-43.93710074519941L138.51415038206176,134.72499433678058L138.73296240253052,11.43496572426085L138.94367027409302,130.33192821153614L139.17869059237427,98.95507067891931L139.38939846393677,-29.004476174916956L139.60010633549928,85.00871859636906L139.81891835596804,78.79658217061377L140.03773037643677,85.90763646233619L140.272750694718,117.70816024938104L140.50777101299929,-0.6998946020809339L140.72658303346802,156.30312358840635L140.96160335174926,2.6587185315575854L141.19662367003053,173.38054941889945L141.43164398831178,7.422693991714798L141.65856015768676,107.2135605116052L141.88547632706178,-25.25946711583486L142.1042883475305,151.5242473189204L142.33930866581176,-38.50522488065827L142.55812068628052,86.3476313677731L142.77693270674925,-71.50502584505355L143.00384887612427,100.85867652916004L143.21455674768677,17.137399281527795L143.44957706596801,96.81660317795651L143.66028493753052,11.380121959213035L143.88720110690554,82.51724469848307L144.10601312737427,107.37801858409834L144.32482514784303,-37.577127788560915L144.5355330194055,100.23295237132824L144.76244918878052,14.334802342669668L144.9893653581555,86.80216096928747L145.20007322971801,25.215578337938332L145.43509354799926,84.19935203167492L145.65390556846802,71.90332865210189L145.86461344003052,-3.5355515675332714L146.0915296094055,133.44663669714492L146.32654992768676,-46.51735710653062L146.54536194815552,133.0944723606998L146.76417396862428,-50.22674334625926L146.98298598909304,92.18281758996885L147.20179800956177,-26.100941812669806L147.42061003003053,95.82494882542993L147.63131790159304,-28.59300149175789L147.8420257731555,114.2252150555941L148.06894194253053,-27.98997635550798L148.28775396299926,167.25108136529232L148.51467013237425,-26.514356896060857L148.733482152843,112.16070243139804L148.95229417331177,-32.22001224993942L149.17110619378053,116.61271279010508L149.381814065343,-42.71322075736023L149.5925219369055,123.22025152728646L149.80322980846802,5.059908901667945L150.02204182893678,126.25038785184026L150.24895799831177,-28.19452382902069L150.47587416768678,130.16033093064223L150.69468618815552,-63.84685191055785L150.90539405971802,174.8278683240195L151.1404143779993,-18.671368992298568L151.35112224956177,149.41909612382776L151.586142567843,-31.229675905117574L151.80495458831177,119.8396349872436L152.01566245987428,-35.612271191374255L152.22637033143678,151.7544593313507L152.46139064971803,-34.629733058805556L152.6802026701868,111.33731372917832L152.89091054174926,-2.322654977233721L153.109722562218,125.65428225604028L153.32853458268679,-29.378460861140805L153.53924245424926,165.70139719510308L153.76615862362428,-32.88641158999292L153.984970644093,131.05829690215592L154.19567851565552,-69.63685975754066L154.4225946850305,172.86908920680477L154.64951085440552,-24.92908651784325L154.86021872596802,159.70570692352845L155.09523904424927,-3.3237916629695308L155.3302593625305,143.28735816806244L155.54907138299927,-78.54161270145738L155.75977925456178,137.1880578463641L155.9785912750305,-26.61123046236025L156.18929914659302,114.07243599581808L156.40811116706178,-18.007166331752988L156.6269231875305,105.60562772313087L156.8538393569055,72.23231801973846L157.064547228468,-18.259381750587682L157.28335924893676,136.03934090902104L157.50217126940552,-13.974209200507362L157.7290874387805,137.66305317862728L157.94789945924927,-27.30442929241041L158.17481562862426,165.56974286992823L158.40173179799928,2.5253068627764077L158.6286479673743,119.80463456041737L158.83935583893677,-49.2007475707588L159.05006371049927,108.62664782772677L159.268875730968,-1.8453165201621191L159.49579190034302,159.90919266861235L159.722708069718,-14.41299593221492L159.94152009018677,151.74230437140687L160.1684362595618,-58.34761120777375L160.38724828003052,130.13342160667017L160.60606030049928,34.11381446598157L160.84108061878052,118.8902301039194L161.05989263924926,-26.280044415215745L161.28680880862427,156.57661018714273L161.51372497799926,23.520437372999485L161.74064114737428,120.17433572160077L161.97566146565552,125.18518134712339L162.2025776350305,-51.87033556541218L162.42138965549927,116.12332920706503L162.63209752706177,-21.872553427869267L162.8509095475305,118.85522967709316L163.06161741909304,-30.74215949965924L163.288533588468,132.60560133621158L163.49924146003053,-42.70985251544809L163.709949331593,132.4816720006396L163.9206572031555,-20.541804981969673L164.13946922362427,159.23561750883297L164.36638539299926,-25.368129528826774L164.58519741346802,103.14692096123805L164.80400943393676,20.04228826280485L165.03902975221803,137.05457295493267L165.25784177268676,-13.688531030502007L165.47665379315552,121.88891730018476L165.70356996253054,-36.21350237269274L165.92238198299927,118.49878181560756L166.13308985456175,-31.598351949197298L166.35190187503053,138.69373520374464L166.57071389549927,-24.961743819861052L166.78952591596803,140.05878846129295L167.00833793643676,-8.699725422708868L167.22714995690552,88.04654329920056L167.44596197737425,97.9281962316157L167.664773997843,21.05158927404509L167.89169016721803,124.0486925923744L168.11050218768676,10.22430242479434L168.34552250596803,148.32134215106848L168.56433452643677,7.296494753984636L168.78314654690553,152.01762153639984L169.01816686518677,20.70231723228537L169.25318718346801,151.77144698621197L169.47199920393678,-4.902069278086882L169.6908112244055,73.94876677590416L169.901519095968,-46.219633810556815L170.11222696753052,131.8660159572191L170.3391431369055,4.374032336644206L170.55795515737427,142.27963144380286L170.78487132674928,-9.82285104378465L171.00368334721801,91.27793207800521L171.21439121878052,-31.677578856783036L171.43320323924925,138.977472973518L171.65201525971804,-15.301113457268103L171.86272313128052,110.80374027670389L172.07343100284302,-15.035242014159165L172.300347172218,149.6632936624585L172.51915919268677,-20.412054445701695L172.73797121315553,130.1303462553591L172.948679084718,-5.494623575349059L173.16749110518677,125.30409493115225L173.39440727456176,-25.514355161404172L173.6051151461243,141.5667723321568L173.83203131549925,-10.648216757561515L174.05894748487427,160.58906497631443L174.28586365424925,-25.11847690275133L174.49657152581176,101.41776807525152L174.70727939737426,-40.02953740253101L174.92609141784303,167.80222825383015L175.153007587218,-65.02914143304699L175.37181960768677,123.62001058640327L175.58252747924928,-15.60722074669714L175.80944364862427,173.5294842895366L176.0444639669055,20.408987295327425L176.27948428518675,126.18082633408936L176.50640045456177,-1.2642581789913874L176.7252124750305,126.03712688294608L176.93592034659304,-77.92559054478556L177.1466282181555,128.31757310277095L177.36544023862425,-38.256194647110085L177.57614811018675,125.07428564329841L177.78685598174928,-38.807048645046855L177.99756385331176,142.9450422780778L178.232584171593,-11.429795326480432L178.45950034096802,96.0715993228445L178.686416510343,109.02497904516342L178.91333267971802,89.08268041176261L179.13214470018676,45.82603365499899L179.35095672065552,105.37245019336486L179.57787289003053,155.16297370114418L179.81289320831178,73.29994087191405L180.02360107987425,-5.449811313387435L180.24241310034304,112.10541933044864L180.45312097190552,-37.399782529621284L180.66382884346802,125.16101787253622L180.8745367150305,-34.30876157137289L181.0933487354993,126.82639383014272L181.30405660706177,6.866604574284146L181.53097277643678,43.94765300777426L181.74168064799926,76.0060303577241L181.95238851956177,-72.85085815690755L182.16309639112427,182.6550035239996L182.3981167094055,127.04115586336731L182.6250328787805,-0.9226745155094116L182.85194904815552,110.86143972511199L183.0788652175305,96.1153498563773L183.29767723799927,114.29690003020265L183.5326975562805,87.59300220346479L183.74340542784302,-42.46246979153085L183.96221744831178,97.78328860674306L184.1810294687805,108.66336898683421L184.39984148924927,86.72373951085463L184.618653509718,77.06208403115797L184.8293613812805,109.11288283680547L185.05627755065552,89.12372170723562L185.27508957112428,97.70457425770917L185.49390159159302,106.17658133856513L185.72892190987426,112.06221796679283L185.95583807924925,125.43033078020757L186.18275424862426,115.37147903415334L186.40967041799925,86.87739724243382L186.62037828956176,-64.12063139989527L186.83108616112426,106.32079334826025L187.05800233049925,70.27364873649913L187.26871020206175,96.82114298227289L187.48752222253052,91.36711726602688L187.70633424299928,110.29476963471818L187.93325041237426,98.2842047571997L188.15206243284302,86.98170290773501L188.37087445331176,67.87630255552763L188.5815823248743,20.530719951391468L188.80849849424928,97.16818173319955L189.01920636581178,135.67176320469528L189.24612253518677,139.19428524094997L189.48114285346801,66.08410496766372L189.69185072503052,101.04297793987477L189.91066274549925,71.08199018408958L190.12137061706179,139.74469990298513L190.35639093534303,114.7564453832601L190.58330710471802,78.18685716186467L190.80211912518675,122.14351245515299L191.02903529456177,71.25746826544747L191.23974316612427,73.60703666712165L191.45045103768678,101.20154158902166L191.6692630581555,92.38106791555889L191.88807507862427,101.91820827848146L192.106887099093,101.22259310097259L192.3256991195618,127.12140788805677L192.55261528893678,128.75379704171928L192.78763560721802,105.02984141277916L193.00644762768675,87.47529679316526L193.22525964815551,97.16151847202552L193.44407166862425,74.50968888825224L193.662883689093,99.00369051869468L193.88979985846802,86.9925398599741L194.10050773003053,83.18573088406909L194.311215601593,69.27119404305859L194.5219234731555,7.67988855076741L194.74883964253053,102.01475234285466L194.97575581190551,118.77442848252674L195.20267198128053,109.33701736926385L195.42958815065552,95.55893093702048L195.64840017112425,58.36647424115356L195.85910804268676,101.62019209190662L196.07792006315552,75.88349225250714L196.28862793471802,127.62679062017953L196.52364825299927,142.11985962092663L196.74246027346803,87.57012012525726L196.96127229393676,88.46636536448973L197.18818846331175,161.7186708019386L197.41510463268676,44.06634692385234L197.63391665315552,55.54743881731117L197.85272867362426,55.478426469437245L198.07154069409302,69.55269852199888L198.29035271456175,99.55835209444518L198.51726888393677,51.81513388804987L198.72797675549927,90.78664470605828L198.96299707378054,110.86114683451093L199.17370494534302,-80.71354295359089L199.39251696581175,124.39642695847859L199.6113289862805,46.60091235141875L199.82203685784302,51.552850354803894L200.04084887831178,98.13819879257312L200.27586919659302,113.91087021801036L200.48657706815553,77.8115910792612L200.7134932375305,59.42926439841172L200.92420110909302,71.2311081113524L201.15111727846804,137.77420516172816L201.36992929893677,72.38963688383086L201.59684546831176,105.04602361848755L201.81565748878052,70.58634606445193L202.04257365815553,46.019158395070534L202.26138567862426,22.243068239142392L202.47209355018677,67.77371762250763L202.69900971956176,60.45452794740954L202.92592588893677,135.6492838510642L203.14473790940553,36.34315127592212L203.36354992987427,46.775401926998086L203.58236195034303,35.43610569577567L203.79306982190553,63.593399907605495L204.01188184237427,34.535137595601164L204.22258971393677,65.44461495158227L204.44950588331176,21.451458167137286L204.6602137548743,59.06124735818441L204.88712992424928,49.60391968404969L205.11404609362427,124.64326051251884L205.33285811409303,27.61519442106803L205.5435659856555,25.931732468846295L205.754273857218,82.94061806231005L205.98119002659303,48.87875916715925L206.2000020470618,97.36980030070174L206.41070991862426,-114.34170409122748L206.629521939093,81.28864184970188L206.84022981065553,-102.51712474537977L207.05093768221803,29.989585301181737L207.26974970268677,66.69229230075726L207.49666587206175,43.285207690835L207.72358204143677,123.31712509358586L207.95049821081176,41.70315910922904L208.17741438018678,1.9737206383370034L208.38812225174928,54.41951711264309L208.62314257003052,-9.118083034992784L208.84195459049928,55.251216585667784L209.07697490878053,44.170396309877624L209.30389107815552,23.95142589245393L209.53080724753053,22.174422004519815L209.74961926799926,35.21500990330325L209.96843128846803,41.679947529095315L210.19534745784304,36.31232454016092L210.422263627218,55.75421958165695L210.65728394549927,56.243127217470295L210.876095965968,38.37738633423399L211.0868038375305,39.40085592830034L211.30561585799927,41.143664838561115L211.53253202737426,68.47189559277575L211.75944819674928,34.05373528143989L211.978260217218,57.73317153901943L212.20517638659302,33.07972758762694L212.42398840706178,64.04357276142913L212.65900872534303,-4.388119495883217L212.8697165969055,14.096426004734926L213.08852861737427,43.3062225914608L213.30734063784303,54.823815976076276L213.54236095612427,43.26979432295441L213.76927712549926,30.60762108073579L213.99619329487427,55.49753758115617L214.23121361315552,41.558324707006655L214.45002563362428,67.98697859140181L214.67694180299927,77.89748124802098L214.90385797237428,37.52104743939544L215.12266999284302,74.34761055189267L215.349586162218,78.15207640298924L215.57650233159302,52.61388316845572L215.79531435206175,75.61388645423474L216.02223052143677,46.716494304860625L216.24104254190553,19.74518735935829L216.451750413468,51.0651508927199L216.6705624339368,33.78193280365958L216.88127030549927,-94.88472518377702L217.09197817706178,104.39653871064503L217.30268604862425,-66.28721639855951L217.52149806909304,140.49127804507782L217.748414238468,-68.78136292318013L217.96722625893676,158.09231904760944" fill="none"></path></g></g></g></g></g></g><g transform="translate(82, 176)" clip-path="url(#clip_1)"><clipPath id="clip_1"><rect width="247" height="23"></rect></clipPath><g><g><line x1="0" y1="0" x2="0" y2="5" style="visibility: inherit;" fill="rgb(0, 0, 0)" stroke="rgb(204, 204, 204)" stroke-width="1px"></line><line x1="24.731899738311768" y1="0" x2="24.731899738311768" y2="5" style="visibility: inherit;" fill="rgb(0, 0, 0)" stroke="rgb(204, 204, 204)" stroke-width="1px"></line><line x1="49.463799476623535" y1="0" x2="49.463799476623535" y2="5" style="visibility: inherit;" fill="rgb(0, 0, 0)" stroke="rgb(204, 204, 204)" stroke-width="1px"></line><line x1="74.1956992149353" y1="0" x2="74.1956992149353" y2="5" style="visibility: inherit;" fill="rgb(0, 0, 0)" stroke="rgb(204, 204, 204)" stroke-width="1px"></line><line x1="98.92759895324707" y1="0" x2="98.92759895324707" y2="5" style="visibility: inherit;" fill="rgb(0, 0, 0)" stroke="rgb(204, 204, 204)" stroke-width="1px"></line><line x1="123.65949869155884" y1="0" x2="123.65949869155884" y2="5" style="visibility: inherit;" fill="rgb(0, 0, 0)" stroke="rgb(204, 204, 204)" stroke-width="1px"></line><line x1="148.3913984298706" y1="0" x2="148.3913984298706" y2="5" style="visibility: inherit;" fill="rgb(0, 0, 0)" stroke="rgb(204, 204, 204)" stroke-width="1px"></line><line x1="173.12329816818237" y1="0" x2="173.12329816818237" y2="5" style="visibility: inherit;" fill="rgb(0, 0, 0)" stroke="rgb(204, 204, 204)" stroke-width="1px"></line><line x1="197.85519790649414" y1="0" x2="197.85519790649414" y2="5" style="visibility: inherit;" fill="rgb(0, 0, 0)" stroke="rgb(204, 204, 204)" stroke-width="1px"></line><line x1="222.5870976448059" y1="0" x2="222.5870976448059" y2="5" style="visibility: inherit;" fill="rgb(0, 0, 0)" stroke="rgb(204, 204, 204)" stroke-width="1px"></line><line x1="247.31899738311768" y1="0" x2="247.31899738311768" y2="5" style="visibility: inherit;" fill="rgb(0, 0, 0)" stroke="rgb(204, 204, 204)" stroke-width="1px"></line></g><g transform="translate(0, 8)"><text style="text-anchor: middle; visibility: hidden; font-family: Roboto, sans-serif; font-size: 12px; font-weight: 200;" x="0" y="0" dx="0em" dy="0.95em" fill="rgb(33, 33, 33)" stroke="none" stroke-width="1px">-50M</text><text style="text-anchor: middle; visibility: inherit; font-family: Roboto, sans-serif; font-size: 12px; font-weight: 200;" x="24.731899738311768" y="0" dx="0em" dy="0.95em" fill="rgb(33, 33, 33)" stroke="none" stroke-width="1px">0</text><text style="text-anchor: middle; visibility: hidden; font-family: Roboto, sans-serif; font-size: 12px; font-weight: 200;" x="49.463799476623535" y="0" dx="0em" dy="0.95em" fill="rgb(33, 33, 33)" stroke="none" stroke-width="1px">50M</text><text style="text-anchor: middle; visibility: inherit; font-family: Roboto, sans-serif; font-size: 12px; font-weight: 200;" x="74.1956992149353" y="0" dx="0em" dy="0.95em" fill="rgb(33, 33, 33)" stroke="none" stroke-width="1px">100M</text><text style="text-anchor: middle; visibility: hidden; font-family: Roboto, sans-serif; font-size: 12px; font-weight: 200;" x="98.92759895324707" y="0" dx="0em" dy="0.95em" fill="rgb(33, 33, 33)" stroke="none" stroke-width="1px">150M</text><text style="text-anchor: middle; visibility: inherit; font-family: Roboto, sans-serif; font-size: 12px; font-weight: 200;" x="123.65949869155884" y="0" dx="0em" dy="0.95em" fill="rgb(33, 33, 33)" stroke="none" stroke-width="1px">200M</text><text style="text-anchor: middle; visibility: hidden; font-family: Roboto, sans-serif; font-size: 12px; font-weight: 200;" x="148.3913984298706" y="0" dx="0em" dy="0.95em" fill="rgb(33, 33, 33)" stroke="none" stroke-width="1px">250M</text><text style="text-anchor: middle; visibility: inherit; font-family: Roboto, sans-serif; font-size: 12px; font-weight: 200;" x="173.12329816818237" y="0" dx="0em" dy="0.95em" fill="rgb(33, 33, 33)" stroke="none" stroke-width="1px">300M</text><text style="text-anchor: middle; visibility: hidden; font-family: Roboto, sans-serif; font-size: 12px; font-weight: 200;" x="197.85519790649414" y="0" dx="0em" dy="0.95em" fill="rgb(33, 33, 33)" stroke="none" stroke-width="1px">350M</text><text style="text-anchor: middle; visibility: inherit; font-family: Roboto, sans-serif; font-size: 12px; font-weight: 200;" x="222.5870976448059" y="0" dx="0em" dy="0.95em" fill="rgb(33, 33, 33)" stroke="none" stroke-width="1px">400M</text><text style="text-anchor: middle; visibility: hidden; font-family: Roboto, sans-serif; font-size: 12px; font-weight: 200;" x="247.31899738311768" y="0" dx="0em" dy="0.95em" fill="rgb(33, 33, 33)" stroke="none" stroke-width="1px">450M</text></g><line x1="0" y1="0" x2="247.31899738311768" y2="0" fill="rgb(0, 0, 0)" stroke="rgb(204, 204, 204)" stroke-width="1px"></line></g></g></g></g></svg>