<svg viewBox="0 0 330 200" xmlns="http://www.w3.org/2000/svg"><g><g><g><g><g><line x1="51.53200149536133" y1="176.89999961853027" x2="46.53200149536133" y2="176.89999961853027" style="visibility: inherit;" fill="rgb(0, 0, 0)" stroke="rgb(204, 204, 204)" stroke-width="1px"></line><line x1="51.53200149536133" y1="154.787499666214" x2="46.53200149536133" y2="154.787499666214" style="visibility: inherit;" fill="rgb(0, 0, 0)" stroke="rgb(204, 204, 204)" stroke-width="1px"></line><line x1="51.53200149536133" y1="132.6749997138977" x2="46.53200149536133" y2="132.6749997138977" style="visibility: inherit;" fill="rgb(0, 0, 0)" stroke="rgb(204, 204, 204)" stroke-width="1px"></line><line x1="51.53200149536133" y1="110.56249976158142" x2="46.53200149536133" y2="110.56249976158142" style="visibility: inherit;" fill="rgb(0, 0, 0)" stroke="rgb(204, 204, 204)" stroke-width="1px"></line><line x1="51.53200149536133" y1="88.44999980926514" x2="46.53200149536133" y2="88.44999980926514" style="visibility: inherit;" fill="rgb(0, 0, 0)" stroke="rgb(204, 204, 204)" stroke-width="1px"></line><line x1="51.53200149536133" y1="66.33749985694885" x2="46.53200149536133" y2="66.33749985694885" style="visibility: inherit;" fill="rgb(0, 0, 0)" stroke="rgb(204, 204, 204)" stroke-width="1px"></line><line x1="51.53200149536133" y1="44.22499990463257" x2="46.53200149536133" y2="44.22499990463257" style="visibility: inherit;" fill="rgb(0, 0, 0)" stroke="rgb(204, 204, 204)" stroke-width="1px"></line><line x1="51.53200149536133" y1="22.112499952316284" x2="46.53200149536133" y2="22.112499952316284" style="visibility: inherit;" fill="rgb(0, 0, 0)" stroke="rgb(204, 204, 204)" stroke-width="1px"></line><line x1="51.53200149536133" y1="0" x2="46.53200149536133" y2="0" style="visibility: inherit;" fill="rgb(0, 0, 0)" stroke="rgb(204, 204, 204)" stroke-width="1px"></line></g><g transform="translate(41.53200149536133, 0)"><text style="text-anchor: end; visibility: hidden; font-family: Roboto, sans-serif; font-size: 12px; font-weight: 200;" x="0" y="176.89999961853027" dx="0em" dy="0.3em" fill="rgb(33, 33, 33)" stroke="none" stroke-width="1px">1.21</text><text style="text-anchor: end; visibility: inherit; font-family: Roboto, sans-serif; font-size: 12px; font-weight: 200;" x="0" y="154.787499666214" dx="0em" dy="0.3em" fill="rgb(33, 33, 33)" stroke="none" stroke-width="1px">1.22</text><text style="text-anchor: end; visibility: hidden; font-family: Roboto, sans-serif; font-size: 12px; font-weight: 200;" x="0" y="132.6749997138977" dx="0em" dy="0.3em" fill="rgb(33, 33, 33)" stroke="none" stroke-width="1px">1.23</text><text style="text-anchor: end; visibility: inherit; font-family: Roboto, sans-serif; font-size: 12px; font-weight: 200;" x="0" y="110.56249976158142" dx="0em" dy="0.3em" fill="rgb(33, 33, 33)" stroke="none" stroke-width="1px">1.24</text><text style="text-anchor: end; visibility: hidden; font-family: Roboto, sans-serif; font-size: 12px; font-weight: 200;" x="0" y="88.44999980926514" dx="0em" dy="0.3em" fill="rgb(33, 33, 33)" stroke="none" stroke-width="1px">1.25</text><text style="text-anchor: end; visibility: inherit; font-family: Roboto, sans-serif; font-size: 12px; font-weight: 200;" x="0" y="66.33749985694885" dx="0em" dy="0.3em" fill="rgb(33, 33, 33)" stroke="none" stroke-width="1px">1.26</text><text style="text-anchor: end; visibility: hidden; font-family: Roboto, sans-serif; font-size: 12px; font-weight: 200;" x="0" y="44.22499990463257" dx="0em" dy="0.3em" fill="rgb(33, 33, 33)" stroke="none" stroke-width="1px">1.27</text><text style="text-anchor: end; visibility: inherit; font-family: Roboto, sans-serif; font-size: 12px; font-weight: 200;" x="0" y="22.112499952316284" dx="0em" dy="0.3em" fill="rgb(33, 33, 33)" stroke="none" stroke-width="1px">1.28</text><text style="text-anchor: end; visibility: hidden; font-family: Roboto, sans-serif; font-size: 12px; font-weight: 200;" x="0" y="0" dx="0em" dy="0.3em" fill="rgb(33, 33, 33)" stroke="none" stroke-width="1px">1.29</text></g><line x1="51.53200149536133" y1="0" x2="51.53200149536133" y2="176.89999961853027" fill="rgb(0, 0, 0)" stroke="rgb(204, 204, 204)" stroke-width="1px"></line></g></g><g transform="translate(51, 0)" clip-path="url(#clip_0)"><clipPath id="clip_0"><rect width="278" height="176"></rect></clipPath><g><g><g><line x1="0" y1="0" x2="0" y2="176.89999961853027" fill="rgb(0, 0, 0)" stroke="rgb(66, 66, 66)" stroke-width="1px" opacity="0.25"></line><line x1="27.846799850463867" y1="0" x2="27.846799850463867" y2="176.89999961853027" fill="rgb(0, 0, 0)" stroke="rgb(66, 66, 66)" stroke-width="1px" opacity="0.25"></line><line x1="55.693599700927734" y1="0" x2="55.693599700927734" y2="176.89999961853027" fill="rgb(0, 0, 0)" stroke="rgb(66, 66, 66)" stroke-width="1px" opacity="0.25"></line><line x1="83.5403995513916" y1="0" x2="83.5403995513916" y2="176.89999961853027" fill="rgb(0, 0, 0)" stroke="rgb(66, 66, 66)" stroke-width="1px" opacity="0.25"></line><line x1="111.38719940185547" y1="0" x2="111.38719940185547" y2="176.89999961853027" fill="rgb(0, 0, 0)" stroke="rgb(66, 66, 66)" stroke-width="1px" opacity="0.25"></line><line x1="139.23399925231934" y1="0" x2="139.23399925231934" y2="176.89999961853027" fill="rgb(0, 0, 0)" stroke="rgb(66, 66, 66)" stroke-width="1px" opacity="0.25"></line><line x1="167.0807991027832" y1="0" x2="167.0807991027832" y2="176.89999961853027" fill="rgb(0, 0, 0)" stroke="rgb(66, 66, 66)" stroke-width="1px" opacity="0.25"></line><line x1="194.92759895324707" y1="0" x2="194.92759895324707" y2="176.89999961853027" fill="rgb(0, 0, 0)" stroke="rgb(66, 66, 66)" stroke-width="1px" opacity="0.25"></line><line x1="222.77439880371094" y1="0" x2="222.77439880371094" y2="176.89999961853027" fill="rgb(0, 0, 0)" stroke="rgb(66, 66, 66)" stroke-width="1px" opacity="0.25"></line><line x1="250.6211986541748" y1="0" x2="250.6211986541748" y2="176.89999961853027" fill="rgb(0, 0, 0)" stroke="rgb(66, 66, 66)" stroke-width="1px" opacity="0.25"></line><line x1="278.4679985046387" y1="0" x2="278.4679985046387" y2="176.89999961853027" fill="rgb(0, 0, 0)" stroke="rgb(66, 66, 66)" stroke-width="1px" opacity="0.25"></line></g><g><line x1="0" y1="176.89999961853027" x2="278.4679985046387" y2="176.89999961853027" fill="rgb(0, 0, 0)" stroke="rgb(66, 66, 66)" stroke-width="1px" opacity="0.25"></line><line x1="0" y1="154.787499666214" x2="278.4679985046387" y2="154.787499666214" fill="rgb(0, 0, 0)" stroke="rgb(66, 66, 66)" stroke-width="1px" opacity="0.25"></line><line x1="0" y1="132.6749997138977" x2="278.4679985046387" y2="132.6749997138977" fill="rgb(0, 0, 0)" stroke="rgb(66, 66, 66)" stroke-width="1px" opacity="0.25"></line><line x1="0" y1="110.56249976158142" x2="278.4679985046387" y2="110.56249976158142" fill="rgb(0, 0, 0)" stroke="rgb(66, 66, 66)" stroke-width="1px" opacity="0.25"></line><line x1="0" y1="88.44999980926514" x2="278.4679985046387" y2="88.44999980926514" fill="rgb(0, 0, 0)" stroke="rgb(66, 66, 66)" stroke-width="1px" opacity="0.25"></line><line x1="0" y1="66.33749985694885" x2="278.4679985046387" y2="66.33749985694885" fill="rgb(0, 0, 0)" stroke="rgb(66, 66, 66)" stroke-width="1px" opacity="0.25"></line><line x1="0" y1="44.22499990463257" x2="278.4679985046387" y2="44.22499990463257" fill="rgb(0, 0, 0)" stroke="rgb(66, 66, 66)" stroke-width="1px" opacity="0.25"></line><line x1="0" y1="22.112499952316284" x2="278.4679985046387" y2="22.112499952316284" fill="rgb(0, 0, 0)" stroke="rgb(66, 66, 66)" stroke-width="1px" opacity="0.25"></line><line x1="0" y1="0" x2="278.4679985046387" y2="0" fill="rgb(0, 0, 0)" stroke="rgb(66, 66, 66)" stroke-width="1px" opacity="0.25"></line></g></g></g><g><g><line x1="0" y1="2852.512493848798" x2="278.4679985046387" y2="2852.512493848798" fill="rgb(0, 0, 0)" stroke="rgb(153, 153, 153)" stroke-width="1.5px"></line></g></g><g><g><line x1="27.846799850463867" y1="0" x2="27.846799850463867" y2="176.89999961853027" fill="rgb(0, 0, 0)" stroke="rgb(153, 153, 153)" stroke-width="1.5px"></line></g></g><g><g><g><g><g><path style="fill: none;" stroke="rgb(187, 187, 187)" stroke-width="2px" d="M28.841407342338865,188.14951182484455L29.087778005463864,60.323455610645354L29.32502382921387,98.52058450969314L29.562269652963867,54.841205936030455L29.799515476713868,117.10083851487958L30.045886139838867,149.42574282325418L30.31050648171387,125.44697458667734L30.56600198421387,82.70997579547655L30.821497486713866,122.19922910762557L31.08611782858887,104.98107214513463L31.323363652338866,100.64644214021922L31.587983994213868,104.57663952719503L31.825229817963866,73.36471994722632L32.06247564171387,73.30899799326289L32.308846304838866,73.9265984796232L32.56434180733887,42.26921999285279L32.801587631088864,78.21446322635698L33.05708313358887,118.53712821294592L33.29432895733887,51.01783688575051L33.531574781088864,107.18408643725202L33.768820604838865,138.56480921190735L34.006066428588866,91.2668339407297L34.24331225233887,80.48383760374382L34.48055807608887,25.321329437216217L34.71780389983887,6.5690473614149925L34.955049723588864,46.937202104817175L35.192295547338865,26.105205815061293L35.429541371088874,35.620114330824215L35.66678719483887,48.35688725420766L35.90403301858887,58.54260012142292L36.14127884233887,97.3631835870684L36.378524666088865,130.65446699382628L36.615770489838866,146.51705275383662L36.85301631358887,156.27311082215354L37.09026213733886,168.27224653875902L37.32750796108887,169.2701326503003L37.56475378483887,169.86886431637163L37.80199960858887,173.302540809603L38.039245432338866,169.34335279482804L38.27649125608887,167.18778911250195L38.51373707983887,171.74007867607648L38.75098290358886,83.78029120971063L38.988228727338864,110.25527305765739L39.22547455108887,132.4987530961309L39.46272037483887,140.3134263835112L39.69996619858887,142.84217388868777L39.94633686171387,150.84064619947597L40.192707524838866,154.26921245420888L40.42995334858887,155.1355058856411L40.66719917233887,156.77674834032197L40.91356983546387,153.4555099213878L41.15081565921386,154.28309247696953L41.38806148296386,154.67293610654238L41.63443214608886,152.2805274114845L41.88080280921386,148.8984375348374L42.136298311713865,151.81856614174038L42.382668974838865,150.22627783553202L42.63816447733887,147.19920762116675L42.87541030108886,155.52972688805596L43.12178096421386,31.223469125010748L43.35902678796387,71.53772149309047L43.60539745108887,109.86923367025946L43.85176811421387,128.244780829518L44.09813877733887,139.22181732277076L44.35363427983887,153.12540711428184L44.59088010358887,152.16221571239473L44.82812592733887,150.49362313542542L45.08362142983887,141.05869444744928L45.32999209296387,148.96035283842753L45.56723791671387,153.7091504786276L45.804483740463866,159.88128464735522L46.04172956421387,159.5455568975288L46.288100227338866,158.87195716748198L46.52534605108887,163.53569511515596L46.771716714213866,162.62643493059673L47.018087377338865,161.02436384373064L47.27358287983886,165.342532853772L47.510828703588864,162.4631750819877L47.748074527338865,160.71257436454562L48.01269486921387,162.66916943201383L48.268190371713864,162.9167252169776L48.51456103483886,163.08697945492992L48.751806858588864,165.27748884572983L48.989052682338865,161.79783141586316L49.24454818483886,161.69674905178073L49.509168526713864,165.34887461731398L49.75553918983886,162.02265338268631L50.00190985296386,160.48390027330183L50.239155676713864,160.32973226354906L50.49465117921387,160.63600786884757L50.750146681713865,160.19429949565887L50.987392505463866,163.0220586314121L51.22463832921387,160.73200440752518L51.47100899233887,160.79238601843053L51.717379655463866,164.49162199802547L51.95462547921387,162.77654154493538L52.19187130296387,141.70091240562707L52.43824196608887,103.28922237842276L52.684612629213866,101.66120429236028L52.94010813171387,121.67993985559934L53.17735395546387,138.79387438265064L53.42372461858887,146.55527900382327L53.660970442338865,153.27200965813256L53.898216266088866,156.38155146971837L54.144586929213865,156.9699689298388L54.390957592338864,153.8280847353698L54.628203416088866,157.4884979965932L54.874574079213865,157.67715661744666L55.120944742338864,157.0777841044607L55.37644024483887,161.05788548564894L55.62281090796387,158.74477099243043L55.86005673171387,158.82400303281474L56.10642739483887,162.12143293511838L56.35279805796387,158.85548549897808L56.61741839983887,157.48406479546318L56.86378906296387,160.75526062616822L57.11015972608887,159.97820914856564L57.34740554983887,159.9588355942236L57.58465137358886,161.945100260792L57.83102203671386,151.48208596975394L58.07739269983886,151.48832725016376L58.31463852358887,151.55301669467747L58.57013402608887,151.09752475179496L58.80737984983887,151.63654409465906L59.053750512963866,155.99854218897565L59.30012117608887,153.50714318194025L59.55561667858887,151.67109794311258L59.81111218108887,153.31071594447081L60.06660768358886,148.9227091031753L60.30385350733887,149.97948304677718L60.55022417046387,152.8558475608817L60.78746999421387,126.10763869707904L61.03384065733887,100.89634557781568L61.29846099921387,103.2478280399205L61.55395650171386,120.15933165001734L61.80032716483886,129.29147332403198L62.04669782796386,137.46413343325867L62.302193330463865,141.5847274815548L62.55768883296386,146.01448351301624L62.79493465671386,150.29802055524445L63.04130531983886,148.6937487780854L63.28767598296386,148.1445129280008L63.53404664608886,149.31855460753323L63.79866698796386,144.24441207514707L64.04503765108886,142.4280988553128L64.29140831421387,146.72906787647125L64.54690381671386,147.51863497933059L64.78414964046387,146.30764507252158L65.02139546421387,149.72760880820763L65.25864128796387,148.19566049885304L65.49588711171387,147.61263619826096L65.73313293546387,147.56016415609832L65.98862843796387,148.00548339807233L66.22587426171387,115.7870536801866L66.46312008546387,130.14089868323472L66.70949074858888,137.4001916956717L66.94673657233886,83.16009728704483L67.19310723546387,72.79631782239433L67.43947789858886,69.96501362297207L67.67672372233886,73.99123481030287L67.91396954608886,104.66758328741268L68.16034020921387,112.95952845048066L68.41583571171387,124.9585167678787L68.66220637483887,127.86015023465654L68.91770187733887,133.91027742495314L69.16407254046386,135.3145023273431L69.41044320358887,131.1888863061704L69.65681386671388,138.39718290183288L69.90318452983887,142.70782093540288L70.15868003233888,149.70668266982722L70.40505069546387,150.71494489634847L70.66054619796387,152.3766280896246L70.90691686108886,156.29033633590194L71.15328752421387,153.46100525693026L71.40878302671386,152.04746363007578L71.67340336858888,154.09937736688673L71.93802371046387,154.23773906080805L72.18439437358886,151.39224839781463L72.43988987608887,156.17250424466508L72.68626053921386,153.9331142953139L72.93263120233887,151.67299048812598L73.17900186546386,155.4495545279731L73.41624768921386,152.80153846609434L73.66261835233885,152.54296764522084L73.90898901546387,155.99979890742003L74.14623483921388,151.2653861838313L74.38348066296386,151.8424906890291L74.62985132608887,154.84227194397357L74.88534682858887,151.68052705254925L75.13171749171387,150.6750859698065L75.36896331546386,154.23630390471698L75.61533397858886,152.20306916905517L75.86170464171387,73.56504280029088L76.11720014421387,61.420565564669126L76.35444596796387,54.68195954724066L76.59169179171387,53.20479877701475L76.82893761546386,46.697041293179815L77.08443311796387,-5.454708677949562L77.32167894171386,54.606093440163185L77.55892476546387,97.66091301853564L77.79617058921386,121.64079137329195L78.03341641296386,136.00763026286978L78.27066223671387,151.14037870796142L78.51703289983887,154.57536981771392L78.76340356296387,154.99275615542965L79.01889906546387,122.24723411170888L79.28351940733886,78.09341282636831L79.53901490983887,68.11691644250753L79.77626073358886,108.46267985585509L80.01350655733887,131.66212561126792L80.26900205983887,144.59655594505864L80.52449756233887,156.7728562781071L80.77086822546386,160.87260909627648L81.01723888858886,160.24199632107195L81.25448471233888,165.19238652657623L81.50085537546387,164.9471036127459L81.73810119921387,161.09011121772372L81.97534702296386,163.76346781673078L82.21259284671387,98.4114250872527L82.46808834921386,89.13057281527558L82.70533417296387,94.58925199437286L82.94257999671386,96.51460873093072L83.18895065983887,104.97306162583001L83.45357100171387,114.60105917807039L83.70906650421387,73.8658930117403L83.94631232796387,98.12865754293055L84.18355815171387,121.15973507519769L84.42080397546385,127.27931866770176L84.65804979921387,58.34318421510535L84.92267014108886,79.39538935999981L85.16904080421386,35.92808690796551L85.41541146733886,9.406541897809896L85.65265729108887,35.59647477483242L85.89902795421388,76.28109215346012L86.13627377796386,95.03455174936833L86.39176928046388,118.07994956781617L86.63813994358887,128.51157864897388L86.87538576733887,42.568430866387644L87.11263159108887,52.763328835428396L87.36812709358887,69.47494075074441L87.60537291733887,80.31253535866588L87.84261874108887,93.73958828234515L88.10723908296387,108.51976814312373L88.35360974608888,71.08257497002205L88.61823008796387,68.52112100177739L88.85547591171387,83.26870829583548L89.09272173546387,96.4496047181038L89.32996755921387,89.10025273753791L89.57633822233886,38.1704524834467L89.83183372483887,70.61608207424209L90.07820438796386,97.2489932366914L90.33369989046388,110.4670393099288L90.58919539296386,49.10566796846703L90.83556605608888,65.25778232716081L91.10018639796387,81.00028791644216L91.34655706108887,65.35071369026866L91.61117740296386,69.31692115022292L91.85754806608887,92.97498377420418L92.11304356858886,102.05131206702842L92.37766391046387,118.00489910871707L92.64228425233887,123.58274990401182L92.89777975483887,128.23186287471813L93.16240009671387,134.15101903254188L93.39964592046387,129.77232396927442L93.63689174421387,125.08732786203639L93.90151208608887,136.91865771319158L94.15700758858887,123.10183319622429L94.39425341233887,75.70697708908506L94.63149923608887,82.09267050932405L94.87786989921386,93.66026458528991L95.12424056233887,91.06645873529786L95.37973606483887,87.67213440056118L95.62610672796387,108.78650329464186L95.87247739108886,119.44985498876966L96.13709773296387,131.35123353659893L96.39259323546386,134.46781410052657L96.64808873796386,140.75909836494196L96.88533456171386,145.44993699870295L97.13170522483887,143.65837229300269L97.37807588796386,145.80696399356071L97.61532171171388,147.40632530728672L97.85256753546386,147.64831326043787L98.11718787733888,145.44365645567748L98.37268337983886,147.37876653773932L98.61905404296387,16.659559886860464L98.85629986671387,67.38541011904464L99.10267052983887,99.63449886009617L99.33991635358886,117.2332161103486L99.57716217733888,131.2464701718853L99.81440800108886,131.2311935286519L100.06990350358888,60.84442285228919L100.31627416671387,53.707426083720634L100.57176966921386,1.9655630648787066L100.81814033233886,61.85158929500673L101.08276067421387,101.78277849362063L101.32000649796386,130.26130947454655L101.58462683983888,142.3503319654435L101.83099750296387,151.82980775300237L102.08649300546388,160.26042542005504L102.34198850796386,163.40441618928605L102.58835917108887,84.8105187425403L102.83472983421386,2.7442683596076245L103.08110049733887,19.200348571753093L103.33659599983886,31.26020243906927L103.58296666296387,5.6562130253513265L103.83846216546387,-0.8095231751758852L104.07570798921387,-16.39434948233392L104.31295381296387,53.3951072886944L104.55019963671387,24.486073812755755L104.80569513921387,78.8664221386535L105.06119064171388,77.13322130571703L105.31668614421386,37.229787539274334L105.57218164671386,83.8099964955051L105.83680198858887,118.6876791777565L106.08317265171387,135.21108864706602L106.32041847546387,143.6624620982243L106.56678913858886,152.9137957271651L106.80403496233886,154.30158948860299L107.05040562546387,156.69183453063542L107.29677628858887,158.6730074736358L107.54314695171388,157.27778349442042L107.79864245421386,156.7390460512475L108.04501311733887,161.12773385014634L108.29138378046386,157.61418035697994L108.53775444358887,155.6762294159181L108.79324994608886,109.76066539729536L109.04874544858886,113.49492522245615L109.31336579046386,83.59296362018422L109.55973645358887,105.49610853907153L109.79698227733887,31.545100766446136L110.05247777983887,31.06141121514175L110.30797328233886,58.11469076779448L110.57259362421387,73.61722031526737L110.82808912671388,99.73546195024399L111.07445978983887,111.75773984200616L111.32083045296388,116.49325209212705L111.56720111608887,120.17091441132769L111.81357177921387,126.50108342824855L112.05994244233887,26.05932619744759L112.32456278421387,6.970941367798935L112.58005828671386,20.956513577918845L112.81730411046387,14.770269926949865L113.05454993421387,1.7603484214888954L113.31004543671388,0.6148683737226085L113.56554093921386,24.39992564446344L113.80278676296388,30.394715145985653L114.04915742608887,28.907242325041285L114.31377776796387,20.981869519909363L114.56014843108886,24.202595822300847L114.81564393358887,4.056399177401213L115.07113943608887,-1.9185045155073135L115.31751009921388,6.310119927995328L115.57300560171387,58.31155724037119L115.81937626483888,-34.94504456037943L116.30299275171387,-2.973003559020634L116.54023857546386,8.108037590686031L116.79573407796387,-16.22495403051166L117.03297990171386,-13.2174313551179L117.29760024358887,16.26102642528983L117.54397090671387,42.76778689128051L117.78121673046387,-16.18045039749516L118.03671223296386,29.815335027721897L118.29220773546388,69.5429056724733L118.53857839858887,98.01356314923858L118.78494906171387,92.53588335457022L119.03131972483887,94.14235272151274L119.26856554858887,118.4906433612665L119.51493621171386,126.37545875731529L119.77043171421387,126.17299243574283L120.01680237733886,128.72253433694513L120.27229787983887,125.82691680818583L120.51866854296387,71.77813681110652L120.76503920608887,53.44206159824909L121.02053470858887,47.663522843548975L121.28515505046386,70.62045069932813L121.52240087421387,32.85122738268634L121.76877153733888,-4.283929136588716L122.00601736108887,13.696843672962569L122.26151286358888,28.362147941764135L122.49875868733886,12.136054611346395L122.75425418983887,11.550957065042944L123.00974969233887,60.38393933524515L123.24699551608887,80.16940011890688L123.49336617921387,98.28592429730855L123.73061200296387,115.00842565715423L123.98610750546386,120.77769706541005L124.24160300796387,74.83400469921364L124.49709851046387,45.819246091663715L124.76171885233886,50.19168081527606L125.00808951546387,85.49034514076499L125.27270985733887,47.093064906399704L125.52820535983886,43.96357218824209L125.77457602296386,79.20476938539989L126.02094668608888,92.89357083821125L126.26731734921387,45.72205914382214L126.51368801233887,34.884757586885804L126.76918351483886,48.965228495088006L127.02467901733887,70.06996998660142L127.28017451983887,84.06094488543533L127.54479486171387,107.4546683860654L127.79116552483886,30.83664550362492L128.04666102733887,53.67258216174975L128.30215652983887,78.73052030324763L128.54852719296386,92.6821971766881L128.79489785608888,15.704296371724629L129.03214367983887,51.37595665312092L129.27851434296386,79.81584867794672L129.53400984546386,96.61301913339979L129.77125566921387,35.581537076104524L130.01762633233886,47.59523421604234L130.26399699546388,63.99133693015053L130.51949249796385,88.71531566041847L130.77498800046388,98.47273721986777L131.01223382421387,94.55094708598939L131.26772932671386,110.62151190579104L131.50497515046388,115.01269722070062L131.74222097421386,108.80684536985693L131.98859163733886,112.07910827495085L132.25321197921386,113.89147505535063L132.49958264233888,116.14232688473054L132.75507814483888,54.69535920351468L132.99232396858886,37.993750883680526L133.24781947108886,71.90714928142137L133.48506529483888,74.61202086238441L133.74056079733887,92.76486924090055L133.99605629983887,102.766448584528L134.25155180233887,114.23828801221234L134.50704730483886,119.4885382835576L134.75341796796388,125.51278876765889L134.99066379171387,135.7469009544745L135.2279096154639,123.17440031508788L135.48340511796385,122.18656481428401L135.72065094171387,109.45553975610224L135.96702160483886,120.8864928372676L136.20426742858888,120.27860375884576L136.45063809171387,117.04398761515367L136.69700875483886,125.70231956871835L136.94337941796385,129.1685143946857L137.18975008108887,136.3422783488307L137.42699590483886,140.44830836252294L137.67336656796388,83.21904110059646L137.91061239171387,69.15454805487919L138.15698305483886,94.25081850473487L138.40335371796385,110.26028777809736L138.64972438108887,16.363984134589888L138.89609504421387,38.39915769779322L139.13334086796388,71.2921067525532L139.37058669171387,70.12912425636993L139.60783251546388,85.83599673633888L139.87245285733889,38.326405003617666L140.13707319921386,72.06583079422849L140.37431902296385,-14.892199286481333L140.61156484671386,17.77408758563287L140.84881067046388,59.76122225999809L141.10430617296385,85.4073194775182L141.3415519967139,103.12837864852605L141.58792265983885,110.42466216762533L141.83429332296387,116.01035998033764L142.07153914671386,115.01172059857949L142.30878497046388,118.98212240221359L142.55515563358887,89.56094300930519L142.80152629671386,103.51912128313863L143.04789695983888,121.7645352280307L143.29426762296387,125.68332298828851L143.54063828608886,125.11874083906288L143.78700894921386,127.57079378388079L144.04250445171385,59.21250118429347L144.28887511483887,84.4367970032702L144.53524577796387,38.98118957911766L144.79986611983887,-24.573025684435844L145.04623678296386,-37.35868507090932L145.28348260671387,8.98187503801121L145.52072843046386,-37.529178846397414L146.00434491733887,-32.3709086847759L146.25071558046386,28.193627362540877L146.48796140421388,-44.01665676025263L146.73433206733887,27.024813491584784L146.9807027304639,43.62589711386729L147.22707339358885,84.56963976688739L147.48256889608885,113.4612703238519L147.73806439858888,127.10118769759954L147.99355990108887,138.9432948665458L148.23993056421386,146.99752471533617L148.50455090608887,151.94963228358566L148.75092156921386,152.5071502343578L148.99729223233888,155.0238600014277L149.26191257421388,155.20807555130355L149.50828323733884,153.32746428150372L149.75465390046386,157.4382308663279L149.99189972421385,155.36779197561137L150.24739522671388,155.3425242354427L150.48464105046386,159.7246590568647L150.72188687421385,156.2162416702214L150.97738237671385,157.20017953571266L151.21462820046386,162.02714622116784L151.46099886358886,156.63864612220814L151.71649436608888,158.3557721206542L151.97198986858888,160.7236673791225L152.21836053171387,158.7346658816974L152.46473119483886,156.64965913113068L152.72935153671386,156.4142590977656L152.97572219983888,154.15513885713233L153.23121770233885,154.46541757032773L153.47758836546387,158.48920147202247L153.71483418921386,159.05889367008209L153.95208001296385,156.71429296478078L154.20757551546387,159.74552808504677L154.46307101796387,159.95777592603605L154.71856652046387,157.10073342460183L154.97406202296386,159.9309984897318L155.21130784671388,158.74282609601556L155.47592818858885,158.05522840771718L155.71317401233887,160.31558941997895L155.95954467546386,159.44068258472893L156.20591533858885,156.60701074731574L156.44316116233887,159.25538954562415L156.70778150421387,156.38912902007613L156.94502732796386,149.16220931120503L157.18227315171387,156.85155978405433L157.42864381483886,158.5765189414097L157.67501447796386,156.9921386437037L157.93963481983886,160.09043013408314L158.2042551617139,158.79145856772095L158.45062582483885,158.01460620269697L158.71524616671385,157.92723747772075L158.97986650858888,155.6542368617656L159.24448685046386,154.5702758880659L159.49998235296388,159.75435037063318L159.75547785546388,153.82726894898602L160.00184851858887,151.9751513379364L160.26646886046385,155.81769181008505L160.51283952358887,158.04118329383036L160.75921018671386,155.23125107909928L161.01470568921386,159.87320490170762L161.25195151296387,137.48928030283125L161.51657185483887,145.11836897190852L161.75381767858886,151.1091481953165L162.00931318108888,153.68632466252416L162.25568384421385,156.02554397802822L162.50205450733887,160.6825512263612L162.73930033108886,158.8818643947407L162.99479583358888,158.77888680961377L163.25029133608888,161.72806249989316L163.48753715983887,161.3185321359453L163.75215750171387,157.53675740664747L163.9985281648389,163.0816857677794L164.23577398858887,161.5507827065857L164.49126949108887,161.62991998205982L164.75588983296387,164.9207557072019L165.0022604960889,161.05068377632753L165.24863115921386,159.29970699611866L165.49500182233888,161.7164301570432L165.74137248546387,163.42458268249626L165.9877431485889,162.771070466227L166.22498897233888,166.49747361227946L166.46223479608886,162.3744028072483L166.71773029858886,162.20823365432875L166.96410096171385,166.25192662385697L167.21959646421385,163.60433994535418L167.46596712733887,163.74206170963103L167.71233779046386,165.75552333535262L167.95870845358888,165.27444163637333L168.19595427733887,162.84302841090565L168.43320010108886,167.1245785126009L168.67044592483884,163.37065657175748L168.91681658796387,163.9234455654328L169.17231209046386,165.651363603746L169.4278075929639,163.3937278085482L169.67417825608885,162.17474296409415L169.91142407983887,164.67278725591692L170.17604442171387,160.71316400223603L170.41329024546388,160.15497539519117L170.67791058733886,163.7044945384139L170.92428125046388,164.3978939480153L171.16152707421386,163.55349646556604L171.39877289796388,161.5498121047292L171.66339323983885,162.17847235105467L171.90976390296387,163.49915113422082L172.14700972671386,165.26203383728443L172.39338038983885,166.12132421909467L172.63975105296387,165.10083954875313L172.87699687671386,167.88837598111394L173.13249237921386,166.665920277193L173.37886304233885,166.2806117701288L173.6161088660889,165.5574407498594L173.87160436858886,163.15348566124862L174.12709987108886,160.76826261640937L174.36434569483887,162.87445058783226L174.62896603671388,162.7566804148714L174.89358637858888,159.45152196301302L175.13995704171387,162.35960620454682L175.3772028654639,162.47476658269338L175.62357352858885,162.47427200277022L175.86081935233886,167.7527542732793L176.10719001546386,162.94536981874353L176.35356067858885,160.75769073906275L176.60905618108885,165.5758224900699L176.84630200483886,164.54873911721546L177.09267266796385,160.57146400576462L177.33904333108887,163.9120005769731L177.59453883358884,163.0234537686887L177.84090949671386,160.79589497848676L178.09640499921386,165.7174711677685L178.35190050171389,163.83111435194746L178.60739600421388,163.27289721556403L178.84464182796387,168.40738258661244L179.08188765171386,166.8651354246637L179.32825831483885,165.36197254973064L179.58375381733885,168.4621788601013L179.83924931983887,164.9505250042131L180.08561998296386,162.0871017087682L180.3411154854639,160.72670230226316L180.58748614858885,161.62070945604862L180.83385681171387,160.6465714780555L181.09847715358887,161.3763005338239L181.34484781671387,161.9069257096995L181.60034331921386,160.0597614360065L181.85583882171386,164.5467746206273L182.11133432421386,156.63840472299032L182.37595466608886,157.69873224107428L182.63145016858886,163.54453872604233L182.87782083171388,159.64840429726445L183.11506665546386,159.07326898341108L183.36143731858886,162.25243495699377L183.59868314233887,162.01717033506296L183.85417864483884,161.27710886086442L184.09142446858888,152.32317070952467L184.32867029233887,156.47673486498203L184.56591611608886,155.7921584679511L184.81228677921388,162.61927830054097L185.06778228171385,162.61833872879006L185.31415294483887,158.2569619734828L185.56052360796386,162.15404631904033L185.8251439498389,162.59626376262443L186.07151461296385,160.3303867919496L186.31788527608887,164.4478679868025L186.57338077858887,162.4377631512502L186.81975144171386,159.83482296411242L187.05699726546385,162.46073837199012L187.30336792858887,160.34839661819916L187.54973859171386,160.62527483343052L187.79610925483888,164.41244341030134L188.04247991796385,163.6611294411024L188.28885058108887,162.22932156478106L188.53522124421386,165.28398163779156L188.78159190733888,162.19586411512992L189.03708740983888,159.79006300923447L189.28345807296387,162.56399611967615L189.54807841483887,162.47129355458006L189.79444907796386,73.11759224058747L190.04081974108888,110.46477357881493L190.30544008296388,125.77165686853844L190.57006042483886,138.18543292210077L190.81643108796388,147.6045945556189L191.06280175108887,149.6548727238774L191.30004757483886,151.8350595784183L191.53729339858887,158.64590657879785L191.79278890108884,157.43339116221762L192.03915956421386,157.75353987662405L192.2946550667139,161.67042431951842L192.54102572983885,161.8758928480796L192.7782715535889,158.28576633753545L193.02464221671386,161.56188217479365L193.27101287983888,161.5996754472513L193.50825870358887,159.52682460078424L193.74550452733888,162.27657199769092L194.00100002983888,161.01288532401486L194.24737069296387,159.03430362582404L194.49374135608886,163.69446942889462L194.73098717983888,162.3220795827583L194.97735784296387,158.2207077930461L195.23285334546387,162.50407742413543L195.47009916921388,162.937239671226L195.72559467171385,160.20156910811616L195.98109017421385,162.42604152921749L196.23658567671387,159.72677788040065L196.47383150046386,158.50283288376943L196.71107732421387,162.1090342997019L196.95744798733887,159.98216558751443L197.21294348983886,155.89900427092599L197.45931415296388,161.91957395726683L197.69655997671387,160.76220404649294L197.95205547921387,159.69789641776634L198.21667582108887,159.00511536371093L198.48129616296387,159.83976156031525L198.73679166546387,159.59951262635718L198.98316232858886,157.52790879855078L199.22040815233888,157.50637060201603L199.45765397608886,157.33929350294702L199.70402463921386,162.70825201515166L199.94127046296384,161.6369287483998L200.1785162867139,162.79843461584824L200.41576211046387,163.52212005287808L200.68038245233888,162.48163885440124L200.93587795483887,160.23440816798956L201.19137345733887,159.22326884732692L201.44686895983887,159.48647034006657L201.69323962296386,159.3392460919059L201.93961028608888,162.43880313865122L202.19510578858888,161.38711106720572L202.45972613046388,161.59350519963087L202.69697195421386,164.6861276738892L202.94334261733889,160.6756179067431L203.18058844108887,161.23092807934498L203.41783426483886,164.57718523658943L203.65508008858887,161.42341047788787L203.90145075171387,162.36560027220224L204.13869657546388,162.6599317646934L204.39419207796388,160.59676108703775L204.63143790171387,160.88732585549326L204.86868372546385,164.71729088647157L205.10592954921387,162.51316646685217L205.37054989108884,161.00659249888074L205.62604539358887,163.0478154148322L205.88154089608886,160.54627778152394L206.13703639858886,161.43337428131986L206.38340706171388,163.19760034298443L206.64802740358888,160.9999188649268L206.88527322733887,160.4132787370045L207.1316438904639,163.88246259787283L207.37801455358886,160.76553964561245L207.62438521671388,159.53119279102987L207.87075587983887,162.00926493390475L208.10800170358885,159.2059404203484L208.36349720608885,159.84047605408955L208.60986786921387,162.10120362439486L208.85623853233886,161.28682875654107L209.12085887421387,159.70858050615465L209.37635437671386,163.6256071895457L209.63184987921386,161.74090628328204L209.88734538171386,161.98650754575212L210.12459120546387,162.6085619581783L210.36183702921386,162.4111499897842L210.61733253171386,160.87958766801884L210.85457835546384,162.53846246422484L211.10094901858886,160.25352976635773L211.34731968171388,158.48505902388365L211.60281518421385,160.0302577340871L211.84918584733887,159.4006516999707L212.09555651046387,159.10344471041552L212.33280233421388,162.06598559741835L212.58829783671388,161.71782730339345L212.82554366046386,159.82631097078192L213.0810391629639,159.86706404385527L213.34565950483886,159.91091696111312L213.58290532858888,159.27970102772056L213.82927599171384,161.67216174739156L214.0665218154639,160.70970768147393L214.33114215733886,159.31338341511392L214.58663765983889,160.37457435630716L214.83300832296385,158.76181881116577L215.08850382546387,158.49597822670833L215.32574964921386,162.26603476729434L215.56299547296388,160.78703562247296L215.80936613608887,155.55253040345343L216.0557367992139,159.19418948008774L216.30210746233885,155.667466736748L216.54847812546387,156.61005449070356L216.80397362796387,157.9267660941704L217.06859396983887,158.9913604213045L217.31496463296386,156.61219569554842L217.56133529608888,160.26060813264206L217.80770595921385,160.2309741450243L218.05407662233887,158.23365162052968L218.30957212483887,162.78788725430869L218.54681794858888,161.07231079195756L218.78406377233887,159.97189793910658L219.02130959608886,155.06534572452864L219.27680509858885,157.830602010309L219.53230060108888,158.7750792839518L219.78779610358887,160.69119465657266L220.04329160608887,160.00472098649874L220.28966226921386,158.8555959947233L220.52690809296385,161.31099282381635L220.77327875608887,159.8671108284953L221.01052457983886,157.66505990299694L221.27514492171386,161.3425580890549L221.52151558483888,161.9927535029163L221.76788624796384,159.98240967871968L222.02338175046387,162.31563399485555L222.27887725296387,160.8305024391393L222.5252479160889,158.87067741807894L222.77161857921385,162.0547518927677L223.01798924233887,160.97595510319996L223.26435990546386,159.1196949220427L223.51985540796386,163.69129684857361L223.75710123171385,161.52114704363615L224.02172157358888,161.27240891831298L224.25896739733886,160.2408389652486L224.50533806046386,160.3519678212271L224.75170872358888,158.3294447618552L224.98895454733886,161.09694683828639L225.23532521046388,157.7294068514342L225.4999455523389,152.5798271276216L225.73719137608887,154.58707868915698L225.99268687858887,155.88695882451884L226.22993270233886,153.72340665886372L226.48542820483888,158.7565626106419L226.73179886796385,159.31715924525466L226.98729437046387,157.97448085078284L227.23366503358886,162.3808034817773L227.4891605360889,161.93539788166407L227.73553119921385,161.3547850097141L227.97277702296387,159.55639793008243L228.22827252546386,157.33755261923247L228.48376802796386,154.70278853302943L228.73013869108888,158.37603599553748L228.97650935421387,157.12343018686374L229.22288001733887,155.884098410284L229.46012584108888,156.72864590825628L229.70649650421385,155.34398063041007L229.9437423279639,156.80061019545602L230.19923783046386,159.69736071912322L230.43648365421387,156.1389179913089L230.69197915671387,154.4585122924522L230.94747465921387,158.16979086231999L231.19384532233886,158.3659826139886L231.43109114608887,159.2569991455233L231.66833696983886,162.27473558019963L231.92383247233886,160.58095311499042L232.17020313546388,158.80846353518524L232.40744895921387,158.63847357050912L232.65381962233886,154.263604053508L232.89106544608887,156.75824603103615L233.1283112698389,157.28539930931996L233.37468193296385,154.89418712887698L233.63017743546385,154.7601752642787L233.88567293796388,159.17069487838913L234.14116844046387,160.0171353252432L234.39666394296387,158.5323828250011L234.63390976671386,159.03081688628285L234.89853010858886,158.39693874931928L235.14490077171388,154.62775045667843L235.40952111358888,158.1469138335269L235.66501661608888,156.5188549590925L235.92051211858887,153.39714661602406L236.16688278171387,157.6968261743181L236.4132534448389,157.18806737428307L236.66874894733888,156.38703031604152L236.92424444983885,158.76848817212326L237.18886479171388,158.61132513418022L237.43523545483885,156.0977978091849L237.67248127858886,158.2545863583342L237.91885194171388,156.49383395005373L238.17434744421388,154.18453710125482L238.42984294671388,157.8558909535746L238.67621360983887,158.94820269324893L238.93170911233886,156.87394306020073L239.17807977546389,156.2228070693598L239.44270011733886,155.16426461070236L239.67994594108887,155.35115418080875L239.92631660421387,158.69019254657476L240.17268726733886,155.6845536442726L240.43730760921386,150.7757332692586L240.69280311171386,155.3675471843463L240.94829861421385,152.2582393315599L241.21291895608886,151.5132774907777L241.45928961921388,155.2073751540282L241.71478512171387,148.87091271367478L241.97028062421387,153.0373935105542L242.21665128733886,154.85255062590804L242.47214678983886,155.42055736896893L242.72764229233886,125.67430329315489L242.97401295546385,136.41065842343247L243.22950845796385,135.17259876692412L243.47587912108887,114.016248760562L243.71312494483885,50.74152067295481L243.95949560796387,-58.48324794790242L244.1967414317139,-72.69299116621463L244.43398725546388,1.9700133646583216L244.67123307921386,15.604420149521196L244.91760374233888,55.90796976316048L245.17309924483885,66.81533681029782L245.41946990796387,91.13936465385846" fill="none"></path></g></g></g></g><g opacity="0.2"><g><g><g><path style="fill: none;" stroke="rgb(187, 187, 187)" stroke-width="2px" d="M29.087778005463864,-116.50599751382882L29.32502382921387,153.14308998939345L29.562269652963867,-8.843747346403838L30.045886139838867,197.4244584475429L30.31050648171387,89.69630789488019L30.56600198421387,18.83705046883239L30.821497486713866,181.3041698122419L31.08611782858887,79.18756886333836L31.323363652338866,94.14959232770184L31.587983994213868,110.46916372796157L31.825229817963866,26.560048415606904L32.06247564171387,73.22542921011474L32.308846304838866,74.85290512394455L32.56434180733887,-5.213954127512274L32.801587631088864,132.13035675404691L33.05708313358887,179.01979885836286L33.768820604838865,185.6356703331443L34.006066428588866,20.320072738221203L34.24331225233887,64.30937068899722L34.48055807608887,-57.42234812513208L34.71780389983887,-21.559358478785192L34.955049723588864,107.48941190905451L35.192295547338865,-5.1427817114555765L35.429541371088874,49.892475211319876L35.66678719483887,67.46204511876796L35.90403301858887,73.82116869266339L36.14127884233887,155.59405711715334L36.378524666088865,180.59139124551112L36.615770489838866,170.31093114843262L36.85301631358887,170.90719783406317L37.09026213733886,186.27095004683557L37.32750796108887,170.76696181427738L37.56475378483887,170.76696181427738L37.80199960858887,178.4530555453188L38.039245432338866,163.4045707755235L38.27649125608887,163.95444358994672L38.51373707983887,178.5685130202552L38.75098290358886,-48.1593899761234L38.988228727338864,149.96774582710094L39.22547455108887,165.8639731525938L39.46272037483887,152.03543631431847L39.69996619858887,146.6352951464018L39.94633686171387,162.83835466556133L40.192707524838866,159.41206183628373L40.42995334858887,156.43494603278617L40.66719917233887,159.23861202233815L40.91356983546387,148.4736522929922L41.15081565921386,155.52446631034235L41.38806148296386,155.2577015509002L41.63443214608886,148.6919143688994L41.88080280921386,143.82530271986704L42.136298311713865,156.19875905209432L42.382668974838865,147.83784537621904L42.63816447733887,142.6586022996191L42.87541030108886,168.02550578838978L43.12178096421386,-155.23591751955587L43.35902678796387,132.00910004520958L43.60539745108887,167.36650193601295L43.85176811421387,155.80810156840533L44.09813877733887,155.6873720626499L44.35363427983887,173.9807918015487L44.59088010358887,150.71742860956482L44.82812592733887,147.99073426997046L45.08362142983887,126.90630141548532L45.32999209296387,160.8128404248959L45.56723791671387,160.83234693892626L45.804483740463866,169.13948590044757L46.04172956421387,159.0419652727889L46.288100227338866,157.86155757241153L46.52534605108887,170.53130203666743L46.771716714213866,161.26254465375786L47.018087377338865,158.62125721343153L47.27358287983886,171.8197863688346L47.510828703588864,158.1441384243107L47.748074527338865,158.08667328838345L48.01269486921387,165.60406203321637L48.268190371713864,163.28805889442327L48.51456103483886,163.34236081185912L48.751806858588864,168.56325293192927L48.989052682338865,156.57834527106337L49.24454818483886,161.54512550565704L49.509168526713864,170.82706296561415L49.75553918983886,157.03332153074433L50.00190985296386,158.1757706092248L50.239155676713864,160.09848024891943L50.49465117921387,161.0954212767951L50.750146681713865,159.53173693587536L50.987392505463866,167.26369733504217L51.22463832921387,157.29692307169506L51.47100899233887,160.8829584347888L51.717379655463866,170.04047596741717L51.95462547921387,160.20392086529972L52.19187130296387,110.08746869666491L52.43824196608887,45.671687337616774L52.684612629213866,99.2191771632663L52.94010813171387,151.70804320045767L53.17735395546387,164.4647761732273L53.42372461858887,158.19738593558276L53.660970442338865,163.34710563959624L53.898216266088866,161.04586418709636L54.144586929213865,157.8525951200192L54.390957592338864,149.11525844366628L54.628203416088866,162.97911788842902L54.874574079213865,157.9601445487271L55.120944742338864,156.17872533498206L55.37644024483887,167.0280375574322L55.62281090796387,155.27509925260296L55.86005673171387,158.94285109339143L56.10642739483887,167.06757778857482L56.35279805796387,153.9565643447674L56.61741839983887,155.42693374019058L56.86378906296387,165.66205437222553L57.11015972608887,158.81263193216176L57.34740554983887,159.92977526271096L57.58465137358886,164.92449726064538L57.83102203671386,135.78756453319735L58.07739269983886,151.49768917077898L58.31463852358887,151.6500508614485L58.57013402608887,150.41428683747148L58.80737984983887,152.4450731089559L59.053750512963866,162.5415393304508L59.30012117608887,149.7700446713879L59.55561667858887,148.91703008487133L59.81111218108887,155.77014294650843L60.06660768358886,142.34069884123252L60.30385350733887,151.56464396218047L60.55022417046387,157.1703943320387L60.78746999421387,85.9853254013758L61.03384065733887,63.07940589892112L61.29846099921387,106.77505173307803L61.55395650171386,145.52658706516306L61.80032716483886,142.98968583505322L62.04669782796386,149.72312359709866L62.302193330463865,147.76561855399854L62.55768883296386,152.6591175602079L62.79493465671386,156.72332611858627L63.04130531983886,146.28734111234687L63.28767598296386,147.3206591528737L63.53404664608886,151.07961712683112L63.79866698796386,136.6331982765673L64.04503765108886,139.7036290255614L64.29140831421387,153.18052140820845L64.54690381671386,148.70298563361933L64.78414964046387,144.49116021230859L65.02139546421387,154.857554411737L65.25864128796387,145.89773803482169L65.49588711171387,146.7380997473726L65.73313293546387,147.48145609285365L65.98862843796387,148.67346226103285L66.22587426171387,67.45940910335845L66.46312008546387,151.67166618780647L66.70949074858888,148.2891312143267L66.94673657233886,1.799955674104773L67.19310723546387,57.250648625418556L67.43947789858886,65.71805732383793L67.67672372233886,80.0305665912988L67.91396954608886,150.68210600307742L68.16034020921387,125.39744619508333L68.41583571171387,142.95699924397533L68.66220637483887,132.21260043482354L68.91770187733887,142.985468210398L69.16407254046386,137.42083968092808L69.41044320358887,125.00046227441153L69.65681386671388,149.20962779532664L69.90318452983887,149.17377798575734L70.15868003233888,160.20497527146352L70.40505069546387,152.2273382361306L70.66054619796387,154.86915287953883L70.90691686108886,162.16089870531795L71.15328752421387,149.21700863847326L71.40878302671386,149.92715118979453L71.67340336858888,157.17724797210343L71.93802371046387,154.44528160169006L72.18439437358886,147.12401240332446L72.43988987608887,163.34288801494102L72.68626053921386,150.57402937128762L72.93263120233887,148.28280477734387L73.17900186546386,161.11440058774355L73.41624768921386,148.82951437327569L73.66261835233885,152.1551114139101L73.90898901546387,161.18504580071834L74.14623483921388,144.16376709844778L74.38348066296386,152.70814744682474L74.62985132608887,159.34194382639083L74.88534682858887,146.93790971541324L75.13171749171387,149.16692434569262L75.36896331546386,159.5781308070827L75.61533397858886,149.15321706556318L75.86170464171387,-44.391996752855555L76.11720014421387,43.20384971123603L76.35444596796387,44.57405052109793L76.59169179171387,50.98905762167492L76.82893761546386,36.93540506742765L77.08443311796387,-83.68233363464385L77.32167894171386,144.69729661733206L77.55892476546387,162.24314238609458L77.79617058921386,157.61060890542643L78.03341641296386,157.55788859723629L78.27066223671387,173.8395013755991L78.51703289983887,159.7278564823427L78.76340356296387,155.6188356620027L79.01889906546387,73.12895104612677L79.28351940733886,11.862680898357953L79.53901490983887,53.152171866716614L79.77626073358886,168.98132497587713L80.01350655733887,166.46129424438814L80.26900205983887,163.99820144574454L80.52449756233887,175.03730677767922L80.77086822546386,167.0222383235313L81.01723888858886,159.2960771582654L81.25448471233888,172.6179718348334L81.50085537546387,164.57917924199992L81.73810119921387,155.30462262518944L81.97534702296386,167.77350271524088L82.21259284671387,0.38336099303554544L82.46808834921386,75.20929440730994L82.70533417296387,102.77727076301926L82.94257999671386,99.402643835768L83.18895065983887,117.66074096817938L83.45357100171387,129.04305550643195L83.70906650421387,12.76314376224565L83.94631232796387,134.52280433971575L84.18355815171387,155.70635137359835L84.42080397546385,136.45869405645792L84.65804979921387,-45.06101746378851L84.92267014108886,110.97369707734127L85.16904080421386,-29.27286677008544L85.41541146733886,-30.375775617423297L85.65265729108887,74.88137409036723L85.89902795421388,137.30801822140117L86.13627377796386,123.16474114323064L86.39176928046388,152.64804629548797L86.63813994358887,144.15902227071066L86.87538576733887,-86.34629080749194L87.11263159108887,68.055675788989L87.36812709358887,94.54235862371843L87.60537291733887,96.56892727054765L87.84261874108887,113.88016766786403L88.10723908296387,130.69003793429212L88.35360974608888,14.926785210369248L88.61823008796387,64.67894004941014L88.85547591171387,105.39008923692289L89.09272173546387,116.22094935150649L89.32996755921387,78.07622476669007L89.57633822233886,-38.224247897690354L89.83183372483887,119.28452646043588L90.07820438796386,137.19835998036567L90.33369989046388,130.29410841978412L90.58919539296386,-42.93638904372562L90.83556605608888,89.48595386520151L91.10018639796387,104.61404630036395L91.34655706108887,41.87635235100815L91.61117740296386,75.2662323401553L91.85754806608887,128.46207771017654L92.11304356858886,115.66580450626428L92.37766391046387,141.9352796712503L92.64228425233887,131.9495260969547L92.89777975483887,135.20553233077814L93.16240009671387,143.02975326927773L93.39964592046387,123.20428137437325L93.63689174421387,118.05983370117879L93.90151208608887,154.66565248992487L94.15700758858887,102.37659642077415L94.39425341233887,4.614692928376677L94.63149923608887,91.67121063968307L94.87786989921386,111.01165569923818L95.12424056233887,87.1757499603093L95.37973606483887,82.58064789845616L95.62610672796387,140.4580566357624L95.87247739108886,135.4448825299614L96.13709773296387,149.20330135834382L96.39259323546386,139.14268494641826L96.64808873796386,150.19602476156427L96.88533456171386,152.48619494934422L97.13170522483887,140.97102523445253L97.37807588796386,149.02985154439824L97.61532171171388,149.8053672778753L97.85256753546386,148.01129519016462L98.11718787733888,142.13667124853666L98.37268337983886,150.2814316608323L98.61905404296387,-179.41925008945782L98.85629986671387,143.47418546732067L99.10267052983887,148.0081319716732L99.33991635358886,143.6312919857273L99.57716217733888,152.26635126419131L99.81440800108886,131.20827856380126L100.06990350358888,-44.73573316225531L100.31627416671387,43.00193093086777L100.57176966921386,-75.64723146338368L100.81814033233886,151.6806286401988L101.08276067421387,161.6795622915419L101.32000649796386,172.9791059459359L101.58462683983888,160.4838657017894L101.83099750296387,166.0490214343412L102.08649300546388,172.9063519206335L102.34198850796386,168.12040234313204L102.58835917108887,-33.08032742757779L102.83472983421386,-120.35510721479139L103.08110049733887,43.88446888997082L103.33659599983886,49.34998324004327L103.58296666296387,-32.749771095225576L104.07570798921387,-39.771588943071144L104.31295381296387,158.07929244523683L104.55019963671387,-18.877476401152457L104.80569513921387,160.43694462750017L105.06119064171388,74.53342005631227L105.31668614421386,-22.62536311038991L105.57218164671386,153.68030992985103L105.83680198858887,171.00420320113304L106.08317265171387,159.99620285103055L106.32041847546387,156.339522274962L106.56678913858886,166.79079617057656L106.80403496233886,156.38328013075983L107.05040562546387,160.27720209368402L107.29677628858887,161.64476688813642L107.54314695171388,155.1849475255978L107.79864245421386,155.93093988648837L108.04501311733887,167.7107655484946L108.29138378046386,152.34385011723083L108.53775444358887,152.7693030043253L108.79324994608886,40.88731936936101L109.04874544858886,119.09631496019706L109.31336579046386,38.740021216776356L109.55973645358887,138.35082591740226L109.79698227733887,-79.38141089249173L110.05247777983887,30.335876888185172L110.30797328233886,98.69461009677434L110.57259362421387,96.87101463647718L110.82808912671388,138.91282440270922L111.07445978983887,129.79115667965013L111.32083045296388,123.59652046730794L111.56720111608887,125.68740789012914L111.81357177921387,135.99633695363033L112.05994244233887,-124.60330964875337L112.32456278421387,-21.661635876674076L112.58005828671386,41.93487189309921L112.81730411046387,5.490904450496906L113.05454993421387,-17.754533836702343L113.31004543671388,-1.1033516979265765L113.56554093921386,60.077511550574194L113.80278676296388,39.38689939826945L114.04915742608887,26.676033093625225L114.31377776796387,9.093810312211495L114.56014843108886,29.033685275888562L114.81564393358887,-26.162895789948717L115.07113943608887,-10.880860054871086L115.31751009921388,18.65305659324878L115.57300560171387,136.313713208935L115.81937626483888,-174.8299472615056L116.05662208858887,-103.38602161762908L116.30299275171387,86.04964417736778L116.54023857546386,24.72959931524503L116.79573407796387,-52.72444146230816L117.03297990171386,-8.706147342027556L117.29760024358887,60.478713095901206L117.54397090671387,82.52792759026602L117.78121673046387,-104.60280633065766L118.03671223296386,98.80901316554696L118.29220773546388,129.1342616396009L118.53857839858887,140.71954936438553L118.78494906171387,84.31936366256718L119.03131972483887,96.5520567719268L119.26856554858887,155.01307932089793L119.51493621171386,138.20268185138795L119.77043171421387,125.86929295338514L120.01680237733886,132.54684718874907L120.27229787983887,121.48349051504688L120.51866854296387,-9.295033184511489L120.76503920608887,25.93794877896318L121.02053470858887,38.995714711498564L121.28515505046386,105.05584248299736L121.52240087421387,-23.802607592275873L121.76877153733888,-59.98666391550079L122.00601736108887,40.66800288729L122.26151286358888,50.36010434496647L122.49875868733886,-12.203085384279952L122.75425418983887,10.673310745588275L123.00974969233887,133.63341274054798L123.24699551608887,109.84759129439975L123.49336617921387,125.46071056491151L123.73061200296387,140.0921776969228L123.98610750546386,129.43160417779333L124.24160300796387,5.9184661499189914L124.49709851046387,2.2971081803378515L124.76171885233886,56.75033290069407L125.00808951546387,138.4383416289979L125.27270985733887,-10.502855445147738L125.52820535983886,39.26933311100542L125.77457602296386,132.06656518113684L126.02094668608888,113.42677301742877L126.26731734921387,-25.03520839776149L126.51368801233887,18.628805251481314L126.76918351483886,70.08593485739154L127.02467901733887,101.72708222387155L127.28017451983887,105.04740723368694L127.54479486171387,142.5452536370103L127.79116552483886,-84.09038882003559L128.04666102733887,87.92648714893699L128.30215652983887,116.31742751549446L128.54852719296386,113.60971248684858L128.79489785608888,-99.76255483572034L129.03214367983887,104.8834470752156L129.27851434296386,122.47568671518543L129.53400984546386,121.80877481658008L129.77125566921387,-55.96568600983834L130.01762633233886,65.61577992594904L130.26399699546388,88.58549100131381L130.51949249796385,125.80128375581985L130.77498800046388,113.10886955904219L131.01223382421387,88.66826188517234L131.26772932671386,134.72735913549351L131.50497515046388,121.5994751930652L131.74222097421386,99.49806759359217L131.98859163733886,116.98750263259122L132.25321197921386,116.61002522594977L132.49958264233888,119.51860462880013L132.75507814483888,-37.47509231830838L132.99232396858886,12.941338403928343L133.24781947108886,122.77724687803307L133.48506529483888,78.66932823382922L133.74056079733887,119.99414180867525L133.99605629983887,117.76881759996918L134.25155180233887,131.44604715373882L134.50704730483886,127.36391369057579L134.75341796796388,134.54916449381082L134.99066379171387,151.09806923469768L135.2279096154639,104.31564935600773L135.48340511796385,120.70481156307842L135.72065094171387,90.35900216883033L135.96702160483886,138.03292245901568L136.20426742858888,119.36677014121251L136.45063809171387,112.19206339961555L136.69700875483886,138.6898174990649L136.94337941796385,134.36780663363672L137.18975008108887,147.1029242800484L137.42699590483886,146.60735338306102L137.67336656796388,-2.624859792294195L137.91061239171387,48.05780848630279L138.15698305483886,131.89522417951886L138.40335371796385,134.27449168814016L138.64972438108887,-124.48047133067033L138.89609504421387,71.45191804259822L139.13334086796388,120.63153033469412L139.37058669171387,68.38465051209552L139.60783251546388,109.3963054562921L139.87245285733889,-32.9379825954644L140.13707319921386,122.67496948014418L140.37431902296385,-145.32924440754553L140.61156484671386,66.77351789380465L140.84881067046388,122.74192427154567L141.10430617296385,123.87646530379762L141.3415519967139,129.7099674050373L141.58792265983885,121.36908744627426L141.83429332296387,124.38890669940584L142.07153914671386,113.51376152594251L142.30878497046388,124.93772510766526L142.55515563358887,45.4291739199421L142.80152629671386,124.45638869388922L143.04789695983888,149.13265614536903L143.29426762296387,131.56150462867524L143.54063828608886,124.27186761522371L143.78700894921386,131.24887320110767L144.04250445171385,-43.324937715086996L144.28887511483887,122.27324073173527L144.53524577796387,-29.202221557110644L145.04623678296386,-56.53717415061953L145.28348260671387,78.49271520139223L145.52072843046386,-107.29575967301032L146.00434491733887,-29.310825391982345L146.25071558046386,119.04043143351551L146.48796140421388,-152.33208294444265L146.73433206733887,133.58701886934065L146.9807027304639,68.52752254729081L147.22707339358885,145.98525374641733L147.48256889608885,156.79871615929818L147.73806439858888,147.56106375822077L147.99355990108887,156.70645561996542L148.23993056421386,159.078869488522L148.50455090608887,159.37779363596013L148.75092156921386,153.343427160516L148.99729223233888,158.79892465203233L149.26191257421388,155.48439887611784L149.50828323733884,150.50654737680424L149.75465390046386,163.60438074356415L149.99189972421385,152.2621336395361L150.24739522671388,155.30462262518944L150.48464105046386,166.2978612889987L150.72188687421385,150.95361559025667L150.97738237671385,158.67608633394929L151.21462820046386,169.26759624934962L151.46099886358886,148.55589597376883L151.71649436608888,160.93146111832374L151.97198986858888,164.2755102668247L152.21836053171387,155.75116363555998L152.46473119483886,153.5221490052806L152.72935153671386,156.06115904771804L152.97572219983888,150.76645849618166L153.23121770233885,154.9308356401213L153.47758836546387,164.52487732456407L153.71483418921386,159.91343196717202L153.95208001296385,153.1973919068293L154.20757551546387,164.29238076544556L154.46307101796387,160.27614768752022L154.71856652046387,152.81516967245074L154.97406202296386,164.17639608742724L155.21130784671388,156.96056750544193L155.47592818858885,157.0238318752701L155.71317401233887,163.70613093837113L155.95954467546386,158.12832233185367L156.20591533858885,152.35650299119646L156.44316116233887,163.2279577430865L156.70778150421387,152.08973823175432L156.94502732796386,138.32182974789768L157.18227315171387,168.38558549332848L157.42864381483886,161.16395767744228L157.67501447796386,154.61556819714423L157.93963481983886,164.73786736965226L158.2042551617139,156.8430012181779L158.45062582483885,156.84932765516072L158.71524616671385,157.79618439025575L158.97986650858888,152.24473593783335L159.24448685046386,152.9443344275166L159.49998235296388,167.5304620944843L159.75547785546388,144.93664681651532L160.00184851858887,149.196974921361L160.26646886046385,161.58150251830824L160.51283952358887,161.37642051944857L160.75921018671386,151.01635275700295L161.01470568921386,166.83613563562008L161.25195151296387,103.91339340451691L161.51657185483887,156.56200197552442L161.75381767858886,160.09531703042802L162.00931318108888,157.55208936333537L162.25568384421385,159.53437295128487L162.50205450733887,167.6680620988606L162.73930033108886,156.18083414730967L162.99479583358888,158.62442043192294L163.25029133608888,166.15182603531198L163.48753715983887,160.7042365900242L163.75215750171387,151.8640953127005L163.9985281648389,171.39907830947723L164.23577398858887,159.2544281147952L164.49126949108887,161.748625895271L164.75588983296387,169.85700929491546L165.0022604960889,155.24557588001647L165.24863115921386,156.67324182580563L165.49500182233888,165.34151489842944L165.74137248546387,165.98681147067683L165.9877431485889,161.79080214182312L166.22498897233888,172.08707833135864L166.46223479608886,156.189796599702L166.71773029858886,161.9589799249497L166.96410096171385,172.31746607814958L167.21959646421385,159.63295992760044L167.46596712733887,163.9486443560458L167.71233779046386,168.77571577393556L167.95870845358888,164.55281908790485L168.19595427733887,159.19590857270413L168.43320010108886,173.5469036651438L168.67044592483884,157.7397736604923L168.91681658796387,164.7526290559455L169.17231209046386,168.24324066121508L169.4278075929639,160.00727411575048L169.67417825608885,160.34626569741312L169.91142407983887,168.41985369365207L170.17604442171387,154.77372912171467L170.41329024546388,159.31769248462336L170.67791058733886,169.02877325324826L170.92428125046388,165.4379930624174L171.16152707421386,162.2869002418924L171.39877289796388,158.54428556347392L171.66339323983885,163.1214627205424L171.90976390296387,165.48016930896952L172.14700972671386,167.90635789188005L172.39338038983885,167.41025979181077L172.63975105296387,163.57011254324055L172.87699687671386,172.0696806296559L173.13249237921386,164.83223672131263L173.37886304233885,165.70264900953194L173.6161088660889,164.47268421945583L173.87160436858886,159.5475530283324L174.12709987108886,157.19042804915097L174.36434569483887,166.03373254496606L174.62896603671388,162.5800251554296L174.89358637858888,154.493784285225L175.13995704171387,166.72173256684746L175.3772028654639,162.647507149913L175.62357352858885,162.47353013288551L175.86081935233886,175.67047767904288L176.10719001546386,155.73429313693913L176.35356067858885,157.47617211954156L176.60905618108885,172.80302011658083L176.84630200483886,163.0081140579336L177.09267266796385,154.6055513385881L177.33904333108887,168.92280543378607L177.59453883358884,161.69063355626184L177.84090949671386,157.4545567931836L178.09640499921386,173.09983545169135L178.35190050171389,161.00157912821663L178.60739600421388,162.4355715109886L178.84464182796387,176.1091106431849L179.08188765171386,164.55176468174105L179.32825831483885,163.10722823733107L179.58375381733885,173.11248832565698L179.83924931983887,159.68304422038108L180.08561998296386,157.79196676560053L180.3411154854639,158.6861031925054L180.58748614858885,162.96172018672627L180.83385681171387,159.1853645110661L181.09847715358887,162.470894117476L181.34484781671387,162.70286347351265L181.60034331921386,157.28901502546654L181.85583882171386,171.277294397558L182.11133432421386,144.77584987653537L182.37595466608886,159.28922351820069L182.63145016858886,172.31324845349437L182.87782083171388,153.80420265409788L183.11506665546386,158.2105660126303L183.36143731858886,167.0211839173675L183.59868314233887,161.66427340216677L183.85417864483884,160.16701664956662L184.09142446858888,138.89226348251506L184.32867029233887,162.70708109816786L184.56591611608886,154.76529387240424L184.81228677921388,172.85995804942618L185.06778228171385,162.6169293711627L185.31415294483887,151.71489684052239L185.56052360796386,167.9996728373766L185.8251439498389,163.2595899280006L186.07151461296385,156.93157133593735L186.31788527608887,170.62408977908208L186.57338077858887,159.42260589792176L186.81975144171386,155.93041268340647L187.05699726546385,166.39961148380567L187.30336792858887,157.17988398751294L187.54973859171386,161.04059215627734L187.79610925483888,170.0931962756073L188.04247991796385,162.53415848730418L188.28885058108887,160.08160975029858L188.53522124421386,169.86597174730778L188.78159190733888,157.5636878311372L189.03708740983888,156.18136135039157L189.28345807296387,166.72489578533887L189.54807841483887,162.33223970693592L189.79444907796386,-60.91295973040166L190.04081974108888,166.4855455861556L190.30544008296388,148.73198180312392L190.57006042483886,156.8060970024448L190.81643108796388,161.73333700589586L191.06280175108887,152.7302899762646L191.30004757483886,155.10533986023069L191.53729339858887,168.8621770793674L191.79278890108884,155.6146180373475L192.03915956421386,158.23376294823396L192.2946550667139,167.54575098385945L192.54102572983885,162.1840956409216L192.7782715535889,152.90057657171877L193.02464221671386,166.47605593068138L193.27101287983888,161.65636535593825L193.50825870358887,156.41754833108342L193.74550452733888,166.40119309305138L194.00100002983888,159.1173553135008L194.24737069296387,156.06643107853705L194.49374135608886,170.68471813350075L194.73098717983888,160.2634948135546L194.97735784296387,152.06865010847827L195.23285334546387,168.92913187076888L195.47009916921388,163.5869830418614L195.72559467171385,156.09806326345114L195.98109017421385,165.7627501608687L196.23658567671387,155.67788240717567L196.47383150046386,156.66691538882282L196.71107732421387,167.51833642360057L196.95744798733887,156.79186251923346L197.21294348983886,149.7742622960431L197.45931415296388,170.9504284867791L197.69655997671387,159.02614918033186L197.95205547921387,158.1014349746767L198.21667582108887,157.96594378262802L198.48129616296387,161.09173085522178L198.73679166546387,159.23913922542005L198.98316232858886,154.4205030568407L199.22040815233888,157.47406330721395L199.45765397608886,157.08867785434398L199.70402463921386,170.76168978345837L199.94127046296384,160.02994384827224L200.1785162867139,164.54069341702112L200.41576211046387,164.6076482084226L200.68038245233888,160.9209170566857L200.93587795483887,156.86356213837206L201.19137345733887,157.7065598663325L201.44686895983887,159.88127257917603L201.69323962296386,159.1184097196646L201.93961028608888,167.08813870876898L202.19510578858888,159.80957296003743L202.45972613046388,161.90309639826813L202.69697195421386,169.32506138527688L202.94334261733889,154.65985325602395L203.18058844108887,162.06389333824808L203.41783426483886,169.59657097245613L203.65508008858887,156.692748339836L203.90145075171387,163.77888496367353L204.13869657546388,163.10142900343016L204.39419207796388,157.50200507055473L204.63143790171387,161.32317300817652L204.86868372546385,170.46223843293834L205.10592954921387,159.20697983742406L205.37054989108884,158.74673154692408L205.62604539358887,166.10964978875987L205.88154089608886,156.79397133156107L206.13703639858886,162.76401903101322L206.38340706171388,165.84393943548153L206.64802740358888,157.7033966478411L206.88527322733887,159.53331854512106L207.1316438904639,169.08623838917552L207.37801455358886,156.09015521722262L207.62438521671388,157.67967250915552L207.87075587983887,165.7263731482175L208.10800170358885,155.0009536500142L208.36349720608885,160.79227950470175L208.60986786921387,165.49229497985326L208.85623853233886,160.06526645475964L209.12085887421387,157.34120813057478L209.37635437671386,169.50114721463197L209.63184987921386,158.91385492388684L209.88734538171386,162.35490943945769L210.12459120546387,163.54164357681788L210.36183702921386,162.11503203719252L210.61733253171386,158.58224418537083L210.85457835546384,165.02677465853426L211.10094901858886,156.82613071955706L211.34731968171388,155.8323529101728L211.60281518421385,162.34805579939297L211.84918584733887,158.45624264879638L212.09555651046387,158.65763422608273L212.33280233421388,166.50979692792308L212.58829783671388,161.19558986235637L212.82554366046386,156.9890364718646L213.0810391629639,159.92819365346526L213.34565950483886,159.9766963370002L213.58290532858888,158.33287712763143L213.82927599171384,165.2608528268985L214.0665218154639,159.26602658259702L214.33114215733886,157.21889701557365L214.58663765983889,161.9663607680963L214.83300832296385,156.34268549345342L215.08850382546387,158.09721735002148L215.32574964921386,167.9211195781733L215.56299547296388,158.5685369052414L215.80936613608887,147.70077257492466L216.0557367992139,164.65667809503944L216.30210746233885,150.37738262173838L216.54847812546387,158.02393612163718L216.80397362796387,159.90183349937018L217.06859396983887,160.5882519120059L217.31496463296386,153.04344860691407L217.56133529608888,165.73322678828222L217.80770595921385,160.18652316359697L218.05407662233887,155.23766783378795L218.30957212483887,169.6192407049779L218.54681794858888,158.4989460984304L218.78406377233887,158.3212786598296L219.02130959608886,147.70551740266177L219.27680509858885,161.97848643898004L219.53230060108888,160.191795194416L219.78779610358887,163.56536771550344L220.04329160608887,158.97501048138741L220.28966226921386,157.1319085070599L220.52690809296385,164.99408806745637L220.77327875608887,157.70128783551348L221.01052457983886,154.36198351474962L221.27514492171386,166.85880536814184L221.52151558483888,162.96804662370909L221.76788624796384,156.96689394242475L222.02338175046387,165.81547046905885L222.27887725296387,158.60280510556498L222.5252479160889,155.93093988648837L222.77161857921385,166.83086360480107L223.01798924233887,159.35775991884788L223.26435990546386,156.3353046503068L223.51985540796386,170.54869973837017L223.75710123171385,158.26592233622995L224.02172157358888,160.89930173032775L224.25896739733886,158.69348403565203L224.50533806046386,160.5186611051949L224.75170872358888,155.2956601727971L224.98895454733886,165.24819995293288L225.23532521046388,152.67809687115636L225.4999455523389,144.8554575419025L225.73719137608887,157.5979560314608L225.99268687858887,157.83677902756216L226.22993270233886,150.47807841038156L226.48542820483888,166.3062965383091L226.73179886796385,160.1580541971743L226.98729437046387,155.96046325907486L227.23366503358886,168.99028742826945L227.4891605360889,161.26728948149497L227.73553119921385,160.4838657017894L227.97277702296387,156.85881731063495L228.22827252546386,154.00928465295755L228.48376802796386,150.7506424037246L228.73013869108888,163.88590718929953L228.97650935421387,155.24452147385267L229.22288001733887,154.0251007454146L229.46012584108888,157.9954671552145L229.70649650421385,153.2669827136403L229.9437423279639,158.98555454302544L230.19923783046386,164.04248650462426L230.43648365421387,150.80125389958715L230.69197915671387,151.9379037441667L230.94747465921387,163.73670871712142L231.19384532233886,158.66027024149224L231.43109114608887,160.5935239428249L231.66833696983886,166.80134023221459L231.92383247233886,158.04027941717612L232.17020313546388,156.14972916547748L232.40744895921387,158.38348862349397L232.65381962233886,147.70129977800656L232.89106544608887,160.50020899732834L233.1283112698389,158.07612922674542L233.37468193296385,151.30736885821256L233.63017743546385,154.55915746738077L233.88567293796388,165.78647429955427L234.14116844046387,161.28679599552532L234.39666394296387,156.3052540746384L234.63390976671386,159.77846797820524L234.89853010858886,157.44612154387318L235.14490077171388,148.9739680177167L235.40952111358888,163.42565889879955L235.66501661608888,154.07676664744093L235.92051211858887,148.71458410142117L236.16688278171387,164.14634551175885L236.4132534448389,156.42492917423004L236.66874894733888,155.1854747286797L236.92424444983885,162.34067495624635L237.18886479171388,158.37558057726545L237.43523545483885,152.32750682169188L237.67248127858886,161.4897691820574L237.91885194171388,153.8527053376328L238.17434744421388,150.72059182805623L238.42984294671388,163.36292173205328L238.67621360983887,160.58667030276018L238.93170911233886,153.76255361062766L239.17807977546389,155.24610308309838L239.44270011733886,153.57645092271645L239.67994594108887,155.63148853596834L239.92631660421387,163.6987500952245L240.17268726733886,151.1760952908191L240.43730760921386,143.4125027067382L240.69280311171386,162.2552680569783L240.94829861421385,147.59427755238056L241.21291895608886,150.39583472960493L241.45928961921388,160.74852164890393L241.71478512171387,139.36621905314448L241.97028062421387,159.28711470587308L242.21665128733886,157.57528629893903L242.47214678983886,156.27256748356052L242.72764229233886,81.05492217943333L242.97401295546385,152.5151911188488L243.22950845796385,133.3155092821614L243.47587912108887,82.28172375101803L243.71312494483885,-44.17057145845694L244.1967414317139,-94.00760599368398L244.43398725546388,113.96452016096826L244.67123307921386,36.056030326816014L244.91760374233888,116.36329418361989L245.17309924483885,83.17638738100482L245.41946990796387,127.62540641919891" fill="none"></path></g></g></g></g></g></g><g transform="translate(51, 176)" clip-path="url(#clip_1)"><clipPath id="clip_1"><rect width="278" height="23"></rect></clipPath><g><g><line x1="0" y1="0" x2="0" y2="5" style="visibility: inherit;" fill="rgb(0, 0, 0)" stroke="rgb(204, 204, 204)" stroke-width="1px"></line><line x1="27.846799850463867" y1="0" x2="27.846799850463867" y2="5" style="visibility: inherit;" fill="rgb(0, 0, 0)" stroke="rgb(204, 204, 204)" stroke-width="1px"></line><line x1="55.693599700927734" y1="0" x2="55.693599700927734" y2="5" style="visibility: inherit;" fill="rgb(0, 0, 0)" stroke="rgb(204, 204, 204)" stroke-width="1px"></line><line x1="83.5403995513916" y1="0" x2="83.5403995513916" y2="5" style="visibility: inherit;" fill="rgb(0, 0, 0)" stroke="rgb(204, 204, 204)" stroke-width="1px"></line><line x1="111.38719940185547" y1="0" x2="111.38719940185547" y2="5" style="visibility: inherit;" fill="rgb(0, 0, 0)" stroke="rgb(204, 204, 204)" stroke-width="1px"></line><line x1="139.23399925231934" y1="0" x2="139.23399925231934" y2="5" style="visibility: inherit;" fill="rgb(0, 0, 0)" stroke="rgb(204, 204, 204)" stroke-width="1px"></line><line x1="167.0807991027832" y1="0" x2="167.0807991027832" y2="5" style="visibility: inherit;" fill="rgb(0, 0, 0)" stroke="rgb(204, 204, 204)" stroke-width="1px"></line><line x1="194.92759895324707" y1="0" x2="194.92759895324707" y2="5" style="visibility: inherit;" fill="rgb(0, 0, 0)" stroke="rgb(204, 204, 204)" stroke-width="1px"></line><line x1="222.77439880371094" y1="0" x2="222.77439880371094" y2="5" style="visibility: inherit;" fill="rgb(0, 0, 0)" stroke="rgb(204, 204, 204)" stroke-width="1px"></line><line x1="250.6211986541748" y1="0" x2="250.6211986541748" y2="5" style="visibility: inherit;" fill="rgb(0, 0, 0)" stroke="rgb(204, 204, 204)" stroke-width="1px"></line><line x1="278.4679985046387" y1="0" x2="278.4679985046387" y2="5" style="visibility: inherit;" fill="rgb(0, 0, 0)" stroke="rgb(204, 204, 204)" stroke-width="1px"></line></g><g transform="translate(0, 8)"><text style="text-anchor: middle; visibility: hidden; font-family: Roboto, sans-serif; font-size: 12px; font-weight: 200;" x="0" y="0" dx="0em" dy="0.95em" fill="rgb(33, 33, 33)" stroke="none" stroke-width="1px">-50M</text><text style="text-anchor: middle; visibility: inherit; font-family: Roboto, sans-serif; font-size: 12px; font-weight: 200;" x="27.846799850463867" y="0" dx="0em" dy="0.95em" fill="rgb(33, 33, 33)" stroke="none" stroke-width="1px">0</text><text style="text-anchor: middle; visibility: hidden; font-family: Roboto, sans-serif; font-size: 12px; font-weight: 200;" x="55.693599700927734" y="0" dx="0em" dy="0.95em" fill="rgb(33, 33, 33)" stroke="none" stroke-width="1px">50M</text><text style="text-anchor: middle; visibility: inherit; font-family: Roboto, sans-serif; font-size: 12px; font-weight: 200;" x="83.5403995513916" y="0" dx="0em" dy="0.95em" fill="rgb(33, 33, 33)" stroke="none" stroke-width="1px">100M</text><text style="text-anchor: middle; visibility: hidden; font-family: Roboto, sans-serif; font-size: 12px; font-weight: 200;" x="111.38719940185547" y="0" dx="0em" dy="0.95em" fill="rgb(33, 33, 33)" stroke="none" stroke-width="1px">150M</text><text style="text-anchor: middle; visibility: inherit; font-family: Roboto, sans-serif; font-size: 12px; font-weight: 200;" x="139.23399925231934" y="0" dx="0em" dy="0.95em" fill="rgb(33, 33, 33)" stroke="none" stroke-width="1px">200M</text><text style="text-anchor: middle; visibility: hidden; font-family: Roboto, sans-serif; font-size: 12px; font-weight: 200;" x="167.0807991027832" y="0" dx="0em" dy="0.95em" fill="rgb(33, 33, 33)" stroke="none" stroke-width="1px">250M</text><text style="text-anchor: middle; visibility: inherit; font-family: Roboto, sans-serif; font-size: 12px; font-weight: 200;" x="194.92759895324707" y="0" dx="0em" dy="0.95em" fill="rgb(33, 33, 33)" stroke="none" stroke-width="1px">300M</text><text style="text-anchor: middle; visibility: hidden; font-family: Roboto, sans-serif; font-size: 12px; font-weight: 200;" x="222.77439880371094" y="0" dx="0em" dy="0.95em" fill="rgb(33, 33, 33)" stroke="none" stroke-width="1px">350M</text><text style="text-anchor: middle; visibility: inherit; font-family: Roboto, sans-serif; font-size: 12px; font-weight: 200;" x="250.6211986541748" y="0" dx="0em" dy="0.95em" fill="rgb(33, 33, 33)" stroke="none" stroke-width="1px">400M</text><text style="text-anchor: middle; visibility: hidden; font-family: Roboto, sans-serif; font-size: 12px; font-weight: 200;" x="278.4679985046387" y="0" dx="0em" dy="0.95em" fill="rgb(33, 33, 33)" stroke="none" stroke-width="1px">450M</text></g><line x1="0" y1="0" x2="278.4679985046387" y2="0" fill="rgb(0, 0, 0)" stroke="rgb(204, 204, 204)" stroke-width="1px"></line></g></g></g></g></svg>