<svg viewBox="0 0 330 200" xmlns="http://www.w3.org/2000/svg"><g><g><g><g><g><line x1="82.68100261688232" y1="176.89999961853027" x2="77.68100261688232" y2="176.89999961853027" style="visibility: inherit;" fill="rgb(0, 0, 0)" stroke="rgb(204, 204, 204)" stroke-width="1px"></line><line x1="82.68100261688232" y1="164.26428536006384" x2="77.68100261688232" y2="164.26428536006384" style="visibility: inherit;" fill="rgb(0, 0, 0)" stroke="rgb(204, 204, 204)" stroke-width="1px"></line><line x1="82.68100261688232" y1="151.6285711015974" x2="77.68100261688232" y2="151.6285711015974" style="visibility: inherit;" fill="rgb(0, 0, 0)" stroke="rgb(204, 204, 204)" stroke-width="1px"></line><line x1="82.68100261688232" y1="138.99285684313094" x2="77.68100261688232" y2="138.99285684313094" style="visibility: inherit;" fill="rgb(0, 0, 0)" stroke="rgb(204, 204, 204)" stroke-width="1px"></line><line x1="82.68100261688232" y1="126.35714258466449" x2="77.68100261688232" y2="126.35714258466449" style="visibility: inherit;" fill="rgb(0, 0, 0)" stroke="rgb(204, 204, 204)" stroke-width="1px"></line><line x1="82.68100261688232" y1="113.72142832619802" x2="77.68100261688232" y2="113.72142832619802" style="visibility: inherit;" fill="rgb(0, 0, 0)" stroke="rgb(204, 204, 204)" stroke-width="1px"></line><line x1="82.68100261688232" y1="101.08571406773157" x2="77.68100261688232" y2="101.08571406773157" style="visibility: inherit;" fill="rgb(0, 0, 0)" stroke="rgb(204, 204, 204)" stroke-width="1px"></line><line x1="82.68100261688232" y1="88.44999980926514" x2="77.68100261688232" y2="88.44999980926514" style="visibility: inherit;" fill="rgb(0, 0, 0)" stroke="rgb(204, 204, 204)" stroke-width="1px"></line><line x1="82.68100261688232" y1="75.8142855507987" x2="77.68100261688232" y2="75.8142855507987" style="visibility: inherit;" fill="rgb(0, 0, 0)" stroke="rgb(204, 204, 204)" stroke-width="1px"></line><line x1="82.68100261688232" y1="63.17857129233223" x2="77.68100261688232" y2="63.17857129233223" style="visibility: inherit;" fill="rgb(0, 0, 0)" stroke="rgb(204, 204, 204)" stroke-width="1px"></line><line x1="82.68100261688232" y1="50.542857033865786" x2="77.68100261688232" y2="50.542857033865786" style="visibility: inherit;" fill="rgb(0, 0, 0)" stroke="rgb(204, 204, 204)" stroke-width="1px"></line><line x1="82.68100261688232" y1="37.90714277539935" x2="77.68100261688232" y2="37.90714277539935" style="visibility: inherit;" fill="rgb(0, 0, 0)" stroke="rgb(204, 204, 204)" stroke-width="1px"></line><line x1="82.68100261688232" y1="25.271428516932904" x2="77.68100261688232" y2="25.271428516932904" style="visibility: inherit;" fill="rgb(0, 0, 0)" stroke="rgb(204, 204, 204)" stroke-width="1px"></line><line x1="82.68100261688232" y1="12.635714258466443" x2="77.68100261688232" y2="12.635714258466443" style="visibility: inherit;" fill="rgb(0, 0, 0)" stroke="rgb(204, 204, 204)" stroke-width="1px"></line><line x1="82.68100261688232" y1="0" x2="77.68100261688232" y2="0" style="visibility: inherit;" fill="rgb(0, 0, 0)" stroke="rgb(204, 204, 204)" stroke-width="1px"></line></g><g transform="translate(72.68100261688232, 0)"><text style="text-anchor: end; visibility: hidden; font-family: Roboto, sans-serif; font-size: 12px; font-weight: 200;" x="0" y="176.89999961853027" dx="0em" dy="0.3em" fill="rgb(33, 33, 33)" stroke="none" stroke-width="1px">2.1e+5</text><text style="text-anchor: end; visibility: inherit; font-family: Roboto, sans-serif; font-size: 12px; font-weight: 200;" x="0" y="164.26428536006384" dx="0em" dy="0.3em" fill="rgb(33, 33, 33)" stroke="none" stroke-width="1px">2.12e+5</text><text style="text-anchor: end; visibility: hidden; font-family: Roboto, sans-serif; font-size: 12px; font-weight: 200;" x="0" y="151.6285711015974" dx="0em" dy="0.3em" fill="rgb(33, 33, 33)" stroke="none" stroke-width="1px">2.14e+5</text><text style="text-anchor: end; visibility: inherit; font-family: Roboto, sans-serif; font-size: 12px; font-weight: 200;" x="0" y="138.99285684313094" dx="0em" dy="0.3em" fill="rgb(33, 33, 33)" stroke="none" stroke-width="1px">2.16e+5</text><text style="text-anchor: end; visibility: hidden; font-family: Roboto, sans-serif; font-size: 12px; font-weight: 200;" x="0" y="126.35714258466449" dx="0em" dy="0.3em" fill="rgb(33, 33, 33)" stroke="none" stroke-width="1px">2.18e+5</text><text style="text-anchor: end; visibility: inherit; font-family: Roboto, sans-serif; font-size: 12px; font-weight: 200;" x="0" y="113.72142832619802" dx="0em" dy="0.3em" fill="rgb(33, 33, 33)" stroke="none" stroke-width="1px">2.2e+5</text><text style="text-anchor: end; visibility: hidden; font-family: Roboto, sans-serif; font-size: 12px; font-weight: 200;" x="0" y="101.08571406773157" dx="0em" dy="0.3em" fill="rgb(33, 33, 33)" stroke="none" stroke-width="1px">2.22e+5</text><text style="text-anchor: end; visibility: inherit; font-family: Roboto, sans-serif; font-size: 12px; font-weight: 200;" x="0" y="88.44999980926514" dx="0em" dy="0.3em" fill="rgb(33, 33, 33)" stroke="none" stroke-width="1px">2.24e+5</text><text style="text-anchor: end; visibility: hidden; font-family: Roboto, sans-serif; font-size: 12px; font-weight: 200;" x="0" y="75.8142855507987" dx="0em" dy="0.3em" fill="rgb(33, 33, 33)" stroke="none" stroke-width="1px">2.26e+5</text><text style="text-anchor: end; visibility: inherit; font-family: Roboto, sans-serif; font-size: 12px; font-weight: 200;" x="0" y="63.17857129233223" dx="0em" dy="0.3em" fill="rgb(33, 33, 33)" stroke="none" stroke-width="1px">2.28e+5</text><text style="text-anchor: end; visibility: hidden; font-family: Roboto, sans-serif; font-size: 12px; font-weight: 200;" x="0" y="50.542857033865786" dx="0em" dy="0.3em" fill="rgb(33, 33, 33)" stroke="none" stroke-width="1px">2.3e+5</text><text style="text-anchor: end; visibility: inherit; font-family: Roboto, sans-serif; font-size: 12px; font-weight: 200;" x="0" y="37.90714277539935" dx="0em" dy="0.3em" fill="rgb(33, 33, 33)" stroke="none" stroke-width="1px">2.32e+5</text><text style="text-anchor: end; visibility: hidden; font-family: Roboto, sans-serif; font-size: 12px; font-weight: 200;" x="0" y="25.271428516932904" dx="0em" dy="0.3em" fill="rgb(33, 33, 33)" stroke="none" stroke-width="1px">2.34e+5</text><text style="text-anchor: end; visibility: inherit; font-family: Roboto, sans-serif; font-size: 12px; font-weight: 200;" x="0" y="12.635714258466443" dx="0em" dy="0.3em" fill="rgb(33, 33, 33)" stroke="none" stroke-width="1px">2.36e+5</text><text style="text-anchor: end; visibility: hidden; font-family: Roboto, sans-serif; font-size: 12px; font-weight: 200;" x="0" y="0" dx="0em" dy="0.3em" fill="rgb(33, 33, 33)" stroke="none" stroke-width="1px">2.38e+5</text></g><line x1="82.68100261688232" y1="0" x2="82.68100261688232" y2="176.89999961853027" fill="rgb(0, 0, 0)" stroke="rgb(204, 204, 204)" stroke-width="1px"></line></g></g><g transform="translate(82, 0)" clip-path="url(#clip_0)"><clipPath id="clip_0"><rect width="247" height="176"></rect></clipPath><g><g><g><line x1="0" y1="0" x2="0" y2="176.89999961853027" fill="rgb(0, 0, 0)" stroke="rgb(66, 66, 66)" stroke-width="1px" opacity="0.25"></line><line x1="24.731899738311768" y1="0" x2="24.731899738311768" y2="176.89999961853027" fill="rgb(0, 0, 0)" stroke="rgb(66, 66, 66)" stroke-width="1px" opacity="0.25"></line><line x1="49.463799476623535" y1="0" x2="49.463799476623535" y2="176.89999961853027" fill="rgb(0, 0, 0)" stroke="rgb(66, 66, 66)" stroke-width="1px" opacity="0.25"></line><line x1="74.1956992149353" y1="0" x2="74.1956992149353" y2="176.89999961853027" fill="rgb(0, 0, 0)" stroke="rgb(66, 66, 66)" stroke-width="1px" opacity="0.25"></line><line x1="98.92759895324707" y1="0" x2="98.92759895324707" y2="176.89999961853027" fill="rgb(0, 0, 0)" stroke="rgb(66, 66, 66)" stroke-width="1px" opacity="0.25"></line><line x1="123.65949869155884" y1="0" x2="123.65949869155884" y2="176.89999961853027" fill="rgb(0, 0, 0)" stroke="rgb(66, 66, 66)" stroke-width="1px" opacity="0.25"></line><line x1="148.3913984298706" y1="0" x2="148.3913984298706" y2="176.89999961853027" fill="rgb(0, 0, 0)" stroke="rgb(66, 66, 66)" stroke-width="1px" opacity="0.25"></line><line x1="173.12329816818237" y1="0" x2="173.12329816818237" y2="176.89999961853027" fill="rgb(0, 0, 0)" stroke="rgb(66, 66, 66)" stroke-width="1px" opacity="0.25"></line><line x1="197.85519790649414" y1="0" x2="197.85519790649414" y2="176.89999961853027" fill="rgb(0, 0, 0)" stroke="rgb(66, 66, 66)" stroke-width="1px" opacity="0.25"></line><line x1="222.5870976448059" y1="0" x2="222.5870976448059" y2="176.89999961853027" fill="rgb(0, 0, 0)" stroke="rgb(66, 66, 66)" stroke-width="1px" opacity="0.25"></line><line x1="247.31899738311768" y1="0" x2="247.31899738311768" y2="176.89999961853027" fill="rgb(0, 0, 0)" stroke="rgb(66, 66, 66)" stroke-width="1px" opacity="0.25"></line></g><g><line x1="0" y1="176.89999961853027" x2="247.31899738311768" y2="176.89999961853027" fill="rgb(0, 0, 0)" stroke="rgb(66, 66, 66)" stroke-width="1px" opacity="0.25"></line><line x1="0" y1="164.26428536006384" x2="247.31899738311768" y2="164.26428536006384" fill="rgb(0, 0, 0)" stroke="rgb(66, 66, 66)" stroke-width="1px" opacity="0.25"></line><line x1="0" y1="151.6285711015974" x2="247.31899738311768" y2="151.6285711015974" fill="rgb(0, 0, 0)" stroke="rgb(66, 66, 66)" stroke-width="1px" opacity="0.25"></line><line x1="0" y1="138.99285684313094" x2="247.31899738311768" y2="138.99285684313094" fill="rgb(0, 0, 0)" stroke="rgb(66, 66, 66)" stroke-width="1px" opacity="0.25"></line><line x1="0" y1="126.35714258466449" x2="247.31899738311768" y2="126.35714258466449" fill="rgb(0, 0, 0)" stroke="rgb(66, 66, 66)" stroke-width="1px" opacity="0.25"></line><line x1="0" y1="113.72142832619802" x2="247.31899738311768" y2="113.72142832619802" fill="rgb(0, 0, 0)" stroke="rgb(66, 66, 66)" stroke-width="1px" opacity="0.25"></line><line x1="0" y1="101.08571406773157" x2="247.31899738311768" y2="101.08571406773157" fill="rgb(0, 0, 0)" stroke="rgb(66, 66, 66)" stroke-width="1px" opacity="0.25"></line><line x1="0" y1="88.44999980926514" x2="247.31899738311768" y2="88.44999980926514" fill="rgb(0, 0, 0)" stroke="rgb(66, 66, 66)" stroke-width="1px" opacity="0.25"></line><line x1="0" y1="75.8142855507987" x2="247.31899738311768" y2="75.8142855507987" fill="rgb(0, 0, 0)" stroke="rgb(66, 66, 66)" stroke-width="1px" opacity="0.25"></line><line x1="0" y1="63.17857129233223" x2="247.31899738311768" y2="63.17857129233223" fill="rgb(0, 0, 0)" stroke="rgb(66, 66, 66)" stroke-width="1px" opacity="0.25"></line><line x1="0" y1="50.542857033865786" x2="247.31899738311768" y2="50.542857033865786" fill="rgb(0, 0, 0)" stroke="rgb(66, 66, 66)" stroke-width="1px" opacity="0.25"></line><line x1="0" y1="37.90714277539935" x2="247.31899738311768" y2="37.90714277539935" fill="rgb(0, 0, 0)" stroke="rgb(66, 66, 66)" stroke-width="1px" opacity="0.25"></line><line x1="0" y1="25.271428516932904" x2="247.31899738311768" y2="25.271428516932904" fill="rgb(0, 0, 0)" stroke="rgb(66, 66, 66)" stroke-width="1px" opacity="0.25"></line><line x1="0" y1="12.635714258466443" x2="247.31899738311768" y2="12.635714258466443" fill="rgb(0, 0, 0)" stroke="rgb(66, 66, 66)" stroke-width="1px" opacity="0.25"></line><line x1="0" y1="0" x2="247.31899738311768" y2="0" fill="rgb(0, 0, 0)" stroke="rgb(66, 66, 66)" stroke-width="1px" opacity="0.25"></line></g></g></g><g><g><line x1="0" y1="1503.6499967575073" x2="247.31899738311768" y2="1503.6499967575073" fill="rgb(0, 0, 0)" stroke="rgb(153, 153, 153)" stroke-width="1.5px"></line></g></g><g><g><line x1="24.731899738311768" y1="0" x2="24.731899738311768" y2="176.89999961853027" fill="rgb(0, 0, 0)" stroke="rgb(153, 153, 153)" stroke-width="1.5px"></line></g></g><g><g><g><g><g><path style="fill: none;" stroke="rgb(187, 187, 187)" stroke-width="2px" d="M24.966920056593015,440.7905956437111L25.18573207706177,163.99657069711392L25.40454409753052,38.62690876808424L25.615251969093016,-40.848076137066556L29.359368763780516,-53.61833460424467L29.570076635343018,2.3453557010919526L29.78078450690552,11.111009666883726L29.991492378468017,-10.40525301298177L30.20220025003052,-4.203697461144968L30.412908121593016,5.286662648337471L30.623615993155518,5.505182361020031L30.834323864718016,35.06642343211378L31.045031736280517,22.343856958114333L31.25573960784302,29.621608788289947L31.46644747940552,9.267785412494387L31.677155350968015,11.613454895561631L31.887863222530516,14.558938875895375L32.09857109409302,19.912442411322615L32.309278965655515,4.404022847742928L32.51998683721802,-11.42599321166205L34.20564980971802,-9.074374670234949L34.416357681280516,12.467131946291408L34.627065552843014,10.977371035177983L34.83777342440552,11.588033190692112L35.04848129596802,13.661081127655835L35.259189167530515,22.15532221799002L35.47800118799927,27.04922160472556L35.696813208468015,30.20917389252013L35.90752108003052,32.83126448237625L36.11822895159302,37.78555956560697L36.33704097206177,40.09116833572966L36.54774884362426,44.91105301003605L36.75845671518677,47.17791082489513L36.977268735655514,46.29656826417909L37.19608075612427,44.325119538896004L37.42299692549927,43.48503353959446L37.641808945968016,42.51042004370693L37.86872511534302,40.807351747692884L38.079432986905516,33.79432634103977L38.29824500737426,35.06322452273772L38.50895287893677,69.2691273105292L38.727764899405514,52.21081687674591L38.94657691987427,45.50988194814091L39.165388940343014,42.16011947167431L39.392305109718016,39.889571405999305L39.60301298128052,37.306316676369654L39.81372085284302,36.924614595001415L40.04063702221802,39.80875693321726L40.25944904268677,39.668919706251344L40.47015691424927,38.97048730443285L40.680864785811764,37.39146929441433L40.89157265737427,34.93033940684599L41.110384677843015,30.85252072098564L41.32109254940552,33.0013203254526L41.53990456987427,33.513266741594606L41.75871659034302,33.35832282888338L41.985632759718015,31.363207646072823L42.19634063128051,30.06268362589533L42.40704850284302,26.471001764494194L42.64206882112427,24.203258384503588L42.868984990499264,25.046794249077735L43.08779701096802,26.53178875678265L43.298504882530516,28.92209193138669L43.50921275409302,27.88480710040719L43.736128923468016,31.973701749695987L43.971149241749266,34.57057235592394L44.18996126221801,32.85722932492976L44.40877328268677,35.945031019779144L44.619481154249264,36.88636114579685L44.84639732362427,34.634895432837645L45.07331349299927,35.23990611245167L45.28402136456177,37.2367893470539L45.49472923612427,36.85877188049967L45.71354125659302,35.52981122437255L45.93235327706177,34.93843645971641L46.14306114862426,32.17840339182345L46.35376902018677,31.01454462145492L46.572581040655514,60.34563608019226L46.79139306112427,50.585442443003195L47.01830923049927,59.25265828294275L47.22901710206177,48.41731871434328L47.44782912253052,35.9031734236501L47.65853699409301,27.804637879970766L47.86924486565552,25.94302386872779L48.088056886124264,22.567105645424625L48.30686890659302,20.510083885617657L48.517576778155515,23.483840084052254L48.73638879862427,22.381662313801748L48.955200819093015,24.110519463461515L49.18211698846802,19.646046332085827L49.40092900893677,18.748840217275838L49.61163688049927,20.582990360238014L49.83044890096802,19.14180652292502L50.04926092143677,17.38051332068477L50.28428123971802,17.64432748577864L50.503093260186766,25.117786348524813L50.72190528065552,20.551728761581174L50.93261315221802,21.355424893738405L51.143321023780516,17.71366133192575L51.36213304424926,18.68271439339356L51.580945064718016,36.67051389363192L51.791652936280514,41.03295758085554L52.01856910565552,31.148766565684177L52.229276977218014,26.710687756934345L52.44808899768677,23.517416879078443L52.66690101815552,22.001295735431015L52.893817187530516,21.947218850969012L53.12073335690552,21.001210579404717L53.34764952628052,32.94011969663977L53.55835739784302,26.107081915912712L53.77716941831177,22.388897304689415L53.98787728987427,27.48018551770155L54.206689310343016,50.94305849078607L54.44170962862427,44.83357030924036L54.66862579799927,34.603386923397174L54.887437818468015,26.16944658434196L55.10624983893676,19.20918428232723L55.33316600831177,17.02133551290207L55.560082177686766,15.100058663273705L55.770790049249264,17.408214688890624L55.98960206971802,19.510737900927563L56.208414090186764,18.792590783311503L56.42722611065552,17.68517847402216L56.66224642893677,21.671976993597045L56.881058449405515,20.791919438291025L57.09987046987427,20.8745057966478L57.32678663924927,18.167971412247876L57.53749451081177,17.4048983020733L57.74820238237427,20.20671333518924L57.958910253936764,18.928399615904713L58.16961812549927,18.66972247698786L58.38032599706177,21.834471141835625L58.60724216643677,20.335260883786404L58.81795003799927,27.141901475732062L59.028657909561765,31.77328866454025L59.24746993003052,24.73815914630973L59.45817780159302,27.940958428290987L59.67698982206176,42.27454216714309L59.89580184253052,32.865127337683234L60.106509714093015,38.47268761216952L60.31721758565552,33.88770107078937L60.536029606124266,25.776165318235094L60.76294577549926,23.600966896612434L60.98175779596802,24.256160451018633L61.20867396534302,22.166635138123L61.427485985811764,24.554888179139308L61.64629800628052,23.59179268748749L61.86511002674927,23.43999588264885L62.083922047218024,22.654032488744175L62.31083821659303,21.11453916452562L62.52965023706177,21.704443791730682L62.75656640643676,26.30209120175966L62.975378426905515,28.494441702569393L63.19419044737426,30.33715615370392L63.42110661674926,35.205503097520605L63.65612693503052,33.029974890872424L63.891147253311765,35.2987487181048L64.10995927378052,38.17049419422268L64.33687544315552,39.337372619485585L64.55568746362427,39.47607909549695L64.77449948409301,42.04842023020034L64.99331150456176,43.906414709451326L65.20401937612426,47.79648808744573L65.42283139659301,47.46692354855753L65.64164341706177,47.58077364151701L65.85235128862426,53.077465515944056L66.06305916018677,52.19219051569247L66.28187118065551,51.69593167618074L66.50878735003052,55.5201043100137L66.72759937049926,55.62594423431877L66.93830724206177,55.74958629145067L67.15711926253051,60.79454305518944L67.37593128299928,70.19536625147374L67.60284745237426,97.23748273470066L67.81355532393677,111.94133365470333L68.02426319549927,107.33784242762087L68.23497106706176,103.40027088587058L68.46188723643677,107.32308761244491L68.67259510799926,90.6344008814172L68.88330297956178,579.7997301714988L71.06331903534303,182.60268086462844L71.29023520471802,141.92905673022935L71.51715137409302,123.87373636536348L71.73596339456176,109.39691748019415L71.95477541503051,103.13115772869446L72.16548328659303,101.90922970714429L72.38429530706178,102.24410664191092L72.59500317862427,102.52084708832172L72.80571105018676,104.98244525746803L73.01641892174928,119.30321283661644L73.24333509112427,117.81012266924697L73.45404296268677,122.34430882497303L73.66475083424926,125.99465114140371L73.88356285471802,129.22288045759504L74.11858317299927,129.27018646656305L74.34549934237427,128.95653708161012L74.55620721393677,127.33841894925759L74.76691508549926,123.45375236184358L74.97762295706175,125.74280646193294L75.18833082862427,141.05817014192198L75.42335114690552,130.07514180859377L75.64216316737426,129.23808910422736L75.86097518784301,142.12387057773716L76.07168305940552,146.2778133758077L76.29049507987428,138.27898242548775L76.50120295143677,129.66022332781776L76.72811912081177,128.15912953540868L76.94693114128052,124.60110357819357L77.15763901284302,122.45128309318254L77.36834688440553,137.58880650335863L77.59526305378051,134.76140961532565L77.80597092534302,130.90596226841149L78.01667879690552,132.07245110722366L78.25169911518677,129.93582399252043L78.47051113565553,125.74088123444437L78.70553145393677,142.6865483054864L78.91623932549926,140.87702884179592L79.12694719706177,130.3781443937018L79.33765506862427,139.34575753120913L79.55646708909302,158.6537650488588L79.78338325846802,144.3062142135838L80.00219527893677,132.65243708952138L80.22911144831177,125.00271880757322L80.45602761768676,127.01192909649525L80.67483963815552,138.64879020271138L80.90985995643676,131.90978475317237L81.12867197690552,128.33639056725673L81.36369229518677,126.87685438905287L81.58250431565553,128.91003205085775L81.80942048503051,117.04372168955275L82.04444080331177,109.25850717063337L82.27946112159302,101.97131176849445L82.50637729096802,102.66950922609838L82.74139760924926,100.78240984849066L82.95210548081177,110.72582760875648L83.16281335237427,125.87895072278333L83.39783367065553,118.07513721691942L83.62474984003052,110.54487757936391L83.83545771159302,156.20977686718672L84.04616558315551,159.88919055352932L84.26497760362426,160.05127457331741L84.48378962409302,147.27668081651873L84.71070579346802,141.30625538467876L84.92951781393677,130.35812895842287L85.14832983440552,123.72323149566891L85.38335015268676,115.06936896559324L85.61026632206176,110.75949814207341L85.83718249143676,110.2658524961283L86.04789036299927,106.6277556068392L86.26670238346802,105.86459894341853L86.48551440393676,110.03015227914614L86.69622227549927,109.20621245739198L86.90693014706177,108.70778144381244L87.14195046534303,110.7302589244085L87.36886663471802,109.96969146613021L87.58767865518676,116.00660762894685L87.79838652674927,116.32728211054189L88.01719854721802,113.49706600244564L88.22790641878052,133.89406218279876L88.43861429034303,606.2485073697914L92.43395970112427,183.86294985519828L92.64466757268677,161.70567982462669L92.85537544424926,148.7134693234894L93.08229161362426,149.643735503991L93.30920778299927,132.20374176896064L93.53612395237427,139.3648689943996L93.76304012174927,125.26536688718991L93.99806044003053,115.0777711846259L94.21687246049927,110.18211201939187L94.42758033206177,107.61478500159639L94.64639235253051,104.86266328013922L94.85710022409302,102.20866734764134L95.07591224456176,99.71929202221986L95.29472426503052,98.9940762003099L95.51353628549927,97.68321273583817L95.74045245487426,96.52437543920803L95.95926447534302,94.4759460105763L96.17807649581177,92.86592156850458L96.39688851628051,92.2221965900664L96.62380468565551,100.83578857020343L96.85072085503052,119.10283591753881L97.08574117331176,121.39018646517806L97.30455319378052,130.91385657529156L97.51526106534303,133.51268380432748L97.74217723471803,123.7070633582209L97.96909340409302,122.05629998767958L98.20411372237427,116.76654018891162L98.43102989174928,117.91362474676173L98.64984191221802,104.81575841298601L98.86865393268677,105.94553292369476L99.08746595315552,98.77413141936773L99.30627797362428,104.24359397784131L99.52508999409302,101.52212264194206L99.76011031237427,117.65260591816869L99.98702648174927,105.41176184635006L100.19773435331176,112.38205865364039L100.40844222487426,113.93715328385821L100.63535839424928,112.17595988922734L100.86227456362427,104.64628333069307L101.07298243518677,93.11869645086684L101.29179445565552,97.54056559316376L101.52681477393676,87.68215819927184L101.74562679440551,99.25186234130386L101.97254296378051,112.17440530469754L102.19945913315553,116.75044381280019L102.41827115362427,115.72864973828558L102.64518732299928,95.39300023342857L102.86399934346802,107.12392974229914L103.07470721503051,127.99508025261404L103.29351923549926,134.60571729030184L103.50422710706177,119.49280276834301L103.73114327643677,112.10390612744035L103.94185114799926,108.61623289532388L104.17687146628052,105.37354203889113L104.39568348674926,96.16223387998497L104.60639135831177,100.91318101604959L104.83330752768677,89.10959814625322L105.06022369706177,80.42389731176193L105.27903571753052,83.82513759606597L105.49784773799927,90.30291282850908L105.71665975846801,75.63229416870621L105.92736763003052,64.21713367042322L106.14617965049926,59.28598084946035L106.37309581987427,57.62947848443172L106.59190784034301,57.824163424458575L106.81882400971801,59.982589919786534L107.03763603018676,69.05212439396801L107.25644805065552,82.46745461485408L107.48336422003052,79.05795527209548L107.71838453831177,84.86870843967694L107.92909240987427,109.12693203650466L108.14790443034302,124.76782686190249L108.35861230190552,121.40028246767561L108.58552847128053,107.31813735268523L108.79623634284302,110.95775400762221L109.02315251221802,135.41935437665143L109.25006868159302,118.12661497950862L109.46077655315551,113.88446550210374L109.67958857362427,101.44983405127226L109.89029644518676,92.66858355415646L110.11721261456177,88.9290705740179L110.34412878393677,84.19596913058867L110.57104495331177,99.70510021157031L110.80606527159301,106.1902479510623L111.02487729206176,97.75997521507774L111.25989761034302,108.37132133880404L111.486813779718,139.21338907186825L111.70562580018677,116.16711002452341L111.92443782065553,104.82944701038953L112.14324984112427,103.9834433631715L112.36206186159302,106.3561522400581L112.58897803096801,104.41808527433204L112.81589420034301,109.44019030477344L113.04281036971803,104.35490816193082L113.27783068799927,133.54017052546L113.49664270846802,121.36806082008692L113.72355887784302,129.78559786474824L113.95047504721802,122.88297132267795L114.16928706768677,124.3381481085813L114.38809908815551,131.00650606494784L114.59880695971802,125.96658831362083L114.81761898018677,123.04984380098631L115.04453514956177,115.45881971760822L115.25524302112427,127.5233284460295L115.47405504159302,158.44017760523664L115.69286706206178,143.15389762015468L115.91978323143677,128.81392506435736L116.14669940081177,125.64487812630199L116.35740727237426,124.57452458221226L116.58432344174926,125.55288229601396L116.79503131331177,125.64493230482647L117.00573918487427,122.37404745121518L117.22455120534302,126.01972036624042L117.45957152362426,126.14576528041496L117.67838354409302,127.09657338774669L117.90529971346801,130.33591853656924L118.11600758503052,152.08300674387257L118.34292375440552,147.24832814431758L118.55363162596802,140.1054353017679L118.78054779534301,143.32555078540952L119.00746396471801,138.63354430862879L119.23438013409302,131.1792169057786L119.46129630346802,127.68067608696789L119.68010832393676,128.54040152233682L119.89081619549927,127.65098741158828L120.10152406706177,124.12942687568949L120.32844023643676,126.09352221946564L120.53914810799927,122.0349891914887L120.75796012846803,148.4438091785745L120.96866800003052,142.98619512301389L121.18748002049927,132.5960216380575L121.40629204096801,123.92172420413122L121.62510406143676,120.25258245921464L121.84391608190552,116.69354786162056L122.05462395346802,116.82738292406344L122.27343597393677,117.51747563432147L122.48414384549926,133.87728932876917L122.70295586596802,133.7294430133525L122.92176788643677,130.78932835525111L123.14057990690551,140.41303908940503L123.35939192737426,155.50922423747397L123.57009979893678,144.49040432050143L123.78080767049926,149.86416631768753L123.99151554206178,141.91888646419235L124.22653586034302,140.0107068495016L124.46155617862426,133.82181938174273L124.67226405018675,150.26837413439992L124.88297192174926,156.20786342303708L125.09367979331178,158.58628751216816L125.32059596268675,142.12492180332885L125.53130383424927,132.3009749448755L125.75011585471802,126.36427718703749L125.96892787518678,126.79190633623145L126.17963574674927,123.9034545468154L126.39034361831176,127.1414314088748L126.60915563878054,140.83432616148656L126.82796765924927,150.60733582219558L127.04677967971803,143.904844815362L127.26559170018676,137.0910942797832L127.48440372065552,136.39004459845285L127.70321574112427,135.47887267017674L127.93013191049927,134.33726429127995L128.14894393096802,130.30695442740569L128.36775595143678,131.97535593330443L128.60277626971802,163.90305772997434L128.82158829018678,158.3522374996488L129.03229616174926,177.48121412998574L129.24300403331176,178.85346403622876L129.46181605378052,175.38525157851478L129.67252392534303,174.1424668252933L129.89133594581176,164.25236905111515L130.10204381737427,154.21280887760437L130.32085583784303,142.88207278494198L130.5396678583118,135.43940713519805L130.75847987878052,128.75517375460038L130.9853960481555,123.57290814841117L131.21231221753052,119.87164454490268L131.4392283869055,117.68354180683434L131.65804040737424,118.46441801662122L131.89306072565552,117.7545844146772L132.11187274612428,117.47936514604298L132.33068476659304,117.12193380849143L132.56570508487428,119.20377915279457L132.784517105343,120.33091223017489L133.00332912581177,120.99676761234011L133.21403699737425,122.32018847357544L133.44095316674927,123.16742945002329L133.65166103831177,121.95980455298533L133.86236890987425,121.60300787289799L134.08928507924927,119.61329611867437L134.29999295081177,119.29690096156986L134.51880497128053,119.92250178965571L134.74572114065552,120.01727045675524L134.97263731003054,121.98121631808095L135.19144933049927,122.50769943896081L135.41026135096803,122.26126054037985L135.64528166924927,121.1899239219726L135.86409368971803,121.148384516596L136.09100985909302,121.29495120782181L136.30982187956178,121.19829133456244L136.52052975112426,121.85484505192301L136.73123762268676,119.38832798047194L136.95815379206175,120.13692338011722L137.18506996143677,123.18564190894146L137.41198613081178,124.0333149479955L137.63890230018677,121.80533895590045L137.84961017174928,121.99755375913207L138.08463049003052,121.35450286592081L138.295338361593,118.49503383086372L138.51415038206176,119.09808494947227L138.73296240253052,117.08199265701518L138.94367027409302,115.04584310921615L139.17869059237427,116.97080161035852L139.38939846393677,118.67768101788931L139.60010633549928,118.51420946854033L139.81891835596804,119.13016285435532L140.03773037643677,120.2728036788201L140.272750694718,123.5282555340287L140.50777101299929,124.96298852327202L140.72658303346802,125.53000847370161L140.96160335174926,126.6290740583945L141.19662367003053,125.83769649269594L141.43164398831178,125.3638571184532L141.65856015768676,124.8309853024793L141.88547632706178,120.85823773416527L142.1042883475305,118.14625805549204L142.33930866581176,119.27452466198893L142.55812068628052,116.88290141821862L142.77693270674925,118.30707371579093L143.00384887612427,118.32193388185908L143.21455674768677,116.48366650334053L143.44957706596801,116.3034685965609L143.66028493753052,115.08960639505625L143.88720110690554,117.30623971512438L144.10601312737427,117.54034790149251L144.32482514784303,119.00092906046677L144.5355330194055,119.55186862708867L144.76244918878052,119.6522649345226L144.9893653581555,121.36410903238546L145.20007322971801,121.69013078279363L145.43509354799926,120.58718727333884L145.65390556846802,121.2115789327495L145.86461344003052,118.35790739517905L146.0915296094055,117.6559693142081L146.32654992768676,118.90465559148906L146.54536194815552,118.62603097614547L146.76417396862428,117.0700332635056L146.98298598909304,116.98409362962957L147.20179800956177,116.78792989425853L147.42061003003053,116.68492067086153L147.63131790159304,117.62437703198538L147.8420257731555,118.11890979970175L148.06894194253053,116.61432941957301L148.28775396299926,117.5383500938067L148.51467013237425,116.58220234535433L148.733482152843,116.29795052601573L148.95229417331177,117.50615329304645L149.17110619378053,118.50558584553013L149.381814065343,118.0788305131624L149.5925219369055,116.44046966047249L149.80322980846802,115.12762152010544L150.02204182893678,117.07309660320566L150.24895799831177,116.66948596448891L150.47587416768678,117.3297070123489L150.69468618815552,116.78850656272893L150.90539405971802,115.972572901159L151.1404143779993,115.59104806112694L151.35112224956177,117.41227779554404L151.586142567843,117.31607389768648L151.80495458831177,114.39071569462027L152.01566245987428,114.77745177262578L152.22637033143678,112.77747346888515L152.46139064971803,113.5328632681385L152.6802026701868,114.18882138832458L152.89091054174926,116.47092221618543L153.109722562218,115.79355238249376L153.32853458268679,114.61686523840419L153.53924245424926,116.32676203156211L153.76615862362428,115.9028703561191L153.984970644093,114.80486450445807L154.19567851565552,117.33740806247245L154.4225946850305,116.47075853278395L154.64951085440552,117.74515869949431L154.86021872596802,118.2455149384834L155.09523904424927,118.36223441887955L155.3302593625305,118.88411135167844L155.54907138299927,120.71636625808199L155.75977925456178,118.99937644014025L155.9785912750305,118.51058341874354L156.18929914659302,120.83515119401027L156.40811116706178,121.13413851331883L156.6269231875305,118.51349611183488L156.8538393569055,117.9365285482622L157.064547228468,116.26956049064535L157.28335924893676,117.39841853541292L157.50217126940552,116.4416591024041L157.7290874387805,116.21449328560082L157.94789945924927,115.17568790460787L158.17481562862426,114.63872239904033L158.40173179799928,115.55259235642706L158.6286479673743,115.65270185414718L158.83935583893677,116.88500645650142L159.05006371049927,117.30533743288765L159.268875730968,120.81557596705099L159.49579190034302,119.6436989160464L159.722708069718,119.25362250619705L159.94152009018677,118.61787940668931L160.1684362595618,119.23915644660816L160.38724828003052,120.65693572634163L160.60606030049928,118.5057524524406L160.84108061878052,120.9620450916271L161.05989263924926,119.61067239998125L161.28680880862427,117.43029530580431L161.51372497799926,117.63503788532114L161.74064114737428,115.69597178569184L161.97566146565552,112.985170455144L162.2025776350305,112.76480773414032L162.42138965549927,112.74038853880565L162.63209752706177,113.58630813582043L162.8509095475305,113.08971547655177L163.06161741909304,112.7923126934893L163.288533588468,110.28108125189672L163.49924146003053,109.69430135817153L163.709949331593,107.48928489914644L163.9206572031555,107.74893772121133L164.13946922362427,104.98339176449973L164.36638539299926,105.55675541333686L164.58519741346802,105.60351842470884L164.80400943393676,102.31955809135253L165.03902975221803,100.90562715799591L165.25784177268676,99.8618888662605L165.47665379315552,97.38826498002433L165.70356996253054,96.4989168969999L165.92238198299927,96.59547480921927L166.13308985456175,95.44808087611436L166.35190187503053,94.92173703822345L166.57071389549927,95.15621609144489L166.78952591596803,95.00103037669447L167.00833793643676,95.36699024149713L167.22714995690552,95.22186785759386L167.44596197737425,95.45088471674876L167.664773997843,95.49502746637154L167.89169016721803,95.70998269163147L168.11050218768676,94.66434772664172L168.34552250596803,93.77434132410731L168.56433452643677,109.4241997914375L168.78314654690553,103.82428807380256L169.01816686518677,99.16511321120197L169.25318718346801,97.51163994296472L169.47199920393678,97.06952544512201L169.6908112244055,95.38577936108247L169.901519095968,94.38003318386312L170.11222696753052,94.34456083344972L170.3391431369055,91.48186066593595L170.55795515737427,89.30734103516309L170.78487132674928,88.1835568902377L171.00368334721801,85.97799578158455L171.21439121878052,84.4780355230235L171.43320323924925,83.24810927931281L171.65201525971804,82.46766594389229L171.86272313128052,82.6497443608804L172.07343100284302,82.8928904956058L172.300347172218,83.9970391565176L172.51915919268677,83.68369583284758L172.73797121315553,82.5109333452334L172.948679084718,81.7662887545389L173.16749110518677,84.18662453858235L173.39440727456176,82.67211824754888L173.6051151461243,83.6283669242642L173.83203131549925,82.64357974972572L174.05894748487427,80.27055840866709L174.28586365424925,78.50210649763224L174.49657152581176,78.96134869594718L174.70727939737426,77.17644337205785L174.92609141784303,74.0347830170111L175.153007587218,71.83756620197782L175.37181960768677,69.12606964274761L175.58252747924928,70.62824839689061L175.80944364862427,70.3352437323091L176.0444639669055,69.95553209471389L176.27948428518675,70.33034970907156L176.50640045456177,69.46469916396661L176.7252124750305,67.74803542430672L176.93592034659304,67.64553809368938L177.1466282181555,66.81535391572666L177.36544023862425,68.88584719805279L177.57614811018675,68.50982406379555L177.78685598174928,68.77467332950482L177.99756385331176,67.30756389690104L178.232584171593,66.03061578283709L178.45950034096802,66.17485012672117L178.686416510343,64.51908368323744L178.91333267971802,62.46343408729477L179.13214470018676,59.07802424508418L179.35095672065552,60.65455116679935L179.57787289003053,61.16058651720557L179.81289320831178,62.351748194285314L180.02360107987425,63.15915975390474L180.24241310034304,63.97624186753065L180.45312097190552,62.5527727246544L180.66382884346802,60.80747851763591L180.8745367150305,59.51430043145543L181.0933487354993,60.71963408886777L181.30405660706177,61.35083048887073L181.53097277643678,60.82775319688842L181.74168064799926,61.740400323518415L181.95238851956177,59.8789896761198L182.16309639112427,57.639736482065494L182.3981167094055,55.566235147563944L182.6250328787805,54.28158160141473L182.85194904815552,52.93464039014613L183.0788652175305,55.61906605763918L183.29767723799927,54.63027862891936L183.5326975562805,55.89319259625598L183.74340542784302,56.017654772666646L183.96221744831178,57.31436359373478L184.1810294687805,59.374637477360835L184.39984148924927,59.87370531359007L184.618653509718,59.4222292089112L184.8293613812805,60.07931829856696L185.05627755065552,62.74045837693635L185.27508957112428,65.3780488726063L185.49390159159302,67.9613912258859L185.72892190987426,67.16660293755291L185.95583807924925,66.9277552318969L186.18275424862426,67.48351749985304L186.40967041799925,69.55557016937753L186.62037828956176,70.41953291030295L186.83108616112426,71.66114724972726L187.05800233049925,69.02629920888425L187.26871020206175,69.89257285677992L187.48752222253052,73.1355703878592L187.70633424299928,72.88895402284169L187.93325041237426,74.26366674519036L188.15206243284302,72.22097697406888L188.37087445331176,72.30884560856371L188.5815823248743,74.11319267834052L188.80849849424928,73.88231842303897L189.01920636581178,74.4771786227409L189.24612253518677,73.70177679857508L189.48114285346801,73.29900351644108L189.69185072503052,73.2080204396928L189.91066274549925,73.75643057002208L190.12137061706179,74.09921798747582L190.35639093534303,74.23468325059925L190.58330710471802,74.28859818978239L190.80211912518675,74.94665192872877L191.02903529456177,75.00924386031289L191.23974316612427,75.96877180745392L191.45045103768678,75.9608765234256L191.6692630581555,75.58093761274615L191.88807507862427,76.19415745648898L192.106887099093,74.74009833987793L192.3256991195618,73.28515644259615L192.55261528893678,73.77135980576014L192.78763560721802,74.54379177797937L193.00644762768675,74.4336290205835L193.22525964815551,72.74170980715178L193.44407166862425,72.76789908041857L193.662883689093,71.27652731280729L193.88979985846802,68.18849963643406L194.10050773003053,68.95463224371274L194.311215601593,69.96285975332565L194.5219234731555,68.33830345140098L194.74883964253053,72.15594070901903L194.97575581190551,69.20811131149334L195.20267198128053,68.31550302376715L195.42958815065552,69.77420914058098L195.64840017112425,70.89934354673738L195.85910804268676,73.11685003531962L196.07792006315552,71.26066627909086L196.28862793471802,70.22008522162427L196.52364825299927,69.42468060537034L196.74246027346803,67.71952281594452L196.96127229393676,68.05922941167162L197.18818846331175,67.38625325939147L197.41510463268676,64.67870045245557L197.63391665315552,63.63323986079532L197.85272867362426,63.564304129595094L198.07154069409302,65.47847741880088L198.29035271456175,66.09407014347352L198.51726888393677,67.84332474851571L198.72797675549927,67.66448865258292L198.96299707378054,66.6988666174098L199.17370494534302,65.92624594136558L199.39251696581175,66.1240742039555L199.6113289862805,65.80723388566305L199.82203685784302,64.08635239888133L200.04084887831178,62.80592658770416L200.27586919659302,63.67277201265036L200.48657706815553,63.33230815340252L200.7134932375305,64.11393144287062L200.92420110909302,64.25583785029248L201.15111727846804,63.022326452053505L201.36992929893677,64.10898851542093L201.59684546831176,64.8969381415409L201.81565748878052,63.942306558683896L202.04257365815553,62.37114823612252L202.26138567862426,63.686968706465336L202.47209355018677,64.52483208231686L202.69900971956176,65.30502249562215L202.92592588893677,67.34032069111875L203.14473790940553,69.07277219659996L203.36354992987427,69.22861180715135L203.58236195034303,73.02884183781028L203.79306982190553,70.06551381840572L204.01188184237427,68.11807997587836L204.22258971393677,65.53181355734787L204.44950588331176,63.644180626596594L204.6602137548743,63.94235858827477L204.88712992424928,63.28221445191246L205.11404609362427,63.78642261101083L205.33285811409303,63.43785284269535L205.5435659856555,59.620069449309334L205.754273857218,59.46013621671862L205.98119002659303,58.76469060881398L206.2000020470618,57.28910320171055L206.41070991862426,56.97310814461374L206.629521939093,56.21912903567972L206.84022981065553,56.70818125578912L207.05093768221803,56.16117964323857L207.26974970268677,56.28561365241078L207.49666587206175,54.03380214328794L207.72358204143677,52.228500796829536L207.95049821081176,52.89828842267432L208.17741438018678,51.7783076755701L208.38812225174928,51.706476167977456L208.62314257003052,53.705940473303066L208.84195459049928,52.968129707998095L209.07697490878053,53.64591521068445L209.30389107815552,52.501907966533246L209.53080724753053,50.83307683644666L209.74961926799926,51.38056134701915L209.96843128846803,51.87232917354629L210.19534745784304,51.77694629887586L210.422263627218,50.46929418837731L210.65728394549927,49.34736883798416L210.876095965968,50.164990990605034L211.0868038375305,48.80202346028164L211.30561585799927,50.38558146369497L211.53253202737426,51.78408668888328L211.75944819674928,51.6103583529659L211.978260217218,52.555280500938856L212.20517638659302,51.63256205186359L212.42398840706178,51.93796211895873L212.65900872534303,52.63500189025088L212.8697165969055,51.28418627023376L213.08852861737427,52.49272609029822L213.30734063784303,54.91526075992648L213.54236095612427,53.29818453707492L213.76927712549926,50.28249307116765L213.99619329487427,51.48211559584887L214.23121361315552,48.18539041396181L214.45002563362428,45.21975577570909L214.67694180299927,42.370327428100666L214.90385797237428,39.76618030985724L215.12266999284302,37.045194474445196L215.349586162218,36.45678681023219L215.57650233159302,35.223585740388025L215.79531435206175,38.0461862738348L216.02223052143677,35.94070064227399L216.24104254190553,39.762612980050235L216.451750413468,52.26853694551435L216.6705624339368,68.08232418633683L216.88127030549927,74.02462024383392L217.09197817706178,62.46165206274094L217.30268604862425,80.58692884557452L217.52149806909304,68.74055353570031L217.748414238468,57.5008103006502L217.96722625893676,85.92819859181215" fill="none"></path></g></g></g></g><g opacity="0.2"><g><g><g><path style="fill: none;" stroke="rgb(187, 187, 187)" stroke-width="2px" d="M29.359368763780516,-68.3159763035753L29.570076635343018,86.28978625365559L29.78078450690552,24.259386778043844L29.991492378468017,-42.67949410439388L30.20220025003052,5.098609419808856L30.412908121593016,19.522178529330656L30.623615993155518,5.832961594564579L30.834323864718016,79.4082578086736L31.045031736280517,3.2600142786843493L31.25573960784302,40.538234120172056L31.46644747940552,-21.262945601469706L31.677155350968015,15.131958840137083L31.887863222530516,18.97716463541666L32.09857109409302,27.94269748438681L32.309278965655515,-18.858606097725886L34.20564980971802,-5.317266506390904L34.416357681280516,44.77939186772279L34.627065552843014,8.742729668647042L34.83777342440552,12.504026423928996L35.04848129596802,16.770653033031945L35.259189167530515,34.89668385331971L35.47800118799927,34.390070684769334L35.696813208468015,34.94910232418883L35.90752108003052,36.76440036714928L36.11822895159302,45.21700219043982L36.33704097206177,43.549581490910484L36.54774884362426,52.14088002149122L36.75845671518677,50.578197547182434L36.977268735655514,44.9745544231055L37.19608075612427,41.36794645097213L37.42299692549927,42.22490454064204L37.641808945968016,41.04849979987527L37.86872511534302,38.25274930367193L38.079432986905516,23.2747882310599L38.29824500737426,36.96657179528476L38.50895287893677,120.57798149221603L38.727764899405514,26.623351226071154L38.94657691987427,35.458479555233254L39.165388940343014,37.13547575697409L39.392305109718016,36.48374930748663L39.60301298128052,33.43143458192583L39.81372085284302,36.35206147294917L40.04063702221802,44.13497044054099L40.25944904268677,39.45916386580255L40.47015691424927,37.92283870170478L40.680864785811764,35.02294227938673L40.89157265737427,31.23864457549367L41.110384677843015,24.735792692195094L41.32109254940552,36.22451973215278L41.53990456987427,34.2811863658077L41.75871659034302,33.1259069598168L41.985632759718015,28.370534871857075L42.19634063128051,28.111897595629088L42.40704850284302,21.083478972392417L42.64206882112427,20.801643314518042L42.868984990499264,26.31209804593879L43.08779701096802,28.75928051834021L43.298504882530516,32.50754669329312L43.50921275409302,26.328879853938304L43.736128923468016,38.10704372362899L43.971149241749266,38.4658782652659L44.18996126221801,30.28721477843822L44.40877328268677,40.57673356205332L44.619481154249264,38.29835633482359L44.84639732362427,31.257696863399016L45.07331349299927,36.147422131872595L45.28402136456177,40.23211419895717L45.49472923612427,36.29174568066852L45.71354125659302,33.53637024018169L45.93235327706177,34.05137431273183L46.14306114862426,28.03835378998412L46.35376902018677,29.268756465902285L46.572581040655514,104.34227326829838L46.79139306112427,35.94515198721949L47.01830923049927,72.25348204285226L47.22901710206177,32.16430936144399L47.44782912253052,17.131955487609964L47.65853699409301,15.656834564451664L47.86924486565552,23.15060285186341L48.088056886124264,17.50322831047007L48.30686890659302,17.42455124590759L48.517576778155515,27.944474381704406L48.73638879862427,20.728395658425995L48.955200819093015,26.703805187951232L49.18211698846802,12.949336635022288L49.40092900893677,17.40303104506113L49.61163688049927,23.33421557468176L49.83044890096802,16.98003076695544L50.04926092143677,14.73857351732467L50.28428123971802,18.040048733419614L50.503093260186766,36.32797464264397L50.72190528065552,13.702642381165711L50.93261315221802,22.5609690919742L51.143321023780516,12.25101598920674L51.36213304424926,20.136293985595653L51.580945064718016,63.65221314398945L51.791652936280514,47.57662311169079L52.01856910565552,16.322480042926973L52.229276977218014,20.05356954380976L52.44808899768677,18.727510562294306L52.66690101815552,19.727114019960165L52.893817187530516,21.86610352427618L53.12073335690552,19.58219817205838L53.34764952628052,50.84848337249246L53.55835739784302,15.857525244822469L53.77716941831177,16.811620387854322L53.98787728987427,35.11711783721937L54.206689310343016,86.13736795041284L54.44170962862427,35.6693380369214L54.66862579799927,19.25811184463225L54.887437818468015,13.518536075759146L55.10624983893676,8.76879082930513L55.33316600831177,13.739562358764656L55.560082177686766,12.218143388831187L55.770790049249264,20.87044872731608L55.98960206971802,22.66452271898304L56.208414090186764,17.715370106887598L56.42722611065552,16.02406001008834L56.66224642893677,27.652174772959725L56.881058449405515,19.471833105332077L57.09987046987427,20.99838533418306L57.32678663924927,14.108169835648358L57.53749451081177,16.260288636811083L57.74820238237427,24.409435884863147L57.958910253936764,17.0109290369781L58.16961812549927,18.281706768612775L58.38032599706177,26.581594139107636L58.60724216643677,18.08644549671241L58.81795003799927,37.35186236365032L59.028657909561765,38.72036944775283L59.24746993003052,14.185464868963834L59.45817780159302,32.74515735126287L59.67698982206176,63.77491777542126L59.89580184253052,18.751005093493635L60.106509714093015,46.88402802389861L60.31721758565552,27.01022125871906L60.536029606124266,13.608861689403644L60.76294577549926,20.338169264178187L60.98175779596802,25.238950782627924L61.20867396534302,19.032347168779793L61.427485985811764,28.13726774066368L61.64629800628052,22.147149450009415L61.86511002674927,23.212300675391084L62.083922047218024,21.47508739788723L62.31083821659303,18.80529917819798L62.52965023706177,22.589300732538103L62.75656640643676,33.198562316803006L62.975378426905515,31.78296745378417L63.19419044737426,33.10122783040574L63.42110661674926,42.508023513245796L63.65612693503052,29.76668258089997L63.891147253311765,38.701909458953345L64.10995927378052,42.47811240839959L64.33687544315552,41.08769025738005L64.55568746362427,39.684138809513826L64.77449948409301,45.906931932255624L64.99331150456176,46.69340642832752L65.20401937612426,53.63159815443732L65.42283139659301,46.97257674022551L65.64164341706177,47.75154878095643L65.85235128862426,61.3225033275847L66.06305916018677,50.864278015315534L66.28187118065551,50.95154341691306L66.50878735003052,61.256363260763024L66.72759937049926,55.78470412077648L66.93830724206177,55.93504937714871L67.15711926253051,68.36197820079752L67.37593128299928,84.29660104590015L67.60284745237426,137.8006574595411L67.81355532393677,133.9971100347074L68.02426319549927,100.4326055869971L68.23497106706176,97.49391357324487L68.46188723643677,113.2073127023067L68.67259510799926,65.60137078487553L68.88330297956178,1313.5477241066208L69.95305063518677,683.7491993626069L70.17996680456177,133.13886863030814L70.41498712284302,129.98694893844427L70.64190329221802,126.60166339886935L70.85261116378051,141.07814456184846L71.06331903534303,85.01298681444462L71.29023520471802,80.91862052863091L71.51715137409302,96.79075581806472L71.73596339456176,87.6816891524398L71.95477541503051,93.73251810144527L72.16548328659303,100.07633767481893L72.38429530706178,102.74642204406112L72.59500317862427,102.93595775793813L72.80571105018676,108.67484251118769L73.01641892174928,140.78436420533913L73.24333509112427,115.57048741819284L73.45404296268677,129.14558805856217L73.66475083424926,131.4701646160494L73.88356285471802,134.06522443188194L74.11858317299927,129.34114548001546L74.34549934237427,128.48606300418078L74.55620721393677,124.91124175072888L74.76691508549926,117.62675248072297L74.97762295706175,129.17638761206717L75.18833082862427,164.03121566190572L75.42335114690552,113.60059930860145L75.64216316737426,127.98251004767738L75.86097518784301,161.4525427880021L76.07168305940552,152.5087275729137L76.29049507987428,126.28073600000782L76.50120295143677,116.73208468131295L76.72811912081177,125.90748884679483L76.94693114128052,119.26406464237081L77.15763901284302,119.226552365666L77.36834688440553,160.29509161862305L77.59526305378051,130.52031428327624L77.80597092534302,125.12279124804054L78.01667879690552,133.82218436544176L78.25169911518677,126.73088332046568L78.47051113565553,119.4484670973303L78.70553145393677,168.1050489120494L78.91623932549926,138.16274964626027L79.12694719706177,114.6298177215606L79.33765506862427,152.79717723747024L79.55646708909302,187.61577632533334L79.78338325846802,122.78488796067131L80.00219527893677,115.17177140342763L80.22911144831177,113.52814138465057L80.45602761768676,130.02574452987847L80.67483963815552,156.10408186203563L80.90985995643676,121.80127657886382L81.12867197690552,122.97629928838356L81.36369229518677,124.68755012174695L81.58250431565553,131.95979854356497L81.80942048503051,99.2442561475954L82.04444080331177,97.58068539225415L82.27946112159302,91.04051866528606L82.50637729096802,103.71680541250429L82.74139760924926,97.95176078207898L82.95210548081177,125.64095424915531L83.16281335237427,148.6086353938239L83.39783367065553,106.36941695812345L83.62474984003052,99.24948812303053L83.83545771159302,224.70712579892046L84.04616558315551,165.40831108304326L84.26497760362426,160.29440060299953L84.48378962409302,128.1147901813207L84.71070579346802,132.35061723691862L84.92951781393677,113.93593931903904L85.14832983440552,113.77088530153782L85.38335015268676,102.08857517047971L85.61026632206176,104.29469190679383L85.83718249143676,109.52538402721073L86.04789036299927,101.17061027290566L86.26670238346802,104.71986394828771L86.48551440393676,116.27848228273753L86.69622227549927,107.97030272476057L86.90693014706177,107.96013492344318L87.14195046534303,113.7639751453027L87.36886663471802,108.82884027871276L87.58767865518676,125.06198187317167L87.79838652674927,116.80829383293432L88.01719854721802,109.25174184030082L88.22790641878052,164.48955645332805L88.43861429034303,1314.78017515028L90.66725523956177,1260.597516715223L90.89417140893676,101.88591015975604L91.11298342940552,108.28520841604578L91.33179544987426,223.88422490783782L91.55060747034301,157.76923208165914L91.77752363971801,151.32906518706466L91.99633566018676,150.1827689841794L92.22325182956176,170.94245777869864L92.43395970112427,170.29053389617587L92.64466757268677,128.46977477876948L92.85537544424926,129.22515357178344L93.08229161362426,151.03913477474345L93.30920778299927,106.043751166415L93.53612395237427,150.10655983255805L93.76304012174927,104.11611372637536L93.99806044003053,99.79637763077979L94.21687246049927,102.83862327154088L94.42758033206177,103.76379447490297L94.64639235253051,100.73448069795327L94.85710022409302,98.2276734488947L95.07591224456176,95.9852290340875L95.29472426503052,97.90625246744496L95.51353628549927,95.71691753913036L95.74045245487426,94.78611949426255L95.95926447534302,91.40330186762873L96.17807649581177,90.45088490539683L96.39688851628051,91.25660912240934L96.62380468565551,113.75617654040882L96.85072085503052,146.5034069385422L97.08574117331176,124.82121228663729L97.30455319378052,145.1993617404614L97.51526106534303,137.41092464788153L97.74217723471803,108.99863268906093L97.96909340409302,119.58015493186777L98.20411372237427,108.83190049075974L98.43102989174928,119.63425158353681L98.64984191221802,85.16895891232257L98.86865393268677,107.64019468975813L99.08746595315552,88.01702916287738L99.30627797362428,112.44778781555169L99.52508999409302,97.43991563809342L99.76011031237427,141.84833083250908L99.98702648174927,87.05049573862235L100.19773435331176,122.83750386457571L100.40844222487426,116.26979522918484L100.63535839424928,109.53416979728107L100.86227456362427,93.35176849289131L101.07298243518677,75.82731613112774L101.29179445565552,104.17336930660905L101.52681477393676,72.89454710843414L101.74562679440551,116.60641855435179L101.97254296378051,131.5582197497881L102.19945913315553,123.61450157495374L102.41827115362427,114.19595862651403L102.64518732299928,64.8895259761427L102.86399934346802,124.72032400560487L103.07470721503051,159.3018060180864L103.29351923549926,144.5216728468335L103.50422710706177,96.82343098540497L103.73114327643677,101.02056116608635L103.94185114799926,103.38472304714897L104.17687146628052,100.50950575424199L104.39568348674926,82.3452716416259L104.60639135831177,108.03960172014683L104.83330752768677,71.40422384155862L105.06022369706177,67.39534606002483L105.27903571753052,88.92699802252226L105.49784773799927,100.01957567717348L105.71665975846801,53.626366179002176L105.92736763003052,47.09439292299854L106.14617965049926,51.88925161801597L106.37309581987427,55.14472493688869L106.59190784034301,58.11619083449883L106.81882400971801,63.220229662778124L107.03763603018676,82.65642610524063L107.25644805065552,102.59044994618318L107.48336422003052,73.94370625795743L107.71838453831177,93.58483819104944L107.92909240987427,145.51426743174665L108.14790443034302,148.22916909999932L108.35861230190552,116.34896587633555L108.58552847128053,86.19491968019946L108.79623634284302,116.41717899002774L109.02315251221802,172.111754930195L109.25006868159302,92.1875058837948L109.46077655315551,107.52124128599677L109.67958857362427,82.79788687502487L109.89029644518676,79.49670780848285L110.11721261456177,83.31980110381011L110.34412878393677,77.09631696544481L110.57104495331177,122.96879683304259L110.80606527159301,115.91796956030066L111.02487729206176,85.11456611110057L111.25989761034302,124.28834052439353L111.486813779718,185.47649067146438L111.70562580018677,81.59769145350583L111.92443782065553,87.82295248918874L112.14324984112427,102.71443789234439L112.36206186159302,109.91521555538795L112.58897803096801,101.51098482574311L112.81589420034301,116.97334785043554L113.04281036971803,96.72698494766654L113.27783068799927,177.31806407075376L113.49664270846802,103.10989626202732L113.72355887784302,142.4119034317402L113.95047504721802,112.5290315095729L114.16928706768677,126.52091328743633L114.38809908815551,141.00904299949747L114.59880695971802,118.40671168663033L114.81761898018677,118.67472703203453L115.04453514956177,104.0722835925413L115.25524302112427,145.62009153866128L115.47405504159302,204.8154513440473L115.69286706206178,120.2244776425319L115.91978323143677,107.30396623066174L116.14669940081177,120.89130771921896L116.35740727237426,122.96899426607789L116.58432344174926,127.02041886671633L116.79503131331177,125.78300731804542L117.00573918487427,117.46772017079805L117.22455120534302,131.4882297387783L117.45957152362426,126.33483265167686L117.67838354409302,128.52278554874445L117.90529971346801,135.19493625980297L118.11600758503052,184.7036390548274L118.34292375440552,139.99631024498493L118.55363162596802,129.39109603794344L118.78054779534301,148.155724010872L119.00746396471801,131.59553459345761L119.23438013409302,119.99772580150302L119.46129630346802,122.43286485875186L119.68010832393676,129.82998967538987L119.89081619549927,126.31686624546562L120.10152406706177,118.84708607184142L120.32844023643676,129.03966523512983L120.53914810799927,115.94718964952337L120.75796012846803,188.0570391592032L120.96866800003052,134.79977403967294L121.18748002049927,117.0107614106227L121.40629204096801,110.91027805324218L121.62510406143676,114.74886984183959L121.84391608190552,111.3549959652296L122.05462395346802,117.02813551772813L122.27343597393677,118.55261469970856L122.48414384549926,158.41700987044084L122.70295586596802,133.5076735402271L122.92176788643677,126.37915636809916L123.14057990690551,154.8486051906358L123.35939192737426,178.15350195957723L123.57009979893678,127.96217444504265L123.78080767049926,157.9248093134665L123.99151554206178,130.00096668394974L124.22653586034302,137.1484374274654L124.46155617862426,124.53848818010411L124.67226405018675,174.93820626338572L124.88297192174926,165.11709735599266L125.09367979331178,162.15392364586464L125.32059596268675,117.43287324006961L125.53130383424927,117.5650546571953L125.75011585471802,117.45923055028062L125.96892787518678,127.4333500600223L126.17963574674927,119.57077686269156L126.39034361831176,131.99839670196388L126.60915563878054,161.37366829040434L126.82796765924927,165.26685031325903L127.04677967971803,133.85110830511152L127.26559170018676,126.87046847641467L127.48440372065552,135.33847007645772L127.70321574112427,134.11211477776297L127.93013191049927,132.6248517229344L128.14894393096802,124.26148963159429L128.36775595143678,134.4779581921526L128.60277626971802,211.79461042497945L128.82158829018678,150.0260071541603L129.03229616174926,206.1746790754912L129.24300403331176,180.91183889559335L129.46181605378052,170.18293289194364L129.67252392534303,172.27828969546087L129.89133594581176,149.4172223898481L130.10204381737427,139.15346861733815L130.32085583784303,125.8859686459484L130.5396678583118,124.27540866058214L130.75847987878052,118.72882368370357L130.9853960481555,115.79950973912754L131.21231221753052,114.31974913963997L131.4392283869055,114.40138769973177L131.65804040737424,119.63573233130148L131.89306072565552,116.6898340117612L132.11187274612428,117.06653624309173L132.33068476659304,116.58578680216415L132.56570508487428,122.32654716924898L132.784517105343,122.02161184624582L133.00332912581177,121.99555068558773L133.21403699737425,124.30531976542835L133.44095316674927,124.43829091469517L133.65166103831177,120.1483672074282L133.86236890987425,121.06781285276689L134.08928507924927,116.62872848733939L134.29999295081177,118.82230822591269L134.51880497128053,120.8609030317845L134.74572114065552,120.15942345740432L134.97263731003054,124.9271351100696L135.19144933049927,123.29742412028035L135.41026135096803,121.89160219250833L135.64528166924927,119.5829189943618L135.86409368971803,121.08607540853107L136.09100985909302,121.51480124466015L136.30982187956178,121.05330152467319L136.52052975112426,122.83967562796387L136.73123762268676,115.6885523732954L136.95815379206175,121.25981647958498L137.18506996143677,127.75871970217781L137.41198613081178,125.30482450657658L137.63890230018677,118.46337496775816L137.84961017174928,122.28587596397952L138.08463049003052,120.38992652610371L138.295338361593,114.20583027827847L138.51415038206176,120.00266162738524L138.73296240253052,114.05785421832971L138.94367027409302,111.9916187875175L139.17869059237427,119.85823936207167L139.38939846393677,121.23800012918562L139.60010633549928,118.26900214451658L139.81891835596804,120.05409293307788L140.03773037643677,121.9867649155174L140.272750694718,128.4114333168417L140.50777101299929,127.11508800713719L140.72658303346802,126.3805383993462L140.96160335174926,128.27767243543371L141.19662367003053,124.65063014414801L141.43164398831178,124.65309805708911L141.65856015768676,124.03167757851844L141.88547632706178,114.89911638169417L142.1042883475305,114.07828853748208L142.33930866581176,120.96692457173445L142.55812068628052,113.295466552563L142.77693270674925,120.44333216214926L143.00384887612427,118.34422413096152L143.21455674768677,113.7262654355626L143.44957706596801,116.03317173639152L143.66028493753052,113.26881309279906L143.88720110690554,120.6311896952263L144.10601312737427,117.8915101810449L144.32482514784303,121.1918007989281L144.5355330194055,120.37827797702167L144.76244918878052,119.80285939567325L144.9893653581555,123.93187517918007L145.20007322971801,122.17916340840608L145.43509354799926,118.93277200915665L145.65390556846802,122.14816642186578L145.86461344003052,114.07740008882327L146.0915296094055,116.60306219275189L146.32654992768676,120.7776850074104L146.54536194815552,118.20809405313007L146.76417396862428,114.73603669454585L146.98298598909304,116.85518417881536L147.20179800956177,116.49368429120203L147.42061003003053,116.5304068357657L147.63131790159304,119.03356157367145L147.8420257731555,118.86070895127634L148.06894194253053,114.35745884938007L148.28775396299926,118.92438110515688L148.51467013237425,115.14798072267538L148.733482152843,115.87157279700786L148.95229417331177,119.3184574435928L149.17110619378053,120.00473467425576L149.381814065343,117.43869751461064L149.5925219369055,113.98292838143769L149.80322980846802,113.15834930955512L150.02204182893678,119.99130922785615L150.24895799831177,116.06407000641418L150.47587416768678,118.32003858413867L150.69468618815552,115.976705888299L150.90539405971802,114.7486724088043L151.1404143779993,115.01876080107903L151.35112224956177,120.14412239716945L151.586142567843,117.17176805090051L151.80495458831177,110.00267839002076L152.01566245987428,115.35755588963414L152.22637033143678,109.77750601327419L152.46139064971803,114.6659479670184L152.6802026701868,115.1727585686041L152.89091054174926,119.89407345797653L153.109722562218,114.77749763195644L153.32853458268679,112.85183452226966L153.53924245424926,118.891607221299L153.76615862362428,115.26703284295435L153.984970644093,113.1578557269669L154.19567851565552,121.13622339949438L154.4225946850305,115.1707842382512L154.64951085440552,119.6567589495597L154.86021872596802,118.99604929696662L155.09523904424927,118.5373136394737L155.3302593625305,119.66692675087707L155.54907138299927,123.4647486176874L155.75977925456178,116.42389171322753L155.9785912750305,117.77739388664811L156.18929914659302,124.32200285691023L156.40811116706178,121.58261949228176L156.6269231875305,114.582532509609L156.8538393569055,117.07107720290338L157.064547228468,113.76910840422022L157.28335924893676,119.09170560256393L157.50217126940552,115.00651995289113L157.7290874387805,115.87374456039602L157.94789945924927,113.61747983311861L158.17481562862426,113.833274140689L158.40173179799928,116.92339729250754L158.6286479673743,115.80286610072744L158.83935583893677,118.73346336003287L159.05006371049927,117.93583389746716L159.268875730968,126.08093376829582L159.49579190034302,117.88588333953918L159.722708069718,118.66850789142292L159.94152009018677,117.66426475742779L160.1684362595618,120.17107200648636L160.38724828003052,122.78360464594194L160.60606030049928,115.27897754158931L160.84108061878052,124.64648405040694L161.05989263924926,117.58361336251241L161.28680880862427,114.15972966453859L161.51372497799926,117.9421517545964L161.74064114737428,112.78737263624797L161.97566146565552,108.91896845932199L162.2025776350305,112.4342636526344L162.42138965549927,112.70375974580325L162.63209752706177,114.85518753134247L162.8509095475305,112.34482648764872L163.06161741909304,112.34620851889572L163.288533588468,106.51423408950758L163.49924146003053,108.81413151758376L163.709949331593,104.1817602106088L163.9206572031555,108.13841695430877L164.13946922362427,100.83507282943279L164.36638539299926,106.41680088659271L164.58519741346802,105.67366294176665L164.80400943393676,97.39361759131828L165.03902975221803,98.78473075796133L165.25784177268676,98.29628142865747L165.47665379315552,93.67782915067035L165.70356996253054,95.16489477246361L165.92238198299927,96.7403116775485L166.13308985456175,93.72698997645718L166.35190187503053,94.13222128138692L166.57071389549927,95.50793467127744L166.78952591596803,94.76825180456893L167.00833793643676,95.9159300387012L167.22714995690552,95.00418428173874L167.44596197737425,95.79441000548111L167.664773997843,95.56124159080535L167.89169016721803,96.03241552952146L168.11050218768676,93.09589527915738L168.34552250596803,92.43933172030535L168.56433452643677,132.89898749243255L168.78314654690553,95.42442049735041L169.01816686518677,92.17635091730102L169.25318718346801,95.03143004060857L169.47199920393678,96.40635369835795L169.6908112244055,92.86016023502286L169.901519095968,92.87141391803429L170.11222696753052,94.29135230782946L170.3391431369055,87.1878104146655L170.55795515737427,86.04556158900367L170.78487132674928,86.49788067284972L171.00368334721801,82.66965411860495L171.21439121878052,82.22809513518214L171.43320323924925,81.40321991374663L171.65201525971804,81.2970009407614L171.86272313128052,82.9228619863625L172.07343100284302,83.25760969769424L172.300347172218,85.65326214788534L172.51915919268677,83.21368084734253L172.73797121315553,80.7517896138121L172.948679084718,80.64932186849734L173.16749110518677,87.81712821464774L173.39440727456176,80.4003588109985L173.6051151461243,85.06273993933732L173.83203131549925,81.16639898791803L174.05894748487427,76.71102639707922L174.28586365424925,75.84942863108004L174.49657152581176,79.6502119934197L174.70727939737426,74.4990853862241L174.92609141784303,69.32229248444098L175.153007587218,68.54174097942773L175.37181960768677,65.05882480390262L175.58252747924928,72.8815165281051L175.80944364862427,69.89573673543654L176.0444639669055,69.38596463832152L176.27948428518675,70.89257613060836L176.50640045456177,68.16622334630894L176.7252124750305,65.17303981481705L176.93592034659304,67.4917920977633L177.1466282181555,65.5700776487823L177.36544023862425,71.99158712154201L177.57614811018675,67.9457893624093L177.78685598174928,69.17194722806875L177.99756385331176,65.1068997479954L178.232584171593,64.11519361174106L178.45950034096802,66.39120164254733L178.686416510343,62.035434018011614L178.91333267971802,59.37995969338076L179.13214470018676,53.9999094817681L179.35095672065552,63.019341549372044L179.57787289003053,61.91963954281487L179.81289320831178,64.13849070990511L180.02360107987425,64.37027709333385L180.24241310034304,65.20186503796918L180.45312097190552,60.41756901033967L180.66382884346802,58.18953720710852L180.8745367150305,57.57453330218473L181.0933487354993,62.52763457498594L181.30405660706177,62.297625088874774L181.53097277643678,60.04313725891496L181.74168064799926,63.1093710134636L181.95238851956177,57.086873705022036L182.16309639112427,54.28085669098369L182.3981167094055,52.45598314581172L182.6250328787805,52.35460128219107L182.85194904815552,50.91422857324353L183.0788652175305,59.64570455887914L183.29767723799927,53.147097485839254L183.5326975562805,57.787563547261065L183.74340542784302,56.20434803728228L183.96221744831178,59.259426825337115L184.1810294687805,62.46504830279945L184.39984148924927,60.62230706793389L184.618653509718,58.74501505189282L184.8293613812805,61.06495193305079L185.05627755065552,66.73216849449064L185.27508957112428,69.33443461611121L185.49390159159302,71.83640475580522L185.72892190987426,65.97442050505323L185.95583807924925,66.56948367341289L186.18275424862426,68.31716090178703L186.40967041799925,72.6636491736642L186.62037828956176,71.715477021691L186.83108616112426,73.52356875886343L187.05800233049925,65.07402714761986L187.26871020206175,71.19198332862344L187.48752222253052,78.0000666844781L187.70633424299928,72.51902947531535L187.93325041237426,76.32573582871365L188.15206243284302,69.15694231738682L188.37087445331176,72.44064856030579L188.5815823248743,76.81971328300557L188.80849849424928,73.5360070400866L189.01920636581178,75.36946892229362L189.24612253518677,72.53867406232655L189.48114285346801,72.69484359323978L189.69185072503052,73.07154582457032L189.91066274549925,74.57904576551596L190.12137061706179,74.61339911365616L190.35639093534303,74.43788114528463L190.58330710471802,74.36947059855717L190.80211912518675,75.93373253714826L191.02903529456177,75.10313175768938L191.23974316612427,77.40806372816542L191.45045103768678,75.94903359738312L191.6692630581555,75.01102924672726L191.88807507862427,77.11398722210313L192.106887099093,72.55900966496127L192.3256991195618,71.10274359667301L192.55261528893678,74.5006648505064L192.78763560721802,75.70243973630774L193.00644762768675,74.26838488448944L193.22525964815551,70.2038309870043L193.44407166862425,72.80718299031898L193.662883689093,69.03946966139014L193.88979985846802,63.556458121874506L194.10050773003053,70.10383115463065L194.311215601593,71.47520101774484L194.5219234731555,65.90146899851412L194.74883964253053,77.88239659544612L194.97575581190551,64.78636721520445L195.20267198128053,66.97659059217786L195.42958815065552,71.96226831580167L195.64840017112425,72.58704515597225L195.85910804268676,76.44310976819268L196.07792006315552,68.47639064474724L196.28862793471802,68.65921363542442L196.52364825299927,68.23157368098946L196.74246027346803,65.1617861318056L196.96127229393676,68.56878930526227L197.18818846331175,66.37678903097128L197.41510463268676,60.61737124205169L197.63391665315552,62.06504897330489L197.85272867362426,63.460900532794845L198.07154069409302,68.34973735260964L198.29035271456175,67.01745923048259L198.51726888393677,70.46720665607921L198.72797675549927,67.39623450868363L198.96299707378054,65.25043356465015L199.17370494534302,64.76731492729911L199.39251696581175,66.42081659784061L199.6113289862805,65.33197340822433L199.82203685784302,61.50503016870894L200.04084887831178,60.88528787093823L200.27586919659302,64.97304015006976L200.48657706815553,62.821612364530566L200.7134932375305,65.28636637707268L200.92420110909302,64.4686974614252L201.15111727846804,61.172059354694824L201.36992929893677,65.73898161047165L201.59684546831176,66.07886258072087L201.81565748878052,62.51035918439818L202.04257365815553,60.01441075228049L202.26138567862426,65.66069941197975L202.47209355018677,65.78162714609398L202.69900971956176,66.47530811558025L202.92592588893677,70.39326798436366L203.14473790940553,71.67144945482164L203.36354992987427,69.46237122297819L203.58236195034303,78.72918688379868L203.79306982190553,65.62052178929852L204.01188184237427,65.19692921208697L204.22258971393677,61.65241392955184L204.44950588331176,60.81273123046968L204.6602137548743,64.38962553079213L204.88712992424928,62.29199824736906L205.11404609362427,64.5427348496584L205.33285811409303,62.91499819022204L205.5435659856555,53.89339435922994L205.754273857218,59.220236367832335L205.98119002659303,57.72152219695704L206.2000020470618,55.07572209105533L206.41070991862426,56.49911555896805L206.629521939093,55.088160372278516L206.84022981065553,57.44175958595318L207.05093768221803,55.340677224412566L207.26974970268677,56.47226466616882L207.49666587206175,50.656084879603775L207.72358204143677,49.52054877714174L207.95049821081176,53.902969861441434L208.17741438018678,50.09833655491366L208.38812225174928,51.59872890658889L208.62314257003052,56.70513693129164L208.84195459049928,51.86141356004028L209.07697490878053,54.662593464714085L209.30389107815552,50.785897100305974L209.53080724753053,48.32983014131657L209.74961926799926,52.201788112877736L209.96843128846803,52.609980913336784L210.19534745784304,51.633871986870254L210.422263627218,48.507816022629186L210.65728394549927,47.66448081239419L210.876095965968,51.391424219535935L211.0868038375305,46.75757216479629L211.30561585799927,52.76091846881487L211.53253202737426,53.881844526665546L211.75944819674928,51.34976584909004L211.978260217218,53.97266372289828L212.20517638659302,50.24848437825059L212.42398840706178,52.39606221960166L212.65900872534303,53.680561547188894L212.8697165969055,49.25796284020799L213.08852861737427,54.30553582039475L213.30734063784303,58.54906276436896L213.54236095612427,50.872570202797654L213.76927712549926,45.75895587230686L213.99619329487427,53.28154938287075L214.23121361315552,43.240302641130974L214.45002563362428,40.771303818330175L214.67694180299927,38.096184906688116L214.90385797237428,35.85995963249249L215.12266999284302,32.96371572132729L215.349586162218,35.57417531391233L215.57650233159302,33.37378413562156L215.79531435206175,42.280087074005166L216.02223052143677,32.7824721949324L216.24104254190553,45.49548148671432L216.451750413468,71.02742289371044L216.6705624339368,91.80300504757037L216.88127030549927,82.93806433007973L217.09197817706178,45.11719979110148L217.30268604862425,107.77484401982491L217.52149806909304,50.97099057088898L217.748414238468,40.64119544807503L217.96722625893676,128.5692810285549" fill="none"></path></g></g></g></g></g></g><g transform="translate(82, 176)" clip-path="url(#clip_1)"><clipPath id="clip_1"><rect width="247" height="23"></rect></clipPath><g><g><line x1="0" y1="0" x2="0" y2="5" style="visibility: inherit;" fill="rgb(0, 0, 0)" stroke="rgb(204, 204, 204)" stroke-width="1px"></line><line x1="24.731899738311768" y1="0" x2="24.731899738311768" y2="5" style="visibility: inherit;" fill="rgb(0, 0, 0)" stroke="rgb(204, 204, 204)" stroke-width="1px"></line><line x1="49.463799476623535" y1="0" x2="49.463799476623535" y2="5" style="visibility: inherit;" fill="rgb(0, 0, 0)" stroke="rgb(204, 204, 204)" stroke-width="1px"></line><line x1="74.1956992149353" y1="0" x2="74.1956992149353" y2="5" style="visibility: inherit;" fill="rgb(0, 0, 0)" stroke="rgb(204, 204, 204)" stroke-width="1px"></line><line x1="98.92759895324707" y1="0" x2="98.92759895324707" y2="5" style="visibility: inherit;" fill="rgb(0, 0, 0)" stroke="rgb(204, 204, 204)" stroke-width="1px"></line><line x1="123.65949869155884" y1="0" x2="123.65949869155884" y2="5" style="visibility: inherit;" fill="rgb(0, 0, 0)" stroke="rgb(204, 204, 204)" stroke-width="1px"></line><line x1="148.3913984298706" y1="0" x2="148.3913984298706" y2="5" style="visibility: inherit;" fill="rgb(0, 0, 0)" stroke="rgb(204, 204, 204)" stroke-width="1px"></line><line x1="173.12329816818237" y1="0" x2="173.12329816818237" y2="5" style="visibility: inherit;" fill="rgb(0, 0, 0)" stroke="rgb(204, 204, 204)" stroke-width="1px"></line><line x1="197.85519790649414" y1="0" x2="197.85519790649414" y2="5" style="visibility: inherit;" fill="rgb(0, 0, 0)" stroke="rgb(204, 204, 204)" stroke-width="1px"></line><line x1="222.5870976448059" y1="0" x2="222.5870976448059" y2="5" style="visibility: inherit;" fill="rgb(0, 0, 0)" stroke="rgb(204, 204, 204)" stroke-width="1px"></line><line x1="247.31899738311768" y1="0" x2="247.31899738311768" y2="5" style="visibility: inherit;" fill="rgb(0, 0, 0)" stroke="rgb(204, 204, 204)" stroke-width="1px"></line></g><g transform="translate(0, 8)"><text style="text-anchor: middle; visibility: hidden; font-family: Roboto, sans-serif; font-size: 12px; font-weight: 200;" x="0" y="0" dx="0em" dy="0.95em" fill="rgb(33, 33, 33)" stroke="none" stroke-width="1px">-50M</text><text style="text-anchor: middle; visibility: inherit; font-family: Roboto, sans-serif; font-size: 12px; font-weight: 200;" x="24.731899738311768" y="0" dx="0em" dy="0.95em" fill="rgb(33, 33, 33)" stroke="none" stroke-width="1px">0</text><text style="text-anchor: middle; visibility: hidden; font-family: Roboto, sans-serif; font-size: 12px; font-weight: 200;" x="49.463799476623535" y="0" dx="0em" dy="0.95em" fill="rgb(33, 33, 33)" stroke="none" stroke-width="1px">50M</text><text style="text-anchor: middle; visibility: inherit; font-family: Roboto, sans-serif; font-size: 12px; font-weight: 200;" x="74.1956992149353" y="0" dx="0em" dy="0.95em" fill="rgb(33, 33, 33)" stroke="none" stroke-width="1px">100M</text><text style="text-anchor: middle; visibility: hidden; font-family: Roboto, sans-serif; font-size: 12px; font-weight: 200;" x="98.92759895324707" y="0" dx="0em" dy="0.95em" fill="rgb(33, 33, 33)" stroke="none" stroke-width="1px">150M</text><text style="text-anchor: middle; visibility: inherit; font-family: Roboto, sans-serif; font-size: 12px; font-weight: 200;" x="123.65949869155884" y="0" dx="0em" dy="0.95em" fill="rgb(33, 33, 33)" stroke="none" stroke-width="1px">200M</text><text style="text-anchor: middle; visibility: hidden; font-family: Roboto, sans-serif; font-size: 12px; font-weight: 200;" x="148.3913984298706" y="0" dx="0em" dy="0.95em" fill="rgb(33, 33, 33)" stroke="none" stroke-width="1px">250M</text><text style="text-anchor: middle; visibility: inherit; font-family: Roboto, sans-serif; font-size: 12px; font-weight: 200;" x="173.12329816818237" y="0" dx="0em" dy="0.95em" fill="rgb(33, 33, 33)" stroke="none" stroke-width="1px">300M</text><text style="text-anchor: middle; visibility: hidden; font-family: Roboto, sans-serif; font-size: 12px; font-weight: 200;" x="197.85519790649414" y="0" dx="0em" dy="0.95em" fill="rgb(33, 33, 33)" stroke="none" stroke-width="1px">350M</text><text style="text-anchor: middle; visibility: inherit; font-family: Roboto, sans-serif; font-size: 12px; font-weight: 200;" x="222.5870976448059" y="0" dx="0em" dy="0.95em" fill="rgb(33, 33, 33)" stroke="none" stroke-width="1px">400M</text><text style="text-anchor: middle; visibility: hidden; font-family: Roboto, sans-serif; font-size: 12px; font-weight: 200;" x="247.31899738311768" y="0" dx="0em" dy="0.95em" fill="rgb(33, 33, 33)" stroke="none" stroke-width="1px">450M</text></g><line x1="0" y1="0" x2="247.31899738311768" y2="0" fill="rgb(0, 0, 0)" stroke="rgb(204, 204, 204)" stroke-width="1px"></line></g></g></g></g></svg>