<svg viewBox="0 0 330 200" xmlns="http://www.w3.org/2000/svg"><g><g><g><g><g><line x1="82.68100261688232" y1="176.89999961853027" x2="77.68100261688232" y2="176.89999961853027" style="visibility: inherit;" fill="rgb(0, 0, 0)" stroke="rgb(204, 204, 204)" stroke-width="1px"></line><line x1="82.68100261688232" y1="162.15833298365274" x2="77.68100261688232" y2="162.15833298365274" style="visibility: inherit;" fill="rgb(0, 0, 0)" stroke="rgb(204, 204, 204)" stroke-width="1px"></line><line x1="82.68100261688232" y1="147.41666634877524" x2="77.68100261688232" y2="147.41666634877524" style="visibility: inherit;" fill="rgb(0, 0, 0)" stroke="rgb(204, 204, 204)" stroke-width="1px"></line><line x1="82.68100261688232" y1="132.6749997138977" x2="77.68100261688232" y2="132.6749997138977" style="visibility: inherit;" fill="rgb(0, 0, 0)" stroke="rgb(204, 204, 204)" stroke-width="1px"></line><line x1="82.68100261688232" y1="117.9333330790202" x2="77.68100261688232" y2="117.9333330790202" style="visibility: inherit;" fill="rgb(0, 0, 0)" stroke="rgb(204, 204, 204)" stroke-width="1px"></line><line x1="82.68100261688232" y1="103.19166644414264" x2="77.68100261688232" y2="103.19166644414264" style="visibility: inherit;" fill="rgb(0, 0, 0)" stroke="rgb(204, 204, 204)" stroke-width="1px"></line><line x1="82.68100261688232" y1="88.44999980926514" x2="77.68100261688232" y2="88.44999980926514" style="visibility: inherit;" fill="rgb(0, 0, 0)" stroke="rgb(204, 204, 204)" stroke-width="1px"></line><line x1="82.68100261688232" y1="73.7083331743876" x2="77.68100261688232" y2="73.7083331743876" style="visibility: inherit;" fill="rgb(0, 0, 0)" stroke="rgb(204, 204, 204)" stroke-width="1px"></line><line x1="82.68100261688232" y1="58.9666665395101" x2="77.68100261688232" y2="58.9666665395101" style="visibility: inherit;" fill="rgb(0, 0, 0)" stroke="rgb(204, 204, 204)" stroke-width="1px"></line><line x1="82.68100261688232" y1="44.22499990463257" x2="77.68100261688232" y2="44.22499990463257" style="visibility: inherit;" fill="rgb(0, 0, 0)" stroke="rgb(204, 204, 204)" stroke-width="1px"></line><line x1="82.68100261688232" y1="29.48333326975504" x2="77.68100261688232" y2="29.48333326975504" style="visibility: inherit;" fill="rgb(0, 0, 0)" stroke="rgb(204, 204, 204)" stroke-width="1px"></line><line x1="82.68100261688232" y1="14.741666634877529" x2="77.68100261688232" y2="14.741666634877529" style="visibility: inherit;" fill="rgb(0, 0, 0)" stroke="rgb(204, 204, 204)" stroke-width="1px"></line><line x1="82.68100261688232" y1="0" x2="77.68100261688232" y2="0" style="visibility: inherit;" fill="rgb(0, 0, 0)" stroke="rgb(204, 204, 204)" stroke-width="1px"></line></g><g transform="translate(72.68100261688232, 0)"><text style="text-anchor: end; visibility: hidden; font-family: Roboto, sans-serif; font-size: 12px; font-weight: 200;" x="0" y="176.89999961853027" dx="0em" dy="0.3em" fill="rgb(33, 33, 33)" stroke="none" stroke-width="1px">2e+5</text><text style="text-anchor: end; visibility: inherit; font-family: Roboto, sans-serif; font-size: 12px; font-weight: 200;" x="0" y="162.15833298365274" dx="0em" dy="0.3em" fill="rgb(33, 33, 33)" stroke="none" stroke-width="1px">2.02e+5</text><text style="text-anchor: end; visibility: hidden; font-family: Roboto, sans-serif; font-size: 12px; font-weight: 200;" x="0" y="147.41666634877524" dx="0em" dy="0.3em" fill="rgb(33, 33, 33)" stroke="none" stroke-width="1px">2.04e+5</text><text style="text-anchor: end; visibility: inherit; font-family: Roboto, sans-serif; font-size: 12px; font-weight: 200;" x="0" y="132.6749997138977" dx="0em" dy="0.3em" fill="rgb(33, 33, 33)" stroke="none" stroke-width="1px">2.06e+5</text><text style="text-anchor: end; visibility: hidden; font-family: Roboto, sans-serif; font-size: 12px; font-weight: 200;" x="0" y="117.9333330790202" dx="0em" dy="0.3em" fill="rgb(33, 33, 33)" stroke="none" stroke-width="1px">2.08e+5</text><text style="text-anchor: end; visibility: inherit; font-family: Roboto, sans-serif; font-size: 12px; font-weight: 200;" x="0" y="103.19166644414264" dx="0em" dy="0.3em" fill="rgb(33, 33, 33)" stroke="none" stroke-width="1px">2.1e+5</text><text style="text-anchor: end; visibility: hidden; font-family: Roboto, sans-serif; font-size: 12px; font-weight: 200;" x="0" y="88.44999980926514" dx="0em" dy="0.3em" fill="rgb(33, 33, 33)" stroke="none" stroke-width="1px">2.12e+5</text><text style="text-anchor: end; visibility: inherit; font-family: Roboto, sans-serif; font-size: 12px; font-weight: 200;" x="0" y="73.7083331743876" dx="0em" dy="0.3em" fill="rgb(33, 33, 33)" stroke="none" stroke-width="1px">2.14e+5</text><text style="text-anchor: end; visibility: hidden; font-family: Roboto, sans-serif; font-size: 12px; font-weight: 200;" x="0" y="58.9666665395101" dx="0em" dy="0.3em" fill="rgb(33, 33, 33)" stroke="none" stroke-width="1px">2.16e+5</text><text style="text-anchor: end; visibility: inherit; font-family: Roboto, sans-serif; font-size: 12px; font-weight: 200;" x="0" y="44.22499990463257" dx="0em" dy="0.3em" fill="rgb(33, 33, 33)" stroke="none" stroke-width="1px">2.18e+5</text><text style="text-anchor: end; visibility: hidden; font-family: Roboto, sans-serif; font-size: 12px; font-weight: 200;" x="0" y="29.48333326975504" dx="0em" dy="0.3em" fill="rgb(33, 33, 33)" stroke="none" stroke-width="1px">2.2e+5</text><text style="text-anchor: end; visibility: inherit; font-family: Roboto, sans-serif; font-size: 12px; font-weight: 200;" x="0" y="14.741666634877529" dx="0em" dy="0.3em" fill="rgb(33, 33, 33)" stroke="none" stroke-width="1px">2.22e+5</text><text style="text-anchor: end; visibility: hidden; font-family: Roboto, sans-serif; font-size: 12px; font-weight: 200;" x="0" y="0" dx="0em" dy="0.3em" fill="rgb(33, 33, 33)" stroke="none" stroke-width="1px">2.24e+5</text></g><line x1="82.68100261688232" y1="0" x2="82.68100261688232" y2="176.89999961853027" fill="rgb(0, 0, 0)" stroke="rgb(204, 204, 204)" stroke-width="1px"></line></g></g><g transform="translate(82, 0)" clip-path="url(#clip_0)"><clipPath id="clip_0"><rect width="247" height="176"></rect></clipPath><g><g><g><line x1="0" y1="0" x2="0" y2="176.89999961853027" fill="rgb(0, 0, 0)" stroke="rgb(66, 66, 66)" stroke-width="1px" opacity="0.25"></line><line x1="24.731899738311768" y1="0" x2="24.731899738311768" y2="176.89999961853027" fill="rgb(0, 0, 0)" stroke="rgb(66, 66, 66)" stroke-width="1px" opacity="0.25"></line><line x1="49.463799476623535" y1="0" x2="49.463799476623535" y2="176.89999961853027" fill="rgb(0, 0, 0)" stroke="rgb(66, 66, 66)" stroke-width="1px" opacity="0.25"></line><line x1="74.1956992149353" y1="0" x2="74.1956992149353" y2="176.89999961853027" fill="rgb(0, 0, 0)" stroke="rgb(66, 66, 66)" stroke-width="1px" opacity="0.25"></line><line x1="98.92759895324707" y1="0" x2="98.92759895324707" y2="176.89999961853027" fill="rgb(0, 0, 0)" stroke="rgb(66, 66, 66)" stroke-width="1px" opacity="0.25"></line><line x1="123.65949869155884" y1="0" x2="123.65949869155884" y2="176.89999961853027" fill="rgb(0, 0, 0)" stroke="rgb(66, 66, 66)" stroke-width="1px" opacity="0.25"></line><line x1="148.3913984298706" y1="0" x2="148.3913984298706" y2="176.89999961853027" fill="rgb(0, 0, 0)" stroke="rgb(66, 66, 66)" stroke-width="1px" opacity="0.25"></line><line x1="173.12329816818237" y1="0" x2="173.12329816818237" y2="176.89999961853027" fill="rgb(0, 0, 0)" stroke="rgb(66, 66, 66)" stroke-width="1px" opacity="0.25"></line><line x1="197.85519790649414" y1="0" x2="197.85519790649414" y2="176.89999961853027" fill="rgb(0, 0, 0)" stroke="rgb(66, 66, 66)" stroke-width="1px" opacity="0.25"></line><line x1="222.5870976448059" y1="0" x2="222.5870976448059" y2="176.89999961853027" fill="rgb(0, 0, 0)" stroke="rgb(66, 66, 66)" stroke-width="1px" opacity="0.25"></line><line x1="247.31899738311768" y1="0" x2="247.31899738311768" y2="176.89999961853027" fill="rgb(0, 0, 0)" stroke="rgb(66, 66, 66)" stroke-width="1px" opacity="0.25"></line></g><g><line x1="0" y1="176.89999961853027" x2="247.31899738311768" y2="176.89999961853027" fill="rgb(0, 0, 0)" stroke="rgb(66, 66, 66)" stroke-width="1px" opacity="0.25"></line><line x1="0" y1="162.15833298365274" x2="247.31899738311768" y2="162.15833298365274" fill="rgb(0, 0, 0)" stroke="rgb(66, 66, 66)" stroke-width="1px" opacity="0.25"></line><line x1="0" y1="147.41666634877524" x2="247.31899738311768" y2="147.41666634877524" fill="rgb(0, 0, 0)" stroke="rgb(66, 66, 66)" stroke-width="1px" opacity="0.25"></line><line x1="0" y1="132.6749997138977" x2="247.31899738311768" y2="132.6749997138977" fill="rgb(0, 0, 0)" stroke="rgb(66, 66, 66)" stroke-width="1px" opacity="0.25"></line><line x1="0" y1="117.9333330790202" x2="247.31899738311768" y2="117.9333330790202" fill="rgb(0, 0, 0)" stroke="rgb(66, 66, 66)" stroke-width="1px" opacity="0.25"></line><line x1="0" y1="103.19166644414264" x2="247.31899738311768" y2="103.19166644414264" fill="rgb(0, 0, 0)" stroke="rgb(66, 66, 66)" stroke-width="1px" opacity="0.25"></line><line x1="0" y1="88.44999980926514" x2="247.31899738311768" y2="88.44999980926514" fill="rgb(0, 0, 0)" stroke="rgb(66, 66, 66)" stroke-width="1px" opacity="0.25"></line><line x1="0" y1="73.7083331743876" x2="247.31899738311768" y2="73.7083331743876" fill="rgb(0, 0, 0)" stroke="rgb(66, 66, 66)" stroke-width="1px" opacity="0.25"></line><line x1="0" y1="58.9666665395101" x2="247.31899738311768" y2="58.9666665395101" fill="rgb(0, 0, 0)" stroke="rgb(66, 66, 66)" stroke-width="1px" opacity="0.25"></line><line x1="0" y1="44.22499990463257" x2="247.31899738311768" y2="44.22499990463257" fill="rgb(0, 0, 0)" stroke="rgb(66, 66, 66)" stroke-width="1px" opacity="0.25"></line><line x1="0" y1="29.48333326975504" x2="247.31899738311768" y2="29.48333326975504" fill="rgb(0, 0, 0)" stroke="rgb(66, 66, 66)" stroke-width="1px" opacity="0.25"></line><line x1="0" y1="14.741666634877529" x2="247.31899738311768" y2="14.741666634877529" fill="rgb(0, 0, 0)" stroke="rgb(66, 66, 66)" stroke-width="1px" opacity="0.25"></line><line x1="0" y1="0" x2="247.31899738311768" y2="0" fill="rgb(0, 0, 0)" stroke="rgb(66, 66, 66)" stroke-width="1px" opacity="0.25"></line></g></g></g><g><g><line x1="0" y1="1651.0666631062827" x2="247.31899738311768" y2="1651.0666631062827" fill="rgb(0, 0, 0)" stroke="rgb(153, 153, 153)" stroke-width="1.5px"></line></g></g><g><g><line x1="24.731899738311768" y1="0" x2="24.731899738311768" y2="176.89999961853027" fill="rgb(0, 0, 0)" stroke="rgb(153, 153, 153)" stroke-width="1.5px"></line></g></g><g><g><g><g><g><path style="fill: none;" stroke="rgb(187, 187, 187)" stroke-width="2px" d="M24.966920056593015,473.4201482405846L25.18573207706177,172.43998441337067L25.40454409753052,36.49640775013439L25.615251969093016,-49.517775269443185L29.570076635343018,-5.067474380556696L29.78078450690552,4.92043122267118L29.991492378468017,-18.921908613061593L30.623615993155518,-1.2248038478621146L30.834323864718016,32.02051432322842L31.045031736280517,18.40344876238632L31.25573960784302,25.53879483409248L31.46644747940552,2.694826359613592L31.677155350968015,5.109058553730131L31.887863222530516,9.11739614548969L32.09857109409302,15.115864201903925L32.309278965655515,-2.2681592639235753L34.20564980971802,-18.485075407134723L34.416357681280516,5.17495578982694L34.627065552843014,3.2748251140840225L34.83777342440552,3.542161262971666L35.04848129596802,5.7048498230099725L35.259189167530515,14.321009427666338L35.47800118799927,19.598503627683666L35.696813208468015,22.824151085050442L35.90752108003052,25.25356966256663L36.11822895159302,30.304455983620713L36.33704097206177,32.58491335078336L36.54774884362426,37.573280419524735L36.75845671518677,40.056607536867816L36.977268735655514,39.16845050510947L37.19608075612427,37.15613790382777L37.42299692549927,36.09976029064987L37.641808945968016,35.11370002558609L37.86872511534302,33.405751160621925L38.079432986905516,25.85926852237337L38.29824500737426,27.529282337517426L38.50895287893677,66.20232981620285L38.727764899405514,47.19422511319049L38.94657691987427,39.46667103345331L39.165388940343014,35.374751032353295L39.392305109718016,32.86210653181728L39.60301298128052,30.055041917630817L39.81372085284302,29.809866218932786L40.04063702221802,32.874463214663244L40.25944904268677,32.53122441159836L40.47015691424927,31.828164490206483L40.680864785811764,30.088746014170834L40.89157265737427,27.34505829159049L41.110384677843015,23.1248585281763L41.32109254940552,25.45997631588189L41.53990456987427,25.867919334396905L41.75871659034302,25.625288792390148L41.985632759718015,23.41868726850578L42.19634063128051,22.156779557166217L42.40704850284302,18.26302287983464L42.64206882112427,15.76995439460716L42.868984990499264,17.024171214207048L43.08779701096802,18.824050652666767L43.298504882530516,21.442040890550725L43.50921275409302,19.966561758600292L43.736128923468016,24.089663383213303L43.971149241749266,26.628848368256854L44.18996126221801,25.025329392067825L44.40877328268677,28.219584846349946L44.619481154249264,29.026551298395184L44.84639732362427,26.816184847307852L45.07331349299927,27.413429998549578L45.28402136456177,29.570076147916495L45.49472923612427,29.189871184897044L45.71354125659302,27.736761777435316L45.93235327706177,27.206810663470687L46.14306114862426,24.29416846422891L46.35376902018677,23.048030148810927L46.572581040655514,56.50723289308753L46.79139306112427,45.244965674938925L47.01830923049927,55.36552374515405L47.22901710206177,43.06015987691334L47.44782912253052,29.256300788564122L47.65853699409301,20.256158305852512L47.86924486565552,17.97633083033036L48.088056886124264,14.188543699193737L48.30686890659302,12.051817227510451L48.517576778155515,15.29109656912563L48.73638879862427,14.062948529892658L48.955200819093015,16.044330898407527L49.18211698846802,11.195296139828596L49.40092900893677,10.18985366599213L49.61163688049927,12.443891717195225L49.83044890096802,10.8149506741378L50.04926092143677,8.842615685865482L50.28428123971802,8.9498015390774L50.503093260186766,16.991565950468516L50.72190528065552,12.211138888849852L50.93261315221802,13.037881393910904L51.143321023780516,9.190202687564415L51.36213304424926,10.195522123276985L51.580945064718016,30.760911319782704L51.791652936280514,34.76635821503229L52.01856910565552,24.151306614629974L52.229276977218014,19.246768099147204L52.44808899768677,15.641591345452639L52.66690101815552,13.74378922495538L52.893817187530516,13.502138367389366L53.12073335690552,12.41160814134723L53.34764952628052,25.31837948168683L53.55835739784302,18.375734426936393L53.77716941831177,14.504888591367079L53.98787728987427,19.63876214165468L54.206689310343016,46.233150179454526L54.44170962862427,39.30915008272454L54.66862579799927,28.115926680490105L54.887437818468015,18.884787904990052L55.10624983893676,11.01862581658408L55.33316600831177,8.680629079237674L55.560082177686766,6.769151402510256L55.770790049249264,9.098395856686345L55.98960206971802,11.213124610978557L56.208414090186764,10.421215071122901L56.42722611065552,9.255237994532244L56.66224642893677,13.691832675002242L56.881058449405515,12.54799790294945L57.09987046987427,12.469145840491139L57.32678663924927,9.673803671442188L57.53749451081177,8.857189227531945L57.74820238237427,11.718554199792166L57.958910253936764,10.395779726161352L58.16961812549927,10.31372293107346L58.38032599706177,13.926733455498253L58.60724216643677,12.252400768021868L58.81795003799927,19.882271709833198L59.028657909561765,24.46401789470344L59.24746993003052,17.12658695550106L59.45817780159302,20.95380199402464L59.67698982206176,36.947626977184854L59.89580184253052,26.691227374474874L60.106509714093015,32.72354026886215L60.31721758565552,27.089399587948908L60.536029606124266,18.269793003630017L60.76294577549926,15.527231755875015L60.98175779596802,16.12528453363368L61.20867396534302,13.89630875795263L61.427485985811764,16.640384038950863L61.64629800628052,15.583069343588718L61.86511002674927,15.29432654125117L62.083922047218024,14.644925027542143L62.31083821659303,12.786138836026378L62.52965023706177,13.314240476948045L62.75656640643676,17.914062363723623L62.975378426905515,20.161175835436413L63.19419044737426,22.2039606877998L63.42110661674926,27.12900677353197L63.65612693503052,24.709683446977316L63.891147253311765,27.256720458046992L64.10995927378052,30.47972758290905L64.33687544315552,31.58587941169434L64.55568746362427,31.5790089479117L64.77449948409301,34.49230856439251L64.99331150456176,36.577964635635915L65.20401937612426,40.63207157963001L65.42283139659301,40.18281632515724L65.64164341706177,40.361686244423275L65.85235128862426,46.28367432927751L66.06305916018677,45.243870601552565L66.28187118065551,44.57894203688134L66.50878735003052,49.06044397609594L66.72759937049926,49.20673011906592L66.93830724206177,49.06752620637898L67.15711926253051,54.584731555022884L67.37593128299928,64.5968006872572L67.60284745237426,94.80810820815381L67.81355532393677,112.35637444068948L68.02426319549927,107.3478939532991L68.23497106706176,101.83211556211243L68.46188723643677,106.99003150393295L68.67259510799926,87.96974739275616L68.88330297956178,625.123479528922L71.06331903534303,186.5124664524216L71.29023520471802,141.84826548397146L71.51715137409302,122.26966040816563L71.73596339456176,106.29500198117339L71.95477541503051,99.322752726636L72.16548328659303,97.72232743917716L72.38429530706178,98.04261635248184L72.59500317862427,98.16660949227854L72.80571105018676,101.03118826076472L73.01641892174928,116.55785577853929L73.24333509112427,114.80010058391667L73.45404296268677,119.19783714288573L73.66475083424926,123.49482443927437L73.88356285471802,126.9922518672086L74.11858317299927,127.03576606277551L74.34549934237427,127.20629684542921L74.55620721393677,125.50543307932662L74.76691508549926,120.9894813897025L74.97762295706175,123.50619973965816L75.18833082862427,140.5691957942176L75.42335114690552,128.20755779860394L75.64216316737426,127.5259042835866L75.86097518784301,141.66394274216483L76.07168305940552,145.76540429030163L76.29049507987428,136.8743226238715L76.50120295143677,127.213593346884L76.72811912081177,125.79183749000795L76.94693114128052,122.00390241971111L77.15763901284302,119.7628359607978L77.36834688440553,137.51777578384684L77.59526305378051,133.76149762541507L77.80597092534302,129.57320945848608L78.01667879690552,130.52812149876692L78.25169911518677,128.0589876097037L78.47051113565553,123.25086592927289L78.70553145393677,142.66829183125483L78.91623932549926,139.95363818467104L79.12694719706177,128.36265802341183L79.33765506862427,139.205914393485L79.55646708909302,160.44054375668424L79.78338325846802,144.92279026366597L80.00219527893677,131.76382609282024L80.22911144831177,122.84652761855814L80.45602761768676,125.5321995583386L80.67483963815552,137.84946170953722L80.90985995643676,130.41661252180458L81.12867197690552,126.35474373747387L81.36369229518677,124.53930618949322L81.58250431565553,127.38206076160088L81.80942048503051,114.07351030807536L82.04444080331177,105.65612672960076L82.27946112159302,97.93326276015388L82.50637729096802,98.61474441910725L82.74139760924926,96.67422636225399L82.95210548081177,108.17392852166635L83.16281335237427,124.61395758319962L83.39783367065553,115.60030347228582L83.62474984003052,107.15035236646357L83.83545771159302,158.63987228412958L84.04616558315551,163.1174389791934L84.26497760362426,162.41404061812509L84.48378962409302,148.16809585004404L84.71070579346802,141.0210794549252L84.92951781393677,128.70018153621731L85.14832983440552,121.19224317586658L85.38335015268676,111.80080194102734L85.61026632206176,107.04495514093634L85.83718249143676,106.80201195108572L86.04789036299927,102.8155812017073L86.26670238346802,101.7865437647667L86.48551440393676,106.2436636354092L86.69622227549927,105.30549014891811L86.90693014706177,104.54403423453508L87.14195046534303,106.51211877963416L87.36886663471802,105.78138995352428L87.58767865518676,112.82766535005148L87.79838652674927,113.14603273181478L88.01719854721802,109.93145176196666L88.22790641878052,134.3426063784664L88.43861429034303,653.5154861691226L92.43395970112427,188.8314821384942L92.64466757268677,164.3657270115168L92.85537544424926,149.4688804201742L93.08229161362426,150.3126053609417L93.30920778299927,130.74151958744727L93.53612395237427,137.80628641612716L93.76304012174927,122.29186603509825L93.99806044003053,111.32560552880527L94.21687246049927,106.32159518517308L94.42758033206177,103.59863569714135L94.64639235253051,100.86273615253234L94.85710022409302,97.99994148048381L95.07591224456176,95.27006499193728L95.29472426503052,94.55280224786557L95.51353628549927,93.07191658285478L95.74045245487426,91.8997463042516L95.95926447534302,89.74402143188846L96.17807649581177,87.9620845303572L96.39688851628051,87.17190843050346L96.62380468565551,96.437852254796L96.85072085503052,117.21146346448036L97.08574117331176,121.30720065104532L97.30455319378052,131.70339898753147L97.51526106534303,134.4841050281282L97.74217723471803,123.1137548524781L97.96909340409302,121.10023033567686L98.20411372237427,114.53812657464155L98.43102989174928,117.93060523971418L98.64984191221802,102.76740458522033L98.86865393268677,104.26017390926968L99.08746595315552,95.96431422143661L99.30627797362428,102.24279796779743L99.52508999409302,99.45606570370506L99.76011031237427,116.94082213727287L99.98702648174927,103.18324675282817L100.19773435331176,111.46258627817429L100.40844222487426,113.48296229140391L100.63535839424928,111.65163261944659L100.86227456362427,102.8148879319167L101.07298243518677,89.88425897439102L101.29179445565552,95.44493133677912L101.52681477393676,85.1706764241871L101.74562679440551,97.44131468687821L101.97254296378051,112.17559051922075L102.19945913315553,117.05912415215941L102.41827115362427,116.13540413189958L102.64518732299928,93.74982339077958L102.86399934346802,106.84923665972967L103.07470721503051,130.68355346686002L103.29351923549926,140.15997921258284L103.50422710706177,122.41616679387376L103.73114327643677,113.9025378276327L103.94185114799926,109.65836031581676L104.17687146628052,105.28172196371548L104.39568348674926,96.44056016377385L104.60639135831177,101.26988360883071L104.83330752768677,87.16618995210997L105.06022369706177,78.01024013978177L105.27903571753052,82.097141195267L105.49784773799927,90.26236866519673L105.71665975846801,73.49217654804929L105.92736763003052,60.13511451403289L106.14617965049926,54.01601067495308L106.37309581987427,51.85017927971649L106.59190784034301,51.9153441635901L106.81882400971801,53.848793324204415L107.03763603018676,64.38939990971964L107.25644805065552,79.70516701872289L107.48336422003052,75.69424796363185L107.71838453831177,81.83496091318742L107.92909240987427,108.52477295622855L108.14790443034302,125.65852010151322L108.35861230190552,122.95481516147441L108.58552847128053,106.89580165566629L108.79623634284302,110.63205261188827L109.02315251221802,137.75593982467356L109.25006868159302,118.21511665666048L109.46077655315551,112.8789239920767L109.67958857362427,98.78758531785077L109.89029644518676,88.6730547210608L110.11721261456177,84.50739339013295L110.34412878393677,79.0913117801576L110.57104495331177,96.18212230155982L110.80606527159301,102.92320877822745L111.02487729206176,93.89665519762349L111.25989761034302,106.50194983331632L111.486813779718,141.36047408191376L111.70562580018677,115.44555196122394L111.92443782065553,102.2961274075941L112.14324984112427,101.96001052371075L112.36206186159302,104.63724968404765L112.58897803096801,101.91875673124257L112.81589420034301,108.15058953635383L113.04281036971803,101.59903848640315L113.27783068799927,133.05580108741384L113.49664270846802,119.31954147875828L113.72355887784302,128.698499842234L113.95047504721802,121.37582746637018L114.16928706768677,123.58128504224652L114.38809908815551,131.36629275092156L114.59880695971802,125.46337630517827L114.81761898018677,121.53369026669388L115.04453514956177,113.18643162526891L115.25524302112427,126.2702474951499L115.47405504159302,162.02761758189925L115.69286706206178,144.02145425029224L115.91978323143677,127.76237217455044L116.14669940081177,123.9757316141508L116.35740727237426,122.076435037524L116.58432344174926,123.28690909168841L116.79503131331177,123.51239146797545L117.00573918487427,119.5576976213172L117.22455120534302,123.28033012830315L117.45957152362426,123.46569325670308L117.67838354409302,124.31330344986347L117.90529971346801,128.18490440225742L118.11600758503052,152.31019104647072L118.34292375440552,146.96173716428837L118.55363162596802,138.63403570539174L118.78054779534301,142.38304676431966L119.00746396471801,137.2312614625114L119.23438013409302,128.76367412114539L119.46129630346802,124.9554657500406L119.68010832393676,126.13040988658331L119.89081619549927,125.0869225701959L120.10152406706177,121.43611659313622L120.32844023643676,123.3098183627197L120.53914810799927,119.08355151934083L120.75796012846803,147.71600504401883L120.96866800003052,141.58968536012412L121.18748002049927,130.17009606648602L121.40629204096801,120.671660516844L121.62510406143676,116.84534366218702L121.84391608190552,113.19820339605683L122.05462395346802,113.1530350911323L122.27343597393677,113.92930887207001L122.48414384549926,132.45610242460236L122.70295586596802,131.808190378365L122.92176788643677,128.37224852177673L123.14057990690551,139.89365504519992L123.35939192737426,155.6767440442927L123.57009979893678,143.61127980789556L123.78080767049926,149.07927183761356L123.99151554206178,140.56820791420589L124.22653586034302,138.6204323137661L124.46155617862426,132.0886104286091L124.67226405018675,149.5528114961953L124.88297192174926,157.2878619082881L125.09367979331178,158.7896081779383L125.32059596268675,140.7412109024662L125.53130383424927,130.07363985454322L125.75011585471802,123.63347899670818L125.96892787518678,123.84310385343079L126.17963574674927,120.95867650833063L126.39034361831176,124.98348922948452L126.60915563878054,141.74856011248187L126.82796765924927,151.24253613308215L127.04677967971803,143.45011250369618L127.26559170018676,135.86856908753992L127.48440372065552,134.7631120929206L127.70321574112427,133.36459727273433L127.93013191049927,132.2802239019848L128.14894393096802,127.73908978375809L128.36775595143678,129.54088412076936L128.60277626971802,164.84220609189143L128.82158829018678,158.72304503655968L129.03229616174926,180.6259905617532L129.67252392534303,178.78320895889942L129.89133594581176,167.43688605288642L130.10204381737427,155.3750701851918L130.32085583784303,142.58281393176253L130.5396678583118,134.01328596288332L130.75847987878052,126.24635476013353L130.9853960481555,120.31007445269373L131.21231221753052,116.2875831181817L131.4392283869055,113.71487831781786L131.65804040737424,114.39185717760259L131.89306072565552,113.67233397506747L132.11187274612428,113.4037458084033L132.33068476659304,112.84378475822287L132.56570508487428,115.01707012791195L132.784517105343,116.32785937054419L133.00332912581177,117.10968007759183L133.21403699737425,118.6215150776968L133.44095316674927,119.37502633850784L133.65166103831177,118.25230848901528L133.86236890987425,117.72637085191789L134.08928507924927,115.67967592964243L134.29999295081177,115.27493499012674L134.51880497128053,115.71052956557934L134.74572114065552,115.92591073803358L134.97263731003054,118.10833112978702L135.19144933049927,118.66148979876154L135.41026135096803,118.22847677262905L135.64528166924927,117.1346130993729L135.86409368971803,116.92271007675272L136.09100985909302,117.41669917329959L136.30982187956178,117.25693018429466L136.52052975112426,118.45815118392807L136.73123762268676,115.30753785455626L136.95815379206175,116.0071885492646L137.18506996143677,119.40682260549741L137.41198613081178,120.25308085431061L137.63890230018677,118.43925364714653L137.84961017174928,118.51642427345976L138.08463049003052,118.06597855136071L138.295338361593,114.83853279114463L138.51415038206176,115.49701327212777L138.73296240253052,113.41610044626528L138.94367027409302,111.35911053894928L139.17869059237427,113.24807687428337L139.38939846393677,115.04160693447676L139.60010633549928,115.05766093642058L139.81891835596804,115.50466015956029L140.03773037643677,116.47797203567362L140.272750694718,119.81275415540983L140.50777101299929,121.28352230860284L140.72658303346802,121.87769148239059L140.96160335174926,123.14637967740417L141.19662367003053,122.2032716605877L141.43164398831178,121.78966062621123L141.65856015768676,121.32258025605739L141.88547632706178,117.20378631307572L142.1042883475305,114.24382369834066L142.33930866581176,115.50836094065141L142.55812068628052,112.95499933484656L142.77693270674925,114.27484991729742L143.00384887612427,114.73180196019845L143.21455674768677,112.5090112642403L143.44957706596801,112.23968517770354L143.66028493753052,110.83403106492256L143.88720110690554,113.17668129871687L144.10601312737427,113.49309261321723L144.32482514784303,115.01530965946078L144.5355330194055,115.5353137943052L144.76244918878052,115.64254531211174L144.9893653581555,117.75523880171197L145.20007322971801,117.88152742397497L145.43509354799926,116.9171838808255L145.65390556846802,117.62884212715359L145.86461344003052,114.48641890556415L146.0915296094055,113.48200989258562L146.32654992768676,114.7619213817807L146.54536194815552,114.37333846008333L146.76417396862428,112.70338295495485L146.98298598909304,112.73194428507219L147.20179800956177,112.5421449377556L147.42061003003053,112.46875884490316L147.63131790159304,113.96527742024466L147.8420257731555,114.22971150952404L148.06894194253053,112.5751008992935L148.28775396299926,113.37201893033755L148.51467013237425,112.35946477822012L148.733482152843,112.06040166128437L148.95229417331177,113.30662115784045L149.17110619378053,114.64452626595973L149.381814065343,114.183079281474L149.5925219369055,112.48727960946732L149.80322980846802,111.02602957284554L150.02204182893678,113.00911681033053L150.24895799831177,112.49874824502942L150.47587416768678,113.25249900460469L150.69468618815552,112.7558928738543L150.90539405971802,111.59876643684001L151.1404143779993,111.50806968791329L151.35112224956177,113.29470153042053L151.586142567843,113.31840993506026L151.80495458831177,110.19772743252089L152.01566245987428,110.66224063429135L152.22637033143678,108.35714900363375L152.46139064971803,109.11647279666094L152.6802026701868,109.83271816566534L152.89091054174926,112.45095793443191L153.109722562218,111.62596635815024L153.32853458268679,110.40079823687229L153.53924245424926,112.10705556196598L153.76615862362428,111.85054227749123L153.984970644093,110.46658042925075L154.19567851565552,113.30701651551551L154.4225946850305,112.32354986577866L154.64951085440552,113.87497336090198L154.86021872596802,114.11651633967058L155.09523904424927,114.1456739761397L155.3302593625305,114.70478660372824L155.54907138299927,117.20138250895431L155.75977925456178,115.13181065874146L155.9785912750305,114.62526210432016L156.18929914659302,117.04430306996201L156.40811116706178,117.19569692298398L156.6269231875305,114.33939766823576L156.8538393569055,113.73138131612728L157.064547228468,112.00789658591714L157.28335924893676,113.29285418029008L157.50217126940552,112.14294350668118L157.7290874387805,112.30188676214358L157.94789945924927,111.05097000999088L158.17481562862426,110.3733451408337L158.40173179799928,111.32102263829394L158.6286479673743,111.48681309597232L158.83935583893677,112.95007580513818L159.05006371049927,113.30779080155123L159.268875730968,117.16384179675516L159.49579190034302,115.74253294880646L159.722708069718,115.25879605069993L159.94152009018677,114.45913719418446L160.1684362595618,115.11435807574426L160.38724828003052,116.81272698207383L160.60606030049928,114.41670304677741L160.84108061878052,117.04442573412459L161.05989263924926,115.72224880590902L161.28680880862427,113.2530915588436L161.51372497799926,113.56077486299608L161.74064114737428,111.44467136086546L161.97566146565552,108.45806577370628L162.2025776350305,108.31334546473362L162.42138965549927,108.38830307066789L162.63209752706177,109.37499372594782L162.8509095475305,108.8066546841178L163.06161741909304,108.51471336828907L163.288533588468,105.83553829773315L163.49924146003053,105.39502044038318L163.709949331593,103.0815259283088L163.9206572031555,103.18685218659347L164.13946922362427,100.12840789621248L164.36638539299926,100.956515534991L164.58519741346802,100.97335459846006L164.80400943393676,97.25722538832665L165.03902975221803,95.71497020451436L165.25784177268676,94.70388508920352L165.47665379315552,92.01856688908272L165.70356996253054,91.08940838941469L165.92238198299927,91.25397854847323L166.13308985456175,90.00855705305705L166.35190187503053,89.52453504065635L166.57071389549927,89.93559482649492L166.78952591596803,90.35065423930143L167.00833793643676,90.37580082496828L167.22714995690552,90.10075434991063L167.44596197737425,90.17113245395178L167.664773997843,90.18958837892781L167.89169016721803,90.36212925127367L168.11050218768676,89.15101958480757L168.34552250596803,88.2523369623822L168.56433452643677,105.46610190793581L168.78314654690553,99.41798161370733L169.01816686518677,94.17973405001564L169.25318718346801,92.28803053514424L169.47199920393678,91.86281967469056L169.6908112244055,90.06147659925267L169.901519095968,88.99264835813082L170.11222696753052,89.157628442969L170.3391431369055,86.12152467771585L170.55795515737427,83.59700739403793L170.78487132674928,82.50538285625208L171.00368334721801,80.20533027254463L171.21439121878052,78.55672398331623L171.43320323924925,77.29903153848335L171.65201525971804,76.58781185273989L171.86272313128052,76.77783451913061L172.07343100284302,76.84854447322499L172.300347172218,78.0377799744587L172.51915919268677,77.6687301316999L172.73797121315553,76.55312600922277L172.948679084718,76.42298606061549L173.16749110518677,78.6838978416155L173.39440727456176,76.98670866680074L173.6051151461243,77.72790521020104L173.83203131549925,76.61760764480287L174.05894748487427,74.0216988753501L174.28586365424925,72.1593235882942L174.49657152581176,72.79274773520169L174.70727939737426,70.90171027511867L174.92609141784303,67.64203048594304L175.153007587218,65.26608511334365L175.37181960768677,62.37680859606545L175.58252747924928,64.17645163641289L175.80944364862427,63.71214001603429L176.0444639669055,63.60349681948223L176.27948428518675,63.76109433857053L176.50640045456177,62.784532565875146L176.7252124750305,61.398353342525226L176.93592034659304,61.15281132808442L177.1466282181555,60.38652039158819L177.36544023862425,62.37013100671325L177.57614811018675,61.97358730108464L177.78685598174928,62.55603482593854L177.99756385331176,60.726592876799415L178.232584171593,59.34155734335243L178.45950034096802,59.22347987591334L178.686416510343,57.55749293013957L178.91333267971802,55.327570478870335L179.13214470018676,51.85580683041861L179.35095672065552,53.47041931045684L179.57787289003053,54.032961747272424L179.81289320831178,55.34159449893451L180.02360107987425,56.38318701396208L180.24241310034304,57.16689184555297L180.45312097190552,55.726594748627534L180.66382884346802,54.21000560646232L180.8745367150305,52.62958269552565L181.0933487354993,54.16525370923232L181.30405660706177,54.50279418329876L181.53097277643678,53.83427024045033L181.74168064799926,54.76119576771068L181.95238851956177,52.80509468323426L182.16309639112427,50.33015947806293L182.3981167094055,48.117098226321865L182.6250328787805,46.94040962599298L182.85194904815552,45.64804667539341L183.0788652175305,48.377690486017066L183.29767723799927,47.153428262938064L183.5326975562805,48.87045615817903L183.74340542784302,48.77077021546849L183.96221744831178,50.3528117713016L184.1810294687805,52.440830452345665L184.39984148924927,52.86539033463313L184.618653509718,52.37553389581969L184.8293613812805,52.817920213235546L185.05627755065552,55.79955014886952L185.27508957112428,58.46823706668618L185.49390159159302,61.076489319371156L185.72892190987426,60.243754660527415L185.95583807924925,59.90484409924993L186.18275424862426,60.674493828093226L186.40967041799925,62.921223088633646L186.62037828956176,63.805358823041516L186.83108616112426,64.91845856972144L187.05800233049925,62.329561784127456L187.26871020206175,63.50859162354552L187.48752222253052,66.77585387063478L187.70633424299928,66.48018341125314L187.93325041237426,68.13844110562417L188.15206243284302,66.27494049403568L188.37087445331176,66.09570002089137L188.5815823248743,67.8302651861574L188.80849849424928,67.58746579850167L189.01920636581178,67.99851441991594L189.24612253518677,67.15154226699775L189.48114285346801,66.9322035058741L189.69185072503052,66.74444371286258L189.91066274549925,67.34588338239082L190.12137061706179,67.75645424129213L190.35639093534303,67.9069759235063L190.58330710471802,67.77321559998468L190.80211912518675,68.38535706062859L191.02903529456177,68.64134235392169L191.23974316612427,69.58384303340453L191.45045103768678,69.63237161929248L191.6692630581555,69.63251218234592L191.88807507862427,70.10368490457897L192.106887099093,68.4479515108487L192.3256991195618,66.9274047569972L192.55261528893678,67.28534769153055L192.78763560721802,68.15892774770481L193.00644762768675,68.01196140785659L193.22525964815551,66.38548869059808L193.44407166862425,66.46833313087681L193.662883689093,64.86356412152841L193.88979985846802,61.49481665339912L194.10050773003053,62.27665001543501L194.311215601593,63.30971091685725L194.5219234731555,61.46865655155897L194.74883964253053,65.84036881640405L194.97575581190551,62.70686748980786L195.20267198128053,61.74968716060988L195.42958815065552,63.2271425524167L195.64840017112425,64.40702102124318L195.85910804268676,66.5481605734066L196.07792006315552,64.84217475386218L196.28862793471802,63.40549412240146L196.52364825299927,62.6517448578749L196.74246027346803,60.781807645966126L196.96127229393676,61.18233700824604L197.18818846331175,60.609882049241584L197.41510463268676,58.07450751606562L197.63391665315552,56.86571399340282L197.85272867362426,56.593882331952535L198.07154069409302,58.5799340596145L198.29035271456175,59.127630670517L198.51726888393677,61.23823972696572L198.72797675549927,60.839441779009235L198.96299707378054,59.934576761670534L199.17370494534302,58.9874136115139L199.39251696581175,59.14763045943224L199.6113289862805,58.87300765231628L199.82203685784302,56.932462018750705L200.04084887831178,55.48997781629487L200.27586919659302,56.560620936479324L200.48657706815553,56.07259738394443L200.7134932375305,57.177661791075714L200.92420110909302,57.55936494116962L201.15111727846804,56.10041993382403L201.36992929893677,57.049472378607575L201.59684546831176,57.87070993868476L201.81565748878052,56.71759146265513L202.04257365815553,55.15789688932543L202.26138567862426,56.77330982732616L202.47209355018677,57.636740064312896L202.69900971956176,58.39057273724668L202.92592588893677,60.56276416021474L203.14473790940553,62.410322919071945L203.36354992987427,62.60068268157462L203.58236195034303,66.53773517145778L203.79306982190553,63.604391468473615L204.01188184237427,61.42056233093031L204.22258971393677,58.528990763272674L204.44950588331176,56.604525271003524L204.6602137548743,56.88264383713563L204.88712992424928,56.33735427522554L205.11404609362427,57.055410770200616L205.33285811409303,56.78666044994414L205.5435659856555,53.035077348865855L205.754273857218,52.546678005251444L205.98119002659303,51.849901004120035L206.2000020470618,50.107802801088134L206.41070991862426,49.88586596082673L206.629521939093,49.15672591524676L206.84022981065553,49.48461079249848L207.05093768221803,48.754966173972065L207.26974970268677,48.84820187566948L207.49666587206175,46.371478901107835L207.72358204143677,44.41596910175805L207.95049821081176,45.052663478661735L208.17741438018678,44.04090159218469L208.38812225174928,43.931928521724295L208.62314257003052,46.01638641960377L208.84195459049928,45.25574501683527L209.07697490878053,46.083313271363934L209.30389107815552,44.78676081648938L209.53080724753053,43.05264799145991L209.74961926799926,43.83061094356242L209.96843128846803,44.698592385834104L210.19534745784304,44.229432268956785L210.422263627218,42.737322894149294L210.65728394549927,41.46632904090811L210.876095965968,42.45582587622709L211.0868038375305,40.99264687247903L211.30561585799927,42.56968764201939L211.53253202737426,44.15118580029045L211.75944819674928,43.94636501024094L211.978260217218,45.02445768987148L212.20517638659302,43.90940772853259L212.42398840706178,44.094703400928566L212.65900872534303,45.22480637508576L212.8697165969055,43.702167669533935L213.08852861737427,44.947225118631266L213.30734063784303,47.66554289113041L213.54236095612427,45.62972825003714L213.76927712549926,42.52139827153324L213.99619329487427,43.94383801171692L214.23121361315552,40.346378089383265L214.45002563362428,37.21112851829791L214.67694180299927,34.375732267287475L214.90385797237428,31.683992721942335L215.12266999284302,28.860777278590568L215.349586162218,28.167208296880727L215.57650233159302,26.766692118310793L215.79531435206175,30.106750527154357L216.02223052143677,28.256945372437453L216.24104254190553,33.306130599659284L216.451750413468,47.006397129648306L216.6705624339368,64.9966426776152L216.88127030549927,72.11771949348258L217.09197817706178,58.74205689710182L217.30268604862425,78.86278524212032L217.52149806909304,65.20060266920915L217.748414238468,52.7270581086421L217.96722625893676,82.71293108316756" fill="none"></path></g></g></g></g><g opacity="0.2"><g><g><g><path style="fill: none;" stroke="rgb(187, 187, 187)" stroke-width="2px" d="M29.359368763780516,-81.19375991605843L29.570076635343018,83.49138686422879L29.78078450690552,19.902171311249333L29.991492378468017,-54.685248905513426L30.20220025003052,-1.2865559217048115L30.412908121593016,14.488754916672903L30.623615993155518,-1.0742989560166964L30.834323864718016,81.88846095622704L31.045031736280517,-2.0221420529310894L31.25573960784302,36.24181157549347L31.46644747940552,-31.571121806919567L31.677155350968015,8.730406556694453L31.887863222530516,15.129902246019483L32.09857109409302,24.11356602873033L32.309278965655515,-28.344194014399005L34.20564980971802,-14.506030307260634L34.416357681280516,40.665002581580225L34.627065552843014,0.42462910064681847L34.83777342440552,3.9431654862885672L35.04848129596802,8.948882662994166L35.259189167530515,27.24524883447711L35.47800118799927,27.514744927645975L35.696813208468015,27.66262227107709L35.90752108003052,28.897697528830413L36.11822895159302,37.88078546518832L36.33704097206177,36.00559940152367L36.54774884362426,45.055831022632624L36.75845671518677,43.78159821288038L36.977268735655514,37.836214957471945L37.19608075612427,34.13766900190586L37.42299692549927,34.51519387088343L37.641808945968016,33.634609627990685L37.86872511534302,30.843827863175427L38.079432986905516,14.539544565000876L38.29824500737426,30.034303060233594L38.50895287893677,124.21190103423099L38.727764899405514,18.682068058672044L38.94657691987427,27.87533991384754L39.165388940343014,29.23687103070319L39.392305109718016,29.093139781013132L39.60301298128052,25.844444996351996L39.81372085284302,29.44210267088562L40.04063702221802,37.47135870825871L40.25944904268677,32.01636620700111L40.47015691424927,30.773574608118576L40.680864785811764,27.47961830011755L40.89157265737427,23.229526707720012L41.110384677843015,16.79455888305481L41.32109254940552,28.96265299744034L41.53990456987427,26.479833862169336L41.75871659034302,25.26134297938025L41.985632759718015,20.108784982678795L42.19634063128051,20.263917990156767L42.40704850284302,12.422387863837185L42.64206882112427,12.030351666765918L42.868984990499264,18.905496443606918L43.08779701096802,21.523869810356448L43.298504882530516,25.369026247377203L43.50921275409302,17.753343060674766L43.736128923468016,30.274315820132685L43.971149241749266,30.43762584582219L44.18996126221801,22.62005092778429L44.40877328268677,33.01096802777301L44.619481154249264,30.23700097646315L44.84639732362427,23.50063517067706L45.07331349299927,28.309297725411756L45.28402136456177,32.80504537196706L45.49472923612427,28.619563740367685L45.71354125659302,25.557097666242477L45.93235327706177,26.4118839925242L46.14306114862426,19.92520516536633L46.35376902018677,21.178822675683843L46.572581040655514,106.69603700950246L46.79139306112427,28.351564847716435L47.01830923049927,70.54636085047697L47.22901710206177,24.602114074551814L47.44782912253052,8.55051215604071L47.65853699409301,6.755944581785556L47.86924486565552,14.556589617047448L48.088056886124264,8.506863002489007L48.30686890659302,8.846727519985295L48.517576778155515,20.15001558154821L48.73638879862427,12.220726471042887L48.955200819093015,19.016404451180247L49.18211698846802,3.9217440019597567L49.40092900893677,8.681689955237019L49.61163688049927,15.824948793999859L49.83044890096802,8.37153910955166L50.04926092143677,5.8841132034572405L50.28428123971802,9.110580318895485L50.503093260186766,29.054212567555414L50.72190528065552,5.040498296422259L50.93261315221802,14.277995151502383L51.143321023780516,3.418684628044575L51.36213304424926,11.703501276845733L51.580945064718016,61.608995114541294L51.791652936280514,40.77452855790654L52.01856910565552,8.228729214026277L52.229276977218014,11.889960325922821L52.44808899768677,10.233826214910794L52.66690101815552,10.897086044209699L52.893817187530516,13.139662081040433L53.12073335690552,10.775812802283713L53.34764952628052,44.678536492196216L53.55835739784302,7.961766844810287L53.77716941831177,8.698619838013002L53.98787728987427,27.339572467086217L54.206689310343016,86.12473223615437L54.44170962862427,28.923149937629695L54.66862579799927,11.326091577138754L54.887437818468015,5.038079741739972L55.10624983893676,-0.7806173160249881L55.33316600831177,5.173633973218497L55.560082177686766,3.9019348874191504L55.770790049249264,12.592262537950035L55.98960206971802,14.385217742417005L56.208414090186764,9.233350761339064L56.42722611065552,7.506272379646691L56.66224642893677,20.34672469570737L56.881058449405515,10.832245744870361L57.09987046987427,12.350867746803914L57.32678663924927,5.4807904178686435L57.53749451081177,7.632267561666659L57.74820238237427,16.010601658182843L57.958910253936764,8.411618015715229L58.16961812549927,10.190637738441426L58.38032599706177,19.34624924213564L58.60724216643677,9.740901736807073L58.81795003799927,31.327078122550002L59.028657909561765,31.336637172008558L59.24746993003052,6.12044054669763L59.45817780159302,26.694624551810325L59.67698982206176,60.93836445192496L59.89580184253052,11.306627970409894L60.106509714093015,41.772009610443064L60.31721758565552,18.63818856657918L60.536029606124266,5.04038312715167L60.76294577549926,11.41338988424216L60.98175779596802,17.0223637002719L61.20867396534302,10.552845094431193L61.427485985811764,20.75649696044872L61.64629800628052,13.997097300545619L61.86511002674927,14.86121233774474L62.083922047218024,13.67082275697838L62.31083821659303,9.997959548752759L62.52965023706177,14.10639293833076L62.75656640643676,24.813795193887003L62.975378426905515,23.531846043005586L63.19419044737426,25.268137966344753L63.42110661674926,34.516575902130455L63.65612693503052,21.08069845714544L63.891147253311765,31.077275974651176L64.10995927378052,35.31423827020204L64.33687544315552,33.24510715487227L64.55568746362427,31.5687032522373L64.77449948409301,38.86225798911352L64.99331150456176,39.70644874250144L65.20401937612426,46.71323199562107L65.42283139659301,39.508933443448186L65.64164341706177,40.629991123322405L65.85235128862426,55.16665645655866L66.06305916018677,43.6841650099655L66.28187118065551,43.58154918987429L66.50878735003052,55.782696884917705L66.72759937049926,49.426159333520886L66.93830724206177,48.858720337348686L67.15711926253051,62.860539577988284L67.37593128299928,79.61490438560894L67.60284745237426,140.12506948949894L67.81355532393677,138.67877378949274L68.02426319549927,99.83517322221398L68.23497106706176,93.55844797533256L68.46188723643677,114.72690541666374L68.67259510799926,59.43932122599086L68.88330297956178,1430.8540777331702L69.95305063518677,723.8089216162513L70.17996680456177,133.271000689175L70.41498712284302,127.66467576636872L70.64190329221802,125.52598241160563L70.85261116378051,142.50124188020825L71.06331903534303,78.99886395724987L71.29023520471802,74.85196403129646L71.51715137409302,92.901752794457L71.73596339456176,82.33301434068505L71.95477541503051,88.8643788448299L72.16548328659303,95.3216895079886L72.38429530706178,98.5230497224393L72.59500317862427,98.35259920197353L72.80571105018676,105.32805641349405L73.01641892174928,139.84785705520088L73.24333509112427,112.16346779198324L73.45404296268677,125.7944419813392L73.66475083424926,129.94030538385735L73.88356285471802,132.23839300911004L74.11858317299927,127.10103735612583L74.34549934237427,127.46209301940972L74.55620721393677,122.95413743017242L74.76691508549926,114.21555385526642L74.97762295706175,127.28127726459131L75.18833082862427,166.1636898760572L75.42335114690552,109.66510080518326L75.64216316737426,126.50342401106033L75.86097518784301,162.8710004300326L76.07168305940552,151.91759661250686L76.29049507987428,123.5377001242265L76.50120295143677,112.72249943140274L76.72811912081177,123.65920370469367L76.94693114128052,116.32199981426572L77.15763901284302,116.40123627242818L77.36834688440553,164.15018551842L77.59526305378051,128.1270803877674L77.80597092534302,123.29077720809232L78.01667879690552,131.9604895591885L78.25169911518677,124.3552867761093L78.47051113565553,116.03868340862667L78.70553145393677,171.7944306842275L78.91623932549926,135.88165771479532L79.12694719706177,110.97618778152268L79.33765506862427,155.47079894859468L79.55646708909302,192.29248780148353L79.78338325846802,121.6461600241388L80.00219527893677,112.02537983655186L80.22911144831177,109.4705799071652L80.45602761768676,129.56070746800924L80.67483963815552,156.32535493633523L80.90985995643676,119.26733874020603L81.12867197690552,120.2619405609779L81.36369229518677,121.81614986752221L81.58250431565553,131.64619261976208L81.80942048503051,94.11068462778752L82.04444080331177,93.03005136188864L82.27946112159302,86.34896680598332L82.50637729096802,99.63696690753723L82.74139760924926,93.7634492769738L82.95210548081177,125.42348176078498L83.16281335237427,149.2740011754992L83.39783367065553,102.07982230591526L83.62474984003052,94.47542570773017L83.83545771159302,235.87415216062837L84.04616558315551,169.8337890217888L84.26497760362426,161.35894307652242L84.48378962409302,126.79917869792257L84.71070579346802,130.30055486224714L84.92951781393677,110.21883465815584L85.14832983440552,109.93033563534047L85.38335015268676,97.71364008876806L85.61026632206176,99.91118494080008L85.83718249143676,106.43759716630976L86.04789036299927,96.83593507763993L86.26670238346802,100.24298760935541L86.48551440393676,112.92934344137335L86.69622227549927,103.89822991918153L86.90693014706177,103.40185036296025L87.14195046534303,109.46424559728304L87.36886663471802,104.68529671435927L87.58767865518676,123.39707844484225L87.79838652674927,113.62358380445963L88.01719854721802,105.10958030719435L88.22790641878052,170.9593383032158L88.43861429034303,1432.274805855107L90.66725523956177,1370.0606682044356L90.89417140893676,97.36479236816615L91.11298342940552,103.87450504944103L91.33179544987426,230.56289090906085L91.55060747034301,158.66260011358682L91.77752363971801,150.16149557462708L91.99633566018676,149.77970944263785L92.22325182956176,180.04815162997073L92.43395970112427,172.53635112533595L92.64466757268677,127.667094321051L92.85537544424926,127.12361053316049L93.08229161362426,151.5781927720929L93.30920778299927,101.38489092720548L93.53612395237427,148.40343665914736L93.76304012174927,99.02023546355467L93.99806044003053,94.87621476936589L94.21687246049927,98.81557966972514L94.42758033206177,99.51419646509365L94.64639235253051,96.75888683561857L94.85710022409302,93.70574947241074L95.07591224456176,91.17525025911752L95.29472426503052,93.47690813175836L95.51353628549927,90.85058808533847L95.74045245487426,90.14149088634674L95.95926447534302,86.51043412334347L96.17807649581177,85.28917917806035L96.39688851628051,85.98664428072298L96.62380468565551,110.33676799123486L96.85072085503052,148.37188027900706L97.08574117331176,127.45080643089241L97.30455319378052,147.29769649226094L97.51526106534303,138.65516408902283L97.74217723471803,106.05822958900283L97.96909340409302,118.07994356047485L98.20411372237427,104.6949709330884L98.43102989174928,123.01932323732352L98.64984191221802,80.02260360347977L98.86865393268677,106.49932789534331L99.08746595315552,83.5205246896868L99.30627797362428,111.66052358733863L99.52508999409302,95.27596730756636L99.76011031237427,143.16795678762472L99.98702648174927,82.54688367616137L100.19773435331176,123.88159556619325L100.40844222487426,116.51352631124854L100.63535839424928,108.90463811151062L100.86227456362427,89.55977090062201L101.07298243518677,70.48831553810214L101.29179445565552,103.78593988036116L101.52681477393676,69.75929405529921L101.74562679440551,115.84727208091442L101.97254296378051,134.27700426773478L102.19945913315553,124.3844246015673L102.41827115362427,114.74982410151014L102.64518732299928,60.17145227909957L102.86399934346802,126.4983565631546L103.07470721503051,166.43502867755544L103.29351923549926,154.37461783116683L103.50422710706177,95.80044816581037L103.73114327643677,101.13209437827145L103.94185114799926,103.29209404809276L104.17687146628052,98.71676443556325L104.39568348674926,83.17881746386117L104.60639135831177,108.51386877641578L104.83330752768677,66.01064946702867L105.06022369706177,64.27631542128945L105.27903571753052,88.22749277849495L105.49784773799927,102.51020987009134L105.71665975846801,48.33688837232813L105.92736763003052,40.099521463007974L106.14617965049926,44.83735491633291L106.37309581987427,48.60143218686184L106.59190784034301,52.013091489400715L106.81882400971801,56.7489670651257L107.03763603018676,80.20030978799238L107.25644805065552,102.67881768222773L107.48336422003052,69.67786938099563L107.71838453831177,91.04603033752119L107.92909240987427,148.55949102078998L108.14790443034302,151.35914081944028L108.35861230190552,118.89925775141643L108.58552847128053,82.80728139695401L108.79623634284302,116.23642904622109L109.02315251221802,178.44177064385144L109.25006868159302,88.90388190464054L109.46077655315551,104.87463499520098L109.67958857362427,77.65057730651151L109.89029644518676,73.50125882587581L110.11721261456177,78.25890139374138L110.34412878393677,70.9671893651945L110.57104495331177,121.81833808366333L110.80606527159301,113.0348384932292L111.02487729206176,80.35682482671739L111.25989761034302,125.40989178685595L111.486813779718,193.6482604548099L111.70562580018677,76.57316878018901L111.92443782065553,82.57199057714888L112.14324984112427,101.45583519788582L112.36206186159302,108.65310842455303L112.58897803096801,97.84101730203506L112.81589420034301,117.49833874402071L113.04281036971803,91.77171191147715L113.27783068799927,180.24094498892998L113.49664270846802,98.71515206577504L113.72355887784302,142.7669373874478L113.95047504721802,110.39181890257447L114.16928706768677,126.8894714060612L114.38809908815551,143.0438043139341L114.59880695971802,116.60900163656349L114.81761898018677,115.63916120896737L115.04453514956177,100.66554366313169L115.25524302112427,145.89597129997114L115.47405504159302,215.66367271202307L115.69286706206178,117.0122092528815L115.91978323143677,103.37374906093751L116.14669940081177,118.29577077355113L116.35740727237426,119.22749017258361L116.58432344174926,125.10262017293525L116.79503131331177,123.8506150324059L117.00573918487427,113.62565685133016L117.22455120534302,128.86427888878185L117.45957152362426,123.74373794930304L117.67838354409302,125.58471873960394L117.90529971346801,133.99230583084872L118.11600758503052,188.49812101279076L118.34292375440552,138.9390563410148L118.55363162596802,126.142483517047L118.78054779534301,148.0065633527115L119.00746396471801,129.5035835097991L119.23438013409302,116.06229310909659L119.46129630346802,119.24315319338316L119.68010832393676,127.89282609139755L119.89081619549927,123.52169159561518L120.10152406706177,115.95990762754654L120.32844023643676,126.1203710170947L120.53914810799927,112.74415125427272L120.75796012846803,190.66468533103537L120.96866800003052,132.40020583428193L121.18748002049927,113.04071212602904L121.40629204096801,106.42400719238073L121.62510406143676,111.10586838020137L121.84391608190552,107.72749299686154L122.05462395346802,113.08528263374542L122.27343597393677,115.0937195434769L122.48414384549926,160.2462927534009L122.70295586596802,130.8363223090085L122.92176788643677,123.21833573689437L123.14057990690551,157.17576483033474L123.35939192737426,179.3513775429316L123.57009979893678,125.51308345330011L123.78080767049926,157.28125988219057L123.99151554206178,127.80161202909424L124.22653586034302,135.69876891310636L124.46155617862426,122.29087760087351L124.67226405018675,175.74911309757456L124.88297192174926,168.8904375264272L125.09367979331178,161.04222758241372L125.32059596268675,113.66861498925836L125.53130383424927,114.0722832826587L125.75011585471802,113.97323770995563L125.96892787518678,124.15754113851489L126.17963574674927,116.6320354906805L126.39034361831176,131.02070831121503L126.60915563878054,166.8961664369777L126.82796765924927,165.4835001639823L127.04677967971803,131.76147705961765L127.26559170018676,124.49625396330532L127.48440372065552,133.10492660099143L127.70321574112427,131.26682504245514L127.93013191049927,130.6536638458607L128.14894393096802,120.92738860641794L128.36775595143678,132.24357562628637L128.60277626971802,217.79418904857465L128.82158829018678,149.54430345356215L129.03229616174926,213.48040884954358L129.24300403331176,186.2968907441L129.46181605378052,173.304184652326L129.67252392534303,178.3705960346299L129.89133594581176,150.4174016938669L130.10204381737427,137.28234638364984L130.32085583784303,123.39442955161879L130.5396678583118,121.15899400956432L130.75847987878052,114.5959579560086L130.9853960481555,111.40565399153407L131.21231221753052,110.25384611641368L131.4392283869055,109.85582111727197L131.65804040737424,115.4073254672798L131.89306072565552,112.59304917126522L132.11187274612428,113.00086355840662L132.33068476659304,112.00384318295244L132.56570508487428,118.27699818244575L132.784517105343,118.29404323449235L133.00332912581177,118.28241113816325L133.21403699737425,120.8892675778543L133.44095316674927,120.50529322972397L133.65166103831177,116.56823171477642L133.86236890987425,116.93746439627186L134.08928507924927,112.60963354622946L134.29999295081177,114.66782358085364L134.51880497128053,116.36392142875864L134.74572114065552,116.24898249671486L134.97263731003054,121.38196171741684L135.19144933049927,119.49122780222321L135.41026135096803,117.57895723343022L135.64528166924927,115.49381758948913L135.86409368971803,116.60485554282243L136.09100985909302,118.15768281811972L136.30982187956178,117.01727670078725L136.52052975112426,120.25998268337794L136.73123762268676,110.58161786049854L136.95815379206175,117.0566645913273L137.18506996143677,124.50627368984621L137.41198613081178,121.52246822753051L137.63890230018677,115.71851283640042L137.84961017174928,118.63218021292984L138.08463049003052,117.390309968212L138.295338361593,109.99736415082091L138.51415038206176,116.4847339936023L138.73296240253052,110.29473120747134L138.94367027409302,108.27362567797552L139.17869059237427,116.08152637728428L139.38939846393677,117.73190202476705L139.60010633549928,115.08174193933607L139.81891835596804,116.17515899426986L140.03773037643677,117.93793984984359L140.272750694718,124.81492733501395L140.50777101299929,123.48967453839256L140.72658303346802,122.76894524307177L140.96160335174926,125.04941196992498L141.19662367003053,120.78860963536302L141.43164398831178,121.16924407464639L141.65856015768676,120.62195970082657L141.88547632706178,111.02559539860363L142.1042883475305,109.80387977623816L142.33930866581176,117.40516680411746L142.55812068628052,109.1249569261397L142.77693270674925,116.2546257909735L143.00384887612427,115.41723002455011L143.21455674768677,109.17482522030298L143.44957706596801,111.83569604789838L143.66028493753052,108.72554989575099L143.88720110690554,116.69065664940824L144.10601312737427,113.96770958496755L144.32482514784303,117.29863522882636L144.5355330194055,116.31531999657179L144.76244918878052,115.80339258882157L144.9893653581555,120.92427903611214L145.20007322971801,118.07096035736924L145.43509354799926,115.47066856610154L145.65390556846802,118.69632949664566L145.86461344003052,109.77278407318022L146.0915296094055,111.97539637311797L146.32654992768676,116.6817886155732L146.54536194815552,113.79046407753727L146.76417396862428,110.19844969726229L146.98298598909304,112.77478628024832L147.20179800956177,112.25744591678058L147.42061003003053,112.35867970562478L147.63131790159304,116.21005528325712L147.8420257731555,114.62636264344304L148.06894194253053,110.09318498394762L148.28775396299926,114.56739597690353L148.51467013237425,110.84063355004415L148.733482152843,111.61180698588119L148.95229417331177,115.17595040267457L149.17110619378053,116.65138392813876L149.381814065343,113.49090880474571L149.5925219369055,109.94358010145773L149.80322980846802,108.83415451791261L150.02204182893678,115.98374766655762L150.24895799831177,111.73319539707775L150.47587416768678,114.38312514396756L150.69468618815552,112.0109836777287L150.90539405971802,109.86307678131882L151.1404143779993,111.37202456452323L151.35112224956177,115.97464929418142L151.586142567843,113.35397254202019L151.80495458831177,105.51670367871223L152.01566245987428,111.35901043694716L152.22637033143678,104.89951155764734L152.46139064971803,110.25545848620186L152.6802026701868,110.90708621917169L152.89091054174926,116.37831758758178L153.109722562218,110.38847899372752L153.32853458268679,108.56304605495556L153.53924245424926,114.66644154960662L153.76615862362428,111.46577235077942L153.984970644093,108.39063765688985L154.19567851565552,117.56767064491287L154.4225946850305,110.84834989117334L154.64951085440552,116.20210860358677L154.86021872596802,114.4788308078237L155.09523904424927,114.18941043084364L155.3302593625305,115.54345554511126L155.54907138299927,120.94627636679387L155.75977925456178,112.02745288342238L155.9785912750305,113.86543927268808L156.18929914659302,120.67286451842511L156.40811116706178,117.42278770251697L156.6269231875305,110.05494878611341L156.8538393569055,112.81935678796472L157.064547228468,109.42266949060188L157.28335924893676,115.22029057184979L157.50217126940552,110.41807749626786L157.7290874387805,112.5403016453373L157.94789945924927,109.17459488176182L158.17481562862426,109.35690783709785L158.40173179799928,112.74253888448452L158.6286479673743,111.73549878248944L158.83935583893677,115.14496986888723L159.05006371049927,113.84436329617104L159.268875730968,122.94791828956082L159.49579190034302,113.61056967688351L159.722708069718,114.53319070353982L159.94152009018677,113.25964890941108L160.1684362595618,116.09718939808384L160.38724828003052,119.3602803415681L160.60606030049928,110.82266714383289L160.84108061878052,120.9860097651457L161.05989263924926,113.73898341358577L161.28680880862427,109.54935568824536L161.51372497799926,114.02229981922483L161.74064114737428,108.27051610766972L161.97566146565552,103.97815739296749L162.2025776350305,108.09626500127463L162.42138965549927,108.5007394795691L162.63209752706177,110.85502970886728L162.8509095475305,107.95414612137279L163.06161741909304,108.07680139454577L163.288533588468,101.81677569189915L163.49924146003053,104.7342436543579L163.709949331593,99.61128416019677L163.9206572031555,103.34484157402069L164.13946922362427,95.54074146064123L164.36638539299926,102.19867699315895L164.58519741346802,100.99861319366347L164.80400943393676,91.68303157312673L165.03902975221803,93.40158742879578L165.25784177268676,93.18725741623714L165.47665379315552,87.99058958890166L165.70356996253054,89.69567063991228L165.92238198299927,91.50083378706128L166.13308985456175,88.14042480993271L166.35190187503053,88.79850202205529L166.57071389549927,90.5521845052528L166.78952591596803,90.97324335851148L167.00833793643676,90.41352070346846L167.22714995690552,89.68818463732426L167.44596197737425,90.27669961001352L167.664773997843,90.21727226639167L167.89169016721803,90.62094055979202L168.11050218768676,87.33435508510843L168.34552250596803,86.90431302874411L168.56433452643677,131.28674932626635L168.78314654690553,90.34580117236449L169.01816686518677,86.3223627044782L169.25318718346801,89.45047526283686L169.47199920393678,91.22500338401024L169.6908112244055,87.35946198609595L169.901519095968,87.38940599644806L170.11222696753052,89.40509857022637L170.3391431369055,81.5673690298361L170.55795515737427,79.81023146852107L170.78487132674928,80.86794604957353L171.00368334721801,76.75525139698385L171.21439121878052,76.08381454947342L171.43320323924925,75.41249287123358L171.65201525971804,75.52098232412462L171.86272313128052,77.06286851871634L172.07343100284302,76.95460940436647L172.300347172218,79.82163322630896L172.51915919268677,77.11515536756193L172.73797121315553,74.87971982550745L172.948679084718,76.22777613770465L173.16749110518677,82.07526551311587L173.39440727456176,74.44092490457868L173.6051151461243,78.83970002530143L173.83203131549925,74.95216129670541L174.05894748487427,70.12783572117114L174.28586365424925,69.36576065771033L174.49657152581176,73.74288395556312L174.70727939737426,68.06515408499415L174.92609141784303,62.752510802179586L175.153007587218,61.70216705444455L175.37181960768677,58.04289382014796L175.58252747924928,66.87591619693364L175.80944364862427,63.01567258546626L176.0444639669055,63.44053202465425L176.27948428518675,63.99749061720321L176.50640045456177,61.31968990683182L176.7252124750305,59.31908450750013L176.93592034659304,60.78449830642342L177.1466282181555,59.237083986843636L177.36544023862425,65.34554692940043L177.57614811018675,61.37877174264194L177.78685598174928,63.42970611321926L177.99756385331176,57.98242995309084L178.232584171593,57.26400404318174L178.45950034096802,59.0463636747549L178.686416510343,55.05851251147935L178.91333267971802,51.982686801966274L179.13214470018676,46.648161357740555L179.35095672065552,55.892338030514615L179.57787289003053,54.876775402496264L179.81289320831178,57.30454362642765L180.02360107987425,57.94557578650366L180.24241310034304,58.3424490929395L180.45312097190552,53.56614910323918L180.66382884346802,51.935121893214685L180.8745367150305,50.25894832912088L181.0933487354993,56.46876022979245L181.30405660706177,55.0091048943984L181.53097277643678,52.831484326177595L181.74168064799926,56.15158405860141L181.95238851956177,49.870943056520076L182.16309639112427,46.617756670306136L182.3981167094055,44.7975063487105L182.6250328787805,45.17537672549984L182.85194904815552,43.709502249494186L183.0788652175305,52.472156201952444L183.29767723799927,45.31703492831935L183.5326975562805,51.44599800104028L183.74340542784302,48.62124130140245L183.96221744831178,52.725874105051155L184.1810294687805,55.57285847391188L184.39984148924927,53.50223015806451L184.618653509718,51.640749237599465L184.8293613812805,53.48149968935922L185.05627755065552,60.27199505232026L185.27508957112428,62.47126744341105L185.49390159159302,64.98886769839874L185.72892190987426,58.994652672262234L185.95583807924925,59.396478257333236L186.18275424862426,61.828968421358624L186.40967041799925,66.29131697944428L186.62037828956176,65.13156242465351L186.83108616112426,66.58810818974176L187.05800233049925,58.44621660573656L187.26871020206175,65.27713638267294L187.48752222253052,71.67674724126854L187.70633424299928,66.03667772218087L187.93325041237426,70.62582764718061L188.15206243284302,63.479689576653136L188.37087445331176,65.82683931117505L188.5815823248743,70.43211293405668L188.80849849424928,67.22326671701794L189.01920636581178,68.61508735203742L189.24612253518677,65.88108403762057L189.48114285346801,66.60319536418841L189.69185072503052,66.46280402334531L189.91066274549925,68.24804288668311L190.12137061706179,68.3723105296443L190.35639093534303,68.13275844682754L190.58330710471802,67.57257511470218L190.80211912518675,69.30356925159445L191.02903529456177,69.02532029386113L191.23974316612427,70.99759405262893L191.45045103768678,69.70516449812428L191.6692630581555,69.63272302692631L191.88807507862427,70.81044398792834L192.106887099093,65.96435142025352L192.3256991195618,64.64658462622016L192.55261528893678,67.82226209333042L192.78763560721802,69.46929783196622L193.00644762768675,67.79151189808422L193.22525964815551,63.94577961471057L193.44407166862425,66.59259979129459L193.662883689093,62.45641060750559L193.88979985846802,56.441695451204986L194.10050773003053,63.4494000584893L194.311215601593,64.85930226899063L194.5219234731555,58.707075003611536L194.74883964253053,72.3979372136717L194.97575581190551,58.006615499913686L195.20267198128053,60.313916666813185L195.42958815065552,65.44332564012706L195.64840017112425,66.1768387244828L195.85910804268676,69.75986990165214L196.07792006315552,62.28319602454578L196.28862793471802,61.250473175210246L196.52364825299927,61.52112096108496L196.74246027346803,57.976901828102775L196.96127229393676,61.78313105166579L197.18818846331175,59.751199610734986L197.41510463268676,54.271445716301606L197.63391665315552,55.052523709408945L197.85272867362426,56.18613483977691L198.07154069409302,61.559011651107426L198.29035271456175,59.94917558687056L198.51726888393677,64.40415331163878L198.72797675549927,60.241244857074065L198.96299707378054,58.577279235662274L199.17370494534302,57.56666888627907L199.39251696581175,59.38795573130996L199.6113289862805,58.46107344164202L199.82203685784302,54.02164356840277L200.04084887831178,53.32625151261065L200.27586919659302,58.16658561675623L200.48657706815553,55.34056205514198L200.7134932375305,58.835258401772634L200.92420110909302,58.13191966631016L201.15111727846804,53.91200242280587L201.36992929893677,58.47305104578287L201.59684546831176,59.10256627880037L201.81565748878052,54.987913748610765L202.04257365815553,52.8183550293309L202.26138567862426,59.19642923432712L202.47209355018677,58.93188541979342L202.69900971956176,59.52132174664735L202.92592588893677,63.821051294667015L203.14473790940553,65.181661057358L203.36354992987427,62.886222325328745L203.58236195034303,72.4433139062822L203.79306982190553,59.204375913997495L204.01188184237427,58.144818624615674L204.22258971393677,54.19163341178621L204.44950588331176,53.71782703259961L204.6602137548743,57.299821686333665L204.88712992424928,55.51941993236044L205.11404609362427,58.132495512663084L205.33285811409303,56.38353496955956L205.5435659856555,47.4077026972485L205.754273857218,51.81407898982986L205.98119002659303,50.804735502423085L206.2000020470618,47.49465549654016L206.41070991862426,49.55296070043494L206.629521939093,48.06301584687705L206.84022981065553,49.97643810837592L207.05093768221803,47.66049924618254L207.26974970268677,48.98805542821561L207.49666587206175,42.65639443926513L207.72358204143677,41.48270440273359L207.95049821081176,46.00770504401749L208.17741438018678,42.523258762468885L208.38812225174928,43.76846891603371L208.62314257003052,49.143073266422995L208.84195459049928,44.114782912682735L209.07697490878053,47.32466565315674L209.30389107815552,42.84193213417754L209.53080724753053,40.45147875391567L209.74961926799926,44.997555371716615L209.96843128846803,46.00056454924122L210.19534745784304,43.525692093640565L210.422263627218,40.49915883193787L210.65728394549927,39.55983826104675L210.876095965968,43.940071129205336L211.0868038375305,38.79787836685652L211.30561585799927,44.935248796330136L211.53253202737426,46.523433037697025L211.75944819674928,43.639133825166766L211.978260217218,46.64159670931721L212.20517638659302,42.236832786524054L212.42398840706178,44.37264690952251L212.65900872534303,46.91996083632112L212.8697165969055,41.418209611206L213.08852861737427,46.814811292277035L213.30734063784303,51.743019549878944L213.54236095612427,42.57600628839681L213.76927712549926,37.85890330377717L213.99619329487427,46.07749762199199L214.23121361315552,34.95018820588291L214.45002563362428,32.508254161669555L214.67694180299927,30.12263789077228L214.90385797237428,27.6463834039246L215.12266999284302,24.62595411356291L215.349586162218,27.12685482431575L215.57650233159302,24.66591785045589L215.79531435206175,35.11683814041937L216.02223052143677,25.48223764036223L216.24104254190553,40.8799084404918L216.451750413468,67.55679692463204L216.6705624339368,91.98201099956532L216.88127030549927,82.79933471728364L217.09197817706178,38.67856300253049L217.30268604862425,109.04387775964787L217.52149806909304,44.70732880984247L217.748414238468,34.016741267791645L217.96722625893676,127.69174054495618" fill="none"></path></g></g></g></g></g></g><g transform="translate(82, 176)" clip-path="url(#clip_1)"><clipPath id="clip_1"><rect width="247" height="23"></rect></clipPath><g><g><line x1="0" y1="0" x2="0" y2="5" style="visibility: inherit;" fill="rgb(0, 0, 0)" stroke="rgb(204, 204, 204)" stroke-width="1px"></line><line x1="24.731899738311768" y1="0" x2="24.731899738311768" y2="5" style="visibility: inherit;" fill="rgb(0, 0, 0)" stroke="rgb(204, 204, 204)" stroke-width="1px"></line><line x1="49.463799476623535" y1="0" x2="49.463799476623535" y2="5" style="visibility: inherit;" fill="rgb(0, 0, 0)" stroke="rgb(204, 204, 204)" stroke-width="1px"></line><line x1="74.1956992149353" y1="0" x2="74.1956992149353" y2="5" style="visibility: inherit;" fill="rgb(0, 0, 0)" stroke="rgb(204, 204, 204)" stroke-width="1px"></line><line x1="98.92759895324707" y1="0" x2="98.92759895324707" y2="5" style="visibility: inherit;" fill="rgb(0, 0, 0)" stroke="rgb(204, 204, 204)" stroke-width="1px"></line><line x1="123.65949869155884" y1="0" x2="123.65949869155884" y2="5" style="visibility: inherit;" fill="rgb(0, 0, 0)" stroke="rgb(204, 204, 204)" stroke-width="1px"></line><line x1="148.3913984298706" y1="0" x2="148.3913984298706" y2="5" style="visibility: inherit;" fill="rgb(0, 0, 0)" stroke="rgb(204, 204, 204)" stroke-width="1px"></line><line x1="173.12329816818237" y1="0" x2="173.12329816818237" y2="5" style="visibility: inherit;" fill="rgb(0, 0, 0)" stroke="rgb(204, 204, 204)" stroke-width="1px"></line><line x1="197.85519790649414" y1="0" x2="197.85519790649414" y2="5" style="visibility: inherit;" fill="rgb(0, 0, 0)" stroke="rgb(204, 204, 204)" stroke-width="1px"></line><line x1="222.5870976448059" y1="0" x2="222.5870976448059" y2="5" style="visibility: inherit;" fill="rgb(0, 0, 0)" stroke="rgb(204, 204, 204)" stroke-width="1px"></line><line x1="247.31899738311768" y1="0" x2="247.31899738311768" y2="5" style="visibility: inherit;" fill="rgb(0, 0, 0)" stroke="rgb(204, 204, 204)" stroke-width="1px"></line></g><g transform="translate(0, 8)"><text style="text-anchor: middle; visibility: hidden; font-family: Roboto, sans-serif; font-size: 12px; font-weight: 200;" x="0" y="0" dx="0em" dy="0.95em" fill="rgb(33, 33, 33)" stroke="none" stroke-width="1px">-50M</text><text style="text-anchor: middle; visibility: inherit; font-family: Roboto, sans-serif; font-size: 12px; font-weight: 200;" x="24.731899738311768" y="0" dx="0em" dy="0.95em" fill="rgb(33, 33, 33)" stroke="none" stroke-width="1px">0</text><text style="text-anchor: middle; visibility: hidden; font-family: Roboto, sans-serif; font-size: 12px; font-weight: 200;" x="49.463799476623535" y="0" dx="0em" dy="0.95em" fill="rgb(33, 33, 33)" stroke="none" stroke-width="1px">50M</text><text style="text-anchor: middle; visibility: inherit; font-family: Roboto, sans-serif; font-size: 12px; font-weight: 200;" x="74.1956992149353" y="0" dx="0em" dy="0.95em" fill="rgb(33, 33, 33)" stroke="none" stroke-width="1px">100M</text><text style="text-anchor: middle; visibility: hidden; font-family: Roboto, sans-serif; font-size: 12px; font-weight: 200;" x="98.92759895324707" y="0" dx="0em" dy="0.95em" fill="rgb(33, 33, 33)" stroke="none" stroke-width="1px">150M</text><text style="text-anchor: middle; visibility: inherit; font-family: Roboto, sans-serif; font-size: 12px; font-weight: 200;" x="123.65949869155884" y="0" dx="0em" dy="0.95em" fill="rgb(33, 33, 33)" stroke="none" stroke-width="1px">200M</text><text style="text-anchor: middle; visibility: hidden; font-family: Roboto, sans-serif; font-size: 12px; font-weight: 200;" x="148.3913984298706" y="0" dx="0em" dy="0.95em" fill="rgb(33, 33, 33)" stroke="none" stroke-width="1px">250M</text><text style="text-anchor: middle; visibility: inherit; font-family: Roboto, sans-serif; font-size: 12px; font-weight: 200;" x="173.12329816818237" y="0" dx="0em" dy="0.95em" fill="rgb(33, 33, 33)" stroke="none" stroke-width="1px">300M</text><text style="text-anchor: middle; visibility: hidden; font-family: Roboto, sans-serif; font-size: 12px; font-weight: 200;" x="197.85519790649414" y="0" dx="0em" dy="0.95em" fill="rgb(33, 33, 33)" stroke="none" stroke-width="1px">350M</text><text style="text-anchor: middle; visibility: inherit; font-family: Roboto, sans-serif; font-size: 12px; font-weight: 200;" x="222.5870976448059" y="0" dx="0em" dy="0.95em" fill="rgb(33, 33, 33)" stroke="none" stroke-width="1px">400M</text><text style="text-anchor: middle; visibility: hidden; font-family: Roboto, sans-serif; font-size: 12px; font-weight: 200;" x="247.31899738311768" y="0" dx="0em" dy="0.95em" fill="rgb(33, 33, 33)" stroke="none" stroke-width="1px">450M</text></g><line x1="0" y1="0" x2="247.31899738311768" y2="0" fill="rgb(0, 0, 0)" stroke="rgb(204, 204, 204)" stroke-width="1px"></line></g></g></g></g></svg>