<svg viewBox="0 0 330 200" xmlns="http://www.w3.org/2000/svg"><g><g><g><g><g><line x1="51.53200149536133" y1="176.89999961853027" x2="46.53200149536133" y2="176.89999961853027" style="visibility: inherit;" fill="rgb(0, 0, 0)" stroke="rgb(204, 204, 204)" stroke-width="1px"></line><line x1="51.53200149536133" y1="151.62857110159734" x2="46.53200149536133" y2="151.62857110159734" style="visibility: inherit;" fill="rgb(0, 0, 0)" stroke="rgb(204, 204, 204)" stroke-width="1px"></line><line x1="51.53200149536133" y1="126.35714258466454" x2="46.53200149536133" y2="126.35714258466454" style="visibility: inherit;" fill="rgb(0, 0, 0)" stroke="rgb(204, 204, 204)" stroke-width="1px"></line><line x1="51.53200149536133" y1="101.0857140677316" x2="46.53200149536133" y2="101.0857140677316" style="visibility: inherit;" fill="rgb(0, 0, 0)" stroke="rgb(204, 204, 204)" stroke-width="1px"></line><line x1="51.53200149536133" y1="75.81428555079867" x2="46.53200149536133" y2="75.81428555079867" style="visibility: inherit;" fill="rgb(0, 0, 0)" stroke="rgb(204, 204, 204)" stroke-width="1px"></line><line x1="51.53200149536133" y1="50.54285703386585" x2="46.53200149536133" y2="50.54285703386585" style="visibility: inherit;" fill="rgb(0, 0, 0)" stroke="rgb(204, 204, 204)" stroke-width="1px"></line><line x1="51.53200149536133" y1="25.271428516932808" x2="46.53200149536133" y2="25.271428516932808" style="visibility: inherit;" fill="rgb(0, 0, 0)" stroke="rgb(204, 204, 204)" stroke-width="1px"></line><line x1="51.53200149536133" y1="0" x2="46.53200149536133" y2="0" style="visibility: inherit;" fill="rgb(0, 0, 0)" stroke="rgb(204, 204, 204)" stroke-width="1px"></line></g><g transform="translate(41.53200149536133, 0)"><text style="text-anchor: end; visibility: hidden; font-family: Roboto, sans-serif; font-size: 12px; font-weight: 200;" x="0" y="176.89999961853027" dx="0em" dy="0.3em" fill="rgb(33, 33, 33)" stroke="none" stroke-width="1px">1.8</text><text style="text-anchor: end; visibility: inherit; font-family: Roboto, sans-serif; font-size: 12px; font-weight: 200;" x="0" y="151.62857110159734" dx="0em" dy="0.3em" fill="rgb(33, 33, 33)" stroke="none" stroke-width="1px">1.85</text><text style="text-anchor: end; visibility: inherit; font-family: Roboto, sans-serif; font-size: 12px; font-weight: 200;" x="0" y="126.35714258466454" dx="0em" dy="0.3em" fill="rgb(33, 33, 33)" stroke="none" stroke-width="1px">1.9</text><text style="text-anchor: end; visibility: inherit; font-family: Roboto, sans-serif; font-size: 12px; font-weight: 200;" x="0" y="101.0857140677316" dx="0em" dy="0.3em" fill="rgb(33, 33, 33)" stroke="none" stroke-width="1px">1.95</text><text style="text-anchor: end; visibility: inherit; font-family: Roboto, sans-serif; font-size: 12px; font-weight: 200;" x="0" y="75.81428555079867" dx="0em" dy="0.3em" fill="rgb(33, 33, 33)" stroke="none" stroke-width="1px">2</text><text style="text-anchor: end; visibility: inherit; font-family: Roboto, sans-serif; font-size: 12px; font-weight: 200;" x="0" y="50.54285703386585" dx="0em" dy="0.3em" fill="rgb(33, 33, 33)" stroke="none" stroke-width="1px">2.05</text><text style="text-anchor: end; visibility: inherit; font-family: Roboto, sans-serif; font-size: 12px; font-weight: 200;" x="0" y="25.271428516932808" dx="0em" dy="0.3em" fill="rgb(33, 33, 33)" stroke="none" stroke-width="1px">2.1</text><text style="text-anchor: end; visibility: hidden; font-family: Roboto, sans-serif; font-size: 12px; font-weight: 200;" x="0" y="0" dx="0em" dy="0.3em" fill="rgb(33, 33, 33)" stroke="none" stroke-width="1px">2.15</text></g><line x1="51.53200149536133" y1="0" x2="51.53200149536133" y2="176.89999961853027" fill="rgb(0, 0, 0)" stroke="rgb(204, 204, 204)" stroke-width="1px"></line></g></g><g transform="translate(51, 0)" clip-path="url(#clip_0)"><clipPath id="clip_0"><rect width="278" height="176"></rect></clipPath><g><g><g><line x1="0" y1="0" x2="0" y2="176.89999961853027" fill="rgb(0, 0, 0)" stroke="rgb(66, 66, 66)" stroke-width="1px" opacity="0.25"></line><line x1="27.846799850463867" y1="0" x2="27.846799850463867" y2="176.89999961853027" fill="rgb(0, 0, 0)" stroke="rgb(66, 66, 66)" stroke-width="1px" opacity="0.25"></line><line x1="55.693599700927734" y1="0" x2="55.693599700927734" y2="176.89999961853027" fill="rgb(0, 0, 0)" stroke="rgb(66, 66, 66)" stroke-width="1px" opacity="0.25"></line><line x1="83.5403995513916" y1="0" x2="83.5403995513916" y2="176.89999961853027" fill="rgb(0, 0, 0)" stroke="rgb(66, 66, 66)" stroke-width="1px" opacity="0.25"></line><line x1="111.38719940185547" y1="0" x2="111.38719940185547" y2="176.89999961853027" fill="rgb(0, 0, 0)" stroke="rgb(66, 66, 66)" stroke-width="1px" opacity="0.25"></line><line x1="139.23399925231934" y1="0" x2="139.23399925231934" y2="176.89999961853027" fill="rgb(0, 0, 0)" stroke="rgb(66, 66, 66)" stroke-width="1px" opacity="0.25"></line><line x1="167.0807991027832" y1="0" x2="167.0807991027832" y2="176.89999961853027" fill="rgb(0, 0, 0)" stroke="rgb(66, 66, 66)" stroke-width="1px" opacity="0.25"></line><line x1="194.92759895324707" y1="0" x2="194.92759895324707" y2="176.89999961853027" fill="rgb(0, 0, 0)" stroke="rgb(66, 66, 66)" stroke-width="1px" opacity="0.25"></line><line x1="222.77439880371094" y1="0" x2="222.77439880371094" y2="176.89999961853027" fill="rgb(0, 0, 0)" stroke="rgb(66, 66, 66)" stroke-width="1px" opacity="0.25"></line><line x1="250.6211986541748" y1="0" x2="250.6211986541748" y2="176.89999961853027" fill="rgb(0, 0, 0)" stroke="rgb(66, 66, 66)" stroke-width="1px" opacity="0.25"></line><line x1="278.4679985046387" y1="0" x2="278.4679985046387" y2="176.89999961853027" fill="rgb(0, 0, 0)" stroke="rgb(66, 66, 66)" stroke-width="1px" opacity="0.25"></line></g><g><line x1="0" y1="176.89999961853027" x2="278.4679985046387" y2="176.89999961853027" fill="rgb(0, 0, 0)" stroke="rgb(66, 66, 66)" stroke-width="1px" opacity="0.25"></line><line x1="0" y1="151.62857110159734" x2="278.4679985046387" y2="151.62857110159734" fill="rgb(0, 0, 0)" stroke="rgb(66, 66, 66)" stroke-width="1px" opacity="0.25"></line><line x1="0" y1="126.35714258466454" x2="278.4679985046387" y2="126.35714258466454" fill="rgb(0, 0, 0)" stroke="rgb(66, 66, 66)" stroke-width="1px" opacity="0.25"></line><line x1="0" y1="101.0857140677316" x2="278.4679985046387" y2="101.0857140677316" fill="rgb(0, 0, 0)" stroke="rgb(66, 66, 66)" stroke-width="1px" opacity="0.25"></line><line x1="0" y1="75.81428555079867" x2="278.4679985046387" y2="75.81428555079867" fill="rgb(0, 0, 0)" stroke="rgb(66, 66, 66)" stroke-width="1px" opacity="0.25"></line><line x1="0" y1="50.54285703386585" x2="278.4679985046387" y2="50.54285703386585" fill="rgb(0, 0, 0)" stroke="rgb(66, 66, 66)" stroke-width="1px" opacity="0.25"></line><line x1="0" y1="25.271428516932808" x2="278.4679985046387" y2="25.271428516932808" fill="rgb(0, 0, 0)" stroke="rgb(66, 66, 66)" stroke-width="1px" opacity="0.25"></line><line x1="0" y1="0" x2="278.4679985046387" y2="0" fill="rgb(0, 0, 0)" stroke="rgb(66, 66, 66)" stroke-width="1px" opacity="0.25"></line></g></g></g><g><g><line x1="0" y1="1086.671426228115" x2="278.4679985046387" y2="1086.671426228115" fill="rgb(0, 0, 0)" stroke="rgb(153, 153, 153)" stroke-width="1.5px"></line></g></g><g><g><line x1="27.846799850463867" y1="0" x2="27.846799850463867" y2="176.89999961853027" fill="rgb(0, 0, 0)" stroke="rgb(153, 153, 153)" stroke-width="1.5px"></line></g></g><g><g><g><g><g><path style="fill: none;" stroke="rgb(187, 187, 187)" stroke-width="2px" d="M28.841407342338865,-82.72858195711852L29.087778005463864,49.15245599905669L29.32502382921387,127.20822109940295L29.562269652963867,186.77851310570642L32.56434180733887,192.2537293114146L32.801587631088864,164.09133865057473L33.05708313358887,186.99329376555022L33.29432895733887,162.97804083305766L33.531574781088864,164.6653258612717L33.768820604838865,181.59895679016475L34.006066428588866,180.54049302483926L34.24331225233887,176.37673061665782L34.48055807608887,177.22915178858526L34.71780389983887,158.97457759779738L34.955049723588864,167.41081653076537L35.192295547338865,163.23287458524345L35.429541371088874,175.79763602286644L35.66678719483887,174.61232317919078L35.90403301858887,172.95441130090813L36.14127884233887,169.73314395950905L36.378524666088865,179.13432209047045L38.51373707983887,187.42313519683472L38.75098290358886,174.1591565851899L38.988228727338864,175.19154014836442L39.22547455108887,174.89287775127715L39.46272037483887,173.66660076575602L39.69996619858887,154.16655018112837L39.94633686171387,142.59917015103792L40.192707524838866,149.76108113877413L40.42995334858887,153.59978398173627L40.66719917233887,139.404188251975L40.91356983546387,145.66191710342522L41.15081565921386,147.2109054246025L41.38806148296386,134.14144787027456L41.63443214608886,127.79358368841874L41.88080280921386,110.62897343542679L42.136298311713865,114.4149045679318L42.382668974838865,102.68929975026555L42.63816447733887,124.97997281370907L42.87541030108886,127.97473007316185L43.12178096421386,140.47683163082888L43.35902678796387,110.42041011860418L43.60539745108887,118.37368048112336L43.85176811421387,120.84359085968352L44.09813877733887,107.61547451935833L44.35363427983887,128.38337250713707L44.59088010358887,141.61403265543495L44.82812592733887,120.291079102226L45.08362142983887,119.70619761365964L45.32999209296387,134.88417708961228L45.56723791671387,144.38048048762698L45.804483740463866,150.8112615907992L46.04172956421387,141.40908452389527L46.288100227338866,151.60546497903152L46.52534605108887,140.58175802056638L46.771716714213866,134.47678189671367L47.018087377338865,116.88483774108612L47.27358287983886,135.98448911916006L47.510828703588864,147.50891805643462L47.748074527338865,113.8252989048272L48.01269486921387,107.80572322807572L48.268190371713864,116.88546112878929L48.51456103483886,135.8876408783013L48.751806858588864,146.34902094770436L48.989052682338865,125.84152235752022L49.24454818483886,96.06993554990514L49.509168526713864,106.67141895409983L49.75553918983886,115.17298246590352L50.00190985296386,131.88038981130663L50.239155676713864,113.92048491910958L50.49465117921387,105.05664429747816L50.750146681713865,126.93305348563334L50.987392505463866,139.02401441169906L51.22463832921387,133.0152459587519L51.47100899233887,130.1317048179834L51.717379655463866,142.5069076275631L51.95462547921387,151.44073390426098L52.19187130296387,142.2994864657721L52.43824196608887,116.25408291635733L52.684612629213866,105.18582793115685L52.94010813171387,117.6581376475388L53.17735395546387,121.27581742338701L53.42372461858887,141.40743294059433L53.660970442338865,153.84926257554068L53.898216266088866,145.3283096762158L54.144586929213865,141.66602240091808L54.390957592338864,153.5694947972896L54.628203416088866,143.92066016633143L54.874574079213865,139.994537255443L55.120944742338864,121.92813936610925L55.37644024483887,128.78738174276256L55.62281090796387,145.8476125591056L55.86005673171387,140.4799858673671L56.10642739483887,138.8908352703846L56.35279805796387,110.39885879059268L56.61741839983887,120.57097780934586L56.86378906296387,121.93392831668774L57.11015972608887,142.64476397627516L57.34740554983887,152.88711421772356L57.58465137358886,147.54024429922245L57.83102203671386,142.31836322988835L58.07739269983886,142.20818693402032L58.31463852358887,117.56909128246969L58.57013402608887,139.38261374404377L58.80737984983887,137.44504172504327L59.053750512963866,136.62260776583938L59.30012117608887,121.7702322012926L59.55561667858887,112.28882501630297L59.81111218108887,107.20852369127552L60.06660768358886,124.47232683290937L60.30385350733887,129.57299012483975L60.55022417046387,146.46459409216217L60.78746999421387,137.78760087042184L61.03384065733887,89.20629255183864L61.29846099921387,89.03215512917147L61.55395650171386,107.43885138800763L61.80032716483886,119.94901187631011L62.04669782796386,114.66071482093993L62.302193330463865,110.17998373605451L62.55768883296386,135.95588417103755L62.79493465671386,135.17918317982085L63.04130531983886,134.25153754139987L63.28767598296386,134.96568431589412L63.53404664608886,107.69156040811983L63.79866698796386,116.46972037377418L64.04503765108886,123.84658551496379L64.29140831421387,113.76605204415921L64.54690381671386,137.64459867374424L64.78414964046387,151.4431980304164L65.02139546421387,157.70710428202273L65.25864128796387,163.29599353619767L65.49588711171387,166.33621063429968L65.73313293546387,137.76596856359697L65.98862843796387,151.06634887394557L66.22587426171387,154.2343396306951L66.46312008546387,141.50306142233677L66.70949074858888,154.26786114077075L66.94673657233886,143.09000983743698L67.19310723546387,128.1049935836119L67.43947789858886,145.10583084078453L67.67672372233886,148.229930246437L67.91396954608886,140.9591817960153L68.16034020921387,125.99357614113542L68.41583571171387,129.3385458035578L68.66220637483887,115.92762711284388L68.91770187733887,123.63402448919277L69.16407254046386,125.90934490270642L69.41044320358887,128.82286331281134L69.65681386671388,130.29656364844993L69.90318452983887,117.50893176749902L70.15868003233888,124.64098640151552L70.40505069546387,113.81818262936501L70.66054619796387,118.7017718302752L70.90691686108886,122.00148567346729L71.15328752421387,109.40636000516201L71.40878302671386,84.9615298733141L71.67340336858888,73.88525231781729L71.93802371046387,93.29847737849781L72.18439437358886,89.62746945150626L72.43988987608887,102.11463446300289L72.68626053921386,109.97731321676535L72.93263120233887,113.04734757371097L73.17900186546386,129.04371653076876L73.41624768921386,122.4222887323459L73.66261835233885,120.23076390195503L73.90898901546387,133.08234410561806L74.14623483921388,137.27690189813586L74.38348066296386,128.10445369065891L74.62985132608887,108.17193650431014L74.88534682858887,107.83933283486539L75.13171749171387,123.57395658058827L75.36896331546386,118.52041783720921L75.61533397858886,112.10908551600161L75.86170464171387,89.0985565241862L76.11720014421387,89.76370464463459L76.35444596796387,91.2690644136096L76.59169179171387,101.67456452247413L76.82893761546386,78.9632206105321L77.08443311796387,90.72853914757584L77.32167894171386,110.74215234792865L77.55892476546387,-2361.0570406106585L80.52449756233887,-40.87939342296036L80.77086822546386,11.09787300614542L81.01723888858886,55.41449373878921L81.25448471233888,65.35034375269731L81.50085537546387,85.48287979685489L81.73810119921387,97.5098618705016L81.97534702296386,103.12798108247387L82.21259284671387,66.59877373146486L82.46808834921386,82.64367913031057L82.70533417296387,88.39922854753068L82.94257999671386,75.93095282230165L83.18895065983887,37.10995130776495L83.45357100171387,30.567923875407715L83.70906650421387,57.343640806210374L83.94631232796387,74.43494188511353L84.18355815171387,86.76382983432686L84.42080397546385,90.86244990780841L84.65804979921387,36.15675679937674L84.92267014108886,49.87899842780923L85.16904080421386,53.86276120512681L85.41541146733886,61.60236477564004L85.65265729108887,53.441081054752914L85.89902795421388,71.70104643774256L86.13627377796386,55.19884311936935L86.39176928046388,57.67328510377684L86.63813994358887,76.2425596434791L86.87538576733887,87.39477688214386L87.11263159108887,50.914356650322006L87.36812709358887,68.96532294622153L87.60537291733887,81.34741017978352L87.84261874108887,40.43844224582735L88.10723908296387,48.57179573112926L88.35360974608888,25.373658550539695L88.61823008796387,42.489649102246325L88.85547591171387,61.69275087010432L89.09272173546387,79.96551065893708L89.32996755921387,64.36965134488995L89.57633822233886,28.044017092517787L89.83183372483887,42.30778489756631L90.07820438796386,38.037670227878856L90.33369989046388,35.9745825738464L90.58919539296386,44.90915863555126L90.83556605608888,11.249790602445193L91.10018639796387,32.522530212567865L91.34655706108887,14.623801728129306L91.61117740296386,33.69107239223029L91.85754806608887,27.70261906834336L92.11304356858886,19.159646375805558L92.37766391046387,14.54513527134397L92.64228425233887,28.589278325655098L92.89777975483887,18.311056725911833L93.16240009671387,58.584075535341626L93.39964592046387,74.97024954681696L93.63689174421387,31.777639378408114L93.90151208608887,34.378132491906314L94.15700758858887,67.86666642417637L94.39425341233887,49.95503612326132L94.63149923608887,42.421646922860546L94.87786989921386,39.50893810836506L95.12424056233887,32.38743239040785L95.37973606483887,42.059490313926965L95.62610672796387,53.32254863741522L95.87247739108886,30.015082427900232L96.13709773296387,34.60145477832091L96.39259323546386,36.69417190816915L96.64808873796386,66.40059667167102L96.88533456171386,71.6279250295308L97.13170522483887,73.7421626335219L97.37807588796386,86.72967655932615L97.61532171171388,96.85677271538616L97.85256753546386,57.95353360464054L98.11718787733888,47.85256968575106L98.37268337983886,58.28709726023795L98.61905404296387,74.95787548248512L98.85629986671387,72.2195008502467L99.10267052983887,87.79238610065627L99.33991635358886,81.04079394097079L99.57716217733888,-2397.5545580594526L104.07570798921387,-53.773730655604034L104.31295381296387,6.743323625792689L104.55019963671387,12.383905528999248L104.80569513921387,8.892707058709213L105.06119064171388,20.744877387813993L105.31668614421386,14.20775339531325L105.57218164671386,9.55845691210352L105.83680198858887,37.917025230121126L106.08317265171387,68.99734192825467L106.32041847546387,72.43966952591934L106.56678913858886,90.29349092382374L106.80403496233886,86.80728291471397L107.05040562546387,85.35601043832008L107.29677628858887,83.93671474018306L107.54314695171388,68.8464364853062L107.79864245421386,74.92115427845987L108.04501311733887,79.5266393472478L108.29138378046386,82.55956915790625L108.53775444358887,69.3344573813534L108.79324994608886,54.683485821585656L109.04874544858886,20.300308276475715L109.31336579046386,37.05725834734242L109.55973645358887,56.369283213038145L109.79698227733887,39.60514318587629L110.05247777983887,38.28403500958972L110.30797328233886,19.159259683885367L110.57259362421387,26.06673079286065L110.82808912671388,42.05290564876609L111.07445978983887,61.564126341394676L111.32083045296388,66.85896064828361L111.56720111608887,75.64636245519029L111.81357177921387,73.90959337661869L112.05994244233887,47.438291948300986L112.32456278421387,32.849044522707786L112.58005828671386,70.28552344991604L112.81730411046387,82.79275618859951L113.05454993421387,61.994665331230536L113.31004543671388,51.55636992713762L113.56554093921386,79.79380337143672L113.80278676296388,86.81481960194556L114.04915742608887,53.104958511818666L114.31377776796387,71.61269446128962L114.56014843108886,55.18410386465467L114.81564393358887,40.72347244729089L115.07113943608887,49.66948624053826L115.31751009921388,42.751081593717984L115.57300560171387,67.59763025223283L115.81937626483888,80.64199596825839L116.05662208858887,62.75170931450118L116.30299275171387,71.98565229557964L116.54023857546386,61.34846314387519L116.79573407796387,83.55966855677784L117.03297990171386,51.39610450332332L117.29760024358887,62.81504693871908L117.54397090671387,89.53667848128835L117.78121673046387,68.5316827203766L118.03671223296386,66.66825188016202L118.29220773546388,81.2627491729698L118.53857839858887,84.03191478241739L118.78494906171387,82.53708846039935L119.03131972483887,108.95198748875133L119.26856554858887,112.11614359702169L119.51493621171386,98.3184217479973L119.77043171421387,103.58005083167434L120.01680237733886,91.45809250092438L120.27229787983887,97.27695464792255L120.51866854296387,95.40287495759667L120.76503920608887,73.68436846981024L121.02053470858887,54.39580383296787L121.28515505046386,81.43369323014808L121.52240087421387,67.493565981395L121.76877153733888,73.73572633094908L122.00601736108887,56.536346704324785L122.26151286358888,84.72975361136125L122.49875868733886,63.11198825855619L122.75425418983887,32.47372346690379L123.00974969233887,68.66244130071028L123.24699551608887,71.15241364248423L123.49336617921387,94.41714889923104L123.73061200296387,79.87477687752188L123.98610750546386,70.04187773217483L124.24160300796387,65.94193123926311L124.49709851046387,34.67785241537799L124.76171885233886,48.3128833357565L125.00808951546387,35.83014395437633L125.27270985733887,31.361862024268085L125.52820535983886,24.837793280374186L125.77457602296386,52.23543128715124L126.02094668608888,66.926953455467L126.26731734921387,71.4997557775323L126.51368801233887,57.14451199859862L126.76918351483886,51.05133621094643L127.02467901733887,42.73550981072935L127.28017451983887,28.95253167231829L127.54479486171387,26.028861197944195L127.79116552483886,31.9048480295563L128.04666102733887,23.350825706024683L128.30215652983887,42.50855622620101L128.54852719296386,49.87642956852456L128.79489785608888,65.29247694934328L129.03214367983887,65.95015323593562L129.27851434296386,51.155718883871906L129.53400984546386,76.59818340135128L129.77125566921387,64.55982052534017L130.01762633233886,38.374217745627824L130.26399699546388,34.1361929812907L130.51949249796385,35.512587758009616L130.77498800046388,62.48360036525974L131.01223382421387,47.75988826904024L131.26772932671386,68.08005169224018L131.50497515046388,80.62710503714275L131.74222097421386,75.42722065460023L131.98859163733886,37.639909603398074L132.25321197921386,47.01067323316843L132.49958264233888,36.76208932990739L132.75507814483888,59.12037014748522L132.99232396858886,25.877516429424148L133.24781947108886,51.189664230212834L133.48506529483888,39.00023077014531L133.74056079733887,25.784017039492145L133.99605629983887,23.071803808857336L134.25155180233887,25.02415467069704L134.50704730483886,40.60017532737523L134.75341796796388,62.97593423760417L134.99066379171387,77.41159504115772L135.2279096154639,57.97989980988349L135.48340511796385,73.63147245706593L135.72065094171387,71.67647550718472L135.96702160483886,64.09273606275912L136.20426742858888,60.34543172760663L136.45063809171387,63.39255403932513L136.69700875483886,67.00567797901729L136.94337941796385,68.05229080306641L137.18975008108887,84.70260485053572L137.42699590483886,78.00174856207165L137.67336656796388,88.64150528481059L137.91061239171387,67.82785007469128L138.15698305483886,62.97577484008581L138.40335371796385,62.19898518483211L138.64972438108887,53.073573658147005L138.89609504421387,56.02109188358002L139.13334086796388,72.76621926451034L139.37058669171387,74.00713642010962L139.60783251546388,37.266740216412764L139.87245285733889,12.911629794535699L140.13707319921386,47.88240503081701L140.37431902296385,53.89972566597751L140.61156484671386,60.5147056500219L140.84881067046388,34.18191624760072L141.10430617296385,62.6669158744738L141.3415519967139,64.62247551076801L141.58792265983885,65.82694941285605L141.83429332296387,78.80171287393749L142.07153914671386,88.83251633126734L142.30878497046388,76.03234280550764L142.55515563358887,59.337174442742416L142.80152629671386,48.09556443375764L143.04789695983888,51.033011399692235L143.29426762296387,54.88693939399168L143.54063828608886,54.659466723915095L143.78700894921386,39.612306225093945L144.04250445171385,46.311990178619716L144.28887511483887,52.830562403605555L144.53524577796387,23.116150908894728L144.79986611983887,11.157810913602926L145.04623678296386,39.40140654097819L145.28348260671387,38.95253739372227L145.52072843046386,30.871403821122584L145.76709909358888,45.15343530078127L146.00434491733887,37.36203023747644L146.25071558046386,55.30464527624407L146.48796140421388,53.755521529080305L146.73433206733887,56.81370293907947L146.9807027304639,59.12744473736329L147.22707339358885,47.04556069608004L147.48256889608885,40.68945806544836L147.73806439858888,37.32546757745197L147.99355990108887,50.34591776952316L148.23993056421386,26.37879581985516L148.50455090608887,43.106854481252434L148.75092156921386,53.03301920713825L148.99729223233888,28.95522977931788L149.26191257421388,42.99029592283182L149.50828323733884,51.501616877274074L149.75465390046386,71.76255174252584L149.99189972421385,52.916100943297415L150.24739522671388,71.91376756772945L150.48464105046386,84.53562329667398L150.72188687421385,61.574676675896036L150.97738237671385,79.33013105713388L151.21462820046386,74.25031408204747L151.46099886358886,55.46692422193476L151.71649436608888,44.41172405544737L151.97198986858888,51.49263228444133L152.21836053171387,56.225023122283496L152.46473119483886,29.19037147289185L152.72935153671386,43.94222530411872L152.97572219983888,37.213046515105894L153.23121770233885,48.18522186466561L153.47758836546387,70.04110026730612L153.71483418921386,82.64547566051328L153.95208001296385,62.08314804135002L154.20757551546387,48.044337583227346L154.46307101796387,37.6189087334563L154.71856652046387,32.121859833039295L154.97406202296386,61.13887779532262L155.21130784671388,32.0133123712502L155.47592818858885,60.52666314868711L155.71317401233887,64.32389840472581L155.95954467546386,64.89851200334219L156.20591533858885,82.05020110427054L156.44316116233887,47.80994280808963L156.70778150421387,70.1558010784336L156.94502732796386,83.17086004129449L157.18227315171387,76.71772048922108L157.42864381483886,72.3196218052806L157.67501447796386,38.81686018802189L157.93963481983886,16.663220369700664L158.2042551617139,34.19213602053015L158.45062582483885,14.539105101724118L158.71524616671385,2.1394665858436728L158.97986650858888,-4.13972262141967L159.24448685046386,7.2675845579756375L159.49998235296388,14.303376722822408L159.75547785546388,36.3869021486613L160.00184851858887,19.757098879687522L160.26646886046385,37.87365827159922L160.51283952358887,50.99836014813482L160.75921018671386,41.64367844255778L161.01470568921386,66.88575815969993L161.25195151296387,38.16703475583857L161.51657185483887,65.45391348133546L161.75381767858886,52.5029450494935L162.00931318108888,57.62036450537348L162.25568384421385,61.49852745144297L162.50205450733887,77.98965485402448L162.73930033108886,57.85836245446416L162.99479583358888,45.95571502032949L163.25029133608888,67.88233309354018L163.48753715983887,36.09331935312082L163.75215750171387,48.27569109801356L163.9985281648389,69.78347038852783L164.23577398858887,54.855430345286585L164.49126949108887,30.043229701223435L164.75588983296387,44.10125041709285L165.0022604960889,53.29388564466284L165.24863115921386,59.82897511357512L165.49500182233888,63.128375021456314L165.74137248546387,65.21420270464719L165.9877431485889,81.54165889639668L166.22498897233888,90.62899325227528L166.46223479608886,65.9061934140357L166.71773029858886,67.50722305184993L166.96410096171385,52.013657918229676L167.21959646421385,58.94014211043898L167.46596712733887,62.88384995453913L167.71233779046386,64.23630229816004L167.95870845358888,79.96997074159476L168.19595427733887,90.13810972243279L168.43320010108886,97.2150719597132L168.67044592483884,86.64326374487158L168.91681658796387,63.16900689071545L169.17231209046386,50.28302940309582L169.4278075929639,56.96998326181721L169.67417825608885,76.75163725647563L169.91142407983887,43.765155114464626L170.17604442171387,69.09924676309325L170.41329024546388,37.469655853455905L170.67791058733886,49.61975471584717L170.92428125046388,74.02228380577621L171.16152707421386,87.1578923514122L171.39877289796388,51.567260229746665L171.66339323983885,58.81353367151797L171.90976390296387,78.08479621230791L172.14700972671386,73.18710463527094L172.39338038983885,71.75275974893279L172.63975105296387,86.50228058672559L172.87699687671386,63.42071833547816L173.13249237921386,65.74948052935538L173.37886304233885,82.81422531058811L173.6161088660889,60.52087026453021L173.87160436858886,48.96581065660497L174.12709987108886,70.90653687857989L174.36434569483887,38.917757873013166L174.62896603671388,19.869624959237143L174.89358637858888,38.32500186366565L175.13995704171387,63.437374944344974L175.3772028654639,65.42008826384851L175.62357352858885,81.31225940076943L175.86081935233886,73.81274480550819L176.10719001546386,70.12498904626031L176.35356067858885,54.907012808174834L176.60905618108885,75.20440183815913L176.84630200483886,73.25832359510582L177.09267266796385,70.52784185846343L177.33904333108887,55.0199302888827L177.59453883358884,60.5310962430851L177.84090949671386,49.44354898232758L178.09640499921386,42.72556309122426L178.35190050171389,37.75527758907967L178.60739600421388,65.27193110453206L178.84464182796387,80.95232849447956L179.08188765171386,75.48464325883165L179.32825831483885,54.60178766927299L179.58375381733885,44.58751386133067L179.83924931983887,53.4500531037186L180.08561998296386,43.96409972075527L180.3411154854639,52.63293712416522L180.58748614858885,57.06152252795185L180.83385681171387,31.78416474385336L181.09847715358887,43.99948516209655L181.34484781671387,38.31834168234379L181.60034331921386,35.95138478361722L181.85583882171386,33.38011242276858L182.11133432421386,18.35839902529842L182.37595466608886,25.559992822709177L182.63145016858886,43.86172411394989L182.87782083171388,69.80930523661695L183.11506665546386,69.70332903731448L183.36143731858886,85.4152019738131L183.59868314233887,64.7591900049906L183.85417864483884,84.08077059099942L184.09142446858888,95.03157956367069L184.32867029233887,102.89328471028837L184.56591611608886,91.51194779857607L184.81228677921388,71.87313504161648L185.06778228171385,73.39874274230374L185.31415294483887,74.52908571657015L185.56052360796386,47.824206772538005L185.8251439498389,61.16631031268796L186.07151461296385,69.31135656820764L186.31788527608887,60.67311277148805L186.57338077858887,69.90928526184487L186.81975144171386,89.87632550822481L187.05699726546385,87.84034659615472L187.30336792858887,86.50355784404469L187.54973859171386,85.30984801765186L187.79610925483888,84.80426234745353L188.04247991796385,84.1739606820626L188.28885058108887,84.05558536158901L188.53522124421386,83.75941131485341L188.78159190733888,68.78608679063115L189.03708740983888,74.52984456639847L189.28345807296387,49.13954874494386L189.54807841483887,63.76393654543685L189.79444907796386,60.72054393470633L190.04081974108888,40.14256353979981L190.30544008296388,28.78747141321378L190.57006042483886,50.815931370914114L190.81643108796388,63.64108156185963L191.06280175108887,87.17906412556586L191.30004757483886,101.29876877261313L191.53729339858887,79.68466014749133L191.79278890108884,83.57546266132603L192.03915956421386,71.46903835730521L192.2946550667139,78.84029312705259L192.54102572983885,99.06443701143237L192.7782715535889,96.59519311733519L193.02464221671386,95.34419419488684L193.27101287983888,109.33628977335414L193.50825870358887,117.29378178193576L193.74550452733888,92.51135620905984L194.00100002983888,91.7031722572622L194.24737069296387,91.90262571309441L194.49374135608886,107.41792921658164L194.73098717983888,102.04833147579826L194.97735784296387,82.03555835969793L195.23285334546387,101.59211539539577L195.47009916921388,82.5653946614797L195.72559467171385,72.28079426149337L195.98109017421385,67.39619263493032L196.23658567671387,94.0270279752067L196.47383150046386,108.98838271680921L196.71107732421387,104.69934407910335L196.95744798733887,88.96269024685196L197.21294348983886,94.32513890438975L197.45931415296388,113.04278841892473L197.69655997671387,92.95247801382489L197.95205547921387,67.1551497814017L198.21667582108887,51.827189488220995L198.48129616296387,56.79165445892532L198.73679166546387,75.12552387607002L198.98316232858886,101.49298991438769L199.22040815233888,116.70275748730361L199.45765397608886,111.78277109500718L199.70402463921386,121.68585820159142L199.94127046296384,128.69869791941787L200.1785162867139,132.58243997516897L200.41576211046387,92.34219920444568L200.68038245233888,83.02611439696955L200.93587795483887,76.79186586089365L201.19137345733887,74.28315234711766L201.44686895983887,88.01502118322861L201.69323962296386,97.70606579762975L201.93961028608888,86.55408030470946L202.19510578858888,65.65783276735505L202.45972613046388,96.08423128407756L202.69697195421386,99.73918405343909L202.94334261733889,116.25361839714208L203.18058844108887,127.41619086371455L203.41783426483886,134.69485071900914L203.65508008858887,124.75046524214926L203.90145075171387,131.9622962558446L204.13869657546388,107.31146959870435L204.39419207796388,122.14870227522815L204.63143790171387,130.24877736958425L204.86868372546385,136.68134570335934L205.10592954921387,97.95275897803563L205.37054989108884,89.66277231806241L205.62604539358887,84.7169781554876L205.88154089608886,82.14981448950306L206.13703639858886,92.66300554026108L206.38340706171388,71.86904255342094L206.64802740358888,101.47120702570696L206.88527322733887,105.18617675878606L207.1316438904639,106.58946819470478L207.37801455358886,106.56131093881723L207.62438521671388,107.04508478292698L207.87075587983887,122.32748639379437L208.10800170358885,101.87797134878969L208.36349720608885,102.57015562073134L208.60986786921387,102.27203689793303L208.85623853233886,72.17314355448369L209.12085887421387,70.39827324859726L209.37635437671386,69.16459787743227L209.63184987921386,67.92791798103407L209.88734538171386,95.19445645779902L210.12459120546387,111.80613558470553L210.36183702921386,92.02664607975079L210.61733253171386,111.65969200589694L210.85457835546384,107.21492003079322L211.10094901858886,102.66439337257634L211.34731968171388,86.82917045182187L211.60281518421385,90.89784636575949L211.84918584733887,95.31738298525181L212.09555651046387,111.68737501120111L212.33280233421388,91.00885836016938L212.58829783671388,108.81107542995579L212.82554366046386,89.70006913590481L213.0810391629639,64.42197374998408L213.34565950483886,93.08259927413246L213.58290532858888,95.55040267410199L213.82927599171384,111.25831361101616L214.0665218154639,76.7412436382392L214.33114215733886,70.7255915647278L214.58663765983889,81.77753124778005L214.83300832296385,73.31779303414076L215.08850382546387,97.77906009845894L215.32574964921386,111.84028814451207L215.56299547296388,106.00896946854908L215.80936613608887,102.7700321431569L216.0557367992139,100.24362531558513L216.30210746233885,99.98848948026564L216.54847812546387,85.62842368048634L216.80397362796387,61.39680967003999L217.06859396983887,75.81123200399229L217.31496463296386,84.85687233762471L217.56133529608888,91.40513246617321L217.80770595921385,94.61689954621777L218.05407662233887,82.99376810767886L218.30957212483887,106.63854280292742L218.54681794858888,119.09979661828709L218.78406377233887,126.21311016578528L219.02130959608886,102.84293162654507L219.27680509858885,85.3961132829689L219.53230060108888,78.66859743246202L219.78779610358887,74.01125357291079L220.04329160608887,84.41362609835123L220.28966226921386,105.10622232938361L220.52690809296385,101.83154153067066L220.77327875608887,116.64598637546328L221.01052457983886,81.73599497856732L221.27514492171386,90.0741972578926L221.52151558483888,95.91717305395665L221.76788624796384,83.90788397137177L222.02338175046387,77.32502472662863L222.27887725296387,89.50466269550333L222.5252479160889,96.41921825468869L222.77161857921385,100.18807616268295L223.01798924233887,101.11305461100991L223.26435990546386,87.46631133670343L223.51985540796386,107.5001994935647L223.75710123171385,76.62039684045617L224.02172157358888,102.36957269182511L224.25896739733886,103.40208029694176L224.50533806046386,103.56979290694545L224.75170872358888,118.51776069775788L224.98895454733886,113.97929715502599L225.23532521046388,82.41475199715953L225.4999455523389,105.91911454131382L225.73719137608887,91.53772680064263L225.99268687858887,111.31052318870941L226.22993270233886,94.30713903284321L226.48542820483888,99.54335002868494L226.73179886796385,86.88715610623194L226.98729437046387,93.75434915630368L227.23366503358886,84.32669056531417L227.4891605360889,93.86920963248762L227.73553119921385,112.61093737729522L227.97277702296387,94.71560995781577L228.22827252546386,83.78170349220908L228.48376802796386,90.70792541889777L228.73013869108888,94.51178817510466L228.97650935421387,97.401877592001L229.22288001733887,111.26027658669506L229.46012584108888,108.5034969471976L229.70649650421385,121.51350757186226L229.9437423279639,101.22410856487225L230.19923783046386,118.29523751279294L230.43648365421387,98.52033308832206L230.69197915671387,87.24788234520368L230.94747465921387,94.39033009967501L231.19384532233886,113.64470297008724L231.43109114608887,127.54743535164327L231.66833696983886,105.52868445537771L231.92383247233886,107.21104751007445L232.17020313546388,123.38092202210555L232.40744895921387,118.25247340598413L232.65381962233886,130.0025480642012L232.89106544608887,136.4413023919611L233.1283112698389,126.40099865808168L233.37468193296385,105.61112940626869L233.63017743546385,94.75798075839799L233.88567293796388,88.56099147678985L234.14116844046387,83.62469970597529L234.39666394296387,110.51532015449952L234.63390976671386,83.02658370834865L234.89853010858886,93.98429417513053L235.14490077171388,73.03234008548108L235.40952111358888,74.09561540851209L235.66501661608888,75.81261769412014L235.92051211858887,91.90320958716407L236.16688278171387,100.52186071194429L236.4132534448389,91.16138229191057L236.66874894733888,85.81656566341215L236.92424444983885,69.09510485254982L237.18886479171388,88.05013132628855L237.43523545483885,112.83726627536414L237.67248127858886,114.53701372022766L237.91885194171388,99.5284424546025L238.17434744421388,90.21105086646766L238.42984294671388,99.73494382942805L238.67621360983887,90.3096459434318L238.93170911233886,100.08890078864981L239.17807977546389,76.54110050189684L239.44270011733886,105.3403680990822L239.67994594108887,109.37210450753805L239.92631660421387,110.43813236321968L240.17268726733886,80.97007882076988L240.43730760921386,79.91324323058386L240.69280311171386,80.69385368939184L240.94829861421385,64.6487492960715L241.21291895608886,86.55795073915147L241.45928961921388,86.0510446967915L241.71478512171387,86.47802028017837L241.97028062421387,101.60092282772234L242.21665128733886,97.20328199895485L242.47214678983886,93.85623296246801L242.72764229233886,106.67881067673761L242.97401295546385,97.70999243600927L243.22950845796385,109.14555192680467L243.47587912108887,127.0094412104011L243.71312494483885,116.47007889264867L243.95949560796387,119.16523725900349L244.1967414317139,123.18705315223183L244.43398725546388,135.53113040631646L244.67123307921386,111.2001199332855L244.91760374233888,98.02393769032753L245.17309924483885,107.27041609094293L245.41946990796387,57.684694214166335" fill="none"></path></g></g></g></g><g opacity="0.2"><g><g><g><path style="fill: none;" stroke="rgb(187, 187, 187)" stroke-width="2px" d="M30.56600198421387,200.32278299730314L30.821497486713866,160.1467750638107L31.08611782858887,221.1803829600639L31.323363652338866,157.01549001621999L31.587983994213868,252.3716453423396L32.06247564171387,189.31972329322528L32.308846304838866,153.82913484098833L32.56434180733887,200.35893406577637L32.801587631088864,121.84929715174958L33.05708313358887,221.345472839425L33.29432895733887,126.95563557359519L33.531574781088864,167.19623341609312L33.768820604838865,206.99928282650325L34.006066428588866,178.95280189071494L34.24331225233887,170.13109765831257L34.48055807608887,178.5077822378093L34.71780389983887,131.59273312665806L34.955049723588864,180.06517026763663L35.192295547338865,156.96596305241164L35.429541371088874,194.644775679334L35.66678719483887,172.8343540551801L35.90403301858887,170.4675436022369L36.14127884233887,164.90124308585007L36.378524666088865,193.2360890444933L38.51373707983887,185.21850507849743L38.75098290358886,154.2631886697904L38.988228727338864,176.7401154930293L39.22547455108887,174.4448841556631L39.46272037483887,171.82718528751556L39.69996619858887,124.9164743045811L39.94633686171387,125.24810010604233L40.192707524838866,160.50394762032636L40.42995334858887,159.35783824616297L40.66719917233887,118.11079465736994L40.91356983546387,155.0485103805908L41.15081565921386,149.53438790636704L41.38806148296386,114.53726153878988L41.63443214608886,118.27178741563746L41.88080280921386,84.88205805594224L42.136298311713865,120.09380126668891L42.382668974838865,85.10089252376694L42.63816447733887,158.41598240887342L42.87541030108886,132.46686596234107L43.12178096421386,159.22998396732928L43.35902678796387,65.33577785026758L43.60539745108887,130.30358602490224L43.85176811421387,124.5484564275235L44.09813877733887,87.77330000887063L44.35363427983887,159.535219488805L44.59088010358887,161.46002287788207L44.82812592733887,88.30664877241256L45.08362142983887,118.82887538081013L45.32999209296387,157.65114630354117L45.56723791671387,158.62493558464877L45.804483740463866,160.45743324555744L46.04172956421387,127.30581892353935L46.288100227338866,166.90003566173567L46.52534605108887,124.04619758286859L46.771716714213866,125.31931771093464L47.018087377338865,90.49692150764477L47.27358287983886,164.63396618627124L47.510828703588864,164.79556146234663L47.748074527338865,63.2998701774161L48.01269486921387,98.77635971294849L48.268190371713864,130.50506797985977L48.51456103483886,164.39091050256945L48.751806858588864,162.04109105180865L48.989052682338865,95.08027447224413L49.24454818483886,51.41255533848273L49.509168526713864,122.5736440603918L49.75553918983886,127.92532773360912L50.00190985296386,156.9415008294114L50.239155676713864,86.980627580814L50.49465117921387,91.76088336503094L50.750146681713865,159.74766726786612L50.987392505463866,157.16045580079768L51.22463832921387,124.0020932793312L51.47100899233887,125.80639310683077L51.717379655463866,161.06971184193262L51.95462547921387,164.84147331930765L52.19187130296387,128.58761530803895L52.43824196608887,77.1859775922351L52.684612629213866,88.58344545335603L52.94010813171387,136.3666022221114L53.17735395546387,126.70233708715932L53.42372461858887,171.60485621640512L53.660970442338865,172.51200702796035L53.898216266088866,132.54688032722854L54.144586929213865,136.17259148797166L54.390957592338864,171.42470339184678L54.628203416088866,129.44740821989427L54.874574079213865,134.10535288911007L55.120944742338864,94.82854253210876L55.37644024483887,139.07624530774257L55.62281090796387,171.4379587836203L55.86005673171387,132.42854582975946L56.10642739483887,136.50710937491073L56.35279805796387,67.66089407090499L56.61741839983887,135.82915633747587L56.86378906296387,123.97835407770044L57.11015972608887,173.71101746565625L57.34740554983887,168.25063957989605L57.58465137358886,139.51993942147084L57.83102203671386,134.48554162588698L58.07739269983886,142.04292249021847L58.31463852358887,80.61044780514383L58.57013402608887,172.10289743640482L58.80737984983887,134.53868369654265L59.053750512963866,135.38895682703333L59.30012117608887,99.4916688544724L59.55561667858887,98.06671423881873L59.81111218108887,99.58807170373439L60.06660768358886,150.36803154536003L60.30385350733887,137.22398506273515L60.55022417046387,171.80200004314588L60.78746999421387,124.77211103781129L61.03384065733887,16.334330073963912L61.29846099921387,88.77094899517058L61.55395650171386,135.04889577626167L61.80032716483886,138.71425260876381L62.04669782796386,106.72826923788462L62.302193330463865,103.45888710872609L62.55768883296386,174.619734823512L62.79493465671386,134.0141316929959L63.04130531983886,132.8600690837684L63.28767598296386,136.03690447763543L63.53404664608886,66.78037454645838L63.79866698796386,129.63696032225562L64.04503765108886,134.9118832267481L64.29140831421387,98.6452518379522L64.54690381671386,173.46241861812192L64.78414964046387,172.1410970654249L65.02139546421387,167.10296365943216L65.25864128796387,171.67932741746L65.49588711171387,170.8965362814527L65.73313293546387,94.91060545754303L65.98862843796387,171.01691933946861L66.22587426171387,158.9863257658196L66.46312008546387,122.4061441097991L66.70949074858888,173.41506071842198L66.94673657233886,126.32323288243659L67.19310723546387,105.62746920287437L67.43947789858886,170.6070867265436L67.67672372233886,152.91607935491578L67.91396954608886,130.05305912038267L68.16034020921387,103.54516765881559L68.41583571171387,134.3560002971912L68.66220637483887,95.81124907677308L68.91770187733887,135.19362055371624L69.16407254046386,129.32232552297683L69.41044320358887,133.19314092796853L69.65681386671388,132.50711415190796L69.90318452983887,98.32748394607238L70.15868003233888,135.33906835254024L70.40505069546387,97.58397697113938L70.66054619796387,126.02715563164072L70.90691686108886,126.95105643825522L71.15328752421387,90.51367150270406L71.40878302671386,48.29428467554236L71.67340336858888,57.270835984571775L71.93802371046387,122.41831496951845L72.18439437358886,84.1209575610189L72.43988987608887,120.84538198024764L72.68626053921386,121.77133134740897L72.93263120233887,117.65239910912923L73.17900186546386,153.03826996635536L73.41624768921386,112.49014703471168L73.66261835233885,116.94347665636892L73.90898901546387,152.35971441111258L74.14623483921388,143.56873858691247L74.38348066296386,114.34578137944327L74.62985132608887,78.27316072478709L74.88534682858887,107.3404273306982L75.13171749171387,147.17589219917267L75.36896331546386,110.94010972214059L75.61533397858886,102.49208703418999L75.86170464171387,54.58276303646299L76.11720014421387,90.76142682530735L76.35444596796387,93.52710406707202L76.59169179171387,117.28281468577111L76.82893761546386,44.896204742619084L77.08443311796387,108.37651695314135L77.32167894171386,140.76257214845776L77.55892476546387,-6068.755830048538L79.01889906546387,-20.372741832397686L79.28351940733886,20.253708414271347L79.53901490983887,98.8608327096143L79.77626073358886,88.36593652470867L80.01350655733887,54.06158513264041L80.26900205983887,57.033202961141L80.52449756233887,82.60454074212792L80.77086822546386,89.06377264980384L81.01723888858886,121.8894248377549L81.25448471233888,80.25411877355923L81.50085537546387,115.68168386309117L81.73810119921387,115.55033498097173L81.97534702296386,111.55515990043205L82.21259284671387,11.804962704951283L82.46808834921386,106.71103722857904L82.70533417296387,97.03255267336081L82.94257999671386,57.228539234458076L83.18895065983887,-21.121550964040118L83.45357100171387,20.75488272687208L83.70906650421387,97.50721620241453L83.94631232796387,100.07189350346793L84.18355815171387,105.25716175814678L84.42080397546385,97.01038001803059L84.65804979921387,-45.9017828632709L84.92267014108886,70.46236087045818L85.16904080421386,59.83840537110307L85.41541146733886,73.21177013140989L85.65265729108887,41.199155473422095L85.89902795421388,99.09099451222728L86.13627377796386,30.445538141809614L86.39176928046388,61.384948080388426L86.63813994358887,104.09647145303252L86.87538576733887,104.12310274014115L87.11263159108887,-3.8062736974108633L87.36812709358887,96.0417723900708L87.60537291733887,99.92054103012666L87.84261874108887,-20.925009655107253L88.10723908296387,60.771825959082214L88.35360974608888,-9.423547220344963L88.61823008796387,68.16363492980622L88.85547591171387,90.4974035218911L89.09272173546387,107.37465034218621L89.32996755921387,40.97586237381903L89.57633822233886,-26.44443428604044L89.83183372483887,63.70343660513909L90.07820438796386,31.632498223347767L90.33369989046388,32.8799510927978L90.58919539296386,58.31102272810856L90.83556605608888,-39.2392614472138L91.10018639796387,64.43163962775178L91.34655706108887,-12.224290998528694L91.61117740296386,62.29197838838209L91.85754806608887,18.71993908251323L92.11304356858886,6.345187336998953L92.37766391046387,7.623368614651244L92.64228425233887,49.65549290712154L92.89777975483887,2.89372432629685L93.16240009671387,118.99360374948655L93.39964592046387,99.54951056402959L93.63689174421387,-33.01127587420505L93.90151208608887,38.27887216215352L94.15700758858887,118.09946732258167L94.39425341233887,23.087590671888876L94.63149923608887,31.121563122259275L94.87786989921386,35.13987488662181L95.12424056233887,21.705173813472065L95.37973606483887,56.56757719920563L95.62610672796387,70.21713612264803L95.87247739108886,-4.946116886372229L96.13709773296387,41.48101330395182L96.39259323546386,39.833247602941384L96.64808873796386,110.96023381692403L96.88533456171386,79.4689175663204L97.13170522483887,76.91351903950843L97.37807588796386,106.21094744803251L97.61532171171388,112.04741694947602L97.85256753546386,-0.401325061477691L98.11718787733888,32.70112380741683L98.37268337983886,73.93888862196839L98.61905404296387,99.9640428158561L98.85629986671387,68.1119389018895L99.10267052983887,111.15171397627064L99.33991635358886,70.91340570144268L99.57716217733888,-6115.447586060085L102.08649300546388,-4940.416393089615L102.34198850796386,78.95496987619245L102.58835917108887,74.33341728257305L102.83472983421386,-17.10926437775642L103.08110049733887,-1.7597617111405663L103.33659599983886,42.111126427440446L103.58296666296387,4.34109260440394L103.83846216546387,65.99517333921953L104.07570798921387,66.49417858771187L104.31295381296387,97.51890504788753L104.55019963671387,20.84477838380888L104.80569513921387,3.655909353274395L105.06119064171388,38.52313288147107L105.31668614421386,4.402067406562135L105.57218164671386,2.5845121872890418L105.83680198858887,80.4548777071473L106.08317265171387,115.61781697545511L106.32041847546387,77.60316092241632L106.56678913858886,117.07422302068048L106.80403496233886,81.5779709010494L107.05040562546387,83.17910172372933L107.29677628858887,81.80777119297764L107.54314695171388,46.211019102990946L107.79864245421386,84.0332309681905L108.04501311733887,86.43486695042961L108.29138378046386,87.10896387389401L108.53775444358887,49.496789716524L108.79324994608886,32.707028481934124L109.04874544858886,-31.274458041188872L109.31336579046386,62.19268345364224L109.55973645358887,85.33732051158195L109.79698227733887,14.458933145133626L110.05247777983887,36.30237274515974L110.30797328233886,-9.527903304671046L110.57259362421387,36.42793745632346L110.82808912671388,66.03216793262382L111.07445978983887,90.83095738033754L111.32083045296388,74.80121210861682L111.56720111608887,88.82746516555042L111.81357177921387,71.3044397587616L112.05994244233887,7.731339805824663L112.32456278421387,10.965173384317843L112.58005828671386,126.44024184072832L112.81730411046387,101.55360529662462L113.05454993421387,30.797529045177434L113.31004543671388,35.898926820998355L113.56554093921386,122.14995353788541L113.80278676296388,97.34634394770856L114.04915742608887,2.540166876628547L114.31377776796387,99.37429838549592L114.56014843108886,30.541217969702146L114.81564393358887,19.032525321245206L115.07113943608887,63.088506930409224L115.31751009921388,32.37347462348767L115.57300560171387,104.86745324000522L115.81937626483888,100.20854454229679L116.05662208858887,35.91627933386549L116.30299275171387,85.83656676719743L116.54023857546386,45.392679416318295L116.79573407796387,116.87647667613184L117.03297990171386,3.150758423141617L117.29760024358887,79.94346059181251L117.54397090671387,129.61912579514214L117.78121673046387,37.024189079008835L118.03671223296386,63.87310561984016L118.29220773546388,103.1544951121814L118.53857839858887,88.18566319658878L118.78494906171387,80.29484897737242L119.03131972483887,148.5743360312793L119.26856554858887,116.86237775942728L119.51493621171386,77.62183897446083L119.77043171421387,111.4724944571899L120.01680237733886,73.27515500479966L120.27229787983887,106.00524786841974L120.51866854296387,92.59175542210764L120.76503920608887,41.10660873813059L121.02053470858887,25.4629568777041L121.28515505046386,121.9905273259184L121.52240087421387,46.583375108265344L121.76877153733888,83.09896685528031L122.00601736108887,30.7372772643887L122.26151286358888,127.019863971916L122.49875868733886,30.685340229348803L122.75425418983887,-13.483673720574906L123.00974969233887,122.94551805141991L123.24699551608887,74.88737215514473L123.49336617921387,129.31425178435114L123.73061200296387,58.06121884495845L123.98610750546386,55.29252901415435L124.24160300796387,59.79201149989574L124.49709851046387,-12.218265820449814L124.76171885233886,68.76542971632416L125.00808951546387,17.10603488230607L125.27270985733887,24.659439129105483L125.52820535983886,15.051690164533245L125.77457602296386,93.33188829731651L126.02094668608888,88.96423670794084L126.26731734921387,78.35895926063026L126.51368801233887,35.611646330197644L126.76918351483886,41.911572529468145L127.02467901733887,30.261770210403967L127.28017451983887,8.278064464701682L127.54479486171387,21.64335548638281L127.79116552483886,40.71882827697428L128.04666102733887,10.519792220727489L128.30215652983887,71.24515200646547L128.54852719296386,60.92823958200977L128.79489785608888,88.41654802057121L129.03214367983887,66.93666766582437L129.27851434296386,28.96406735577612L129.53400984546386,114.76188017757029L129.77125566921387,46.5022762113237L130.01762633233886,-0.9041864239404687L130.26399699546388,27.77915583478478L130.51949249796385,37.577179923087854L130.77498800046388,102.94011927613505L131.01223382421387,25.674320124711L131.26772932671386,98.56029682704006L131.50497515046388,99.4476850544966L131.74222097421386,67.62739408078646L131.98859163733886,-19.04105697340496L132.25321197921386,61.06681867782388L132.49958264233888,21.389213475015918L132.75507814483888,92.65779137385209L132.99232396858886,-23.986764147667774L133.24781947108886,89.15788593139587L133.48506529483888,20.71608058004413L133.74056079733887,5.9596964435126045L133.99605629983887,19.00348396290502L134.25155180233887,27.952680963456356L134.50704730483886,63.96420631239273L134.75341796796388,96.53957260294737L134.99066379171387,99.06508624648814L135.2279096154639,28.832356962971932L135.48340511796385,97.10883142783936L135.72065094171387,68.74398008236335L135.96702160483886,52.717126896120504L136.20426742858888,54.724475224878105L136.45063809171387,67.9632375069029L136.69700875483886,72.42536388855528L136.94337941796385,69.62221003914001L137.18975008108887,109.67807592173968L137.42699590483886,67.95046412937567L137.67336656796388,104.601140368919L137.91061239171387,36.60736725951234L138.15698305483886,55.69766198817781L138.40335371796385,61.03380070195165L138.64972438108887,39.385456368119485L138.89609504421387,60.442369221729386L139.13334086796388,97.8839103359057L139.37058669171387,75.86851215350853L139.60783251546388,-17.843854089132755L139.87245285733889,-23.62103583828015L140.13707319921386,100.3385678852389L140.37431902296385,62.92570661871805L140.61156484671386,70.43717562608849L140.84881067046388,-5.317267856030858L141.10430617296385,105.39441531478353L141.3415519967139,67.55581496520945L141.58792265983885,67.6336602659885L141.83429332296387,98.2638580655595L142.07153914671386,103.87872151726201L142.30878497046388,56.83208251686818L142.55515563358887,34.294421898594244L142.80152629671386,31.23314942028001L143.04789695983888,55.43918184859413L143.29426762296387,60.667831385440856L143.54063828608886,54.318257718800446L143.78700894921386,17.04156547686212L144.04250445171385,56.361516108908134L144.28887511483887,62.60842074108455L144.53524577796387,-21.455466333171298L144.79986611983887,-6.779699079335107L145.04623678296386,81.7667999820413L145.28348260671387,38.27923367283825L145.52072843046386,18.749703462222858L145.76709909358888,66.5764825202693L146.00434491733887,25.674922642518876L146.25071558046386,82.21856783439526L146.48796140421388,51.431835908335124L146.73433206733887,61.40097505407823L146.9807027304639,62.59805743478888L147.22707339358885,28.922734634155045L147.48256889608885,31.15530411950097L147.73806439858888,32.27948184545724L147.99355990108887,69.87659305763007L148.23993056421386,-9.571887104646832L148.50455090608887,68.19894247334844L148.75092156921386,67.92226629596655L148.99729223233888,-7.161454362412537L149.26191257421388,64.04289513810284L149.50828323733884,64.26859830893746L149.75465390046386,102.15395404040359L149.99189972421385,24.646424744455118L150.24739522671388,100.4102675043775L150.48464105046386,103.46840689009073L150.72188687421385,27.133256744729515L150.97738237671385,105.96331262899079L151.21462820046386,66.63058861941757L151.46099886358886,27.291839431765474L151.71649436608888,27.82892380571628L151.97198986858888,62.11399462793216L152.21836053171387,63.32360937904687L152.46473119483886,-11.361606001195508L152.72935153671386,66.07000605095914L152.97572219983888,27.119278331586525L153.23121770233885,64.64348488900498L153.47758836546387,102.82491787126699L153.71483418921386,101.5520387503241L153.95208001296385,31.239656612605202L154.20757551546387,26.986121896043418L154.46307101796387,21.980765458799745L154.71856652046387,23.876286482413462L154.97406202296386,104.66440473874718L155.21130784671388,-11.675035764858547L155.47592818858885,103.2966893148428L155.71317401233887,70.01975128878412L155.95954467546386,65.7604324012666L156.20591533858885,107.77773475566286L156.44316116233887,-3.5504446361818682L156.70778150421387,103.67458848394976L156.94502732796386,102.69344848558596L157.18227315171387,67.03801116111102L157.42864381483886,65.7224737793697L157.67501447796386,-11.437282237866192L157.93963481983886,-16.567239357780945L158.2042551617139,60.48550949677413L158.45062582483885,-14.940441276485025L158.97986650858888,-13.558506432314507L159.24448685046386,24.378545327068384L159.49998235296388,24.857064970092555L159.75547785546388,69.51219028741978L160.00184851858887,-5.187606023773465L160.26646886046385,65.04849735946686L160.51283952358887,70.68541296293809L160.75921018671386,27.611655884192103L161.01470568921386,104.748877735413L161.25195151296387,-4.911050349953161L161.51657185483887,106.38423156958092L161.75381767858886,33.07649240173067L162.00931318108888,65.29649368919331L162.25568384421385,67.31577187054711L162.50205450733887,102.72634595789661L162.73930033108886,27.6614238551236L162.99479583358888,28.101743869127702L163.25029133608888,100.77226020335624L163.48753715983887,-11.590201257507982L163.75215750171387,66.54924871535277L163.9985281648389,102.04513932429913L164.23577398858887,32.46337028042447L164.49126949108887,-7.175071264870798L164.75588983296387,65.18828149089676L165.0022604960889,67.08283848601785L165.24863115921386,69.63160931694306L165.49500182233888,68.07747488327834L165.74137248546387,68.34294422943351L165.9877431485889,106.032843184021L166.22498897233888,104.25999478609315L166.46223479608886,28.821993656676277L166.71773029858886,69.90876750857126L166.96410096171385,28.77331021779897L167.21959646421385,69.32986839875305L167.46596712733887,68.79941172068901L167.71233779046386,66.2649808135915L167.95870845358888,103.57047340674686L168.19595427733887,105.39031819368988L168.43320010108886,107.8305153156338L168.67044592483884,70.78555142260898L168.91681658796387,27.957621609481027L169.17231209046386,30.95406317166658L169.4278075929639,67.00041404989884L169.67417825608885,106.42411824846309L169.91142407983887,-5.7145680985517995L170.17604442171387,107.10038423603586L170.41329024546388,-9.97473051100032L170.67791058733886,67.8449030094338L170.92428125046388,110.62607744066968L171.16152707421386,106.86130516986616L171.39877289796388,-1.8186879527519468L171.66339323983885,69.68294383417506L171.90976390296387,106.99169002349299L172.14700972671386,65.84056726971562L172.39338038983885,69.60124241942553L172.63975105296387,108.62656184341463L172.87699687671386,28.79837495860709L173.13249237921386,69.24262382017096L173.37886304233885,108.41134248243725L173.6161088660889,27.080837695443307L173.87160436858886,31.633221244717227L174.12709987108886,103.81762621154226L174.36434569483887,-9.06541063533668L174.62896603671388,-8.70257441142693L174.89358637858888,66.00806722030832L175.13995704171387,101.10593456536428L175.3772028654639,68.39415824310394L175.62357352858885,105.15051610615072L175.86081935233886,62.56347291261614L176.10719001546386,64.59335540738876L176.35356067858885,32.08004845104652L176.60905618108885,105.65048538313567L176.84630200483886,70.339206230526L177.09267266796385,66.43211925349947L177.33904333108887,31.758062934511493L177.59453883358884,68.7978451743885L177.84090949671386,32.81222809119127L178.09640499921386,32.64858425456906L178.35190050171389,30.299849335862454L178.60739600421388,106.54691137771052L178.84464182796387,104.47292457940057L179.08188765171386,67.28311540535961L179.32825831483885,23.277504284934984L179.58375381733885,29.566103149417202L179.83924931983887,66.7438619673004L180.08561998296386,29.7351696463104L180.3411154854639,65.63619322928024L180.58748614858885,63.70440063363169L180.83385681171387,-6.131871932294591L181.09847715358887,62.3224657894612L181.34484781671387,29.796626462714908L181.60034331921386,32.40094943552734L181.85583882171386,29.523203881495608L182.11133432421386,-4.1741710709069055L182.37595466608886,36.362383518825325L182.63145016858886,71.31432105081095L182.87782083171388,108.73067692061754L183.11506665546386,69.54436473836097L183.36143731858886,108.98301137856079L183.59868314233887,33.77517205175689L183.85417864483884,113.06314147001258L184.09142446858888,111.45779302267742L184.32867029233887,114.68584243021489L184.56591611608886,74.43994243100754L184.81228677921388,42.41491590617726L185.06778228171385,75.68715429333443L185.31415294483887,76.22460017796998L185.56052360796386,7.766888356490024L185.8251439498389,81.17946562291267L186.07151461296385,81.52892595148737L186.31788527608887,47.715747076408896L186.57338077858887,83.7635439973801L186.81975144171386,119.82688587779481L187.05699726546385,84.78637822804971L187.30336792858887,84.49837471587955L187.54973859171386,83.51928327806255L187.79610925483888,84.04588384215613L188.04247991796385,83.2285081839761L188.28885058108887,83.8780223808787L188.53522124421386,83.3151502447503L188.78159190733888,46.32610000429743L189.03708740983888,83.14548123004923L189.28345807296387,11.054105012762019L189.54807841483887,85.70051824617647L189.79444907796386,56.15545501861066L190.04081974108888,9.275592947440039L190.30544008296388,11.754833223335055L190.57006042483886,83.85862130746473L190.81643108796388,82.87880684827826L191.06280175108887,122.48603797112499L191.30004757483886,122.47832574318402L191.53729339858887,47.26349720980862L191.79278890108884,89.41166643207802L192.03915956421386,53.30940190127381L192.2946550667139,89.89717528167367L192.54102572983885,129.40065283800217L192.7782715535889,92.89132727618926L193.02464221671386,93.46769581121433L193.27101287983888,130.32443314105512L193.50825870358887,129.23001979480847L193.74550452733888,55.3377178497459L194.00100002983888,90.49089632956591L194.24737069296387,92.20180589684291L194.49374135608886,130.69088447181224L194.73098717983888,93.99393486462318L194.97735784296387,52.016398685547465L195.23285334546387,130.92695094894253L195.47009916921388,54.02531356060559L195.72559467171385,56.853893661513716L195.98109017421385,60.06929019508553L196.23658567671387,133.97328098562113L196.47383150046386,131.43041482921322L196.71107732421387,98.26578612254472L196.95744798733887,65.35770949847468L197.21294348983886,102.36881189069622L197.45931415296388,141.1192626907271L197.69655997671387,62.81701240617515L197.95205547921387,28.45915743276649L198.21667582108887,28.83524904844979L198.48129616296387,64.2383519149815L198.73679166546387,102.6263280017873L198.98316232858886,141.04418897186434L199.22040815233888,139.5174088466777L199.45765397608886,104.40279150656247L199.70402463921386,136.5404888614677L199.94127046296384,139.21795749615768L200.1785162867139,138.40805305879545L200.41576211046387,31.981838048360878L200.68038245233888,69.0519871857554L200.93587795483887,67.4404930567798L201.19137345733887,70.52008207645379L201.44686895983887,108.61282443739478L201.69323962296386,112.24263271923155L201.93961028608888,69.82610206532911L202.19510578858888,34.313461461323485L202.45972613046388,141.7238290591613L202.69697195421386,105.22161320748141L202.94334261733889,141.02526991269667L203.18058844108887,144.16004956357315L203.41783426483886,145.6128405019512L203.65508008858887,109.83388702685936L203.90145075171387,142.7800427763879L204.13869657546388,70.33522961299396L204.39419207796388,144.40455129001384L204.63143790171387,142.39889001111834L204.86868372546385,146.33019820402194L205.10592954921387,39.85987889005001L205.37054989108884,77.22779232810247L205.62604539358887,77.2982869116253L205.88154089608886,78.29906899052625L206.13703639858886,108.43279211639803L206.38340706171388,40.67809807316108L206.64802740358888,145.87445373413593L206.88527322733887,110.75863135840491L207.1316438904639,108.69440534858272L207.37801455358886,106.51907505498612L207.62438521671388,107.77074554909136L207.87075587983887,145.25108881009564L208.10800170358885,71.20369878128284L208.36349720608885,103.60843202864376L208.60986786921387,101.8248588137355L208.85623853233886,27.024803539309783L209.12085887421387,67.73596778976776L209.37635437671386,67.31408482068503L209.63184987921386,66.07289813643702L209.88734538171386,136.0942641729463L210.12459120546387,136.72365427506548L210.36183702921386,62.35741182231866L210.61733253171386,141.10926089511617L210.85457835546384,100.5477620681374L211.10094901858886,95.83860338525119L211.34731968171388,63.076336070689884L211.60281518421385,97.00086023666594L211.84918584733887,101.94668791449035L212.09555651046387,136.24236305012502L212.33280233421388,59.991083383621735L212.58829783671388,135.51440103463548L212.82554366046386,61.033559694828504L213.0810391629639,26.504830671102972L213.34565950483886,136.07353756035496L213.58290532858888,99.25210777405637L213.82927599171384,134.82018001638764L214.0665218154639,24.96563867907385L214.33114215733886,61.702113454460346L214.58663765983889,98.35544077235836L214.83300832296385,60.628185713681866L215.08850382546387,134.4709606949361L215.32574964921386,132.93213021359173L215.56299547296388,97.26199145460433L215.80936613608887,97.9116261550685L216.0557367992139,96.45401507422734L216.30210746233885,99.60578572728627L216.54847812546387,64.08832498081755L216.80397362796387,25.04938865437021L217.06859396983887,97.43286550492121L217.31496463296386,98.42533283807329L217.56133529608888,101.22752265899594L217.80770595921385,99.43455016628468L218.05407662233887,65.55907094987064L218.30957212483887,142.10570484580032L218.54681794858888,137.79167734132665L218.78406377233887,136.8830804870325L219.02130959608886,67.7876638176845L219.27680509858885,59.22588576760477L219.53230060108888,68.57732365670172L219.78779610358887,67.02523778358382L220.04329160608887,100.01718488651177L220.28966226921386,136.145116675932L220.52690809296385,96.91952033260114L220.77327875608887,138.86765364265193L221.01052457983886,29.371007883223257L221.27514492171386,102.58150067688048L221.52151558483888,104.68163674805275L221.76788624796384,65.89395034749445L222.02338175046387,67.45073585951388L222.27887725296387,107.77411964881553L222.5252479160889,106.7910515934665L222.77161857921385,105.8413630246744L223.01798924233887,102.50052228350042L223.26435990546386,66.99619642524362L223.51985540796386,137.55103172885643L223.75710123171385,30.300692860793497L224.02172157358888,140.99333646887862L224.25896739733886,104.95084170461682L224.50533806046386,103.82136182195113L224.75170872358888,140.93971238397666L224.98895454733886,107.17160184092816L225.23532521046388,35.06793426036007L225.4999455523389,141.17565835754536L225.73719137608887,69.96564518963582L225.99268687858887,140.96971777080944L226.22993270233886,68.80206279904371L226.48542820483888,107.39766652244751L226.73179886796385,67.90286522255258L226.98729437046387,104.05513873141145L227.23366503358886,70.18520267882998L227.4891605360889,108.18298823324793L227.73553119921385,140.72352899450667L227.97277702296387,67.87261882859661L228.22827252546386,67.38084379379893L228.48376802796386,101.09725830893072L228.73013869108888,100.21758230941512L228.97650935421387,101.73701171734551L229.22288001733887,132.0478750787362L229.46012584108888,104.36832748795132L229.70649650421385,141.02852350885925L229.9437423279639,70.79001005438734L230.19923783046386,143.9019309346742L230.43648365421387,68.85797645161566L230.69197915671387,70.339206230526L230.94747465921387,105.10400173138183L231.19384532233886,142.52626227570573L231.43109114608887,148.40153392397718L231.66833696983886,72.50055811097964L231.92383247233886,109.73459209211951L232.17020313546388,147.63573379015233L232.40744895921387,110.55980048180209L232.65381962233886,147.62766005152662L232.89106544608887,146.09943388360108L233.1283112698389,111.34054305726254L233.37468193296385,74.4263255285493L233.63017743546385,78.47825778659197L233.88567293796388,79.2655075543776L234.14116844046387,76.22026204975319L234.39666394296387,150.85125082728572L234.63390976671386,41.79347903912222L234.89853010858886,110.42085987530326L235.14490077171388,41.60440895100715L235.40952111358888,75.6905283930586L235.66501661608888,78.388121122532L235.92051211858887,116.03909742672995L236.16688278171387,113.44983739911473L236.4132534448389,77.12066466186009L236.66874894733888,77.79934072066445L236.92424444983885,44.01291363625617L237.18886479171388,116.48267103689666L237.43523545483885,150.01796869897746L237.67248127858886,117.08663488752298L237.91885194171388,77.01558555616455L238.17434744421388,76.23496348426563L238.42984294671388,114.0207832738688L238.67621360983887,76.17169911443746L238.93170911233886,114.75778305647664L239.17807977546389,41.21940007176711L239.44270011733886,148.53926949486024L239.67994594108887,115.41970912022173L239.92631660421387,112.03717414674195L240.17268726733886,36.76799850709511L240.43730760921386,78.32798984530484L240.69280311171386,81.86476937760379L240.94829861421385,40.58109270609121L241.21291895608886,119.4217529037713L241.45928961921388,85.29068563325147L241.71478512171387,87.11848365525864L241.97028062421387,124.2852766490383L242.21665128733886,90.60682075580344L242.47214678983886,88.8356594077377L242.72764229233886,125.9126772481421L242.97401295546385,84.25676507491671L243.22950845796385,126.29889116299792L243.47587912108887,153.805275135796L243.71312494483885,100.66103541602024L243.95949560796387,123.20797480853564L244.1967414317139,129.2197769920744L244.43398725546388,154.04724628744356L244.67123307921386,74.70360422373906L244.91760374233888,78.25966432589041L245.17309924483885,121.14013369186614L245.41946990796387,-16.693888600998882" fill="none"></path></g></g></g></g></g></g><g transform="translate(51, 176)" clip-path="url(#clip_1)"><clipPath id="clip_1"><rect width="278" height="23"></rect></clipPath><g><g><line x1="0" y1="0" x2="0" y2="5" style="visibility: inherit;" fill="rgb(0, 0, 0)" stroke="rgb(204, 204, 204)" stroke-width="1px"></line><line x1="27.846799850463867" y1="0" x2="27.846799850463867" y2="5" style="visibility: inherit;" fill="rgb(0, 0, 0)" stroke="rgb(204, 204, 204)" stroke-width="1px"></line><line x1="55.693599700927734" y1="0" x2="55.693599700927734" y2="5" style="visibility: inherit;" fill="rgb(0, 0, 0)" stroke="rgb(204, 204, 204)" stroke-width="1px"></line><line x1="83.5403995513916" y1="0" x2="83.5403995513916" y2="5" style="visibility: inherit;" fill="rgb(0, 0, 0)" stroke="rgb(204, 204, 204)" stroke-width="1px"></line><line x1="111.38719940185547" y1="0" x2="111.38719940185547" y2="5" style="visibility: inherit;" fill="rgb(0, 0, 0)" stroke="rgb(204, 204, 204)" stroke-width="1px"></line><line x1="139.23399925231934" y1="0" x2="139.23399925231934" y2="5" style="visibility: inherit;" fill="rgb(0, 0, 0)" stroke="rgb(204, 204, 204)" stroke-width="1px"></line><line x1="167.0807991027832" y1="0" x2="167.0807991027832" y2="5" style="visibility: inherit;" fill="rgb(0, 0, 0)" stroke="rgb(204, 204, 204)" stroke-width="1px"></line><line x1="194.92759895324707" y1="0" x2="194.92759895324707" y2="5" style="visibility: inherit;" fill="rgb(0, 0, 0)" stroke="rgb(204, 204, 204)" stroke-width="1px"></line><line x1="222.77439880371094" y1="0" x2="222.77439880371094" y2="5" style="visibility: inherit;" fill="rgb(0, 0, 0)" stroke="rgb(204, 204, 204)" stroke-width="1px"></line><line x1="250.6211986541748" y1="0" x2="250.6211986541748" y2="5" style="visibility: inherit;" fill="rgb(0, 0, 0)" stroke="rgb(204, 204, 204)" stroke-width="1px"></line><line x1="278.4679985046387" y1="0" x2="278.4679985046387" y2="5" style="visibility: inherit;" fill="rgb(0, 0, 0)" stroke="rgb(204, 204, 204)" stroke-width="1px"></line></g><g transform="translate(0, 8)"><text style="text-anchor: middle; visibility: hidden; font-family: Roboto, sans-serif; font-size: 12px; font-weight: 200;" x="0" y="0" dx="0em" dy="0.95em" fill="rgb(33, 33, 33)" stroke="none" stroke-width="1px">-50M</text><text style="text-anchor: middle; visibility: inherit; font-family: Roboto, sans-serif; font-size: 12px; font-weight: 200;" x="27.846799850463867" y="0" dx="0em" dy="0.95em" fill="rgb(33, 33, 33)" stroke="none" stroke-width="1px">0</text><text style="text-anchor: middle; visibility: hidden; font-family: Roboto, sans-serif; font-size: 12px; font-weight: 200;" x="55.693599700927734" y="0" dx="0em" dy="0.95em" fill="rgb(33, 33, 33)" stroke="none" stroke-width="1px">50M</text><text style="text-anchor: middle; visibility: inherit; font-family: Roboto, sans-serif; font-size: 12px; font-weight: 200;" x="83.5403995513916" y="0" dx="0em" dy="0.95em" fill="rgb(33, 33, 33)" stroke="none" stroke-width="1px">100M</text><text style="text-anchor: middle; visibility: hidden; font-family: Roboto, sans-serif; font-size: 12px; font-weight: 200;" x="111.38719940185547" y="0" dx="0em" dy="0.95em" fill="rgb(33, 33, 33)" stroke="none" stroke-width="1px">150M</text><text style="text-anchor: middle; visibility: inherit; font-family: Roboto, sans-serif; font-size: 12px; font-weight: 200;" x="139.23399925231934" y="0" dx="0em" dy="0.95em" fill="rgb(33, 33, 33)" stroke="none" stroke-width="1px">200M</text><text style="text-anchor: middle; visibility: hidden; font-family: Roboto, sans-serif; font-size: 12px; font-weight: 200;" x="167.0807991027832" y="0" dx="0em" dy="0.95em" fill="rgb(33, 33, 33)" stroke="none" stroke-width="1px">250M</text><text style="text-anchor: middle; visibility: inherit; font-family: Roboto, sans-serif; font-size: 12px; font-weight: 200;" x="194.92759895324707" y="0" dx="0em" dy="0.95em" fill="rgb(33, 33, 33)" stroke="none" stroke-width="1px">300M</text><text style="text-anchor: middle; visibility: hidden; font-family: Roboto, sans-serif; font-size: 12px; font-weight: 200;" x="222.77439880371094" y="0" dx="0em" dy="0.95em" fill="rgb(33, 33, 33)" stroke="none" stroke-width="1px">350M</text><text style="text-anchor: middle; visibility: inherit; font-family: Roboto, sans-serif; font-size: 12px; font-weight: 200;" x="250.6211986541748" y="0" dx="0em" dy="0.95em" fill="rgb(33, 33, 33)" stroke="none" stroke-width="1px">400M</text><text style="text-anchor: middle; visibility: hidden; font-family: Roboto, sans-serif; font-size: 12px; font-weight: 200;" x="278.4679985046387" y="0" dx="0em" dy="0.95em" fill="rgb(33, 33, 33)" stroke="none" stroke-width="1px">450M</text></g><line x1="0" y1="0" x2="278.4679985046387" y2="0" fill="rgb(0, 0, 0)" stroke="rgb(204, 204, 204)" stroke-width="1px"></line></g></g></g></g></svg>