<svg viewBox="0 0 330 200" xmlns="http://www.w3.org/2000/svg"><g><g><g><g><g><line x1="51.53200149536133" y1="176.89999961853027" x2="46.53200149536133" y2="176.89999961853027" style="visibility: inherit;" fill="rgb(0, 0, 0)" stroke="rgb(204, 204, 204)" stroke-width="1px"></line><line x1="51.53200149536133" y1="154.78749966621396" x2="46.53200149536133" y2="154.78749966621396" style="visibility: inherit;" fill="rgb(0, 0, 0)" stroke="rgb(204, 204, 204)" stroke-width="1px"></line><line x1="51.53200149536133" y1="132.67499971389768" x2="46.53200149536133" y2="132.67499971389768" style="visibility: inherit;" fill="rgb(0, 0, 0)" stroke="rgb(204, 204, 204)" stroke-width="1px"></line><line x1="51.53200149536133" y1="110.56249976158146" x2="46.53200149536133" y2="110.56249976158146" style="visibility: inherit;" fill="rgb(0, 0, 0)" stroke="rgb(204, 204, 204)" stroke-width="1px"></line><line x1="51.53200149536133" y1="88.44999980926504" x2="46.53200149536133" y2="88.44999980926504" style="visibility: inherit;" fill="rgb(0, 0, 0)" stroke="rgb(204, 204, 204)" stroke-width="1px"></line><line x1="51.53200149536133" y1="66.33749985694884" x2="46.53200149536133" y2="66.33749985694884" style="visibility: inherit;" fill="rgb(0, 0, 0)" stroke="rgb(204, 204, 204)" stroke-width="1px"></line><line x1="51.53200149536133" y1="44.22499990463241" x2="46.53200149536133" y2="44.22499990463241" style="visibility: inherit;" fill="rgb(0, 0, 0)" stroke="rgb(204, 204, 204)" stroke-width="1px"></line><line x1="51.53200149536133" y1="22.112499952316206" x2="46.53200149536133" y2="22.112499952316206" style="visibility: inherit;" fill="rgb(0, 0, 0)" stroke="rgb(204, 204, 204)" stroke-width="1px"></line><line x1="51.53200149536133" y1="0" x2="46.53200149536133" y2="0" style="visibility: inherit;" fill="rgb(0, 0, 0)" stroke="rgb(204, 204, 204)" stroke-width="1px"></line></g><g transform="translate(41.53200149536133, 0)"><text style="text-anchor: end; visibility: hidden; font-family: Roboto, sans-serif; font-size: 12px; font-weight: 200;" x="0" y="176.89999961853027" dx="0em" dy="0.3em" fill="rgb(33, 33, 33)" stroke="none" stroke-width="1px">1.9</text><text style="text-anchor: end; visibility: inherit; font-family: Roboto, sans-serif; font-size: 12px; font-weight: 200;" x="0" y="154.78749966621396" dx="0em" dy="0.3em" fill="rgb(33, 33, 33)" stroke="none" stroke-width="1px">1.95</text><text style="text-anchor: end; visibility: hidden; font-family: Roboto, sans-serif; font-size: 12px; font-weight: 200;" x="0" y="132.67499971389768" dx="0em" dy="0.3em" fill="rgb(33, 33, 33)" stroke="none" stroke-width="1px">2</text><text style="text-anchor: end; visibility: inherit; font-family: Roboto, sans-serif; font-size: 12px; font-weight: 200;" x="0" y="110.56249976158146" dx="0em" dy="0.3em" fill="rgb(33, 33, 33)" stroke="none" stroke-width="1px">2.05</text><text style="text-anchor: end; visibility: hidden; font-family: Roboto, sans-serif; font-size: 12px; font-weight: 200;" x="0" y="88.44999980926504" dx="0em" dy="0.3em" fill="rgb(33, 33, 33)" stroke="none" stroke-width="1px">2.1</text><text style="text-anchor: end; visibility: inherit; font-family: Roboto, sans-serif; font-size: 12px; font-weight: 200;" x="0" y="66.33749985694884" dx="0em" dy="0.3em" fill="rgb(33, 33, 33)" stroke="none" stroke-width="1px">2.15</text><text style="text-anchor: end; visibility: hidden; font-family: Roboto, sans-serif; font-size: 12px; font-weight: 200;" x="0" y="44.22499990463241" dx="0em" dy="0.3em" fill="rgb(33, 33, 33)" stroke="none" stroke-width="1px">2.2</text><text style="text-anchor: end; visibility: inherit; font-family: Roboto, sans-serif; font-size: 12px; font-weight: 200;" x="0" y="22.112499952316206" dx="0em" dy="0.3em" fill="rgb(33, 33, 33)" stroke="none" stroke-width="1px">2.25</text><text style="text-anchor: end; visibility: hidden; font-family: Roboto, sans-serif; font-size: 12px; font-weight: 200;" x="0" y="0" dx="0em" dy="0.3em" fill="rgb(33, 33, 33)" stroke="none" stroke-width="1px">2.3</text></g><line x1="51.53200149536133" y1="0" x2="51.53200149536133" y2="176.89999961853027" fill="rgb(0, 0, 0)" stroke="rgb(204, 204, 204)" stroke-width="1px"></line></g></g><g transform="translate(51, 0)" clip-path="url(#clip_0)"><clipPath id="clip_0"><rect width="278" height="176"></rect></clipPath><g><g><g><line x1="0" y1="0" x2="0" y2="176.89999961853027" fill="rgb(0, 0, 0)" stroke="rgb(66, 66, 66)" stroke-width="1px" opacity="0.25"></line><line x1="27.846799850463867" y1="0" x2="27.846799850463867" y2="176.89999961853027" fill="rgb(0, 0, 0)" stroke="rgb(66, 66, 66)" stroke-width="1px" opacity="0.25"></line><line x1="55.693599700927734" y1="0" x2="55.693599700927734" y2="176.89999961853027" fill="rgb(0, 0, 0)" stroke="rgb(66, 66, 66)" stroke-width="1px" opacity="0.25"></line><line x1="83.5403995513916" y1="0" x2="83.5403995513916" y2="176.89999961853027" fill="rgb(0, 0, 0)" stroke="rgb(66, 66, 66)" stroke-width="1px" opacity="0.25"></line><line x1="111.38719940185547" y1="0" x2="111.38719940185547" y2="176.89999961853027" fill="rgb(0, 0, 0)" stroke="rgb(66, 66, 66)" stroke-width="1px" opacity="0.25"></line><line x1="139.23399925231934" y1="0" x2="139.23399925231934" y2="176.89999961853027" fill="rgb(0, 0, 0)" stroke="rgb(66, 66, 66)" stroke-width="1px" opacity="0.25"></line><line x1="167.0807991027832" y1="0" x2="167.0807991027832" y2="176.89999961853027" fill="rgb(0, 0, 0)" stroke="rgb(66, 66, 66)" stroke-width="1px" opacity="0.25"></line><line x1="194.92759895324707" y1="0" x2="194.92759895324707" y2="176.89999961853027" fill="rgb(0, 0, 0)" stroke="rgb(66, 66, 66)" stroke-width="1px" opacity="0.25"></line><line x1="222.77439880371094" y1="0" x2="222.77439880371094" y2="176.89999961853027" fill="rgb(0, 0, 0)" stroke="rgb(66, 66, 66)" stroke-width="1px" opacity="0.25"></line><line x1="250.6211986541748" y1="0" x2="250.6211986541748" y2="176.89999961853027" fill="rgb(0, 0, 0)" stroke="rgb(66, 66, 66)" stroke-width="1px" opacity="0.25"></line><line x1="278.4679985046387" y1="0" x2="278.4679985046387" y2="176.89999961853027" fill="rgb(0, 0, 0)" stroke="rgb(66, 66, 66)" stroke-width="1px" opacity="0.25"></line></g><g><line x1="0" y1="176.89999961853027" x2="278.4679985046387" y2="176.89999961853027" fill="rgb(0, 0, 0)" stroke="rgb(66, 66, 66)" stroke-width="1px" opacity="0.25"></line><line x1="0" y1="154.78749966621396" x2="278.4679985046387" y2="154.78749966621396" fill="rgb(0, 0, 0)" stroke="rgb(66, 66, 66)" stroke-width="1px" opacity="0.25"></line><line x1="0" y1="132.67499971389768" x2="278.4679985046387" y2="132.67499971389768" fill="rgb(0, 0, 0)" stroke="rgb(66, 66, 66)" stroke-width="1px" opacity="0.25"></line><line x1="0" y1="110.56249976158146" x2="278.4679985046387" y2="110.56249976158146" fill="rgb(0, 0, 0)" stroke="rgb(66, 66, 66)" stroke-width="1px" opacity="0.25"></line><line x1="0" y1="88.44999980926504" x2="278.4679985046387" y2="88.44999980926504" fill="rgb(0, 0, 0)" stroke="rgb(66, 66, 66)" stroke-width="1px" opacity="0.25"></line><line x1="0" y1="66.33749985694884" x2="278.4679985046387" y2="66.33749985694884" fill="rgb(0, 0, 0)" stroke="rgb(66, 66, 66)" stroke-width="1px" opacity="0.25"></line><line x1="0" y1="44.22499990463241" x2="278.4679985046387" y2="44.22499990463241" fill="rgb(0, 0, 0)" stroke="rgb(66, 66, 66)" stroke-width="1px" opacity="0.25"></line><line x1="0" y1="22.112499952316206" x2="278.4679985046387" y2="22.112499952316206" fill="rgb(0, 0, 0)" stroke="rgb(66, 66, 66)" stroke-width="1px" opacity="0.25"></line><line x1="0" y1="0" x2="278.4679985046387" y2="0" fill="rgb(0, 0, 0)" stroke="rgb(66, 66, 66)" stroke-width="1px" opacity="0.25"></line></g></g></g><g><g><line x1="0" y1="1017.1749978065492" x2="278.4679985046387" y2="1017.1749978065492" fill="rgb(0, 0, 0)" stroke="rgb(153, 153, 153)" stroke-width="1.5px"></line></g></g><g><g><line x1="27.846799850463867" y1="0" x2="27.846799850463867" y2="176.89999961853027" fill="rgb(0, 0, 0)" stroke="rgb(153, 153, 153)" stroke-width="1.5px"></line></g></g><g><g><g><g><g><path style="fill: none;" stroke="rgb(187, 187, 187)" stroke-width="2px" d="M28.841407342338865,-51.54453386216473L29.087778005463864,63.481551160415755L29.32502382921387,131.36943336038573L29.562269652963867,183.5640936509023L32.56434180733887,187.44316473557802L32.801587631088864,161.82302565390876L33.05708313358887,183.31905650817686L33.29432895733887,162.53014414131047L33.531574781088864,163.8701941079592L33.768820604838865,179.56408008671684L34.006066428588866,178.45713859532913L34.24331225233887,174.55273927500838L34.48055807608887,175.40714804476207L34.71780389983887,158.14511342718637L34.955049723588864,165.7553191405425L35.192295547338865,162.3597460215984L35.429541371088874,174.1846813772592L35.66678719483887,173.17922951249054L35.90403301858887,171.2529738846055L36.14127884233887,168.2224441754789L36.378524666088865,177.06801084782057L38.51373707983887,185.42350151170248L38.75098290358886,173.21590797116932L38.988228727338864,174.29973488902098L39.22547455108887,174.23122126970205L39.46272037483887,173.16215144088312L39.69996619858887,155.55345861302652L39.94633686171387,144.9292805237236L40.192707524838866,151.6818773520801L40.42995334858887,155.4729127741284L40.66719917233887,142.59803714704975L40.91356983546387,148.51569353804672L41.15081565921386,150.12824666732553L41.38806148296386,138.07854398529068L41.63443214608886,132.171285115453L41.88080280921386,116.23263839552565L42.136298311713865,119.79828327154652L42.382668974838865,108.92389408977698L42.63816447733887,129.40686223661086L42.87541030108886,132.05810550015522L43.12178096421386,143.4585824675924L43.35902678796387,115.17259258835684L43.60539745108887,122.62311205057206L43.85176811421387,125.09216082900349L44.09813877733887,113.10304523852129L44.35363427983887,132.2843651368586L44.59088010358887,144.4776775574018L44.82812592733887,124.68766617062694L45.08362142983887,124.21761029129577L45.32999209296387,138.3348003940693L45.56723791671387,147.06825205797213L45.804483740463866,153.0038093619582L46.04172956421387,144.33474924042721L46.288100227338866,153.6004405548296L46.52534605108887,143.44034649103156L46.771716714213866,137.88773098957682L47.018087377338865,121.68224201488913L47.27358287983886,139.3183001822159L47.510828703588864,149.8675437252599L47.748074527338865,118.71577653641135L48.01269486921387,113.14907844894341L48.268190371713864,121.36062741212896L48.51456103483886,138.8295915797364L48.751806858588864,148.5047711274571L48.989052682338865,129.74373358435716L49.24454818483886,102.47726092479289L49.509168526713864,112.4428203732152L49.75553918983886,120.1307579663413L50.00190985296386,135.67180776633603L50.239155676713864,119.22325037452548L50.49465117921387,110.88157088457069L50.750146681713865,131.11689576346564L50.987392505463866,142.30718503603865L51.22463832921387,136.73959342735935L51.47100899233887,134.06883943364602L51.717379655463866,145.42900335773172L51.95462547921387,153.60469519603728L52.19187130296387,145.14108366693063L52.43824196608887,120.46669384269626L52.684612629213866,110.5289879190372L52.94010813171387,121.75837251315512L53.17735395546387,125.28845754309094L53.42372461858887,143.8785260044748L53.660970442338865,155.4016514148827L53.898216266088866,147.6513096736684L54.144586929213865,144.2992473215675L54.390957592338864,155.2240130190464L54.628203416088866,146.33591323373642L54.874574079213865,142.71422803766285L55.120944742338864,125.98598335365045L55.37644024483887,132.2775703958952L55.62281090796387,148.04500091836394L55.86005673171387,142.96393294560633L56.10642739483887,141.51575418986494L56.35279805796387,115.20723159859352L56.61741839983887,124.70369898582636L56.86378906296387,126.08222565627082L57.11015972608887,145.07591633593074L57.34740554983887,154.56770450691255L57.58465137358886,149.53351987286194L57.83102203671386,144.74384207830997L58.07739269983886,144.2633265121787L58.31463852358887,121.9631497444569L58.57013402608887,141.94960020862774L58.80737984983887,140.1534650217915L59.053750512963866,139.43095008190505L59.30012117608887,125.8303543543747L59.55561667858887,117.17067233492594L59.81111218108887,112.50113832773391L60.06660768358886,128.60074499199652L60.30385350733887,132.98539930554128L60.55022417046387,148.4661976356878L60.78746999421387,140.71526214548766L61.03384065733887,95.41865070040812L61.29846099921387,95.37025919428366L61.55395650171386,112.32686406454309L61.80032716483886,123.84460437809577L62.04669782796386,119.05678088381995L62.302193330463865,114.87405039309913L62.55768883296386,138.58424582146097L62.79493465671386,137.98343013182102L63.04130531983886,137.23728111956459L63.28767598296386,137.89545289680723L63.53404664608886,112.66339373814174L63.79866698796386,120.75690147992937L64.04503765108886,127.66475399102275L64.29140831421387,118.44710271254395L64.54690381671386,140.4045432258265L64.78414964046387,153.1371269986696L65.02139546421387,159.04483622645242L65.25864128796387,164.160948709654L65.49588711171387,166.86402026454394L65.73313293546387,140.40175502458706L65.98862843796387,152.70124961967184L66.22587426171387,155.57099815665836L66.46312008546387,144.10150917348423L66.70949074858888,155.6659346231205L66.94673657233886,145.1761417064176L67.19310723546387,131.23524851778487L67.43947789858886,146.87823349075475L67.67672372233886,149.85150577250636L67.91396954608886,143.4399496165362L68.16034020921387,129.53339065282233L68.41583571171387,132.806016686197L68.66220637483887,120.48829346120968L68.91770187733887,127.56347944989507L69.16407254046386,129.60804537924946L69.41044320358887,132.29560141244121L69.65681386671388,133.72205343256846L69.90318452983887,121.78721870527725L70.15868003233888,128.46172943536615L70.40505069546387,118.53380805865332L70.66054619796387,123.30753588041529L70.90691686108886,126.45114803063358L71.15328752421387,114.81877389464735L71.40878302671386,92.51916526297148L71.67340336858888,82.29844312696602L71.93802371046387,100.19499844100733L72.18439437358886,96.77748670413128L72.43988987608887,108.4053268863089L72.68626053921386,115.75107315294652L72.93263120233887,118.54726176589867L73.17900186546386,133.2953515639244L73.41624768921386,127.32305064186036L73.66261835233885,125.3468803159835L73.90898901546387,137.1774426263855L74.14623483921388,141.1341557594526L74.38348066296386,132.7038523837905L74.62985132608887,114.3787945954524L74.88534682858887,113.92917120036851L75.13171749171387,128.43263974811447L75.36896331546386,123.92398169798197L75.61533397858886,118.04493996236266L75.86170464171387,97.05089723137658L76.11720014421387,97.48823924103235L76.35444596796387,98.10218346183767L76.59169179171387,107.66695402627022L76.82893761546386,87.41639147704973L77.08443311796387,97.78475333037728L77.32167894171386,116.5642539682252L77.55892476546387,-2045.4846825554744L80.52449756233887,-16.767774425478898L80.77086822546386,29.12179382306996L81.01723888858886,68.79326806244686L81.25448471233888,77.38866338677622L81.50085537546387,95.54145655024463L81.73810119921387,106.47239853386586L81.97534702296386,111.41666788725634L82.21259284671387,77.90246328157153L82.46808834921386,92.67863103760796L82.70533417296387,98.31877670741686L82.94257999671386,86.66606215980197L83.18895065983887,50.9696596140813L83.45357100171387,44.94496714326797L83.70906650421387,69.27997066464889L83.94631232796387,84.95642488830998L84.18355815171387,96.42906003230011L84.42080397546385,100.21369922703069L84.65804979921387,49.779020592509326L84.92267014108886,62.53005576060398L85.16904080421386,66.04765775683255L85.41541146733886,73.26761816687934L85.65265729108887,66.07641121117084L85.89902795421388,82.8954450125737L86.13627377796386,67.7690970124529L86.39176928046388,69.8955945303485L86.63813994358887,86.89652698182365L86.87538576733887,97.07840237548623L87.11263159108887,62.83021604461988L87.36812709358887,79.85194685097238L87.60537291733887,91.21951790790166L87.84261874108887,53.77634284309185L88.10723908296387,61.32777859030605L88.35360974608888,40.07140807672547L88.61823008796387,55.43041596537L88.85547591171387,73.54547265976545L89.09272173546387,90.34267336302864L89.32996755921387,75.4073585373363L89.57633822233886,42.066780789921374L89.83183372483887,54.971251862446216L90.07820438796386,51.19070912797809L90.33369989046388,49.56649912464087L90.58919539296386,57.5092969311527L90.83556605608888,26.902516804237397L91.10018639796387,46.45839500690512L91.34655706108887,30.0363250177091L91.61117740296386,47.71105521004617L91.85754806608887,41.81565997308256L92.11304356858886,34.048314006713326L92.37766391046387,29.66390778432872L92.64228425233887,42.38411033222548L92.89777975483887,32.97200928056856L93.16240009671387,69.98488327838383L93.39964592046387,84.79105599339545L93.63689174421387,45.21762643374421L93.90151208608887,47.83401802675258L94.15700758858887,78.73895080443073L94.39425341233887,61.62914832562959L94.63149923608887,54.43956008561377L94.87786989921386,52.3411144917543L95.12424056233887,45.84557089226743L95.37973606483887,55.09230326555638L95.62610672796387,65.58352531417752L95.87247739108886,44.224516790277114L96.13709773296387,48.32360012193742L96.39259323546386,50.23750037178203L96.64808873796386,77.41761036110722L96.88533456171386,82.2020292142534L97.13170522483887,84.25737150404214L97.37807588796386,96.31186298453183L97.61532171171388,105.65244232300728L97.85256753546386,69.96160516444932L98.11718787733888,60.83063944389271L98.37268337983886,70.36608678792106L98.61905404296387,85.50269612213958L98.85629986671387,83.00078690214546L99.10267052983887,97.38448110907284L99.33991635358886,90.03011107120973L99.57716217733888,-2077.783554469761L104.07570798921387,-28.93443725661075L104.31295381296387,24.903277049981618L104.55019963671387,29.299317282783914L104.80569513921387,25.53559942577123L105.06119064171388,36.19797749031166L105.31668614421386,30.51760348513883L105.57218164671386,26.01077221184563L105.83680198858887,51.825281312740586L106.08317265171387,80.13598748758669L106.32041847546387,83.19244048126113L106.56678913858886,99.42979570873948L106.80403496233886,96.15526951935358L107.05040562546387,94.79139661410356L107.29677628858887,93.42663742062426L107.54314695171388,79.53875491417185L107.79864245421386,85.06636313847609L108.04501311733887,89.24053987044925L108.29138378046386,92.03260355862552L108.53775444358887,79.89381356206992L108.79324994608886,66.57022623792861L109.04874544858886,34.532787500218205L109.31336579046386,49.01403769733343L109.55973645358887,66.91268824644871L109.79698227733887,51.51222189781926L110.05247777983887,50.61638594023819L110.30797328233886,33.1071627531176L110.57259362421387,39.914682816763545L110.82808912671388,53.341106937505224L111.07445978983887,71.72786429790509L111.32083045296388,76.46633702739162L111.56720111608887,84.78372876256205L111.81357177921387,83.04781165103952L112.05994244233887,58.48958765535021L112.32456278421387,45.27468518367485L112.58005828671386,79.91705515424036L112.81730411046387,91.11792510761101L113.05454993421387,71.74197887800435L113.31004543671388,62.039647983016884L113.56554093921386,88.38565092885847L113.80278676296388,94.96926539916875L114.04915742608887,63.452331773269414L114.31377776796387,80.17751495331179L114.56014843108886,65.34690171034524L114.81564393358887,51.714334441583325L115.07113943608887,60.08336141124068L115.31751009921388,53.568730636100035L115.57300560171387,76.4456645937995L115.81937626483888,88.41084014612858L116.05662208858887,71.4000545012853L116.30299275171387,78.59782213534314L116.54023857546386,69.42126475400389L116.79573407796387,90.15878274606379L117.03297990171386,60.69379403221281L117.29760024358887,71.71809845242471L117.54397090671387,95.64037869715771L117.78121673046387,76.47695852897526L118.03671223296386,75.37712260551776L118.29220773546388,88.59278440462413L118.53857839858887,90.95133195825159L118.78494906171387,88.96241563120678L119.03131972483887,113.68826727235063L119.26856554858887,117.03479999125405L119.51493621171386,104.68643141121407L119.77043171421387,109.73408032986481L120.01680237733886,98.63485019724597L120.27229787983887,104.2636567843598L120.51866854296387,102.23985060316389L120.76503920608887,81.8979642631167L121.02053470858887,64.24551715940315L121.28515505046386,89.37028629364386L121.52240087421387,76.5979435781806L121.76877153733888,82.46273773548039L122.00601736108887,65.94190809059423L122.26151286358888,92.25859521069829L122.49875868733886,72.49677309535201L122.75425418983887,44.17710986194959L123.00974969233887,77.81747414525907L123.24699551608887,80.51251073372482L123.49336617921387,102.16173145418398L123.73061200296387,88.99612852587637L123.98610750546386,79.94978374390692L124.24160300796387,76.27705702249857L124.49709851046387,47.515629003237095L124.76171885233886,60.352156750313846L125.00808951546387,48.65451832946226L125.27270985733887,43.99097253192828L125.52820535983886,37.493650820814906L125.77457602296386,63.023733825886296L126.02094668608888,76.94068871846791L126.26731734921387,80.80946675286829L126.51368801233887,67.54340507776315L126.76918351483886,62.28334308576161L127.02467901733887,54.19091364160789L127.28017451983887,42.070344449033875L127.54479486171387,39.94894574865309L127.79116552483886,45.50979722852456L128.04666102733887,37.592293720206435L128.30215652983887,55.0415120454015L128.54852719296386,61.45870709554461L128.79489785608888,75.42141188019887L129.03214367983887,76.22207205790359L129.27851434296386,63.02644063378345L129.53400984546386,86.42973293636517L129.77125566921387,75.5129443670284L130.01762633233886,50.33674416560117L130.26399699546388,47.14657286815573L130.51949249796385,48.66852672004288L130.77498800046388,73.69423877123936L131.01223382421387,60.597173215136756L131.26772932671386,79.23497984293928L131.50497515046388,90.71606076397698L131.74222097421386,86.12829957228928L131.98859163733886,51.55113425891122L132.25321197921386,60.143939636180235L132.49958264233888,50.83966543713441L132.75507814483888,71.24758021175069L132.99232396858886,40.63468308510754L133.24781947108886,63.92682757470109L133.48506529483888,52.965998961969916L133.74056079733887,40.68351957454177L133.99605629983887,38.153503176460994L134.25155180233887,40.07791858119628L134.50704730483886,54.369582923844334L134.75341796796388,74.83166138642153L134.99066379171387,88.15239097991358L135.2279096154639,70.1032318311439L135.48340511796385,84.69567983240337L135.72065094171387,82.73104334202132L135.96702160483886,76.17449477867129L136.20426742858888,72.76528032401612L136.45063809171387,75.50051355039857L136.69700875483886,78.74814671739828L136.94337941796385,79.56142641290823L137.18975008108887,94.71141805285248L137.42699590483886,88.65731471609001L137.67336656796388,98.44297249710927L137.91061239171387,79.03215358002666L138.15698305483886,74.87059635288819L138.40335371796385,74.26547755570027L138.64972438108887,65.32088974392127L138.89609504421387,68.65210220705059L139.13334086796388,83.9700039935935L139.37058669171387,85.41765013726275L139.60783251546388,51.40867508968427L139.87245285733889,28.883764966907158L140.13707319921386,60.87639845552325L140.37431902296385,66.90691624492882L140.61156484671386,72.26740113490054L140.84881067046388,48.78271172542291L141.10430617296385,74.853427510305L141.3415519967139,76.50169402274882L141.58792265983885,77.5148209194896L141.83429332296387,89.61087397463236L142.07153914671386,98.65256103687275L142.30878497046388,86.59682654200748L142.55515563358887,70.19093792118052L142.80152629671386,60.71695302097383L143.04789695983888,63.650434538844074L143.29426762296387,67.21735385185875L143.54063828608886,67.21465688109423L143.78700894921386,53.616091630177884L144.04250445171385,59.66655170550168L144.28887511483887,65.70829682355992L144.53524577796387,38.39360859619978L144.79986611983887,27.467800523186167L145.04623678296386,53.43231058338794L145.28348260671387,52.559032893198754L145.52072843046386,44.620777368949064L145.76709909358888,57.776444578312606L146.00434491733887,49.87066512175428L146.25071558046386,66.65880395637338L146.48796140421388,65.83094110202431L146.73433206733887,68.79815851874024L146.9807027304639,71.13019644991803L147.22707339358885,60.23584468736711L147.48256889608885,54.50589652139239L147.73806439858888,51.35835325556528L147.99355990108887,63.43134583972317L148.23993056421386,41.49946978031176L148.50455090608887,56.85013717400641L148.75092156921386,65.9611281970997L148.99729223233888,43.909493338054645L149.26191257421388,56.90585351730804L149.50828323733884,64.69949417645137L149.75465390046386,83.3159824635758L149.99189972421385,65.94613727145713L150.24739522671388,83.53769311610212L150.48464105046386,95.02370944177345L150.72188687421385,73.97773134480758L150.97738237671385,90.21911043160728L151.21462820046386,85.57563790117202L151.46099886358886,68.45460735228421L151.71649436608888,58.21117498556568L151.97198986858888,64.72305068075585L152.21836053171387,69.09567533106582L152.46473119483886,44.32674803932236L152.72935153671386,57.83828059730949L152.97572219983888,51.75099523621966L153.23121770233885,61.6400671475608L153.47758836546387,81.7791871293098L153.71483418921386,93.09568407480906L153.95208001296385,74.42964469686642L154.20757551546387,61.59100995283895L154.46307101796387,51.98492121448398L154.71856652046387,46.98567026398156L154.97406202296386,73.29283290162378L155.21130784671388,46.56739635060463L155.47592818858885,72.64752064833533L155.71317401233887,76.17047263444539L155.95954467546386,76.70195976046212L156.20591533858885,92.39607618790666L156.44316116233887,60.74372119797554L156.70778150421387,81.46208785776584L156.94502732796386,93.50365239297781L157.18227315171387,87.44518226251581L157.42864381483886,83.54257625235846L157.67501447796386,52.90028727108162L157.93963481983886,32.69416531866057L158.2042551617139,48.8925587031458L158.45062582483885,30.832926938476636L158.71524616671385,19.391370450446935L158.97986650858888,13.656802141472516L159.24448685046386,24.079098164042918L159.49998235296388,30.472290034905306L159.75547785546388,50.61544000556609L160.00184851858887,35.27664742991386L160.26646886046385,51.94006389493587L160.51283952358887,63.95776551634373L160.75921018671386,55.511635891618496L161.01470568921386,78.47939490115316L161.25195151296387,52.159001613860866L161.51657185483887,77.30939915819948L161.75381767858886,65.42514438245155L162.00931318108888,70.20432001838941L162.25568384421385,73.73774615676354L162.50205450733887,88.9713669465118L162.73930033108886,70.5044024197279L162.99479583358888,59.55416871928466L163.25029133608888,79.60314474792176L163.48753715983887,50.50157990753464L163.75215750171387,61.54883133527496L163.9985281648389,81.32769369062251L164.23577398858887,67.57260391344781L164.49126949108887,44.883801787256715L164.75588983296387,57.88166544984674L165.0022604960889,66.38742624460053L165.24863115921386,72.36557589869703L165.49500182233888,75.32551578615772L165.74137248546387,77.22754451957837L165.9877431485889,92.22787637665638L166.22498897233888,100.32229841995013L166.46223479608886,77.74338761626734L166.71773029858886,79.20471152710775L166.96410096171385,65.08776587184138L167.21959646421385,71.42968538655214L167.46596712733887,75.04723715071492L167.71233779046386,76.34830488654057L167.95870845358888,90.69046454938982L168.19595427733887,100.03983368877198L168.43320010108886,106.48095987317625L168.67044592483884,96.75282178752315L168.91681658796387,75.25745911245268L169.17231209046386,63.43619973320146L169.4278075929639,69.57544011269293L169.67417825608885,87.718182593357L169.91142407983887,57.522856476350505L170.17604442171387,80.63640026305806L170.41329024546388,51.67340940275095L170.67791058733886,62.76896763888707L170.92428125046388,85.150746053855L171.16152707421386,97.21617069931264L171.39877289796388,64.51207377943254L171.66339323983885,71.22648843448063L171.90976390296387,88.96747850653367L172.14700972671386,84.4062282040843L172.39338038983885,83.13067408441273L172.63975105296387,96.65802804419134L172.87699687671386,75.53466091539303L173.13249237921386,77.54577704386281L173.37886304233885,93.34732595907202L173.6161088660889,72.81167369453524L173.87160436858886,62.191967355451396L174.12709987108886,82.30260876207515L174.36434569483887,53.06600623879429L174.62896603671388,35.599961968619404L174.89358637858888,52.59006219588072L175.13995704171387,75.41945097930697L175.3772028654639,77.3399156908893L175.62357352858885,91.94148254711739L175.86081935233886,85.13592923090566L176.10719001546386,81.85133099838278L176.35356067858885,67.81571932266365L176.60905618108885,86.47268353859448L176.84630200483886,84.60508939219528L177.09267266796385,82.07217693606486L177.33904333108887,67.85674660650122L177.59453883358884,72.67736702491838L177.84090949671386,62.532977114216166L178.09640499921386,56.40045541154625L178.35190050171389,51.867042102250174L178.60739600421388,77.1577156205626L178.84464182796387,91.53115063327887L179.08188765171386,86.56395836573539L179.32825831483885,67.3683101983033L179.58375381733885,58.22822761100052L179.83924931983887,66.41400568111865L180.08561998296386,57.744425899682014L180.3411154854639,65.74122827434637L180.58748614858885,69.73876236333916L180.83385681171387,46.48476178631326L181.09847715358887,57.78475641947948L181.34484781671387,52.445577457614505L181.60034331921386,50.2995972865433L181.85583882171386,47.8827823587142L182.11133432421386,34.036546249144415L182.37595466608886,40.65151978597962L182.63145016858886,57.434027196832744L182.87782083171388,81.25459071670379L183.11506665546386,81.12627966500578L183.36143731858886,95.59748316718112L183.59868314233887,76.56104815701094L183.85417864483884,94.28428098206463L184.09142446858888,104.24179803489415L184.32867029233887,111.40238867213036L184.56591611608886,101.0321641972061L184.81228677921388,82.94610441462046L185.06778228171385,84.2341841189046L185.31415294483887,85.29534876290526L185.56052360796386,60.75561198996433L185.8251439498389,73.02309155092529L186.07151461296385,80.43452819333693L186.31788527608887,72.44496471045414L186.57338077858887,80.91561398511878L186.81975144171386,99.26850647006196L187.05699726546385,97.3773472058318L187.30336792858887,96.08719000250248L187.54973859171386,94.89816576692525L187.79610925483888,94.08500440248307L188.04247991796385,93.72970970297762L188.28885058108887,93.68823238298813L188.53522124421386,93.52403784863283L188.78159190733888,79.75274116826121L189.03708740983888,85.08121643521132L189.28345807296387,61.731981548027335L189.54807841483887,75.147080997519L189.79444907796386,72.42711093007564L190.04081974108888,53.375073776188735L190.30544008296388,42.96451665041791L190.57006042483886,63.28533748810614L190.81643108796388,75.05762804632043L191.06280175108887,96.69694448467438L191.30004757483886,109.67374397199197L191.53729339858887,89.64188978348211L191.79278890108884,93.14696792503264L192.03915956421386,82.06479226034699L192.2946550667139,88.76439542402034L192.54102572983885,107.31362120194932L192.7782715535889,105.02954974401109L193.02464221671386,103.8151168052446L193.27101287983888,116.62043497434L193.50825870358887,123.95828676902846L193.74550452733888,101.24221960403565L194.00100002983888,100.51547406023586L194.24737069296387,100.71067861610152L194.49374135608886,114.90121347537806L194.73098717983888,109.54861716830602L194.97735784296387,91.35622531373708L195.23285334546387,109.38660126719306L195.47009916921388,92.04357831143186L195.72559467171385,82.57618602375963L195.98109017421385,78.05386820523096L196.23658567671387,102.53559476217897L196.47383150046386,116.25014851976127L196.71107732421387,112.24658833929333L196.95744798733887,97.61304549717262L197.21294348983886,102.52307636523817L197.45931415296388,119.71315210538427L197.69655997671387,101.11272343446284L197.95205547921387,77.41789663785372L198.21667582108887,63.09661434967172L198.48129616296387,67.827616496302L198.73679166546387,84.73912379507856L198.98316232858886,108.76323640114097L199.22040815233888,122.85615226106515L199.45765397608886,118.2309389088806L199.70402463921386,127.53213557283745L199.94127046296384,133.98691410475763L200.1785162867139,137.40841103330897L200.41576211046387,100.42786782640042L200.68038245233888,91.81869059466793L200.93587795483887,86.23302448747627L201.19137345733887,83.82042589516495L201.44686895983887,96.4533644749557L201.69323962296386,105.2324513697862L201.93961028608888,95.02417335931615L202.19510578858888,75.75396708514967L202.45972613046388,103.81322156162572L202.69697195421386,107.09893804645232L202.94334261733889,122.39308505072418L203.18058844108887,132.61225442054874L203.41783426483886,139.0983739234537L203.65508008858887,130.00853434642752L203.90145075171387,136.54862724220962L204.13869657546388,114.02138601580671L204.39419207796388,127.74904079778405L204.63143790171387,135.26218450986207L204.86868372546385,141.13611718668548L205.10592954921387,105.41906435699174L205.37054989108884,97.72622662865153L205.62604539358887,93.0229239275587L205.88154089608886,90.5406297966338L206.13703639858886,100.3750272261171L206.38340706171388,81.27518942508107L206.64802740358888,108.40233471499131L206.88527322733887,111.95915162999653L207.1316438904639,113.16886498331694L207.37801455358886,113.25074606295135L207.62438521671388,113.76845280992613L207.87075587983887,127.85603214685318L208.10800170358885,109.16420052554624L208.36349720608885,109.78004482558943L208.60986786921387,109.64756971915213L208.85623853233886,82.05348233959197L209.12085887421387,80.38608846968427L209.37635437671386,79.29079776924385L209.63184987921386,78.05842369850193L209.88734538171386,103.21960096869806L210.12459120546387,118.57261238111282L210.36183702921386,100.49697817679375L210.61733253171386,118.40917613203744L210.85457835546384,114.1826199155391L211.10094901858886,110.1728372498762L211.34731968171388,95.58844992981516L211.60281518421385,99.25918608608897L211.84918584733887,103.10443475930477L212.09555651046387,118.34990676553419L212.33280233421388,99.44526227250009L212.58829783671388,115.84546226745708L212.82554366046386,98.37713744188036L213.0810391629639,75.07135819995284L213.34565950483886,101.35836133020926L213.58290532858888,103.67996771544134L213.82927599171384,118.15925079803164L214.0665218154639,86.32544348143433L214.33114215733886,80.78030949960063L214.58663765983889,91.0780125016823L214.83300832296385,83.3521380446157L215.08850382546387,105.79013649963125L215.32574964921386,118.81468219471768L215.56299547296388,113.40740937516001L215.80936613608887,110.17974747706027L216.0557367992139,107.97132442917204L216.30210746233885,107.76221190796142L216.54847812546387,94.47277867388136L216.80397362796387,72.24957860207479L217.06859396983887,85.52275457762647L217.31496463296386,93.87312111011472L217.56133529608888,99.76608986994347L217.80770595921385,102.69478623296956L218.05407662233887,91.95214550764116L218.30957212483887,113.72069861345504L218.54681794858888,125.2443375851326L218.78406377233887,131.84755550231034L219.02130959608886,110.33039394801774L219.27680509858885,94.16231937926364L219.53230060108888,87.88441445568763L219.78779610358887,83.5730496298147L220.04329160608887,93.24281668732226L220.28966226921386,112.35554250992163L220.52690809296385,109.5193148665634L220.77327875608887,122.9803185022535L221.01052457983886,90.97160373061823L221.27514492171386,98.57954402692657L221.52151558483888,103.95160373996556L221.76788624796384,92.86574657629883L222.02338175046387,86.69483060756009L222.27887725296387,97.66096869591036L222.5252479160889,104.06389089962063L222.77161857921385,107.64874870409797L223.01798924233887,108.57718488047124L223.26435990546386,96.07492013263739L223.51985540796386,114.4463688501004L223.75710123171385,86.09847109661503L224.02172157358888,109.74139203627468L224.25896739733886,110.74192205045459L224.50533806046386,110.92806931782086L224.75170872358888,124.66458324566918L224.98895454733886,120.49933644915582L225.23532521046388,91.41574099701057L225.4999455523389,113.02167373416125L225.73719137608887,99.82735655984234L225.99268687858887,117.92220714383124L226.22993270233886,102.11082374184178L226.48542820483888,106.99188037983194L226.73179886796385,95.47219758126725L226.98729437046387,101.83118605599861L227.23366503358886,93.19589810117321L227.4891605360889,101.89003562397964L227.73553119921385,119.08064976753546L227.97277702296387,102.61719278899011L228.22827252546386,92.59997916448751L228.48376802796386,99.03075802148274L228.73013869108888,102.57745852116678L228.97650935421387,105.23116355800279L229.22288001733887,118.15736713980822L229.46012584108888,115.4191330317661L229.70649650421385,127.42847487087495L229.9437423279639,108.74115433857155L230.19923783046386,124.38807199220692L230.43648365421387,106.18637784484147L230.69197915671387,95.68417148468461L230.94747465921387,102.17903652000972L231.19384532233886,119.86952827108863L231.43109114608887,132.43333596611438L231.66833696983886,112.3009661551893L231.92383247233886,113.80718810301599L232.17020313546388,128.777163435555L232.40744895921387,123.9746437982035L232.65381962233886,134.75481962270777L232.89106544608887,140.80883872876157L233.1283112698389,131.61874336312633L233.37468193296385,112.47197361821118L233.63017743546385,102.45371178735685L233.88567293796388,96.71394795417429L234.14116844046387,92.22238951366381L234.39666394296387,116.89680177192957L234.63390976671386,91.55999558967902L234.89853010858886,101.73649818939421L235.14490077171388,82.38072623444998L235.40952111358888,83.31642563684699L235.66501661608888,84.91748975579492L235.92051211858887,99.69409654396632L236.16688278171387,107.54635453098905L236.4132534448389,98.72347833336808L236.66874894733888,94.00351827289039L236.92424444983885,78.60643704004384L237.18886479171388,96.10560892081756L237.43523545483885,118.9223052686086L237.67248127858886,120.4642987828771L237.91885194171388,106.72143986554282L238.17434744421388,98.10710412027684L238.42984294671388,106.89765934696439L238.67621360983887,98.18537907262431L238.93170911233886,107.25740336280344L239.17807977546389,85.63139678480368L239.44270011733886,111.99577116198395L239.67994594108887,115.725966530264L239.92631660421387,116.75864444852606L240.17268726733886,89.55517181650337L240.43730760921386,88.72223043106166L240.69280311171386,89.30985358840339L240.94829861421385,74.45329338989596L241.21291895608886,94.63464095476938L241.45928961921388,94.083068156172L241.71478512171387,94.29602935254994L241.97028062421387,108.14601659109401L242.21665128733886,103.98095002404908L242.47214678983886,100.9155252688738L242.72764229233886,112.76883103515996L242.97401295546385,104.36699919692676L243.22950845796385,114.66160510280206L243.47587912108887,130.712755841602L243.71312494483885,121.0411074640867L243.95949560796387,123.23389125892791L244.1967414317139,126.63555651405362L244.43398725546388,138.36806665735386L244.67123307921386,115.83422130468794L244.91760374233888,103.99624021555933L245.17309924483885,112.56644001457447L245.41946990796387,67.72730368367165" fill="none"></path></g></g></g></g><g opacity="0.2"><g><g><g><path style="fill: none;" stroke="rgb(187, 187, 187)" stroke-width="2px" d="M29.799515476713868,244.65609752825958L30.045886139838867,171.43275604234915L30.31050648171387,194.35375355294624L30.56600198421387,193.12600301581412L30.821497486713866,156.0778608413527L31.08611782858887,213.24533790857046L31.323363652338866,154.25806124324524L31.587983994213868,241.9459573654369L32.06247564171387,184.50169868022087L32.308846304838866,151.34863831546383L32.56434180733887,195.75695727573518L32.801587631088864,123.39422210072071L33.05708313358887,215.5623954535274L33.29432895733887,131.34718603182066L33.531574781088864,165.88025318376296L33.768820604838865,203.1047975094286L34.006066428588866,176.7967310788474L34.24331225233887,168.69615028481505L34.48055807608887,176.68875988767397L34.71780389983887,132.25207740159632L34.955049723588864,177.1706235045319L35.192295547338865,157.26638746919136L35.429541371088874,191.92208205798394L35.66678719483887,171.67105183536862L35.90403301858887,168.3635905807516L36.14127884233887,163.67664974203123L36.378524666088865,190.33636062824073L38.51373707983887,183.46669358983192L38.75098290358886,154.9045176622728L38.988228727338864,175.92547526569703L39.22547455108887,174.1284508407277L39.46272037483887,171.55854669769084L39.69996619858887,129.14041937159752L39.94633686171387,128.99301338989787L40.192707524838866,161.81077259456558L40.42995334858887,161.1594659071845L40.66719917233887,123.28572370646539L40.91356983546387,157.39217812453305L41.15081565921386,152.54707636124223L41.38806148296386,120.00398996224517L41.63443214608886,123.31039681069838L41.88080280921386,92.32466831563823L42.136298311713865,125.14675058557755L42.382668974838865,92.61231031712367L42.63816447733887,160.13131445686028L42.87541030108886,136.03497039547207L43.12178096421386,160.5592979187479L43.35902678796387,72.74360776950328L43.60539745108887,133.7988912438952L43.85176811421387,128.79573399665034L44.09813877733887,95.11937185279788L44.35363427983887,161.05634498436459L44.59088010358887,162.76764618821673L44.82812592733887,95.0026490904649L45.08362142983887,123.5125264722994L45.32999209296387,159.5105855482295L45.56723791671387,160.16842955382614L45.804483740463866,161.90714531793716L46.04172956421387,131.33115905813085L46.288100227338866,167.4989775264332L46.52534605108887,128.20020539533445L46.771716714213866,129.55880773739452L47.018087377338865,97.37400855285767L47.27358287983886,165.77238743320592L47.510828703588864,165.69140903982586L47.748074527338865,71.98812575313849L48.01269486921387,104.79903131774148L48.268190371713864,133.67795085690702L48.51456103483886,165.0330378311473L48.751806858588864,163.01754044903802L48.989052682338865,101.6021772697074L49.24454818483886,61.57755193544671L49.509168526713864,127.39115954584845L49.75553918983886,131.6626643560305L50.00190985296386,158.98338246632804L50.239155676713864,94.55041428680983L50.49465117921387,98.3690516496385L50.750146681713865,161.4698830818081L50.987392505463866,159.09261894489802L51.22463832921387,128.3882060143405L51.47100899233887,130.06270844307593L51.717379655463866,162.4692492438605L51.95462547921387,165.8682329534956L52.19187130296387,132.44566637327054L52.43824196608887,83.45510910634442L52.684612629213866,95.62242903354826L52.94010813171387,138.6024494043322L53.17735395546387,130.58358508799458L53.42372461858887,171.7636286965505L53.660970442338865,172.68633953049445L53.898216266088866,136.025797061847L54.144586929213865,139.271153793416L54.390957592338864,171.6111615652646L54.628203416088866,133.00376355577143L54.874574079213865,137.28170024355265L55.120944742338864,100.89361632763183L55.37644024483887,141.71495095926204L55.62281090796387,171.69614670206713L55.86005673171387,135.34233098646993L56.10642739483887,139.34348605625289L56.35279805796387,75.7444477116864L56.61741839983887,138.94840006667593L56.86378906296387,128.15001566193743L57.11015972608887,173.56645235542075L57.34740554983887,168.80538676338503L57.58465137358886,141.98224292178608L57.83102203671386,137.55932538648196L58.07739269983886,143.54255316298165L58.31463852358887,88.51288459287429L58.57013402608887,171.92927590488395L58.80737984983887,137.45926224153706L59.053750512963866,138.3471776720755L59.30012117608887,105.42946076307925L59.55561667858887,104.18114930575297L59.81111218108887,105.49683731694626L60.06660768358886,152.75015498839068L60.30385350733887,139.56238077585837L60.55022417046387,171.68739513090756L60.78746999421387,129.08885891018755L61.03384065733887,27.47373353278855L61.29846099921387,95.29767193509696L61.55395650171386,137.76177136993212L61.80032716483886,141.12121484842461L62.04669782796386,111.87504564240653L62.302193330463865,108.59995465701826L62.55768883296386,174.14953896400377L62.79493465671386,137.08220659736114L63.04130531983886,136.11805760117974L63.28767598296386,138.882710562671L63.53404664608886,74.81530500014327L63.79866698796386,132.89716309261095L64.04503765108886,138.02653275766303L64.29140831421387,104.62062579482603L64.54690381671386,173.34070399575054L64.78414964046387,172.23600265793422L65.02139546421387,167.90640006812666L65.25864128796387,171.83511743445635L65.49588711171387,170.91862759687885L65.73313293546387,100.70835716465166L65.98862843796387,171.1504915122991L66.22587426171387,159.87562096213807L66.46312008546387,126.89727569872316L66.70949074858888,173.01257279757507L66.94673657233886,129.44145233136325L67.19310723546387,110.32390873483604L67.43947789858886,170.3427109502097L67.67672372233886,154.31141419513366L67.91396954608886,133.82261538258078L68.16034020921387,108.6735522072517L68.41583571171387,137.71495573625927L68.66220637483887,102.01170862372845L68.91770187733887,138.17625843292305L69.16407254046386,132.6748942732813L69.41044320358887,136.3269354622291L69.65681386671388,135.86173146275925L69.90318452983887,103.88496661434073L70.15868003233888,138.4734955304991L70.40505069546387,103.64192599358415L70.66054619796387,130.46812761305816L70.90691686108886,131.16656625596121L71.15328752421387,97.37021269066798L71.40878302671386,59.06975231545783L71.67340336858888,66.96735992295811L71.93802371046387,127.03983141206932L72.18439437358886,91.65121909881731L72.43988987608887,125.84708715957545L72.68626053921386,126.76969255290301L72.93263120233887,122.7415446853267L73.17900186546386,155.41748626096293L73.41624768921386,118.36459925876439L73.66261835233885,122.38262482716819L73.90898901546387,154.9232860919885L74.14623483921388,147.06922545905329L74.38348066296386,120.0583973202974L74.62985132608887,86.89120791294539L74.88534682858887,113.25473610774266L75.13171749171387,150.1878425697332L75.36896331546386,117.16099462278335L75.61533397858886,109.22637735893358L75.86170464171387,65.55983313489759L76.11720014421387,98.14425225551571L76.35444596796387,99.02309979304545L76.59169179171387,122.01410987291906L76.82893761546386,57.04054765321911L77.08443311796387,113.33729611036843L77.32167894171386,144.73350492499705L77.55892476546387,-5288.558087341024L79.01889906546387,-3.2687434602822454L79.28351940733886,35.54489639485079L79.53901490983887,106.93915950841227L79.77626073358886,96.69665803323068L80.01350655733887,65.93277659503468L80.26900205983887,68.43540962482092L80.52449756233887,91.72123166809382L80.77086822546386,97.95614619589327L81.01723888858886,128.3004794215121L81.25448471233888,90.28175637327007L81.50085537546387,122.77064629544766L81.73810119921387,122.86881150929771L81.97534702296386,118.83307191734202L82.21259284671387,27.631156373044327L82.46808834921386,114.84288267166262L82.70533417296387,106.77899521213061L82.94257999671386,69.18699033837964L83.18895065983887,-2.574944204499922L83.45357100171387,35.907928437048135L83.70906650421387,105.78247594672047L83.94631232796387,108.47110622380154L84.18355815171387,113.63801274828502L84.42080397546385,105.89065801912665L84.65804979921387,-25.872997359272937L84.92267014108886,81.65660851274578L85.16904080421386,71.32406075117541L85.41541146733886,84.09755878194954L85.65265729108887,55.28960077760797L85.89902795421388,108.12399571467762L86.13627377796386,45.079575012271505L86.39176928046388,73.08534080719181L86.63813994358887,112.3979256590364L86.87538576733887,112.35121546597993L87.11263159108887,11.457936548320426L87.36812709358887,105.38454306050124L87.60537291733887,108.27087449329537L87.84261874108887,-2.3884197541231846L88.10723908296387,72.65493221112746L88.35360974608888,8.186852306354616L88.61823008796387,78.46892779833678L88.85547591171387,100.71805770135865L89.09272173546387,115.53847441792341L89.32996755921387,53.0043862987979L89.57633822233886,-7.944085831200788L89.83183372483887,74.32795847123356L90.07820438796386,45.519895026275606L90.33369989046388,47.13018411963543L90.58919539296386,69.42349364092064L90.83556605608888,-19.007653386135722L91.10018639796387,75.79221231090668L91.34655706108887,5.403220033914899L91.61117740296386,74.22315049855155L91.85754806608887,32.972567117637176L92.11304356858886,22.397295057159376L92.37766391046387,23.08729845075201L92.64228425233887,61.46441415407065L92.89777975483887,18.85385770308327L93.16240009671387,125.50419427510674L93.39964592046387,107.00031506591284L93.63689174421387,-14.142517905732653L93.90151208608887,51.75860541626474L94.15700758858887,125.09634997094777L94.39425341233887,35.96444460742797L94.63149923608887,43.655177725590114L94.87786989921386,49.19344610096499L95.12424056233887,36.10225549303701L95.37973606483887,68.96240182548962L95.62610672796387,81.32035838710902L95.87247739108886,12.186004004426344L96.13709773296387,54.47222511942795L96.39259323546386,53.108350746548865L96.64808873796386,118.18777534509464L96.88533456171386,89.37865749397287L97.13170522483887,87.34038493872544L97.37807588796386,114.3936002052662L97.61532171171388,119.66331133072045L97.85256753546386,16.425349426612378L98.11718787733888,47.13419086305788L98.37268337983886,84.66925780396349L98.61905404296387,108.20761012346719L98.85629986671387,79.24792307215438L99.10267052983887,118.9600224194639L99.33991635358886,78.99855601441499L99.57716217733888,-5329.504052781215L102.08649300546388,-4304.481236426221L102.34198850796386,89.06286284791389L102.58835917108887,85.15786962026976L102.83472983421386,2.035446746728361L103.08110049733887,15.155949846010039L103.33659599983886,56.41507391685121L103.58296666296387,21.084770264457497L103.83846216546387,73.20195812890842L104.07570798921387,77.99792456496601L104.31295381296387,105.65984850987019L104.55019963671387,35.893377631987654L104.80569513921387,19.890022640252404L105.06119064171388,52.19154458712222L105.31668614421386,21.997042477379786L105.57218164671386,19.25052530190593L105.83680198858887,90.54704496408289L106.08317265171387,122.60204674985557L106.32041847546387,87.7771199717726L106.56678913858886,123.78582854995712L106.80403496233886,91.24348023527472L107.05040562546387,92.74558725622836L107.29677628858887,91.3794986304053L107.54314695171388,58.70693115449325L107.79864245421386,93.35777547493234L108.04501311733887,95.5018049684092L108.29138378046386,96.22069909089004L108.53775444358887,61.685628567236506L108.79324994608886,46.58484525171656L109.04874544858886,-13.523370606347576L109.31336579046386,70.73591299300614L109.55973645358887,93.76066407012144L109.79698227733887,28.41152237487487L110.05247777983887,49.27263200386659L110.30797328233886,6.843327972436931L110.57259362421387,50.125962912232296L110.82808912671388,73.48074311861791L111.07445978983887,99.308000338505L111.32083045296388,83.5740461216214L111.56720111608887,97.25981636531782L111.81357177921387,80.44393598375603L112.05994244233887,21.65225166181623L112.32456278421387,25.452331476161966L112.58005828671386,131.88061011008855L112.81730411046387,107.91923003766709L113.05454993421387,42.678059533593945L113.31004543671388,47.4861516405353L113.56554093921386,127.90465534762048L113.80278676296388,104.84468710463415L114.04915742608887,16.17693133442041L114.31377776796387,105.26528972337513L114.56014843108886,43.1009818458953L114.81564393358887,31.265483538440243L115.07113943608887,72.63690186572643L115.31751009921388,43.79678447338885L115.57300560171387,110.76106553034874L115.81937626483888,106.35860347462238L116.05662208858887,45.883876034020375L116.30299275171387,89.39447358642991L116.54023857546386,55.65642868199501L116.79573407796387,121.26505973415347L117.03297990171386,16.496310961436315L117.29760024358887,88.25455508274257L117.54397090671387,131.52379906425764L117.78121673046387,47.73182827670138L118.03671223296386,73.72736872033141L118.29220773546388,108.41627710328379L118.53857839858887,94.48915328869288L118.78494906171387,85.97904114063948L119.03131972483887,150.77704473406627L119.26856554858887,122.0545990696091L119.51493621171386,86.16387854115413L119.77043171421387,117.30555370784073L120.01680237733886,81.98600499831781L120.27229787983887,112.70686666503066L120.51866854296387,99.20414133137041L120.76503920608887,51.38513475304575L121.02053470858887,37.76684650383269L121.28515505046386,127.05743999500483L121.52240087421387,57.43942950498575L121.76877153733888,91.25992897143004L122.00601736108887,41.16066362326516L122.26151286358888,131.73362589085443L122.49875868733886,42.85403992233265L122.75425418983887,1.6976150118459041L123.00974969233887,128.2780205702231L123.24699551608887,84.55506561642363L123.49336617921387,134.63556253487283L123.73061200296387,69.24772413341469L123.98610750546386,66.38026657095264L124.24160300796387,70.76796694038575L124.49709851046387,4.373486974344964L124.76171885233886,79.60694837092927L125.00808951546387,31.108060698184467L125.27270985733887,36.99565383562723L125.52820535983886,27.74766825414455L125.77457602296386,101.31885833349355L126.02094668608888,97.81612105734024L126.26731734921387,86.61263380446866L126.51368801233887,47.644312565105736L126.76918351483886,54.39325009775911L127.02467901733887,42.05226947537691L127.28017451983887,23.889490660173273L127.54479486171387,36.766847698081996L127.79116552483886,53.851074448331644L128.04666102733887,25.716038457729077L128.30215652983887,81.21533953319425L128.54852719296386,71.08449967075939L128.79489785608888,96.36546905718018L129.03214367983887,77.42306232446066L129.27851434296386,43.232993497603424L129.53400984546386,121.53467139023788L129.77125566921387,59.13776151302312L130.01762633233886,12.572443863460116L130.26399699546388,42.36131592198755L130.51949249796385,50.951457497873605L130.77498800046388,111.23280684803417L131.01223382421387,40.95157488098304L131.26772932671386,107.19168978464307L131.50497515046388,107.93768214553364L131.74222097421386,79.24665778475782L131.98859163733886,-0.31461371115559483L132.25321197921386,73.03314770208357L132.49958264233888,36.88325413856584L132.75507814483888,101.85945237367531L132.99232396858886,-5.284662604857054L133.24781947108886,98.86504430909139L133.48506529483888,36.524756042872845L133.74056079733887,22.259800493399474L133.99605629983887,34.35847857933974L134.25155180233887,42.9645416882992L134.50704730483886,75.8070794378163L134.75341796796388,105.52477908028703L134.99066379171387,108.13348537015185L135.2279096154639,43.02949310798946L135.48340511796385,106.58435183429259L135.72065094171387,79.78408860644817L135.96702160483886,66.33967193364623L136.20426742858888,67.65145864203345L136.45063809171387,79.60336338997234L136.69700875483886,83.61959646789768L136.94337941796385,80.78134595617297L137.18975008108887,117.43640551276867L137.42699590483886,79.57615971094623L137.67336656796388,113.12145916863797L137.91061239171387,49.915925204402754L138.15698305483886,68.62826051218047L138.40335371796385,73.35779935991849L138.64972438108887,51.904008026253166L138.89609504421387,73.64892090174448L139.13334086796388,106.94685667340804L139.37058669171387,87.58911935276655L139.60783251546388,0.3952125183165332L139.87245285733889,-4.903600217258678L140.13707319921386,108.86534868844745L140.37431902296385,75.95269292903748L140.61156484671386,80.30812846985822L140.84881067046388,13.555677611206342L141.10430617296385,113.95950118762853L141.3415519967139,78.97409379141476L141.58792265983885,79.03451126460067L141.83429332296387,107.7549535573466L142.07153914671386,112.21509163023298L142.30878497046388,68.51322479970958L142.55515563358887,45.58210498993998L142.80152629671386,46.5059756706641L143.04789695983888,68.05065681564923L143.29426762296387,72.56773282138096L143.54063828608886,67.21061142494744L143.78700894921386,33.21824375380326L144.04250445171385,68.74224181848757L144.28887511483887,74.77091450064717L144.53524577796387,-2.5784237448404714L144.79986611983887,11.079088413666035L145.04623678296386,92.37907567369047L145.28348260671387,51.24911635791517L145.52072843046386,32.71339408257442L145.76709909358888,77.50994539235802L146.00434491733887,38.01199593691687L146.25071558046386,91.84101220830183L146.48796140421388,64.58914682050062L146.73433206733887,73.24898464381403L146.9807027304639,74.62825334668463L147.22707339358885,43.89431704354062L147.48256889608885,45.91097427243011L147.73806439858888,46.6370383568248L147.99355990108887,81.54083471596022L148.23993056421386,8.601655691194686L148.50455090608887,79.87613826454816L148.75092156921386,79.62761473173981L148.99729223233888,10.83204104948701L149.26191257421388,76.4003937861882L149.50828323733884,76.38995516516655L149.75465390046386,111.2407148942627L149.99189972421385,39.8913694832792L150.24739522671388,109.92502688306939L150.48464105046386,112.25273393028074L150.72188687421385,42.40876419935868L150.97738237671385,114.58117906180674L151.21462820046386,78.61042910551913L151.46099886358886,42.77306152895259L151.71649436608888,42.84602643548775L151.97198986858888,74.49086422354111L152.21836053171387,75.6546123065304L152.46473119483886,7.173357101707246L152.72935153671386,78.10557943429029L152.97572219983888,42.620067194584784L153.23121770233885,76.4736750145725L153.47758836546387,111.98786710193345L153.71483418921386,110.07042949305782L153.95208001296385,46.43058562995219L154.20757551546387,42.33305783679763L154.46307101796387,37.5757881069516L154.71856652046387,39.48679383822802L154.97406202296386,112.75357685808713L155.21130784671388,6.479241524075782L155.47592818858885,111.7677070949314L155.71317401233887,81.45490061361028L155.95954467546386,77.49919044948723L156.20591533858885,115.93725082907368L156.44316116233887,13.265188713078636L156.70778150421387,112.53963784745152L156.94502732796386,111.5659991957959L157.18227315171387,78.35747706682281L157.42864381483886,77.68866723712262L157.67501447796386,6.936853799166251L157.93963481983886,2.38498239002903L158.2042551617139,73.19014877987382L158.45062582483885,3.7434792914727164L158.71524616671385,2.2290357184025775L158.97986650858888,5.054949678010793L159.24448685046386,39.71254219789822L159.49998235296388,40.06207784119889L159.75547785546388,80.83016496155705L160.00184851858887,12.268458566435733L160.26646886046385,76.93518859246905L160.51283952358887,81.98431794845573L160.75921018671386,42.84244145453082L161.01470568921386,112.93103341545516L161.25195151296387,12.67841168292231L161.51657185483887,115.03499547470751L161.75381767858886,47.59876221882945L162.00931318108888,77.3730834722964L162.25568384421385,79.03788536432484L162.50205450733887,111.82179813113449L162.73930033108886,42.803955629552014L162.99479583358888,43.128818168619695L163.25029133608888,109.67660879087742L163.48753715983887,6.849232646954228L163.75215750171387,78.11970847688525L163.9985281648389,110.99598722364404L164.23577398858887,46.93996924768538L164.49126949108887,10.850598597969942L164.75588983296387,77.3784609437318L165.0022604960889,79.14606743673102L165.24863115921386,81.3328003798419L165.49500182233888,79.76542561734885L165.74137248546387,80.08058761970955L165.9877431485889,114.72837416227362L166.22498897233888,112.46393148489047L166.46223479608886,43.875021410743024L166.71773029858886,81.39669739336836L166.96410096171385,43.91234738894165L167.21959646421385,80.94256465861844L167.46596712733887,80.4735647969589L167.71233779046386,78.29990649027917L167.95870845358888,112.2037040436639L168.19595427733887,114.06388739784502L168.43320010108886,116.14264914978249L168.67044592483884,82.16061465904357L168.91681658796387,43.01441509984708L169.17231209046386,45.70431066432474L169.4278075929639,78.78430068193023L169.67417825608885,114.93229631435311L169.91142407983887,12.229867300840546L170.17604442171387,115.30671594311953L170.41329024546388,8.228923112290353L170.67791058733886,79.41230499309125L170.92428125046388,118.72341367630652L171.16152707421386,115.31430766749891L171.39877289796388,15.45592839961197L171.66339323983885,81.29811041705278L171.90976390296387,115.57896361461344L172.14700972671386,77.56435275041025L172.39338038983885,81.21734290490548L172.63975105296387,116.94905898385896L172.87699687671386,43.84961022219537L173.13249237921386,80.56245123656748L173.37886304233885,117.04964933188576L173.6161088660889,42.00819529772995L173.87160436858886,46.262407846825624L174.12709987108886,112.4685708720112L174.36434569483887,9.211102453872776L174.62896603671388,9.400895563357302L174.89358637858888,78.07521253677277L175.13995704171387,109.66353415444627L175.3772028654639,80.22061275826258L175.62357352858885,113.84383283145935L175.86081935233886,74.92759925658828L176.10719001546386,76.92443364959826L176.35356067858885,46.76230180908459L176.60905618108885,114.45812986249094L176.84630200483886,81.80369817259628L177.09267266796385,78.27280825186944L177.33904333108887,46.533601112155736L177.59453883358884,79.90829765254415L177.84090949671386,47.31639224816303L178.09640499921386,47.20167285754127L178.35190050171389,45.06692213830587L178.60739600421388,115.09372589803134L178.84464182796387,113.0913031523532L179.08188765171386,79.11316996442036L179.32825831483885,38.57483794715487L179.58375381733885,44.51810373004645L179.83924931983887,78.69267278629576L180.08561998296386,44.74005622752696L180.3411154854639,77.73643183634289L180.58748614858885,75.73506349682856L180.83385681171387,11.60376092077437L181.09847715358887,74.73474836922873L181.34484781671387,44.43680901481724L181.60034331921386,47.08062702993669L181.85583882171386,44.257559966970746L182.11133432421386,13.267192084789862L182.37595466608886,50.57398009123216L182.63145016858886,82.6077883131124L182.87782083171388,116.98543599651016L183.11506665546386,80.93381308745887L183.36143731858886,117.30428842044417L183.59868314233887,48.00639564175566L183.85417864483884,120.86913021964547L184.09142446858888,119.17807361413834L184.32867029233887,122.14327462798492L184.56591611608886,85.47682748482015L184.81228677921388,55.817014740742195L185.06778228171385,86.16630367533088L185.31415294483887,86.88709572890656L185.56052360796386,23.94600683055311L185.8251439498389,91.42431089236692L186.07151461296385,91.55168315695431L186.31788527608887,60.46061948613027L186.57338077858887,93.62158789711583L186.81975144171386,126.79784519747655L187.05699726546385,94.54060830948646L187.30336792858887,94.1519541975087L187.54973859171386,93.11462941355938L187.79610925483888,92.86526235582L188.04247991796385,93.19676765371963L188.28885058108887,93.6260164030038L188.53522124421386,93.2777460470997L188.78159190733888,59.095796147703766L189.03708740983888,93.07392933563659L189.28345807296387,26.708129217251248L189.54807841483887,95.26973017175618L189.79444907796386,68.34715582891062L190.04081974108888,24.79701804535845L190.30544008296388,27.348680961761524L190.57006042483886,93.76656874463873L190.81643108796388,92.71606388364188L191.06280175108887,129.15591914220542L191.30004757483886,129.1389432029682L191.53729339858887,59.59410850071703L191.79278890108884,98.40458513735865L192.03915956421386,65.4415287633189L192.2946550667139,98.81380016953057L192.54102572983885,135.13745986884302L192.7782715535889,101.60344255710396L193.02464221671386,101.99346739709466L193.27101287983888,135.82841222798308L193.50825870358887,134.96506446106125L193.74550452733888,67.16811885654619L194.00100002983888,99.42535574453626L194.24737069296387,101.0034854499001L194.49374135608886,136.18701576429245L194.73098717983888,101.51972270769801L194.97735784296387,64.06763753188369L195.23285334546387,136.43216519737663L195.47009916921388,66.02904387778989L195.72559467171385,68.3750975922514L195.98109017421385,71.27039147743784L196.23658567671387,139.25818459760123L196.47383150046386,136.82197915613457L196.71107732421387,106.24124806859112L196.95744798733887,75.66273123399168L197.21294348983886,109.88812266733629L197.45931415296388,145.4982657156033L197.69655997671387,73.21208042808092L197.95205547921387,41.87565644293992L198.21667582108887,41.6146909173987L198.48129616296387,74.92411971624773L198.73679166546387,110.1063847432435L198.98316232858886,144.79940531023473L199.22040815233888,143.99552605095138L199.45765397608886,111.2931188806037L199.70402463921386,141.48393056877282L199.94127046296384,143.669081902638L200.1785162867139,142.5406564261361L200.41576211046387,44.957053016037605L200.68038245233888,78.90492474706929L200.93587795483887,77.85452532668882L201.19137345733887,80.20152800669774L201.44686895983887,115.40277234464197L201.69323962296386,118.40108171203197L201.93961028608888,79.71175634361128L202.19510578858888,46.84865767390005L202.45972613046388,145.90210327633983L202.69697195421386,112.02751277369244L202.94334261733889,145.33430555713196L203.18058844108887,147.94100847528554L203.41783426483886,148.82755317781104L203.65508008858887,116.37377498088809L203.90145075171387,146.35876658588288L204.13869657546388,80.23052417620232L204.39419207796388,148.34052297075047L204.63143790171387,146.53190007797932L204.86868372546385,149.9470162019206L205.10592954921387,51.84348511245088L205.37054989108884,86.18697003614142L205.62604539358887,85.96796987591955L205.88154089608886,86.81718860024642L206.13703639858886,115.12662337034199L206.38340706171388,52.625432723527126L206.64802740358888,149.09305264985662L206.88527322733887,117.29437700250442L207.1316438904639,114.98343501329755L207.37801455358886,113.37356768240325L207.62438521671388,114.5450129303883L207.87075587983887,148.98740115224356L208.10800170358885,81.12645309358567L208.36349720608885,110.70381127565425L208.60986786921387,109.44885705949599L208.85623853233886,40.6623512702519L209.12085887421387,77.88499766482272L209.37635437671386,77.64786171858344L209.63184987921386,76.20986259238902L209.88734538171386,140.9613668739921L210.12459120546387,141.60212949973513L210.36183702921386,73.38352687031528L210.61733253171386,145.27747306490298L210.85457835546384,107.84278559079138L211.10094901858886,104.15816325138206L211.34731968171388,73.71186894972351L211.60281518421385,104.76529032049979L211.84918584733887,108.87230776912855L212.09555651046387,141.2181147748781L212.33280233421388,71.08829553294908L212.58829783671388,140.44576225989246L212.82554366046386,72.17465020351523L213.0810391629639,40.11268933706143L213.34565950483886,140.78886602559393L213.58290532858888,107.16237729328935L213.82927599171384,139.87817542191735L214.0665218154639,38.57473250653849L214.33114215733886,72.4626085268498L214.58663765983889,106.52456700480496L214.83300832296385,71.76332635901571L215.08850382546387,139.4471341821547L215.32574964921386,138.3515007373471L215.56299547296388,105.2965001458237L215.80936613608887,105.3382546299103L216.0557367992139,104.65868985733931L216.30210746233885,107.44854312614547L216.54847812546387,74.53862882276138L216.80397362796387,38.91477849436493L217.06859396983887,105.43251854095428L217.31496463296386,106.3986709088469L217.56133529608888,108.60554300968641L217.80770595921385,107.08783077750849L218.05407662233887,75.83818441964848L218.30957212483887,146.37352827217612L218.54681794858888,142.52979604264894L218.78406377233887,141.75238237807704L219.02130959608886,78.05465161657861L219.27680509858885,69.91020752613207L219.53230060108888,78.46755707032383L219.78779610358887,77.10600239100512L220.04329160608887,107.7474672735836L220.28966226921386,141.02463124382027L220.52690809296385,105.26497340152599L220.77327875608887,143.17182395578854L221.01052457983886,42.95853157316552L221.27514492171386,109.99145447138898L221.52151558483888,112.00969330952417L221.76788624796384,76.23696083079875L222.02338175046387,77.43845665445218L222.27887725296387,114.11017582843597L222.5252479160889,113.66827420518617L222.77161857921385,113.0260354108138L223.01798924233887,109.96983914503102L223.26435990546386,77.32152301088644L223.51985540796386,142.0035419262949L223.75710123171385,43.5766244663868L224.02172157358888,145.20577344576438L224.25896739733886,112.24271707172461L224.50533806046386,111.20729021887014L224.75170872358888,145.2693541374417L224.98895454733886,114.25146625438556L225.23532521046388,47.79034781879244L225.4999455523389,145.43057283988716L225.73719137608887,80.0358807983643L225.99268687858887,145.0644830198148L226.22993270233886,78.39374863885763L226.48542820483888,114.31346533681717L226.73179886796385,78.19267338342041L226.98729437046387,111.36966876809579L227.23366503358886,80.2429661689352L227.4891605360889,114.9312419081893L227.73553119921385,144.86657098286898L227.97277702296387,77.9220073211722L228.22827252546386,77.57415872773362L228.48376802796386,108.67692630697587L228.73013869108888,107.89750927069275L228.97650935421387,109.21172111325671L229.22288001733887,137.54667251251632L229.46012584108888,111.31178186970301L229.70649650421385,145.44248762953814L229.9437423279639,80.71017354011627L230.19923783046386,147.85844847265977L230.43648365421387,78.88383662379323L230.69197915671387,79.93086194444953L230.94747465921387,111.92133407299748L231.19384532233886,146.40526589770658L231.43109114608887,151.27904750865284L231.66833696983886,82.10241143880165L231.92383247233886,116.06652102475591L232.17020313546388,151.2321264343636L232.40744895921387,116.77086434217627L232.65381962233886,150.9250833594642L232.89106544608887,149.8898673878425L233.1283112698389,117.83360031467323L233.37468193296385,83.75181900083857L233.63017743546385,87.42631904107537L233.88567293796388,88.10430220440065L234.14116844046387,85.48505185289781L234.39666394296387,153.9084201593282L234.63390976671386,53.55478631630302L234.89853010858886,117.0012520889672L235.14490077171388,53.34706830203385L235.40952111358888,84.71997474044241L235.66501661608888,87.31908593421662L235.92051211858887,121.85900672622365L236.16688278171387,119.32474151152333L236.4132534448389,85.48916403693664L236.66874894733888,86.92357818217414L236.92424444983885,55.510815190773826L237.18886479171388,122.35436674197827L237.43523545483885,153.14734979029524L237.67248127858886,122.77728905427962L237.91885194171388,86.10715148954154L238.17434744421388,85.18560050237778L238.42984294671388,120.08349218699591L238.67621360983887,85.11695866111421L238.93170911233886,120.86543979807216L239.17807977546389,53.19238691780396L239.44270011733886,151.54233272775443L239.67994594108887,121.32125958268416L239.92631660421387,118.30766132591903L240.17268726733886,48.74996286846948L240.43730760921386,87.47281835289908L240.69280311171386,90.19128832441578L240.94829861421385,52.16845309213494L241.21291895608886,124.90666230207962L241.45928961921388,93.25570895827622L241.71478512171387,94.61547114711647L241.97028062421387,128.92099744891013L242.21665128733886,97.73335017348171L242.47214678983886,96.31738813611076L242.72764229233886,130.54878968458908L242.97401295546385,91.76425143957698L243.22950845796385,130.1035139616151L243.47587912108887,154.7894819498019L243.71312494483885,106.53363489781367L243.95949560796387,126.5230669511895L244.1967414317139,131.7380543967424L244.43398725546388,155.96683187230425L244.67123307921386,82.03345327568894L244.91760374233888,86.23926858186604L245.17309924483885,125.42173971309735L245.41946990796387,0.46859918731721667" fill="none"></path></g></g></g></g></g></g><g transform="translate(51, 176)" clip-path="url(#clip_1)"><clipPath id="clip_1"><rect width="278" height="23"></rect></clipPath><g><g><line x1="0" y1="0" x2="0" y2="5" style="visibility: inherit;" fill="rgb(0, 0, 0)" stroke="rgb(204, 204, 204)" stroke-width="1px"></line><line x1="27.846799850463867" y1="0" x2="27.846799850463867" y2="5" style="visibility: inherit;" fill="rgb(0, 0, 0)" stroke="rgb(204, 204, 204)" stroke-width="1px"></line><line x1="55.693599700927734" y1="0" x2="55.693599700927734" y2="5" style="visibility: inherit;" fill="rgb(0, 0, 0)" stroke="rgb(204, 204, 204)" stroke-width="1px"></line><line x1="83.5403995513916" y1="0" x2="83.5403995513916" y2="5" style="visibility: inherit;" fill="rgb(0, 0, 0)" stroke="rgb(204, 204, 204)" stroke-width="1px"></line><line x1="111.38719940185547" y1="0" x2="111.38719940185547" y2="5" style="visibility: inherit;" fill="rgb(0, 0, 0)" stroke="rgb(204, 204, 204)" stroke-width="1px"></line><line x1="139.23399925231934" y1="0" x2="139.23399925231934" y2="5" style="visibility: inherit;" fill="rgb(0, 0, 0)" stroke="rgb(204, 204, 204)" stroke-width="1px"></line><line x1="167.0807991027832" y1="0" x2="167.0807991027832" y2="5" style="visibility: inherit;" fill="rgb(0, 0, 0)" stroke="rgb(204, 204, 204)" stroke-width="1px"></line><line x1="194.92759895324707" y1="0" x2="194.92759895324707" y2="5" style="visibility: inherit;" fill="rgb(0, 0, 0)" stroke="rgb(204, 204, 204)" stroke-width="1px"></line><line x1="222.77439880371094" y1="0" x2="222.77439880371094" y2="5" style="visibility: inherit;" fill="rgb(0, 0, 0)" stroke="rgb(204, 204, 204)" stroke-width="1px"></line><line x1="250.6211986541748" y1="0" x2="250.6211986541748" y2="5" style="visibility: inherit;" fill="rgb(0, 0, 0)" stroke="rgb(204, 204, 204)" stroke-width="1px"></line><line x1="278.4679985046387" y1="0" x2="278.4679985046387" y2="5" style="visibility: inherit;" fill="rgb(0, 0, 0)" stroke="rgb(204, 204, 204)" stroke-width="1px"></line></g><g transform="translate(0, 8)"><text style="text-anchor: middle; visibility: hidden; font-family: Roboto, sans-serif; font-size: 12px; font-weight: 200;" x="0" y="0" dx="0em" dy="0.95em" fill="rgb(33, 33, 33)" stroke="none" stroke-width="1px">-50M</text><text style="text-anchor: middle; visibility: inherit; font-family: Roboto, sans-serif; font-size: 12px; font-weight: 200;" x="27.846799850463867" y="0" dx="0em" dy="0.95em" fill="rgb(33, 33, 33)" stroke="none" stroke-width="1px">0</text><text style="text-anchor: middle; visibility: hidden; font-family: Roboto, sans-serif; font-size: 12px; font-weight: 200;" x="55.693599700927734" y="0" dx="0em" dy="0.95em" fill="rgb(33, 33, 33)" stroke="none" stroke-width="1px">50M</text><text style="text-anchor: middle; visibility: inherit; font-family: Roboto, sans-serif; font-size: 12px; font-weight: 200;" x="83.5403995513916" y="0" dx="0em" dy="0.95em" fill="rgb(33, 33, 33)" stroke="none" stroke-width="1px">100M</text><text style="text-anchor: middle; visibility: hidden; font-family: Roboto, sans-serif; font-size: 12px; font-weight: 200;" x="111.38719940185547" y="0" dx="0em" dy="0.95em" fill="rgb(33, 33, 33)" stroke="none" stroke-width="1px">150M</text><text style="text-anchor: middle; visibility: inherit; font-family: Roboto, sans-serif; font-size: 12px; font-weight: 200;" x="139.23399925231934" y="0" dx="0em" dy="0.95em" fill="rgb(33, 33, 33)" stroke="none" stroke-width="1px">200M</text><text style="text-anchor: middle; visibility: hidden; font-family: Roboto, sans-serif; font-size: 12px; font-weight: 200;" x="167.0807991027832" y="0" dx="0em" dy="0.95em" fill="rgb(33, 33, 33)" stroke="none" stroke-width="1px">250M</text><text style="text-anchor: middle; visibility: inherit; font-family: Roboto, sans-serif; font-size: 12px; font-weight: 200;" x="194.92759895324707" y="0" dx="0em" dy="0.95em" fill="rgb(33, 33, 33)" stroke="none" stroke-width="1px">300M</text><text style="text-anchor: middle; visibility: hidden; font-family: Roboto, sans-serif; font-size: 12px; font-weight: 200;" x="222.77439880371094" y="0" dx="0em" dy="0.95em" fill="rgb(33, 33, 33)" stroke="none" stroke-width="1px">350M</text><text style="text-anchor: middle; visibility: inherit; font-family: Roboto, sans-serif; font-size: 12px; font-weight: 200;" x="250.6211986541748" y="0" dx="0em" dy="0.95em" fill="rgb(33, 33, 33)" stroke="none" stroke-width="1px">400M</text><text style="text-anchor: middle; visibility: hidden; font-family: Roboto, sans-serif; font-size: 12px; font-weight: 200;" x="278.4679985046387" y="0" dx="0em" dy="0.95em" fill="rgb(33, 33, 33)" stroke="none" stroke-width="1px">450M</text></g><line x1="0" y1="0" x2="278.4679985046387" y2="0" fill="rgb(0, 0, 0)" stroke="rgb(204, 204, 204)" stroke-width="1px"></line></g></g></g></g></svg>