<svg viewBox="0 0 330 200" xmlns="http://www.w3.org/2000/svg"><g><g><g><g><g><line x1="82.68100261688232" y1="176.89999961853027" x2="77.68100261688232" y2="176.89999961853027" style="visibility: inherit;" fill="rgb(0, 0, 0)" stroke="rgb(204, 204, 204)" stroke-width="1px"></line><line x1="82.68100261688232" y1="163.2923073401818" x2="77.68100261688232" y2="163.2923073401818" style="visibility: inherit;" fill="rgb(0, 0, 0)" stroke="rgb(204, 204, 204)" stroke-width="1px"></line><line x1="82.68100261688232" y1="149.6846150618333" x2="77.68100261688232" y2="149.6846150618333" style="visibility: inherit;" fill="rgb(0, 0, 0)" stroke="rgb(204, 204, 204)" stroke-width="1px"></line><line x1="82.68100261688232" y1="136.0769227834848" x2="77.68100261688232" y2="136.0769227834848" style="visibility: inherit;" fill="rgb(0, 0, 0)" stroke="rgb(204, 204, 204)" stroke-width="1px"></line><line x1="82.68100261688232" y1="122.46923050513634" x2="77.68100261688232" y2="122.46923050513634" style="visibility: inherit;" fill="rgb(0, 0, 0)" stroke="rgb(204, 204, 204)" stroke-width="1px"></line><line x1="82.68100261688232" y1="108.86153822678787" x2="77.68100261688232" y2="108.86153822678787" style="visibility: inherit;" fill="rgb(0, 0, 0)" stroke="rgb(204, 204, 204)" stroke-width="1px"></line><line x1="82.68100261688232" y1="95.25384594843938" x2="77.68100261688232" y2="95.25384594843938" style="visibility: inherit;" fill="rgb(0, 0, 0)" stroke="rgb(204, 204, 204)" stroke-width="1px"></line><line x1="82.68100261688232" y1="81.6461536700909" x2="77.68100261688232" y2="81.6461536700909" style="visibility: inherit;" fill="rgb(0, 0, 0)" stroke="rgb(204, 204, 204)" stroke-width="1px"></line><line x1="82.68100261688232" y1="68.0384613917424" x2="77.68100261688232" y2="68.0384613917424" style="visibility: inherit;" fill="rgb(0, 0, 0)" stroke="rgb(204, 204, 204)" stroke-width="1px"></line><line x1="82.68100261688232" y1="54.430769113393936" x2="77.68100261688232" y2="54.430769113393936" style="visibility: inherit;" fill="rgb(0, 0, 0)" stroke="rgb(204, 204, 204)" stroke-width="1px"></line><line x1="82.68100261688232" y1="40.82307683504544" x2="77.68100261688232" y2="40.82307683504544" style="visibility: inherit;" fill="rgb(0, 0, 0)" stroke="rgb(204, 204, 204)" stroke-width="1px"></line><line x1="82.68100261688232" y1="27.215384556696968" x2="77.68100261688232" y2="27.215384556696968" style="visibility: inherit;" fill="rgb(0, 0, 0)" stroke="rgb(204, 204, 204)" stroke-width="1px"></line><line x1="82.68100261688232" y1="13.607692278348473" x2="77.68100261688232" y2="13.607692278348473" style="visibility: inherit;" fill="rgb(0, 0, 0)" stroke="rgb(204, 204, 204)" stroke-width="1px"></line><line x1="82.68100261688232" y1="0" x2="77.68100261688232" y2="0" style="visibility: inherit;" fill="rgb(0, 0, 0)" stroke="rgb(204, 204, 204)" stroke-width="1px"></line></g><g transform="translate(72.68100261688232, 0)"><text style="text-anchor: end; visibility: hidden; font-family: Roboto, sans-serif; font-size: 12px; font-weight: 200;" x="0" y="176.89999961853027" dx="0em" dy="0.3em" fill="rgb(33, 33, 33)" stroke="none" stroke-width="1px">1.26e+5</text><text style="text-anchor: end; visibility: inherit; font-family: Roboto, sans-serif; font-size: 12px; font-weight: 200;" x="0" y="163.2923073401818" dx="0em" dy="0.3em" fill="rgb(33, 33, 33)" stroke="none" stroke-width="1px">1.27e+5</text><text style="text-anchor: end; visibility: hidden; font-family: Roboto, sans-serif; font-size: 12px; font-weight: 200;" x="0" y="149.6846150618333" dx="0em" dy="0.3em" fill="rgb(33, 33, 33)" stroke="none" stroke-width="1px">1.28e+5</text><text style="text-anchor: end; visibility: inherit; font-family: Roboto, sans-serif; font-size: 12px; font-weight: 200;" x="0" y="136.0769227834848" dx="0em" dy="0.3em" fill="rgb(33, 33, 33)" stroke="none" stroke-width="1px">1.29e+5</text><text style="text-anchor: end; visibility: hidden; font-family: Roboto, sans-serif; font-size: 12px; font-weight: 200;" x="0" y="122.46923050513634" dx="0em" dy="0.3em" fill="rgb(33, 33, 33)" stroke="none" stroke-width="1px">1.3e+5</text><text style="text-anchor: end; visibility: inherit; font-family: Roboto, sans-serif; font-size: 12px; font-weight: 200;" x="0" y="108.86153822678787" dx="0em" dy="0.3em" fill="rgb(33, 33, 33)" stroke="none" stroke-width="1px">1.31e+5</text><text style="text-anchor: end; visibility: hidden; font-family: Roboto, sans-serif; font-size: 12px; font-weight: 200;" x="0" y="95.25384594843938" dx="0em" dy="0.3em" fill="rgb(33, 33, 33)" stroke="none" stroke-width="1px">1.32e+5</text><text style="text-anchor: end; visibility: inherit; font-family: Roboto, sans-serif; font-size: 12px; font-weight: 200;" x="0" y="81.6461536700909" dx="0em" dy="0.3em" fill="rgb(33, 33, 33)" stroke="none" stroke-width="1px">1.33e+5</text><text style="text-anchor: end; visibility: hidden; font-family: Roboto, sans-serif; font-size: 12px; font-weight: 200;" x="0" y="68.0384613917424" dx="0em" dy="0.3em" fill="rgb(33, 33, 33)" stroke="none" stroke-width="1px">1.34e+5</text><text style="text-anchor: end; visibility: inherit; font-family: Roboto, sans-serif; font-size: 12px; font-weight: 200;" x="0" y="54.430769113393936" dx="0em" dy="0.3em" fill="rgb(33, 33, 33)" stroke="none" stroke-width="1px">1.35e+5</text><text style="text-anchor: end; visibility: hidden; font-family: Roboto, sans-serif; font-size: 12px; font-weight: 200;" x="0" y="40.82307683504544" dx="0em" dy="0.3em" fill="rgb(33, 33, 33)" stroke="none" stroke-width="1px">1.36e+5</text><text style="text-anchor: end; visibility: inherit; font-family: Roboto, sans-serif; font-size: 12px; font-weight: 200;" x="0" y="27.215384556696968" dx="0em" dy="0.3em" fill="rgb(33, 33, 33)" stroke="none" stroke-width="1px">1.37e+5</text><text style="text-anchor: end; visibility: hidden; font-family: Roboto, sans-serif; font-size: 12px; font-weight: 200;" x="0" y="13.607692278348473" dx="0em" dy="0.3em" fill="rgb(33, 33, 33)" stroke="none" stroke-width="1px">1.38e+5</text><text style="text-anchor: end; visibility: hidden; font-family: Roboto, sans-serif; font-size: 12px; font-weight: 200;" x="0" y="0" dx="0em" dy="0.3em" fill="rgb(33, 33, 33)" stroke="none" stroke-width="1px">1.39e+5</text></g><line x1="82.68100261688232" y1="0" x2="82.68100261688232" y2="176.89999961853027" fill="rgb(0, 0, 0)" stroke="rgb(204, 204, 204)" stroke-width="1px"></line></g></g><g transform="translate(82, 0)" clip-path="url(#clip_0)"><clipPath id="clip_0"><rect width="247" height="176"></rect></clipPath><g><g><g><line x1="0" y1="0" x2="0" y2="176.89999961853027" fill="rgb(0, 0, 0)" stroke="rgb(66, 66, 66)" stroke-width="1px" opacity="0.25"></line><line x1="24.731899738311768" y1="0" x2="24.731899738311768" y2="176.89999961853027" fill="rgb(0, 0, 0)" stroke="rgb(66, 66, 66)" stroke-width="1px" opacity="0.25"></line><line x1="49.463799476623535" y1="0" x2="49.463799476623535" y2="176.89999961853027" fill="rgb(0, 0, 0)" stroke="rgb(66, 66, 66)" stroke-width="1px" opacity="0.25"></line><line x1="74.1956992149353" y1="0" x2="74.1956992149353" y2="176.89999961853027" fill="rgb(0, 0, 0)" stroke="rgb(66, 66, 66)" stroke-width="1px" opacity="0.25"></line><line x1="98.92759895324707" y1="0" x2="98.92759895324707" y2="176.89999961853027" fill="rgb(0, 0, 0)" stroke="rgb(66, 66, 66)" stroke-width="1px" opacity="0.25"></line><line x1="123.65949869155884" y1="0" x2="123.65949869155884" y2="176.89999961853027" fill="rgb(0, 0, 0)" stroke="rgb(66, 66, 66)" stroke-width="1px" opacity="0.25"></line><line x1="148.3913984298706" y1="0" x2="148.3913984298706" y2="176.89999961853027" fill="rgb(0, 0, 0)" stroke="rgb(66, 66, 66)" stroke-width="1px" opacity="0.25"></line><line x1="173.12329816818237" y1="0" x2="173.12329816818237" y2="176.89999961853027" fill="rgb(0, 0, 0)" stroke="rgb(66, 66, 66)" stroke-width="1px" opacity="0.25"></line><line x1="197.85519790649414" y1="0" x2="197.85519790649414" y2="176.89999961853027" fill="rgb(0, 0, 0)" stroke="rgb(66, 66, 66)" stroke-width="1px" opacity="0.25"></line><line x1="222.5870976448059" y1="0" x2="222.5870976448059" y2="176.89999961853027" fill="rgb(0, 0, 0)" stroke="rgb(66, 66, 66)" stroke-width="1px" opacity="0.25"></line><line x1="247.31899738311768" y1="0" x2="247.31899738311768" y2="176.89999961853027" fill="rgb(0, 0, 0)" stroke="rgb(66, 66, 66)" stroke-width="1px" opacity="0.25"></line></g><g><line x1="0" y1="176.89999961853027" x2="247.31899738311768" y2="176.89999961853027" fill="rgb(0, 0, 0)" stroke="rgb(66, 66, 66)" stroke-width="1px" opacity="0.25"></line><line x1="0" y1="163.2923073401818" x2="247.31899738311768" y2="163.2923073401818" fill="rgb(0, 0, 0)" stroke="rgb(66, 66, 66)" stroke-width="1px" opacity="0.25"></line><line x1="0" y1="149.6846150618333" x2="247.31899738311768" y2="149.6846150618333" fill="rgb(0, 0, 0)" stroke="rgb(66, 66, 66)" stroke-width="1px" opacity="0.25"></line><line x1="0" y1="136.0769227834848" x2="247.31899738311768" y2="136.0769227834848" fill="rgb(0, 0, 0)" stroke="rgb(66, 66, 66)" stroke-width="1px" opacity="0.25"></line><line x1="0" y1="122.46923050513634" x2="247.31899738311768" y2="122.46923050513634" fill="rgb(0, 0, 0)" stroke="rgb(66, 66, 66)" stroke-width="1px" opacity="0.25"></line><line x1="0" y1="108.86153822678787" x2="247.31899738311768" y2="108.86153822678787" fill="rgb(0, 0, 0)" stroke="rgb(66, 66, 66)" stroke-width="1px" opacity="0.25"></line><line x1="0" y1="95.25384594843938" x2="247.31899738311768" y2="95.25384594843938" fill="rgb(0, 0, 0)" stroke="rgb(66, 66, 66)" stroke-width="1px" opacity="0.25"></line><line x1="0" y1="81.6461536700909" x2="247.31899738311768" y2="81.6461536700909" fill="rgb(0, 0, 0)" stroke="rgb(66, 66, 66)" stroke-width="1px" opacity="0.25"></line><line x1="0" y1="68.0384613917424" x2="247.31899738311768" y2="68.0384613917424" fill="rgb(0, 0, 0)" stroke="rgb(66, 66, 66)" stroke-width="1px" opacity="0.25"></line><line x1="0" y1="54.430769113393936" x2="247.31899738311768" y2="54.430769113393936" fill="rgb(0, 0, 0)" stroke="rgb(66, 66, 66)" stroke-width="1px" opacity="0.25"></line><line x1="0" y1="40.82307683504544" x2="247.31899738311768" y2="40.82307683504544" fill="rgb(0, 0, 0)" stroke="rgb(66, 66, 66)" stroke-width="1px" opacity="0.25"></line><line x1="0" y1="27.215384556696968" x2="247.31899738311768" y2="27.215384556696968" fill="rgb(0, 0, 0)" stroke="rgb(66, 66, 66)" stroke-width="1px" opacity="0.25"></line><line x1="0" y1="13.607692278348473" x2="247.31899738311768" y2="13.607692278348473" fill="rgb(0, 0, 0)" stroke="rgb(66, 66, 66)" stroke-width="1px" opacity="0.25"></line><line x1="0" y1="0" x2="247.31899738311768" y2="0" fill="rgb(0, 0, 0)" stroke="rgb(66, 66, 66)" stroke-width="1px" opacity="0.25"></line></g></g></g><g><g><line x1="0" y1="1891.469226690439" x2="247.31899738311768" y2="1891.469226690439" fill="rgb(0, 0, 0)" stroke="rgb(153, 153, 153)" stroke-width="1.5px"></line></g></g><g><g><line x1="24.731899738311768" y1="0" x2="24.731899738311768" y2="176.89999961853027" fill="rgb(0, 0, 0)" stroke="rgb(153, 153, 153)" stroke-width="1.5px"></line></g></g><g><g><g><g><g><path style="fill: none;" stroke="rgb(187, 187, 187)" stroke-width="2px" d="M25.18573207706177,204.47423281922374L25.40454409753052,85.10795316528612L25.615251969093016,-1.3188544990293387L25.834063989561766,18.121122128601602L26.044771861124268,-4.999348334265271L29.359368763780516,-19.720498273778887L29.570076635343018,45.46421211380705L29.78078450690552,42.68726950953585L29.991492378468017,21.183081780170344L30.20220025003052,40.39745332306516L30.412908121593016,51.56460057591848L30.623615993155518,66.6490962626155L30.834323864718016,94.10215717921615L31.045031736280517,74.80394894395218L31.25573960784302,85.10806987718084L31.46644747940552,67.68570112887984L31.677155350968015,66.06282299687145L31.887863222530516,66.14888028188125L32.09857109409302,60.08479239590159L32.309278965655515,39.32403550480865L32.51998683721802,23.102673222787683L32.73069470878052,15.179678997564524L32.941402580343016,4.68284099046417L33.152110451905514,0.8004437761134761L33.36281832346802,5.168626547522916L33.57352619503052,7.344054381949684L33.784234066593015,12.304592373186187L33.99494193815552,16.786521269794378L34.20564980971802,17.349306592395845L34.416357681280516,56.08112407571263L34.627065552843014,48.11747850046756L34.83777342440552,42.59622610901981L35.04848129596802,42.143896639254216L35.259189167530515,36.79912603560609L35.47800118799927,31.976265167306163L35.696813208468015,40.16337751670972L35.90752108003052,45.732896463381664L36.11822895159302,40.68657116676589L36.33704097206177,48.859182455038514L36.54774884362426,55.5540318202906L36.75845671518677,48.68921011674948L36.977268735655514,43.540554981461575L37.19608075612427,29.734283654168205L37.42299692549927,30.43661559803118L37.641808945968016,21.311623294550238L37.86872511534302,36.40941748348267L38.079432986905516,27.48808009330632L38.29824500737426,69.84826928708146L38.50895287893677,83.11492484877645L38.727764899405514,56.76320715401391L38.94657691987427,44.793202826951024L39.165388940343014,27.823442319127047L39.392305109718016,36.53033861793194L39.60301298128052,43.30821971117155L39.81372085284302,27.787780957430865L40.04063702221802,33.143249212017814L40.25944904268677,41.927944623909454L40.47015691424927,46.85040494871912L40.680864785811764,48.00877138786061L40.89157265737427,37.87436449585177L41.110384677843015,40.8532115911107L41.32109254940552,34.01800563609037L41.53990456987427,30.176278697134435L41.75871659034302,17.581275729026977L41.985632759718015,28.11051289954555L42.19634063128051,35.92481630439836L42.40704850284302,7.460552409186175L42.64206882112427,-0.6550442645769988L42.868984990499264,6.995269963783266L43.08779701096802,23.053426216454344L43.298504882530516,33.20354121694581L43.50921275409302,17.409804543277563L43.736128923468016,1.365724812854963L43.971149241749266,10.718350635597584L44.18996126221801,15.536937861722397L44.40877328268677,31.91867127407515L44.619481154249264,19.936791849289264L44.84639732362427,10.663390977758748L45.07331349299927,27.542857521827248L45.28402136456177,38.10844999540101L45.49472923612427,33.657670935505585L45.71354125659302,29.735891146497522L45.93235327706177,37.346885847759964L46.14306114862426,41.15425848746218L46.35376902018677,38.287064918931144L46.572581040655514,67.31520053842918L46.79139306112427,46.87522684753256L47.01830923049927,61.93506348753408L47.22901710206177,46.05323975603779L47.44782912253052,43.44961040605153L47.65853699409301,40.84100125985509L47.86924486565552,30.890350549834885L48.088056886124264,23.539714886414526L48.30686890659302,30.993625241624446L48.517576778155515,26.372205849360004L48.73638879862427,21.87126234272814L48.955200819093015,11.021644669783296L49.18211698846802,9.341839392139452L49.40092900893677,21.771467302345442L49.61163688049927,20.031719789456712L49.83044890096802,16.007191336227827L50.04926092143677,-6.014764491505097L50.28428123971802,1.8249479760717158L50.503093260186766,11.137360638987154L50.72190528065552,21.46810957266197L50.93261315221802,30.09366094686365L51.143321023780516,20.86695045628748L51.36213304424926,20.76073357331011L51.580945064718016,43.76246709570798L51.791652936280514,31.01906692984939L52.01856910565552,35.17276709335039L52.229276977218014,27.640965722682157L52.44808899768677,21.582769855523274L52.66690101815552,9.148608219587535L52.893817187530516,2.430240755656606L53.12073335690552,-3.0070496715927826L53.34764952628052,25.6980219165844L53.55835739784302,20.93664732074445L53.77716941831177,28.530360136858544L53.98787728987427,34.92779363986406L54.206689310343016,38.49256903071926L54.44170962862427,28.97653087690322L54.66862579799927,24.493896587737346L54.887437818468015,20.296838854027104L55.10624983893676,4.992136164450888L55.33316600831177,-2.2586482900001412L55.560082177686766,13.7777555125977L55.770790049249264,14.550940745930019L55.98960206971802,16.62447178630446L56.208414090186764,16.301324452370736L56.42722611065552,-5.054651642740032L56.66224642893677,7.563263847275404L56.881058449405515,12.120504638167828L57.09987046987427,3.5375865890311315L57.32678663924927,18.11244086124546L57.53749451081177,27.897321306946836L57.74820238237427,34.969723754468944L57.958910253936764,38.0754771004357L58.16961812549927,40.337804587924836L58.38032599706177,23.103436360894555L58.60724216643677,31.024763702603604L58.81795003799927,50.16420772083637L59.028657909561765,42.255041577441034L59.24746993003052,41.56259303650999L59.45817780159302,51.10064052510284L59.67698982206176,60.823280067325605L59.89580184253052,62.818644089397615L60.106509714093015,70.80074292070186L60.31721758565552,51.119289195330815L60.536029606124266,27.723126792787323L60.76294577549926,24.03756630009175L60.98175779596802,14.232287232388549L61.20867396534302,15.696848381690955L61.427485985811764,20.048012996476775L61.64629800628052,22.047896478203928L61.86511002674927,20.949997629887342L62.083922047218024,9.638986709252812L62.31083821659303,10.962479706691028L62.52965023706177,3.454352349980325L62.75656640643676,12.031571100050938L62.975378426905515,16.047018073685727L63.19419044737426,10.080666612466755L63.42110661674926,-0.5634076144161373L63.65612693503052,-11.740100024831507L63.891147253311765,4.749471738515488L64.10995927378052,6.466607650694237L64.33687544315552,15.367663459874917L64.55568746362427,21.557757135859305L64.77449948409301,27.59813338451035L64.99331150456176,40.716786228611674L65.20401937612426,41.293064200803244L65.42283139659301,39.22440113355563L65.64164341706177,47.94360880057429L65.85235128862426,59.01393901319476L66.06305916018677,51.000142268525444L66.28187118065551,35.40436616806285L66.50878735003052,40.91500528341597L66.72759937049926,52.67125536902182L66.93830724206177,47.97918563802171L67.15711926253051,50.28375297107328L67.37593128299928,65.45746425462704L67.60284745237426,103.42241567406222L67.81355532393677,125.661884050925L68.02426319549927,127.44804173658092L68.23497106706176,108.08808406030295L68.46188723643677,133.73014100880755L68.67259510799926,111.63077554720435L68.88330297956178,673.732589867265L70.85261116378051,252.60644684981176L71.06331903534303,166.23466134748162L71.29023520471802,113.40827788478524L71.51715137409302,95.74435989229347L71.73596339456176,82.82768357295159L71.95477541503051,87.9542117439641L72.16548328659303,81.43015688842672L72.38429530706178,89.35960418994877L72.59500317862427,94.99471357858515L72.80571105018676,99.14410353703317L73.01641892174928,108.17057521435233L73.24333509112427,118.07801724951965L73.45404296268677,125.25091689104771L73.66475083424926,121.16742796808943L73.88356285471802,99.26139638703901L74.11858317299927,92.4640649247234L74.34549934237427,118.90074588537712L74.55620721393677,121.85662376844638L74.76691508549926,119.02858178224908L74.97762295706175,122.99799965523526L75.18833082862427,125.48451465764703L75.42335114690552,114.22792957600795L75.64216316737426,125.56927509858062L75.86097518784301,152.68207479621626L76.07168305940552,146.43051223547386L76.29049507987428,138.27242588641673L76.50120295143677,112.05865772872411L76.72811912081177,106.28672003379242L76.94693114128052,111.43059287904231L77.15763901284302,136.43554944758054L77.36834688440553,131.74087852733345L77.59526305378051,134.90801613055078L77.80597092534302,135.2285306670415L78.01667879690552,107.96332295776111L78.25169911518677,106.15337282004958L78.47051113565553,94.78406968267471L78.70553145393677,128.13592490111907L78.91623932549926,133.9386086637867L79.12694719706177,129.21907540541835L79.33765506862427,133.1132550272396L79.55646708909302,147.6692153220591L79.78338325846802,130.26896333415252L80.00219527893677,105.69713866226701L80.22911144831177,90.84348135937411L80.45602761768676,113.66136363998417L80.67483963815552,104.89752969138678L80.90985995643676,105.3107453676906L81.12867197690552,93.07710407923456L81.36369229518677,101.76401674756133L81.58250431565553,95.41000862830657L81.80942048503051,72.17440903902305L82.04444080331177,55.363442128179216L82.27946112159302,53.51351306968068L82.50637729096802,46.861142569610294L82.74139760924926,69.40565574119174L82.95210548081177,93.97054090399156L83.16281335237427,88.25715303135183L83.39783367065553,75.77549739459927L83.62474984003052,90.98940771359064L83.83545771159302,149.95133427829307L84.04616558315551,148.5990324597798L84.26497760362426,143.4578112578164L84.48378962409302,122.84020489656183L84.71070579346802,121.41864543119868L84.92951781393677,109.08898208442163L85.14832983440552,83.37803685623061L85.38335015268676,72.056825431617L85.61026632206176,66.90986390983866L85.83718249143676,84.3583311351783L86.04789036299927,81.71733548903752L86.26670238346802,82.27220751981625L86.48551440393676,95.56335337860982L86.69622227549927,100.85821851985689L86.90693014706177,75.20417978216103L87.14195046534303,71.40372435108503L87.36886663471802,76.48138545157246L87.58767865518676,125.78375999288767L87.79838652674927,112.42313505066222L88.01719854721802,111.50057764214512L88.22790641878052,130.608500101752L88.43861429034303,686.0534989849981L92.43395970112427,203.08018146774123L92.64466757268677,171.4393022352441L92.85537544424926,149.54072991837575L93.08229161362426,127.22111440862841L93.30920778299927,106.67867290666149L93.53612395237427,117.30598295598571L93.76304012174927,83.16274368834205L93.99806044003053,78.58393725691485L94.21687246049927,88.19413894833413L94.42758033206177,84.42926219527679L94.64639235253051,90.42943992370925L94.85710022409302,84.05068562074852L95.07591224456176,79.09025246449278L95.29472426503052,76.6571946368758L95.51353628549927,65.3609545288242L95.74045245487426,68.00424106867798L95.95926447534302,67.3449437666627L96.17807649581177,68.12583543099323L96.39688851628051,59.011918575255216L96.62380468565551,71.597489144035L96.85072085503052,74.45366736081212L97.08574117331176,95.67213011420267L97.30455319378052,114.6345527768381L97.51526106534303,124.28374440699241L97.74217723471803,110.48902613404738L97.96909340409302,90.22390332113225L98.20411372237427,83.3313467374109L98.43102989174928,90.18555516732587L98.64984191221802,82.53958827947694L98.86865393268677,86.30619567682952L99.08746595315552,81.6377185436435L99.30627797362428,86.08128258464772L99.52508999409302,89.32591802723348L99.76011031237427,105.2566017385912L99.98702648174927,111.28377329513629L100.19773435331176,129.87270509100668L100.40844222487426,121.38748519645482L100.63535839424928,112.5287659841945L100.86227456362427,115.81704042386228L101.07298243518677,104.11134018927527L101.29179445565552,88.76902747030836L101.52681477393676,90.63179654582991L101.74562679440551,93.31026029546958L101.97254296378051,105.42962102258423L102.19945913315553,117.98897405802741L102.41827115362427,110.36770035909328L102.64518732299928,88.2407579564327L102.86399934346802,133.25492839875398L103.07470721503051,155.01209464181676L103.29351923549926,157.23956159850175L103.50422710706177,127.77902756007762L103.73114327643677,138.97036320458017L103.94185114799926,112.82169473426448L104.17687146628052,108.31954757025869L104.39568348674926,109.30194661968098L104.60639135831177,114.67189591883326L104.83330752768677,86.32193573467592L105.06022369706177,75.72407432189306L105.27903571753052,75.17150462516433L105.49784773799927,84.52744903623686L105.71665975846801,83.94347728278322L105.92736763003052,64.6886927810923L106.14617965049926,46.14495522015289L106.37309581987427,47.44236563756776L106.59190784034301,38.48646416862351L106.81882400971801,45.62868330834472L107.03763603018676,69.44743181736293L107.25644805065552,77.00695555267477L107.48336422003052,61.11548253021896L107.71838453831177,80.9600741101221L107.92909240987427,111.43767195070998L108.14790443034302,143.64472975965953L108.35861230190552,124.93771830107886L108.58552847128053,122.33878970060002L108.79623634284302,116.27447843945039L109.02315251221802,129.12003748856011L109.25006868159302,118.31440524160139L109.46077655315551,108.63058171763548L109.67958857362427,103.65333351492082L109.89029644518676,77.83786954636734L110.11721261456177,64.82578649643196L110.34412878393677,66.91600659705058L110.57104495331177,74.14731749068643L110.80606527159301,89.60822373846078L111.02487729206176,62.25834547476101L111.25989761034302,82.7625156484778L111.486813779718,120.15220176110954L111.70562580018677,99.2896959980149L111.92443782065553,90.36683455163728L112.14324984112427,103.75754370108244L112.36206186159302,100.03551839879336L112.58897803096801,89.74000068672866L112.81589420034301,86.42804481292634L113.04281036971803,67.08885238375524L113.27783068799927,97.37470402342173L113.49664270846802,102.85185402498088L113.72355887784302,103.24757251772633L113.95047504721802,100.58214265809495L114.16928706768677,104.11200667837105L114.38809908815551,140.53104763676146L114.59880695971802,125.88289940588857L114.81761898018677,105.57475876143582L115.04453514956177,108.70873395711519L115.25524302112427,130.21995867161348L115.47405504159302,152.97781222906931L115.69286706206178,125.46997813019114L115.91978323143677,101.29734307201484L116.14669940081177,112.03335219902807L116.35740727237426,101.56191441843855L116.58432344174926,112.05495498313955L116.79503131331177,119.26185684403389L117.00573918487427,112.76273719064069L117.22455120534302,93.22675124963135L117.45957152362426,98.4805857061121L117.67838354409302,92.43621260175536L117.90529971346801,125.36895034299658L118.11600758503052,137.43892860528496L118.34292375440552,138.74434718603655L118.55363162596802,120.61163034643211L118.78054779534301,112.53152778470931L119.00746396471801,102.22584611521368L119.23438013409302,90.65047409629737L119.46129630346802,94.56903706344421L119.68010832393676,108.68457763086333L119.89081619549927,114.27642786694281L120.10152406706177,100.43957958412489L120.32844023643676,113.03361297321983L120.53914810799927,109.64545115527768L120.75796012846803,135.88670212854151L120.96866800003052,126.38186940156393L121.18748002049927,115.6404665550886L121.40629204096801,104.67259803003364L121.62510406143676,99.8965120553401L121.84391608190552,104.82764290563381L122.05462395346802,99.38484715508092L122.27343597393677,121.05067320867904L122.48414384549926,132.38297139250997L122.70295586596802,122.61915230967936L122.92176788643677,114.26427456728773L123.14057990690551,142.83109268117198L123.35939192737426,158.54773388911053L123.57009979893678,147.7304080325351L123.78080767049926,155.35710025257063L123.99151554206178,119.16089749943686L124.22653586034302,112.87030163159694L124.46155617862426,119.19748690160995L124.67226405018675,162.58491098305043L124.88297192174926,167.7806291547321L125.09367979331178,144.6031083115593L125.32059596268675,135.64116341518556L125.53130383424927,119.80661253356543L125.75011585471802,111.08373171445434L125.96892787518678,118.4974176668686L126.17963574674927,121.83711260609235L126.39034361831176,117.01080357473951L126.60915563878054,132.16800330930596L126.82796765924927,133.59847085888L127.04677967971803,121.97416011746498L127.26559170018676,114.51803146211594L127.48440372065552,113.30360918976292L127.70321574112427,101.95419452713854L127.93013191049927,120.67436245335709L128.14894393096802,113.5721390178554L128.36775595143678,108.14037332446286L128.60277626971802,156.16998182667407L128.82158829018678,169.66778172065239L129.03229616174926,184.0878300568693L129.67252392534303,189.11352941541426L129.89133594581176,173.44631766414153L130.10204381737427,175.21552462775315L130.32085583784303,145.9405699290305L130.5396678583118,133.9289813766676L130.75847987878052,107.82970362252819L130.9853960481555,90.15262649362595L131.21231221753052,80.08881684972997L131.4392283869055,82.59599171804199L131.65804040737424,66.93682932027151L131.89306072565552,75.25786684340504L132.11187274612428,80.96123613459834L132.33068476659304,64.91566789552543L132.56570508487428,76.1188972437008L132.784517105343,83.32943605347548L133.00332912581177,96.31471665239874L133.21403699737425,86.58134608319695L133.44095316674927,99.72677600842762L133.65166103831177,105.38943142028617L133.86236890987425,90.94266244626598L134.08928507924927,99.7222990530754L134.29999295081177,94.58079176076181L134.51880497128053,84.512844948509L134.74572114065552,77.24440787341973L134.97263731003054,83.58970781681721L135.19144933049927,87.65977138805819L135.41026135096803,71.18643687928439L135.64528166924927,78.99549786663609L135.86409368971803,75.0226150065637L136.09100985909302,82.20126579874629L136.30982187956178,95.17940536593453L136.52052975112426,104.36239580996781L136.73123762268676,88.16936670972629L136.95815379206175,79.36152251685435L137.18506996143677,76.75115277421025L137.41198613081178,74.98421746751833L137.63890230018677,90.50613494966801L137.84961017174928,72.89731674701324L138.08463049003052,90.4435194426843L138.295338361593,88.16491428481825L138.51415038206176,89.27656243475344L138.73296240253052,98.67718084915043L138.94367027409302,73.95168891038526L139.17869059237427,91.18172992797999L139.38939846393677,103.34620451055979L139.60010633549928,96.96520378479904L139.81891835596804,94.16849166442512L140.03773037643677,75.10017385277852L140.272750694718,64.86074239396872L140.50777101299929,77.51134770892386L140.72658303346802,66.41146050550863L140.96160335174926,60.379778326335426L141.19662367003053,55.947199116739895L141.43164398831178,62.38116205214219L141.65856015768676,64.6714672686923L141.88547632706178,74.84293840849807L142.1042883475305,61.47653031705755L142.33930866581176,73.20187219846073L142.55812068628052,77.78879834219747L142.77693270674925,74.16753620564485L143.00384887612427,89.66615335676008L143.21455674768677,74.4875516329059L143.44957706596801,89.83396643528435L143.66028493753052,78.21724091450285L143.88720110690554,83.42549485461828L144.10601312737427,85.54534904777785L144.32482514784303,96.95792646969112L144.5355330194055,85.19002231394309L144.76244918878052,77.73686799441732L144.9893653581555,93.47771394084575L145.20007322971801,74.14718279671519L145.43509354799926,81.17379757968929L145.65390556846802,94.3742452762531L145.86461344003052,81.34283514129515L146.0915296094055,64.85308249248004L146.32654992768676,74.20399475592193L146.54536194815552,80.37824076661786L146.76417396862428,82.87476549102473L146.98298598909304,84.29128931622905L147.20179800956177,84.92373567912836L147.42061003003053,95.73056546957456L147.63131790159304,102.31608317535441L147.8420257731555,87.88739879038037L148.06894194253053,86.83127496992778L148.28775396299926,77.01819165898944L148.51467013237425,80.75999520935338L148.733482152843,82.81218830152575L148.95229417331177,84.63475838632374L149.17110619378053,96.53042676006244L149.381814065343,103.27894545341319L149.5925219369055,104.87828934297562L149.80322980846802,97.064931416785L150.02204182893678,84.32524513997224L150.24895799831177,75.04060082934566L150.47587416768678,80.59197647860101L150.69468618815552,93.173566223206L150.90539405971802,70.64815936559107L151.1404143779993,87.57272754115019L151.35112224956177,70.07816860226316L151.586142567843,76.4251197891472L151.80495458831177,88.28929947429L152.01566245987428,97.41119978105591L152.22637033143678,72.58834397275372L152.46139064971803,77.58609991603186L152.6802026701868,90.54230987879542L152.89091054174926,89.71729258172661L153.109722562218,87.48228360146868L153.32853458268679,95.99035578822905L153.53924245424926,82.56807091908344L153.76615862362428,83.76682512187526L153.984970644093,93.49964291257523L154.19567851565552,82.69899698826322L154.4225946850305,74.63765073516221L154.64951085440552,91.12673327385221L154.86021872596802,71.09839834235954L155.09523904424927,59.32123295986997L155.3302593625305,72.04383517808739L155.54907138299927,90.01231122230855L155.75977925456178,88.61480992798788L155.9785912750305,98.31465886424742L156.18929914659302,94.90978605839561L156.40811116706178,93.83624035356358L156.6269231875305,81.27849329289316L156.8538393569055,92.58743713124123L157.064547228468,89.34869691740442L157.28335924893676,89.95315297591623L157.50217126940552,77.9485605319231L157.7290874387805,81.62294379207137L157.94789945924927,73.68397468349575L158.17481562862426,67.45555504843277L158.40173179799928,65.92983831070335L158.6286479673743,84.08996897212334L158.83935583893677,94.62374256206415L159.05006371049927,91.73708464453635L159.268875730968,83.4256005812847L159.49579190034302,74.60380731506496L159.722708069718,80.40635859102149L159.94152009018677,74.16893533909212L160.1684362595618,80.70896396191498L160.38724828003052,85.19123671132833L160.60606030049928,67.04671319436399L160.84108061878052,77.52798817272298L161.05989263924926,72.11354246382137L161.28680880862427,68.10871258818791L161.51372497799926,65.71814663393502L161.74064114737428,55.946884290899604L161.97566146565552,56.515972736593326L162.2025776350305,66.39599285074814L162.42138965549927,84.28784544632664L162.63209752706177,85.26534863529213L162.8509095475305,94.14148658848782L163.06161741909304,80.45126988218033L163.288533588468,90.16178746397362L163.49924146003053,98.93769288649673L163.709949331593,100.36471876848067L163.9206572031555,93.02042864227772L164.13946922362427,74.8613254135198L164.36638539299926,76.60502825670207L164.58519741346802,78.37075669182879L164.80400943393676,56.126935678156556L165.03902975221803,62.69652129623707L165.25784177268676,67.20358723317412L165.47665379315552,57.298343793681624L165.70356996253054,62.68785395554798L165.92238198299927,76.96352195193367L166.13308985456175,73.33226311260468L166.35190187503053,72.26746751814368L166.57071389549927,71.7606698246437L166.78952591596803,70.6783162582987L167.00833793643676,70.61743680953042L167.22714995690552,70.61135635174216L167.44596197737425,69.80553461726075L167.664773997843,60.82420784489681L167.89169016721803,65.39853882730137L168.11050218768676,47.11678645247023L168.34552250596803,55.46649070706631L168.56433452643677,94.56264688824247L168.78314654690553,65.57408330619786L169.01816686518677,48.66903606938027L169.25318718346801,57.69865081094571L169.47199920393678,63.14882297312272L169.6908112244055,76.37712052780077L169.901519095968,84.08378886879662L170.11222696753052,68.02971078336927L170.3391431369055,67.11809372099967L170.55795515737427,56.005175669823856L170.78487132674928,58.500674723204746L171.00368334721801,69.6075563460496L171.21439121878052,66.73218274417377L171.43320323924925,63.44283940372909L171.65201525971804,72.275016789622L171.86272313128052,78.54557225752488L172.07343100284302,61.18783159342562L172.300347172218,62.149898324279306L172.51915919268677,62.24091850807061L172.73797121315553,70.45079069691346L172.948679084718,66.5393683561992L173.16749110518677,56.95126655392402L173.39440727456176,67.3310901012317L173.6051151461243,55.30783705743496L173.83203131549925,47.67111124168365L174.05894748487427,40.67337018051937L174.28586365424925,57.4747116043052L174.49657152581176,68.69635135996275L174.70727939737426,62.364845001144936L174.92609141784303,48.18327197747462L175.153007587218,50.00715919868277L175.37181960768677,58.298770073579675L175.58252747924928,46.75161682645411L175.80944364862427,29.281615766295687L176.0444639669055,18.94334637989069L176.27948428518675,22.069223237546304L176.50640045456177,33.2646577935804L176.7252124750305,50.318916918371386L176.93592034659304,60.65080854687808L177.1466282181555,56.02791595116503L177.36544023862425,64.00111051479318L177.57614811018675,68.76512600301294L177.78685598174928,71.7398810649249L177.99756385331176,42.081864794875784L178.232584171593,33.95872231968241L178.45950034096802,30.026659236381505L178.686416510343,26.39433672568465L178.91333267971802,33.085457623215184L179.13214470018676,35.63653780912007L179.35095672065552,29.05674617853717L179.57787289003053,16.00413439289802L179.81289320831178,38.62335081354216L180.02360107987425,41.185237035823924L180.24241310034304,54.77146999321029L180.45312097190552,60.81299688757705L180.66382884346802,63.19680644033532L180.8745367150305,54.99590776968185L181.0933487354993,61.58866690784711L181.30405660706177,44.769373541314884L181.53097277643678,55.077089015867784L181.74168064799926,61.80177358789645L181.95238851956177,63.117937510053125L182.16309639112427,33.984150447105485L182.3981167094055,25.615929151225764L182.6250328787805,19.95347873085046L182.85194904815552,17.074886794814468L183.0788652175305,27.339595501564038L183.29767723799927,11.449196542391816L183.5326975562805,34.674625846244666L183.74340542784302,37.11725177064719L183.96221744831178,38.78872871907529L184.1810294687805,41.95022012386233L184.39984148924927,43.08474400684L184.618653509718,52.87869995158997L184.8293613812805,39.91097115522949L185.05627755065552,43.50678986249633L185.27508957112428,45.82493690381775L185.49390159159302,29.13468906183149L185.72892190987426,27.068538272192857L185.95583807924925,24.718204964266302L186.18275424862426,25.1054960814033L186.40967041799925,46.5793933501109L186.62037828956176,59.01331709692197L186.83108616112426,46.783680810545555L187.05800233049925,57.7557293838515L187.26871020206175,55.239664797456605L187.48752222253052,56.42877161672328L187.70633424299928,45.69935717526682L187.93325041237426,49.839307910660104L188.15206243284302,50.63447869207627L188.37087445331176,62.14418777175057L188.5815823248743,49.373715425447024L188.80849849424928,61.52338149417289L189.01920636581178,49.4115035810923L189.24612253518677,31.574176615653137L189.48114285346801,50.79279945840615L189.69185072503052,52.08758664767039L189.91066274549925,63.02600317008518L190.12137061706179,40.57371103071871L190.35639093534303,36.674156591842625L190.58330710471802,43.571325447059934L190.80211912518675,38.911148077240554L191.02903529456177,56.07369906423279L191.23974316612427,65.92685345546356L191.45045103768678,62.089514957379166L191.6692630581555,60.864245750436304L191.88807507862427,58.75844942153411L192.106887099093,57.52839551835156L192.3256991195618,45.723141998384314L192.55261528893678,29.959728030121962L192.78763560721802,40.235895183532804L193.00644762768675,46.67647085960179L193.22525964815551,48.131914539668536L193.44407166862425,50.34086079290547L193.662883689093,41.03700496199957L193.88979985846802,52.601489359172575L194.10050773003053,62.668078163808175L194.311215601593,69.12502216684418L194.5219234731555,51.949789575595545L194.74883964253053,44.30180708242414L194.97575581190551,35.58597461465183L195.20267198128053,30.703896527469944L195.42958815065552,39.67219522642762L195.64840017112425,55.82221706681056L195.85910804268676,55.39184923132535L196.07792006315552,64.09454903955708L196.28862793471802,39.520255623364L196.52364825299927,43.01670602469732L196.74246027346803,44.48105314186361L196.96127229393676,37.14597330487565L197.18818846331175,31.244081992457616L197.41510463268676,36.789313627720354L197.63391665315552,40.616195107800685L197.85272867362426,42.12486385331619L198.07154069409302,45.35544961484153L198.29035271456175,37.187197920473906L198.51726888393677,52.451315994984405L198.72797675549927,31.83556079812681L198.96299707378054,48.584953242220344L199.17370494534302,48.13982613515359L199.39251696581175,48.21515342786756L199.6113289862805,58.957356703505546L199.82203685784302,52.66332725405196L200.04084887831178,30.411490633835847L200.27586919659302,49.26571397687369L200.48657706815553,38.032768271698174L200.7134932375305,52.691692292833274L200.92420110909302,41.6390368444688L201.15111727846804,42.13192096393278L201.36992929893677,34.426498472095645L201.59684546831176,40.36936288690083L201.81565748878052,31.4330993031281L202.04257365815553,36.20847656369682L202.26138567862426,51.426340729939106L202.47209355018677,40.47355124414676L202.69900971956176,34.3653895709027L202.92592588893677,42.23216129208903L203.14473790940553,46.01371879797849L203.36354992987427,48.49314729144271L203.58236195034303,63.20748128207595L203.79306982190553,57.45986190019606L204.01188184237427,64.62392947895225L204.22258971393677,46.76496468937075L204.44950588331176,55.846907022930836L204.6602137548743,43.25201731774659L204.88712992424928,35.05092936140989L205.11404609362427,39.66807820165578L205.33285811409303,52.89672950248146L205.5435659856555,58.1087247600072L205.754273857218,41.353127390090826L205.98119002659303,41.90900625295514L206.2000020470618,52.00231066501223L206.41070991862426,47.90134169953369L206.629521939093,56.63317226726478L206.84022981065553,61.08191883076184L207.05093768221803,52.8340554462482L207.26974970268677,38.92594777139842L207.49666587206175,28.375531392398617L207.72358204143677,20.546904548998857L207.95049821081176,17.652662621763444L208.17741438018678,36.03985319125808L208.38812225174928,16.813082405898225L208.62314257003052,26.765777292189785L208.84195459049928,12.447389508103006L209.07697490878053,12.965261000700433L209.30389107815552,12.903303223985949L209.53080724753053,22.816753536499256L209.74961926799926,28.479742570776086L209.96843128846803,22.906920001071324L210.19534745784304,18.95708881632477L210.422263627218,5.3102403701790815L210.65728394549927,17.00535106730743L210.876095965968,36.461974429913596L211.0868038375305,35.154210013932854L211.30561585799927,26.858700563233388L211.53253202737426,22.67081114111116L211.75944819674928,28.080901172676157L211.978260217218,22.432627326179553L212.20517638659302,28.52618338244841L212.42398840706178,12.947503788457423L212.65900872534303,34.73154918608496L212.8697165969055,35.47680914354733L213.08852861737427,36.647213962618906L213.30734063784303,20.470730496228683L213.54236095612427,18.41721121720048L213.76927712549926,13.862186243487612L213.99619329487427,5.439454925375575L214.23121361315552,16.587134561109664L214.45002563362428,11.339755060596907L214.67694180299927,9.69472221281654L214.90385797237428,16.122874218927052L215.12266999284302,9.071329003808929L215.349586162218,5.7097633151712L215.57650233159302,20.992453191606472L215.79531435206175,15.600220466176868L216.02223052143677,21.75852595489329L216.24104254190553,45.69052901217579L216.451750413468,69.31461318233569L216.6705624339368,117.10827075135784L216.88127030549927,131.5244967898675L217.09197817706178,107.68926902148583L217.30268604862425,110.54645427057189L217.52149806909304,75.8354821091485L217.748414238468,65.47202350127024L217.96722625893676,63.48985284663944" fill="none"></path></g></g></g></g><g opacity="0.2"><g><g><g><path style="fill: none;" stroke="rgb(187, 187, 187)" stroke-width="2px" d="M25.615251969093016,-114.15769458555944L25.834063989561766,45.013608196201226L26.044771861124268,-38.06199102369181L27.37385228174927,-157.76014256845758L27.60887260003052,4.53965371617216L27.819580471593017,-129.87287820551717L28.694828553468017,-50.87724784701834L28.92174472284302,51.096034024431155L29.132452594405517,-28.589548856618304L29.359368763780516,-26.925583235206496L29.570076635343018,143.2399907367883L29.78078450690552,38.5218884986616L29.991492378468017,-11.073046971314215L30.20220025003052,69.21892869688914L30.412908121593016,68.31529288153007L30.623615993155518,89.2758166344074L30.834323864718016,135.28172326596885L31.045031736280517,45.856647256883285L31.25573960784302,100.56424786006487L31.46644747940552,41.55215147289634L31.677155350968015,63.628505992598264L31.887863222530516,66.27796620323107L32.09857109409302,50.98866082754732L32.309278965655515,8.182900703508116L32.51998683721802,-1.2293699492720298L32.73069470878052,3.2951877332788166L32.941402580343016,-11.062415961721753L33.152110451905514,-5.023152032437236L33.36281832346802,11.720900695878726L33.57352619503052,10.607196130972651L33.784234066593015,19.745399356459203L33.99494193815552,23.50941461276549L34.20564980971802,18.193484576151914L34.416357681280516,114.17885029464847L34.627065552843014,36.172010138344305L34.83777342440552,34.31434752215789L35.04848129596802,41.465402434621865L35.259189167530515,28.781970130241838L35.47800118799927,24.741973864915284L35.696813208468015,52.44404604075505L35.90752108003052,54.08717488336563L36.11822895159302,33.117083221855076L36.33704097206177,61.11809938743482L36.54774884362426,65.59630586816256L36.75845671518677,38.39197756144175L36.977268735655514,35.8175722785317L37.19608075612427,9.02487666323094L37.42299692549927,31.49011351382503L37.641808945968016,7.624134839328426L37.86872511534302,59.056108766881316L38.079432986905516,14.106074008042988L38.29824500737426,133.3885530777436L38.50895287893677,103.0149081913187L38.727764899405514,17.2356306118713L38.94657691987427,26.838196336356493L39.165388940343014,2.36880155739188L39.392305109718016,49.59068306613886L39.60301298128052,53.475041351031805L39.81372085284302,4.507122826819229L40.04063702221802,41.17645159389881L40.25944904268677,55.10498774174773L40.47015691424927,54.23409543593342L40.680864785811764,49.74632104657246L40.89157265737427,22.67275415783892L41.110384677843015,45.32148223399886L41.32109254940552,23.76519670356007L41.53990456987427,24.413688288700122L41.75871659034302,-1.3112287231340043L41.985632759718015,43.904368655323985L42.19634063128051,47.646271411677965L42.40704850284302,-35.235843433632304L42.64206882112427,-12.82843927522117L42.868984990499264,18.470741306323273L43.08779701096802,47.14066059546059L43.298504882530516,48.428713717682996L43.50921275409302,-6.28080046722522L43.736128923468016,-22.70039478277931L43.971149241749266,24.747289369711513L44.18996126221801,22.764818700909608L44.40877328268677,56.49127139260449L44.619481154249264,1.9639727121110164L44.84639732362427,-3.2467103295371924L45.07331349299927,52.86205733793057L45.28402136456177,53.95683870576207L45.49472923612427,26.981502345662857L45.71354125659302,23.853221462985633L45.93235327706177,48.76337789965364L46.14306114862426,46.86531744701586L46.35376902018677,33.98627456613458L46.572581040655514,110.85740396767625L46.79139306112427,16.215266311187005L47.01830923049927,84.52481844753716L47.22901710206177,22.230504158792584L47.44782912253052,39.54416638107253L47.65853699409301,36.92808754056005L47.86924486565552,15.964374484804967L48.088056886124264,12.51376139128438L48.30686890659302,42.17449077443893L48.517576778155515,19.44007676096375L48.73638879862427,15.119847082779966L48.955200819093015,-5.252781839634348L49.18211698846802,6.822131475673273L49.40092900893677,40.415909167654235L49.61163688049927,17.42209852012304L49.83044890096802,9.970398656384312L50.04926092143677,-39.04769823310467L50.28428123971802,13.584516677436916L50.503093260186766,25.1059796333611L50.72190528065552,36.96423297317441L50.93261315221802,43.031988008166735L51.143321023780516,7.026884720424048L51.36213304424926,20.601408248844045L51.580945064718016,78.26506737930498L51.791652936280514,11.903966681060886L52.01856910565552,41.40331733860191L52.229276977218014,16.34326366668022L52.44808899768677,12.495476054785343L52.66690101815552,-9.502634234316055L53.12073335690552,-11.162985312466434L53.34764952628052,68.75562929884975L53.55835739784302,13.794585426983922L53.77716941831177,39.920929361029316L53.98787728987427,44.523943894372536L54.206689310343016,43.83973211700183L54.44170962862427,14.702473646179987L54.66862579799927,17.769945153988324L54.887437818468015,14.00125225346135L55.10624983893676,-17.964917869914018L55.33316600831177,-13.13482497167586L55.560082177686766,37.83236121649466L55.770790049249264,15.710718595928878L55.98960206971802,19.73476834686674L56.208414090186764,15.81660345146977L56.42722611065552,-37.088615785406176L56.66224642893677,26.490137082299352L56.881058449405515,18.956365824506836L57.09987046987427,-9.336790484673717L57.32678663924927,39.97472226956715L57.53749451081177,42.574641975499105L57.74820238237427,45.57832742575269L57.958910253936764,42.73410711938602L58.16961812549927,43.73129581915874L58.38032599706177,-2.748115979650842L58.60724216643677,42.90675471516755L58.81795003799927,78.87337374818554L59.028657909561765,30.391292362348395L59.24746993003052,40.523920225113635L59.45817780159302,65.40771175799232L59.67698982206176,75.40723938065996L59.89580184253052,65.81169012250581L60.106509714093015,82.77389116765903L60.31721758565552,21.597108607273842L60.536029606124266,-7.371116811027901L60.76294577549926,18.509225561047977L60.98175779596802,-0.4756313691666663L61.20867396534302,17.893690105644563L61.427485985811764,26.574759918655342L61.64629800628052,25.04772170079443L61.86511002674927,19.303149357412867L62.083922047218024,-7.327529671698798L62.31083821659303,12.947719202848576L62.52965023706177,-7.807838685086151L62.75656640643676,24.897399225157034L62.975378426905515,22.07018853413829L63.19419044737426,1.1311394206377117L63.42110661674926,-16.529518954740105L63.65612693503052,-28.50513864045419L63.891147253311765,29.48382938353602L64.10995927378052,9.042311518962558L64.33687544315552,28.71924717364632L64.55568746362427,30.842897649836086L64.77449948409301,36.65869775748712L64.99331150456176,60.39476549476385L65.20401937612426,42.157481159091006L65.42283139659301,36.12140653268419L65.64164341706177,61.02242030110268L65.85235128862426,75.61943433212546L66.06305916018677,38.979447151521086L66.28187118065551,12.010702017369178L66.50878735003052,49.18096395644545L66.72759937049926,70.30563049743037L66.93830724206177,40.941081041521755L67.15711926253051,53.74060397065145L67.37593128299928,88.21803117995766L67.60284745237426,160.3698428032146L67.81355532393677,159.02108661621924L68.02426319549927,130.12727826506472L68.23497106706176,79.04814754588558L68.46188723643677,172.19322643156465L68.67259510799926,78.48172735479933L68.88330297956178,1516.8853113473558L69.95305063518677,608.6487936995202L70.17996680456177,77.51749478476323L70.41498712284302,110.05125451028003L70.64190329221802,147.67035767434996L70.85261116378051,132.20521540000692L71.06331903534303,36.67698309398614L71.29023520471802,34.1687026907412L71.51715137409302,69.24848290355618L71.73596339456176,63.452669093938965L71.95477541503051,95.64400400048265L72.16548328659303,71.64407460512106L72.38429530706178,101.25377514223182L72.59500317862427,103.44737766153995L72.80571105018676,105.36818847470558L73.01641892174928,121.71028273033065L73.24333509112427,132.93918030227033L73.45404296268677,136.0102663533401L73.66475083424926,115.04219458365212L73.88356285471802,66.40234901546286L74.11858317299927,82.2680677312498L74.34549934237427,158.55576732635728L74.55620721393677,126.29044059305008L74.76691508549926,114.78651880295345L74.97762295706175,128.95212646471424L75.18833082862427,129.21428716126428L75.42335114690552,97.34305195354958L75.64216316737426,142.58129338243947L75.86097518784301,193.35127434266988L76.07168305940552,137.0531683943604L76.29049507987428,126.03529636283103L76.50120295143677,72.73800549218517L76.72811912081177,97.62881349139488L76.94693114128052,119.14640214691711L77.15763901284302,173.9429843003876L77.36834688440553,124.69887214696294L77.59526305378051,139.65872253537637L77.80597092534302,135.70930247177756L78.01667879690552,67.0655113938405L78.25169911518677,103.43844761348228L78.47051113565553,77.73011497661241L78.70553145393677,178.16370772878597L78.91623932549926,142.64263430778797L79.12694719706177,122.13977551786603L79.33765506862427,138.95452445997182L79.55646708909302,169.50315576428864L79.78338325846802,104.16858535229242L80.00219527893677,68.83940165443832L80.22911144831177,68.56299540503437L80.45602761768676,147.88818706089944L80.67483963815552,91.75177876849128L80.90985995643676,105.9305688821467L81.12867197690552,74.72664214655069L81.36369229518677,114.79438575005186L81.58250431565553,85.87899644942468L81.80942048503051,37.32100965509736L82.04444080331177,30.14699176191366L82.27946112159302,50.73861948193266L82.50637729096802,36.88258681950431L82.74139760924926,103.22242549856351L82.95210548081177,130.8178686481909L83.16281335237427,79.6870712223924L83.39783367065553,57.05301393947005L83.62474984003052,113.81027319207787L83.83545771159302,238.39422412534628L84.04616558315551,146.57057973201L84.26497760362426,135.74597945487156L84.48378962409302,91.91379535468039L84.71070579346802,119.28630623315388L84.92951781393677,90.59448706425611L85.14832983440552,44.8116190139445L85.38335015268676,55.07500829469699L85.61026632206176,59.189421627170766L85.83718249143676,110.53103197318774L86.04789036299927,77.75584201982618L86.26670238346802,83.10451556598451L86.48551440393676,115.50007216679936L86.69622227549927,108.80051623172714L86.90693014706177,36.72312167561742L87.14195046534303,65.70304120447086L87.36886663471802,84.09787710230397L87.58767865518676,199.73732180486047L87.79838652674927,92.38219763732414L88.01719854721802,110.11674152936958L88.22790641878052,159.27038379116243L88.43861429034303,1519.2209973098672L90.66725523956177,1420.153143782513L90.89417140893676,74.27567471963854L91.11298342940552,127.43221102328026L91.33179544987426,237.6520733456967L91.55060747034301,125.98267286534836L91.77752363971801,141.64374464648046L91.99633566018676,136.52959117193177L92.22325182956176,201.1020245062445L92.43395970112427,202.2790898883217L92.64466757268677,123.97798338649824L92.85537544424926,116.69287144307334L93.08229161362426,93.7416911440079L93.30920778299927,75.86501065371128L93.53612395237427,133.24694802997203L93.76304012174927,31.94788478687635L93.99806044003053,71.71572760977423L94.21687246049927,102.60944148546227L94.42758033206177,78.78194706569039L94.64639235253051,99.42970651635757L94.85710022409302,74.4825541663078L95.07591224456176,71.64960273010914L95.29472426503052,73.00760789544995L95.51353628549927,48.41659436674761L95.74045245487426,71.96917087845847L95.95926447534302,66.35599781363972L96.17807649581177,69.29717292748964L96.39688851628051,45.34104329164899L96.62380468565551,90.47584499720425L96.85072085503052,78.7379346859776L97.08574117331176,127.49982424428829L97.30455319378052,143.07818677079104L97.51526106534303,138.75753185222356L97.74217723471803,89.7969487246298L97.96909340409302,59.8262191017591L98.20411372237427,72.99251186182866L98.43102989174928,100.46686781219795L98.64984191221802,71.07063794770379L98.86865393268677,91.95610677285836L99.08746595315552,74.63500284386369L99.30627797362428,92.74662864615367L99.52508999409302,94.19287119111188L99.76011031237427,129.15262730562802L99.98702648174927,120.3245306299535L100.19773435331176,157.75610278481244L100.40844222487426,108.65965535462706L100.63535839424928,99.24068716580364L100.86227456362427,120.74945208336415L101.07298243518677,86.55278983739476L101.29179445565552,65.7555583918576L101.52681477393676,93.42595015911184L101.74562679440551,97.32795591992829L101.97254296378051,123.60866211325619L102.19945913315553,136.8280036111921L102.41827115362427,98.93578981069189L102.64518732299928,55.05034435244249L102.86399934346802,200.77618406223564L103.07470721503051,187.64784400641116L103.29351923549926,160.580762033529L103.50422710706177,83.58822650244144L103.73114327643677,155.7573666713341L103.94185114799926,73.59869202879072L104.17687146628052,101.56632682425013L104.39568348674926,110.77554519381431L104.60639135831177,122.72681986756163L104.83330752768677,43.79699545844014L105.06022369706177,59.82728220271836L105.27903571753052,74.34265008007104L105.49784773799927,98.56136565284547L105.71665975846801,83.06751965260277L105.92736763003052,35.80651602855554L106.14617965049926,18.32934887874356L106.37309581987427,49.38848126369026L106.59190784034301,25.05261196520695L106.81882400971801,56.34201201792635L107.03763603018676,105.1755545808902L107.25644805065552,88.34624115564273L107.48336422003052,37.27827299653568L107.71838453831177,110.72696147997678L107.92909240987427,157.15406871159146L108.14790443034302,191.955316473084L108.35861230190552,96.87720111320799L108.58552847128053,118.44039679988187L108.79623634284302,107.17801154772593L109.02315251221802,148.3883760622247L109.25006868159302,102.1059568711634L109.46077655315551,94.10484643168634L109.67958857362427,96.1874612108492L109.89029644518676,39.11467359353717L110.11721261456177,45.30766192152868L110.34412878393677,70.05133674797874L110.57104495331177,84.99428383114017L110.80606527159301,112.79958311012271L111.02487729206176,21.23352807921172L111.25989761034302,113.51877090905262L111.486813779718,176.23673093005672L111.70562580018677,67.99593735337258L111.92443782065553,76.98254238207065L112.14324984112427,123.84360742524953L112.36206186159302,94.45248044535977L112.58897803096801,74.29672411863162L112.81589420034301,81.46011100222285L113.04281036971803,38.08006373999898L113.27783068799927,142.80348148292188L113.49664270846802,111.0675790273192L113.72355887784302,103.84115025684467L113.95047504721802,96.58399786864794L114.16928706768677,109.40680270878512L114.38809908815551,195.15960907434732L114.59880695971802,103.91067705957936L114.81761898018677,75.11254779475699L115.04453514956177,113.40969675063398L115.25524302112427,162.4867957433611L115.47405504159302,187.11459256525336L115.69286706206178,84.2082269818737L115.91978323143677,65.03839048475028L116.14669940081177,128.1373658895481L116.35740727237426,85.85475774755386L116.58432344174926,127.79451583019129L116.79503131331177,130.0722096353758L117.00573918487427,103.0140577105513L117.22455120534302,63.92277233811755L117.45957152362426,106.36133739083317L117.67838354409302,83.36965294522047L117.90529971346801,174.7680569548584L118.11600758503052,155.54389599871752L118.34292375440552,140.70247505716407L118.55363162596802,93.41255508702537L118.78054779534301,100.4113739421253L119.00746396471801,86.76732361097059L119.23438013409302,73.28741606792349L119.46129630346802,100.4468815141641L119.68010832393676,129.8578884819918L119.89081619549927,122.66420322106205L120.10152406706177,79.68430715989837L120.32844023643676,131.9246630568619L120.53914810799927,104.56320842836453L120.75796012846803,175.24857858843757L120.96866800003052,112.12462031109746L121.18748002049927,99.52836228537558L121.40629204096801,88.2207952424517L121.62510406143676,92.73238309329977L121.84391608190552,112.22433918107473L122.05462395346802,91.22065352925199L122.27343597393677,153.54941228907614L122.48414384549926,149.38141866825637L122.70295586596802,107.97342368543376L122.92176788643677,101.73195795370064L123.14057990690551,185.68131985199796L123.35939192737426,182.12269570101796L123.57009979893678,131.50441924767196L123.78080767049926,166.79713858262392L123.99151554206178,64.86659336973612L124.22653586034302,103.43440782983714L124.46155617862426,128.68826480662938L124.67226405018675,227.66604710521148L124.88297192174926,175.57420641225463L125.09367979331178,109.83682704680012L125.32059596268675,122.19824607062453L125.53130383424927,96.0547862111353L125.75011585471802,97.99941048578803L125.96892787518678,129.61794659548997L126.17963574674927,126.84665501492758L126.39034361831176,109.77134002771056L126.60915563878054,154.90380291115548L126.82796765924927,135.74417218324083L127.04677967971803,104.53769400534263L127.26559170018676,103.33383847909249L127.48440372065552,111.48197578123326L127.70321574112427,84.93007253320171L127.93013191049927,148.75461434268493L128.14894393096802,102.91880386460285L128.36775595143678,99.99272478437425L128.60277626971802,228.21439457999057L129.67252392534303,180.04284498434916L129.89133594581176,149.94550003723228L130.10204381737427,177.86933507317076L130.32085583784303,102.02813788094657L130.5396678583118,115.91159854812348L130.75847987878052,68.68078699131883L130.9853960481555,63.637010800272236L131.21231221753052,64.9931023838864L131.4392283869055,86.35675402050981L131.65804040737424,43.448085723615606L131.89306072565552,87.73942312810513L132.11187274612428,89.51629007138884L132.33068476659304,40.847315536916255L132.56570508487428,92.92374126596405L132.784517105343,94.14524426813767L133.00332912581177,115.79263755078385L133.21403699737425,71.98129022939388L133.44095316674927,119.4449208962734L133.65166103831177,113.88341453807399L133.86236890987425,69.27250898523515L134.08928507924927,112.89175396328935L134.29999295081177,86.86853082229082L134.51880497128053,69.41092473012897L134.74572114065552,66.34175226078582L134.97263731003054,93.10765773191359L135.19144933049927,93.76486674491946L135.41026135096803,46.476435116123696L135.64528166924927,90.70908934766284L135.86409368971803,69.06329071645554L136.09100985909302,92.96924198701979L136.30982187956178,114.64661471671668L136.52052975112426,118.13688147601715L136.73123762268676,63.87982305936401L136.95815379206175,66.149756227546L137.18506996143677,72.83559816024395L137.41198613081178,72.33381450747986L137.63890230018677,113.78901117289294L137.84961017174928,46.48408944303027L138.08463049003052,116.76282348619173L138.295338361593,84.74700654801956L138.51415038206176,90.94403465965618L138.73296240253052,112.77810847074596L138.94367027409302,36.863451002237895L139.17869059237427,117.02679145437251L139.38939846393677,121.59291638442988L139.60010633549928,87.39370269615833L139.81891835596804,89.97342348386462L140.03773037643677,46.49769713530862L140.272750694718,49.501595205754036L140.50777101299929,96.48725568135656L140.72658303346802,49.76162970038561L140.96160335174926,51.33225505757561L141.19662367003053,49.29833030234621L141.43164398831178,72.03210645524585L141.65856015768676,68.10692509351784L141.88547632706178,90.10014511820674L142.1042883475305,41.42691817989716L142.33930866581176,90.78988502056552L142.55812068628052,84.66918755780276L142.77693270674925,68.73564300081593L143.00384887612427,112.91407908343352L143.21455674768677,51.719649047124854L143.44957706596801,112.85358863885243L143.66028493753052,60.79215263333L143.88720110690554,91.23787576479178L144.10601312737427,88.72513033751798L144.32482514784303,114.07679260256084L144.5355330194055,67.53816608032126L144.76244918878052,66.55713651512907L144.9893653581555,117.08898286048839L145.20007322971801,45.15138608051951L145.43509354799926,91.71371975415028L145.65390556846802,114.17491682109925L145.86461344003052,61.795719938858205L146.0915296094055,40.11845351925721L146.32654992768676,88.23036315108492L146.54536194815552,89.63960978266137L146.76417396862428,86.61955257763542L146.98298598909304,86.41607505403573L147.20179800956177,85.87240522347734L147.42061003003053,111.94081015524382L147.63131790159304,112.19435973402399L147.8420257731555,66.2443722129189L148.06894194253053,85.24708923924887L148.28775396299926,62.29856669258155L148.51467013237425,86.37270053489851L148.733482152843,85.89047793978452L148.95229417331177,87.36861351352015L149.17110619378053,114.37392932067009L149.381814065343,113.40172349343963L149.5925219369055,107.27730517731952L149.80322980846802,85.34489452749949L150.02204182893678,65.2157157247525L150.24895799831177,61.113634363405986L150.47587416768678,88.91903995248447L150.69468618815552,112.04595084011325L150.90539405971802,36.8600490791683L151.1404143779993,112.95957980448925L151.35112224956177,43.836330193932234L151.586142567843,85.94554656947346L151.80495458831177,106.08556900200477L152.01566245987428,111.09405024120441L152.22637033143678,35.35406026030046L152.46139064971803,85.08273383094942L152.6802026701868,109.97662482294096L152.89091054174926,88.47976663612401L153.109722562218,84.12977013108133L153.32853458268679,108.75246406836924L153.53924245424926,62.43464361536503L153.76615862362428,85.56495642606342L153.984970644093,108.0988695986248L154.19567851565552,66.498028101795L154.4225946850305,62.5456313555103L154.64951085440552,115.86035708188781L154.86021872596802,41.05589594512031L155.09523904424927,41.655484886135056L155.3302593625305,91.12773850541389L155.54907138299927,116.9650252886403L155.75977925456178,86.51855798650705L155.9785912750305,112.86443226863675L156.18929914659302,89.80247684961786L156.40811116706178,92.22592179631499L156.6269231875305,62.441872701887895L156.8538393569055,109.55085288876295L157.064547228468,84.49058659664942L157.28335924893676,90.8598370636839L157.50217126940552,59.94167186593322L157.7290874387805,87.13451868229417L157.94789945924927,61.77552102063252L158.17481562862426,58.112925595838284L158.40173179799928,63.641263204109215L158.6286479673743,111.33016496425294L158.83935583893677,110.42440294697536L159.05006371049927,87.40709776824482L159.268875730968,70.95837448640741L159.49579190034302,61.37111741573536L159.722708069718,89.11018550495689L159.94152009018677,64.81280046119828L160.1684362595618,90.51900689614965L160.38724828003052,91.91464583544776L160.60606030049928,39.82992791891786L160.84108061878052,93.2499006402607L161.05989263924926,63.99187390046853L161.28680880862427,62.10146777473733L161.51372497799926,62.13229770255548L161.74064114737428,41.28999077634628L161.97566146565552,57.36960540513351L162.2025776350305,81.21602302197996L162.42138965549927,111.12562433969403L162.63209752706177,86.73160341873995L162.8509095475305,107.455693518281L163.06161741909304,59.91594482271947L163.288533588468,104.72756383666395L163.49924146003053,112.10155102028182L163.709949331593,102.50525759145617L163.9206572031555,82.00399345297308L164.13946922362427,47.6226705703827L164.36638539299926,79.22058252147528L164.58519741346802,81.01934934451945L164.80400943393676,22.761204157648173L165.03902975221803,72.55089972335789L165.25784177268676,73.96418613857948L165.47665379315552,42.44047863444228L165.70356996253054,70.77211919834753L165.92238198299927,98.3770239465122L166.13308985456175,67.885374853611L166.35190187503053,70.67027412645174L166.57071389549927,71.00047328439354L166.78952591596803,69.05478590878157L167.00833793643676,70.526117636378L167.22714995690552,70.60223566506L167.44596197737425,68.5968020155384L167.664773997843,47.352217686350535L167.89169016721803,72.26003530090819L168.11050218768676,19.694157890223547L168.34552250596803,67.99104708896003L168.56433452643677,153.20688116000707L168.78314654690553,22.09123793313136L169.01816686518677,23.31146521415389L169.25318718346801,71.24307292329348L169.47199920393678,71.32408121638801L169.6908112244055,96.21956685981841L169.901519095968,95.64379138029079L170.11222696753052,43.94859365522861L170.3391431369055,65.75066812744508L170.55795515737427,39.335798593060325L170.78487132674928,62.2439233032763L171.00368334721801,86.26787878031685L171.21439121878052,62.41912234136003L171.43320323924925,58.50882439306149L171.65201525971804,85.52328286846097L171.86272313128052,87.95140545937876L172.07343100284302,35.151220597276314L172.300347172218,63.59299842055944L172.51915919268677,62.3774487837576L172.73797121315553,82.76559898017692L172.948679084718,60.67223484512704L173.16749110518677,42.569113850511044L173.39440727456176,82.900825422193L173.6051151461243,37.27295749173945L173.83203131549925,36.216022518057095L174.05894748487427,30.176758588772557L174.28586365424925,82.67672373998396L174.49657152581176,85.52881099344906L174.70727939737426,52.867585462918655L174.92609141784303,26.91091244196891L175.153007587218,52.74299003049502L175.37181960768677,70.736186385925L175.58252747924928,29.430886955765583L175.80944364862427,3.0766141760578565L176.0444639669055,3.4359423002829836L176.27948428518675,26.758038524029338L176.50640045456177,50.05780962763153L176.7252124750305,75.90030560555824L176.93592034659304,76.14864598963811L177.1466282181555,49.09357705759543L177.36544023862425,75.96090236023528L177.57614811018675,75.91114923534256L177.78685598174928,76.20201365779225L177.99756385331176,-2.4051596101980786L178.232584171593,21.774008606892373L178.45950034096802,24.128564611430356L178.686416510343,20.945852959639755L178.91333267971802,43.12213896951079L179.13214470018676,39.463158087977995L179.35095672065552,19.187058732663203L179.57787289003053,-3.5747832855605166L179.81289320831178,72.55217544450898L180.02360107987425,45.02806636924698L180.24241310034304,75.15081942928984L180.45312097190552,69.87528722912761L180.66382884346802,66.77252076947231L180.8745367150305,42.69455976370206L181.0933487354993,71.477805615095L181.30405660706177,19.540433491516573L181.53097277643678,70.5386622276971L181.74168064799926,71.88880044593948L181.95238851956177,65.09218339328811L182.16309639112427,-9.716530147316348L182.3981167094055,13.063597207406387L182.6250328787805,11.459803100287916L182.85194904815552,12.756998890759862L183.0788652175305,42.7366585616882L183.29767723799927,-12.386401896366689L183.5326975562805,69.51276980202474L183.74340542784302,40.78119065725116L183.96221744831178,41.29594414171805L184.1810294687805,46.692457231042475L184.39984148924927,44.78652983130629L184.618653509718,67.56963386871493L184.8293613812805,20.45937796068879L185.05627755065552,48.90051792339637L185.27508957112428,49.302157465799496L185.49390159159302,4.099317298852478L185.72892190987426,23.9693120877353L185.95583807924925,21.192705002376666L186.18275424862426,25.6864327571094L186.40967041799925,78.79023925317252L186.62037828956176,77.66420271713918L186.83108616112426,28.43922638098093L187.05800233049925,74.21380224381042L187.26871020206175,51.46556791786506L187.48752222253052,58.21243184562371L187.70633424299928,29.605235513081915L187.93325041237426,56.04923401375001L188.15206243284302,51.82723486420055L188.37087445331176,79.40875139126182L188.5815823248743,30.2180069059913L188.80849849424928,79.74788059726129L189.01920636581178,31.243686711471806L189.24612253518677,4.8181861674946065L189.48114285346801,79.62073372253545L189.69185072503052,54.029767431566356L189.91066274549925,79.43362795370817L190.12137061706179,6.8952728216693995L190.35639093534303,30.8248249335289L190.58330710471802,53.91707872988627L190.80211912518675,31.920882022511506L191.02903529456177,81.81752554472135L191.23974316612427,80.7065850423093L191.45045103768678,56.33350721025238L191.6692630581555,59.02634194002244L191.88807507862427,55.59975492818081L192.106887099093,55.68331466357754L192.3256991195618,28.01526171843363L192.55261528893678,6.3146070777292405L192.78763560721802,55.65014591364906L193.00644762768675,56.33733437370566L193.22525964815551,50.31508005976905L193.44407166862425,53.654280172760664L193.662883689093,27.08122121564012L193.88979985846802,69.94821595493188L194.10050773003053,77.76796137076158L194.311215601593,78.81043817139818L194.5219234731555,26.186940688722405L194.74883964253053,32.8298333426668L194.97575581190551,22.512225912992772L195.20267198128053,23.38077939669673L195.42958815065552,53.124643274864326L195.64840017112425,80.04724982738495L195.85910804268676,54.74629747809814L196.07792006315552,77.14859875190488L196.28862793471802,2.6588154990741875L196.52364825299927,48.26138162669769L196.74246027346803,46.67757381761304L196.96127229393676,26.14335354939332L197.18818846331175,22.391245023830585L197.41510463268676,45.10716108061488L197.63391665315552,46.35651732792074L197.85272867362426,44.38786697158906L198.07154069409302,50.20132825712975L198.29035271456175,24.934820378922506L198.51726888393677,75.34749310675033L198.72797675549927,0.9119280028412069L198.96299707378054,73.70904190836045L199.17370494534302,47.47213547455347L199.39251696581175,48.32814436693833L199.6113289862805,75.07066161696268L199.82203685784302,43.222283079871765L200.04084887831178,-2.9662642964881125L200.27586919659302,77.54704899143026L200.48657706815553,21.183349713935296L200.7134932375305,74.68007832453571L200.92420110909302,25.060053671921672L201.15111727846804,42.871247143128734L201.36992929893677,22.868364734340176L201.59684546831176,49.283659509108624L201.81565748878052,18.02870392746879L202.04257365815553,43.3715424545499L202.26138567862426,74.25313697930252L202.47209355018677,24.04436701545808L202.69900971956176,25.20314706103618L202.92592588893677,54.03231887386853L203.14473790940553,51.68605505681267L203.36354992987427,52.21229003163943L203.58236195034303,85.27898226802625L203.79306982190553,48.8384328273764L204.01188184237427,75.37003084708634L204.22258971393677,19.97651750499928L204.44950588331176,69.4698205232712L204.6602137548743,24.359682759970433L204.88712992424928,22.749297426904622L205.11404609362427,46.59380146202445L205.33285811409303,72.73970645371998L205.5435659856555,65.92671764629621L205.754273857218,16.219731335215837L205.98119002659303,42.74282454725183L206.2000020470618,67.14226728309806L206.41070991862426,41.74988825131609L206.629521939093,69.73091811886201L206.84022981065553,67.75503867600744L207.05093768221803,40.46226036947737L207.26974970268677,18.06378625912392L207.49666587206175,12.549906823898743L207.72358204143677,8.803964283899617L207.95049821081176,13.3112997309107L208.17741438018678,63.620639045499836L208.38812225174928,-12.027073772141561L208.62314257003052,41.69481962162714L208.84195459049928,-9.03019216802715L209.07697490878053,13.742068239597176L209.30389107815552,12.810366558914007L209.53080724753053,37.686929005269825L209.74961926799926,36.974226122191325L209.96843128846803,14.54768614651378L210.19534745784304,13.032342039204565L210.422263627218,-15.160032299039472L210.65728394549927,34.548017113000164L210.876095965968,65.64690947382266L211.0868038375305,33.19256338996153L211.30561585799927,14.415436387183567L211.53253202737426,16.38897700792781L211.75944819674928,36.19603622002326L211.978260217218,13.960216556434446L212.20517638659302,37.666517466852305L212.42398840706178,-10.420515602529038L212.65900872534303,67.40761728252585L212.8697165969055,36.594699079740515L213.08852861737427,38.40282119122607L213.30734063784303,-3.793994703357041L213.54236095612427,15.336932298657981L213.76927712549926,7.029648782918081L213.99619329487427,-7.1946420517930605L214.23121361315552,33.308654014711195L214.45002563362428,3.4686858098277695L214.67694180299927,7.227172941145992L214.90385797237428,25.765102228093614L215.12266999284302,-1.505988818867842L215.349586162218,0.6674147822146163L215.57650233159302,43.91648800625939L215.79531435206175,7.511871378032068L216.02223052143677,30.995984187967494L216.24104254190553,81.58853359809976L216.451750413468,104.75073943757553L216.6705624339368,188.79875710489085L216.88127030549927,153.14883584763226L217.09197817706178,71.93642736891371L217.30268604862425,114.83223214420103L217.52149806909304,23.769023867013356L217.748414238468,49.92683558945243L217.96722625893676,60.51659686469344" fill="none"></path></g></g></g></g></g></g><g transform="translate(82, 176)" clip-path="url(#clip_1)"><clipPath id="clip_1"><rect width="247" height="23"></rect></clipPath><g><g><line x1="0" y1="0" x2="0" y2="5" style="visibility: inherit;" fill="rgb(0, 0, 0)" stroke="rgb(204, 204, 204)" stroke-width="1px"></line><line x1="24.731899738311768" y1="0" x2="24.731899738311768" y2="5" style="visibility: inherit;" fill="rgb(0, 0, 0)" stroke="rgb(204, 204, 204)" stroke-width="1px"></line><line x1="49.463799476623535" y1="0" x2="49.463799476623535" y2="5" style="visibility: inherit;" fill="rgb(0, 0, 0)" stroke="rgb(204, 204, 204)" stroke-width="1px"></line><line x1="74.1956992149353" y1="0" x2="74.1956992149353" y2="5" style="visibility: inherit;" fill="rgb(0, 0, 0)" stroke="rgb(204, 204, 204)" stroke-width="1px"></line><line x1="98.92759895324707" y1="0" x2="98.92759895324707" y2="5" style="visibility: inherit;" fill="rgb(0, 0, 0)" stroke="rgb(204, 204, 204)" stroke-width="1px"></line><line x1="123.65949869155884" y1="0" x2="123.65949869155884" y2="5" style="visibility: inherit;" fill="rgb(0, 0, 0)" stroke="rgb(204, 204, 204)" stroke-width="1px"></line><line x1="148.3913984298706" y1="0" x2="148.3913984298706" y2="5" style="visibility: inherit;" fill="rgb(0, 0, 0)" stroke="rgb(204, 204, 204)" stroke-width="1px"></line><line x1="173.12329816818237" y1="0" x2="173.12329816818237" y2="5" style="visibility: inherit;" fill="rgb(0, 0, 0)" stroke="rgb(204, 204, 204)" stroke-width="1px"></line><line x1="197.85519790649414" y1="0" x2="197.85519790649414" y2="5" style="visibility: inherit;" fill="rgb(0, 0, 0)" stroke="rgb(204, 204, 204)" stroke-width="1px"></line><line x1="222.5870976448059" y1="0" x2="222.5870976448059" y2="5" style="visibility: inherit;" fill="rgb(0, 0, 0)" stroke="rgb(204, 204, 204)" stroke-width="1px"></line><line x1="247.31899738311768" y1="0" x2="247.31899738311768" y2="5" style="visibility: inherit;" fill="rgb(0, 0, 0)" stroke="rgb(204, 204, 204)" stroke-width="1px"></line></g><g transform="translate(0, 8)"><text style="text-anchor: middle; visibility: hidden; font-family: Roboto, sans-serif; font-size: 12px; font-weight: 200;" x="0" y="0" dx="0em" dy="0.95em" fill="rgb(33, 33, 33)" stroke="none" stroke-width="1px">-50M</text><text style="text-anchor: middle; visibility: inherit; font-family: Roboto, sans-serif; font-size: 12px; font-weight: 200;" x="24.731899738311768" y="0" dx="0em" dy="0.95em" fill="rgb(33, 33, 33)" stroke="none" stroke-width="1px">0</text><text style="text-anchor: middle; visibility: hidden; font-family: Roboto, sans-serif; font-size: 12px; font-weight: 200;" x="49.463799476623535" y="0" dx="0em" dy="0.95em" fill="rgb(33, 33, 33)" stroke="none" stroke-width="1px">50M</text><text style="text-anchor: middle; visibility: inherit; font-family: Roboto, sans-serif; font-size: 12px; font-weight: 200;" x="74.1956992149353" y="0" dx="0em" dy="0.95em" fill="rgb(33, 33, 33)" stroke="none" stroke-width="1px">100M</text><text style="text-anchor: middle; visibility: hidden; font-family: Roboto, sans-serif; font-size: 12px; font-weight: 200;" x="98.92759895324707" y="0" dx="0em" dy="0.95em" fill="rgb(33, 33, 33)" stroke="none" stroke-width="1px">150M</text><text style="text-anchor: middle; visibility: inherit; font-family: Roboto, sans-serif; font-size: 12px; font-weight: 200;" x="123.65949869155884" y="0" dx="0em" dy="0.95em" fill="rgb(33, 33, 33)" stroke="none" stroke-width="1px">200M</text><text style="text-anchor: middle; visibility: hidden; font-family: Roboto, sans-serif; font-size: 12px; font-weight: 200;" x="148.3913984298706" y="0" dx="0em" dy="0.95em" fill="rgb(33, 33, 33)" stroke="none" stroke-width="1px">250M</text><text style="text-anchor: middle; visibility: inherit; font-family: Roboto, sans-serif; font-size: 12px; font-weight: 200;" x="173.12329816818237" y="0" dx="0em" dy="0.95em" fill="rgb(33, 33, 33)" stroke="none" stroke-width="1px">300M</text><text style="text-anchor: middle; visibility: hidden; font-family: Roboto, sans-serif; font-size: 12px; font-weight: 200;" x="197.85519790649414" y="0" dx="0em" dy="0.95em" fill="rgb(33, 33, 33)" stroke="none" stroke-width="1px">350M</text><text style="text-anchor: middle; visibility: inherit; font-family: Roboto, sans-serif; font-size: 12px; font-weight: 200;" x="222.5870976448059" y="0" dx="0em" dy="0.95em" fill="rgb(33, 33, 33)" stroke="none" stroke-width="1px">400M</text><text style="text-anchor: middle; visibility: hidden; font-family: Roboto, sans-serif; font-size: 12px; font-weight: 200;" x="247.31899738311768" y="0" dx="0em" dy="0.95em" fill="rgb(33, 33, 33)" stroke="none" stroke-width="1px">450M</text></g><line x1="0" y1="0" x2="247.31899738311768" y2="0" fill="rgb(0, 0, 0)" stroke="rgb(204, 204, 204)" stroke-width="1px"></line></g></g></g></g></svg>