<svg viewBox="0 0 330 200" xmlns="http://www.w3.org/2000/svg"><g><g><g><g><g><line x1="41.149001121520996" y1="176.89999961853027" x2="36.149001121520996" y2="176.89999961853027" style="visibility: inherit;" fill="rgb(0, 0, 0)" stroke="rgb(204, 204, 204)" stroke-width="1px"></line><line x1="41.149001121520996" y1="157.24444410536023" x2="36.149001121520996" y2="157.24444410536023" style="visibility: inherit;" fill="rgb(0, 0, 0)" stroke="rgb(204, 204, 204)" stroke-width="1px"></line><line x1="41.149001121520996" y1="137.58888859219022" x2="36.149001121520996" y2="137.58888859219022" style="visibility: inherit;" fill="rgb(0, 0, 0)" stroke="rgb(204, 204, 204)" stroke-width="1px"></line><line x1="41.149001121520996" y1="117.9333330790202" x2="36.149001121520996" y2="117.9333330790202" style="visibility: inherit;" fill="rgb(0, 0, 0)" stroke="rgb(204, 204, 204)" stroke-width="1px"></line><line x1="41.149001121520996" y1="98.27777756585016" x2="36.149001121520996" y2="98.27777756585016" style="visibility: inherit;" fill="rgb(0, 0, 0)" stroke="rgb(204, 204, 204)" stroke-width="1px"></line><line x1="41.149001121520996" y1="78.62222205268012" x2="36.149001121520996" y2="78.62222205268012" style="visibility: inherit;" fill="rgb(0, 0, 0)" stroke="rgb(204, 204, 204)" stroke-width="1px"></line><line x1="41.149001121520996" y1="58.9666665395101" x2="36.149001121520996" y2="58.9666665395101" style="visibility: inherit;" fill="rgb(0, 0, 0)" stroke="rgb(204, 204, 204)" stroke-width="1px"></line><line x1="41.149001121520996" y1="39.31111102634006" x2="36.149001121520996" y2="39.31111102634006" style="visibility: inherit;" fill="rgb(0, 0, 0)" stroke="rgb(204, 204, 204)" stroke-width="1px"></line><line x1="41.149001121520996" y1="19.65555551317004" x2="36.149001121520996" y2="19.65555551317004" style="visibility: inherit;" fill="rgb(0, 0, 0)" stroke="rgb(204, 204, 204)" stroke-width="1px"></line><line x1="41.149001121520996" y1="0" x2="36.149001121520996" y2="0" style="visibility: inherit;" fill="rgb(0, 0, 0)" stroke="rgb(204, 204, 204)" stroke-width="1px"></line></g><g transform="translate(31.149001121520996, 0)"><text style="text-anchor: end; visibility: hidden; font-family: Roboto, sans-serif; font-size: 12px; font-weight: 200;" x="0" y="176.89999961853027" dx="0em" dy="0.3em" fill="rgb(33, 33, 33)" stroke="none" stroke-width="1px">0</text><text style="text-anchor: end; visibility: inherit; font-family: Roboto, sans-serif; font-size: 12px; font-weight: 200;" x="0" y="157.24444410536023" dx="0em" dy="0.3em" fill="rgb(33, 33, 33)" stroke="none" stroke-width="1px">50</text><text style="text-anchor: end; visibility: hidden; font-family: Roboto, sans-serif; font-size: 12px; font-weight: 200;" x="0" y="137.58888859219022" dx="0em" dy="0.3em" fill="rgb(33, 33, 33)" stroke="none" stroke-width="1px">100</text><text style="text-anchor: end; visibility: inherit; font-family: Roboto, sans-serif; font-size: 12px; font-weight: 200;" x="0" y="117.9333330790202" dx="0em" dy="0.3em" fill="rgb(33, 33, 33)" stroke="none" stroke-width="1px">150</text><text style="text-anchor: end; visibility: hidden; font-family: Roboto, sans-serif; font-size: 12px; font-weight: 200;" x="0" y="98.27777756585016" dx="0em" dy="0.3em" fill="rgb(33, 33, 33)" stroke="none" stroke-width="1px">200</text><text style="text-anchor: end; visibility: inherit; font-family: Roboto, sans-serif; font-size: 12px; font-weight: 200;" x="0" y="78.62222205268012" dx="0em" dy="0.3em" fill="rgb(33, 33, 33)" stroke="none" stroke-width="1px">250</text><text style="text-anchor: end; visibility: hidden; font-family: Roboto, sans-serif; font-size: 12px; font-weight: 200;" x="0" y="58.9666665395101" dx="0em" dy="0.3em" fill="rgb(33, 33, 33)" stroke="none" stroke-width="1px">300</text><text style="text-anchor: end; visibility: inherit; font-family: Roboto, sans-serif; font-size: 12px; font-weight: 200;" x="0" y="39.31111102634006" dx="0em" dy="0.3em" fill="rgb(33, 33, 33)" stroke="none" stroke-width="1px">350</text><text style="text-anchor: end; visibility: hidden; font-family: Roboto, sans-serif; font-size: 12px; font-weight: 200;" x="0" y="19.65555551317004" dx="0em" dy="0.3em" fill="rgb(33, 33, 33)" stroke="none" stroke-width="1px">400</text><text style="text-anchor: end; visibility: hidden; font-family: Roboto, sans-serif; font-size: 12px; font-weight: 200;" x="0" y="0" dx="0em" dy="0.3em" fill="rgb(33, 33, 33)" stroke="none" stroke-width="1px">450</text></g><line x1="41.149001121520996" y1="0" x2="41.149001121520996" y2="176.89999961853027" fill="rgb(0, 0, 0)" stroke="rgb(204, 204, 204)" stroke-width="1px"></line></g></g><g transform="translate(41, 0)" clip-path="url(#clip_0)"><clipPath id="clip_0"><rect width="288" height="176"></rect></clipPath><g><g><g><line x1="0" y1="0" x2="0" y2="176.89999961853027" fill="rgb(0, 0, 0)" stroke="rgb(66, 66, 66)" stroke-width="1px" opacity="0.25"></line><line x1="32.09455543094211" y1="0" x2="32.09455543094211" y2="176.89999961853027" fill="rgb(0, 0, 0)" stroke="rgb(66, 66, 66)" stroke-width="1px" opacity="0.25"></line><line x1="64.18911086188422" y1="0" x2="64.18911086188422" y2="176.89999961853027" fill="rgb(0, 0, 0)" stroke="rgb(66, 66, 66)" stroke-width="1px" opacity="0.25"></line><line x1="96.28366629282633" y1="0" x2="96.28366629282633" y2="176.89999961853027" fill="rgb(0, 0, 0)" stroke="rgb(66, 66, 66)" stroke-width="1px" opacity="0.25"></line><line x1="128.37822172376843" y1="0" x2="128.37822172376843" y2="176.89999961853027" fill="rgb(0, 0, 0)" stroke="rgb(66, 66, 66)" stroke-width="1px" opacity="0.25"></line><line x1="160.47277715471057" y1="0" x2="160.47277715471057" y2="176.89999961853027" fill="rgb(0, 0, 0)" stroke="rgb(66, 66, 66)" stroke-width="1px" opacity="0.25"></line><line x1="192.56733258565265" y1="0" x2="192.56733258565265" y2="176.89999961853027" fill="rgb(0, 0, 0)" stroke="rgb(66, 66, 66)" stroke-width="1px" opacity="0.25"></line><line x1="224.6618880165948" y1="0" x2="224.6618880165948" y2="176.89999961853027" fill="rgb(0, 0, 0)" stroke="rgb(66, 66, 66)" stroke-width="1px" opacity="0.25"></line><line x1="256.75644344753687" y1="0" x2="256.75644344753687" y2="176.89999961853027" fill="rgb(0, 0, 0)" stroke="rgb(66, 66, 66)" stroke-width="1px" opacity="0.25"></line><line x1="288.850998878479" y1="0" x2="288.850998878479" y2="176.89999961853027" fill="rgb(0, 0, 0)" stroke="rgb(66, 66, 66)" stroke-width="1px" opacity="0.25"></line></g><g><line x1="0" y1="176.89999961853027" x2="288.850998878479" y2="176.89999961853027" fill="rgb(0, 0, 0)" stroke="rgb(66, 66, 66)" stroke-width="1px" opacity="0.25"></line><line x1="0" y1="157.24444410536023" x2="288.850998878479" y2="157.24444410536023" fill="rgb(0, 0, 0)" stroke="rgb(66, 66, 66)" stroke-width="1px" opacity="0.25"></line><line x1="0" y1="137.58888859219022" x2="288.850998878479" y2="137.58888859219022" fill="rgb(0, 0, 0)" stroke="rgb(66, 66, 66)" stroke-width="1px" opacity="0.25"></line><line x1="0" y1="117.9333330790202" x2="288.850998878479" y2="117.9333330790202" fill="rgb(0, 0, 0)" stroke="rgb(66, 66, 66)" stroke-width="1px" opacity="0.25"></line><line x1="0" y1="98.27777756585016" x2="288.850998878479" y2="98.27777756585016" fill="rgb(0, 0, 0)" stroke="rgb(66, 66, 66)" stroke-width="1px" opacity="0.25"></line><line x1="0" y1="78.62222205268012" x2="288.850998878479" y2="78.62222205268012" fill="rgb(0, 0, 0)" stroke="rgb(66, 66, 66)" stroke-width="1px" opacity="0.25"></line><line x1="0" y1="58.9666665395101" x2="288.850998878479" y2="58.9666665395101" fill="rgb(0, 0, 0)" stroke="rgb(66, 66, 66)" stroke-width="1px" opacity="0.25"></line><line x1="0" y1="39.31111102634006" x2="288.850998878479" y2="39.31111102634006" fill="rgb(0, 0, 0)" stroke="rgb(66, 66, 66)" stroke-width="1px" opacity="0.25"></line><line x1="0" y1="19.65555551317004" x2="288.850998878479" y2="19.65555551317004" fill="rgb(0, 0, 0)" stroke="rgb(66, 66, 66)" stroke-width="1px" opacity="0.25"></line><line x1="0" y1="0" x2="288.850998878479" y2="0" fill="rgb(0, 0, 0)" stroke="rgb(66, 66, 66)" stroke-width="1px" opacity="0.25"></line></g></g></g><g><g><line x1="0" y1="176.89999961853027" x2="288.850998878479" y2="176.89999961853027" fill="rgb(0, 0, 0)" stroke="rgb(153, 153, 153)" stroke-width="1.5px"></line></g></g><g><g><line x1="32.09455543094211" y1="0" x2="32.09455543094211" y2="176.89999961853027" fill="rgb(0, 0, 0)" stroke="rgb(153, 153, 153)" stroke-width="1.5px"></line></g></g><g><g><g><g><g><path style="fill: none;" stroke="rgb(187, 187, 187)" stroke-width="2px" d="M32.09455543094211,167.93074504116152L32.857019365403914,168.9728076234735L33.56689958024767,169.43453270424814L34.276779795091414,169.41087086370987L34.960368150126136,169.18296444204452L35.67024836496989,168.99821328013252L36.35383672000461,168.72015419591295L37.03742507503934,168.57427402531806L37.72101343007405,168.2510189645388L38.43089364491781,167.88533906712468L39.193357579379615,167.41285355028432L39.929529654032386,166.7244727385309L40.665701728685164,166.1490037458078L41.42816566314697,164.8802669488635L42.1117540181817,163.73661493393652L42.8742179526435,163.26757229958443L43.55780630767823,163.14805604027842L44.24139466271294,162.1599644514932L44.9512748775567,161.1412758049509L45.68744695220947,160.8939191781595L46.3710353072442,160.47531495494255L47.10720738189697,160.23922887543537L47.79079573693169,163.22547114221268L48.47438409196642,164.9956610542171L49.157972447001136,165.3285052413273L49.84156080203586,165.38179356521744L50.52514915707059,165.2147720932542L51.2087375121053,165.12378846263414L51.89232586714003,165.05700027020325L52.57591422217475,164.92512214562345L53.25950257720947,164.75418227486185L53.943090932244196,164.52087394167916L54.62667928727892,164.63434593847632L55.31026764231363,164.68362594960516L55.99385599734836,164.39797685604884L56.677444352383084,164.10626130717327L57.36103270741781,163.61305887261503L58.04462106245253,163.66609790564198L58.72820941748725,163.57839061819732L59.41179777252198,162.9982052087582L60.095386127556694,162.1629459438244L60.778974482591416,161.43744484496506L61.462562837626145,160.38431563444163L62.14615119266086,159.56813848303662L62.82973954769558,157.6615034564499L63.51332790273031,156.34970761689303L64.19691625776503,155.15533938633178L64.88050461279975,153.59768225291896L65.56409296783447,152.25675399074575L66.2476813228692,151.2200265810713L66.95756153771295,148.66575209418193L67.6674417525567,146.38946744109273L68.35103010759141,144.40930218170877L69.03461846262614,142.535728724037L69.74449867746989,138.9750575625383L70.4280870325046,137.09088876470062L71.11167538753934,134.8853759201198L71.82155560238309,132.40857478798887L72.53143581722684,127.23314849831203L73.26760789187962,125.32447265356657L73.97748810672337,122.32720851220398L74.71366018137614,117.93658889338225L75.39724853641086,115.97034045371059L76.1071287512546,111.75041296900037L76.79071710628934,110.24908708576079L77.50059732113309,107.63986819659965L78.21047753597682,107.63447018900301L78.92035775082057,106.44365385336879L79.65652982547336,103.15843717222361L80.34011818050809,99.84759342537734L81.0237065355428,96.46469096310412L81.75987861019559,95.55849050301138L82.46975882503934,96.07742988856397L83.15334718007405,95.6657056538875L83.83693553510878,94.95727902152015L84.52052389014351,95.38329515940512L85.23040410498724,94.01330738334771L85.91399246002197,92.60242544489459L86.62387267486572,90.9894591822385L87.33375288970946,89.54392849794074L88.06992496436224,90.71662017275244L88.75351331939697,88.42677229211326L89.4371016744317,86.67603210973552L90.19956560889351,84.25530641824857L90.93573768354628,83.1876323415024L91.64561789839004,81.73379368225609L92.32920625342476,79.0114089246714L93.01279460845947,74.59161112734441L93.74896668311226,73.44186605030968L94.51143061757406,74.06290443420475L95.22131083241781,74.125467794529L95.93119104726156,71.57725413986718L96.61477940229628,71.52151847047747L97.35095147694906,72.46735657790815L98.08712355160183,70.40397581359973L98.77071190663655,66.48373662132381L99.45430026167128,66.99270490534406L100.16418047651503,67.81214391501227L100.87406069135879,68.17545116874625L101.55764904639351,68.63583804325036L102.24123740142822,65.50334288309428L102.95111761627197,66.03863827311274L103.66099783111572,64.86487038773473L104.3971699057685,62.11201706109913L105.08075826080324,62.8258147008588L105.79063847564699,65.16451634645861L106.4742268306817,66.97947227487943L107.15781518571642,60.69371595417168L107.86769540056017,59.692870109331494L108.57757561540392,58.17681008975326L109.26116397043864,58.7162194443477L109.9710441852824,61.808836641302605L110.68092440012614,58.88337063352242L111.41709647477892,59.925926911492866L112.12697668962267,59.5667874083716L112.8105650446574,58.21901222402302L113.52044525950113,62.41559881431749L114.23032547434488,61.40780670600169L114.9927894088067,57.049064299584956L115.70266962365045,56.826143736643786L116.4125498384942,53.726058074655036L117.09613819352892,55.86340249403707L117.77972654856364,57.19941084368439L118.4896067634074,57.83981726441068L119.19948697825114,56.691599607564235L119.88307533328586,56.84606797810903L120.61924740793864,52.316991775701815L121.30283576297336,51.06341466546709L122.01271597781711,52.155939405005505L122.72259619266086,51.73894041640591L123.45876826731363,50.81763528738866L124.19494034196642,47.968976794464744L124.9311124166192,47.600783893084284L125.61470077165392,50.895275772713504L126.32458098649766,54.5862127072328L127.0081693415324,57.34435463022704L127.71804955637614,55.11758908438624L128.48051349083795,52.25272967066026L129.21668556549074,54.08163219511264L129.92656578033447,55.198907591034484L130.63644599517824,53.48558084425299L131.37261806983102,52.28529156738897L132.10879014448378,49.686049773443266L132.7923784995185,46.865650717589894L133.50225871436226,48.331319092480776L134.212138929206,48.40114732727742L134.92201914404976,48.02395288993586L135.68448307851156,47.69913770886313L136.3943632933553,49.52979294535244L137.10424350819906,48.73843111085239L137.84041558285185,48.04402939962328L138.52400393788656,47.43835241137935L139.20759229292128,48.00496687072438L139.89118064795602,46.41117631113509L140.57476900299073,47.98555954642175L141.25835735802545,46.41050178957671L141.99452943267823,47.888695770652184L142.67811778771295,46.96363483030555L143.36170614274766,44.178834810619364L144.07158635759143,47.03666005162874L144.75517471262614,44.96821261270397L145.4650549274699,47.205582433948884L146.17493514231364,46.001103089783484L146.8585234973484,47.80050733982473L147.54211185238307,45.98203036484904L148.25199206722684,45.36488012447964L148.98816414187962,43.406017042602876L149.69804435672336,43.67297836517138L150.43421643137614,42.972164087977966L151.14409664621988,39.48496737940347L151.85397686106364,39.80392917761811L152.56385707590738,40.2331355990245L153.27373729075114,40.793266710330364L154.00990936540393,42.56312121766354L154.71978958024766,37.0475777160866L155.45596165490045,38.5620253379198L156.16584186974418,40.14249066250071L156.87572208458795,40.00688785817598L157.61189415924073,38.699400529896174L158.3743580937025,39.22353816482858L159.13682202816432,40.69573584474549L159.84670224300808,41.115757269449915L160.58287431766087,44.420326842407874L161.29275453250463,39.74496029975902L162.00263474734837,41.672410405196786L162.71251496219213,40.65855875276193L163.39610331722682,41.648538106161745L164.1059835320706,41.207379515464204L164.81586374691435,40.05822755142951L165.49945210194906,42.4355452883789L166.18304045698378,37.55637517754436L166.89292067182754,39.7374364463816L167.6290927464803,39.18065733714062L168.33897296132406,42.749647659403344L169.02256131635878,43.583453143015596L169.73244153120254,41.78188661175781L170.44232174604628,39.31861312664806L171.17849382069903,37.33073229134762L171.86208217573378,37.7493802433983L172.54567053076852,32.7423288160067L173.2292588858032,37.07595927458596L173.965430960456,44.033264582980955L174.64901931549073,44.147364730983675L175.33260767052545,45.27140397061234L176.01619602556016,47.719717405855114L176.6997843805949,44.76508737486891L177.3833727356296,42.5587978256365L178.09325295047336,42.793571445166734L178.8031331653171,42.04840962595698L179.5393052399699,40.272388717309845L180.3017691744317,38.628045788712434L181.03794124908447,36.839127704182545L181.7215296041192,37.534512920071485L182.4051179591539,37.533602817867646L183.1412900338067,38.24512916169386L183.87746210845947,36.4685449049244L184.58734232330323,39.01569910381354L185.29722253814697,39.72646735461918L185.9808108931817,38.9443707719014L186.69069110802545,41.003371033507136L187.3742794630602,39.535114978852846L188.05786781809488,41.12678320216493L188.74145617312962,35.97523108399924L189.47762824778238,34.45270853096336L190.16121660281712,39.0455961835568L190.84480495785184,34.63830880900552L191.5546851726956,35.57832559909303L192.31714910715738,40.10232067165913L193.05332118181016,37.78135404875679L193.7369095368449,37.448417741350156L194.42049789187962,39.36134505011507L195.10408624691433,39.68789175018741L195.78767460194908,35.86428266138561L196.55013853641086,37.090621068785424L197.2600187512546,36.023002901293935L197.96989896609836,33.448288868034076L198.65348732113307,33.76491737494516L199.36336753597683,33.72129280858863L200.04695589101155,33.672252169843965L200.78312796566433,32.02654224320755L201.49300818050807,35.16399009017974L202.1765965355428,38.78801011839225L202.8601848905775,34.80728204713881L203.5963569652303,35.01134867373111L204.27994532026503,34.05006020964066L204.96353367529974,34.21227555461453L205.72599760976155,34.501054479067925L206.4358778246053,34.010836464619516L207.19834175906712,33.46767610190848L207.8819301141018,33.12568977743724L208.56551846913655,33.749491191144756L209.2491068241713,33.97649933460875L209.95898703901503,34.902376720611876L210.69515911366778,33.096357258868736L211.40503932851155,32.24833392224364L212.14121140316433,28.474941373705942L212.87738347781712,29.418753927943644L213.58726369266085,31.431356355370852L214.34972762712266,28.414441784695622L215.05960784196643,28.013557023083987L215.82207177642823,27.648321839671514L216.53195199127197,24.270961004446594L217.26812406592475,27.915541770271012L218.03058800038656,27.675529736951862L218.79305193484836,26.63065888500548L219.52922400950112,29.238044597114833L220.29168794396296,30.24980748716077L220.97527629899767,32.55433550290117L221.65886465403239,29.278292160716266L222.4213285884942,30.17491525133816L223.15750066314698,27.922035360101948L223.8410890181817,27.1376696420187L224.5246773732164,31.406620800991675L225.23455758806017,26.85940340677831L225.9444378029039,28.16763593626366L226.6806098775567,30.012823758960177L227.39049009240043,31.10048244328845L228.10037030724422,31.717063263229583L228.862834241706,30.763457705313996L229.59900631635878,29.46177861964216L230.33517839101157,30.746562374721837L231.01876674604628,33.58990365194636L231.72864696089005,30.463933683692133L232.43852717573378,29.021057048486202L233.12211553076853,28.188101523563688L233.8057038858032,27.00438109908245L234.56816782026502,27.67462530626056L235.3043398949178,25.80406943203948L236.01422010976154,22.657496814107184L236.69780846479628,26.27659745619024L237.40768867964002,28.314739813298758L238.09127703467476,30.272683499633267L238.77486538970945,28.888830001239622L239.4584537447442,27.80118656324009L240.19462581939695,25.926894475514146L240.90450603424074,27.168788602541095L241.6406781088935,29.772982645820427L242.35055832373726,28.307890896893195L243.11302225819907,29.226090704772332L243.79661061323375,32.24088437975961L244.5590745476956,30.132359424037183L245.26895476253932,31.76164496790821L246.0051268371921,27.91077821599274L246.7412989118449,29.225369314252827L247.45117912668863,29.03793483957173L248.1610593415324,27.65533945155583L248.87093955637613,26.78369744778668L249.6071116310289,26.908678555434342L250.31699184587268,25.053626992522577L251.05316392052544,24.10446753065914L251.73675227556018,25.38655301545542L252.42034063059486,27.4772949067821L253.1039289856296,28.36583767149041L253.84010106028236,26.43402902302231L254.57627313493518,25.56463773793915L255.31244520958793,22.88316165481499L256.0486172842407,23.25956389128439L256.81108121870255,23.995537919782976L257.5209614335463,23.61068684604274L258.204549788581,24.06677529699684L258.91443000342474,22.932800750162023L259.59801835845946,22.952357264041346L260.3078985733032,27.245475215328337L261.017778788147,26.28315884366523L261.7276590029907,26.15141651319595L262.4638310776435,27.757187173021666L263.17371129248727,26.4949026417506L263.883591507331,26.741121745585094L264.59347172217474,26.046500364107633L265.3296437968275,27.108515365691137L266.0658158714803,28.807273124660245L266.82827980594215,27.067897436598123L267.5381600207859,27.647520509301216L268.2217483758206,29.993097300003882L268.95792045047335,29.85667128302793L269.6940925251261,29.597507782057193L270.45655645958794,30.1970882117475L271.1927285342407,27.155259276918606L271.90260874908444,27.276704940252518L272.61248896392823,27.015279134221167L273.32236917877196,27.17962114882463L274.03224939361576,30.41946821279207L274.7421296084595,26.590439983586666L275.50459354292127,28.342739302521522L276.2407656175741,31.16084429697369L276.92435397260874,25.95271288035366L277.6079423276435,27.468843718181866L278.34411440229627,23.95227922912152L279.0802864769491,21.467219825231194L279.7638748319838,25.861597839367946L280.47375504682753,26.138132766546107L281.2362189812893,24.738716185538404L281.94609919613305,25.70320725680635L282.68227127078586,23.632946292757648L283.4184433454386,25.977568691511358L284.12832356028235,25.78472733929118L284.86449563493517,25.924573541947918L285.5743758497789,24.440998698562733L286.2579642048136,24.93172854812592L286.96784441965735,22.714151912499542L287.6514327746921,25.68905075419615L288.3876048493449,28.41292193381701L289.0711932043796,25.739438848470076" fill="none"></path></g></g></g></g><g opacity="0.2"><g><g><g><path style="fill: none;" stroke="rgb(187, 187, 187)" stroke-width="2px" d="M32.09455543094211,167.93074504116152L32.857019365403914,169.5980451728607L33.56689958024767,169.87778878179182L34.276779795091414,169.38304453923686L34.960368150126136,168.88540981791823L35.67024836496989,168.7426359127899L36.35383672000461,168.32252525653368L37.03742507503934,168.36157933614106L37.72101343007405,167.77428053895238L38.43089364491781,167.3423470372627L39.193357579379615,166.7084106838866L39.929529654032386,165.69564765887938L40.665701728685164,165.28767926283055L41.42816566314697,162.9796473409108L42.1117540181817,162.02248123155854L42.8742179526435,162.56433915326198L43.55780630767823,162.9688322265949L44.24139466271294,160.67807794466273L44.9512748775567,159.61339802209966L45.68744695220947,160.52290684734785L46.3710353072442,159.84743157736756L47.10720738189697,159.88510752468758L47.79079573693169,167.70477558423437L48.47438409196642,167.65092495263664L49.157972447001136,165.82776915627852L49.84156080203586,165.46172582380234L50.52514915707059,164.9642403126715L51.2087375121053,164.9873131563853L51.89232586714003,164.95681804307827L52.57591422217475,164.7273050316408L53.25950257720947,164.49777252540497L53.943090932244196,164.17091148832566L54.62667928727892,164.80455392012576L55.31026764231363,164.75754596276863L55.99385599734836,163.96950322799066L56.677444352383084,163.66868799138211L57.36103270741781,162.87325522840828L58.04462106245253,163.74565645469L58.72820941748725,163.4468296875189L59.41179777252198,162.1279270965384L60.095386127556694,160.91005704809857L60.778974482591416,160.34919319754886L61.462562837626145,158.80462181941664L62.14615119266086,158.3438727562826L62.82973954769558,154.8015509170653L63.51332790273031,154.38201385776222L64.19691625776503,153.36378704060166L64.88050461279975,151.26119655288718L65.56409296783447,150.2453615975311L66.2476813228692,149.66493546658057L66.95756153771295,144.83434036387885L67.6674417525567,142.9750404614755L68.35103010759141,141.43905429264146L69.03461846262614,139.72536853753425L69.74449867746989,133.63405082029584L70.4280870325046,134.26463556794593L71.11167538753934,131.5771066532498L71.82155560238309,128.6933730897933L72.53143581722684,119.47000906379782L73.26760789187962,122.4614588864486L73.97748810672337,117.83131230016032L74.71366018137614,111.35065946514983L75.39724853641086,113.02096779420312L76.1071287512546,105.42052174193506L76.79071710628934,107.99709826090145L77.50059732113309,103.72603986285795L78.21047753597682,107.62637317760803L78.92035775082057,104.65742934991741L79.65652982547336,98.23061215050589L80.34011818050809,94.8813278051079L81.0237065355428,91.3903372696943L81.75987861019559,94.19918981287228L82.46975882503934,96.85583896689278L83.15334718007405,95.0481193018728L83.83693553510878,93.89463907296913L84.52052389014351,96.02231936623251L85.23040410498724,91.9583257192616L85.91399246002197,90.48610253721495L86.62387267486572,88.5700097882544L87.33375288970946,87.37563247149403L88.06992496436224,92.47565768497L88.75351331939697,84.99200047115453L89.4371016744317,84.0499218361689L90.19956560889351,80.62421788101817L90.93573768354628,81.58612122638313L91.64561789839004,79.55303569338666L92.32920625342476,74.92783178829433L93.01279460845947,67.96191443135392L93.74896668311226,71.7172484347576L94.51143061757406,74.99446201004734L95.22131083241781,74.21931283501534L95.93119104726156,67.75493365787447L96.61477940229628,71.43791496639295L97.35095147694906,73.88611373905417L98.08712355160183,67.30890466713709L98.77071190663655,60.60337783290991L99.45430026167128,67.75615733137445L100.16418047651503,69.0413024295146L100.87406069135879,68.72041204934719L101.55764904639351,69.32641835500654L102.24123740142822,60.80460014286012L102.95111761627197,66.84158135814049L103.66099783111572,63.10421855966768L104.3971699057685,57.98273707114573L105.08075826080324,63.89651116049822L105.79063847564699,68.67256881485835L106.4742268306817,69.70190616751063L107.15781518571642,51.26508147311009L107.86769540056017,58.19160134207121L108.57757561540392,55.90272006038589L109.26116397043864,59.525333476239396L109.9710441852824,66.44776243673495L110.68092440012614,54.495171621852144L111.41709647477892,61.489761328448594L112.12697668962267,59.02807815368973L112.8105650446574,56.19734944750011L113.52044525950113,68.71047869975924L114.23032547434488,59.89611854352793L114.9927894088067,50.51095068995983L115.70266962365045,56.491762892232L116.4125498384942,49.07592958167196L117.09613819352892,59.06941912311013L117.77972654856364,59.20342336815536L118.4896067634074,58.80042689550008L119.19948697825114,54.96927312229463L119.88307533328586,57.07777053392621L120.61924740793864,45.523377472090964L121.30283576297336,49.183049000115005L122.01271597781711,53.79472651431312L122.72259619266086,51.11344193350653L123.45876826731363,49.43567759386278L124.19494034196642,43.6959890550789L124.9311124166192,47.04849454101357L125.61470077165392,55.837013592157355L126.32458098649766,60.12261810901173L127.0081693415324,61.48156751471843L127.71804955637614,51.77744076562501L128.48051349083795,47.95544055007127L129.21668556549074,56.82498598179121L129.92656578033447,56.87482068491724L130.63644599517824,50.91559072408075L131.37261806983102,50.48485765209292L132.10879014448378,45.787187082524696L132.7923784995185,42.63505213380986L133.50225871436226,50.52982165481714L134.212138929206,48.505889679472375L134.92201914404976,47.458161233923555L135.68448307851156,47.211914937254036L136.3943632933553,52.275775800086436L137.10424350819906,47.55138835910228L137.84041558285185,47.00242683277958L138.52400393788656,46.52983692901351L139.20759229292128,48.85488855974193L139.89118064795602,44.02049047175109L140.57476900299073,50.34713439935172L141.25835735802545,44.04791515430915L141.99452943267823,50.105986742265394L142.67811778771295,45.576043419785556L143.36170614274766,40.00163478109016L144.07158635759143,51.32339791314276L144.75517471262614,41.86554145431689L145.4650549274699,50.561637165816244L146.17493514231364,44.194384073535396L146.8585234973484,50.49961371488662L147.54211185238307,43.25431490238548L148.25199206722684,44.439154763925536L148.98816414187962,40.46772241978777L149.69804435672336,44.07342034902411L150.43421643137614,41.920942672187884L151.14409664621988,34.25417231654178L151.85397686106364,40.28237187494007L152.56385707590738,40.87694523113404L153.27373729075114,41.63346337728914L154.00990936540393,45.217902978663325L154.71978958024766,28.77426246372116L155.45596165490045,40.833696770669576L156.16584186974418,42.513188649372125L156.87572208458795,39.803483651688886L157.61189415924073,36.7381695374765L158.3743580937025,40.009744617227184L159.13682202816432,42.904032364620875L159.84670224300808,41.74578940650655L160.58287431766087,49.37718120184481L161.29275453250463,32.7319104857858L162.00263474734837,44.563585563353385L162.71251496219213,39.13778127410966L163.39610331722682,43.13350713626146L164.1059835320706,40.54564162941792L164.81586374691435,38.33449960537746L165.49945210194906,46.00152189380295L166.18304045698378,30.237620011292552L166.89292067182754,43.00902834963751L167.6290927464803,38.34548867327912L168.33897296132406,48.103133142797475L169.02256131635878,44.83416136843399L169.73244153120254,39.07953681487112L170.44232174604628,35.62370289898349L171.17849382069903,34.348911038396956L171.86208217573378,38.377352171474286L172.54567053076852,25.23175167491932L173.2292588858032,43.57640496245482L173.965430960456,54.469222545573466L174.64901931549073,44.31851495298776L175.33260767052545,46.957462830055356L176.01619602556016,51.392187558719236L176.6997843805949,40.33314232838961L177.3833727356296,39.24936350178788L178.09325295047336,43.14573187446209L178.8031331653171,40.93066689714233L179.5393052399699,37.60835735433917L180.3017691744317,36.16153139581631L181.03794124908447,34.155750577387714L181.7215296041192,38.577590743904906L182.4051179591539,37.5322376645619L183.1412900338067,39.312418677433165L183.87746210845947,33.803668519770206L184.58734232330323,42.83643040214729L185.29722253814697,40.7926197308276L185.9808108931817,37.77122589782476L186.69069110802545,44.09187142591574L187.3742794630602,37.33273089687145L188.05786781809488,43.51428553713305L188.74145617312962,28.247902906750742L189.47762824778238,32.168924701409544L190.16121660281712,45.93492766244699L190.84480495785184,28.02737774717854L191.5546851726956,36.98835078422433L192.31714910715738,46.88831328050829L193.05332118181016,34.29990411440325L193.7369095368449,36.949013280240145L194.42049789187962,42.23073601326246L195.10408624691433,40.17771180029595L195.78767460194908,30.128869028182873L196.55013853641086,38.93012867988513L197.2600187512546,34.42157565005667L197.96989896609836,29.5862178181443L198.65348732113307,34.2398601353118L199.36336753597683,33.65585595905381L200.04695589101155,33.59869121172698L200.78312796566433,29.557977353252934L201.49300818050807,39.87016186063798L202.1765965355428,44.22404016071102L202.8601848905775,28.836189940258624L203.5963569652303,35.31744861361958L204.27994532026503,32.60812751350497L204.96353367529974,34.455598572075324L205.72599760976155,34.934222865748076L206.4358778246053,33.2755094429469L207.19834175906712,32.65293555784195L207.8819301141018,32.612710290730334L208.56551846913655,34.68519331170607L209.2491068241713,34.31701154980473L209.95898703901503,36.291192799616574L210.69515911366778,30.387328066254014L211.40503932851155,30.976298917305993L212.14121140316433,22.81485255089937L212.87738347781712,30.834472759300187L213.58726369266085,34.45025999651175L214.34972762712266,23.88906992868275L215.05960784196643,27.412229880666512L215.82207177642823,27.10046906455278L216.53195199127197,19.204919751609236L217.26812406592475,33.3824129190076L218.03058800038656,27.315511686973167L218.79305193484836,25.06335260708583L219.52922400950112,33.149123165278894L220.29168794396296,31.767451822229724L220.97527629899767,36.01112752651176L221.65886465403239,24.36422714743892L222.4213285884942,31.519849887271018L223.15750066314698,24.542715523247605L223.8410890181817,25.96112106489379L224.5246773732164,37.81004753945112L225.23455758806017,20.03857731545823L225.9444378029039,30.129984730491675L226.6806098775567,32.78060549300501L227.39049009240043,32.73197046978089L228.10037030724422,32.64193449314127L228.862834241706,29.333049368440673L229.59900631635878,27.509259991134368L230.33517839101157,32.67373800734136L231.01876674604628,37.85491556778318L231.72864696089005,25.774978731310817L232.43852717573378,26.856742095677312L233.12211553076853,26.93866823617989L233.8057038858032,25.228800462360567L234.56816782026502,28.679991617027756L235.3043398949178,22.99823562070791L236.01422010976154,17.937637887208773L236.69780846479628,31.705248419314795L237.40768867964002,31.371953348961476L238.09127703467476,33.209599029135035L238.77486538970945,26.81304975364913L239.4584537447442,26.169721406240853L240.19462581939695,23.115456343925207L240.90450603424074,29.03162979308153L241.6406781088935,33.67927371073941L242.35055832373726,26.110253273502327L243.11302225819907,30.603390416591044L243.79661061323375,36.76307489224051L244.5590745476956,26.96957199045354L245.26895476253932,34.20557328371473L246.0051268371921,22.13447808811959L246.7412989118449,31.19725596164288L247.45117912668863,28.756783127550094L248.1610593415324,25.581446369531967L248.87093955637613,25.476234442133L249.6071116310289,27.096150216905848L250.31699184587268,22.271049648154946L251.05316392052544,22.68072833786395L251.73675227556018,27.309681242649813L252.42034063059486,30.613407743772125L253.1039289856296,29.69865181855287L253.84010106028236,23.536316050320174L254.57627313493518,24.260550810314406L255.31244520958793,18.860947530128765L256.0486172842407,23.82416724598851L256.81108121870255,25.099498962530898L257.5209614335463,23.033410235432417L258.204549788581,24.750907973427996L258.91443000342474,21.231838929909802L259.59801835845946,22.98169203486034L260.3078985733032,33.68515214225886L261.017778788147,24.83968428617059L261.7276590029907,25.953803017492046L262.4638310776435,30.165843162760265L263.17371129248727,24.601475844843982L263.883591507331,27.110450401336816L264.59347172217474,25.00456829189142L265.3296437968275,28.70153786806636L266.0658158714803,31.355409763113904L266.82827980594215,24.45883390450487L267.5381600207859,28.51695511835589L268.2217483758206,33.51146248605787L268.95792045047335,29.65203225756401L269.6940925251261,29.20876253060103L270.45655645958794,31.096458856282986L271.1927285342407,22.592515874675268L271.90260874908444,27.458873435253427L272.61248896392823,26.623140425174117L273.32236917877196,27.426134170729842L274.03224939361576,35.279238808743216L274.7421296084595,20.846897639778515L275.50459354292127,30.971188280923784L276.2407656175741,35.38800178865191L276.92435397260874,18.140515755423635L277.6079423276435,29.74303997492417L278.34411440229627,18.677432495530997L279.0802864769491,17.739630719395734L279.7638748319838,32.453164860573075L280.47375504682753,26.552935157313346L281.2362189812893,22.639591314026884L281.94609919613305,27.149943863708238L282.68227127078586,20.527554846684605L283.4184433454386,29.49450228964199L284.12832356028235,25.49546531096087L284.86449563493517,26.13434284593303L285.5743758497789,22.215636433484942L286.2579642048136,25.667823322470703L286.96784441965735,19.387786959059948L287.6514327746921,30.151399016741074L288.3876048493449,32.49872870324827L289.0711932043796,21.72921422044966" fill="none"></path></g></g></g></g></g></g><g transform="translate(41, 176)" clip-path="url(#clip_1)"><clipPath id="clip_1"><rect width="288" height="23"></rect></clipPath><g><g><line x1="0" y1="0" x2="0" y2="5" style="visibility: inherit;" fill="rgb(0, 0, 0)" stroke="rgb(204, 204, 204)" stroke-width="1px"></line><line x1="32.09455543094211" y1="0" x2="32.09455543094211" y2="5" style="visibility: inherit;" fill="rgb(0, 0, 0)" stroke="rgb(204, 204, 204)" stroke-width="1px"></line><line x1="64.18911086188422" y1="0" x2="64.18911086188422" y2="5" style="visibility: inherit;" fill="rgb(0, 0, 0)" stroke="rgb(204, 204, 204)" stroke-width="1px"></line><line x1="96.28366629282633" y1="0" x2="96.28366629282633" y2="5" style="visibility: inherit;" fill="rgb(0, 0, 0)" stroke="rgb(204, 204, 204)" stroke-width="1px"></line><line x1="128.37822172376843" y1="0" x2="128.37822172376843" y2="5" style="visibility: inherit;" fill="rgb(0, 0, 0)" stroke="rgb(204, 204, 204)" stroke-width="1px"></line><line x1="160.47277715471057" y1="0" x2="160.47277715471057" y2="5" style="visibility: inherit;" fill="rgb(0, 0, 0)" stroke="rgb(204, 204, 204)" stroke-width="1px"></line><line x1="192.56733258565265" y1="0" x2="192.56733258565265" y2="5" style="visibility: inherit;" fill="rgb(0, 0, 0)" stroke="rgb(204, 204, 204)" stroke-width="1px"></line><line x1="224.6618880165948" y1="0" x2="224.6618880165948" y2="5" style="visibility: inherit;" fill="rgb(0, 0, 0)" stroke="rgb(204, 204, 204)" stroke-width="1px"></line><line x1="256.75644344753687" y1="0" x2="256.75644344753687" y2="5" style="visibility: inherit;" fill="rgb(0, 0, 0)" stroke="rgb(204, 204, 204)" stroke-width="1px"></line><line x1="288.850998878479" y1="0" x2="288.850998878479" y2="5" style="visibility: inherit;" fill="rgb(0, 0, 0)" stroke="rgb(204, 204, 204)" stroke-width="1px"></line></g><g transform="translate(0, 8)"><text style="text-anchor: middle; visibility: hidden; font-family: Roboto, sans-serif; font-size: 12px; font-weight: 200;" x="0" y="0" dx="0em" dy="0.95em" fill="rgb(33, 33, 33)" stroke="none" stroke-width="1px">-20M</text><text style="text-anchor: middle; visibility: inherit; font-family: Roboto, sans-serif; font-size: 12px; font-weight: 200;" x="32.09455543094211" y="0" dx="0em" dy="0.95em" fill="rgb(33, 33, 33)" stroke="none" stroke-width="1px">0</text><text style="text-anchor: middle; visibility: hidden; font-family: Roboto, sans-serif; font-size: 12px; font-weight: 200;" x="64.18911086188422" y="0" dx="0em" dy="0.95em" fill="rgb(33, 33, 33)" stroke="none" stroke-width="1px">20M</text><text style="text-anchor: middle; visibility: inherit; font-family: Roboto, sans-serif; font-size: 12px; font-weight: 200;" x="96.28366629282633" y="0" dx="0em" dy="0.95em" fill="rgb(33, 33, 33)" stroke="none" stroke-width="1px">40M</text><text style="text-anchor: middle; visibility: hidden; font-family: Roboto, sans-serif; font-size: 12px; font-weight: 200;" x="128.37822172376843" y="0" dx="0em" dy="0.95em" fill="rgb(33, 33, 33)" stroke="none" stroke-width="1px">60M</text><text style="text-anchor: middle; visibility: inherit; font-family: Roboto, sans-serif; font-size: 12px; font-weight: 200;" x="160.47277715471057" y="0" dx="0em" dy="0.95em" fill="rgb(33, 33, 33)" stroke="none" stroke-width="1px">80M</text><text style="text-anchor: middle; visibility: hidden; font-family: Roboto, sans-serif; font-size: 12px; font-weight: 200;" x="192.56733258565265" y="0" dx="0em" dy="0.95em" fill="rgb(33, 33, 33)" stroke="none" stroke-width="1px">100M</text><text style="text-anchor: middle; visibility: inherit; font-family: Roboto, sans-serif; font-size: 12px; font-weight: 200;" x="224.6618880165948" y="0" dx="0em" dy="0.95em" fill="rgb(33, 33, 33)" stroke="none" stroke-width="1px">120M</text><text style="text-anchor: middle; visibility: hidden; font-family: Roboto, sans-serif; font-size: 12px; font-weight: 200;" x="256.75644344753687" y="0" dx="0em" dy="0.95em" fill="rgb(33, 33, 33)" stroke="none" stroke-width="1px">140M</text><text style="text-anchor: middle; visibility: hidden; font-family: Roboto, sans-serif; font-size: 12px; font-weight: 200;" x="288.850998878479" y="0" dx="0em" dy="0.95em" fill="rgb(33, 33, 33)" stroke="none" stroke-width="1px">160M</text></g><line x1="0" y1="0" x2="288.850998878479" y2="0" fill="rgb(0, 0, 0)" stroke="rgb(204, 204, 204)" stroke-width="1px"></line></g></g></g></g></svg>