<svg viewBox="0 0 330 200" xmlns="http://www.w3.org/2000/svg"><g><g><g><g><g><line x1="41.149001121520996" y1="176.89999961853027" x2="36.149001121520996" y2="176.89999961853027" style="visibility: inherit;" fill="rgb(0, 0, 0)" stroke="rgb(204, 204, 204)" stroke-width="1px"></line><line x1="41.149001121520996" y1="157.24444410536023" x2="36.149001121520996" y2="157.24444410536023" style="visibility: inherit;" fill="rgb(0, 0, 0)" stroke="rgb(204, 204, 204)" stroke-width="1px"></line><line x1="41.149001121520996" y1="137.58888859219022" x2="36.149001121520996" y2="137.58888859219022" style="visibility: inherit;" fill="rgb(0, 0, 0)" stroke="rgb(204, 204, 204)" stroke-width="1px"></line><line x1="41.149001121520996" y1="117.9333330790202" x2="36.149001121520996" y2="117.9333330790202" style="visibility: inherit;" fill="rgb(0, 0, 0)" stroke="rgb(204, 204, 204)" stroke-width="1px"></line><line x1="41.149001121520996" y1="98.27777756585016" x2="36.149001121520996" y2="98.27777756585016" style="visibility: inherit;" fill="rgb(0, 0, 0)" stroke="rgb(204, 204, 204)" stroke-width="1px"></line><line x1="41.149001121520996" y1="78.62222205268012" x2="36.149001121520996" y2="78.62222205268012" style="visibility: inherit;" fill="rgb(0, 0, 0)" stroke="rgb(204, 204, 204)" stroke-width="1px"></line><line x1="41.149001121520996" y1="58.9666665395101" x2="36.149001121520996" y2="58.9666665395101" style="visibility: inherit;" fill="rgb(0, 0, 0)" stroke="rgb(204, 204, 204)" stroke-width="1px"></line><line x1="41.149001121520996" y1="39.31111102634006" x2="36.149001121520996" y2="39.31111102634006" style="visibility: inherit;" fill="rgb(0, 0, 0)" stroke="rgb(204, 204, 204)" stroke-width="1px"></line><line x1="41.149001121520996" y1="19.65555551317004" x2="36.149001121520996" y2="19.65555551317004" style="visibility: inherit;" fill="rgb(0, 0, 0)" stroke="rgb(204, 204, 204)" stroke-width="1px"></line><line x1="41.149001121520996" y1="0" x2="36.149001121520996" y2="0" style="visibility: inherit;" fill="rgb(0, 0, 0)" stroke="rgb(204, 204, 204)" stroke-width="1px"></line></g><g transform="translate(31.149001121520996, 0)"><text style="text-anchor: end; visibility: hidden; font-family: Roboto, sans-serif; font-size: 12px; font-weight: 200;" x="0" y="176.89999961853027" dx="0em" dy="0.3em" fill="rgb(33, 33, 33)" stroke="none" stroke-width="1px">0</text><text style="text-anchor: end; visibility: inherit; font-family: Roboto, sans-serif; font-size: 12px; font-weight: 200;" x="0" y="157.24444410536023" dx="0em" dy="0.3em" fill="rgb(33, 33, 33)" stroke="none" stroke-width="1px">50</text><text style="text-anchor: end; visibility: hidden; font-family: Roboto, sans-serif; font-size: 12px; font-weight: 200;" x="0" y="137.58888859219022" dx="0em" dy="0.3em" fill="rgb(33, 33, 33)" stroke="none" stroke-width="1px">100</text><text style="text-anchor: end; visibility: inherit; font-family: Roboto, sans-serif; font-size: 12px; font-weight: 200;" x="0" y="117.9333330790202" dx="0em" dy="0.3em" fill="rgb(33, 33, 33)" stroke="none" stroke-width="1px">150</text><text style="text-anchor: end; visibility: hidden; font-family: Roboto, sans-serif; font-size: 12px; font-weight: 200;" x="0" y="98.27777756585016" dx="0em" dy="0.3em" fill="rgb(33, 33, 33)" stroke="none" stroke-width="1px">200</text><text style="text-anchor: end; visibility: inherit; font-family: Roboto, sans-serif; font-size: 12px; font-weight: 200;" x="0" y="78.62222205268012" dx="0em" dy="0.3em" fill="rgb(33, 33, 33)" stroke="none" stroke-width="1px">250</text><text style="text-anchor: end; visibility: hidden; font-family: Roboto, sans-serif; font-size: 12px; font-weight: 200;" x="0" y="58.9666665395101" dx="0em" dy="0.3em" fill="rgb(33, 33, 33)" stroke="none" stroke-width="1px">300</text><text style="text-anchor: end; visibility: inherit; font-family: Roboto, sans-serif; font-size: 12px; font-weight: 200;" x="0" y="39.31111102634006" dx="0em" dy="0.3em" fill="rgb(33, 33, 33)" stroke="none" stroke-width="1px">350</text><text style="text-anchor: end; visibility: hidden; font-family: Roboto, sans-serif; font-size: 12px; font-weight: 200;" x="0" y="19.65555551317004" dx="0em" dy="0.3em" fill="rgb(33, 33, 33)" stroke="none" stroke-width="1px">400</text><text style="text-anchor: end; visibility: hidden; font-family: Roboto, sans-serif; font-size: 12px; font-weight: 200;" x="0" y="0" dx="0em" dy="0.3em" fill="rgb(33, 33, 33)" stroke="none" stroke-width="1px">450</text></g><line x1="41.149001121520996" y1="0" x2="41.149001121520996" y2="176.89999961853027" fill="rgb(0, 0, 0)" stroke="rgb(204, 204, 204)" stroke-width="1px"></line></g></g><g transform="translate(41, 0)" clip-path="url(#clip_0)"><clipPath id="clip_0"><rect width="288" height="176"></rect></clipPath><g><g><g><line x1="0" y1="0" x2="0" y2="176.89999961853027" fill="rgb(0, 0, 0)" stroke="rgb(66, 66, 66)" stroke-width="1px" opacity="0.25"></line><line x1="36.106374859809875" y1="0" x2="36.106374859809875" y2="176.89999961853027" fill="rgb(0, 0, 0)" stroke="rgb(66, 66, 66)" stroke-width="1px" opacity="0.25"></line><line x1="72.21274971961975" y1="0" x2="72.21274971961975" y2="176.89999961853027" fill="rgb(0, 0, 0)" stroke="rgb(66, 66, 66)" stroke-width="1px" opacity="0.25"></line><line x1="108.31912457942963" y1="0" x2="108.31912457942963" y2="176.89999961853027" fill="rgb(0, 0, 0)" stroke="rgb(66, 66, 66)" stroke-width="1px" opacity="0.25"></line><line x1="144.4254994392395" y1="0" x2="144.4254994392395" y2="176.89999961853027" fill="rgb(0, 0, 0)" stroke="rgb(66, 66, 66)" stroke-width="1px" opacity="0.25"></line><line x1="180.53187429904938" y1="0" x2="180.53187429904938" y2="176.89999961853027" fill="rgb(0, 0, 0)" stroke="rgb(66, 66, 66)" stroke-width="1px" opacity="0.25"></line><line x1="216.63824915885925" y1="0" x2="216.63824915885925" y2="176.89999961853027" fill="rgb(0, 0, 0)" stroke="rgb(66, 66, 66)" stroke-width="1px" opacity="0.25"></line><line x1="252.74462401866913" y1="0" x2="252.74462401866913" y2="176.89999961853027" fill="rgb(0, 0, 0)" stroke="rgb(66, 66, 66)" stroke-width="1px" opacity="0.25"></line><line x1="288.850998878479" y1="0" x2="288.850998878479" y2="176.89999961853027" fill="rgb(0, 0, 0)" stroke="rgb(66, 66, 66)" stroke-width="1px" opacity="0.25"></line></g><g><line x1="0" y1="176.89999961853027" x2="288.850998878479" y2="176.89999961853027" fill="rgb(0, 0, 0)" stroke="rgb(66, 66, 66)" stroke-width="1px" opacity="0.25"></line><line x1="0" y1="157.24444410536023" x2="288.850998878479" y2="157.24444410536023" fill="rgb(0, 0, 0)" stroke="rgb(66, 66, 66)" stroke-width="1px" opacity="0.25"></line><line x1="0" y1="137.58888859219022" x2="288.850998878479" y2="137.58888859219022" fill="rgb(0, 0, 0)" stroke="rgb(66, 66, 66)" stroke-width="1px" opacity="0.25"></line><line x1="0" y1="117.9333330790202" x2="288.850998878479" y2="117.9333330790202" fill="rgb(0, 0, 0)" stroke="rgb(66, 66, 66)" stroke-width="1px" opacity="0.25"></line><line x1="0" y1="98.27777756585016" x2="288.850998878479" y2="98.27777756585016" fill="rgb(0, 0, 0)" stroke="rgb(66, 66, 66)" stroke-width="1px" opacity="0.25"></line><line x1="0" y1="78.62222205268012" x2="288.850998878479" y2="78.62222205268012" fill="rgb(0, 0, 0)" stroke="rgb(66, 66, 66)" stroke-width="1px" opacity="0.25"></line><line x1="0" y1="58.9666665395101" x2="288.850998878479" y2="58.9666665395101" fill="rgb(0, 0, 0)" stroke="rgb(66, 66, 66)" stroke-width="1px" opacity="0.25"></line><line x1="0" y1="39.31111102634006" x2="288.850998878479" y2="39.31111102634006" fill="rgb(0, 0, 0)" stroke="rgb(66, 66, 66)" stroke-width="1px" opacity="0.25"></line><line x1="0" y1="19.65555551317004" x2="288.850998878479" y2="19.65555551317004" fill="rgb(0, 0, 0)" stroke="rgb(66, 66, 66)" stroke-width="1px" opacity="0.25"></line><line x1="0" y1="0" x2="288.850998878479" y2="0" fill="rgb(0, 0, 0)" stroke="rgb(66, 66, 66)" stroke-width="1px" opacity="0.25"></line></g></g></g><g><g><line x1="0" y1="176.89999961853027" x2="288.850998878479" y2="176.89999961853027" fill="rgb(0, 0, 0)" stroke="rgb(153, 153, 153)" stroke-width="1.5px"></line></g></g><g><g><line x1="36.106374859809875" y1="0" x2="36.106374859809875" y2="176.89999961853027" fill="rgb(0, 0, 0)" stroke="rgb(153, 153, 153)" stroke-width="1.5px"></line></g></g><g><g><g><g><g><path style="fill: none;" stroke="rgb(187, 187, 187)" stroke-width="2px" d="M36.82850235700607,167.93074504116152L37.55062985420227,168.9728076234735L38.27275735139847,169.43453270424814L38.994884848594666,169.41087086370987L39.71701234579086,169.18296444204452L40.43913984298707,168.99821328013252L41.16126734018326,168.72015419591295L41.883394837379456,168.57427402531806L42.60552233457565,168.2510189645388L43.32764983177185,167.88533906712468L44.04977732896805,167.41285355028432L44.771904826164246,166.7244727385309L45.49403232336044,166.1490037458078L46.21615982055664,164.8802669488635L46.93828731775284,163.73661493393652L47.660414814949036,163.26757229958443L48.38254231214523,163.14805604027842L49.10466980934143,162.1599644514932L49.82679730653762,161.1412758049509L50.548924803733826,160.8939191781595L51.27105230093002,160.47531495494255L51.99317979812622,160.23922887543537L52.71530729532242,163.22547114221268L53.437434792518616,164.9956610542171L54.15956228971481,165.3285052413273L54.88168978691101,165.38179356521744L55.60381728410721,165.2147720932542L56.325944781303406,165.12378846263414L57.0480722784996,165.05700027020325L57.7701997756958,164.92512214562345L58.492327272892005,164.75418227486185L59.214454770088196,164.52087394167916L59.93658226728439,164.63434593847632L60.65870976448059,164.68362594960516L61.38083726167679,164.39797685604884L62.102964758872986,164.10626130717327L62.82509225606918,163.61305887261503L63.54721975326538,163.66609790564198L64.26934725046158,163.57839061819732L64.99147474765778,162.9982052087582L65.71360224485397,162.1629459438244L66.43572974205017,161.43744484496506L67.15785723924637,160.38431563444163L67.87998473644257,159.56813848303662L68.60211223363876,157.6615034564499L69.32423973083496,156.34970761689303L70.04636722803116,155.15533938633178L70.76849472522736,153.59768225291896L71.49062222242355,152.25675399074575L72.21274971961975,151.2200265810713L72.93487721681595,148.66575209418193L73.65700471401215,146.38946744109273L74.37913221120834,144.40930218170877L75.10125970840454,142.535728724037L75.82338720560074,138.9750575625383L76.54551470279694,137.09088876470062L77.26764219999313,134.8853759201198L77.98976969718933,132.40857478798887L78.71189719438553,127.23314849831203L79.43402469158173,125.32447265356657L80.15615218877792,122.32720851220398L80.87827968597414,117.93658889338225L81.6004071831703,115.97034045371059L82.32253468036652,111.75041296900037L83.04466217756271,110.24908708576079L83.76678967475891,107.63986819659965L84.48891717195511,107.63447018900301L85.2110446691513,106.44365385336879L85.9331721663475,103.15843717222361L86.6552996635437,99.84759342537734L87.3774271607399,96.46469096310412L88.0995546579361,95.55849050301138L88.8216821551323,96.07742988856397L89.54380965232849,95.6657056538875L90.26593714952469,94.95727902152015L90.98806464672089,95.38329515940512L91.71019214391708,94.01330738334771L92.43231964111328,92.60242544489459L93.15444713830948,90.9894591822385L93.87657463550568,89.54392849794074L94.59870213270187,90.71662017275244L95.32082962989807,88.42677229211326L96.04295712709427,86.67603210973552L96.76508462429047,84.25530641824857L97.48721212148666,83.1876323415024L98.20933961868286,81.73379368225609L98.93146711587907,79.0114089246714L99.65359461307524,74.59161112734441L100.37572211027145,73.44186605030968L101.09784960746765,74.06290443420475L101.81997710466385,74.125467794529L102.54210460186005,71.57725413986718L103.26423209905624,71.52151847047747L103.98635959625244,72.46735657790815L104.70848709344864,70.40397581359973L105.43061459064484,66.48373662132381L106.15274208784103,66.99270490534406L106.87486958503723,67.81214391501227L107.59699708223343,68.17545116874625L108.31912457942963,68.63583804325036L109.04125207662582,65.50334288309428L109.76337957382202,66.03863827311274L110.48550707101822,64.86487038773473L111.20763456821442,62.11201706109913L111.92976206541061,62.8258147008588L112.65188956260681,65.16451634645861L113.37401705980301,66.97947227487943L114.0961445569992,60.69371595417168L114.8182720541954,59.692870109331494L115.5403995513916,58.17681008975326L116.2625270485878,58.7162194443477L116.98465454578401,61.808836641302605L117.70678204298018,58.88337063352242L118.42890954017639,59.925926911492866L119.15103703737259,59.5667874083716L119.87316453456879,58.21901222402302L120.59529203176498,62.41559881431749L121.31741952896118,61.40780670600169L122.03954702615738,57.049064299584956L122.76167452335358,56.826143736643786L123.48380202054977,53.726058074655036L124.20592951774597,55.86340249403707L124.92805701494217,57.19941084368439L125.65018451213837,57.83981726441068L126.37231200933456,56.691599607564235L127.09443950653076,56.84606797810903L127.81656700372696,52.316991775701815L128.53869450092316,51.06341466546709L129.26082199811935,52.155939405005505L129.98294949531555,51.73894041640591L130.70507699251175,50.81763528738866L131.42720448970795,47.968976794464744L132.14933198690414,47.600783893084284L132.87145948410034,50.895275772713504L133.59358698129654,54.5862127072328L134.31571447849274,57.34435463022704L135.03784197568893,55.11758908438624L135.75996947288513,52.25272967066026L136.48209697008133,54.08163219511264L137.20422446727753,55.198907591034484L137.92635196447372,53.48558084425299L138.64847946166992,52.28529156738897L139.37060695886612,49.686049773443266L140.09273445606232,46.865650717589894L140.81486195325851,48.331319092480776L141.5369894504547,48.40114732727742L142.2591169476509,48.02395288993586L142.9812444448471,47.69913770886313L143.7033719420433,49.52979294535244L144.4254994392395,48.73843111085239L145.14762693643567,48.04402939962328L145.8697544336319,47.43835241137935L146.5918819308281,48.00496687072438L147.3140094280243,46.41117631113509L148.0361369252205,47.98555954642175L148.7582644224167,46.41050178957671L149.48039191961288,47.888695770652184L150.20251941680908,46.96363483030555L150.92464691400528,44.178834810619364L151.64677441120148,47.03666005162874L152.36890190839767,44.96821261270397L153.09102940559387,47.205582433948884L153.81315690279007,46.001103089783484L154.53528439998627,47.80050733982473L155.25741189718246,45.98203036484904L155.97953939437866,45.36488012447964L156.70166689157486,43.406017042602876L157.42379438877106,43.67297836517138L158.14592188596725,42.972164087977966L158.86804938316345,39.48496737940347L159.59017688035965,39.80392917761811L160.31230437755585,40.2331355990245L161.03443187475204,40.793266710330364L161.75655937194827,42.56312121766354L162.47868686914444,37.0475777160866L163.2008143663406,38.5620253379198L163.92294186353683,40.14249066250071L164.64506936073303,40.00688785817598L165.36719685792923,38.699400529896174L166.08932435512543,39.22353816482858L166.81145185232162,40.69573584474549L167.53357934951782,41.115757269449915L168.25570684671402,44.420326842407874L168.97783434391022,39.74496029975902L169.69996184110641,41.672410405196786L170.4220893383026,40.65855875276193L171.1442168354988,41.648538106161745L171.866344332695,41.207379515464204L172.5884718298912,40.05822755142951L173.3105993270874,42.4355452883789L174.0327268242836,37.55637517754436L174.7548543214798,39.7374364463816L175.476981818676,39.18065733714062L176.1991093158722,42.749647659403344L176.9212368130684,43.583453143015596L177.6433643102646,41.78188661175781L178.36549180746078,39.31861312664806L179.08761930465698,37.33073229134762L179.8097468018532,37.7493802433983L180.53187429904938,32.7423288160067L181.25400179624555,37.07595927458596L181.97612929344177,44.033264582980955L182.69825679063797,44.147364730983675L183.42038428783417,45.27140397061234L184.14251178503036,47.719717405855114L184.86463928222656,44.76508737486891L185.58676677942276,42.5587978256365L186.30889427661896,42.793571445166734L187.03102177381516,42.04840962595698L187.75314927101135,40.272388717309845L188.47527676820755,38.628045788712434L189.19740426540375,36.839127704182545L189.91953176259995,37.534512920071485L190.64165925979614,37.533602817867646L191.36378675699234,38.24512916169386L192.08591425418854,36.4685449049244L192.80804175138474,39.01569910381354L193.53016924858093,39.72646735461918L194.25229674577713,38.9443707719014L194.97442424297333,41.003371033507136L195.69655174016953,39.535114978852846L196.41867923736572,41.12678320216493L197.14080673456192,35.97523108399924L197.86293423175815,34.45270853096336L198.58506172895432,39.0455961835568L199.30718922615048,34.63830880900552L200.0293167233467,35.57832559909303L200.7514442205429,40.10232067165913L201.4735717177391,37.78135404875679L202.1956992149353,37.448417741350156L202.9178267121315,39.36134505011507L203.6399542093277,39.68789175018741L204.3620817065239,35.86428266138561L205.0842092037201,37.090621068785424L205.8063367009163,36.023002901293935L206.5284641981125,33.448288868034076L207.25059169530869,33.76491737494516L207.97271919250488,33.72129280858863L208.69484668970108,33.672252169843965L209.41697418689728,32.02654224320755L210.13910168409348,35.16399009017974L210.86122918128967,38.78801011839225L211.58335667848587,34.80728204713881L212.30548417568207,35.01134867373111L213.02761167287827,34.05006020964066L213.74973917007446,34.21227555461453L214.47186666727066,34.501054479067925L215.19399416446686,34.010836464619516L215.91612166166308,33.46767610190848L216.63824915885925,33.12568977743724L217.36037665605542,33.749491191144756L218.08250415325165,33.97649933460875L218.80463165044785,34.902376720611876L219.52675914764404,33.096357258868736L220.24888664484024,32.24833392224364L220.97101414203644,28.474941373705942L221.69314163923264,29.418753927943644L222.41526913642883,31.431356355370852L223.13739663362503,28.414441784695622L223.85952413082123,28.013557023083987L224.58165162801743,27.648321839671514L225.30377912521362,24.270961004446594L226.02590662240982,27.915541770271012L226.74803411960602,27.675529736951862L227.47016161680222,26.63065888500548L228.1922891139984,29.238044597114833L228.9144166111946,30.24980748716077L229.6365441083908,32.55433550290117L230.358671605587,29.278292160716266L231.0807991027832,30.17491525133816L231.8029265999794,27.922035360101948L232.5250540971756,27.1376696420187L233.2471815943718,31.406620800991675L233.96930909156802,26.85940340677831L234.6914365887642,28.16763593626366L235.41356408596036,30.012823758960177L236.13569158315659,31.10048244328845L236.85781908035278,31.717063263229583L237.57994657754898,30.763457705313996L238.30207407474518,29.46177861964216L239.02420157194138,30.746562374721837L239.74632906913757,33.58990365194636L240.46845656633377,30.463933683692133L241.19058406352997,29.021057048486202L241.91271156072617,28.188101523563688L242.63483905792236,27.00438109908245L243.35696655511856,27.67462530626056L244.07909405231476,25.80406943203948L244.80122154951096,22.657496814107184L245.52334904670715,26.27659745619024L246.24547654390335,28.314739813298758L246.96760404109955,30.272683499633267L247.68973153829575,28.888830001239622L248.41185903549194,27.80118656324009L249.13398653268814,25.926894475514146L249.85611402988434,27.168788602541095L250.57824152708054,29.772982645820427L251.30036902427673,28.307890896893195L252.02249652147296,29.226090704772332L252.74462401866913,32.24088437975961L253.4667515158653,30.132359424037183L254.18887901306152,31.76164496790821L254.91100651025772,27.91077821599274L255.63313400745392,29.225369314252827L256.3552615046501,29.03793483957173L257.0773890018463,27.65533945155583L257.7995164990425,26.78369744778668L258.5216439962387,26.908678555434342L259.2437714934349,25.053626992522577L259.9658989906311,24.10446753065914L260.6880264878273,25.38655301545542L261.4101539850235,27.4772949067821L262.1322814822197,28.36583767149041L262.8544089794159,26.43402902302231L263.5765364766121,25.56463773793915L264.2986639738083,22.88316165481499L265.0207914710045,23.25956389128439L265.7429189682007,23.995537919782976L266.4650464653969,23.61068684604274L267.1871739625931,24.06677529699684L267.9093014597893,22.932800750162023L268.6314289569855,22.952357264041346L269.35355645418167,27.245475215328337L270.07568395137787,26.28315884366523L270.79781144857407,26.15141651319595L271.51993894577026,27.757187173021666L272.24206644296646,26.4949026417506L272.96419394016266,26.741121745585094L273.68632143735886,26.046500364107633L274.40844893455505,27.108515365691137L275.13057643175125,28.807273124660245L275.85270392894745,27.067897436598123L276.57483142614365,27.647520509301216L277.29695892333984,29.993097300003882L278.01908642053604,29.85667128302793L278.74121391773224,29.597507782057193L279.46334141492844,30.1970882117475L280.18546891212463,27.155259276918606L280.90759640932083,27.276704940252518L281.62972390651703,27.015279134221167L282.3518514037132,27.17962114882463L283.0739789009094,30.41946821279207L283.7961063981056,26.590439983586666L284.5182338953018,28.342739302521522L285.240361392498,31.16084429697369L285.9624888896942,25.95271288035366L286.6846163868904,27.468843718181866L287.4067438840866,23.95227922912152L288.1288713812828,21.467219825231194L288.850998878479,25.861597839367946L289.5731263756752,26.138132766546107" fill="none"></path></g></g></g></g><g opacity="0.2"><g><g><g><path style="fill: none;" stroke="rgb(187, 187, 187)" stroke-width="2px" d="M36.82850235700607,167.93074504116152L37.55062985420227,169.5980451728607L38.27275735139847,169.87778878179182L38.994884848594666,169.38304453923686L39.71701234579086,168.88540981791823L40.43913984298707,168.7426359127899L41.16126734018326,168.32252525653368L41.883394837379456,168.36157933614106L42.60552233457565,167.77428053895238L43.32764983177185,167.3423470372627L44.04977732896805,166.7084106838866L44.771904826164246,165.69564765887938L45.49403232336044,165.28767926283055L46.21615982055664,162.9796473409108L46.93828731775284,162.02248123155854L47.660414814949036,162.56433915326198L48.38254231214523,162.9688322265949L49.10466980934143,160.67807794466273L49.82679730653762,159.61339802209966L50.548924803733826,160.52290684734785L51.27105230093002,159.84743157736756L51.99317979812622,159.88510752468758L52.71530729532242,167.70477558423437L53.437434792518616,167.65092495263664L54.15956228971481,165.82776915627852L54.88168978691101,165.46172582380234L55.60381728410721,164.9642403126715L56.325944781303406,164.9873131563853L57.0480722784996,164.95681804307827L57.7701997756958,164.7273050316408L58.492327272892005,164.49777252540497L59.214454770088196,164.17091148832566L59.93658226728439,164.80455392012576L60.65870976448059,164.75754596276863L61.38083726167679,163.96950322799066L62.102964758872986,163.66868799138211L62.82509225606918,162.87325522840828L63.54721975326538,163.74565645469L64.26934725046158,163.4468296875189L64.99147474765778,162.1279270965384L65.71360224485397,160.91005704809857L66.43572974205017,160.34919319754886L67.15785723924637,158.80462181941664L67.87998473644257,158.3438727562826L68.60211223363876,154.8015509170653L69.32423973083496,154.38201385776222L70.04636722803116,153.36378704060166L70.76849472522736,151.26119655288718L71.49062222242355,150.2453615975311L72.21274971961975,149.66493546658057L72.93487721681595,144.83434036387885L73.65700471401215,142.9750404614755L74.37913221120834,141.43905429264146L75.10125970840454,139.72536853753425L75.82338720560074,133.63405082029584L76.54551470279694,134.26463556794593L77.26764219999313,131.5771066532498L77.98976969718933,128.6933730897933L78.71189719438553,119.47000906379782L79.43402469158173,122.4614588864486L80.15615218877792,117.83131230016032L80.87827968597414,111.35065946514983L81.6004071831703,113.02096779420312L82.32253468036652,105.42052174193506L83.04466217756271,107.99709826090145L83.76678967475891,103.72603986285795L84.48891717195511,107.62637317760803L85.2110446691513,104.65742934991741L85.9331721663475,98.23061215050589L86.6552996635437,94.8813278051079L87.3774271607399,91.3903372696943L88.0995546579361,94.19918981287228L88.8216821551323,96.85583896689278L89.54380965232849,95.0481193018728L90.26593714952469,93.89463907296913L90.98806464672089,96.02231936623251L91.71019214391708,91.9583257192616L92.43231964111328,90.48610253721495L93.15444713830948,88.5700097882544L93.87657463550568,87.37563247149403L94.59870213270187,92.47565768497L95.32082962989807,84.99200047115453L96.04295712709427,84.0499218361689L96.76508462429047,80.62421788101817L97.48721212148666,81.58612122638313L98.20933961868286,79.55303569338666L98.93146711587907,74.92783178829433L99.65359461307524,67.96191443135392L100.37572211027145,71.7172484347576L101.09784960746765,74.99446201004734L101.81997710466385,74.21931283501534L102.54210460186005,67.75493365787447L103.26423209905624,71.43791496639295L103.98635959625244,73.88611373905417L104.70848709344864,67.30890466713709L105.43061459064484,60.60337783290991L106.15274208784103,67.75615733137445L106.87486958503723,69.0413024295146L107.59699708223343,68.72041204934719L108.31912457942963,69.32641835500654L109.04125207662582,60.80460014286012L109.76337957382202,66.84158135814049L110.48550707101822,63.10421855966768L111.20763456821442,57.98273707114573L111.92976206541061,63.89651116049822L112.65188956260681,68.67256881485835L113.37401705980301,69.70190616751063L114.0961445569992,51.26508147311009L114.8182720541954,58.19160134207121L115.5403995513916,55.90272006038589L116.2625270485878,59.525333476239396L116.98465454578401,66.44776243673495L117.70678204298018,54.495171621852144L118.42890954017639,61.489761328448594L119.15103703737259,59.02807815368973L119.87316453456879,56.19734944750011L120.59529203176498,68.71047869975924L121.31741952896118,59.89611854352793L122.03954702615738,50.51095068995983L122.76167452335358,56.491762892232L123.48380202054977,49.07592958167196L124.20592951774597,59.06941912311013L124.92805701494217,59.20342336815536L125.65018451213837,58.80042689550008L126.37231200933456,54.96927312229463L127.09443950653076,57.07777053392621L127.81656700372696,45.523377472090964L128.53869450092316,49.183049000115005L129.26082199811935,53.79472651431312L129.98294949531555,51.11344193350653L130.70507699251175,49.43567759386278L131.42720448970795,43.6959890550789L132.14933198690414,47.04849454101357L132.87145948410034,55.837013592157355L133.59358698129654,60.12261810901173L134.31571447849274,61.48156751471843L135.03784197568893,51.77744076562501L135.75996947288513,47.95544055007127L136.48209697008133,56.82498598179121L137.20422446727753,56.87482068491724L137.92635196447372,50.91559072408075L138.64847946166992,50.48485765209292L139.37060695886612,45.787187082524696L140.09273445606232,42.63505213380986L140.81486195325851,50.52982165481714L141.5369894504547,48.505889679472375L142.2591169476509,47.458161233923555L142.9812444448471,47.211914937254036L143.7033719420433,52.275775800086436L144.4254994392395,47.55138835910228L145.14762693643567,47.00242683277958L145.8697544336319,46.52983692901351L146.5918819308281,48.85488855974193L147.3140094280243,44.02049047175109L148.0361369252205,50.34713439935172L148.7582644224167,44.04791515430915L149.48039191961288,50.105986742265394L150.20251941680908,45.576043419785556L150.92464691400528,40.00163478109016L151.64677441120148,51.32339791314276L152.36890190839767,41.86554145431689L153.09102940559387,50.561637165816244L153.81315690279007,44.194384073535396L154.53528439998627,50.49961371488662L155.25741189718246,43.25431490238548L155.97953939437866,44.439154763925536L156.70166689157486,40.46772241978777L157.42379438877106,44.07342034902411L158.14592188596725,41.920942672187884L158.86804938316345,34.25417231654178L159.59017688035965,40.28237187494007L160.31230437755585,40.87694523113404L161.03443187475204,41.63346337728914L161.75655937194827,45.217902978663325L162.47868686914444,28.77426246372116L163.2008143663406,40.833696770669576L163.92294186353683,42.513188649372125L164.64506936073303,39.803483651688886L165.36719685792923,36.7381695374765L166.08932435512543,40.009744617227184L166.81145185232162,42.904032364620875L167.53357934951782,41.74578940650655L168.25570684671402,49.37718120184481L168.97783434391022,32.7319104857858L169.69996184110641,44.563585563353385L170.4220893383026,39.13778127410966L171.1442168354988,43.13350713626146L171.866344332695,40.54564162941792L172.5884718298912,38.33449960537746L173.3105993270874,46.00152189380295L174.0327268242836,30.237620011292552L174.7548543214798,43.00902834963751L175.476981818676,38.34548867327912L176.1991093158722,48.103133142797475L176.9212368130684,44.83416136843399L177.6433643102646,39.07953681487112L178.36549180746078,35.62370289898349L179.08761930465698,34.348911038396956L179.8097468018532,38.377352171474286L180.53187429904938,25.23175167491932L181.25400179624555,43.57640496245482L181.97612929344177,54.469222545573466L182.69825679063797,44.31851495298776L183.42038428783417,46.957462830055356L184.14251178503036,51.392187558719236L184.86463928222656,40.33314232838961L185.58676677942276,39.24936350178788L186.30889427661896,43.14573187446209L187.03102177381516,40.93066689714233L187.75314927101135,37.60835735433917L188.47527676820755,36.16153139581631L189.19740426540375,34.155750577387714L189.91953176259995,38.577590743904906L190.64165925979614,37.5322376645619L191.36378675699234,39.312418677433165L192.08591425418854,33.803668519770206L192.80804175138474,42.83643040214729L193.53016924858093,40.7926197308276L194.25229674577713,37.77122589782476L194.97442424297333,44.09187142591574L195.69655174016953,37.33273089687145L196.41867923736572,43.51428553713305L197.14080673456192,28.247902906750742L197.86293423175815,32.168924701409544L198.58506172895432,45.93492766244699L199.30718922615048,28.02737774717854L200.0293167233467,36.98835078422433L200.7514442205429,46.88831328050829L201.4735717177391,34.29990411440325L202.1956992149353,36.949013280240145L202.9178267121315,42.23073601326246L203.6399542093277,40.17771180029595L204.3620817065239,30.128869028182873L205.0842092037201,38.93012867988513L205.8063367009163,34.42157565005667L206.5284641981125,29.5862178181443L207.25059169530869,34.2398601353118L207.97271919250488,33.65585595905381L208.69484668970108,33.59869121172698L209.41697418689728,29.557977353252934L210.13910168409348,39.87016186063798L210.86122918128967,44.22404016071102L211.58335667848587,28.836189940258624L212.30548417568207,35.31744861361958L213.02761167287827,32.60812751350497L213.74973917007446,34.455598572075324L214.47186666727066,34.934222865748076L215.19399416446686,33.2755094429469L215.91612166166308,32.65293555784195L216.63824915885925,32.612710290730334L217.36037665605542,34.68519331170607L218.08250415325165,34.31701154980473L218.80463165044785,36.291192799616574L219.52675914764404,30.387328066254014L220.24888664484024,30.976298917305993L220.97101414203644,22.81485255089937L221.69314163923264,30.834472759300187L222.41526913642883,34.45025999651175L223.13739663362503,23.88906992868275L223.85952413082123,27.412229880666512L224.58165162801743,27.10046906455278L225.30377912521362,19.204919751609236L226.02590662240982,33.3824129190076L226.74803411960602,27.315511686973167L227.47016161680222,25.06335260708583L228.1922891139984,33.149123165278894L228.9144166111946,31.767451822229724L229.6365441083908,36.01112752651176L230.358671605587,24.36422714743892L231.0807991027832,31.519849887271018L231.8029265999794,24.542715523247605L232.5250540971756,25.96112106489379L233.2471815943718,37.81004753945112L233.96930909156802,20.03857731545823L234.6914365887642,30.129984730491675L235.41356408596036,32.78060549300501L236.13569158315659,32.73197046978089L236.85781908035278,32.64193449314127L237.57994657754898,29.333049368440673L238.30207407474518,27.509259991134368L239.02420157194138,32.67373800734136L239.74632906913757,37.85491556778318L240.46845656633377,25.774978731310817L241.19058406352997,26.856742095677312L241.91271156072617,26.93866823617989L242.63483905792236,25.228800462360567L243.35696655511856,28.679991617027756L244.07909405231476,22.99823562070791L244.80122154951096,17.937637887208773L245.52334904670715,31.705248419314795L246.24547654390335,31.371953348961476L246.96760404109955,33.209599029135035L247.68973153829575,26.81304975364913L248.41185903549194,26.169721406240853L249.13398653268814,23.115456343925207L249.85611402988434,29.03162979308153L250.57824152708054,33.67927371073941L251.30036902427673,26.110253273502327L252.02249652147296,30.603390416591044L252.74462401866913,36.76307489224051L253.4667515158653,26.96957199045354L254.18887901306152,34.20557328371473L254.91100651025772,22.13447808811959L255.63313400745392,31.19725596164288L256.3552615046501,28.756783127550094L257.0773890018463,25.581446369531967L257.7995164990425,25.476234442133L258.5216439962387,27.096150216905848L259.2437714934349,22.271049648154946L259.9658989906311,22.68072833786395L260.6880264878273,27.309681242649813L261.4101539850235,30.613407743772125L262.1322814822197,29.69865181855287L262.8544089794159,23.536316050320174L263.5765364766121,24.260550810314406L264.2986639738083,18.860947530128765L265.0207914710045,23.82416724598851L265.7429189682007,25.099498962530898L266.4650464653969,23.033410235432417L267.1871739625931,24.750907973427996L267.9093014597893,21.231838929909802L268.6314289569855,22.98169203486034L269.35355645418167,33.68515214225886L270.07568395137787,24.83968428617059L270.79781144857407,25.953803017492046L271.51993894577026,30.165843162760265L272.24206644296646,24.601475844843982L272.96419394016266,27.110450401336816L273.68632143735886,25.00456829189142L274.40844893455505,28.70153786806636L275.13057643175125,31.355409763113904L275.85270392894745,24.45883390450487L276.57483142614365,28.51695511835589L277.29695892333984,33.51146248605787L278.01908642053604,29.65203225756401L278.74121391773224,29.20876253060103L279.46334141492844,31.096458856282986L280.18546891212463,22.592515874675268L280.90759640932083,27.458873435253427L281.62972390651703,26.623140425174117L282.3518514037132,27.426134170729842L283.0739789009094,35.279238808743216L283.7961063981056,20.846897639778515L284.5182338953018,30.971188280923784L285.240361392498,35.38800178865191L285.9624888896942,18.140515755423635L286.6846163868904,29.74303997492417L287.4067438840866,18.677432495530997L288.1288713812828,17.739630719395734L288.850998878479,32.453164860573075L289.5731263756752,26.552935157313346" fill="none"></path></g></g></g></g></g></g><g transform="translate(41, 176)" clip-path="url(#clip_1)"><clipPath id="clip_1"><rect width="288" height="23"></rect></clipPath><g><g><line x1="0" y1="0" x2="0" y2="5" style="visibility: inherit;" fill="rgb(0, 0, 0)" stroke="rgb(204, 204, 204)" stroke-width="1px"></line><line x1="36.106374859809875" y1="0" x2="36.106374859809875" y2="5" style="visibility: inherit;" fill="rgb(0, 0, 0)" stroke="rgb(204, 204, 204)" stroke-width="1px"></line><line x1="72.21274971961975" y1="0" x2="72.21274971961975" y2="5" style="visibility: inherit;" fill="rgb(0, 0, 0)" stroke="rgb(204, 204, 204)" stroke-width="1px"></line><line x1="108.31912457942963" y1="0" x2="108.31912457942963" y2="5" style="visibility: inherit;" fill="rgb(0, 0, 0)" stroke="rgb(204, 204, 204)" stroke-width="1px"></line><line x1="144.4254994392395" y1="0" x2="144.4254994392395" y2="5" style="visibility: inherit;" fill="rgb(0, 0, 0)" stroke="rgb(204, 204, 204)" stroke-width="1px"></line><line x1="180.53187429904938" y1="0" x2="180.53187429904938" y2="5" style="visibility: inherit;" fill="rgb(0, 0, 0)" stroke="rgb(204, 204, 204)" stroke-width="1px"></line><line x1="216.63824915885925" y1="0" x2="216.63824915885925" y2="5" style="visibility: inherit;" fill="rgb(0, 0, 0)" stroke="rgb(204, 204, 204)" stroke-width="1px"></line><line x1="252.74462401866913" y1="0" x2="252.74462401866913" y2="5" style="visibility: inherit;" fill="rgb(0, 0, 0)" stroke="rgb(204, 204, 204)" stroke-width="1px"></line><line x1="288.850998878479" y1="0" x2="288.850998878479" y2="5" style="visibility: inherit;" fill="rgb(0, 0, 0)" stroke="rgb(204, 204, 204)" stroke-width="1px"></line></g><g transform="translate(0, 8)"><text style="text-anchor: middle; visibility: hidden; font-family: Roboto, sans-serif; font-size: 12px; font-weight: 200;" x="0" y="0" dx="0em" dy="0.95em" fill="rgb(33, 33, 33)" stroke="none" stroke-width="1px">-50</text><text style="text-anchor: middle; visibility: inherit; font-family: Roboto, sans-serif; font-size: 12px; font-weight: 200;" x="36.106374859809875" y="0" dx="0em" dy="0.95em" fill="rgb(33, 33, 33)" stroke="none" stroke-width="1px">0</text><text style="text-anchor: middle; visibility: inherit; font-family: Roboto, sans-serif; font-size: 12px; font-weight: 200;" x="72.21274971961975" y="0" dx="0em" dy="0.95em" fill="rgb(33, 33, 33)" stroke="none" stroke-width="1px">50</text><text style="text-anchor: middle; visibility: inherit; font-family: Roboto, sans-serif; font-size: 12px; font-weight: 200;" x="108.31912457942963" y="0" dx="0em" dy="0.95em" fill="rgb(33, 33, 33)" stroke="none" stroke-width="1px">100</text><text style="text-anchor: middle; visibility: inherit; font-family: Roboto, sans-serif; font-size: 12px; font-weight: 200;" x="144.4254994392395" y="0" dx="0em" dy="0.95em" fill="rgb(33, 33, 33)" stroke="none" stroke-width="1px">150</text><text style="text-anchor: middle; visibility: inherit; font-family: Roboto, sans-serif; font-size: 12px; font-weight: 200;" x="180.53187429904938" y="0" dx="0em" dy="0.95em" fill="rgb(33, 33, 33)" stroke="none" stroke-width="1px">200</text><text style="text-anchor: middle; visibility: inherit; font-family: Roboto, sans-serif; font-size: 12px; font-weight: 200;" x="216.63824915885925" y="0" dx="0em" dy="0.95em" fill="rgb(33, 33, 33)" stroke="none" stroke-width="1px">250</text><text style="text-anchor: middle; visibility: inherit; font-family: Roboto, sans-serif; font-size: 12px; font-weight: 200;" x="252.74462401866913" y="0" dx="0em" dy="0.95em" fill="rgb(33, 33, 33)" stroke="none" stroke-width="1px">300</text><text style="text-anchor: middle; visibility: hidden; font-family: Roboto, sans-serif; font-size: 12px; font-weight: 200;" x="288.850998878479" y="0" dx="0em" dy="0.95em" fill="rgb(33, 33, 33)" stroke="none" stroke-width="1px">350</text></g><line x1="0" y1="0" x2="288.850998878479" y2="0" fill="rgb(0, 0, 0)" stroke="rgb(204, 204, 204)" stroke-width="1px"></line></g></g></g></g></svg>