<svg viewBox="0 0 330 200" xmlns="http://www.w3.org/2000/svg"><g><g><g><g><g><line x1="41.149001121520996" y1="176.89999961853027" x2="36.149001121520996" y2="176.89999961853027" style="visibility: inherit;" fill="rgb(0, 0, 0)" stroke="rgb(204, 204, 204)" stroke-width="1px"></line><line x1="41.149001121520996" y1="157.24444410536023" x2="36.149001121520996" y2="157.24444410536023" style="visibility: inherit;" fill="rgb(0, 0, 0)" stroke="rgb(204, 204, 204)" stroke-width="1px"></line><line x1="41.149001121520996" y1="137.58888859219022" x2="36.149001121520996" y2="137.58888859219022" style="visibility: inherit;" fill="rgb(0, 0, 0)" stroke="rgb(204, 204, 204)" stroke-width="1px"></line><line x1="41.149001121520996" y1="117.9333330790202" x2="36.149001121520996" y2="117.9333330790202" style="visibility: inherit;" fill="rgb(0, 0, 0)" stroke="rgb(204, 204, 204)" stroke-width="1px"></line><line x1="41.149001121520996" y1="98.27777756585016" x2="36.149001121520996" y2="98.27777756585016" style="visibility: inherit;" fill="rgb(0, 0, 0)" stroke="rgb(204, 204, 204)" stroke-width="1px"></line><line x1="41.149001121520996" y1="78.62222205268012" x2="36.149001121520996" y2="78.62222205268012" style="visibility: inherit;" fill="rgb(0, 0, 0)" stroke="rgb(204, 204, 204)" stroke-width="1px"></line><line x1="41.149001121520996" y1="58.9666665395101" x2="36.149001121520996" y2="58.9666665395101" style="visibility: inherit;" fill="rgb(0, 0, 0)" stroke="rgb(204, 204, 204)" stroke-width="1px"></line><line x1="41.149001121520996" y1="39.31111102634006" x2="36.149001121520996" y2="39.31111102634006" style="visibility: inherit;" fill="rgb(0, 0, 0)" stroke="rgb(204, 204, 204)" stroke-width="1px"></line><line x1="41.149001121520996" y1="19.65555551317004" x2="36.149001121520996" y2="19.65555551317004" style="visibility: inherit;" fill="rgb(0, 0, 0)" stroke="rgb(204, 204, 204)" stroke-width="1px"></line><line x1="41.149001121520996" y1="0" x2="36.149001121520996" y2="0" style="visibility: inherit;" fill="rgb(0, 0, 0)" stroke="rgb(204, 204, 204)" stroke-width="1px"></line></g><g transform="translate(31.149001121520996, 0)"><text style="text-anchor: end; visibility: hidden; font-family: Roboto, sans-serif; font-size: 12px; font-weight: 200;" x="0" y="176.89999961853027" dx="0em" dy="0.3em" fill="rgb(33, 33, 33)" stroke="none" stroke-width="1px">0</text><text style="text-anchor: end; visibility: inherit; font-family: Roboto, sans-serif; font-size: 12px; font-weight: 200;" x="0" y="157.24444410536023" dx="0em" dy="0.3em" fill="rgb(33, 33, 33)" stroke="none" stroke-width="1px">50</text><text style="text-anchor: end; visibility: hidden; font-family: Roboto, sans-serif; font-size: 12px; font-weight: 200;" x="0" y="137.58888859219022" dx="0em" dy="0.3em" fill="rgb(33, 33, 33)" stroke="none" stroke-width="1px">100</text><text style="text-anchor: end; visibility: inherit; font-family: Roboto, sans-serif; font-size: 12px; font-weight: 200;" x="0" y="117.9333330790202" dx="0em" dy="0.3em" fill="rgb(33, 33, 33)" stroke="none" stroke-width="1px">150</text><text style="text-anchor: end; visibility: hidden; font-family: Roboto, sans-serif; font-size: 12px; font-weight: 200;" x="0" y="98.27777756585016" dx="0em" dy="0.3em" fill="rgb(33, 33, 33)" stroke="none" stroke-width="1px">200</text><text style="text-anchor: end; visibility: inherit; font-family: Roboto, sans-serif; font-size: 12px; font-weight: 200;" x="0" y="78.62222205268012" dx="0em" dy="0.3em" fill="rgb(33, 33, 33)" stroke="none" stroke-width="1px">250</text><text style="text-anchor: end; visibility: hidden; font-family: Roboto, sans-serif; font-size: 12px; font-weight: 200;" x="0" y="58.9666665395101" dx="0em" dy="0.3em" fill="rgb(33, 33, 33)" stroke="none" stroke-width="1px">300</text><text style="text-anchor: end; visibility: inherit; font-family: Roboto, sans-serif; font-size: 12px; font-weight: 200;" x="0" y="39.31111102634006" dx="0em" dy="0.3em" fill="rgb(33, 33, 33)" stroke="none" stroke-width="1px">350</text><text style="text-anchor: end; visibility: hidden; font-family: Roboto, sans-serif; font-size: 12px; font-weight: 200;" x="0" y="19.65555551317004" dx="0em" dy="0.3em" fill="rgb(33, 33, 33)" stroke="none" stroke-width="1px">400</text><text style="text-anchor: end; visibility: hidden; font-family: Roboto, sans-serif; font-size: 12px; font-weight: 200;" x="0" y="0" dx="0em" dy="0.3em" fill="rgb(33, 33, 33)" stroke="none" stroke-width="1px">450</text></g><line x1="41.149001121520996" y1="0" x2="41.149001121520996" y2="176.89999961853027" fill="rgb(0, 0, 0)" stroke="rgb(204, 204, 204)" stroke-width="1px"></line></g></g><g transform="translate(41, 0)" clip-path="url(#clip_0)"><clipPath id="clip_0"><rect width="288" height="176"></rect></clipPath><g><g><g><line x1="0" y1="0" x2="0" y2="176.89999961853027" fill="rgb(0, 0, 0)" stroke="rgb(66, 66, 66)" stroke-width="1px" opacity="0.25"></line><line x1="36.106374859809875" y1="0" x2="36.106374859809875" y2="176.89999961853027" fill="rgb(0, 0, 0)" stroke="rgb(66, 66, 66)" stroke-width="1px" opacity="0.25"></line><line x1="72.21274971961975" y1="0" x2="72.21274971961975" y2="176.89999961853027" fill="rgb(0, 0, 0)" stroke="rgb(66, 66, 66)" stroke-width="1px" opacity="0.25"></line><line x1="108.31912457942963" y1="0" x2="108.31912457942963" y2="176.89999961853027" fill="rgb(0, 0, 0)" stroke="rgb(66, 66, 66)" stroke-width="1px" opacity="0.25"></line><line x1="144.4254994392395" y1="0" x2="144.4254994392395" y2="176.89999961853027" fill="rgb(0, 0, 0)" stroke="rgb(66, 66, 66)" stroke-width="1px" opacity="0.25"></line><line x1="180.53187429904938" y1="0" x2="180.53187429904938" y2="176.89999961853027" fill="rgb(0, 0, 0)" stroke="rgb(66, 66, 66)" stroke-width="1px" opacity="0.25"></line><line x1="216.63824915885925" y1="0" x2="216.63824915885925" y2="176.89999961853027" fill="rgb(0, 0, 0)" stroke="rgb(66, 66, 66)" stroke-width="1px" opacity="0.25"></line><line x1="252.74462401866913" y1="0" x2="252.74462401866913" y2="176.89999961853027" fill="rgb(0, 0, 0)" stroke="rgb(66, 66, 66)" stroke-width="1px" opacity="0.25"></line><line x1="288.850998878479" y1="0" x2="288.850998878479" y2="176.89999961853027" fill="rgb(0, 0, 0)" stroke="rgb(66, 66, 66)" stroke-width="1px" opacity="0.25"></line></g><g><line x1="0" y1="176.89999961853027" x2="288.850998878479" y2="176.89999961853027" fill="rgb(0, 0, 0)" stroke="rgb(66, 66, 66)" stroke-width="1px" opacity="0.25"></line><line x1="0" y1="157.24444410536023" x2="288.850998878479" y2="157.24444410536023" fill="rgb(0, 0, 0)" stroke="rgb(66, 66, 66)" stroke-width="1px" opacity="0.25"></line><line x1="0" y1="137.58888859219022" x2="288.850998878479" y2="137.58888859219022" fill="rgb(0, 0, 0)" stroke="rgb(66, 66, 66)" stroke-width="1px" opacity="0.25"></line><line x1="0" y1="117.9333330790202" x2="288.850998878479" y2="117.9333330790202" fill="rgb(0, 0, 0)" stroke="rgb(66, 66, 66)" stroke-width="1px" opacity="0.25"></line><line x1="0" y1="98.27777756585016" x2="288.850998878479" y2="98.27777756585016" fill="rgb(0, 0, 0)" stroke="rgb(66, 66, 66)" stroke-width="1px" opacity="0.25"></line><line x1="0" y1="78.62222205268012" x2="288.850998878479" y2="78.62222205268012" fill="rgb(0, 0, 0)" stroke="rgb(66, 66, 66)" stroke-width="1px" opacity="0.25"></line><line x1="0" y1="58.9666665395101" x2="288.850998878479" y2="58.9666665395101" fill="rgb(0, 0, 0)" stroke="rgb(66, 66, 66)" stroke-width="1px" opacity="0.25"></line><line x1="0" y1="39.31111102634006" x2="288.850998878479" y2="39.31111102634006" fill="rgb(0, 0, 0)" stroke="rgb(66, 66, 66)" stroke-width="1px" opacity="0.25"></line><line x1="0" y1="19.65555551317004" x2="288.850998878479" y2="19.65555551317004" fill="rgb(0, 0, 0)" stroke="rgb(66, 66, 66)" stroke-width="1px" opacity="0.25"></line><line x1="0" y1="0" x2="288.850998878479" y2="0" fill="rgb(0, 0, 0)" stroke="rgb(66, 66, 66)" stroke-width="1px" opacity="0.25"></line></g></g></g><g><g><line x1="0" y1="176.89999961853027" x2="288.850998878479" y2="176.89999961853027" fill="rgb(0, 0, 0)" stroke="rgb(153, 153, 153)" stroke-width="1.5px"></line></g></g><g><g><line x1="36.106374859809875" y1="0" x2="36.106374859809875" y2="176.89999961853027" fill="rgb(0, 0, 0)" stroke="rgb(153, 153, 153)" stroke-width="1.5px"></line></g></g><g><g><g><g><g><path style="fill: none;" stroke="rgb(187, 187, 187)" stroke-width="2px" d="M38.45328922569752,167.93074504116152L38.994884848594666,168.9728076234735L39.536480471491814,169.43453270424814L40.07807609438896,169.41087086370987L40.61967171728611,169.18296444204452L41.34179921448231,168.99821328013252L41.883394837379456,168.72015419591295L42.424990460276604,168.57427402531806L42.96658608317375,168.2510189645388L43.5081817060709,167.88533906712468L44.04977732896805,167.41285355028432L44.591372951865196,166.7244727385309L45.132968574762344,166.1490037458078L45.67456419765949,164.8802669488635L46.21615982055664,163.73661493393652L46.75775544345379,163.26757229958443L47.29935106635094,163.14805604027842L48.021478563547134,162.1599644514932L48.56307418644428,161.1412758049509L49.10466980934143,160.8939191781595L49.64626543223858,160.47531495494255L50.18786105513573,160.23922887543537L50.729456678032875,163.22547114221268L51.45158417522907,164.9956610542171L51.99317979812622,165.3285052413273L52.53477542102337,165.38179356521744L53.07637104392052,165.2147720932542L53.617966666817665,165.12378846263414L54.340094164013856,165.05700027020325L54.88168978691101,164.92512214562345L55.42328540980816,164.75418227486185L55.96488103270531,164.52087394167916L56.506476655602455,164.63434593847632L57.0480722784996,164.68362594960516L57.7701997756958,164.39797685604884L58.31179539859295,164.10626130717327L58.85339102149009,163.61305887261503L59.394986644387245,163.66609790564198L59.93658226728439,163.57839061819732L60.47817789018154,162.9982052087582L61.01977351307869,162.1629459438244L61.56136913597584,161.43744484496506L62.102964758872986,160.38431563444163L62.644560381770134,159.56813848303662L63.18615600466728,157.6615034564499L63.90828350186348,156.34970761689303L64.44987912476063,155.15533938633178L64.99147474765778,153.59768225291896L65.53307037055492,152.25675399074575L66.07466599345207,151.2200265810713L66.61626161634922,148.66575209418193L67.33838911354542,146.38946744109273L67.87998473644257,144.40930218170877L68.42158035933971,142.535728724037L68.96317598223686,138.9750575625383L69.50477160513401,137.09088876470062L70.22689910233021,134.8853759201198L70.76849472522736,132.40857478798887L71.3100903481245,127.23314849831203L71.85168597102165,125.32447265356657L72.57381346821784,122.32720851220398L73.115409091115,117.93658889338225L73.65700471401215,115.97034045371059L74.1986003369093,111.75041296900037L74.92072783410549,110.24908708576079L75.46232345700264,107.63986819659965L76.00391907989979,107.63447018900301L76.54551470279694,106.44365385336879L77.26764219999313,103.15843717222361L77.80923782289028,99.84759342537734L78.35083344578743,96.46469096310412L78.89242906868458,95.55849050301138L79.43402469158173,96.07742988856397L80.15615218877792,95.6657056538875L80.69774781167507,94.95727902152015L81.23934343457222,95.38329515940512L81.78093905746937,94.01330738334771L82.32253468036652,92.60242544489459L83.04466217756271,90.9894591822385L83.58625780045986,89.54392849794074L84.12785342335701,90.71662017275244L84.66944904625416,88.42677229211326L85.39157654345037,86.67603210973552L85.9331721663475,84.25530641824857L86.47476778924465,83.1876323415024L87.0163634121418,81.73379368225609L87.55795903503895,79.0114089246714L88.28008653223515,74.59161112734441L88.8216821551323,73.44186605030968L89.36327777802944,74.06290443420475L89.9048734009266,74.125467794529L90.62700089812277,71.57725413986718L91.16859652101994,71.52151847047747L91.71019214391708,72.46735657790815L92.25178776681423,70.40397581359973L92.79338338971138,66.48373662132381L93.51551088690758,66.99270490534406L94.05710650980473,67.81214391501227L94.59870213270187,68.17545116874625L95.14029775559901,68.63583804325036L95.68189337849617,65.50334288309428L96.40402087569237,66.03863827311274L96.94561649858952,64.86487038773473L97.48721212148666,62.11201706109913L98.20933961868286,62.8258147008588L98.75093524158001,65.16451634645861L99.29253086447716,66.97947227487943L99.8341264873743,60.69371595417168L100.37572211027145,59.692870109331494L100.9173177331686,58.17681008975326L101.6394452303648,58.7162194443477L102.18104085326195,61.808836641302605L102.7226364761591,58.88337063352242L103.26423209905624,59.925926911492866L103.80582772195339,59.5667874083716L104.52795521914959,58.21901222402302L105.06955084204674,62.41559881431749L105.61114646494389,61.40780670600169L106.15274208784103,57.049064299584956L106.87486958503723,56.826143736643786L107.41646520793438,53.726058074655036L107.95806083083154,55.86340249403707L108.49965645372868,57.19941084368439L109.04125207662582,57.83981726441068L109.76337957382202,56.691599607564235L110.30497519671917,56.84606797810903L110.84657081961632,52.316991775701815L111.38816644251347,51.06341466546709L111.92976206541061,52.155939405005505L112.65188956260681,51.73894041640591L113.19348518550395,50.81763528738866L113.73508080840111,47.968976794464744L114.27667643129826,47.600783893084284L114.99880392849445,50.895275772713504L115.5403995513916,54.5862127072328L116.08199517428875,57.34435463022704L116.6235907971859,55.11758908438624L117.3457182943821,52.25272967066026L117.88731391727924,54.08163219511264L118.42890954017639,55.198907591034484L119.15103703737259,53.48558084425299L119.69263266026974,52.28529156738897L120.23422828316689,49.686049773443266L120.77582390606403,46.865650717589894L121.31741952896118,48.331319092480776L122.03954702615738,48.40114732727742L122.58114264905453,48.02395288993586L123.12273827195168,47.69913770886313L123.66433389484882,49.52979294535244L124.38646139204502,48.73843111085239L124.92805701494217,48.04402939962328L125.46965263783932,47.43835241137935L126.01124826073648,48.00496687072438L126.55284388363361,46.41117631113509L127.09443950653076,47.98555954642175L127.81656700372696,46.41050178957671L128.3581626266241,47.888695770652184L128.89975824952126,46.96363483030555L129.4413538724184,44.178834810619364L129.98294949531555,47.03666005162874L130.70507699251175,44.96821261270397L131.2466726154089,47.205582433948884L131.78826823830605,46.001103089783484L132.3298638612032,47.80050733982473L133.0519913583994,45.98203036484904L133.59358698129654,45.36488012447964L134.1351826041937,43.406017042602876L134.67677822709084,43.67297836517138L135.39890572428703,42.972164087977966L135.94050134718418,39.48496737940347L136.48209697008133,39.80392917761811L137.02369259297848,40.2331355990245L137.56528821587563,40.793266710330364L138.28741571307182,42.56312121766354L138.82901133596897,37.0475777160866L139.37060695886612,38.5620253379198L139.91220258176327,40.14249066250071L140.63433007895947,40.00688785817598L141.1759257018566,38.699400529896174L141.71752132475376,39.22353816482858L142.43964882194996,40.69573584474549L142.9812444448471,41.115757269449915L143.52284006774426,44.420326842407874L144.0644356906414,39.74496029975902L144.7865631878376,41.672410405196786L145.32815881073475,40.65855875276193L145.8697544336319,41.648538106161745L146.41135005652905,41.207379515464204L147.13347755372524,40.05822755142951L147.6750731766224,42.4355452883789L148.21666879951957,37.55637517754436L148.7582644224167,39.7374364463816L149.48039191961288,39.18065733714062L150.02198754251003,42.749647659403344L150.56358316540718,43.583453143015596L151.10517878830433,41.78188661175781L151.82730628550053,39.31861312664806L152.36890190839767,37.33073229134762L152.91049753129482,37.7493802433983L153.63262502849102,32.7423288160067L154.17422065138814,37.07595927458596L154.89634814858437,44.033264582980955L155.4379437714815,44.147364730983675L158.14592188596725,45.27140397061234L161.03443187475204,47.719717405855114L163.92294186353683,44.76508737486891L166.99198372662067,42.5587978256365L169.88049371540546,42.793571445166734L170.78315308690074,42.04840962595698L171.5052805840969,40.272388717309845L172.04687620699406,38.628045788712434L172.76900370419025,36.839127704182545L173.3105993270874,37.534512920071485L173.85219494998455,37.533602817867646L174.57432244718075,38.24512916169386L175.1159180700779,36.4685449049244L175.65751369297504,39.01569910381354L176.1991093158722,39.72646735461918L176.9212368130684,38.9443707719014L177.46283243596554,41.003371033507136L178.0044280588627,39.535114978852846L178.54602368175983,41.12678320216493L179.26815117895603,35.97523108399924L179.8097468018532,34.45270853096336L180.53187429904938,39.0455961835568L181.07346992194653,34.63830880900552L181.61506554484367,35.57832559909303L182.33719304203987,40.10232067165913L182.87878866493702,37.78135404875679L183.60091616213322,37.448417741350156L184.14251178503036,39.36134505011507L184.6841074079275,39.68789175018741L185.4062349051237,35.86428266138561L185.94783052802086,37.090621068785424L186.66995802521706,36.023002901293935L187.2115536481142,33.448288868034076L187.75314927101135,33.76491737494516L188.47527676820755,33.72129280858863L189.0168723911047,33.672252169843965L189.55846801400185,32.02654224320755L190.28059551119802,35.16399009017974L190.8221911340952,38.78801011839225L191.5443186312914,34.80728204713881L192.08591425418854,35.01134867373111L192.62750987708569,34.05006020964066L193.3496373742819,34.21227555461453L193.89123299717903,34.501054479067925L194.61336049437523,34.010836464619516L195.15495611727238,33.46767610190848L195.69655174016953,33.12568977743724L196.41867923736572,33.749491191144756L196.96027486026287,33.97649933460875L197.68240235745907,34.902376720611876L198.22399798035622,33.096357258868736L198.9461254775524,32.24833392224364L199.48772110044956,28.474941373705942L200.0293167233467,29.418753927943644L200.7514442205429,31.431356355370852L201.29303984344006,28.414441784695622L202.01516734063625,28.013557023083987L202.5567629635334,27.648321839671514L203.2788904607296,24.270961004446594L203.82048608362672,27.915541770271012L204.54261358082294,27.675529736951862L205.0842092037201,26.63065888500548L205.8063367009163,29.238044597114833L206.34793232381344,30.24980748716077L206.88952794671061,32.55433550290117L207.61165544390678,29.278292160716266L208.15325106680393,30.17491525133816L208.69484668970108,27.922035360101948L209.41697418689728,27.1376696420187L209.95856980979443,31.406620800991675L210.68069730699062,26.85940340677831L211.22229292988777,28.16763593626366L211.94442042708397,30.012823758960177L212.48601604998112,31.10048244328845L213.02761167287827,31.717063263229583L213.74973917007446,30.763457705313996L214.2913347929716,29.46177861964216L215.0134622901678,30.746562374721837L215.55505791306496,33.58990365194636L216.0966535359621,30.463933683692133L216.63824915885925,29.021057048486202L217.36037665605542,28.188101523563688L217.9019722789526,27.00438109908245L218.6240997761488,27.67462530626056L219.16569539904594,25.80406943203948L219.7072910219431,22.657496814107184L220.42941851913932,26.27659745619024L220.97101414203644,28.314739813298758L221.5126097649336,30.272683499633267L224.40111975371838,28.888830001239622L227.47016161680222,27.80118656324009L230.53920347988605,25.926894475514146L233.78877721726894,27.168788602541095L236.85781908035278,29.772982645820427L240.10739281773567,28.307890896893195L242.9959028065205,29.226090704772332L246.24547654390335,32.24088437975961L249.13398653268814,30.132359424037183L252.38356027007103,31.76164496790821L254.73047463595867,27.91077821599274L255.27207025885582,29.225369314252827L255.99419775605202,29.03793483957173L256.53579337894917,27.65533945155583L257.25792087614536,26.78369744778668L257.7995164990425,26.908678555434342L258.5216439962387,25.053626992522577L259.06323961913586,24.10446753065914L259.78536711633205,25.38655301545542L260.3269627392292,27.4772949067821L260.86855836212635,28.36583767149041L261.59068585932255,26.43402902302231L262.1322814822197,25.56463773793915L262.8544089794159,22.88316165481499L263.39600460231304,23.25956389128439L264.11813209950924,23.995537919782976L264.6597277224064,23.61068684604274L265.20132334530354,24.06677529699684L265.7429189682007,22.932800750162023L266.4650464653969,22.952357264041346L267.00664208829403,27.245475215328337L267.5482377111912,26.28315884366523L268.2703652083874,26.15141651319595L268.8119608312845,27.757187173021666L269.35355645418167,26.4949026417506L270.07568395137787,26.741121745585094L270.617279574275,26.046500364107633L271.3394070714712,27.108515365691137L271.88100269436836,28.807273124660245L272.60313019156456,27.067897436598123L273.1447258144617,27.647520509301216L273.68632143735886,29.993097300003882L274.40844893455505,29.85667128302793L274.9500445574522,29.597507782057193L275.6721720546484,30.1970882117475L276.21376767754555,27.155259276918606L276.93589517474174,27.276704940252518L277.4774907976389,27.015279134221167L278.01908642053604,27.17962114882463L278.74121391773224,30.41946821279207L279.2828095406294,26.590439983586666L280.0049370378256,28.342739302521522L280.54653266072273,31.16084429697369L281.0881282836199,25.95271288035366L281.8102557808161,27.468843718181866L282.3518514037132,23.95227922912152L283.0739789009094,21.467219825231194L283.6155745238066,25.861597839367946L284.1571701467037,26.138132766546107L284.8792976438999,24.738716185538404L285.42089326679707,25.70320725680635L286.14302076399326,23.632946292757648L286.6846163868904,25.977568691511358L287.4067438840866,25.78472733929118L287.94833950698376,25.924573541947918L288.4899351298809,24.440998698562733L289.2120626270771,24.93172854812592" fill="none"></path></g></g></g></g><g opacity="0.2"><g><g><g><path style="fill: none;" stroke="rgb(187, 187, 187)" stroke-width="2px" d="M38.45328922569752,167.93074504116152L38.994884848594666,169.5980451728607L39.536480471491814,169.87778878179182L40.07807609438896,169.38304453923686L40.61967171728611,168.88540981791823L41.34179921448231,168.7426359127899L41.883394837379456,168.32252525653368L42.424990460276604,168.36157933614106L42.96658608317375,167.77428053895238L43.5081817060709,167.3423470372627L44.04977732896805,166.7084106838866L44.591372951865196,165.69564765887938L45.132968574762344,165.28767926283055L45.67456419765949,162.9796473409108L46.21615982055664,162.02248123155854L46.75775544345379,162.56433915326198L47.29935106635094,162.9688322265949L48.021478563547134,160.67807794466273L48.56307418644428,159.61339802209966L49.10466980934143,160.52290684734785L49.64626543223858,159.84743157736756L50.18786105513573,159.88510752468758L50.729456678032875,167.70477558423437L51.45158417522907,167.65092495263664L51.99317979812622,165.82776915627852L52.53477542102337,165.46172582380234L53.07637104392052,164.9642403126715L53.617966666817665,164.9873131563853L54.340094164013856,164.95681804307827L54.88168978691101,164.7273050316408L55.42328540980816,164.49777252540497L55.96488103270531,164.17091148832566L56.506476655602455,164.80455392012576L57.0480722784996,164.75754596276863L57.7701997756958,163.96950322799066L58.31179539859295,163.66868799138211L58.85339102149009,162.87325522840828L59.394986644387245,163.74565645469L59.93658226728439,163.4468296875189L60.47817789018154,162.1279270965384L61.01977351307869,160.91005704809857L61.56136913597584,160.34919319754886L62.102964758872986,158.80462181941664L62.644560381770134,158.3438727562826L63.18615600466728,154.8015509170653L63.90828350186348,154.38201385776222L64.44987912476063,153.36378704060166L64.99147474765778,151.26119655288718L65.53307037055492,150.2453615975311L66.07466599345207,149.66493546658057L66.61626161634922,144.83434036387885L67.33838911354542,142.9750404614755L67.87998473644257,141.43905429264146L68.42158035933971,139.72536853753425L68.96317598223686,133.63405082029584L69.50477160513401,134.26463556794593L70.22689910233021,131.5771066532498L70.76849472522736,128.6933730897933L71.3100903481245,119.47000906379782L71.85168597102165,122.4614588864486L72.57381346821784,117.83131230016032L73.115409091115,111.35065946514983L73.65700471401215,113.02096779420312L74.1986003369093,105.42052174193506L74.92072783410549,107.99709826090145L75.46232345700264,103.72603986285795L76.00391907989979,107.62637317760803L76.54551470279694,104.65742934991741L77.26764219999313,98.23061215050589L77.80923782289028,94.8813278051079L78.35083344578743,91.3903372696943L78.89242906868458,94.19918981287228L79.43402469158173,96.85583896689278L80.15615218877792,95.0481193018728L80.69774781167507,93.89463907296913L81.23934343457222,96.02231936623251L81.78093905746937,91.9583257192616L82.32253468036652,90.48610253721495L83.04466217756271,88.5700097882544L83.58625780045986,87.37563247149403L84.12785342335701,92.47565768497L84.66944904625416,84.99200047115453L85.39157654345037,84.0499218361689L85.9331721663475,80.62421788101817L86.47476778924465,81.58612122638313L87.0163634121418,79.55303569338666L87.55795903503895,74.92783178829433L88.28008653223515,67.96191443135392L88.8216821551323,71.7172484347576L89.36327777802944,74.99446201004734L89.9048734009266,74.21931283501534L90.62700089812277,67.75493365787447L91.16859652101994,71.43791496639295L91.71019214391708,73.88611373905417L92.25178776681423,67.30890466713709L92.79338338971138,60.60337783290991L93.51551088690758,67.75615733137445L94.05710650980473,69.0413024295146L94.59870213270187,68.72041204934719L95.14029775559901,69.32641835500654L95.68189337849617,60.80460014286012L96.40402087569237,66.84158135814049L96.94561649858952,63.10421855966768L97.48721212148666,57.98273707114573L98.20933961868286,63.89651116049822L98.75093524158001,68.67256881485835L99.29253086447716,69.70190616751063L99.8341264873743,51.26508147311009L100.37572211027145,58.19160134207121L100.9173177331686,55.90272006038589L101.6394452303648,59.525333476239396L102.18104085326195,66.44776243673495L102.7226364761591,54.495171621852144L103.26423209905624,61.489761328448594L103.80582772195339,59.02807815368973L104.52795521914959,56.19734944750011L105.06955084204674,68.71047869975924L105.61114646494389,59.89611854352793L106.15274208784103,50.51095068995983L106.87486958503723,56.491762892232L107.41646520793438,49.07592958167196L107.95806083083154,59.06941912311013L108.49965645372868,59.20342336815536L109.04125207662582,58.80042689550008L109.76337957382202,54.96927312229463L110.30497519671917,57.07777053392621L110.84657081961632,45.523377472090964L111.38816644251347,49.183049000115005L111.92976206541061,53.79472651431312L112.65188956260681,51.11344193350653L113.19348518550395,49.43567759386278L113.73508080840111,43.6959890550789L114.27667643129826,47.04849454101357L114.99880392849445,55.837013592157355L115.5403995513916,60.12261810901173L116.08199517428875,61.48156751471843L116.6235907971859,51.77744076562501L117.3457182943821,47.95544055007127L117.88731391727924,56.82498598179121L118.42890954017639,56.87482068491724L119.15103703737259,50.91559072408075L119.69263266026974,50.48485765209292L120.23422828316689,45.787187082524696L120.77582390606403,42.63505213380986L121.31741952896118,50.52982165481714L122.03954702615738,48.505889679472375L122.58114264905453,47.458161233923555L123.12273827195168,47.211914937254036L123.66433389484882,52.275775800086436L124.38646139204502,47.55138835910228L124.92805701494217,47.00242683277958L125.46965263783932,46.52983692901351L126.01124826073648,48.85488855974193L126.55284388363361,44.02049047175109L127.09443950653076,50.34713439935172L127.81656700372696,44.04791515430915L128.3581626266241,50.105986742265394L128.89975824952126,45.576043419785556L129.4413538724184,40.00163478109016L129.98294949531555,51.32339791314276L130.70507699251175,41.86554145431689L131.2466726154089,50.561637165816244L131.78826823830605,44.194384073535396L132.3298638612032,50.49961371488662L133.0519913583994,43.25431490238548L133.59358698129654,44.439154763925536L134.1351826041937,40.46772241978777L134.67677822709084,44.07342034902411L135.39890572428703,41.920942672187884L135.94050134718418,34.25417231654178L136.48209697008133,40.28237187494007L137.02369259297848,40.87694523113404L137.56528821587563,41.63346337728914L138.28741571307182,45.217902978663325L138.82901133596897,28.77426246372116L139.37060695886612,40.833696770669576L139.91220258176327,42.513188649372125L140.63433007895947,39.803483651688886L141.1759257018566,36.7381695374765L141.71752132475376,40.009744617227184L142.43964882194996,42.904032364620875L142.9812444448471,41.74578940650655L143.52284006774426,49.37718120184481L144.0644356906414,32.7319104857858L144.7865631878376,44.563585563353385L145.32815881073475,39.13778127410966L145.8697544336319,43.13350713626146L146.41135005652905,40.54564162941792L147.13347755372524,38.33449960537746L147.6750731766224,46.00152189380295L148.21666879951957,30.237620011292552L148.7582644224167,43.00902834963751L149.48039191961288,38.34548867327912L150.02198754251003,48.103133142797475L150.56358316540718,44.83416136843399L151.10517878830433,39.07953681487112L151.82730628550053,35.62370289898349L152.36890190839767,34.348911038396956L152.91049753129482,38.377352171474286L153.63262502849102,25.23175167491932L154.17422065138814,43.57640496245482L154.89634814858437,54.469222545573466L155.4379437714815,44.31851495298776L158.14592188596725,46.957462830055356L161.03443187475204,51.392187558719236L163.92294186353683,40.33314232838961L166.99198372662067,39.24936350178788L169.88049371540546,43.14573187446209L170.78315308690074,40.93066689714233L171.5052805840969,37.60835735433917L172.04687620699406,36.16153139581631L172.76900370419025,34.155750577387714L173.3105993270874,38.577590743904906L173.85219494998455,37.5322376645619L174.57432244718075,39.312418677433165L175.1159180700779,33.803668519770206L175.65751369297504,42.83643040214729L176.1991093158722,40.7926197308276L176.9212368130684,37.77122589782476L177.46283243596554,44.09187142591574L178.0044280588627,37.33273089687145L178.54602368175983,43.51428553713305L179.26815117895603,28.247902906750742L179.8097468018532,32.168924701409544L180.53187429904938,45.93492766244699L181.07346992194653,28.02737774717854L181.61506554484367,36.98835078422433L182.33719304203987,46.88831328050829L182.87878866493702,34.29990411440325L183.60091616213322,36.949013280240145L184.14251178503036,42.23073601326246L184.6841074079275,40.17771180029595L185.4062349051237,30.128869028182873L185.94783052802086,38.93012867988513L186.66995802521706,34.42157565005667L187.2115536481142,29.5862178181443L187.75314927101135,34.2398601353118L188.47527676820755,33.65585595905381L189.0168723911047,33.59869121172698L189.55846801400185,29.557977353252934L190.28059551119802,39.87016186063798L190.8221911340952,44.22404016071102L191.5443186312914,28.836189940258624L192.08591425418854,35.31744861361958L192.62750987708569,32.60812751350497L193.3496373742819,34.455598572075324L193.89123299717903,34.934222865748076L194.61336049437523,33.2755094429469L195.15495611727238,32.65293555784195L195.69655174016953,32.612710290730334L196.41867923736572,34.68519331170607L196.96027486026287,34.31701154980473L197.68240235745907,36.291192799616574L198.22399798035622,30.387328066254014L198.9461254775524,30.976298917305993L199.48772110044956,22.81485255089937L200.0293167233467,30.834472759300187L200.7514442205429,34.45025999651175L201.29303984344006,23.88906992868275L202.01516734063625,27.412229880666512L202.5567629635334,27.10046906455278L203.2788904607296,19.204919751609236L203.82048608362672,33.3824129190076L204.54261358082294,27.315511686973167L205.0842092037201,25.06335260708583L205.8063367009163,33.149123165278894L206.34793232381344,31.767451822229724L206.88952794671061,36.01112752651176L207.61165544390678,24.36422714743892L208.15325106680393,31.519849887271018L208.69484668970108,24.542715523247605L209.41697418689728,25.96112106489379L209.95856980979443,37.81004753945112L210.68069730699062,20.03857731545823L211.22229292988777,30.129984730491675L211.94442042708397,32.78060549300501L212.48601604998112,32.73197046978089L213.02761167287827,32.64193449314127L213.74973917007446,29.333049368440673L214.2913347929716,27.509259991134368L215.0134622901678,32.67373800734136L215.55505791306496,37.85491556778318L216.0966535359621,25.774978731310817L216.63824915885925,26.856742095677312L217.36037665605542,26.93866823617989L217.9019722789526,25.228800462360567L218.6240997761488,28.679991617027756L219.16569539904594,22.99823562070791L219.7072910219431,17.937637887208773L220.42941851913932,31.705248419314795L220.97101414203644,31.371953348961476L221.5126097649336,33.209599029135035L224.40111975371838,26.81304975364913L227.47016161680222,26.169721406240853L230.53920347988605,23.115456343925207L233.78877721726894,29.03162979308153L236.85781908035278,33.67927371073941L240.10739281773567,26.110253273502327L242.9959028065205,30.603390416591044L246.24547654390335,36.76307489224051L249.13398653268814,26.96957199045354L252.38356027007103,34.20557328371473L254.73047463595867,22.13447808811959L255.27207025885582,31.19725596164288L255.99419775605202,28.756783127550094L256.53579337894917,25.581446369531967L257.25792087614536,25.476234442133L257.7995164990425,27.096150216905848L258.5216439962387,22.271049648154946L259.06323961913586,22.68072833786395L259.78536711633205,27.309681242649813L260.3269627392292,30.613407743772125L260.86855836212635,29.69865181855287L261.59068585932255,23.536316050320174L262.1322814822197,24.260550810314406L262.8544089794159,18.860947530128765L263.39600460231304,23.82416724598851L264.11813209950924,25.099498962530898L264.6597277224064,23.033410235432417L265.20132334530354,24.750907973427996L265.7429189682007,21.231838929909802L266.4650464653969,22.98169203486034L267.00664208829403,33.68515214225886L267.5482377111912,24.83968428617059L268.2703652083874,25.953803017492046L268.8119608312845,30.165843162760265L269.35355645418167,24.601475844843982L270.07568395137787,27.110450401336816L270.617279574275,25.00456829189142L271.3394070714712,28.70153786806636L271.88100269436836,31.355409763113904L272.60313019156456,24.45883390450487L273.1447258144617,28.51695511835589L273.68632143735886,33.51146248605787L274.40844893455505,29.65203225756401L274.9500445574522,29.20876253060103L275.6721720546484,31.096458856282986L276.21376767754555,22.592515874675268L276.93589517474174,27.458873435253427L277.4774907976389,26.623140425174117L278.01908642053604,27.426134170729842L278.74121391773224,35.279238808743216L279.2828095406294,20.846897639778515L280.0049370378256,30.971188280923784L280.54653266072273,35.38800178865191L281.0881282836199,18.140515755423635L281.8102557808161,29.74303997492417L282.3518514037132,18.677432495530997L283.0739789009094,17.739630719395734L283.6155745238066,32.453164860573075L284.1571701467037,26.552935157313346L284.8792976438999,22.639591314026884L285.42089326679707,27.149943863708238L286.14302076399326,20.527554846684605L286.6846163868904,29.49450228964199L287.4067438840866,25.49546531096087L287.94833950698376,26.13434284593303L288.4899351298809,22.215636433484942L289.2120626270771,25.667823322470703" fill="none"></path></g></g></g></g></g></g><g transform="translate(41, 176)" clip-path="url(#clip_1)"><clipPath id="clip_1"><rect width="288" height="23"></rect></clipPath><g><g><line x1="0" y1="0" x2="0" y2="5" style="visibility: inherit;" fill="rgb(0, 0, 0)" stroke="rgb(204, 204, 204)" stroke-width="1px"></line><line x1="36.106374859809875" y1="0" x2="36.106374859809875" y2="5" style="visibility: inherit;" fill="rgb(0, 0, 0)" stroke="rgb(204, 204, 204)" stroke-width="1px"></line><line x1="72.21274971961975" y1="0" x2="72.21274971961975" y2="5" style="visibility: inherit;" fill="rgb(0, 0, 0)" stroke="rgb(204, 204, 204)" stroke-width="1px"></line><line x1="108.31912457942963" y1="0" x2="108.31912457942963" y2="5" style="visibility: inherit;" fill="rgb(0, 0, 0)" stroke="rgb(204, 204, 204)" stroke-width="1px"></line><line x1="144.4254994392395" y1="0" x2="144.4254994392395" y2="5" style="visibility: inherit;" fill="rgb(0, 0, 0)" stroke="rgb(204, 204, 204)" stroke-width="1px"></line><line x1="180.53187429904938" y1="0" x2="180.53187429904938" y2="5" style="visibility: inherit;" fill="rgb(0, 0, 0)" stroke="rgb(204, 204, 204)" stroke-width="1px"></line><line x1="216.63824915885925" y1="0" x2="216.63824915885925" y2="5" style="visibility: inherit;" fill="rgb(0, 0, 0)" stroke="rgb(204, 204, 204)" stroke-width="1px"></line><line x1="252.74462401866913" y1="0" x2="252.74462401866913" y2="5" style="visibility: inherit;" fill="rgb(0, 0, 0)" stroke="rgb(204, 204, 204)" stroke-width="1px"></line><line x1="288.850998878479" y1="0" x2="288.850998878479" y2="5" style="visibility: inherit;" fill="rgb(0, 0, 0)" stroke="rgb(204, 204, 204)" stroke-width="1px"></line></g><g transform="translate(0, 8)"><text style="text-anchor: middle; visibility: hidden; font-family: Roboto, sans-serif; font-size: 12px; font-weight: 200;" x="0" y="0" dx="0em" dy="0.95em" fill="rgb(33, 33, 33)" stroke="none" stroke-width="1px">-200</text><text style="text-anchor: middle; visibility: inherit; font-family: Roboto, sans-serif; font-size: 12px; font-weight: 200;" x="36.106374859809875" y="0" dx="0em" dy="0.95em" fill="rgb(33, 33, 33)" stroke="none" stroke-width="1px">0</text><text style="text-anchor: middle; visibility: inherit; font-family: Roboto, sans-serif; font-size: 12px; font-weight: 200;" x="72.21274971961975" y="0" dx="0em" dy="0.95em" fill="rgb(33, 33, 33)" stroke="none" stroke-width="1px">200</text><text style="text-anchor: middle; visibility: inherit; font-family: Roboto, sans-serif; font-size: 12px; font-weight: 200;" x="108.31912457942963" y="0" dx="0em" dy="0.95em" fill="rgb(33, 33, 33)" stroke="none" stroke-width="1px">400</text><text style="text-anchor: middle; visibility: inherit; font-family: Roboto, sans-serif; font-size: 12px; font-weight: 200;" x="144.4254994392395" y="0" dx="0em" dy="0.95em" fill="rgb(33, 33, 33)" stroke="none" stroke-width="1px">600</text><text style="text-anchor: middle; visibility: inherit; font-family: Roboto, sans-serif; font-size: 12px; font-weight: 200;" x="180.53187429904938" y="0" dx="0em" dy="0.95em" fill="rgb(33, 33, 33)" stroke="none" stroke-width="1px">800</text><text style="text-anchor: middle; visibility: inherit; font-family: Roboto, sans-serif; font-size: 12px; font-weight: 200;" x="216.63824915885925" y="0" dx="0em" dy="0.95em" fill="rgb(33, 33, 33)" stroke="none" stroke-width="1px">1k</text><text style="text-anchor: middle; visibility: inherit; font-family: Roboto, sans-serif; font-size: 12px; font-weight: 200;" x="252.74462401866913" y="0" dx="0em" dy="0.95em" fill="rgb(33, 33, 33)" stroke="none" stroke-width="1px">1.2k</text><text style="text-anchor: middle; visibility: hidden; font-family: Roboto, sans-serif; font-size: 12px; font-weight: 200;" x="288.850998878479" y="0" dx="0em" dy="0.95em" fill="rgb(33, 33, 33)" stroke="none" stroke-width="1px">1.4k</text></g><line x1="0" y1="0" x2="288.850998878479" y2="0" fill="rgb(0, 0, 0)" stroke="rgb(204, 204, 204)" stroke-width="1px"></line></g></g></g></g></svg>