<svg viewBox="0 0 330 200" xmlns="http://www.w3.org/2000/svg"><g><g><g><g><g><line x1="41.149001121520996" y1="176.89999961853027" x2="36.149001121520996" y2="176.89999961853027" style="visibility: inherit;" fill="rgb(0, 0, 0)" stroke="rgb(204, 204, 204)" stroke-width="1px"></line><line x1="41.149001121520996" y1="159.20999965667724" x2="36.149001121520996" y2="159.20999965667724" style="visibility: inherit;" fill="rgb(0, 0, 0)" stroke="rgb(204, 204, 204)" stroke-width="1px"></line><line x1="41.149001121520996" y1="141.51999969482424" x2="36.149001121520996" y2="141.51999969482424" style="visibility: inherit;" fill="rgb(0, 0, 0)" stroke="rgb(204, 204, 204)" stroke-width="1px"></line><line x1="41.149001121520996" y1="123.82999973297119" x2="36.149001121520996" y2="123.82999973297119" style="visibility: inherit;" fill="rgb(0, 0, 0)" stroke="rgb(204, 204, 204)" stroke-width="1px"></line><line x1="41.149001121520996" y1="106.13999977111816" x2="36.149001121520996" y2="106.13999977111816" style="visibility: inherit;" fill="rgb(0, 0, 0)" stroke="rgb(204, 204, 204)" stroke-width="1px"></line><line x1="41.149001121520996" y1="88.44999980926514" x2="36.149001121520996" y2="88.44999980926514" style="visibility: inherit;" fill="rgb(0, 0, 0)" stroke="rgb(204, 204, 204)" stroke-width="1px"></line><line x1="41.149001121520996" y1="70.75999984741212" x2="36.149001121520996" y2="70.75999984741212" style="visibility: inherit;" fill="rgb(0, 0, 0)" stroke="rgb(204, 204, 204)" stroke-width="1px"></line><line x1="41.149001121520996" y1="53.06999988555909" x2="36.149001121520996" y2="53.06999988555909" style="visibility: inherit;" fill="rgb(0, 0, 0)" stroke="rgb(204, 204, 204)" stroke-width="1px"></line><line x1="41.149001121520996" y1="35.379999923706045" x2="36.149001121520996" y2="35.379999923706045" style="visibility: inherit;" fill="rgb(0, 0, 0)" stroke="rgb(204, 204, 204)" stroke-width="1px"></line><line x1="41.149001121520996" y1="17.689999961853022" x2="36.149001121520996" y2="17.689999961853022" style="visibility: inherit;" fill="rgb(0, 0, 0)" stroke="rgb(204, 204, 204)" stroke-width="1px"></line><line x1="41.149001121520996" y1="0" x2="36.149001121520996" y2="0" style="visibility: inherit;" fill="rgb(0, 0, 0)" stroke="rgb(204, 204, 204)" stroke-width="1px"></line></g><g transform="translate(31.149001121520996, 0)"><text style="text-anchor: end; visibility: hidden; font-family: Roboto, sans-serif; font-size: 12px; font-weight: 200;" x="0" y="176.89999961853027" dx="0em" dy="0.3em" fill="rgb(33, 33, 33)" stroke="none" stroke-width="1px">100</text><text style="text-anchor: end; visibility: inherit; font-family: Roboto, sans-serif; font-size: 12px; font-weight: 200;" x="0" y="159.20999965667724" dx="0em" dy="0.3em" fill="rgb(33, 33, 33)" stroke="none" stroke-width="1px">150</text><text style="text-anchor: end; visibility: hidden; font-family: Roboto, sans-serif; font-size: 12px; font-weight: 200;" x="0" y="141.51999969482424" dx="0em" dy="0.3em" fill="rgb(33, 33, 33)" stroke="none" stroke-width="1px">200</text><text style="text-anchor: end; visibility: inherit; font-family: Roboto, sans-serif; font-size: 12px; font-weight: 200;" x="0" y="123.82999973297119" dx="0em" dy="0.3em" fill="rgb(33, 33, 33)" stroke="none" stroke-width="1px">250</text><text style="text-anchor: end; visibility: hidden; font-family: Roboto, sans-serif; font-size: 12px; font-weight: 200;" x="0" y="106.13999977111816" dx="0em" dy="0.3em" fill="rgb(33, 33, 33)" stroke="none" stroke-width="1px">300</text><text style="text-anchor: end; visibility: inherit; font-family: Roboto, sans-serif; font-size: 12px; font-weight: 200;" x="0" y="88.44999980926514" dx="0em" dy="0.3em" fill="rgb(33, 33, 33)" stroke="none" stroke-width="1px">350</text><text style="text-anchor: end; visibility: hidden; font-family: Roboto, sans-serif; font-size: 12px; font-weight: 200;" x="0" y="70.75999984741212" dx="0em" dy="0.3em" fill="rgb(33, 33, 33)" stroke="none" stroke-width="1px">400</text><text style="text-anchor: end; visibility: inherit; font-family: Roboto, sans-serif; font-size: 12px; font-weight: 200;" x="0" y="53.06999988555909" dx="0em" dy="0.3em" fill="rgb(33, 33, 33)" stroke="none" stroke-width="1px">450</text><text style="text-anchor: end; visibility: hidden; font-family: Roboto, sans-serif; font-size: 12px; font-weight: 200;" x="0" y="35.379999923706045" dx="0em" dy="0.3em" fill="rgb(33, 33, 33)" stroke="none" stroke-width="1px">500</text><text style="text-anchor: end; visibility: inherit; font-family: Roboto, sans-serif; font-size: 12px; font-weight: 200;" x="0" y="17.689999961853022" dx="0em" dy="0.3em" fill="rgb(33, 33, 33)" stroke="none" stroke-width="1px">550</text><text style="text-anchor: end; visibility: hidden; font-family: Roboto, sans-serif; font-size: 12px; font-weight: 200;" x="0" y="0" dx="0em" dy="0.3em" fill="rgb(33, 33, 33)" stroke="none" stroke-width="1px">600</text></g><line x1="41.149001121520996" y1="0" x2="41.149001121520996" y2="176.89999961853027" fill="rgb(0, 0, 0)" stroke="rgb(204, 204, 204)" stroke-width="1px"></line></g></g><g transform="translate(41, 0)" clip-path="url(#clip_0)"><clipPath id="clip_0"><rect width="288" height="176"></rect></clipPath><g><g><g><line x1="0" y1="0" x2="0" y2="176.89999961853027" fill="rgb(0, 0, 0)" stroke="rgb(66, 66, 66)" stroke-width="1px" opacity="0.25"></line><line x1="36.106374859809875" y1="0" x2="36.106374859809875" y2="176.89999961853027" fill="rgb(0, 0, 0)" stroke="rgb(66, 66, 66)" stroke-width="1px" opacity="0.25"></line><line x1="72.21274971961975" y1="0" x2="72.21274971961975" y2="176.89999961853027" fill="rgb(0, 0, 0)" stroke="rgb(66, 66, 66)" stroke-width="1px" opacity="0.25"></line><line x1="108.31912457942963" y1="0" x2="108.31912457942963" y2="176.89999961853027" fill="rgb(0, 0, 0)" stroke="rgb(66, 66, 66)" stroke-width="1px" opacity="0.25"></line><line x1="144.4254994392395" y1="0" x2="144.4254994392395" y2="176.89999961853027" fill="rgb(0, 0, 0)" stroke="rgb(66, 66, 66)" stroke-width="1px" opacity="0.25"></line><line x1="180.53187429904938" y1="0" x2="180.53187429904938" y2="176.89999961853027" fill="rgb(0, 0, 0)" stroke="rgb(66, 66, 66)" stroke-width="1px" opacity="0.25"></line><line x1="216.63824915885925" y1="0" x2="216.63824915885925" y2="176.89999961853027" fill="rgb(0, 0, 0)" stroke="rgb(66, 66, 66)" stroke-width="1px" opacity="0.25"></line><line x1="252.74462401866913" y1="0" x2="252.74462401866913" y2="176.89999961853027" fill="rgb(0, 0, 0)" stroke="rgb(66, 66, 66)" stroke-width="1px" opacity="0.25"></line><line x1="288.850998878479" y1="0" x2="288.850998878479" y2="176.89999961853027" fill="rgb(0, 0, 0)" stroke="rgb(66, 66, 66)" stroke-width="1px" opacity="0.25"></line></g><g><line x1="0" y1="176.89999961853027" x2="288.850998878479" y2="176.89999961853027" fill="rgb(0, 0, 0)" stroke="rgb(66, 66, 66)" stroke-width="1px" opacity="0.25"></line><line x1="0" y1="159.20999965667724" x2="288.850998878479" y2="159.20999965667724" fill="rgb(0, 0, 0)" stroke="rgb(66, 66, 66)" stroke-width="1px" opacity="0.25"></line><line x1="0" y1="141.51999969482424" x2="288.850998878479" y2="141.51999969482424" fill="rgb(0, 0, 0)" stroke="rgb(66, 66, 66)" stroke-width="1px" opacity="0.25"></line><line x1="0" y1="123.82999973297119" x2="288.850998878479" y2="123.82999973297119" fill="rgb(0, 0, 0)" stroke="rgb(66, 66, 66)" stroke-width="1px" opacity="0.25"></line><line x1="0" y1="106.13999977111816" x2="288.850998878479" y2="106.13999977111816" fill="rgb(0, 0, 0)" stroke="rgb(66, 66, 66)" stroke-width="1px" opacity="0.25"></line><line x1="0" y1="88.44999980926514" x2="288.850998878479" y2="88.44999980926514" fill="rgb(0, 0, 0)" stroke="rgb(66, 66, 66)" stroke-width="1px" opacity="0.25"></line><line x1="0" y1="70.75999984741212" x2="288.850998878479" y2="70.75999984741212" fill="rgb(0, 0, 0)" stroke="rgb(66, 66, 66)" stroke-width="1px" opacity="0.25"></line><line x1="0" y1="53.06999988555909" x2="288.850998878479" y2="53.06999988555909" fill="rgb(0, 0, 0)" stroke="rgb(66, 66, 66)" stroke-width="1px" opacity="0.25"></line><line x1="0" y1="35.379999923706045" x2="288.850998878479" y2="35.379999923706045" fill="rgb(0, 0, 0)" stroke="rgb(66, 66, 66)" stroke-width="1px" opacity="0.25"></line><line x1="0" y1="17.689999961853022" x2="288.850998878479" y2="17.689999961853022" fill="rgb(0, 0, 0)" stroke="rgb(66, 66, 66)" stroke-width="1px" opacity="0.25"></line><line x1="0" y1="0" x2="288.850998878479" y2="0" fill="rgb(0, 0, 0)" stroke="rgb(66, 66, 66)" stroke-width="1px" opacity="0.25"></line></g></g></g><g><g><line x1="0" y1="212.2799995422363" x2="288.850998878479" y2="212.2799995422363" fill="rgb(0, 0, 0)" stroke="rgb(153, 153, 153)" stroke-width="1.5px"></line></g></g><g><g><line x1="36.106374859809875" y1="0" x2="36.106374859809875" y2="176.89999961853027" fill="rgb(0, 0, 0)" stroke="rgb(153, 153, 153)" stroke-width="1.5px"></line></g></g><g><g><g><g><g><path style="fill: none;" stroke="rgb(0, 153, 136)" stroke-width="2px" d="M46.93828731775284,179.90090928382293L47.29935106635094,174.16363088206643L47.660414814949036,169.0251461894914L48.021478563547134,163.70661324988882L48.38254231214523,159.65379242045594L48.74360606074333,156.03657435132553L49.10466980934143,153.3142561093247L49.46573355793954,148.28253220197493L49.82679730653762,145.75685432650258L50.18786105513573,145.04775651480003L50.548924803733826,144.55379297042714L50.909988552331924,146.08187892542637L51.27105230093002,148.50272811600794L51.63211604952812,151.84068008333148L51.99317979812622,155.03859054334632L52.35424354672432,157.96187467741632L52.71530729532242,157.27410879533235L53.07637104392052,158.43409292007638L53.437434792518616,157.30166895895653L53.798498541116714,158.44237567892839L54.15956228971481,154.57896888548296L54.52062603831291,152.9352718582382L54.88168978691101,153.6790997994856L55.24275353550911,150.32256482800926L55.60381728410721,148.40400400411588L55.96488103270531,149.85588449615022L56.325944781303406,146.91499271137337L56.687008529901505,147.3200696264941L57.0480722784996,144.24006267076984L57.4091360270977,141.14406052774143L57.7701997756958,138.31205595187637L58.1312635242939,137.6808178525837L58.492327272892005,134.3437312969641L58.85339102149009,134.3941650269359L59.214454770088196,132.32512411953317L59.575518518686295,130.59099679783867L59.93658226728439,127.43654813398949L60.29764601588249,127.00011662297446L60.65870976448059,124.48038576078397L61.01977351307869,123.49184905630733L61.38083726167679,122.28195240116237L61.74190101027489,122.08531941914129L62.102964758872986,117.82864407488819L62.464028507471085,70.93449848543452L62.82509225606918,76.55194764100851L63.18615600466728,89.96816905116674L63.54721975326538,101.25774592347825L63.90828350186348,103.86846410418212L64.26934725046158,105.09982585561214L64.63041099905968,106.87271755511915L64.99147474765778,109.40807831627883L65.35253849625587,113.25595733387537L65.71360224485397,110.50303849069984L66.07466599345207,110.15911631039226L66.43572974205017,110.20596840205233L66.79679349064827,107.58708816617435L67.15785723924637,104.86967174342759L67.51892098784447,94.26887167474838L67.87998473644257,89.9184394734446L68.24104848504066,85.03665200082241L68.60211223363876,82.28645754908993L68.96317598223686,69.28277279218187L69.32423973083496,60.340597782780435L69.68530347943306,52.10143653821959L70.04636722803116,40.97616153088777L70.40743097662926,38.2830172454409L70.76849472522736,30.58705695681515L71.12955847382545,30.292871858301048L71.49062222242355,28.91534973244658L71.85168597102165,30.537890841301117L72.21274971961975,28.394434058257218L72.57381346821784,36.37940565203241L72.93487721681595,33.9328637215609L73.29594096541405,32.711570677003934L73.65700471401215,34.64344179032449L74.01806846261024,37.9117773590419L74.37913221120834,37.01317897743491L74.74019595980644,40.13385463296142L75.10125970840454,43.79374469039151L75.46232345700264,45.92078878603328L75.82338720560074,46.411550740717615L76.18445095419884,41.244527063489L76.54551470279694,48.86005624713022L76.90657845139503,45.42282622086942L77.26764219999313,48.448021631642135L77.62870594859123,47.92015107309961L77.98976969718933,48.81404492188694L78.35083344578743,46.41818599822455L78.71189719438553,48.13459983400328L79.07296094298363,47.65622879790255L79.43402469158173,49.86426060689692L79.79508844017982,51.606427215807614L80.15615218877792,51.63786042064505L80.51721593737602,51.636274918786924L80.87827968597414,52.88049490160799L81.23934343457222,51.607028426418296L81.6004071831703,54.76910928479123L81.96147093176842,49.94936202572534L82.32253468036652,50.81255303230562L82.68359842896461,49.39026420049625L83.04466217756271,30.216105965331913L83.40572592616081,38.5976024925813L83.76678967475891,46.77364037040615L84.12785342335701,56.047587462681115L84.48891717195511,57.78136243529082L84.84998092055321,55.798948008870894L85.2110446691513,58.70646188324669L85.5721084177494,59.52576075185948L85.9331721663475,59.46631557714508L86.2942359149456,60.314880701854996L86.6552996635437,60.17452555444871L87.0163634121418,59.2876719062123L87.3774271607399,60.67370679809509L88.4606184065342,58.97178805118814L90.26593714952469,59.78662212623324L91.71019214391708,57.844166824550186L93.51551088690758,54.44015716887539L95.32082962989807,51.406342622725596L96.76508462429047,48.78035990995671L98.57040336728096,47.429069634839045L100.37572211027145,42.90225530200051L101.81997710466385,39.67593804128829L103.62529584765434,34.652210486929974L105.43061459064484,28.481302296083047L106.87486958503723,25.122598118138082L108.68018832802771,20.86431298437218L110.48550707101822,18.483581493580633L111.92976206541061,18.315494632520704L113.73508080840111,18.780264716813416L115.5403995513916,24.696268107772074L117.3457182943821,25.370821901476784L118.78997328877449,25.797122502848417L120.59529203176498,25.89000456812423L121.67848327755928,24.700877799231947L122.03954702615738,27.458977853457327L122.40061077475548,28.431079899183615L122.76167452335358,31.662395054014514L123.84486576914787,34.16638310077239L125.65018451213837,30.39381747096382L127.09443950653076,32.80543930858303L128.89975824952126,31.47015029313084L130.70507699251175,32.09866229581559L132.51039573550224,35.41772100719567L133.95465072989464,38.48501573365684L135.75996947288513,38.735624750696125L137.56528821587563,37.548840378646894L139.00954321026802,37.1301447572261L140.81486195325851,36.358605576413645L142.620180696249,33.03184987439472L144.0644356906414,33.46317454121068L144.4254994392395,35.948546926830865L144.7865631878376,38.05878215374312L145.14762693643567,39.08999093444005L145.5086906850338,34.69731110380159L145.8697544336319,32.03517684317105L146.23081818223,33.090135177557755L146.5918819308281,32.59008209225416L146.9529456794262,33.50933435221223L147.3140094280243,32.668864966559944L147.6750731766224,36.56221540088077L148.0361369252205,36.49256273941477L148.3972006738186,38.468182617676995L148.7582644224167,36.34273457618788L149.11932817101479,37.48139926659682L149.48039191961288,37.678628387065885L149.84145566821098,22.672167051630634L150.20251941680908,27.310342283939857L150.56358316540718,31.706604788010377L150.92464691400528,33.260024892888616L151.28571066260338,37.016836534685154L151.64677441120148,42.047938237895764L152.00783815979958,45.18416693046704L152.36890190839767,42.79131173091123L152.7299656569958,42.77693137178459L153.09102940559387,43.25265760106495L153.45209315419197,42.136838900736876L153.81315690279007,44.280187239904066L154.17422065138814,43.07984429075817L154.53528439998627,41.52556106945598L154.89634814858437,41.82424709349221L155.25741189718246,44.794505362051545L155.61847564578056,42.48580032468454L155.97953939437866,37.548554011584116L156.34060314297676,35.15299883236488L156.70166689157486,28.898505117545383L157.06273064017296,22.181300037624514L157.42379438877106,21.484462270569555L157.78485813736916,17.904557161100033L158.14592188596725,17.956324129737343L158.50698563456535,21.735116182720862L158.86804938316345,25.73384334925381L159.22911313176155,27.06370705870616L159.59017688035965,26.55835254304735L159.95124062895775,26.57482093647832L160.31230437755585,27.89050555858823L160.67336812615395,29.783114137092426L161.03443187475204,32.84342556422409L161.39549562335014,33.76837875547586L161.75655937194827,37.78017792107337L162.11762312054634,35.15311358851413L162.47868686914444,35.83562798947889L162.83975061774254,31.046047368808185L163.2008143663406,33.85539287575223L163.56187811493874,33.627923426231554L163.92294186353683,32.42739862404803L164.28400561213493,32.83026485603854L164.64506936073303,33.68898380776953L165.00613310933113,34.47199668946112L165.36719685792923,39.892279214929694L165.72826060652733,37.842916402775984L166.08932435512543,34.69536325819382L166.45038810372353,36.68342901933497L166.81145185232162,35.85490093643327L167.17251560091972,36.14060545463303L167.53357934951782,33.5287079298557L167.89464309811592,32.14968114309928L168.25570684671402,31.241079372978284L168.61677059531212,33.09293489997503L168.97783434391022,35.96334808054335L169.33889809250832,33.13813014175697L169.69996184110641,20.165002488742676L170.0610255897045,29.538594668529218L170.4220893383026,30.927191306335583L170.78315308690074,34.43473523051792L171.1442168354988,34.810090001842084L171.5052805840969,35.03419292079131L171.866344332695,37.92917139228225L172.22740808129308,41.6396040812728L172.5884718298912,43.81281097017219L172.9495355784893,46.70750921385094L173.3105993270874,45.05864528649978L173.6716630756855,42.10042475171766L174.0327268242836,40.21692523869968L174.3937905728817,37.78672714257918L174.7548543214798,39.58498917876367L175.1159180700779,38.54619081910363L175.476981818676,38.95962526786888L175.8380455672741,38.185816351929276L176.1991093158722,37.169146069474664L176.5601730644703,34.51804786436424L176.9212368130684,27.849849328223875L177.2823005616665,26.929935653997266L177.6433643102646,25.83994540960592L178.0044280588627,24.19311729050267L178.36549180746078,23.747994582908962L178.72655555605888,21.10627168124688L179.08761930465698,24.67838255315212L179.44868305325508,27.2445679132739L179.8097468018532,26.234310550861405L180.17081055045128,24.46495225896909L180.53187429904938,27.63373493096121L180.89293804764748,31.793476809559728L181.25400179624555,33.70881266795116L181.61506554484367,37.39363986843609L181.97612929344177,38.15168879684049L182.33719304203987,34.05751479699343L182.69825679063797,32.06773962459437L183.05932053923607,28.909083885743414L183.42038428783417,33.636104786062745L183.78144803643227,33.050261117813385L184.14251178503036,34.767564997851785L184.50357553362846,30.74695998813402L184.86463928222656,28.17684675315136L185.22570303082466,27.257401164334773L185.58676677942276,27.100217355116015L185.94783052802086,31.32322584445451L186.30889427661896,29.676697372853383L186.66995802521706,32.11462412772003L187.03102177381516,32.687416840273976L187.39208552241325,33.8264773635521L187.75314927101135,32.89539022396933L188.11421301960945,33.539126719365086L188.47527676820755,33.422473358897946L188.83634051680568,32.00055678254467L189.19740426540375,19.868848496796165L189.55846801400185,23.765843784450016L189.91953176259995,24.42496800656158L190.28059551119802,30.103066952265095L190.64165925979614,31.86151718749969L191.00272300839424,32.56195811065514L191.36378675699234,31.844698658212337L191.72485050559044,33.091908659398655L192.08591425418854,35.65202579878158L192.44697800278664,34.434588852020944L192.80804175138474,36.9755846749568L193.16910549998283,34.43109780005156L193.53016924858093,37.111265602560096L193.89123299717903,34.69981477906118L194.25229674577713,36.595836016034426L194.61336049437523,32.09856185630701L194.97442424297333,32.361691655842165L195.33548799157143,29.5667302108761L195.69655174016953,27.7023585444959L196.05761548876762,23.855303543715447L196.41867923736572,22.331252348196816L196.77974298596382,22.490133010407064L197.14080673456192,20.769636465359817L197.50187048316002,20.42989167160365L197.86293423175815,18.508188592999677L198.22399798035622,20.81490921884542L198.58506172895432,19.32018778220123L198.9461254775524,23.15085193150467L199.30718922615048,25.223167384464915L199.6682529747486,26.556155469524413L200.0293167233467,27.98331276744943L200.3903804719448,27.239940528560243L200.7514442205429,28.921822058567756L201.112507969141,27.51838221712631L201.4735717177391,25.696527259686775L201.8346354663372,28.78957829475063L202.1956992149353,28.378013901147185L202.5567629635334,27.094551829720288L202.9178267121315,28.409527853852254L203.2788904607296,26.053917308120322L203.6399542093277,28.921431637953713L204.0010179579258,26.330542601107958L204.3620817065239,24.406566313586207L204.723145455122,23.193210995301865L205.0842092037201,24.395161252317926L205.4452729523182,23.448997083951134L205.8063367009163,23.303871912097943L206.1674004495144,26.788475175307447L206.5284641981125,31.125189069307932L206.88952794671061,31.026741305574532L207.25059169530869,27.823888430480995L207.61165544390678,28.102905987788564L207.97271919250488,32.33215386448831L208.33378294110295,34.35721517217967L208.69484668970108,28.779913885504108L209.05591043829918,32.66231665259801L209.41697418689728,30.681600187383204L209.77803793549538,26.965322867416365L210.13910168409348,29.57694149917589L210.50016543269157,29.99356169438415L210.86122918128967,30.351600017330732L211.22229292988777,29.38914833102019L211.58335667848587,32.787172259391525L211.94442042708397,32.296200012982865L212.30548417568207,34.24449790053548L212.66654792428017,36.64562659134751L213.02761167287827,34.25650519104649L213.38867542147636,36.74469285510448L213.74973917007446,35.94761422800867L214.11080291867256,34.22778473020979L214.47186666727066,34.3256846194262L214.83293041586876,32.41258987703235L215.19399416446686,28.946652020969776L215.55505791306496,29.212232217314206L215.91612166166308,28.47976420911434L216.27718541026115,27.487799137807645L216.63824915885925,26.64948624789167L216.99931290745735,24.991483174635924L217.36037665605542,21.86224635969926L217.72144040465355,26.21678414987643L218.08250415325165,24.306429509517606L218.44356790184975,26.005464917408958L218.80463165044785,22.14279168048409L219.16569539904594,23.870177255973694L219.52675914764404,25.612601988416905L219.88782289624214,26.59063961611414L220.24888664484024,30.12574945199977L220.60995039343834,31.879981072095624L220.97101414203644,31.90821894772916L221.33207789063454,31.414768895889573L221.69314163923264,32.92719904155002L222.05420538783073,29.819718153229147L222.41526913642883,32.499819114831126L222.77633288502693,31.626567834350116L223.13739663362503,28.504717916390224L223.49846038222313,27.130529883483685L223.85952413082123,24.791716788684923L224.22058787941933,28.281571025746228L224.58165162801743,29.117135479876215L224.94271537661555,28.024517051299238L225.30377912521362,26.214327988830373L225.66484287381172,30.643814881252005L226.02590662240982,30.119673752081994L226.3869703710079,29.114078436421828L226.74803411960602,31.095862520747986L227.10909786820412,28.986335341738084L227.47016161680222,27.613252481829274L227.83122536540031,28.15570476977364L228.1922891139984,27.605909840716745L228.5533528625965,27.301635012133634L228.9144166111946,31.29884222999391L229.2754803597927,31.75546880366671L229.6365441083908,27.495540082354363L229.9976078569889,27.245182390493618L230.358671605587,29.12927890136143L230.7197353541851,30.899634550642816L231.0807991027832,30.504111612788755L231.4418628513813,32.690669033814295L231.8029265999794,30.632075449264285L232.1639903485775,32.02281753750064L232.5250540971756,31.74480105700155L232.8861178457737,29.370645411743293L233.2471815943718,30.749550582996182L233.6082453429699,30.49224101230562L233.96930909156802,28.983317806991906L234.3303728401661,28.763675962403134L235.7746278345585,33.5129142630931L237.21888282895088,34.02828852539599L239.02420157194138,32.91107976309983L240.82952031493187,30.816389914067067L242.27377530932426,28.970381533261694L244.07909405231476,29.15250533988792L245.88441279530525,27.566588733964505L247.32866778969765,24.753589521494824L249.13398653268814,24.996150775983182L250.93930527567863,23.474310017623303L252.38356027007103,26.729442035552545L254.18887901306152,22.393298693954293L255.99419775605202,24.60016583292297L257.7995164990425,23.107369564761402L259.2437714934349,22.68368138780761L261.0490902364254,21.046107029540323L262.8544089794159,23.3830546291014L264.2986639738083,26.005530866870636L266.1039827167988,23.66677983085921L267.9093014597893,22.54383105923386L269.35355645418167,22.483744133802478L269.71462020277977,24.531078170340084L270.07568395137787,23.684764646541254L270.43674769997597,23.76236178002307L270.79781144857407,24.546726079028986L271.15887519717216,27.575436989341952L271.51993894577026,24.9569608278098L271.88100269436836,26.70785500165665L272.24206644296646,30.67911156070164L272.60313019156456,29.914535505356966L272.96419394016266,28.275707941101157L273.32525768876076,28.01542104942608L273.68632143735886,27.386637416416743L274.04738518595695,28.495992335944397L274.40844893455505,27.337401780852552L274.76951268315315,27.813553480427863L275.13057643175125,28.950333892869043L275.49164018034935,27.39023783364533L275.85270392894745,30.45462512112509L276.21376767754555,29.392978544789027L276.57483142614365,31.378718803780934L276.93589517474174,32.78769467745698L277.29695892333984,33.280545624786114L277.65802267193794,21.422284710603535L278.01908642053604,27.573757059267315L278.38015016913414,29.085237655782457L278.74121391773224,33.58640922859704L279.10227766633034,32.81507825887447L279.46334141492844,34.09829476604924L279.82440516352654,36.91965138956319L280.18546891212463,37.18316864800372L280.54653266072273,37.82994365777599L280.90759640932083,35.61161434064654L281.26866015791893,34.472788195266965L281.62972390651703,36.58398992144671L281.9907876551151,38.57802649513696L282.3518514037132,40.19405472018454" fill="none"></path></g></g></g></g><g opacity="0.2"><g><g><g><path style="fill: none;" stroke="rgb(0, 153, 136)" stroke-width="2px" d="M46.57722356915474,178.3086943512103L46.93828731775284,174.32043829596788L47.29935106635094,165.55916997379634L47.660414814949036,161.31820194705296L48.021478563547134,155.7292999754624L48.38254231214523,153.57478344263282L48.74360606074333,150.6108662737313L49.10466980934143,149.2308324937482L49.46573355793954,140.735005946517L49.82679730653762,141.96835546473142L50.18786105513573,143.98411282122444L50.548924803733826,143.81284891778515L50.909988552331924,148.37400551195333L51.27105230093002,152.13399967193604L51.63211604952812,156.8476061894815L51.99317979812622,159.83545517290662L52.35424354672432,162.34680029688565L52.71530729532242,156.24246005431183L53.07637104392052,160.17406902410514L53.437434792518616,155.6030330659446L53.798498541116714,160.1534357294719L54.15956228971481,148.78385875508806L54.52062603831291,150.4697263326294L54.88168978691101,154.79484170721378L55.24275353550911,145.28776238201186L55.60381728410721,145.52616277212277L55.96488103270531,152.03370523245505L56.325944781303406,142.50365503633097L56.687008529901505,147.92768499899975L57.0480722784996,139.6200522379838L57.4091360270977,136.5000573136815L57.7701997756958,134.06404908834375L58.1312635242939,136.73396070368005L58.492327272892005,129.33810146364715L58.85339102149009,134.46981562189256L59.214454770088196,129.22156275845413L59.575518518686295,127.98980581530951L59.93658226728439,122.70487513822947L60.29764601588249,126.34546935645305L60.65870976448059,120.70078946750226L61.01977351307869,122.00904399959325L61.38083726167679,120.46710741844564L61.74190101027489,121.79036994610972L62.102964758872986,111.44363105850947L62.464028507471085,0.5932801012597081L62.82509225606918,84.97812137436912L63.18615600466728,110.09250116640354L63.54721975326538,118.19211123194522L63.90828350186348,107.78454137523786L64.26934725046158,106.94686848275714L64.63041099905968,109.53205510437967L64.99147474765778,113.21111945801835L65.35253849625587,119.02777586027013L65.71360224485397,106.37366022593658L66.07466599345207,109.64323303993093L66.43572974205017,110.27624653954247L66.79679349064827,103.65876781235741L67.15785723924637,100.79354710930747L67.51892098784447,78.36767157172946L67.87998473644257,83.39279117148894L68.24104848504066,77.71397079188911L68.60211223363876,78.16116587149118L68.96317598223686,49.77724565681979L69.32423973083496,46.927335268678256L69.68530347943306,39.742694671378366L70.04636722803116,24.2882490198901L70.40743097662926,34.24330081727054L70.76849472522736,19.043116523876552L71.12955847382545,29.851594210529928L71.49062222242355,26.849066543664783L71.85168597102165,32.971702504582936L72.21274971961975,25.17924888369138L72.57381346821784,48.356863042695224L72.93487721681595,30.263050825853593L73.29594096541405,30.87963111016852L73.65700471401215,37.54124846030526L74.01806846261024,42.814280712118034L74.37913221120834,35.66528140502446L74.74019595980644,44.81486811625119L75.10125970840454,49.28357977653668L75.46232345700264,49.111354929495945L75.82338720560074,47.14769367274408L76.18445095419884,33.49399154764611L76.54551470279694,60.28335002259201L76.90657845139503,40.26698118147824L77.26764219999313,52.98581474780117L77.62870594859123,47.12834523528581L77.98976969718933,50.154885695067925L78.35083344578743,42.82439761273098L78.71189719438553,50.70922058767138L79.07296094298363,46.938672243751476L79.43402469158173,53.176308320388436L79.79508844017982,54.219677129173654L80.15615218877792,51.68501022790116L80.51721593737602,51.63389666599966L80.87827968597414,54.74682487583964L81.23934343457222,49.69682871363382L81.6004071831703,59.512230572350546L81.96147093176842,42.71974113712657L82.32253468036652,52.107339542175986L82.68359842896461,47.256830952782174L83.04466217756271,1.4548686125853476L83.40572592616081,51.169847283455425L83.76678967475891,59.03769718714338L84.12785342335701,69.95850810109359L84.48891717195511,60.38202489420539L84.84998092055321,52.825326369241004L85.2110446691513,63.06773269481038L85.5721084177494,60.75470905477868L85.9331721663475,59.3771478150735L86.2942359149456,61.58772838891984L86.6552996635437,59.963992833339255L87.0163634121418,57.95739143385773L87.3774271607399,62.75275913591928L88.4606184065342,56.41890993082768L90.26593714952469,61.008873238800916L91.71019214391708,54.93048387202563L93.51551088690758,49.33414268536318L95.32082962989807,46.85562080350087L96.76508462429047,44.84138584080338L98.57040336728096,45.40213422216253L100.37572211027145,36.11203380274272L101.81997710466385,34.83646215021995L103.62529584765434,27.116619155392524L105.43061459064484,19.22494000981259L106.87486958503723,20.084541851220646L108.68018832802771,14.476885283723234L110.48550707101822,14.912484257393288L111.92976206541061,18.063364340930708L113.73508080840111,19.477419843252516L115.5403995513916,33.57027319421014L117.3457182943821,26.382652592033843L118.78997328877449,26.436573404905857L120.59529203176498,26.029327666037943L121.67848327755928,22.917187645893545L122.03954702615738,31.596127934795337L122.40061077475548,29.88923296777299L122.76167452335358,36.509367786260896L123.84486576914787,37.92236517090921L125.65018451213837,24.734969026251L127.09443950653076,36.42287206501189L128.89975824952126,29.467216769952568L130.70507699251175,33.04143029984274L132.51039573550224,40.39630907426577L133.95465072989464,43.08595782334857L135.75996947288513,39.11153827625502L137.56528821587563,35.76866382057302L139.00954321026802,36.50210132509494L140.81486195325851,35.20129680519493L142.620180696249,28.041716321366366L144.0644356906414,34.11016154143459L144.4254994392395,39.6766055052611L144.7865631878376,41.22413499411148L145.14762693643567,40.636804105485446L145.5086906850338,28.108291357843907L145.8697544336319,28.041975452225195L146.23081818223,34.672572679137815L146.5918819308281,31.840002464298735L146.9529456794262,34.88821274214937L147.3140094280243,31.408160888081536L147.6750731766224,42.40224105236202L148.0361369252205,36.388083747215795L148.3972006738186,41.43161243507033L148.7582644224167,33.15456251395423L149.11932817101479,39.18939630221017L149.48039191961288,37.97447206776951L149.84145566821098,0.16247504847776884L150.20251941680908,34.26760513240366L150.56358316540718,38.30099854411615L150.92464691400528,35.590155050205986L151.28571066260338,42.65205399737995L151.64677441120148,49.5945907927117L152.00783815979958,49.888509969324L152.36890190839767,39.20202893157746L152.7299656569958,42.75536083309469L153.09102940559387,43.966246944985464L153.45209315419197,40.46311085024477L153.81315690279007,47.495209748654865L154.17422065138814,41.279329867039344L154.53528439998627,39.19413623750268L154.89634814858437,42.272276129546576L155.25741189718246,49.24989276489057L155.61847564578056,39.022742768634L155.97953939437866,30.142684541933477L156.34060314297676,31.55966606353607L156.70166689157486,19.51676454531611L157.06273064017296,12.105492417743195L157.42379438877106,20.439205619987096L157.78485813736916,12.534699496895776L158.14592188596725,18.033974582693304L158.50698563456535,27.403304262196183L158.86804938316345,31.73193409905326L159.22911313176155,29.058502622884696L159.59017688035965,25.800320769559132L159.95124062895775,26.59952352662477L160.31230437755585,29.864032491753104L160.67336812615395,32.6220270048487L161.03443187475204,37.43389270492154L161.39549562335014,35.15580854235357L161.75655937194827,43.797876669469645L162.11762312054634,31.21251708967529L162.47868686914444,36.859399590926L162.83975061774254,23.861676437802156L163.2008143663406,38.06941113616829L163.56187811493874,33.2867192519505L163.92294186353683,30.626611420772736L164.28400561213493,33.43456420402428L164.64506936073303,34.97706223536597L165.00613310933113,35.64651601199853L165.36719685792923,48.0227030031326L165.72826060652733,34.76887218454539L166.08932435512543,29.974033541320587L166.45038810372353,39.66552766104671L166.81145185232162,34.6121088120807L167.17251560091972,36.569162231932744L167.53357934951782,29.610861642689667L167.89464309811592,30.081140962964618L168.25570684671402,29.878176717796837L168.61677059531212,35.87071819047013L168.97783434391022,40.26896785139583L169.33889809250832,28.9003032335774L169.69996184110641,0.7053110092212502L170.0610255897045,43.59898293820909L170.4220893383026,33.01008626304509L170.78315308690074,39.69605111679143L171.1442168354988,35.373122158828316L171.5052805840969,35.37034729921516L171.866344332695,42.271639099518644L172.22740808129308,47.205253114758634L172.5884718298912,47.07262130352121L172.9495355784893,51.049556579369124L173.3105993270874,42.58534939547302L173.6716630756855,37.66309394954448L174.0327268242836,37.39167596917274L174.3937905728817,34.1414299983984L174.7548543214798,42.28238223304041L175.1159180700779,36.98799327961355L175.476981818676,39.57977694101679L175.8380455672741,37.025102978019866L176.1991093158722,35.644140645792696L176.5601730644703,30.541400556698676L176.9212368130684,17.847551524013284L177.2823005616665,25.55006514265738L177.6433643102646,24.204960043018925L178.0044280588627,21.72287511184789L178.36549180746078,23.08031052151835L178.72655555605888,17.143687328753757L179.08761930465698,30.036548861010004L179.44868305325508,31.093845953456587L179.8097468018532,24.718924507242622L180.17081055045128,21.81091482113068L180.53187429904938,32.38690893894946L180.89293804764748,38.03308962745756L181.25400179624555,36.581816455538274L181.61506554484367,42.920880669163544L181.97612929344177,39.28876218944706L182.33719304203987,27.91625379722286L182.69825679063797,29.083076865995764L183.05932053923607,24.171100277466934L183.42038428783417,40.72663613654173L183.78144803643227,32.17149561543938L184.14251178503036,37.3435208179094L184.50357553362846,24.716052473557415L184.86463928222656,24.321676900677385L185.22570303082466,25.878232781109876L185.58676677942276,26.86444164128787L185.94783052802086,37.65773857846227L186.30889427661896,27.206904665451727L186.66995802521706,35.771514260019984L187.03102177381516,33.54660590910492L187.39208552241325,35.53506814846932L187.75314927101135,31.498759514595147L188.11421301960945,34.504731462458736L188.47527676820755,33.2474933181972L188.83634051680568,29.867681918014764L189.19740426540375,1.6712860681733677L189.55846801400185,29.61133671593085L189.91953176259995,25.413654339728883L190.28059551119802,38.62021537082037L190.64165925979614,34.49919254035153L191.00272300839424,33.61261949538836L191.36378675699234,30.768809479548132L191.72485050559044,34.962723661178146L192.08591425418854,39.492201507856024L192.44697800278664,32.60843343187996L192.80804175138474,40.7870784093606L193.16910549998283,30.614367487693674L193.53016924858093,41.13151730632293L193.89123299717903,31.0826385438128L194.25229674577713,39.43986787149427L194.61336049437523,25.352650616715884L194.97442424297333,32.75638635514491L195.33548799157143,25.374288043427047L195.69655174016953,24.90580104492559L196.05761548876762,18.08472104254482L196.41867923736572,20.04517555491883L196.77974298596382,22.728454003722415L197.14080673456192,18.188891647788925L197.50187048316002,19.920274480969407L197.86293423175815,15.625633975093715L198.22399798035622,24.274990157613992L198.58506172895432,17.078105627235015L198.9461254775524,28.896848155459853L199.30718922615048,28.33164056390524L199.6682529747486,28.555637597113606L200.0293167233467,30.124048714336936L200.3903804719448,26.124882170226424L200.7514442205429,31.444644353579022L201.112507969141,25.41322245496418L201.4735717177391,22.963744823527524L201.8346354663372,33.42915484734648L202.1956992149353,27.76066731074197L202.5567629635334,25.169358722579904L202.9178267121315,30.38199189005023L203.2788904607296,22.520501489522406L203.6399542093277,33.22270313270378L204.0010179579258,22.444209045839262L204.3620817065239,21.520601882303602L204.723145455122,21.37317801787541L205.0842092037201,26.19808663784201L205.4452729523182,22.029750831400968L205.8063367009163,23.086184154318182L206.1674004495144,32.01538007012172L206.5284641981125,37.63025991030864L206.88952794671061,30.879069659974423L207.25059169530869,23.01960911784064L207.61165544390678,28.52143232374987L207.97271919250488,38.67602567953791L208.33378294110295,37.394807133716775L208.69484668970108,20.413961955490752L209.05591043829918,38.48592080323886L209.41697418689728,27.71052548956103L209.77803793549538,21.390906887466084L210.13910168409348,33.49436944681522L210.50016543269157,30.618491987196492L210.86122918128967,30.888657501750632L211.22229292988777,27.945470801554393L211.58335667848587,37.88420815194852L211.94442042708397,31.559741643369886L212.30548417568207,37.166944731864376L212.66654792428017,40.24731962756557L213.02761167287827,30.672823090594967L213.38867542147636,40.47697435119143L213.74973917007446,34.75199628736498L214.11080291867256,31.64804048351153L214.47186666727066,34.47253445325082L214.83293041586876,29.542947763441596L215.19399416446686,23.747745236875947L215.55505791306496,29.61060251183086L215.91612166166308,27.381062196814447L216.27718541026115,25.999851530847607L216.63824915885925,25.39201691301772L216.99931290745735,22.504478564752265L217.36037665605542,17.16839113729424L217.72144040465355,32.748590835142174L218.08250415325165,21.44089754897939L218.44356790184975,28.55401802924601L218.80463165044785,16.348781825096815L219.16569539904594,26.4612556192081L219.52675914764404,28.22623908708174L219.88782289624214,28.057696057660046L220.24888664484024,35.42841420582821L220.60995039343834,34.51132850223942L220.97101414203644,31.950575761179433L221.33207789063454,30.6745938181302L221.69314163923264,35.19584426004068L222.05420538783073,25.158496820747843L222.41526913642883,36.519970557234124L222.77633288502693,30.31669091362856L223.13739663362503,23.821943039450336L223.49846038222313,25.0692478341239L223.85952413082123,21.283497146486763L224.22058787941933,33.51635238133813L224.58165162801743,30.370482161071156L224.94271537661555,26.38558940843377L225.30377912521362,23.499044395127097L225.66484287381172,37.28804521988449L226.02590662240982,29.33346205832693L226.3869703710079,27.60568546293163L226.74803411960602,34.068538647237226L227.10909786820412,25.82204457322321L227.47016161680222,25.553628191966105L227.83122536540031,28.969383201690167L228.1922891139984,26.78121744713141L228.5533528625965,26.845222769259014L228.9144166111946,37.29465305678429L229.2754803597927,32.44040866417589L229.6365441083908,21.10564700038591L229.9976078569889,26.869645852702426L230.358671605587,31.955423667663126L230.7197353541851,33.555168024564985L231.0807991027832,29.910827206007674L231.4418628513813,35.970505165352606L231.8029265999794,27.544185072439248L232.1639903485775,34.108930669855205L232.5250540971756,31.327776336252928L232.8861178457737,25.80941194385592L233.2471815943718,32.81790833987551L233.6082453429699,30.106276656269785L233.96930909156802,26.719932999021363L234.3303728401661,28.434213195519987L235.7746278345585,40.63677171412809L237.21888282895088,34.80134991885035L239.02420157194138,31.23526661965553L240.82952031493187,27.674355140517928L242.27377530932426,26.20136896205368L244.07909405231476,29.425691049827257L245.88441279530525,25.18771382507937L247.32866778969765,20.5340907027903L249.13398653268814,25.359992657715683L250.93930527567863,21.191548880083484L252.38356027007103,31.612140062446358L254.18887901306152,15.889083681556855L255.99419775605202,27.910466541375968L257.7995164990425,20.868175162519105L259.2437714934349,22.048149122376934L261.0490902364254,18.589745492139365L262.8544089794159,26.88847602844308L264.2986639738083,29.939245223524512L266.1039827167988,20.158653276842095L267.9093014597893,20.859407901795805L269.35355645418167,22.3936137456554L269.71462020277977,27.602079225146447L270.07568395137787,22.41529436084302L270.43674769997597,23.878757480245774L270.79781144857407,25.723272527537777L271.15887519717216,32.11850335481145L271.51993894577026,21.029246585511608L271.88100269436836,29.3341962624269L272.24206644296646,36.6359963992691L272.60313019156456,28.767671422339976L272.96419394016266,25.81746659471747L273.32525768876076,27.62499071191344L273.68632143735886,26.44346196690271L274.04738518595695,30.160024715235924L274.40844893455505,25.59951594821481L274.76951268315315,28.527781029790866L275.13057643175125,30.65550451153074L275.49164018034935,25.05009374480974L275.85270392894745,35.05120605234476L276.21376767754555,27.800508680284963L276.57483142614365,34.357329192268786L276.93589517474174,34.901158487971045L277.29695892333984,34.01982204577979L277.65802267193794,3.6348933393296368L278.01908642053604,36.80096558226297L278.38015016913414,31.352458550555173L278.74121391773224,40.33816658781889L279.10227766633034,31.65808180429064L279.46334141492844,36.023119526811406L279.82440516352654,41.151686324834124L280.18546891212463,37.578444535664524L280.54653266072273,38.8001061724344L280.90759640932083,32.28412036495236L281.26866015791893,32.76454897719762L281.62972390651703,39.75079251071637L281.9907876551151,41.569081355672324L282.3518514037132,42.618097057755925" fill="none"></path></g></g></g></g></g></g><g transform="translate(41, 176)" clip-path="url(#clip_1)"><clipPath id="clip_1"><rect width="288" height="23"></rect></clipPath><g><g><line x1="0" y1="0" x2="0" y2="5" style="visibility: inherit;" fill="rgb(0, 0, 0)" stroke="rgb(204, 204, 204)" stroke-width="1px"></line><line x1="36.106374859809875" y1="0" x2="36.106374859809875" y2="5" style="visibility: inherit;" fill="rgb(0, 0, 0)" stroke="rgb(204, 204, 204)" stroke-width="1px"></line><line x1="72.21274971961975" y1="0" x2="72.21274971961975" y2="5" style="visibility: inherit;" fill="rgb(0, 0, 0)" stroke="rgb(204, 204, 204)" stroke-width="1px"></line><line x1="108.31912457942963" y1="0" x2="108.31912457942963" y2="5" style="visibility: inherit;" fill="rgb(0, 0, 0)" stroke="rgb(204, 204, 204)" stroke-width="1px"></line><line x1="144.4254994392395" y1="0" x2="144.4254994392395" y2="5" style="visibility: inherit;" fill="rgb(0, 0, 0)" stroke="rgb(204, 204, 204)" stroke-width="1px"></line><line x1="180.53187429904938" y1="0" x2="180.53187429904938" y2="5" style="visibility: inherit;" fill="rgb(0, 0, 0)" stroke="rgb(204, 204, 204)" stroke-width="1px"></line><line x1="216.63824915885925" y1="0" x2="216.63824915885925" y2="5" style="visibility: inherit;" fill="rgb(0, 0, 0)" stroke="rgb(204, 204, 204)" stroke-width="1px"></line><line x1="252.74462401866913" y1="0" x2="252.74462401866913" y2="5" style="visibility: inherit;" fill="rgb(0, 0, 0)" stroke="rgb(204, 204, 204)" stroke-width="1px"></line><line x1="288.850998878479" y1="0" x2="288.850998878479" y2="5" style="visibility: inherit;" fill="rgb(0, 0, 0)" stroke="rgb(204, 204, 204)" stroke-width="1px"></line></g><g transform="translate(0, 8)"><text style="text-anchor: middle; visibility: hidden; font-family: Roboto, sans-serif; font-size: 12px; font-weight: 200;" x="0" y="0" dx="0em" dy="0.95em" fill="rgb(33, 33, 33)" stroke="none" stroke-width="1px">-100</text><text style="text-anchor: middle; visibility: inherit; font-family: Roboto, sans-serif; font-size: 12px; font-weight: 200;" x="36.106374859809875" y="0" dx="0em" dy="0.95em" fill="rgb(33, 33, 33)" stroke="none" stroke-width="1px">0</text><text style="text-anchor: middle; visibility: inherit; font-family: Roboto, sans-serif; font-size: 12px; font-weight: 200;" x="72.21274971961975" y="0" dx="0em" dy="0.95em" fill="rgb(33, 33, 33)" stroke="none" stroke-width="1px">100</text><text style="text-anchor: middle; visibility: inherit; font-family: Roboto, sans-serif; font-size: 12px; font-weight: 200;" x="108.31912457942963" y="0" dx="0em" dy="0.95em" fill="rgb(33, 33, 33)" stroke="none" stroke-width="1px">200</text><text style="text-anchor: middle; visibility: inherit; font-family: Roboto, sans-serif; font-size: 12px; font-weight: 200;" x="144.4254994392395" y="0" dx="0em" dy="0.95em" fill="rgb(33, 33, 33)" stroke="none" stroke-width="1px">300</text><text style="text-anchor: middle; visibility: inherit; font-family: Roboto, sans-serif; font-size: 12px; font-weight: 200;" x="180.53187429904938" y="0" dx="0em" dy="0.95em" fill="rgb(33, 33, 33)" stroke="none" stroke-width="1px">400</text><text style="text-anchor: middle; visibility: inherit; font-family: Roboto, sans-serif; font-size: 12px; font-weight: 200;" x="216.63824915885925" y="0" dx="0em" dy="0.95em" fill="rgb(33, 33, 33)" stroke="none" stroke-width="1px">500</text><text style="text-anchor: middle; visibility: inherit; font-family: Roboto, sans-serif; font-size: 12px; font-weight: 200;" x="252.74462401866913" y="0" dx="0em" dy="0.95em" fill="rgb(33, 33, 33)" stroke="none" stroke-width="1px">600</text><text style="text-anchor: middle; visibility: hidden; font-family: Roboto, sans-serif; font-size: 12px; font-weight: 200;" x="288.850998878479" y="0" dx="0em" dy="0.95em" fill="rgb(33, 33, 33)" stroke="none" stroke-width="1px">700</text></g><line x1="0" y1="0" x2="288.850998878479" y2="0" fill="rgb(0, 0, 0)" stroke="rgb(204, 204, 204)" stroke-width="1px"></line></g></g></g></g></svg>