<svg viewBox="0 0 330 200" xmlns="http://www.w3.org/2000/svg"><g><g><g><g><g><line x1="41.0620002746582" y1="176.95999908447266" x2="36.0620002746582" y2="176.95999908447266" style="visibility: inherit;" fill="rgb(0, 0, 0)" stroke="rgb(204, 204, 204)" stroke-width="1px"></line><line x1="41.0620002746582" y1="159.2639991760254" x2="36.0620002746582" y2="159.2639991760254" style="visibility: inherit;" fill="rgb(0, 0, 0)" stroke="rgb(204, 204, 204)" stroke-width="1px"></line><line x1="41.0620002746582" y1="141.56799926757813" x2="36.0620002746582" y2="141.56799926757813" style="visibility: inherit;" fill="rgb(0, 0, 0)" stroke="rgb(204, 204, 204)" stroke-width="1px"></line><line x1="41.0620002746582" y1="123.87199935913085" x2="36.0620002746582" y2="123.87199935913085" style="visibility: inherit;" fill="rgb(0, 0, 0)" stroke="rgb(204, 204, 204)" stroke-width="1px"></line><line x1="41.0620002746582" y1="106.17599945068359" x2="36.0620002746582" y2="106.17599945068359" style="visibility: inherit;" fill="rgb(0, 0, 0)" stroke="rgb(204, 204, 204)" stroke-width="1px"></line><line x1="41.0620002746582" y1="88.47999954223633" x2="36.0620002746582" y2="88.47999954223633" style="visibility: inherit;" fill="rgb(0, 0, 0)" stroke="rgb(204, 204, 204)" stroke-width="1px"></line><line x1="41.0620002746582" y1="70.78399963378907" x2="36.0620002746582" y2="70.78399963378907" style="visibility: inherit;" fill="rgb(0, 0, 0)" stroke="rgb(204, 204, 204)" stroke-width="1px"></line><line x1="41.0620002746582" y1="53.0879997253418" x2="36.0620002746582" y2="53.0879997253418" style="visibility: inherit;" fill="rgb(0, 0, 0)" stroke="rgb(204, 204, 204)" stroke-width="1px"></line><line x1="41.0620002746582" y1="35.391999816894526" x2="36.0620002746582" y2="35.391999816894526" style="visibility: inherit;" fill="rgb(0, 0, 0)" stroke="rgb(204, 204, 204)" stroke-width="1px"></line><line x1="41.0620002746582" y1="17.695999908447263" x2="36.0620002746582" y2="17.695999908447263" style="visibility: inherit;" fill="rgb(0, 0, 0)" stroke="rgb(204, 204, 204)" stroke-width="1px"></line><line x1="41.0620002746582" y1="0" x2="36.0620002746582" y2="0" style="visibility: inherit;" fill="rgb(0, 0, 0)" stroke="rgb(204, 204, 204)" stroke-width="1px"></line></g><g transform="translate(31.062000274658203, 0)"><text style="text-anchor: end; visibility: hidden; font-family: Roboto, sans-serif; font-size: 12px; font-weight: 200;" x="0" y="176.95999908447266" dx="0em" dy="0.3em" fill="rgb(33, 33, 33)" stroke="none" stroke-width="1px">100</text><text style="text-anchor: end; visibility: inherit; font-family: Roboto, sans-serif; font-size: 12px; font-weight: 200;" x="0" y="159.2639991760254" dx="0em" dy="0.3em" fill="rgb(33, 33, 33)" stroke="none" stroke-width="1px">150</text><text style="text-anchor: end; visibility: hidden; font-family: Roboto, sans-serif; font-size: 12px; font-weight: 200;" x="0" y="141.56799926757813" dx="0em" dy="0.3em" fill="rgb(33, 33, 33)" stroke="none" stroke-width="1px">200</text><text style="text-anchor: end; visibility: inherit; font-family: Roboto, sans-serif; font-size: 12px; font-weight: 200;" x="0" y="123.87199935913085" dx="0em" dy="0.3em" fill="rgb(33, 33, 33)" stroke="none" stroke-width="1px">250</text><text style="text-anchor: end; visibility: hidden; font-family: Roboto, sans-serif; font-size: 12px; font-weight: 200;" x="0" y="106.17599945068359" dx="0em" dy="0.3em" fill="rgb(33, 33, 33)" stroke="none" stroke-width="1px">300</text><text style="text-anchor: end; visibility: inherit; font-family: Roboto, sans-serif; font-size: 12px; font-weight: 200;" x="0" y="88.47999954223633" dx="0em" dy="0.3em" fill="rgb(33, 33, 33)" stroke="none" stroke-width="1px">350</text><text style="text-anchor: end; visibility: hidden; font-family: Roboto, sans-serif; font-size: 12px; font-weight: 200;" x="0" y="70.78399963378907" dx="0em" dy="0.3em" fill="rgb(33, 33, 33)" stroke="none" stroke-width="1px">400</text><text style="text-anchor: end; visibility: inherit; font-family: Roboto, sans-serif; font-size: 12px; font-weight: 200;" x="0" y="53.0879997253418" dx="0em" dy="0.3em" fill="rgb(33, 33, 33)" stroke="none" stroke-width="1px">450</text><text style="text-anchor: end; visibility: hidden; font-family: Roboto, sans-serif; font-size: 12px; font-weight: 200;" x="0" y="35.391999816894526" dx="0em" dy="0.3em" fill="rgb(33, 33, 33)" stroke="none" stroke-width="1px">500</text><text style="text-anchor: end; visibility: inherit; font-family: Roboto, sans-serif; font-size: 12px; font-weight: 200;" x="0" y="17.695999908447263" dx="0em" dy="0.3em" fill="rgb(33, 33, 33)" stroke="none" stroke-width="1px">550</text><text style="text-anchor: end; visibility: hidden; font-family: Roboto, sans-serif; font-size: 12px; font-weight: 200;" x="0" y="0" dx="0em" dy="0.3em" fill="rgb(33, 33, 33)" stroke="none" stroke-width="1px">600</text></g><line x1="41.0620002746582" y1="0" x2="41.0620002746582" y2="176.95999908447266" fill="rgb(0, 0, 0)" stroke="rgb(204, 204, 204)" stroke-width="1px"></line></g></g><g transform="translate(41, 0)" clip-path="url(#clip_0)"><clipPath id="clip_0"><rect width="288" height="176"></rect></clipPath><g><g><g><line x1="0" y1="0" x2="0" y2="176.95999908447266" fill="rgb(0, 0, 0)" stroke="rgb(66, 66, 66)" stroke-width="1px" opacity="0.25"></line><line x1="20.638428551810126" y1="0" x2="20.638428551810126" y2="176.95999908447266" fill="rgb(0, 0, 0)" stroke="rgb(66, 66, 66)" stroke-width="1px" opacity="0.25"></line><line x1="41.27685710362025" y1="0" x2="41.27685710362025" y2="176.95999908447266" fill="rgb(0, 0, 0)" stroke="rgb(66, 66, 66)" stroke-width="1px" opacity="0.25"></line><line x1="61.91528565543038" y1="0" x2="61.91528565543038" y2="176.95999908447266" fill="rgb(0, 0, 0)" stroke="rgb(66, 66, 66)" stroke-width="1px" opacity="0.25"></line><line x1="82.5537142072405" y1="0" x2="82.5537142072405" y2="176.95999908447266" fill="rgb(0, 0, 0)" stroke="rgb(66, 66, 66)" stroke-width="1px" opacity="0.25"></line><line x1="103.19214275905064" y1="0" x2="103.19214275905064" y2="176.95999908447266" fill="rgb(0, 0, 0)" stroke="rgb(66, 66, 66)" stroke-width="1px" opacity="0.25"></line><line x1="123.83057131086076" y1="0" x2="123.83057131086076" y2="176.95999908447266" fill="rgb(0, 0, 0)" stroke="rgb(66, 66, 66)" stroke-width="1px" opacity="0.25"></line><line x1="144.4689998626709" y1="0" x2="144.4689998626709" y2="176.95999908447266" fill="rgb(0, 0, 0)" stroke="rgb(66, 66, 66)" stroke-width="1px" opacity="0.25"></line><line x1="165.107428414481" y1="0" x2="165.107428414481" y2="176.95999908447266" fill="rgb(0, 0, 0)" stroke="rgb(66, 66, 66)" stroke-width="1px" opacity="0.25"></line><line x1="185.74585696629117" y1="0" x2="185.74585696629117" y2="176.95999908447266" fill="rgb(0, 0, 0)" stroke="rgb(66, 66, 66)" stroke-width="1px" opacity="0.25"></line><line x1="206.38428551810128" y1="0" x2="206.38428551810128" y2="176.95999908447266" fill="rgb(0, 0, 0)" stroke="rgb(66, 66, 66)" stroke-width="1px" opacity="0.25"></line><line x1="227.02271406991142" y1="0" x2="227.02271406991142" y2="176.95999908447266" fill="rgb(0, 0, 0)" stroke="rgb(66, 66, 66)" stroke-width="1px" opacity="0.25"></line><line x1="247.66114262172152" y1="0" x2="247.66114262172152" y2="176.95999908447266" fill="rgb(0, 0, 0)" stroke="rgb(66, 66, 66)" stroke-width="1px" opacity="0.25"></line><line x1="268.29957117353166" y1="0" x2="268.29957117353166" y2="176.95999908447266" fill="rgb(0, 0, 0)" stroke="rgb(66, 66, 66)" stroke-width="1px" opacity="0.25"></line><line x1="288.9379997253418" y1="0" x2="288.9379997253418" y2="176.95999908447266" fill="rgb(0, 0, 0)" stroke="rgb(66, 66, 66)" stroke-width="1px" opacity="0.25"></line></g><g><line x1="0" y1="176.95999908447266" x2="288.9379997253418" y2="176.95999908447266" fill="rgb(0, 0, 0)" stroke="rgb(66, 66, 66)" stroke-width="1px" opacity="0.25"></line><line x1="0" y1="159.2639991760254" x2="288.9379997253418" y2="159.2639991760254" fill="rgb(0, 0, 0)" stroke="rgb(66, 66, 66)" stroke-width="1px" opacity="0.25"></line><line x1="0" y1="141.56799926757813" x2="288.9379997253418" y2="141.56799926757813" fill="rgb(0, 0, 0)" stroke="rgb(66, 66, 66)" stroke-width="1px" opacity="0.25"></line><line x1="0" y1="123.87199935913085" x2="288.9379997253418" y2="123.87199935913085" fill="rgb(0, 0, 0)" stroke="rgb(66, 66, 66)" stroke-width="1px" opacity="0.25"></line><line x1="0" y1="106.17599945068359" x2="288.9379997253418" y2="106.17599945068359" fill="rgb(0, 0, 0)" stroke="rgb(66, 66, 66)" stroke-width="1px" opacity="0.25"></line><line x1="0" y1="88.47999954223633" x2="288.9379997253418" y2="88.47999954223633" fill="rgb(0, 0, 0)" stroke="rgb(66, 66, 66)" stroke-width="1px" opacity="0.25"></line><line x1="0" y1="70.78399963378907" x2="288.9379997253418" y2="70.78399963378907" fill="rgb(0, 0, 0)" stroke="rgb(66, 66, 66)" stroke-width="1px" opacity="0.25"></line><line x1="0" y1="53.0879997253418" x2="288.9379997253418" y2="53.0879997253418" fill="rgb(0, 0, 0)" stroke="rgb(66, 66, 66)" stroke-width="1px" opacity="0.25"></line><line x1="0" y1="35.391999816894526" x2="288.9379997253418" y2="35.391999816894526" fill="rgb(0, 0, 0)" stroke="rgb(66, 66, 66)" stroke-width="1px" opacity="0.25"></line><line x1="0" y1="17.695999908447263" x2="288.9379997253418" y2="17.695999908447263" fill="rgb(0, 0, 0)" stroke="rgb(66, 66, 66)" stroke-width="1px" opacity="0.25"></line><line x1="0" y1="0" x2="288.9379997253418" y2="0" fill="rgb(0, 0, 0)" stroke="rgb(66, 66, 66)" stroke-width="1px" opacity="0.25"></line></g></g></g><g><g><line x1="0" y1="212.35199890136718" x2="288.9379997253418" y2="212.35199890136718" fill="rgb(0, 0, 0)" stroke="rgb(153, 153, 153)" stroke-width="1.5px"></line></g></g><g><g><line x1="20.638428551810126" y1="0" x2="20.638428551810126" y2="176.95999908447266" fill="rgb(0, 0, 0)" stroke="rgb(153, 153, 153)" stroke-width="1.5px"></line></g></g><g><g><g><g><g><path style="fill: none;" stroke="rgb(0, 153, 136)" stroke-width="2px" d="M27.65549425942557,179.17832966992037L28.068262830461773,175.23502334284362L28.48103140149798,171.3867523561754L28.893799972534183,167.38097392124052L29.306568543570382,163.44409050209111L29.719337114606585,160.37923464371622L30.132105685642788,157.67825389800566L30.54487425667899,154.8717098589824L30.95764282771519,151.04281495630931L31.370411398751394,150.33826591570724L31.783179969787597,146.51604873807653L32.1959485408238,144.71623024357086L32.60871711186,143.04371189854027L33.021485682896206,143.43940654544434L33.43425425393241,143.60829442860677L33.84702282496861,146.06143922736462L34.259791396004815,147.00659551932668L34.67255996704102,149.07819709557765L35.08532853807722,152.2072401277668L35.498097109113424,153.31655104062955L35.91086568014963,155.94579738311225L36.32363425118583,158.52822393789057L36.736402822222026,157.63511558675273L37.14917139325823,158.67242756574583L37.56193996429443,160.4782585088406L37.974708535330635,158.54927878554062L38.387477106366845,159.21266936588196L38.80024567740304,155.06133042751196L39.213014248439244,153.43611679139752L39.62578281947545,152.26997463431496L40.03855139051165,153.30092227270353L40.45131996154785,150.1153693127343L40.864088532584056,150.60762178226022L41.27685710362025,148.59478151806687L41.68962567465646,149.99097721330511L42.102394245692665,147.01538162280733L42.51516281672886,143.98274141559224L42.92793138776507,145.58078800015574L43.34069995880127,143.21543576105537L43.75346852983748,140.54780316233612L44.16623710087367,137.0153699568496L44.579005671909876,135.85302989970077L44.99177424294608,136.22395273488462L45.40454281398228,133.487159353649L45.81731138501848,133.89846520100318L46.23007995605469,133.70291783670413L46.64284852709089,131.92790712201338L47.055617098127094,130.37003080512392L47.4683856691633,127.32061574468086L47.88115424019949,126.08050142802124L48.2939228112357,126.20362972025767L48.7066913822719,124.0188689338474L49.11945995330811,123.23149176398046L49.53222852434431,117.93995562761762L49.94499709538051,118.96715995530961L50.35776566641672,120.11296708824798L50.770534237452914,116.66035208474285L51.18330280848912,114.16372913952637L51.59607137952532,68.73563001373765L52.00883995056152,75.24415542607446L52.421608521597726,89.19842982461083L52.83437709263393,88.68819007218907L53.247145663670125,100.5057935017621L53.659914234706335,103.4319156357387L54.07268280574254,104.85240611317131L54.48545137677874,106.64855906662268L54.898219947814944,107.81681754916245L55.31098851885114,109.98989751388258L55.72375708988735,113.62119719161076L56.136525660923546,110.73661397756867L56.54929423195975,109.75206842028282L56.96206280299596,109.7234094189409L57.374831374032155,109.95950529807529L57.787599945068365,107.45327355019266L58.20036851610456,104.80305749958204L58.613137087140764,98.72139276745324L59.02590565817697,90.59053632636349L59.43867422921317,87.72275205286935L59.85144280024937,83.7297828989664L60.264211371285576,81.51294010882388L60.67697994232177,72.86177116011491L61.08974851335798,63.63471417114719L61.502517084394185,56.95812917897881L61.91528565543038,50.077347214176115L62.32805422646659,42.062216922590224L62.74082279750279,34.95592491577362L63.153591368539,34.67552101920012L63.56635993957519,28.425142775222806L63.979128510611396,24.816025874981374L64.3918970816476,26.834303135066335L64.80466565268381,26.843851075457994L65.21743422372,29.299464873893175L65.63020279475622,30.706870622045557L66.04297136579241,28.49923796172733L66.45573993682862,36.44884850505507L66.86850850786482,33.978635181008755L67.28127707890101,37.68982088627511L67.69404564993722,34.969934374089355L68.10681422097342,36.00355317954979L68.51958279200963,38.73365274878505L68.93235136304583,37.519096567584604L69.34511993408204,36.78240916359299L69.75788850511823,40.001472717881924L70.17065707615444,43.72100177870437L70.58342564719064,41.06320988893188L70.99619421822685,44.28913077700335L71.40896278926304,45.43895239984885L71.82173136029925,40.66551214400895L72.23449993133545,46.513371062620166L72.64726850237166,52.029541208088546L73.06003707340786,47.329980164931605L73.47280564444405,49.59950251270746L73.88557421548026,48.88234204150329L74.29834278651646,48.18713715858887L74.71111135755267,48.98104101944978L75.12387992858886,46.524193585516606L75.53664849962507,44.981132938013424L75.94941707066127,47.27924765001947L76.36218564169748,47.14938559440371L76.77495421273369,49.56736904343389L77.18772278376987,49.4341813476094L77.60049135480608,51.35573557132237L78.01325992584229,51.49445747017227L78.42602849687849,51.55723825021305L78.83879706791468,50.93463336227851L79.2515656389509,52.46693739622002L79.66433420998709,51.36563622547673L80.0771027810233,54.63234790896132L80.48987135205951,57.438024242802L80.9026399230957,51.55650673068208L81.3154084941319,51.783909188351316L81.72817706516811,49.97948916518168L82.14094563620432,50.565169017648564L82.5537142072405,30.92124623570235L82.96648277827671,39.02762879955423L83.37925134931292,47.03966572001519L83.79201992034912,49.24076305764991L84.20478849138533,57.537352252264775L84.61755706242153,58.68341325760855L85.03032563345772,56.34734524364586L85.44309420449393,58.0965904111542L85.85586277553014,60.09360363956984L86.26863134656634,60.36628831578258L86.68139991760253,59.97868773373696L87.09416848863874,58.90972784977434L87.50693705967495,59.98928359018079L87.91970563071114,59.98730252216102L88.33247420174735,59.183201088628174L88.74524277278356,60.619537890456286L89.15801134381975,58.946940984665204L89.57077991485596,59.779990878563595L89.98354848589216,57.84764042123588L90.39631705692835,54.448934424049575L90.80908562796456,51.4179658152437L91.22185419900077,48.79341739631746L91.63462277003696,47.44306377348839L92.04739134107317,42.915551056522936L92.46015991210938,39.68864171023427L92.87292848314559,34.66351156375487L93.28569705418178,28.49069116407926L93.69846562521798,25.130956281869388L94.11123419625419,20.871291942277203L94.52400276729038,18.489792025120103L94.9367713383266,18.321671583928072L95.3495399093628,18.786613363160516L95.76230848039899,24.704631729650536L96.1750770514352,25.379419373799056L96.5878456224714,25.80586760080154L97.0006141935076,25.898782990971096L97.4133827645438,24.709253997140483L97.82615133558001,27.468290176625278L98.23891990661622,28.440722325349757L98.65168847765241,29.435639534330676L99.06445704868862,32.27008401220576L99.47722561972482,34.53614135225566L99.88999419076102,30.61902818202312L100.30276276179723,32.94550717756276L100.71553133283344,31.55818879241088L101.12829990386962,32.155968082045554L101.54106847490583,35.45758499216309L101.95383704594204,38.51477953891562L102.36660561697823,38.75878924394482L102.77937418801443,37.56759176138264L103.19214275905064,37.14634777813948L103.60491133008685,36.37310310182394L104.01767990112305,33.044352771793584L104.43044847215926,33.475303959650226L104.84321704319545,35.961207449903284L105.25598561423165,38.071971290851515L105.66875418526786,35.3707453425103L106.08152275630407,37.48268198856907L106.49429132734025,33.73673915057783L106.90705989837646,31.462638088545358L107.31982846941267,34.47277033494333L107.73259704044887,34.55739525418831L108.14536561148508,33.47475782878665L108.55813418252127,40.808214207244276L108.97090275355748,38.444946858372454L109.38367132459368,35.63449357344112L109.79643989562989,38.34734522034784L110.2092084666661,39.371314141302925L110.62197703770228,38.18295870632765L111.03474560873849,39.48804116927663L111.4475141797747,36.95914774230577L111.8602827508109,38.204491664017674L112.27305132184709,38.603770292282334L112.6858198928833,38.357202948318736L113.0985884639195,40.757395802194964L113.51135703495571,24.519449543480633L113.92412560599192,28.423360819211524L114.33689417702811,32.3796121544253L114.74966274806431,37.92503395476948L115.16243131910052,36.995910861684436L115.57519989013673,39.26415466308918L115.98796846117291,43.40305754674738L116.40073703220912,40.61753195263902L116.81350560324533,44.3326914667438L117.22627417428153,42.28574493951689L117.63904274531772,42.47939185957479L118.05181131635393,44.11436426156439L118.46457988739013,44.06108217685906L118.87734845842634,42.627383222350396L119.29011702946255,40.95984433819699L119.70288560049875,43.5804341139706L120.11565417153494,42.665592726677616L120.52842274257115,41.28232754705602L120.94119131360736,39.96304552775214L121.35395988464354,40.892472791641005L121.76672845567975,44.242122448029555L122.17949702671596,42.159664739597L122.59226559775216,41.027477957680645L123.00503416878837,36.67765000908326L123.41780273982457,34.63473808855394L123.83057131086076,29.042844263512727L124.24333988189697,25.23506018957984L124.65610845293318,19.984875416812592L125.06887702396939,20.16938045777518L125.48164559500557,23.01238734321678L125.89441416604178,18.82301277060629L126.307182737078,18.509844140655574L126.71995130811419,22.07094595891419L127.13271987915039,23.054766227708726L127.5454884501866,26.52993840531011L127.95825702122279,27.545306420530352L128.371025592259,27.507318498635943L128.7837941632952,26.828019702020832L129.1965627343314,26.740229953647308L129.60933130536762,27.993802582240136L130.02209987640381,31.178619068685048L130.43486844744,31.76040802992828L130.8476370184762,34.03488050608789L131.26040558951243,34.01113653021689L131.67317416054863,34.47377487660206L132.08594273158482,38.20935759310522L132.49871130262102,35.41485595218578L132.91147987365724,34.702910986080326L133.3242484446934,35.57050709346841L133.73701701572963,30.890212112933597L134.14978558676583,33.338127284919594L134.56255415780203,35.23580565151707L134.97532272883825,34.46068705637647L135.38809129987445,32.93121187354896L135.80085987091064,34.17246467455788L136.21362844194684,33.88184050895741L136.62639701298306,34.32467449077889L137.03916558401926,33.56091354144784L137.45193415505545,34.39999064482479L137.86470272609165,39.8555907640428L138.27747129712787,41.400618469515365L138.69023986816407,38.75263700191967L139.10300843920027,35.24526215472583L139.51577701023646,37.01874972634659L139.92854558127266,38.279027658929046L140.34131415230888,36.81695589870491L140.75408272334508,36.7227997213315L141.16685129438127,33.882041755874745L141.57961986541747,30.671076734394838L141.9923884364537,30.43918349398919L142.4051570074899,30.218834315790954L142.8179255785261,32.48445439802902L143.23069414956228,37.537188139201255L143.6434627205985,38.63536326109513L144.0562312916347,34.745260115578894L144.4689998626709,21.129376161637254L144.8817684337071,28.115998796797275L145.29453700474332,34.315107469071584L145.70730557577951,33.797577420919374L146.1200741468157,35.21087703154711L146.5328427178519,37.01033217581367L146.9456112888881,36.36024719319774L147.35837985992433,35.96908588332143L147.77114843096052,39.264257204133386L148.18391700199675,40.47294489903358L148.59668557303291,43.172272458885324L149.0094541440691,44.78783382294225L149.42222271510533,45.70813509475508L149.83499128614153,47.851629513672414L150.24775985717773,45.75089496379506L150.66052842821395,47.3581523674697L151.07329699925015,43.48523870188826L151.48606557028634,41.05288648747628L151.89883414132254,38.2929358139951L152.31160271235873,36.18261542788204L152.72437128339496,38.62825854419802L153.13713985443115,37.97717054994783L153.54990842546738,35.788965340822585L153.96267699650355,37.31065971630715L154.37544556753974,37.20146016719899L154.78821413857597,36.583368151530394L155.20098270961216,33.48081392501205L155.6137512806484,32.309192088656715L156.02651985168458,26.526957216246792L156.43928842272078,26.450037978374677L156.85205699375697,26.09351518725715L157.26482556479317,25.341376984121226L157.67759413582937,23.89692334862797L158.0903627068656,26.61788185189587L158.5031312779018,25.205984594607624L158.915899848938,21.983391549399443L159.32866841997418,25.208729492459273L159.74143699101037,27.989884003918515L160.1542055620466,29.235687244231915L160.5669741330828,27.432335732867088L160.97974270411902,25.18672642581821L161.39251127515521,26.344338500504023L161.8052798461914,28.765760564506422L162.2180484172276,32.477852088094366L162.6308169882638,32.66546587998697L163.0435855593,34.236969116324545L163.45635413033622,37.71635675594171L163.86912270137242,38.350649183168585L164.28189127240864,33.106648707666736L164.6946598434448,31.034278104308946L165.107428414481,30.257743271128813L165.52019698551723,29.78319902751537L165.93296555655343,27.541638788346237L166.34573412758965,32.821163055884654L166.75850269862585,32.565660743493204L167.17127126966204,31.53738807152266L167.58403984069824,33.86490751560661L167.99680841173443,30.20871869257284L168.40957698277066,30.36043391786819L168.82234555380685,27.948230800371178L169.23511412484305,27.123742457900704L169.64788269587928,27.023666794126804L170.06065126691544,30.2170672696553L170.47341983795164,33.198444768210706L170.88618840898786,30.805519851478827L171.29895698002406,31.021329635082623L171.71172555106028,32.92625655855939L172.12449412209648,33.178947521938845L172.53726269313267,34.244735899924436L172.95003126416887,34.76568979451644L173.36279983520507,33.46319107712746L173.7755684062413,33.88448844203374L174.1883369772775,31.033532775472636L174.60110554831368,31.923627635518514L175.0138741193499,31.105301456980275L175.42664269038607,19.331922042603328L175.83941126142227,23.089041541117428L176.2521798324585,25.701976941495314L176.6649484034947,25.59009573728692L177.07771697453092,30.210726388946565L177.4904855455671,33.579761534668L177.90325411660334,33.95221439625703L178.3160226876395,38.41735594282807L178.7287912586757,36.50002154298843L179.14155982971192,34.21171108084676L179.55432840074812,34.5168594589422L179.96709697178431,34.46277197140153L180.37986554282054,36.4799016401483L180.7926341138567,34.93573829939689L181.20540268489293,37.28180787176493L181.61817125592913,34.3804433952915L182.03093982696532,32.878166442548334L182.44370839800155,36.18508704600528L182.85647696903774,34.14832458513219L183.2692455400739,31.0686277900941L183.68201411111013,34.4224745767847L184.09478268214633,30.797984552961797L184.50755125318256,31.585789288966172L184.92031982421875,29.634724986858416L185.33308839525498,27.933992705211253L185.74585696629117,26.72609497781781L186.15862553732734,30.403098068608696L186.57139410836356,25.478200788101958L186.98416267939976,23.307710196989483L187.39693125043596,23.079091258642215L187.80969982147218,18.860736713623375L188.22246839250838,18.594466349895157L188.63523696354457,19.12749215932396L189.04800553458077,17.728868794496844L189.46077410561696,18.078273222576307L189.8735426766532,20.560253352042746L190.28631124768938,19.169711225871286L190.6990798187256,23.06448639445172L191.1118483897618,24.542024062545856L191.52461696079797,26.061714378876545L191.9373855318342,27.063157771336236L192.3501541028704,28.29160103794023L192.7629226739066,26.776634993928788L193.1756912449428,26.519478192274647L193.588459815979,28.493810709644418L194.0012283870152,27.26502318567727L194.4139969580514,27.119771730734055L194.8267655290876,25.46047642840189L195.23953410012382,28.652483084712475L195.65230267116002,28.299523027733503L196.06507124219624,31.019960353375932L196.47783981323244,28.683134394296L196.8906083842686,29.366799276807054L197.30337695530483,26.631335488213235L197.71614552634102,26.531078113334267L198.12891409737725,29.212235400786827L198.54168266841344,26.508069834634043L198.95445123944964,25.457960054481028L199.36721981048584,23.885936456887578L199.77998838152203,22.88373275176169L200.19275695255823,24.213028565572824L200.60552552359445,21.97546556956222L201.01829409463065,22.000168421132265L201.43106266566687,22.437706786137344L201.84383123670307,25.66368766480847L202.25659980773924,28.208708110733177L202.66936837877546,31.982434077601823L203.08213694981166,31.545277632636537L203.49490552084788,31.232703969042497L203.90767409188408,27.950589068146275L204.32044266292027,28.182795834968893L204.73321123395647,29.867422223005146L205.14597980499266,33.39611073030009L205.55874837602886,35.0006625951419L205.97151694706508,29.16875187420001L206.38428551810128,17.973063809579042L206.7970540891375,26.18342794045049L207.2098226601737,26.798026410030154L207.62259123120987,24.63808067673552L208.0353598022461,26.562508720097604L208.4481283732823,29.339797147094902L208.8608969443185,29.855429052996815L209.2736655153547,30.272911055353696L209.6864340863909,32.76129619831474L210.0992026574271,30.838757364262303L210.5119712284633,33.662077379193576L210.92473979949952,32.8254247528075L211.33750837053572,33.662531310672826L211.7502769415719,35.069339068837266L212.16304551260814,37.14599159235905L212.57581408364433,35.930299298895505L212.9885826546805,33.831470156464725L213.40135122571672,36.49516329133509L213.81411979675292,35.802611246608926L214.22688836778914,37.666187422044445L214.63965693882534,35.26322229396023L215.05242550986154,34.95162400032505L215.46519408089773,34.04547556692724L215.87796265193393,32.24847249774778L216.29073122297015,28.85140341823708L216.70349979400635,29.159100286518612L217.11626836504254,27.373051073933055L217.52903693607877,27.37997027517674L217.94180550711496,26.831450142532237L218.35457407815116,23.837698936106428L218.76734264918736,24.462871027848347L219.18011122022355,23.682567195121173L219.59287979125978,21.07922598465643L220.00564836229597,24.258211202599387L220.4184169333322,27.65880601313988L220.83118550436836,25.174551485372895L221.24395407540456,26.53021198836243L221.65672264644078,27.505922429941382L222.06949121747698,23.04528420537026L222.48225978851318,24.415262734068197L222.8950283595494,25.943482691383114L223.3077969305856,24.555545240196675L223.7205655016218,25.960212117284133L224.133334072658,29.75229947827806L224.54610264369418,31.660593193647923L224.9588712147304,31.453199289241546L225.3716397857666,31.656484569902183L225.78440835680283,31.267889850315058L226.197176927839,32.84384658732808L226.6099454988752,33.22458729652065L227.02271406991142,30.00156432583033L227.4354826409476,32.61388143395861L227.84825121198384,31.699118250739836L228.26101978302003,27.514207593995184L228.67378835405623,26.040533663331907L229.08655692509242,25.655420442976848L229.49932549612862,23.909538627975916L229.91209406716482,25.961133851066624L230.32486263820104,28.98776838188083L230.73763120923724,29.5449742162568L231.15039978027346,28.284799990756735L231.56316835130963,30.512774166580627L231.97593692234582,27.710470341926655L232.38870549338205,31.546559112338837L232.80147406441824,29.903663394993853L233.21424263545447,29.679562491896405L233.62701120649066,28.853756906739694L234.03977977752686,30.944291636016548L234.45254834856306,28.52672705507967L234.86531691959925,27.4483573045921L235.27808549063545,26.693932486105204L235.69085406167167,27.608043009816924L236.10362263270787,26.561527722920804L236.5163912037441,26.653036984561123L236.92915977478026,26.73355335391282L237.34192834581646,16.42855402596312L237.75469691685268,24.78005335399705L238.16746548788888,27.848596624928934L238.5802340589251,25.154280150015335L238.9930026299613,28.15857552241038L239.4057712009975,27.646649023446827L239.8185397720337,29.374494230727834L240.23130834306988,31.051316133034696L240.6440769141061,32.120166133469134L241.0568454851423,31.240488524411358L241.4696140561785,33.13737525111968L241.88238262721472,30.903836062400988L242.2951511982509,28.401168305184367L242.7079197692871,30.688900764062225L243.1206883403233,30.948701190458884L243.5334569113595,28.07802110258022L243.94622548239573,27.174078967493582L244.35899405343193,29.43606307818289L244.77176262446812,29.708232987709994L245.18453119550432,28.68176408020667L245.59729976654052,27.900656705309505L246.01006833757674,28.117936933072393L246.42283690861294,33.13098398196889L246.83560547964913,33.80385180932455L247.24837405068536,32.7806553803078L247.66114262172152,30.74188982714439L248.07391119275772,28.929236185795645L248.48667976379394,29.131810275561534L248.89944833483014,27.557588878819377L249.31221690586636,24.750975441032804L249.72498547690256,24.998022883995496L250.13775404793878,23.478308311527474L250.55052261897495,26.736129788661856L250.96329119001115,22.399466996554178L251.37605976104737,24.607653390153455L251.78882833208357,23.114693256516645L252.20159690311976,22.691066845766876L252.614365474156,21.053060350226428L253.02713404519216,23.390874545097454L253.43990261622838,26.014284633829508L253.85267118726458,23.674766988566116L254.26543975830077,22.5514533218324L254.678208329337,23.61896580028224L255.0909769003732,23.131863090061053L255.50374547140936,24.923694281270958L255.91651404244558,23.92337536610936L256.3292826134818,27.365242449225235L256.742051184518,25.973888060727333L257.15481975555423,25.877131689435167L257.5675883265904,26.15299481805733L257.9803568976266,28.543555707156532L258.3931254686628,25.54068506826006L258.805894039699,28.17555637290633L259.21866261073524,28.642992059892368L259.6314311817714,31.845164152280617L260.04419975280763,30.61806993181476L260.45696832384385,25.50124120344874L260.86973689488,25.631233981122975L261.2825054659162,26.43248451898571L261.6952740369524,27.5436634790667L262.10804260798864,27.10717042332285L262.52081117902486,28.332403910307722L262.933579750061,27.24272177756459L263.34634832109725,24.188399994713073L263.7591168921334,25.92802273464584L264.17188546316964,27.823174436700793L264.58465403420587,26.410710814874225L264.99742260524204,25.86986249956691L265.41019117627826,29.547155270928574L265.8229597473145,32.58895839817342L266.23572831835065,30.677350168852627L266.6484968893868,32.154002991123974L267.06126546042304,33.25760018336094L267.47403403145927,30.648154351566742L267.8868026024955,32.00143685301364L268.29957117353166,20.655312588658383L268.7123397445679,23.802510681667293L269.12510831560405,29.006885379691546L269.5378768866403,29.949368194160403L269.9506454576765,31.381806347106416L270.36341402871267,34.96982306850748L270.7761825997489,33.64942157244224L271.1889511707851,34.603787962641796L271.6017197418213,35.435384607921684L272.0144883128575,37.72748828893752L272.4272568838937,37.6729690049442L272.8400254549299,38.5415567033227L273.2527940259661,38.65024044948378L273.6655625970023,36.10817235910705L274.0783311680385,34.77516812888645L274.4910997390747,32.526030363877425L274.9038683101109,35.421328159473546L275.31663688114713,37.88606905962959L275.7294054521833,37.89049895891376L276.1421740232195,39.787320138684564" fill="none"></path></g></g></g></g><g opacity="0.2"><g><g><g><path style="fill: none;" stroke="rgb(0, 153, 136)" stroke-width="2px" d="M27.24272568838937,178.36917160647897L27.65549425942557,174.3795628478229L28.068262830461773,169.32173252731062L28.48103140149798,165.61532295175968L28.893799972534183,161.37291650886462L29.306568543570382,157.53912522010552L29.719337114606585,155.78211894013313L30.132105685642788,153.62687165636174L30.54487425667899,150.66194921076368L30.95764282771519,145.29951795921008L31.370411398751394,149.28144736243715L31.783179969787597,140.78273927164076L32.1959485408238,142.0165071070546L32.60871711186,140.53493694870406L33.021485682896206,144.03294815130974L33.43425425393241,143.8616261600086L33.84702282496861,149.7411556120119L34.259791396004815,148.42432976921532L34.67255996704102,152.18559921264648L35.08532853807722,156.9008044519236L35.498097109113424,154.9805173622491L35.91086568014963,159.88966682903842L36.32363425118583,162.4018637301037L36.736402822222026,156.29545306833668L37.14917139325823,160.2283955284578L37.56193996429443,163.18700491744792L37.974708535330635,155.65580920445848L38.387477106366845,160.20775523559584L38.80024567740304,148.83432202295353L39.213014248439244,150.9982963379298L39.62578281947545,150.52076139899413L40.03855139051165,154.84734373012557L40.45131996154785,145.33703987307845L40.864088532584056,151.34600048652152L41.27685710362025,145.57552112184464L41.68962567465646,152.08527075613432L42.102394245692665,142.5519882370967L42.51516281672886,139.43378110479168L42.92793138776507,147.97785787699397L43.34069995880127,139.6674074024111L43.75346852983748,136.54635426426142L44.16623710087367,131.7167201486232L44.579005671909876,134.1095198139781L44.99177424294608,136.78033698766026L45.40454281398228,129.38196928179613L45.81731138501848,134.51542397203437L46.23007995605469,133.4095967902555L46.64284852709089,129.26539104997738L47.055617098127094,128.03321632978972L47.4683856691633,122.74649315401633L47.88115424019949,124.22032995303186L48.2939228112357,126.38832215861231L48.7066913822719,120.741727754232L49.11945995330811,122.05042600918003L49.53222852434431,110.00265142307337L49.94499709538051,120.50796644684765L50.35776566641672,121.83167778765551L50.770534237452914,111.48142957948521L51.18330280848912,110.41879472170164L51.59607137952532,0.5934813250545447L52.00883995056152,85.00694354457967L52.421608521597726,110.12984142241535L52.83437709263393,87.92283044355642L53.247145663670125,118.23219864612166L53.659914234706335,107.82109883670368L54.07268280574254,106.98314182932025L54.48545137677874,109.34278849679977L54.898219947814944,109.56920527297211L55.31098851885114,113.24951746096276L55.72375708988735,119.068146708203L56.136525660923546,106.40973915650557L56.54929423195975,108.27525008435408L56.96206280299596,109.68042091692799L57.374831374032155,110.3136491167769L57.787599945068365,103.69392592836871L58.20036851610456,100.82773342366609L58.613137087140764,89.59889566926007L59.02590565817697,78.39425166472886L59.43867422921317,83.42107564262813L59.85144280024937,77.74032916811201L60.264211371285576,78.1876759236101L60.67697994232177,59.88501773705147L61.08974851335798,49.794128687695604L61.502517084394185,46.94325169072626L61.91528565543038,39.756174266972124L62.32805422646659,30.039521485211335L62.74082279750279,24.29648690554873L63.153591368539,34.25491517433991L63.56635993957519,19.04957540925685L63.979128510611396,19.402350524619223L64.3918970816476,29.861719025193707L64.80466565268381,26.85817298604548L65.21743422372,32.98288557154592L65.63020279475622,32.817979244274085L66.04297136579241,25.18778897124994L66.45573993682862,48.37326432004665L66.86850850786482,30.273315194939258L67.28127707890101,43.25659944417466L67.69404564993722,30.89010460581071L68.10681422097342,37.55398138774046L68.51958279200963,42.82880210263795L68.93235136304583,35.697262295783965L69.34511993408204,35.67737805760559L69.75788850511823,44.83006804931536L70.17065707615444,49.30029536993802L70.58342564719064,37.07652205427318L70.99619421822685,49.12801210911059L71.40896278926304,47.16368483411706L71.82173136029925,33.50535176024911L72.23449993133545,55.28515944053699L72.64726850237166,60.30379642629112L73.06003707340786,40.28063860019622L73.47280564444405,53.00378603437124L73.88557421548026,47.806601334697106L74.29834278651646,47.1443298342172L74.71111135755267,50.17189681074115L75.12387992858886,42.83892243461684L75.53664849962507,42.666541966758665L75.94941707066127,50.72641971802851L76.36218564169748,46.95459251098009L76.77495421273369,53.19434421697911L77.18772278376987,49.234399803872684L77.60049135480608,54.23806690689177L78.01325992584229,51.70254031844716L78.42602849687849,51.65140942027419L78.83879706791468,50.00072603037673L79.2515656389509,54.765393447132325L79.66433420998709,49.71368446936179L80.0771027810233,59.5324154341882L80.48987135205951,61.646538743563L80.9026399230957,42.73423046250222L81.3154084941319,52.12501287485519L81.72817706516811,47.272859130427236L82.14094563620432,51.44368879634886L82.5537142072405,1.4553620627829718L82.96648277827671,51.187202645332086L83.37925134931292,59.05772110070661L83.79201992034912,52.54240906410198L84.20478849138533,69.9822360441871L84.61755706242153,60.40250476562418L85.03032563345772,52.84324322270184L85.44309420449393,60.720458162416705L85.85586277553014,63.08912348219334L86.26863134656634,60.77531533010164L86.68139991760253,59.39728686066857L87.09416848863874,57.3062880238304L87.50693705967495,61.60861720079044L87.91970563071114,59.984330920131406L88.33247420174735,57.97704893832886L88.74524277278356,62.77404309319844L89.15801134381975,56.43804562597862L89.57077991485596,61.02956571941125L89.98354848589216,54.949114735244315L90.39631705692835,49.35087542827008L90.80908562796456,46.87151290203491L91.22185419900077,44.85659476792812L91.63462277003696,45.41753333924477L92.04739134107317,36.124281981074716L92.46015991210938,34.84827769080131L92.87292848314559,27.125816344035798L93.28569705418178,19.231460564565843L93.69846562521798,20.09135395855456L94.11123419625419,14.481795432888898L94.52400276729038,14.917542149384511L94.9367713383266,18.069490922139952L95.3495399093628,19.48402603200916L95.76230848039899,33.58165927938558L96.1750770514352,26.391600840021855L96.5878456224714,26.4455399413053L97.0006141935076,26.038156076225448L97.4133827645438,22.92496050639451L97.82615133558001,31.606844445852563L98.23891990661622,29.89937054843642L98.65168847765241,30.928015347802077L99.06445704868862,36.52175072901835L99.47722561972482,37.93522736233054L99.88999419076102,24.743358426674273L100.30276276179723,36.43522567087226L100.71553133283344,29.477211214683027L101.12829990386962,33.052637016497556L101.54106847490583,40.41001035733941L101.95383704594204,43.100571359044395L102.36660561697823,39.1248038014886L102.77937418801443,35.7807955375393L103.19214275905064,36.51448180327472L103.60491133008685,35.21323608735064L104.01767990112305,28.051227276748037L104.43044847215926,34.1217307414352L104.84321704319545,39.690062685282896L105.25598561423165,41.238117052273815L105.66875418526786,31.318906419998505L106.08152275630407,40.65058695765725L106.49429132734025,28.117824893591L106.90705989837646,28.05148649549671L107.31982846941267,38.98796870454029L107.73259704044887,34.68433263305575L108.14536561148508,31.85080169068416L108.55813418252127,51.80839877493075L108.97090275355748,34.90004583506473L109.38367132459368,31.41881364604412L109.79643989562989,42.41662269070792L110.2092084666661,40.907267522735516L110.62197703770228,36.40042555386479L111.03474560873849,41.445664863700046L111.4475141797747,33.165807601849544L111.8602827508109,40.07250754658551L112.27305132184709,39.2026882346794L112.6858198928833,37.98735193237337L113.0985884639195,44.35768508300931L113.51135703495571,0.16253015540913487L113.92412560599192,34.279227732807854L114.33689417702811,38.31398915724595L114.74966274806431,46.24316665528575L115.16243131910052,35.602226222056885L115.57519989013673,42.66652036519627L115.98796846117291,49.611411872234655L116.40073703220912,36.439243561476474L116.81350560324533,49.90543073790102L117.22627417428153,39.21532514867652L117.63904274531772,42.769862239661634L118.05181131635393,46.566822864548776L118.46457988739013,43.981159049801064L118.87734845842634,40.47683479058743L119.29011702946255,38.458536011966885L119.70288560049875,47.51131877763105L120.11565417153494,41.29333064573817L120.52842274257115,39.207429777623624L120.94119131360736,37.98412249879632L121.35395988464354,42.286613687474286L121.76672845567975,49.26659693261236L122.17949702671596,39.035978176948156L122.59226559775216,39.329197784806134L123.00503416878837,30.15290808618721L123.41780273982457,31.570370207760014L123.83057131086076,20.65500352595094L124.24333988189697,19.52338407868054L124.65610845293318,12.109598257661796L125.06887702396939,20.446138019219035L125.48164559500557,27.27689767137915L125.89441416604178,12.538950911690485L126.307182737078,18.04009119572956L126.71995130811419,27.412598686302086L127.13271987915039,24.530496630900537L127.5454884501866,31.742696671712206L127.95825702122279,29.068358443360772L128.371025592259,27.45033661579433L128.7837941632952,25.80907150709816L129.1965627343314,26.608545331086955L129.60933130536762,29.874161525129335L130.02209987640381,35.95584379835241L130.43486844744,32.63309147179312L130.8476370184762,37.446589220327326L131.26040558951243,33.97552056641039L131.67317416054863,35.16773239617981L132.08594273158482,43.81273166785995L132.49871130262102,31.223103490806643L132.91147987365724,33.63499353692215L133.3242484446934,36.871901254550544L133.73701701572963,23.869769642131413L134.14978558676583,37.010000042898575L134.56255415780203,38.082323201413274L134.97532272883825,33.29800916366558L135.38809129987445,30.636999099307694L135.80085987091064,36.03434387607128L136.21362844194684,33.44590426055669L136.62639701298306,34.98892546351114L137.03916558401926,32.4152721174513L137.45193415505545,35.65860629989021L137.86470272609165,48.0389909428698L138.27747129712787,43.71816002772422L138.69023986816407,34.78066480052611L139.10300843920027,29.984199883935037L139.51577701023646,39.678981083777735L139.92854558127266,40.16944455780275L140.34131415230888,34.623848258368675L140.75408272334508,36.581565455271395L141.16685129438127,29.62090480768959L141.57961986541747,25.854629202174948L141.9923884364537,30.091343633380713L142.4051570074899,29.888310548493646L142.8179255785261,35.88288452138612L143.23069414956228,45.116288750959555L143.6434627205985,40.28262594393593L144.0562312916347,28.910105397304516L144.4689998626709,0.7055502307247427L144.8817684337071,38.59593274953729L145.29453700474332,43.61377047748305L145.70730557577951,33.021282348691024L146.1200741468157,37.33082644748875L146.5328427178519,39.709514892213505L146.9456112888881,35.38511971927388L147.35837985992433,35.382343918507L147.77114843096052,44.20701418535132L148.18391700199675,42.285976441383816L148.59668557303291,47.22126379866292L149.0094541440691,47.21117586902762L149.42222271510533,47.08858700247434L149.83499128614153,51.06687114204839L150.24775985717773,42.599793138978995L150.66052842821395,49.769038472981656L151.07329699925015,37.675868203516124L151.48606557028634,37.40435816585831L151.89883414132254,34.153009803773365L152.31160271235873,33.01713484871248L152.72437128339496,42.29672321867198L153.13713985443115,37.00053855857252L153.54990842546738,32.50665752713475L153.96267699650355,39.593201279534036L154.37544556753974,37.037660843536734L154.78821413857597,35.65623012802749L155.20098270961216,28.826982585234564L155.6137512806484,30.551759334123695L156.02651985168458,17.853604907631876L156.43928842272078,26.33465912156646L156.85205699375697,25.55873100058083L157.26482556479317,24.213169679417284L157.67759413582937,21.730242895388052L158.0903627068656,30.699319606797776L158.5031312779018,23.088138708675285L158.915899848938,17.149501981587147L159.32866841997418,30.046736407049004L159.74143699101037,32.16161577110737L160.1542055620466,31.104392104702065L160.5669741330828,24.727308465819803L160.97974270411902,21.818312465244897L161.39251127515521,28.080756612532767L161.8052798461914,32.39789366050996L162.2180484172276,38.04598937347625L162.6308169882638,32.94688656782591L163.0435855593,36.59422397083091L163.45635413033622,42.9354382153675L163.86912270137242,39.302087824008886L164.28189127240864,25.24064799441397L164.6946598434448,27.925722199272368L165.107428414481,29.09294102135859L165.52019698551723,29.071382662095132L165.93296555655343,24.179298429592514L166.34573412758965,40.74044945719233L166.75850269862585,32.18240727490606L167.17127126966204,29.994979063566767L167.58403984069824,37.356186681732545L167.99680841173443,24.72443545802217L168.40957698277066,30.58800675581116L168.82234555380685,24.32992612412572L169.23511412484305,25.887009944194936L169.64788269587928,26.8735532984659L170.06065126691544,35.00716798294801L170.47341983795164,37.67051101604383L170.88618840898786,27.216132476381027L171.29895698002406,31.345044310488277L171.71172555106028,35.783646943774535L172.12449412209648,33.55798396700806L172.53726269313267,35.8434184669028L172.95003126416887,35.54712063640449L173.36279983520507,31.509443001043984L173.7755684062413,34.51643448939315L174.1883369772775,26.7570992756309L174.60110554831368,33.258769925587345L175.0138741193499,29.877812189172946L175.42664269038607,1.6718529210379443L175.83941126142227,28.724720788888643L176.2521798324585,29.62138004206215L176.6649484034947,25.42227393097431L177.07771697453092,37.141672366436104L177.4904855455671,38.633314253250134L177.90325411660334,34.51089368864056L178.3160226876395,45.11506826268463L178.7287912586757,33.62401994322893L179.14155982971192,30.779245387634266L179.55432840074812,34.97458202608535L179.96709697178431,34.3816407400905L180.37986554282054,39.50559614326851L180.7926341138567,32.61949328826973L181.20540268489293,40.80091223031702L181.61817125592913,30.028396680581384L182.03093982696532,30.62475101343356L182.44370839800155,41.14546795119065L182.85647696903774,31.093180893822584L183.2692455400739,26.449082597536965L183.68201411111013,39.45324475682062L184.09478268214633,25.361249517227513L184.50755125318256,32.767496392972774L184.92031982421875,26.708128533696758L185.33308839525498,25.38289428274054L185.74585696629117,24.914248386727653L186.15862553732734,35.918602704795084L186.57139410836356,18.090854867341935L186.98416267939976,20.05197431032081L187.39693125043596,22.736162851121286L187.80969982147218,12.533204896095201L188.22246839250838,18.195060804302802L188.63523696354457,19.92703087346721L189.04800553458077,15.630933747256172L189.46077410561696,18.602379864695475L189.8735426766532,24.283223546242336L190.28631124768938,17.083898036614052L190.6990798187256,28.9066491473224L191.1118483897618,26.75833056468702L191.52461696079797,28.341249853372574L191.9373855318342,28.56532286002579L192.3501541028704,30.134265937846152L192.7629226739066,24.504185927911664L193.1756912449428,26.13374298979342L193.588459815979,31.455309485699043L194.0012283870152,25.421841899726537L194.4139969580514,26.901894548319287L194.8267655290876,22.971533474903556L195.23953410012382,33.44049306917843L195.65230267116002,27.77008294226509L196.06507124219624,35.10061634183955L196.47783981323244,25.177895455676136L196.8906083842686,30.392296600573687L197.30337695530483,22.528139805322517L197.71614552634102,26.38069205101579L198.12891409737725,33.233971331965634L198.54168266841344,22.451821485404853L198.95445123944964,23.8827953842515L199.36721981048584,21.527901060497392L199.77998838152203,21.380427194072862L200.19275695255823,26.206972286289563L200.60552552359445,18.619121075546374L201.01829409463065,22.037222698487334L201.43106266566687,23.094014333644886L201.84383123670307,30.50265898281522L202.25659980773924,32.026238779620265L202.66936837877546,37.643023027904796L203.08213694981166,30.889542965188618L203.49490552084788,30.763843473651455L203.90767409188408,23.027416716801927L204.32044266292027,28.53110598520282L204.73321123395647,32.39436180505949L205.14597980499266,38.68914349124254L205.55874837602886,37.40749039240462L205.97151694706508,20.420885792787182L206.38428551810128,1.1795317126475333L206.7970540891375,38.49897413675766L207.2098226601737,27.719924114399593L207.62259123120987,21.398162076793607L208.0353598022461,29.449150785140684L208.4481283732823,33.50572978759091L208.8608969443185,30.628876911849712L209.2736655153547,30.899134058889008L209.6864340863909,36.49387391275632L210.0992026574271,27.95494911318366L210.5119712284633,37.897057401590516L210.92473979949952,31.570445813228368L211.33750837053572,34.91819114747086L211.7502769415719,37.17955070608388L212.16304551260814,40.260970377641726L212.57581408364433,34.10676085870015L212.9885826546805,30.683226442818537L213.40135122571672,40.49070299364068L213.81411979675292,34.763783179519706L214.22688836778914,40.46155168519774L214.63965693882534,31.658774601833905L215.05242550986154,34.48422655987228L215.46519408089773,32.68625291683059L215.87796265193393,29.552967893978582L216.29073122297015,23.755799798971033L216.70349979400635,29.62064558894094L217.11626836504254,24.693977255054754L217.52903693607877,27.39034907704218L217.94180550711496,26.008669943565504L218.35457407815116,19.347072126467708L218.76734264918736,25.400629165461286L219.18011122022355,22.51211144603044L219.59287979125978,17.1742141689593L220.00564836229597,29.026689029513854L220.4184169333322,32.759698228950604L220.83118550436836,21.4481696937224L221.24395407540456,28.56370274284668L221.65672264644078,28.96948809230979L222.06949121747698,16.354326868513603L222.48225978851318,26.47023052711506L222.8950283595494,28.23581262735556L223.3077969305856,22.473639063416982L223.7205655016218,28.06721243291535L224.133334072658,35.44043051976897L224.54610264369418,34.523033766702746L224.9588712147304,31.142108432631936L225.3716397857666,31.96141249089315L225.78440835680283,30.684997770934363L226.197176927839,35.20778169284762L226.6099454988752,33.79569836030946L227.02271406991142,25.16702986979484L227.4354826409476,36.532357096150974L227.84825121198384,30.326973475911657L228.26101978302003,21.236841608878226L228.67378835405623,23.830022767337045L229.08655692509242,25.07775061244424L229.49932549612862,21.290715905474492L229.91209406716482,29.038526685702625L230.32486263820104,33.527720178102136L230.73763120923724,30.380782967820767L231.15039978027346,26.394538652506665L231.56316835130963,33.85473543031653L231.97593692234582,23.507014604945663L232.38870549338205,37.300692267957146L232.80147406441824,27.43931981897634L233.21424263545447,29.343411137250254L233.62701120649066,27.61504852900467L234.03977977752686,34.08009372993185L234.45254834856306,24.900380183674404L234.86531691959925,25.830802678860717L235.27808549063545,25.562295258374892L235.69085406167167,28.979208795384512L236.10362263270787,24.991754792576657L236.5163912037441,26.79030087702163L236.92915977478026,26.854327907940377L237.34192834581646,0.97105503403862L237.75469691685268,37.30730234604793L238.16746548788888,32.451411531326826L238.5802340589251,21.11280543764494L238.9930026299613,32.66501858100295L239.4057712009975,26.878759275001464L239.8185397720337,31.966262041649316L240.23130834306988,33.566548986495015L240.6440769141061,33.72344113412081L241.0568454851423,29.92097211082466L241.4696140561785,35.98270534118218L241.88238262721472,27.55352727932296L242.2951511982509,24.647166669359425L242.7079197692871,34.12049945237906L243.1206883403233,31.338401830053893L243.5334569113595,23.772000970762214L243.94622548239573,25.818165764863593L244.35899405343193,32.82903924421686L244.77176262446812,30.116487852000624L245.18453119550432,27.142060718951743L245.59729976654052,26.72899564296379L246.01006833757674,28.44385727471672L246.42283690861294,40.65055455531366L246.83560547964913,34.813153550358024L247.24837405068536,31.245860736782657L247.66114262172152,27.683741497399282L248.07391119275772,26.21025572377258L248.48667976379394,29.435671410210425L248.89944833483014,25.19625678370613L249.31221690586636,20.54105528435297L249.72498547690256,25.36859404843952L250.13775404793878,21.198736452825365L250.55052261897495,31.622862004363444L250.96329119001115,15.894472808392711L251.37605976104737,27.919932980552318L251.78882833208357,20.875253056061464L252.20159690311976,22.055627229642134L252.614365474156,18.59605060691573L253.02713404519216,26.89759583740402L253.43990261622838,29.949399766927584L253.85267118726458,20.16549052067102L254.26543975830077,20.866482821731818L254.678208329337,25.22023451795709L255.0909769003732,22.40120902472921L255.50374547140936,27.611441068085846L255.91651404244558,22.422896993367L256.3292826134818,32.52804307389912L256.742051184518,23.886856477980494L257.15481975555423,25.731997132496907L257.5675883265904,26.566789510990482L257.9803568976266,32.12939704080531L258.3931254686628,21.03637910991535L258.805894039699,32.127863329875744L259.21866261073524,29.344145590371447L259.6314311817714,36.64842229086301L260.04419975280763,28.777428601115943L260.45696832384385,17.825998110899697L260.86973689488,25.82622314763442L261.2825054659162,27.634360325779763L261.6952740369524,29.210431919188242L262.10804260798864,26.452430839707137L262.52081117902486,30.170254140784966L262.933579750061,25.608198578449905L263.34634832109725,19.606917320435873L263.7591168921334,28.537456844544963L264.17188546316964,30.665901989783155L264.58465403420587,24.292015382134355L264.99742260524204,25.058590026605877L265.41019117627826,35.063094427971166L265.8229597473145,37.15166308904066L266.23572831835065,27.8099378248714L266.6484968893868,34.36898222453101L267.06126546042304,34.91299597171646L267.47403403145927,26.733985603875485L267.8868026024955,34.03136060518399L268.29957117353166,3.636126192125497L268.7123397445679,28.52330782118067L269.12510831560405,36.81344742672798L269.5378768866403,31.363092415863655L269.9506454576765,33.530463576525456L270.36341402871267,40.351848150609065L270.7761825997489,31.66881932834442L271.1889511707851,36.035337547941126L271.6017197418213,36.68277957584151L272.0144883128575,41.165643810461276L272.4272568838937,37.59119007895422L272.8400254549299,39.84443825089046L273.2527940259661,38.813266068725376L273.6655625970023,32.29507022354192L274.0783311680385,32.77566178355553L274.4910997390747,29.15232371636386L274.9038683101109,39.764274852867715L275.31663688114713,41.58318040986359L275.7294054521833,37.89714380784007L276.1421740232195,42.63255190834078" fill="none"></path></g></g></g></g></g></g><g transform="translate(41, 176)" clip-path="url(#clip_1)"><clipPath id="clip_1"><rect width="288" height="23"></rect></clipPath><g><g><line x1="0" y1="0" x2="0" y2="5" style="visibility: inherit;" fill="rgb(0, 0, 0)" stroke="rgb(204, 204, 204)" stroke-width="1px"></line><line x1="20.638428551810126" y1="0" x2="20.638428551810126" y2="5" style="visibility: inherit;" fill="rgb(0, 0, 0)" stroke="rgb(204, 204, 204)" stroke-width="1px"></line><line x1="41.27685710362025" y1="0" x2="41.27685710362025" y2="5" style="visibility: inherit;" fill="rgb(0, 0, 0)" stroke="rgb(204, 204, 204)" stroke-width="1px"></line><line x1="61.91528565543038" y1="0" x2="61.91528565543038" y2="5" style="visibility: inherit;" fill="rgb(0, 0, 0)" stroke="rgb(204, 204, 204)" stroke-width="1px"></line><line x1="82.5537142072405" y1="0" x2="82.5537142072405" y2="5" style="visibility: inherit;" fill="rgb(0, 0, 0)" stroke="rgb(204, 204, 204)" stroke-width="1px"></line><line x1="103.19214275905064" y1="0" x2="103.19214275905064" y2="5" style="visibility: inherit;" fill="rgb(0, 0, 0)" stroke="rgb(204, 204, 204)" stroke-width="1px"></line><line x1="123.83057131086076" y1="0" x2="123.83057131086076" y2="5" style="visibility: inherit;" fill="rgb(0, 0, 0)" stroke="rgb(204, 204, 204)" stroke-width="1px"></line><line x1="144.4689998626709" y1="0" x2="144.4689998626709" y2="5" style="visibility: inherit;" fill="rgb(0, 0, 0)" stroke="rgb(204, 204, 204)" stroke-width="1px"></line><line x1="165.107428414481" y1="0" x2="165.107428414481" y2="5" style="visibility: inherit;" fill="rgb(0, 0, 0)" stroke="rgb(204, 204, 204)" stroke-width="1px"></line><line x1="185.74585696629117" y1="0" x2="185.74585696629117" y2="5" style="visibility: inherit;" fill="rgb(0, 0, 0)" stroke="rgb(204, 204, 204)" stroke-width="1px"></line><line x1="206.38428551810128" y1="0" x2="206.38428551810128" y2="5" style="visibility: inherit;" fill="rgb(0, 0, 0)" stroke="rgb(204, 204, 204)" stroke-width="1px"></line><line x1="227.02271406991142" y1="0" x2="227.02271406991142" y2="5" style="visibility: inherit;" fill="rgb(0, 0, 0)" stroke="rgb(204, 204, 204)" stroke-width="1px"></line><line x1="247.66114262172152" y1="0" x2="247.66114262172152" y2="5" style="visibility: inherit;" fill="rgb(0, 0, 0)" stroke="rgb(204, 204, 204)" stroke-width="1px"></line><line x1="268.29957117353166" y1="0" x2="268.29957117353166" y2="5" style="visibility: inherit;" fill="rgb(0, 0, 0)" stroke="rgb(204, 204, 204)" stroke-width="1px"></line><line x1="288.9379997253418" y1="0" x2="288.9379997253418" y2="5" style="visibility: inherit;" fill="rgb(0, 0, 0)" stroke="rgb(204, 204, 204)" stroke-width="1px"></line></g><g transform="translate(0, 8)"><text style="text-anchor: middle; visibility: hidden; font-family: Roboto, sans-serif; font-size: 12px; font-weight: 200;" x="0" y="0" dx="0em" dy="0.95em" fill="rgb(33, 33, 33)" stroke="none" stroke-width="1px">-50</text><text style="text-anchor: middle; visibility: inherit; font-family: Roboto, sans-serif; font-size: 12px; font-weight: 200;" x="20.638428551810126" y="0" dx="0em" dy="0.95em" fill="rgb(33, 33, 33)" stroke="none" stroke-width="1px">0</text><text style="text-anchor: middle; visibility: hidden; font-family: Roboto, sans-serif; font-size: 12px; font-weight: 200;" x="41.27685710362025" y="0" dx="0em" dy="0.95em" fill="rgb(33, 33, 33)" stroke="none" stroke-width="1px">50</text><text style="text-anchor: middle; visibility: inherit; font-family: Roboto, sans-serif; font-size: 12px; font-weight: 200;" x="61.91528565543038" y="0" dx="0em" dy="0.95em" fill="rgb(33, 33, 33)" stroke="none" stroke-width="1px">100</text><text style="text-anchor: middle; visibility: hidden; font-family: Roboto, sans-serif; font-size: 12px; font-weight: 200;" x="82.5537142072405" y="0" dx="0em" dy="0.95em" fill="rgb(33, 33, 33)" stroke="none" stroke-width="1px">150</text><text style="text-anchor: middle; visibility: inherit; font-family: Roboto, sans-serif; font-size: 12px; font-weight: 200;" x="103.19214275905064" y="0" dx="0em" dy="0.95em" fill="rgb(33, 33, 33)" stroke="none" stroke-width="1px">200</text><text style="text-anchor: middle; visibility: hidden; font-family: Roboto, sans-serif; font-size: 12px; font-weight: 200;" x="123.83057131086076" y="0" dx="0em" dy="0.95em" fill="rgb(33, 33, 33)" stroke="none" stroke-width="1px">250</text><text style="text-anchor: middle; visibility: inherit; font-family: Roboto, sans-serif; font-size: 12px; font-weight: 200;" x="144.4689998626709" y="0" dx="0em" dy="0.95em" fill="rgb(33, 33, 33)" stroke="none" stroke-width="1px">300</text><text style="text-anchor: middle; visibility: hidden; font-family: Roboto, sans-serif; font-size: 12px; font-weight: 200;" x="165.107428414481" y="0" dx="0em" dy="0.95em" fill="rgb(33, 33, 33)" stroke="none" stroke-width="1px">350</text><text style="text-anchor: middle; visibility: inherit; font-family: Roboto, sans-serif; font-size: 12px; font-weight: 200;" x="185.74585696629117" y="0" dx="0em" dy="0.95em" fill="rgb(33, 33, 33)" stroke="none" stroke-width="1px">400</text><text style="text-anchor: middle; visibility: hidden; font-family: Roboto, sans-serif; font-size: 12px; font-weight: 200;" x="206.38428551810128" y="0" dx="0em" dy="0.95em" fill="rgb(33, 33, 33)" stroke="none" stroke-width="1px">450</text><text style="text-anchor: middle; visibility: inherit; font-family: Roboto, sans-serif; font-size: 12px; font-weight: 200;" x="227.02271406991142" y="0" dx="0em" dy="0.95em" fill="rgb(33, 33, 33)" stroke="none" stroke-width="1px">500</text><text style="text-anchor: middle; visibility: hidden; font-family: Roboto, sans-serif; font-size: 12px; font-weight: 200;" x="247.66114262172152" y="0" dx="0em" dy="0.95em" fill="rgb(33, 33, 33)" stroke="none" stroke-width="1px">550</text><text style="text-anchor: middle; visibility: inherit; font-family: Roboto, sans-serif; font-size: 12px; font-weight: 200;" x="268.29957117353166" y="0" dx="0em" dy="0.95em" fill="rgb(33, 33, 33)" stroke="none" stroke-width="1px">600</text><text style="text-anchor: middle; visibility: hidden; font-family: Roboto, sans-serif; font-size: 12px; font-weight: 200;" x="288.9379997253418" y="0" dx="0em" dy="0.95em" fill="rgb(33, 33, 33)" stroke="none" stroke-width="1px">650</text></g><line x1="0" y1="0" x2="288.9379997253418" y2="0" fill="rgb(0, 0, 0)" stroke="rgb(204, 204, 204)" stroke-width="1px"></line></g></g></g></g></svg>