<svg viewBox="0 0 330 200" xmlns="http://www.w3.org/2000/svg"><g><g><g><g><g><line x1="41.149001121520996" y1="176.89999961853027" x2="36.149001121520996" y2="176.89999961853027" style="visibility: inherit;" fill="rgb(0, 0, 0)" stroke="rgb(204, 204, 204)" stroke-width="1px"></line><line x1="41.149001121520996" y1="159.20999965667724" x2="36.149001121520996" y2="159.20999965667724" style="visibility: inherit;" fill="rgb(0, 0, 0)" stroke="rgb(204, 204, 204)" stroke-width="1px"></line><line x1="41.149001121520996" y1="141.51999969482424" x2="36.149001121520996" y2="141.51999969482424" style="visibility: inherit;" fill="rgb(0, 0, 0)" stroke="rgb(204, 204, 204)" stroke-width="1px"></line><line x1="41.149001121520996" y1="123.82999973297119" x2="36.149001121520996" y2="123.82999973297119" style="visibility: inherit;" fill="rgb(0, 0, 0)" stroke="rgb(204, 204, 204)" stroke-width="1px"></line><line x1="41.149001121520996" y1="106.13999977111816" x2="36.149001121520996" y2="106.13999977111816" style="visibility: inherit;" fill="rgb(0, 0, 0)" stroke="rgb(204, 204, 204)" stroke-width="1px"></line><line x1="41.149001121520996" y1="88.44999980926514" x2="36.149001121520996" y2="88.44999980926514" style="visibility: inherit;" fill="rgb(0, 0, 0)" stroke="rgb(204, 204, 204)" stroke-width="1px"></line><line x1="41.149001121520996" y1="70.75999984741212" x2="36.149001121520996" y2="70.75999984741212" style="visibility: inherit;" fill="rgb(0, 0, 0)" stroke="rgb(204, 204, 204)" stroke-width="1px"></line><line x1="41.149001121520996" y1="53.06999988555909" x2="36.149001121520996" y2="53.06999988555909" style="visibility: inherit;" fill="rgb(0, 0, 0)" stroke="rgb(204, 204, 204)" stroke-width="1px"></line><line x1="41.149001121520996" y1="35.379999923706045" x2="36.149001121520996" y2="35.379999923706045" style="visibility: inherit;" fill="rgb(0, 0, 0)" stroke="rgb(204, 204, 204)" stroke-width="1px"></line><line x1="41.149001121520996" y1="17.689999961853022" x2="36.149001121520996" y2="17.689999961853022" style="visibility: inherit;" fill="rgb(0, 0, 0)" stroke="rgb(204, 204, 204)" stroke-width="1px"></line><line x1="41.149001121520996" y1="0" x2="36.149001121520996" y2="0" style="visibility: inherit;" fill="rgb(0, 0, 0)" stroke="rgb(204, 204, 204)" stroke-width="1px"></line></g><g transform="translate(31.149001121520996, 0)"><text style="text-anchor: end; visibility: hidden; font-family: Roboto, sans-serif; font-size: 12px; font-weight: 200;" x="0" y="176.89999961853027" dx="0em" dy="0.3em" fill="rgb(33, 33, 33)" stroke="none" stroke-width="1px">100</text><text style="text-anchor: end; visibility: inherit; font-family: Roboto, sans-serif; font-size: 12px; font-weight: 200;" x="0" y="159.20999965667724" dx="0em" dy="0.3em" fill="rgb(33, 33, 33)" stroke="none" stroke-width="1px">150</text><text style="text-anchor: end; visibility: hidden; font-family: Roboto, sans-serif; font-size: 12px; font-weight: 200;" x="0" y="141.51999969482424" dx="0em" dy="0.3em" fill="rgb(33, 33, 33)" stroke="none" stroke-width="1px">200</text><text style="text-anchor: end; visibility: inherit; font-family: Roboto, sans-serif; font-size: 12px; font-weight: 200;" x="0" y="123.82999973297119" dx="0em" dy="0.3em" fill="rgb(33, 33, 33)" stroke="none" stroke-width="1px">250</text><text style="text-anchor: end; visibility: hidden; font-family: Roboto, sans-serif; font-size: 12px; font-weight: 200;" x="0" y="106.13999977111816" dx="0em" dy="0.3em" fill="rgb(33, 33, 33)" stroke="none" stroke-width="1px">300</text><text style="text-anchor: end; visibility: inherit; font-family: Roboto, sans-serif; font-size: 12px; font-weight: 200;" x="0" y="88.44999980926514" dx="0em" dy="0.3em" fill="rgb(33, 33, 33)" stroke="none" stroke-width="1px">350</text><text style="text-anchor: end; visibility: hidden; font-family: Roboto, sans-serif; font-size: 12px; font-weight: 200;" x="0" y="70.75999984741212" dx="0em" dy="0.3em" fill="rgb(33, 33, 33)" stroke="none" stroke-width="1px">400</text><text style="text-anchor: end; visibility: inherit; font-family: Roboto, sans-serif; font-size: 12px; font-weight: 200;" x="0" y="53.06999988555909" dx="0em" dy="0.3em" fill="rgb(33, 33, 33)" stroke="none" stroke-width="1px">450</text><text style="text-anchor: end; visibility: hidden; font-family: Roboto, sans-serif; font-size: 12px; font-weight: 200;" x="0" y="35.379999923706045" dx="0em" dy="0.3em" fill="rgb(33, 33, 33)" stroke="none" stroke-width="1px">500</text><text style="text-anchor: end; visibility: inherit; font-family: Roboto, sans-serif; font-size: 12px; font-weight: 200;" x="0" y="17.689999961853022" dx="0em" dy="0.3em" fill="rgb(33, 33, 33)" stroke="none" stroke-width="1px">550</text><text style="text-anchor: end; visibility: hidden; font-family: Roboto, sans-serif; font-size: 12px; font-weight: 200;" x="0" y="0" dx="0em" dy="0.3em" fill="rgb(33, 33, 33)" stroke="none" stroke-width="1px">600</text></g><line x1="41.149001121520996" y1="0" x2="41.149001121520996" y2="176.89999961853027" fill="rgb(0, 0, 0)" stroke="rgb(204, 204, 204)" stroke-width="1px"></line></g></g><g transform="translate(41, 0)" clip-path="url(#clip_0)"><clipPath id="clip_0"><rect width="288" height="176"></rect></clipPath><g><g><g><line x1="0" y1="0" x2="0" y2="176.89999961853027" fill="rgb(0, 0, 0)" stroke="rgb(66, 66, 66)" stroke-width="1px" opacity="0.25"></line><line x1="28.8850998878479" y1="0" x2="28.8850998878479" y2="176.89999961853027" fill="rgb(0, 0, 0)" stroke="rgb(66, 66, 66)" stroke-width="1px" opacity="0.25"></line><line x1="57.7701997756958" y1="0" x2="57.7701997756958" y2="176.89999961853027" fill="rgb(0, 0, 0)" stroke="rgb(66, 66, 66)" stroke-width="1px" opacity="0.25"></line><line x1="86.6552996635437" y1="0" x2="86.6552996635437" y2="176.89999961853027" fill="rgb(0, 0, 0)" stroke="rgb(66, 66, 66)" stroke-width="1px" opacity="0.25"></line><line x1="115.5403995513916" y1="0" x2="115.5403995513916" y2="176.89999961853027" fill="rgb(0, 0, 0)" stroke="rgb(66, 66, 66)" stroke-width="1px" opacity="0.25"></line><line x1="144.4254994392395" y1="0" x2="144.4254994392395" y2="176.89999961853027" fill="rgb(0, 0, 0)" stroke="rgb(66, 66, 66)" stroke-width="1px" opacity="0.25"></line><line x1="173.3105993270874" y1="0" x2="173.3105993270874" y2="176.89999961853027" fill="rgb(0, 0, 0)" stroke="rgb(66, 66, 66)" stroke-width="1px" opacity="0.25"></line><line x1="202.1956992149353" y1="0" x2="202.1956992149353" y2="176.89999961853027" fill="rgb(0, 0, 0)" stroke="rgb(66, 66, 66)" stroke-width="1px" opacity="0.25"></line><line x1="231.0807991027832" y1="0" x2="231.0807991027832" y2="176.89999961853027" fill="rgb(0, 0, 0)" stroke="rgb(66, 66, 66)" stroke-width="1px" opacity="0.25"></line><line x1="259.9658989906311" y1="0" x2="259.9658989906311" y2="176.89999961853027" fill="rgb(0, 0, 0)" stroke="rgb(66, 66, 66)" stroke-width="1px" opacity="0.25"></line><line x1="288.850998878479" y1="0" x2="288.850998878479" y2="176.89999961853027" fill="rgb(0, 0, 0)" stroke="rgb(66, 66, 66)" stroke-width="1px" opacity="0.25"></line></g><g><line x1="0" y1="176.89999961853027" x2="288.850998878479" y2="176.89999961853027" fill="rgb(0, 0, 0)" stroke="rgb(66, 66, 66)" stroke-width="1px" opacity="0.25"></line><line x1="0" y1="159.20999965667724" x2="288.850998878479" y2="159.20999965667724" fill="rgb(0, 0, 0)" stroke="rgb(66, 66, 66)" stroke-width="1px" opacity="0.25"></line><line x1="0" y1="141.51999969482424" x2="288.850998878479" y2="141.51999969482424" fill="rgb(0, 0, 0)" stroke="rgb(66, 66, 66)" stroke-width="1px" opacity="0.25"></line><line x1="0" y1="123.82999973297119" x2="288.850998878479" y2="123.82999973297119" fill="rgb(0, 0, 0)" stroke="rgb(66, 66, 66)" stroke-width="1px" opacity="0.25"></line><line x1="0" y1="106.13999977111816" x2="288.850998878479" y2="106.13999977111816" fill="rgb(0, 0, 0)" stroke="rgb(66, 66, 66)" stroke-width="1px" opacity="0.25"></line><line x1="0" y1="88.44999980926514" x2="288.850998878479" y2="88.44999980926514" fill="rgb(0, 0, 0)" stroke="rgb(66, 66, 66)" stroke-width="1px" opacity="0.25"></line><line x1="0" y1="70.75999984741212" x2="288.850998878479" y2="70.75999984741212" fill="rgb(0, 0, 0)" stroke="rgb(66, 66, 66)" stroke-width="1px" opacity="0.25"></line><line x1="0" y1="53.06999988555909" x2="288.850998878479" y2="53.06999988555909" fill="rgb(0, 0, 0)" stroke="rgb(66, 66, 66)" stroke-width="1px" opacity="0.25"></line><line x1="0" y1="35.379999923706045" x2="288.850998878479" y2="35.379999923706045" fill="rgb(0, 0, 0)" stroke="rgb(66, 66, 66)" stroke-width="1px" opacity="0.25"></line><line x1="0" y1="17.689999961853022" x2="288.850998878479" y2="17.689999961853022" fill="rgb(0, 0, 0)" stroke="rgb(66, 66, 66)" stroke-width="1px" opacity="0.25"></line><line x1="0" y1="0" x2="288.850998878479" y2="0" fill="rgb(0, 0, 0)" stroke="rgb(66, 66, 66)" stroke-width="1px" opacity="0.25"></line></g></g></g><g><g><line x1="0" y1="212.2799995422363" x2="288.850998878479" y2="212.2799995422363" fill="rgb(0, 0, 0)" stroke="rgb(153, 153, 153)" stroke-width="1.5px"></line></g></g><g><g><line x1="28.8850998878479" y1="0" x2="28.8850998878479" y2="176.89999961853027" fill="rgb(0, 0, 0)" stroke="rgb(153, 153, 153)" stroke-width="1.5px"></line></g></g><g><g><g><g><g><path style="fill: none;" stroke="rgb(0, 153, 136)" stroke-width="2px" d="M34.9427443878479,179.11757806422267L35.3213471690979,175.17560874141185L35.6999499503479,171.3286425366446L36.0785527315979,167.32422228755976L36.457155512847905,163.38867369494656L36.8357582940979,160.3248569963572L37.2143610753479,157.6247920361524L37.5929638565979,154.81919957457237L37.9715666378479,150.99160288420998L38.3501694190979,150.2872927256512L38.728772200347905,146.46637149620403L39.1073749815979,144.66716324214266L39.485977762847895,142.9952119755931L39.864580544097905,143.39077245959248L40.2431833253479,143.55960308019363L40.6217861065979,146.01191612387368L41.0003888878479,146.9567519543018L41.3789916690979,149.027651140245L41.7575944503479,152.15563324956L42.136197231597905,153.2645680431716L42.5148000128479,155.8929229221756L42.8934027940979,158.47447388803593L43.2720055753479,157.58166835123114L43.6506083565979,158.618628622691L44.0292111378479,160.42384728678076L44.4078139190979,158.4955215968997L44.7864167003479,159.1586872502477L45.165019481597895,155.0087558509856L45.543622262847904,153.3840932543757L45.9222250440979,152.218346485556L46.3008278253479,153.2489445742834L46.6794306065979,150.0644716972556L47.05803338784791,150.5565572653042L47.4366361690979,148.5443994680045L47.8152389503479,149.940121773796L48.1938417315979,146.96553507879557L48.572444512847895,143.93392310843498L48.951047294097904,145.53142786466367L49.3296500753479,143.16687761398924L49.7082528565979,140.50014949386448L50.0868556378479,136.9689139833763L50.46545841909791,135.80696802536303L50.8440612003479,136.17776509668988L51.2226639815979,133.44189964347257L51.6012667628479,133.8530660348406L51.979869544097895,133.65758497217743L52.358472325347904,131.88317608668808L52.7370751065979,130.32582797813663L53.1156778878479,127.27744684217375L53.4942806690979,126.03775299453024L53.872883450347906,126.16083953929936L54.2514862315979,123.97681951058053L54.630089012847904,123.18970930618562L55.0086917940979,117.89996730038244L55.387294575347894,118.92682334760771L55.765897356597904,120.07224198700852L56.1445001378479,116.62079761560888L56.5231029190979,114.12502116702522L56.9017057003479,68.71232474071903L57.280308481597906,75.21864339417907L57.6589112628479,89.16818650306887L58.037514044097904,88.6581197508325L58.4161168253479,100.47171634327758L58.7947196065979,103.39684635606167L59.173322387847904,104.81685520673985L59.5519251690979,106.61239916257303L59.9305279503479,107.78026153929567L60.3091307315979,109.95260470678474L60.6877335128479,113.5826731681789L61.0663362940979,110.69906799128195L61.444939075347904,109.71485625072272L61.8235418565979,109.68620696640602L62.2021446378479,109.92222279566059L62.580747419097904,107.41684080233932L62.9593502003479,104.76752332512659L63.3379529815979,98.68792062191876L63.7165557628479,90.55982100184305L64.0951585440979,87.69300906970142L64.4737613253479,83.70139375857649L64.8523641065979,81.48530260374237L65.2309668878479,72.83706689146753L65.60956966909791,63.61313839760843L65.9881724503479,56.93881714603636L66.3667752315979,50.06036815617314L66.7453780128479,42.04795544787975L67.1239807940979,34.94407287668389L67.5025835753479,34.66376405291853L67.8811863565979,28.41550504130173L68.2597891378479,24.807611836175912L68.6383919190979,26.825204785917546L69.01699470034791,26.834749489016442L69.3955974815979,29.28953069524305L69.7742002628479,30.69645925310559L70.1528030440979,28.489575105339924L70.5314058253479,36.43649028028205L70.9100086065979,33.96711449851068L71.2886113878479,37.67704190155347L71.6672141690979,34.9580775849995L72.0458169503479,35.9913459351218L72.4244197315979,38.720519845920286L72.8030225128479,37.50637546807996L73.1816252940979,36.76993784285775L73.5602280753479,39.98790995221512L73.93883085659789,43.706177881943745L74.31743363784791,41.04928713420786L74.69603641909791,44.27411425232308L75.0746392003479,45.4235460204915L75.4532419815979,40.65172423135334L75.8318447628479,46.4976003944614L76.2104475440979,52.01190024571364L76.5890503253479,47.31393262001947L76.9676531065979,49.58268547113215L77.34625588784789,48.865768157960815L77.72485866909791,48.17079898889082L78.10346145034791,48.96443367136166L78.4820642315979,46.508419247909394L78.8606670128479,44.9658817853929L79.2392697940979,47.26321730630431L79.6178725753479,47.13339928128317L79.9964753565979,49.55056289692529L80.3750781378479,49.41742035927588L80.75368091909789,51.33832306723501L81.13228370034791,51.47699793150146L81.51088648159791,51.53975742530074L81.8894892628479,50.917363635698955L82.2680920440979,52.44914813175521L82.64669482534791,51.34822036450665L83.0252976065979,54.61382444764422L83.4039003878479,57.41854949824287L83.7825031690979,51.53902615379634L84.16110595034789,51.766351509148194L84.53970873159791,49.962543286601786L84.91831151284791,50.54802456041506L85.2969142940979,30.910762181283197L85.6755170753479,39.01439622215207L86.05411985659791,47.02371660814861L86.4327226378479,49.22406764907543L86.8113254190979,57.517843829882686L87.1899282003479,58.663516255611775L87.56853098159789,56.32824030106346L87.94713376284791,58.07689237535076L88.32573654409791,60.073228503134594L88.7043393253479,60.34582072379225L89.0829421065979,59.95835156030473L89.46154488784791,58.889754114308225L89.8401476690979,59.96894382415288L90.2187504503479,59.96696342782742L90.59735323159789,59.163134630239554L90.97595601284789,60.59898443251145L91.35455879409791,58.92695463183793L91.7331615753479,59.7597220746231L92.1117643565979,57.8280267935841L92.4903671378479,54.430473150295754L92.8689699190979,51.40053221157779L93.2475727003479,48.77687366326802L93.6261754815979,47.42697788682583L94.00477826284789,42.9010002531926L94.3833810440979,39.675185012003524L94.76198382534791,34.65175866935911L95.1405866065979,28.481031205540503L95.5191893878479,25.122435463812568L95.8977921690979,20.86421539177685L96.2763949503479,18.483522938023402L96.6549977315979,18.315459499186353L97.0336005128479,18.780243636812827L97.41220329409789,24.696255459771745L97.7908060753479,25.370814312676575L98.1694088565979,25.797117949568275L98.5480116378479,25.890001836156134L98.9266144190979,24.700876160051124L99.3052172003479,27.45897686994877L99.6838199815979,28.43107930907848L100.0624227628479,29.42565918475524L100.4410255440979,32.25914262535751L100.81962832534789,34.52443164357818L101.1982311065979,30.608646596647322L101.5768338878479,32.93433678399313L101.9554366690979,31.54748877837692L102.3340394503479,32.145065386963246L102.7126422315979,35.445562861884255L103.0912450128479,38.501720846469986L103.4698477940979,38.74564781838401L103.8484505753479,37.55485421925963L104.22705335659789,37.133753061593765L104.6056561378479,36.360770559034236L104.9842589190979,33.033148863967085L105.3628617003479,33.463953934954084L105.7414644815979,35.94901456307688L106.12006726284791,38.05906273549074L106.4986700440979,35.358752655792884L106.8772728253479,37.4699732356699L107.2558756065979,33.72530048453949L107.63447838784789,31.45197047161375L108.0130811690979,34.46108211263121L108.3916839503479,34.545678339233866L108.77028673159789,33.463407989259814L109.1488895128479,40.794377910503975L109.52749229409791,38.431911843162126L109.9060950753479,35.62241146112989L110.2846978565979,38.33434329762275L110.6633006378479,39.35796503509729L111.04190341909789,38.17001251994468L111.4205062003479,39.47465248599495L111.7991089815979,36.94661649717864L112.17771176284789,38.191538176742014L112.5563145440979,38.590681426929244L112.93491732534791,38.344197683265335L113.3135201065979,40.74357673577325L113.6921228878479,24.511136060855062L114.0707256690979,28.413723689474505L114.44932845034789,32.36863363133117L114.8279312315979,37.912175219490855L115.2065340128479,36.9833671517769L115.58513679409789,39.25084189001813L115.96373957534789,43.38834145109557L116.34234235659791,40.603760307986754L116.7209451378479,44.317660172521634L117.0995479190979,42.27140767614396L117.4781507003479,42.464988938924265L117.8567534815979,44.099406992634826L118.2353562628479,44.04614297357508L118.6139590440979,42.61293012424294L118.99256182534789,40.94595663025118L119.37116460659789,43.565657877612644L119.74976738784791,42.65112667338332L120.1283701690979,41.268330499031066L120.5069729503479,39.949495791080004L120.8855757315979,40.878607926466636L121.2641785128479,44.22712186183622L121.6427812940979,42.145370224555336L122.0213840753479,41.01356731810583L122.39998685659789,36.66521420763688L122.77858963784789,34.62299494999653L123.15719241909791,29.03299709378921L123.5357952003479,25.22650407439996L123.9143979815979,19.978099411737222L124.2930007628479,20.162541895037183L124.6716035440979,23.00458484006468L125.0502063253479,18.816630702797145L125.4288091065979,18.503568254755585L125.80741188784789,22.063462657731836L126.18601466909789,23.046949355713668L126.56461745034791,26.520943253049495L126.9432202315979,27.53596700098355L127.3218230128479,27.497991959146997L127.7004257940979,26.818923483311856L128.0790285753479,26.73116350063705L128.45763135659791,27.984311097083484L128.8362341378479,31.168047750293205L129.2148369190979,31.7496394521154L129.59343970034791,34.02334075323785L129.9720424815979,33.99960482791996L130.3506452628479,34.462086313693405L130.7292480440979,38.1964024560039L131.1078508253479,35.40284830947245L131.4864536065979,34.69114473304809L131.86505638784791,35.55844667619925L132.2436591690979,30.8797385808404L132.6222619503479,33.32682377088838L133.00086473159791,35.223858717000354L133.3794675128479,34.44900293098041L133.7580702940979,32.92004632689734L134.1366730753479,34.160878272879444L134.5152758565979,33.870352645337384L134.8938786378479,34.3130364813488L135.27248141909791,33.54953449025298L135.6510842003479,34.3883270989512L136.0296869815979,39.84207746062376L136.40828976284791,41.38658131416553L136.7868925440979,38.73949766231748L137.1654953253479,35.233312013918734L137.5440981065979,37.00619827276993L137.9227008878479,38.266048899728034L138.3013036690979,36.80447286466911L138.67990645034791,36.71034861157455L139.0585092315979,33.87055382402061L139.4371120128479,30.660677501610806L139.81571479409791,30.428862886152334L140.1943175753479,30.208588418810116L140.5729203565979,32.47344032747412L140.9515231378479,37.52446090562879L141.3301259190979,38.622263683935614L141.7087287003479,34.73347950379233L142.08733148159791,21.12221210596392L142.4659342628479,28.10646588020046L142.8445370440979,34.30347270340391L143.22313982534791,33.7861181272604L143.6017426065979,35.19893854924498L143.9803453878479,36.997783576263565L144.35894816909789,36.347919009289456L144.7375509503479,35.95689032525972L145.1161537315979,39.25094439629512L145.4947565128479,40.459222277584544L145.8733592940979,43.15763461245419L146.2519620753479,44.77264820967374L146.63056485659789,45.69263744721272L147.0091676378479,47.83540510007529L147.3877704190979,45.7353828182344L147.7663732003479,47.342095270584714L148.1449759815979,43.47049474216861L148.5235787628479,41.03896723297026L148.90218154409789,38.27995233914151L149.2807843253479,36.170347471206505L149.6593871065979,38.61516137594007L150.03798988784789,37.96429413740947L150.4165926690979,35.776830853830106L150.7951954503479,37.29800928870477L151.1737982315979,37.188846764430814L151.5524010128479,36.57096431697557L151.9310037940979,33.46946203212547L152.30960657534789,32.29823744195476L152.6882093565979,26.51796307477818L153.0668121378479,26.441069916885816L153.44541491909789,26.084668007194455L153.82401770034792,25.332784821524264L154.2026204815979,23.888820937653726L154.5812232628479,26.60885688182414L154.9598260440979,25.19743833770181L155.3384288253479,21.975937934122598L155.71703160659789,25.20018230487757L156.0956343878479,27.98039384738194L156.4742371690979,29.22577468981178L156.85283995034789,27.423034616784133L157.23144273159792,25.17818669852275L157.6100455128479,26.33540627712691L157.9886482940979,28.75600734185596L158.3672510753479,32.46684025609661L158.7458538565979,32.65439043628388L159.12445663784789,34.225360843985634L159.5030594190979,37.703568774056784L159.8816622003479,38.3376461402129L160.26026498159789,33.09542367798839L160.63886776284792,31.02375572568214L161.0174705440979,30.2474841818076L161.3960733253479,29.773100835579612L161.7746761065979,27.53230061233455L162.1532788878479,32.8100348220174L162.53188166909788,32.554619139386176L162.9104844503479,31.526695110111614L163.2890872315979,33.85342539323072L163.66769001284788,30.198476225361407L164.04629279409792,30.350140010599453L164.4248955753479,27.938754766630602L164.8034983565979,27.114545972422334L165.1821011378479,27.01450423996857L165.5607039190979,30.20682197180322L165.93930670034788,33.187188614466834L166.3179094815979,30.795075034860787L166.69651226284788,31.010811646720523L167.07511504409788,32.915092692040304L167.45371782534792,33.167697978866144L167.8323206065979,34.23312499420584L168.2109233878479,34.75390225591121L168.5895261690979,33.451845159384796L168.9681289503479,33.87299968061438L169.34673173159788,31.023010649554536L169.7253345128479,31.9128037170116L170.10393729409788,31.094754997412853L170.48254007534788,19.325367425717044L170.86114285659792,23.081213047849143L171.2397456378479,25.693262515081823L171.6183484190979,25.581419244940655L171.9969512003479,30.200483241012307L172.3755539815979,33.568376092935544L172.75415676284788,33.94070267190194L173.1327595440979,38.40433028250136L173.51136232534787,36.48764596765618L173.88996510659788,34.200111372412955L174.26856788784792,34.505156287919036L174.6471706690979,34.45108713910115L175.0257734503479,36.467532886603074L175.4043762315979,34.92389310471385L175.7829790128479,37.26916722657254L176.16158179409788,34.36878647704302L176.5401845753479,32.86701888130329L176.91878735659787,36.172818251311156L177.2973901378479,34.1367463683118L177.67599291909792,31.05809376497762L178.0545957003479,34.41080340758427L178.4331984815979,30.78754229123689L178.8118012628479,31.57507991680008L179.1904040440979,29.624677136034727L179.56900682534788,27.924521498991645L179.9476096065979,26.717033317365217L180.32621238784787,30.39278969577558L180.7048151690979,25.469562234483245L181.08341795034792,23.299807562657463L181.4620207315979,23.071266139083455L181.8406235128479,18.854341855260174L182.2192262940979,18.588161772271686L182.5978290753479,19.12100685575076L182.97643185659788,17.72285770348794L183.3550346378479,18.07214366366962L183.73363741909787,20.553282261247396L184.1122402003479,19.16321160764246L184.49084298159792,23.056666226769405L184.8694457628479,24.533702925879286L185.2480485440979,26.05287798108967L185.6266513253479,27.053981827499236L186.0052541065979,28.282008582234344L186.38385688784788,26.767556197547222L186.7624596690979,26.51048658661891L187.14106245034787,28.48414969340297L187.5196652315979,27.255778798027457L187.89826801284792,27.110576591557166L188.2768707940979,25.451843884345344L188.6554735753479,28.64276826954577L189.0340763565979,28.289927886024234L189.4126791378479,31.009442829277912L189.79128191909788,28.673409186598697L190.1698847003479,29.356842267979285L190.54848748159787,26.62230595659653L190.9270902628479,26.52208257464806L191.30569304409792,29.20233079787036L191.6842958253479,26.499082097057922L192.0628986065979,25.449328363617816L192.4415013878479,23.877837771092135L192.8201041690979,22.875973869805446L193.19870695034788,24.204818977020054L193.5773097315979,21.968014641641613L193.95591251284787,21.992709117545356L194.3345152940979,22.43009913225452L194.71311807534792,25.654986220629183L195.0917208565979,28.19914376042619L195.4703236378479,31.971590220379166L195.8489264190979,31.534581996217266L196.2275292003479,31.222114312805076L196.60613198159788,27.941112234819308L196.9847347628479,28.173240270391535L197.3633375440979,29.857295474634174L197.7419403253479,33.384787556595654L198.12054310659792,34.98879538744409L198.4991458878479,29.158862014662756L198.8777486690979,17.96696992262435L199.2563514503479,26.174550274870157L199.6349542315979,26.78894036074653L200.01355701284788,24.629726971434334L200.3921597940979,26.5535025246549L200.7707625753479,29.329849293519004L201.1493653565979,29.845306370989988L201.52796813784792,30.262646823294247L201.9065709190979,32.75018826270416L202.2851737003479,30.828301278244247L202.6637764815979,33.650664027725945L203.0423792628479,32.81429507398352L203.42098204409788,33.6511178052967L203.7995848253479,35.057448575923786L204.1781876065979,37.1333969965805L204.5567903878479,35.918116891683496L204.93539316909792,33.81999937124809L205.3139959503479,36.48278936322541L205.6925987315979,35.79047213288123L206.0712015128479,37.65341645040622L206.4498042940979,35.25126606364835L206.82840707534788,34.939773419489335L207.2070098565979,34.03393222175128L207.5856126378479,32.23753843842741L207.9642154190979,28.841621157806824L208.34281820034792,29.149213699416425L208.7214209815979,27.363770058708447L209.1000237628479,27.37068691395088L209.4786265440979,26.822352760709563L209.8572293253479,23.829616605563587L210.23583210659788,24.454576728545216L210.6144348878479,23.674537463028024L210.9930376690979,21.072078932734517L211.3716404503479,24.249986294572693L211.75024323159792,27.649428110800493L212.1288460128479,25.16601588607206L212.5074487940979,26.52121674334166L212.8860515753479,27.496596363798822L213.2646543565979,23.03747054831801L213.64325713784788,24.406984576674063L214.0218599190979,25.934686380837103L214.4004627003479,24.547219519084795L214.7790654815979,25.951410134514884L215.15766826284792,29.74221176304021L215.5362710440979,31.649858458719883L215.9148738253479,31.442534872597683L216.2934766065979,31.64575122803038L216.6720793878479,31.25728826407031L217.05068216909788,32.83271066245845L217.4292849503479,33.21332227897849L217.8078877315979,29.991392095686237L218.1864905128479,32.60282348030541L218.5650932940979,31.68837045363468L218.9436960753479,27.504878718712586L219.3222988565979,26.031704447007666L219.7009016378479,25.646721801854167L220.0795044190979,23.901431939707216L220.45810720034788,25.9523315557774L220.83670998159792,28.97793988600169L221.2153127628479,29.534956796029473L221.5939155440979,28.27520984099118L221.9725183253479,30.50242860733624L222.3511211065979,27.701074922452595L222.7297238878479,31.53586304142534L223.1083266690979,29.89352435881221L223.4869294503479,29.66949943861809L223.86553223159788,28.84397384834349L224.24413501284792,30.93379976790097L224.6227377940979,28.517054878332132L225.0013405753479,27.439050756288577L225.3799433565979,26.684881730559574L225.7585461378479,27.598682319011807L226.1371489190979,26.552521860091723L226.5157517003479,26.644000094907586L226.8943544815979,26.724489164648155L227.27295726284788,16.422983815334373L227.65156004409792,24.771651511914346L228.0301628253479,27.839154372818935L228.4087656065979,25.145751423845724L228.7873683878479,28.14902816989126L229.1659711690979,27.637275243015736L229.5445739503479,29.364534612874706L229.9231767315979,31.04078797755081L230.3017795128479,32.10927557727587L230.68038229409788,31.229896228768606L231.05898507534792,33.1261398034022L231.4375878565979,30.893357911017013L231.8161906378479,28.39153869996699L232.1947934190979,30.678495487922255L232.5733962003479,30.938207827254516L232.9519989815979,28.0685010625735L233.3306017628479,27.164865415086478L233.7092045440979,29.42608258500209L234.08780732534788,29.69816021350918L234.46641010659792,28.672039337123483L234.8450128878479,27.89119680188262L235.2236156690979,28.10840335933757L235.6022184503479,33.119750701253764L235.9808212315979,33.792390388292404L236.35942401284788,32.76954088083766L236.7380267940979,30.731466584709764L237.1166295753479,28.919427535647312L237.49523235659788,29.12193294131927L237.87383513784792,27.548245294823314L238.2524379190979,24.742583458010095L238.6310407003479,24.989547137892338L239.0096434815979,23.470347834768827L239.3882462628479,26.72706472583983L239.76684904409788,22.391872308126622L240.1454518253479,24.599310001426378L240.5240546065979,23.106856065863457L240.90265738784788,22.683373288468886L241.28126016909792,21.04592216993709L241.6598629503479,23.382943713339472L242.0384657315979,26.00546431741349L242.4170685128479,23.66673990118494L242.7956712940979,22.543807101429287L243.17427407534788,23.610957632665492L243.5528768565979,23.124020077861477L243.9314796378479,24.915243736775455L244.3100824190979,23.91526398640247L244.68868520034792,27.355964081566825L245.0672879815979,25.9650814410384L245.4458907628479,25.868357875638154L245.8244935440979,26.144127471029776L246.2030963253479,28.533877824542458L246.58169910659788,25.532025328930118L246.9603018878479,28.166003262916785L247.3389046690979,28.633280462720823L247.7175074503479,31.834366837340124L248.09611023159792,30.607688671340075L248.4747130128479,25.49259483782379L248.8533157940979,25.622543540581226L249.2319185753479,26.42352240911413L249.6105213565979,27.534324616570146L249.98912413784788,27.097979556703145L250.3677269190979,28.322797620116283L250.7463297003479,27.23348495135569L251.1249324815979,24.180198756641236L251.50353526284792,25.9192316659011L251.8821380440979,27.81374080415298L252.2607408253479,26.401756087522003L252.6393436065979,25.861091150437122L253.0179463878479,29.537137111200135L253.39654916909788,32.57790889484145L253.7751519503479,30.66694880901887L254.1537547315979,32.143100962318826L254.5323575128479,33.246323972579695L254.91096029409792,30.63776289076923L255.2895630753479,31.990586552773454L255.6681658565979,20.648309267395927L256.0467686378479,23.794440281936414L256.42537141909787,28.99705040206701L256.8039742003479,29.93921366146229L257.1825769815979,31.371166136714944L257.56117976284787,34.95796631715652L257.9397825440979,33.63801251201016L258.3183853253479,34.59205531793065L258.6969881065979,35.423370004830936L259.0755908878479,37.714696532832214L259.4541936690979,37.66019573396514L259.83279645034787,38.52848893190119L260.2113992315979,38.63713582811448L260.5900020128479,36.09592964284964L260.96860479409787,34.76337737658884L261.3472075753479,32.51500219671448L261.7258103565979,35.409318322315244L262.1044131378479,37.873223535658106L262.4830159190979,37.87765193295542L262.8616187003479,39.773829982875625" fill="none"></path></g></g></g></g><g opacity="0.2"><g><g><g><path style="fill: none;" stroke="rgb(0, 153, 136)" stroke-width="2px" d="M34.5641416065979,178.3086943512103L34.9427443878479,174.32043829596788L35.3213471690979,169.26432286650228L35.6999499503479,165.55916997379634L36.0785527315979,161.31820194705296L36.457155512847905,157.48571053075685L36.8357582940979,155.7292999754624L37.2143610753479,153.57478344263282L37.5929638565979,150.6108662737313L37.9715666378479,145.2502531901982L38.3501694190979,149.2308324937482L38.728772200347905,140.735005946517L39.1073749815979,141.96835546473142L39.485977762847895,140.4872876426078L39.864580544097905,143.98411282122444L40.2431833253479,143.81284891778515L40.6217861065979,149.69038487618008L41.0003888878479,148.37400551195333L41.3789916690979,152.13399967193604L41.7575944503479,156.8476061894815L42.136197231597905,154.9279701859306L42.5148000128479,159.83545517290662L42.8934027940979,162.34680029688565L43.2720055753479,156.24246005431183L43.6506083565979,160.17406902410514L44.0292111378479,163.1316752768826L44.4078139190979,155.6030330659446L44.7864167003479,160.1534357294719L45.165019481597895,148.78385875508806L45.543622262847904,150.94709936016443L45.9222250440979,150.4697263326294L46.3008278253479,154.79484170721378L46.6794306065979,145.28776238201186L47.05803338784791,151.29468561734947L47.4366361690979,145.52616277212277L47.8152389503479,152.03370523245505L48.1938417315979,142.50365503633097L48.572444512847895,139.38650515291613L48.951047294097904,147.92768499899975L49.3296500753479,139.6200522379838L49.7082528565979,136.5000573136815L50.0868556378479,131.67206071764735L50.46545841909791,134.06404908834375L50.8440612003479,136.73396070368005L51.2226639815979,129.33810146364715L51.6012667628479,134.46981562189256L51.979869544097895,133.36436337818265L52.358472325347904,129.22156275845413L52.7370751065979,127.98980581530951L53.1156778878479,122.70487513822947L53.4942806690979,124.17821222306505L53.872883450347906,126.34546935645305L54.2514862315979,120.70078946750226L54.630089012847904,122.00904399959325L55.0086917940979,109.9653542916777L55.387294575347894,120.46710741844564L55.765897356597904,121.79036994610972L56.1445001378479,111.44363105850947L56.5231029190979,110.38135649414977L56.9017057003479,0.5932801012597081L57.280308481597906,84.97812137436912L57.6589112628479,110.09250116640354L58.037514044097904,87.89301962247794L58.4161168253479,118.19211123194522L58.7947196065979,107.78454137523786L59.173322387847904,106.94686848275714L59.5519251690979,109.30571509632283L59.9305279503479,109.53205510437967L60.3091307315979,113.21111945801835L60.6877335128479,119.02777586027013L61.0663362940979,106.37366022593658L61.444939075347904,108.23853863988387L61.8235418565979,109.64323303993093L62.2021446378479,110.27624653954247L62.580747419097904,103.65876781235741L62.9593502003479,100.79354710930747L63.3379529815979,89.56851656710707L63.7165557628479,78.36767157172946L64.0951585440979,83.39279117148894L64.4737613253479,77.71397079188911L64.8523641065979,78.16116587149118L65.2309668878479,59.8647133230553L65.60956966909791,49.77724565681979L65.9881724503479,46.927335268678256L66.3667752315979,39.742694671378366L66.7453780128479,30.029336385439624L67.1239807940979,24.2882490198901L67.5025835753479,34.24330081727054L67.8811863565979,19.043116523876552L68.2597891378479,19.395772028487176L68.6383919190979,29.851594210529928L69.01699470034791,26.849066543664783L69.3955974815979,32.971702504582936L69.7742002628479,32.80685208989936L70.1528030440979,25.17924888369138L70.5314058253479,48.356863042695224L70.9100086065979,30.263050825853593L71.2886113878479,43.24193300611769L71.6672141690979,30.87963111016852L72.0458169503479,37.54124846030526L72.4244197315979,42.814280712118034L72.8030225128479,35.68515890131949L73.1816252940979,35.66528140502446L73.5602280753479,44.81486811625119L73.93883085659789,49.28357977653668L74.31743363784791,37.063951012604065L74.69603641909791,49.111354929495945L75.0746392003479,47.14769367274408L75.4532419815979,33.49399154764611L75.8318447628479,55.26641463912348L76.2104475440979,60.28335002259201L76.5890503253479,40.26698118147824L76.9676531065979,52.98581474780117L77.34625588784789,47.790392188203874L77.72485866909791,47.12834523528581L78.10346145034791,50.154885695067925L78.4820642315979,42.82439761273098L78.8606670128479,42.65207559161819L79.2392697940979,50.70922058767138L79.6178725753479,46.938672243751476L79.9964753565979,53.176308320388436L80.3750781378479,49.21770655280177L80.75368091909789,54.219677129173654L81.13228370034791,51.68501022790116L81.51088648159791,51.63389666599966L81.8894892628479,49.98377295129629L82.2680920440979,54.74682487583964L82.64669482534791,49.69682871363382L83.0252976065979,59.512230572350546L83.4039003878479,61.62563707414083L83.7825031690979,42.71974113712657L84.16110595034789,52.107339542175986L84.53970873159791,47.256830952782174L84.91831151284791,51.42624647113494L85.2969142940979,1.4548686125853476L85.6755170753479,51.169847283455425L86.05411985659791,59.03769718714338L86.4327226378479,52.524594210465665L86.8113254190979,69.95850810109359L87.1899282003479,60.38202489420539L87.56853098159789,52.825326369241004L87.94713376284791,60.6998704867817L88.32573654409791,63.06773269481038L88.7043393253479,60.75470905477868L89.0829421065979,59.3771478150735L89.46154488784791,57.28685794531345L89.8401476690979,61.58772838891984L90.2187504503479,59.963992833339255L90.59735323159789,57.95739143385773L90.97595601284789,62.75275913591928L91.35455879409791,56.41890993082768L91.7331615753479,61.008873238800916L92.1117643565979,54.93048387202563L92.4903671378479,49.33414268536318L92.8689699190979,46.85562080350087L93.2475727003479,44.84138584080338L93.6261754815979,45.40213422216253L94.00477826284789,36.11203380274272L94.3833810440979,34.83646215021995L94.76198382534791,27.116619155392524L95.1405866065979,19.22494000981259L95.5191893878479,20.084541851220646L95.8977921690979,14.476885283723234L96.2763949503479,14.912484257393288L96.6549977315979,18.063364340930708L97.0336005128479,19.477419843252516L97.41220329409789,33.57027319421014L97.7908060753479,26.382652592033843L98.1694088565979,26.436573404905857L98.5480116378479,26.029327666037943L98.9266144190979,22.917187645893545L99.3052172003479,31.596127934795337L99.6838199815979,29.88923296777299L100.0624227628479,30.917528998270395L100.4410255440979,36.509367786260896L100.81962832534789,37.92236517090921L101.1982311065979,24.734969026251L101.5768338878479,36.42287206501189L101.9554366690979,29.467216769952568L102.3340394503479,33.04143029984274L102.7126422315979,40.39630907426577L103.0912450128479,43.08595782334857L103.4698477940979,39.11153827625502L103.8484505753479,35.76866382057302L104.22705335659789,36.50210132509494L104.6056561378479,35.20129680519493L104.9842589190979,28.041716321366366L105.3628617003479,34.11016154143459L105.7414644815979,39.6766055052611L106.12006726284791,41.22413499411148L106.4986700440979,31.308287536246123L106.8772728253479,40.636804105485446L107.2558756065979,28.108291357843907L107.63447838784789,28.041975452225195L108.0130811690979,38.97474957415742L108.3916839503479,34.672572679137815L108.77028673159789,31.840002464298735L109.1488895128479,51.79083279237024L109.52749229409791,34.88821274214937L109.9060950753479,31.408160888081536L110.2846978565979,42.40224105236202L110.6633006378479,40.893397641309065L111.04190341909789,36.388083747215795L111.4205062003479,41.43161243507033L111.7991089815979,33.15456251395423L112.17771176284789,40.05892069608706L112.5563145440979,39.18939630221017L112.93491732534791,37.97447206776951L113.3135201065979,44.34264531453513L113.6921228878479,0.16247504847776884L114.0707256690979,34.26760513240366L114.44932845034789,38.30099854411615L114.8279312315979,46.227487601730395L115.2065340128479,35.590155050205986L115.58513679409789,42.65205399737995L115.96373957534789,49.5945907927117L116.34234235659791,36.42688859332353L116.7209451378479,49.888509969324L117.0995479190979,39.20202893157746L117.4781507003479,42.75536083309469L117.8567534815979,46.55103407320066L118.2353562628479,43.966246944985464L118.6139590440979,40.46311085024477L118.99256182534789,38.44549638926355L119.37116460659789,47.495209748654865L119.74976738784791,41.279329867039344L120.1283701690979,39.19413623750268L120.5069729503479,37.971243729153414L120.8855757315979,42.272276129546576L121.2641785128479,49.24989276489057L121.6427812940979,39.022742768634L122.0213840753479,39.31586295843159L122.39998685659789,30.142684541933477L122.77858963784789,31.55966606353607L123.15719241909791,20.64800030947825L123.5357952003479,19.51676454531611L123.9143979815979,12.105492417743195L124.2930007628479,20.439205619987096L124.6716035440979,27.267649257605896L125.0502063253479,12.534699496895776L125.4288091065979,18.033974582693304L125.80741188784789,27.403304262196183L126.18601466909789,24.522179402686422L126.56461745034791,31.73193409905326L126.9432202315979,29.058502622884696L127.3218230128479,27.441029396392164L127.7004257940979,25.800320769559132L128.0790285753479,26.59952352662477L128.45763135659791,29.864032491753104L128.8362341378479,35.94365273010778L129.2148369190979,32.6220270048487L129.59343970034791,37.43389270492154L129.9720424815979,33.96400093994313L130.3506452628479,35.15580854235357L130.7292480440979,43.797876669469645L131.1078508253479,31.21251708967529L131.4864536065979,33.62358936841157L131.86505638784791,36.859399590926L132.2436591690979,23.861676437802156L132.6222619503479,36.99745155596034L133.00086473159791,38.06941113616829L133.3794675128479,33.2867192519505L133.7580702940979,30.626611420772736L134.1366730753479,36.02212619185262L134.5152758565979,33.43456420402428L134.8938786378479,34.97706223536597L135.27248141909791,32.40428150360927L135.6510842003479,35.64651601199853L136.0296869815979,48.0227030031326L136.40828976284791,43.70333709447819L136.7868925440979,34.76887218454539L137.1654953253479,29.974033541320587L137.5440981065979,39.66552766104671L137.9227008878479,40.15582484016521L138.3013036690979,34.6121088120807L138.67990645034791,36.569162231932744L139.0585092315979,29.610861642689667L139.4371120128479,25.84586301799607L139.81571479409791,30.081140962964618L140.1943175753479,29.878176717796837L140.5729203565979,35.87071819047013L140.9515231378479,45.10099177286075L141.3301259190979,40.26896785139583L141.7087287003479,28.9003032335774L142.08733148159791,0.7053110092212502L142.4659342628479,38.582846541555256L142.8445370440979,43.59898293820909L143.22313982534791,33.01008626304509L143.6017426065979,37.31816918222188L143.9803453878479,39.69605111679143L144.35894816909789,35.373122158828316L144.7375509503479,35.37034729921516L145.1161537315979,44.1920255028482L145.4947565128479,42.271639099518644L145.8733592940979,47.205253114758634L146.2519620753479,47.19516860550304L146.63056485659789,47.07262130352121L147.0091676378479,51.049556579369124L147.3877704190979,42.58534939547302L147.7663732003479,49.7521639491102L148.1449759815979,37.66309394954448L148.5235787628479,37.39167596917274L148.90218154409789,34.1414299983984L149.2807843253479,33.00594016930403L149.6593871065979,42.28238223304041L150.03798988784789,36.98799327961355L150.4165926690979,32.49563592846109L150.7951954503479,39.57977694101679L151.1737982315979,37.025102978019866L151.5524010128479,35.644140645792696L151.9310037940979,28.81720860485034L152.30960657534789,30.541400556698676L152.6882093565979,17.847551524013284L153.0668121378479,26.325730180047227L153.44541491909789,25.55006514265738L153.82401770034792,24.204960043018925L154.2026204815979,21.72287511184789L154.5812232628479,30.688910798079807L154.9598260440979,23.08031052151835L155.3384288253479,17.143687328753757L155.71703160659789,30.036548861010004L156.0956343878479,32.15071116113848L156.4742371690979,31.093845953456587L156.85283995034789,24.718924507242622L157.23144273159792,21.81091482113068L157.6100455128479,28.07123564503318L157.9886482940979,32.38690893894946L158.3672510753479,38.03308962745756L158.7458538565979,32.93571570656483L159.12445663784789,36.581816455538274L159.5030594190979,42.920880669163544L159.8816622003479,39.28876218944706L160.26026498159789,25.232089984651655L160.63886776284792,27.91625379722286L161.0174705440979,29.083076865995764L161.3960733253479,29.06152581623756L161.7746761065979,24.171100277466934L162.1532788878479,40.72663613654173L162.53188166909788,32.17149561543938L162.9104844503479,29.984809066199688L163.2890872315979,37.3435208179094L163.66769001284788,24.716052473557415L164.04629279409792,30.577635688456475L164.4248955753479,24.321676900677385L164.8034983565979,25.878232781109876L165.1821011378479,26.86444164128787L165.5607039190979,34.99529856955516L165.93930670034788,37.65773857846227L166.3179094815979,27.206904665451727L166.69651226284788,31.334416564510093L167.07511504409788,35.771514260019984L167.45371782534792,33.54660590910492L167.8323206065979,35.83126551721536L168.2109233878479,35.53506814846932L168.5895261690979,31.498759514595147L168.9681289503479,34.504731462458736L169.34673173159788,26.748027102964695L169.7253345128479,33.2474933181972L170.10393729409788,29.867681918014764L170.48254007534788,1.6712860681733677L170.86114285659792,28.714981481047356L171.2397456378479,29.61133671593085L171.6183484190979,25.413654339728883L171.9969512003479,37.12907923511986L172.3755539815979,38.62021537082037L172.75415676284788,34.49919254035153L173.1327595440979,45.099771698400495L173.51136232534787,33.61261949538836L173.88996510659788,30.768809479548132L174.26856788784792,34.962723661178146L174.6471706690979,34.369983415874295L175.0257734503479,39.492201507856024L175.4043762315979,32.60843343187996L175.7829790128479,40.7870784093606L176.16158179409788,30.018215352748754L176.5401845753479,30.614367487693674L176.91878735659787,41.13151730632293L177.2973901378479,31.0826385438128L177.67599291909792,26.44011485997634L178.0545957003479,39.43986787149427L178.4331984815979,25.352650616715884L178.8118012628479,32.75638635514491L179.1904040440979,26.69907296488667L179.56900682534788,25.374288043427047L179.9476096065979,24.90580104492559L180.32621238784787,35.90642426339118L180.7048151690979,18.08472104254482L181.08341795034792,20.04517555491883L181.4620207315979,22.728454003722415L181.8406235128479,12.52895542952534L182.2192262940979,18.188891647788925L182.5978290753479,19.920274480969407L182.97643185659788,15.625633975093715L183.3550346378479,18.59607260394212L183.73363741909787,24.274990157613992L184.1122402003479,17.078105627235015L184.49084298159792,28.896848155459853L184.8694457628479,26.74925797454407L185.2480485440979,28.33164056390524L185.6266513253479,28.555637597113606L186.0052541065979,30.124048714336936L186.38385688784788,24.49587762051658L186.7624596690979,26.124882170226424L187.14106245034787,31.444644353579022L187.5196652315979,25.41322245496418L187.89826801284792,26.89277328185179L188.2768707940979,22.963744823527524L188.6554735753479,33.42915484734648L189.0340763565979,27.76066731074197L189.4126791378479,35.08871524415841L189.79128191909788,25.169358722579904L190.1698847003479,30.38199189005023L190.54848748159787,22.520501489522406L190.9270902628479,26.371747501725327L191.30569304409792,33.22270313270378L191.6842958253479,22.444209045839262L192.0628986065979,23.874697763457654L192.4415013878479,21.520601882303602L192.8201041690979,21.37317801787541L193.19870695034788,26.19808663784201L193.5773097315979,18.612808138574014L193.95591251284787,22.029750831400968L194.3345152940979,23.086184154318182L194.71311807534792,30.492316853191237L195.0917208565979,32.01538007012172L195.4703236378479,37.63025991030864L195.8489264190979,30.879069659974423L196.2275292003479,30.75341278768681L196.60613198159788,23.01960911784064L196.9847347628479,28.52143232374987L197.3633375440979,32.383378280998095L197.7419403253479,38.67602567953791L198.12054310659792,37.394807133716775L198.4991458878479,20.413961955490752L198.8777486690979,1.179131784566684L199.2563514503479,38.48592080323886L199.6349542315979,27.71052548956103L200.01355701284788,21.390906887466084L200.3921597940979,29.439165854485697L200.7707625753479,33.49436944681522L201.1493653565979,30.618491987196492L201.52796813784792,30.888657501750632L201.9065709190979,36.481500421819035L202.2851737003479,27.945470801554393L202.6637764815979,37.88420815194852L203.0423792628479,31.559741643369886L203.42098204409788,34.90635190226651L203.7995848253479,37.166944731864376L204.1781876065979,40.24731962756557L204.5567903878479,34.095196734337954L204.93539316909792,30.672823090594967L205.3139959503479,40.47697435119143L205.6925987315979,34.75199628736498L206.0712015128479,40.44783292669372L206.4498042940979,31.64804048351153L206.82840707534788,34.47253445325082L207.2070098565979,32.67517042514426L207.5856126378479,29.542947763441596L207.9642154190979,23.747745236875947L208.34281820034792,29.61060251183086L208.7214209815979,24.685604597646513L209.1000237628479,27.381062196814447L209.4786265440979,25.999851530847607L209.8572293253479,19.340512372844614L210.23583210659788,25.39201691301772L210.6144348878479,22.504478564752265L210.9930376690979,17.16839113729424L211.3716404503479,29.016847337329988L211.75024323159792,32.748590835142174L212.1288460128479,21.44089754897939L212.5074487940979,28.55401802924601L212.8860515753479,28.959665794484543L213.2646543565979,16.348781825096815L213.64325713784788,26.4612556192081L214.0218599190979,28.22623908708174L214.4004627003479,22.466019226456297L214.7790654815979,28.057696057660046L215.15766826284792,35.42841420582821L215.5362710440979,34.51132850223942L215.9148738253479,31.131549493414347L216.2934766065979,31.950575761179433L216.6720793878479,30.6745938181302L217.05068216909788,35.19584426004068L217.4292849503479,33.784239703758494L217.8078877315979,25.158496820747843L218.1864905128479,36.519970557234124L218.5650932940979,30.31669091362856L218.9436960753479,21.229641116329468L219.3222988565979,23.821943039450336L219.7009016378479,25.0692478341239L220.0795044190979,21.283497146486763L220.45810720034788,29.02868097988261L220.83670998159792,33.51635238133813L221.2153127628479,30.370482161071156L221.5939155440979,26.38558940843377L221.9725183253479,33.84325675685389L222.3511211065979,23.499044395127097L222.7297238878479,37.28804521988449L223.1083266690979,27.43001633489249L223.4869294503479,29.33346205832693L223.86553223159788,27.60568546293163L224.24413501284792,34.068538647237226L224.6227377940979,24.891937543978923L225.0013405753479,25.82204457322321L225.3799433565979,25.553628191966105L225.7585461378479,28.969383201690167L226.1371489190979,24.983281171711628L226.5157517003479,26.78121744713141L226.8943544815979,26.845222769259014L227.27295726284788,0.9707257913637534L227.65156004409792,37.29465305678429L228.0301628253479,32.44040866417589L228.4087656065979,21.10564700038591L228.7873683878479,32.65394328895956L229.1659711690979,26.869645852702426L229.5445739503479,31.955423667663126L229.9231767315979,33.555168024564985L230.3017795128479,33.71200697686349L230.68038229409788,29.910827206007674L231.05898507534792,35.970505165352606L231.4375878565979,27.544185072439248L231.8161906378479,24.638809883391946L232.1947934190979,34.108930669855205L232.5733962003479,31.327776336252928L232.9519989815979,23.76394091555196L233.3306017628479,25.80941194385592L233.7092045440979,32.81790833987551L234.08780732534788,30.106276656269785L234.46641010659792,27.132858022544998L234.8450128878479,26.719932999021363L235.2236156690979,28.434213195519987L235.6022184503479,40.63677171412809L235.9808212315979,34.80134991885035L236.35942401284788,31.23526661965553L236.7380267940979,27.674355140517928L237.1166295753479,26.20136896205368L237.49523235659788,29.425691049827257L237.87383513784792,25.18771382507937L238.2524379190979,20.5340907027903L238.6310407003479,25.359992657715683L239.0096434815979,21.191548880083484L239.3882462628479,31.612140062446358L239.76684904409788,15.889083681556855L240.1454518253479,27.910466541375968L240.5240546065979,20.868175162519105L240.90265738784788,22.048149122376934L241.28126016909792,18.589745492139365L241.6598629503479,26.88847602844308L242.0384657315979,29.939245223524512L242.4170685128479,20.158653276842095L242.7956712940979,20.859407901795805L243.17427407534788,25.211683429519884L243.5528768565979,22.3936137456554L243.9314796378479,27.602079225146447L244.3100824190979,22.41529436084302L244.68868520034792,32.51701422431344L245.0672879815979,23.878757480245774L245.4458907628479,25.723272527537777L245.8244935440979,26.557781864117125L246.2030963253479,32.11850335481145L246.58169910659788,21.029246585511608L246.9603018878479,32.11697016389679L247.3389046690979,29.3341962624269L247.7175074503479,36.6359963992691L248.09611023159792,28.767671422339976L248.4747130128479,17.819954087549352L248.8533157940979,25.81746659471747L249.2319185753479,27.62499071191344L249.6105213565979,29.200527927754216L249.98912413784788,26.44346196690271L250.3677269190979,30.160024715235924L250.7463297003479,25.59951594821481L251.1249324815979,19.60026946456964L251.50353526284792,28.527781029790866L251.8821380440979,30.65550451153074L252.2607408253479,24.28377901257551L252.6393436065979,25.05009374480974L253.0179463878479,35.05120605234476L253.39654916909788,37.1390665703034L253.7751519503479,27.800508680284963L254.1537547315979,34.357329192268786L254.5323575128479,34.901158487971045L254.91096029409792,26.724921268053592L255.2895630753479,34.01982204577979L255.6681658565979,3.6348933393296368L256.0467686378479,28.51363680374715L256.42537141909787,36.80096558226297L256.8039742003479,31.352458550555173L257.1825769815979,33.51909484959394L257.56117976284787,40.33816658781889L257.9397825440979,31.65808180429064L258.3183853253479,36.023119526811406L258.6969881065979,36.67034203518136L259.0755908878479,41.151686324834124L259.4541936690979,37.578444535664524L259.83279645034787,39.83092872880527L260.2113992315979,38.8001061724344L260.5900020128479,32.28412036495236L260.96860479409787,32.76454897719762L261.3472075753479,29.142439426902904L261.7258103565979,39.75079251071637L262.1044131378479,41.569081355672324L262.4830159190979,37.884294528901464L262.8616187003479,42.618097057755925" fill="none"></path></g></g></g></g></g></g><g transform="translate(41, 176)" clip-path="url(#clip_1)"><clipPath id="clip_1"><rect width="288" height="23"></rect></clipPath><g><g><line x1="0" y1="0" x2="0" y2="5" style="visibility: inherit;" fill="rgb(0, 0, 0)" stroke="rgb(204, 204, 204)" stroke-width="1px"></line><line x1="28.8850998878479" y1="0" x2="28.8850998878479" y2="5" style="visibility: inherit;" fill="rgb(0, 0, 0)" stroke="rgb(204, 204, 204)" stroke-width="1px"></line><line x1="57.7701997756958" y1="0" x2="57.7701997756958" y2="5" style="visibility: inherit;" fill="rgb(0, 0, 0)" stroke="rgb(204, 204, 204)" stroke-width="1px"></line><line x1="86.6552996635437" y1="0" x2="86.6552996635437" y2="5" style="visibility: inherit;" fill="rgb(0, 0, 0)" stroke="rgb(204, 204, 204)" stroke-width="1px"></line><line x1="115.5403995513916" y1="0" x2="115.5403995513916" y2="5" style="visibility: inherit;" fill="rgb(0, 0, 0)" stroke="rgb(204, 204, 204)" stroke-width="1px"></line><line x1="144.4254994392395" y1="0" x2="144.4254994392395" y2="5" style="visibility: inherit;" fill="rgb(0, 0, 0)" stroke="rgb(204, 204, 204)" stroke-width="1px"></line><line x1="173.3105993270874" y1="0" x2="173.3105993270874" y2="5" style="visibility: inherit;" fill="rgb(0, 0, 0)" stroke="rgb(204, 204, 204)" stroke-width="1px"></line><line x1="202.1956992149353" y1="0" x2="202.1956992149353" y2="5" style="visibility: inherit;" fill="rgb(0, 0, 0)" stroke="rgb(204, 204, 204)" stroke-width="1px"></line><line x1="231.0807991027832" y1="0" x2="231.0807991027832" y2="5" style="visibility: inherit;" fill="rgb(0, 0, 0)" stroke="rgb(204, 204, 204)" stroke-width="1px"></line><line x1="259.9658989906311" y1="0" x2="259.9658989906311" y2="5" style="visibility: inherit;" fill="rgb(0, 0, 0)" stroke="rgb(204, 204, 204)" stroke-width="1px"></line><line x1="288.850998878479" y1="0" x2="288.850998878479" y2="5" style="visibility: inherit;" fill="rgb(0, 0, 0)" stroke="rgb(204, 204, 204)" stroke-width="1px"></line></g><g transform="translate(0, 8)"><text style="text-anchor: middle; visibility: hidden; font-family: Roboto, sans-serif; font-size: 12px; font-weight: 200;" x="0" y="0" dx="0em" dy="0.95em" fill="rgb(33, 33, 33)" stroke="none" stroke-width="1px">-10M</text><text style="text-anchor: middle; visibility: inherit; font-family: Roboto, sans-serif; font-size: 12px; font-weight: 200;" x="28.8850998878479" y="0" dx="0em" dy="0.95em" fill="rgb(33, 33, 33)" stroke="none" stroke-width="1px">0</text><text style="text-anchor: middle; visibility: hidden; font-family: Roboto, sans-serif; font-size: 12px; font-weight: 200;" x="57.7701997756958" y="0" dx="0em" dy="0.95em" fill="rgb(33, 33, 33)" stroke="none" stroke-width="1px">10M</text><text style="text-anchor: middle; visibility: inherit; font-family: Roboto, sans-serif; font-size: 12px; font-weight: 200;" x="86.6552996635437" y="0" dx="0em" dy="0.95em" fill="rgb(33, 33, 33)" stroke="none" stroke-width="1px">20M</text><text style="text-anchor: middle; visibility: hidden; font-family: Roboto, sans-serif; font-size: 12px; font-weight: 200;" x="115.5403995513916" y="0" dx="0em" dy="0.95em" fill="rgb(33, 33, 33)" stroke="none" stroke-width="1px">30M</text><text style="text-anchor: middle; visibility: inherit; font-family: Roboto, sans-serif; font-size: 12px; font-weight: 200;" x="144.4254994392395" y="0" dx="0em" dy="0.95em" fill="rgb(33, 33, 33)" stroke="none" stroke-width="1px">40M</text><text style="text-anchor: middle; visibility: hidden; font-family: Roboto, sans-serif; font-size: 12px; font-weight: 200;" x="173.3105993270874" y="0" dx="0em" dy="0.95em" fill="rgb(33, 33, 33)" stroke="none" stroke-width="1px">50M</text><text style="text-anchor: middle; visibility: inherit; font-family: Roboto, sans-serif; font-size: 12px; font-weight: 200;" x="202.1956992149353" y="0" dx="0em" dy="0.95em" fill="rgb(33, 33, 33)" stroke="none" stroke-width="1px">60M</text><text style="text-anchor: middle; visibility: hidden; font-family: Roboto, sans-serif; font-size: 12px; font-weight: 200;" x="231.0807991027832" y="0" dx="0em" dy="0.95em" fill="rgb(33, 33, 33)" stroke="none" stroke-width="1px">70M</text><text style="text-anchor: middle; visibility: inherit; font-family: Roboto, sans-serif; font-size: 12px; font-weight: 200;" x="259.9658989906311" y="0" dx="0em" dy="0.95em" fill="rgb(33, 33, 33)" stroke="none" stroke-width="1px">80M</text><text style="text-anchor: middle; visibility: hidden; font-family: Roboto, sans-serif; font-size: 12px; font-weight: 200;" x="288.850998878479" y="0" dx="0em" dy="0.95em" fill="rgb(33, 33, 33)" stroke="none" stroke-width="1px">90M</text></g><line x1="0" y1="0" x2="288.850998878479" y2="0" fill="rgb(0, 0, 0)" stroke="rgb(204, 204, 204)" stroke-width="1px"></line></g></g></g></g></svg>