<svg viewBox="0 0 330 200" xmlns="http://www.w3.org/2000/svg"><g><g><g><g><g><line x1="72.29800224304199" y1="176.89999961853027" x2="67.29800224304199" y2="176.89999961853027" style="visibility: inherit;" fill="rgb(0, 0, 0)" stroke="rgb(204, 204, 204)" stroke-width="1px"></line><line x1="72.29800224304199" y1="157.24444410536023" x2="67.29800224304199" y2="157.24444410536023" style="visibility: inherit;" fill="rgb(0, 0, 0)" stroke="rgb(204, 204, 204)" stroke-width="1px"></line><line x1="72.29800224304199" y1="137.58888859219022" x2="67.29800224304199" y2="137.58888859219022" style="visibility: inherit;" fill="rgb(0, 0, 0)" stroke="rgb(204, 204, 204)" stroke-width="1px"></line><line x1="72.29800224304199" y1="117.9333330790202" x2="67.29800224304199" y2="117.9333330790202" style="visibility: inherit;" fill="rgb(0, 0, 0)" stroke="rgb(204, 204, 204)" stroke-width="1px"></line><line x1="72.29800224304199" y1="98.27777756585016" x2="67.29800224304199" y2="98.27777756585016" style="visibility: inherit;" fill="rgb(0, 0, 0)" stroke="rgb(204, 204, 204)" stroke-width="1px"></line><line x1="72.29800224304199" y1="78.62222205268012" x2="67.29800224304199" y2="78.62222205268012" style="visibility: inherit;" fill="rgb(0, 0, 0)" stroke="rgb(204, 204, 204)" stroke-width="1px"></line><line x1="72.29800224304199" y1="58.9666665395101" x2="67.29800224304199" y2="58.9666665395101" style="visibility: inherit;" fill="rgb(0, 0, 0)" stroke="rgb(204, 204, 204)" stroke-width="1px"></line><line x1="72.29800224304199" y1="39.31111102634006" x2="67.29800224304199" y2="39.31111102634006" style="visibility: inherit;" fill="rgb(0, 0, 0)" stroke="rgb(204, 204, 204)" stroke-width="1px"></line><line x1="72.29800224304199" y1="19.655555513170018" x2="67.29800224304199" y2="19.655555513170018" style="visibility: inherit;" fill="rgb(0, 0, 0)" stroke="rgb(204, 204, 204)" stroke-width="1px"></line><line x1="72.29800224304199" y1="0" x2="67.29800224304199" y2="0" style="visibility: inherit;" fill="rgb(0, 0, 0)" stroke="rgb(204, 204, 204)" stroke-width="1px"></line></g><g transform="translate(62.29800224304199, 0)"><text style="text-anchor: end; visibility: hidden; font-family: Roboto, sans-serif; font-size: 12px; font-weight: 200;" x="0" y="176.89999961853027" dx="0em" dy="0.3em" fill="rgb(33, 33, 33)" stroke="none" stroke-width="1px">0</text><text style="text-anchor: end; visibility: inherit; font-family: Roboto, sans-serif; font-size: 12px; font-weight: 200;" x="0" y="157.24444410536023" dx="0em" dy="0.3em" fill="rgb(33, 33, 33)" stroke="none" stroke-width="1px">2e-4</text><text style="text-anchor: end; visibility: hidden; font-family: Roboto, sans-serif; font-size: 12px; font-weight: 200;" x="0" y="137.58888859219022" dx="0em" dy="0.3em" fill="rgb(33, 33, 33)" stroke="none" stroke-width="1px">4e-4</text><text style="text-anchor: end; visibility: inherit; font-family: Roboto, sans-serif; font-size: 12px; font-weight: 200;" x="0" y="117.9333330790202" dx="0em" dy="0.3em" fill="rgb(33, 33, 33)" stroke="none" stroke-width="1px">6e-4</text><text style="text-anchor: end; visibility: hidden; font-family: Roboto, sans-serif; font-size: 12px; font-weight: 200;" x="0" y="98.27777756585016" dx="0em" dy="0.3em" fill="rgb(33, 33, 33)" stroke="none" stroke-width="1px">8e-4</text><text style="text-anchor: end; visibility: inherit; font-family: Roboto, sans-serif; font-size: 12px; font-weight: 200;" x="0" y="78.62222205268012" dx="0em" dy="0.3em" fill="rgb(33, 33, 33)" stroke="none" stroke-width="1px">1e-3</text><text style="text-anchor: end; visibility: hidden; font-family: Roboto, sans-serif; font-size: 12px; font-weight: 200;" x="0" y="58.9666665395101" dx="0em" dy="0.3em" fill="rgb(33, 33, 33)" stroke="none" stroke-width="1px">1.2e-3</text><text style="text-anchor: end; visibility: inherit; font-family: Roboto, sans-serif; font-size: 12px; font-weight: 200;" x="0" y="39.31111102634006" dx="0em" dy="0.3em" fill="rgb(33, 33, 33)" stroke="none" stroke-width="1px">1.4e-3</text><text style="text-anchor: end; visibility: hidden; font-family: Roboto, sans-serif; font-size: 12px; font-weight: 200;" x="0" y="19.655555513170018" dx="0em" dy="0.3em" fill="rgb(33, 33, 33)" stroke="none" stroke-width="1px">1.6e-3</text><text style="text-anchor: end; visibility: hidden; font-family: Roboto, sans-serif; font-size: 12px; font-weight: 200;" x="0" y="0" dx="0em" dy="0.3em" fill="rgb(33, 33, 33)" stroke="none" stroke-width="1px">1.8e-3</text></g><line x1="72.29800224304199" y1="0" x2="72.29800224304199" y2="176.89999961853027" fill="rgb(0, 0, 0)" stroke="rgb(204, 204, 204)" stroke-width="1px"></line></g></g><g transform="translate(72, 0)" clip-path="url(#clip_0)"><clipPath id="clip_0"><rect width="257" height="176"></rect></clipPath><g><g><g><line x1="0" y1="0" x2="0" y2="176.89999961853027" fill="rgb(0, 0, 0)" stroke="rgb(66, 66, 66)" stroke-width="1px" opacity="0.25"></line><line x1="25.7701997756958" y1="0" x2="25.7701997756958" y2="176.89999961853027" fill="rgb(0, 0, 0)" stroke="rgb(66, 66, 66)" stroke-width="1px" opacity="0.25"></line><line x1="51.5403995513916" y1="0" x2="51.5403995513916" y2="176.89999961853027" fill="rgb(0, 0, 0)" stroke="rgb(66, 66, 66)" stroke-width="1px" opacity="0.25"></line><line x1="77.3105993270874" y1="0" x2="77.3105993270874" y2="176.89999961853027" fill="rgb(0, 0, 0)" stroke="rgb(66, 66, 66)" stroke-width="1px" opacity="0.25"></line><line x1="103.0807991027832" y1="0" x2="103.0807991027832" y2="176.89999961853027" fill="rgb(0, 0, 0)" stroke="rgb(66, 66, 66)" stroke-width="1px" opacity="0.25"></line><line x1="128.850998878479" y1="0" x2="128.850998878479" y2="176.89999961853027" fill="rgb(0, 0, 0)" stroke="rgb(66, 66, 66)" stroke-width="1px" opacity="0.25"></line><line x1="154.6211986541748" y1="0" x2="154.6211986541748" y2="176.89999961853027" fill="rgb(0, 0, 0)" stroke="rgb(66, 66, 66)" stroke-width="1px" opacity="0.25"></line><line x1="180.3913984298706" y1="0" x2="180.3913984298706" y2="176.89999961853027" fill="rgb(0, 0, 0)" stroke="rgb(66, 66, 66)" stroke-width="1px" opacity="0.25"></line><line x1="206.1615982055664" y1="0" x2="206.1615982055664" y2="176.89999961853027" fill="rgb(0, 0, 0)" stroke="rgb(66, 66, 66)" stroke-width="1px" opacity="0.25"></line><line x1="231.9317979812622" y1="0" x2="231.9317979812622" y2="176.89999961853027" fill="rgb(0, 0, 0)" stroke="rgb(66, 66, 66)" stroke-width="1px" opacity="0.25"></line><line x1="257.701997756958" y1="0" x2="257.701997756958" y2="176.89999961853027" fill="rgb(0, 0, 0)" stroke="rgb(66, 66, 66)" stroke-width="1px" opacity="0.25"></line></g><g><line x1="0" y1="176.89999961853027" x2="257.701997756958" y2="176.89999961853027" fill="rgb(0, 0, 0)" stroke="rgb(66, 66, 66)" stroke-width="1px" opacity="0.25"></line><line x1="0" y1="157.24444410536023" x2="257.701997756958" y2="157.24444410536023" fill="rgb(0, 0, 0)" stroke="rgb(66, 66, 66)" stroke-width="1px" opacity="0.25"></line><line x1="0" y1="137.58888859219022" x2="257.701997756958" y2="137.58888859219022" fill="rgb(0, 0, 0)" stroke="rgb(66, 66, 66)" stroke-width="1px" opacity="0.25"></line><line x1="0" y1="117.9333330790202" x2="257.701997756958" y2="117.9333330790202" fill="rgb(0, 0, 0)" stroke="rgb(66, 66, 66)" stroke-width="1px" opacity="0.25"></line><line x1="0" y1="98.27777756585016" x2="257.701997756958" y2="98.27777756585016" fill="rgb(0, 0, 0)" stroke="rgb(66, 66, 66)" stroke-width="1px" opacity="0.25"></line><line x1="0" y1="78.62222205268012" x2="257.701997756958" y2="78.62222205268012" fill="rgb(0, 0, 0)" stroke="rgb(66, 66, 66)" stroke-width="1px" opacity="0.25"></line><line x1="0" y1="58.9666665395101" x2="257.701997756958" y2="58.9666665395101" fill="rgb(0, 0, 0)" stroke="rgb(66, 66, 66)" stroke-width="1px" opacity="0.25"></line><line x1="0" y1="39.31111102634006" x2="257.701997756958" y2="39.31111102634006" fill="rgb(0, 0, 0)" stroke="rgb(66, 66, 66)" stroke-width="1px" opacity="0.25"></line><line x1="0" y1="19.655555513170018" x2="257.701997756958" y2="19.655555513170018" fill="rgb(0, 0, 0)" stroke="rgb(66, 66, 66)" stroke-width="1px" opacity="0.25"></line><line x1="0" y1="0" x2="257.701997756958" y2="0" fill="rgb(0, 0, 0)" stroke="rgb(66, 66, 66)" stroke-width="1px" opacity="0.25"></line></g></g></g><g><g><line x1="0" y1="176.89999961853027" x2="257.701997756958" y2="176.89999961853027" fill="rgb(0, 0, 0)" stroke="rgb(153, 153, 153)" stroke-width="1.5px"></line></g></g><g><g><line x1="25.7701997756958" y1="0" x2="25.7701997756958" y2="176.89999961853027" fill="rgb(0, 0, 0)" stroke="rgb(153, 153, 153)" stroke-width="1.5px"></line></g></g><g><g><g><g><g><path style="fill: none;" stroke="rgb(0, 153, 136)" stroke-width="2px" d="M25.7701997756958,66.33750461642111L26.107974938195802,31.786717777612562L26.4457501006958,-84.55774954522386L32.8634781881958,-1.273794938642683L33.2012533506958,3.6582602564758875L33.5390285131958,6.61746844547337L33.876803675695804,8.39298438485797L34.2145788381958,9.45829071786372L34.55235400069581,32.20999956344155L34.8901291631958,45.86100996763997L35.227904325695796,31.939099120695964L35.565679488195805,23.58595589548643L35.9034546506958,18.57407114222462L36.2412298131958,15.56694071573843L36.579004975695796,13.762662613016204L36.916780138195804,12.680095806523907L37.2545553006958,12.030555742479255L37.5923304631958,11.640831711198768L37.9301056256958,11.406997295003107L38.267880788195804,11.266696646211866L38.6056559506958,11.182516257270565L38.9434311131958,11.132008024025783L39.2812062756958,57.7836482524857L39.618981438195796,75.94685528160988L39.956756600695805,72.10311501442453L40.2945317631958,47.68436727415532L40.6323069256958,55.145622211837235L40.9700820881958,59.622375173949976L41.307857250695804,62.308426951038946L41.6456324131958,63.92005801722798L41.98340757569581,64.88703665691827L42.3211827381958,65.46722384072407L42.658957900695796,65.81533615100457L42.996733063195805,66.0242035371718L43.3345082256958,66.14952396887173L43.6722833881958,66.22471622789159L44.0100585506958,66.26983158330343L44.347833713195804,66.29690079655052L44.6856088756958,66.31314232449873L45.0233840381958,81.06455171607902L45.3611592006958,89.91539735102592L45.6989343631958,80.48424025718353L46.0367095256958,74.8255460008784L46.3744846881958,71.4303294470954L46.7122598506958,69.39319951482567L47.050035013195796,68.17092155546385L47.387810175695805,67.43755477984676L47.7255853381958,66.99753471447649L48.0633605006958,81.47518715006372L48.4011356631958,99.98955569069153L48.738910825695804,101.27039973579272L49.0766859881958,87.29724168804407L49.4144611506958,78.91334685939488L49.7522363131958,73.88300996220536L50.090011475695796,95.43424937797651L50.427786638195805,98.5372159481637L50.7655618006958,85.65733141546666L51.1033369631958,102.4988422499333L51.4411121256958,102.77597167133776L51.778887288195804,102.94224932418044L52.1166624506958,88.30035144107671L52.45443761319581,79.51521271121447L52.7922127756958,105.36542393903753L53.1299879381958,114.3236977640758L53.467763100695805,109.87088497982326L53.8055382631958,107.19919730927174L54.1433134256958,105.59618470694083L54.481088588195796,104.63437714554229L54.818863750695805,104.05729260870316L55.1566389131958,103.71104188659967L55.4944140756958,113.33106853261309L55.8321892381958,109.27530744094564L56.1699644006958,92.10018631113581L56.5077395631958,112.91640809899033L56.8455147256958,125.40614117170303L57.1832898881958,116.5203510243996L57.521065050695796,111.18887693601756L57.858840213195805,107.98999248298831L58.1966153756958,91.32899733636144L58.5343905381958,105.90184180247014L58.8721657006958,114.64554848213535L59.209940863195804,110.063995410659L59.5477160256958,107.3150635677732L59.8854911881958,105.66570446204169L60.2232663506958,104.6760889986028L60.561041513195796,104.08231972053945L60.898816675695805,103.72605815370147L61.2365918381958,113.34007829287415L61.5743670006958,119.10849037637779L61.9121421631958,112.74176054720445L62.249917325695804,118.74949972897595L62.5876924881958,122.35414323803887L62.9254676506958,114.68915226420111L63.2632428131958,110.09015767989845L63.6010179756958,107.33076092931685L63.9387931381958,122.05475286989895L64.2765683006958,130.8891480342482L64.6143434631958,129.6379322212022L64.9521186256958,119.05942565409912L65.2898937881958,133.45985269245207L65.6276689506958,137.73220792778008L65.9654441131958,133.74376815732134L66.30321927569581,121.52292721577058L66.6409944381958,114.19042265084013L66.9787696006958,126.17054990281292L67.3165447631958,126.80677334234103L67.65431992569579,117.3607303267824L67.99209508819581,132.44063549606204L68.3298702506958,137.12067760994606L68.6676454131958,133.37684996662094L69.0054205756958,121.30277630135033L69.3431957381958,123.8861091814635L69.6809709006958,115.60833183025588L70.0187460631958,127.02129541046236L70.3565212256958,127.3172206469307L70.6942963881958,117.6669987095362L71.0320715506958,132.62439652571433L71.3698467131958,137.23093422773744L71.70762187569579,133.44300393729574L72.0453970381958,121.34246868375523L72.38317220069581,123.90992461090643L72.7209473631958,125.45039816719715L73.0587225256958,126.37468230097157L73.3964976881958,126.92925278123622L73.7342728506958,127.26199506939501L74.07204801319581,117.63386336301483L74.4098231756958,121.68476141846219L74.7475983381958,124.11530025173059L75.0853735006958,115.74584647241613L75.4231486631958,131.47170518344228L75.7609238256958,136.5393194223742L76.09869898819579,133.02803505407783L76.4364741506958,130.92126443309996L76.77424931319581,129.6572020605133L77.1120244756958,119.07098755768574L77.4497996381958,129.0988888469203L77.7875748006958,128.56377670880548L78.12534996319579,128.24270942593657L78.46312512569581,134.60192196787077L78.8009002881958,131.86559658137574L79.1386754506958,130.22380134947872L79.4764506131958,129.23872421034054L79.8142257756958,135.19953083851314L80.1520009381958,132.22416190376117L80.4897761006958,130.43894054291L80.8275512631958,135.91966063805484L81.1653264256958,132.65623978348617L81.5031015881958,130.698187270745L81.8408767506958,129.52335576310028L82.1786519131958,128.81845685851346L82.5164270756958,128.39551751576138L82.85420223819581,134.69360682176566L83.1919774006958,131.92060749371268L83.5297525631958,136.80866080853644L83.8675277256958,133.18963988577514L84.2053028881958,131.01822733211839L84.54307805069581,129.7153797999243L84.8808532131958,128.93367128060788L85.2186283756958,128.464646169018L85.5564035381958,134.73508401371967L85.8941787006958,131.9454938088851L86.2319538631958,130.27173968598433L86.56972902569579,135.81934012389942L86.9075041881958,132.59604747499296L87.24527935069581,141.58182578498838L87.5830545131958,142.60539178330185L87.9208296756958,136.6676784706344L88.2586048381958,139.6569033946895L88.59638000069579,141.45043834912252L88.93415516319581,135.9747064101268L89.2719303256958,139.24112015838492L89.6097054881958,141.2009684073398L89.9474806506958,135.82502444505715L90.2852558131958,132.59945806768758L90.6230309756958,137.21597115292138L90.9608061381958,133.43402609240613L91.2985813006958,142.08461295543628L91.6363564631958,142.9070640855706L91.9741316256958,136.84868185199565L92.3119067881958,144.13340641119L92.6496819506958,144.13634015902284L92.9874571131958,137.586247496067L93.32523227569581,144.5759457976328L93.6630074381958,144.4018637908885L94.0007826006958,137.7455616751864L94.3385577631958,133.75178040576512L94.6763329256958,145.18719991660885L95.0141080881958,149.1365172499579L95.3518832506958,151.50610764996736L95.6896584131958,148.55996090228925L96.0274335756958,140.24041994202682L96.3652087381958,141.80054827752494L96.7029839006958,136.18477236716825L97.0407590631958,132.81530682095425L97.3785342256958,137.34548040488139L97.71630938819581,133.5117316435821L98.0540845506958,142.13123628614187L98.3918597131958,142.935038083994L98.7296348756958,136.86546625104964L99.06741003819579,139.77557606293863L99.40518520069581,141.521641950072L99.7429603631958,136.01742857069652L100.0807355256958,143.6346544424105L100.4185106881958,143.83708897775514L100.7562858506958,137.40669678730637L101.0940610131958,144.46821537237645L101.4318361756958,144.3372255357347L101.7696113381958,144.25863163374964L102.1073865006958,144.21147529255865L102.4451616631958,144.183181487844L102.7829368256958,137.6143522933597L103.1207119881958,144.59280867600845L103.45848715069579,144.4119815179139L103.79626231319581,144.30348522305718L104.1340374756958,137.68653453448758L104.4718126381958,133.71636412134583L104.8095878006958,131.3342618734608L105.1473629631958,140.82475442406908L105.4851381256958,142.1511489667503L105.8229132881958,136.39513278070348L106.1606884506958,143.8612769684147L106.4984636131958,148.34096348104143L106.8362387756958,146.6608744009337L107.1740139381958,145.65282095286904L107.5117891006958,145.04798888403027L107.8495642631958,144.68508964272698L108.18733942569581,148.8352510856288L108.5251145881958,146.95744696368612L108.8628897506958,145.83076449052052L109.2006649131958,145.15475500662114L109.53844007569579,138.19729640462597L109.87621523819581,147.85450951592534L110.2139904006958,150.7369030095478L110.5517655631958,148.09843811803754L110.8895407256958,150.88326017081513L111.2273158881958,148.1862524147979L111.5650910506958,146.5680477611876L111.90286621319581,145.5971249690214L112.2406413756958,149.38247228140543L112.5784165381958,151.65368066883588L112.9161917006958,148.64850471361038L113.2539668631958,146.84539914047505L113.5917420256958,145.76353579659386L113.92951718819579,145.11441779026515L114.26729235069581,144.72494698646793L114.6050675131958,144.4912645041896L114.9428426756958,144.35105501482258L115.2806178381958,144.26692932120238L115.6183930006958,148.58435489271403L115.9561681631958,146.80690924793726L116.2939433256958,150.10834284875494L116.6317184881958,147.7213020215618L116.9694936506958,146.28907752524592L117.3072688131958,145.42974282745638L117.6450439756958,144.91414200878268L117.9828191381958,148.9726825052622L118.3205943006958,147.03990581546617L118.65836946319581,145.88023980158854L118.9961446256958,149.55234118094575L119.3339197881958,151.75560200856003L119.6716949506958,148.70965751744487L120.00947011319579,146.88209082277575L120.34724527569581,145.78555080597428L120.6850204381958,145.1276267958934L121.0227956006958,144.73287238984489L121.3605707631958,148.86392073389953L121.6983459256958,146.97464875264856L122.0361210881958,145.84108556389796L122.3738962506958,145.1609476506476L122.7116714131958,144.7528649026974L123.04944657569581,144.50801525392728L123.3872217381958,144.3611054646652L123.7249969006958,148.64086057879172L124.0627720631958,146.84081265958386L124.40054722569579,145.76078390805915L124.73832238819581,145.11276665714433L125.0760975506958,144.72395630659543L125.4138727131958,148.85857108394987L125.7516478756958,151.33933995036253L126.0894230381958,148.45990028252635L126.4271982006958,140.18038357016908L126.76497336319581,149.04436181525122L127.1027485256958,151.45081438914332L127.4405236881958,148.52678494579484L127.7782988506958,146.77236727978573L128.1160740131958,145.71971668018028L128.4538491756958,149.45602730810077L128.7916243381958,147.3299126971693L129.1293995006958,150.42214491829418L129.4671746631958,147.90958326328536L129.80494982569581,146.40204627028004L130.1427249881958,145.49752407447684L130.4805001506958,149.3227117446787L130.81827531319578,147.24992335911608L131.1560504756958,139.45439741612293L131.4938256381958,148.60877012282353L131.8316008006958,151.18945937368673L132.16937596319582,148.36997193652087L132.5071511256958,146.67827947422137L132.8449262881958,150.03116498452542L133.1827014506958,147.67499530302408L133.5204766131958,153.5411288549642L133.85825177569578,154.14887461297113L134.19602693819579,150.14562108009153L134.53380210069582,152.11156994804753L134.8715772631958,148.92323828113734L135.2093524256958,147.01023928099124L135.5471275881958,145.8624398809036L135.8849027506958,145.17376024085098L136.2226779131958,149.12845344450318L136.5604530756958,151.50126936669452L136.8982282381958,148.55705793232556L137.2360034006958,154.07036643254511L137.57377856319582,154.46641715951964L137.9115537256958,150.33614660802064L138.2493288881958,147.85798427712123L138.5871040506958,146.37108687858156L138.9248792131958,145.47894843945778L139.2626543756958,144.9436653759835L139.60042953819578,148.99039652558272L139.9382047006958,147.05053422765846L140.2759798631958,145.8866168489039L140.6137550256958,145.18826642165118L140.95153018819582,144.76925616529954L141.2893053506958,144.51785001148855L141.6270805131958,144.36700631920198L141.9648556756958,148.6444010915138L142.3026308381958,146.8429369672171L142.6404060006958,150.12995948032287L142.97818116319579,147.73427200050256L143.31595632569582,146.29685951261035L143.6537314881958,149.80231300755884L143.9915066506958,151.90558510452792L144.3292818131958,148.7996473750256L144.6670569756958,154.2159200981651L145.0048321381958,154.55374935889168L145.3426073006958,150.38854592764383L145.6803824631958,147.88942386889514L146.01815762569578,146.38995063364592L146.35593278819582,149.85816768018017L146.69370795069582,147.57119692041695L147.0314831131958,146.19901446455899L147.3692582756958,152.65554035188515L147.7070334381958,153.6175215111237L148.0448086006958,149.82680921898307L148.38258376319578,154.8322172045396L148.7203589256958,154.92352762271636L149.0581340881958,150.61041288593864L149.3959092506958,155.30237940471295L149.73368441319582,155.20562494282038L150.0714595756958,150.77967127800108L150.4092347381958,148.12409907910947L150.7470099006958,150.8986567474583L151.0847850631958,148.1954903607838L151.4225602256958,150.9414915164629L151.76033538819578,152.58909220987033L152.0981105506958,153.57765262591482L152.4358857131958,154.1707888755415L152.7736608756958,150.15876963763372L153.11143603819582,155.03139345573L153.4492112006958,155.0430333734306L153.7869863631958,150.68211633636722L154.1247615256958,141.5137132024736L154.4625366881958,142.564524233793L154.80031185069578,143.19501085258463L155.1380870131958,143.57330282385962L155.47586217569582,143.8002780066246L155.8136373381958,153.15758767786133L156.1514125006958,153.9187499067094L156.4891876631958,154.37544724401823L156.8269628256958,154.64946564640357L157.16473798819578,150.44597570015097L157.5025131506958,147.92388173239942L157.8402883131958,150.77852633943226L158.1780634756958,148.1234121159682L158.51583863819582,153.8101789427307L158.8536138006958,154.31030466563104L159.1913889631958,150.24247911168743L159.52916412569581,152.1696847670051L159.8669392881958,148.9581071725119L160.2047144506958,147.03116061581596L160.54248961319578,145.8749926817984L160.8802647756958,145.1812919213879L161.2180399381958,149.13297245282533L161.5558151006958,147.13607978400404L161.89359026319582,145.93794418271125L162.2313654256958,145.21906282193558L162.5691405881958,144.78773400547018L162.9069157506958,144.52893671559096L163.2446909131958,144.3736583416634L163.5824660756958,144.28049131730688L163.92024123819579,144.22459110269295L164.25801640069582,144.1910509739246L164.5957915631958,144.1709268966636L164.9335667256958,148.52675343799078L165.2713418881958,151.14024936278707L165.6091170506958,148.3404459299811L165.9468922131958,146.6605638702975L166.2846673756958,150.0205356221711L166.6224425381958,147.66861768561148L166.96021770069578,146.25746692367574L167.29799286319582,145.41077646651428L167.6357680256958,149.2706631799012L167.9735431881958,151.58659520793333L168.3113183506958,148.60825343706884L168.6490935131958,146.82124837455012L168.9868686756958,145.7490453370389L169.32464383819578,145.1057235145322L169.6624190006958,151.99956578186905L170.0001941631958,153.22393676911406L170.3379693256958,149.59065837377725L170.67574448819582,147.41069133657518L171.0135196506958,146.10271111425394L171.3512948131958,145.3179229808612L171.6890699756958,144.84705010082556L172.0268451381958,148.93242736048794L172.3646203006958,147.0157527286016L172.70239546319578,150.23364893715356L173.0401706256958,147.79648567460097L173.3779457881958,150.70208870475318L173.7157209506958,152.44545052284454L174.05349611319582,149.12356662601556L174.3912712756958,151.49833727560195L174.7290464381958,148.55529867766998L175.0668216006958,154.06931087975175L175.4045967631958,154.46578382784367L175.74237192569578,150.33576660901502L176.08014708819582,147.85775627771784L176.41792225069582,153.65078543978046L176.7556974131958,154.21466856386087L177.0934725756958,150.18509745062536L177.4312477381958,155.047190143525L177.7690229006958,155.0525113861076L178.10679806319578,150.6878031439734L178.4445732256958,152.43687918637664L178.7823483881958,156.39825918497576L179.1201235506958,155.86315281097805L179.45789871319582,151.17418799889566L179.7956738756958,152.72871009933002L180.1334490381958,153.66142335959063L180.47122420069581,149.8531503280632L180.8089993631958,147.56818650914676L181.1467745256958,153.47704357863782L181.48454968819578,154.1104234471753L181.8223248506958,150.122550380614L182.1601000131958,147.72982654067727L182.4978751756958,153.5740275975561L182.83565033819582,154.16861385852627L183.1734255006958,154.52536561510837L183.5112006631958,150.37151568137386L183.8489758256958,155.15904108197407L184.1867509881958,155.11962194917706L184.52452615069578,150.72806948181506L184.8623013131958,155.37297336223878L185.20007647569582,155.24798131733587L185.5378516381958,150.80508510271036L185.8756268006958,148.13934737393507L186.2134019631958,153.8197400975108L186.5511771256958,154.3160413584991L186.8889522881958,150.24592112740828L187.2267274506958,152.17174997643758L187.5645026131958,153.32724728585515L187.90227777569578,154.0205456715057L188.24005293819582,154.43652470289604L188.5778281006958,154.68611212173022L188.9156032631958,154.83586457303076L189.25337842569581,150.55781505612728L189.5911535881958,152.35888633366898L189.9289287506958,149.0716281125102L190.26670391319578,154.3791085406559L190.6044790756958,154.65166242438613L190.9422542381958,157.72712912778144L191.2800294006958,156.6604747766615L191.61780456319582,151.65258117830572L191.9555797256958,155.92768038013318L192.2933548881958,155.58080552807255L192.6311300506958,151.00477962915235L192.9689052131958,152.62706507748402L193.3066803756958,153.600436346483L193.64445553819579,154.18445910788242L193.9822307006958,150.1669717770383L194.3200058631958,147.75647937853182L194.6577810256958,150.6780849271117L194.9955561881958,148.06314726857585L195.3333313506958,150.86208566113814L195.6711065131958,152.5414486966755L196.0088816756958,149.18116553031413L196.3466568381958,147.16499563049732L196.68443200069578,150.323194678291L197.02220716319582,147.85021311928344L197.35998232569582,146.36642418387888L197.6977574881958,152.7559861834771L198.0355326506958,153.67778901007887L198.3733078131958,154.23087070603995L198.7110829756958,150.19481873593278L199.04885813819578,152.14108854155228L199.3866333006958,153.30885042492397L199.7244084631958,149.6416065672632L200.0621836256958,147.44126025266678L200.39995878819582,146.1210524639089L200.7377339506958,149.69682877833796L201.0755091131958,151.84229456699538L201.41328427569582,153.12957404018982L201.7510594381958,153.9019417241065L202.0888346006958,154.3653623344565L202.42660976319578,150.27551371298273L202.7643849256958,157.0427291016762L203.1021600881958,159.1617691341555L203.4399352506958,157.5212587804859L203.77771041319582,152.16905158060038L204.1154855756958,153.32562824835284L204.4532607381958,154.0195742490043L204.7910359006958,150.0680408617114L205.1288110631958,152.06502181701944L205.46658622569578,148.8953094025205L205.8043613881958,146.99348195382115L206.14213655069582,145.8523854846015L206.4799117131958,154.38885216464746L206.8176868756958,157.56944297193826L207.1554620381958,156.56586308315553L207.4932372006958,151.59581416220217L207.8310123631958,148.61378480963015L208.1687875256958,146.82456719808692L208.5065626881958,145.75103663116099L208.84433785069578,152.38675365184636L209.18211301319582,153.4562494911004L209.5198881756958,154.09794699465286L209.8576633381958,157.39489986994147L210.19543850069581,156.4611372219575L210.5332136631958,151.53297864548333L210.8709888256958,148.57608349959884L211.20876398819578,146.80194641206813L211.5465391506958,145.73746415954972L211.88431431319577,149.46667579572244L212.2220894756958,147.3363017897423L212.55986463819582,146.05807738615422L212.8976398006958,149.65904373168516L213.2354149631958,151.81962353900371L213.5731901256958,153.11597142339483L213.9109652881958,149.52587916634573L214.2487404506958,147.37182381211628L214.5865156131958,153.35922596041954L214.9242907756958,154.03973287624433L215.2620659381958,150.08013603805543L215.5998411006958,152.0722789228259L215.9376162631958,153.2675646536881L216.2753914256958,149.6168351045217L216.6131665881958,154.70623273586278L216.9509417506958,154.84793694151028L217.2887169131958,150.56505847721502L217.62649207569578,152.3632323863216L217.96426723819582,149.0742357441018L218.30204240069583,154.38067311961083L218.6398175631958,154.65260117175913L218.9775927256958,154.81575800304807L219.3153678881958,150.5457511141377L219.6531430506958,147.98374698079144L219.99091821319578,150.81444548846747L220.3286933756958,152.5128645930731L220.6664685381958,149.1640150681527L221.0042437006958,151.52260634088424L221.34201886319582,152.93776110452313L221.6797940256958,149.4189529750227L222.0175691881958,151.67556908500623L222.3553443506958,153.02953875099635L222.6931195131958,149.47401956290665L223.0308946756958,154.62054341089376L223.36866983819579,154.79652334652886L223.7064450006958,154.9021113079099L224.0442201631958,154.96546408473856L224.3819953256958,157.9154101239929L224.71977048819582,156.77344337438836L225.0575456506958,156.08826332462561L225.3953208131958,155.67715529476797L225.7330959756958,151.06258948916962L226.0708711381958,152.6617509934944L226.40864630069578,153.62124789608924L226.7464214631958,149.8290450499624L227.08419662569582,154.83355870312718L227.4219717881958,157.83626689502609L227.7597469506958,152.35805644932447L228.0975221131958,149.07113018190353L228.4352972756958,154.37880978229188L228.77307243819578,154.65148316936774L229.1108476006958,150.44718621392946L229.4486227631958,152.29250902835028L229.78639792569578,153.39970271700278L230.12417308819582,149.6961179425105L230.4619482506958,147.47396707781513L230.7997234131958,153.42051191983884L231.13749857569582,154.07650445189591L231.4752737381958,154.47009997113017L231.8130489006958,150.33835629498694L232.15082406319578,147.859310089301L232.4885992256958,153.65171772673037L232.82637438819577,154.21522793603083L233.1641495506958,157.46526843476823L233.50192471319582,156.50335836085355L233.8396998756958,151.55831132882096L234.1774750381958,152.95918409728517L234.5152502006958,156.71164213152088" fill="none"></path></g></g></g></g><g opacity="0.2"><g><g><g><path style="fill: none;" stroke="rgb(0, 153, 136)" stroke-width="2px" d="M25.7701997756958,66.33750461642111L26.107974938195802,11.05624567432743L26.4457501006958,-196.24843817514676L31.5123775381958,-71.86562557725442L31.8501527006958,66.33750461642111L32.1879278631958,11.05624567432743L32.525703025695805,11.05624567432743L32.8634781881958,11.05624567432743L33.2012533506958,11.05624567432743L33.5390285131958,11.05624567432743L33.876803675695804,11.05624567432743L34.2145788381958,11.05624567432743L34.55235400069581,66.33750461642111L34.8901291631958,66.33750461642111L35.227904325695796,11.05624567432743L35.565679488195805,11.05624567432743L35.9034546506958,11.05624567432743L36.2412298131958,11.05624567432743L36.579004975695796,11.05624567432743L36.916780138195804,11.05624567432743L37.2545553006958,11.05624567432743L37.5923304631958,11.05624567432743L37.9301056256958,11.05624567432743L38.267880788195804,11.05624567432743L38.6056559506958,11.05624567432743L38.9434311131958,11.05624567432743L39.2812062756958,127.76110850163323L39.618981438195796,103.19166580344447L39.956756600695805,66.33750461642111L40.2945317631958,11.05624567432743L40.6323069256958,66.33750461642111L40.9700820881958,66.33750461642111L41.307857250695804,66.33750461642111L41.6456324131958,66.33750461642111L41.98340757569581,66.33750461642111L42.3211827381958,66.33750461642111L42.658957900695796,66.33750461642111L42.996733063195805,66.33750461642111L43.3345082256958,66.33750461642111L43.6722833881958,66.33750461642111L44.0100585506958,66.33750461642111L44.347833713195804,66.33750461642111L44.6856088756958,66.33750461642111L45.0233840381958,103.19166580344447L45.3611592006958,103.19166580344447L45.6989343631958,66.33750461642111L46.0367095256958,66.33750461642111L46.3744846881958,66.33750461642111L46.7122598506958,66.33750461642111L47.050035013195796,66.33750461642111L47.387810175695805,66.33750461642111L47.7255853381958,66.33750461642111L48.0633605006958,103.19166580344447L48.4011356631958,127.76110850163323L48.738910825695804,103.19166580344447L49.0766859881958,66.33750461642111L49.4144611506958,66.33750461642111L49.7522363131958,66.33750461642111L50.090011475695796,127.76110850163323L50.427786638195805,103.19166580344447L50.7655618006958,66.33750461642111L51.1033369631958,127.76110850163323L51.4411121256958,103.19166580344447L51.778887288195804,103.19166580344447L52.1166624506958,66.33750461642111L52.45443761319581,66.33750461642111L52.7922127756958,144.1407407807721L53.1299879381958,127.76110850163323L53.467763100695805,103.19166580344447L53.8055382631958,103.19166580344447L54.1433134256958,103.19166580344447L54.481088588195796,103.19166580344447L54.818863750695805,103.19166580344447L55.1566389131958,103.19166580344447L55.4944140756958,127.76110850163323L55.8321892381958,103.19166580344447L56.1699644006958,66.33750461642111L56.5077395631958,144.1407407807721L56.8455147256958,144.1407407807721L57.1832898881958,103.19166580344447L57.521065050695796,103.19166580344447L57.858840213195805,103.19166580344447L58.1966153756958,66.33750461642111L58.5343905381958,127.76110850163323L58.8721657006958,127.76110850163323L59.209940863195804,103.19166580344447L59.5477160256958,103.19166580344447L59.8854911881958,103.19166580344447L60.2232663506958,103.19166580344447L60.561041513195796,103.19166580344447L60.898816675695805,103.19166580344447L61.2365918381958,127.76110850163323L61.5743670006958,127.76110850163323L61.9121421631958,103.19166580344447L62.249917325695804,127.76110850163323L62.5876924881958,127.76110850163323L62.9254676506958,103.19166580344447L63.2632428131958,103.19166580344447L63.6010179756958,103.19166580344447L63.9387931381958,144.1407407807721L64.2765683006958,144.1407407807721L64.6143434631958,127.76110850163323L64.9521186256958,103.19166580344447L65.2898937881958,155.0604932499815L65.6276689506958,144.1407407807721L65.9654441131958,127.76110850163323L66.30321927569581,103.19166580344447L66.6409944381958,103.19166580344447L66.9787696006958,144.1407407807721L67.3165447631958,127.76110850163323L67.65431992569579,103.19166580344447L67.99209508819581,155.0604932499815L68.3298702506958,144.1407407807721L68.6676454131958,127.76110850163323L69.0054205756958,103.19166580344447L69.3431957381958,127.76110850163323L69.6809709006958,103.19166580344447L70.0187460631958,144.1407407807721L70.3565212256958,127.76110850163323L70.6942963881958,103.19166580344447L71.0320715506958,155.0604932499815L71.3698467131958,144.1407407807721L71.70762187569579,127.76110850163323L72.0453970381958,103.19166580344447L72.38317220069581,127.76110850163323L72.7209473631958,127.76110850163323L73.0587225256958,127.76110850163323L73.3964976881958,127.76110850163323L73.7342728506958,127.76110850163323L74.07204801319581,103.19166580344447L74.4098231756958,127.76110850163323L74.7475983381958,127.76110850163323L75.0853735006958,103.19166580344447L75.4231486631958,155.0604932499815L75.7609238256958,144.1407407807721L76.09869898819579,127.76110850163323L76.4364741506958,127.76110850163323L76.77424931319581,127.76110850163323L77.1120244756958,103.19166580344447L77.4497996381958,144.1407407807721L77.7875748006958,127.76110850163323L78.12534996319579,127.76110850163323L78.46312512569581,144.1407407807721L78.8009002881958,127.76110850163323L79.1386754506958,127.76110850163323L79.4764506131958,127.76110850163323L79.8142257756958,144.1407407807721L80.1520009381958,127.76110850163323L80.4897761006958,127.76110850163323L80.8275512631958,144.1407407807721L81.1653264256958,127.76110850163323L81.5031015881958,127.76110850163323L81.8408767506958,127.76110850163323L82.1786519131958,127.76110850163323L82.5164270756958,127.76110850163323L82.85420223819581,144.1407407807721L83.1919774006958,127.76110850163323L83.5297525631958,144.1407407807721L83.8675277256958,127.76110850163323L84.2053028881958,127.76110850163323L84.54307805069581,127.76110850163323L84.8808532131958,127.76110850163323L85.2186283756958,127.76110850163323L85.5564035381958,144.1407407807721L85.8941787006958,127.76110850163323L86.2319538631958,127.76110850163323L86.56972902569579,144.1407407807721L86.9075041881958,127.76110850163323L87.24527935069581,155.0604932499815L87.5830545131958,144.1407407807721L87.9208296756958,127.76110850163323L88.2586048381958,144.1407407807721L88.59638000069579,144.1407407807721L88.93415516319581,127.76110850163323L89.2719303256958,144.1407407807721L89.6097054881958,144.1407407807721L89.9474806506958,127.76110850163323L90.2852558131958,127.76110850163323L90.6230309756958,144.1407407807721L90.9608061381958,127.76110850163323L91.2985813006958,155.0604932499815L91.6363564631958,144.1407407807721L91.9741316256958,127.76110850163323L92.3119067881958,155.0604932499815L92.6496819506958,144.1407407807721L92.9874571131958,127.76110850163323L93.32523227569581,155.0604932499815L93.6630074381958,144.1407407807721L94.0007826006958,127.76110850163323L94.3385577631958,127.76110850163323L94.6763329256958,162.3403291828744L95.0141080881958,155.0604932499815L95.3518832506958,155.0604932499815L95.6896584131958,144.1407407807721L96.0274335756958,127.76110850163323L96.3652087381958,144.1407407807721L96.7029839006958,127.76110850163323L97.0407590631958,127.76110850163323L97.3785342256958,144.1407407807721L97.71630938819581,127.76110850163323L98.0540845506958,155.0604932499815L98.3918597131958,144.1407407807721L98.7296348756958,127.76110850163323L99.06741003819579,144.1407407807721L99.40518520069581,144.1407407807721L99.7429603631958,127.76110850163323L100.0807355256958,155.0604932499815L100.4185106881958,144.1407407807721L100.7562858506958,127.76110850163323L101.0940610131958,155.0604932499815L101.4318361756958,144.1407407807721L101.7696113381958,144.1407407807721L102.1073865006958,144.1407407807721L102.4451616631958,144.1407407807721L102.7829368256958,127.76110850163323L103.1207119881958,155.0604932499815L103.45848715069579,144.1407407807721L103.79626231319581,144.1407407807721L104.1340374756958,127.76110850163323L104.4718126381958,127.76110850163323L104.8095878006958,127.76110850163323L105.1473629631958,155.0604932499815L105.4851381256958,144.1407407807721L105.8229132881958,127.76110850163323L106.1606884506958,155.0604932499815L106.4984636131958,155.0604932499815L106.8362387756958,144.1407407807721L107.1740139381958,144.1407407807721L107.5117891006958,144.1407407807721L107.8495642631958,144.1407407807721L108.18733942569581,155.0604932499815L108.5251145881958,144.1407407807721L108.8628897506958,144.1407407807721L109.2006649131958,144.1407407807721L109.53844007569579,127.76110850163323L109.87621523819581,162.3403291828744L110.2139904006958,155.0604932499815L110.5517655631958,144.1407407807721L110.8895407256958,155.0604932499815L111.2273158881958,144.1407407807721L111.5650910506958,144.1407407807721L111.90286621319581,144.1407407807721L112.2406413756958,155.0604932499815L112.5784165381958,155.0604932499815L112.9161917006958,144.1407407807721L113.2539668631958,144.1407407807721L113.5917420256958,144.1407407807721L113.92951718819579,144.1407407807721L114.26729235069581,144.1407407807721L114.6050675131958,144.1407407807721L114.9428426756958,144.1407407807721L115.2806178381958,144.1407407807721L115.6183930006958,155.0604932499815L115.9561681631958,144.1407407807721L116.2939433256958,155.0604932499815L116.6317184881958,144.1407407807721L116.9694936506958,144.1407407807721L117.3072688131958,144.1407407807721L117.6450439756958,144.1407407807721L117.9828191381958,155.0604932499815L118.3205943006958,144.1407407807721L118.65836946319581,144.1407407807721L118.9961446256958,155.0604932499815L119.3339197881958,155.0604932499815L119.6716949506958,144.1407407807721L120.00947011319579,144.1407407807721L120.34724527569581,144.1407407807721L120.6850204381958,144.1407407807721L121.0227956006958,144.1407407807721L121.3605707631958,155.0604932499815L121.6983459256958,144.1407407807721L122.0361210881958,144.1407407807721L122.3738962506958,144.1407407807721L122.7116714131958,144.1407407807721L123.04944657569581,144.1407407807721L123.3872217381958,144.1407407807721L123.7249969006958,155.0604932499815L124.0627720631958,144.1407407807721L124.40054722569579,144.1407407807721L124.73832238819581,144.1407407807721L125.0760975506958,144.1407407807721L125.4138727131958,155.0604932499815L125.7516478756958,155.0604932499815L126.0894230381958,144.1407407807721L126.4271982006958,127.76110850163323L126.76497336319581,162.3403291828744L127.1027485256958,155.0604932499815L127.4405236881958,144.1407407807721L127.7782988506958,144.1407407807721L128.1160740131958,144.1407407807721L128.4538491756958,155.0604932499815L128.7916243381958,144.1407407807721L129.1293995006958,155.0604932499815L129.4671746631958,144.1407407807721L129.80494982569581,144.1407407807721L130.1427249881958,144.1407407807721L130.4805001506958,155.0604932499815L130.81827531319578,144.1407407807721L131.1560504756958,127.76110850163323L131.4938256381958,162.3403291828744L131.8316008006958,155.0604932499815L132.16937596319582,144.1407407807721L132.5071511256958,144.1407407807721L132.8449262881958,155.0604932499815L133.1827014506958,144.1407407807721L133.5204766131958,162.3403291828744L133.85825177569578,155.0604932499815L134.19602693819579,144.1407407807721L134.53380210069582,155.0604932499815L134.8715772631958,144.1407407807721L135.2093524256958,144.1407407807721L135.5471275881958,144.1407407807721L135.8849027506958,144.1407407807721L136.2226779131958,155.0604932499815L136.5604530756958,155.0604932499815L136.8982282381958,144.1407407807721L137.2360034006958,162.3403291828744L137.57377856319582,155.0604932499815L137.9115537256958,144.1407407807721L138.2493288881958,144.1407407807721L138.5871040506958,144.1407407807721L138.9248792131958,144.1407407807721L139.2626543756958,144.1407407807721L139.60042953819578,155.0604932499815L139.9382047006958,144.1407407807721L140.2759798631958,144.1407407807721L140.6137550256958,144.1407407807721L140.95153018819582,144.1407407807721L141.2893053506958,144.1407407807721L141.6270805131958,144.1407407807721L141.9648556756958,155.0604932499815L142.3026308381958,144.1407407807721L142.6404060006958,155.0604932499815L142.97818116319579,144.1407407807721L143.31595632569582,144.1407407807721L143.6537314881958,155.0604932499815L143.9915066506958,155.0604932499815L144.3292818131958,144.1407407807721L144.6670569756958,162.3403291828744L145.0048321381958,155.0604932499815L145.3426073006958,144.1407407807721L145.6803824631958,144.1407407807721L146.01815762569578,144.1407407807721L146.35593278819582,155.0604932499815L146.69370795069582,144.1407407807721L147.0314831131958,144.1407407807721L147.3692582756958,162.3403291828744L147.7070334381958,155.0604932499815L148.0448086006958,144.1407407807721L148.38258376319578,162.3403291828744L148.7203589256958,155.0604932499815L149.0581340881958,144.1407407807721L149.3959092506958,162.3403291828744L149.73368441319582,155.0604932499815L150.0714595756958,144.1407407807721L150.4092347381958,144.1407407807721L150.7470099006958,155.0604932499815L151.0847850631958,144.1407407807721L151.4225602256958,155.0604932499815L151.76033538819578,155.0604932499815L152.0981105506958,155.0604932499815L152.4358857131958,155.0604932499815L152.7736608756958,144.1407407807721L153.11143603819582,162.3403291828744L153.4492112006958,155.0604932499815L153.7869863631958,144.1407407807721L154.1247615256958,127.76110850163323L154.4625366881958,144.1407407807721L154.80031185069578,144.1407407807721L155.1380870131958,144.1407407807721L155.47586217569582,144.1407407807721L155.8136373381958,167.1935521847164L156.1514125006958,155.0604932499815L156.4891876631958,155.0604932499815L156.8269628256958,155.0604932499815L157.16473798819578,144.1407407807721L157.5025131506958,144.1407407807721L157.8402883131958,155.0604932499815L158.1780634756958,144.1407407807721L158.51583863819582,162.3403291828744L158.8536138006958,155.0604932499815L159.1913889631958,144.1407407807721L159.52916412569581,155.0604932499815L159.8669392881958,144.1407407807721L160.2047144506958,144.1407407807721L160.54248961319578,144.1407407807721L160.8802647756958,144.1407407807721L161.2180399381958,155.0604932499815L161.5558151006958,144.1407407807721L161.89359026319582,144.1407407807721L162.2313654256958,144.1407407807721L162.5691405881958,144.1407407807721L162.9069157506958,144.1407407807721L163.2446909131958,144.1407407807721L163.5824660756958,144.1407407807721L163.92024123819579,144.1407407807721L164.25801640069582,144.1407407807721L164.5957915631958,144.1407407807721L164.9335667256958,155.0604932499815L165.2713418881958,155.0604932499815L165.6091170506958,144.1407407807721L165.9468922131958,144.1407407807721L166.2846673756958,155.0604932499815L166.6224425381958,144.1407407807721L166.96021770069578,144.1407407807721L167.29799286319582,144.1407407807721L167.6357680256958,155.0604932499815L167.9735431881958,155.0604932499815L168.3113183506958,144.1407407807721L168.6490935131958,144.1407407807721L168.9868686756958,144.1407407807721L169.32464383819578,144.1407407807721L169.6624190006958,162.3403291828744L170.0001941631958,155.0604932499815L170.3379693256958,144.1407407807721L170.67574448819582,144.1407407807721L171.0135196506958,144.1407407807721L171.3512948131958,144.1407407807721L171.6890699756958,144.1407407807721L172.0268451381958,155.0604932499815L172.3646203006958,144.1407407807721L172.70239546319578,155.0604932499815L173.0401706256958,144.1407407807721L173.3779457881958,155.0604932499815L173.7157209506958,155.0604932499815L174.05349611319582,144.1407407807721L174.3912712756958,155.0604932499815L174.7290464381958,144.1407407807721L175.0668216006958,162.3403291828744L175.4045967631958,155.0604932499815L175.74237192569578,144.1407407807721L176.08014708819582,144.1407407807721L176.41792225069582,162.3403291828744L176.7556974131958,155.0604932499815L177.0934725756958,144.1407407807721L177.4312477381958,162.3403291828744L177.7690229006958,155.0604932499815L178.10679806319578,144.1407407807721L178.4445732256958,155.0604932499815L178.7823483881958,162.3403291828744L179.1201235506958,155.0604932499815L179.45789871319582,144.1407407807721L179.7956738756958,155.0604932499815L180.1334490381958,155.0604932499815L180.47122420069581,144.1407407807721L180.8089993631958,144.1407407807721L181.1467745256958,162.3403291828744L181.48454968819578,155.0604932499815L181.8223248506958,144.1407407807721L182.1601000131958,144.1407407807721L182.4978751756958,162.3403291828744L182.83565033819582,155.0604932499815L183.1734255006958,155.0604932499815L183.5112006631958,144.1407407807721L183.8489758256958,162.3403291828744L184.1867509881958,155.0604932499815L184.52452615069578,144.1407407807721L184.8623013131958,162.3403291828744L185.20007647569582,155.0604932499815L185.5378516381958,144.1407407807721L185.8756268006958,144.1407407807721L186.2134019631958,162.3403291828744L186.5511771256958,155.0604932499815L186.8889522881958,144.1407407807721L187.2267274506958,155.0604932499815L187.5645026131958,155.0604932499815L187.90227777569578,155.0604932499815L188.24005293819582,155.0604932499815L188.5778281006958,155.0604932499815L188.9156032631958,155.0604932499815L189.25337842569581,144.1407407807721L189.5911535881958,155.0604932499815L189.9289287506958,144.1407407807721L190.26670391319578,162.3403291828744L190.6044790756958,155.0604932499815L190.9422542381958,162.3403291828744L191.2800294006958,155.0604932499815L191.61780456319582,144.1407407807721L191.9555797256958,162.3403291828744L192.2933548881958,155.0604932499815L192.6311300506958,144.1407407807721L192.9689052131958,155.0604932499815L193.3066803756958,155.0604932499815L193.64445553819579,155.0604932499815L193.9822307006958,144.1407407807721L194.3200058631958,144.1407407807721L194.6577810256958,155.0604932499815L194.9955561881958,144.1407407807721L195.3333313506958,155.0604932499815L195.6711065131958,155.0604932499815L196.0088816756958,144.1407407807721L196.3466568381958,144.1407407807721L196.68443200069578,155.0604932499815L197.02220716319582,144.1407407807721L197.35998232569582,144.1407407807721L197.6977574881958,162.3403291828744L198.0355326506958,155.0604932499815L198.3733078131958,155.0604932499815L198.7110829756958,144.1407407807721L199.04885813819578,155.0604932499815L199.3866333006958,155.0604932499815L199.7244084631958,144.1407407807721L200.0621836256958,144.1407407807721L200.39995878819582,144.1407407807721L200.7377339506958,155.0604932499815L201.0755091131958,155.0604932499815L201.41328427569582,155.0604932499815L201.7510594381958,155.0604932499815L202.0888346006958,155.0604932499815L202.42660976319578,144.1407407807721L202.7643849256958,167.1935521847164L203.1021600881958,162.3403291828744L203.4399352506958,155.0604932499815L203.77771041319582,144.1407407807721L204.1154855756958,155.0604932499815L204.4532607381958,155.0604932499815L204.7910359006958,144.1407407807721L205.1288110631958,155.0604932499815L205.46658622569578,144.1407407807721L205.8043613881958,144.1407407807721L206.14213655069582,144.1407407807721L206.4799117131958,167.1935521847164L206.8176868756958,162.3403291828744L207.1554620381958,155.0604932499815L207.4932372006958,144.1407407807721L207.8310123631958,144.1407407807721L208.1687875256958,144.1407407807721L208.5065626881958,144.1407407807721L208.84433785069578,162.3403291828744L209.18211301319582,155.0604932499815L209.5198881756958,155.0604932499815L209.8576633381958,162.3403291828744L210.19543850069581,155.0604932499815L210.5332136631958,144.1407407807721L210.8709888256958,144.1407407807721L211.20876398819578,144.1407407807721L211.5465391506958,144.1407407807721L211.88431431319577,155.0604932499815L212.2220894756958,144.1407407807721L212.55986463819582,144.1407407807721L212.8976398006958,155.0604932499815L213.2354149631958,155.0604932499815L213.5731901256958,155.0604932499815L213.9109652881958,144.1407407807721L214.2487404506958,144.1407407807721L214.5865156131958,162.3403291828744L214.9242907756958,155.0604932499815L215.2620659381958,144.1407407807721L215.5998411006958,155.0604932499815L215.9376162631958,155.0604932499815L216.2753914256958,144.1407407807721L216.6131665881958,162.3403291828744L216.9509417506958,155.0604932499815L217.2887169131958,144.1407407807721L217.62649207569578,155.0604932499815L217.96426723819582,144.1407407807721L218.30204240069583,162.3403291828744L218.6398175631958,155.0604932499815L218.9775927256958,155.0604932499815L219.3153678881958,144.1407407807721L219.6531430506958,144.1407407807721L219.99091821319578,155.0604932499815L220.3286933756958,155.0604932499815L220.6664685381958,144.1407407807721L221.0042437006958,155.0604932499815L221.34201886319582,155.0604932499815L221.6797940256958,144.1407407807721L222.0175691881958,155.0604932499815L222.3553443506958,155.0604932499815L222.6931195131958,144.1407407807721L223.0308946756958,162.3403291828744L223.36866983819579,155.0604932499815L223.7064450006958,155.0604932499815L224.0442201631958,155.0604932499815L224.3819953256958,162.3403291828744L224.71977048819582,155.0604932499815L225.0575456506958,155.0604932499815L225.3953208131958,155.0604932499815L225.7330959756958,144.1407407807721L226.0708711381958,155.0604932499815L226.40864630069578,155.0604932499815L226.7464214631958,144.1407407807721L227.08419662569582,162.3403291828744L227.4219717881958,162.3403291828744L227.7597469506958,144.1407407807721L228.0975221131958,144.1407407807721L228.4352972756958,162.3403291828744L228.77307243819578,155.0604932499815L229.1108476006958,144.1407407807721L229.4486227631958,155.0604932499815L229.78639792569578,155.0604932499815L230.12417308819582,144.1407407807721L230.4619482506958,144.1407407807721L230.7997234131958,162.3403291828744L231.13749857569582,155.0604932499815L231.4752737381958,155.0604932499815L231.8130489006958,144.1407407807721L232.15082406319578,144.1407407807721L232.4885992256958,162.3403291828744L232.82637438819577,155.0604932499815L233.1641495506958,162.3403291828744L233.50192471319582,155.0604932499815L233.8396998756958,144.1407407807721L234.1774750381958,155.0604932499815L234.5152502006958,162.3403291828744" fill="none"></path></g></g></g></g></g></g><g transform="translate(72, 176)" clip-path="url(#clip_1)"><clipPath id="clip_1"><rect width="257" height="23"></rect></clipPath><g><g><line x1="0" y1="0" x2="0" y2="5" style="visibility: inherit;" fill="rgb(0, 0, 0)" stroke="rgb(204, 204, 204)" stroke-width="1px"></line><line x1="25.7701997756958" y1="0" x2="25.7701997756958" y2="5" style="visibility: inherit;" fill="rgb(0, 0, 0)" stroke="rgb(204, 204, 204)" stroke-width="1px"></line><line x1="51.5403995513916" y1="0" x2="51.5403995513916" y2="5" style="visibility: inherit;" fill="rgb(0, 0, 0)" stroke="rgb(204, 204, 204)" stroke-width="1px"></line><line x1="77.3105993270874" y1="0" x2="77.3105993270874" y2="5" style="visibility: inherit;" fill="rgb(0, 0, 0)" stroke="rgb(204, 204, 204)" stroke-width="1px"></line><line x1="103.0807991027832" y1="0" x2="103.0807991027832" y2="5" style="visibility: inherit;" fill="rgb(0, 0, 0)" stroke="rgb(204, 204, 204)" stroke-width="1px"></line><line x1="128.850998878479" y1="0" x2="128.850998878479" y2="5" style="visibility: inherit;" fill="rgb(0, 0, 0)" stroke="rgb(204, 204, 204)" stroke-width="1px"></line><line x1="154.6211986541748" y1="0" x2="154.6211986541748" y2="5" style="visibility: inherit;" fill="rgb(0, 0, 0)" stroke="rgb(204, 204, 204)" stroke-width="1px"></line><line x1="180.3913984298706" y1="0" x2="180.3913984298706" y2="5" style="visibility: inherit;" fill="rgb(0, 0, 0)" stroke="rgb(204, 204, 204)" stroke-width="1px"></line><line x1="206.1615982055664" y1="0" x2="206.1615982055664" y2="5" style="visibility: inherit;" fill="rgb(0, 0, 0)" stroke="rgb(204, 204, 204)" stroke-width="1px"></line><line x1="231.9317979812622" y1="0" x2="231.9317979812622" y2="5" style="visibility: inherit;" fill="rgb(0, 0, 0)" stroke="rgb(204, 204, 204)" stroke-width="1px"></line><line x1="257.701997756958" y1="0" x2="257.701997756958" y2="5" style="visibility: inherit;" fill="rgb(0, 0, 0)" stroke="rgb(204, 204, 204)" stroke-width="1px"></line></g><g transform="translate(0, 8)"><text style="text-anchor: middle; visibility: hidden; font-family: Roboto, sans-serif; font-size: 12px; font-weight: 200;" x="0" y="0" dx="0em" dy="0.95em" fill="rgb(33, 33, 33)" stroke="none" stroke-width="1px">-10M</text><text style="text-anchor: middle; visibility: inherit; font-family: Roboto, sans-serif; font-size: 12px; font-weight: 200;" x="25.7701997756958" y="0" dx="0em" dy="0.95em" fill="rgb(33, 33, 33)" stroke="none" stroke-width="1px">0</text><text style="text-anchor: middle; visibility: hidden; font-family: Roboto, sans-serif; font-size: 12px; font-weight: 200;" x="51.5403995513916" y="0" dx="0em" dy="0.95em" fill="rgb(33, 33, 33)" stroke="none" stroke-width="1px">10M</text><text style="text-anchor: middle; visibility: inherit; font-family: Roboto, sans-serif; font-size: 12px; font-weight: 200;" x="77.3105993270874" y="0" dx="0em" dy="0.95em" fill="rgb(33, 33, 33)" stroke="none" stroke-width="1px">20M</text><text style="text-anchor: middle; visibility: hidden; font-family: Roboto, sans-serif; font-size: 12px; font-weight: 200;" x="103.0807991027832" y="0" dx="0em" dy="0.95em" fill="rgb(33, 33, 33)" stroke="none" stroke-width="1px">30M</text><text style="text-anchor: middle; visibility: inherit; font-family: Roboto, sans-serif; font-size: 12px; font-weight: 200;" x="128.850998878479" y="0" dx="0em" dy="0.95em" fill="rgb(33, 33, 33)" stroke="none" stroke-width="1px">40M</text><text style="text-anchor: middle; visibility: hidden; font-family: Roboto, sans-serif; font-size: 12px; font-weight: 200;" x="154.6211986541748" y="0" dx="0em" dy="0.95em" fill="rgb(33, 33, 33)" stroke="none" stroke-width="1px">50M</text><text style="text-anchor: middle; visibility: inherit; font-family: Roboto, sans-serif; font-size: 12px; font-weight: 200;" x="180.3913984298706" y="0" dx="0em" dy="0.95em" fill="rgb(33, 33, 33)" stroke="none" stroke-width="1px">60M</text><text style="text-anchor: middle; visibility: hidden; font-family: Roboto, sans-serif; font-size: 12px; font-weight: 200;" x="206.1615982055664" y="0" dx="0em" dy="0.95em" fill="rgb(33, 33, 33)" stroke="none" stroke-width="1px">70M</text><text style="text-anchor: middle; visibility: inherit; font-family: Roboto, sans-serif; font-size: 12px; font-weight: 200;" x="231.9317979812622" y="0" dx="0em" dy="0.95em" fill="rgb(33, 33, 33)" stroke="none" stroke-width="1px">80M</text><text style="text-anchor: middle; visibility: hidden; font-family: Roboto, sans-serif; font-size: 12px; font-weight: 200;" x="257.701997756958" y="0" dx="0em" dy="0.95em" fill="rgb(33, 33, 33)" stroke="none" stroke-width="1px">90M</text></g><line x1="0" y1="0" x2="257.701997756958" y2="0" fill="rgb(0, 0, 0)" stroke="rgb(204, 204, 204)" stroke-width="1px"></line></g></g></g></g></svg>