<svg viewBox="0 0 330 200" xmlns="http://www.w3.org/2000/svg"><g><g><g><g><g><line x1="41.149001121520996" y1="176.89999961853027" x2="36.149001121520996" y2="176.89999961853027" style="visibility: inherit;" fill="rgb(0, 0, 0)" stroke="rgb(204, 204, 204)" stroke-width="1px"></line><line x1="41.149001121520996" y1="159.20999965667724" x2="36.149001121520996" y2="159.20999965667724" style="visibility: inherit;" fill="rgb(0, 0, 0)" stroke="rgb(204, 204, 204)" stroke-width="1px"></line><line x1="41.149001121520996" y1="141.51999969482424" x2="36.149001121520996" y2="141.51999969482424" style="visibility: inherit;" fill="rgb(0, 0, 0)" stroke="rgb(204, 204, 204)" stroke-width="1px"></line><line x1="41.149001121520996" y1="123.82999973297119" x2="36.149001121520996" y2="123.82999973297119" style="visibility: inherit;" fill="rgb(0, 0, 0)" stroke="rgb(204, 204, 204)" stroke-width="1px"></line><line x1="41.149001121520996" y1="106.13999977111816" x2="36.149001121520996" y2="106.13999977111816" style="visibility: inherit;" fill="rgb(0, 0, 0)" stroke="rgb(204, 204, 204)" stroke-width="1px"></line><line x1="41.149001121520996" y1="88.44999980926514" x2="36.149001121520996" y2="88.44999980926514" style="visibility: inherit;" fill="rgb(0, 0, 0)" stroke="rgb(204, 204, 204)" stroke-width="1px"></line><line x1="41.149001121520996" y1="70.75999984741212" x2="36.149001121520996" y2="70.75999984741212" style="visibility: inherit;" fill="rgb(0, 0, 0)" stroke="rgb(204, 204, 204)" stroke-width="1px"></line><line x1="41.149001121520996" y1="53.06999988555909" x2="36.149001121520996" y2="53.06999988555909" style="visibility: inherit;" fill="rgb(0, 0, 0)" stroke="rgb(204, 204, 204)" stroke-width="1px"></line><line x1="41.149001121520996" y1="35.379999923706045" x2="36.149001121520996" y2="35.379999923706045" style="visibility: inherit;" fill="rgb(0, 0, 0)" stroke="rgb(204, 204, 204)" stroke-width="1px"></line><line x1="41.149001121520996" y1="17.689999961853022" x2="36.149001121520996" y2="17.689999961853022" style="visibility: inherit;" fill="rgb(0, 0, 0)" stroke="rgb(204, 204, 204)" stroke-width="1px"></line><line x1="41.149001121520996" y1="0" x2="36.149001121520996" y2="0" style="visibility: inherit;" fill="rgb(0, 0, 0)" stroke="rgb(204, 204, 204)" stroke-width="1px"></line></g><g transform="translate(31.149001121520996, 0)"><text style="text-anchor: end; visibility: hidden; font-family: Roboto, sans-serif; font-size: 12px; font-weight: 200;" x="0" y="176.89999961853027" dx="0em" dy="0.3em" fill="rgb(33, 33, 33)" stroke="none" stroke-width="1px">0</text><text style="text-anchor: end; visibility: inherit; font-family: Roboto, sans-serif; font-size: 12px; font-weight: 200;" x="0" y="159.20999965667724" dx="0em" dy="0.3em" fill="rgb(33, 33, 33)" stroke="none" stroke-width="1px">0.2</text><text style="text-anchor: end; visibility: hidden; font-family: Roboto, sans-serif; font-size: 12px; font-weight: 200;" x="0" y="141.51999969482424" dx="0em" dy="0.3em" fill="rgb(33, 33, 33)" stroke="none" stroke-width="1px">0.4</text><text style="text-anchor: end; visibility: inherit; font-family: Roboto, sans-serif; font-size: 12px; font-weight: 200;" x="0" y="123.82999973297119" dx="0em" dy="0.3em" fill="rgb(33, 33, 33)" stroke="none" stroke-width="1px">0.6</text><text style="text-anchor: end; visibility: hidden; font-family: Roboto, sans-serif; font-size: 12px; font-weight: 200;" x="0" y="106.13999977111816" dx="0em" dy="0.3em" fill="rgb(33, 33, 33)" stroke="none" stroke-width="1px">0.8</text><text style="text-anchor: end; visibility: inherit; font-family: Roboto, sans-serif; font-size: 12px; font-weight: 200;" x="0" y="88.44999980926514" dx="0em" dy="0.3em" fill="rgb(33, 33, 33)" stroke="none" stroke-width="1px">1</text><text style="text-anchor: end; visibility: hidden; font-family: Roboto, sans-serif; font-size: 12px; font-weight: 200;" x="0" y="70.75999984741212" dx="0em" dy="0.3em" fill="rgb(33, 33, 33)" stroke="none" stroke-width="1px">1.2</text><text style="text-anchor: end; visibility: inherit; font-family: Roboto, sans-serif; font-size: 12px; font-weight: 200;" x="0" y="53.06999988555909" dx="0em" dy="0.3em" fill="rgb(33, 33, 33)" stroke="none" stroke-width="1px">1.4</text><text style="text-anchor: end; visibility: hidden; font-family: Roboto, sans-serif; font-size: 12px; font-weight: 200;" x="0" y="35.379999923706045" dx="0em" dy="0.3em" fill="rgb(33, 33, 33)" stroke="none" stroke-width="1px">1.6</text><text style="text-anchor: end; visibility: inherit; font-family: Roboto, sans-serif; font-size: 12px; font-weight: 200;" x="0" y="17.689999961853022" dx="0em" dy="0.3em" fill="rgb(33, 33, 33)" stroke="none" stroke-width="1px">1.8</text><text style="text-anchor: end; visibility: hidden; font-family: Roboto, sans-serif; font-size: 12px; font-weight: 200;" x="0" y="0" dx="0em" dy="0.3em" fill="rgb(33, 33, 33)" stroke="none" stroke-width="1px">2</text></g><line x1="41.149001121520996" y1="0" x2="41.149001121520996" y2="176.89999961853027" fill="rgb(0, 0, 0)" stroke="rgb(204, 204, 204)" stroke-width="1px"></line></g></g><g transform="translate(41, 0)" clip-path="url(#clip_0)"><clipPath id="clip_0"><rect width="288" height="176"></rect></clipPath><g><g><g><line x1="0" y1="0" x2="0" y2="176.89999961853027" fill="rgb(0, 0, 0)" stroke="rgb(66, 66, 66)" stroke-width="1px" opacity="0.25"></line><line x1="28.8850998878479" y1="0" x2="28.8850998878479" y2="176.89999961853027" fill="rgb(0, 0, 0)" stroke="rgb(66, 66, 66)" stroke-width="1px" opacity="0.25"></line><line x1="57.7701997756958" y1="0" x2="57.7701997756958" y2="176.89999961853027" fill="rgb(0, 0, 0)" stroke="rgb(66, 66, 66)" stroke-width="1px" opacity="0.25"></line><line x1="86.6552996635437" y1="0" x2="86.6552996635437" y2="176.89999961853027" fill="rgb(0, 0, 0)" stroke="rgb(66, 66, 66)" stroke-width="1px" opacity="0.25"></line><line x1="115.5403995513916" y1="0" x2="115.5403995513916" y2="176.89999961853027" fill="rgb(0, 0, 0)" stroke="rgb(66, 66, 66)" stroke-width="1px" opacity="0.25"></line><line x1="144.4254994392395" y1="0" x2="144.4254994392395" y2="176.89999961853027" fill="rgb(0, 0, 0)" stroke="rgb(66, 66, 66)" stroke-width="1px" opacity="0.25"></line><line x1="173.3105993270874" y1="0" x2="173.3105993270874" y2="176.89999961853027" fill="rgb(0, 0, 0)" stroke="rgb(66, 66, 66)" stroke-width="1px" opacity="0.25"></line><line x1="202.1956992149353" y1="0" x2="202.1956992149353" y2="176.89999961853027" fill="rgb(0, 0, 0)" stroke="rgb(66, 66, 66)" stroke-width="1px" opacity="0.25"></line><line x1="231.0807991027832" y1="0" x2="231.0807991027832" y2="176.89999961853027" fill="rgb(0, 0, 0)" stroke="rgb(66, 66, 66)" stroke-width="1px" opacity="0.25"></line><line x1="259.9658989906311" y1="0" x2="259.9658989906311" y2="176.89999961853027" fill="rgb(0, 0, 0)" stroke="rgb(66, 66, 66)" stroke-width="1px" opacity="0.25"></line><line x1="288.850998878479" y1="0" x2="288.850998878479" y2="176.89999961853027" fill="rgb(0, 0, 0)" stroke="rgb(66, 66, 66)" stroke-width="1px" opacity="0.25"></line></g><g><line x1="0" y1="176.89999961853027" x2="288.850998878479" y2="176.89999961853027" fill="rgb(0, 0, 0)" stroke="rgb(66, 66, 66)" stroke-width="1px" opacity="0.25"></line><line x1="0" y1="159.20999965667724" x2="288.850998878479" y2="159.20999965667724" fill="rgb(0, 0, 0)" stroke="rgb(66, 66, 66)" stroke-width="1px" opacity="0.25"></line><line x1="0" y1="141.51999969482424" x2="288.850998878479" y2="141.51999969482424" fill="rgb(0, 0, 0)" stroke="rgb(66, 66, 66)" stroke-width="1px" opacity="0.25"></line><line x1="0" y1="123.82999973297119" x2="288.850998878479" y2="123.82999973297119" fill="rgb(0, 0, 0)" stroke="rgb(66, 66, 66)" stroke-width="1px" opacity="0.25"></line><line x1="0" y1="106.13999977111816" x2="288.850998878479" y2="106.13999977111816" fill="rgb(0, 0, 0)" stroke="rgb(66, 66, 66)" stroke-width="1px" opacity="0.25"></line><line x1="0" y1="88.44999980926514" x2="288.850998878479" y2="88.44999980926514" fill="rgb(0, 0, 0)" stroke="rgb(66, 66, 66)" stroke-width="1px" opacity="0.25"></line><line x1="0" y1="70.75999984741212" x2="288.850998878479" y2="70.75999984741212" fill="rgb(0, 0, 0)" stroke="rgb(66, 66, 66)" stroke-width="1px" opacity="0.25"></line><line x1="0" y1="53.06999988555909" x2="288.850998878479" y2="53.06999988555909" fill="rgb(0, 0, 0)" stroke="rgb(66, 66, 66)" stroke-width="1px" opacity="0.25"></line><line x1="0" y1="35.379999923706045" x2="288.850998878479" y2="35.379999923706045" fill="rgb(0, 0, 0)" stroke="rgb(66, 66, 66)" stroke-width="1px" opacity="0.25"></line><line x1="0" y1="17.689999961853022" x2="288.850998878479" y2="17.689999961853022" fill="rgb(0, 0, 0)" stroke="rgb(66, 66, 66)" stroke-width="1px" opacity="0.25"></line><line x1="0" y1="0" x2="288.850998878479" y2="0" fill="rgb(0, 0, 0)" stroke="rgb(66, 66, 66)" stroke-width="1px" opacity="0.25"></line></g></g></g><g><g><line x1="0" y1="176.89999961853027" x2="288.850998878479" y2="176.89999961853027" fill="rgb(0, 0, 0)" stroke="rgb(153, 153, 153)" stroke-width="1.5px"></line></g></g><g><g><line x1="28.8850998878479" y1="0" x2="28.8850998878479" y2="176.89999961853027" fill="rgb(0, 0, 0)" stroke="rgb(153, 153, 153)" stroke-width="1.5px"></line></g></g><g><g><g><g><g><path style="fill: none;" stroke="rgb(0, 153, 136)" stroke-width="2px" d="M28.8850998878479,88.44999980926514L29.263702669097903,88.44999980926514L29.642305450347898,88.44999980926514L30.0209082315979,88.44999980926514L30.3995110128479,88.44999980926514L30.7781137940979,88.44999980926514L31.1567165753479,88.44999980926514L31.5353193565979,88.44999980926514L31.9139221378479,88.44999980926514L32.2925249190979,88.44999980926514L32.6711277003479,88.44999980926514L33.049730481597905,88.44999980926514L33.4283332628479,88.44999980926514L33.806936044097895,88.44999980926514L34.1855388253479,88.44999980926514L34.5641416065979,88.44999980926514L34.9427443878479,88.44999980926514L35.3213471690979,88.44999980926514L35.6999499503479,88.44999980926514L36.0785527315979,88.44999980926514L36.457155512847905,88.44999980926514L36.8357582940979,88.44999980926514L37.2143610753479,88.44999980926514L37.5929638565979,88.44999980926514L37.9715666378479,88.44999980926514L38.3501694190979,88.44999980926514L38.728772200347905,88.44999980926514L39.1073749815979,88.44999980926514L39.485977762847895,88.44999980926514L39.864580544097905,88.44999980926514L40.2431833253479,88.44999980926514L40.6217861065979,88.44999980926514L41.0003888878479,88.44999980926514L41.3789916690979,88.44999980926514L41.7575944503479,88.44999980926514L42.136197231597905,88.44999980926514L42.5148000128479,88.44999980926514L42.8934027940979,88.44999980926514L43.2720055753479,88.44999980926514L43.6506083565979,88.44999980926514L44.0292111378479,88.44999980926514L44.4078139190979,88.44999980926514L44.7864167003479,88.44999980926514L45.165019481597895,88.44999980926514L45.543622262847904,88.44999980926514L45.9222250440979,88.44999980926514L46.3008278253479,88.44999980926514L46.6794306065979,88.44999980926514L47.05803338784791,88.44999980926514L47.4366361690979,88.44999980926514L47.8152389503479,88.44999980926514L48.1938417315979,88.44999980926514L48.572444512847895,88.44999980926514L48.951047294097904,88.44999980926514L49.3296500753479,88.44999980926514L49.7082528565979,88.44999980926514L50.0868556378479,88.44999980926514L50.46545841909791,88.44999980926514L50.8440612003479,88.44999980926514L51.2226639815979,88.44999980926514L51.6012667628479,88.44999980926514L51.979869544097895,88.44999980926514L52.358472325347904,88.44999980926514L52.7370751065979,88.44999980926514L53.1156778878479,88.44999980926514L53.4942806690979,88.44999980926514L53.872883450347906,88.44999980926514L54.2514862315979,88.44999980926514L54.630089012847904,88.44999980926514L55.0086917940979,88.44999980926514L55.387294575347894,88.44999980926514L55.765897356597904,88.44999980926514L56.1445001378479,88.44999980926514L56.5231029190979,88.44999980926514L56.9017057003479,88.44999980926514L57.280308481597906,88.44999980926514L57.6589112628479,88.44999980926514L58.037514044097904,88.44999980926514L58.4161168253479,88.44999980926514L58.7947196065979,88.44999980926514L59.173322387847904,88.44999980926514L59.5519251690979,88.44999980926514L59.9305279503479,88.44999980926514L60.3091307315979,88.44999980926514L60.6877335128479,88.44999980926514L61.0663362940979,88.44999980926514L61.444939075347904,88.44999980926514L61.8235418565979,88.44999980926514L62.2021446378479,88.44999980926514L62.580747419097904,88.44999980926514L62.9593502003479,88.44999980926514L63.3379529815979,88.44999980926514L63.7165557628479,88.44999980926514L64.0951585440979,88.44999980926514L64.4737613253479,88.44999980926514L64.8523641065979,88.44999980926514L65.2309668878479,88.44999980926514L65.60956966909791,88.44999980926514L65.9881724503479,88.44999980926514L66.3667752315979,88.44999980926514L66.7453780128479,88.44999980926514L67.1239807940979,88.44999980926514L67.5025835753479,88.44999980926514L67.8811863565979,88.44999980926514L68.2597891378479,88.44999980926514L68.6383919190979,88.44999980926514L69.01699470034791,88.44999980926514L69.3955974815979,88.44999980926514L69.7742002628479,88.44999980926514L70.1528030440979,88.44999980926514L70.5314058253479,88.44999980926514L70.9100086065979,88.44999980926514L71.2886113878479,88.44999980926514L71.6672141690979,88.44999980926514L72.0458169503479,88.44999980926514L72.4244197315979,88.44999980926514L72.8030225128479,88.44999980926514L73.1816252940979,88.44999980926514L73.5602280753479,88.44999980926514L73.93883085659789,88.44999980926514L74.31743363784791,88.44999980926514L74.69603641909791,88.44999980926514L75.0746392003479,88.44999980926514L75.4532419815979,88.44999980926514L75.8318447628479,88.44999980926514L76.2104475440979,88.44999980926514L76.5890503253479,88.44999980926514L76.9676531065979,88.44999980926514L77.34625588784789,88.44999980926514L77.72485866909791,88.44999980926514L78.10346145034791,88.44999980926514L78.4820642315979,88.44999980926514L78.8606670128479,88.44999980926514L79.2392697940979,88.44999980926514L79.6178725753479,88.44999980926514L79.9964753565979,88.44999980926514L80.3750781378479,88.44999980926514L80.75368091909789,88.44999980926514L81.13228370034791,88.44999980926514L81.51088648159791,88.44999980926514L81.8894892628479,88.44999980926514L82.2680920440979,88.44999980926514L82.64669482534791,88.44999980926514L83.0252976065979,88.44999980926514L83.4039003878479,88.44999980926514L83.7825031690979,88.44999980926514L84.16110595034789,88.44999980926514L84.53970873159791,88.44999980926514L84.91831151284791,88.44999980926514L85.2969142940979,88.44999980926514L85.6755170753479,88.44999980926514L86.05411985659791,88.44999980926514L86.4327226378479,88.44999980926514L86.8113254190979,88.44999980926514L87.1899282003479,88.44999980926514L87.56853098159789,88.44999980926514L87.94713376284791,88.44999980926514L88.32573654409791,88.44999980926514L88.7043393253479,88.44999980926514L89.0829421065979,88.44999980926514L89.46154488784791,88.44999980926514L89.8401476690979,88.44999980926514L90.2187504503479,88.44999980926514L90.59735323159789,88.44999980926514L90.97595601284789,88.44999980926514L91.35455879409791,88.44999980926514L91.7331615753479,88.44999980926514L92.1117643565979,88.44999980926514L92.4903671378479,88.44999980926514L92.8689699190979,88.44999980926514L93.2475727003479,88.44999980926514L93.6261754815979,88.44999980926514L94.00477826284789,88.44999980926514L94.3833810440979,88.44999980926514L94.76198382534791,88.44999980926514L95.1405866065979,88.44999980926514L95.5191893878479,88.44999980926514L95.8977921690979,88.44999980926514L96.2763949503479,88.44999980926514L96.6549977315979,88.44999980926514L97.0336005128479,88.44999980926514L97.41220329409789,88.44999980926514L97.7908060753479,88.44999980926514L98.1694088565979,88.44999980926514L98.5480116378479,88.44999980926514L98.9266144190979,88.44999980926514L99.3052172003479,88.44999980926514L99.6838199815979,88.44999980926514L100.0624227628479,88.44999980926514L100.4410255440979,88.44999980926514L100.81962832534789,88.44999980926514L101.1982311065979,88.44999980926514L101.5768338878479,88.44999980926514L101.9554366690979,88.44999980926514L102.3340394503479,88.44999980926514L102.7126422315979,88.44999980926514L103.0912450128479,88.44999980926514L103.4698477940979,88.44999980926514L103.8484505753479,88.44999980926514L104.22705335659789,88.44999980926514L104.6056561378479,88.44999980926514L104.9842589190979,88.44999980926514L105.3628617003479,88.44999980926514L105.7414644815979,88.44999980926514L106.12006726284791,88.44999980926514L106.4986700440979,88.44999980926514L106.8772728253479,88.44999980926514L107.2558756065979,88.44999980926514L107.63447838784789,88.44999980926514L108.0130811690979,88.44999980926514L108.3916839503479,88.44999980926514L108.77028673159789,88.44999980926514L109.1488895128479,88.44999980926514L109.52749229409791,88.44999980926514L109.9060950753479,88.44999980926514L110.2846978565979,88.44999980926514L110.6633006378479,88.44999980926514L111.04190341909789,88.44999980926514L111.4205062003479,88.44999980926514L111.7991089815979,88.44999980926514L112.17771176284789,88.44999980926514L112.5563145440979,88.44999980926514L112.93491732534791,88.44999980926514L113.3135201065979,88.44999980926514L113.6921228878479,88.44999980926514L114.0707256690979,88.44999980926514L114.44932845034789,88.44999980926514L114.8279312315979,88.44999980926514L115.2065340128479,88.44999980926514L115.58513679409789,88.44999980926514L115.96373957534789,88.44999980926514L116.34234235659791,88.44999980926514L116.7209451378479,88.44999980926514L117.0995479190979,88.44999980926514L117.4781507003479,88.44999980926514L117.8567534815979,88.44999980926514L118.2353562628479,88.44999980926514L118.6139590440979,88.44999980926514L118.99256182534789,88.44999980926514L119.37116460659789,88.44999980926514L119.74976738784791,88.44999980926514L120.1283701690979,88.44999980926514L120.5069729503479,88.44999980926514L120.8855757315979,88.44999980926514L121.2641785128479,88.44999980926514L121.6427812940979,88.44999980926514L122.0213840753479,88.44999980926514L122.39998685659789,88.44999980926514L122.77858963784789,88.44999980926514L123.15719241909791,88.44999980926514L123.5357952003479,88.44999980926514L123.9143979815979,88.44999980926514L124.2930007628479,88.44999980926514L124.6716035440979,88.44999980926514L125.0502063253479,88.44999980926514L125.4288091065979,88.44999980926514L125.80741188784789,88.44999980926514L126.18601466909789,88.44999980926514L126.56461745034791,88.44999980926514L126.9432202315979,88.44999980926514L127.3218230128479,88.44999980926514L127.7004257940979,88.44999980926514L128.0790285753479,88.44999980926514L128.45763135659791,88.44999980926514L128.8362341378479,88.44999980926514L129.2148369190979,88.44999980926514L129.59343970034791,88.44999980926514L129.9720424815979,88.44999980926514L130.3506452628479,88.44999980926514L130.7292480440979,88.44999980926514L131.1078508253479,88.44999980926514L131.4864536065979,88.44999980926514L131.86505638784791,88.44999980926514L132.2436591690979,88.44999980926514L132.6222619503479,88.44999980926514L133.00086473159791,88.44999980926514L133.3794675128479,88.44999980926514L133.7580702940979,88.44999980926514L134.1366730753479,88.44999980926514L134.5152758565979,88.44999980926514L134.8938786378479,88.44999980926514L135.27248141909791,88.44999980926514L135.6510842003479,88.44999980926514L136.0296869815979,88.44999980926514L136.40828976284791,88.44999980926514L136.7868925440979,88.44999980926514L137.1654953253479,88.44999980926514L137.5440981065979,88.44999980926514L137.9227008878479,88.44999980926514L138.3013036690979,88.44999980926514L138.67990645034791,88.44999980926514L139.0585092315979,88.44999980926514L139.4371120128479,88.44999980926514L139.81571479409791,88.44999980926514L140.1943175753479,88.44999980926514L140.5729203565979,88.44999980926514L140.9515231378479,88.44999980926514L141.3301259190979,88.44999980926514L141.7087287003479,88.44999980926514L142.08733148159791,88.44999980926514L142.4659342628479,88.44999980926514L142.8445370440979,88.44999980926514L143.22313982534791,88.44999980926514L143.6017426065979,88.44999980926514L143.9803453878479,88.44999980926514L144.35894816909789,88.44999980926514L144.7375509503479,88.44999980926514L145.1161537315979,88.44999980926514L145.4947565128479,88.44999980926514L145.8733592940979,88.44999980926514L146.2519620753479,88.44999980926514L146.63056485659789,88.44999980926514L147.0091676378479,88.44999980926514L147.3877704190979,88.44999980926514L147.7663732003479,88.44999980926514L148.1449759815979,88.44999980926514L148.5235787628479,88.44999980926514L148.90218154409789,88.44999980926514L149.2807843253479,88.44999980926514L149.6593871065979,88.44999980926514L150.03798988784789,88.44999980926514L150.4165926690979,88.44999980926514L150.7951954503479,88.44999980926514L151.1737982315979,88.44999980926514L151.5524010128479,88.44999980926514L151.9310037940979,88.44999980926514L152.30960657534789,88.44999980926514L152.6882093565979,88.44999980926514L153.0668121378479,88.44999980926514L153.44541491909789,88.44999980926514L153.82401770034792,88.44999980926514L154.2026204815979,88.44999980926514L154.5812232628479,88.44999980926514L154.9598260440979,88.44999980926514L155.3384288253479,88.44999980926514L155.71703160659789,88.44999980926514L156.0956343878479,88.44999980926514L156.4742371690979,88.44999980926514L156.85283995034789,88.44999980926514L157.23144273159792,88.44999980926514L157.6100455128479,88.44999980926514L157.9886482940979,88.44999980926514L158.3672510753479,88.44999980926514L158.7458538565979,88.44999980926514L159.12445663784789,88.44999980926514L159.5030594190979,88.44999980926514L159.8816622003479,88.44999980926514L160.26026498159789,88.44999980926514L160.63886776284792,88.44999980926514L161.0174705440979,88.44999980926514L161.3960733253479,88.44999980926514L161.7746761065979,88.44999980926514L162.1532788878479,88.44999980926514L162.53188166909788,88.44999980926514L162.9104844503479,88.44999980926514L163.2890872315979,88.44999980926514L163.66769001284788,88.44999980926514L164.04629279409792,88.44999980926514L164.4248955753479,88.44999980926514L164.8034983565979,88.44999980926514L165.1821011378479,88.44999980926514L165.5607039190979,88.44999980926514L165.93930670034788,88.44999980926514L166.3179094815979,88.44999980926514L166.69651226284788,88.44999980926514L167.07511504409788,88.44999980926514L167.45371782534792,88.44999980926514L167.8323206065979,88.44999980926514L168.2109233878479,88.44999980926514L168.5895261690979,88.44999980926514L168.9681289503479,88.44999980926514L169.34673173159788,88.44999980926514L169.7253345128479,88.44999980926514L170.10393729409788,88.44999980926514L170.48254007534788,88.44999980926514L170.86114285659792,88.44999980926514L171.2397456378479,88.44999980926514L171.6183484190979,88.44999980926514L171.9969512003479,88.44999980926514L172.3755539815979,88.44999980926514L172.75415676284788,88.44999980926514L173.1327595440979,88.44999980926514L173.51136232534787,88.44999980926514L173.88996510659788,88.44999980926514L174.26856788784792,88.44999980926514L174.6471706690979,88.44999980926514L175.0257734503479,88.44999980926514L175.4043762315979,88.44999980926514L175.7829790128479,88.44999980926514L176.16158179409788,88.44999980926514L176.5401845753479,88.44999980926514L176.91878735659787,88.44999980926514L177.2973901378479,88.44999980926514L177.67599291909792,88.44999980926514L178.0545957003479,88.44999980926514L178.4331984815979,88.44999980926514L178.8118012628479,88.44999980926514L179.1904040440979,88.44999980926514L179.56900682534788,88.44999980926514L179.9476096065979,88.44999980926514L180.32621238784787,88.44999980926514L180.7048151690979,88.44999980926514L181.08341795034792,88.44999980926514L181.4620207315979,88.44999980926514L181.8406235128479,88.44999980926514L182.2192262940979,88.44999980926514L182.5978290753479,88.44999980926514L182.97643185659788,88.44999980926514L183.3550346378479,88.44999980926514L183.73363741909787,88.44999980926514L184.1122402003479,88.44999980926514L184.49084298159792,88.44999980926514L184.8694457628479,88.44999980926514L185.2480485440979,88.44999980926514L185.6266513253479,88.44999980926514L186.0052541065979,88.44999980926514L186.38385688784788,88.44999980926514L186.7624596690979,88.44999980926514L187.14106245034787,88.44999980926514L187.5196652315979,88.44999980926514L187.89826801284792,88.44999980926514L188.2768707940979,88.44999980926514L188.6554735753479,88.44999980926514L189.0340763565979,88.44999980926514L189.4126791378479,88.44999980926514L189.79128191909788,88.44999980926514L190.1698847003479,88.44999980926514L190.54848748159787,88.44999980926514L190.9270902628479,88.44999980926514L191.30569304409792,88.44999980926514L191.6842958253479,88.44999980926514L192.0628986065979,88.44999980926514L192.4415013878479,88.44999980926514L192.8201041690979,88.44999980926514L193.19870695034788,88.44999980926514L193.5773097315979,88.44999980926514L193.95591251284787,88.44999980926514L194.3345152940979,88.44999980926514L194.71311807534792,88.44999980926514L195.0917208565979,88.44999980926514L195.4703236378479,88.44999980926514L195.8489264190979,88.44999980926514L196.2275292003479,88.44999980926514L196.60613198159788,88.44999980926514L196.9847347628479,88.44999980926514L197.3633375440979,88.44999980926514L197.7419403253479,88.44999980926514L198.12054310659792,88.44999980926514L198.4991458878479,88.44999980926514L198.8777486690979,88.44999980926514L199.2563514503479,88.44999980926514L199.6349542315979,88.44999980926514L200.01355701284788,88.44999980926514L200.3921597940979,88.44999980926514L200.7707625753479,88.44999980926514L201.1493653565979,88.44999980926514L201.52796813784792,88.44999980926514L201.9065709190979,88.44999980926514L202.2851737003479,88.44999980926514L202.6637764815979,88.44999980926514L203.0423792628479,88.44999980926514L203.42098204409788,88.44999980926514L203.7995848253479,88.44999980926514L204.1781876065979,88.44999980926514L204.5567903878479,88.44999980926514L204.93539316909792,88.44999980926514L205.3139959503479,88.44999980926514L205.6925987315979,88.44999980926514L206.0712015128479,88.44999980926514L206.4498042940979,88.44999980926514L206.82840707534788,88.44999980926514L207.2070098565979,88.44999980926514L207.5856126378479,88.44999980926514L207.9642154190979,88.44999980926514L208.34281820034792,88.44999980926514L208.7214209815979,88.44999980926514L209.1000237628479,88.44999980926514L209.4786265440979,88.44999980926514L209.8572293253479,88.44999980926514L210.23583210659788,88.44999980926514L210.6144348878479,88.44999980926514L210.9930376690979,88.44999980926514L211.3716404503479,88.44999980926514L211.75024323159792,88.44999980926514L212.1288460128479,88.44999980926514L212.5074487940979,88.44999980926514L212.8860515753479,88.44999980926514L213.2646543565979,88.44999980926514L213.64325713784788,88.44999980926514L214.0218599190979,88.44999980926514L214.4004627003479,88.44999980926514L214.7790654815979,88.44999980926514L215.15766826284792,88.44999980926514L215.5362710440979,88.44999980926514L215.9148738253479,88.44999980926514L216.2934766065979,88.44999980926514L216.6720793878479,88.44999980926514L217.05068216909788,88.44999980926514L217.4292849503479,88.44999980926514L217.8078877315979,88.44999980926514L218.1864905128479,88.44999980926514L218.5650932940979,88.44999980926514L218.9436960753479,88.44999980926514L219.3222988565979,88.44999980926514L219.7009016378479,88.44999980926514L220.0795044190979,88.44999980926514L220.45810720034788,88.44999980926514L220.83670998159792,88.44999980926514L221.2153127628479,88.44999980926514L221.5939155440979,88.44999980926514L221.9725183253479,88.44999980926514L222.3511211065979,88.44999980926514L222.7297238878479,88.44999980926514L223.1083266690979,88.44999980926514L223.4869294503479,88.44999980926514L223.86553223159788,88.44999980926514L224.24413501284792,88.44999980926514L224.6227377940979,88.44999980926514L225.0013405753479,88.44999980926514L225.3799433565979,88.44999980926514L225.7585461378479,88.44999980926514L226.1371489190979,88.44999980926514L226.5157517003479,88.44999980926514L226.8943544815979,88.44999980926514L227.27295726284788,88.44999980926514L227.65156004409792,88.44999980926514L228.0301628253479,88.44999980926514L228.4087656065979,88.44999980926514L228.7873683878479,88.44999980926514L229.1659711690979,88.44999980926514L229.5445739503479,88.44999980926514L229.9231767315979,88.44999980926514L230.3017795128479,88.44999980926514L230.68038229409788,88.44999980926514L231.05898507534792,88.44999980926514L231.4375878565979,88.44999980926514L231.8161906378479,88.44999980926514L232.1947934190979,88.44999980926514L232.5733962003479,88.44999980926514L232.9519989815979,88.44999980926514L233.3306017628479,88.44999980926514L233.7092045440979,88.44999980926514L234.08780732534788,88.44999980926514L234.46641010659792,88.44999980926514L234.8450128878479,88.44999980926514L235.2236156690979,88.44999980926514L235.6022184503479,88.44999980926514L235.9808212315979,88.44999980926514L236.35942401284788,88.44999980926514L236.7380267940979,88.44999980926514L237.1166295753479,88.44999980926514L237.49523235659788,88.44999980926514L237.87383513784792,88.44999980926514L238.2524379190979,88.44999980926514L238.6310407003479,88.44999980926514L239.0096434815979,88.44999980926514L239.3882462628479,88.44999980926514L239.76684904409788,88.44999980926514L240.1454518253479,88.44999980926514L240.5240546065979,88.44999980926514L240.90265738784788,88.44999980926514L241.28126016909792,88.44999980926514L241.6598629503479,88.44999980926514L242.0384657315979,88.44999980926514L242.4170685128479,88.44999980926514L242.7956712940979,88.44999980926514L243.17427407534788,88.44999980926514L243.5528768565979,88.44999980926514L243.9314796378479,88.44999980926514L244.3100824190979,88.44999980926514L244.68868520034792,88.44999980926514L245.0672879815979,88.44999980926514L245.4458907628479,88.44999980926514L245.8244935440979,88.44999980926514L246.2030963253479,88.44999980926514L246.58169910659788,88.44999980926514L246.9603018878479,88.44999980926514L247.3389046690979,88.44999980926514L247.7175074503479,88.44999980926514L248.09611023159792,88.44999980926514L248.4747130128479,88.44999980926514L248.8533157940979,88.44999980926514L249.2319185753479,88.44999980926514L249.6105213565979,88.44999980926514L249.98912413784788,88.44999980926514L250.3677269190979,88.44999980926514L250.7463297003479,88.44999980926514L251.1249324815979,88.44999980926514L251.50353526284792,88.44999980926514L251.8821380440979,88.44999980926514L252.2607408253479,88.44999980926514L252.6393436065979,88.44999980926514L253.0179463878479,88.44999980926514L253.39654916909788,88.44999980926514L253.7751519503479,88.44999980926514L254.1537547315979,88.44999980926514L254.5323575128479,88.44999980926514L254.91096029409792,88.44999980926514L255.2895630753479,88.44999980926514L255.6681658565979,88.44999980926514L256.0467686378479,88.44999980926514L256.42537141909787,88.44999980926514L256.8039742003479,88.44999980926514L257.1825769815979,88.44999980926514L257.56117976284787,88.44999980926514L257.9397825440979,88.44999980926514L258.3183853253479,88.44999980926514L258.6969881065979,88.44999980926514L259.0755908878479,88.44999980926514L259.4541936690979,88.44999980926514L259.83279645034787,88.44999980926514L260.2113992315979,88.44999980926514L260.5900020128479,88.44999980926514L260.96860479409787,88.44999980926514L261.3472075753479,88.44999980926514L261.7258103565979,88.44999980926514L262.1044131378479,88.44999980926514L262.4830159190979,88.44999980926514L262.8616187003479,88.44999980926514" fill="none"></path></g></g></g></g><g opacity="0.2"><g><g><g><path style="fill: none;" stroke="rgb(0, 153, 136)" stroke-width="2px" d="M28.8850998878479,88.44999980926514L29.263702669097903,88.44999980926514L29.642305450347898,88.44999980926514L30.0209082315979,88.44999980926514L30.3995110128479,88.44999980926514L30.7781137940979,88.44999980926514L31.1567165753479,88.44999980926514L31.5353193565979,88.44999980926514L31.9139221378479,88.44999980926514L32.2925249190979,88.44999980926514L32.6711277003479,88.44999980926514L33.049730481597905,88.44999980926514L33.4283332628479,88.44999980926514L33.806936044097895,88.44999980926514L34.1855388253479,88.44999980926514L34.5641416065979,88.44999980926514L34.9427443878479,88.44999980926514L35.3213471690979,88.44999980926514L35.6999499503479,88.44999980926514L36.0785527315979,88.44999980926514L36.457155512847905,88.44999980926514L36.8357582940979,88.44999980926514L37.2143610753479,88.44999980926514L37.5929638565979,88.44999980926514L37.9715666378479,88.44999980926514L38.3501694190979,88.44999980926514L38.728772200347905,88.44999980926514L39.1073749815979,88.44999980926514L39.485977762847895,88.44999980926514L39.864580544097905,88.44999980926514L40.2431833253479,88.44999980926514L40.6217861065979,88.44999980926514L41.0003888878479,88.44999980926514L41.3789916690979,88.44999980926514L41.7575944503479,88.44999980926514L42.136197231597905,88.44999980926514L42.5148000128479,88.44999980926514L42.8934027940979,88.44999980926514L43.2720055753479,88.44999980926514L43.6506083565979,88.44999980926514L44.0292111378479,88.44999980926514L44.4078139190979,88.44999980926514L44.7864167003479,88.44999980926514L45.165019481597895,88.44999980926514L45.543622262847904,88.44999980926514L45.9222250440979,88.44999980926514L46.3008278253479,88.44999980926514L46.6794306065979,88.44999980926514L47.05803338784791,88.44999980926514L47.4366361690979,88.44999980926514L47.8152389503479,88.44999980926514L48.1938417315979,88.44999980926514L48.572444512847895,88.44999980926514L48.951047294097904,88.44999980926514L49.3296500753479,88.44999980926514L49.7082528565979,88.44999980926514L50.0868556378479,88.44999980926514L50.46545841909791,88.44999980926514L50.8440612003479,88.44999980926514L51.2226639815979,88.44999980926514L51.6012667628479,88.44999980926514L51.979869544097895,88.44999980926514L52.358472325347904,88.44999980926514L52.7370751065979,88.44999980926514L53.1156778878479,88.44999980926514L53.4942806690979,88.44999980926514L53.872883450347906,88.44999980926514L54.2514862315979,88.44999980926514L54.630089012847904,88.44999980926514L55.0086917940979,88.44999980926514L55.387294575347894,88.44999980926514L55.765897356597904,88.44999980926514L56.1445001378479,88.44999980926514L56.5231029190979,88.44999980926514L56.9017057003479,88.44999980926514L57.280308481597906,88.44999980926514L57.6589112628479,88.44999980926514L58.037514044097904,88.44999980926514L58.4161168253479,88.44999980926514L58.7947196065979,88.44999980926514L59.173322387847904,88.44999980926514L59.5519251690979,88.44999980926514L59.9305279503479,88.44999980926514L60.3091307315979,88.44999980926514L60.6877335128479,88.44999980926514L61.0663362940979,88.44999980926514L61.444939075347904,88.44999980926514L61.8235418565979,88.44999980926514L62.2021446378479,88.44999980926514L62.580747419097904,88.44999980926514L62.9593502003479,88.44999980926514L63.3379529815979,88.44999980926514L63.7165557628479,88.44999980926514L64.0951585440979,88.44999980926514L64.4737613253479,88.44999980926514L64.8523641065979,88.44999980926514L65.2309668878479,88.44999980926514L65.60956966909791,88.44999980926514L65.9881724503479,88.44999980926514L66.3667752315979,88.44999980926514L66.7453780128479,88.44999980926514L67.1239807940979,88.44999980926514L67.5025835753479,88.44999980926514L67.8811863565979,88.44999980926514L68.2597891378479,88.44999980926514L68.6383919190979,88.44999980926514L69.01699470034791,88.44999980926514L69.3955974815979,88.44999980926514L69.7742002628479,88.44999980926514L70.1528030440979,88.44999980926514L70.5314058253479,88.44999980926514L70.9100086065979,88.44999980926514L71.2886113878479,88.44999980926514L71.6672141690979,88.44999980926514L72.0458169503479,88.44999980926514L72.4244197315979,88.44999980926514L72.8030225128479,88.44999980926514L73.1816252940979,88.44999980926514L73.5602280753479,88.44999980926514L73.93883085659789,88.44999980926514L74.31743363784791,88.44999980926514L74.69603641909791,88.44999980926514L75.0746392003479,88.44999980926514L75.4532419815979,88.44999980926514L75.8318447628479,88.44999980926514L76.2104475440979,88.44999980926514L76.5890503253479,88.44999980926514L76.9676531065979,88.44999980926514L77.34625588784789,88.44999980926514L77.72485866909791,88.44999980926514L78.10346145034791,88.44999980926514L78.4820642315979,88.44999980926514L78.8606670128479,88.44999980926514L79.2392697940979,88.44999980926514L79.6178725753479,88.44999980926514L79.9964753565979,88.44999980926514L80.3750781378479,88.44999980926514L80.75368091909789,88.44999980926514L81.13228370034791,88.44999980926514L81.51088648159791,88.44999980926514L81.8894892628479,88.44999980926514L82.2680920440979,88.44999980926514L82.64669482534791,88.44999980926514L83.0252976065979,88.44999980926514L83.4039003878479,88.44999980926514L83.7825031690979,88.44999980926514L84.16110595034789,88.44999980926514L84.53970873159791,88.44999980926514L84.91831151284791,88.44999980926514L85.2969142940979,88.44999980926514L85.6755170753479,88.44999980926514L86.05411985659791,88.44999980926514L86.4327226378479,88.44999980926514L86.8113254190979,88.44999980926514L87.1899282003479,88.44999980926514L87.56853098159789,88.44999980926514L87.94713376284791,88.44999980926514L88.32573654409791,88.44999980926514L88.7043393253479,88.44999980926514L89.0829421065979,88.44999980926514L89.46154488784791,88.44999980926514L89.8401476690979,88.44999980926514L90.2187504503479,88.44999980926514L90.59735323159789,88.44999980926514L90.97595601284789,88.44999980926514L91.35455879409791,88.44999980926514L91.7331615753479,88.44999980926514L92.1117643565979,88.44999980926514L92.4903671378479,88.44999980926514L92.8689699190979,88.44999980926514L93.2475727003479,88.44999980926514L93.6261754815979,88.44999980926514L94.00477826284789,88.44999980926514L94.3833810440979,88.44999980926514L94.76198382534791,88.44999980926514L95.1405866065979,88.44999980926514L95.5191893878479,88.44999980926514L95.8977921690979,88.44999980926514L96.2763949503479,88.44999980926514L96.6549977315979,88.44999980926514L97.0336005128479,88.44999980926514L97.41220329409789,88.44999980926514L97.7908060753479,88.44999980926514L98.1694088565979,88.44999980926514L98.5480116378479,88.44999980926514L98.9266144190979,88.44999980926514L99.3052172003479,88.44999980926514L99.6838199815979,88.44999980926514L100.0624227628479,88.44999980926514L100.4410255440979,88.44999980926514L100.81962832534789,88.44999980926514L101.1982311065979,88.44999980926514L101.5768338878479,88.44999980926514L101.9554366690979,88.44999980926514L102.3340394503479,88.44999980926514L102.7126422315979,88.44999980926514L103.0912450128479,88.44999980926514L103.4698477940979,88.44999980926514L103.8484505753479,88.44999980926514L104.22705335659789,88.44999980926514L104.6056561378479,88.44999980926514L104.9842589190979,88.44999980926514L105.3628617003479,88.44999980926514L105.7414644815979,88.44999980926514L106.12006726284791,88.44999980926514L106.4986700440979,88.44999980926514L106.8772728253479,88.44999980926514L107.2558756065979,88.44999980926514L107.63447838784789,88.44999980926514L108.0130811690979,88.44999980926514L108.3916839503479,88.44999980926514L108.77028673159789,88.44999980926514L109.1488895128479,88.44999980926514L109.52749229409791,88.44999980926514L109.9060950753479,88.44999980926514L110.2846978565979,88.44999980926514L110.6633006378479,88.44999980926514L111.04190341909789,88.44999980926514L111.4205062003479,88.44999980926514L111.7991089815979,88.44999980926514L112.17771176284789,88.44999980926514L112.5563145440979,88.44999980926514L112.93491732534791,88.44999980926514L113.3135201065979,88.44999980926514L113.6921228878479,88.44999980926514L114.0707256690979,88.44999980926514L114.44932845034789,88.44999980926514L114.8279312315979,88.44999980926514L115.2065340128479,88.44999980926514L115.58513679409789,88.44999980926514L115.96373957534789,88.44999980926514L116.34234235659791,88.44999980926514L116.7209451378479,88.44999980926514L117.0995479190979,88.44999980926514L117.4781507003479,88.44999980926514L117.8567534815979,88.44999980926514L118.2353562628479,88.44999980926514L118.6139590440979,88.44999980926514L118.99256182534789,88.44999980926514L119.37116460659789,88.44999980926514L119.74976738784791,88.44999980926514L120.1283701690979,88.44999980926514L120.5069729503479,88.44999980926514L120.8855757315979,88.44999980926514L121.2641785128479,88.44999980926514L121.6427812940979,88.44999980926514L122.0213840753479,88.44999980926514L122.39998685659789,88.44999980926514L122.77858963784789,88.44999980926514L123.15719241909791,88.44999980926514L123.5357952003479,88.44999980926514L123.9143979815979,88.44999980926514L124.2930007628479,88.44999980926514L124.6716035440979,88.44999980926514L125.0502063253479,88.44999980926514L125.4288091065979,88.44999980926514L125.80741188784789,88.44999980926514L126.18601466909789,88.44999980926514L126.56461745034791,88.44999980926514L126.9432202315979,88.44999980926514L127.3218230128479,88.44999980926514L127.7004257940979,88.44999980926514L128.0790285753479,88.44999980926514L128.45763135659791,88.44999980926514L128.8362341378479,88.44999980926514L129.2148369190979,88.44999980926514L129.59343970034791,88.44999980926514L129.9720424815979,88.44999980926514L130.3506452628479,88.44999980926514L130.7292480440979,88.44999980926514L131.1078508253479,88.44999980926514L131.4864536065979,88.44999980926514L131.86505638784791,88.44999980926514L132.2436591690979,88.44999980926514L132.6222619503479,88.44999980926514L133.00086473159791,88.44999980926514L133.3794675128479,88.44999980926514L133.7580702940979,88.44999980926514L134.1366730753479,88.44999980926514L134.5152758565979,88.44999980926514L134.8938786378479,88.44999980926514L135.27248141909791,88.44999980926514L135.6510842003479,88.44999980926514L136.0296869815979,88.44999980926514L136.40828976284791,88.44999980926514L136.7868925440979,88.44999980926514L137.1654953253479,88.44999980926514L137.5440981065979,88.44999980926514L137.9227008878479,88.44999980926514L138.3013036690979,88.44999980926514L138.67990645034791,88.44999980926514L139.0585092315979,88.44999980926514L139.4371120128479,88.44999980926514L139.81571479409791,88.44999980926514L140.1943175753479,88.44999980926514L140.5729203565979,88.44999980926514L140.9515231378479,88.44999980926514L141.3301259190979,88.44999980926514L141.7087287003479,88.44999980926514L142.08733148159791,88.44999980926514L142.4659342628479,88.44999980926514L142.8445370440979,88.44999980926514L143.22313982534791,88.44999980926514L143.6017426065979,88.44999980926514L143.9803453878479,88.44999980926514L144.35894816909789,88.44999980926514L144.7375509503479,88.44999980926514L145.1161537315979,88.44999980926514L145.4947565128479,88.44999980926514L145.8733592940979,88.44999980926514L146.2519620753479,88.44999980926514L146.63056485659789,88.44999980926514L147.0091676378479,88.44999980926514L147.3877704190979,88.44999980926514L147.7663732003479,88.44999980926514L148.1449759815979,88.44999980926514L148.5235787628479,88.44999980926514L148.90218154409789,88.44999980926514L149.2807843253479,88.44999980926514L149.6593871065979,88.44999980926514L150.03798988784789,88.44999980926514L150.4165926690979,88.44999980926514L150.7951954503479,88.44999980926514L151.1737982315979,88.44999980926514L151.5524010128479,88.44999980926514L151.9310037940979,88.44999980926514L152.30960657534789,88.44999980926514L152.6882093565979,88.44999980926514L153.0668121378479,88.44999980926514L153.44541491909789,88.44999980926514L153.82401770034792,88.44999980926514L154.2026204815979,88.44999980926514L154.5812232628479,88.44999980926514L154.9598260440979,88.44999980926514L155.3384288253479,88.44999980926514L155.71703160659789,88.44999980926514L156.0956343878479,88.44999980926514L156.4742371690979,88.44999980926514L156.85283995034789,88.44999980926514L157.23144273159792,88.44999980926514L157.6100455128479,88.44999980926514L157.9886482940979,88.44999980926514L158.3672510753479,88.44999980926514L158.7458538565979,88.44999980926514L159.12445663784789,88.44999980926514L159.5030594190979,88.44999980926514L159.8816622003479,88.44999980926514L160.26026498159789,88.44999980926514L160.63886776284792,88.44999980926514L161.0174705440979,88.44999980926514L161.3960733253479,88.44999980926514L161.7746761065979,88.44999980926514L162.1532788878479,88.44999980926514L162.53188166909788,88.44999980926514L162.9104844503479,88.44999980926514L163.2890872315979,88.44999980926514L163.66769001284788,88.44999980926514L164.04629279409792,88.44999980926514L164.4248955753479,88.44999980926514L164.8034983565979,88.44999980926514L165.1821011378479,88.44999980926514L165.5607039190979,88.44999980926514L165.93930670034788,88.44999980926514L166.3179094815979,88.44999980926514L166.69651226284788,88.44999980926514L167.07511504409788,88.44999980926514L167.45371782534792,88.44999980926514L167.8323206065979,88.44999980926514L168.2109233878479,88.44999980926514L168.5895261690979,88.44999980926514L168.9681289503479,88.44999980926514L169.34673173159788,88.44999980926514L169.7253345128479,88.44999980926514L170.10393729409788,88.44999980926514L170.48254007534788,88.44999980926514L170.86114285659792,88.44999980926514L171.2397456378479,88.44999980926514L171.6183484190979,88.44999980926514L171.9969512003479,88.44999980926514L172.3755539815979,88.44999980926514L172.75415676284788,88.44999980926514L173.1327595440979,88.44999980926514L173.51136232534787,88.44999980926514L173.88996510659788,88.44999980926514L174.26856788784792,88.44999980926514L174.6471706690979,88.44999980926514L175.0257734503479,88.44999980926514L175.4043762315979,88.44999980926514L175.7829790128479,88.44999980926514L176.16158179409788,88.44999980926514L176.5401845753479,88.44999980926514L176.91878735659787,88.44999980926514L177.2973901378479,88.44999980926514L177.67599291909792,88.44999980926514L178.0545957003479,88.44999980926514L178.4331984815979,88.44999980926514L178.8118012628479,88.44999980926514L179.1904040440979,88.44999980926514L179.56900682534788,88.44999980926514L179.9476096065979,88.44999980926514L180.32621238784787,88.44999980926514L180.7048151690979,88.44999980926514L181.08341795034792,88.44999980926514L181.4620207315979,88.44999980926514L181.8406235128479,88.44999980926514L182.2192262940979,88.44999980926514L182.5978290753479,88.44999980926514L182.97643185659788,88.44999980926514L183.3550346378479,88.44999980926514L183.73363741909787,88.44999980926514L184.1122402003479,88.44999980926514L184.49084298159792,88.44999980926514L184.8694457628479,88.44999980926514L185.2480485440979,88.44999980926514L185.6266513253479,88.44999980926514L186.0052541065979,88.44999980926514L186.38385688784788,88.44999980926514L186.7624596690979,88.44999980926514L187.14106245034787,88.44999980926514L187.5196652315979,88.44999980926514L187.89826801284792,88.44999980926514L188.2768707940979,88.44999980926514L188.6554735753479,88.44999980926514L189.0340763565979,88.44999980926514L189.4126791378479,88.44999980926514L189.79128191909788,88.44999980926514L190.1698847003479,88.44999980926514L190.54848748159787,88.44999980926514L190.9270902628479,88.44999980926514L191.30569304409792,88.44999980926514L191.6842958253479,88.44999980926514L192.0628986065979,88.44999980926514L192.4415013878479,88.44999980926514L192.8201041690979,88.44999980926514L193.19870695034788,88.44999980926514L193.5773097315979,88.44999980926514L193.95591251284787,88.44999980926514L194.3345152940979,88.44999980926514L194.71311807534792,88.44999980926514L195.0917208565979,88.44999980926514L195.4703236378479,88.44999980926514L195.8489264190979,88.44999980926514L196.2275292003479,88.44999980926514L196.60613198159788,88.44999980926514L196.9847347628479,88.44999980926514L197.3633375440979,88.44999980926514L197.7419403253479,88.44999980926514L198.12054310659792,88.44999980926514L198.4991458878479,88.44999980926514L198.8777486690979,88.44999980926514L199.2563514503479,88.44999980926514L199.6349542315979,88.44999980926514L200.01355701284788,88.44999980926514L200.3921597940979,88.44999980926514L200.7707625753479,88.44999980926514L201.1493653565979,88.44999980926514L201.52796813784792,88.44999980926514L201.9065709190979,88.44999980926514L202.2851737003479,88.44999980926514L202.6637764815979,88.44999980926514L203.0423792628479,88.44999980926514L203.42098204409788,88.44999980926514L203.7995848253479,88.44999980926514L204.1781876065979,88.44999980926514L204.5567903878479,88.44999980926514L204.93539316909792,88.44999980926514L205.3139959503479,88.44999980926514L205.6925987315979,88.44999980926514L206.0712015128479,88.44999980926514L206.4498042940979,88.44999980926514L206.82840707534788,88.44999980926514L207.2070098565979,88.44999980926514L207.5856126378479,88.44999980926514L207.9642154190979,88.44999980926514L208.34281820034792,88.44999980926514L208.7214209815979,88.44999980926514L209.1000237628479,88.44999980926514L209.4786265440979,88.44999980926514L209.8572293253479,88.44999980926514L210.23583210659788,88.44999980926514L210.6144348878479,88.44999980926514L210.9930376690979,88.44999980926514L211.3716404503479,88.44999980926514L211.75024323159792,88.44999980926514L212.1288460128479,88.44999980926514L212.5074487940979,88.44999980926514L212.8860515753479,88.44999980926514L213.2646543565979,88.44999980926514L213.64325713784788,88.44999980926514L214.0218599190979,88.44999980926514L214.4004627003479,88.44999980926514L214.7790654815979,88.44999980926514L215.15766826284792,88.44999980926514L215.5362710440979,88.44999980926514L215.9148738253479,88.44999980926514L216.2934766065979,88.44999980926514L216.6720793878479,88.44999980926514L217.05068216909788,88.44999980926514L217.4292849503479,88.44999980926514L217.8078877315979,88.44999980926514L218.1864905128479,88.44999980926514L218.5650932940979,88.44999980926514L218.9436960753479,88.44999980926514L219.3222988565979,88.44999980926514L219.7009016378479,88.44999980926514L220.0795044190979,88.44999980926514L220.45810720034788,88.44999980926514L220.83670998159792,88.44999980926514L221.2153127628479,88.44999980926514L221.5939155440979,88.44999980926514L221.9725183253479,88.44999980926514L222.3511211065979,88.44999980926514L222.7297238878479,88.44999980926514L223.1083266690979,88.44999980926514L223.4869294503479,88.44999980926514L223.86553223159788,88.44999980926514L224.24413501284792,88.44999980926514L224.6227377940979,88.44999980926514L225.0013405753479,88.44999980926514L225.3799433565979,88.44999980926514L225.7585461378479,88.44999980926514L226.1371489190979,88.44999980926514L226.5157517003479,88.44999980926514L226.8943544815979,88.44999980926514L227.27295726284788,88.44999980926514L227.65156004409792,88.44999980926514L228.0301628253479,88.44999980926514L228.4087656065979,88.44999980926514L228.7873683878479,88.44999980926514L229.1659711690979,88.44999980926514L229.5445739503479,88.44999980926514L229.9231767315979,88.44999980926514L230.3017795128479,88.44999980926514L230.68038229409788,88.44999980926514L231.05898507534792,88.44999980926514L231.4375878565979,88.44999980926514L231.8161906378479,88.44999980926514L232.1947934190979,88.44999980926514L232.5733962003479,88.44999980926514L232.9519989815979,88.44999980926514L233.3306017628479,88.44999980926514L233.7092045440979,88.44999980926514L234.08780732534788,88.44999980926514L234.46641010659792,88.44999980926514L234.8450128878479,88.44999980926514L235.2236156690979,88.44999980926514L235.6022184503479,88.44999980926514L235.9808212315979,88.44999980926514L236.35942401284788,88.44999980926514L236.7380267940979,88.44999980926514L237.1166295753479,88.44999980926514L237.49523235659788,88.44999980926514L237.87383513784792,88.44999980926514L238.2524379190979,88.44999980926514L238.6310407003479,88.44999980926514L239.0096434815979,88.44999980926514L239.3882462628479,88.44999980926514L239.76684904409788,88.44999980926514L240.1454518253479,88.44999980926514L240.5240546065979,88.44999980926514L240.90265738784788,88.44999980926514L241.28126016909792,88.44999980926514L241.6598629503479,88.44999980926514L242.0384657315979,88.44999980926514L242.4170685128479,88.44999980926514L242.7956712940979,88.44999980926514L243.17427407534788,88.44999980926514L243.5528768565979,88.44999980926514L243.9314796378479,88.44999980926514L244.3100824190979,88.44999980926514L244.68868520034792,88.44999980926514L245.0672879815979,88.44999980926514L245.4458907628479,88.44999980926514L245.8244935440979,88.44999980926514L246.2030963253479,88.44999980926514L246.58169910659788,88.44999980926514L246.9603018878479,88.44999980926514L247.3389046690979,88.44999980926514L247.7175074503479,88.44999980926514L248.09611023159792,88.44999980926514L248.4747130128479,88.44999980926514L248.8533157940979,88.44999980926514L249.2319185753479,88.44999980926514L249.6105213565979,88.44999980926514L249.98912413784788,88.44999980926514L250.3677269190979,88.44999980926514L250.7463297003479,88.44999980926514L251.1249324815979,88.44999980926514L251.50353526284792,88.44999980926514L251.8821380440979,88.44999980926514L252.2607408253479,88.44999980926514L252.6393436065979,88.44999980926514L253.0179463878479,88.44999980926514L253.39654916909788,88.44999980926514L253.7751519503479,88.44999980926514L254.1537547315979,88.44999980926514L254.5323575128479,88.44999980926514L254.91096029409792,88.44999980926514L255.2895630753479,88.44999980926514L255.6681658565979,88.44999980926514L256.0467686378479,88.44999980926514L256.42537141909787,88.44999980926514L256.8039742003479,88.44999980926514L257.1825769815979,88.44999980926514L257.56117976284787,88.44999980926514L257.9397825440979,88.44999980926514L258.3183853253479,88.44999980926514L258.6969881065979,88.44999980926514L259.0755908878479,88.44999980926514L259.4541936690979,88.44999980926514L259.83279645034787,88.44999980926514L260.2113992315979,88.44999980926514L260.5900020128479,88.44999980926514L260.96860479409787,88.44999980926514L261.3472075753479,88.44999980926514L261.7258103565979,88.44999980926514L262.1044131378479,88.44999980926514L262.4830159190979,88.44999980926514L262.8616187003479,88.44999980926514" fill="none"></path></g></g></g></g></g></g><g transform="translate(41, 176)" clip-path="url(#clip_1)"><clipPath id="clip_1"><rect width="288" height="23"></rect></clipPath><g><g><line x1="0" y1="0" x2="0" y2="5" style="visibility: inherit;" fill="rgb(0, 0, 0)" stroke="rgb(204, 204, 204)" stroke-width="1px"></line><line x1="28.8850998878479" y1="0" x2="28.8850998878479" y2="5" style="visibility: inherit;" fill="rgb(0, 0, 0)" stroke="rgb(204, 204, 204)" stroke-width="1px"></line><line x1="57.7701997756958" y1="0" x2="57.7701997756958" y2="5" style="visibility: inherit;" fill="rgb(0, 0, 0)" stroke="rgb(204, 204, 204)" stroke-width="1px"></line><line x1="86.6552996635437" y1="0" x2="86.6552996635437" y2="5" style="visibility: inherit;" fill="rgb(0, 0, 0)" stroke="rgb(204, 204, 204)" stroke-width="1px"></line><line x1="115.5403995513916" y1="0" x2="115.5403995513916" y2="5" style="visibility: inherit;" fill="rgb(0, 0, 0)" stroke="rgb(204, 204, 204)" stroke-width="1px"></line><line x1="144.4254994392395" y1="0" x2="144.4254994392395" y2="5" style="visibility: inherit;" fill="rgb(0, 0, 0)" stroke="rgb(204, 204, 204)" stroke-width="1px"></line><line x1="173.3105993270874" y1="0" x2="173.3105993270874" y2="5" style="visibility: inherit;" fill="rgb(0, 0, 0)" stroke="rgb(204, 204, 204)" stroke-width="1px"></line><line x1="202.1956992149353" y1="0" x2="202.1956992149353" y2="5" style="visibility: inherit;" fill="rgb(0, 0, 0)" stroke="rgb(204, 204, 204)" stroke-width="1px"></line><line x1="231.0807991027832" y1="0" x2="231.0807991027832" y2="5" style="visibility: inherit;" fill="rgb(0, 0, 0)" stroke="rgb(204, 204, 204)" stroke-width="1px"></line><line x1="259.9658989906311" y1="0" x2="259.9658989906311" y2="5" style="visibility: inherit;" fill="rgb(0, 0, 0)" stroke="rgb(204, 204, 204)" stroke-width="1px"></line><line x1="288.850998878479" y1="0" x2="288.850998878479" y2="5" style="visibility: inherit;" fill="rgb(0, 0, 0)" stroke="rgb(204, 204, 204)" stroke-width="1px"></line></g><g transform="translate(0, 8)"><text style="text-anchor: middle; visibility: hidden; font-family: Roboto, sans-serif; font-size: 12px; font-weight: 200;" x="0" y="0" dx="0em" dy="0.95em" fill="rgb(33, 33, 33)" stroke="none" stroke-width="1px">-10M</text><text style="text-anchor: middle; visibility: inherit; font-family: Roboto, sans-serif; font-size: 12px; font-weight: 200;" x="28.8850998878479" y="0" dx="0em" dy="0.95em" fill="rgb(33, 33, 33)" stroke="none" stroke-width="1px">0</text><text style="text-anchor: middle; visibility: hidden; font-family: Roboto, sans-serif; font-size: 12px; font-weight: 200;" x="57.7701997756958" y="0" dx="0em" dy="0.95em" fill="rgb(33, 33, 33)" stroke="none" stroke-width="1px">10M</text><text style="text-anchor: middle; visibility: inherit; font-family: Roboto, sans-serif; font-size: 12px; font-weight: 200;" x="86.6552996635437" y="0" dx="0em" dy="0.95em" fill="rgb(33, 33, 33)" stroke="none" stroke-width="1px">20M</text><text style="text-anchor: middle; visibility: hidden; font-family: Roboto, sans-serif; font-size: 12px; font-weight: 200;" x="115.5403995513916" y="0" dx="0em" dy="0.95em" fill="rgb(33, 33, 33)" stroke="none" stroke-width="1px">30M</text><text style="text-anchor: middle; visibility: inherit; font-family: Roboto, sans-serif; font-size: 12px; font-weight: 200;" x="144.4254994392395" y="0" dx="0em" dy="0.95em" fill="rgb(33, 33, 33)" stroke="none" stroke-width="1px">40M</text><text style="text-anchor: middle; visibility: hidden; font-family: Roboto, sans-serif; font-size: 12px; font-weight: 200;" x="173.3105993270874" y="0" dx="0em" dy="0.95em" fill="rgb(33, 33, 33)" stroke="none" stroke-width="1px">50M</text><text style="text-anchor: middle; visibility: inherit; font-family: Roboto, sans-serif; font-size: 12px; font-weight: 200;" x="202.1956992149353" y="0" dx="0em" dy="0.95em" fill="rgb(33, 33, 33)" stroke="none" stroke-width="1px">60M</text><text style="text-anchor: middle; visibility: hidden; font-family: Roboto, sans-serif; font-size: 12px; font-weight: 200;" x="231.0807991027832" y="0" dx="0em" dy="0.95em" fill="rgb(33, 33, 33)" stroke="none" stroke-width="1px">70M</text><text style="text-anchor: middle; visibility: inherit; font-family: Roboto, sans-serif; font-size: 12px; font-weight: 200;" x="259.9658989906311" y="0" dx="0em" dy="0.95em" fill="rgb(33, 33, 33)" stroke="none" stroke-width="1px">80M</text><text style="text-anchor: middle; visibility: hidden; font-family: Roboto, sans-serif; font-size: 12px; font-weight: 200;" x="288.850998878479" y="0" dx="0em" dy="0.95em" fill="rgb(33, 33, 33)" stroke="none" stroke-width="1px">90M</text></g><line x1="0" y1="0" x2="288.850998878479" y2="0" fill="rgb(0, 0, 0)" stroke="rgb(204, 204, 204)" stroke-width="1px"></line></g></g></g></g></svg>