<svg viewBox="0 0 330 200" xmlns="http://www.w3.org/2000/svg"><g><g><g><g><g><line x1="41.149001121520996" y1="176.89999961853027" x2="36.149001121520996" y2="176.89999961853027" style="visibility: inherit;" fill="rgb(0, 0, 0)" stroke="rgb(204, 204, 204)" stroke-width="1px"></line><line x1="41.149001121520996" y1="163.2923073401818" x2="36.149001121520996" y2="163.2923073401818" style="visibility: inherit;" fill="rgb(0, 0, 0)" stroke="rgb(204, 204, 204)" stroke-width="1px"></line><line x1="41.149001121520996" y1="149.6846150618333" x2="36.149001121520996" y2="149.6846150618333" style="visibility: inherit;" fill="rgb(0, 0, 0)" stroke="rgb(204, 204, 204)" stroke-width="1px"></line><line x1="41.149001121520996" y1="136.0769227834848" x2="36.149001121520996" y2="136.0769227834848" style="visibility: inherit;" fill="rgb(0, 0, 0)" stroke="rgb(204, 204, 204)" stroke-width="1px"></line><line x1="41.149001121520996" y1="122.46923050513634" x2="36.149001121520996" y2="122.46923050513634" style="visibility: inherit;" fill="rgb(0, 0, 0)" stroke="rgb(204, 204, 204)" stroke-width="1px"></line><line x1="41.149001121520996" y1="108.86153822678787" x2="36.149001121520996" y2="108.86153822678787" style="visibility: inherit;" fill="rgb(0, 0, 0)" stroke="rgb(204, 204, 204)" stroke-width="1px"></line><line x1="41.149001121520996" y1="95.25384594843938" x2="36.149001121520996" y2="95.25384594843938" style="visibility: inherit;" fill="rgb(0, 0, 0)" stroke="rgb(204, 204, 204)" stroke-width="1px"></line><line x1="41.149001121520996" y1="81.6461536700909" x2="36.149001121520996" y2="81.6461536700909" style="visibility: inherit;" fill="rgb(0, 0, 0)" stroke="rgb(204, 204, 204)" stroke-width="1px"></line><line x1="41.149001121520996" y1="68.0384613917424" x2="36.149001121520996" y2="68.0384613917424" style="visibility: inherit;" fill="rgb(0, 0, 0)" stroke="rgb(204, 204, 204)" stroke-width="1px"></line><line x1="41.149001121520996" y1="54.430769113393936" x2="36.149001121520996" y2="54.430769113393936" style="visibility: inherit;" fill="rgb(0, 0, 0)" stroke="rgb(204, 204, 204)" stroke-width="1px"></line><line x1="41.149001121520996" y1="40.82307683504544" x2="36.149001121520996" y2="40.82307683504544" style="visibility: inherit;" fill="rgb(0, 0, 0)" stroke="rgb(204, 204, 204)" stroke-width="1px"></line><line x1="41.149001121520996" y1="27.215384556696968" x2="36.149001121520996" y2="27.215384556696968" style="visibility: inherit;" fill="rgb(0, 0, 0)" stroke="rgb(204, 204, 204)" stroke-width="1px"></line><line x1="41.149001121520996" y1="13.607692278348473" x2="36.149001121520996" y2="13.607692278348473" style="visibility: inherit;" fill="rgb(0, 0, 0)" stroke="rgb(204, 204, 204)" stroke-width="1px"></line><line x1="41.149001121520996" y1="0" x2="36.149001121520996" y2="0" style="visibility: inherit;" fill="rgb(0, 0, 0)" stroke="rgb(204, 204, 204)" stroke-width="1px"></line></g><g transform="translate(31.149001121520996, 0)"><text style="text-anchor: end; visibility: hidden; font-family: Roboto, sans-serif; font-size: 12px; font-weight: 200;" x="0" y="176.89999961853027" dx="0em" dy="0.3em" fill="rgb(33, 33, 33)" stroke="none" stroke-width="1px">0</text><text style="text-anchor: end; visibility: inherit; font-family: Roboto, sans-serif; font-size: 12px; font-weight: 200;" x="0" y="163.2923073401818" dx="0em" dy="0.3em" fill="rgb(33, 33, 33)" stroke="none" stroke-width="1px">50</text><text style="text-anchor: end; visibility: hidden; font-family: Roboto, sans-serif; font-size: 12px; font-weight: 200;" x="0" y="149.6846150618333" dx="0em" dy="0.3em" fill="rgb(33, 33, 33)" stroke="none" stroke-width="1px">100</text><text style="text-anchor: end; visibility: inherit; font-family: Roboto, sans-serif; font-size: 12px; font-weight: 200;" x="0" y="136.0769227834848" dx="0em" dy="0.3em" fill="rgb(33, 33, 33)" stroke="none" stroke-width="1px">150</text><text style="text-anchor: end; visibility: hidden; font-family: Roboto, sans-serif; font-size: 12px; font-weight: 200;" x="0" y="122.46923050513634" dx="0em" dy="0.3em" fill="rgb(33, 33, 33)" stroke="none" stroke-width="1px">200</text><text style="text-anchor: end; visibility: inherit; font-family: Roboto, sans-serif; font-size: 12px; font-weight: 200;" x="0" y="108.86153822678787" dx="0em" dy="0.3em" fill="rgb(33, 33, 33)" stroke="none" stroke-width="1px">250</text><text style="text-anchor: end; visibility: hidden; font-family: Roboto, sans-serif; font-size: 12px; font-weight: 200;" x="0" y="95.25384594843938" dx="0em" dy="0.3em" fill="rgb(33, 33, 33)" stroke="none" stroke-width="1px">300</text><text style="text-anchor: end; visibility: inherit; font-family: Roboto, sans-serif; font-size: 12px; font-weight: 200;" x="0" y="81.6461536700909" dx="0em" dy="0.3em" fill="rgb(33, 33, 33)" stroke="none" stroke-width="1px">350</text><text style="text-anchor: end; visibility: hidden; font-family: Roboto, sans-serif; font-size: 12px; font-weight: 200;" x="0" y="68.0384613917424" dx="0em" dy="0.3em" fill="rgb(33, 33, 33)" stroke="none" stroke-width="1px">400</text><text style="text-anchor: end; visibility: inherit; font-family: Roboto, sans-serif; font-size: 12px; font-weight: 200;" x="0" y="54.430769113393936" dx="0em" dy="0.3em" fill="rgb(33, 33, 33)" stroke="none" stroke-width="1px">450</text><text style="text-anchor: end; visibility: hidden; font-family: Roboto, sans-serif; font-size: 12px; font-weight: 200;" x="0" y="40.82307683504544" dx="0em" dy="0.3em" fill="rgb(33, 33, 33)" stroke="none" stroke-width="1px">500</text><text style="text-anchor: end; visibility: inherit; font-family: Roboto, sans-serif; font-size: 12px; font-weight: 200;" x="0" y="27.215384556696968" dx="0em" dy="0.3em" fill="rgb(33, 33, 33)" stroke="none" stroke-width="1px">550</text><text style="text-anchor: end; visibility: hidden; font-family: Roboto, sans-serif; font-size: 12px; font-weight: 200;" x="0" y="13.607692278348473" dx="0em" dy="0.3em" fill="rgb(33, 33, 33)" stroke="none" stroke-width="1px">600</text><text style="text-anchor: end; visibility: hidden; font-family: Roboto, sans-serif; font-size: 12px; font-weight: 200;" x="0" y="0" dx="0em" dy="0.3em" fill="rgb(33, 33, 33)" stroke="none" stroke-width="1px">650</text></g><line x1="41.149001121520996" y1="0" x2="41.149001121520996" y2="176.89999961853027" fill="rgb(0, 0, 0)" stroke="rgb(204, 204, 204)" stroke-width="1px"></line></g></g><g transform="translate(41, 0)" clip-path="url(#clip_0)"><clipPath id="clip_0"><rect width="288" height="176"></rect></clipPath><g><g><g><line x1="0" y1="0" x2="0" y2="176.89999961853027" fill="rgb(0, 0, 0)" stroke="rgb(66, 66, 66)" stroke-width="1px" opacity="0.25"></line><line x1="28.8850998878479" y1="0" x2="28.8850998878479" y2="176.89999961853027" fill="rgb(0, 0, 0)" stroke="rgb(66, 66, 66)" stroke-width="1px" opacity="0.25"></line><line x1="57.7701997756958" y1="0" x2="57.7701997756958" y2="176.89999961853027" fill="rgb(0, 0, 0)" stroke="rgb(66, 66, 66)" stroke-width="1px" opacity="0.25"></line><line x1="86.6552996635437" y1="0" x2="86.6552996635437" y2="176.89999961853027" fill="rgb(0, 0, 0)" stroke="rgb(66, 66, 66)" stroke-width="1px" opacity="0.25"></line><line x1="115.5403995513916" y1="0" x2="115.5403995513916" y2="176.89999961853027" fill="rgb(0, 0, 0)" stroke="rgb(66, 66, 66)" stroke-width="1px" opacity="0.25"></line><line x1="144.4254994392395" y1="0" x2="144.4254994392395" y2="176.89999961853027" fill="rgb(0, 0, 0)" stroke="rgb(66, 66, 66)" stroke-width="1px" opacity="0.25"></line><line x1="173.3105993270874" y1="0" x2="173.3105993270874" y2="176.89999961853027" fill="rgb(0, 0, 0)" stroke="rgb(66, 66, 66)" stroke-width="1px" opacity="0.25"></line><line x1="202.1956992149353" y1="0" x2="202.1956992149353" y2="176.89999961853027" fill="rgb(0, 0, 0)" stroke="rgb(66, 66, 66)" stroke-width="1px" opacity="0.25"></line><line x1="231.0807991027832" y1="0" x2="231.0807991027832" y2="176.89999961853027" fill="rgb(0, 0, 0)" stroke="rgb(66, 66, 66)" stroke-width="1px" opacity="0.25"></line><line x1="259.9658989906311" y1="0" x2="259.9658989906311" y2="176.89999961853027" fill="rgb(0, 0, 0)" stroke="rgb(66, 66, 66)" stroke-width="1px" opacity="0.25"></line><line x1="288.850998878479" y1="0" x2="288.850998878479" y2="176.89999961853027" fill="rgb(0, 0, 0)" stroke="rgb(66, 66, 66)" stroke-width="1px" opacity="0.25"></line></g><g><line x1="0" y1="176.89999961853027" x2="288.850998878479" y2="176.89999961853027" fill="rgb(0, 0, 0)" stroke="rgb(66, 66, 66)" stroke-width="1px" opacity="0.25"></line><line x1="0" y1="163.2923073401818" x2="288.850998878479" y2="163.2923073401818" fill="rgb(0, 0, 0)" stroke="rgb(66, 66, 66)" stroke-width="1px" opacity="0.25"></line><line x1="0" y1="149.6846150618333" x2="288.850998878479" y2="149.6846150618333" fill="rgb(0, 0, 0)" stroke="rgb(66, 66, 66)" stroke-width="1px" opacity="0.25"></line><line x1="0" y1="136.0769227834848" x2="288.850998878479" y2="136.0769227834848" fill="rgb(0, 0, 0)" stroke="rgb(66, 66, 66)" stroke-width="1px" opacity="0.25"></line><line x1="0" y1="122.46923050513634" x2="288.850998878479" y2="122.46923050513634" fill="rgb(0, 0, 0)" stroke="rgb(66, 66, 66)" stroke-width="1px" opacity="0.25"></line><line x1="0" y1="108.86153822678787" x2="288.850998878479" y2="108.86153822678787" fill="rgb(0, 0, 0)" stroke="rgb(66, 66, 66)" stroke-width="1px" opacity="0.25"></line><line x1="0" y1="95.25384594843938" x2="288.850998878479" y2="95.25384594843938" fill="rgb(0, 0, 0)" stroke="rgb(66, 66, 66)" stroke-width="1px" opacity="0.25"></line><line x1="0" y1="81.6461536700909" x2="288.850998878479" y2="81.6461536700909" fill="rgb(0, 0, 0)" stroke="rgb(66, 66, 66)" stroke-width="1px" opacity="0.25"></line><line x1="0" y1="68.0384613917424" x2="288.850998878479" y2="68.0384613917424" fill="rgb(0, 0, 0)" stroke="rgb(66, 66, 66)" stroke-width="1px" opacity="0.25"></line><line x1="0" y1="54.430769113393936" x2="288.850998878479" y2="54.430769113393936" fill="rgb(0, 0, 0)" stroke="rgb(66, 66, 66)" stroke-width="1px" opacity="0.25"></line><line x1="0" y1="40.82307683504544" x2="288.850998878479" y2="40.82307683504544" fill="rgb(0, 0, 0)" stroke="rgb(66, 66, 66)" stroke-width="1px" opacity="0.25"></line><line x1="0" y1="27.215384556696968" x2="288.850998878479" y2="27.215384556696968" fill="rgb(0, 0, 0)" stroke="rgb(66, 66, 66)" stroke-width="1px" opacity="0.25"></line><line x1="0" y1="13.607692278348473" x2="288.850998878479" y2="13.607692278348473" fill="rgb(0, 0, 0)" stroke="rgb(66, 66, 66)" stroke-width="1px" opacity="0.25"></line><line x1="0" y1="0" x2="288.850998878479" y2="0" fill="rgb(0, 0, 0)" stroke="rgb(66, 66, 66)" stroke-width="1px" opacity="0.25"></line></g></g></g><g><g><line x1="0" y1="176.89999961853027" x2="288.850998878479" y2="176.89999961853027" fill="rgb(0, 0, 0)" stroke="rgb(153, 153, 153)" stroke-width="1.5px"></line></g></g><g><g><line x1="28.8850998878479" y1="0" x2="28.8850998878479" y2="176.89999961853027" fill="rgb(0, 0, 0)" stroke="rgb(153, 153, 153)" stroke-width="1.5px"></line></g></g><g><g><g><g><g><path style="fill: none;" stroke="rgb(0, 153, 136)" stroke-width="2px" d="M28.8850998878479,176.62784577296333L29.263702669097903,176.45774961948396L29.642305450347898,176.26682536557854L30.0209082315979,176.0575233760031L30.3995110128479,175.83272593268785L30.7781137940979,175.5953931807916L31.1567165753479,175.3482876139023L31.5353193565979,175.09380579255065L31.9139221378479,174.8339103314527L32.2925249190979,174.57013571980664L32.6711277003479,174.3036375111461L33.049730481597905,174.0352596952894L33.4283332628479,173.76560347790303L33.806936044097895,173.49508841210883L34.1855388253479,173.2240023606847L34.5641416065979,172.95254006969844L34.9427443878479,172.68083174823354L35.3213471690979,172.40896359735243L35.6999499503479,172.136992206673L36.0785527315979,171.86495446074915L36.457155512847905,171.59287425248894L36.8357582940979,171.32076697639383L37.2143610753479,171.04864250498306L37.5929638565979,170.77650714347794L37.9715666378479,170.50436490412096L38.3501694190979,170.2322183317559L38.728772200347905,169.9600690358002L39.1073749815979,169.6879180314158L39.485977762847895,169.41576595740852L39.864580544097905,169.14361321488772L40.2431833253479,168.87146005521475L40.6217861065979,168.59930663562398L41.0003888878479,168.32715305430662L41.3789916690979,168.05499937248777L41.7575944503479,167.78284562828867L42.136197231597905,167.51069184541385L42.5148000128479,167.238538038585L42.8934027940979,166.9663842169346L43.2720055753479,166.6942303861218L43.6506083565979,166.4220765496499L44.0292111378479,166.14992270968546L44.4078139190979,165.8777688675673L44.7864167003479,165.60561502412205L45.165019481597895,165.33346117985954L45.543622262847904,165.06130733509409L45.9222250440979,164.78915349001934L46.3008278253479,164.5169996447545L46.6794306065979,164.24484579937288L47.05803338784791,163.97269195391956L47.4366361690979,163.70053810842225L47.8152389503479,163.42838426289796L48.1938417315979,163.15623041735714L48.572444512847895,162.88407657180616L48.951047294097904,162.611922726249L49.3296500753479,162.33976888068798L49.7082528565979,162.06761503512467L50.0868556378479,161.79546118955994L50.46545841909791,161.52330734399433L50.8440612003479,161.2511534984282L51.2226639815979,160.97899965286175L51.6012667628479,160.7068458072951L51.979869544097895,160.4346919617283L52.358472325347904,160.16253811616144L52.7370751065979,159.89038427059455L53.1156778878479,159.61823042502763L53.4942806690979,159.34607657946069L53.872883450347906,159.07392273389374L54.2514862315979,158.80176888832676L54.630089012847904,158.52961504275981L55.0086917940979,158.25746119719284L55.387294575347894,157.9853073516259L55.765897356597904,157.71315350605892L56.1445001378479,157.44099966049194L56.5231029190979,157.16884581492496L56.9017057003479,156.89669196935802L57.280308481597906,156.62453812379104L57.6589112628479,156.35238427822406L58.037514044097904,156.0802304326571L58.4161168253479,155.8080765870901L58.7947196065979,155.53592274152317L59.173322387847904,155.2637688959562L59.5519251690979,154.9916150503892L59.9305279503479,154.71946120482224L60.3091307315979,154.4473073592553L60.6877335128479,154.17515351368831L61.0663362940979,153.90299966812134L61.444939075347904,153.63084582255436L61.8235418565979,153.3586919769874L62.2021446378479,153.08653813142044L62.580747419097904,152.81438428585346L62.9593502003479,152.5422304402865L63.3379529815979,152.2700765947195L63.7165557628479,151.99792274915256L64.0951585440979,151.7257689035856L64.4737613253479,151.4536150580186L64.8523641065979,151.18146121245164L65.2309668878479,150.90930736688466L65.60956966909791,150.6371535213177L65.9881724503479,150.36499967575074L66.3667752315979,150.09284583018376L66.7453780128479,149.8206919846168L67.1239807940979,149.54853813904984L67.5025835753479,149.27638429348286L67.8811863565979,149.0042304479159L68.2597891378479,148.7320766023489L68.6383919190979,148.45992275678194L69.01699470034791,148.187768911215L69.3955974815979,147.915615065648L69.7742002628479,147.64346122008104L70.1528030440979,147.37130737451406L70.5314058253479,147.0991535289471L70.9100086065979,146.8269996833801L71.2886113878479,146.55484583781316L71.6672141690979,146.28269199224619L72.0458169503479,146.0105381466792L72.4244197315979,145.73838430111226L72.8030225128479,145.4662304555453L73.1816252940979,145.1940766099783L73.5602280753479,144.92192276441133L73.93883085659789,144.6497689188444L74.31743363784791,144.37761507327738L74.69603641909791,144.10546122771044L75.0746392003479,143.83330738214346L75.4532419815979,143.56115353657648L75.8318447628479,143.28899969100954L76.2104475440979,143.01684584544256L76.5890503253479,142.74469199987556L76.9676531065979,142.4725381543086L77.34625588784789,142.20038430874166L77.72485866909791,141.92823046317466L78.10346145034791,141.6560766176077L78.4820642315979,141.38392277204073L78.8606670128479,141.11176892647376L79.2392697940979,140.8396150809068L79.6178725753479,140.56746123533983L79.9964753565979,140.29530738977283L80.3750781378479,140.02315354420588L80.75368091909789,139.75099969863894L81.13228370034791,139.47884585307193L81.51088648159791,139.20669200750498L81.8894892628479,138.934538161938L82.2680920440979,138.66238431637103L82.64669482534791,138.39023047080408L83.0252976065979,138.1180766252371L83.4039003878479,137.8459227796701L83.7825031690979,137.57376893410316L84.16110595034789,137.3016150885362L84.53970873159791,137.0294612429692L84.91831151284791,136.75730739740226L85.2969142940979,136.48515355183528L85.6755170753479,136.2129997062683L86.05411985659791,135.94084586070136L86.4327226378479,135.66869201513438L86.8113254190979,135.39653816956738L87.1899282003479,135.12438432400043L87.56853098159789,134.85223047843348L87.94713376284791,134.58007663286648L88.32573654409791,134.30792278729953L88.7043393253479,134.03576894173256L89.0829421065979,133.76361509616558L89.46154488784791,133.4914612505986L89.8401476690979,133.21930740503166L90.2187504503479,132.94715355946465L90.59735323159789,132.6749997138977L90.97595601284789,132.40284586833076L91.35455879409791,132.13069202276375L91.7331615753479,131.85853817719678L92.1117643565979,131.58638433162983L92.4903671378479,131.31423048606285L92.8689699190979,131.0420766404959L93.2475727003479,130.76992279492893L93.6261754815979,130.49776894936193L94.00477826284789,130.22561510379498L94.3833810440979,129.95346125822803L94.76198382534791,129.68130741266103L95.1405866065979,129.40915356709405L95.5191893878479,129.1369997215271L95.8977921690979,128.86484587596013L96.2763949503479,128.59269203039318L96.6549977315979,128.3205381848262L97.0336005128479,128.0483843392592L97.41220329409789,127.77623049369225L97.7908060753479,127.50407664812529L98.1694088565979,127.23192280255832L98.5480116378479,126.95976895699133L98.9266144190979,126.68761511142436L99.3052172003479,126.41546126585742L99.6838199815979,126.14330742029043L100.0624227628479,125.87115357472346L100.4410255440979,125.59899972915649L100.81962832534789,125.32684588358953L101.1982311065979,125.05469203802257L101.5768338878479,124.78253819245559L101.9554366690979,124.5103843468886L102.3340394503479,124.23823050132164L102.7126422315979,123.96607665575469L103.0912450128479,123.6939228101877L103.4698477940979,123.42176896462072L103.8484505753479,123.14961511905376L104.22705335659789,122.8774612734868L104.6056561378479,122.60530742791984L104.9842589190979,122.33315358235286L105.3628617003479,122.06099973678587L105.7414644815979,121.78884589121891L106.12006726284791,121.51669204565195L106.4986700440979,121.24453820008497L106.8772728253479,120.972384354518L107.2558756065979,120.70023050895104L107.63447838784789,120.42807666338408L108.0130811690979,120.15592281781711L108.3916839503479,119.88376897225014L108.77028673159789,119.61161512668315L109.1488895128479,119.33946128111619L109.52749229409791,119.06730743554922L109.9060950753479,118.79515358998225L110.2846978565979,118.52299974441527L110.6633006378479,118.25084589884831L111.04190341909789,117.97869205328135L111.4205062003479,117.70653820771439L111.7991089815979,117.43438436214741L112.17771176284789,117.16223051658042L112.5563145440979,116.89007667101346L112.93491732534791,116.6179228254465L113.3135201065979,116.34576897987952L113.6921228878479,116.07361513431255L114.0707256690979,115.80146128874559L114.44932845034789,115.52930744317862L114.8279312315979,115.25715359761165L115.2065340128479,114.98499975204469L115.58513679409789,114.7128459064777L115.96373957534789,114.44069206091073L116.34234235659791,114.16853821534377L116.7209451378479,113.8963843697768L117.0995479190979,113.62423052420982L117.4781507003479,113.35207667864286L117.8567534815979,113.0799228330759L118.2353562628479,112.80776898750892L118.6139590440979,112.53561514194196L118.99256182534789,112.26346129637497L119.37116460659789,111.99130745080801L119.74976738784791,111.71915360524105L120.1283701690979,111.44699975967407L120.5069729503479,111.1748459141071L120.8855757315979,110.90269206854013L121.2641785128479,110.63053822297317L121.6427812940979,110.3583843774062L122.0213840753479,110.0862305318392L122.39998685659789,109.81407668627224L122.77858963784789,109.54192284070528L123.15719241909791,109.26976899513832L123.5357952003479,108.99761514957135L123.9143979815979,108.72546130400437L124.2930007628479,108.45330745843741L124.6716035440979,108.18115361287045L125.0502063253479,107.90899976730347L125.4288091065979,107.63684592173648L125.80741188784789,107.36469207616952L126.18601466909789,107.09253823060256L126.56461745034791,106.8203843850356L126.9432202315979,106.54823053946862L127.3218230128479,106.27607669390164L127.7004257940979,106.00392284833468L128.0790285753479,105.73176900276772L128.45763135659791,105.45961515720074L128.8362341378479,105.18746131163375L129.2148369190979,104.91530746606679L129.59343970034791,104.64315362049983L129.9720424815979,104.37099977493287L130.3506452628479,104.0988459293659L130.7292480440979,103.82669208379892L131.1078508253479,103.55453823823196L131.4864536065979,103.282384392665L131.86505638784791,103.01023054709802L132.2436591690979,102.73807670153103L132.6222619503479,102.46592285596407L133.00086473159791,102.1937690103971L133.3794675128479,101.92161516483013L133.7580702940979,101.64946131926317L134.1366730753479,101.37730747369619L134.5152758565979,101.10515362812923L134.8938786378479,100.83299978256227L135.27248141909791,100.56084593699529L135.6510842003479,100.2886920914283L136.0296869815979,100.01653824586134L136.40828976284791,99.74438440029438L136.7868925440979,99.4722305547274L137.1654953253479,99.20007670916043L137.5440981065979,98.92792286359347L137.9227008878479,98.6557690180265L138.3013036690979,98.38361517245954L138.67990645034791,98.11146132689257L139.0585092315979,97.83930748132558L139.4371120128479,97.56715363575861L139.81571479409791,97.29499979019165L140.1943175753479,97.02284594462468L140.5729203565979,96.7506920990577L140.9515231378479,96.47853825349074L141.3301259190979,96.20638440792378L141.7087287003479,95.93423056235682L142.08733148159791,95.66207671678984L142.4659342628479,95.38992287122285L142.8445370440979,95.11776902565589L143.22313982534791,94.84561518008893L143.6017426065979,94.57346133452195L143.9803453878479,94.30130748895498L144.35894816909789,94.02915364338801L144.7375509503479,93.75699979782105L145.1161537315979,93.48484595225409L145.4947565128479,93.21269210668711L145.8733592940979,92.94053826112012L146.2519620753479,92.66838441555316L146.63056485659789,92.3962305699862L147.0091676378479,92.12407672441923L147.3877704190979,91.85192287885225L147.7663732003479,91.57976903328529L148.1449759815979,91.30761518771833L148.5235787628479,91.03546134215136L148.90218154409789,90.76330749658439L149.2807843253479,90.4911536510174L149.6593871065979,90.21899980545044L150.03798988784789,89.94684595988348L150.4165926690979,89.6746921143165L150.7951954503479,89.40253826874952L151.1737982315979,89.13038442318256L151.5524010128479,88.8582305776156L151.9310037940979,88.58607673204861L152.30960657534789,88.31392288648166L152.6882093565979,88.04176904091467L153.0668121378479,87.76961519534771L153.44541491909789,87.49746134978074L153.82401770034792,87.22530750421377L154.2026204815979,86.95315365864681L154.5812232628479,86.68099981307984L154.9598260440979,86.40884596751287L155.3384288253479,86.13669212194588L155.71703160659789,85.86453827637894L156.0956343878479,85.59238443081195L156.4742371690979,85.32023058524499L156.85283995034789,85.04807673967801L157.23144273159792,84.77592289411105L157.6100455128479,84.50376904854407L157.9886482940979,84.23161520297711L158.3672510753479,83.95946135741015L158.7458538565979,83.68730751184316L159.12445663784789,83.41515366627621L159.5030594190979,83.14299982070922L159.8816622003479,82.87084597514226L160.26026498159789,82.59869212957528L160.63886776284792,82.32653828400832L161.0174705440979,82.05438443844135L161.3960733253479,81.78223059287438L161.7746761065979,81.51007674730742L162.1532788878479,81.23792290174043L162.53188166909788,80.96576905617349L162.9104844503479,80.6936152106065L163.2890872315979,80.42146136503953L163.66769001284788,80.14930751947256L164.04629279409792,79.8771536739056L164.4248955753479,79.60499982833862L164.8034983565979,79.33284598277166L165.1821011378479,79.0606921372047L165.5607039190979,78.7885382916377L165.93930670034788,78.51638444607075L166.3179094815979,78.24423060050377L166.69651226284788,77.97207675493681L167.07511504409788,77.69992290936983L167.45371782534792,77.42776906380287L167.8323206065979,77.1556152182359L168.2109233878479,76.88346137266893L168.5895261690979,76.61130752710194L168.9681289503479,76.33915368153498L169.34673173159788,76.06699983596802L169.7253345128479,75.79484599040104L170.10393729409788,75.52269214483408L170.48254007534788,75.2505382992671L170.86114285659792,74.97838445370014L171.2397456378479,74.70623060813317L171.6183484190979,74.4340767625662L171.9969512003479,74.16192291699922L172.3755539815979,73.88976907143226L172.75415676284788,73.6176152258653L173.1327595440979,73.34546138029832L173.51136232534787,73.07330753473136L173.88996510659788,72.80115368916438L174.26856788784792,72.52899984359742L174.6471706690979,72.25684599803044L175.0257734503479,71.98469215246348L175.4043762315979,71.71253830689649L175.7829790128479,71.44038446132953L176.16158179409788,71.16823061576255L176.5401845753479,70.89607677019559L176.91878735659787,70.62392292462863L177.2973901378479,70.35176907906165L177.67599291909792,70.07961523349469L178.0545957003479,69.80746138792772L178.4331984815979,69.53530754236075L178.8118012628479,69.26315369679376L179.1904040440979,68.9909998512268L179.56900682534788,68.71884600565983L179.9476096065979,68.44669216009287L180.32621238784787,68.1745383145259L180.7048151690979,67.90238446895893L181.08341795034792,67.63023062339197L181.4620207315979,67.35807677782499L181.8406235128479,67.08592293225803L182.2192262940979,66.81376908669104L182.5978290753479,66.54161524112408L182.97643185659788,66.2694613955571L183.3550346378479,65.99730754999014L183.73363741909787,65.72515370442316L184.1122402003479,65.4529998588562L184.49084298159792,65.18084601328924L184.8694457628479,64.90869216772226L185.2480485440979,64.6365383221553L185.6266513253479,64.36438447658831L186.0052541065979,64.09223063102135L186.38385688784788,63.820076785454376L186.7624596690979,63.547922939887414L187.14106245034787,63.27576909432044L187.5196652315979,63.003615248753476L187.89826801284792,62.731461403186515L188.2768707940979,62.45930755761953L188.6554735753479,62.18715371205257L189.0340763565979,61.914999866485594L189.4126791378479,61.64284602091863L189.79128191909788,61.37069217535165L190.1698847003479,61.09853832978469L190.54848748159787,60.82638448421771L190.9270902628479,60.55423063865075L191.30569304409792,60.28207679308379L191.6842958253479,60.009922947516806L192.0628986065979,59.737769101949844L192.4415013878479,59.46561525638287L192.8201041690979,59.19346141081591L193.19870695034788,58.921307565248924L193.5773097315979,58.64915371968196L193.95591251284787,58.376999874114986L194.3345152940979,58.104846028548025L194.71311807534792,57.83269218298104L195.0917208565979,57.56053833741408L195.4703236378479,57.28838449184712L195.8489264190979,57.01623064628014L196.2275292003479,56.74407680071318L196.60613198159788,56.4719229551462L196.9847347628479,56.199769109579236L197.3633375440979,55.92761526401226L197.7419403253479,55.6554614184453L198.12054310659792,55.383307572878316L198.4991458878479,55.111153727311354L198.8777486690979,54.83899988174439L199.2563514503479,54.56684603617742L199.6349542315979,54.294692190610455L200.01355701284788,54.02253834504347L200.3921597940979,53.75038449947651L200.7707625753479,53.478230653909534L201.1493653565979,53.20607680834257L201.52796813784792,52.93392296277559L201.9065709190979,52.66176911720863L202.2851737003479,52.389615271641645L202.6637764815979,52.11746142607469L203.0423792628479,51.84530758050773L203.42098204409788,51.573153734940746L203.7995848253479,51.300999889373784L204.1781876065979,51.02884604380681L204.5567903878479,50.75669219823985L204.93539316909792,50.484538352672864L205.3139959503479,50.2123845071059L205.6925987315979,49.94023066153892L206.0712015128479,49.668076815971965L206.4498042940979,49.395922970405L206.82840707534788,49.12376912483802L207.2070098565979,48.85161527927106L207.5856126378479,48.579461433704076L207.9642154190979,48.30730758813712L208.34281820034792,48.03515374257014L208.7214209815979,47.762999897003176L209.1000237628479,47.49084605143619L209.4786265440979,47.21869220586924L209.8572293253479,46.946538360302256L210.23583210659788,46.674384514735294L210.6144348878479,46.40223066916833L210.9930376690979,46.13007682360135L211.3716404503479,45.857922978034395L211.75024323159792,45.58576913246741L212.1288460128479,45.31361528690045L212.5074487940979,45.04146144133347L212.8860515753479,44.76930759576651L213.2646543565979,44.49715375019953L213.64325713784788,44.22499990463257L214.0218599190979,43.95284605906561L214.4004627003479,43.680692213498624L214.7790654815979,43.40853836793167L215.15766826284792,43.136384522364686L215.5362710440979,42.864230676797725L215.9148738253479,42.59207683123074L216.2934766065979,42.31992298566379L216.6720793878479,42.047769140096804L217.05068216909788,41.77561529452984L217.4292849503479,41.50346144896288L217.8078877315979,41.2313076033959L218.1864905128479,40.95915375782894L218.5650932940979,40.68699991226196L218.9436960753479,40.414846066695L219.3222988565979,40.142692221128016L219.7009016378479,39.87053837556106L220.0795044190979,39.59838452999408L220.45810720034788,39.32623068442712L220.83670998159792,39.054076838860134L221.2153127628479,38.78192299329317L221.5939155440979,38.50976914772622L221.9725183253479,38.237615302159234L222.3511211065979,37.96546145659227L222.7297238878479,37.69330761102529L223.1083266690979,37.42115376545833L223.4869294503479,37.14899991989135L223.86553223159788,36.87684607432439L224.24413501284792,36.60469222875741L224.6227377940979,36.332538383190446L225.0013405753479,36.06038453762349L225.3799433565979,35.78823069205651L225.7585461378479,35.51607684648955L226.1371489190979,35.243923000922564L226.5157517003479,34.9717691553556L226.8943544815979,34.699615309788626L227.27295726284788,34.427461464221665L227.65156004409792,34.15530761865468L228.0301628253479,33.88315377308772L228.4087656065979,33.610999927520744L228.7873683878479,33.33884608195378L229.1659711690979,33.06669223638682L229.5445739503479,32.79453839081984L229.9231767315979,32.522384545252876L230.3017795128479,32.2502306996859L230.68038229409788,31.97807685411894L231.05898507534792,31.70592300855196L231.4375878565979,31.433769162984998L231.8161906378479,31.161615317418015L232.1947934190979,30.889461471851057L232.5733962003479,30.617307626284095L232.9519989815979,30.345153780717116L233.3306017628479,30.072999935150154L233.7092045440979,29.800846089583175L234.08780732534788,29.528692244016213L234.46641010659792,29.256538398449234L234.8450128878479,28.984384552882272L235.2236156690979,28.71223070731529L235.6022184503479,28.44007686174833L235.9808212315979,28.167923016181348L236.35942401284788,27.89576917061439L236.7380267940979,27.623615325047428L237.1166295753479,27.35146147948045L237.49523235659788,27.079307633913487L237.87383513784792,26.807153788346504L238.2524379190979,26.534999942779546L238.6310407003479,26.262846097212563L239.0096434815979,25.990692251645605L239.3882462628479,25.718538406078622L239.76684904409788,25.446384560511664L240.1454518253479,25.174230714944702L240.5240546065979,24.902076869377723L240.90265738784788,24.62992302381076L241.28126016909792,24.357769178243778L241.6598629503479,24.08561533267682L242.0384657315979,23.813461487109837L242.4170685128479,23.54130764154288L242.7956712940979,23.269153795975896L243.17427407534788,22.996999950408938L243.5528768565979,22.724846104841976L243.9314796378479,22.452692259274993L244.3100824190979,22.180538413708035L244.68868520034792,21.908384568141052L245.0672879815979,21.636230722574094L245.4458907628479,21.36407687700711L245.8244935440979,21.091923031440153L246.2030963253479,20.81976918587317L246.58169910659788,20.547615340306212L246.9603018878479,20.27546149473923L247.3389046690979,20.003307649172267L247.7175074503479,19.73115380360531L248.09611023159792,19.458999958038326L248.4747130128479,19.18684611247137L248.8533157940979,18.914692266904385L249.2319185753479,18.642538421337427L249.6105213565979,18.370384575770444L249.98912413784788,18.098230730203483L250.3677269190979,17.826076884636503L250.7463297003479,17.55392303906954L251.1249324815979,17.281769193502583L251.50353526284792,17.0096153479356L251.8821380440979,16.737461502368642L252.2607408253479,16.46530765680166L252.6393436065979,16.1931538112347L253.0179463878479,15.920999965667718L253.39654916909788,15.648846120100758L253.7751519503479,15.376692274533777L254.1537547315979,15.104538428966817L254.5323575128479,14.832384583399836L254.91096029409792,14.560230737832876L255.2895630753479,14.288076892265915L255.6681658565979,14.015923046698934L256.0467686378479,13.743769201131974L256.42537141909787,13.471615355564992L256.8039742003479,13.199461509998033L257.1825769815979,12.927307664431051L257.56117976284787,12.655153818864092L257.9397825440979,12.38299997329711L258.3183853253479,12.11084612773015L258.6969881065979,11.838692282163189L259.0755908878479,11.566538436596208L259.4541936690979,11.294384591029248L259.83279645034787,11.022230745462267L260.2113992315979,10.750076899895307L260.5900020128479,10.477923054328325L260.96860479409787,10.205769208761366L261.3472075753479,9.933615363194384L261.7258103565979,9.661461517627423L262.1044131378479,9.389307672060443L262.4830159190979,9.117153826493482L262.8616187003479,8.844999980926522" fill="none"></path></g></g></g></g><g opacity="0.2"><g><g><g><path style="fill: none;" stroke="rgb(0, 153, 136)" stroke-width="2px" d="M28.8850998878479,176.62784577296333L29.263702669097903,176.35569192739632L29.642305450347898,176.08353808182937L30.0209082315979,175.8113842362624L30.3995110128479,175.53923039069542L30.7781137940979,175.26707654512845L31.1567165753479,174.9949226995615L31.5353193565979,174.7227688539945L31.9139221378479,174.45061500842755L32.2925249190979,174.1784611628606L32.6711277003479,173.9063073172936L33.049730481597905,173.63415347172665L33.4283332628479,173.36199962615967L33.806936044097895,173.0898457805927L34.1855388253479,172.81769193502572L34.5641416065979,172.54553808945877L34.9427443878479,172.27338424389177L35.3213471690979,172.00123039832482L35.6999499503479,171.72907655275785L36.0785527315979,171.45692270719087L36.457155512847905,171.18476886162392L36.8357582940979,170.91261501605695L37.2143610753479,170.64046117048997L37.5929638565979,170.368307324923L37.9715666378479,170.09615347935605L38.3501694190979,169.82399963378904L38.728772200347905,169.5518457882221L39.1073749815979,169.27969194265512L39.485977762847895,169.00753809708814L39.864580544097905,168.73538425152117L40.2431833253479,168.46323040595422L40.6217861065979,168.19107656038724L41.0003888878479,167.91892271482027L41.3789916690979,167.64676886925332L41.7575944503479,167.37461502368632L42.136197231597905,167.10246117811937L42.5148000128479,166.8303073325524L42.8934027940979,166.55815348698542L43.2720055753479,166.28599964141844L43.6506083565979,166.0138457958515L44.0292111378479,165.74169195028452L44.4078139190979,165.46953810471754L44.7864167003479,165.1973842591506L45.165019481597895,164.9252304135836L45.543622262847904,164.65307656801664L45.9222250440979,164.38092272244967L46.3008278253479,164.1087688768827L46.6794306065979,163.83661503131572L47.05803338784791,163.56446118574877L47.4366361690979,163.2923073401818L47.8152389503479,163.02015349461482L48.1938417315979,162.74799964904787L48.572444512847895,162.47584580348087L48.951047294097904,162.20369195791392L49.3296500753479,161.93153811234694L49.7082528565979,161.65938426677997L50.0868556378479,161.387230421213L50.46545841909791,161.11507657564604L50.8440612003479,160.84292273007907L51.2226639815979,160.5707688845121L51.6012667628479,160.29861503894514L51.979869544097895,160.02646119337814L52.358472325347904,159.7543073478112L52.7370751065979,159.48215350224422L53.1156778878479,159.20999965667724L53.4942806690979,158.93784581111026L53.872883450347906,158.66569196554332L54.2514862315979,158.39353811997634L54.630089012847904,158.12138427440937L55.0086917940979,157.8492304288424L55.387294575347894,157.5770765832754L55.765897356597904,157.30492273770847L56.1445001378479,157.0327688921415L56.5231029190979,156.76061504657451L56.9017057003479,156.48846120100754L57.280308481597906,156.2163073554406L57.6589112628479,155.94415350987362L58.037514044097904,155.67199966430664L58.4161168253479,155.39984581873966L58.7947196065979,155.1276919731727L59.173322387847904,154.85553812760574L59.5519251690979,154.58338428203876L59.9305279503479,154.3112304364718L60.3091307315979,154.0390765909048L60.6877335128479,153.76692274533787L61.0663362940979,153.4947688997709L61.444939075347904,153.2226150542039L61.8235418565979,152.95046120863694L62.2021446378479,152.67830736306996L62.580747419097904,152.40615351750301L62.9593502003479,152.13399967193604L63.3379529815979,151.86184582636906L63.7165557628479,151.5896919808021L64.0951585440979,151.31753813523514L64.4737613253479,151.04538428966816L64.8523641065979,150.7732304441012L65.2309668878479,150.5010765985342L65.60956966909791,150.22892275296724L65.9881724503479,149.9567689074003L66.3667752315979,149.6846150618333L66.7453780128479,149.41246121626634L67.1239807940979,149.14030737069936L67.5025835753479,148.8681535251324L67.8811863565979,148.59599967956544L68.2597891378479,148.32384583399846L68.6383919190979,148.0516919884315L69.01699470034791,147.7795381428645L69.3955974815979,147.50738429729756L69.7742002628479,147.2352304517306L70.1528030440979,146.9630766061636L70.5314058253479,146.69092276059664L70.9100086065979,146.4187689150297L71.2886113878479,146.1466150694627L71.6672141690979,145.87446122389574L72.0458169503479,145.60230737832876L72.4244197315979,145.33015353276178L72.8030225128479,145.05799968719484L73.1816252940979,144.78584584162786L73.5602280753479,144.51369199606089L73.93883085659789,144.2415381504939L74.31743363784791,143.96938430492696L74.69603641909791,143.69723045936L75.0746392003479,143.425076613793L75.4532419815979,143.15292276822603L75.8318447628479,142.88076892265906L76.2104475440979,142.6086150770921L76.5890503253479,142.33646123152513L76.9676531065979,142.06430738595816L77.34625588784789,141.79215354039118L77.72485866909791,141.51999969482424L78.10346145034791,141.24784584925726L78.4820642315979,140.97569200369028L78.8606670128479,140.7035381581233L79.2392697940979,140.43138431255633L79.6178725753479,140.15923046698936L79.9964753565979,139.8870766214224L80.3750781378479,139.61492277585543L80.75368091909789,139.34276893028846L81.13228370034791,139.0706150847215L81.51088648159791,138.79846123915453L81.8894892628479,138.52630739358756L82.2680920440979,138.25415354802058L82.64669482534791,137.9819997024536L83.0252976065979,137.70984585688663L83.4039003878479,137.43769201131968L83.7825031690979,137.1655381657527L84.16110595034789,136.89338432018573L84.53970873159791,136.62123047461878L84.91831151284791,136.3490766290518L85.2969142940979,136.0769227834848L85.6755170753479,135.80476893791786L86.05411985659791,135.53261509235088L86.4327226378479,135.2604612467839L86.8113254190979,134.98830740121696L87.1899282003479,134.71615355564998L87.56853098159789,134.443999710083L87.94713376284791,134.17184586451606L88.32573654409791,133.89969201894908L88.7043393253479,133.62753817338208L89.0829421065979,133.35538432781513L89.46154488784791,133.08323048224815L89.8401476690979,132.81107663668118L90.2187504503479,132.53892279111423L90.59735323159789,132.26676894554726L90.97595601284789,131.99461509998028L91.35455879409791,131.72246125441333L91.7331615753479,131.45030740884633L92.1117643565979,131.17815356327935L92.4903671378479,130.9059997177124L92.8689699190979,130.63384587214543L93.2475727003479,130.36169202657845L93.6261754815979,130.08953818101148L94.00477826284789,129.81738433544453L94.3833810440979,129.54523048987755L94.76198382534791,129.2730766443106L95.1405866065979,129.0009227987436L95.5191893878479,128.72876895317663L95.8977921690979,128.45661510760968L96.2763949503479,128.1844612620427L96.6549977315979,127.91230741647573L97.0336005128479,127.64015357090875L97.41220329409789,127.36799972534179L97.7908060753479,127.09584587977483L98.1694088565979,126.82369203420787L98.5480116378479,126.55153818864089L98.9266144190979,126.27938434307391L99.3052172003479,126.00723049750695L99.6838199815979,125.73507665193999L100.0624227628479,125.462922806373L100.4410255440979,125.19076896080603L100.81962832534789,124.91861511523906L101.1982311065979,124.6464612696721L101.5768338878479,124.37430742410514L101.9554366690979,124.10215357853816L102.3340394503479,123.82999973297119L102.7126422315979,123.55784588740423L103.0912450128479,123.28569204183727L103.4698477940979,123.01353819627028L103.8484505753479,122.7413843507033L104.22705335659789,122.46923050513634L104.6056561378479,122.19707665956938L104.9842589190979,121.92492281400241L105.3628617003479,121.65276896843544L105.7414644815979,121.38061512286846L106.12006726284791,121.1084612773015L106.4986700440979,120.83630743173454L106.8772728253479,120.56415358616755L107.2558756065979,120.29199974060057L107.63447838784789,120.01984589503361L108.0130811690979,119.74769204946665L108.3916839503479,119.47553820389967L108.77028673159789,119.20338435833271L109.1488895128479,118.93123051276574L109.52749229409791,118.65907666719878L109.9060950753479,118.38692282163181L110.2846978565979,118.11476897606482L110.6633006378479,117.84261513049785L111.04190341909789,117.57046128493089L111.4205062003479,117.29830743936392L111.7991089815979,117.02615359379695L112.17771176284789,116.75399974822997L112.5563145440979,116.48184590266301L112.93491732534791,116.20969205709605L113.3135201065979,115.93753821152909L113.6921228878479,115.6653843659621L114.0707256690979,115.39323052039512L114.44932845034789,115.12107667482816L114.8279312315979,114.8489228292612L115.2065340128479,114.57676898369422L115.58513679409789,114.30461513812725L115.96373957534789,114.03246129256028L116.34234235659791,113.76030744699332L116.7209451378479,113.48815360142636L117.0995479190979,113.21599975585937L117.4781507003479,112.9438459102924L117.8567534815979,112.67169206472543L118.2353562628479,112.39953821915847L118.6139590440979,112.1273843735915L118.99256182534789,111.85523052802452L119.37116460659789,111.58307668245756L119.74976738784791,111.3109228368906L120.1283701690979,111.03876899132364L120.5069729503479,110.76661514575665L120.8855757315979,110.49446130018967L121.2641785128479,110.22230745462271L121.6427812940979,109.95015360905575L122.0213840753479,109.67799976348877L122.39998685659789,109.4058459179218L122.77858963784789,109.13369207235483L123.15719241909791,108.86153822678787L123.5357952003479,108.58938438122088L123.9143979815979,108.31723053565392L124.2930007628479,108.04507669008694L124.6716035440979,107.77292284451998L125.0502063253479,107.50076899895302L125.4288091065979,107.22861515338604L125.80741188784789,106.95646130781907L126.18601466909789,106.68430746225211L126.56461745034791,106.41215361668515L126.9432202315979,106.13999977111816L127.3218230128479,105.8678459255512L127.7004257940979,105.59569207998422L128.0790285753479,105.32353823441726L128.45763135659791,105.0513843888503L128.8362341378479,104.77923054328332L129.2148369190979,104.50707669771634L129.59343970034791,104.23492285214938L129.9720424815979,103.96276900658242L130.3506452628479,103.69061516101543L130.7292480440979,103.41846131544845L131.1078508253479,103.14630746988149L131.4864536065979,102.87415362431453L131.86505638784791,102.60199977874757L132.2436591690979,102.3298459331806L132.6222619503479,102.05769208761362L133.00086473159791,101.78553824204666L133.3794675128479,101.5133843964797L133.7580702940979,101.2412305509127L134.1366730753479,100.96907670534573L134.5152758565979,100.69692285977877L134.8938786378479,100.4247690142118L135.27248141909791,100.15261516864484L135.6510842003479,99.88046132307787L136.0296869815979,99.60830747751089L136.40828976284791,99.33615363194393L136.7868925440979,99.06399978637697L137.1654953253479,98.79184594080998L137.5440981065979,98.519692095243L137.9227008878479,98.24753824967604L138.3013036690979,97.97538440410908L138.67990645034791,97.70323055854212L139.0585092315979,97.43107671297514L139.4371120128479,97.15892286740815L139.81571479409791,96.8867690218412L140.1943175753479,96.61461517627424L140.5729203565979,96.34246133070725L140.9515231378479,96.07030748514028L141.3301259190979,95.79815363957331L141.7087287003479,95.52599979400635L142.08733148159791,95.25384594843938L142.4659342628479,94.98169210287242L142.8445370440979,94.70953825730543L143.22313982534791,94.43738441173848L143.6017426065979,94.16523056617152L143.9803453878479,93.89307672060453L144.35894816909789,93.62092287503755L144.7375509503479,93.34876902947059L145.1161537315979,93.07661518390363L145.4947565128479,92.80446133833665L145.8733592940979,92.53230749276966L146.2519620753479,92.2601536472027L146.63056485659789,91.98799980163575L147.0091676378479,91.71584595606879L147.3877704190979,91.4436921105018L147.7663732003479,91.17153826493482L148.1449759815979,90.89938441936786L148.5235787628479,90.6272305738009L148.90218154409789,90.35507672823393L149.2807843253479,90.08292288266694L149.6593871065979,89.81076903709997L150.03798988784789,89.53861519153303L150.4165926690979,89.26646134596606L150.7951954503479,88.99430750039907L151.1737982315979,88.7221536548321L151.5524010128479,88.44999980926514L151.9310037940979,88.17784596369818L152.30960657534789,87.9056921181312L152.6882093565979,87.63353827256424L153.0668121378479,87.36138442699725L153.44541491909789,87.0892305814303L153.82401770034792,86.81707673586331L154.2026204815979,86.54492289029635L154.5812232628479,86.27276904472937L154.9598260440979,86.00061519916241L155.3384288253479,85.72846135359545L155.71703160659789,85.45630750802847L156.0956343878479,85.18415366246151L156.4742371690979,84.91199981689452L156.85283995034789,84.63984597132757L157.23144273159792,84.36769212576058L157.6100455128479,84.09553828019362L157.9886482940979,83.82338443462665L158.3672510753479,83.55123058905968L158.7458538565979,83.27907674349271L159.12445663784789,83.00692289792575L159.5030594190979,82.73476905235879L159.8816622003479,82.4626152067918L160.26026498159789,82.19046136122485L160.63886776284792,81.91830751565786L161.0174705440979,81.6461536700909L161.3960733253479,81.37399982452392L161.7746761065979,81.10184597895696L162.1532788878479,80.82969213338998L162.53188166909788,80.55753828782302L162.9104844503479,80.28538444225606L163.2890872315979,80.01323059668907L163.66769001284788,79.74107675112212L164.04629279409792,79.46892290555513L164.4248955753479,79.19676905998817L164.8034983565979,78.9246152144212L165.1821011378479,78.65246136885423L165.5607039190979,78.38030752328726L165.93930670034788,78.1081536777203L166.3179094815979,77.8359998321533L166.69651226284788,77.56384598658634L167.07511504409788,77.29169214101938L167.45371782534792,77.0195382954524L167.8323206065979,76.74738444988544L168.2109233878479,76.47523060431847L168.5895261690979,76.20307675875151L168.9681289503479,75.93092291318453L169.34673173159788,75.65876906761757L169.7253345128479,75.38661522205058L170.10393729409788,75.11446137648362L170.48254007534788,74.84230753091666L170.86114285659792,74.57015368534968L171.2397456378479,74.29799983978272L171.6183484190979,74.02584599421574L171.9969512003479,73.75369214864878L172.3755539815979,73.4815383030818L172.75415676284788,73.20938445751484L173.1327595440979,72.93723061194785L173.51136232534787,72.66507676638089L173.88996510659788,72.39292292081392L174.26856788784792,72.12076907524695L174.6471706690979,71.84861522968L175.0257734503479,71.57646138411302L175.4043762315979,71.30430753854606L175.7829790128479,71.03215369297908L176.16158179409788,70.75999984741212L176.5401845753479,70.48784600184513L176.91878735659787,70.21569215627817L177.2973901378479,69.94353831071119L177.67599291909792,69.67138446514423L178.0545957003479,69.39923061957727L178.4331984815979,69.12707677401029L178.8118012628479,68.85492292844333L179.1904040440979,68.58276908287635L179.56900682534788,68.31061523730939L179.9476096065979,68.0384613917424L180.32621238784787,67.76630754617544L180.7048151690979,67.49415370060846L181.08341795034792,67.2219998550415L181.4620207315979,66.94984600947454L181.8406235128479,66.67769216390757L182.2192262940979,66.4055383183406L182.5978290753479,66.13338447277363L182.97643185659788,65.86123062720667L183.3550346378479,65.58907678163968L183.73363741909787,65.31692293607271L184.1122402003479,65.04476909050574L184.49084298159792,64.77261524493878L184.8694457628479,64.5004613993718L185.2480485440979,64.22830755380484L185.6266513253479,63.95615370823788L186.0052541065979,63.683999862670895L186.38385688784788,63.41184601710393L186.7624596690979,63.13969217153696L187.14106245034787,62.867538325969996L187.5196652315979,62.59538448040301L187.89826801284792,62.32323063483605L188.2768707940979,62.051076789269075L188.6554735753479,61.77892294370211L189.0340763565979,61.50676909813515L189.4126791378479,61.23461525256817L189.79128191909788,60.96246140700121L190.1698847003479,60.69030756143423L190.54848748159787,60.41815371586727L190.9270902628479,60.14599987030029L191.30569304409792,59.873846024733325L191.6842958253479,59.60169217916635L192.0628986065979,59.32953833359939L192.4415013878479,59.057384488032405L192.8201041690979,58.78523064246544L193.19870695034788,58.51307679689848L193.5773097315979,58.240922951331505L193.95591251284787,57.968769105764544L194.3345152940979,57.69661526019756L194.71311807534792,57.4244614146306L195.0917208565979,57.15230756906362L195.4703236378479,56.88015372349666L195.8489264190979,56.60799987792968L196.2275292003479,56.33584603236272L196.60613198159788,56.063692186795755L196.9847347628479,55.79153834122878L197.3633375440979,55.51938449566182L197.7419403253479,55.247230650094835L198.12054310659792,54.97507680452787L198.4991458878479,54.7029229589609L198.8777486690979,54.430769113393936L199.2563514503479,54.15861526782695L199.6349542315979,53.88646142225999L200.01355701284788,53.61430757669301L200.3921597940979,53.342153731126054L200.7707625753479,53.06999988555909L201.1493653565979,52.79784603999211L201.52796813784792,52.52569219442515L201.9065709190979,52.25353834885817L202.2851737003479,51.98138450329121L202.6637764815979,51.70923065772423L203.0423792628479,51.437076812157265L203.42098204409788,51.16492296659028L203.7995848253479,50.89276912102333L204.1781876065979,50.620615275456366L204.5567903878479,50.34846142988938L204.93539316909792,50.07630758432242L205.3139959503479,49.804153738755446L205.6925987315979,49.531999893188484L206.0712015128479,49.2598460476215L206.4498042940979,48.98769220205454L206.82840707534788,48.715538356487556L207.2070098565979,48.4433845109206L207.5856126378479,48.17123066535364L207.9642154190979,47.89907681978666L208.34281820034792,47.626922974219696L208.7214209815979,47.35476912865271L209.1000237628479,47.08261528308576L209.4786265440979,46.810461437518775L209.8572293253479,46.53830759195181L210.23583210659788,46.26615374638483L210.6144348878479,45.993999900817876L210.9930376690979,45.72184605525089L211.3716404503479,45.44969220968393L211.75024323159792,45.17753836411697L212.1288460128479,44.90538451854999L212.5074487940979,44.63323067298303L212.8860515753479,44.36107682741605L213.2646543565979,44.08892298184909L213.64325713784788,43.816769136282105L214.0218599190979,43.54461529071515L214.4004627003479,43.27246144514817L214.7790654815979,43.000307599581205L215.15766826284792,42.728153754014244L215.5362710440979,42.45599990844726L215.9148738253479,42.183846062880306L216.2934766065979,41.91169221731332L216.6720793878479,41.63953837174636L217.05068216909788,41.36738452617938L217.4292849503479,41.095230680612424L217.8078877315979,40.82307683504544L218.1864905128479,40.55092298947848L218.5650932940979,40.2787691439115L218.9436960753479,40.006615298344535L219.3222988565979,39.73446145277758L219.7009016378479,39.4623076072106L220.0795044190979,39.190153761643636L220.45810720034788,38.91799991607665L220.83670998159792,38.64584607050969L221.2153127628479,38.373692224942715L221.5939155440979,38.101538379375754L221.9725183253479,37.82938453380877L222.3511211065979,37.55723068824181L222.7297238878479,37.285076842674854L223.1083266690979,37.01292299710787L223.4869294503479,36.74076915154091L223.86553223159788,36.46861530597393L224.24413501284792,36.196461460406965L224.6227377940979,35.92430761483999L225.0013405753479,35.65215376927303L225.3799433565979,35.379999923706045L225.7585461378479,35.10784607813908L226.1371489190979,34.83569223257213L226.5157517003479,34.563538387005146L226.8943544815979,34.291384541438184L227.27295726284788,34.0192306958712L227.65156004409792,33.74707685030424L228.0301628253479,33.47492300473726L228.4087656065979,33.2027691591703L228.7873683878479,32.93061531360332L229.1659711690979,32.65846146803636L229.5445739503479,32.38630762246938L229.9231767315979,32.11415377690242L230.3017795128479,31.841999931335458L230.68038229409788,31.56984608576848L231.05898507534792,31.297692240201517L231.4375878565979,31.025538394634538L231.8161906378479,30.753384549067576L232.1947934190979,30.481230703500596L232.5733962003479,30.209076857933635L232.9519989815979,29.936923012366652L233.3306017628479,29.664769166799694L233.7092045440979,29.392615321232732L234.08780732534788,29.120461475665753L234.46641010659792,28.84830763009879L234.8450128878479,28.57615378453181L235.2236156690979,28.30399993896485L235.6022184503479,28.031846093397867L235.9808212315979,27.75969224783091L236.35942401284788,27.487538402263926L236.7380267940979,27.215384556696968L237.1166295753479,26.943230711129985L237.49523235659788,26.671076865563027L237.87383513784792,26.398923019996065L238.2524379190979,26.126769174429086L238.6310407003479,25.854615328862124L239.0096434815979,25.58246148329514L239.3882462628479,25.310307637728183L239.76684904409788,25.0381537921612L240.1454518253479,24.765999946594242L240.5240546065979,24.49384610102726L240.90265738784788,24.2216922554603L241.28126016909792,23.94953840989334L241.6598629503479,23.677384564326356L242.0384657315979,23.405230718759398L242.4170685128479,23.133076873192415L242.7956712940979,22.860923027625457L243.17427407534788,22.588769182058474L243.5528768565979,22.316615336491516L243.9314796378479,22.044461490924533L244.3100824190979,21.772307645357575L244.68868520034792,21.500153799790592L245.0672879815979,21.22799995422363L245.4458907628479,20.955846108656672L245.8244935440979,20.68369226308969L246.2030963253479,20.41153841752273L246.58169910659788,20.13938457195575L246.9603018878479,19.86723072638879L247.3389046690979,19.595076880821807L247.7175074503479,19.322923035254846L248.09611023159792,19.050769189687866L248.4747130128479,18.778615344120904L248.8533157940979,18.506461498553946L249.2319185753479,18.234307652986963L249.6105213565979,17.962153807420005L249.98912413784788,17.689999961853022L250.3677269190979,17.417846116286064L250.7463297003479,17.14569227071908L251.1249324815979,16.87353842515212L251.50353526284792,16.60138457958514L251.8821380440979,16.32923073401818L252.2607408253479,16.05707688845122L252.6393436065979,15.78492304288424L253.0179463878479,15.512769197317278L253.39654916909788,15.240615351750298L253.7751519503479,14.968461506183337L254.1537547315979,14.696307660616355L254.5323575128479,14.424153815049396L254.91096029409792,14.151999969482414L255.2895630753479,13.879846123915454L255.6681658565979,13.607692278348473L256.0467686378479,13.335538432781513L256.42537141909787,13.063384587214552L256.8039742003479,12.79123074164757L257.1825769815979,12.51907689608061L257.56117976284787,12.24692305051363L257.9397825440979,11.97476920494667L258.3183853253479,11.702615359379688L258.6969881065979,11.430461513812729L259.0755908878479,11.158307668245747L259.4541936690979,10.886153822678788L259.83279645034787,10.613999977111826L260.2113992315979,10.341846131544845L260.5900020128479,10.069692285977885L260.96860479409787,9.797538440410904L261.3472075753479,9.525384594843944L261.7258103565979,9.253230749276963L262.1044131378479,8.981076903710003L262.4830159190979,8.708923058143021L262.8616187003479,8.43676921257606" fill="none"></path></g></g></g></g></g></g><g transform="translate(41, 176)" clip-path="url(#clip_1)"><clipPath id="clip_1"><rect width="288" height="23"></rect></clipPath><g><g><line x1="0" y1="0" x2="0" y2="5" style="visibility: inherit;" fill="rgb(0, 0, 0)" stroke="rgb(204, 204, 204)" stroke-width="1px"></line><line x1="28.8850998878479" y1="0" x2="28.8850998878479" y2="5" style="visibility: inherit;" fill="rgb(0, 0, 0)" stroke="rgb(204, 204, 204)" stroke-width="1px"></line><line x1="57.7701997756958" y1="0" x2="57.7701997756958" y2="5" style="visibility: inherit;" fill="rgb(0, 0, 0)" stroke="rgb(204, 204, 204)" stroke-width="1px"></line><line x1="86.6552996635437" y1="0" x2="86.6552996635437" y2="5" style="visibility: inherit;" fill="rgb(0, 0, 0)" stroke="rgb(204, 204, 204)" stroke-width="1px"></line><line x1="115.5403995513916" y1="0" x2="115.5403995513916" y2="5" style="visibility: inherit;" fill="rgb(0, 0, 0)" stroke="rgb(204, 204, 204)" stroke-width="1px"></line><line x1="144.4254994392395" y1="0" x2="144.4254994392395" y2="5" style="visibility: inherit;" fill="rgb(0, 0, 0)" stroke="rgb(204, 204, 204)" stroke-width="1px"></line><line x1="173.3105993270874" y1="0" x2="173.3105993270874" y2="5" style="visibility: inherit;" fill="rgb(0, 0, 0)" stroke="rgb(204, 204, 204)" stroke-width="1px"></line><line x1="202.1956992149353" y1="0" x2="202.1956992149353" y2="5" style="visibility: inherit;" fill="rgb(0, 0, 0)" stroke="rgb(204, 204, 204)" stroke-width="1px"></line><line x1="231.0807991027832" y1="0" x2="231.0807991027832" y2="5" style="visibility: inherit;" fill="rgb(0, 0, 0)" stroke="rgb(204, 204, 204)" stroke-width="1px"></line><line x1="259.9658989906311" y1="0" x2="259.9658989906311" y2="5" style="visibility: inherit;" fill="rgb(0, 0, 0)" stroke="rgb(204, 204, 204)" stroke-width="1px"></line><line x1="288.850998878479" y1="0" x2="288.850998878479" y2="5" style="visibility: inherit;" fill="rgb(0, 0, 0)" stroke="rgb(204, 204, 204)" stroke-width="1px"></line></g><g transform="translate(0, 8)"><text style="text-anchor: middle; visibility: hidden; font-family: Roboto, sans-serif; font-size: 12px; font-weight: 200;" x="0" y="0" dx="0em" dy="0.95em" fill="rgb(33, 33, 33)" stroke="none" stroke-width="1px">-10M</text><text style="text-anchor: middle; visibility: inherit; font-family: Roboto, sans-serif; font-size: 12px; font-weight: 200;" x="28.8850998878479" y="0" dx="0em" dy="0.95em" fill="rgb(33, 33, 33)" stroke="none" stroke-width="1px">0</text><text style="text-anchor: middle; visibility: hidden; font-family: Roboto, sans-serif; font-size: 12px; font-weight: 200;" x="57.7701997756958" y="0" dx="0em" dy="0.95em" fill="rgb(33, 33, 33)" stroke="none" stroke-width="1px">10M</text><text style="text-anchor: middle; visibility: inherit; font-family: Roboto, sans-serif; font-size: 12px; font-weight: 200;" x="86.6552996635437" y="0" dx="0em" dy="0.95em" fill="rgb(33, 33, 33)" stroke="none" stroke-width="1px">20M</text><text style="text-anchor: middle; visibility: hidden; font-family: Roboto, sans-serif; font-size: 12px; font-weight: 200;" x="115.5403995513916" y="0" dx="0em" dy="0.95em" fill="rgb(33, 33, 33)" stroke="none" stroke-width="1px">30M</text><text style="text-anchor: middle; visibility: inherit; font-family: Roboto, sans-serif; font-size: 12px; font-weight: 200;" x="144.4254994392395" y="0" dx="0em" dy="0.95em" fill="rgb(33, 33, 33)" stroke="none" stroke-width="1px">40M</text><text style="text-anchor: middle; visibility: hidden; font-family: Roboto, sans-serif; font-size: 12px; font-weight: 200;" x="173.3105993270874" y="0" dx="0em" dy="0.95em" fill="rgb(33, 33, 33)" stroke="none" stroke-width="1px">50M</text><text style="text-anchor: middle; visibility: inherit; font-family: Roboto, sans-serif; font-size: 12px; font-weight: 200;" x="202.1956992149353" y="0" dx="0em" dy="0.95em" fill="rgb(33, 33, 33)" stroke="none" stroke-width="1px">60M</text><text style="text-anchor: middle; visibility: hidden; font-family: Roboto, sans-serif; font-size: 12px; font-weight: 200;" x="231.0807991027832" y="0" dx="0em" dy="0.95em" fill="rgb(33, 33, 33)" stroke="none" stroke-width="1px">70M</text><text style="text-anchor: middle; visibility: inherit; font-family: Roboto, sans-serif; font-size: 12px; font-weight: 200;" x="259.9658989906311" y="0" dx="0em" dy="0.95em" fill="rgb(33, 33, 33)" stroke="none" stroke-width="1px">80M</text><text style="text-anchor: middle; visibility: hidden; font-family: Roboto, sans-serif; font-size: 12px; font-weight: 200;" x="288.850998878479" y="0" dx="0em" dy="0.95em" fill="rgb(33, 33, 33)" stroke="none" stroke-width="1px">90M</text></g><line x1="0" y1="0" x2="288.850998878479" y2="0" fill="rgb(0, 0, 0)" stroke="rgb(204, 204, 204)" stroke-width="1px"></line></g></g></g></g></svg>