<svg viewBox="0 0 330 200" xmlns="http://www.w3.org/2000/svg"><g><g><g><g><g><line x1="61.91500186920166" y1="176.89999961853027" x2="56.91500186920166" y2="176.89999961853027" style="visibility: inherit;" fill="rgb(0, 0, 0)" stroke="rgb(204, 204, 204)" stroke-width="1px"></line><line x1="61.91500186920166" y1="157.24444410536023" x2="56.91500186920166" y2="157.24444410536023" style="visibility: inherit;" fill="rgb(0, 0, 0)" stroke="rgb(204, 204, 204)" stroke-width="1px"></line><line x1="61.91500186920166" y1="137.58888859219024" x2="56.91500186920166" y2="137.58888859219024" style="visibility: inherit;" fill="rgb(0, 0, 0)" stroke="rgb(204, 204, 204)" stroke-width="1px"></line><line x1="61.91500186920166" y1="117.9333330790202" x2="56.91500186920166" y2="117.9333330790202" style="visibility: inherit;" fill="rgb(0, 0, 0)" stroke="rgb(204, 204, 204)" stroke-width="1px"></line><line x1="61.91500186920166" y1="98.27777756585016" x2="56.91500186920166" y2="98.27777756585016" style="visibility: inherit;" fill="rgb(0, 0, 0)" stroke="rgb(204, 204, 204)" stroke-width="1px"></line><line x1="61.91500186920166" y1="78.62222205268012" x2="56.91500186920166" y2="78.62222205268012" style="visibility: inherit;" fill="rgb(0, 0, 0)" stroke="rgb(204, 204, 204)" stroke-width="1px"></line><line x1="61.91500186920166" y1="58.966666539510136" x2="56.91500186920166" y2="58.966666539510136" style="visibility: inherit;" fill="rgb(0, 0, 0)" stroke="rgb(204, 204, 204)" stroke-width="1px"></line><line x1="61.91500186920166" y1="39.3111110263401" x2="56.91500186920166" y2="39.3111110263401" style="visibility: inherit;" fill="rgb(0, 0, 0)" stroke="rgb(204, 204, 204)" stroke-width="1px"></line><line x1="61.91500186920166" y1="19.65555551317004" x2="56.91500186920166" y2="19.65555551317004" style="visibility: inherit;" fill="rgb(0, 0, 0)" stroke="rgb(204, 204, 204)" stroke-width="1px"></line><line x1="61.91500186920166" y1="0" x2="56.91500186920166" y2="0" style="visibility: inherit;" fill="rgb(0, 0, 0)" stroke="rgb(204, 204, 204)" stroke-width="1px"></line></g><g transform="translate(51.91500186920166, 0)"><text style="text-anchor: end; visibility: hidden; font-family: Roboto, sans-serif; font-size: 12px; font-weight: 200;" x="0" y="176.89999961853027" dx="0em" dy="0.3em" fill="rgb(33, 33, 33)" stroke="none" stroke-width="1px">0.016</text><text style="text-anchor: end; visibility: inherit; font-family: Roboto, sans-serif; font-size: 12px; font-weight: 200;" x="0" y="157.24444410536023" dx="0em" dy="0.3em" fill="rgb(33, 33, 33)" stroke="none" stroke-width="1px">0.017</text><text style="text-anchor: end; visibility: hidden; font-family: Roboto, sans-serif; font-size: 12px; font-weight: 200;" x="0" y="137.58888859219024" dx="0em" dy="0.3em" fill="rgb(33, 33, 33)" stroke="none" stroke-width="1px">0.018</text><text style="text-anchor: end; visibility: inherit; font-family: Roboto, sans-serif; font-size: 12px; font-weight: 200;" x="0" y="117.9333330790202" dx="0em" dy="0.3em" fill="rgb(33, 33, 33)" stroke="none" stroke-width="1px">0.019</text><text style="text-anchor: end; visibility: hidden; font-family: Roboto, sans-serif; font-size: 12px; font-weight: 200;" x="0" y="98.27777756585016" dx="0em" dy="0.3em" fill="rgb(33, 33, 33)" stroke="none" stroke-width="1px">0.02</text><text style="text-anchor: end; visibility: inherit; font-family: Roboto, sans-serif; font-size: 12px; font-weight: 200;" x="0" y="78.62222205268012" dx="0em" dy="0.3em" fill="rgb(33, 33, 33)" stroke="none" stroke-width="1px">0.021</text><text style="text-anchor: end; visibility: hidden; font-family: Roboto, sans-serif; font-size: 12px; font-weight: 200;" x="0" y="58.966666539510136" dx="0em" dy="0.3em" fill="rgb(33, 33, 33)" stroke="none" stroke-width="1px">0.022</text><text style="text-anchor: end; visibility: inherit; font-family: Roboto, sans-serif; font-size: 12px; font-weight: 200;" x="0" y="39.3111110263401" dx="0em" dy="0.3em" fill="rgb(33, 33, 33)" stroke="none" stroke-width="1px">0.023</text><text style="text-anchor: end; visibility: hidden; font-family: Roboto, sans-serif; font-size: 12px; font-weight: 200;" x="0" y="19.65555551317004" dx="0em" dy="0.3em" fill="rgb(33, 33, 33)" stroke="none" stroke-width="1px">0.024</text><text style="text-anchor: end; visibility: hidden; font-family: Roboto, sans-serif; font-size: 12px; font-weight: 200;" x="0" y="0" dx="0em" dy="0.3em" fill="rgb(33, 33, 33)" stroke="none" stroke-width="1px">0.025</text></g><line x1="61.91500186920166" y1="0" x2="61.91500186920166" y2="176.89999961853027" fill="rgb(0, 0, 0)" stroke="rgb(204, 204, 204)" stroke-width="1px"></line></g></g><g transform="translate(61, 0)" clip-path="url(#clip_0)"><clipPath id="clip_0"><rect width="268" height="176"></rect></clipPath><g><g><g><line x1="0" y1="0" x2="0" y2="176.89999961853027" fill="rgb(0, 0, 0)" stroke="rgb(66, 66, 66)" stroke-width="1px" opacity="0.25"></line><line x1="26.808499813079834" y1="0" x2="26.808499813079834" y2="176.89999961853027" fill="rgb(0, 0, 0)" stroke="rgb(66, 66, 66)" stroke-width="1px" opacity="0.25"></line><line x1="53.61699962615967" y1="0" x2="53.61699962615967" y2="176.89999961853027" fill="rgb(0, 0, 0)" stroke="rgb(66, 66, 66)" stroke-width="1px" opacity="0.25"></line><line x1="80.4254994392395" y1="0" x2="80.4254994392395" y2="176.89999961853027" fill="rgb(0, 0, 0)" stroke="rgb(66, 66, 66)" stroke-width="1px" opacity="0.25"></line><line x1="107.23399925231934" y1="0" x2="107.23399925231934" y2="176.89999961853027" fill="rgb(0, 0, 0)" stroke="rgb(66, 66, 66)" stroke-width="1px" opacity="0.25"></line><line x1="134.04249906539917" y1="0" x2="134.04249906539917" y2="176.89999961853027" fill="rgb(0, 0, 0)" stroke="rgb(66, 66, 66)" stroke-width="1px" opacity="0.25"></line><line x1="160.850998878479" y1="0" x2="160.850998878479" y2="176.89999961853027" fill="rgb(0, 0, 0)" stroke="rgb(66, 66, 66)" stroke-width="1px" opacity="0.25"></line><line x1="187.65949869155884" y1="0" x2="187.65949869155884" y2="176.89999961853027" fill="rgb(0, 0, 0)" stroke="rgb(66, 66, 66)" stroke-width="1px" opacity="0.25"></line><line x1="214.46799850463867" y1="0" x2="214.46799850463867" y2="176.89999961853027" fill="rgb(0, 0, 0)" stroke="rgb(66, 66, 66)" stroke-width="1px" opacity="0.25"></line><line x1="241.2764983177185" y1="0" x2="241.2764983177185" y2="176.89999961853027" fill="rgb(0, 0, 0)" stroke="rgb(66, 66, 66)" stroke-width="1px" opacity="0.25"></line><line x1="268.08499813079834" y1="0" x2="268.08499813079834" y2="176.89999961853027" fill="rgb(0, 0, 0)" stroke="rgb(66, 66, 66)" stroke-width="1px" opacity="0.25"></line></g><g><line x1="0" y1="176.89999961853027" x2="268.08499813079834" y2="176.89999961853027" fill="rgb(0, 0, 0)" stroke="rgb(66, 66, 66)" stroke-width="1px" opacity="0.25"></line><line x1="0" y1="157.24444410536023" x2="268.08499813079834" y2="157.24444410536023" fill="rgb(0, 0, 0)" stroke="rgb(66, 66, 66)" stroke-width="1px" opacity="0.25"></line><line x1="0" y1="137.58888859219024" x2="268.08499813079834" y2="137.58888859219024" fill="rgb(0, 0, 0)" stroke="rgb(66, 66, 66)" stroke-width="1px" opacity="0.25"></line><line x1="0" y1="117.9333330790202" x2="268.08499813079834" y2="117.9333330790202" fill="rgb(0, 0, 0)" stroke="rgb(66, 66, 66)" stroke-width="1px" opacity="0.25"></line><line x1="0" y1="98.27777756585016" x2="268.08499813079834" y2="98.27777756585016" fill="rgb(0, 0, 0)" stroke="rgb(66, 66, 66)" stroke-width="1px" opacity="0.25"></line><line x1="0" y1="78.62222205268012" x2="268.08499813079834" y2="78.62222205268012" fill="rgb(0, 0, 0)" stroke="rgb(66, 66, 66)" stroke-width="1px" opacity="0.25"></line><line x1="0" y1="58.966666539510136" x2="268.08499813079834" y2="58.966666539510136" fill="rgb(0, 0, 0)" stroke="rgb(66, 66, 66)" stroke-width="1px" opacity="0.25"></line><line x1="0" y1="39.3111110263401" x2="268.08499813079834" y2="39.3111110263401" fill="rgb(0, 0, 0)" stroke="rgb(66, 66, 66)" stroke-width="1px" opacity="0.25"></line><line x1="0" y1="19.65555551317004" x2="268.08499813079834" y2="19.65555551317004" fill="rgb(0, 0, 0)" stroke="rgb(66, 66, 66)" stroke-width="1px" opacity="0.25"></line><line x1="0" y1="0" x2="268.08499813079834" y2="0" fill="rgb(0, 0, 0)" stroke="rgb(66, 66, 66)" stroke-width="1px" opacity="0.25"></line></g></g></g><g><g><line x1="0" y1="491.38888782925073" x2="268.08499813079834" y2="491.38888782925073" fill="rgb(0, 0, 0)" stroke="rgb(153, 153, 153)" stroke-width="1.5px"></line></g></g><g><g><line x1="26.808499813079834" y1="0" x2="26.808499813079834" y2="176.89999961853027" fill="rgb(0, 0, 0)" stroke="rgb(153, 153, 153)" stroke-width="1.5px"></line></g></g><g><g><g><g><g><path style="fill: none;" stroke="rgb(0, 153, 136)" stroke-width="2px" d="M27.862652919329832,234.617387040778L28.214037288079833,149.8768991083017L28.565421656829834,161.0680614782306L28.916806025579834,101.49735903615034L29.268190394329835,149.28672218694277L29.619574763079836,154.416753734879L29.970959131829837,109.64174211738519L30.322343500579834,85.69647626053293L30.673727869329834,56.618107895851736L31.02511223807983,55.31007057491413L31.376496606829832,74.34363446386092L31.727880975579833,67.02843432510886L32.07926534432983,58.85813280787461L32.43064971307983,51.627981591245806L32.782034081829835,54.60542258458006L33.13341845057983,68.91905118969241L33.484802819329836,118.87028830485657L33.83618718807983,174.45719214528114L34.18757155682983,179.53424397369062L34.89034029432983,182.566816087923L35.241724663079836,155.28944783585854L35.59310903182983,151.8212097846827L35.94449340057984,102.48747877169262L36.295877769329834,136.303164269556L36.64726213807983,113.99581163944362L36.998646506829836,84.64580332779158L37.35003087557983,75.5019382407445L37.70141524432984,103.75549226288236L38.052799613079834,124.28333437721177L38.40418398182984,104.46548722474036L38.755568350579836,138.9529011091821L39.10695271932984,150.87279952106604L39.45833708807983,166.66083758305393L39.809721456829834,152.5034223111037L40.16110582557983,98.97002843892305L40.51249019432983,66.49374935340504L40.86387456307983,-140.02236388754105L41.21525893182983,-0.42758388281463516L41.566643300579834,105.04242857974491L41.91802766932983,140.32851722002772L42.269412038079835,97.37482667684382L42.62079640682983,128.97892920985842L42.97218077557984,157.80855289870274L43.323565144329834,173.17507971056014L43.67494951307984,185.08226706218213L45.43187135682984,187.83265388502014L45.783255725579835,175.57046070775453L46.13464009432984,152.78442945330758L46.486024463079836,171.98562894495967L46.83740883182984,46.24382013645021L47.18879320057983,127.78502898853516L47.54017756932983,176.23451001050776L47.89156193807983,148.25717135170188L48.24294630682983,143.67017424896864L48.59433067557983,150.4401130292122L48.94571504432983,165.01726624438862L49.297099413079835,140.56384472934792L49.64848378182983,150.21963661278673L49.999868150579836,58.971455527510166L50.35125251932983,113.47439488061758L50.70263688807984,157.25203623937935L51.054021256829834,175.99913814200585L51.40540562557983,152.05040625271192L51.756789994329836,91.50265837076367L52.10817436307983,39.43236997533937L52.45955873182984,110.94354937595004L52.810943100579834,112.2986509268074L53.16232746932984,16.51040201614012L53.513711838079836,99.06773877508158L53.86509620682984,119.17709894100427L54.21648057557984,113.14285205536714L54.567864944329834,93.65198277215535L54.91924931307983,29.922326639663396L55.27063368182983,127.50007938271875L55.62201805057983,176.4808068418105L55.97340241932983,184.1839746837734L56.324786788079834,164.96679910926588L56.67617115682983,184.6644823269262L57.027555525579835,128.3821101001278L57.37893989432983,129.49352635787338L57.73032426307984,65.14396399788629L58.081708631829834,133.90343970296215L58.43309300057983,94.84655994932461L58.784477369329835,-37.75467533398055L59.13586173807983,109.28926741655076L59.487246106829836,148.28586325934265L59.83863047557983,126.0989866204571L60.19001484432984,132.54744261936622L60.541399213079835,98.31212266966067L60.89278358182984,-18.564873811486702L61.244167950579836,73.9667633581124L61.59555231932984,109.70986014372626L61.94693668807983,125.28481398410001L62.29832105682983,106.19816341727996L62.64970542557983,114.22858221107515L63.00108979432983,63.63505105238871L63.35247416307983,35.179162643240396L63.70385853182983,4.967069792914675L64.05524290057984,97.2366739582322L64.40662726932983,111.44822229213135L64.75801163807984,46.09670432808362L65.10939600682984,115.26914769914593L65.46078037557984,122.5107618019662L65.81216474432983,84.33046062679266L66.16354911307982,75.3863518856027L66.51493348182983,-7.583030429181507L66.86631785057983,118.92412075677318L67.21770221932982,171.0112580501497L67.56908658807984,142.24028334475994L67.92047095682983,61.85700617769888L68.27185532557984,160.49662905260138L68.62323969432983,204.57710353175983L68.97462406307984,174.89159384136232L69.32600843182983,106.35538492385444L69.67739280057984,39.70512440638599L70.02877716932983,89.11714411936148L70.38016153807983,67.20841969697014L70.73154590682984,3.7523853165696024L71.08293027557984,123.52970849113977L71.43431464432983,166.5831506067923L71.78569901307984,109.58033542132344L72.13708338182984,54.103951721110754L72.48846775057984,48.73632179290567L72.83985211932983,18.7793424747925L73.19123648807982,84.61257857959261L73.54262085682983,51.10332864843066L73.89400522557983,-31.877456685878485L74.24538959432984,68.7122856659097L74.59677396307983,114.36989851081272L74.94815833182983,75.48614959299876L75.29954270057983,67.08138560419208L75.65092706932984,93.61510684438521L76.00231143807983,107.50976676971548L76.35369580682983,124.55475678646145L76.70508017557984,123.94610192059817L77.05646454432984,94.49085341433118L77.40784891307983,37.51860999981108L77.75923328182984,57.86228245839136L78.11061765057983,43.10730568056882L78.46200201932984,-8.68640069605889L78.81338638807983,105.62222165143356L79.16477075682984,141.6833070097695L79.51615512557983,90.13219855352996L79.86753949432985,75.77214141421136L80.21892386307984,44.551615990242716L80.57030823182983,7.921854445060898L80.92169260057983,75.3731487657656L81.27307696932982,70.77277739429049L81.62446133807984,28.504116703540475L81.97584570682983,99.9215753892117L82.32723007557983,61.89715011443321L82.67861444432982,50.09627988903945L83.02999881307984,35.39675061493374L83.38138318182983,77.92255669284805L83.73276755057984,69.33872073657076L84.08415191932983,49.52056037361185L84.43553628807983,77.19127631232327L84.78692065682984,57.10379819524069L85.13830502557984,82.74937774319672L85.48968939432983,58.97908267699051L85.84107376307983,67.76036656597758L86.19245813182984,30.477404596698655L86.54384250057984,33.11276707800724L86.89522686932983,44.80878573991341L87.24661123807984,83.56724426413679L87.59799560682984,64.96582149572713L87.94937997557984,63.83449390930477L88.30076434432983,41.931863221393414L88.65214871307982,66.46941584949376L89.00353308182983,27.041747321850607L89.35491745057983,32.37430097994988L89.70630181932984,24.128591090919844L90.05768618807983,15.617462702738608L90.40907055682983,43.13881327203933L90.76045492557984,12.521996571907454L91.11183929432984,84.45145544333144L91.46322366307983,94.51287360459769L91.81460803182983,50.47927080161843L92.16599240057982,46.97205799671102L92.51737676932984,54.11805023333963L92.86876113807983,45.83248178675916L93.22014550682984,96.91177613279855L93.57152987557983,111.16966333026953L93.92291424432985,76.62265873088728L94.27429861307984,21.624337214225957L94.62568298182984,25.666325303494766L94.97706735057983,32.72216249334737L95.32845171932982,116.20949636150851L95.67983608807984,127.54232882558615L96.03122045682983,69.7596654156338L96.38260482557983,119.80202510857269L96.73398919432982,96.43516847271631L97.08537356307984,67.93278583136929L97.43675793182983,125.71247025007462L97.78814230057984,109.60047545486037L98.13952666932983,70.39882008200004L98.49091103807984,-7.519909737702304L98.84229540682983,120.45767563728018L99.19367977557984,45.33417349957614L99.54506414432983,100.83337401077114L99.89644851307983,77.2855378905069L100.24783288182984,107.19594021583406L100.59921725057984,78.77560780772023L100.95060161932983,50.757276724170445L101.30198598807984,10.597932674160134L101.65337035682984,32.446844691341866L102.00475472557984,20.47307011624366L102.35613909432983,77.08327789821212L102.70752346307982,67.46001744329946L103.05890783182983,35.67884024955172L103.41029220057983,77.19581419139723L103.76167656932984,50.03480916094954L104.11306093807983,28.96293242758804L104.46444530682983,118.49259107602239L104.81582967557983,85.93978922585607L105.16721404432984,33.834616743463606L105.51859841307983,103.59840739943645L105.86998278182983,111.95687263903152L106.22136715057982,119.15466040904097L106.57275151932984,127.78042116035103L106.92413588807983,86.59204233494671L107.27552025682984,14.332399649267902L107.62690462557983,56.765999141816906L107.97828899432984,78.98686201231322L108.32967336307983,55.70623868083841L108.68105773182984,31.171836248845143L109.03244210057983,14.37988710350855L109.38382646932985,1.1842025745318359L109.73521083807984,60.24940786573184L110.08659520682984,64.5879132782213L110.43797957557983,-5.220092460969874L110.78936394432982,123.5169640984517L111.14074831307984,168.0847692384229L111.49213268182983,102.54203823370734L111.84351705057983,72.16329953228676L112.19490141932982,45.413379156595695L112.54628578807984,33.21410359685926L112.89767015682983,77.97139508970282L113.24905452557984,49.78396695769989L113.60043889432983,86.56923813795952L113.95182326307983,81.33002177403505L114.30320763182984,-47.31546112054715L114.65459200057984,89.4077029447137L115.00597636932983,125.65725016186995L115.35736073807983,82.32733129676114L115.70874510682984,124.43162888694008L116.06012947557984,79.72915966455462L116.41151384432983,81.7271760251466L116.76289821307984,6.320829892990199L117.11428258182983,99.67549797124408L117.46566695057984,150.8617546033885L117.81705131932983,127.19554942452532L118.16843568807982,121.745274019914L118.51982005682983,48.37257815251863L118.87120442557983,61.87389017554644L119.22258879432984,57.64781995176387L119.57397316307983,71.47905104982466L119.92535753182983,100.98794585364973L120.27674190057984,57.681900633745244L120.62812626932984,106.53066515383027L120.97951063807983,67.65948781068514L121.33089500682983,110.30306702771844L121.68227937557982,107.1306086198749L122.03366374432984,100.77989733325887L122.38504811307983,96.61838259780302L122.73643248182984,53.77249844175295L123.08781685057983,103.89841574097122L123.43920121932985,83.97755516471032L123.79058558807984,-13.88604232974146L124.14196995682984,100.3275262572247L124.49335432557983,153.1669823638201L124.84473869432982,105.77579084725113L125.19612306307984,76.3822546211616L125.54750743182983,65.57951956516379L125.89889180057983,75.57802720385405L126.25027616932982,33.86069842613949L126.60166053807984,66.17445862400376L126.95304490682983,63.975549816053935L127.30442927557984,77.14061129250494L127.65581364432983,89.87683896653182L128.00719801307983,20.19471002103418L128.35858238182985,55.993094551542924L128.70996675057984,20.040598539060007L129.06135111932983,66.84436781458919L129.41273548807982,76.07150404630198L129.76411985682984,32.91504553936965L130.11550422557983,83.42147869734302L130.46688859432984,23.26049688991778L130.81827296307983,124.36380165390604L131.16965733182985,141.1555246240573L131.52104170057984,89.87413653137405L131.87242606932983,-42.42462275469356L132.22381043807982,79.83187453185988L132.5751948068298,98.95490340549266L132.92657917557983,83.06446443152774L133.27796354432982,86.95068270003239L133.62934791307984,25.275317202271044L133.98073228182983,67.66820004567909L134.33211665057985,45.08851366523684L134.68350101932984,84.93013324976101L135.03488538807983,120.67538328253978L135.38626975682982,119.62380495787095L135.73765412557984,84.8789670526412L136.08903849432983,99.9155270088641L136.44042286307982,72.89296903077633L136.79180723182984,-35.75650262527475L137.14319160057985,70.27358857929241L137.49457596932984,116.22948335332565L137.84596033807983,117.3469078395014L138.19734470682982,60.50164439714505L138.54872907557984,79.2255803917271L138.90011344432983,33.99709234256188L139.25149781307982,113.34719455584477L139.6028821818298,78.90845719086435L139.95426655057986,42.13696394027853L140.30565091932985,78.03259277919588L140.65703528807984,51.85766647909247L141.00841965682983,59.04695851103302L141.35980402557982,79.95203940900792L141.71118839432984,24.469913200216656L142.06257276307983,129.96497428565496L142.41395713182982,141.56901652997698L142.76534150057984,112.70673303178128L143.11672586932985,173.55389773045962L143.46811023807984,137.89584159375448L143.81949460682983,118.40441606081644L144.17087897557983,94.60349888306072L144.52226334432984,72.4789575223364L144.87364771307983,83.26960358622827L145.22503208182982,26.389425735792685L145.5764164505798,60.60975712949342L145.92780081932986,75.67888725216027L146.27918518807985,45.69620742221203L146.63056955682984,58.42719173160296L146.98195392557983,81.59841525057907L147.33333829432985,82.81555951619167L147.68472266307984,19.518994145653714L148.03610703182983,63.389230876822545L148.38749140057982,47.2855103486566L148.7388757693298,83.72657247377764L149.09026013807986,90.59794950188412L149.44164450682985,21.483056233231693L149.79302887557984,137.80501417936918L150.14441324432983,156.0187116148152L150.49579761307984,65.40454115055014L150.84718198182983,144.6449914397731L151.19856635057982,143.22906099272726L151.54995071932981,100.98446862805041L151.90133508807983,95.6164547556816L152.25271945682985,34.26682040300725L152.60410382557984,65.20320695241251L152.95548819432983,67.20488714208825L153.30687256307985,-17.369562899982395L153.65825693182984,98.27081076586563L154.00964130057983,113.66998122627675L154.36102566932982,50.543260000450346L154.7124100380798,74.77109130909437L155.06379440682983,106.31628412181526L155.41517877557985,53.148700539084054L155.76656314432984,143.73263465961477L156.11794751307983,111.97221384917272L156.46933188182985,97.69366606998916L156.82071625057984,54.36483106063414L157.17210061932983,68.22806635894595L157.52348498807982,-7.388618545773657L157.87486935682983,27.835198532272045L158.22625372557982,16.30301928550144L158.57763809432984,84.51304320308279L158.92902246307983,77.40963397414903L159.28040683182985,54.18690533056334L159.63179120057984,130.33638552626442L159.98317556932983,138.23722578368208L160.33455993807982,94.41638041580664L160.68594430682984,73.07677041518502L161.03732867557983,85.31701066044809L161.38871304432982,61.30515108578442L161.74009741307984,33.94888788785254L162.09148178182986,-8.340465915592015L162.44286615057985,135.3327516146994L162.79425051932984,26.811371810341655L163.14563488807983,104.5564984073773L163.49701925682982,100.0713409811752L163.84840362557983,105.63113584704239L164.19978799432982,79.3770954355209L164.55117236307984,84.14799887411945L164.90255673182983,19.748551228874877L165.25394110057985,112.27934522135526L165.60532546932984,122.85688549191018L165.95670983807983,90.3035691663132L166.30809420682982,86.76700874302566L166.65947857557984,61.162304947817894L167.01086294432983,60.600343081825514L167.36224731307982,55.87635305131815L167.71363168182984,25.8900777096951L168.06501605057986,60.53078280361066L168.41640041932985,65.4397884116722L168.76778478807984,53.12512283651064L169.11916915682983,52.78362282155118L169.47055352557985,54.23408191162592L169.82193789432984,34.452362839115224L170.17332226307983,31.07176963918408L170.52470663182982,53.900628984037816L170.87609100057983,48.21418101149869L171.22747536932985,32.52922950472995L171.57885973807984,23.809787954292798L171.93024410682983,68.53462763542848L172.28162847557982,76.6639853404647L172.63301284432984,76.88519589883215L172.98439721307983,56.201703947284834L173.33578158182982,81.49707068223866L173.6871659505798,91.82450563920922L174.03855031932986,73.40957443004577L174.38993468807985,-15.818944380882385L174.74131905682984,94.51471991473798L175.09270342557983,92.65719627649167L175.44408779432985,86.02923619660855L175.79547216307984,77.03790945705266L176.14685653182983,61.85785809997674L176.49824090057982,37.98960544549553L176.8496252693298,123.35173663150844L177.20100963807985,133.96009229763712L177.55239400682984,98.25661359732604L177.90377837557983,102.89502409827173L178.25516274432982,103.84101661542336L178.60654711307984,96.47773507484014L178.95793148182983,87.19672776679073L179.30931585057982,76.4615038902666L179.6607002193298,53.823870794656244L180.01208458807983,89.03064114800851L180.36346895682985,25.925004640278875L180.71485332557984,84.43342350183495L181.06623769432983,115.39044097036783L181.41762206307985,49.34562790029245L181.76900643182984,70.24380660645275L182.12039080057983,35.858886369268895L182.47177516932982,136.68223438603246L182.82315953807984,135.93471498184596L183.17454390682985,109.41054852959708L183.52592827557984,51.626473209966846L183.87731264432983,96.73553230094923L184.22869701307985,94.09509503553856L184.58008138182984,56.441208710900014L184.93146575057983,111.8296008947547L185.28285011932982,79.96909867290991L185.6342344880798,59.79218189525765L185.98561885682983,2.159380402005446L186.33700322557985,82.21836947816102L186.68838759432984,59.78003739597706L187.03977196307983,45.77283276537385L187.39115633182985,95.67526705640678L187.74254070057984,104.84302241520209L188.09392506932983,66.0818283308902L188.44530943807982,44.143602854548426L188.79669380682984,131.6083957585021L189.14807817557983,129.66659424856044L189.49946254432984,96.35436817373042L189.85084691307983,41.381411322479885L190.20223128182985,121.29070116833562L190.55361565057984,131.80080704828563L190.90500001932983,126.31737952441456L191.25638438807982,67.23125346201236L191.60776875682984,104.14684108827784L191.95915312557983,99.7761505898474L192.31053749432982,28.317342445467133L192.66192186307984,84.04591901756325L193.01330623182983,88.79078409936646L193.36469060057985,83.2307470700871L193.71607496932984,53.84275024787794L194.06745933807983,116.74118213171919L194.41884370682982,129.01727697837168L194.77022807557984,72.0535845436868L195.12161244432983,74.51469455638276L195.47299681307982,49.11157460906303L195.82438118182984,103.05775558615157L196.17576555057985,128.8383252655869L196.52714991932984,136.8104396743415L196.87853428807983,111.65262980241585L197.22991865682982,63.81327259518035L197.58130302557984,70.49589524131643L197.93268739432983,16.487589759425237L198.28407176307982,101.9008162625501L198.6354561318298,48.63307698000359L198.98684050057986,103.02136404095506L199.33822486932985,100.174205902615L199.68960923807984,25.420532791808377L200.04099360682983,111.21410728221909L200.39237797557982,113.38671034879765L200.74376234432984,79.4892445898453L201.09514671307983,102.93275511782227L201.44653108182982,72.4470817290337L201.7979154505798,93.07896407630501L202.14929981932985,85.8101279385336L202.50068418807984,33.94810682262004L202.85206855682983,56.07957698752374L203.20345292557982,18.664470586138133L203.55483729432984,69.33348042029145L203.90622166307983,53.402390338906145L204.25760603182982,47.83372637014572L204.6089904005798,29.036324857893632L204.96037476932986,24.58671618135189L205.31175913807985,35.35405416992043L205.66314350682984,-0.5643820178060894L206.01452787557983,93.48145445434595L206.36591224432985,84.41136157679217L206.71729661307984,61.929223571401565L207.06868098182983,26.809589122373016L207.42006535057982,74.71922707939103L207.7714497193298,95.96258781848287L208.12283408807986,74.70649504940265L208.47421845682985,42.563100840241574L208.82560282557984,42.21339356749253L209.17698719432983,32.48876907151616L209.52837156307984,75.58810576422081L209.87975593182983,17.039990152780575L210.23114030057982,94.97793476933407L210.5825246693298,86.16079989929642L210.93390903807983,25.501308191173855L211.28529340682985,127.10091002003244L211.63667777557984,158.2350500751056L211.98806214432983,85.70396049628206L212.33944651307985,63.832924295714335L212.69083088182984,89.71022378168459L213.04221525057983,104.49976394365918L213.39359961932982,79.13848686687864L213.74498398807984,66.12436045246454L214.09636835682983,53.563163465004564L214.44775272557985,38.926630657621644L214.79913709432984,-55.85246536768386L215.15052146307983,84.70466345786852L215.50190583182984,131.70987988100032L215.85329020057983,121.00338670087415L216.20467456932982,85.63371311612984L216.55605893807981,49.21670064888873L216.90744330682983,34.501937925069434L217.25882767557982,22.788576495334347L217.61021204432984,61.318140311625655L217.96159641307983,33.648487288395714L218.31298078182985,16.626177793991097L218.66436515057984,93.83742203832742L219.01574951932983,74.23054758629166L219.36713388807982,71.07377474267433L219.71851825682984,64.79314708260289L220.06990262557983,67.21359282047125L220.42128699432982,28.714366783109323L220.77267136307984,33.7836140063485L221.12405573182986,30.05028055819701L221.47544010057985,20.811835311424783L221.82682446932984,8.989984481335812L222.17820883807983,37.35879388507288L222.52959320682982,42.15850161626556L222.88097757557983,38.43866627496823L223.23236194432982,32.13265680949572L223.5837463130798,71.33938710796528L223.93513068182983,48.114512093117966L224.28651505057985,21.650547264701075L224.63789941932984,49.63320952422447L224.98928378807983,36.59674650179494L225.34066815682982,-14.773336017248013L225.69205252557984,60.54434607181007L226.04343689432983,96.3458931279514L226.39482126307982,48.320264532037164L226.74620563182984,85.54906725275994L227.09759000057986,66.64262207324997L227.44897436932985,142.0569635996746L227.80035873807984,102.03476086527337L228.15174310682983,77.83325701345393L228.50312747557984,102.68333901115143L228.85451184432983,45.296228311426034L229.20589621307982,113.81756363339822L229.55728058182981,68.76873773547764L229.90866495057986,50.173402788504006L230.26004931932985,104.92678697318438L230.61143368807984,77.37459027551792L230.96281805682983,102.99075695201118L231.31420242557982,131.29632182228292L231.66558679432984,110.41646260536484L232.01697116307983,44.71414129719004L232.36835553182982,103.71132737678117L232.7197399005798,118.83513654915181L233.07112426932986,76.12018379412609L233.42250863807985,71.94276871948995L233.77389300682984,133.90550963485913L234.12527737557983,133.29553646460212L234.47666174432985,142.8195455547281L234.82804611307984,102.44585758897794L235.17943048182983,108.43957816735471L235.53081485057982,89.05104486212173L235.88219921932983,67.6794295500982L236.23358358807985,-28.47274620390909L236.58496795682984,120.01983459472174L236.93635232557983,104.74461917548405L237.28773669432982,118.29233594217975L237.63912106307984,71.86993046561815L237.99050543182983,113.77371443019439L238.34188980057982,90.72647454918514L238.6932741693298,41.32579096219099L239.04465853807983,130.1251044576956L239.39604290682985,99.73134685422897L239.74742727557984,73.26344588305L240.09881164432983,39.576465142710916L240.45019601307985,84.53523253878933L240.80158038182984,126.9456812068064L241.15296475057983,83.90894371699918L241.50434911932982,80.5781169235339L241.85573348807984,48.39693687346491L242.20711785682983,103.72072998249534L242.55850222557984,62.87929859755427L242.90988659432983,120.94953358057793L243.26127096307985,83.35844502106242L243.61265533182984,57.4609289437864L243.96403970057983,38.65389199040218" fill="none"></path></g></g></g></g><g opacity="0.2"><g><g><g><path style="fill: none;" stroke="rgb(0, 153, 136)" stroke-width="2px" d="M27.159884181829835,269.7330519162804L27.511268550579832,158.29670865308825L27.862652919329832,258.10265903893304L28.214037288079833,39.23971806366079L28.565421656829834,176.54946785429541L28.916806025579834,16.31030141273634L29.268190394329835,218.96407243868452L29.619574763079836,161.98255381075697L29.970959131829837,43.156068124360885L30.322343500579834,49.995759274204566L30.673727869329834,13.158798545369832L31.02511223807983,53.35228556231054L31.376496606829832,102.85669156418292L31.727880975579833,56.06423286014171L32.07926534432983,46.608442861662546L32.43064971307983,40.78581432398709L32.782034081829835,59.070828102635595L33.13341845057983,90.38731356010965L33.484802819329836,193.7925782366736L34.538955925579835,199.9998453561863L34.89034029432983,174.83627750606647L35.241724663079836,114.37358933362088L35.59310903182983,146.6188674983698L35.94449340057984,28.48700848370403L36.295877769329834,187.02664060130843L36.64726213807983,80.53480324249963L36.998646506829836,40.62080708161695L37.35003087557983,61.78614364237892L37.70141524432984,146.1358176745776L38.052799613079834,155.07509509809387L38.40418398182984,74.73871791554491L38.755568350579836,190.68402045368697L39.10695271932984,168.75264683152466L39.45833708807983,190.34289443176914L39.809721456829834,131.26729953460136L40.16110582557983,18.669937928821827L40.51249019432983,17.779330833659678L40.86387456307983,-449.79653333486965L41.91802766932983,193.25765016516925L42.269412038079835,32.944290873230095L42.62079640682983,176.38508300445253L42.97218077557984,201.05298842927218L44.026333881829835,219.8543500319205L44.37771825057983,160.87319404793087L44.729102619329836,179.74303713423865L45.43187135682984,190.23686803418673L45.783255725579835,157.17717094187543L46.13464009432984,118.60538257165868L46.486024463079836,200.78742818242688L47.54017756932983,248.90873154346082L47.89156193807983,106.29116336349502L48.24294630682983,136.78967859486892L48.59433067557983,160.59502119957756L48.94571504432983,186.88299606715282L49.297099413079835,103.88371245678707L49.64848378182983,164.70332443794499L49.999868150579836,-77.90081610040461L51.054021256829834,204.11979099594572L51.40540562557983,116.12730841877102L51.756789994329836,0.6810365478413186L52.10817436307983,-38.673062617796965L52.45955873182984,218.21031847686598L52.810943100579834,114.33130325309335L53.16232746932984,-127.17197134986073L53.513711838079836,222.90374391349374L53.86509620682984,149.34113918988822L54.21648057557984,104.09148172691144L54.567864944329834,64.41567884733784L54.91924931307983,-65.67215755907453L55.97340241932983,195.73872644671775L56.324786788079834,136.14103574750445L56.67617115682983,214.21100715341666L57.027555525579835,43.958551759930195L57.37893989432983,131.16065074449173L57.73032426307984,-31.380379542094477L58.081708631829834,237.04265326057597L58.43309300057983,36.26124031886833L58.784477369329835,-236.65652825893832L59.487246106829836,206.78075702353053L59.83863047557983,92.81867166212884L60.19001484432984,142.2201266177299L60.541399213079835,46.959142745102405L60.89278358182984,-193.88036853320764L61.244167950579836,212.76421911251103L61.59555231932984,163.324505322147L61.94693668807983,148.64724474466058L62.29832105682983,77.56818756704996L62.64970542557983,126.27421040176782L63.00108979432983,-12.255245685640908L64.05524290057984,235.64108020620844L64.40662726932983,132.76554479298008L64.75801163807984,-51.930572617987785L65.10939600682984,219.02781275573943L65.46078037557984,133.37318295619667L65.81216474432983,27.060008864032273L66.16354911307982,61.9701887738177L66.51493348182983,-132.03710390135777L67.21770221932982,249.14196399021452L67.56908658807984,99.08382128667533L67.92047095682983,-58.71790957289266L68.62323969432983,270.69781525049746L68.97462406307984,130.36332930576603L69.32600843182983,3.5510715475926604L69.67739280057984,-60.27026636981653L70.02877716932983,163.2351736888248L70.38016153807983,34.34533306338323L70.73154590682984,-91.43166625403126L71.43431464432983,231.163313780271L71.78569901307984,24.07611264312026L72.13708338182984,-29.110623829208166L72.48846775057984,40.68487690059804L72.83985211932983,-26.15612650237718L73.19123648807982,183.3624327367927L73.54262085682983,0.8394537516876858L73.89400522557983,-156.34863468734207L74.59677396307983,182.8563177781673L74.94815833182983,17.160526216277837L75.29954270057983,54.47423962098209L75.65092706932984,133.41568870467498L76.00231143807983,128.3517566577109L76.35369580682983,150.12224181158044L76.70508017557984,123.03311962180317L77.05646454432984,50.30798065493066L77.40784891307983,-47.93975512196913L77.75923328182984,88.37779114626191L78.11061765057983,20.974840513834913L78.46200201932984,-86.37696026100046L79.16477075682984,195.77493504727335L79.51615512557983,12.805535869170704L79.86753949432985,54.232055705233606L80.21892386307984,-2.2791721457102394L80.57030823182983,-47.02278787271192L80.92169260057983,176.55009024682266L81.27307696932982,63.87222033707776L81.62446133807984,-34.89887433258462L81.97584570682983,207.0477634177185L82.32723007557983,4.860512202265416L82.67861444432982,32.394974550948874L83.02999881307984,13.347456703775254L83.38138318182983,141.71126580971958L83.73276755057984,56.46296680215482L84.08415191932983,19.79331982917352L84.43553628807983,118.69735022039038L84.78692065682984,26.972581019616953L85.13830502557984,121.21774706513068L85.48968939432983,23.323640077681333L85.84107376307983,80.93229239945826L86.19245813182984,-25.447038357219714L86.54384250057984,37.06581079997016L86.89522686932983,62.35281373277271L87.24661123807984,141.70493205047174L87.59799560682984,37.063687343112505L87.94937997557984,62.13750252967116L88.30076434432983,9.07791718952633L88.65214871307982,103.27574479164433L89.00353308182983,-32.099755469614045L89.35491745057983,40.37313146709867L89.70630181932984,11.760026257374868L90.05768618807983,2.850770120466892L90.40907055682983,84.4208391259904L90.76045492557984,-33.403228478290295L91.11183929432984,192.34564375046742L91.46322366307983,109.60500084649703L91.81460803182983,-15.571133402850323L92.16599240057982,41.71123878934982L92.51737676932984,64.83703858828257L92.86876113807983,33.4041291168886L93.22014550682984,173.5307176518577L93.57152987557983,132.5564941264761L93.92291424432985,24.802151831813873L94.27429861307984,-60.87314506076596L94.62568298182984,31.72930743739802L94.97706735057983,43.305918278126335L95.32845171932982,241.4404971637502L95.67983608807984,144.54157752170266L96.03122045682983,-16.914329699294814L96.38260482557983,194.86556464798105L96.73398919432982,61.38488351893169L97.08537356307984,25.17921186934881L97.43675793182983,212.38199687813247L97.78814230057984,85.43248326203909L98.13952666932983,11.596337022709506L98.49091103807984,-124.39800446725584L99.54506414432983,184.0821747775636L99.89644851307983,41.96378371011067L100.24783288182984,152.0615437038249L100.59921725057984,36.14510919554947L100.95060161932983,8.729780098845696L101.30198598807984,-49.641083400855315L101.65337035682984,65.22021271711456L102.00475472557984,2.5124082535965213L102.35613909432983,161.9985895711648L102.70752346307982,53.02512676093058L103.05890783182983,-11.992925541069821L103.41029220057983,139.47127510416564L103.76167656932984,9.293301615278144L104.11306093807983,-2.6448826724542682L104.46444530682983,252.78707904867386L104.81582967557983,37.110586450606654L105.16721404432984,-44.3231419801251L105.51859841307983,208.2440933833958L105.86998278182983,124.4945704984242L106.22136715057982,129.9513420640551L106.57275151932984,140.719062287316L106.92413588807983,24.80947409684028L107.27552025682984,-94.05706437925028L107.62690462557983,120.41639838064046L107.97828899432984,112.31815631805756L108.32967336307983,20.785303683626314L108.68105773182984,-5.629767399144847L109.38382646932985,-18.609324218933164L109.73521083807984,148.8472158025318L110.08659520682984,71.09567139695555L110.43797957557983,-109.93210106975674L111.14074831307984,234.93647694837964L111.49213268182983,4.227941726633921L111.84351705057983,26.595191480155812L112.19490141932982,5.288498593059035L112.54628578807984,14.915190257254595L112.89767015682983,145.10733232896817L113.24905452557984,7.502824759695434L113.60043889432983,141.74714490834901L113.95182326307983,73.47119722814836L114.30320763182984,-240.28368546242038L115.00597636932983,180.03157098760428L115.35736073807983,17.332452999097928L115.70874510682984,187.58807527220833L116.06012947557984,12.67545583097656L116.41151384432983,84.72420056603453L116.76289821307984,-106.78868930524439L117.46566695057984,227.64113955160508L117.81705131932983,91.69624165623057L118.16843568807982,113.56986091299707L118.51982005682983,-61.686465648574334L118.87120442557983,82.1258582100881L119.22258879432984,51.30871461609L119.57397316307983,92.22589769691588L119.92535753182983,145.25128805938738L120.27674190057984,-7.277167196111505L120.62812626932984,179.80381193395783L120.97951063807983,9.352721795967467L121.33089500682983,174.26843585326844L121.68227937557982,102.37192100810951L122.03366374432984,91.25383040333492L122.38504811307983,90.37611049461924L122.73643248182984,-10.496327792322047L123.08781685057983,179.0872916897986L123.43920121932985,54.09626430031885L123.79058558807984,-160.6814385714192L124.49335432557983,232.42616652371322L124.84473869432982,34.689003572397745L125.19612306307984,32.291950282027294L125.54750743182983,49.37541698116719L125.89889180057983,90.57578866188942L126.25027616932982,-28.715294740432327L126.60166053807984,114.64509892080014L126.95304490682983,60.67718660412924L127.30442927557984,96.8882035071814L127.65581364432983,108.98118047757208L128.00719801307983,-84.32848339721225L128.35858238182985,109.69067134730602L128.70996675057984,-33.88814547966423L129.06135111932983,137.0500217278829L129.41273548807982,89.9122083938711L129.76411985682984,-31.819642221028783L130.11550422557983,159.18112843430308L130.46688859432984,-66.98097582122003L130.81827296307983,276.01875879988853L131.16965733182985,166.34310907928418L131.52104170057984,12.952054392349158L131.87242606932983,-240.87276168379495L132.22381043807982,263.21662046169007L132.5751948068298,127.63944671594182L132.92657917557983,59.22880597058036L133.27796354432982,92.78001010278939L133.62934791307984,-67.2377310443711L133.98073228182983,131.25752431079113L134.33211665057985,11.218984094573493L134.68350101932984,144.69256262654724L135.03488538807983,174.29325833170796L135.38626975682982,118.04643747086772L135.73765412557984,32.76171019479658L136.08903849432983,122.4703669431985L136.44042286307982,32.3591320636446L136.79180723182984,-198.7307101093514L137.49457596932984,185.1633255143755L137.84596033807983,119.02304456876506L138.19734470682982,-24.76625076638934L138.54872907557984,107.31148438360002L138.90011344432983,-33.845639731185926L139.25149781307982,232.37234787576912L139.6028821818298,27.250351143393786L139.95426655057986,-13.020275935600145L140.30565091932985,131.8760360375719L140.65703528807984,12.595277028937366L141.00841965682983,69.83089655894389L141.35980402557982,111.30966075597023L141.71118839432984,-58.75327611297023L142.06257276307983,288.20756591381235L142.41395713182982,158.97507989645993L142.76534150057984,69.41330778448777L143.11672586932985,264.8246447784772L143.46811023807984,84.40875738869681L143.81949460682983,89.16727776140935L144.17087897557983,58.90212311642713L144.52226334432984,39.29214548124988L144.87364771307983,99.45557268206612L145.22503208182982,-58.93084103986063L145.5764164505798,111.94025422004458L145.92780081932986,98.2825824361605L146.27918518807985,0.7221876772897404L146.63056955682984,77.52366819568938L146.98195392557983,116.35525052904313L147.33333829432985,84.64127591461045L147.68472266307984,-75.42585391015318L148.03610703182983,129.19458597357573L148.38749140057982,23.129929556407674L148.7388757693298,138.38816566145917L149.09026013807986,100.90501504404381L149.44164450682985,-82.18928366974681L150.84718198182983,263.50566687360754L151.19856635057982,141.10516532215857L151.54995071932981,37.61758008103523L151.90133508807983,87.56443394712839L152.25271945682985,-57.75763112600425L152.60410382557984,111.60778677652047L152.95548819432983,70.20740742660185L153.30687256307985,-144.23123796308832L153.65825693182984,271.7313712646377L154.00964130057983,136.76873691689337L154.36102566932982,-44.14682183828919L154.7124100380798,111.11283827206034L155.06379440682983,153.63407334089655L155.41517877557985,-26.60267483501274L155.76656314432984,279.6085358404107L156.11794751307983,64.33158263350954L156.46933188182985,76.27584440121386L156.82071625057984,-10.62842145339845L157.17210061932983,89.0229193064137L157.52348498807982,-120.81364590285317L157.87486935682983,80.67092414934059L158.22625372557982,-0.9952495846545505L158.57763809432984,186.82807907945474L158.92902246307983,66.75452013074833L159.28040683182985,19.35281236518476L159.63179120057984,244.56060581981598L159.98317556932983,150.0884861698087L160.33455993807982,28.68511236399353L160.68594430682984,41.06735541425253L161.03732867557983,103.67737102834286L161.38871304432982,25.28736172378887L161.74009741307984,-7.085506909045258L163.14563488807983,221.17418830293076L163.49701925682982,93.3436048418721L163.84840362557983,113.97082814584323L164.19978799432982,39.99603481823859L164.55117236307984,91.30435403201714L164.90255673182983,-76.85062023899188L165.25394110057985,251.07553621007582L165.60532546932984,138.72319589774253L165.95670983807983,41.473594677917696L166.30809420682982,81.46216810809436L166.65947857557984,22.75524925500632L167.01086294432983,59.757400282836855L167.36224731307982,48.79036800555709L167.71363168182984,-19.089335302739425L168.06501605057986,112.49184044448398L168.41640041932985,72.80329682376444L168.76778478807984,34.65312447376834L169.11916915682983,52.27137279911201L169.47055352557985,56.40977054673797L169.82193789432984,4.779784230349255L170.17332226307983,26.00087983928732L170.52470663182982,88.14391800131841L170.87609100057983,39.68450905269002L171.22747536932985,9.001802244576806L171.57885973807984,10.730625628637133L171.93024410682983,135.62188715713205L172.28162847557982,88.85802189801896L172.63301284432984,77.21701173638337L172.98439721307983,25.17646601996391L173.33578158182982,119.44012078466933L173.6871659505798,107.31565807466507L174.03855031932986,45.7871776163005L174.38993468807985,-149.6617225972744L174.74131905682984,260.0152163581686L175.09270342557983,89.87091081912214L175.44408779432985,76.08729607678383L175.79547216307984,63.55091934771891L176.14685653182983,39.0877810643628L176.49824090057982,2.187226463773687L176.8496252693298,251.3949334105278L177.20100963807985,149.87262579683014L177.55239400682984,44.701395546859395L177.90377837557983,109.85263984969018L178.25516274432982,105.26000539115095L178.60654711307984,85.43281276396527L178.95793148182983,73.27521680471652L179.30931585057982,60.35866807548043L179.6607002193298,19.867421151240784L180.01208458807983,141.84079667803678L180.36346895682985,-68.73345012131567L180.71485332557984,172.19605179416897L181.06623769432983,161.82596717316721L181.41762206307985,-49.72159170482066L181.76900643182984,101.59107466569323L182.12039080057983,-15.718493986506804L182.47177516932982,287.91725641117773L182.82315953807984,134.81343587556623L183.17454390682985,69.62429885122376L183.52592827557984,-35.04963976947839L183.87731264432983,164.3991209374228L184.22869701307985,90.13443913742262L184.58008138182984,-0.039620776057891396L184.93146575057983,194.9121891705367L185.28285011932982,32.17834534014257L185.6342344880798,29.526806728779256L185.98561885682983,-84.2898218378728L186.33700322557985,202.3068530923945L186.68838759432984,26.122539272701108L187.03977196307983,24.762025819469148L187.39115633182985,170.52891849295614L187.74254070057984,118.59465545339498L188.09392506932983,7.940037204422329L188.44530943807982,11.236264640035829L188.79669380682984,262.8055851144326L189.14807817557983,126.75389198364788L189.49946254432984,46.38602906148537L189.85084691307983,-41.07802395439594L190.20223128182985,241.15463593711917L190.55361565057984,147.56596586821072L190.90500001932983,118.0922382386079L191.25638438807982,-21.39793563159082L191.60776875682984,159.5202225276761L191.95915312557983,93.22011484220171L192.31053749432982,-78.8708697711033L192.66192186307984,167.63878387570728L193.01330623182983,95.9080817220714L193.36469060057985,74.89069152616804L193.71607496932984,9.760755014564113L194.06745933807983,211.08882995748093L194.41884370682982,147.43141924835044L194.77022807557984,-13.391954108340675L195.12161244432983,78.20635957542665L195.47299681307982,11.006894688083563L195.82438118182984,183.97702705178435L196.17576555057985,167.50917978473984L196.52714991932984,148.7686112874733L196.87853428807983,73.91591499452731L197.22991865682982,-7.9457632156729465L197.58130302557984,80.51982921052063L197.93268739432983,-64.5248684634116L198.98684050057986,184.60379463238243L199.33822486932985,95.90346869510476L199.68960923807984,-86.70997687440155L200.04099360682983,239.9044690178352L200.39237797557982,116.6456149486654L200.74376234432984,28.643045951416802L201.09514671307983,138.09802090978772L201.44653108182982,26.718571645850815L201.7979154505798,124.02678759721205L202.14929981932985,74.9068737318764L202.50068418807984,-43.844924851250305L202.85206855682983,89.27678223487932L203.20345292557982,-37.458189015940285L203.55483729432984,145.3369951715215L203.90622166307983,29.505755216828348L204.25760603182982,39.48073041700504L204.6089904005798,0.8402225895154521L204.96037476932986,17.912303166539274L205.31175913807985,51.505061152773166L205.66314350682984,-54.44203629939587L206.01452787557983,234.550209162574L206.36591224432985,70.8062222604616L206.71729661307984,28.206016563315575L207.06868098182983,-25.869862551169707L207.42006535057982,146.58368401491794L207.7714497193298,127.82762892712051L208.12283408807986,42.82235589578228L208.47421845682985,-5.65199047349999L208.82560282557984,41.68883265836901L209.17698719432983,17.901832327551507L209.52837156307984,140.23711080327777L209.87975593182983,-70.78218326437987L210.23114030057982,211.8848516941644L210.5825246693298,72.9350975942398L210.93390903807983,-65.48792937101007L211.98806214432983,-23.092673871953238L212.33944651307985,31.026369994862726L212.69083088182984,128.52617301063995L213.04221525057983,126.68407418662107L213.39359961932982,41.09657125170789L213.74498398807984,46.60317083084353L214.09636835682983,34.72136798381447L214.44775272557985,16.971831446547284L214.79913709432984,-198.02110940564208L215.50190583182984,202.21770451569796L215.85329020057983,104.94364693068493L216.20467456932982,32.57920273901333L216.55605893807981,-5.408818051972941L216.90744330682983,12.429793839340523L217.25882767557982,5.218534350731702L217.61021204432984,119.11248603606265L217.96159641307983,-7.855992246449139L218.66436515057984,209.65428840483196L219.01574951932983,44.820235908238026L219.36713388807982,66.3386154772483L219.71851825682984,55.37220559249578L220.06990262557983,70.84426142727379L220.42128699432982,-29.034472272933492L220.77267136307984,41.38748484120713L221.12405573182986,24.450280385969776L221.47544010057985,6.954167441266596L221.82682446932984,-8.74279176379757L222.17820883807983,79.9120079906784L222.52959320682982,49.35806321305459L222.88097757557983,32.85891326302216L223.23236194432982,22.673642611286983L223.5837463130798,130.14948255566975L223.93513068182983,13.277199570846863L224.28651505057985,-18.04539997792427L224.63789941932984,91.60720291350943L224.98928378807983,17.042051968150545L225.34066815682982,-91.82845979581236L225.69205252557984,173.5208692053972L226.04343689432983,150.04821371216343L226.39482126307982,-23.71817836183426L226.74620563182984,141.3922713338441L227.09759000057986,38.28295430398503L227.44897436932985,255.17847588931141L227.80035873807984,42.001456763671534L228.15174310682983,41.53100123572476L228.50312747557984,139.95846200769776L228.85451184432983,-40.78443773816206L229.20589621307982,216.59956661635647L229.55728058182981,1.1954988885968216L229.90866495057986,22.280400368043665L230.26004931932985,187.0568632502049L230.61143368807984,36.04629522901808L230.96281805682983,141.4150069667511L231.31420242557982,173.75466912769042L231.66558679432984,79.09667377998774L232.01697116307983,-53.83934066507216L232.36835553182982,192.20710649616777L232.7197399005798,141.52085030770783L233.07112426932986,12.047754661587632L233.42250863807985,65.67664610753577L233.77389300682984,226.84962100791282L234.12527737557983,132.38057670921663L234.47666174432985,157.10555918991713L234.82804611307984,41.8853256403527L235.17943048182983,117.43015903492001L235.53081485057982,59.96824490427229L235.88219921932983,35.62200658206281L236.23358358807985,-172.70100983492014L236.58496795682984,342.75870579266797L236.93635232557983,81.8317960466275L237.28773669432982,138.6139110922234L237.63912106307984,2.2363222507757605L237.99050543182983,176.62939037705868L238.34188980057982,56.155614727671306L238.6932741693298,-32.77523441830029L239.04465853807983,263.3240747009526L239.39604290682985,54.14071044902916L239.74742727557984,33.56159442628153L240.09881164432983,-10.954005967797753L240.45019601307985,151.97338363290694L240.80158038182984,190.56135420883206L241.15296475057983,19.353837482288455L241.50434911932982,75.58187673333593L241.85573348807984,0.12516679836146488L242.20711785682983,186.70641964604096L242.55850222557984,1.6171515201426014L242.90988659432983,208.0548860551134L243.26127096307985,26.97181218178917L243.61265533182984,18.614654827872435L243.96403970057983,10.443336560325967" fill="none"></path></g></g></g></g></g></g><g transform="translate(61, 176)" clip-path="url(#clip_1)"><clipPath id="clip_1"><rect width="268" height="23"></rect></clipPath><g><g><line x1="0" y1="0" x2="0" y2="5" style="visibility: inherit;" fill="rgb(0, 0, 0)" stroke="rgb(204, 204, 204)" stroke-width="1px"></line><line x1="26.808499813079834" y1="0" x2="26.808499813079834" y2="5" style="visibility: inherit;" fill="rgb(0, 0, 0)" stroke="rgb(204, 204, 204)" stroke-width="1px"></line><line x1="53.61699962615967" y1="0" x2="53.61699962615967" y2="5" style="visibility: inherit;" fill="rgb(0, 0, 0)" stroke="rgb(204, 204, 204)" stroke-width="1px"></line><line x1="80.4254994392395" y1="0" x2="80.4254994392395" y2="5" style="visibility: inherit;" fill="rgb(0, 0, 0)" stroke="rgb(204, 204, 204)" stroke-width="1px"></line><line x1="107.23399925231934" y1="0" x2="107.23399925231934" y2="5" style="visibility: inherit;" fill="rgb(0, 0, 0)" stroke="rgb(204, 204, 204)" stroke-width="1px"></line><line x1="134.04249906539917" y1="0" x2="134.04249906539917" y2="5" style="visibility: inherit;" fill="rgb(0, 0, 0)" stroke="rgb(204, 204, 204)" stroke-width="1px"></line><line x1="160.850998878479" y1="0" x2="160.850998878479" y2="5" style="visibility: inherit;" fill="rgb(0, 0, 0)" stroke="rgb(204, 204, 204)" stroke-width="1px"></line><line x1="187.65949869155884" y1="0" x2="187.65949869155884" y2="5" style="visibility: inherit;" fill="rgb(0, 0, 0)" stroke="rgb(204, 204, 204)" stroke-width="1px"></line><line x1="214.46799850463867" y1="0" x2="214.46799850463867" y2="5" style="visibility: inherit;" fill="rgb(0, 0, 0)" stroke="rgb(204, 204, 204)" stroke-width="1px"></line><line x1="241.2764983177185" y1="0" x2="241.2764983177185" y2="5" style="visibility: inherit;" fill="rgb(0, 0, 0)" stroke="rgb(204, 204, 204)" stroke-width="1px"></line><line x1="268.08499813079834" y1="0" x2="268.08499813079834" y2="5" style="visibility: inherit;" fill="rgb(0, 0, 0)" stroke="rgb(204, 204, 204)" stroke-width="1px"></line></g><g transform="translate(0, 8)"><text style="text-anchor: middle; visibility: hidden; font-family: Roboto, sans-serif; font-size: 12px; font-weight: 200;" x="0" y="0" dx="0em" dy="0.95em" fill="rgb(33, 33, 33)" stroke="none" stroke-width="1px">-10M</text><text style="text-anchor: middle; visibility: inherit; font-family: Roboto, sans-serif; font-size: 12px; font-weight: 200;" x="26.808499813079834" y="0" dx="0em" dy="0.95em" fill="rgb(33, 33, 33)" stroke="none" stroke-width="1px">0</text><text style="text-anchor: middle; visibility: hidden; font-family: Roboto, sans-serif; font-size: 12px; font-weight: 200;" x="53.61699962615967" y="0" dx="0em" dy="0.95em" fill="rgb(33, 33, 33)" stroke="none" stroke-width="1px">10M</text><text style="text-anchor: middle; visibility: inherit; font-family: Roboto, sans-serif; font-size: 12px; font-weight: 200;" x="80.4254994392395" y="0" dx="0em" dy="0.95em" fill="rgb(33, 33, 33)" stroke="none" stroke-width="1px">20M</text><text style="text-anchor: middle; visibility: hidden; font-family: Roboto, sans-serif; font-size: 12px; font-weight: 200;" x="107.23399925231934" y="0" dx="0em" dy="0.95em" fill="rgb(33, 33, 33)" stroke="none" stroke-width="1px">30M</text><text style="text-anchor: middle; visibility: inherit; font-family: Roboto, sans-serif; font-size: 12px; font-weight: 200;" x="134.04249906539917" y="0" dx="0em" dy="0.95em" fill="rgb(33, 33, 33)" stroke="none" stroke-width="1px">40M</text><text style="text-anchor: middle; visibility: hidden; font-family: Roboto, sans-serif; font-size: 12px; font-weight: 200;" x="160.850998878479" y="0" dx="0em" dy="0.95em" fill="rgb(33, 33, 33)" stroke="none" stroke-width="1px">50M</text><text style="text-anchor: middle; visibility: inherit; font-family: Roboto, sans-serif; font-size: 12px; font-weight: 200;" x="187.65949869155884" y="0" dx="0em" dy="0.95em" fill="rgb(33, 33, 33)" stroke="none" stroke-width="1px">60M</text><text style="text-anchor: middle; visibility: hidden; font-family: Roboto, sans-serif; font-size: 12px; font-weight: 200;" x="214.46799850463867" y="0" dx="0em" dy="0.95em" fill="rgb(33, 33, 33)" stroke="none" stroke-width="1px">70M</text><text style="text-anchor: middle; visibility: inherit; font-family: Roboto, sans-serif; font-size: 12px; font-weight: 200;" x="241.2764983177185" y="0" dx="0em" dy="0.95em" fill="rgb(33, 33, 33)" stroke="none" stroke-width="1px">80M</text><text style="text-anchor: middle; visibility: hidden; font-family: Roboto, sans-serif; font-size: 12px; font-weight: 200;" x="268.08499813079834" y="0" dx="0em" dy="0.95em" fill="rgb(33, 33, 33)" stroke="none" stroke-width="1px">90M</text></g><line x1="0" y1="0" x2="268.08499813079834" y2="0" fill="rgb(0, 0, 0)" stroke="rgb(204, 204, 204)" stroke-width="1px"></line></g></g></g></g></svg>