<svg viewBox="0 0 330 200" xmlns="http://www.w3.org/2000/svg"><g><g><g><g><g><line x1="51.53200149536133" y1="176.89999961853027" x2="46.53200149536133" y2="176.89999961853027" style="visibility: inherit;" fill="rgb(0, 0, 0)" stroke="rgb(204, 204, 204)" stroke-width="1px"></line><line x1="51.53200149536133" y1="154.7874999957159" x2="46.53200149536133" y2="154.7874999957159" style="visibility: inherit;" fill="rgb(0, 0, 0)" stroke="rgb(204, 204, 204)" stroke-width="1px"></line><line x1="51.53200149536133" y1="132.67500037290156" x2="46.53200149536133" y2="132.67500037290156" style="visibility: inherit;" fill="rgb(0, 0, 0)" stroke="rgb(204, 204, 204)" stroke-width="1px"></line><line x1="51.53200149536133" y1="110.5625007500872" x2="46.53200149536133" y2="110.5625007500872" style="visibility: inherit;" fill="rgb(0, 0, 0)" stroke="rgb(204, 204, 204)" stroke-width="1px"></line><line x1="51.53200149536133" y1="88.45000112727283" x2="46.53200149536133" y2="88.45000112727283" style="visibility: inherit;" fill="rgb(0, 0, 0)" stroke="rgb(204, 204, 204)" stroke-width="1px"></line><line x1="51.53200149536133" y1="66.33750150445846" x2="46.53200149536133" y2="66.33750150445846" style="visibility: inherit;" fill="rgb(0, 0, 0)" stroke="rgb(204, 204, 204)" stroke-width="1px"></line><line x1="51.53200149536133" y1="44.225001881644104" x2="46.53200149536133" y2="44.225001881644104" style="visibility: inherit;" fill="rgb(0, 0, 0)" stroke="rgb(204, 204, 204)" stroke-width="1px"></line><line x1="51.53200149536133" y1="22.112502258829746" x2="46.53200149536133" y2="22.112502258829746" style="visibility: inherit;" fill="rgb(0, 0, 0)" stroke="rgb(204, 204, 204)" stroke-width="1px"></line><line x1="51.53200149536133" y1="0.000002636015370227618" x2="46.53200149536133" y2="0.000002636015370227618" style="visibility: inherit;" fill="rgb(0, 0, 0)" stroke="rgb(204, 204, 204)" stroke-width="1px"></line></g><g transform="translate(41.53200149536133, 0)"><text style="text-anchor: end; visibility: hidden; font-family: Roboto, sans-serif; font-size: 12px; font-weight: 200;" x="0" y="176.89999961853027" dx="0em" dy="0.3em" fill="rgb(33, 33, 33)" stroke="none" stroke-width="1px">0</text><text style="text-anchor: end; visibility: inherit; font-family: Roboto, sans-serif; font-size: 12px; font-weight: 200;" x="0" y="154.7874999957159" dx="0em" dy="0.3em" fill="rgb(33, 33, 33)" stroke="none" stroke-width="1px">0.05</text><text style="text-anchor: end; visibility: hidden; font-family: Roboto, sans-serif; font-size: 12px; font-weight: 200;" x="0" y="132.67500037290156" dx="0em" dy="0.3em" fill="rgb(33, 33, 33)" stroke="none" stroke-width="1px">0.1</text><text style="text-anchor: end; visibility: inherit; font-family: Roboto, sans-serif; font-size: 12px; font-weight: 200;" x="0" y="110.5625007500872" dx="0em" dy="0.3em" fill="rgb(33, 33, 33)" stroke="none" stroke-width="1px">0.15</text><text style="text-anchor: end; visibility: hidden; font-family: Roboto, sans-serif; font-size: 12px; font-weight: 200;" x="0" y="88.45000112727283" dx="0em" dy="0.3em" fill="rgb(33, 33, 33)" stroke="none" stroke-width="1px">0.2</text><text style="text-anchor: end; visibility: inherit; font-family: Roboto, sans-serif; font-size: 12px; font-weight: 200;" x="0" y="66.33750150445846" dx="0em" dy="0.3em" fill="rgb(33, 33, 33)" stroke="none" stroke-width="1px">0.25</text><text style="text-anchor: end; visibility: hidden; font-family: Roboto, sans-serif; font-size: 12px; font-weight: 200;" x="0" y="44.225001881644104" dx="0em" dy="0.3em" fill="rgb(33, 33, 33)" stroke="none" stroke-width="1px">0.3</text><text style="text-anchor: end; visibility: inherit; font-family: Roboto, sans-serif; font-size: 12px; font-weight: 200;" x="0" y="22.112502258829746" dx="0em" dy="0.3em" fill="rgb(33, 33, 33)" stroke="none" stroke-width="1px">0.35</text><text style="text-anchor: end; visibility: hidden; font-family: Roboto, sans-serif; font-size: 12px; font-weight: 200;" x="0" y="0.000002636015370227618" dx="0em" dy="0.3em" fill="rgb(33, 33, 33)" stroke="none" stroke-width="1px">0.4</text></g><line x1="51.53200149536133" y1="0" x2="51.53200149536133" y2="176.89999961853027" fill="rgb(0, 0, 0)" stroke="rgb(204, 204, 204)" stroke-width="1px"></line></g></g><g transform="translate(51, 0)" clip-path="url(#clip_0)"><clipPath id="clip_0"><rect width="278" height="176"></rect></clipPath><g><g><g><line x1="0" y1="0" x2="0" y2="176.89999961853027" fill="rgb(0, 0, 0)" stroke="rgb(66, 66, 66)" stroke-width="1px" opacity="0.25"></line><line x1="27.846799850463867" y1="0" x2="27.846799850463867" y2="176.89999961853027" fill="rgb(0, 0, 0)" stroke="rgb(66, 66, 66)" stroke-width="1px" opacity="0.25"></line><line x1="55.693599700927734" y1="0" x2="55.693599700927734" y2="176.89999961853027" fill="rgb(0, 0, 0)" stroke="rgb(66, 66, 66)" stroke-width="1px" opacity="0.25"></line><line x1="83.5403995513916" y1="0" x2="83.5403995513916" y2="176.89999961853027" fill="rgb(0, 0, 0)" stroke="rgb(66, 66, 66)" stroke-width="1px" opacity="0.25"></line><line x1="111.38719940185547" y1="0" x2="111.38719940185547" y2="176.89999961853027" fill="rgb(0, 0, 0)" stroke="rgb(66, 66, 66)" stroke-width="1px" opacity="0.25"></line><line x1="139.23399925231934" y1="0" x2="139.23399925231934" y2="176.89999961853027" fill="rgb(0, 0, 0)" stroke="rgb(66, 66, 66)" stroke-width="1px" opacity="0.25"></line><line x1="167.0807991027832" y1="0" x2="167.0807991027832" y2="176.89999961853027" fill="rgb(0, 0, 0)" stroke="rgb(66, 66, 66)" stroke-width="1px" opacity="0.25"></line><line x1="194.92759895324707" y1="0" x2="194.92759895324707" y2="176.89999961853027" fill="rgb(0, 0, 0)" stroke="rgb(66, 66, 66)" stroke-width="1px" opacity="0.25"></line><line x1="222.77439880371094" y1="0" x2="222.77439880371094" y2="176.89999961853027" fill="rgb(0, 0, 0)" stroke="rgb(66, 66, 66)" stroke-width="1px" opacity="0.25"></line><line x1="250.6211986541748" y1="0" x2="250.6211986541748" y2="176.89999961853027" fill="rgb(0, 0, 0)" stroke="rgb(66, 66, 66)" stroke-width="1px" opacity="0.25"></line><line x1="278.4679985046387" y1="0" x2="278.4679985046387" y2="176.89999961853027" fill="rgb(0, 0, 0)" stroke="rgb(66, 66, 66)" stroke-width="1px" opacity="0.25"></line></g><g><line x1="0" y1="176.89999961853027" x2="278.4679985046387" y2="176.89999961853027" fill="rgb(0, 0, 0)" stroke="rgb(66, 66, 66)" stroke-width="1px" opacity="0.25"></line><line x1="0" y1="154.7874999957159" x2="278.4679985046387" y2="154.7874999957159" fill="rgb(0, 0, 0)" stroke="rgb(66, 66, 66)" stroke-width="1px" opacity="0.25"></line><line x1="0" y1="132.67500037290156" x2="278.4679985046387" y2="132.67500037290156" fill="rgb(0, 0, 0)" stroke="rgb(66, 66, 66)" stroke-width="1px" opacity="0.25"></line><line x1="0" y1="110.5625007500872" x2="278.4679985046387" y2="110.5625007500872" fill="rgb(0, 0, 0)" stroke="rgb(66, 66, 66)" stroke-width="1px" opacity="0.25"></line><line x1="0" y1="88.45000112727283" x2="278.4679985046387" y2="88.45000112727283" fill="rgb(0, 0, 0)" stroke="rgb(66, 66, 66)" stroke-width="1px" opacity="0.25"></line><line x1="0" y1="66.33750150445846" x2="278.4679985046387" y2="66.33750150445846" fill="rgb(0, 0, 0)" stroke="rgb(66, 66, 66)" stroke-width="1px" opacity="0.25"></line><line x1="0" y1="44.225001881644104" x2="278.4679985046387" y2="44.225001881644104" fill="rgb(0, 0, 0)" stroke="rgb(66, 66, 66)" stroke-width="1px" opacity="0.25"></line><line x1="0" y1="22.112502258829746" x2="278.4679985046387" y2="22.112502258829746" fill="rgb(0, 0, 0)" stroke="rgb(66, 66, 66)" stroke-width="1px" opacity="0.25"></line><line x1="0" y1="0.000002636015370227618" x2="278.4679985046387" y2="0.000002636015370227618" fill="rgb(0, 0, 0)" stroke="rgb(66, 66, 66)" stroke-width="1px" opacity="0.25"></line></g></g></g><g><g><line x1="0" y1="176.89999961853027" x2="278.4679985046387" y2="176.89999961853027" fill="rgb(0, 0, 0)" stroke="rgb(153, 153, 153)" stroke-width="1.5px"></line></g></g><g><g><line x1="27.846799850463867" y1="0" x2="27.846799850463867" y2="176.89999961853027" fill="rgb(0, 0, 0)" stroke="rgb(153, 153, 153)" stroke-width="1.5px"></line></g></g><g><g><g><g><g><path style="fill: none;" stroke="rgb(0, 153, 136)" stroke-width="2px" d="M27.846799850463867,88.44999980926514L28.21179342546387,88.44999980926514L28.576787000463867,88.44999980926514L28.941780575463866,88.44999980926514L29.306774150463866,88.44999980926514L29.671767725463866,88.44999980926514L30.036761300463866,88.44999980926514L30.40175487546387,88.44999980926514L30.76674845046387,88.44999980926514L31.13174202546387,88.44999980926514L31.496735600463868,88.44999980926514L31.861729175463868,88.44999980926514L32.226722750463864,88.44999980926514L32.591716325463864,88.44999980926514L32.95670990046386,88.44999980926514L33.32170347546386,88.44999980926514L33.68669705046387,88.44999980926514L34.05169062546387,88.44999980926514L34.41668420046387,88.44999980926514L34.78167777546387,88.44999980926514L35.14667135046387,88.44999980926514L35.51166492546386,88.44999980926514L35.87665850046387,88.44999980926514L36.24165207546387,88.44999980926514L36.60664565046387,88.44999980926514L36.97163922546387,88.44999980926514L37.33663280046387,88.44999980926514L37.70162637546387,88.44999980926514L38.06661995046387,88.44999980926514L38.43161352546387,88.44999980926514L38.796607100463866,88.44999980926514L39.161600675463866,88.44999980926514L39.526594250463866,88.44999980926514L39.89158782546387,88.44999980926514L40.256581400463865,88.44999980926514L40.62157497546387,88.44999980926514L40.986568550463865,88.44999980926514L41.35156212546387,88.44999980926514L41.716555700463864,88.44999980926514L42.081549275463864,88.44999980926514L42.44654285046387,88.44999980926514L42.81153642546386,88.44999980926514L43.17653000046387,88.44999980926514L43.54152357546386,88.44999980926514L43.90651715046387,88.44999980926514L44.27151072546387,88.44999980926514L44.63650430046387,88.44999980926514L45.00149787546387,88.44999980926514L45.36649145046387,88.44999980926514L45.73148502546387,88.44999980926514L46.09647860046386,88.44999980926514L46.46147217546387,88.44999980926514L46.82646575046387,88.44999980926514L47.19145932546387,88.44999980926514L47.55645290046387,88.44999980926514L47.92144647546387,88.44999980926514L48.28644005046387,88.44999980926514L48.65143362546387,88.44999980926514L49.016427200463866,88.44999980926514L49.381420775463866,88.44999980926514L49.746414350463866,88.44999980926514L50.111407925463865,88.44999980926514L50.476401500463865,88.44999980926514L50.841395075463865,88.44999980926514L51.20638865046387,88.44999980926514L51.571382225463864,88.44999980926514L51.93637580046387,88.44999980926514L52.301369375463864,88.44999980926514L52.66636295046387,88.44999980926514L53.03135652546387,88.44999980926514L53.39635010046386,88.44999980926514L53.76134367546387,88.44999980926514L54.12633725046386,88.44999980926514L54.49133082546387,88.44999980926514L54.85632440046386,88.44999980926514L55.22131797546387,88.44999980926514L55.58631155046387,88.44999980926514L55.95130512546387,88.44999980926514L56.31629870046387,88.44999980926514L56.68129227546387,88.44999980926514L57.04628585046387,88.44999980926514L57.41127942546387,88.44999980926514L57.77627300046387,88.44999980926514L58.14126657546387,88.44999980926514L58.506260150463866,88.44999980926514L58.871253725463866,88.44999980926514L59.23624730046387,88.44999980926514L59.601240875463866,88.44999980926514L59.96623445046387,88.44999980926514L60.331228025463865,88.44999980926514L60.696221600463865,88.44999980926514L61.061215175463865,88.44999980926514L61.426208750463864,88.44999980926514L61.79120232546387,88.44999980926514L62.156195900463864,88.44999980926514L62.52118947546387,88.44999980926514L62.88618305046386,88.44999980926514L63.25117662546387,88.44999980926514L63.61617020046387,88.44999980926514L63.98116377546387,88.44999980926514L64.34615735046387,88.44999980926514L64.71115092546387,88.44999980926514L65.07614450046387,88.44999980926514L65.44113807546387,88.44999980926514L65.80613165046387,88.44999980926514L66.17112522546387,88.44999980926514L66.53611880046387,88.44999980926514L66.90111237546387,88.44999980926514L67.26610595046387,88.44999980926514L67.63109952546387,88.44999980926514L67.99609310046387,88.44999980926514L68.36108667546387,88.44999980926514L68.72608025046387,88.44999980926514L69.09107382546387,88.44999980926514L69.45606740046387,88.44999980926514L69.82106097546387,88.44999980926514L70.18605455046388,88.44999980926514L70.55104812546386,88.44999980926514L70.91604170046386,88.44999980926514L71.28103527546386,88.44999980926514L71.64602885046388,88.44999980926514L72.01102242546388,88.44999980926514L72.37601600046386,88.44999980926514L72.74100957546386,88.44999980926514L73.10600315046386,88.44999980926514L73.47099672546388,88.44999980926514L73.83599030046386,88.44999980926514L74.20098387546386,88.44999980926514L74.56597745046386,88.44999980926514L74.93097102546388,88.44999980926514L75.29596460046388,88.44999980926514L75.66095817546386,88.44999980926514L76.02595175046386,88.44999980926514L76.39094532546386,88.44999980926514L76.75593890046387,88.44999980926514L77.12093247546387,88.44999980926514L77.48592605046386,88.44999980926514L77.85091962546386,88.44999980926514L78.21591320046387,88.44999980926514L78.58090677546387,88.44999980926514L78.94590035046387,88.44999980926514L79.31089392546386,88.44999980926514L79.67588750046387,88.44999980926514L80.04088107546387,88.44999980926514L80.40587465046387,88.44999980926514L80.77086822546386,88.44999980926514L81.13586180046386,88.44999980926514L81.50085537546387,88.44999980926514L81.86584895046387,88.44999980926514L82.23084252546387,88.44999980926514L82.59583610046386,88.44999980926514L82.96082967546387,88.44999980926514L83.32582325046387,88.44999980926514L83.69081682546387,88.44999980926514L84.05581040046387,88.44999980926514L84.42080397546385,88.44999980926514L84.78579755046387,88.44999980926514L85.15079112546387,88.44999980926514L85.51578470046387,88.44999980926514L85.88077827546387,88.44999980926514L86.24577185046387,88.44999980926514L86.61076542546387,88.44999980926514L86.97575900046387,88.44999980926514L87.34075257546387,88.44999980926514L87.70574615046387,88.44999980926514L88.07073972546387,88.44999980926514L88.43573330046387,88.44999980926514L88.80072687546387,88.44999980926514L89.16572045046387,88.44999980926514L89.53071402546388,88.44999980926514L89.89570760046387,88.44999980926514L90.26070117546386,88.44999980926514L90.62569475046386,88.44999980926514L90.99068832546388,88.44999980926514L91.35568190046388,88.44999980926514L91.72067547546386,88.44999980926514L92.08566905046386,88.44999980926514L92.45066262546386,88.44999980926514L92.81565620046388,88.44999980926514L93.18064977546386,88.44999980926514L93.54564335046386,88.44999980926514L93.91063692546386,88.44999980926514L94.27563050046388,88.44999980926514L94.64062407546388,88.44999980926514L95.00561765046386,88.44999980926514L95.37061122546386,88.44999980926514L95.73560480046386,88.44999980926514L96.10059837546387,88.44999980926514L96.46559195046387,88.44999980926514L96.83058552546386,88.44999980926514L97.19557910046386,88.44999980926514L97.56057267546387,88.44999980926514L97.92556625046387,88.44999980926514L98.29055982546387,88.44999980926514L98.65555340046386,88.44999980926514L99.02054697546386,88.44999980926514L99.38554055046387,88.44999980926514L99.75053412546387,88.44999980926514L100.11552770046386,88.44999980926514L100.48052127546386,88.44999980926514L100.84551485046387,88.44999980926514L101.21050842546387,88.44999980926514L101.57550200046387,88.44999980926514L101.94049557546386,88.44999980926514L102.30548915046387,88.44999980926514L102.67048272546387,88.44999980926514L103.03547630046387,88.44999980926514L103.40046987546387,88.44999980926514L103.76546345046386,88.44999980926514L104.13045702546387,88.44999980926514L104.49545060046387,88.44999980926514L104.86044417546387,88.44999980926514L105.22543775046387,88.44999980926514L105.59043132546387,88.44999980926514L105.95542490046387,88.44999980926514L106.32041847546387,88.44999980926514L106.68541205046387,88.44999980926514L107.05040562546387,88.44999980926514L107.41539920046387,88.44999980926514L107.78039277546387,88.44999980926514L108.14538635046387,88.44999980926514L108.51037992546387,88.44999980926514L108.87537350046388,88.44999980926514L109.24036707546387,88.44999980926514L109.60536065046387,88.44999980926514L109.97035422546386,88.44999980926514L110.33534780046386,88.44999980926514L110.70034137546388,88.44999980926514L111.06533495046386,88.44999980926514L111.43032852546386,88.44999980926514L111.79532210046386,88.44999980926514L112.16031567546388,88.44999980926514L112.52530925046386,88.44999980926514L112.89030282546386,88.44999980926514L113.25529640046386,88.44999980926514L113.62028997546388,88.44999980926514L113.98528355046388,88.44999980926514L114.35027712546386,88.44999980926514L114.71527070046386,88.44999980926514L115.08026427546386,88.44999980926514L115.44525785046388,88.44999980926514L115.81025142546387,88.44999980926514L116.17524500046386,88.44999980926514L116.54023857546386,88.44999980926514L116.90523215046387,88.44999980926514L117.27022572546387,88.44999980926514L117.63521930046387,88.44999980926514L118.00021287546386,88.44999980926514L118.36520645046386,88.44999980926514L118.73020002546387,88.44999980926514L119.09519360046387,88.44999980926514L119.46018717546386,88.44999980926514L119.82518075046386,88.44999980926514L120.19017432546387,88.44999980926514L120.55516790046387,88.44999980926514L120.92016147546387,88.44999980926514L121.28515505046386,88.44999980926514L121.65014862546386,88.44999980926514L122.01514220046387,88.44999980926514L122.38013577546387,88.44999980926514L122.74512935046387,88.44999980926514L123.11012292546386,88.44999980926514L123.47511650046387,88.44999980926514L123.84011007546387,88.44999980926514L124.20510365046387,88.44999980926514L124.57009722546387,88.44999980926514L124.93509080046387,88.44999980926514L125.30008437546387,88.44999980926514L125.66507795046387,88.44999980926514L126.03007152546387,88.44999980926514L126.39506510046387,88.44999980926514L126.76005867546387,88.44999980926514L127.12505225046387,88.44999980926514L127.49004582546387,88.44999980926514L127.85503940046387,88.44999980926514L128.22003297546388,88.44999980926514L128.58502655046388,88.44999980926514L128.95002012546388,88.44999980926514L129.31501370046385,88.44999980926514L129.68000727546385,88.44999980926514L130.04500085046388,88.44999980926514L130.40999442546388,88.44999980926514L130.77498800046388,88.44999980926514L131.13998157546385,88.44999980926514L131.50497515046388,88.44999980926514L131.86996872546388,88.44999980926514L132.23496230046388,88.44999980926514L132.59995587546388,88.44999980926514L132.96494945046388,88.44999980926514L133.32994302546388,88.44999980926514L133.69493660046388,88.44999980926514L134.05993017546388,88.44999980926514L134.42492375046385,88.44999980926514L134.78991732546388,88.44999980926514L135.15491090046388,88.44999980926514L135.51990447546387,88.44999980926514L135.88489805046387,88.44999980926514L136.24989162546387,88.44999980926514L136.61488520046387,88.44999980926514L136.97987877546387,88.44999980926514L137.34487235046387,88.44999980926514L137.70986592546387,88.44999980926514L138.07485950046387,88.44999980926514L138.43985307546387,88.44999980926514L138.80484665046387,88.44999980926514L139.16984022546387,88.44999980926514L139.53483380046387,88.44999980926514L139.89982737546387,88.44999980926514L140.26482095046387,88.44999980926514L140.62981452546387,88.44999980926514L140.99480810046387,88.44999980926514L141.35980167546384,88.44999980926514L141.72479525046384,88.44999980926514L142.08978882546387,88.44999980926514L142.45478240046387,88.44999980926514L142.81977597546387,88.44999980926514L143.18476955046387,88.44999980926514L143.54976312546387,88.44999980926514L143.91475670046387,88.44999980926514L144.27975027546387,88.44999980926514L144.64474385046387,88.44999980926514L145.00973742546384,88.44999980926514L145.37473100046387,88.44999980926514L145.73972457546387,88.44999980926514L146.10471815046387,88.44999980926514L146.46971172546387,88.44999980926514L146.83470530046387,88.44999980926514L147.19969887546387,88.44999980926514L147.56469245046387,88.44999980926514L147.92968602546387,88.44999980926514L148.2946796004639,88.44999980926514L148.65967317546387,88.44999980926514L149.02466675046387,88.44999980926514L149.38966032546386,88.44999980926514L149.75465390046386,88.44999980926514L150.11964747546386,88.44999980926514L150.48464105046386,88.44999980926514L150.84963462546386,88.44999980926514L151.21462820046386,88.44999980926514L151.5796217754639,88.44999980926514L151.9446153504639,88.44999980926514L152.30960892546386,88.44999980926514L152.67460250046386,88.44999980926514L153.03959607546386,88.44999980926514L153.40458965046386,88.44999980926514L153.76958322546386,88.44999980926514L154.13457680046386,88.44999980926514L154.49957037546386,88.44999980926514L154.8645639504639,88.44999980926514L155.2295575254639,88.44999980926514L155.59455110046386,88.44999980926514L155.95954467546386,88.44999980926514L156.32453825046386,88.44999980926514L156.68953182546386,88.44999980926514L157.05452540046386,88.44999980926514L157.41951897546386,88.44999980926514L157.78451255046386,88.44999980926514L158.1495061254639,88.44999980926514L158.5144997004639,88.44999980926514L158.8794932754639,88.44999980926514L159.24448685046386,88.44999980926514L159.60948042546386,88.44999980926514L159.97447400046386,88.44999980926514L160.33946757546386,88.44999980926514L160.70446115046386,88.44999980926514L161.06945472546386,88.44999980926514L161.43444830046388,88.44999980926514L161.79944187546388,88.44999980926514L162.16443545046388,88.44999980926514L162.52942902546388,88.44999980926514L162.89442260046386,88.44999980926514L163.25941617546385,88.44999980926514L163.62440975046385,88.44999980926514L163.98940332546385,88.44999980926514L164.35439690046385,88.44999980926514L164.71939047546388,88.44999980926514L165.08438405046388,88.44999980926514L165.44937762546388,88.44999980926514L165.81437120046388,88.44999980926514L166.17936477546385,88.44999980926514L166.54435835046385,88.44999980926514L166.90935192546385,88.44999980926514L167.27434550046385,88.44999980926514L167.63933907546385,88.44999980926514L168.00433265046388,88.44999980926514L168.36932622546388,88.44999980926514L168.73431980046388,88.44999980926514L169.09931337546388,88.44999980926514L169.46430695046388,88.44999980926514L169.82930052546385,88.44999980926514L170.19429410046385,88.44999980926514L170.55928767546385,88.44999980926514L170.92428125046388,88.44999980926514L171.28927482546388,88.44999980926514L171.65426840046388,88.44999980926514L172.01926197546388,88.44999980926514L172.38425555046388,88.44999980926514L172.74924912546388,88.44999980926514L173.11424270046385,88.44999980926514L173.47923627546385,88.44999980926514L173.84422985046385,88.44999980926514L174.20922342546388,88.44999980926514L174.57421700046388,88.44999980926514L174.93921057546387,88.44999980926514L175.30420415046387,88.44999980926514L175.66919772546387,88.44999980926514L176.03419130046387,88.44999980926514L176.39918487546387,88.44999980926514L176.76417845046385,88.44999980926514L177.12917202546384,88.44999980926514L177.49416560046387,88.44999980926514L177.85915917546387,88.44999980926514L178.22415275046387,88.44999980926514L178.58914632546387,88.44999980926514L178.95413990046387,88.44999980926514L179.31913347546387,88.44999980926514L179.68412705046387,88.44999980926514L180.04912062546384,88.44999980926514L180.41411420046384,88.44999980926514L180.77910777546387,88.44999980926514L181.14410135046387,88.44999980926514L181.50909492546387,88.44999980926514L181.87408850046387,88.44999980926514L182.23908207546387,88.44999980926514L182.60407565046387,88.44999980926514L182.96906922546387,88.44999980926514L183.33406280046387,88.44999980926514L183.69905637546384,88.44999980926514L184.06404995046387,88.44999980926514L184.42904352546387,88.44999980926514L184.79403710046387,88.44999980926514L185.15903067546387,88.44999980926514L185.52402425046387,88.44999980926514L185.88901782546387,88.44999980926514L186.25401140046387,88.44999980926514L186.61900497546387,88.44999980926514L186.98399855046387,88.44999980926514L187.34899212546387,88.44999980926514L187.71398570046387,88.44999980926514L188.07897927546387,88.44999980926514L188.44397285046387,88.44999980926514L188.80896642546386,88.44999980926514L189.17396000046386,88.44999980926514L189.53895357546386,88.44999980926514L189.90394715046386,88.44999980926514L190.2689407254639,88.44999980926514L190.6339343004639,88.44999980926514L190.99892787546386,88.44999980926514L191.36392145046386,88.44999980926514L191.72891502546386,88.44999980926514L192.09390860046386,88.44999980926514L192.45890217546386,88.44999980926514L192.82389575046386,88.44999980926514L193.18888932546386,88.44999980926514L193.5538829004639,88.44999980926514L193.9188764754639,88.44999980926514L194.28387005046386,88.44999980926514L194.64886362546386,88.44999980926514L195.01385720046386,88.44999980926514L195.37885077546386,88.44999980926514L195.74384435046386,88.44999980926514L196.10883792546386,88.44999980926514L196.47383150046386,88.44999980926514L196.8388250754639,88.44999980926514L197.2038186504639,88.44999980926514L197.5688122254639,88.44999980926514L197.93380580046386,88.44999980926514L198.29879937546386,88.44999980926514L198.66379295046386,88.44999980926514L199.02878652546386,88.44999980926514L199.39378010046386,88.44999980926514L199.75877367546386,88.44999980926514L200.12376725046389,88.44999980926514L200.48876082546388,88.44999980926514L200.85375440046388,88.44999980926514L201.21874797546388,88.44999980926514L201.58374155046386,88.44999980926514L201.94873512546386,88.44999980926514L202.31372870046386,88.44999980926514L202.67872227546385,88.44999980926514L203.04371585046385,88.44999980926514L203.40870942546388,88.44999980926514L203.77370300046388,88.44999980926514L204.13869657546388,88.44999980926514L204.50369015046388,88.44999980926514L204.86868372546385,88.44999980926514L205.23367730046385,88.44999980926514L205.59867087546385,88.44999980926514L205.96366445046385,88.44999980926514L206.32865802546385,88.44999980926514L206.69365160046388,88.44999980926514L207.05864517546388,88.44999980926514L207.42363875046388,88.44999980926514L207.78863232546388,88.44999980926514L208.15362590046388,88.44999980926514L208.51861947546385,88.44999980926514L208.88361305046385,88.44999980926514L209.24860662546385,88.44999980926514L209.61360020046385,88.44999980926514L209.97859377546388,88.44999980926514L210.34358735046388,88.44999980926514L210.70858092546388,88.44999980926514L211.07357450046388,88.44999980926514L211.43856807546388,88.44999980926514L211.80356165046385,88.44999980926514L212.16855522546385,88.44999980926514L212.53354880046385,88.44999980926514L212.89854237546388,88.44999980926514L213.26353595046388,88.44999980926514L213.62852952546388,88.44999980926514L213.99352310046388,88.44999980926514L214.35851667546387,88.44999980926514L214.72351025046387,88.44999980926514L215.08850382546387,88.44999980926514L215.45349740046385,88.44999980926514L215.81849097546385,88.44999980926514L216.18348455046387,88.44999980926514L216.54847812546387,88.44999980926514L216.91347170046387,88.44999980926514L217.27846527546387,88.44999980926514L217.64345885046387,88.44999980926514L218.00845242546387,88.44999980926514L218.37344600046387,88.44999980926514L218.73843957546384,88.44999980926514L219.10343315046384,88.44999980926514L219.46842672546387,88.44999980926514L219.83342030046387,88.44999980926514L220.19841387546387,88.44999980926514L220.56340745046387,88.44999980926514L220.92840102546387,88.44999980926514L221.29339460046387,88.44999980926514L221.65838817546387,88.44999980926514L222.02338175046387,88.44999980926514L222.38837532546384,88.44999980926514L222.75336890046387,88.44999980926514L223.11836247546387,88.44999980926514L223.48335605046387,88.44999980926514L223.84834962546387,88.44999980926514L224.21334320046387,88.44999980926514L224.57833677546387,88.44999980926514L224.94333035046387,88.44999980926514L225.30832392546387,88.44999980926514L225.67331750046387,88.44999980926514L226.03831107546387,88.44999980926514L226.40330465046387,88.44999980926514L226.76829822546387,88.44999980926514L227.13329180046387,88.44999980926514L227.49828537546387,88.44999980926514L227.86327895046387,88.44999980926514L228.22827252546386,88.44999980926514L228.59326610046386,88.44999980926514L228.95825967546386,88.44999980926514L229.3232532504639,88.44999980926514L229.68824682546386,88.44999980926514L230.05324040046386,88.44999980926514L230.41823397546386,88.44999980926514L230.78322755046386,88.44999980926514L231.14822112546386,88.44999980926514L231.51321470046386,88.44999980926514L231.87820827546386,88.44999980926514L232.24320185046386,88.44999980926514L232.6081954254639,88.44999980926514L232.97318900046386,88.44999980926514L233.33818257546386,88.44999980926514L233.70317615046386,88.44999980926514L234.06816972546386,88.44999980926514L234.43316330046386,88.44999980926514L234.79815687546386,88.44999980926514L235.16315045046386,88.44999980926514L235.5281440254639,88.44999980926514L235.8931376004639,88.44999980926514L236.2581311754639,88.44999980926514L236.62312475046386,88.44999980926514L236.98811832546386,88.44999980926514L237.35311190046386,88.44999980926514L237.71810547546386,88.44999980926514L238.08309905046386,88.44999980926514L238.44809262546386,88.44999980926514L238.81308620046389,88.44999980926514L239.17807977546389,88.44999980926514L239.54307335046389,88.44999980926514L239.90806692546388,88.44999980926514L240.27306050046386,88.44999980926514L240.63805407546386,88.44999980926514L241.00304765046386,88.44999980926514L241.36804122546386,88.44999980926514L241.73303480046386,88.44999980926514L242.09802837546388,88.44999980926514L242.46302195046388,88.44999980926514L242.82801552546388,88.44999980926514L243.19300910046388,88.44999980926514L243.55800267546385,88.44999980926514L243.92299625046385,88.44999980926514L244.28798982546385,88.44999980926514L244.65298340046385,88.44999980926514L245.01797697546385,88.44999980926514L245.38297055046388,88.44999980926514L245.74796412546388,88.44999980926514L246.11295770046388,88.44999980926514L246.47795127546388,88.44999980926514L246.84294485046388,88.44999980926514L247.20793842546385,88.44999980926514L247.57293200046385,88.44999980926514L247.93792557546385,88.44999980926514L248.30291915046385,88.44999980926514L248.66791272546388,88.44999980926514L249.03290630046388,88.44999980926514L249.39789987546388,88.44999980926514L249.76289345046388,88.44999980926514L250.12788702546388,88.44999980926514L250.49288060046385,88.44999980926514L250.85787417546385,88.44999980926514L251.22286775046385,88.44999980926514L251.58786132546385,88.44999980926514L251.95285490046388,88.44999980926514L252.31784847546388,88.44999980926514L252.68284205046388,88.44999980926514L253.04783562546388,88.44999980926514L253.41282920046388,88.44999980926514" fill="none"></path></g></g></g></g><g opacity="0.2"><g><g><g><path style="fill: none;" stroke="rgb(0, 153, 136)" stroke-width="2px" d="M27.846799850463867,88.44999980926514L28.21179342546387,88.44999980926514L28.576787000463867,88.44999980926514L28.941780575463866,88.44999980926514L29.306774150463866,88.44999980926514L29.671767725463866,88.44999980926514L30.036761300463866,88.44999980926514L30.40175487546387,88.44999980926514L30.76674845046387,88.44999980926514L31.13174202546387,88.44999980926514L31.496735600463868,88.44999980926514L31.861729175463868,88.44999980926514L32.226722750463864,88.44999980926514L32.591716325463864,88.44999980926514L32.95670990046386,88.44999980926514L33.32170347546386,88.44999980926514L33.68669705046387,88.44999980926514L34.05169062546387,88.44999980926514L34.41668420046387,88.44999980926514L34.78167777546387,88.44999980926514L35.14667135046387,88.44999980926514L35.51166492546386,88.44999980926514L35.87665850046387,88.44999980926514L36.24165207546387,88.44999980926514L36.60664565046387,88.44999980926514L36.97163922546387,88.44999980926514L37.33663280046387,88.44999980926514L37.70162637546387,88.44999980926514L38.06661995046387,88.44999980926514L38.43161352546387,88.44999980926514L38.796607100463866,88.44999980926514L39.161600675463866,88.44999980926514L39.526594250463866,88.44999980926514L39.89158782546387,88.44999980926514L40.256581400463865,88.44999980926514L40.62157497546387,88.44999980926514L40.986568550463865,88.44999980926514L41.35156212546387,88.44999980926514L41.716555700463864,88.44999980926514L42.081549275463864,88.44999980926514L42.44654285046387,88.44999980926514L42.81153642546386,88.44999980926514L43.17653000046387,88.44999980926514L43.54152357546386,88.44999980926514L43.90651715046387,88.44999980926514L44.27151072546387,88.44999980926514L44.63650430046387,88.44999980926514L45.00149787546387,88.44999980926514L45.36649145046387,88.44999980926514L45.73148502546387,88.44999980926514L46.09647860046386,88.44999980926514L46.46147217546387,88.44999980926514L46.82646575046387,88.44999980926514L47.19145932546387,88.44999980926514L47.55645290046387,88.44999980926514L47.92144647546387,88.44999980926514L48.28644005046387,88.44999980926514L48.65143362546387,88.44999980926514L49.016427200463866,88.44999980926514L49.381420775463866,88.44999980926514L49.746414350463866,88.44999980926514L50.111407925463865,88.44999980926514L50.476401500463865,88.44999980926514L50.841395075463865,88.44999980926514L51.20638865046387,88.44999980926514L51.571382225463864,88.44999980926514L51.93637580046387,88.44999980926514L52.301369375463864,88.44999980926514L52.66636295046387,88.44999980926514L53.03135652546387,88.44999980926514L53.39635010046386,88.44999980926514L53.76134367546387,88.44999980926514L54.12633725046386,88.44999980926514L54.49133082546387,88.44999980926514L54.85632440046386,88.44999980926514L55.22131797546387,88.44999980926514L55.58631155046387,88.44999980926514L55.95130512546387,88.44999980926514L56.31629870046387,88.44999980926514L56.68129227546387,88.44999980926514L57.04628585046387,88.44999980926514L57.41127942546387,88.44999980926514L57.77627300046387,88.44999980926514L58.14126657546387,88.44999980926514L58.506260150463866,88.44999980926514L58.871253725463866,88.44999980926514L59.23624730046387,88.44999980926514L59.601240875463866,88.44999980926514L59.96623445046387,88.44999980926514L60.331228025463865,88.44999980926514L60.696221600463865,88.44999980926514L61.061215175463865,88.44999980926514L61.426208750463864,88.44999980926514L61.79120232546387,88.44999980926514L62.156195900463864,88.44999980926514L62.52118947546387,88.44999980926514L62.88618305046386,88.44999980926514L63.25117662546387,88.44999980926514L63.61617020046387,88.44999980926514L63.98116377546387,88.44999980926514L64.34615735046387,88.44999980926514L64.71115092546387,88.44999980926514L65.07614450046387,88.44999980926514L65.44113807546387,88.44999980926514L65.80613165046387,88.44999980926514L66.17112522546387,88.44999980926514L66.53611880046387,88.44999980926514L66.90111237546387,88.44999980926514L67.26610595046387,88.44999980926514L67.63109952546387,88.44999980926514L67.99609310046387,88.44999980926514L68.36108667546387,88.44999980926514L68.72608025046387,88.44999980926514L69.09107382546387,88.44999980926514L69.45606740046387,88.44999980926514L69.82106097546387,88.44999980926514L70.18605455046388,88.44999980926514L70.55104812546386,88.44999980926514L70.91604170046386,88.44999980926514L71.28103527546386,88.44999980926514L71.64602885046388,88.44999980926514L72.01102242546388,88.44999980926514L72.37601600046386,88.44999980926514L72.74100957546386,88.44999980926514L73.10600315046386,88.44999980926514L73.47099672546388,88.44999980926514L73.83599030046386,88.44999980926514L74.20098387546386,88.44999980926514L74.56597745046386,88.44999980926514L74.93097102546388,88.44999980926514L75.29596460046388,88.44999980926514L75.66095817546386,88.44999980926514L76.02595175046386,88.44999980926514L76.39094532546386,88.44999980926514L76.75593890046387,88.44999980926514L77.12093247546387,88.44999980926514L77.48592605046386,88.44999980926514L77.85091962546386,88.44999980926514L78.21591320046387,88.44999980926514L78.58090677546387,88.44999980926514L78.94590035046387,88.44999980926514L79.31089392546386,88.44999980926514L79.67588750046387,88.44999980926514L80.04088107546387,88.44999980926514L80.40587465046387,88.44999980926514L80.77086822546386,88.44999980926514L81.13586180046386,88.44999980926514L81.50085537546387,88.44999980926514L81.86584895046387,88.44999980926514L82.23084252546387,88.44999980926514L82.59583610046386,88.44999980926514L82.96082967546387,88.44999980926514L83.32582325046387,88.44999980926514L83.69081682546387,88.44999980926514L84.05581040046387,88.44999980926514L84.42080397546385,88.44999980926514L84.78579755046387,88.44999980926514L85.15079112546387,88.44999980926514L85.51578470046387,88.44999980926514L85.88077827546387,88.44999980926514L86.24577185046387,88.44999980926514L86.61076542546387,88.44999980926514L86.97575900046387,88.44999980926514L87.34075257546387,88.44999980926514L87.70574615046387,88.44999980926514L88.07073972546387,88.44999980926514L88.43573330046387,88.44999980926514L88.80072687546387,88.44999980926514L89.16572045046387,88.44999980926514L89.53071402546388,88.44999980926514L89.89570760046387,88.44999980926514L90.26070117546386,88.44999980926514L90.62569475046386,88.44999980926514L90.99068832546388,88.44999980926514L91.35568190046388,88.44999980926514L91.72067547546386,88.44999980926514L92.08566905046386,88.44999980926514L92.45066262546386,88.44999980926514L92.81565620046388,88.44999980926514L93.18064977546386,88.44999980926514L93.54564335046386,88.44999980926514L93.91063692546386,88.44999980926514L94.27563050046388,88.44999980926514L94.64062407546388,88.44999980926514L95.00561765046386,88.44999980926514L95.37061122546386,88.44999980926514L95.73560480046386,88.44999980926514L96.10059837546387,88.44999980926514L96.46559195046387,88.44999980926514L96.83058552546386,88.44999980926514L97.19557910046386,88.44999980926514L97.56057267546387,88.44999980926514L97.92556625046387,88.44999980926514L98.29055982546387,88.44999980926514L98.65555340046386,88.44999980926514L99.02054697546386,88.44999980926514L99.38554055046387,88.44999980926514L99.75053412546387,88.44999980926514L100.11552770046386,88.44999980926514L100.48052127546386,88.44999980926514L100.84551485046387,88.44999980926514L101.21050842546387,88.44999980926514L101.57550200046387,88.44999980926514L101.94049557546386,88.44999980926514L102.30548915046387,88.44999980926514L102.67048272546387,88.44999980926514L103.03547630046387,88.44999980926514L103.40046987546387,88.44999980926514L103.76546345046386,88.44999980926514L104.13045702546387,88.44999980926514L104.49545060046387,88.44999980926514L104.86044417546387,88.44999980926514L105.22543775046387,88.44999980926514L105.59043132546387,88.44999980926514L105.95542490046387,88.44999980926514L106.32041847546387,88.44999980926514L106.68541205046387,88.44999980926514L107.05040562546387,88.44999980926514L107.41539920046387,88.44999980926514L107.78039277546387,88.44999980926514L108.14538635046387,88.44999980926514L108.51037992546387,88.44999980926514L108.87537350046388,88.44999980926514L109.24036707546387,88.44999980926514L109.60536065046387,88.44999980926514L109.97035422546386,88.44999980926514L110.33534780046386,88.44999980926514L110.70034137546388,88.44999980926514L111.06533495046386,88.44999980926514L111.43032852546386,88.44999980926514L111.79532210046386,88.44999980926514L112.16031567546388,88.44999980926514L112.52530925046386,88.44999980926514L112.89030282546386,88.44999980926514L113.25529640046386,88.44999980926514L113.62028997546388,88.44999980926514L113.98528355046388,88.44999980926514L114.35027712546386,88.44999980926514L114.71527070046386,88.44999980926514L115.08026427546386,88.44999980926514L115.44525785046388,88.44999980926514L115.81025142546387,88.44999980926514L116.17524500046386,88.44999980926514L116.54023857546386,88.44999980926514L116.90523215046387,88.44999980926514L117.27022572546387,88.44999980926514L117.63521930046387,88.44999980926514L118.00021287546386,88.44999980926514L118.36520645046386,88.44999980926514L118.73020002546387,88.44999980926514L119.09519360046387,88.44999980926514L119.46018717546386,88.44999980926514L119.82518075046386,88.44999980926514L120.19017432546387,88.44999980926514L120.55516790046387,88.44999980926514L120.92016147546387,88.44999980926514L121.28515505046386,88.44999980926514L121.65014862546386,88.44999980926514L122.01514220046387,88.44999980926514L122.38013577546387,88.44999980926514L122.74512935046387,88.44999980926514L123.11012292546386,88.44999980926514L123.47511650046387,88.44999980926514L123.84011007546387,88.44999980926514L124.20510365046387,88.44999980926514L124.57009722546387,88.44999980926514L124.93509080046387,88.44999980926514L125.30008437546387,88.44999980926514L125.66507795046387,88.44999980926514L126.03007152546387,88.44999980926514L126.39506510046387,88.44999980926514L126.76005867546387,88.44999980926514L127.12505225046387,88.44999980926514L127.49004582546387,88.44999980926514L127.85503940046387,88.44999980926514L128.22003297546388,88.44999980926514L128.58502655046388,88.44999980926514L128.95002012546388,88.44999980926514L129.31501370046385,88.44999980926514L129.68000727546385,88.44999980926514L130.04500085046388,88.44999980926514L130.40999442546388,88.44999980926514L130.77498800046388,88.44999980926514L131.13998157546385,88.44999980926514L131.50497515046388,88.44999980926514L131.86996872546388,88.44999980926514L132.23496230046388,88.44999980926514L132.59995587546388,88.44999980926514L132.96494945046388,88.44999980926514L133.32994302546388,88.44999980926514L133.69493660046388,88.44999980926514L134.05993017546388,88.44999980926514L134.42492375046385,88.44999980926514L134.78991732546388,88.44999980926514L135.15491090046388,88.44999980926514L135.51990447546387,88.44999980926514L135.88489805046387,88.44999980926514L136.24989162546387,88.44999980926514L136.61488520046387,88.44999980926514L136.97987877546387,88.44999980926514L137.34487235046387,88.44999980926514L137.70986592546387,88.44999980926514L138.07485950046387,88.44999980926514L138.43985307546387,88.44999980926514L138.80484665046387,88.44999980926514L139.16984022546387,88.44999980926514L139.53483380046387,88.44999980926514L139.89982737546387,88.44999980926514L140.26482095046387,88.44999980926514L140.62981452546387,88.44999980926514L140.99480810046387,88.44999980926514L141.35980167546384,88.44999980926514L141.72479525046384,88.44999980926514L142.08978882546387,88.44999980926514L142.45478240046387,88.44999980926514L142.81977597546387,88.44999980926514L143.18476955046387,88.44999980926514L143.54976312546387,88.44999980926514L143.91475670046387,88.44999980926514L144.27975027546387,88.44999980926514L144.64474385046387,88.44999980926514L145.00973742546384,88.44999980926514L145.37473100046387,88.44999980926514L145.73972457546387,88.44999980926514L146.10471815046387,88.44999980926514L146.46971172546387,88.44999980926514L146.83470530046387,88.44999980926514L147.19969887546387,88.44999980926514L147.56469245046387,88.44999980926514L147.92968602546387,88.44999980926514L148.2946796004639,88.44999980926514L148.65967317546387,88.44999980926514L149.02466675046387,88.44999980926514L149.38966032546386,88.44999980926514L149.75465390046386,88.44999980926514L150.11964747546386,88.44999980926514L150.48464105046386,88.44999980926514L150.84963462546386,88.44999980926514L151.21462820046386,88.44999980926514L151.5796217754639,88.44999980926514L151.9446153504639,88.44999980926514L152.30960892546386,88.44999980926514L152.67460250046386,88.44999980926514L153.03959607546386,88.44999980926514L153.40458965046386,88.44999980926514L153.76958322546386,88.44999980926514L154.13457680046386,88.44999980926514L154.49957037546386,88.44999980926514L154.8645639504639,88.44999980926514L155.2295575254639,88.44999980926514L155.59455110046386,88.44999980926514L155.95954467546386,88.44999980926514L156.32453825046386,88.44999980926514L156.68953182546386,88.44999980926514L157.05452540046386,88.44999980926514L157.41951897546386,88.44999980926514L157.78451255046386,88.44999980926514L158.1495061254639,88.44999980926514L158.5144997004639,88.44999980926514L158.8794932754639,88.44999980926514L159.24448685046386,88.44999980926514L159.60948042546386,88.44999980926514L159.97447400046386,88.44999980926514L160.33946757546386,88.44999980926514L160.70446115046386,88.44999980926514L161.06945472546386,88.44999980926514L161.43444830046388,88.44999980926514L161.79944187546388,88.44999980926514L162.16443545046388,88.44999980926514L162.52942902546388,88.44999980926514L162.89442260046386,88.44999980926514L163.25941617546385,88.44999980926514L163.62440975046385,88.44999980926514L163.98940332546385,88.44999980926514L164.35439690046385,88.44999980926514L164.71939047546388,88.44999980926514L165.08438405046388,88.44999980926514L165.44937762546388,88.44999980926514L165.81437120046388,88.44999980926514L166.17936477546385,88.44999980926514L166.54435835046385,88.44999980926514L166.90935192546385,88.44999980926514L167.27434550046385,88.44999980926514L167.63933907546385,88.44999980926514L168.00433265046388,88.44999980926514L168.36932622546388,88.44999980926514L168.73431980046388,88.44999980926514L169.09931337546388,88.44999980926514L169.46430695046388,88.44999980926514L169.82930052546385,88.44999980926514L170.19429410046385,88.44999980926514L170.55928767546385,88.44999980926514L170.92428125046388,88.44999980926514L171.28927482546388,88.44999980926514L171.65426840046388,88.44999980926514L172.01926197546388,88.44999980926514L172.38425555046388,88.44999980926514L172.74924912546388,88.44999980926514L173.11424270046385,88.44999980926514L173.47923627546385,88.44999980926514L173.84422985046385,88.44999980926514L174.20922342546388,88.44999980926514L174.57421700046388,88.44999980926514L174.93921057546387,88.44999980926514L175.30420415046387,88.44999980926514L175.66919772546387,88.44999980926514L176.03419130046387,88.44999980926514L176.39918487546387,88.44999980926514L176.76417845046385,88.44999980926514L177.12917202546384,88.44999980926514L177.49416560046387,88.44999980926514L177.85915917546387,88.44999980926514L178.22415275046387,88.44999980926514L178.58914632546387,88.44999980926514L178.95413990046387,88.44999980926514L179.31913347546387,88.44999980926514L179.68412705046387,88.44999980926514L180.04912062546384,88.44999980926514L180.41411420046384,88.44999980926514L180.77910777546387,88.44999980926514L181.14410135046387,88.44999980926514L181.50909492546387,88.44999980926514L181.87408850046387,88.44999980926514L182.23908207546387,88.44999980926514L182.60407565046387,88.44999980926514L182.96906922546387,88.44999980926514L183.33406280046387,88.44999980926514L183.69905637546384,88.44999980926514L184.06404995046387,88.44999980926514L184.42904352546387,88.44999980926514L184.79403710046387,88.44999980926514L185.15903067546387,88.44999980926514L185.52402425046387,88.44999980926514L185.88901782546387,88.44999980926514L186.25401140046387,88.44999980926514L186.61900497546387,88.44999980926514L186.98399855046387,88.44999980926514L187.34899212546387,88.44999980926514L187.71398570046387,88.44999980926514L188.07897927546387,88.44999980926514L188.44397285046387,88.44999980926514L188.80896642546386,88.44999980926514L189.17396000046386,88.44999980926514L189.53895357546386,88.44999980926514L189.90394715046386,88.44999980926514L190.2689407254639,88.44999980926514L190.6339343004639,88.44999980926514L190.99892787546386,88.44999980926514L191.36392145046386,88.44999980926514L191.72891502546386,88.44999980926514L192.09390860046386,88.44999980926514L192.45890217546386,88.44999980926514L192.82389575046386,88.44999980926514L193.18888932546386,88.44999980926514L193.5538829004639,88.44999980926514L193.9188764754639,88.44999980926514L194.28387005046386,88.44999980926514L194.64886362546386,88.44999980926514L195.01385720046386,88.44999980926514L195.37885077546386,88.44999980926514L195.74384435046386,88.44999980926514L196.10883792546386,88.44999980926514L196.47383150046386,88.44999980926514L196.8388250754639,88.44999980926514L197.2038186504639,88.44999980926514L197.5688122254639,88.44999980926514L197.93380580046386,88.44999980926514L198.29879937546386,88.44999980926514L198.66379295046386,88.44999980926514L199.02878652546386,88.44999980926514L199.39378010046386,88.44999980926514L199.75877367546386,88.44999980926514L200.12376725046389,88.44999980926514L200.48876082546388,88.44999980926514L200.85375440046388,88.44999980926514L201.21874797546388,88.44999980926514L201.58374155046386,88.44999980926514L201.94873512546386,88.44999980926514L202.31372870046386,88.44999980926514L202.67872227546385,88.44999980926514L203.04371585046385,88.44999980926514L203.40870942546388,88.44999980926514L203.77370300046388,88.44999980926514L204.13869657546388,88.44999980926514L204.50369015046388,88.44999980926514L204.86868372546385,88.44999980926514L205.23367730046385,88.44999980926514L205.59867087546385,88.44999980926514L205.96366445046385,88.44999980926514L206.32865802546385,88.44999980926514L206.69365160046388,88.44999980926514L207.05864517546388,88.44999980926514L207.42363875046388,88.44999980926514L207.78863232546388,88.44999980926514L208.15362590046388,88.44999980926514L208.51861947546385,88.44999980926514L208.88361305046385,88.44999980926514L209.24860662546385,88.44999980926514L209.61360020046385,88.44999980926514L209.97859377546388,88.44999980926514L210.34358735046388,88.44999980926514L210.70858092546388,88.44999980926514L211.07357450046388,88.44999980926514L211.43856807546388,88.44999980926514L211.80356165046385,88.44999980926514L212.16855522546385,88.44999980926514L212.53354880046385,88.44999980926514L212.89854237546388,88.44999980926514L213.26353595046388,88.44999980926514L213.62852952546388,88.44999980926514L213.99352310046388,88.44999980926514L214.35851667546387,88.44999980926514L214.72351025046387,88.44999980926514L215.08850382546387,88.44999980926514L215.45349740046385,88.44999980926514L215.81849097546385,88.44999980926514L216.18348455046387,88.44999980926514L216.54847812546387,88.44999980926514L216.91347170046387,88.44999980926514L217.27846527546387,88.44999980926514L217.64345885046387,88.44999980926514L218.00845242546387,88.44999980926514L218.37344600046387,88.44999980926514L218.73843957546384,88.44999980926514L219.10343315046384,88.44999980926514L219.46842672546387,88.44999980926514L219.83342030046387,88.44999980926514L220.19841387546387,88.44999980926514L220.56340745046387,88.44999980926514L220.92840102546387,88.44999980926514L221.29339460046387,88.44999980926514L221.65838817546387,88.44999980926514L222.02338175046387,88.44999980926514L222.38837532546384,88.44999980926514L222.75336890046387,88.44999980926514L223.11836247546387,88.44999980926514L223.48335605046387,88.44999980926514L223.84834962546387,88.44999980926514L224.21334320046387,88.44999980926514L224.57833677546387,88.44999980926514L224.94333035046387,88.44999980926514L225.30832392546387,88.44999980926514L225.67331750046387,88.44999980926514L226.03831107546387,88.44999980926514L226.40330465046387,88.44999980926514L226.76829822546387,88.44999980926514L227.13329180046387,88.44999980926514L227.49828537546387,88.44999980926514L227.86327895046387,88.44999980926514L228.22827252546386,88.44999980926514L228.59326610046386,88.44999980926514L228.95825967546386,88.44999980926514L229.3232532504639,88.44999980926514L229.68824682546386,88.44999980926514L230.05324040046386,88.44999980926514L230.41823397546386,88.44999980926514L230.78322755046386,88.44999980926514L231.14822112546386,88.44999980926514L231.51321470046386,88.44999980926514L231.87820827546386,88.44999980926514L232.24320185046386,88.44999980926514L232.6081954254639,88.44999980926514L232.97318900046386,88.44999980926514L233.33818257546386,88.44999980926514L233.70317615046386,88.44999980926514L234.06816972546386,88.44999980926514L234.43316330046386,88.44999980926514L234.79815687546386,88.44999980926514L235.16315045046386,88.44999980926514L235.5281440254639,88.44999980926514L235.8931376004639,88.44999980926514L236.2581311754639,88.44999980926514L236.62312475046386,88.44999980926514L236.98811832546386,88.44999980926514L237.35311190046386,88.44999980926514L237.71810547546386,88.44999980926514L238.08309905046386,88.44999980926514L238.44809262546386,88.44999980926514L238.81308620046389,88.44999980926514L239.17807977546389,88.44999980926514L239.54307335046389,88.44999980926514L239.90806692546388,88.44999980926514L240.27306050046386,88.44999980926514L240.63805407546386,88.44999980926514L241.00304765046386,88.44999980926514L241.36804122546386,88.44999980926514L241.73303480046386,88.44999980926514L242.09802837546388,88.44999980926514L242.46302195046388,88.44999980926514L242.82801552546388,88.44999980926514L243.19300910046388,88.44999980926514L243.55800267546385,88.44999980926514L243.92299625046385,88.44999980926514L244.28798982546385,88.44999980926514L244.65298340046385,88.44999980926514L245.01797697546385,88.44999980926514L245.38297055046388,88.44999980926514L245.74796412546388,88.44999980926514L246.11295770046388,88.44999980926514L246.47795127546388,88.44999980926514L246.84294485046388,88.44999980926514L247.20793842546385,88.44999980926514L247.57293200046385,88.44999980926514L247.93792557546385,88.44999980926514L248.30291915046385,88.44999980926514L248.66791272546388,88.44999980926514L249.03290630046388,88.44999980926514L249.39789987546388,88.44999980926514L249.76289345046388,88.44999980926514L250.12788702546388,88.44999980926514L250.49288060046385,88.44999980926514L250.85787417546385,88.44999980926514L251.22286775046385,88.44999980926514L251.58786132546385,88.44999980926514L251.95285490046388,88.44999980926514L252.31784847546388,88.44999980926514L252.68284205046388,88.44999980926514L253.04783562546388,88.44999980926514L253.41282920046388,88.44999980926514" fill="none"></path></g></g></g></g></g></g><g transform="translate(51, 176)" clip-path="url(#clip_1)"><clipPath id="clip_1"><rect width="278" height="23"></rect></clipPath><g><g><line x1="0" y1="0" x2="0" y2="5" style="visibility: inherit;" fill="rgb(0, 0, 0)" stroke="rgb(204, 204, 204)" stroke-width="1px"></line><line x1="27.846799850463867" y1="0" x2="27.846799850463867" y2="5" style="visibility: inherit;" fill="rgb(0, 0, 0)" stroke="rgb(204, 204, 204)" stroke-width="1px"></line><line x1="55.693599700927734" y1="0" x2="55.693599700927734" y2="5" style="visibility: inherit;" fill="rgb(0, 0, 0)" stroke="rgb(204, 204, 204)" stroke-width="1px"></line><line x1="83.5403995513916" y1="0" x2="83.5403995513916" y2="5" style="visibility: inherit;" fill="rgb(0, 0, 0)" stroke="rgb(204, 204, 204)" stroke-width="1px"></line><line x1="111.38719940185547" y1="0" x2="111.38719940185547" y2="5" style="visibility: inherit;" fill="rgb(0, 0, 0)" stroke="rgb(204, 204, 204)" stroke-width="1px"></line><line x1="139.23399925231934" y1="0" x2="139.23399925231934" y2="5" style="visibility: inherit;" fill="rgb(0, 0, 0)" stroke="rgb(204, 204, 204)" stroke-width="1px"></line><line x1="167.0807991027832" y1="0" x2="167.0807991027832" y2="5" style="visibility: inherit;" fill="rgb(0, 0, 0)" stroke="rgb(204, 204, 204)" stroke-width="1px"></line><line x1="194.92759895324707" y1="0" x2="194.92759895324707" y2="5" style="visibility: inherit;" fill="rgb(0, 0, 0)" stroke="rgb(204, 204, 204)" stroke-width="1px"></line><line x1="222.77439880371094" y1="0" x2="222.77439880371094" y2="5" style="visibility: inherit;" fill="rgb(0, 0, 0)" stroke="rgb(204, 204, 204)" stroke-width="1px"></line><line x1="250.6211986541748" y1="0" x2="250.6211986541748" y2="5" style="visibility: inherit;" fill="rgb(0, 0, 0)" stroke="rgb(204, 204, 204)" stroke-width="1px"></line><line x1="278.4679985046387" y1="0" x2="278.4679985046387" y2="5" style="visibility: inherit;" fill="rgb(0, 0, 0)" stroke="rgb(204, 204, 204)" stroke-width="1px"></line></g><g transform="translate(0, 8)"><text style="text-anchor: middle; visibility: hidden; font-family: Roboto, sans-serif; font-size: 12px; font-weight: 200;" x="0" y="0" dx="0em" dy="0.95em" fill="rgb(33, 33, 33)" stroke="none" stroke-width="1px">-10M</text><text style="text-anchor: middle; visibility: inherit; font-family: Roboto, sans-serif; font-size: 12px; font-weight: 200;" x="27.846799850463867" y="0" dx="0em" dy="0.95em" fill="rgb(33, 33, 33)" stroke="none" stroke-width="1px">0</text><text style="text-anchor: middle; visibility: hidden; font-family: Roboto, sans-serif; font-size: 12px; font-weight: 200;" x="55.693599700927734" y="0" dx="0em" dy="0.95em" fill="rgb(33, 33, 33)" stroke="none" stroke-width="1px">10M</text><text style="text-anchor: middle; visibility: inherit; font-family: Roboto, sans-serif; font-size: 12px; font-weight: 200;" x="83.5403995513916" y="0" dx="0em" dy="0.95em" fill="rgb(33, 33, 33)" stroke="none" stroke-width="1px">20M</text><text style="text-anchor: middle; visibility: hidden; font-family: Roboto, sans-serif; font-size: 12px; font-weight: 200;" x="111.38719940185547" y="0" dx="0em" dy="0.95em" fill="rgb(33, 33, 33)" stroke="none" stroke-width="1px">30M</text><text style="text-anchor: middle; visibility: inherit; font-family: Roboto, sans-serif; font-size: 12px; font-weight: 200;" x="139.23399925231934" y="0" dx="0em" dy="0.95em" fill="rgb(33, 33, 33)" stroke="none" stroke-width="1px">40M</text><text style="text-anchor: middle; visibility: hidden; font-family: Roboto, sans-serif; font-size: 12px; font-weight: 200;" x="167.0807991027832" y="0" dx="0em" dy="0.95em" fill="rgb(33, 33, 33)" stroke="none" stroke-width="1px">50M</text><text style="text-anchor: middle; visibility: inherit; font-family: Roboto, sans-serif; font-size: 12px; font-weight: 200;" x="194.92759895324707" y="0" dx="0em" dy="0.95em" fill="rgb(33, 33, 33)" stroke="none" stroke-width="1px">60M</text><text style="text-anchor: middle; visibility: hidden; font-family: Roboto, sans-serif; font-size: 12px; font-weight: 200;" x="222.77439880371094" y="0" dx="0em" dy="0.95em" fill="rgb(33, 33, 33)" stroke="none" stroke-width="1px">70M</text><text style="text-anchor: middle; visibility: inherit; font-family: Roboto, sans-serif; font-size: 12px; font-weight: 200;" x="250.6211986541748" y="0" dx="0em" dy="0.95em" fill="rgb(33, 33, 33)" stroke="none" stroke-width="1px">80M</text><text style="text-anchor: middle; visibility: hidden; font-family: Roboto, sans-serif; font-size: 12px; font-weight: 200;" x="278.4679985046387" y="0" dx="0em" dy="0.95em" fill="rgb(33, 33, 33)" stroke="none" stroke-width="1px">90M</text></g><line x1="0" y1="0" x2="278.4679985046387" y2="0" fill="rgb(0, 0, 0)" stroke="rgb(204, 204, 204)" stroke-width="1px"></line></g></g></g></g></svg>