<svg viewBox="0 0 330 200" xmlns="http://www.w3.org/2000/svg"><g><g><g><g><g><line x1="82.68100261688232" y1="176.89999961853027" x2="77.68100261688232" y2="176.89999961853027" style="visibility: inherit;" fill="rgb(0, 0, 0)" stroke="rgb(204, 204, 204)" stroke-width="1px"></line><line x1="82.68100261688232" y1="162.15833298365274" x2="77.68100261688232" y2="162.15833298365274" style="visibility: inherit;" fill="rgb(0, 0, 0)" stroke="rgb(204, 204, 204)" stroke-width="1px"></line><line x1="82.68100261688232" y1="147.4166663487752" x2="77.68100261688232" y2="147.4166663487752" style="visibility: inherit;" fill="rgb(0, 0, 0)" stroke="rgb(204, 204, 204)" stroke-width="1px"></line><line x1="82.68100261688232" y1="132.67499971389773" x2="77.68100261688232" y2="132.67499971389773" style="visibility: inherit;" fill="rgb(0, 0, 0)" stroke="rgb(204, 204, 204)" stroke-width="1px"></line><line x1="82.68100261688232" y1="117.9333330790202" x2="77.68100261688232" y2="117.9333330790202" style="visibility: inherit;" fill="rgb(0, 0, 0)" stroke="rgb(204, 204, 204)" stroke-width="1px"></line><line x1="82.68100261688232" y1="103.19166644414264" x2="77.68100261688232" y2="103.19166644414264" style="visibility: inherit;" fill="rgb(0, 0, 0)" stroke="rgb(204, 204, 204)" stroke-width="1px"></line><line x1="82.68100261688232" y1="88.44999980926514" x2="77.68100261688232" y2="88.44999980926514" style="visibility: inherit;" fill="rgb(0, 0, 0)" stroke="rgb(204, 204, 204)" stroke-width="1px"></line><line x1="82.68100261688232" y1="73.7083331743876" x2="77.68100261688232" y2="73.7083331743876" style="visibility: inherit;" fill="rgb(0, 0, 0)" stroke="rgb(204, 204, 204)" stroke-width="1px"></line><line x1="82.68100261688232" y1="58.9666665395101" x2="77.68100261688232" y2="58.9666665395101" style="visibility: inherit;" fill="rgb(0, 0, 0)" stroke="rgb(204, 204, 204)" stroke-width="1px"></line><line x1="82.68100261688232" y1="44.22499990463255" x2="77.68100261688232" y2="44.22499990463255" style="visibility: inherit;" fill="rgb(0, 0, 0)" stroke="rgb(204, 204, 204)" stroke-width="1px"></line><line x1="82.68100261688232" y1="29.48333326975504" x2="77.68100261688232" y2="29.48333326975504" style="visibility: inherit;" fill="rgb(0, 0, 0)" stroke="rgb(204, 204, 204)" stroke-width="1px"></line><line x1="82.68100261688232" y1="14.74166663487751" x2="77.68100261688232" y2="14.74166663487751" style="visibility: inherit;" fill="rgb(0, 0, 0)" stroke="rgb(204, 204, 204)" stroke-width="1px"></line><line x1="82.68100261688232" y1="0" x2="77.68100261688232" y2="0" style="visibility: inherit;" fill="rgb(0, 0, 0)" stroke="rgb(204, 204, 204)" stroke-width="1px"></line></g><g transform="translate(72.68100261688232, 0)"><text style="text-anchor: end; visibility: hidden; font-family: Roboto, sans-serif; font-size: 12px; font-weight: 200;" x="0" y="176.89999961853027" dx="0em" dy="0.3em" fill="rgb(33, 33, 33)" stroke="none" stroke-width="1px">-0.01</text><text style="text-anchor: end; visibility: inherit; font-family: Roboto, sans-serif; font-size: 12px; font-weight: 200;" x="0" y="162.15833298365274" dx="0em" dy="0.3em" fill="rgb(33, 33, 33)" stroke="none" stroke-width="1px">-9.5e-3</text><text style="text-anchor: end; visibility: hidden; font-family: Roboto, sans-serif; font-size: 12px; font-weight: 200;" x="0" y="147.4166663487752" dx="0em" dy="0.3em" fill="rgb(33, 33, 33)" stroke="none" stroke-width="1px">-9e-3</text><text style="text-anchor: end; visibility: inherit; font-family: Roboto, sans-serif; font-size: 12px; font-weight: 200;" x="0" y="132.67499971389773" dx="0em" dy="0.3em" fill="rgb(33, 33, 33)" stroke="none" stroke-width="1px">-8.5e-3</text><text style="text-anchor: end; visibility: hidden; font-family: Roboto, sans-serif; font-size: 12px; font-weight: 200;" x="0" y="117.9333330790202" dx="0em" dy="0.3em" fill="rgb(33, 33, 33)" stroke="none" stroke-width="1px">-8e-3</text><text style="text-anchor: end; visibility: inherit; font-family: Roboto, sans-serif; font-size: 12px; font-weight: 200;" x="0" y="103.19166644414264" dx="0em" dy="0.3em" fill="rgb(33, 33, 33)" stroke="none" stroke-width="1px">-7.5e-3</text><text style="text-anchor: end; visibility: hidden; font-family: Roboto, sans-serif; font-size: 12px; font-weight: 200;" x="0" y="88.44999980926514" dx="0em" dy="0.3em" fill="rgb(33, 33, 33)" stroke="none" stroke-width="1px">-7e-3</text><text style="text-anchor: end; visibility: inherit; font-family: Roboto, sans-serif; font-size: 12px; font-weight: 200;" x="0" y="73.7083331743876" dx="0em" dy="0.3em" fill="rgb(33, 33, 33)" stroke="none" stroke-width="1px">-6.5e-3</text><text style="text-anchor: end; visibility: hidden; font-family: Roboto, sans-serif; font-size: 12px; font-weight: 200;" x="0" y="58.9666665395101" dx="0em" dy="0.3em" fill="rgb(33, 33, 33)" stroke="none" stroke-width="1px">-6e-3</text><text style="text-anchor: end; visibility: inherit; font-family: Roboto, sans-serif; font-size: 12px; font-weight: 200;" x="0" y="44.22499990463255" dx="0em" dy="0.3em" fill="rgb(33, 33, 33)" stroke="none" stroke-width="1px">-5.5e-3</text><text style="text-anchor: end; visibility: hidden; font-family: Roboto, sans-serif; font-size: 12px; font-weight: 200;" x="0" y="29.48333326975504" dx="0em" dy="0.3em" fill="rgb(33, 33, 33)" stroke="none" stroke-width="1px">-5e-3</text><text style="text-anchor: end; visibility: inherit; font-family: Roboto, sans-serif; font-size: 12px; font-weight: 200;" x="0" y="14.74166663487751" dx="0em" dy="0.3em" fill="rgb(33, 33, 33)" stroke="none" stroke-width="1px">-4.5e-3</text><text style="text-anchor: end; visibility: hidden; font-family: Roboto, sans-serif; font-size: 12px; font-weight: 200;" x="0" y="0" dx="0em" dy="0.3em" fill="rgb(33, 33, 33)" stroke="none" stroke-width="1px">-4e-3</text></g><line x1="82.68100261688232" y1="0" x2="82.68100261688232" y2="176.89999961853027" fill="rgb(0, 0, 0)" stroke="rgb(204, 204, 204)" stroke-width="1px"></line></g></g><g transform="translate(82, 0)" clip-path="url(#clip_0)"><clipPath id="clip_0"><rect width="247" height="176"></rect></clipPath><g><g><g><line x1="0" y1="0" x2="0" y2="176.89999961853027" fill="rgb(0, 0, 0)" stroke="rgb(66, 66, 66)" stroke-width="1px" opacity="0.25"></line><line x1="24.731899738311768" y1="0" x2="24.731899738311768" y2="176.89999961853027" fill="rgb(0, 0, 0)" stroke="rgb(66, 66, 66)" stroke-width="1px" opacity="0.25"></line><line x1="49.463799476623535" y1="0" x2="49.463799476623535" y2="176.89999961853027" fill="rgb(0, 0, 0)" stroke="rgb(66, 66, 66)" stroke-width="1px" opacity="0.25"></line><line x1="74.1956992149353" y1="0" x2="74.1956992149353" y2="176.89999961853027" fill="rgb(0, 0, 0)" stroke="rgb(66, 66, 66)" stroke-width="1px" opacity="0.25"></line><line x1="98.92759895324707" y1="0" x2="98.92759895324707" y2="176.89999961853027" fill="rgb(0, 0, 0)" stroke="rgb(66, 66, 66)" stroke-width="1px" opacity="0.25"></line><line x1="123.65949869155884" y1="0" x2="123.65949869155884" y2="176.89999961853027" fill="rgb(0, 0, 0)" stroke="rgb(66, 66, 66)" stroke-width="1px" opacity="0.25"></line><line x1="148.3913984298706" y1="0" x2="148.3913984298706" y2="176.89999961853027" fill="rgb(0, 0, 0)" stroke="rgb(66, 66, 66)" stroke-width="1px" opacity="0.25"></line><line x1="173.12329816818237" y1="0" x2="173.12329816818237" y2="176.89999961853027" fill="rgb(0, 0, 0)" stroke="rgb(66, 66, 66)" stroke-width="1px" opacity="0.25"></line><line x1="197.85519790649414" y1="0" x2="197.85519790649414" y2="176.89999961853027" fill="rgb(0, 0, 0)" stroke="rgb(66, 66, 66)" stroke-width="1px" opacity="0.25"></line><line x1="222.5870976448059" y1="0" x2="222.5870976448059" y2="176.89999961853027" fill="rgb(0, 0, 0)" stroke="rgb(66, 66, 66)" stroke-width="1px" opacity="0.25"></line><line x1="247.31899738311768" y1="0" x2="247.31899738311768" y2="176.89999961853027" fill="rgb(0, 0, 0)" stroke="rgb(66, 66, 66)" stroke-width="1px" opacity="0.25"></line></g><g><line x1="0" y1="176.89999961853027" x2="247.31899738311768" y2="176.89999961853027" fill="rgb(0, 0, 0)" stroke="rgb(66, 66, 66)" stroke-width="1px" opacity="0.25"></line><line x1="0" y1="162.15833298365274" x2="247.31899738311768" y2="162.15833298365274" fill="rgb(0, 0, 0)" stroke="rgb(66, 66, 66)" stroke-width="1px" opacity="0.25"></line><line x1="0" y1="147.4166663487752" x2="247.31899738311768" y2="147.4166663487752" fill="rgb(0, 0, 0)" stroke="rgb(66, 66, 66)" stroke-width="1px" opacity="0.25"></line><line x1="0" y1="132.67499971389773" x2="247.31899738311768" y2="132.67499971389773" fill="rgb(0, 0, 0)" stroke="rgb(66, 66, 66)" stroke-width="1px" opacity="0.25"></line><line x1="0" y1="117.9333330790202" x2="247.31899738311768" y2="117.9333330790202" fill="rgb(0, 0, 0)" stroke="rgb(66, 66, 66)" stroke-width="1px" opacity="0.25"></line><line x1="0" y1="103.19166644414264" x2="247.31899738311768" y2="103.19166644414264" fill="rgb(0, 0, 0)" stroke="rgb(66, 66, 66)" stroke-width="1px" opacity="0.25"></line><line x1="0" y1="88.44999980926514" x2="247.31899738311768" y2="88.44999980926514" fill="rgb(0, 0, 0)" stroke="rgb(66, 66, 66)" stroke-width="1px" opacity="0.25"></line><line x1="0" y1="73.7083331743876" x2="247.31899738311768" y2="73.7083331743876" fill="rgb(0, 0, 0)" stroke="rgb(66, 66, 66)" stroke-width="1px" opacity="0.25"></line><line x1="0" y1="58.9666665395101" x2="247.31899738311768" y2="58.9666665395101" fill="rgb(0, 0, 0)" stroke="rgb(66, 66, 66)" stroke-width="1px" opacity="0.25"></line><line x1="0" y1="44.22499990463255" x2="247.31899738311768" y2="44.22499990463255" fill="rgb(0, 0, 0)" stroke="rgb(66, 66, 66)" stroke-width="1px" opacity="0.25"></line><line x1="0" y1="29.48333326975504" x2="247.31899738311768" y2="29.48333326975504" fill="rgb(0, 0, 0)" stroke="rgb(66, 66, 66)" stroke-width="1px" opacity="0.25"></line><line x1="0" y1="14.74166663487751" x2="247.31899738311768" y2="14.74166663487751" fill="rgb(0, 0, 0)" stroke="rgb(66, 66, 66)" stroke-width="1px" opacity="0.25"></line><line x1="0" y1="0" x2="247.31899738311768" y2="0" fill="rgb(0, 0, 0)" stroke="rgb(66, 66, 66)" stroke-width="1px" opacity="0.25"></line></g></g></g><g><g><line x1="0" y1="-117.9333330790202" x2="247.31899738311768" y2="-117.9333330790202" fill="rgb(0, 0, 0)" stroke="rgb(153, 153, 153)" stroke-width="1.5px"></line></g></g><g><g><line x1="24.731899738311768" y1="0" x2="24.731899738311768" y2="176.89999961853027" fill="rgb(0, 0, 0)" stroke="rgb(153, 153, 153)" stroke-width="1.5px"></line></g></g><g><g><g><g><g><path style="fill: none;" stroke="rgb(0, 153, 136)" stroke-width="2px" d="M24.731899738311768,-32.12614388765216L25.05606569456177,12.928027404782082L25.380231650811766,-17.28593680907973L25.704397607061768,42.25137634667544L26.028563563311767,-37.13339149534037L26.67689547581177,-61.36636860297639L27.001061432061768,27.155461094608807L27.325227388311767,34.96563840061863L27.64939334456177,-13.937633403346119L28.621891213311766,-39.822874010757005L28.946057169561765,1.1966155483931944L29.270223125811768,11.267833932900354L29.594389082061767,-9.304258803555154L30.24272099456177,-33.86654839487987L30.566886950811767,0.7745414680464251L30.89105290706177,36.35384008175659L31.21521886331177,74.48147195493543L31.539384819561764,75.0382387900902L31.86355077581177,68.77343332115726L32.187716732061766,44.99898022329994L32.51188268831177,18.78360817483245L32.836048644561764,13.462960438050967L33.16021460081177,-26.706519239550357L34.78104438206177,-26.86068377189564L35.105210338311764,8.250672973152975L35.42937629456177,9.34117848147406L35.75354225081177,32.25983943458128L36.07770820706177,13.066463549338488L36.40187416331177,38.54928431432009L36.72604011956177,16.397384346375574L37.050206075811765,-8.473809743404834L37.69853798831177,-62.19531844114229L38.02270394456176,19.715195787845268L38.34686990081177,80.99450111340624L38.67103585706177,86.39161726616918L38.995201813311766,65.35054850690905L39.319367769561765,79.62371513416377L39.64353372581177,94.69714532999338L39.96769968206177,103.90673423145341L40.29186563831177,101.1510442691081L40.61603159456177,104.64443390373302L40.94019755081177,100.30677233296804L41.264363507061766,90.17244782017967L41.588529463311765,102.74458371856788L41.91269541956177,107.28780513662574L42.23686137581176,101.44606185289354L42.56102733206177,101.00446119081667L42.88519328831177,111.8269989750674L43.20935924456177,43.56962954917168L43.533525200811766,82.4221093462866L43.857691157061765,106.61704680565241L44.18185711331177,95.20635392281342L44.50602306956176,98.98747365244074L44.83018902581177,107.35034402375834L45.15435498206177,125.42372336675668L45.47852093831177,95.84068187070604L45.80268689456177,88.97032411347097L46.12685285081177,50.80307255259413L46.451018807061764,86.29299735563725L46.77518476331177,111.7983383228723L47.09935071956177,119.4825028141513L47.42351667581176,111.85939677756326L47.74768263206177,92.51858032324924L48.07184858831177,93.05787295693729L48.396014544561766,116.83638964071869L48.720180500811765,130.04853333391011L49.04434645706177,105.43957470915537L49.36851241331177,130.60306172375505L49.69267836956177,138.36075165563528L50.01684432581177,102.23347785539673L50.341010282061774,81.15158447538646L50.665176238311766,73.55128564499238L50.989342194561765,108.95902000616061L51.31350815081177,139.98200371801906L51.63767410706176,150.52813698356658L51.96184006331177,141.18519958626337L52.28600601956177,131.92682042890257L52.61017197581177,94.21271247362803L52.934337932061766,94.5832789555601L53.25850388831177,77.18170308624522L53.58266984456177,116.7860318255357L53.90683580081176,106.19010128414916L54.23100175706177,83.60765393754775L54.55516771331177,118.6315527193876L54.87933366956177,128.54112790606496L55.203499625811766,118.60855412226684L55.52766558206177,129.67390758374785L55.851831538311764,114.84469075307008L56.17599749456177,90.6260130409472L56.50016345081177,125.0669917515351L56.82432940706177,137.54809110586743L57.14849536331177,148.031220290077L57.472661319561766,153.43032229334497L57.796827275811765,159.15708370212664L58.120993232061764,145.82127283645465L58.44515918831177,125.9265625671474L58.76932514456177,114.6569283808057L59.09349110081177,139.85704339383005L59.41765705706177,150.4903176229296L59.74182301331177,134.72921351240075L60.065988969561765,149.41570634778546L60.39015492581177,158.96111727030186L60.71432088206177,139.4639918849126L61.03848683831176,134.61535876169356L61.36265279456177,108.33175157985768L61.68681875081177,136.09464587113422L62.01098470706176,158.68485594236927L62.33515066331177,161.74266517618577L62.65931661956177,139.29526092759625L62.98348257581176,156.97212575469547L63.30764853206176,167.64410110260252L63.631814488311775,159.9009448652627L63.955980444561774,139.0831130606278L64.28014640081177,123.26397223724963L64.60431235706176,147.67542968993914L64.92847831331176,120.51613769783447L65.25264426956177,117.01723110879534L65.57681022581177,139.4310676284847L65.90097618206177,162.5342482637131L66.22514213831177,149.0147882133388L66.54930809456178,132.6965591762607L66.87347405081177,132.06954260740784L67.19764000706176,135.44618387102147L67.52180596331176,153.52783095336758L67.84597191956176,137.58193124968673L68.17013787581178,117.02852811511673L68.49430383206177,143.63823753674964L68.81846978831176,160.68653193424598L69.14263574456176,140.71062166062765L69.46680170081177,140.85294855139696L69.79096765706177,153.4402628357092L70.11513361331177,161.02584323366125L70.43929956956177,165.4836458755876L70.76346552581177,176.60279184170253L71.08763148206177,169.83748742314154L71.41179743831177,147.01681656355797L71.73596339456176,152.74356613413178L72.06012935081176,152.50092457173818L72.38429530706178,136.80053122132804L72.70846126331178,160.12907428584188L73.03262721956176,166.4240816164985L73.35679317581176,155.61177316263823L73.68095913206177,152.16658052424177L74.00512508831177,140.16892490633998L74.32929104456177,119.68536853325782L74.65345700081177,144.18020918712202L74.97762295706175,145.49178978208127L75.30178891331177,141.65281666370748L75.62595486956177,157.98456799583454L75.95012082581177,142.13607851580537L76.27428678206176,140.89462749175667L76.59845273831178,139.2721394803222L76.92261869456178,154.71109368331625L77.24678465081176,160.33275599989065L77.57095060706176,157.3295506327657L77.89511656331176,157.99896874268666L78.21928251956177,150.86763443930005L78.54344847581177,151.84097374333842L78.86761443206177,139.4871500943586L79.19178038831176,131.76832026303768L79.51594634456177,122.64396704893254L79.84011230081177,129.51736292059746L80.16427825706177,135.85579617175057L80.48844421331177,140.52419408099843L80.81261016956178,141.9461354646782L81.13677612581178,144.91439512588457L81.46094208206176,145.5395679995148L81.78510803831176,156.86327385990123L82.10927399456176,136.08700033068843L82.43343995081177,141.34778632994374L82.75760590706177,141.59410790079843L83.08177186331177,144.7688593048436L83.40593781956176,147.31773264540345L83.73010377581177,143.00103347530455L84.05426973206177,168.81304757131775L84.37843568831177,173.1546776412419L84.70260164456177,168.29219746357856L85.02676760081177,169.4940655544053L85.35093355706177,161.4555095019529L85.67509951331176,157.4313521411031L85.99926546956176,170.4849961475821L86.32343142581176,165.15604088129126L86.64759738206178,153.83777423207465L86.97176333831177,140.64397674644158L87.29592929456177,147.4300961683838L87.62009525081176,145.7241931805812L87.94426120706176,156.8439396412868L88.26842716331177,154.861573193937L88.59259311956177,146.24044606490074L88.91675907581177,156.73848599468852L89.24092503206177,157.46263161434246L89.56509098831177,147.1857802035773L89.88925694456177,166.4585140997734L90.21342290081176,163.8580528375855L90.53758885706176,149.20487425900808L90.86175481331178,125.68453305467187L91.18592076956178,148.6426624612604L91.51008672581177,137.17812091168506L91.83425268206176,153.2336965836369L92.15841863831176,145.69270963982297L92.48258459456177,162.68409900074866L92.80675055081177,154.08569140657008L93.13091650706177,146.50675175394258L93.45508246331177,132.43763350883026L93.77924841956177,139.5457923027969L94.10341437581177,139.54721822263488L94.42758033206177,152.91595593660406L94.75174628831176,155.14377488136793L95.07591224456176,153.74797267473096L95.40007820081178,159.5906266845345L95.72424415706178,147.25555677307673L96.04841011331176,133.063952413553L96.37257606956176,159.36645884899235L96.69674202581177,155.31684534901612L97.02090798206177,142.17686975641942L97.34507393831177,162.83502221794924L97.66923989456177,178.00095899372644L97.99340585081175,178.7909877170078L98.31757180706177,175.22456446487396L98.64173776331177,161.201498130547L98.96590371956177,143.32850375069205L99.29006967581176,156.194551806628L99.61423563206178,164.19637707317486L99.93840158831176,151.59056644321655L100.26256754456176,142.41920951601998L100.58673350081176,133.56594289043542L100.91089945706177,125.06409673444973L101.23506541331177,142.13177978423695L101.55923136956177,143.1339354250115L101.88339732581177,126.5176767931727L102.20756328206176,151.81501801030217L102.53172923831177,169.86825016279096L102.85589519456177,149.48463775906671L103.18006115081177,153.52307875250807L103.50422710706177,146.07765950980783L103.82839306331178,146.36568091236097L104.15255901956176,157.0385778681735L104.47672497581176,149.5411130452636L104.80089093206176,161.08994909356542L105.12505688831176,150.40440725044013L105.44922284456177,127.6513956733592L105.77338880081177,143.7210743467133L106.09755475706177,163.61552070183637L106.42172071331176,156.41579301484606L106.74588666956177,160.6310338133128L107.07005262581177,151.37117051004347L107.39421858206177,162.0884630073269L107.71838453831177,138.57250626336213L108.04255049456177,154.3610583275167L108.36671645081177,166.1948292324036L108.69088240706176,165.09856661043588L109.01504836331176,164.4071888573865L109.33921431956176,140.75393132598785L109.66338027581178,148.10469192397423L109.98754623206177,149.10039900430257L110.31171218831177,152.84845477032798L110.63587814456176,153.54959571584118L110.96004410081177,139.9402200668169L111.28421005706177,158.30361850964695L111.60837601331177,150.28107025201888L111.93254196956177,157.80233607032986L112.25670792581177,155.82418220034324L112.58087388206177,155.40494149918996L112.90503983831177,159.95352622222313L113.22920579456176,145.34182541895981L113.55337175081176,153.60205860753393L113.87753770706178,151.3834258786962L114.20170366331178,136.4877173297779L114.52586961956176,159.21391159827303L114.85003557581176,172.67457476938372L115.17420153206176,158.47419316406203L115.49836748831177,152.97745190877882L115.82253344456177,151.21254666797097L116.14669940081177,151.9140224811356L116.47086535706177,138.3376331943579L116.79503131331177,149.5813404688485L117.11919726956177,149.96501443961506L117.44336322581177,152.66336398358683L117.76752918206176,156.90173828880717L118.09169513831178,131.63972635543377L118.41586109456178,147.56817573962502L118.74002705081176,145.17608866826524L119.06419300706176,153.55344772093056L119.38835896331176,148.4869775186327L119.71252491956177,135.66829099939986L120.03669087581177,147.9466092248942L120.36085683206177,136.87099293251137L120.68502278831177,158.22870680632283L121.00918874456177,165.98702922267066L121.33335470081177,153.92778484842864L121.65752065706177,110.98721729265002L121.98168661331177,144.89426422532068L122.30585256956176,156.07352810876284L122.63001852581178,151.2848850514873L122.95418448206176,152.8927167287312L123.27835043831176,133.0006687115885L123.60251639456176,139.35906832475501L123.92668235081177,133.88051724790824L124.25084830706177,146.8834346294734L124.57501426331177,159.57362071835618L124.89918021956177,153.80010206084316L125.22334617581176,150.06146084483274L125.54751213206175,151.97923742253127L125.87167808831175,143.55134827523844L126.19584404456178,120.97713364224629L126.52001000081178,140.58119608274916L126.84417595706178,150.93538624811183L127.16834191331176,156.9377220520113L127.49250786956176,138.06398386679749L127.81667382581176,133.82022112977384L128.14083978206176,125.84357404281889L128.46500573831176,141.6631425124039L128.78917169456176,146.53632099515718L129.1133376508118,130.77583783539148L129.43750360706179,140.95346388964686L129.76166956331178,135.36555485907664L130.08583551956178,134.41469176488982L130.41000147581175,142.12631465709893L130.73416743206175,127.03326809729778L131.05833338831175,146.93171898778144L131.38249934456175,154.7639983314321L131.70666530081178,150.45754010841378L132.03083125706178,160.0127687535273L132.35499721331178,156.76522110835484L132.67916316956178,149.62859682623443L133.00332912581177,152.74766387165803L133.32749508206177,142.13964699703007L133.65166103831177,131.98022678988224L133.97582699456177,121.2089807748714L134.29999295081177,129.84547770738953L134.62415890706177,137.09191411902407L134.94832486331177,129.54281236923853L135.27249081956177,133.2087671611156L135.59665677581177,139.43319508123574L135.92082273206177,137.3855103978077L136.24498868831176,121.31971341982269L136.56915464456176,134.34927580074947L136.89332060081176,135.91012311970883L137.21748655706176,137.1654795416595L137.5416525133118,147.224607611616L137.8658184695618,133.1574025881831L138.1899844258118,151.3750045598929L138.51415038206176,150.9347178716976L138.83831633831176,132.80325997762353L139.16248229456176,140.106224644473L139.48664825081175,144.465092077315L139.81081420706175,135.63672277331628L140.13498016331175,142.8958773246134L140.45914611956178,129.49607638724746L140.78331207581178,136.76387230146182L141.10747803206178,139.4082951338479L141.43164398831178,103.87705659274279L141.75580994456178,129.83440960768158L142.07997590081177,132.09502150406345L142.40414185706177,125.49857408499922L142.72830781331174,130.91401397764983L143.05247376956174,131.26690106505635L143.37663972581177,110.36881233960227L143.70080568206177,129.26906138136994L144.02497163831177,128.3158344256645L144.34913759456177,118.38276500432472L144.67330355081177,109.15439604450229L144.99746950706177,116.45707073469397L145.32163546331176,107.89267666963669L145.64580141956176,117.34574746352015L145.96996737581176,110.87111100947783L146.2941333320618,133.12353673716768L146.6182992883118,133.7116032621029L146.94246524456176,125.15786332802321L147.26663120081176,136.91302143723564L147.59079715706176,150.05760742881077L147.91496311331176,126.44060846879762L148.23912906956176,112.03853858733093L148.56329502581175,116.7393513612029L148.88746098206175,121.15773664978171L149.21162693831178,111.5256554271638L149.53579289456178,107.93004341693754L149.85995885081178,130.75742336557917L150.18412480706178,102.78211067353307L150.50829076331178,124.99406363447251L150.83245671956178,123.71878641532457L151.15662267581175,128.67714542551136L151.48078863206175,115.4322967142283L151.80495458831177,114.49647455590781L152.12912054456177,103.7934336842193L152.45328650081177,125.61347736465726L152.77745245706177,135.81500284241991L153.10161841331177,134.91594549201858L153.42578436956177,128.93108536580527L153.74995032581177,127.57811342255636L154.07411628206177,117.57872370641886L154.39828223831177,118.38014692573446L154.7224481945618,119.66279986111314L155.0466141508118,134.25269091246105L155.37078010706176,135.3063742127998L155.69494606331176,127.2687295111335L156.01911201956176,127.26704143860623L156.34327797581176,135.42629756471146L156.66744393206176,119.75677932194769L156.99160988831176,120.13146741008238L157.31577584456176,124.5815493628625L157.63994180081178,123.52680991031885L157.96410775706178,115.9795165935956L158.28827371331178,103.52818441287971L158.61243966956178,117.68280520474899L158.93660562581178,125.78585378497247L159.26077158206178,124.08966101316621L159.58493753831175,121.36614682839772L159.90910349456175,127.5838275838606L160.23326945081175,131.7023806216351L160.55743540706177,126.7346220416824L160.88160136331177,98.10881550337027L161.20576731956177,120.57368188326494L161.52993327581177,125.10482313798984L161.85409923206177,128.32157201905363L162.17826518831177,125.9529172518428L162.50243114456177,115.46282640193627L162.82659710081177,115.46749227111867L163.15076305706177,129.752981135769L163.47492901331177,128.51369508762286L163.79909496956176,123.27722191098815L164.12326092581176,121.94637944191673L164.44742688206176,124.4218160824795L164.77159283831176,108.68450663783801L165.09575879456176,114.38187777440265L165.41992475081176,108.5931160000389L165.74409070706176,104.90139366665899L166.06825666331176,121.87550353337923L166.39242261956178,101.1539134257638L166.71658857581178,110.12511342635912L167.04075453206178,115.25494069836668L167.36492048831178,97.40039246223927L167.68908644456175,97.54286833579297L168.01325240081175,91.41556758314883L168.33741835706175,115.72157805983883L168.66158431331175,122.95624796908496L168.98575026956178,117.25010234094508L169.30991622581178,116.78966422816498L169.63408218206177,126.41409950424566L169.95824813831177,130.39980684543693L170.28241409456177,118.56214088700415L170.60658005081177,125.48551570439193L170.93074600706177,117.18294543492114L171.25491196331177,103.60026072637699L171.57907791956177,72.6944231238632L171.90324387581177,95.89975369091654L172.22740983206177,92.85151049521396L172.55157578831177,94.00559494086505L172.87574174456176,108.07814130838617L173.19990770081176,115.13883741186635L173.52407365706176,95.19573923469756L173.84823961331176,91.73779030524297L174.17240556956176,112.74526791412589L174.49657152581176,110.2144239853146L174.8207374820618,98.26534743677541L175.1449034383118,90.00835294177318L175.46906939456179,107.45782145283636L175.79323535081178,110.35082543472242L176.11740130706175,115.76466012473963L176.44156726331175,103.00363207709293L176.76573321956175,104.05199483570613L177.08989917581175,107.34474999577132L177.41406513206175,98.33604999661074L177.73823108831178,109.70291188430743L178.06239704456178,104.94008624751554L178.38656300081178,97.78789890254771L178.71072895706178,98.7117507738203L179.03489491331177,118.686713216672L179.35906086956177,121.96143906436279L179.68322682581177,111.20125616060322L180.00739278206177,117.82640034652132L180.33155873831174,112.16660340987835L180.65572469456177,118.60986694013063L180.97989065081177,125.64381034422293L181.30405660706177,125.6422682064262L181.62822256331177,119.92745551341363L181.95238851956177,100.44034095010271L182.27655447581176,101.44350135151844L182.60072043206176,98.31527652865076L182.92488638831176,115.10633916351992L183.24905234456176,99.92919573698218L183.5732183008118,113.36194526379971L183.8973842570618,115.61253093817619L184.2215502133118,106.49434803795403L184.54571616956176,119.20785330783764L184.86988212581176,123.1431844493841L185.19404808206176,115.40015714245538L185.51821403831175,112.47140824585856L185.84237999456175,102.25750295567238L186.16654595081175,106.30600799794924L186.49071190706178,106.26446164716445L186.81487786331178,91.01765966163916L187.13904381956178,94.76335678589416L187.46320977581178,83.23068598871907L187.78737573206178,104.59078402669033L188.11154168831177,97.50789751672735L188.43570764456177,97.48558196486783L188.75987360081174,95.70809972962581L189.08403955706177,96.2133785099895L189.40820551331177,98.96370715872013L189.73237146956177,94.5691530701407L190.05653742581177,115.64923886809864L190.38070338206177,115.94864550968813L190.70486933831177,112.22875501557482L191.02903529456177,85.12962886819592L191.35320125081176,104.5687433317426L191.67736720706176,109.34971855981505L192.0015331633118,94.51313276318633L192.3256991195618,88.88783630640697L192.64986507581176,94.13492754436852L192.97403103206176,91.71381442163718L193.29819698831176,99.6924746895906L193.62236294456176,98.70269480456058L193.94652890081176,118.00061652279123L194.27069485706176,107.46724764995663L194.59486081331175,89.51902646728398L194.91902676956178,111.52245967865665L195.24319272581178,119.61506503684696L195.56735868206178,101.60549010437106L195.89152463831178,102.06670655047829L196.21569059456178,107.2879148640321L196.53985655081178,108.70628526379625L196.86402250706175,106.0783822333673L197.18818846331175,99.56525124150838L197.51235441956175,100.23748786230334L197.83652037581177,92.47565677815726L198.16068633206177,80.30979684160405L198.48485228831177,102.45929037311203L198.80901824456177,117.33390174038064L199.13318420081177,115.65299006251529L199.45735015706177,85.46582284298641L199.78151611331177,77.07806892527758L200.10568206956177,74.8703903554311L200.42984802581176,73.47341909883345L200.7540139820618,95.52250603830731L201.07817993831176,94.99122187672833L201.40234589456176,93.99717562394919L201.72651185081176,108.59486700175351L202.05067780706176,96.67304030225301L202.37484376331176,107.21458213778442L202.69900971956176,105.81212142501171L203.02317567581176,106.93617890404964L203.34734163206176,94.2332909992207L203.67150758831178,98.90256222322078L203.99567354456178,87.75661595719636L204.31983950081178,84.50273834510227L204.64400545706178,89.30038504488715L204.96817141331178,96.92872136396899L205.29233736956175,106.77663366788369L205.61650332581175,101.85181352815535L205.94066928206175,95.4708043494014L206.26483523831175,106.94484492270975L206.58900119456177,104.44830549452048L206.91316715081177,104.71567742376384L207.23733310706177,116.1413650519827L207.56149906331177,111.88436910179996L207.88566501956177,94.93962522471047L208.20983097581177,107.37946671834224L208.53399693206177,123.73244392788398L208.85816288831177,112.17214770926016L209.1823288445618,111.50523288501094L209.50649480081177,108.52160766308485L209.83066075706176,124.75919134083863L210.15482671331176,114.40222290057554L210.47899266956176,110.41265212428362L210.80315862581176,117.19820726845789L211.12732458206176,97.41101430880077L211.45149053831176,112.15484816623413L211.77565649456176,101.34588629746108L212.09982245081179,89.51485664347463L212.42398840706178,106.79650373886999L212.74815436331178,95.9623780395077L213.07232031956178,110.98424902597866L213.39648627581178,114.06881919431378L213.72065223206175,106.9591957485225L214.04481818831175,93.88275435102159L214.36898414456175,105.81551172522029L214.69315010081175,111.54967491666318L215.01731605706178,98.28517204480904L215.34148201331178,92.36441227667807L215.66564796956177,97.3670620518739L215.98981392581177,90.65729107172922L216.31397988206177,99.5911730848355L216.63814583831177,83.56911732145828L216.96231179456177,90.22154874856727L217.28647775081177,93.25744103548868L217.61064370706177,81.285800617745L217.93480966331177,63.439727649932756L218.25897561956177,98.43513232152496L218.58314157581177,100.309055359187L218.90730753206176,98.9014724473623L219.23147348831176,100.28672813516972L219.55563944456176,108.70667885179093L219.87980540081176,89.06882831771993L220.20397135706176,78.61477410594563L220.52813731331176,109.8551858115448L220.8523032695618,100.73994612509605L221.1764692258118,88.99802471908906L221.50063518206179,87.33971214898104L221.82480113831176,106.13383596426583L222.14896709456175,110.62847964183166L222.47313305081175,98.96632426781159L222.79729900706175,97.64573416136369L223.12146496331175,83.99762630420692L223.44563091956175,103.08350319810955L223.76979687581178,98.17709292658552L224.09396283206178,112.06010834609297L224.41812878831178,106.95286748972535L224.74229474456178,107.45552411106236L225.06646070081177,104.83330470862677" fill="none"></path></g></g></g></g><g opacity="0.2"><g><g><g><path style="fill: none;" stroke="rgb(0, 153, 136)" stroke-width="2px" d="M24.731899738311768,-32.12614388765216L25.05606569456177,39.96053018024261L25.380231650811766,-46.29134245438704L25.704397607061768,112.26725661784354L26.028563563311767,-140.77814438987622L26.67689547581177,-112.89823731303923L27.001061432061768,156.22113860325314L27.325227388311767,46.484132878143136L27.64939334456177,-86.5532926493247L28.621891213311766,-31.250828885356118L28.946057169561765,62.64548843684476L29.270223125811768,26.36282317050918L29.594389082061767,-40.14788887457948L30.24272099456177,-47.69072340566232L30.566886950811767,52.73089904105772L30.89105290706177,89.71953591349889L31.21521886331177,131.67082875475762L31.539384819561764,75.87337072217247L31.86355077581177,59.37634880541333L32.187716732061766,9.337582207576173L32.51188268831177,-20.539263570224286L32.836048644561764,5.482011523010929L33.16021460081177,-86.96063597326341L33.48438055706177,29.66938872905684L33.80854651331177,-96.66072991203698L34.456878425811766,-50.886706744856454L34.78104438206177,16.704956962963685L35.105210338311764,60.91770389913504L35.42937629456177,10.976936665845077L35.75354225081177,66.63782987927203L36.07770820706177,-15.723599783604095L36.40187416331177,76.7735150675315L36.72604011956177,-16.830465399905613L37.69853798831177,-74.40985955238249L38.02270394456176,142.58096703278218L38.34686990081177,172.91345905751353L38.67103585706177,94.48729149297598L38.995201813311766,33.78894537348671L39.319367769561765,101.03346507282042L39.64353372581177,117.30729062232768L39.96769968206177,117.72111758312649L40.29186563831177,97.01750932568297L40.61603159456177,109.88451835559974L40.94019755081177,93.80027997687314L41.264363507061766,74.97096105107087L41.588529463311765,121.60278756609523L41.91269541956177,114.10263726370071L42.23686137581176,92.68344692730444L42.56102733206177,100.34206019770174L42.88519328831177,128.06080565143736L43.20935924456177,-58.81642458964874L43.533525200811766,140.7008290419511L43.857691157061765,142.90945299469817L44.18185711331177,78.09031459855582L44.50602306956176,104.65915324688156L44.83018902581177,119.8946495807345L45.15435498206177,152.533792381254L45.47852093831177,51.4661196266304L45.80268689456177,78.66478747761839L46.12685285081177,-6.447804788720977L46.451018807061764,139.52788456020187L46.77518476331177,150.05634977372486L47.09935071956177,131.00874955106968L47.42351667581176,100.42473772268119L47.74768263206177,63.50735564177824L48.07184858831177,93.86681190746935L48.396014544561766,152.5041646663909L48.720180500811765,149.86674887369728L49.04434645706177,68.52613677202322L49.36851241331177,168.3482922456546L49.69267836956177,149.99728655345558L50.01684432581177,48.042567155038945L50.341010282061774,49.52874440537101L50.665176238311766,62.15083739940132L50.989342194561765,162.07062154791294L51.31350815081177,186.51647928580672L51.63767410706176,166.34733688188774L51.96184006331177,127.17079349030858L52.28600601956177,118.0392516928614L52.61017197581177,37.64155054071625L52.934337932061766,95.1391286784582L53.25850388831177,51.07933928227291L53.58266984456177,176.19252493447135L53.90683580081176,90.29620547206939L54.23100175706177,49.73398291764562L54.55516771331177,171.16740089214727L54.87933366956177,143.40549068608098L55.203499625811766,103.70969344656964L55.52766558206177,146.27193777596938L55.851831538311764,92.60086550705347L56.17599749456177,54.29799647276288L56.50016345081177,176.72845981741682L56.82432940706177,156.26974013736591L57.14849536331177,163.75591406639128L57.472661319561766,161.5289752982469L57.796827275811765,167.74722581529923L58.120993232061764,125.81755653794664L58.44515918831177,96.08449716318663L58.76932514456177,97.75247710129315L59.09349110081177,177.6572159133666L59.41765705706177,166.44022896657904L59.74182301331177,111.08755734660748L60.065988969561765,171.4454456008626L60.39015492581177,173.2792336540765L60.71432088206177,110.2183038068286L61.03848683831176,127.34240907686507L61.36265279456177,68.90634080710387L61.68681875081177,177.738987308049L62.01098470706176,192.5701710492218L62.33515066331177,166.3293790269105L62.65931661956177,105.62415455471204L62.98348257581176,183.48742299534433L63.30764853206176,183.65206412446318L63.631814488311775,148.286210509253L63.955980444561774,107.85636535367544L64.28014640081177,99.53526100218248L64.60431235706176,184.29261586897346L64.92847831331176,79.7771997096774L65.25264426956177,111.76887122523667L65.57681022581177,173.0518224080188L65.90097618206177,197.18901921655558L66.22514213831177,128.73559813777737L66.54930809456178,108.2192156206435L66.87347405081177,131.12901775412845L67.19764000706176,140.51114576644196L67.52180596331176,180.65030157688673L67.84597191956176,113.66308169416537L68.17013787581178,86.19842341326179L68.49430383206177,183.5528016691989L68.81846978831176,186.2589735304905L69.14263574456176,110.7467562502002L69.46680170081177,141.066438887551L69.79096765706177,172.32123426217754L70.11513361331177,172.40421383058933L70.43929956956177,172.1703498384771L70.76346552581177,193.2815107908749L71.08763148206177,159.68953079530007L71.41179743831177,112.78581027418257L71.73596339456176,161.33369048999256L72.06012935081176,152.13696222814775L72.38429530706178,113.24994119571281L72.70846126331178,195.12188888261258L73.03262721956176,175.86659261248334L73.35679317581176,139.39331048184775L73.68095913206177,146.99879156664718L74.00512508831177,122.1724414794873L74.32929104456177,88.9600339736346L74.65345700081177,180.92247016791836L74.97762295706175,147.4591606745201L75.30178891331177,135.89435698614685L75.62595486956177,182.48219499402504L75.95012082581177,118.36334429576155L76.27428678206176,139.03245095568374L76.59845273831178,136.8384074631705L76.92261869456178,177.8695249878073L77.24678465081176,168.76524947475218L77.57095060706176,152.82474258207836L77.89511656331176,159.00309590756808L78.21928251956177,140.17063298422008L78.54344847581177,153.30098269939603L78.86761443206177,120.95641462088898L79.19178038831176,120.19007551605627L79.51594634456177,108.95743722777479L79.84011230081177,139.82745672809483L80.16427825706177,145.36344604848023L80.48844421331177,147.52679094487027L80.81261016956178,144.0790475401978L81.13677612581178,149.36678461769404L81.46094208206176,146.47732730996017L81.78510803831176,173.8488326504809L82.10927399456176,104.9225900368692L82.43343995081177,149.2389653288268L82.75760590706177,141.96359025708048L83.08177186331177,149.53098641091128L83.40593781956176,151.14104265624326L83.73010377581177,136.52598472015617L84.05426973206177,207.5310687153375L84.37843568831177,179.66712274612817L84.70260164456177,160.99847719708356L85.02676760081177,171.29686769064546L85.35093355706177,149.39767542327422L85.67509951331176,151.39511609982839L85.99926546956176,190.0654621573006L86.32343142581176,157.162607981855L86.64759738206178,136.86037425824972L86.97176333831177,120.853280517992L87.29592929456177,157.6092753012972L87.62009525081176,143.16533869887732L87.94426120706176,173.5235593323452L88.26842716331177,151.8880235229124L88.59259311956177,133.30875537134636L88.91675907581177,172.48554588937017L89.24092503206177,158.54885004382348L89.56509098831177,131.7705030874296L89.88925694456177,195.36761494406758L90.21342290081176,159.95736094430356L90.53758885706176,127.22510639114199L90.86175481331178,90.40402124816761L91.18592076956178,183.07985657114313L91.51008672581177,119.98130858732205L91.83425268206176,177.31706009156474L92.15841863831176,134.38122922410196L92.48258459456177,188.17118304213727L92.80675055081177,141.1880800153022L93.13091650706177,135.13834227500138L93.45508246331177,111.33395614116179L93.77924841956177,150.20803049374695L94.10341437581177,139.5493571023918L94.42758033206177,172.96906250755782L94.75174628831176,158.48550329851375L95.07591224456176,151.65426936477556L95.40007820081178,168.3546076992399L95.72424415706178,128.75295190588997L96.04841011331176,111.77654587426746L96.37257606956176,198.82021850215133L96.69674202581177,149.2424250990518L97.02090798206177,122.46690636752435L97.34507393831177,193.82225091024392L97.99340585081175,179.97603080192982L98.31757180706177,169.87492958667323L98.64173776331177,140.16689862905662L98.96590371956177,116.51901218090961L99.29006967581176,175.4936238905319L99.61423563206178,176.19911497299512L99.93840158831176,132.68185049827906L100.26256754456176,128.66217412522505L100.58673350081176,120.28604295205864L100.91089945706177,112.31132750047125L101.23506541331177,167.73330435891776L101.55923136956177,144.63716888617327L101.88339732581177,101.59328884541453L102.20756328206176,189.76102983599637L102.53172923831177,196.94809839152418L102.85589519456177,118.90921915348036L103.18006115081177,159.5807402426702L103.50422710706177,134.90953064575737L103.82839306331178,146.7977130161907L104.15255901956176,173.04792330189224L104.47672497581176,138.2949158108987L104.80089093206176,178.41320316601818L105.12505688831176,134.37609448575216L105.44922284456177,93.5218783077378L105.77338880081177,167.82559235674438L106.09755475706177,193.45719023452102L106.42172071331176,145.6162014843606L106.74588666956177,166.95389501101295L107.07005262581177,137.4813755551395L107.39421858206177,178.1644017532521L107.71838453831177,103.29857114741498L108.04255049456177,178.0438864237487L108.36671645081177,183.94548558973395L108.69088240706176,163.45417267748425L109.01504836331176,163.37012222781235L109.33921431956176,105.27404502888992L109.66338027581178,159.13083282095377L109.98754623206177,150.5939596247951L110.31171218831177,158.47053841936605L110.63587814456176,154.6013071341109L110.96004410081177,119.52615659328046L111.28421005706177,185.84871617389206L111.60837601331177,138.24724786557675L111.93254196956177,169.08423479779643L112.25670792581177,152.85695139536327L112.58087388206177,154.77608044746L112.90503983831177,166.77640330677278L113.22920579456176,123.42427421406478L113.55337175081176,165.99240839039516L113.87753770706178,148.05547678543957L114.20170366331178,114.14415450640045L114.52586961956176,193.30320300101562L114.85003557581176,192.86556952604974L115.17420153206176,137.17362075607952L115.49836748831177,144.732340025854L115.82253344456177,148.56518880675918L116.14669940081177,152.96623620088243L116.47086535706177,117.97304926419137L116.79503131331177,166.44690138058436L117.11919726956177,150.5405253957649L117.44336322581177,156.7108882995445L117.76752918206176,163.25929974663765L118.09169513831178,93.74670845537368L118.41586109456178,171.4608498159119L118.74002705081176,141.5879580612257L119.06419300706176,166.11948629992847L119.38835896331176,140.88727221518602L119.71252491956177,116.44026122055058L120.03669087581177,166.3640865631357L120.36085683206177,120.25756849393719L120.68502278831177,190.26527761704L121.00918874456177,177.6245128471924L121.33335470081177,135.83891828706564L121.65752065706177,46.57636595898205L121.98168661331177,195.7548346243267L122.30585256956176,172.84242393392609L122.63001852581178,144.10192046557404L122.95418448206176,155.30446424459697L123.27835043831176,103.16259668587456L123.60251639456176,148.89666774450473L123.92668235081177,125.66269063263809L124.25084830706177,166.38781070182125L124.57501426331177,178.60889985168026L124.89918021956177,145.13982407457368L125.22334617581176,144.45349902081708L125.54751213206175,154.85590228907915L125.87167808831175,130.90951455429928L126.19584404456178,87.11581169275804L126.52001000081178,169.98728974350348L126.84417595706178,166.46667149615567L127.16834191331176,165.94122575786054L127.49250786956176,109.75337658897675L127.81667382581176,127.45457702423836L128.14083978206176,113.87860341238644L128.46500573831176,165.39249521678144L128.78917169456176,153.84608871928705L129.1133376508118,107.13511309574284L129.43750360706179,156.21990297102994L129.76166956331178,126.98369131322127L130.08583551956178,132.98839712360967L130.41000147581175,153.69374899541262L130.73416743206175,104.39369825759601L131.05833338831175,176.77939532350678L131.38249934456175,166.51241734690814L131.70666530081178,143.9978527738862L132.03083125706178,174.34561172119763L132.35499721331178,151.8938996405961L132.67916316956178,138.92366040305387L133.00332912581177,157.4262644397934L133.32749508206177,126.22762168508811L133.65166103831177,116.7410964791606L133.97582699456177,105.05211175235509L134.29999295081177,142.8002231061667L134.62415890706177,147.96156873647587L134.94832486331177,118.21915974456027L135.27249081956177,138.70769934893121L135.59665677581177,148.76983696141605L135.92082273206177,134.31398337266566L136.24498868831176,97.22101795284509L136.56915464456176,153.89361937213974L136.89332060081176,138.25139409814795L137.21748655706176,139.04851417458542L137.5416525133118,162.31329971655072L137.8658184695618,112.05659505303376L138.1899844258118,178.70140751745768L138.51415038206176,150.27428783940465L138.83831633831176,105.60607313651244L139.16248229456176,151.06067164474715L139.48664825081175,151.00339322657805L139.81081420706175,122.39416881731825L140.13498016331175,153.78460915155907L140.45914611956178,109.39637498119853L140.78331207581178,147.66556617278326L141.10747803206178,143.374929382427L141.43164398831178,50.58019878108517L141.75580994456178,168.77043913008967L142.07997590081177,135.4859393486363L142.40414185706177,115.60390295640283L142.72830781331174,139.0371738166258L143.05247376956174,131.79623169616616L143.37663972581177,79.0216792514212L143.70080568206177,157.61943494402138L144.02497163831177,126.8859939921064L144.34913759456177,103.48316087231511L144.67330355081177,95.31184260476864L144.99746950706177,127.41108276998149L145.32163546331176,95.04608557205076L145.64580141956176,131.52535365434542L145.96996737581176,101.15915632841438L146.2941333320618,166.50217532870246L146.6182992883118,134.5937030495058L146.94246524456176,112.3272534269037L147.26663120081176,154.5457586010543L147.59079715706176,169.77448641617343L147.91496311331176,91.01511002877788L148.23912906956176,90.43543376513092L148.56329502581175,123.79057052201091L148.88746098206175,127.78531458264997L149.21162693831178,97.07753359323696L149.53579289456178,102.53662540159812L149.85995885081178,164.99849328854165L150.18412480706178,60.819141635463936L150.50829076331178,158.3119930758817L150.83245671956178,121.80587058660271L151.15662267581175,136.1146839407915L151.48078863206175,95.56502364730366L151.80495458831177,113.09274131842707L152.12912054456177,87.73887237668649L152.45328650081177,158.34354288531426L152.77745245706177,151.11729105906386L153.10161841331177,133.56735946641658L153.42578436956177,119.95379517648531L153.74995032581177,125.54865550768302L154.07411628206177,102.57963913221263L154.39828223831177,119.58228175470788L154.7224481945618,121.58677926418125L155.0466141508118,156.13752748948284L155.37078010706176,136.88689916330787L155.69494606331176,115.21226245863404L156.01911201956176,127.26450932981535L156.34327797581176,147.6651817538694L156.66744393206176,96.25250195780194L156.99160988831176,120.69349954228446L157.31577584456176,131.25667229203262L157.63994180081178,121.94470073150342L157.96410775706178,104.65857661851072L158.28827371331178,84.85118614180585L158.61243966956178,138.91473639255292L158.93660562581178,137.94042665530765L159.26077158206178,121.54537185545689L159.58493753831175,117.2808755512449L159.90910349456175,136.91034871705497L160.23326945081175,137.88021017829672L160.55743540706177,119.28298417175341L160.88160136331177,55.170105695902066L161.20576731956177,154.270981453107L161.52993327581177,131.90153502007718L161.85409923206177,133.14669534064936L162.17826518831177,122.39993510102654L162.50243114456177,99.72769012707651L162.82659710081177,115.47449107489234L163.15076305706177,151.1812144327444L163.47492901331177,126.6547660154037L163.79909496956176,115.42251214603611L164.12326092581176,119.95011573830956L164.44742688206176,128.1349710433236L164.77159283831176,85.07854247087586L165.09575879456176,122.92793447924964L165.41992475081176,99.90997333849333L165.74409070706176,99.3638101665891L166.06825666331176,147.33666833345956L166.39242261956178,70.07152826434073L166.71658857581178,123.58191342725209L167.04075453206178,122.94968160637808L167.36492048831178,70.61857010804812L167.68908644456175,97.75658214612358L168.01325240081175,82.22461645418261L168.33741835706175,152.18059377487387L168.66158431331175,133.80825283295414L168.98575026956178,108.69088389873528L169.30991622581178,116.09900705899477L169.63408218206177,140.85075241836682L169.95824813831177,136.37836785722376L170.28241409456177,100.80564194935499L170.60658005081177,135.8705779304736L170.93074600706177,104.72909003071504L171.25491196331177,83.22623366356076L171.57907791956177,26.335666720092497L171.90324387581177,130.70774954149655L172.22740983206177,88.27914570166008L172.55157578831177,95.73672160934167L172.87574174456176,129.1869608596678L173.19990770081176,125.72988156708665L173.52407365706176,65.28109196894434L173.84823961331176,86.55086691106108L174.17240556956176,144.25648432745027L174.49657152581176,106.41815809209763L174.8207374820618,80.34173261396661L175.1449034383118,77.62286119926985L175.46906939456179,133.63202421943106L175.79323535081178,114.6903314075516L176.11740130706175,123.88541215976547L176.44156726331175,83.86209000562285L176.76573321956175,105.6245389736259L177.08989917581175,112.28388273586916L177.41406513206175,84.82299999786981L177.73823108831178,126.75320471585248L178.06239704456178,97.7958477923277L178.38656300081178,87.05961788509599L178.71072895706178,100.09752858072916L179.03489491331177,148.64915688094953L179.35906086956177,126.87352783589895L179.68322682581177,95.06098180496387L180.00739278206177,127.76411662539853L180.33155873831174,103.6769080049139L180.65572469456177,128.27476223550903L180.97989065081177,136.19472545036143L181.30405660706177,125.63995499973109L181.62822256331177,111.35523647389479L181.95238851956177,71.20966910513627L182.27655447581176,102.94824195364207L182.60072043206176,93.62293929434915L182.92488638831176,140.29293311582367L183.24905234456176,77.1634805971755L183.5732183008118,133.51106955402605L183.8973842570618,118.98840944974097L184.2215502133118,92.81707368762078L184.54571616956176,138.27811121266308L184.86988212581176,129.0461811617038L185.19404808206176,103.78561618206223L185.51821403831175,108.07828490096334L185.84237999456175,86.93664502039309L186.16654595081175,112.37876556136449L186.49071190706178,106.20214212098728L186.81487786331178,68.14745668335118L187.13904381956178,100.38190247227669L187.46320977581178,65.93167979295643L187.78737573206178,136.6309310836472L188.11154168831177,86.88356775178292L188.43570764456177,97.45210863707855L188.75987360081174,93.04187637676281L189.08403955706177,96.97129668053503L189.40820551331177,103.08920013181609L189.73237146956177,87.9773219372715L190.05653742581177,147.26936756503557L190.38070338206177,116.39775547207228L190.70486933831177,106.6489192744049L191.02903529456177,44.480939647127606L191.35320125081176,133.7274150270626L191.67736720706176,116.52118140192367L192.0015331633118,72.25825406824322L192.3256991195618,80.44989162123795L192.64986507581176,102.00556440131088L192.97403103206176,88.08214473754018L193.29819698831176,111.66046509152068L193.62236294456176,97.21802497701555L193.94652890081176,146.94749910013718L194.27069485706176,91.66719434070475L194.59486081331175,62.59669469327501L194.91902676956178,144.5276094957156L195.24319272581178,131.7539730741325L195.56735868206178,74.59112770565719L195.89152463831178,102.75853121963908L196.21569059456178,115.1197273343628L196.53985655081178,110.8338408634424L196.86402250706175,102.13652768772384L197.18818846331175,89.79555475371993L197.51235441956175,101.24584279349578L197.83652037581177,80.83291015193815L198.16068633206177,62.0610069367742L198.48485228831177,135.68353067037395L198.80901824456177,139.64581879128346L199.13318420081177,113.1316225457173L199.45735015706177,40.1850720136931L199.78151611331177,64.49643804871431L200.10568206956177,71.55887250066138L200.42984802581176,71.37796221393701L200.7540139820618,128.59613644751812L201.07817993831176,94.19429563435986L201.40234589456176,92.50610624478045L201.72651185081176,130.49140406846004L202.05067780706176,78.79030025300233L202.37484376331176,123.02689489108155L202.69900971956176,103.7084303558526L203.02317567581176,108.62226512260655L203.34734163206176,75.17895914197732L203.67150758831178,105.90646905922087L203.99567354456178,71.03769655815978L204.31983950081178,79.62192192696111L204.64400545706178,96.4968550945645L204.96817141331178,108.37122584259174L205.29233736956175,121.54850212375568L205.61650332581175,94.46458331856284L205.94066928206175,85.89929058127042L206.26483523831175,124.1559057826723L206.58900119456177,100.70349635223658L206.91316715081177,105.11673531762878L207.23733310706177,133.27989649431103L207.56149906331177,105.4988751765258L207.88566501956177,69.5225094090762L208.20983097581177,126.03922895878989L208.53399693206177,148.26190974219662L208.85816288831177,94.83170338132442L209.1823288445618,110.50486064863713L209.50649480081177,104.04616983019572L209.83066075706176,149.11556685746925L210.15482671331176,98.86677024018081L210.47899266956176,104.4282959598458L210.80315862581176,127.37653998471941L211.12732458206176,67.73022486931511L211.45149053831176,134.2705989523842L211.77565649456176,85.1324434943015L212.09982245081179,71.7683121624949L212.42398840706178,132.71897438196297L212.74815436331178,79.7111894904643L213.07232031956178,133.51705550568514L213.39648627581178,118.6956744468164L213.72065223206175,96.29476057983561L214.04481818831175,74.26809225477022L214.36898414456175,123.71464778651831L214.69315010081175,120.15091970382753L215.01731605706178,78.38841773702785L215.34148201331178,83.48327262448159L215.66564796956177,104.87103671466764L215.98981392581177,80.59263460151217L216.31397988206177,112.99199610449496L216.63814583831177,59.536033676392385L216.96231179456177,100.2001958892307L217.28647775081177,97.81127946587085L217.61064370706177,63.328339991129475L217.93480966331177,36.67061819821441L218.25897561956177,150.92823932891326L218.58314157581177,103.11993991568009L218.90730753206176,96.79009807962525L219.23147348831176,102.36461166688083L219.55563944456176,121.3366049267227L219.87980540081176,59.61205251661345L220.20397135706176,62.93369278828421L220.52813731331176,156.7158033699435L220.8523032695618,87.06708659542294L221.1764692258118,71.38514261007853L221.50063518206179,84.85224329381903L221.82480113831176,134.32502168719296L222.14896709456175,117.37044515818047L222.47313305081175,81.47309120678146L222.79729900706175,95.66484900169182L223.12146496331175,63.52546451847169L223.44563091956175,131.7123185389635L223.76979687581178,90.81747751929946L224.09396283206178,132.88463147535418L224.41812878831178,99.29200620517388L224.74229474456178,108.20950904306787L225.06646070081177,100.89997560497333" fill="none"></path></g></g></g></g></g></g><g transform="translate(82, 176)" clip-path="url(#clip_1)"><clipPath id="clip_1"><rect width="247" height="23"></rect></clipPath><g><g><line x1="0" y1="0" x2="0" y2="5" style="visibility: inherit;" fill="rgb(0, 0, 0)" stroke="rgb(204, 204, 204)" stroke-width="1px"></line><line x1="24.731899738311768" y1="0" x2="24.731899738311768" y2="5" style="visibility: inherit;" fill="rgb(0, 0, 0)" stroke="rgb(204, 204, 204)" stroke-width="1px"></line><line x1="49.463799476623535" y1="0" x2="49.463799476623535" y2="5" style="visibility: inherit;" fill="rgb(0, 0, 0)" stroke="rgb(204, 204, 204)" stroke-width="1px"></line><line x1="74.1956992149353" y1="0" x2="74.1956992149353" y2="5" style="visibility: inherit;" fill="rgb(0, 0, 0)" stroke="rgb(204, 204, 204)" stroke-width="1px"></line><line x1="98.92759895324707" y1="0" x2="98.92759895324707" y2="5" style="visibility: inherit;" fill="rgb(0, 0, 0)" stroke="rgb(204, 204, 204)" stroke-width="1px"></line><line x1="123.65949869155884" y1="0" x2="123.65949869155884" y2="5" style="visibility: inherit;" fill="rgb(0, 0, 0)" stroke="rgb(204, 204, 204)" stroke-width="1px"></line><line x1="148.3913984298706" y1="0" x2="148.3913984298706" y2="5" style="visibility: inherit;" fill="rgb(0, 0, 0)" stroke="rgb(204, 204, 204)" stroke-width="1px"></line><line x1="173.12329816818237" y1="0" x2="173.12329816818237" y2="5" style="visibility: inherit;" fill="rgb(0, 0, 0)" stroke="rgb(204, 204, 204)" stroke-width="1px"></line><line x1="197.85519790649414" y1="0" x2="197.85519790649414" y2="5" style="visibility: inherit;" fill="rgb(0, 0, 0)" stroke="rgb(204, 204, 204)" stroke-width="1px"></line><line x1="222.5870976448059" y1="0" x2="222.5870976448059" y2="5" style="visibility: inherit;" fill="rgb(0, 0, 0)" stroke="rgb(204, 204, 204)" stroke-width="1px"></line><line x1="247.31899738311768" y1="0" x2="247.31899738311768" y2="5" style="visibility: inherit;" fill="rgb(0, 0, 0)" stroke="rgb(204, 204, 204)" stroke-width="1px"></line></g><g transform="translate(0, 8)"><text style="text-anchor: middle; visibility: hidden; font-family: Roboto, sans-serif; font-size: 12px; font-weight: 200;" x="0" y="0" dx="0em" dy="0.95em" fill="rgb(33, 33, 33)" stroke="none" stroke-width="1px">-10M</text><text style="text-anchor: middle; visibility: inherit; font-family: Roboto, sans-serif; font-size: 12px; font-weight: 200;" x="24.731899738311768" y="0" dx="0em" dy="0.95em" fill="rgb(33, 33, 33)" stroke="none" stroke-width="1px">0</text><text style="text-anchor: middle; visibility: hidden; font-family: Roboto, sans-serif; font-size: 12px; font-weight: 200;" x="49.463799476623535" y="0" dx="0em" dy="0.95em" fill="rgb(33, 33, 33)" stroke="none" stroke-width="1px">10M</text><text style="text-anchor: middle; visibility: inherit; font-family: Roboto, sans-serif; font-size: 12px; font-weight: 200;" x="74.1956992149353" y="0" dx="0em" dy="0.95em" fill="rgb(33, 33, 33)" stroke="none" stroke-width="1px">20M</text><text style="text-anchor: middle; visibility: hidden; font-family: Roboto, sans-serif; font-size: 12px; font-weight: 200;" x="98.92759895324707" y="0" dx="0em" dy="0.95em" fill="rgb(33, 33, 33)" stroke="none" stroke-width="1px">30M</text><text style="text-anchor: middle; visibility: inherit; font-family: Roboto, sans-serif; font-size: 12px; font-weight: 200;" x="123.65949869155884" y="0" dx="0em" dy="0.95em" fill="rgb(33, 33, 33)" stroke="none" stroke-width="1px">40M</text><text style="text-anchor: middle; visibility: hidden; font-family: Roboto, sans-serif; font-size: 12px; font-weight: 200;" x="148.3913984298706" y="0" dx="0em" dy="0.95em" fill="rgb(33, 33, 33)" stroke="none" stroke-width="1px">50M</text><text style="text-anchor: middle; visibility: inherit; font-family: Roboto, sans-serif; font-size: 12px; font-weight: 200;" x="173.12329816818237" y="0" dx="0em" dy="0.95em" fill="rgb(33, 33, 33)" stroke="none" stroke-width="1px">60M</text><text style="text-anchor: middle; visibility: hidden; font-family: Roboto, sans-serif; font-size: 12px; font-weight: 200;" x="197.85519790649414" y="0" dx="0em" dy="0.95em" fill="rgb(33, 33, 33)" stroke="none" stroke-width="1px">70M</text><text style="text-anchor: middle; visibility: inherit; font-family: Roboto, sans-serif; font-size: 12px; font-weight: 200;" x="222.5870976448059" y="0" dx="0em" dy="0.95em" fill="rgb(33, 33, 33)" stroke="none" stroke-width="1px">80M</text><text style="text-anchor: middle; visibility: hidden; font-family: Roboto, sans-serif; font-size: 12px; font-weight: 200;" x="247.31899738311768" y="0" dx="0em" dy="0.95em" fill="rgb(33, 33, 33)" stroke="none" stroke-width="1px">90M</text></g><line x1="0" y1="0" x2="247.31899738311768" y2="0" fill="rgb(0, 0, 0)" stroke="rgb(204, 204, 204)" stroke-width="1px"></line></g></g></g></g></svg>