<svg viewBox="0 0 330 200" xmlns="http://www.w3.org/2000/svg"><g><g><g><g><g><line x1="30.766000747680664" y1="176.89999961853027" x2="25.766000747680664" y2="176.89999961853027" style="visibility: inherit;" fill="rgb(0, 0, 0)" stroke="rgb(204, 204, 204)" stroke-width="1px"></line><line x1="30.766000747680664" y1="154.787499666214" x2="25.766000747680664" y2="154.787499666214" style="visibility: inherit;" fill="rgb(0, 0, 0)" stroke="rgb(204, 204, 204)" stroke-width="1px"></line><line x1="30.766000747680664" y1="132.6749997138977" x2="25.766000747680664" y2="132.6749997138977" style="visibility: inherit;" fill="rgb(0, 0, 0)" stroke="rgb(204, 204, 204)" stroke-width="1px"></line><line x1="30.766000747680664" y1="110.56249976158142" x2="25.766000747680664" y2="110.56249976158142" style="visibility: inherit;" fill="rgb(0, 0, 0)" stroke="rgb(204, 204, 204)" stroke-width="1px"></line><line x1="30.766000747680664" y1="88.44999980926514" x2="25.766000747680664" y2="88.44999980926514" style="visibility: inherit;" fill="rgb(0, 0, 0)" stroke="rgb(204, 204, 204)" stroke-width="1px"></line><line x1="30.766000747680664" y1="66.33749985694885" x2="25.766000747680664" y2="66.33749985694885" style="visibility: inherit;" fill="rgb(0, 0, 0)" stroke="rgb(204, 204, 204)" stroke-width="1px"></line><line x1="30.766000747680664" y1="44.22499990463257" x2="25.766000747680664" y2="44.22499990463257" style="visibility: inherit;" fill="rgb(0, 0, 0)" stroke="rgb(204, 204, 204)" stroke-width="1px"></line><line x1="30.766000747680664" y1="22.112499952316284" x2="25.766000747680664" y2="22.112499952316284" style="visibility: inherit;" fill="rgb(0, 0, 0)" stroke="rgb(204, 204, 204)" stroke-width="1px"></line><line x1="30.766000747680664" y1="0" x2="25.766000747680664" y2="0" style="visibility: inherit;" fill="rgb(0, 0, 0)" stroke="rgb(204, 204, 204)" stroke-width="1px"></line></g><g transform="translate(20.766000747680664, 0)"><text style="text-anchor: end; visibility: hidden; font-family: Roboto, sans-serif; font-size: 12px; font-weight: 200;" x="0" y="176.89999961853027" dx="0em" dy="0.3em" fill="rgb(33, 33, 33)" stroke="none" stroke-width="1px">30</text><text style="text-anchor: end; visibility: inherit; font-family: Roboto, sans-serif; font-size: 12px; font-weight: 200;" x="0" y="154.787499666214" dx="0em" dy="0.3em" fill="rgb(33, 33, 33)" stroke="none" stroke-width="1px">35</text><text style="text-anchor: end; visibility: hidden; font-family: Roboto, sans-serif; font-size: 12px; font-weight: 200;" x="0" y="132.6749997138977" dx="0em" dy="0.3em" fill="rgb(33, 33, 33)" stroke="none" stroke-width="1px">40</text><text style="text-anchor: end; visibility: inherit; font-family: Roboto, sans-serif; font-size: 12px; font-weight: 200;" x="0" y="110.56249976158142" dx="0em" dy="0.3em" fill="rgb(33, 33, 33)" stroke="none" stroke-width="1px">45</text><text style="text-anchor: end; visibility: hidden; font-family: Roboto, sans-serif; font-size: 12px; font-weight: 200;" x="0" y="88.44999980926514" dx="0em" dy="0.3em" fill="rgb(33, 33, 33)" stroke="none" stroke-width="1px">50</text><text style="text-anchor: end; visibility: inherit; font-family: Roboto, sans-serif; font-size: 12px; font-weight: 200;" x="0" y="66.33749985694885" dx="0em" dy="0.3em" fill="rgb(33, 33, 33)" stroke="none" stroke-width="1px">55</text><text style="text-anchor: end; visibility: hidden; font-family: Roboto, sans-serif; font-size: 12px; font-weight: 200;" x="0" y="44.22499990463257" dx="0em" dy="0.3em" fill="rgb(33, 33, 33)" stroke="none" stroke-width="1px">60</text><text style="text-anchor: end; visibility: inherit; font-family: Roboto, sans-serif; font-size: 12px; font-weight: 200;" x="0" y="22.112499952316284" dx="0em" dy="0.3em" fill="rgb(33, 33, 33)" stroke="none" stroke-width="1px">65</text><text style="text-anchor: end; visibility: hidden; font-family: Roboto, sans-serif; font-size: 12px; font-weight: 200;" x="0" y="0" dx="0em" dy="0.3em" fill="rgb(33, 33, 33)" stroke="none" stroke-width="1px">70</text></g><line x1="30.766000747680664" y1="0" x2="30.766000747680664" y2="176.89999961853027" fill="rgb(0, 0, 0)" stroke="rgb(204, 204, 204)" stroke-width="1px"></line></g></g><g transform="translate(30, 0)" clip-path="url(#clip_0)"><clipPath id="clip_0"><rect width="299" height="176"></rect></clipPath><g><g><g><line x1="0" y1="0" x2="0" y2="176.89999961853027" fill="rgb(0, 0, 0)" stroke="rgb(66, 66, 66)" stroke-width="1px" opacity="0.25"></line><line x1="29.923399925231934" y1="0" x2="29.923399925231934" y2="176.89999961853027" fill="rgb(0, 0, 0)" stroke="rgb(66, 66, 66)" stroke-width="1px" opacity="0.25"></line><line x1="59.84679985046387" y1="0" x2="59.84679985046387" y2="176.89999961853027" fill="rgb(0, 0, 0)" stroke="rgb(66, 66, 66)" stroke-width="1px" opacity="0.25"></line><line x1="89.7701997756958" y1="0" x2="89.7701997756958" y2="176.89999961853027" fill="rgb(0, 0, 0)" stroke="rgb(66, 66, 66)" stroke-width="1px" opacity="0.25"></line><line x1="119.69359970092773" y1="0" x2="119.69359970092773" y2="176.89999961853027" fill="rgb(0, 0, 0)" stroke="rgb(66, 66, 66)" stroke-width="1px" opacity="0.25"></line><line x1="149.61699962615967" y1="0" x2="149.61699962615967" y2="176.89999961853027" fill="rgb(0, 0, 0)" stroke="rgb(66, 66, 66)" stroke-width="1px" opacity="0.25"></line><line x1="179.5403995513916" y1="0" x2="179.5403995513916" y2="176.89999961853027" fill="rgb(0, 0, 0)" stroke="rgb(66, 66, 66)" stroke-width="1px" opacity="0.25"></line><line x1="209.46379947662354" y1="0" x2="209.46379947662354" y2="176.89999961853027" fill="rgb(0, 0, 0)" stroke="rgb(66, 66, 66)" stroke-width="1px" opacity="0.25"></line><line x1="239.38719940185547" y1="0" x2="239.38719940185547" y2="176.89999961853027" fill="rgb(0, 0, 0)" stroke="rgb(66, 66, 66)" stroke-width="1px" opacity="0.25"></line><line x1="269.3105993270874" y1="0" x2="269.3105993270874" y2="176.89999961853027" fill="rgb(0, 0, 0)" stroke="rgb(66, 66, 66)" stroke-width="1px" opacity="0.25"></line><line x1="299.23399925231934" y1="0" x2="299.23399925231934" y2="176.89999961853027" fill="rgb(0, 0, 0)" stroke="rgb(66, 66, 66)" stroke-width="1px" opacity="0.25"></line></g><g><line x1="0" y1="176.89999961853027" x2="299.23399925231934" y2="176.89999961853027" fill="rgb(0, 0, 0)" stroke="rgb(66, 66, 66)" stroke-width="1px" opacity="0.25"></line><line x1="0" y1="154.787499666214" x2="299.23399925231934" y2="154.787499666214" fill="rgb(0, 0, 0)" stroke="rgb(66, 66, 66)" stroke-width="1px" opacity="0.25"></line><line x1="0" y1="132.6749997138977" x2="299.23399925231934" y2="132.6749997138977" fill="rgb(0, 0, 0)" stroke="rgb(66, 66, 66)" stroke-width="1px" opacity="0.25"></line><line x1="0" y1="110.56249976158142" x2="299.23399925231934" y2="110.56249976158142" fill="rgb(0, 0, 0)" stroke="rgb(66, 66, 66)" stroke-width="1px" opacity="0.25"></line><line x1="0" y1="88.44999980926514" x2="299.23399925231934" y2="88.44999980926514" fill="rgb(0, 0, 0)" stroke="rgb(66, 66, 66)" stroke-width="1px" opacity="0.25"></line><line x1="0" y1="66.33749985694885" x2="299.23399925231934" y2="66.33749985694885" fill="rgb(0, 0, 0)" stroke="rgb(66, 66, 66)" stroke-width="1px" opacity="0.25"></line><line x1="0" y1="44.22499990463257" x2="299.23399925231934" y2="44.22499990463257" fill="rgb(0, 0, 0)" stroke="rgb(66, 66, 66)" stroke-width="1px" opacity="0.25"></line><line x1="0" y1="22.112499952316284" x2="299.23399925231934" y2="22.112499952316284" fill="rgb(0, 0, 0)" stroke="rgb(66, 66, 66)" stroke-width="1px" opacity="0.25"></line><line x1="0" y1="0" x2="299.23399925231934" y2="0" fill="rgb(0, 0, 0)" stroke="rgb(66, 66, 66)" stroke-width="1px" opacity="0.25"></line></g></g></g><g><g><line x1="0" y1="309.574999332428" x2="299.23399925231934" y2="309.574999332428" fill="rgb(0, 0, 0)" stroke="rgb(153, 153, 153)" stroke-width="1.5px"></line></g></g><g><g><line x1="29.923399925231934" y1="0" x2="29.923399925231934" y2="176.89999961853027" fill="rgb(0, 0, 0)" stroke="rgb(153, 153, 153)" stroke-width="1.5px"></line></g></g><g><g><g><g><g><path style="fill: none;" stroke="rgb(0, 153, 136)" stroke-width="2px" d="M37.76763967523193,177.65659400037603L38.15985166273193,175.86795556805168L38.552063650231936,174.1429738436038L38.944275637731934,172.47182425469927L39.33648762523194,170.5863612263413L39.72869961273193,168.85382799171956L40.120911600231935,167.47873513677033L40.51312358773193,166.5286900975958L40.90533557523193,165.9040637456241L41.297547562731935,165.02174914082298L41.68975955023193,163.4434404859939L42.08197153773194,162.3664176133641L42.47418352523193,161.3660651688847L42.866395512731934,159.8792617674455L43.25860750023193,157.74619935036122L43.65081948773194,155.88356042041116L44.043031475231935,154.0282841510774L44.43524346273194,152.08469846602824L44.82745545023193,149.67205339574065L45.21966743773193,146.7584875068914L45.61187942523193,143.76815291702695L46.00409141273193,140.88505595293577L46.396303400231936,138.76986883855824L46.788515387731934,136.77423866938912L47.18072737523194,135.1663675956238L47.57293936273193,133.32271896606844L47.965151350231935,132.0659774587107L48.35736333773193,130.25088616224224L48.74957532523194,127.99395424684478L49.141787312731935,124.76169696094401L49.53399930023193,120.2234152840684L49.92621128773194,116.67469610425934L50.31842327523193,112.94369847892112L50.710635262731934,110.16813217721858L51.10284725023193,107.49775605955942L51.49505923773194,105.8131416219002L51.887271225231935,104.57696960133164L52.27948321273194,102.45050212119409L52.67169520023193,100.1410741538036L53.06390718773193,98.93906962135598L53.45611917523193,98.16618919051204L53.84833116273193,98.59188036749622L54.240543150231936,97.59139442255581L54.632755137731934,97.00746723925381L55.02496712523194,96.53013680845267L55.41717911273193,94.68999261978979L55.809391100231935,93.2999781477665L56.20160308773193,92.84662864723389L56.59381507523194,92.30199168920142L56.986027062731935,91.71747553285154L57.37823905023193,90.06844600617845L57.77045103773193,90.15802489276729L58.16266302523193,89.89482954123045L58.554875012731934,89.18817574396729L58.94708700023193,88.14216818145873L59.33929898773194,91.32869320955079L59.731510975231934,92.9721918451489L60.12372296273194,92.74558560004571L60.51593495023193,91.91363280648048L60.908146937731935,92.85143621726948L61.30035892523193,91.26998586022448L61.69257091273193,90.83461313481934L62.084782900231936,89.76322766660651L62.476994887731934,89.19165062365377L62.86920687523194,88.85141042586096L63.26141886273193,88.35678331373205L63.653630850231934,87.95657739351006L64.04584283773194,88.30637468895115L64.43805482523193,89.51494609537326L64.83026681273194,89.73190228337047L65.22247880023193,89.63186117198876L65.61469078773193,89.74484009441677L66.00690277523194,88.96689585561161L66.39911476273194,88.10087884016703L66.79132675023193,88.39826638991119L67.18353873773194,89.19069059476422L67.57575072523193,91.09182371872765L67.96796271273193,91.27682358723202L68.36017470023194,90.27780543287794L68.75238668773194,88.85097756130632L69.14459867523193,88.49972038729304L69.53681066273192,88.34920725936038L69.92902265023193,88.44348963031067L70.32123463773193,89.04162905140777L70.71344662523194,89.56009412462038L71.10565861273193,89.79727363638916L71.49787060023193,90.69110132321413L71.89008258773194,90.77972238390635L72.28229457523193,90.7295126047731L72.67450656273193,90.72321462954524L73.06671855023194,91.2469763362824L73.45893053773193,91.31038929043103L73.85114252523194,91.14546471991308L74.24335451273194,90.84861228058038L74.63556650023193,90.6558234831806L75.02777848773192,89.62328584209382L75.41999047523194,88.87554746792334L75.81220246273193,88.52224975342664L76.20441445023194,87.70173874307575L76.59662643773193,86.55156366904559L76.98883842523195,85.87486729693133L77.38105041273194,85.20402988271164L77.77326240023193,85.18729500384357L78.16547438773193,84.46973235716219L78.55768637523192,84.57577110008855L78.94989836273194,84.65120369487899L79.34211035023193,84.0692788468252L79.73432233773192,83.8697652607598L80.12653432523193,83.79212538448151L80.51874631273193,83.47597113535176L80.91095830023194,84.43078670871105L81.30317028773193,85.55022622244647L81.69538227523194,85.91409105745012L82.08759426273193,86.69919797831771L82.47980625023195,88.16401547799953L82.87201823773194,88.98659225341223L83.26423022523193,89.62608837632852L83.65644221273193,90.6421598203821L84.04865420023194,91.29304093364304L84.44086618773194,91.94510281941943L84.83307817523193,92.33762210878045L85.22529016273192,92.41917351198323L85.61750215023194,91.46609795881832L86.00971413773193,90.87726066070846L86.40192612523194,89.37101490969499L86.79413811273193,87.26195805922023L87.18635010023193,86.32798875763828L87.57856208773194,85.9621510185853L87.97077407523193,85.2953507229198L88.36298606273193,85.30507520161926L88.75519805023193,86.41843787869917L89.14741003773194,87.87779658965543L89.53962202523194,88.01938991763507L89.93183401273194,87.8905562077L90.32404600023193,86.93582134846872L90.71625798773192,86.894225686301L91.10846997523194,86.6394246157899L91.50068196273193,85.67000509203486L91.89289395023194,84.84554641343115L92.28510593773193,83.43790055470372L92.67731792523195,82.28689079891711L93.06952991273194,81.75642646655368L93.46174190023193,80.60181651670517L93.85395388773193,79.63071431234992L94.24616587523192,79.6416853470077L94.63837786273194,79.49116313644555L95.03058985023193,79.36819527297776L95.42280183773192,78.70537097325105L95.81501382523193,78.13363358144294L96.20722581273193,76.0904767701414L96.59943780023194,76.13050441067213L96.99164978773193,77.31938843556334L97.38386177523194,78.33804113453814L97.77607376273194,79.70892480321865L98.16828575023195,81.47622317179272L98.56049773773194,82.46124504969755L98.95270972523193,83.42896966244453L99.34492171273193,84.55209218374466L99.73713370023194,85.39821348744358L100.12934568773194,85.37906108693059L100.52155767523193,85.94600505873603L100.91376966273192,85.71735896211939L101.30598165023194,85.8161558388578L101.69819363773193,85.45303042043209L102.09040562523194,85.44055011598576L102.48261761273193,85.55124989845615L102.87482960023192,85.6462753853999L103.26704158773194,85.69471371606734L103.65925357523193,86.44816893244912L104.05146556273193,86.33738824269119L104.44367755023193,85.67613352945983L104.83588953773194,85.9548147325047L105.22810152523193,86.2070845083779L105.62031351273194,85.58636463041907L106.01252550023193,85.2036349512856L106.40473748773192,84.76242759470122L106.79694947523194,83.92185907722549L107.18916146273193,83.86383713005371L107.58137345023194,83.51730438463356L107.97358543773193,82.97953274834668L108.36579742523195,82.47802898479465L108.75800941273194,81.96625899030175L109.15022140023193,80.88512453128597L109.54243338773193,80.08930611510493L109.93464537523194,78.08197800585957L110.32685736273194,76.89638837217491L110.71906935023193,76.58220661869551L111.11128133773192,76.07651194793759L111.50349332523193,75.6533685908704L111.89570531273193,76.21850479547552L112.28791730023194,76.73665673879974L112.68012928773193,77.50739720800185L113.07234127523193,76.74429423951091L113.46455326273194,76.5226126909087L113.85676525023193,76.1097424342259L114.24897723773194,75.92790969962981L114.64118922523193,75.87073745362713L115.03340121273193,74.97753002844037L115.42561320023194,74.55324778500166L115.81782518773194,73.58165525475462L116.21003717523193,73.31508906774175L116.60224916273192,73.06807733805213L116.99446115023194,72.41768954189135L117.38667313773193,73.03847885374445L117.77888512523194,73.12320921637914L118.17109711273193,75.10889117978763L118.56330910023192,75.41675860406171L118.95552108773194,74.8697380514456L119.34773307523193,74.01623237841834L119.73994506273193,73.54065697821581L120.13215705023192,72.65387171406171L120.52436903773194,71.8693706588052L120.91658102523193,70.72793274148367L121.30879301273193,69.72522304887454L121.70100500023193,68.94726003352451L122.09321698773194,67.7952430595324L122.48542897523194,67.27809593170761L122.87764096273193,66.43492258917574L123.26985295023194,65.29771102886565L123.66206493773193,64.85045762046248L124.05427692523195,64.61285712030664L124.44648891273194,63.95943112917615L124.83870090023193,63.997499019135475L125.23091288773193,63.89368279766524L125.62312487523194,63.378345946619376L126.01533686273194,62.714498962183896L126.40754885023193,61.87429842704702L126.79976083773192,61.5689328243168L127.19197282523193,61.411322879585164L127.58418481273193,60.78784653638427L127.97639680023194,59.71858146789424L128.36860878773194,59.386488105301595L128.76082077523193,59.029607645031696L129.15303276273195,58.79721874116253L129.54524475023194,58.45147269710699L129.93745673773194,58.231331707511345L130.32966872523193,58.0194564034768L130.72188071273192,56.874763478041615L131.11409270023194,56.05179605071082L131.50630468773193,56.01631281164681L131.89851667523192,55.366131168819926L132.29072866273194,55.230361820331716L132.68294065023193,55.674564703666015L133.07515263773195,55.737290810326755L133.46736462523194,55.77198425936373L133.85957661273193,55.48071634889859L134.25178860023195,55.37532034474901L134.64400058773194,54.52966950542107L135.03621257523193,54.23590675176034L135.42842456273192,53.6279397880559L135.82063655023194,53.206096835298084L136.21284853773193,53.02997452295001L136.60506052523195,52.270704277972385L136.99727251273194,51.12615771550982L137.38948450023193,50.36615108022277L137.78169648773195,49.20031074727928L138.17390847523194,48.54726790071498L138.56612046273193,48.29652679864283L138.95833245023192,48.36693046074531L139.3505444377319,47.82564910350951L139.74275642523193,47.9849623765946L140.13496841273192,47.32252509641378L140.52718040023194,47.675982118318046L140.91939238773193,47.60587362332889L141.31160437523195,48.07003145615199L141.70381636273194,47.93035373243117L142.09602835023193,48.13657796228883L142.48824033773192,48.22677394894518L142.88045232523194,47.638834104426834L143.27266431273193,47.559433009168536L143.66487630023192,47.621011960084964L144.05708828773194,47.30291631305937L144.44930027523193,46.90820256770912L144.84151226273195,46.557842612980124L145.23372425023194,46.9250903115354L145.62593623773193,47.20201583484346L146.01814822523193,47.225170054318546L146.41036021273194,47.11550305410453L146.80257220023194,47.45662602891039L147.19478418773193,46.86798823484667L147.58699617523192,47.660616083739065L147.97920816273194,47.71684618295585L148.37142015023193,47.707598212L148.76363213773195,47.42789033043886L149.15584412523194,47.35263065333502L149.54805611273193,46.719139826368774L149.94026810023195,46.544980132753935L150.33248008773194,45.75009627562387L150.72469207523193,45.32339955803925L151.11690406273192,45.650999556778075L151.50911605023194,44.874091296401794L151.90132803773193,43.86126795466669L152.29354002523192,43.30160088509943L152.68575201273194,42.455764980854184L153.07796400023193,41.522411563920194L153.47017598773195,40.60134385047588L153.86238797523194,39.61776320563838L154.25459996273193,38.64376373771551L154.64681195023192,38.32679520109942L155.0390239377319,37.928870759112684L155.43123592523193,37.84606023497228L155.82344791273192,37.86992254627547L156.21565990023194,37.57900537561014L156.60787188773193,37.29384533605319L157.00008387523195,37.09033771036867L157.39229586273194,37.34067301071123L157.78450785023193,37.00407257911251L158.17671983773192,36.87348127751887L158.5689318252319,36.81513490792702L158.96114381273193,36.54132855229357L159.35335580023195,35.68088698742397L159.74556778773194,35.423428993744935L160.13777977523193,35.151656994726444L160.52999176273195,35.048126410848646L160.92220375023194,36.100938825176996L161.31441573773193,36.87541142590142L161.70662772523193,37.46261529552013L162.09883971273192,37.340599929868155L162.4910517002319,37.04247997106329L162.88326368773195,36.613458990429905L163.27547567523195,36.203408878727906L163.66768766273194,36.50432712519402L164.05989965023193,36.60917002346274L164.45211163773195,36.507608645469105L164.84432362523194,36.88362448115225L165.23653561273193,36.02396830268198L165.62874760023192,36.19022861024229L166.0209595877319,36.753660327073284L166.41317157523196,36.52175968356579L166.80538356273195,36.510497677007294L167.19759555023194,36.96622832226409L167.58980753773193,37.31403861553827L167.98201952523195,37.252904784760425L168.37423151273194,37.095566680157425L168.76644350023193,36.68918106050005L169.15865548773192,36.215951396658795L169.5508674752319,36.47793618552522L169.94307946273196,35.92722744031542L170.33529145023195,36.02426013904509L170.72750343773194,36.080408061052225L171.11971542523193,35.96526527542347L171.51192741273192,36.12603002545607L171.90413940023194,35.80188710025954L172.29635138773193,35.327971902384824L172.68856337523192,34.36579314187217L173.0807753627319,34.06894105463752L173.47298735023196,34.01108271646616L173.86519933773195,33.544354733080105L174.25741132523194,33.082615924702516L174.64962331273193,32.67153315403358L175.04183530023192,32.079983017827665L175.43404728773194,31.466610393631626L175.82625927523193,31.083234665369037L176.21847126273192,31.008181628742584L176.61068325023192,30.393028176373825L177.00289523773193,31.0820335338537L177.39510722523195,31.477081645842194L177.78731921273194,31.903060097588778L178.17953120023193,32.123536286906976L178.57174318773193,32.23912020686327L178.96395517523192,32.42059864087063L179.35616716273194,31.952163742070802L179.74837915023193,31.428909924590005L180.14059113773192,31.353324283215205L180.53280312523194,30.6453739427574L180.92501511273196,31.12975490916014L181.31722710023195,31.057809480842003L181.70943908773194,30.867990353439826L182.10165107523193,31.01763631005447L182.49386306273192,31.355899335910568L182.88607505023194,30.789251997138955L183.27828703773193,31.036161248097493L183.67049902523195,31.46692139156902L184.06271101273194,31.586830194778088L184.45492300023193,31.124446296184605L184.84713498773195,30.443264435835026L185.23934697523194,30.123483091955453L185.63155896273193,30.166795784601764L186.02377095023192,30.601650056564942L186.4159829377319,30.362291601839715L186.80819492523193,30.176540771649154L187.20040691273195,29.954089140809096L187.59261890023194,29.78029092240177L187.98483088773193,29.279669993158105L188.37704287523195,29.608519796773326L188.76925486273194,29.962293431351675L189.16146685023193,30.539628454054345L189.55367883773192,30.225050079910588L189.9458908252319,30.12953617900263L190.33810281273193,30.169989003865922L190.73031480023195,30.25575704035662L191.12252678773194,30.47698231577288L191.51473877523193,30.56514562366638L191.90695076273192,30.468118861258702L192.29916275023194,30.66905390722867L192.69137473773193,30.985967294158943L193.08358672523192,31.279221065688308L193.47579871273192,31.122696289985694L193.8680107002319,31.163765658129222L194.26022268773195,30.50037435966166L194.65243467523194,30.502210887091895L195.04464666273194,30.09547187349076L195.43685865023193,29.767804777766287L195.82907063773195,29.919519583057024L196.22128262523194,30.140350082620284L196.61349461273193,30.16089575351032L197.00570660023192,30.52119406059793L197.3979185877319,30.786324483648723L197.79013057523196,31.765747603416493L198.18234256273195,31.55197181239354L198.57455455023194,31.091202306361794L198.96676653773193,31.08195580449805L199.35897852523192,30.985732347392467L199.75119051273194,31.14714605021394L200.14340250023193,30.85797701886349L200.53561448773192,30.702034415017806L200.9278264752319,30.36002714182035L201.32003846273196,30.130029893128693L201.71225045023195,29.65427741332489L202.10446243773194,29.38334805065545L202.49667442523193,29.535472469728695L202.88888641273192,29.855538075269145L203.28109840023194,29.89355653438451L203.67331038773193,29.894975817602486L204.06552237523192,29.986718885902945L204.45773436273194,29.597247332822274L204.84994635023196,29.62760794898844L205.24215833773195,29.571357937775744L205.63437032523194,29.380550337087513L206.02658231273193,28.6914026080529L206.41879430023192,28.052598339251585L206.8110062877319,27.343256277025954L207.20321827523193,26.881575165439756L207.59543026273192,26.811115387202758L207.98764225023194,26.94330072059851L208.37985423773193,27.030277875209254L208.77206622523195,27.901844041391886L209.16427821273194,28.04225530717293L209.55649020023193,27.957432677662894L209.94870218773193,27.975876849288568L210.34091417523192,28.239278774235675L210.73312616273193,28.551610761390776L211.12533815023193,28.508795129503735L211.51755013773194,28.055553329723665L211.90976212523194,27.753194114941977L212.30197411273195,27.576765505465286L212.69418610023195,27.469470973296765L213.08639808773194,27.380335110219715L213.47861007523193,27.82022120224094L213.87082206273192,28.20656519544653L214.2630340502319,29.01250840043457L214.65524603773193,29.4848925569415L215.04745802523195,29.767081382147143L215.43967001273194,29.32594580697439L215.83188200023193,28.72454280579754L216.22409398773195,28.299485139141037L216.61630597523194,28.186891533102642L217.00851796273193,28.392104339380936L217.40072995023192,28.884311295575856L217.7929419377319,29.758914406337155L218.18515392523193,30.329894690815575L218.57736591273195,30.033023481778045L218.96957790023194,29.261943219029465L219.36178988773193,28.31333022630766L219.75400187523195,27.672806969707803L220.14621386273194,27.151673271932818L220.53842585023193,26.650961223839364L220.93063783773192,26.721327310071153L221.3228498252319,26.591866019645032L221.71506181273193,26.60442616841255L222.10727380023195,26.57575141943326L222.49948578773194,26.532134117404933L222.89169777523193,27.184326485732157L223.28390976273192,27.238022740128645L223.67612175023194,27.203075663657213L224.06833373773193,26.43375234355199L224.46054572523192,26.46271196218634L224.85275771273191,26.739940649524176L225.2449697002319,26.44957996786162L225.63718168773195,26.825551008086595L226.02939367523194,27.38139726142274L226.42160566273193,27.155513020154363L226.81381765023193,27.620369780312014L227.20602963773194,27.548559666478145L227.59824162523194,26.87349122344199L227.99045361273193,26.836476710934352L228.38266560023192,27.02488605641186L228.77487758773194,26.94757170546018L229.16708957523196,27.21385416812849L229.55930156273195,27.33910660555122L229.95151355023194,27.433456695435382L230.34372553773193,27.664662913692727L230.73593752523192,27.97999377240965L231.12814951273194,28.416081912656708L231.52036150023193,27.765465957982393L231.91257348773192,26.892141247059083L232.30478547523194,27.042784163953847L232.69699746273196,26.93473910931234L233.08920945023195,26.61072723211563L233.48142143773194,26.091920661917065L233.87363342523193,26.183180313290244L234.26584541273192,26.004704834780636L234.65805740023194,25.556363101572405L235.05026938773193,24.996348708637345L235.44248137523192,25.294603339025613L235.83469336273194,25.3215596728842L236.22690535023193,26.03457954103258L236.61911733773195,26.32729925716535L237.01132932523194,26.942785475087156L237.40354131273193,27.065963623759902L237.79575330023192,27.40639739837512L238.1879652877319,27.39070010212563L238.58017727523193,27.937758495484317L238.97238926273192,27.741132074806636L239.36460125023194,27.316612514259784L239.75681323773193,28.089982215686607L240.14902522523195,27.964717519716533L240.54123721273194,27.541459581791386L240.93344920023193,27.789206455222526L241.32566118773192,27.995652907556213L241.71787317523192,27.756400166641324L242.11008516273193,27.238579884288615L242.50229715023193,26.604365536924753L242.89450913773194,26.07136811017067L243.28672112523194,25.43744096979805L243.67893311273195,24.71195477298862L244.07114510023194,24.20267579615139L244.46335708773194,23.652594151237945L244.85556907523193,24.213901333022058L245.24778106273192,23.50794036693633L245.6399930502319,22.808186976662167L246.03220503773193,23.25230691786853L246.42441702523195,23.408054426043925L246.81662901273194,23.25611140620984L247.20884100023193,23.16177394056861L247.60105298773195,23.657943470795075L247.99326497523194,23.241888133280202L248.38547696273193,23.309447297640986L248.77768895023192,23.065802621089013L249.1699009377319,23.034537651763035L249.56211292523193,22.600049094953082L249.95432491273195,22.531693141543677L250.34653690023194,22.274413273577657L250.73874888773193,22.03667809681332L251.13096087523195,21.686070980155765L251.52317286273194,21.000997871768394L251.91538485023193,20.279550328511288L252.30759683773192,20.071302369394445L252.6998088252319,20.098741433866746L253.09202081273196,19.99643656225937L253.48423280023195,20.238425693694456L253.87644478773194,20.412164056222018L254.26865677523193,20.07020262981543L254.66086876273192,19.46877150236506L255.05308075023194,19.022615584867815L255.44529273773193,18.336331222588974L255.83750472523192,18.293822079034804L256.22971671273194,17.961421978390774L256.62192870023193,17.069994553773917L257.0141406877319,16.833543478609336L257.4063526752319,16.475190595207852L257.79856466273196,16.24629107070229L258.19077665023195,15.892455621297362L258.58298863773194,15.629218942218323L258.97520062523193,14.751446499616616L259.3674126127319,14.404150175392447L259.7596246002319,14.423780543818417L260.15183658773196,14.462956454634284L260.54404857523195,15.054242006308089L260.93626056273195,14.925477854041075L261.32847255023194,15.454868996687612L261.7206845377319,15.456242566929745L262.1128965252319,15.582785664797578L262.5051085127319,15.11268771335536L262.8973205002319,15.197960431260947L263.28953248773195,14.7198492828722L263.68174447523194,14.403911350615498L264.0739564627319,14.283841549180424L264.4661684502319,14.156234994061817L264.8583804377319,13.118511517164876L265.25059242523196,12.752956837210615L265.64280441273195,11.96333369385894L266.03501640023194,11.84577026392795L266.42722838773193,11.331902495011303L266.8194403752319,12.040616468919334L267.21165236273197,11.887726606524966L267.60386435023196,12.441484959119713L267.99607633773195,12.815538318059563L268.38828832523194,12.848280979894009L268.78050031273193,12.75065636698145L269.1727123002319,12.276635448396366L269.5649242877319,12.265511478504203L269.9571362752319,11.67862690800068L270.3493482627319,11.303525294776454L270.74156025023194,11.580179459426974L271.13377223773193,11.529905662296938L271.5259842252319,11.325988744623102L271.9181962127319,10.999019690346225L272.3104082002319,11.028606018523748" fill="none"></path></g></g></g></g><g opacity="0.2"><g><g><g><path style="fill: none;" stroke="rgb(0, 153, 136)" stroke-width="2px" d="M36.98321570023193,177.78862782763545L37.375427687731936,175.73196221126662L37.76763967523193,175.12194185163546L38.15985166273193,173.18505677547464L38.552063650231936,171.55553531368705L38.944275637731934,169.96511966770257L39.33648762523194,167.7581800848686L39.72869961273193,166.25503552824975L40.120911600231935,165.4160993728323L40.51312358773193,165.10362399737696L40.90533557523193,164.9671247930357L41.297547562731935,163.69827772126317L41.68975955023193,161.07597802713462L42.08197153773194,160.7508835187109L42.47418352523193,159.8655366215875L42.866395512731934,157.6490567717834L43.25860750023193,154.54660581640692L43.65081948773194,153.0896020735161L44.043031475231935,151.245369775781L44.43524346273194,149.16931995649682L44.82745545023193,146.0530858037471L45.21966743773193,142.38813868335436L45.61187942523193,139.28265103822613L46.00409141273193,136.5604105102677L46.396303400231936,135.5970881685187L46.788515387731934,133.78079341649973L47.18072737523194,132.75456098539362L47.57293936273193,130.5572460220228L47.965151350231935,130.18086519779172L48.35736333773193,127.52824921764149L48.74957532523194,124.60855637382464L49.141787312731935,119.91331103215816L49.53399930023193,113.41599276881006L49.92621128773194,111.35161733457153L50.31842327523193,107.3472020409301L50.710635262731934,106.00478272467207L51.10284725023193,103.49219188307488L51.49505923773194,103.28621996541297L51.887271225231935,102.72271157047943L52.27948321273194,99.26080090098857L52.67169520023193,96.6769322027183L53.06390718773193,97.13606282268465L53.45611917523193,97.00686854424622L53.84833116273193,99.23041713297243L54.240543150231936,96.09066550514525L54.632755137731934,96.1315764643008L55.02496712523194,95.81414116225096L55.41717911273193,91.92977633679548L55.809391100231935,91.21495643973158L56.20160308773193,92.16660439643492L56.59381507523194,91.48503625215271L56.986027062731935,90.84070129832672L57.37823905023193,87.5949017161689L57.77045103773193,90.29239322265057L58.16266302523193,89.50003651392525L58.554875012731934,88.12819504807248L58.94708700023193,86.57315683769593L59.33929898773194,96.10848075168887L59.731510975231934,95.43743979854607L60.12372296273194,92.40567623239095L60.51593495023193,90.66570361613266L60.908146937731935,94.25814133345303L61.30035892523193,88.8978103246569L61.69257091273193,90.18155404671161L62.084782900231936,88.15614946428722L62.476994887731934,88.33428505922474L62.86920687523194,88.3410501291717L63.26141886273193,87.61484264553873L63.653630850231934,87.35626851317703L64.04584283773194,88.83107063211283L64.43805482523193,91.32780320500642L64.83026681273194,90.05733656536631L65.22247880023193,89.48179950491613L65.61469078773193,89.91430847805877L66.00690277523194,87.79997949740391L66.39911476273194,86.80185331700012L66.79132675023193,88.84434771452743L67.18353873773194,90.37932690204379L67.57575072523193,93.94352340467286L67.96796271273193,91.55432338998854L68.36017470023194,88.77927820134683L68.75238668773194,86.71073575394894L69.14459867523193,87.9728346262731L69.53681066273192,88.12343756746141L69.92902265023193,88.58491318673605L70.32123463773193,89.93883818305348L70.71344662523194,90.33779173443928L71.10565861273193,90.15304290404238L71.49787060023193,92.03184285345161L71.89008258773194,90.91265397494463L72.28229457523193,90.65419793607326L72.67450656273193,90.71376766670346L73.06671855023194,92.03261889638816L73.45893053773193,91.40550872165404L73.85114252523194,90.89807786413621L74.24335451273194,90.40333362158127L74.63556650023193,90.36664028708093L75.02777848773192,88.0744793804637L75.41999047523194,87.75393990666761L75.81220246273193,87.99230318168156L76.20441445023194,86.47097222754947L76.59662643773193,84.82630105800035L76.98883842523195,84.85982273875997L77.38105041273194,84.1977737613821L77.77326240023193,85.16219268554141L78.16547438773193,83.39338838714012L78.55768637523192,84.73482921447813L78.94989836273194,84.76435258706461L79.34211035023193,83.19639157474448L79.73432233773192,83.57049488166176L80.12653432523193,83.67566557006411L80.51874631273193,83.00173976165716L80.91095830023194,85.86301006875L81.30317028773193,87.22938549304963L81.69538227523194,86.45988830995556L82.08759426273193,87.8768583596191L82.47980625023195,90.36124172752226L82.87201823773194,90.22045741653129L83.26423022523193,90.58533256070295L83.65644221273193,92.1662669864625L84.04865420023194,92.2693626035345L84.44086618773194,92.92319564808405L84.83307817523193,92.92640104282201L85.22529016273192,92.54150061678739L85.61750215023194,90.03648462907096L86.00971413773193,89.99400471354365L86.40192612523194,87.11164628317475L86.79413811273193,84.09837278350805L87.18635010023193,84.92703480526542L87.57856208773194,85.41339441000582L87.97077407523193,84.2951502794216L88.36298606273193,85.3196619196684L88.75519805023193,88.088481894319L89.14741003773194,90.06683465608985L89.53962202523194,88.23177990960448L89.93183401273194,87.69730564279745L90.32404600023193,85.50371905962184L90.71625798773192,86.83183219304938L91.10846997523194,86.25722301002334L91.50068196273193,84.21587580640225L91.89289395023194,83.60885839552556L92.28510593773193,81.32643176661259L92.67731792523195,80.56037616523717L93.06952991273194,80.9607299680085L93.46174190023193,78.86990159193248L93.85395388773193,78.17406100581702L94.24616587523192,79.65814189899429L94.63837786273194,79.26537982060235L95.03058985023193,79.18374347777608L95.42280183773192,77.71113452366099L95.81501382523193,77.27602749373072L96.20722581273193,73.02574155318906L96.59943780023194,76.1905458714682L96.99164978773193,79.10271447290016L97.38386177523194,79.86602018300037L97.77607376273194,81.76525030623942L98.16828575023195,84.12717072465385L98.56049773773194,83.93877786655484L98.95270972523193,84.88055658156499L99.34492171273193,86.23677596569486L99.73713370023194,86.66739544299197L100.12934568773194,85.3503324861611L100.52155767523193,86.79642101644423L100.91376966273192,85.37438981719443L101.30598165023194,85.96435115396544L101.69819363773193,84.90834229279353L102.09040562523194,85.42182965931624L102.48261761273193,85.71729957216176L102.87482960023192,85.78881361581553L103.26704158773194,85.76737121206843L103.65925357523193,87.57835175702185L104.05146556273193,86.17121720805426L104.44367755023193,84.68425145961282L104.83588953773194,86.37283653707199L105.22810152523193,86.58548917218776L105.62031351273194,84.65528481348083L106.01252550023193,84.62954043258542L106.40473748773192,84.10061655982463L106.79694947523194,82.66100630101191L107.18916146273193,83.77680420929609L107.58137345023194,82.99750526650332L107.97358543773193,82.17287529391633L108.36579742523195,81.72577333946664L108.75800941273194,81.19860399856243L109.15022140023193,79.26342284276234L109.54243338773193,78.89557849083339L109.93464537523194,75.07098584199157L110.32685736273194,75.11800392164787L110.71906935023193,76.11093398847642L111.11128133773192,75.31796994180077L111.50349332523193,75.0186535552697L111.89570531273193,77.06620910238325L112.28791730023194,77.51388465378604L112.68012928773193,78.66350791180503L113.07234127523193,75.59963978677443L113.46455326273194,76.19009036800544L113.85676525023193,75.49043704920167L114.24897723773194,75.65516059773563L114.64118922523193,75.78497908462305L115.03340121273193,73.63771889066028L115.42561320023194,73.91682441984358L115.81782518773194,72.12426645938412L116.21003717523193,72.91523978722252L116.60224916273192,72.69755974351774L116.99446115023194,71.44210784765018L117.38667313773193,73.96966282152407L117.77888512523194,73.25030476033116L118.17109711273193,78.08741412490035L118.56330910023192,75.87855974047288L118.95552108773194,74.04920722252136L119.34773307523193,72.73597386887741L119.73994506273193,72.82729387791206L120.13215705023192,71.32369381783046L120.52436903773194,70.69261907592045L120.91658102523193,69.01577586550138L121.30879301273193,68.22115850996089L121.70100500023193,67.78031551049953L122.09321698773194,66.06721759854427L122.48542897523194,66.50237523997039L122.87764096273193,65.17016257537797L123.26985295023194,63.591893688400525L123.66206493773193,64.17957750785773L124.05427692523195,64.25645637007291L124.44648891273194,62.979292142480325L124.83870090023193,64.05460085407448L125.23091288773193,63.737958465459805L125.62312487523194,62.605340670050644L126.01533686273194,61.718728485530654L126.40754885023193,60.613997624341756L126.79976083773192,61.110884420221545L127.19197282523193,61.17490796248766L127.58418481273193,59.85263202158294L127.97639680023194,58.11468386515916L128.36860878773194,58.88834806141258L128.76082077523193,58.49428695462685L129.15303276273195,58.44863538535882L129.54524475023194,57.93285363102368L129.93745673773194,57.90112022311788L130.32966872523193,57.70164344742498L130.72188071273192,55.15772408988888L131.11409270023194,54.817344909714656L131.50630468773193,55.96308795305085L131.89851667523192,54.39085870457965L132.29072866273194,55.026707797599364L132.68294065023193,56.34086902866748L133.07515263773195,55.831379970317904L133.46736462523194,55.824024432919224L133.85957661273193,55.04381448320091L134.25178860023195,55.2172263385246L134.64400058773194,53.26119324642914L135.03621257523193,53.795262621269295L135.42842456273192,52.715989342499235L135.82063655023194,52.57333240616136L136.21284853773193,52.76579105442797L136.60506052523195,51.13179891050586L136.99727251273194,49.409337871816014L137.38948450023193,49.22614112729226L137.78169648773195,47.451550247864L138.17390847523194,47.56770363086853L138.56612046273193,47.92041514553457L138.95833245023192,48.47253595389903L139.3505444377319,47.01372706765577L139.74275642523193,48.223932286222215L140.13496841273192,46.3288691761425L140.52718040023194,48.206167651174475L140.91939238773193,47.500710880845155L141.31160437523195,48.76626820538659L141.70381636273194,47.72083714684995L142.09602835023193,48.44591430707533L142.48824033773192,48.36206792892972L142.88045232523194,46.75692433764925L143.27266431273193,47.440331366281136L143.66487630023192,47.71338038645954L144.05708828773194,46.82577284252093L144.44930027523193,46.31613194968376L144.84151226273195,46.03230268088665L145.23372425023194,47.47596185936836L145.62593623773193,47.61740411980554L146.01814822523193,47.25990138353118L146.41036021273194,46.951002553783475L146.80257220023194,47.968310491119155L147.19478418773193,45.98503154375103L147.58699617523192,48.849557857077706L147.97920816273194,47.80119133178105L148.37142015023193,47.693726255566254L148.76363213773195,47.0083285080971L149.15584412523194,47.23974113767927L149.54805611273193,45.76890358591936L149.94026810023195,46.28374059233173L150.33248008773194,44.55777048992877L150.72469207523193,44.683354481662356L151.11690406273192,46.14239955488629L151.50911605023194,43.708728905837425L151.90132803773193,42.34203294206399L152.29354002523192,42.462100280748565L152.68575201273194,41.187011124486354L153.07796400023193,40.12238143851918L153.47017598773195,39.21974228030941L153.86238797523194,38.142392238382136L154.25459996273193,37.18276453583112L154.64681195023192,37.851342396175276L155.0390239377319,37.33198409613251L155.43123592523193,37.72184444876166L155.82344791273192,37.90571601323027L156.21565990023194,37.142629619612116L156.60787188773193,36.866105276717825L157.00008387523195,36.78507627184191L157.39229586273194,37.716175961225055L157.78450785023193,36.49917193171441L158.17671983773192,36.677594325128474L158.5689318252319,36.727615353539285L158.96114381273193,36.13061901884339L159.35335580023195,34.390224640119605L159.74556778773194,35.03724200322631L160.13777977523193,34.74399899619876L160.52999176273195,34.89283053503186L160.92220375023194,37.68015744666955L161.31441573773193,38.03712032698805L161.70662772523193,38.34342109994814L162.09883971273192,37.157576881390206L162.4910517002319,36.595300032855995L162.88326368773195,35.969927519479825L163.27547567523195,35.58833371117489L163.66768766273194,36.95570449489313L164.05989965023193,36.76643437086587L164.45211163773195,36.355266578478584L164.84432362523194,37.447648234677025L165.23653561273193,34.734484034976596L165.62874760023192,36.43961907158282L166.0209595877319,37.59880790231981L166.41317157523196,36.17390871830448L166.80538356273195,36.49360466716953L167.19759555023194,37.64982429014926L167.58980753773193,37.835754055449605L167.98201952523195,37.16120403859369L168.37423151273194,36.85955952325295L168.76644350023193,36.07960263101395L169.15865548773192,35.506106900896874L169.5508674752319,36.870913368824766L169.94307946273196,35.1011643225007L170.33529145023195,36.16980918713963L170.72750343773194,36.164629944063016L171.11971542523193,35.79255109698024L171.51192741273192,36.367177150504894L171.90413940023194,35.31567271246477L172.29635138773193,34.61709910557274L172.68856337523192,32.92252500110317L173.0807753627319,33.62366292378556L173.47298735023196,33.92429520920905L173.86519933773195,32.84426275800106L174.25741132523194,32.39000771213614L174.64962331273193,32.05490899803025L175.04183530023192,31.192657813518775L175.43404728773194,30.546551457337596L175.82625927523193,30.50817107297517L176.21847126273192,30.895602073802916L176.61068325023192,29.470297997820676L177.00289523773193,32.11554157007358L177.39510722523195,32.06965381382488L177.78731921273194,32.54202777520859L178.17953120023193,32.454250570884334L178.57174318773193,32.41249608679774L178.96395517523192,32.69281629188172L179.35616716273194,31.24951139387103L179.74837915023193,30.644029198368838L180.14059113773192,31.239945821153015L180.53280312523194,29.583448432070686L180.92501511273196,31.856326358764267L181.31722710023195,30.94989133836479L181.70943908773194,30.583261662336554L182.10165107523193,31.24210524497649L182.49386306273192,31.863293874694687L182.88607505023194,29.939280988981597L183.27828703773193,31.40652512453526L183.67049902523195,32.11306160677632L184.06271101273194,31.76669339959172L184.45492300023193,30.43087044829444L184.84713498773195,29.421491645310557L185.23934697523194,29.643811076136085L185.63155896273193,30.23176482357121L186.02377095023192,31.2539314645097L186.4159829377319,30.00325391975184L186.80819492523193,29.89791452636327L187.20040691273195,29.62041169454896L187.59261890023194,29.51959359479078L187.98483088773193,28.5287385992926L188.37704287523195,30.101794502196203L188.76925486273194,30.492953883219155L189.16146685023193,31.405630988108346L189.55367883773192,29.753182518695024L189.9458908252319,29.986265327640655L190.33810281273193,30.230668241160856L190.73031480023195,30.38440909509264L191.12252678773194,30.808820228897275L191.51473877523193,30.697390585506582L191.90695076273192,30.322578717647236L192.29916275023194,30.970456476183603L192.69137473773193,31.461337374554393L193.08358672523192,31.7191017229823L193.47579871273192,30.88790912643181L193.8680107002319,31.225369710344598L194.26022268773195,29.505287411960314L194.65243467523194,30.50496567823721L195.04464666273194,29.48536335308908L195.43685865023193,29.276304134179554L195.82907063773195,30.147091790993176L196.22128262523194,30.471595831965164L196.61349461273193,30.191714259845316L197.00570660023192,31.06164152122928L197.3979185877319,31.184020118224907L197.79013057523196,33.234882283068146L198.18234256273195,31.231308125859147L198.57455455023194,30.400048047314158L198.96676653773193,31.068086051702455L199.35897852523192,30.841397161734125L199.75119051273194,31.389266604446124L200.14340250023193,30.424223471837838L200.53561448773192,30.468120509249275L200.9278264752319,29.847016232024185L201.32003846273196,29.78503402009119L201.71225045023195,28.940648693619192L202.10446243773194,28.976954006651244L202.49667442523193,29.763659098338582L202.88888641273192,30.33563648357976L203.28109840023194,29.950584223057565L203.67331038773193,29.89710474242948L204.06552237523192,30.124333488353653L204.45773436273194,29.01304000320124L204.84994635023196,29.67314887323774L205.24215833773195,29.486982920956695L205.63437032523194,29.094338936055106L206.02658231273193,27.657681014501026L206.41879430023192,27.094391936049572L206.8110062877319,26.27924318368751L207.20321827523193,26.189053498060463L207.59543026273192,26.70542571984733L207.98764225023194,27.14157872069209L208.37985423773193,27.16074360712537L208.77206622523195,29.20919329066582L209.16427821273194,28.2528722058445L209.55649020023193,27.830198733397804L209.94870218773193,28.003543106727005L210.34091417523192,28.634381661656334L210.73312616273193,29.02010874212338L211.12533815023193,28.444571681673192L211.51755013773194,27.375690630053573L211.90976212523194,27.299655292769426L212.30197411273195,27.312122591250233L212.69418610023195,27.308529175043986L213.08639808773194,27.246631315604095L213.47861007523193,28.480050340272822L213.87082206273192,28.786081185254982L214.2630340502319,30.221423207916626L214.65524603773193,30.19346879170189L215.04745802523195,30.19036461995565L215.43967001273194,28.664242444215233L215.83188200023193,27.822438304032215L216.22409398773195,27.661898639156238L216.61630597523194,28.01800112404508L217.00851796273193,28.699923548798324L217.40072995023192,29.622621729868303L217.7929419377319,31.070819072479026L218.18515392523193,31.18636511753321L218.57736591273195,29.58771666822177L218.96957790023194,28.10532282490658L219.36178988773193,26.890410737224915L219.75400187523195,26.71202208480808L220.14621386273194,26.36997272527041L220.53842585023193,25.89989315169915L220.93063783773192,26.82687643941881L221.3228498252319,26.397674084005853L221.71506181273193,26.623266391563806L222.10727380023195,26.532739295964348L222.49948578773194,26.46670816436235L222.89169777523193,28.16261503822297L223.28390976273192,27.31856712172339L223.67612175023194,27.150655048950096L224.06833373773193,25.279767363394058L224.46054572523192,26.506151390137898L224.85275771273191,27.155783680530835L225.2449697002319,26.014038945367798L225.63718168773195,27.38950756842405L226.02939367523194,28.215166641426908L226.42160566273193,26.816686658251815L226.81381765023193,28.317654920548552L227.20602963773194,27.440844495727294L227.59824162523194,25.86088855888774L227.99045361273193,26.780954942172873L228.38266560023192,27.30750007462812L228.77487758773194,26.831600179032648L229.16708957523196,27.613277862130968L229.55930156273195,27.526985261685336L229.95151355023194,27.574981830261645L230.34372553773193,28.011472241078803L230.73593752523192,28.452990060484996L231.12814951273194,29.070214123027295L231.52036150023193,26.78954202597087L231.91257348773192,25.58215418067412L232.30478547523194,27.268748539296023L232.69699746273196,26.772671527350024L233.08920945023195,26.124709416320552L233.48142143773194,25.313710806619195L233.87363342523193,26.320069790349958L234.26584541273192,25.73699161701624L234.65805740023194,24.88385050176002L235.05026938773193,24.156327119234636L235.44248137523192,25.741985284608024L235.83469336273194,25.36199417367207L236.22690535023193,27.104109343255192L236.61911733773195,26.76637883136446L237.01132932523194,27.866014801969868L237.40354131273193,27.25073084676897L237.79575330023192,27.91704806029793L238.1879652877319,27.36715415775143L238.58017727523193,28.758346085522323L238.97238926273192,27.446192443790096L239.36460125023194,26.679833173439516L239.75681323773193,29.250036767826902L240.14902522523195,27.776820475761458L240.54123721273194,26.906572674903696L240.93344920023193,28.160826765369166L241.32566118773192,28.305322586056718L241.71787317523192,27.397521055268953L242.11008516273193,26.461849460759556L242.50229715023193,25.65304401587891L242.89450913773194,25.271871970039495L243.28672112523194,24.486550259239078L243.67893311273195,23.623725477774503L244.07114510023194,23.438757330895537L244.46335708773194,22.82747168386777L244.85556907523193,25.055862105698186L245.24778106273192,22.44899891780769L245.6399930502319,21.75855689125092L246.03220503773193,23.91848682967793L246.42441702523195,23.64167568830707L246.81662901273194,23.028196876458612L247.20884100023193,23.020267742106814L247.60105298773195,24.402197766134844L247.99326497523194,22.61780512700788L248.38547696273193,23.410786044182164L248.77768895023192,22.700335606261074L249.1699009377319,22.987640197774095L249.56211292523193,21.94831625973821L249.95432491273195,22.429159211429578L250.34653690023194,21.888493471628674L250.73874888773193,21.680075331666746L251.13096087523195,21.160160305169484L251.52317286273194,19.9733882091874L251.91538485023193,19.19737901362568L252.30759683773192,19.758930430719186L252.6998088252319,20.13990003057516L253.09202081273196,19.842979254848256L253.48423280023195,20.60140939084704L253.87644478773194,20.67277160001322L254.26865677523193,19.557260490205596L254.66086876273192,18.566624811189474L255.05308075023194,18.35338170862197L255.44529273773193,17.306904679170845L255.83750472523192,18.23005836370358L256.22971671273194,17.462821827424705L256.62192870023193,15.73285341684859L257.0141406877319,16.478866865862432L257.4063526752319,15.93766127010567L257.79856466273196,15.902941783943978L258.19077665023195,15.36170244718996L258.58298863773194,15.23436392359982L258.97520062523193,13.434787835714095L259.3674126127319,13.883205689056203L259.7596246002319,14.453226096457362L260.15183658773196,14.521720320858L260.54404857523195,15.941170333818812L260.93626056273195,14.732331625640654L261.32847255023194,16.248955710657544L261.7206845377319,15.458302922292924L262.1128965252319,15.7726003115993L262.5051085127319,14.40754078619212L262.8973205002319,15.325869508119277L263.28953248773195,14.002682560289031L263.68174447523194,13.930004452230415L264.0739564627319,14.103736847027903L264.4661684502319,13.964825161383848L264.8583804377319,11.561926301819407L265.25059242523196,12.204624817279182L265.64280441273195,10.778898978831421L266.03501640023194,11.669425119031436L266.42722838773193,10.56110084163629L266.8194403752319,13.10368742978134L267.21165236273197,11.658391812933397L267.60386435023196,13.27212248801188L267.99607633773195,13.376618356469407L268.38828832523194,12.897394972645637L268.78050031273193,12.604219447612556L269.1727123002319,11.56560407051874L269.5649242877319,12.2488255236658L269.9571362752319,10.798300052245395L270.3493482627319,10.74087287494003L270.74156025023194,11.995160706402752L271.13377223773193,11.454494966601848L271.5259842252319,11.020113368112296L271.9181962127319,10.50856610893097L272.3104082002319,11.072985510790014" fill="none"></path></g></g></g></g></g></g><g transform="translate(30, 176)" clip-path="url(#clip_1)"><clipPath id="clip_1"><rect width="299" height="23"></rect></clipPath><g><g><line x1="0" y1="0" x2="0" y2="5" style="visibility: inherit;" fill="rgb(0, 0, 0)" stroke="rgb(204, 204, 204)" stroke-width="1px"></line><line x1="29.923399925231934" y1="0" x2="29.923399925231934" y2="5" style="visibility: inherit;" fill="rgb(0, 0, 0)" stroke="rgb(204, 204, 204)" stroke-width="1px"></line><line x1="59.84679985046387" y1="0" x2="59.84679985046387" y2="5" style="visibility: inherit;" fill="rgb(0, 0, 0)" stroke="rgb(204, 204, 204)" stroke-width="1px"></line><line x1="89.7701997756958" y1="0" x2="89.7701997756958" y2="5" style="visibility: inherit;" fill="rgb(0, 0, 0)" stroke="rgb(204, 204, 204)" stroke-width="1px"></line><line x1="119.69359970092773" y1="0" x2="119.69359970092773" y2="5" style="visibility: inherit;" fill="rgb(0, 0, 0)" stroke="rgb(204, 204, 204)" stroke-width="1px"></line><line x1="149.61699962615967" y1="0" x2="149.61699962615967" y2="5" style="visibility: inherit;" fill="rgb(0, 0, 0)" stroke="rgb(204, 204, 204)" stroke-width="1px"></line><line x1="179.5403995513916" y1="0" x2="179.5403995513916" y2="5" style="visibility: inherit;" fill="rgb(0, 0, 0)" stroke="rgb(204, 204, 204)" stroke-width="1px"></line><line x1="209.46379947662354" y1="0" x2="209.46379947662354" y2="5" style="visibility: inherit;" fill="rgb(0, 0, 0)" stroke="rgb(204, 204, 204)" stroke-width="1px"></line><line x1="239.38719940185547" y1="0" x2="239.38719940185547" y2="5" style="visibility: inherit;" fill="rgb(0, 0, 0)" stroke="rgb(204, 204, 204)" stroke-width="1px"></line><line x1="269.3105993270874" y1="0" x2="269.3105993270874" y2="5" style="visibility: inherit;" fill="rgb(0, 0, 0)" stroke="rgb(204, 204, 204)" stroke-width="1px"></line><line x1="299.23399925231934" y1="0" x2="299.23399925231934" y2="5" style="visibility: inherit;" fill="rgb(0, 0, 0)" stroke="rgb(204, 204, 204)" stroke-width="1px"></line></g><g transform="translate(0, 8)"><text style="text-anchor: middle; visibility: hidden; font-family: Roboto, sans-serif; font-size: 12px; font-weight: 200;" x="0" y="0" dx="0em" dy="0.95em" fill="rgb(33, 33, 33)" stroke="none" stroke-width="1px">-10M</text><text style="text-anchor: middle; visibility: inherit; font-family: Roboto, sans-serif; font-size: 12px; font-weight: 200;" x="29.923399925231934" y="0" dx="0em" dy="0.95em" fill="rgb(33, 33, 33)" stroke="none" stroke-width="1px">0</text><text style="text-anchor: middle; visibility: hidden; font-family: Roboto, sans-serif; font-size: 12px; font-weight: 200;" x="59.84679985046387" y="0" dx="0em" dy="0.95em" fill="rgb(33, 33, 33)" stroke="none" stroke-width="1px">10M</text><text style="text-anchor: middle; visibility: inherit; font-family: Roboto, sans-serif; font-size: 12px; font-weight: 200;" x="89.7701997756958" y="0" dx="0em" dy="0.95em" fill="rgb(33, 33, 33)" stroke="none" stroke-width="1px">20M</text><text style="text-anchor: middle; visibility: hidden; font-family: Roboto, sans-serif; font-size: 12px; font-weight: 200;" x="119.69359970092773" y="0" dx="0em" dy="0.95em" fill="rgb(33, 33, 33)" stroke="none" stroke-width="1px">30M</text><text style="text-anchor: middle; visibility: inherit; font-family: Roboto, sans-serif; font-size: 12px; font-weight: 200;" x="149.61699962615967" y="0" dx="0em" dy="0.95em" fill="rgb(33, 33, 33)" stroke="none" stroke-width="1px">40M</text><text style="text-anchor: middle; visibility: hidden; font-family: Roboto, sans-serif; font-size: 12px; font-weight: 200;" x="179.5403995513916" y="0" dx="0em" dy="0.95em" fill="rgb(33, 33, 33)" stroke="none" stroke-width="1px">50M</text><text style="text-anchor: middle; visibility: inherit; font-family: Roboto, sans-serif; font-size: 12px; font-weight: 200;" x="209.46379947662354" y="0" dx="0em" dy="0.95em" fill="rgb(33, 33, 33)" stroke="none" stroke-width="1px">60M</text><text style="text-anchor: middle; visibility: hidden; font-family: Roboto, sans-serif; font-size: 12px; font-weight: 200;" x="239.38719940185547" y="0" dx="0em" dy="0.95em" fill="rgb(33, 33, 33)" stroke="none" stroke-width="1px">70M</text><text style="text-anchor: middle; visibility: inherit; font-family: Roboto, sans-serif; font-size: 12px; font-weight: 200;" x="269.3105993270874" y="0" dx="0em" dy="0.95em" fill="rgb(33, 33, 33)" stroke="none" stroke-width="1px">80M</text><text style="text-anchor: middle; visibility: hidden; font-family: Roboto, sans-serif; font-size: 12px; font-weight: 200;" x="299.23399925231934" y="0" dx="0em" dy="0.95em" fill="rgb(33, 33, 33)" stroke="none" stroke-width="1px">90M</text></g><line x1="0" y1="0" x2="299.23399925231934" y2="0" fill="rgb(0, 0, 0)" stroke="rgb(204, 204, 204)" stroke-width="1px"></line></g></g></g></g></svg>