<svg viewBox="0 0 330 200" xmlns="http://www.w3.org/2000/svg"><g><g><g><g><g><line x1="30.766000747680664" y1="176.89999961853027" x2="25.766000747680664" y2="176.89999961853027" style="visibility: inherit;" fill="rgb(0, 0, 0)" stroke="rgb(204, 204, 204)" stroke-width="1px"></line><line x1="30.766000747680664" y1="162.15833298365274" x2="25.766000747680664" y2="162.15833298365274" style="visibility: inherit;" fill="rgb(0, 0, 0)" stroke="rgb(204, 204, 204)" stroke-width="1px"></line><line x1="30.766000747680664" y1="147.41666634877524" x2="25.766000747680664" y2="147.41666634877524" style="visibility: inherit;" fill="rgb(0, 0, 0)" stroke="rgb(204, 204, 204)" stroke-width="1px"></line><line x1="30.766000747680664" y1="132.6749997138977" x2="25.766000747680664" y2="132.6749997138977" style="visibility: inherit;" fill="rgb(0, 0, 0)" stroke="rgb(204, 204, 204)" stroke-width="1px"></line><line x1="30.766000747680664" y1="117.9333330790202" x2="25.766000747680664" y2="117.9333330790202" style="visibility: inherit;" fill="rgb(0, 0, 0)" stroke="rgb(204, 204, 204)" stroke-width="1px"></line><line x1="30.766000747680664" y1="103.19166644414264" x2="25.766000747680664" y2="103.19166644414264" style="visibility: inherit;" fill="rgb(0, 0, 0)" stroke="rgb(204, 204, 204)" stroke-width="1px"></line><line x1="30.766000747680664" y1="88.44999980926514" x2="25.766000747680664" y2="88.44999980926514" style="visibility: inherit;" fill="rgb(0, 0, 0)" stroke="rgb(204, 204, 204)" stroke-width="1px"></line><line x1="30.766000747680664" y1="73.7083331743876" x2="25.766000747680664" y2="73.7083331743876" style="visibility: inherit;" fill="rgb(0, 0, 0)" stroke="rgb(204, 204, 204)" stroke-width="1px"></line><line x1="30.766000747680664" y1="58.9666665395101" x2="25.766000747680664" y2="58.9666665395101" style="visibility: inherit;" fill="rgb(0, 0, 0)" stroke="rgb(204, 204, 204)" stroke-width="1px"></line><line x1="30.766000747680664" y1="44.22499990463257" x2="25.766000747680664" y2="44.22499990463257" style="visibility: inherit;" fill="rgb(0, 0, 0)" stroke="rgb(204, 204, 204)" stroke-width="1px"></line><line x1="30.766000747680664" y1="29.48333326975504" x2="25.766000747680664" y2="29.48333326975504" style="visibility: inherit;" fill="rgb(0, 0, 0)" stroke="rgb(204, 204, 204)" stroke-width="1px"></line><line x1="30.766000747680664" y1="14.741666634877529" x2="25.766000747680664" y2="14.741666634877529" style="visibility: inherit;" fill="rgb(0, 0, 0)" stroke="rgb(204, 204, 204)" stroke-width="1px"></line><line x1="30.766000747680664" y1="0" x2="25.766000747680664" y2="0" style="visibility: inherit;" fill="rgb(0, 0, 0)" stroke="rgb(204, 204, 204)" stroke-width="1px"></line></g><g transform="translate(20.766000747680664, 0)"><text style="text-anchor: end; visibility: hidden; font-family: Roboto, sans-serif; font-size: 12px; font-weight: 200;" x="0" y="176.89999961853027" dx="0em" dy="0.3em" fill="rgb(33, 33, 33)" stroke="none" stroke-width="1px">17</text><text style="text-anchor: end; visibility: inherit; font-family: Roboto, sans-serif; font-size: 12px; font-weight: 200;" x="0" y="162.15833298365274" dx="0em" dy="0.3em" fill="rgb(33, 33, 33)" stroke="none" stroke-width="1px">18</text><text style="text-anchor: end; visibility: hidden; font-family: Roboto, sans-serif; font-size: 12px; font-weight: 200;" x="0" y="147.41666634877524" dx="0em" dy="0.3em" fill="rgb(33, 33, 33)" stroke="none" stroke-width="1px">19</text><text style="text-anchor: end; visibility: inherit; font-family: Roboto, sans-serif; font-size: 12px; font-weight: 200;" x="0" y="132.6749997138977" dx="0em" dy="0.3em" fill="rgb(33, 33, 33)" stroke="none" stroke-width="1px">20</text><text style="text-anchor: end; visibility: hidden; font-family: Roboto, sans-serif; font-size: 12px; font-weight: 200;" x="0" y="117.9333330790202" dx="0em" dy="0.3em" fill="rgb(33, 33, 33)" stroke="none" stroke-width="1px">21</text><text style="text-anchor: end; visibility: inherit; font-family: Roboto, sans-serif; font-size: 12px; font-weight: 200;" x="0" y="103.19166644414264" dx="0em" dy="0.3em" fill="rgb(33, 33, 33)" stroke="none" stroke-width="1px">22</text><text style="text-anchor: end; visibility: hidden; font-family: Roboto, sans-serif; font-size: 12px; font-weight: 200;" x="0" y="88.44999980926514" dx="0em" dy="0.3em" fill="rgb(33, 33, 33)" stroke="none" stroke-width="1px">23</text><text style="text-anchor: end; visibility: inherit; font-family: Roboto, sans-serif; font-size: 12px; font-weight: 200;" x="0" y="73.7083331743876" dx="0em" dy="0.3em" fill="rgb(33, 33, 33)" stroke="none" stroke-width="1px">24</text><text style="text-anchor: end; visibility: hidden; font-family: Roboto, sans-serif; font-size: 12px; font-weight: 200;" x="0" y="58.9666665395101" dx="0em" dy="0.3em" fill="rgb(33, 33, 33)" stroke="none" stroke-width="1px">25</text><text style="text-anchor: end; visibility: inherit; font-family: Roboto, sans-serif; font-size: 12px; font-weight: 200;" x="0" y="44.22499990463257" dx="0em" dy="0.3em" fill="rgb(33, 33, 33)" stroke="none" stroke-width="1px">26</text><text style="text-anchor: end; visibility: hidden; font-family: Roboto, sans-serif; font-size: 12px; font-weight: 200;" x="0" y="29.48333326975504" dx="0em" dy="0.3em" fill="rgb(33, 33, 33)" stroke="none" stroke-width="1px">27</text><text style="text-anchor: end; visibility: inherit; font-family: Roboto, sans-serif; font-size: 12px; font-weight: 200;" x="0" y="14.741666634877529" dx="0em" dy="0.3em" fill="rgb(33, 33, 33)" stroke="none" stroke-width="1px">28</text><text style="text-anchor: end; visibility: hidden; font-family: Roboto, sans-serif; font-size: 12px; font-weight: 200;" x="0" y="0" dx="0em" dy="0.3em" fill="rgb(33, 33, 33)" stroke="none" stroke-width="1px">29</text></g><line x1="30.766000747680664" y1="0" x2="30.766000747680664" y2="176.89999961853027" fill="rgb(0, 0, 0)" stroke="rgb(204, 204, 204)" stroke-width="1px"></line></g></g><g transform="translate(30, 0)" clip-path="url(#clip_0)"><clipPath id="clip_0"><rect width="299" height="176"></rect></clipPath><g><g><g><line x1="0" y1="0" x2="0" y2="176.89999961853027" fill="rgb(0, 0, 0)" stroke="rgb(66, 66, 66)" stroke-width="1px" opacity="0.25"></line><line x1="29.923399925231934" y1="0" x2="29.923399925231934" y2="176.89999961853027" fill="rgb(0, 0, 0)" stroke="rgb(66, 66, 66)" stroke-width="1px" opacity="0.25"></line><line x1="59.84679985046387" y1="0" x2="59.84679985046387" y2="176.89999961853027" fill="rgb(0, 0, 0)" stroke="rgb(66, 66, 66)" stroke-width="1px" opacity="0.25"></line><line x1="89.7701997756958" y1="0" x2="89.7701997756958" y2="176.89999961853027" fill="rgb(0, 0, 0)" stroke="rgb(66, 66, 66)" stroke-width="1px" opacity="0.25"></line><line x1="119.69359970092773" y1="0" x2="119.69359970092773" y2="176.89999961853027" fill="rgb(0, 0, 0)" stroke="rgb(66, 66, 66)" stroke-width="1px" opacity="0.25"></line><line x1="149.61699962615967" y1="0" x2="149.61699962615967" y2="176.89999961853027" fill="rgb(0, 0, 0)" stroke="rgb(66, 66, 66)" stroke-width="1px" opacity="0.25"></line><line x1="179.5403995513916" y1="0" x2="179.5403995513916" y2="176.89999961853027" fill="rgb(0, 0, 0)" stroke="rgb(66, 66, 66)" stroke-width="1px" opacity="0.25"></line><line x1="209.46379947662354" y1="0" x2="209.46379947662354" y2="176.89999961853027" fill="rgb(0, 0, 0)" stroke="rgb(66, 66, 66)" stroke-width="1px" opacity="0.25"></line><line x1="239.38719940185547" y1="0" x2="239.38719940185547" y2="176.89999961853027" fill="rgb(0, 0, 0)" stroke="rgb(66, 66, 66)" stroke-width="1px" opacity="0.25"></line><line x1="269.3105993270874" y1="0" x2="269.3105993270874" y2="176.89999961853027" fill="rgb(0, 0, 0)" stroke="rgb(66, 66, 66)" stroke-width="1px" opacity="0.25"></line><line x1="299.23399925231934" y1="0" x2="299.23399925231934" y2="176.89999961853027" fill="rgb(0, 0, 0)" stroke="rgb(66, 66, 66)" stroke-width="1px" opacity="0.25"></line></g><g><line x1="0" y1="176.89999961853027" x2="299.23399925231934" y2="176.89999961853027" fill="rgb(0, 0, 0)" stroke="rgb(66, 66, 66)" stroke-width="1px" opacity="0.25"></line><line x1="0" y1="162.15833298365274" x2="299.23399925231934" y2="162.15833298365274" fill="rgb(0, 0, 0)" stroke="rgb(66, 66, 66)" stroke-width="1px" opacity="0.25"></line><line x1="0" y1="147.41666634877524" x2="299.23399925231934" y2="147.41666634877524" fill="rgb(0, 0, 0)" stroke="rgb(66, 66, 66)" stroke-width="1px" opacity="0.25"></line><line x1="0" y1="132.6749997138977" x2="299.23399925231934" y2="132.6749997138977" fill="rgb(0, 0, 0)" stroke="rgb(66, 66, 66)" stroke-width="1px" opacity="0.25"></line><line x1="0" y1="117.9333330790202" x2="299.23399925231934" y2="117.9333330790202" fill="rgb(0, 0, 0)" stroke="rgb(66, 66, 66)" stroke-width="1px" opacity="0.25"></line><line x1="0" y1="103.19166644414264" x2="299.23399925231934" y2="103.19166644414264" fill="rgb(0, 0, 0)" stroke="rgb(66, 66, 66)" stroke-width="1px" opacity="0.25"></line><line x1="0" y1="88.44999980926514" x2="299.23399925231934" y2="88.44999980926514" fill="rgb(0, 0, 0)" stroke="rgb(66, 66, 66)" stroke-width="1px" opacity="0.25"></line><line x1="0" y1="73.7083331743876" x2="299.23399925231934" y2="73.7083331743876" fill="rgb(0, 0, 0)" stroke="rgb(66, 66, 66)" stroke-width="1px" opacity="0.25"></line><line x1="0" y1="58.9666665395101" x2="299.23399925231934" y2="58.9666665395101" fill="rgb(0, 0, 0)" stroke="rgb(66, 66, 66)" stroke-width="1px" opacity="0.25"></line><line x1="0" y1="44.22499990463257" x2="299.23399925231934" y2="44.22499990463257" fill="rgb(0, 0, 0)" stroke="rgb(66, 66, 66)" stroke-width="1px" opacity="0.25"></line><line x1="0" y1="29.48333326975504" x2="299.23399925231934" y2="29.48333326975504" fill="rgb(0, 0, 0)" stroke="rgb(66, 66, 66)" stroke-width="1px" opacity="0.25"></line><line x1="0" y1="14.741666634877529" x2="299.23399925231934" y2="14.741666634877529" fill="rgb(0, 0, 0)" stroke="rgb(66, 66, 66)" stroke-width="1px" opacity="0.25"></line><line x1="0" y1="0" x2="299.23399925231934" y2="0" fill="rgb(0, 0, 0)" stroke="rgb(66, 66, 66)" stroke-width="1px" opacity="0.25"></line></g></g></g><g><g><line x1="0" y1="427.50833241144824" x2="299.23399925231934" y2="427.50833241144824" fill="rgb(0, 0, 0)" stroke="rgb(153, 153, 153)" stroke-width="1.5px"></line></g></g><g><g><line x1="29.923399925231934" y1="0" x2="29.923399925231934" y2="176.89999961853027" fill="rgb(0, 0, 0)" stroke="rgb(153, 153, 153)" stroke-width="1.5px"></line></g></g><g><g><g><g><g><path style="fill: none;" stroke="rgb(0, 153, 136)" stroke-width="2px" d="M29.923399925231934,9.222989126026132L30.315611912731935,9.373294724676239L30.707823900231933,9.450207198777754L31.10003588773193,9.568827628498553L31.492247875231932,9.541366713522502L31.884459862731934,9.436297569309215L32.276671850231935,9.367770890016613L32.66888383773193,9.201867210271267L33.06109582523194,8.90924279201527L33.453307812731936,8.716715481498637L33.84551980023193,8.517027598368626L34.23773178773194,8.264867041439313L34.62994377523193,8.091962131909094L35.022155762731934,7.9369810115404364L35.41436775023193,7.940355946955046L35.80657973773193,8.024787408668306L36.198791725231935,8.125117444115231L36.59100371273193,8.445507851426537L36.98321570023193,8.89150277436725L37.375427687731936,9.567104637716808L37.76763967523193,10.275169567690877L38.15985166273193,11.06872505565965L38.552063650231936,11.920999271445856L38.944275637731934,12.73003522843668L39.33648762523194,13.493334745476263L39.72869961273193,14.275789543816776L40.120911600231935,14.947617783163263L40.51312358773193,15.48772531363788L40.90533557523193,16.05178942145904L41.297547562731935,16.454853024142356L41.68975955023193,16.933564207779657L42.08197153773194,17.394928177946444L42.47418352523193,17.943867692295314L42.866395512731934,18.50455966784529L43.25860750023193,19.075969645722992L43.65081948773194,19.747486683684343L44.043031475231935,20.37738383887694L44.43524346273194,21.02843300918521L44.82745545023193,21.677923441237926L45.21966743773193,22.442142769426876L45.61187942523193,23.16116611160039L46.00409141273193,23.904470648188564L46.396303400231936,24.750239199345785L46.788515387731934,25.677888215606494L47.18072737523194,26.456752068112397L47.57293936273193,27.20224240784109L47.965151350231935,27.85489556786818L48.35736333773193,28.55365425576501L48.74957532523194,29.3442741311392L49.141787312731935,30.071129938718553L49.53399930023193,30.788463388274252L49.92621128773194,31.419824837577625L50.31842327523193,31.941062456515805L50.710635262731934,32.49722382897908L51.10284725023193,33.08333705282196L51.49505923773194,33.722242096646035L51.887271225231935,34.293454995582145L52.27948321273194,34.890837288125944L52.67169520023193,35.48277685856278L53.06390718773193,36.06883024494985L53.45611917523193,36.4862909624006L53.84833116273193,36.89413540400632L54.240543150231936,37.28627897991685L54.632755137731934,37.677189851740955L55.02496712523194,38.06274983149014L55.41717911273193,38.377830974493534L55.809391100231935,38.72180707263033L56.20160308773193,39.08235534790967L56.59381507523194,39.474351191716664L56.986027062731935,39.95565553188174L57.37823905023193,40.37385735440085L57.77045103773193,40.84732281871946L58.16266302523193,41.33660359553551L58.554875012731934,41.718989613364435L58.94708700023193,42.136133638716366L59.33929898773194,42.45347466244582L59.731510975231934,42.701351441985196L60.12372296273194,42.994455236906056L60.51593495023193,43.36998548853581L60.908146937731935,43.83583196185061L61.30035892523193,44.33709692671103L61.69257091273193,44.86591130598385L62.084782900231936,45.42809209152772L62.476994887731934,45.95861276005911L62.86920687523194,46.54582966219514L63.26141886273193,47.07949516965272L63.653630850231934,47.567308501424904L64.04584283773194,48.0007864349787L64.43805482523193,48.41842115823152L64.83026681273194,48.882425046736024L65.22247880023193,49.37481278434551L65.61469078773193,49.79768517349308L66.00690277523194,50.170008212286184L66.39911476273194,50.641128437310584L66.79132675023193,51.11917219335367L67.18353873773194,51.54522504859788L67.57575072523193,51.92513610158463L67.96796271273193,52.35258200306768L68.36017470023194,52.75957937965188L68.75238668773194,53.24392372997057L69.14459867523193,53.743072197113584L69.53681066273192,54.229418920123955L69.92902265023193,54.66986729377887L70.32123463773193,55.178409891002616L70.71344662523194,55.76517155331327L71.10565861273193,56.29889007984892L71.49787060023193,56.75673947652014L71.89008258773194,57.1541313804937L72.28229457523193,57.77099430094154L72.67450656273193,58.33394185244651L73.06671855023194,58.774193038971625L73.45893053773193,59.20656511613468L73.85114252523194,59.648223488534875L74.24335451273194,59.96352633886238L74.63556650023193,60.190981586930064L75.02777848773192,60.45949450497649L75.41999047523194,60.81240857812428L75.81220246273193,61.233306216915175L76.20441445023194,61.56386523281154L76.59662643773193,61.9225041202447L76.98883842523195,62.29449311388582L77.38105041273194,62.598867349434L77.77326240023193,63.0121228539089L78.16547438773193,63.433403659424485L78.55768637523192,63.84028977113481L78.94989836273194,64.22864170737105L79.34211035023193,64.58146715031802L79.73432233773192,65.02255620933343L80.12653432523193,65.48520181655692L80.51874631273193,65.86392219662349L80.91095830023194,66.18404339006982L81.30317028773193,66.54136826362833L81.69538227523194,66.82368381521096L82.08759426273193,67.03882593842027L82.47980625023195,67.19742333793324L82.87201823773194,67.38586438801528L83.26423022523193,67.66951225311942L83.65644221273193,68.07683270079647L84.04865420023194,68.49593585312023L84.44086618773194,68.8719245183345L84.83307817523193,69.23740789202712L85.22529016273192,69.58885015543929L85.61750215023194,69.89243577390678L86.00971413773193,70.27219691883283L86.40192612523194,70.55118246360867L86.79413811273193,70.85374022542443L87.18635010023193,71.21097550215042L87.57856208773194,71.60348038062125L87.97077407523193,71.92044532204427L88.36298606273193,72.27366078556996L88.75519805023193,72.58962480518058L89.14741003773194,72.94326319253516L89.53962202523194,73.37594364192238L89.93183401273194,73.73838322414828L90.32404600023193,74.0316292532887L90.71625798773192,74.3596700393394L91.10846997523194,74.70108593114954L91.50068196273193,75.08812560434171L91.89289395023194,75.48492674580291L92.28510593773193,75.84507111170102L92.67731792523195,76.23025636241617L93.06952991273194,76.57610939746515L93.46174190023193,76.9328014142992L93.85395388773193,77.27505490791624L94.24616587523192,77.56206021741131L94.63837786273194,77.783075379118L95.03058985023193,77.96100988243668L95.42280183773192,78.1937482211293L95.81501382523193,78.50625760021316L96.20722581273193,78.8316401893921L96.59943780023194,79.11792544745575L96.99164978773193,79.44660348646687L97.38386177523194,79.74269392578984L97.77607376273194,80.04583095812552L98.16828575023195,80.41193902246661L98.56049773773194,80.74574965473987L98.95270972523193,81.05799990995084L99.34492171273193,81.38411553773341L99.73713370023194,81.70751708296096L100.12934568773194,81.99791105122065L100.52155767523193,82.27063740312498L100.91376966273192,82.55480730341401L101.30598165023194,82.86171284843645L101.69819363773193,83.15729144234017L102.09040562523194,83.41321013425923L102.48261761273193,83.69390867401651L102.87482960023192,83.9661713403817L103.26704158773194,84.24567669970584L103.65925357523193,84.55457474175769L104.05146556273193,84.92707487868846L104.44367755023193,85.31520853338827L104.83588953773194,85.74698065794881L105.22810152523193,86.14308861648186L105.62031351273194,86.56243741474907L106.01252550023193,86.96013396476691L106.40473748773192,87.29462131494029L106.79694947523194,87.63177356488882L107.18916146273193,87.89793662263646L107.58137345023194,88.14666570200681L107.97358543773193,88.4799602895825L108.36579742523195,88.81729664189879L108.75800941273194,89.11307103965538L109.15022140023193,89.43198918574562L109.54243338773193,89.75329914777569L109.93464537523194,90.04266310609854L110.32685736273194,90.27551942524964L110.71906935023193,90.53226948917263L111.11128133773192,90.803524504945L111.50349332523193,91.09326738102706L111.89570531273193,91.42713540959454L112.28791730023194,91.73902645761423L112.68012928773193,92.05325217603644L113.07234127523193,92.345552420607L113.46455326273194,92.60485767448856L113.85676525023193,92.884618943666L114.24897723773194,93.1078896696424L114.64118922523193,93.33239044782681L115.03340121273193,93.58746754589674L115.42561320023194,93.82398903191464L115.81782518773194,94.01979754311945L116.21003717523193,94.19780275189488L116.60224916273192,94.37744144320585L116.99446115023194,94.62744296136617L117.38667313773193,94.94267353575493L117.77888512523194,95.2490056108077L118.17109711273193,95.60397293484647L118.56330910023192,95.87997026511809L118.95552108773194,96.10506528841722L119.34773307523193,96.33634037953094L119.73994506273193,96.63877176481958L120.13215705023192,96.88428225575652L120.52436903773194,97.11929264914896L120.91658102523193,97.4127182167242L121.30879301273193,97.71243431216021L121.70100500023193,98.02576584850814L122.09321698773194,98.36906333362131L122.48542897523194,98.6735317956377L122.87764096273193,99.02590759497508L123.26985295023194,99.39430744074501L123.66206493773193,99.68147970280063L124.05427692523195,99.97392350421258L124.44648891273194,100.31382091161763L124.83870090023193,100.61606937502388L125.23091288773193,100.84882848586486L125.62312487523194,100.99103702116076L126.01533686273194,101.15439382195929L126.40754885023193,101.43835453823733L126.79976083773192,101.77211612364755L127.19197282523193,102.11545739719665L127.58418481273193,102.43817227078506L127.97639680023194,102.70960793457749L128.36860878773194,103.01045876457238L128.76082077523193,103.35627765505545L129.15303276273195,103.71526606696044L129.54524475023194,104.03608848348473L129.93745673773194,104.31556622428832L130.32966872523193,104.6082520165519L130.72188071273192,104.8933980159557L131.11409270023194,105.14418185108282L131.50630468773193,105.38842963049285L131.89851667523192,105.6153268595704L132.29072866273194,105.80953345326989L132.68294065023193,106.0312843328874L133.07515263773195,106.2471577618871L133.46736462523194,106.43414273758954L133.85957661273193,106.61797710715423L134.25178860023195,106.79862770814199L134.64400058773194,106.9220328125072L135.03621257523193,107.0559773922294L135.42842456273192,107.19919237092492L135.82063655023194,107.41031170490797L136.21284853773193,107.65577410958673L136.60506052523195,107.838783268473L136.99727251273194,108.04812470566768L137.38948450023193,108.2315391432586L137.78169648773195,108.38287553943795L138.17390847523194,108.48422706228307L138.56612046273193,108.57494374654542L138.95833245023192,108.72111552860295L139.3505444377319,108.87832505215538L139.74275642523193,108.99268167164934L140.13496841273192,109.09471047761406L140.52718040023194,109.20658424505179L140.91939238773193,109.35202136011236L141.31160437523195,109.55413798375947L141.70381636273194,109.75806215419074L142.09602835023193,109.93714651981188L142.48824033773192,110.13042298916837L142.88045232523194,110.40392558690372L143.27266431273193,110.71128017283407L143.66487630023192,110.97757107769883L144.05708828773194,111.19606620281728L144.44930027523193,111.40251817172812L144.84151226273195,111.6470021712146L145.23372425023194,111.84655346658514L145.62593623773193,112.07705593775198L146.01814822523193,112.32040439186451L146.41036021273194,112.57158415273442L146.80257220023194,112.8208269682012L147.19478418773193,113.11653865753232L147.58699617523192,113.34438596800909L147.97920816273194,113.55004970565813L148.37142015023193,113.74409034947259L148.76363213773195,113.92321675563538L149.15584412523194,114.14551321294654L149.54805611273193,114.38089012199488L149.94026810023195,114.60473672266974L150.33248008773194,114.80748267247985L150.72469207523193,114.99507139797528L151.11690406273192,115.15485078241178L151.50911605023194,115.28405451834851L151.90132803773193,115.42009489612673L152.29354002523192,115.59469806419273L152.68575201273194,115.78883986672557L153.07796400023193,115.93276762600186L153.47017598773195,116.0949403023697L153.86238797523194,116.30385912706596L154.25459996273193,116.54401978849805L154.64681195023192,116.76911707273557L155.0390239377319,116.97729218430081L155.43123592523193,117.13073088790735L155.82344791273192,117.24252134645856L156.21565990023194,117.35153568116073L156.60787188773193,117.4420813249271L157.00008387523195,117.5264831867284L157.39229586273194,117.6590137041147L157.78450785023193,117.80416950118068L158.17671983773192,117.86984869317091L158.5689318252319,117.92860104678356L158.96114381273193,118.02355153007082L159.35335580023195,118.17440052136865L159.74556778773194,118.31867057175243L160.13777977523193,118.45635021280387L160.52999176273195,118.60501162303486L160.92220375023194,118.75354763632251L161.31441573773193,118.88134767413314L161.70662772523193,119.04286381088424L162.09883971273192,119.19402901649957L162.4910517002319,119.33972596537271L162.88326368773195,119.49302905531059L163.27547567523195,119.65191930680353L163.66768766273194,119.82408170841867L164.05989965023193,119.99301663602193L164.45211163773195,120.13771228004128L164.84432362523194,120.23817227633765L165.23653561273193,120.35187151974812L165.62874760023192,120.49891003535097L166.0209595877319,120.64586497391147L166.41317157523196,120.80187983550168L166.80538356273195,120.96499520677374L167.19759555023194,121.0875515925188L167.58980753773193,121.22257276793924L167.98201952523195,121.40027592428714L168.37423151273194,121.58053192107636L168.76644350023193,121.77565856303988L169.15865548773192,121.95557153208111L169.5508674752319,122.12481545849488L169.94307946273196,122.29950104936408L170.33529145023195,122.43893066705557L170.72750343773194,122.53080999399842L171.11971542523193,122.63110553847159L171.51192741273192,122.74148946905115L171.90413940023194,122.86077192206196L172.29635138773193,123.0268274331442L172.68856337523192,123.2085638330817L173.0807753627319,123.4215391915477L173.47298735023196,123.68733633234493L173.86519933773195,123.88296247186815L174.25741132523194,124.06509837628802L174.64962331273193,124.28095648222734L175.04183530023192,124.45016200554625L175.43404728773194,124.56656509932114L175.82625927523193,124.66237627646314L176.21847126273192,124.72980532993556L176.61068325023192,124.82084051688429L177.00289523773193,124.91010238622172L177.39510722523195,125.05208341459556L177.78731921273194,125.24442219186044L178.17953120023193,125.43559649102508L178.57174318773193,125.67839314305239L178.96395517523192,126.00501285547693L179.35616716273194,126.35595708326275L179.74837915023193,126.639640360957L180.14059113773192,126.8887030381274L180.53280312523194,127.13841888823193L180.92501511273196,127.36198372426685L181.31722710023195,127.5331252528628L181.70943908773194,127.70639633625005L182.10165107523193,127.8777847457704L182.49386306273192,128.1016242545903L182.88607505023194,128.37154427479572L183.27828703773193,128.6195695708826L183.67049902523195,128.80978495215024L184.06271101273194,128.98230860013712L184.45492300023193,129.12816774046757L184.84713498773195,129.25270834563906L185.23934697523194,129.40793872816062L185.63155896273193,129.58894976149006L186.02377095023192,129.77284379333304L186.4159829377319,129.96113316306617L186.80819492523193,130.18126819214564L187.20040691273195,130.3815397650188L187.59261890023194,130.58632512982487L187.98483088773193,130.80644914975815L188.37704287523195,130.9932402122451L188.76925486273194,131.15606130958875L189.16146685023193,131.32900763884297L189.55367883773192,131.53467324806545L189.9458908252319,131.7937226695096L190.33810281273193,132.05467166774997L190.73031480023195,132.3207418497426L191.12252678773194,132.54802341140868L191.51473877523193,132.7350825732644L191.90695076273192,132.89339702561094L192.29916275023194,133.06673229261403L192.69137473773193,133.28688121232088L193.08358672523192,133.49137874422567L193.47579871273192,133.6679166479672L193.8680107002319,133.86892152043922L194.26022268773195,134.07337082206803L194.65243467523194,134.24628074793824L195.04464666273194,134.39503719378075L195.43685865023193,134.53220327736946L195.82907063773195,134.6244677687081L196.22128262523194,134.72112544413505L196.61349461273193,134.8397751154328L197.00570660023192,134.95454703964853L197.3979185877319,135.07208720619872L197.79013057523196,135.19428001990494L198.18234256273195,135.3054306130357L198.57455455023194,135.45209837937605L198.96676653773193,135.67899947782524L199.35897852523192,135.92635046380335L199.75119051273194,136.11606003601403L200.14340250023193,136.29821129875492L200.53561448773192,136.53183763123505L200.9278264752319,136.76512733611116L201.32003846273196,136.97566483126826L201.71225045023195,137.14170048211602L202.10446243773194,137.31415743867035L202.49667442523193,137.53412802907948L202.88888641273192,137.7323552079095L203.28109840023194,137.92175396444725L203.67331038773193,138.0694491315858L204.06552237523192,138.20327916817283L204.45773436273194,138.36148515275613L204.84994635023196,138.52540908286534L205.24215833773195,138.67406002081918L205.63437032523194,138.88062426599623L206.02658231273193,139.12678395211097L206.41879430023192,139.330343608213L206.8110062877319,139.47445603807762L207.20321827523193,139.61255846877526L207.59543026273192,139.74219619636992L207.98764225023194,139.8859424825342L208.37985423773193,140.0391323927603L208.77206622523195,140.24996086017478L209.16427821273194,140.47985160317106L209.55649020023193,140.73950107301872L209.94870218773193,140.99904432144552L210.34091417523192,141.2106228679357L210.73312616273193,141.37535991274052L211.12533815023193,141.52650068534803L211.51755013773194,141.6940471406291L211.90976212523194,141.8696599796596L212.30197411273195,142.04562509630662L212.69418610023195,142.22095805459247L213.08639808773194,142.3902207363269L213.47861007523193,142.53686756468153L213.87082206273192,142.6584054599516L214.2630340502319,142.80951733472176L214.65524603773193,142.96538331325388L215.04745802523195,143.07487363906756L215.43967001273194,143.21812714021527L215.83188200023193,143.38217840251943L216.22409398773195,143.50982886351315L216.61630597523194,143.61509898776487L217.00851796273193,143.73751025347235L217.40072995023192,143.89793005678678L217.7929419377319,144.0335126945602L218.18515392523193,144.20652531973084L218.57736591273195,144.3876560135121L218.96957790023194,144.54636108169123L219.36178988773193,144.68524497302948L219.75400187523195,144.8365521702753L220.14621386273194,145.04006516040732L220.53842585023193,145.2213321696503L220.93063783773192,145.41673925611278L221.3228498252319,145.61289245353947L221.71506181273193,145.79770646250833L222.10727380023195,145.96290662644964L222.49948578773194,146.16750108219202L222.89169777523193,146.40974587386935L223.28390976273192,146.5964929524913L223.67612175023194,146.7056394739017L224.06833373773193,146.82735113515164L224.46054572523192,146.9518443996943L224.85275771273191,147.10602290092223L225.2449697002319,147.29890946845302L225.63718168773195,147.57917375852108L226.02939367523194,147.83625110729284L226.42160566273193,148.06884411215117L226.81381765023193,148.3394274543547L227.20602963773194,148.59777059682946L227.59824162523194,148.85534911392907L227.99045361273193,149.09875876392434L228.38266560023192,149.32573795930526L228.77487758773194,149.57009911369065L229.16708957523196,149.82379848456796L229.55930156273195,150.02058996445064L229.95151355023194,150.18235944380825L230.34372553773193,150.37218637983926L230.73593752523192,150.58479745238805L231.12814951273194,150.75539511439956L231.52036150023193,150.88312694153217L231.91257348773192,151.03164560893563L232.30478547523194,151.2170648625046L232.69699746273196,151.4281447784851L233.08920945023195,151.6423618629146L233.48142143773194,151.8592710323474L233.87363342523193,152.0553239486192L234.26584541273192,152.26302166701942L234.65805740023194,152.4509609028832L235.05026938773193,152.61638289409663L235.44248137523192,152.80782774028808L235.83469336273194,152.95619945826394L236.22690535023193,153.1130193995071L236.61911733773195,153.33958976642296L237.01132932523194,153.57163759371593L237.40354131273193,153.77489545585732L237.79575330023192,153.95127440169304L238.1879652877319,154.18675717459521L238.58017727523193,154.4152673162063L238.97238926273192,154.59225525991263L239.36460125023194,154.76859555940192L239.75681323773193,154.95466957153346L240.14902522523195,155.11639686571817L240.54123721273194,155.28031914576113L240.93344920023193,155.44319654751203L241.32566118773192,155.62752488148297L241.71787317523192,155.8285927424696L242.11008516273193,156.01923478133898L242.50229715023193,156.1784280489976L242.89450913773194,156.27961249712934L243.28672112523194,156.38461384838766L243.67893311273195,156.51078905297817L244.07114510023194,156.62595989550618L244.46335708773194,156.7382958654887L244.85556907523193,156.86409186670448L245.24778106273192,157.021380138746L245.6399930502319,157.17472111815027L246.03220503773193,157.33562482216044L246.42441702523195,157.50937769325458L246.81662901273194,157.69807188500798L247.20884100023193,157.8764197717355L247.60105298773195,158.00137871430465L247.99326497523194,158.0915037876076L248.38547696273193,158.19504313354577L248.77768895023192,158.35091047844514L249.1699009377319,158.48298559823291L249.56211292523193,158.61418055885872L249.95432491273195,158.77037811190021L250.34653690023194,158.9564570001747L250.73874888773193,159.1659644721394L251.13096087523195,159.38958532931366L251.52317286273194,159.57169255369948L251.91538485023193,159.73881145160146L252.30759683773192,159.90575500089216L252.6998088252319,160.0501218368532L253.09202081273196,160.18761211527126L253.48423280023195,160.36877620525593L253.87644478773194,160.5173452709873L254.26865677523193,160.66167573491447L254.66086876273192,160.85470436557011L255.05308075023194,161.0940135938681L255.44529273773193,161.3173628483263L255.83750472523192,161.54618460325034L256.22971671273194,161.80926409392183L256.62192870023193,162.03150085806095L257.0141406877319,162.22061678498494L257.4063526752319,162.41048720589356L257.79856466273196,162.5700047927114L258.19077665023195,162.73366971324685L258.58298863773194,162.92783930872258L258.97520062523193,163.15879052865188L259.3674126127319,163.3697806876892L259.7596246002319,163.59264909524123L260.15183658773196,163.78042321735361L260.54404857523195,163.89610188637465L260.93626056273195,164.01299391790542L261.32847255023194,164.08314038382295L261.7206845377319,164.1312903958779L262.1128965252319,164.23782968476306L262.5051085127319,164.3437270586628L262.8973205002319,164.48723164646552L263.28953248773195,164.65965511709044L263.68174447523194,164.8732060734651L264.0739564627319,165.03716958636053L264.4661684502319,165.18188533030968L264.8583804377319,165.36668738567002L265.25059242523196,165.59746162908507L265.64280441273195,165.78768486490281L266.03501640023194,165.96335113836327L266.42722838773193,166.1483571619317L266.8194403752319,166.31017471791876L267.21165236273197,166.49444074138452L267.60386435023196,166.6650255895569L267.99607633773195,166.85939944493748L268.38828832523194,167.02537559013138L268.78050031273193,167.1651917929589L269.1727123002319,167.34137438911048L269.5649242877319,167.57706551517558L269.9571362752319,167.81649778780172L270.3493482627319,167.99239105074233L270.74156025023194,168.10212213916375L271.13377223773193,168.2059419081117L271.5259842252319,168.36156136785095L271.9181962127319,168.50661300446967L272.3104082002319,168.65297190659092" fill="none"></path></g></g></g></g><g opacity="0.2"><g><g><g><path style="fill: none;" stroke="rgb(0, 153, 136)" stroke-width="2px" d="M29.923399925231934,9.222989126026132L30.315611912731935,9.463478083866303L30.707823900231933,9.524043173915143L31.10003588773193,9.70832525385018L31.492247875231932,9.505513742929907L31.884459862731934,9.290949117970431L32.276671850231935,9.269776642201268L32.66888383773193,8.95997805252713L33.06109582523194,8.477678614454817L33.453307812731936,8.430834863284272L33.84551980023193,8.219306928076549L34.23773178773194,7.8879984526608125L34.62994377523193,7.83316933214306L35.022155762731934,7.7048129551361315L35.41436775023193,7.945414382967101L35.80657973773193,8.151375053629945L36.198791725231935,8.275570040977072L36.59100371273193,8.92601211530382L36.98321570023193,9.560427215940763L37.375427687731936,10.580445680054854L37.76763967523193,11.337228130688345L38.15985166273193,12.259032175331413L38.552063650231936,13.199393768457412L38.944275637731934,13.943579580120659L39.33648762523194,14.638278595829433L39.72869961273193,15.449468404515155L40.120911600231935,15.955358423158941L40.51312358773193,16.29788578015754L40.90533557523193,16.897885063607955L41.297547562731935,17.05944820540026L41.68975955023193,17.651630824489676L42.08197153773194,18.086974041400627L42.47418352523193,18.767276898286273L42.866395512731934,19.3455975910089L43.25860750023193,19.933084587982194L43.65081948773194,20.754762223310536L44.043031475231935,21.322229561920413L44.43524346273194,22.005006758603795L44.82745545023193,22.652159085699477L45.21966743773193,23.588471759156473L45.61187942523193,24.239701123418854L46.00409141273193,25.019427452176696L46.396303400231936,26.01889202547105L46.788515387731934,27.069361739595788L47.18072737523194,27.625047846668767L47.57293936273193,28.320477917317785L47.965151350231935,28.833875307847848L48.35736333773193,29.601792287571097L48.74957532523194,30.53020394417399L49.141787312731935,31.161413650072973L49.53399930023193,31.864463562599067L49.92621128773194,32.36686701152789L50.31842327523193,32.72291888492086L50.710635262731934,33.33146588767249L51.10284725023193,33.96250688858527L51.49505923773194,34.68059966238161L51.887271225231935,35.150274343985984L52.27948321273194,35.78691072694133L52.67169520023193,36.37068621421804L53.06390718773193,36.94791032453031L53.45611917523193,37.11248203857667L53.84833116273193,37.50590206641482L54.240543150231936,37.87449434378263L54.632755137731934,38.26355615947705L55.02496712523194,38.64108980111391L55.41717911273193,38.850452688998615L55.809391100231935,39.23777121983554L56.20160308773193,39.62317776082878L56.59381507523194,40.06234495742714L56.986027062731935,40.677612042129425L57.37823905023193,41.001160088179546L57.77045103773193,41.55752101519738L58.16266302523193,42.07052476075964L58.554875012731934,42.292568640107675L58.94708700023193,42.76184967674422L59.33929898773194,42.92948619804005L59.731510975231934,43.073166611294255L60.12372296273194,43.43411092928727L60.51593495023193,43.933280865980436L60.908146937731935,44.5346016718228L61.30035892523193,45.088994374001544L61.69257091273193,45.65913287489306L62.084782900231936,46.27136326984359L62.476994887731934,46.754393762856125L62.86920687523194,47.42665501539918L63.26141886273193,47.87999343083902L63.653630850231934,48.299028499083164L64.04584283773194,48.65100333530941L64.43805482523193,49.0448732431108L64.83026681273194,49.57843087949277L65.22247880023193,50.11339439075982L65.61469078773193,50.431993757214514L66.00690277523194,50.728492770475896L66.39911476273194,51.34780877484718L66.79132675023193,51.83623782741839L67.18353873773194,52.184304331464176L67.57575072523193,52.49500268106476L67.96796271273193,52.993750855292404L68.36017470023194,53.370075444528084L68.75238668773194,53.97044025544861L69.14459867523193,54.491794897828186L69.53681066273192,54.95893900463943L69.92902265023193,55.330539854261275L70.32123463773193,55.941223786838236L70.71344662523194,56.645314046779276L71.10565861273193,57.09946786965247L71.49787060023193,57.44351357152695L71.89008258773194,57.750219236453944L72.28229457523193,58.69628868161331L72.67450656273193,59.17836317970401L73.06671855023194,59.434569818759286L73.45893053773193,59.855123231879276L73.85114252523194,60.31071104713524L74.24335451273194,60.436480614353655L74.63556650023193,60.53216445903158L75.02777848773192,60.862263882046136L75.41999047523194,61.341779687846014L75.81220246273193,61.86465267510144L76.20441445023194,62.05970375665615L76.59662643773193,62.46046245139436L76.98883842523195,62.85247660434743L77.38105041273194,63.05542870275622L77.77326240023193,63.63200611062135L78.16547438773193,64.0653248676978L78.55768637523192,64.45061893870025L78.94989836273194,64.81116961172543L79.34211035023193,65.11070531473857L79.73432233773192,65.68418979785656L80.12653432523193,66.1791702273922L80.51874631273193,66.43200276672329L80.91095830023194,66.66422518023924L81.30317028773193,67.07735557396609L81.69538227523194,67.24715714258491L82.08759426273193,67.36153912323425L82.47980625023195,67.43531943720276L82.87201823773194,67.66852596313825L83.26423022523193,68.09498405077557L83.65644221273193,68.68781337231212L84.04865420023194,69.12459058160584L84.44086618773194,69.43590751615588L84.83307817523193,69.78563295256603L85.22529016273192,70.1160135505576L85.61750215023194,70.34781420160803L86.00971413773193,70.84183863622184L86.40192612523194,70.96966078077244L86.79413811273193,71.307576868148L87.18635010023193,71.74682841723947L87.57856208773194,72.19223769832752L87.97077407523193,72.39589273417883L88.36298606273193,72.80348398085849L88.75519805023193,73.06357083459656L89.14741003773194,73.47372077356704L89.53962202523194,74.0249643160032L89.93183401273194,74.28204259748722L90.32404600023193,74.47149829699933L90.71625798773192,74.8517312184155L91.10846997523194,75.21320976886486L91.50068196273193,75.66868511413L91.89289395023194,76.08012845799476L92.28510593773193,76.38528766054819L92.67731792523195,76.80803423848889L93.06952991273194,77.0948889500387L93.46174190023193,77.4678394395502L93.85395388773193,77.7884351483417L94.24616587523192,77.99256818165395L94.63837786273194,78.11459812167809L95.03058985023193,78.22791163741476L95.42280183773192,78.54285572916828L95.81501382523193,78.97502166883896L96.20722581273193,79.31971407316055L96.59943780023194,79.54735333455119L96.99164978773193,79.93962054498357L97.38386177523194,80.18682958477439L97.77607376273194,80.50053650662903L98.16828575023195,80.96110111897815L98.56049773773194,81.24646560314977L98.95270972523193,81.52637529276731L99.34492171273193,81.87328897940733L99.73713370023194,82.19261940080227L100.12934568773194,82.43350200361024L100.52155767523193,82.6797269309815L100.91376966273192,82.98106215384755L101.30598165023194,83.32207116597024L101.69819363773193,83.60065933319584L102.09040562523194,83.7970881721379L102.48261761273193,84.11495648365235L102.87482960023192,84.37456533992949L103.26704158773194,84.66493473869195L103.65925357523193,85.01792180483548L104.05146556273193,85.48582508408467L104.44367755023193,85.89740901543792L104.83588953773194,86.39463884478968L105.22810152523193,86.73725055428136L105.62031351273194,87.19146061214997L106.01252550023193,87.55667878979361L106.40473748773192,87.79635234020043L106.79694947523194,88.13750193981164L107.18916146273193,88.29718120925796L107.58137345023194,88.51975932106234L107.97358543773193,88.97990217094593L108.36579742523195,89.32330117037327L108.75800941273194,89.5567326362904L109.15022140023193,89.91036640488102L109.54243338773193,90.23526409082086L109.93464537523194,90.47670904358284L110.32685736273194,90.62480390397621L110.71906935023193,90.91739458505708L111.11128133773192,91.21040702860347L111.50349332523193,91.52788169515014L111.89570531273193,91.9279374524458L112.28791730023194,92.20686302964378L112.68012928773193,92.52459075366977L113.07234127523193,92.78400278746295L113.46455326273194,92.9938155553109L113.85676525023193,93.3042608474322L114.24897723773194,93.44279575860702L114.64118922523193,93.6691416151034L115.03340121273193,93.97008319300159L115.42561320023194,94.17877126094146L115.81782518773194,94.31351030992664L116.21003717523193,94.46481056505792L116.60224916273192,94.6468994801723L116.99446115023194,95.00244523860664L117.38667313773193,95.41551939733807L117.77888512523194,95.70850372338674L118.17109711273193,96.13642392090452L118.56330910023192,96.29396626052556L118.95552108773194,96.44270782336599L119.34773307523193,96.6832530162016L119.73994506273193,97.09241884275252L120.13215705023192,97.25254799216208L120.52436903773194,97.47180823923765L120.91658102523193,97.85285656808719L121.30879301273193,98.16200845531421L121.70100500023193,98.49576315302994L122.09321698773194,98.88400956129107L122.48542897523194,99.13023448866232L122.87764096273193,99.55447129398118L123.26985295023194,99.9469072093998L123.66206493773193,100.1122380958841L124.05427692523195,100.41258920633055L124.44648891273194,100.8236670227252L124.83870090023193,101.06944207013322L125.23091288773193,101.19796715212641L125.62312487523194,101.20434982410461L126.01533686273194,101.39942902315698L126.40754885023193,101.86429561265442L126.79976083773192,102.27275850176284L127.19197282523193,102.63046930752017L127.58418481273193,102.92224458116772L127.97639680023194,103.11676143026608L128.36860878773194,103.46173500956473L128.76082077523193,103.87500599078004L129.15303276273195,104.25374868481805L129.54524475023194,104.51732210827112L129.93745673773194,104.73478283549383L130.32966872523193,105.0472807049473L130.72188071273192,105.32111701506136L131.11409270023194,105.52035760377356L131.50630468773193,105.75480129960789L131.89851667523192,105.95567270318679L132.29072866273194,106.10084334381918L132.68294065023193,106.36391065231356L133.07515263773195,106.5709679053868L133.46736462523194,106.7146202011433L133.85957661273193,106.89372866150126L134.25178860023195,107.06960360962358L134.64400058773194,107.10714046905497L135.03621257523193,107.2568942618127L135.42842456273192,107.41401483896817L135.82063655023194,107.7269907058826L136.21284853773193,108.02396771660489L136.60506052523195,108.11329700680227L136.99727251273194,108.36213686145976L137.38948450023193,108.50666079964503L137.78169648773195,108.6098801337069L138.17390847523194,108.63625434655086L138.56612046273193,108.71101877293887L138.95833245023192,108.94037320168928L139.3505444377319,109.114139337484L139.74275642523193,109.16421660089026L140.13496841273192,109.24775368656111L140.52718040023194,109.37439489620829L140.91939238773193,109.57017703270321L141.31160437523195,109.85731291923003L141.70381636273194,110.06394840983768L142.09602835023193,110.20577306824362L142.48824033773192,110.42033769320307L142.88045232523194,110.81417948350673L143.27266431273193,111.17231205172965L143.66487630023192,111.3770074349959L144.05708828773194,111.52380889049499L144.44930027523193,111.71219612509441L144.84151226273195,112.01372817044438L145.23372425023194,112.145880409641L145.62593623773193,112.4228096445022L146.01814822523193,112.6854270730334L146.41036021273194,112.94835379403929L146.80257220023194,113.19469119140132L147.19478418773193,113.56010619152886L147.58699617523192,113.6861569337243L147.97920816273194,113.85854531213164L148.37142015023193,114.03515131519424L148.76363213773195,114.19190636487957L149.15584412523194,114.47895789891328L149.54805611273193,114.73395548556738L149.94026810023195,114.94050662368198L150.33248008773194,115.11160159719503L150.72469207523193,115.27645448621843L151.11690406273192,115.39451985906663L151.50911605023194,115.47786012225362L151.90132803773193,115.62415546279408L152.29354002523192,115.85660281629163L152.68575201273194,116.08005257052474L153.07796400023193,116.1486592649162L153.47017598773195,116.33819931692142L153.86238797523194,116.61723736411022L154.25459996273193,116.90426078064621L154.64681195023192,117.10676299909181L155.0390239377319,117.28955485164869L155.43123592523193,117.36088894331715L155.82344791273192,117.4102070342854L156.21565990023194,117.51505718321397L156.60787188773193,117.57789979057662L157.00008387523195,117.65308597943022L157.39229586273194,117.85780948019419L157.78450785023193,118.02190319677965L158.17671983773192,117.96836748115612L158.5689318252319,118.01672957720257L158.96114381273193,118.16597725500168L159.35335580023195,118.40067400831532L159.74556778773194,118.53507564732809L160.13777977523193,118.662869674381L160.52999176273195,118.82800373838137L160.92220375023194,118.97635165625405L161.31441573773193,119.07304773084917L161.70662772523193,119.28513801601093L162.09883971273192,119.42077682492254L162.4910517002319,119.55827138868244L162.88326368773195,119.72298369021729L163.27547567523195,119.89025468404299L163.66768766273194,120.08232531084133L164.05989965023193,120.24641902742678L164.45211163773195,120.35475574607034L164.84432362523194,120.38886227078211L165.23653561273193,120.52242038486384L165.62874760023192,120.71946780875533L166.0209595877319,120.86629738175208L166.41317157523196,121.03590212788703L166.80538356273195,121.20966826368175L167.19759555023194,121.27138617113633L167.58980753773193,121.42510453106996L167.98201952523195,121.66683065880898L168.37423151273194,121.85091591626013L168.76644350023193,122.06834852598513L169.15865548773192,122.22544098564293L169.5508674752319,122.3786813481156L169.94307946273196,122.56152943566786L170.33529145023195,122.64807509359281L170.72750343773194,122.66862898441258L171.11971542523193,122.78154885518143L171.51192741273192,122.90706536492053L171.90413940023194,123.0396956015781L172.29635138773193,123.27591069976762L172.68856337523192,123.48116843298794L173.0807753627319,123.7410022292467L173.47298735023196,124.08603204354068L173.86519933773195,124.17640168115304L174.25741132523194,124.33830223291778L174.64962331273193,124.60474364113634L175.04183530023192,124.70397029052464L175.43404728773194,124.7411697399836L175.82625927523193,124.80609304217614L176.21847126273192,124.83094891014417L176.61068325023192,124.95739329730742L177.00289523773193,125.0439951902278L177.39510722523195,125.26505495715628L177.78731921273194,125.5329303577576L178.17953120023193,125.72235793977205L178.57174318773193,126.04258812109339L178.96395517523192,126.49494242411373L179.35616716273194,126.88237342494148L179.74837915023193,127.06516527749835L180.14059113773192,127.26229705388295L180.53280312523194,127.51299266338873L180.92501511273196,127.69733097831914L181.31722710023195,127.78983754575682L181.70943908773194,127.96630296133088L182.10165107523193,128.1348673600508L182.49386306273192,128.4373835178203L182.88607505023194,128.77642430510394L183.27828703773193,128.99160751501284L183.67049902523195,129.09510802405174L184.06271101273194,129.24109407211745L184.45492300023193,129.34695645096326L184.84713498773195,129.43951925339633L185.23934697523194,129.64078430194303L185.63155896273193,129.86046631148412L186.02377095023192,130.04868484109738L186.4159829377319,130.24356721766588L186.80819492523193,130.51147073576493L187.20040691273195,130.6819471243286L187.59261890023194,130.893503177034L187.98483088773193,131.13663517965807L188.37704287523195,131.27342680597548L188.76925486273194,131.40029295560424L189.16146685023193,131.58842713272435L189.55367883773192,131.84317166189913L189.9458908252319,132.18229680167588L190.33810281273193,132.44609516511053L190.73031480023195,132.71984712273147L191.12252678773194,132.88894575390773L191.51473877523193,133.015671316048L191.90695076273192,133.13086870413068L192.29916275023194,133.3267351931187L192.69137473773193,133.6171045918812L193.08358672523192,133.7981250420829L193.47579871273192,133.93272350357952L193.8680107002319,134.17042882914726L194.26022268773195,134.38004477451128L194.65243467523194,134.50564563674348L195.04464666273194,134.61817186254453L195.43685865023193,134.73795240275254L195.82907063773195,134.762864505716L196.22128262523194,134.8661119572756L196.61349461273193,135.01774962237928L197.00570660023192,135.12670492597226L197.3979185877319,135.24839745602398L197.79013057523196,135.37756924046425L198.18234256273195,135.4721565027318L198.57455455023194,135.67210002888655L198.96676653773193,136.01935112549896L199.35897852523192,136.2973769427705L199.75119051273194,136.4006243943301L200.14340250023193,136.57143819286617L200.53561448773192,136.88227712995527L200.9278264752319,137.11506189342526L201.32003846273196,137.2914710740039L201.71225045023195,137.3907539583876L202.10446243773194,137.57284287350194L202.49667442523193,137.86408391469317L202.88888641273192,138.02969597615447L203.28109840023194,138.2058520992538L203.67331038773193,138.2909918822937L204.06552237523192,138.40402422305337L204.45773436273194,138.59879412963105L204.84994635023196,138.7712949780292L205.24215833773195,138.8970364277499L205.63437032523194,139.19047063376183L206.02658231273193,139.49602348128306L206.41879430023192,139.63568309236598L206.8110062877319,139.69062468287453L207.20321827523193,139.81971211482173L207.59543026273192,139.9366527877619L207.98764225023194,140.10156191178066L208.37985423773193,140.26891725809946L208.77206622523195,140.56620356129648L209.16427821273194,140.82468771766557L209.55649020023193,141.12897527779023L209.94870218773193,141.38835919408575L210.34091417523192,141.52799068767095L210.73312616273193,141.6224654799477L211.12533815023193,141.75321184425925L211.51755013773194,141.9453668235507L211.90976212523194,142.13307923820534L212.30197411273195,142.3095727712771L212.69418610023195,142.48395749202123L213.08639808773194,142.64411475892848L213.47861007523193,142.75683780721343L213.87082206273192,142.84071230285676L214.2630340502319,143.03618514687696L214.65524603773193,143.19918228105203L215.04745802523195,143.23910912778805L215.43967001273194,143.43300739193697L215.83188200023193,143.62825529597558L216.22409398773195,143.70130455500384L216.61630597523194,143.77300417414244L217.00851796273193,143.92112715203348L217.40072995023192,144.1385597617585L217.7929419377319,144.23688665122032L218.18515392523193,144.46604425748683L218.57736591273195,144.65935205418404L218.96957790023194,144.7844186839599L219.36178988773193,144.89357081003678L219.75400187523195,145.06351296614412L220.14621386273194,145.34533464560536L220.53842585023193,145.49323268351478L220.93063783773192,145.70984988580645L221.3228498252319,145.90712224967956L221.71506181273193,146.07492747596157L222.10727380023195,146.2107068723617L222.49948578773194,146.47439276580553L222.89169777523193,146.77311306138532L223.28390976273192,146.8766135704242L223.67612175023194,146.86935925601725L224.06833373773193,147.00991862702662L224.46054572523192,147.13858429650827L224.85275771273191,147.33729065276415L225.2449697002319,147.58823931974925L225.63718168773195,147.99957019362319L226.02939367523194,148.22186713045053L226.42160566273193,148.41773361943856L226.81381765023193,148.74530246766003L227.20602963773194,148.98528531054157L227.59824162523194,149.24171688957844L227.99045361273193,149.46387323891727L228.38266560023192,149.66620675237664L228.77487758773194,149.9366408452688L229.16708957523196,150.20434754088396L229.55930156273195,150.31577718427465L229.95151355023194,150.42501366284463L230.34372553773193,150.65692678388587L230.73593752523192,150.90371406121116L231.12814951273194,151.01129160741675L231.52036150023193,151.07472468223114L231.91257348773192,151.25442361004085L232.30478547523194,151.49519374285805L232.69699746273196,151.74476465245576L233.08920945023195,151.96368748955896L233.48142143773194,152.18463478649664L233.87363342523193,152.3494033230269L234.26584541273192,152.57456824461983L234.65805740023194,152.73286975667875L235.05026938773193,152.86451588091677L235.44248137523192,153.09499500957523L235.83469336273194,153.17875703522773L236.22690535023193,153.34824931137186L236.61911733773195,153.67944531679677L237.01132932523194,153.91970933465532L237.40354131273193,154.07978224906947L237.79575330023192,154.2158428204466L238.1879652877319,154.53998133394848L238.58017727523193,154.75803252862292L238.97238926273192,154.85773717547212L239.36460125023194,155.03310600863583L239.75681323773193,155.2337805897308L240.14902522523195,155.35898780699517L240.54123721273194,155.52620256582546L240.93344920023193,155.68751265013847L241.32566118773192,155.90401738243932L241.71787317523192,156.1301945339495L242.11008516273193,156.30519783964306L242.50229715023193,156.41721795048548L242.89450913773194,156.431389169327L243.28672112523194,156.54211587527516L243.67893311273195,156.70005185986398L244.07114510023194,156.79871615929824L244.46335708773194,156.90679982046245L244.85556907523193,157.0527858685282L245.24778106273192,157.25731254680827L245.6399930502319,157.40473258725675L246.03220503773193,157.5769803781756L246.42441702523195,157.7700069998958L246.81662901273194,157.98111317263798L247.20884100023193,158.14394160182687L247.60105298773195,158.18881712815832L247.99326497523194,158.22669139756212L248.38547696273193,158.35035215245293L248.77768895023192,158.58471149579418L249.1699009377319,158.68109827791463L249.56211292523193,158.81097299979743L249.95432491273195,159.00467444146247L250.34653690023194,159.23557533258645L250.73874888773193,159.48022568008642L251.13096087523195,159.7250166150749L251.52317286273194,159.84485339027833L251.91538485023193,159.9894897984544L252.30759683773192,160.15617032482837L252.6998088252319,160.2666720907949L253.09202081273196,160.39384753289838L253.48423280023195,160.64052234023288L253.87644478773194,160.74019886958436L254.26865677523193,160.8781714308052L254.66086876273192,161.14424731155364L255.05308075023194,161.45297743631514L255.44529273773193,161.65238673001355L255.83750472523192,161.88941723563644L256.22971671273194,162.20388332992903L256.62192870023193,162.36485600426963L257.0141406877319,162.50429067537092L257.4063526752319,162.6952928372566L257.79856466273196,162.8092811729381L258.19077665023195,162.97916709405004L258.58298863773194,163.2190937019362L258.97520062523193,163.50521735854576L259.3674126127319,163.68626592624514L259.7596246002319,163.9269517065692L260.15183658773196,164.0620844005222L260.54404857523195,164.0696198899062L260.93626056273195,164.18833196520154L261.32847255023194,164.18836008269923L261.7206845377319,164.2035154139603L262.1128965252319,164.39763861809084L262.5051085127319,164.5025731195125L262.8973205002319,164.70248852816954L263.28953248773195,164.9182903230279L263.68174447523194,165.193532508027L264.0739564627319,165.2831148557037L264.4661684502319,165.3989589462335L264.8583804377319,165.6438904687105L265.25059242523196,165.94362299420754L265.64280441273195,166.07301971862944L266.03501640023194,166.22685054855387L266.42722838773193,166.42586619728445L266.8194403752319,166.55290105189943L267.21165236273197,166.77083977658307L267.60386435023196,166.9209028618155L267.99607633773195,167.15096022800844L268.38828832523194,167.27433980792225L268.78050031273193,167.37491609720018L269.1727123002319,167.60564828333796L269.5649242877319,167.93060220427319L269.9571362752319,168.17564619674098L270.3493482627319,168.25623094515322L270.74156025023194,168.26671877179584L271.13377223773193,168.3616715615335L271.5259842252319,168.59499055745982L271.9181962127319,168.72419045939782L272.3104082002319,168.87251025977275" fill="none"></path></g></g></g></g></g></g><g transform="translate(30, 176)" clip-path="url(#clip_1)"><clipPath id="clip_1"><rect width="299" height="23"></rect></clipPath><g><g><line x1="0" y1="0" x2="0" y2="5" style="visibility: inherit;" fill="rgb(0, 0, 0)" stroke="rgb(204, 204, 204)" stroke-width="1px"></line><line x1="29.923399925231934" y1="0" x2="29.923399925231934" y2="5" style="visibility: inherit;" fill="rgb(0, 0, 0)" stroke="rgb(204, 204, 204)" stroke-width="1px"></line><line x1="59.84679985046387" y1="0" x2="59.84679985046387" y2="5" style="visibility: inherit;" fill="rgb(0, 0, 0)" stroke="rgb(204, 204, 204)" stroke-width="1px"></line><line x1="89.7701997756958" y1="0" x2="89.7701997756958" y2="5" style="visibility: inherit;" fill="rgb(0, 0, 0)" stroke="rgb(204, 204, 204)" stroke-width="1px"></line><line x1="119.69359970092773" y1="0" x2="119.69359970092773" y2="5" style="visibility: inherit;" fill="rgb(0, 0, 0)" stroke="rgb(204, 204, 204)" stroke-width="1px"></line><line x1="149.61699962615967" y1="0" x2="149.61699962615967" y2="5" style="visibility: inherit;" fill="rgb(0, 0, 0)" stroke="rgb(204, 204, 204)" stroke-width="1px"></line><line x1="179.5403995513916" y1="0" x2="179.5403995513916" y2="5" style="visibility: inherit;" fill="rgb(0, 0, 0)" stroke="rgb(204, 204, 204)" stroke-width="1px"></line><line x1="209.46379947662354" y1="0" x2="209.46379947662354" y2="5" style="visibility: inherit;" fill="rgb(0, 0, 0)" stroke="rgb(204, 204, 204)" stroke-width="1px"></line><line x1="239.38719940185547" y1="0" x2="239.38719940185547" y2="5" style="visibility: inherit;" fill="rgb(0, 0, 0)" stroke="rgb(204, 204, 204)" stroke-width="1px"></line><line x1="269.3105993270874" y1="0" x2="269.3105993270874" y2="5" style="visibility: inherit;" fill="rgb(0, 0, 0)" stroke="rgb(204, 204, 204)" stroke-width="1px"></line><line x1="299.23399925231934" y1="0" x2="299.23399925231934" y2="5" style="visibility: inherit;" fill="rgb(0, 0, 0)" stroke="rgb(204, 204, 204)" stroke-width="1px"></line></g><g transform="translate(0, 8)"><text style="text-anchor: middle; visibility: hidden; font-family: Roboto, sans-serif; font-size: 12px; font-weight: 200;" x="0" y="0" dx="0em" dy="0.95em" fill="rgb(33, 33, 33)" stroke="none" stroke-width="1px">-10M</text><text style="text-anchor: middle; visibility: inherit; font-family: Roboto, sans-serif; font-size: 12px; font-weight: 200;" x="29.923399925231934" y="0" dx="0em" dy="0.95em" fill="rgb(33, 33, 33)" stroke="none" stroke-width="1px">0</text><text style="text-anchor: middle; visibility: hidden; font-family: Roboto, sans-serif; font-size: 12px; font-weight: 200;" x="59.84679985046387" y="0" dx="0em" dy="0.95em" fill="rgb(33, 33, 33)" stroke="none" stroke-width="1px">10M</text><text style="text-anchor: middle; visibility: inherit; font-family: Roboto, sans-serif; font-size: 12px; font-weight: 200;" x="89.7701997756958" y="0" dx="0em" dy="0.95em" fill="rgb(33, 33, 33)" stroke="none" stroke-width="1px">20M</text><text style="text-anchor: middle; visibility: hidden; font-family: Roboto, sans-serif; font-size: 12px; font-weight: 200;" x="119.69359970092773" y="0" dx="0em" dy="0.95em" fill="rgb(33, 33, 33)" stroke="none" stroke-width="1px">30M</text><text style="text-anchor: middle; visibility: inherit; font-family: Roboto, sans-serif; font-size: 12px; font-weight: 200;" x="149.61699962615967" y="0" dx="0em" dy="0.95em" fill="rgb(33, 33, 33)" stroke="none" stroke-width="1px">40M</text><text style="text-anchor: middle; visibility: hidden; font-family: Roboto, sans-serif; font-size: 12px; font-weight: 200;" x="179.5403995513916" y="0" dx="0em" dy="0.95em" fill="rgb(33, 33, 33)" stroke="none" stroke-width="1px">50M</text><text style="text-anchor: middle; visibility: inherit; font-family: Roboto, sans-serif; font-size: 12px; font-weight: 200;" x="209.46379947662354" y="0" dx="0em" dy="0.95em" fill="rgb(33, 33, 33)" stroke="none" stroke-width="1px">60M</text><text style="text-anchor: middle; visibility: hidden; font-family: Roboto, sans-serif; font-size: 12px; font-weight: 200;" x="239.38719940185547" y="0" dx="0em" dy="0.95em" fill="rgb(33, 33, 33)" stroke="none" stroke-width="1px">70M</text><text style="text-anchor: middle; visibility: inherit; font-family: Roboto, sans-serif; font-size: 12px; font-weight: 200;" x="269.3105993270874" y="0" dx="0em" dy="0.95em" fill="rgb(33, 33, 33)" stroke="none" stroke-width="1px">80M</text><text style="text-anchor: middle; visibility: hidden; font-family: Roboto, sans-serif; font-size: 12px; font-weight: 200;" x="299.23399925231934" y="0" dx="0em" dy="0.95em" fill="rgb(33, 33, 33)" stroke="none" stroke-width="1px">90M</text></g><line x1="0" y1="0" x2="299.23399925231934" y2="0" fill="rgb(0, 0, 0)" stroke="rgb(204, 204, 204)" stroke-width="1px"></line></g></g></g></g></svg>