<svg viewBox="0 0 330 200" xmlns="http://www.w3.org/2000/svg"><g><g><g><g><g><line x1="51.53200149536133" y1="176.89999961853027" x2="46.53200149536133" y2="176.89999961853027" style="visibility: inherit;" fill="rgb(0, 0, 0)" stroke="rgb(204, 204, 204)" stroke-width="1px"></line><line x1="51.53200149536133" y1="162.15833298365274" x2="46.53200149536133" y2="162.15833298365274" style="visibility: inherit;" fill="rgb(0, 0, 0)" stroke="rgb(204, 204, 204)" stroke-width="1px"></line><line x1="51.53200149536133" y1="147.4166663487752" x2="46.53200149536133" y2="147.4166663487752" style="visibility: inherit;" fill="rgb(0, 0, 0)" stroke="rgb(204, 204, 204)" stroke-width="1px"></line><line x1="51.53200149536133" y1="132.6749997138977" x2="46.53200149536133" y2="132.6749997138977" style="visibility: inherit;" fill="rgb(0, 0, 0)" stroke="rgb(204, 204, 204)" stroke-width="1px"></line><line x1="51.53200149536133" y1="117.93333307902017" x2="46.53200149536133" y2="117.93333307902017" style="visibility: inherit;" fill="rgb(0, 0, 0)" stroke="rgb(204, 204, 204)" stroke-width="1px"></line><line x1="51.53200149536133" y1="103.19166644414264" x2="46.53200149536133" y2="103.19166644414264" style="visibility: inherit;" fill="rgb(0, 0, 0)" stroke="rgb(204, 204, 204)" stroke-width="1px"></line><line x1="51.53200149536133" y1="88.44999980926514" x2="46.53200149536133" y2="88.44999980926514" style="visibility: inherit;" fill="rgb(0, 0, 0)" stroke="rgb(204, 204, 204)" stroke-width="1px"></line><line x1="51.53200149536133" y1="73.7083331743876" x2="46.53200149536133" y2="73.7083331743876" style="visibility: inherit;" fill="rgb(0, 0, 0)" stroke="rgb(204, 204, 204)" stroke-width="1px"></line><line x1="51.53200149536133" y1="58.96666653951008" x2="46.53200149536133" y2="58.96666653951008" style="visibility: inherit;" fill="rgb(0, 0, 0)" stroke="rgb(204, 204, 204)" stroke-width="1px"></line><line x1="51.53200149536133" y1="44.22499990463257" x2="46.53200149536133" y2="44.22499990463257" style="visibility: inherit;" fill="rgb(0, 0, 0)" stroke="rgb(204, 204, 204)" stroke-width="1px"></line><line x1="51.53200149536133" y1="29.48333326975504" x2="46.53200149536133" y2="29.48333326975504" style="visibility: inherit;" fill="rgb(0, 0, 0)" stroke="rgb(204, 204, 204)" stroke-width="1px"></line><line x1="51.53200149536133" y1="14.74166663487751" x2="46.53200149536133" y2="14.74166663487751" style="visibility: inherit;" fill="rgb(0, 0, 0)" stroke="rgb(204, 204, 204)" stroke-width="1px"></line><line x1="51.53200149536133" y1="0" x2="46.53200149536133" y2="0" style="visibility: inherit;" fill="rgb(0, 0, 0)" stroke="rgb(204, 204, 204)" stroke-width="1px"></line></g><g transform="translate(41.53200149536133, 0)"><text style="text-anchor: end; visibility: hidden; font-family: Roboto, sans-serif; font-size: 12px; font-weight: 200;" x="0" y="176.89999961853027" dx="0em" dy="0.3em" fill="rgb(33, 33, 33)" stroke="none" stroke-width="1px">0</text><text style="text-anchor: end; visibility: inherit; font-family: Roboto, sans-serif; font-size: 12px; font-weight: 200;" x="0" y="162.15833298365274" dx="0em" dy="0.3em" fill="rgb(33, 33, 33)" stroke="none" stroke-width="1px">0.01</text><text style="text-anchor: end; visibility: hidden; font-family: Roboto, sans-serif; font-size: 12px; font-weight: 200;" x="0" y="147.4166663487752" dx="0em" dy="0.3em" fill="rgb(33, 33, 33)" stroke="none" stroke-width="1px">0.02</text><text style="text-anchor: end; visibility: inherit; font-family: Roboto, sans-serif; font-size: 12px; font-weight: 200;" x="0" y="132.6749997138977" dx="0em" dy="0.3em" fill="rgb(33, 33, 33)" stroke="none" stroke-width="1px">0.03</text><text style="text-anchor: end; visibility: hidden; font-family: Roboto, sans-serif; font-size: 12px; font-weight: 200;" x="0" y="117.93333307902017" dx="0em" dy="0.3em" fill="rgb(33, 33, 33)" stroke="none" stroke-width="1px">0.04</text><text style="text-anchor: end; visibility: inherit; font-family: Roboto, sans-serif; font-size: 12px; font-weight: 200;" x="0" y="103.19166644414264" dx="0em" dy="0.3em" fill="rgb(33, 33, 33)" stroke="none" stroke-width="1px">0.05</text><text style="text-anchor: end; visibility: hidden; font-family: Roboto, sans-serif; font-size: 12px; font-weight: 200;" x="0" y="88.44999980926514" dx="0em" dy="0.3em" fill="rgb(33, 33, 33)" stroke="none" stroke-width="1px">0.06</text><text style="text-anchor: end; visibility: inherit; font-family: Roboto, sans-serif; font-size: 12px; font-weight: 200;" x="0" y="73.7083331743876" dx="0em" dy="0.3em" fill="rgb(33, 33, 33)" stroke="none" stroke-width="1px">0.07</text><text style="text-anchor: end; visibility: hidden; font-family: Roboto, sans-serif; font-size: 12px; font-weight: 200;" x="0" y="58.96666653951008" dx="0em" dy="0.3em" fill="rgb(33, 33, 33)" stroke="none" stroke-width="1px">0.08</text><text style="text-anchor: end; visibility: inherit; font-family: Roboto, sans-serif; font-size: 12px; font-weight: 200;" x="0" y="44.22499990463257" dx="0em" dy="0.3em" fill="rgb(33, 33, 33)" stroke="none" stroke-width="1px">0.09</text><text style="text-anchor: end; visibility: hidden; font-family: Roboto, sans-serif; font-size: 12px; font-weight: 200;" x="0" y="29.48333326975504" dx="0em" dy="0.3em" fill="rgb(33, 33, 33)" stroke="none" stroke-width="1px">0.1</text><text style="text-anchor: end; visibility: inherit; font-family: Roboto, sans-serif; font-size: 12px; font-weight: 200;" x="0" y="14.74166663487751" dx="0em" dy="0.3em" fill="rgb(33, 33, 33)" stroke="none" stroke-width="1px">0.11</text><text style="text-anchor: end; visibility: hidden; font-family: Roboto, sans-serif; font-size: 12px; font-weight: 200;" x="0" y="0" dx="0em" dy="0.3em" fill="rgb(33, 33, 33)" stroke="none" stroke-width="1px">0.12</text></g><line x1="51.53200149536133" y1="0" x2="51.53200149536133" y2="176.89999961853027" fill="rgb(0, 0, 0)" stroke="rgb(204, 204, 204)" stroke-width="1px"></line></g></g><g transform="translate(51, 0)" clip-path="url(#clip_0)"><clipPath id="clip_0"><rect width="278" height="176"></rect></clipPath><g><g><g><line x1="0" y1="0" x2="0" y2="176.89999961853027" fill="rgb(0, 0, 0)" stroke="rgb(66, 66, 66)" stroke-width="1px" opacity="0.25"></line><line x1="27.846799850463867" y1="0" x2="27.846799850463867" y2="176.89999961853027" fill="rgb(0, 0, 0)" stroke="rgb(66, 66, 66)" stroke-width="1px" opacity="0.25"></line><line x1="55.693599700927734" y1="0" x2="55.693599700927734" y2="176.89999961853027" fill="rgb(0, 0, 0)" stroke="rgb(66, 66, 66)" stroke-width="1px" opacity="0.25"></line><line x1="83.5403995513916" y1="0" x2="83.5403995513916" y2="176.89999961853027" fill="rgb(0, 0, 0)" stroke="rgb(66, 66, 66)" stroke-width="1px" opacity="0.25"></line><line x1="111.38719940185547" y1="0" x2="111.38719940185547" y2="176.89999961853027" fill="rgb(0, 0, 0)" stroke="rgb(66, 66, 66)" stroke-width="1px" opacity="0.25"></line><line x1="139.23399925231934" y1="0" x2="139.23399925231934" y2="176.89999961853027" fill="rgb(0, 0, 0)" stroke="rgb(66, 66, 66)" stroke-width="1px" opacity="0.25"></line><line x1="167.0807991027832" y1="0" x2="167.0807991027832" y2="176.89999961853027" fill="rgb(0, 0, 0)" stroke="rgb(66, 66, 66)" stroke-width="1px" opacity="0.25"></line><line x1="194.92759895324707" y1="0" x2="194.92759895324707" y2="176.89999961853027" fill="rgb(0, 0, 0)" stroke="rgb(66, 66, 66)" stroke-width="1px" opacity="0.25"></line><line x1="222.77439880371094" y1="0" x2="222.77439880371094" y2="176.89999961853027" fill="rgb(0, 0, 0)" stroke="rgb(66, 66, 66)" stroke-width="1px" opacity="0.25"></line><line x1="250.6211986541748" y1="0" x2="250.6211986541748" y2="176.89999961853027" fill="rgb(0, 0, 0)" stroke="rgb(66, 66, 66)" stroke-width="1px" opacity="0.25"></line><line x1="278.4679985046387" y1="0" x2="278.4679985046387" y2="176.89999961853027" fill="rgb(0, 0, 0)" stroke="rgb(66, 66, 66)" stroke-width="1px" opacity="0.25"></line></g><g><line x1="0" y1="176.89999961853027" x2="278.4679985046387" y2="176.89999961853027" fill="rgb(0, 0, 0)" stroke="rgb(66, 66, 66)" stroke-width="1px" opacity="0.25"></line><line x1="0" y1="162.15833298365274" x2="278.4679985046387" y2="162.15833298365274" fill="rgb(0, 0, 0)" stroke="rgb(66, 66, 66)" stroke-width="1px" opacity="0.25"></line><line x1="0" y1="147.4166663487752" x2="278.4679985046387" y2="147.4166663487752" fill="rgb(0, 0, 0)" stroke="rgb(66, 66, 66)" stroke-width="1px" opacity="0.25"></line><line x1="0" y1="132.6749997138977" x2="278.4679985046387" y2="132.6749997138977" fill="rgb(0, 0, 0)" stroke="rgb(66, 66, 66)" stroke-width="1px" opacity="0.25"></line><line x1="0" y1="117.93333307902017" x2="278.4679985046387" y2="117.93333307902017" fill="rgb(0, 0, 0)" stroke="rgb(66, 66, 66)" stroke-width="1px" opacity="0.25"></line><line x1="0" y1="103.19166644414264" x2="278.4679985046387" y2="103.19166644414264" fill="rgb(0, 0, 0)" stroke="rgb(66, 66, 66)" stroke-width="1px" opacity="0.25"></line><line x1="0" y1="88.44999980926514" x2="278.4679985046387" y2="88.44999980926514" fill="rgb(0, 0, 0)" stroke="rgb(66, 66, 66)" stroke-width="1px" opacity="0.25"></line><line x1="0" y1="73.7083331743876" x2="278.4679985046387" y2="73.7083331743876" fill="rgb(0, 0, 0)" stroke="rgb(66, 66, 66)" stroke-width="1px" opacity="0.25"></line><line x1="0" y1="58.96666653951008" x2="278.4679985046387" y2="58.96666653951008" fill="rgb(0, 0, 0)" stroke="rgb(66, 66, 66)" stroke-width="1px" opacity="0.25"></line><line x1="0" y1="44.22499990463257" x2="278.4679985046387" y2="44.22499990463257" fill="rgb(0, 0, 0)" stroke="rgb(66, 66, 66)" stroke-width="1px" opacity="0.25"></line><line x1="0" y1="29.48333326975504" x2="278.4679985046387" y2="29.48333326975504" fill="rgb(0, 0, 0)" stroke="rgb(66, 66, 66)" stroke-width="1px" opacity="0.25"></line><line x1="0" y1="14.74166663487751" x2="278.4679985046387" y2="14.74166663487751" fill="rgb(0, 0, 0)" stroke="rgb(66, 66, 66)" stroke-width="1px" opacity="0.25"></line><line x1="0" y1="0" x2="278.4679985046387" y2="0" fill="rgb(0, 0, 0)" stroke="rgb(66, 66, 66)" stroke-width="1px" opacity="0.25"></line></g></g></g><g><g><line x1="0" y1="176.89999961853027" x2="278.4679985046387" y2="176.89999961853027" fill="rgb(0, 0, 0)" stroke="rgb(153, 153, 153)" stroke-width="1.5px"></line></g></g><g><g><line x1="27.846799850463867" y1="0" x2="27.846799850463867" y2="176.89999961853027" fill="rgb(0, 0, 0)" stroke="rgb(153, 153, 153)" stroke-width="1.5px"></line></g></g><g><g><g><g><g><path style="fill: none;" stroke="rgb(0, 153, 136)" stroke-width="2px" d="M38.43161352546387,-1.392894585220316L38.796607100463866,5.8647006422744745L39.161600675463866,15.821888693508225L39.526594250463866,24.65928732403404L39.89158782546387,32.371650669148565L40.256581400463865,40.78858677921369L40.62157497546387,49.35572014828938L40.986568550463865,58.04544760435727L41.35156212546387,67.17925424666497L41.716555700463864,74.99908316863551L42.081549275463864,81.2017226807865L42.44654285046387,87.81434749874853L42.81153642546386,93.88863029578248L43.17653000046387,100.0595615346923L43.54152357546386,104.53568755578543L43.90651715046387,109.45339383942077L44.27151072546387,113.25684547808639L44.63650430046387,117.73817706756083L45.00149787546387,120.07985013524987L45.36649145046387,122.61517738344163L45.73148502546387,125.74866839409839L46.09647860046386,128.97728148526176L46.46147217546387,130.3879557855278L46.82646575046387,131.61059225504593L47.19145932546387,132.99229344217116L47.55645290046387,133.86197029877806L47.92144647546387,134.31042928397227L48.28644005046387,134.28764065558897L48.65143362546387,134.4271474323452L49.016427200463866,135.1464651073755L49.381420775463866,136.25569619371566L49.746414350463866,137.45129690580077L50.111407925463865,139.1138555751184L50.476401500463865,141.07006784423612L50.841395075463865,142.68364732697563L51.20638865046387,144.19237917174334L51.571382225463864,144.34390129422377L51.93637580046387,144.2411498105948L52.301369375463864,145.57919234935267L52.66636295046387,147.70302733990863L53.03135652546387,149.7455950253431L53.39635010046386,151.43347681350494L53.76134367546387,152.60948727090545L54.12633725046386,153.3500163561627L54.49133082546387,153.94051074683205L54.85632440046386,154.43073186831523L55.22131797546387,149.9321426007808L55.58631155046387,152.8614162818485L55.95130512546387,154.22422180615888L56.31629870046387,154.91583658544562L56.68129227546387,156.8209614391085L57.04628585046387,157.86698650147628L57.41127942546387,158.30839890206815L57.77627300046387,159.3580595219176L58.14126657546387,159.35741985845098L58.506260150463866,159.19725014213458L58.871253725463866,159.98201240166276L59.23624730046387,160.37547140242762L59.601240875463866,160.16502721014123L59.96623445046387,159.99068087203972L60.331228025463865,160.4666076853435L60.696221600463865,160.7985911438956L61.061215175463865,161.3913877449552L61.426208750463864,161.4710551221L61.79120232546387,161.58172231922413L62.156195900463864,162.24466830142666L62.52118947546387,162.4923087723081L62.88618305046386,162.72220699101183L63.25117662546387,162.04246327809284L63.61617020046387,162.00650280929545L63.98116377546387,161.9182567557817L64.34615735046387,161.64719257778364L64.71115092546387,161.77419559999234L65.07614450046387,161.66735195411147L65.44113807546387,160.90244843905828L65.80613165046387,160.6480545357656L66.17112522546387,160.49043118213714L66.53611880046387,160.0252196741364L66.90111237546387,159.89749231438103L67.26610595046387,159.82311683091132L67.63109952546387,160.51564940590907L67.99609310046387,160.9019684902089L68.36108667546387,160.8434335969447L68.72608025046387,161.02750997319387L69.09107382546387,161.11368578540007L69.45606740046387,161.2073676214407L69.82106097546387,161.29996416994396L70.18605455046388,161.45373069731622L70.55104812546386,161.61702299147768L70.91604170046386,161.68051489305915L71.28103527546386,161.65814203719347L71.64602885046388,162.09945898947777L72.01102242546388,161.59621147358615L72.37601600046386,161.48680411960012L72.74100957546386,162.4287903267396L73.10600315046386,161.8303081059674L73.47099672546388,161.6445433767177L73.83599030046386,161.9339543858892L74.20098387546386,162.0048946918293L74.56597745046386,162.10351374307652L74.93097102546388,162.1338960413639L75.29596460046388,161.84728561498338L75.66095817546386,161.8028091460961L76.02595175046386,162.01669207190406L76.39094532546386,161.17213993182364L76.75593890046387,160.87877157921008L77.12093247546387,160.890755580007L77.48592605046386,160.89142733404543L77.85091962546386,161.17648984635204L78.21591320046387,160.85371105450557L78.58090677546387,160.71608876202308L78.94590035046387,160.2387665872611L79.31089392546386,160.18558046734327L79.67588750046387,161.2059271558066L80.04088107546387,162.2958849541941L80.40587465046387,162.10162007879035L80.77086822546386,162.5959494871533L81.13586180046386,162.2328804317527L81.50085537546387,161.4589160817192L81.86584895046387,161.85574567278022L82.23084252546387,161.85080555250966L82.59583610046386,158.27023587486522L82.96082967546387,160.045581587705L83.32582325046387,160.78560740864265L83.69081682546387,160.04927506034446L84.05581040046387,160.75160244382016L84.42080397546385,161.68767484174327L84.78579755046387,162.13507611849846L85.15079112546387,162.4318793120181L85.51578470046387,162.99527144472674L85.88077827546387,163.41013943433063L86.24577185046387,163.68255755961937L86.61076542546387,163.69897259359004L86.97575900046387,163.55210116198933L87.34075257546387,163.43805913234505L87.70574615046387,163.35381507625203L88.07073972546387,163.55538100055063L88.43573330046387,163.95344705181083L88.80072687546387,163.9438125750475L89.16572045046387,164.46874306806512L89.53071402546388,164.399734416798L89.89570760046387,163.81809599046514L90.26070117546386,163.9743711882827L90.62569475046386,164.2977607076352L90.99068832546388,164.52384836662628L91.35568190046388,164.13578510883832L91.72067547546386,164.0050515635432L92.08566905046386,164.61789439577208L92.45066262546386,164.75046532390186L92.81565620046388,164.59517460383466L93.18064977546386,163.91669601524805L93.54564335046386,164.18623502665534L93.91063692546386,164.147403241936L94.27563050046388,164.16647427462308L94.64062407546388,163.82166655084885L95.00561765046386,163.34497310851404L95.37061122546386,162.7964395634996L95.73560480046386,162.8761225912551L96.10059837546387,162.99737783808592L96.46559195046387,162.69261403931185L96.83058552546386,162.6883979751798L97.19557910046386,163.16912519753643L97.56057267546387,163.7944064075639L97.92556625046387,163.16846425882886L98.29055982546387,163.4996619294861L98.65555340046386,164.07481012239666L99.02054697546386,164.34041823101745L99.38554055046387,164.28291042007146L99.75053412546387,163.9736335280855L100.11552770046386,164.55164746826466L100.48052127546386,163.70587303582212L100.84551485046387,163.82438460316192L101.21050842546387,163.36799740162954L101.57550200046387,163.73071996685573L101.94049557546386,163.91727213846397L102.30548915046387,164.08238834733498L102.67048272546387,164.91967089307084L103.03547630046387,164.44834300767994L103.40046987546387,164.12593630072837L103.76546345046386,164.03353074720386L104.13045702546387,163.57675956069045L104.49545060046387,163.60519224793052L104.86044417546387,164.11637239961684L105.22543775046387,164.0920018977234L105.59043132546387,164.0927772215981L105.95542490046387,163.54800514443133L106.32041847546387,163.62715362241073L106.68541205046387,163.6227747126573L107.05040562546387,163.5753664075266L107.41539920046387,163.5595583724874L107.78039277546387,163.75395067161344L108.14538635046387,164.07113080842512L108.51037992546387,164.2641473963454L108.87537350046388,164.13986467224063L109.24036707546387,164.42851434690317L109.60536065046387,164.5011011727667L109.97035422546386,161.92746504967005L110.33534780046386,163.0678256323289L110.70034137546388,163.63539390669447L111.06533495046386,163.1692235429749L111.43032852546386,163.69680378975414L111.79532210046386,163.7723707041038L112.16031567546388,164.37754341202572L112.52530925046386,164.4855093019722L112.89030282546386,164.41438302063426L113.25529640046386,164.60477439845226L113.62028997546388,164.63365065282417L113.98528355046388,164.77670390625318L114.35027712546386,165.1209839891357L114.71527070046386,165.27383608568812L115.08026427546386,165.4006697776868L115.44525785046388,165.29760689012525L115.81025142546387,165.46159522479613L116.17524500046386,165.36628530117497L116.54023857546386,164.8450694727294L116.90523215046387,164.47453325607134L117.27022572546387,164.75297317674108L117.63521930046387,164.48256181510158L118.00021287546386,164.42302074851082L118.36520645046386,164.70031195503782L118.73020002546387,165.03607428331955L119.09519360046387,164.72130101252924L119.46018717546386,164.59162218603697L119.82518075046386,164.3430192142115L120.19017432546387,163.5849433632188L120.55516790046387,162.84782563419486L120.92016147546387,162.0896702868617L121.28515505046386,161.99606715380935L121.65014862546386,161.44288017515632L122.01514220046387,160.60207697561097L122.38013577546387,159.9126719848683L122.74512935046387,160.3476320953175L123.11012292546386,160.71052530403657L123.47511650046387,160.82078319264414L123.84011007546387,160.87836483485913L124.20510365046387,161.44510391374246L124.57009722546387,162.21797889463403L124.93509080046387,162.19947561751272L125.30008437546387,162.64517315491247L125.66507795046387,163.3116229033255L126.03007152546387,163.69898705593474L126.39506510046387,163.23227934391122L126.76005867546387,163.0882709151482L127.12505225046387,162.57720652126815L127.49004582546387,162.68871736184062L127.85503940046387,162.4643430650938L128.22003297546388,162.3596515403604L128.58502655046388,162.32154267994596L128.95002012546388,161.19157285849934L129.31501370046385,161.55092069210954L129.68000727546385,161.03712855170846L130.04500085046388,160.06045806102475L130.40999442546388,159.8775135061257L130.77498800046388,159.93692898801785L131.13998157546385,160.3556182254785L131.50497515046388,161.07690031419506L131.86996872546388,161.3206178372744L132.23496230046388,161.54988942656L132.59995587546388,162.21477188604672L132.96494945046388,162.32514499240818L133.32994302546388,162.88660970211635L133.69493660046388,161.83078822821943L134.05993017546388,161.53488324733837L134.42492375046385,161.9165182076285L134.78991732546388,162.180817396931L135.15491090046388,162.5773099321277L135.51990447546387,163.09069926788246L135.88489805046387,163.73620654545797L136.24989162546387,163.41308114483635L136.61488520046387,164.26783617408515L136.97987877546387,164.29099413774583L137.34487235046387,161.40059468564195L137.70986592546387,161.77680826157788L138.07485950046387,161.444839020309L138.43985307546387,160.77467675814185L138.80484665046387,161.21407569835833L139.16984022546387,161.25901419984933L139.53483380046387,161.3189791153312L139.89982737546387,161.42023843706687L140.26482095046387,161.63477422657004L140.62981452546387,161.81697825625136L140.99480810046387,162.01025666651321L141.35980167546384,162.49513901175973L141.72479525046384,162.89172266237009L142.08978882546387,163.23667750492623L142.45478240046387,163.0941548565603L142.81977597546387,163.5862674800369L143.18476955046387,163.90325307524785L143.54976312546387,164.33485896112524L143.91475670046387,164.09562601448243L144.27975027546387,163.90069492940893L144.64474385046387,163.5761780725298L145.00973742546384,163.17015617645825L145.37473100046387,163.61271212832685L145.73972457546387,163.8191638074029L146.10471815046387,162.2539090906289L146.46971172546387,161.93351200182727L146.83470530046387,161.63940383470612L147.19969887546387,162.19124308275636L147.56469245046387,161.71973979890808L147.92968602546387,162.33461250593902L148.2946796004639,161.9203073057583L148.65967317546387,161.3162014923504L149.02466675046387,160.51877404411172L149.38966032546386,159.90151543793152L149.75465390046386,159.83405876406127L150.11964747546386,159.6522416134813L150.48464105046386,159.98771037941785L150.84963462546386,160.04950523607607L151.21462820046386,160.75100521079386L151.5796217754639,160.49036231315668L151.9446153504639,160.5979076174513L152.30960892546386,160.4284692114886L152.67460250046386,160.56251042828094L153.03959607546386,160.8774740802474L153.40458965046386,161.05859310131783L153.76958322546386,161.20557954710713L154.13457680046386,161.10175032290527L154.49957037546386,162.11504043434223L154.8645639504639,162.33469648119137L155.2295575254639,161.95905165127192L155.59455110046386,161.7456102964843L155.95954467546386,162.04535870283752L156.32453825046386,161.85440330318318L156.68953182546386,162.09992020255692L157.05452540046386,162.66409421239968L157.41951897546386,162.76699375768308L157.78451255046386,163.15812557706616L158.1495061254639,162.59160206339303L158.5144997004639,162.25624057346934L158.8794932754639,162.30590150358609L159.24448685046386,161.95791147237395L159.60948042546386,161.53469078016028L159.97447400046386,161.33921420321744L160.33946757546386,161.47883651554181L160.70446115046386,161.92194987605083L161.06945472546386,162.70764342613035L161.43444830046388,162.85290921374886L161.79944187546388,163.3178876766249L162.16443545046388,163.98342444735968L162.52942902546388,163.71124574770317L162.89442260046386,163.58038073839188L163.25941617546385,163.75729217515624L163.62440975046385,163.23233850628745L163.98940332546385,162.701684229141L164.35439690046385,162.70079148138012L164.71939047546388,159.83503449000062L165.08438405046388,160.5965738351266L165.44937762546388,160.70535888706857L165.81437120046388,160.26621903373663L166.17936477546385,160.75268150574226L166.54435835046385,161.86951483893765L166.90935192546385,162.00415718453252L167.27434550046385,163.12117562612335L167.63933907546385,162.83578113067261L168.00433265046388,163.58500916254926L168.36932622546388,163.52057954131865L168.73431980046388,163.12002760636807L169.09931337546388,163.07798960623813L169.46430695046388,163.21047741143147L169.82930052546385,163.41885037961708L170.19429410046385,163.39150642899028L170.55928767546385,163.95553033250224L170.92428125046388,164.01867327377286L171.28927482546388,164.25179332316085L171.65426840046388,163.82307682896297L172.01926197546388,163.8497617179746L172.38425555046388,163.85555754249984L172.74924912546388,163.54549198765162L173.11424270046385,163.40801849281348L173.47923627546385,163.41691187008118L173.84422985046385,163.020335725294L174.20922342546388,162.22685583173663L174.57421700046388,162.1088727856633L174.93921057546387,161.96561230437342L175.30420415046387,162.49333577968937L175.66919772546387,161.8131848012483L176.03419130046387,161.44934851955028L176.39918487546387,162.452800352607L176.76417845046385,162.27495796658908L177.12917202546384,162.0637339748215L177.49416560046387,162.3414335389839L177.85915917546387,161.83454420114379L178.22415275046387,161.75854400288566L178.58914632546387,161.7864277559997L178.95413990046387,162.24194583791544L179.31913347546387,162.73158513583525L179.68412705046387,162.0316831657422L180.04912062546384,162.2262954770505L180.41411420046384,162.40630416852883L180.77910777546387,162.36146057906544L181.14410135046387,162.52101791790778L181.50909492546387,163.01128035419512L181.87408850046387,163.13290841073578L182.23908207546387,163.50627567566983L182.60407565046387,163.26947166492934L182.96906922546387,162.88085591731087L183.33406280046387,163.11494656022904L183.69905637546384,163.3396842436797L184.06404995046387,164.27013259425178L184.42904352546387,164.04914410216116L184.79403710046387,164.08343329829358L185.15903067546387,163.95142600652258L185.52402425046387,164.25789924270453L185.88901782546387,164.58964113292205L186.25401140046387,164.58791525172722L186.61900497546387,164.3336322309202L186.98399855046387,164.40474754687835L187.34899212546387,164.14098873181607L187.71398570046387,163.34274404822244L188.07897927546387,163.65522022619993L188.44397285046387,163.12065518205273L188.80896642546386,163.1536924886551L189.17396000046386,162.77518823159554L189.53895357546386,163.5543889532982L189.90394715046386,163.58836832527717L190.2689407254639,162.83277287142218L190.6339343004639,162.48296377609338L190.99892787546386,161.96146395394072L191.36392145046386,162.76558712299527L191.72891502546386,162.4514538726556L192.09390860046386,160.57952441808064L192.45890217546386,161.43110968170433L192.82389575046386,161.88761943329393L193.18888932546386,161.04945793087143L193.5538829004639,161.03255001039173L193.9188764754639,161.21230984907348L194.28387005046386,161.42640705834344L194.64886362546386,161.66998731604704L195.01385720046386,162.23767552239016L195.37885077546386,161.54973061016287L195.74384435046386,161.75551346538538L196.10883792546386,161.80371834853895L196.47383150046386,162.18972471252098L196.8388250754639,162.17668927664172L197.2038186504639,161.61917038588172L197.5688122254639,161.98823902271704L197.93380580046386,161.14182157570883L198.29879937546386,161.11279067573372L198.66379295046386,160.5418303173773L199.02878652546386,160.07410597577785L199.39378010046386,160.36908267903573L199.75877367546386,160.3425320661646L200.12376725046389,159.5028276620252L200.48876082546388,160.19352144322843L200.85375440046388,160.12321951007192L201.21874797546388,160.3155492644053L201.58374155046386,159.34339141191822L201.94873512546386,159.73474692299501L202.31372870046386,160.22474629139694L202.67872227546385,160.17756149545667L203.04371585046385,160.09917236598054L203.40870942546388,159.5010287941388L203.77370300046388,160.65281727123818L204.13869657546388,161.24885486277665L204.50369015046388,162.10088572205754L204.86868372546385,162.1475257426461L205.23367730046385,161.4588705240333L205.59867087546385,161.3801350280239L205.96366445046385,160.6080125579386L206.32865802546385,159.83893053487145L206.69365160046388,160.04037878783578L207.05864517546388,160.26318684885902L207.42363875046388,160.344753267468L207.78863232546388,160.41977319609123L208.15362590046388,159.96206461364935L208.51861947546385,159.84141406678245L208.88361305046385,160.5267721791094L209.24860662546385,160.99372888735886L209.61360020046385,161.29730908163532L209.97859377546388,162.16065684949598L210.34358735046388,162.27056035036182L210.70858092546388,162.1088605534753L211.07357450046388,162.834512527817L211.43856807546388,161.92882812698582L211.80356165046385,161.73109356389233L212.16855522546385,161.77981399355573L212.53354880046385,161.96797656292188L212.89854237546388,161.89300089294696L213.26353595046388,160.98568204080297L213.62852952546388,160.5160926092902L213.99352310046388,160.4376614089564L214.35851667546387,160.96606407359724L214.72351025046387,161.38233847247264L215.08850382546387,161.6347413238869L215.45349740046385,161.91538568252284L215.81849097546385,162.1821604745245L216.18348455046387,161.89062373893861L216.54847812546387,160.54867561960205L216.91347170046387,160.93447608345159L217.27846527546387,160.46852654392228L217.64345885046387,160.70233894381218L218.00845242546387,160.9812687125489L218.37344600046387,160.29703378808588L218.73843957546384,159.80764192413142L219.10343315046384,159.26185161255393L219.46842672546387,157.3094699792923L219.83342030046387,159.01997138473527L220.19841387546387,159.82819686985204L220.56340745046387,160.31171859765874L220.92840102546387,159.60962554914641L221.29339460046387,159.60489200659407L221.65838817546387,160.26279770028927L222.02338175046387,160.34980444005234L222.38837532546384,160.85179783410305L222.75336890046387,161.43149603775635L223.11836247546387,162.0125237923973L223.48335605046387,162.05394909441569L223.84834962546387,162.14675745786454L224.21334320046387,161.43305602745377L224.57833677546387,161.64887359326656L224.94333035046387,161.46324496564392L225.30832392546387,160.76627421999893L225.67331750046387,159.8371655366943L226.03831107546387,159.40333823613543L226.40330465046387,159.09034461274481L226.76829822546387,158.74626567511928L227.13329180046387,157.07953167606215L227.49828537546387,156.68473743891693L227.86327895046387,157.74565860074068L228.22827252546386,158.40974667546675L228.59326610046386,158.68105186619468L228.95825967546386,159.7327279335509L229.3232532504639,159.833500172682L229.68824682546386,160.43078750513695L230.05324040046386,160.04555533434447L230.41823397546386,159.88616892048563L230.78322755046386,159.45459393249482L231.14822112546386,160.42579825085508L231.51321470046386,160.10417205193406L231.87820827546386,160.3457720296723L232.24320185046386,160.65466746214216L232.6081954254639,160.69665600697556L232.97318900046386,160.4190472979361L233.33818257546386,160.61682004067723L233.70317615046386,161.22220306323212L234.06816972546386,161.4048894355185L234.43316330046386,161.45789008212176L234.79815687546386,161.71613957051696L235.16315045046386,160.91487192790592L235.5281440254639,160.40169878703003L235.8931376004639,159.42918951738247L236.2581311754639,159.54926502522503L236.62312475046386,160.21109626184284L236.98811832546386,160.6036714915369L237.35311190046386,161.3576225589954L237.71810547546386,160.93004842052656L238.08309905046386,160.30687593089345L238.44809262546386,160.90389928791666L238.81308620046389,160.18745320409474L239.17807977546389,159.60682524249333L239.54307335046389,161.062453937978L239.90806692546388,160.72113823030165L240.27306050046386,160.77988883962036L240.63805407546386,160.81611727676247L241.00304765046386,159.97354332816167L241.36804122546386,158.96003219955062L241.73303480046386,158.9244175457003L242.09802837546388,158.71932122519684L242.46302195046388,158.1966083499413L242.82801552546388,157.86089356150572L243.19300910046388,156.97972692736212L243.55800267546385,157.78159087169692L243.92299625046385,157.23261757079817L244.28798982546385,157.66083155815974L244.65298340046385,157.03597764922435L245.01797697546385,156.701782955222L245.38297055046388,156.7206314970106L245.74796412546388,156.08567586334328L246.11295770046388,154.47890699077283L246.47795127546388,153.72882202141778L246.84294485046388,152.0296698761954L247.20793842546385,151.20567208186955L247.57293200046385,150.59041868878663L247.93792557546385,151.38818234777662L248.30291915046385,151.08449643144317L248.66791272546388,150.6710206597285L249.03290630046388,151.7461951621568L249.39789987546388,152.83291646769743L249.76289345046388,153.32688498034972L250.12788702546388,153.6652517725459L250.49288060046385,154.02621804701212L250.85787417546385,154.92197596866947L251.22286775046385,155.47912999432106L251.58786132546385,155.8796610835939L251.95285490046388,156.241146931305L252.31784847546388,155.81595066727547L252.68284205046388,156.20980727177127L253.04783562546388,155.9627237861444L253.41282920046388,156.08970500620387" fill="none"></path></g></g></g></g><g opacity="0.2"><g><g><g><path style="fill: none;" stroke="rgb(0, 153, 136)" stroke-width="2px" d="M36.97163922546387,-3.698863851995094L37.33663280046387,2.957316691756745L37.70162637546387,2.6077810484560757L38.06661995046387,1.3453932688430257L38.43161352546387,0.9990428108288315L38.796607100463866,16.751091076819208L39.161600675463866,30.75766878921168L39.526594250463866,37.915384214814885L39.89158782546387,43.94019513439955L40.256581400463865,53.41399058257866L40.62157497546387,62.20641998099029L40.986568550463865,71.08003865401474L41.35156212546387,80.8799641253376L41.716555700463864,86.72882650803643L42.081549275463864,90.50568192828466L42.44654285046387,97.73328471243242L42.81153642546386,103.00005448402555L43.17653000046387,109.31595838860262L43.54152357546386,111.24987658548642L43.90651715046387,116.82995326359583L44.27151072546387,118.9620229354918L44.63650430046387,124.46017445135321L45.00149787546387,123.59235973665201L45.36649145046387,126.41816825564385L45.73148502546387,130.44890491002025L46.09647860046386,133.8202011219676L46.46147217546387,132.5039672359166L46.82646575046387,133.44454695931773L47.19145932546387,135.06484522285544L47.55645290046387,135.166485583687L47.92144647546387,134.98311776176314L48.28644005046387,134.253457713014L48.65143362546387,134.63640759747955L49.016427200463866,136.22544161992073L49.381420775463866,137.91954282322584L49.746414350463866,139.24469797392837L50.111407925463865,141.60769357909473L50.476401500463865,144.00438624791263L50.841395075463865,145.10401655108492L51.20638865046387,146.45547693889483L51.571382225463864,144.5711844779444L51.93637580046387,144.08702258515132L52.301369375463864,147.5862561574895L52.66636295046387,150.88877982574257L53.03135652546387,152.80944655349484L53.39635010046386,153.9652994957477L53.76134367546387,154.3735029570062L54.12633725046386,154.4608099840486L54.49133082546387,154.82625233283602L54.85632440046386,155.16606355054006L55.22131797546387,143.18425869947907L55.58631155046387,157.2553268034501L55.95130512546387,156.26843009262438L56.31629870046387,155.9532587543758L56.68129227546387,159.67864871960276L57.04628585046387,159.43602409502802L57.41127942546387,158.97051750295594L57.77627300046387,160.93255045169178L58.14126657546387,159.35646036325105L58.506260150463866,158.95699556766L58.871253725463866,161.159155790955L59.23624730046387,160.96565990357493L59.601240875463866,159.8493609217116L59.96623445046387,159.72916136488746L60.331228025463865,161.18049790529918L60.696221600463865,161.29656633172374L61.061215175463865,162.28058264654464L61.426208750463864,161.59055618781719L61.79120232546387,161.7477231149103L62.156195900463864,163.23908727473042L62.52118947546387,162.86376947863022L62.88618305046386,163.06705431906747L63.25117662546387,161.02284770871432L63.61617020046387,161.9525621060994L63.98116377546387,161.78588767551108L64.34615735046387,161.24059631078654L64.71115092546387,161.96470013330537L65.07614450046387,161.5070864852902L65.44113807546387,159.75509316647847L65.80613165046387,160.2664636808266L66.17112522546387,160.25399615169445L66.53611880046387,159.3274024121353L66.90111237546387,159.70590127474793L67.26610595046387,159.71155360570677L67.63109952546387,161.5544482684057L67.99609310046387,161.48144711665867L68.36108667546387,160.75563125704835L68.72608025046387,161.30362453756763L69.09107382546387,161.2429495037094L69.45606740046387,161.34789037550163L69.82106097546387,161.4388589926988L70.18605455046388,161.68438048837464L70.55104812546386,161.86196143271982L70.91604170046386,161.7757527454314L71.28103527546386,161.62458275339492L71.64602885046388,162.76143441790424L72.01102242546388,160.84134019974874L72.37601600046386,161.3226930886211L72.74100957546386,163.84176963744883L73.10600315046386,160.9325847748091L73.47099672546388,161.36589628284315L73.83599030046386,162.36807089964645L74.20098387546386,162.11130515073944L74.56597745046386,162.25144231994736L74.93097102546388,162.17946948879498L75.29596460046388,161.41736997541256L75.66095817546386,161.73609444276522L76.02595175046386,162.33751646061592L76.39094532546386,159.90531172170307L76.75593890046387,160.43871905028973L77.12093247546387,160.90873158120243L77.48592605046386,160.89243496510304L77.85091962546386,161.6040836148119L78.21591320046387,160.36954286673586L78.58090677546387,160.50965532329934L78.94590035046387,159.5227833251181L79.31089392546386,160.1058012874665L79.67588750046387,162.73644718850164L80.04088107546387,163.93082165177532L80.40587465046387,161.81022276568476L80.77086822546386,163.33744359969768L81.13586180046386,161.68827684865184L81.50085537546387,160.29796955666896L81.86584895046387,162.45099005937178L82.23084252546387,161.84339537210377L82.59583610046386,152.89938135839856L82.96082967546387,162.70860015696465L83.32582325046387,161.8956461400491L83.69081682546387,158.94477653789716L84.05581040046387,161.8050935190338L84.42080397546385,163.0917834386279L84.78579755046387,162.80617803363126L85.15079112546387,162.8770841022976L85.51578470046387,163.84035964378967L85.88077827546387,164.0324414187365L86.24577185046387,164.09118474755246L86.61076542546387,163.72359514454604L86.97575900046387,163.33179401458824L87.34075257546387,163.2669960878786L87.70574615046387,163.22744899211253L88.07073972546387,163.85772988699858L88.43573330046387,164.5505461287011L88.80072687546387,163.92936085990254L89.16572045046387,165.25613880759158L89.53071402546388,164.29622143989727L89.89570760046387,162.94563835096582L90.26070117546386,164.2087839850091L90.62569475046386,164.78284498666392L90.99068832546388,164.86297985511294L91.35568190046388,163.55369022215638L91.72067547546386,163.80895124560047L92.08566905046386,165.53715864411544L92.45066262546386,164.94932171609653L92.81565620046388,164.36223852373382L93.18064977546386,162.89897813236814L93.54564335046386,164.5905435437663L93.91063692546386,164.089155564857L94.27563050046388,164.19508082365374L94.64062407546388,163.30445496518746L95.00561765046386,162.62993294501183L95.37061122546386,161.97363924597792L95.73560480046386,162.99564713288837L96.10059837546387,163.17926070833218L96.46559195046387,162.2354683411507L96.83058552546386,162.68207387898178L97.19557910046386,163.89021603107136L97.56057267546387,164.73232822260516L97.92556625046387,162.22955103572622L98.29055982546387,163.99645843547205L98.65555340046386,164.93753241176248L99.02054697546386,164.73883039394863L99.38554055046387,164.1966487036525L99.75053412546387,163.50971819010653L100.11552770046386,165.4186683785334L100.48052127546386,162.4372113871583L100.84551485046387,164.00215195417164L101.21050842546387,162.683416599331L101.57550200046387,164.27480381469502L101.94049557546386,164.19710039587633L102.30548915046387,164.33006266064152L102.67048272546387,166.17559471167468L103.03547630046387,163.74135117959352L103.40046987546387,163.64232624030106L103.76546345046386,163.8949224169171L104.13045702546387,162.8916027809203L104.49545060046387,163.64784127879065L104.86044417546387,164.8831426271463L105.22543775046387,164.05544614488323L105.59043132546387,164.09394020741018L105.95542490046387,162.73084702868113L106.32041847546387,163.74587633937983L106.68541205046387,163.61620634802716L107.05040562546387,163.50425394983057L107.41539920046387,163.53584631992857L107.78039277546387,164.0455391203025L108.14538635046387,164.54690101364264L108.51037992546387,164.5536722782258L108.87537350046388,163.95344058608345L109.24036707546387,164.86148885889693L109.60536065046387,164.60998141156202L109.97035422546386,158.06701086502508L110.33534780046386,164.77836650631716L110.70034137546388,164.48674631824287L111.06533495046386,162.4699679973955L111.43032852546386,164.48817415992303L111.79532210046386,163.88572107562828L112.16031567546388,165.28530247390864L112.52530925046386,164.64745813689188L112.89030282546386,164.3076935986274L113.25529640046386,164.8903614651792L113.62028997546388,164.67696503438205L113.98528355046388,164.99128378639665L114.35027712546386,165.6374041134595L114.71527070046386,165.50311423051673L115.08026427546386,165.59092031568483L115.44525785046388,165.14301255878294L115.81025142546387,165.70757772680244L116.17524500046386,165.22332041574322L116.54023857546386,164.06324573006106L116.90523215046387,163.91872893108422L117.27022572546387,165.1706330577457L117.63521930046387,164.07694477264232L118.00021287546386,164.33370914862465L118.36520645046386,165.1162487648283L118.73020002546387,165.5397177757422L119.09519360046387,164.24914110634373L119.46018717546386,164.3971039462986L119.82518075046386,163.9701147564733L120.19017432546387,162.44782958672974L120.55516790046387,161.74214904065894L120.92016147546387,160.95243726586193L121.28515505046386,161.85566245423084L121.65014862546386,160.61309970717681L122.01514220046387,159.34087217629295L122.38013577546387,158.87856449875432L122.74512935046387,161.00007226099123L123.11012292546386,161.2548651171152L123.47511650046387,160.98617002555548L123.84011007546387,160.9647372981816L124.20510365046387,162.2952125320674L124.57009722546387,163.37729136597142L124.93509080046387,162.17172070183076L125.30008437546387,163.3137194610121L125.66507795046387,164.3112975259451L126.03007152546387,164.28003328484857L126.39506510046387,162.53221777587598L126.76005867546387,162.87225827200365L127.12505225046387,161.81060993044804L127.49004582546387,162.8559836226993L127.85503940046387,162.12778161997355L128.22003297546388,162.20261425326032L128.58502655046388,162.26437938932435L128.95002012546388,159.49661812632937L129.31501370046385,162.0899424425249L129.68000727546385,160.2664403411068L130.04500085046388,158.59545232499914L130.40999442546388,159.60309667377715L130.77498800046388,160.02605221085605L131.13998157546385,160.98365208166953L131.50497515046388,162.15882344726987L131.86996872546388,161.68619412189338L132.23496230046388,161.89379681048837L132.59995587546388,163.21209557527683L132.96494945046388,162.49070465195032L133.32994302546388,163.7288067666786L133.69493660046388,160.2470560173741L134.05993017546388,161.09102577601678L134.42492375046385,162.48897064806374L134.78991732546388,162.5772661808847L135.15491090046388,163.17204873492273L135.51990447546387,163.86078327151458L135.88489805046387,164.70446746182125L136.24989162546387,162.92839304390392L136.61488520046387,165.54996871795836L136.97987877546387,164.3257310832368L137.34487235046387,157.06499550748612L137.70986592546387,162.34112862548176L138.07485950046387,160.94688515840568L138.43985307546387,159.76943336489114L138.80484665046387,161.87317410868306L139.16984022546387,161.32642195208578L139.53483380046387,161.408926488554L139.89982737546387,161.5721274196704L140.26482095046387,161.95657791082482L140.62981452546387,162.0902843007733L140.99480810046387,162.30017428190595L141.35980167546384,163.22246252962955L141.72479525046384,163.48659813828564L142.08978882546387,163.7541097687605L142.45478240046387,162.88037088401134L142.81977597546387,164.32443641525185L143.18476955046387,164.37873146806422L143.54976312546387,164.98226778994132L143.91475670046387,163.73677659451826L144.27975027546387,163.60829830179864L144.64474385046387,163.08940278721118L145.00973742546384,162.56112333235086L145.37473100046387,164.27654605612975L145.73972457546387,164.128841326017L146.10471815046387,159.90602701546786L146.46971172546387,161.4529163686248L146.83470530046387,161.19824158402443L147.19969887546387,163.01900195483165L147.56469245046387,161.01248487313572L147.92968602546387,163.25692156648537L148.2946796004639,161.29884950548728L148.65967317546387,160.4100427722385L149.02466675046387,159.32263287175374L149.38966032546386,158.97562752866125L149.75465390046386,159.73287375325583L150.11964747546386,159.37951588761138L150.48464105046386,160.49091352832266L150.84963462546386,160.1421975210634L151.21462820046386,161.8032551728706L151.5796217754639,160.0993979667009L151.9446153504639,160.75922557389322L152.30960892546386,160.17431160254452L152.67460250046386,160.7635722534695L153.03959607546386,161.34991955819712L153.40458965046386,161.33027163292343L153.76958322546386,161.4260592157911L154.13457680046386,160.9460064866025L154.49957037546386,163.63497560149767L154.8645639504639,162.66418055146505L155.2295575254639,161.39558440639274L155.59455110046386,161.42544826430296L155.95954467546386,162.4949813123673L156.32453825046386,161.56797020370166L156.68953182546386,162.46819555161758L157.05452540046386,163.5103552271638L157.41951897546386,162.92134307560818L157.78451255046386,163.74482330614072L158.1495061254639,161.74181679288338L158.5144997004639,161.7531983385838L158.8794932754639,162.3803928987612L159.24448685046386,161.43592642555575L159.60948042546386,160.8998597418398L159.97447400046386,161.04599933780315L160.33946757546386,161.68826998402835L160.70446115046386,162.58661991681436L161.06945472546386,163.88618375124963L161.43444830046388,163.07080789517664L161.79944187546388,164.01535537093895L162.16443545046388,164.98172960346187L162.52942902546388,163.30297769821837L162.89442260046386,163.38408322442496L163.25941617546385,164.0226593303028L163.62440975046385,162.44490800298422L163.98940332546385,161.90570281342133L164.35439690046385,162.69945235973884L164.71939047546388,155.53639900293135L165.08438405046388,161.7388828528156L165.44937762546388,160.86853646498153L165.81437120046388,159.6075092537387L166.17936477546385,161.48237521375077L166.54435835046385,163.54476483873074L166.90935192546385,162.20612070292484L167.27434550046385,164.79670328850955L167.63933907546385,162.40768938749653L168.00433265046388,164.70885121036423L168.36932622546388,163.42393510947275L168.73431980046388,162.51919970394215L169.09931337546388,163.01493260604323L169.46430695046388,163.40920911922152L169.82930052546385,163.73140983189546L170.19429410046385,163.35049050305005L170.55928767546385,164.8015661877702L170.92428125046388,164.11338768567876L171.28927482546388,164.6014733972429L171.65426840046388,163.18000208766608L172.01926197546388,163.88978905149202L172.38425555046388,163.8642512792877L172.74924912546388,163.08039365537934L173.11424270046385,163.2018082505563L173.47923627546385,163.4302519359827L173.84422985046385,162.42547150811316L174.20922342546388,161.03663599140063L174.57421700046388,161.93189821655332L174.93921057546387,161.75072158243862L175.30420415046387,163.28492099266325L175.66919772546387,160.79295833358674L176.03419130046387,160.90359409700326L176.39918487546387,163.95797810219202L176.76417845046385,162.00819438756224L177.12917202546384,161.74689798717014L177.49416560046387,162.75798288522742L177.85915917546387,161.07421019438362L178.22415275046387,161.64454370549848L178.58914632546387,161.82825338567073L178.95413990046387,162.92522296078906L179.31913347546387,163.46604408271494L179.68412705046387,160.98183021060262L180.04912062546384,162.51821394401298L180.41411420046384,162.67631720574633L180.77910777546387,162.2941951948703L181.14410135046387,162.7603539261713L181.50909492546387,163.74667400862614L181.87408850046387,163.31535049554674L182.23908207546387,164.0663265730709L182.60407565046387,162.9142656488186L182.96906922546387,162.29793229588316L183.33406280046387,163.46608252460632L183.69905637546384,163.67679076885565L184.06404995046387,165.6658051201099L184.42904352546387,163.71766136402528L184.79403710046387,164.1348670924922L185.15903067546387,163.75341506886608L185.52402425046387,164.71760909697738L185.88901782546387,165.0872539682484L186.25401140046387,164.58532642993498L186.61900497546387,163.95220769970962L186.98399855046387,164.51142052081562L187.34899212546387,163.74535050922262L187.71398570046387,162.145377022832L188.07897927546387,164.1239344931662L188.44397285046387,162.3188076158319L188.80896642546386,163.2032484485587L189.17396000046386,162.20743184600613L189.53895357546386,164.7231900358522L189.90394715046386,163.6393373832456L190.2689407254639,161.6993796906397L190.6339343004639,161.95825013310022L190.99892787546386,161.1792142207117L191.36392145046386,163.97177187657707L191.72891502546386,161.98025399714615L192.09390860046386,157.77163023621816L192.45890217546386,162.70848757713986L192.82389575046386,162.57238406067836L193.18888932546386,159.7922156772377L193.5538829004639,161.00718812967222L193.9188764754639,161.4819496070961L194.28387005046386,161.74755287224843L194.64886362546386,162.0353577026024L195.01385720046386,163.08920783190487L195.37885077546386,160.51781324182187L195.74384435046386,162.06418774821918L196.10883792546386,161.87602567326928L196.47383150046386,162.76873425849402L196.8388250754639,162.15713612282286L197.2038186504639,160.7828920497417L197.5688122254639,162.54184197797005L197.93380580046386,159.87219540519646L198.29879937546386,161.06924432577102L198.66379295046386,159.6853897798427L199.02878652546386,159.37251946337867L199.39378010046386,160.81154773392254L199.75877367546386,160.30270614685793L200.12376725046389,158.2432710558161L200.48876082546388,161.2295621150333L200.85375440046388,160.0177666103371L201.21874797546388,160.6040438959054L201.58374155046386,157.8851546331876L201.94873512546386,160.32178018961017L202.31372870046386,160.95974534399986L202.67872227546385,160.1067843015463L203.04371585046385,159.98158867176633L203.40870942546388,158.60381343637616L203.77370300046388,162.3804999868872L204.13869657546388,162.14291125008438L204.50369015046388,163.37893201097887L204.86868372546385,162.21748577352898L205.23367730046385,160.42588769611407L205.59867087546385,161.2620317840098L205.96366445046385,159.4498288528106L206.32865802546385,158.6853075002707L206.69365160046388,160.34255116728227L207.05864517546388,160.59739894039393L207.42363875046388,160.4671028953815L207.78863232546388,160.53230308902602L208.15362590046388,159.27550173998657L208.51861947546385,159.6604382464821L208.88361305046385,161.55480934759981L209.24860662546385,161.69416394973305L209.61360020046385,161.75267937305003L209.97859377546388,163.45567850128694L210.34358735046388,162.4354156016606L210.70858092546388,161.8663108581455L211.07357450046388,163.92299048932958L211.43856807546388,160.570301525739L211.80356165046385,161.43449171925212L212.16855522546385,161.85289463805086L212.53354880046385,162.25022041697108L212.89854237546388,161.7805373879846L213.26353595046388,159.62470376258696L213.62852952546388,159.8117084620211L213.99352310046388,160.32001460845566L214.35851667546387,161.7586680705585L214.72351025046387,162.00675007078576L215.08850382546387,162.01334560100833L215.45349740046385,162.33635222047673L215.81849097546385,162.58232266252702L216.18348455046387,161.4533186355597L216.54847812546387,158.53575344059726L216.91347170046387,161.51317677922592L217.27846527546387,159.7696022346283L217.64345885046387,161.05305754364704L218.00845242546387,161.399663365654L218.37344600046387,159.27068140139136L218.73843957546384,159.07355412819976L219.10343315046384,158.4431661451877L219.46842672546387,154.38089752939976L219.83342030046387,161.58572349289977L220.19841387546387,161.04053509752717L220.56340745046387,161.0370011893688L220.92840102546387,158.55648597637796L221.29339460046387,159.59779169276553L221.65838817546387,161.24965624083205L222.02338175046387,160.48031454969694L222.38837532546384,161.60478792517915L222.75336890046387,162.30104334323627L223.11836247546387,162.88406542435874L223.48335605046387,162.11608704744324L223.84834962546387,162.28597000303782L224.21334320046387,160.36250388183765L224.57833677546387,161.97259994198575L224.94333035046387,161.18480202421L225.30832392546387,159.72081810153142L225.67331750046387,158.44350251173736L226.03831107546387,158.75259728529716L226.40330465046387,158.62085417765886L226.76829822546387,158.23014726868095L227.13329180046387,154.57943067747644L227.49828537546387,156.0925460831991L227.86327895046387,159.3370403434763L228.22827252546386,159.40587878755585L228.59326610046386,159.08800965228656L228.95825967546386,161.31024203458526L229.3232532504639,159.98465853137864L229.68824682546386,161.32671850381936L230.05324040046386,159.4677070781557L230.41823397546386,159.64708929969737L230.78322755046386,158.8072314505086L231.14822112546386,161.88260472839553L231.51321470046386,159.6217327535525L231.87820827546386,160.7081719962797L232.24320185046386,161.1180106108469L232.6081954254639,160.75963882422562L232.97318900046386,160.0026342343769L233.33818257546386,160.91347915478892L233.70317615046386,162.13027759706443L234.06816972546386,161.6789189939481L234.43316330046386,161.5373910520267L234.79815687546386,162.10351380310976L235.16315045046386,159.71297046398936L235.5281440254639,159.63193907571616L235.8931376004639,157.9704256129111L236.2581311754639,159.72937828698886L236.62312475046386,161.20384311676963L236.98811832546386,161.1925343360779L237.35311190046386,162.48854916018317L237.71810547546386,160.2886872128233L238.08309905046386,159.37211719644378L238.44809262546386,161.7994343234515L238.81308620046389,159.11278407836187L239.17807977546389,158.73588330009125L239.54307335046389,163.245896981205L239.90806692546388,160.2091646687871L240.27306050046386,160.8680147535984L240.63805407546386,160.87045993247565L241.00304765046386,158.7096824052605L241.36804122546386,157.43976550663405L241.73303480046386,158.8709955649248L242.09802837546388,158.41167674444162L242.46302195046388,157.41253903705802L242.82801552546388,157.3573213788523L243.19300910046388,155.65797697614673L243.55800267546385,158.9843867881991L243.92299625046385,156.4091576194501L244.28798982546385,158.30315253920207L244.65298340046385,156.0986967858213L245.01797697546385,156.20049091421842L245.38297055046388,156.74890430969356L245.74796412546388,155.1332424128423L246.11295770046388,152.06875368191712L246.47795127546388,152.60369456738522L246.84294485046388,149.4809416583618L247.20793842546385,149.96967539038076L247.57293200046385,149.6675385991623L247.93792557546385,152.58482783626155L248.30291915046385,150.628967556943L248.66791272546388,150.0508070021565L249.03290630046388,153.35895691579924L249.39789987546388,154.46299842600837L249.76289345046388,154.06783774932813L250.12788702546388,154.17280196084016L250.49288060046385,154.5676674587115L250.85787417546385,156.26561285115548L251.22286775046385,156.31486103279843L251.58786132546385,156.48045771750319L251.95285490046388,156.78337570287164L252.31784847546388,155.17815627123116L252.68284205046388,156.800592178515L253.04783562546388,155.59209855770413L253.41282920046388,156.280176836293" fill="none"></path></g></g></g></g></g></g><g transform="translate(51, 176)" clip-path="url(#clip_1)"><clipPath id="clip_1"><rect width="278" height="23"></rect></clipPath><g><g><line x1="0" y1="0" x2="0" y2="5" style="visibility: inherit;" fill="rgb(0, 0, 0)" stroke="rgb(204, 204, 204)" stroke-width="1px"></line><line x1="27.846799850463867" y1="0" x2="27.846799850463867" y2="5" style="visibility: inherit;" fill="rgb(0, 0, 0)" stroke="rgb(204, 204, 204)" stroke-width="1px"></line><line x1="55.693599700927734" y1="0" x2="55.693599700927734" y2="5" style="visibility: inherit;" fill="rgb(0, 0, 0)" stroke="rgb(204, 204, 204)" stroke-width="1px"></line><line x1="83.5403995513916" y1="0" x2="83.5403995513916" y2="5" style="visibility: inherit;" fill="rgb(0, 0, 0)" stroke="rgb(204, 204, 204)" stroke-width="1px"></line><line x1="111.38719940185547" y1="0" x2="111.38719940185547" y2="5" style="visibility: inherit;" fill="rgb(0, 0, 0)" stroke="rgb(204, 204, 204)" stroke-width="1px"></line><line x1="139.23399925231934" y1="0" x2="139.23399925231934" y2="5" style="visibility: inherit;" fill="rgb(0, 0, 0)" stroke="rgb(204, 204, 204)" stroke-width="1px"></line><line x1="167.0807991027832" y1="0" x2="167.0807991027832" y2="5" style="visibility: inherit;" fill="rgb(0, 0, 0)" stroke="rgb(204, 204, 204)" stroke-width="1px"></line><line x1="194.92759895324707" y1="0" x2="194.92759895324707" y2="5" style="visibility: inherit;" fill="rgb(0, 0, 0)" stroke="rgb(204, 204, 204)" stroke-width="1px"></line><line x1="222.77439880371094" y1="0" x2="222.77439880371094" y2="5" style="visibility: inherit;" fill="rgb(0, 0, 0)" stroke="rgb(204, 204, 204)" stroke-width="1px"></line><line x1="250.6211986541748" y1="0" x2="250.6211986541748" y2="5" style="visibility: inherit;" fill="rgb(0, 0, 0)" stroke="rgb(204, 204, 204)" stroke-width="1px"></line><line x1="278.4679985046387" y1="0" x2="278.4679985046387" y2="5" style="visibility: inherit;" fill="rgb(0, 0, 0)" stroke="rgb(204, 204, 204)" stroke-width="1px"></line></g><g transform="translate(0, 8)"><text style="text-anchor: middle; visibility: hidden; font-family: Roboto, sans-serif; font-size: 12px; font-weight: 200;" x="0" y="0" dx="0em" dy="0.95em" fill="rgb(33, 33, 33)" stroke="none" stroke-width="1px">-10M</text><text style="text-anchor: middle; visibility: inherit; font-family: Roboto, sans-serif; font-size: 12px; font-weight: 200;" x="27.846799850463867" y="0" dx="0em" dy="0.95em" fill="rgb(33, 33, 33)" stroke="none" stroke-width="1px">0</text><text style="text-anchor: middle; visibility: hidden; font-family: Roboto, sans-serif; font-size: 12px; font-weight: 200;" x="55.693599700927734" y="0" dx="0em" dy="0.95em" fill="rgb(33, 33, 33)" stroke="none" stroke-width="1px">10M</text><text style="text-anchor: middle; visibility: inherit; font-family: Roboto, sans-serif; font-size: 12px; font-weight: 200;" x="83.5403995513916" y="0" dx="0em" dy="0.95em" fill="rgb(33, 33, 33)" stroke="none" stroke-width="1px">20M</text><text style="text-anchor: middle; visibility: hidden; font-family: Roboto, sans-serif; font-size: 12px; font-weight: 200;" x="111.38719940185547" y="0" dx="0em" dy="0.95em" fill="rgb(33, 33, 33)" stroke="none" stroke-width="1px">30M</text><text style="text-anchor: middle; visibility: inherit; font-family: Roboto, sans-serif; font-size: 12px; font-weight: 200;" x="139.23399925231934" y="0" dx="0em" dy="0.95em" fill="rgb(33, 33, 33)" stroke="none" stroke-width="1px">40M</text><text style="text-anchor: middle; visibility: hidden; font-family: Roboto, sans-serif; font-size: 12px; font-weight: 200;" x="167.0807991027832" y="0" dx="0em" dy="0.95em" fill="rgb(33, 33, 33)" stroke="none" stroke-width="1px">50M</text><text style="text-anchor: middle; visibility: inherit; font-family: Roboto, sans-serif; font-size: 12px; font-weight: 200;" x="194.92759895324707" y="0" dx="0em" dy="0.95em" fill="rgb(33, 33, 33)" stroke="none" stroke-width="1px">60M</text><text style="text-anchor: middle; visibility: hidden; font-family: Roboto, sans-serif; font-size: 12px; font-weight: 200;" x="222.77439880371094" y="0" dx="0em" dy="0.95em" fill="rgb(33, 33, 33)" stroke="none" stroke-width="1px">70M</text><text style="text-anchor: middle; visibility: inherit; font-family: Roboto, sans-serif; font-size: 12px; font-weight: 200;" x="250.6211986541748" y="0" dx="0em" dy="0.95em" fill="rgb(33, 33, 33)" stroke="none" stroke-width="1px">80M</text><text style="text-anchor: middle; visibility: hidden; font-family: Roboto, sans-serif; font-size: 12px; font-weight: 200;" x="278.4679985046387" y="0" dx="0em" dy="0.95em" fill="rgb(33, 33, 33)" stroke="none" stroke-width="1px">90M</text></g><line x1="0" y1="0" x2="278.4679985046387" y2="0" fill="rgb(0, 0, 0)" stroke="rgb(204, 204, 204)" stroke-width="1px"></line></g></g></g></g></svg>