<svg viewBox="0 0 330 200" xmlns="http://www.w3.org/2000/svg"><g><g><g><g><g><line x1="72.29800224304199" y1="176.89999961853027" x2="67.29800224304199" y2="176.89999961853027" style="visibility: inherit;" fill="rgb(0, 0, 0)" stroke="rgb(204, 204, 204)" stroke-width="1px"></line><line x1="72.29800224304199" y1="163.2923073401818" x2="67.29800224304199" y2="163.2923073401818" style="visibility: inherit;" fill="rgb(0, 0, 0)" stroke="rgb(204, 204, 204)" stroke-width="1px"></line><line x1="72.29800224304199" y1="149.6846150618333" x2="67.29800224304199" y2="149.6846150618333" style="visibility: inherit;" fill="rgb(0, 0, 0)" stroke="rgb(204, 204, 204)" stroke-width="1px"></line><line x1="72.29800224304199" y1="136.0769227834848" x2="67.29800224304199" y2="136.0769227834848" style="visibility: inherit;" fill="rgb(0, 0, 0)" stroke="rgb(204, 204, 204)" stroke-width="1px"></line><line x1="72.29800224304199" y1="122.46923050513634" x2="67.29800224304199" y2="122.46923050513634" style="visibility: inherit;" fill="rgb(0, 0, 0)" stroke="rgb(204, 204, 204)" stroke-width="1px"></line><line x1="72.29800224304199" y1="108.86153822678787" x2="67.29800224304199" y2="108.86153822678787" style="visibility: inherit;" fill="rgb(0, 0, 0)" stroke="rgb(204, 204, 204)" stroke-width="1px"></line><line x1="72.29800224304199" y1="95.25384594843938" x2="67.29800224304199" y2="95.25384594843938" style="visibility: inherit;" fill="rgb(0, 0, 0)" stroke="rgb(204, 204, 204)" stroke-width="1px"></line><line x1="72.29800224304199" y1="81.6461536700909" x2="67.29800224304199" y2="81.6461536700909" style="visibility: inherit;" fill="rgb(0, 0, 0)" stroke="rgb(204, 204, 204)" stroke-width="1px"></line><line x1="72.29800224304199" y1="68.0384613917424" x2="67.29800224304199" y2="68.0384613917424" style="visibility: inherit;" fill="rgb(0, 0, 0)" stroke="rgb(204, 204, 204)" stroke-width="1px"></line><line x1="72.29800224304199" y1="54.430769113393936" x2="67.29800224304199" y2="54.430769113393936" style="visibility: inherit;" fill="rgb(0, 0, 0)" stroke="rgb(204, 204, 204)" stroke-width="1px"></line><line x1="72.29800224304199" y1="40.82307683504544" x2="67.29800224304199" y2="40.82307683504544" style="visibility: inherit;" fill="rgb(0, 0, 0)" stroke="rgb(204, 204, 204)" stroke-width="1px"></line><line x1="72.29800224304199" y1="27.215384556696968" x2="67.29800224304199" y2="27.215384556696968" style="visibility: inherit;" fill="rgb(0, 0, 0)" stroke="rgb(204, 204, 204)" stroke-width="1px"></line><line x1="72.29800224304199" y1="13.607692278348473" x2="67.29800224304199" y2="13.607692278348473" style="visibility: inherit;" fill="rgb(0, 0, 0)" stroke="rgb(204, 204, 204)" stroke-width="1px"></line><line x1="72.29800224304199" y1="0" x2="67.29800224304199" y2="0" style="visibility: inherit;" fill="rgb(0, 0, 0)" stroke="rgb(204, 204, 204)" stroke-width="1px"></line></g><g transform="translate(62.29800224304199, 0)"><text style="text-anchor: end; visibility: hidden; font-family: Roboto, sans-serif; font-size: 12px; font-weight: 200;" x="0" y="176.89999961853027" dx="0em" dy="0.3em" fill="rgb(33, 33, 33)" stroke="none" stroke-width="1px">2e+4</text><text style="text-anchor: end; visibility: inherit; font-family: Roboto, sans-serif; font-size: 12px; font-weight: 200;" x="0" y="163.2923073401818" dx="0em" dy="0.3em" fill="rgb(33, 33, 33)" stroke="none" stroke-width="1px">4e+4</text><text style="text-anchor: end; visibility: hidden; font-family: Roboto, sans-serif; font-size: 12px; font-weight: 200;" x="0" y="149.6846150618333" dx="0em" dy="0.3em" fill="rgb(33, 33, 33)" stroke="none" stroke-width="1px">6e+4</text><text style="text-anchor: end; visibility: inherit; font-family: Roboto, sans-serif; font-size: 12px; font-weight: 200;" x="0" y="136.0769227834848" dx="0em" dy="0.3em" fill="rgb(33, 33, 33)" stroke="none" stroke-width="1px">8e+4</text><text style="text-anchor: end; visibility: hidden; font-family: Roboto, sans-serif; font-size: 12px; font-weight: 200;" x="0" y="122.46923050513634" dx="0em" dy="0.3em" fill="rgb(33, 33, 33)" stroke="none" stroke-width="1px">1e+5</text><text style="text-anchor: end; visibility: inherit; font-family: Roboto, sans-serif; font-size: 12px; font-weight: 200;" x="0" y="108.86153822678787" dx="0em" dy="0.3em" fill="rgb(33, 33, 33)" stroke="none" stroke-width="1px">1.2e+5</text><text style="text-anchor: end; visibility: hidden; font-family: Roboto, sans-serif; font-size: 12px; font-weight: 200;" x="0" y="95.25384594843938" dx="0em" dy="0.3em" fill="rgb(33, 33, 33)" stroke="none" stroke-width="1px">1.4e+5</text><text style="text-anchor: end; visibility: inherit; font-family: Roboto, sans-serif; font-size: 12px; font-weight: 200;" x="0" y="81.6461536700909" dx="0em" dy="0.3em" fill="rgb(33, 33, 33)" stroke="none" stroke-width="1px">1.6e+5</text><text style="text-anchor: end; visibility: hidden; font-family: Roboto, sans-serif; font-size: 12px; font-weight: 200;" x="0" y="68.0384613917424" dx="0em" dy="0.3em" fill="rgb(33, 33, 33)" stroke="none" stroke-width="1px">1.8e+5</text><text style="text-anchor: end; visibility: inherit; font-family: Roboto, sans-serif; font-size: 12px; font-weight: 200;" x="0" y="54.430769113393936" dx="0em" dy="0.3em" fill="rgb(33, 33, 33)" stroke="none" stroke-width="1px">2e+5</text><text style="text-anchor: end; visibility: hidden; font-family: Roboto, sans-serif; font-size: 12px; font-weight: 200;" x="0" y="40.82307683504544" dx="0em" dy="0.3em" fill="rgb(33, 33, 33)" stroke="none" stroke-width="1px">2.2e+5</text><text style="text-anchor: end; visibility: inherit; font-family: Roboto, sans-serif; font-size: 12px; font-weight: 200;" x="0" y="27.215384556696968" dx="0em" dy="0.3em" fill="rgb(33, 33, 33)" stroke="none" stroke-width="1px">2.4e+5</text><text style="text-anchor: end; visibility: hidden; font-family: Roboto, sans-serif; font-size: 12px; font-weight: 200;" x="0" y="13.607692278348473" dx="0em" dy="0.3em" fill="rgb(33, 33, 33)" stroke="none" stroke-width="1px">2.6e+5</text><text style="text-anchor: end; visibility: hidden; font-family: Roboto, sans-serif; font-size: 12px; font-weight: 200;" x="0" y="0" dx="0em" dy="0.3em" fill="rgb(33, 33, 33)" stroke="none" stroke-width="1px">2.8e+5</text></g><line x1="72.29800224304199" y1="0" x2="72.29800224304199" y2="176.89999961853027" fill="rgb(0, 0, 0)" stroke="rgb(204, 204, 204)" stroke-width="1px"></line></g></g><g transform="translate(72, 0)" clip-path="url(#clip_0)"><clipPath id="clip_0"><rect width="257" height="176"></rect></clipPath><g><g><g><line x1="0" y1="0" x2="0" y2="176.89999961853027" fill="rgb(0, 0, 0)" stroke="rgb(66, 66, 66)" stroke-width="1px" opacity="0.25"></line><line x1="25.7701997756958" y1="0" x2="25.7701997756958" y2="176.89999961853027" fill="rgb(0, 0, 0)" stroke="rgb(66, 66, 66)" stroke-width="1px" opacity="0.25"></line><line x1="51.5403995513916" y1="0" x2="51.5403995513916" y2="176.89999961853027" fill="rgb(0, 0, 0)" stroke="rgb(66, 66, 66)" stroke-width="1px" opacity="0.25"></line><line x1="77.3105993270874" y1="0" x2="77.3105993270874" y2="176.89999961853027" fill="rgb(0, 0, 0)" stroke="rgb(66, 66, 66)" stroke-width="1px" opacity="0.25"></line><line x1="103.0807991027832" y1="0" x2="103.0807991027832" y2="176.89999961853027" fill="rgb(0, 0, 0)" stroke="rgb(66, 66, 66)" stroke-width="1px" opacity="0.25"></line><line x1="128.850998878479" y1="0" x2="128.850998878479" y2="176.89999961853027" fill="rgb(0, 0, 0)" stroke="rgb(66, 66, 66)" stroke-width="1px" opacity="0.25"></line><line x1="154.6211986541748" y1="0" x2="154.6211986541748" y2="176.89999961853027" fill="rgb(0, 0, 0)" stroke="rgb(66, 66, 66)" stroke-width="1px" opacity="0.25"></line><line x1="180.3913984298706" y1="0" x2="180.3913984298706" y2="176.89999961853027" fill="rgb(0, 0, 0)" stroke="rgb(66, 66, 66)" stroke-width="1px" opacity="0.25"></line><line x1="206.1615982055664" y1="0" x2="206.1615982055664" y2="176.89999961853027" fill="rgb(0, 0, 0)" stroke="rgb(66, 66, 66)" stroke-width="1px" opacity="0.25"></line><line x1="231.9317979812622" y1="0" x2="231.9317979812622" y2="176.89999961853027" fill="rgb(0, 0, 0)" stroke="rgb(66, 66, 66)" stroke-width="1px" opacity="0.25"></line><line x1="257.701997756958" y1="0" x2="257.701997756958" y2="176.89999961853027" fill="rgb(0, 0, 0)" stroke="rgb(66, 66, 66)" stroke-width="1px" opacity="0.25"></line></g><g><line x1="0" y1="176.89999961853027" x2="257.701997756958" y2="176.89999961853027" fill="rgb(0, 0, 0)" stroke="rgb(66, 66, 66)" stroke-width="1px" opacity="0.25"></line><line x1="0" y1="163.2923073401818" x2="257.701997756958" y2="163.2923073401818" fill="rgb(0, 0, 0)" stroke="rgb(66, 66, 66)" stroke-width="1px" opacity="0.25"></line><line x1="0" y1="149.6846150618333" x2="257.701997756958" y2="149.6846150618333" fill="rgb(0, 0, 0)" stroke="rgb(66, 66, 66)" stroke-width="1px" opacity="0.25"></line><line x1="0" y1="136.0769227834848" x2="257.701997756958" y2="136.0769227834848" fill="rgb(0, 0, 0)" stroke="rgb(66, 66, 66)" stroke-width="1px" opacity="0.25"></line><line x1="0" y1="122.46923050513634" x2="257.701997756958" y2="122.46923050513634" fill="rgb(0, 0, 0)" stroke="rgb(66, 66, 66)" stroke-width="1px" opacity="0.25"></line><line x1="0" y1="108.86153822678787" x2="257.701997756958" y2="108.86153822678787" fill="rgb(0, 0, 0)" stroke="rgb(66, 66, 66)" stroke-width="1px" opacity="0.25"></line><line x1="0" y1="95.25384594843938" x2="257.701997756958" y2="95.25384594843938" fill="rgb(0, 0, 0)" stroke="rgb(66, 66, 66)" stroke-width="1px" opacity="0.25"></line><line x1="0" y1="81.6461536700909" x2="257.701997756958" y2="81.6461536700909" fill="rgb(0, 0, 0)" stroke="rgb(66, 66, 66)" stroke-width="1px" opacity="0.25"></line><line x1="0" y1="68.0384613917424" x2="257.701997756958" y2="68.0384613917424" fill="rgb(0, 0, 0)" stroke="rgb(66, 66, 66)" stroke-width="1px" opacity="0.25"></line><line x1="0" y1="54.430769113393936" x2="257.701997756958" y2="54.430769113393936" fill="rgb(0, 0, 0)" stroke="rgb(66, 66, 66)" stroke-width="1px" opacity="0.25"></line><line x1="0" y1="40.82307683504544" x2="257.701997756958" y2="40.82307683504544" fill="rgb(0, 0, 0)" stroke="rgb(66, 66, 66)" stroke-width="1px" opacity="0.25"></line><line x1="0" y1="27.215384556696968" x2="257.701997756958" y2="27.215384556696968" fill="rgb(0, 0, 0)" stroke="rgb(66, 66, 66)" stroke-width="1px" opacity="0.25"></line><line x1="0" y1="13.607692278348473" x2="257.701997756958" y2="13.607692278348473" fill="rgb(0, 0, 0)" stroke="rgb(66, 66, 66)" stroke-width="1px" opacity="0.25"></line><line x1="0" y1="0" x2="257.701997756958" y2="0" fill="rgb(0, 0, 0)" stroke="rgb(66, 66, 66)" stroke-width="1px" opacity="0.25"></line></g></g></g><g><g><line x1="0" y1="190.50769189687875" x2="257.701997756958" y2="190.50769189687875" fill="rgb(0, 0, 0)" stroke="rgb(153, 153, 153)" stroke-width="1.5px"></line></g></g><g><g><line x1="25.7701997756958" y1="0" x2="25.7701997756958" y2="176.89999961853027" fill="rgb(0, 0, 0)" stroke="rgb(153, 153, 153)" stroke-width="1.5px"></line></g></g><g><g><g><g><g><path style="fill: none;" stroke="rgb(0, 153, 136)" stroke-width="2px" d="M25.7701997756958,176.6697465683958L26.107974938195802,172.80595513432613L26.4457501006958,171.73771367853334L26.7835252631958,171.20999863643263L27.1213004256958,141.08744506125242L27.4590755881958,88.45711858068617L27.7968507506958,58.61020608335224L28.1346259131958,40.95618430231216L28.472401075695803,30.635547576235478L28.8101762381958,24.679136093907967L29.147951400695803,21.318848075407672L29.4857265631958,19.472340385506204L29.8235017256958,18.517368842067278L30.1612768881958,18.176701234929308L30.4990520506958,18.257006158756052L30.8368272131958,18.834126098312588L31.1746023756958,19.62357141439458L31.5123775381958,20.210890913682803L31.8501527006958,21.12626724565103L32.1879278631958,21.625821472392317L32.525703025695805,22.402621466229782L32.8634781881958,22.937703726623397L33.2012533506958,23.89500676702432L33.5390285131958,24.760185767093624L33.876803675695804,25.514351338598576L34.2145788381958,26.580412695916063L34.55235400069581,27.302085805249213L34.8901291631958,28.241869736612074L35.227904325695796,29.206001637114557L35.565679488195805,30.078198400419602L35.9034546506958,30.840569500806787L36.2412298131958,31.463903897627745L36.579004975695796,32.2292447429677L36.916780138195804,33.04794320505661L37.2545553006958,33.488537398748115L37.5923304631958,34.14829518016819L37.9301056256958,35.1143334166757L38.267880788195804,35.918712907988464L38.6056559506958,36.43393102394381L38.9434311131958,37.029801483893515L39.2812062756958,37.52717256445262L39.618981438195796,37.958440308464084L39.956756600695805,38.42703156973083L40.2945317631958,38.75720803784557L40.6323069256958,39.535116424699304L40.9700820881958,39.671237058413695L41.307857250695804,39.835754770192054L41.6456324131958,39.768349493763495L41.98340757569581,39.55309000616658L42.3211827381958,39.21761193184198L42.658957900695796,39.06285914243731L42.996733063195805,38.73870646688924L43.3345082256958,38.53010538562987L43.6722833881958,38.485515032373904L44.0100585506958,38.21049272720554L44.347833713195804,38.10646731993471L44.6856088756958,37.891101614363556L45.0233840381958,37.432286874423895L45.3611592006958,37.4259498159379L45.6989343631958,37.12729440359749L46.0367095256958,37.007081997412214L46.3744846881958,36.956692842115736L46.7122598506958,36.64719123175157L47.050035013195796,36.29153018897652L47.387810175695805,36.220397733677785L47.7255853381958,35.69356082163873L48.0633605006958,35.568400111503564L48.4011356631958,35.61009595680519L48.738910825695804,35.60964581740651L49.0766859881958,35.53284522191305L49.4144611506958,35.54535448468296L49.7522363131958,35.67993887860935L50.090011475695796,35.974874591426385L50.427786638195805,36.1225709759105L50.7655618006958,36.17833473455642L51.1033369631958,38.33184593228766L51.4411121256958,37.5319995929375L51.778887288195804,36.932590736700504L52.1166624506958,36.60312048058553L52.45443761319581,36.81641189574185L52.7922127756958,36.88879506947475L53.1299879381958,36.45855821512054L53.467763100695805,38.89962093322586L53.8055382631958,39.07535921350306L54.1433134256958,40.488373837503566L54.481088588195796,47.13968902006219L54.818863750695805,47.24798239758501L55.1566389131958,44.18864078179756L55.4944140756958,44.20797263765199L55.8321892381958,43.054698010888146L56.1699644006958,41.17579802344706L56.5077395631958,41.60832480646485L56.8455147256958,41.819525063879716L57.1832898881958,42.1733278356274L57.521065050695796,44.376699790055476L57.858840213195805,43.47921054682544L58.1966153756958,43.928150686258114L58.5343905381958,42.087833440332425L58.8721657006958,42.12455453743213L59.209940863195804,43.34400458253289L59.5477160256958,40.000077219343574L59.8854911881958,38.48083366095646L60.2232663506958,37.150953046057104L60.561041513195796,36.49315839316146L60.898816675695805,36.681256537667366L61.2365918381958,36.32592150951513L61.5743670006958,36.36860889351431L61.9121421631958,36.01588920694116L62.249917325695804,35.51511094369773L62.5876924881958,35.25562865393254L62.9254676506958,34.92560347996857L63.2632428131958,35.820141483811135L63.6010179756958,35.32213961767491L63.9387931381958,34.94080359192112L64.2765683006958,34.96311918025428L64.6143434631958,34.46656026512306L64.9521186256958,34.397276670358956L65.2898937881958,34.049856619929265L65.6276689506958,34.44747844653758L65.9654441131958,34.40664734839353L66.30321927569581,34.19100738943853L66.6409944381958,34.240530548295105L66.9787696006958,34.29535488826644L67.3165447631958,34.062822949552356L67.65431992569579,34.33227022053818L67.99209508819581,34.70454738796395L68.3298702506958,34.296427466223484L68.6676454131958,34.02082339064931L69.0054205756958,34.48934127086098L69.3431957381958,34.20636212520442L69.6809709006958,34.39565612261308L70.0187460631958,37.009335551724696L70.3565212256958,35.715888047093344L70.6942963881958,35.35935320206369L71.0320715506958,35.43704939297475L71.3698467131958,35.30350976656371L71.70762187569579,35.154484291346456L72.0453970381958,35.00877143181825L72.38317220069581,35.59679128916403L72.7209473631958,35.33948531065639L73.0587225256958,34.92820550295193L73.3964976881958,34.7199261254578L73.7342728506958,34.69358875355631L74.07204801319581,34.47239522508911L74.4098231756958,34.46089813178585L74.7475983381958,34.82870043989974L75.0853735006958,34.63459810210481L75.4231486631958,34.294906760005375L75.7609238256958,33.837389289427456L76.09869898819579,33.95025578701457L76.4364741506958,35.1709682095228L76.77424931319581,35.66687696161471L77.1120244756958,35.201723817879945L77.4497996381958,34.77803319156627L77.7875748006958,34.21030183808876L78.12534996319579,33.395064990967995L78.46312512569581,33.84586997441861L78.8009002881958,33.845853304014604L79.1386754506958,35.19667040943619L79.4764506131958,34.56157299792179L79.8142257756958,35.46487233430123L80.1520009381958,38.144726703153374L80.4897761006958,39.19108813577175L80.8275512631958,36.23690112806705L81.1653264256958,34.66693091819981L81.5031015881958,85.24921051410446L81.8408767506958,119.46167772665815L82.1786519131958,139.97051870507192L82.5164270756958,152.26996029032995L82.85420223819581,159.6757955977985L83.1919774006958,164.09796991393623L83.5297525631958,166.76932914720973L83.8675277256958,168.36770730376992L84.2053028881958,169.30185072510346L84.54307805069581,169.8846321312209L84.8808532131958,170.2476870106197L85.2186283756958,170.43381879920474L85.5564035381958,170.5653348047048L85.8941787006958,170.64771011713202L86.2319538631958,170.69652986859202L86.56972902569579,170.74600203342695L86.9075041881958,170.7595400180598L87.24527935069581,170.75865728061376L87.5830545131958,170.78036292625924L87.9208296756958,170.781844226532L88.2586048381958,166.9596864118748L88.59638000069579,113.31434916735044L88.93415516319581,83.45144271946982L89.2719303256958,67.52276499789451L89.6097054881958,53.91102313090412L89.9474806506958,94.54480257855201L90.2852558131958,125.12678450780574L90.6230309756958,143.39356739450204L90.9608061381958,154.38123682207325L91.2985813006958,160.94790253606376L91.6363564631958,164.86894527970324L91.9741316256958,167.21553570174132L92.3119067881958,168.6444038085849L92.6496819506958,169.49859011951276L92.9874571131958,169.99570288867477L93.32523227569581,170.32381285719896L93.6630074381958,170.5839923474919L94.0007826006958,170.64061292769946L94.3385577631958,114.76117622993014L94.6763329256958,80.82982501021601L95.0141080881958,60.5515675642715L95.3518832506958,48.31870083723155L95.6896584131958,40.958467204897964L96.0274335756958,36.463742602590365L96.3652087381958,33.77970757675512L96.7029839006958,32.15726076320297L97.0407590631958,31.204493376950115L97.3785342256958,30.475383440730262L97.71630938819581,30.191220889725443L98.0540845506958,30.554076857972426L98.3918597131958,30.211791377628224L98.7296348756958,30.237767867768962L99.06741003819579,30.084524824717455L99.40518520069581,29.61699393479262L99.7429603631958,29.764348022511204L100.0807355256958,30.065253094876454L100.4185106881958,29.80988222096638L100.7562858506958,29.51452735077298L101.0940610131958,29.92321488172042L101.4318361756958,29.49481261327994L101.7696113381958,31.082200387661388L102.1073865006958,31.349660094632725L102.4451616631958,31.02588067466747L102.7829368256958,30.90268344801581L103.1207119881958,30.93567479689044L103.45848715069579,30.654165532345715L103.79626231319581,30.323983305697425L104.1340374756958,30.307689748162566L104.4718126381958,30.49633502907913L104.8095878006958,30.30669151078211L105.1473629631958,30.28822728421371L105.4851381256958,30.347207101486998L105.8229132881958,30.422520811476417L106.1606884506958,30.377077554492416L106.4984636131958,30.014424509679092L106.8362387756958,30.382686359412375L107.1740139381958,29.84070268724371L107.5117891006958,29.52878423631774L107.8495642631958,29.669208590536527L108.18733942569581,29.486650376720082L108.5251145881958,29.040822595790043L108.8628897506958,28.76151700177669L109.2006649131958,28.845267721749792L109.53844007569579,28.60264659667289L109.87621523819581,28.110864463238716L110.2139904006958,27.88521567581696L110.5517655631958,27.20585890453694L110.8895407256958,27.030787545594382L111.2273158881958,27.011188280525353L111.5650910506958,26.9464522744828L111.90286621319581,26.813041461926602L112.2406413756958,26.50758780420586L112.5784165381958,26.560234722045447L112.9161917006958,26.30041414260838L113.2539668631958,26.089831629198677L113.5917420256958,25.93212489525892L113.92951718819579,25.71168923497408L114.26729235069581,25.647619386733037L114.6050675131958,25.47864568960837L114.9428426756958,25.030107979293714L115.2806178381958,25.032093107327995L115.6183930006958,24.965398809294967L115.9561681631958,24.83697900710804L116.2939433256958,24.66804118368637L116.6317184881958,24.79851104201803L116.9694936506958,24.42002099886742L117.3072688131958,24.082611112638023L117.6450439756958,24.5936420014772L117.9828191381958,24.53471964854976L118.3205943006958,24.425323381183713L118.65836946319581,23.925834119295807L118.9961446256958,23.787532044988133L119.3339197881958,24.016651727615123L119.6716949506958,23.709870655937774L120.00947011319579,23.5398009263627L120.34724527569581,23.517776571618185L120.6850204381958,23.356442228321654L121.0227956006958,23.532735249158673L121.3605707631958,23.475865119703915L121.6983459256958,23.64041960169878L122.0361210881958,23.584590168632857L122.3738962506958,23.552882770808676L122.7116714131958,23.417665649672415L123.04944657569581,26.11023807052864L123.3872217381958,30.828288586063632L123.7249969006958,31.38376391231044L124.0627720631958,31.827624365031653L124.40054722569579,32.20061643931891L124.73832238819581,32.84121529837711L125.0760975506958,32.46734974765859L125.4138727131958,29.92382464578635L125.7516478756958,29.01990430447515L126.0894230381958,30.003616517070697L126.4271982006958,28.659744269471826L126.76497336319581,26.298746330515L127.1027485256958,26.164226061972375L127.4405236881958,24.981750085914953L127.7782988506958,25.55000129079442L128.1160740131958,24.6722470932732L128.4538491756958,24.20989092077568L128.7916243381958,23.613032388639084L129.1293995006958,23.245162254955083L129.4671746631958,22.81551106942599L129.80494982569581,22.82096541763705L130.1427249881958,22.808959139577386L130.4805001506958,24.463845684061276L130.81827531319578,23.442681814614076L131.1560504756958,24.183714992430385L131.4938256381958,25.06994278518711L131.8316008006958,24.062071137238103L132.16937596319582,30.30124342697966L132.5071511256958,28.987354412691964L132.8449262881958,27.177108828438403L133.1827014506958,29.017359488402665L133.5204766131958,26.12855371029937L133.85825177569578,27.707692969467516L134.19602693819579,26.464491154692418L134.53380210069582,27.04199043076198L134.8715772631958,26.627658406698234L135.2093524256958,25.619256684283044L135.5471275881958,23.426891103776104L135.8849027506958,23.052490452961937L136.2226779131958,23.682523700053483L136.5604530756958,23.72234997115308L136.8982282381958,26.335041151307248L137.2360034006958,26.672567253879272L137.57377856319582,25.90990205933071L137.9115537256958,26.886842872200447L138.2493288881958,29.476510418101878L138.5871040506958,29.613444006390413L138.9248792131958,25.743445547693725L139.2626543756958,23.828014550925886L139.60042953819578,27.232166195449995L139.9382047006958,26.32652513563724L140.2759798631958,25.944157771037L140.6137550256958,27.46449947350363L140.95153018819582,25.270570131489396L141.2893053506958,22.631868019517L141.6270805131958,21.132189478114967L141.9648556756958,20.992788702595533L142.3026308381958,23.75829282729377L142.6404060006958,23.73271635863064L142.97818116319579,26.102348179020524L143.31595632569582,23.847885882547345L143.6537314881958,22.48824731958229L143.9915066506958,23.692419790428154L144.3292818131958,24.224356047385104L144.6670569756958,27.585789564229618L145.0048321381958,25.184976162228033L145.3426073006958,25.540061388789713L145.6803824631958,23.299415977133297L146.01815762569578,23.11590946321303L146.35593278819582,22.369556640367485L146.69370795069582,21.646963115521952L147.0314831131958,22.030417097410503L147.3692582756958,21.997363494322578L147.7070334381958,24.34539736101759L148.0448086006958,23.416811621171167L148.38258376319578,21.930624753785896L148.7203589256958,20.794909701188608L149.0581340881958,20.132582467665987L149.3959092506958,20.717627490818465L149.73368441319582,20.195168232555087L150.0714595756958,22.405260472635984L150.4092347381958,22.441170511774295L150.7470099006958,20.86570501225879L151.0847850631958,20.20349973116985L151.4225602256958,23.90636985655935L151.76033538819578,26.225875958024496L152.0981105506958,26.887399356055088L152.4358857131958,25.22820810123036L152.7736608756958,24.21017261761484L153.11143603819582,22.2984899648661L153.4492112006958,21.452831223528555L153.7869863631958,20.738569289268295L154.1247615256958,20.877712293353323L154.4625366881958,22.39213198694941L154.80031185069578,22.792727854683406L155.1380870131958,22.071940050473362L155.47586217569582,25.069537098531455L155.8136373381958,27.56793043643408L156.1514125006958,26.680980917878532L156.4891876631958,28.793070727485386L156.8269628256958,29.320903876863248L157.16473798819578,28.671049383958866L157.5025131506958,28.285929147340507L157.8402883131958,26.556280126389513L158.1780634756958,24.527425475571444L158.51583863819582,25.209112918966355L158.8536138006958,27.565301101958227L159.1913889631958,29.053545893804152L159.52916412569581,30.035563619681184L159.8669392881958,27.37185966847202L160.2047144506958,28.23092287417836L160.54248961319578,26.220811382375235L160.8802647756958,25.608490625436062L161.2180399381958,27.591112608512667L161.5558151006958,26.659867423124297L161.89359026319582,26.979016326825093L162.2313654256958,25.13038090902184L162.5691405881958,27.62608571066242L162.9069157506958,27.6764325755365L163.2446909131958,28.05184233313962L163.5824660756958,32.34698310440587L163.92024123819579,32.55504488477422L164.25801640069582,28.31296088068135L164.5957915631958,30.38629731441991L164.9335667256958,32.36303513221756L165.2713418881958,32.51781886358152L165.6091170506958,29.52322704415388L165.9468922131958,30.089434959420995L166.2846673756958,29.826917267572266L166.6224425381958,31.626537246800343L166.96021770069578,32.096540038536716L167.29799286319582,29.88093909636824L167.6357680256958,29.367874224018415L167.9735431881958,30.738174184008997L168.3113183506958,31.601423876260945L168.6490935131958,28.26668731049703L168.9868686756958,30.182411362592948L169.32464383819578,27.160671374960664L169.6624190006958,29.06246784071669L170.0001941631958,27.24778911356338L170.3379693256958,25.971905875270963L170.67574448819582,25.48574610717383L171.0135196506958,23.783183448877203L171.3512948131958,25.13355166609214L171.6890699756958,24.28129106394839L172.0268451381958,23.073624836375217L172.3646203006958,22.52360328695484L172.70239546319578,26.828102445866367L173.0401706256958,25.568083194692097L173.3779457881958,24.613765043453625L173.7157209506958,25.601470420980498L174.05349611319582,24.13556023126261L174.3912712756958,24.44032984805108L174.7290464381958,22.9289658910084L175.0668216006958,22.838426200118693L175.4045967631958,22.358704662944508L175.74237192569578,21.892368584774932L176.08014708819582,24.145230624719396L176.41792225069582,24.28925665417498L176.7556974131958,24.946774359559114L177.0934725756958,26.537303328768164L177.4312477381958,31.814720761067353L177.7690229006958,31.783997143206694L178.10679806319578,28.439285914759264L178.4445732256958,30.2377610228504L178.7823483881958,31.835354444760036L179.1201235506958,32.8531124641243L179.45789871319582,32.56270416470514L179.7956738756958,32.94410378481699L180.1334490381958,30.186459080151117L180.47122420069581,29.73506866100702L180.8089993631958,30.129072235009993L181.1467745256958,27.24726318902052L181.48454968819578,27.432877870278727L181.8223248506958,26.020117105397237L182.1601000131958,28.736676708493967L182.4978751756958,25.650045997349764L182.83565033819582,23.797727378356292L183.1734255006958,22.161547049438035L183.5112006631958,21.352545981522336L183.8489758256958,20.996086729917938L184.1867509881958,20.957733399730675L184.52452615069578,22.480385148285198L184.8623013131958,22.194313541351043L185.20007647569582,21.78309439741872L185.5378516381958,21.93724127317563L185.8756268006958,21.661709360961837L186.2134019631958,25.609731940340417L186.5511771256958,26.43241397687859L186.8889522881958,28.24161914067607L187.2267274506958,27.924852540055404L187.5645026131958,26.51492250058277L187.90227777569578,28.985146327921193L188.24005293819582,28.635851087408188L188.5778281006958,26.693304564625834L188.9156032631958,28.74609368007412L189.25337842569581,32.67624481900479L189.5911535881958,33.848799331842805L189.9289287506958,29.721873434577457L190.26670391319578,27.4136070521062L190.6044790756958,29.544832383310343L190.9422542381958,29.659544322523704L191.2800294006958,28.617851971619533L191.61780456319582,31.445869272380886L191.9555797256958,32.550264517095954L192.2933548881958,29.664840484076066L192.6311300506958,28.024047451088297L192.9689052131958,25.948583407686712L193.3066803756958,24.59411175591971L193.64445553819579,24.697855810960213L193.9822307006958,27.671723151167406L194.3200058631958,29.802040393487914L194.6577810256958,30.96857537133254L194.9955561881958,31.86999226145096L195.3333313506958,33.49144199655716L195.6711065131958,33.549543229016585L196.0088816756958,34.06742601552757L196.3466568381958,30.85851332242783L196.68443200069578,31.081348300493286L197.02220716319582,32.65215341644511L197.35998232569582,31.238613402154478L197.6977574881958,28.411939441115898L198.0355326506958,26.214283236247578L198.3733078131958,25.995552503743294L198.7110829756958,25.0602780515515L199.04885813819578,25.032037386298732L199.3866333006958,26.323183436249394L199.7244084631958,28.252271135845778L200.0621836256958,31.184919504179383L200.39995878819582,30.86433462581913L200.7377339506958,32.89029268440399L201.0755091131958,31.54547390728773L201.41328427569582,29.915125900005204L201.7510594381958,27.284658341987132L202.0888346006958,26.059590974683843L202.42660976319578,24.752555461785313L202.7643849256958,24.504558025486055L203.1021600881958,26.53691529698377L203.4399352506958,26.916471397270417L203.77771041319582,26.792722618296487L204.1154855756958,25.629079778742085L204.4532607381958,27.421548264350093L204.7910359006958,31.178935407623907L205.1288110631958,31.384810416755734L205.46658622569578,29.01375626415265L205.8043613881958,32.19580950064193L206.14213655069582,28.55592233671326L206.4799117131958,26.385083189770125L206.8176868756958,24.975695531161673L207.1554620381958,24.0323894722649L207.4932372006958,23.729395752225102L207.8310123631958,23.40103191715191L208.1687875256958,22.99329424877394L208.5065626881958,22.687778486820708L208.84433785069578,23.159194638813855L209.18211301319582,22.80184918475563L209.5198881756958,22.574059597445714L209.8576633381958,22.410455371560158L210.19543850069581,79.4837957560126L210.5332136631958,115.96585288330019L210.8709888256958,137.87539610884772L211.20876398819578,150.99353776358666L211.5465391506958,158.87185648988756L211.88431431319577,163.63735111621008L212.2220894756958,166.46016651948608L212.55986463819582,168.1566915832605L212.8976398006958,169.18682324619832L213.2354149631958,169.81539717663068L213.5731901256958,170.1929141517763L213.9109652881958,170.40873007276414L214.2487404506958,170.54341872059805L214.5865156131958,170.6038086767703L214.9242907756958,170.63808973401154L215.2620659381958,170.69068960025837L215.5998411006958,170.86846257888587L215.9376162631958,170.97276734503382L216.2753914256958,170.98641566756848L216.6131665881958,170.88966171299825L216.9509417506958,168.79093389393552L217.2887169131958,110.72648890732519L217.62649207569578,75.68185248311084L217.96426723819582,54.704475056360316L218.30204240069583,41.59100992115803L218.6398175631958,33.789944472103706L218.9775927256958,29.293077086890218L219.3153678881958,26.04753620501948L219.6531430506958,24.549320802332446L219.99091821319578,23.080599213391228L220.3286933756958,23.242910414026177L220.6664685381958,22.955892584755325L221.0042437006958,22.278691921935625L221.34201886319582,22.45603096048517L221.6797940256958,21.699804498455887L222.0175691881958,21.39762004158459L222.3553443506958,21.403836124268963L222.6931195131958,21.470981872300538L223.0308946756958,22.342767357787928L223.36866983819579,21.75672668031823L223.7064450006958,21.213569752614834L224.0442201631958,21.52718185182529L224.3819953256958,20.9531737620336L224.71977048819582,20.841422174483792L225.0575456506958,20.465510626466116L225.3953208131958,20.764425420082237L225.7330959756958,20.653632782454512L226.0708711381958,20.433547616074513L226.40864630069578,20.342647028176977L226.7464214631958,20.327624264295533L227.08419662569582,19.970245178833316L227.4219717881958,19.904749667138635L227.7597469506958,20.54838841634145L228.0975221131958,20.133703694032448L228.4352972756958,20.25216022283587L228.77307243819578,19.784722475413773L229.1108476006958,19.290657329824985L229.4486227631958,19.184870516099032L229.78639792569578,19.053313190029495L230.12417308819582,19.59433674978166L230.4619482506958,20.58128829766625L230.7997234131958,21.068952149699292L231.13749857569582,20.927388533970717L231.4752737381958,20.619437297706785L231.8130489006958,20.15638074404852L232.15082406319578,19.71389373528555L232.4885992256958,20.12649835068091L232.82637438819577,20.69398647018977L233.1641495506958,24.98436291751209L233.50192471319582,24.28633851892337L233.8396998756958,22.27191139763402L234.1774750381958,28.08799238134678L234.5152502006958,29.410509666151523" fill="none"></path></g></g></g></g><g opacity="0.2"><g><g><g><path style="fill: none;" stroke="rgb(0, 153, 136)" stroke-width="2px" d="M25.7701997756958,176.6697465683958L26.107974938195802,170.48768027388434L26.4457501006958,170.7122018809723L26.7835252631958,170.58940574692218L27.1213004256958,101.75943911349715L27.4590755881958,15.65043014053003L27.7968507506958,15.928643661564704L28.1346259131958,15.216451066946634L28.472401075695803,15.414613085750089L28.8101762381958,15.834559226671425L29.147951400695803,16.308893612667802L29.4857265631958,16.712627463960644L29.8235017256958,17.08802967468958L30.1612768881958,17.666367227528987L30.4990520506958,18.377369149072706L30.8368272131958,19.69939897795263L31.1746023756958,20.80740532171714L31.5123775381958,21.091721042257888L31.8501527006958,22.499192295232408L32.1879278631958,22.375107151269216L32.525703025695805,23.567778855428095L32.8634781881958,23.740309510104122L33.2012533506958,25.33094242734715L33.5390285131958,26.057944018327493L33.876803675695804,26.645594335569893L34.2145788381958,28.17950018562754L34.55235400069581,28.384593622685284L34.8901291631958,29.651544190866673L35.227904325695796,30.65219859976653L35.565679488195805,31.386493063327332L35.9034546506958,31.98412589857704L36.2412298131958,32.398905368836445L36.579004975695796,33.37725591961134L36.916780138195804,34.2759908395483L37.2545553006958,34.149428670350055L37.5923304631958,35.137931835285734L37.9301056256958,36.56339075649072L38.267880788195804,37.12528213749058L38.6056559506958,37.2067581950072L38.9434311131958,37.92360717182676L39.2812062756958,38.27322918429397L39.618981438195796,38.60534192396241L39.956756600695805,39.12991846129275L40.2945317631958,39.25247273987463L40.6323069256958,40.70197900477775L40.9700820881958,39.87541800896399L41.307857250695804,40.08253133784429L41.6456324131958,39.667241579124436L41.98340757569581,39.23020077477843L42.3211827381958,38.714394820361875L42.658957900695796,38.830729958332164L42.996733063195805,38.25247745356949L43.3345082256958,38.21720376374171L43.6722833881958,38.418629502490056L44.0100585506958,37.79795926945347L44.347833713195804,37.950429209028535L44.6856088756958,37.56805305600693L45.0233840381958,36.74406476451457L45.3611592006958,37.416444228208874L45.6989343631958,36.67931128508689L46.0367095256958,36.82676338813432L46.3744846881958,36.88110910917096L46.7122598506958,36.18293881620536L47.050035013195796,35.75803862481392L47.387810175695805,36.113699050729664L47.7255853381958,34.90330545358017L48.0633605006958,35.38065904630079L48.4011356631958,35.6726397247577L48.738910825695804,35.608970608308454L49.0766859881958,35.417644328672964L49.4144611506958,35.564118378837875L49.7522363131958,35.88181546949893L50.090011475695796,36.41727816065195L50.427786638195805,36.34411555263664L50.7655618006958,36.26198037252529L51.1033369631958,41.56211272888447L51.4411121256958,36.332230083912265L51.778887288195804,36.03347745234497L52.1166624506958,36.108915096413064L52.45443761319581,37.13634901847634L52.7922127756958,36.9973698300741L53.1299879381958,35.813202933589196L53.467763100695805,42.56121501038384L53.8055382631958,39.338966633918886L54.1433134256958,42.60789577350432L54.481088588195796,57.116661793900114L54.818863750695805,47.41042246386924L55.1566389131958,39.5996283581164L55.4944140756958,44.236970421433675L55.8321892381958,41.324786070742405L56.1699644006958,38.35744804228545L56.5077395631958,42.257114980991524L56.8455147256958,42.136325450002L57.1832898881958,42.70403199324894L57.521065050695796,47.681757721697586L57.858840213195805,42.13297668198037L58.1966153756958,44.60156089540709L58.5343905381958,39.32735757144391L58.8721657006958,42.17963618308168L59.209940863195804,45.17317965018405L59.5477160256958,34.98418617455958L59.8854911881958,36.20196832337586L60.2232663506958,35.15613212370803L60.561041513195796,35.50646641381796L60.898816675695805,36.96340375442619L61.2365918381958,35.79291896728678L61.5743670006958,36.43263996951304L61.9121421631958,35.48680967708151L62.249917325695804,34.76394354883259L62.5876924881958,34.86640521928473L62.9254676506958,34.43056571902267L63.2632428131958,37.161948489574975L63.6010179756958,34.57513681847051L63.9387931381958,34.368799553290465L64.2765683006958,34.996592562753996L64.6143434631958,33.721721892426224L64.9521186256958,34.29335127821279L65.2898937881958,33.52872654428471L65.6276689506958,35.04391118645004L65.9654441131958,34.34540070117746L66.30321927569581,33.86754745100598L66.6409944381958,34.31481528657996L66.9787696006958,34.37759139822342L67.3165447631958,33.71402504148127L67.65431992569579,34.73644112701691L67.99209508819581,35.26296313910267L68.3298702506958,33.68424758361281L68.6676454131958,33.6074172772881L69.0054205756958,35.192118091178514L69.3431957381958,33.78189340671955L69.6809709006958,34.67959711872602L70.0187460631958,40.92985469539211L70.3565212256958,33.775716790146326L70.6942963881958,34.824550934519216L71.0320715506958,35.553593679341326L71.3698467131958,35.10320032694719L71.70762187569579,34.930946078520556L72.0453970381958,34.79020214252598L72.38317220069581,36.4788210751827L72.7209473631958,34.953526342894946L73.0587225256958,34.311285791395264L73.3964976881958,34.40750705921662L73.7342728506958,34.65408269570412L74.07204801319581,34.140604932388314L74.4098231756958,34.44365249183098L74.7475983381958,35.380403902070576L75.0853735006958,34.34344459541245L75.4231486631958,33.785369746856276L75.7609238256958,33.151113083560546L76.09869898819579,34.11955553339524L76.4364741506958,37.0020368432852L76.77424931319581,36.41074008975257L77.1120244756958,34.50399410227778L77.4497996381958,34.14249725209579L77.7875748006958,33.3587048078725L78.12534996319579,32.172209720286844L78.46312512569581,34.52207744959455L78.8009002881958,33.8458282984086L79.1386754506958,37.22289606756855L79.4764506131958,33.60892688065022L79.8142257756958,36.81982133887043L80.1520009381958,42.1645082564316L80.4897761006958,40.76063028469933L80.8275512631958,31.80562061651006L81.1653264256958,32.3119756033989L81.5031015881958,161.12262990796145L81.8408767506958,170.78037854548873L82.1786519131958,170.73378017269258L82.5164270756958,170.71912266821698L82.85420223819581,170.78454855900137L83.1919774006958,170.7312313881428L83.5297525631958,170.77636799712L83.8675277256958,170.76527453861024L84.2053028881958,170.70306585710378L84.54307805069581,170.75880424039704L84.8808532131958,170.7922693297179L85.2186283756958,170.7130164820823L85.5564035381958,170.76260881295494L85.8941787006958,170.7712730857728L86.2319538631958,170.76975949578207L86.56972902569579,170.82021028067928L86.9075041881958,170.7798469950091L87.24527935069581,170.75733317444468L87.5830545131958,170.81292139472745L87.9208296756958,170.7840661769411L88.2586048381958,161.22644968988902L88.59638000069579,32.846343300563895L88.93415516319581,38.65708304764891L89.2719303256958,43.629748415531566L89.6097054881958,33.49341033041856L89.9474806506958,155.49547175002385L90.2852558131958,170.99975740168634L90.6230309756958,170.79374172454646L90.9608061381958,170.86274096343013L91.2985813006958,170.7979011070495L91.6363564631958,170.7505093951625L91.9741316256958,170.73542133479842L92.3119067881958,170.78770596885033L92.6496819506958,170.7798695859045L92.9874571131958,170.7413720424178L93.32523227569581,170.81597780998527L93.6630074381958,170.9742615829312L94.0007826006958,170.72554379801082L94.3385577631958,30.942021183276182L94.6763329256958,29.93279818064479L95.0141080881958,30.13418139535476L95.3518832506958,29.969400746671635L95.6896584131958,29.9181167563976L96.0274335756958,29.72165569912894L96.3652087381958,29.753655038002247L96.7029839006958,29.723590542874778L97.0407590631958,29.775342297570862L97.3785342256958,29.381718536400445L97.71630938819581,29.764977063218222L98.0540845506958,31.09836081034289L98.3918597131958,29.698363157111856L98.7296348756958,30.276732602980054L99.06741003819579,29.854660260140207L99.40518520069581,28.915697599905386L99.7429603631958,29.9853791540891L100.0807355256958,30.516610703424316L100.4185106881958,29.42682591010126L100.7562858506958,29.07149504548288L101.0940610131958,30.53624617814157L101.4318361756958,28.852209210619208L101.7696113381958,33.46328204923351L102.1073865006958,31.75084965508971L102.4451616631958,30.540211544719565L102.7829368256958,30.717887608038346L103.1207119881958,30.985161820202375L103.45848715069579,30.23190163552865L103.79626231319581,29.828709965725007L104.1340374756958,30.283249411860226L104.4718126381958,30.779302950453985L104.8095878006958,30.022226233336564L105.1473629631958,30.260530944361147L105.4851381256958,30.43567682739691L105.8229132881958,30.53549137646052L106.1606884506958,30.308912669016422L106.4984636131958,29.470444942459114L106.8362387756958,30.935079134012298L107.1740139381958,29.02772717899073L107.5117891006958,29.060906559928796L107.8495642631958,29.879845121864747L108.18733942569581,29.212813055995444L108.5251145881958,28.372080924394957L108.8628897506958,28.342558610756704L109.2006649131958,28.97089380170943L109.53844007569579,28.238714909057542L109.87621523819581,27.37319126308744L110.2139904006958,27.54674249468434L110.5517655631958,26.1868237476169L110.8895407256958,26.76818050718055L111.2273158881958,26.981789382921843L111.5650910506958,26.849348265418993L111.90286621319581,26.612925243092274L112.2406413756958,26.049407317624752L112.5784165381958,26.639205098804837L112.9161917006958,25.910683273452744L113.2539668631958,25.773957859084128L113.5917420256958,25.69556479434933L113.92951718819579,25.381035744546818L114.26729235069581,25.551514614371502L114.6050675131958,25.225185143921355L114.9428426756958,24.357301413821713L115.2806178381958,25.035070799379397L115.6183930006958,24.865357362245373L115.9561681631958,24.64434930382772L116.2939433256958,24.41463444855385L116.6317184881958,24.994215829515575L116.9694936506958,23.852285934141516L117.3072688131958,23.576496283293924L117.6450439756958,25.36018833473599L117.9828191381958,24.446336119158563L118.3205943006958,24.26122898013465L118.65836946319581,23.176600226463943L118.9961446256958,23.58007893352657L119.3339197881958,24.360331251555568L119.6716949506958,23.249699048421707L120.00947011319579,23.28469633200008L120.34724527569581,23.4847400395014L120.6850204381958,23.114440713376837L121.0227956006958,23.797174780414192L121.3605707631958,23.390559925521792L121.6983459256958,23.8872513246911L122.0361210881958,23.50084601903398L122.3738962506958,23.505321674072402L122.7116714131958,23.214839967968025L123.04944657569581,30.14909670181297L123.3872217381958,37.905364359366104L123.7249969006958,32.21697690168069L124.0627720631958,32.49341504411341L124.40054722569579,32.760104550749865L124.73832238819581,33.802113586964396L125.0760975506958,31.906551421580872L125.4138727131958,26.108536992978017L125.7516478756958,27.66402379250836L126.0894230381958,31.479184835963977L126.4271982006958,26.643935898073472L126.76497336319581,22.75724942207979L127.1027485256958,25.962445659158437L127.4405236881958,23.20803612182885L127.7782988506958,26.402378098113612L128.1160740131958,23.35561579699137L128.4538491756958,23.516356662029374L128.7916243381958,22.717744590434208L129.1293995006958,22.6933570544291L129.4671746631958,22.171034291132365L129.80494982569581,22.829146939953596L130.1427249881958,22.790949722487873L130.4805001506958,26.946175500787106L130.81827531319578,21.91093601044325L131.1560504756958,25.295264759154858L131.4938256381958,26.399284474322197L131.8316008006958,22.55026366531459L132.16937596319582,39.66000186159198L132.5071511256958,27.01652089126041L132.8449262881958,24.461740452058038L133.1827014506958,31.777735478349026L133.5204766131958,21.795345043144426L133.85825177569578,30.076401858219732L134.19602693819579,24.599688432529792L134.53380210069582,27.908239344866335L134.8715772631958,26.00616037060264L135.2093524256958,24.1066541006603L135.5471275881958,20.138342733015694L135.8849027506958,22.490889476740698L136.2226779131958,24.627573570690828L136.5604530756958,23.78208937780249L136.8982282381958,30.254077921538514L137.2360034006958,27.17885640773727L137.57377856319582,24.765904267507914L137.9115537256958,28.35225409150501L138.2493288881958,33.361011736954055L138.5871040506958,29.818844388823205L138.9248792131958,19.938447859648672L139.2626543756958,20.954868055774156L139.60042953819578,32.33839366223617L139.9382047006958,24.96806354591811L140.2759798631958,25.3706067241366L140.6137550256958,29.745012027203586L140.95153018819582,21.979676118468085L141.2893053506958,18.673814851558447L141.6270805131958,18.882671666011902L141.9648556756958,20.783687539316364L142.3026308381958,27.906549014341145L142.6404060006958,23.694351655635927L142.97818116319579,29.656795909605346L143.31595632569582,20.466192437837556L143.6537314881958,20.448789475134706L143.9915066506958,25.498678496696964L144.3292818131958,25.022260432820477L144.6670569756958,32.62793983949641L145.0048321381958,21.583756059225706L145.3426073006958,26.072689228632246L145.6803824631958,19.938447859648672L146.01815762569578,22.840649692332637L146.35593278819582,21.250027406099218L146.69370795069582,20.563072828253635L147.0314831131958,22.60559807024334L147.3692582756958,21.947783089690716L147.7070334381958,27.867448161060075L148.0448086006958,22.023933011401503L148.38258376319578,19.70134445270805L148.7203589256958,19.091337122292703L149.0581340881958,19.139091617382025L149.3959092506958,21.595195025547188L149.73368441319582,19.41147934516004L150.0714595756958,25.720398832757308L150.4092347381958,22.495035570481758L150.7470099006958,18.50250676298554L151.0847850631958,19.2101918095364L151.4225602256958,29.46067504464364L151.76033538819578,29.705135110222265L152.0981105506958,27.87968445310099L152.4358857131958,22.739421218993233L152.7736608756958,22.683119392191557L153.11143603819582,19.43096598574302L153.4492112006958,20.18434311152227L153.7869863631958,19.66717638787788L154.1247615256958,21.086426799480854L154.4625366881958,24.66376152734355L154.80031185069578,23.39362165628442L155.1380870131958,20.990758344158305L155.47586217569582,29.5659326706186L155.8136373381958,31.315520443288076L156.1514125006958,25.350556640045227L156.4891876631958,31.961205441895697L156.8269628256958,30.112653600930013L157.16473798819578,27.696267644602287L157.5025131506958,27.708248792412984L157.8402883131958,23.961806594963022L158.1780634756958,21.48414349934436L158.51583863819582,26.23164408405871L158.8536138006958,31.09958337644603L159.1913889631958,31.285913081573064L159.52916412569581,31.508590208496724L159.8669392881958,23.376303741658308L160.2047144506958,29.519517682737906L160.54248961319578,23.205644144670558L160.8802647756958,24.690009490027343L161.2180399381958,30.565045583127564L161.5558151006958,25.26299964504173L161.89359026319582,27.45773968237628L162.2313654256958,22.357427782316954L162.5691405881958,31.369642913123272L162.9069157506958,27.751952872847596L163.2446909131958,28.614956969544288L163.5824660756958,38.78969426130526L163.92024123819579,32.86713755532675L164.25801640069582,21.94983487454206L164.5957915631958,33.49630196502771L164.9335667256958,35.328141858914044L165.2713418881958,32.74999446062744L165.6091170506958,25.03133931501244L165.9468922131958,30.9387468323217L166.2846673756958,29.43314072979917L166.6224425381958,34.32596721564246L166.96021770069578,32.80154422614128L167.29799286319582,26.55753768311556L167.6357680256958,28.598276915493724L167.9735431881958,32.79362412399488L168.3113183506958,32.89629841463887L168.6490935131958,23.26458246185115L168.9868686756958,33.0559974407368L169.32464383819578,22.6280613935122L169.6624190006958,31.915162539350764L170.0001941631958,24.525771022833418L170.3379693256958,24.058081017832347L170.67574448819582,24.75650645502818L171.0135196506958,21.22933946143228L171.3512948131958,27.159103991914492L171.6890699756958,23.002900160732743L172.0268451381958,21.262125495015425L172.3646203006958,21.698570962824263L172.70239546319578,33.28485118423368L173.0401706256958,23.67805431793069L173.3779457881958,23.182287816595913L173.7157209506958,27.083028487270838L174.05349611319582,21.936694946685776L174.3912712756958,24.897484273233772L174.7290464381958,20.66191995544434L175.0668216006958,22.702616663784124L175.4045967631958,21.639122357183243L175.74237192569578,21.192864467520554L176.08014708819582,27.5245236846361L176.41792225069582,24.505295698358353L176.7556974131958,25.93305091763528L177.0934725756958,28.923096782581748L177.4312477381958,39.730846909516124L177.7690229006958,31.73791171641567L178.10679806319578,23.422219072088144L178.4445732256958,32.93547368498707L178.7823483881958,34.23174457762447L179.1201235506958,34.3797494931707L179.45789871319582,32.127091715576434L179.7956738756958,33.51620321498479L180.1334490381958,26.049992023152345L180.47122420069581,29.057983032290878L180.8089993631958,30.72007759601439L181.1467745256958,22.924549620036323L181.48454968819578,27.71129989216602L181.8223248506958,23.900975958074977L182.1601000131958,32.811516113139L182.4978751756958,21.020099930633492L182.83565033819582,21.019249449866095L183.1734255006958,19.707276556060627L183.5112006631958,20.139044379648798L183.8489758256958,20.46139785251136L184.1867509881958,20.90020340444972L184.52452615069578,24.764362771117L184.8623013131958,21.765206130949807L185.20007647569582,21.16626568152022L185.5378516381958,22.168461586810988L185.8756268006958,21.248411492641157L186.2134019631958,31.53176580940828L186.5511771256958,27.66643703168585L186.8889522881958,30.955426886372265L187.2267274506958,27.449702639124375L187.5645026131958,24.400027441373805L187.90227777569578,32.690482068928844L188.24005293819582,28.111908226638697L188.5778281006958,23.779484780452343L188.9156032631958,31.825277353246513L189.25337842569581,38.57147152740084L189.5911535881958,35.607631101099805L189.9289287506958,23.531484588679437L190.26670391319578,23.951207478399347L190.6044790756958,32.74167038011653L190.9422542381958,29.831612231343748L191.2800294006958,27.055313445263298L191.61780456319582,35.68789522352288L191.9555797256958,34.20685738416852L192.2933548881958,25.336704434546252L192.6311300506958,25.56285790160666L192.9689052131958,22.835387342584355L193.3066803756958,22.562404278269174L193.64445553819579,24.853471893521L193.9822307006958,32.132524161478194L194.3200058631958,32.997516256968666L194.6577810256958,32.718377838099464L194.9955561881958,33.22211759662857L195.3333313506958,35.92361659921647L195.6711065131958,33.63669507770573L196.0088816756958,34.844250195294045L196.3466568381958,26.045144282778182L196.68443200069578,31.41560076759149L197.02220716319582,35.00836109037284L197.35998232569582,29.118303380718473L197.6977574881958,24.171928499557996L198.0355326506958,22.917798928945118L198.3733078131958,25.667456404986872L198.7110829756958,23.657366373263752L199.04885813819578,24.989676388419596L199.3866333006958,28.25990251117532L199.7244084631958,31.145902685240376L200.0621836256958,35.58389205667983L200.39995878819582,30.383457308278757L200.7377339506958,35.929229772281296L201.0755091131958,29.528245741613322L201.41328427569582,27.46960388908145L201.7510594381958,23.338957004960005L202.0888346006958,24.22198992372889L202.42660976319578,22.792002192437536L202.7643849256958,24.13256187103712L203.1021600881958,29.585451204230345L203.4399352506958,27.48580554770036L203.77771041319582,26.607099449835598L204.1154855756958,23.883615519410487L204.4532607381958,30.11025099276213L204.7910359006958,36.81501612253465L205.1288110631958,31.693622930453486L205.46658622569578,25.45717503524801L205.8043613881958,36.9688893553759L206.14213655069582,23.096091590820244L206.4799117131958,23.12882446935544L206.8176868756958,22.86161404324897L207.1554620381958,22.61743038391976L207.4932372006958,23.27490517216543L207.8310123631958,22.908486164542122L208.1687875256958,22.381687746206968L208.5065626881958,22.229504843890886L208.84433785069578,23.866318866803557L209.18211301319582,22.265831003668335L209.5198881756958,22.232375216480857L209.8576633381958,22.16504903273182L210.19543850069581,165.09380633269126L210.5332136631958,170.68893857423157L210.8709888256958,170.73971094716896L211.20876398819578,170.6707502456951L211.5465391506958,170.6893345793389L211.88431431319577,170.78559305569385L212.2220894756958,170.69438962440012L212.55986463819582,170.7014791789221L212.8976398006958,170.73202074060504L213.2354149631958,170.7582580722792L213.5731901256958,170.75918961449474L213.9109652881958,170.73245395424593L214.2487404506958,170.74545169234892L214.5865156131958,170.69439361102872L214.9242907756958,170.6895113198734L215.2620659381958,170.7695893996286L215.5998411006958,171.13512204682712L215.9376162631958,171.1292244942557L216.2753914256958,171.00688815137048L216.6131665881958,170.74453078114297L216.9509417506958,165.64284216534142L217.2887169131958,23.62982142740969L217.62649207569578,23.11489784678932L217.96426723819582,23.2384089162345L218.30204240069583,21.92081221835464L218.6398175631958,22.08834629852221L218.9775927256958,22.54777600906995L219.3153678881958,21.179224882213436L219.6531430506958,22.30199769830188L219.99091821319578,20.87751682997941L220.3286933756958,23.48637721497864L220.6664685381958,22.52536584084905L221.0042437006958,21.262890927706085L221.34201886319582,22.722039518309565L221.6797940256958,20.56546480541195L222.0175691881958,20.94434335627763L222.3553443506958,21.41316024829551L222.6931195131958,21.57170049434786L223.0308946756958,23.65044558601907L223.36866983819579,20.877665664113707L223.7064450006958,20.398834361059727L224.0442201631958,21.997600000640972L224.3819953256958,20.092161627346055L224.71977048819582,20.67379479315912L225.0575456506958,19.901643304439585L225.3953208131958,21.21279761050642L225.7330959756958,20.48744382601289L226.0708711381958,20.10341986650447L226.40864630069578,20.206296146330686L226.7464214631958,20.305090118473423L227.08419662569582,19.43417655063994L227.4219717881958,19.80650639959666L227.7597469506958,21.513846540145682L228.0975221131958,19.511676610568962L228.4352972756958,20.429845016040947L228.77307243819578,19.08356585428062L229.1108476006958,18.54955961144176L229.4486227631958,19.0261902955101L229.78639792569578,18.85597720092524L230.12417308819582,20.405872089409936L230.4619482506958,22.061715619493107L230.7997234131958,21.80044792774882L231.13749857569582,20.71504311037786L231.4752737381958,20.1575104433109L231.8130489006958,19.46179591356115L232.15082406319578,19.050163222141112L232.4885992256958,20.745405273773923L232.82637438819577,21.54521864945303L233.1641495506958,31.419927588495614L233.50192471319582,23.23930192104028L233.8396998756958,19.25027071569997L234.1774750381958,36.81211385691591L234.5152502006958,31.394285593358596" fill="none"></path></g></g></g></g></g></g><g transform="translate(72, 176)" clip-path="url(#clip_1)"><clipPath id="clip_1"><rect width="257" height="23"></rect></clipPath><g><g><line x1="0" y1="0" x2="0" y2="5" style="visibility: inherit;" fill="rgb(0, 0, 0)" stroke="rgb(204, 204, 204)" stroke-width="1px"></line><line x1="25.7701997756958" y1="0" x2="25.7701997756958" y2="5" style="visibility: inherit;" fill="rgb(0, 0, 0)" stroke="rgb(204, 204, 204)" stroke-width="1px"></line><line x1="51.5403995513916" y1="0" x2="51.5403995513916" y2="5" style="visibility: inherit;" fill="rgb(0, 0, 0)" stroke="rgb(204, 204, 204)" stroke-width="1px"></line><line x1="77.3105993270874" y1="0" x2="77.3105993270874" y2="5" style="visibility: inherit;" fill="rgb(0, 0, 0)" stroke="rgb(204, 204, 204)" stroke-width="1px"></line><line x1="103.0807991027832" y1="0" x2="103.0807991027832" y2="5" style="visibility: inherit;" fill="rgb(0, 0, 0)" stroke="rgb(204, 204, 204)" stroke-width="1px"></line><line x1="128.850998878479" y1="0" x2="128.850998878479" y2="5" style="visibility: inherit;" fill="rgb(0, 0, 0)" stroke="rgb(204, 204, 204)" stroke-width="1px"></line><line x1="154.6211986541748" y1="0" x2="154.6211986541748" y2="5" style="visibility: inherit;" fill="rgb(0, 0, 0)" stroke="rgb(204, 204, 204)" stroke-width="1px"></line><line x1="180.3913984298706" y1="0" x2="180.3913984298706" y2="5" style="visibility: inherit;" fill="rgb(0, 0, 0)" stroke="rgb(204, 204, 204)" stroke-width="1px"></line><line x1="206.1615982055664" y1="0" x2="206.1615982055664" y2="5" style="visibility: inherit;" fill="rgb(0, 0, 0)" stroke="rgb(204, 204, 204)" stroke-width="1px"></line><line x1="231.9317979812622" y1="0" x2="231.9317979812622" y2="5" style="visibility: inherit;" fill="rgb(0, 0, 0)" stroke="rgb(204, 204, 204)" stroke-width="1px"></line><line x1="257.701997756958" y1="0" x2="257.701997756958" y2="5" style="visibility: inherit;" fill="rgb(0, 0, 0)" stroke="rgb(204, 204, 204)" stroke-width="1px"></line></g><g transform="translate(0, 8)"><text style="text-anchor: middle; visibility: hidden; font-family: Roboto, sans-serif; font-size: 12px; font-weight: 200;" x="0" y="0" dx="0em" dy="0.95em" fill="rgb(33, 33, 33)" stroke="none" stroke-width="1px">-10M</text><text style="text-anchor: middle; visibility: inherit; font-family: Roboto, sans-serif; font-size: 12px; font-weight: 200;" x="25.7701997756958" y="0" dx="0em" dy="0.95em" fill="rgb(33, 33, 33)" stroke="none" stroke-width="1px">0</text><text style="text-anchor: middle; visibility: hidden; font-family: Roboto, sans-serif; font-size: 12px; font-weight: 200;" x="51.5403995513916" y="0" dx="0em" dy="0.95em" fill="rgb(33, 33, 33)" stroke="none" stroke-width="1px">10M</text><text style="text-anchor: middle; visibility: inherit; font-family: Roboto, sans-serif; font-size: 12px; font-weight: 200;" x="77.3105993270874" y="0" dx="0em" dy="0.95em" fill="rgb(33, 33, 33)" stroke="none" stroke-width="1px">20M</text><text style="text-anchor: middle; visibility: hidden; font-family: Roboto, sans-serif; font-size: 12px; font-weight: 200;" x="103.0807991027832" y="0" dx="0em" dy="0.95em" fill="rgb(33, 33, 33)" stroke="none" stroke-width="1px">30M</text><text style="text-anchor: middle; visibility: inherit; font-family: Roboto, sans-serif; font-size: 12px; font-weight: 200;" x="128.850998878479" y="0" dx="0em" dy="0.95em" fill="rgb(33, 33, 33)" stroke="none" stroke-width="1px">40M</text><text style="text-anchor: middle; visibility: hidden; font-family: Roboto, sans-serif; font-size: 12px; font-weight: 200;" x="154.6211986541748" y="0" dx="0em" dy="0.95em" fill="rgb(33, 33, 33)" stroke="none" stroke-width="1px">50M</text><text style="text-anchor: middle; visibility: inherit; font-family: Roboto, sans-serif; font-size: 12px; font-weight: 200;" x="180.3913984298706" y="0" dx="0em" dy="0.95em" fill="rgb(33, 33, 33)" stroke="none" stroke-width="1px">60M</text><text style="text-anchor: middle; visibility: hidden; font-family: Roboto, sans-serif; font-size: 12px; font-weight: 200;" x="206.1615982055664" y="0" dx="0em" dy="0.95em" fill="rgb(33, 33, 33)" stroke="none" stroke-width="1px">70M</text><text style="text-anchor: middle; visibility: inherit; font-family: Roboto, sans-serif; font-size: 12px; font-weight: 200;" x="231.9317979812622" y="0" dx="0em" dy="0.95em" fill="rgb(33, 33, 33)" stroke="none" stroke-width="1px">80M</text><text style="text-anchor: middle; visibility: hidden; font-family: Roboto, sans-serif; font-size: 12px; font-weight: 200;" x="257.701997756958" y="0" dx="0em" dy="0.95em" fill="rgb(33, 33, 33)" stroke="none" stroke-width="1px">90M</text></g><line x1="0" y1="0" x2="257.701997756958" y2="0" fill="rgb(0, 0, 0)" stroke="rgb(204, 204, 204)" stroke-width="1px"></line></g></g></g></g></svg>