<svg viewBox="0 0 330 200" xmlns="http://www.w3.org/2000/svg"><g><g><g><g><g><line x1="72.29800224304199" y1="176.89999961853027" x2="67.29800224304199" y2="176.89999961853027" style="visibility: inherit;" fill="rgb(0, 0, 0)" stroke="rgb(204, 204, 204)" stroke-width="1px"></line><line x1="72.29800224304199" y1="162.15833298365274" x2="67.29800224304199" y2="162.15833298365274" style="visibility: inherit;" fill="rgb(0, 0, 0)" stroke="rgb(204, 204, 204)" stroke-width="1px"></line><line x1="72.29800224304199" y1="147.41666634877524" x2="67.29800224304199" y2="147.41666634877524" style="visibility: inherit;" fill="rgb(0, 0, 0)" stroke="rgb(204, 204, 204)" stroke-width="1px"></line><line x1="72.29800224304199" y1="132.6749997138977" x2="67.29800224304199" y2="132.6749997138977" style="visibility: inherit;" fill="rgb(0, 0, 0)" stroke="rgb(204, 204, 204)" stroke-width="1px"></line><line x1="72.29800224304199" y1="117.9333330790202" x2="67.29800224304199" y2="117.9333330790202" style="visibility: inherit;" fill="rgb(0, 0, 0)" stroke="rgb(204, 204, 204)" stroke-width="1px"></line><line x1="72.29800224304199" y1="103.19166644414264" x2="67.29800224304199" y2="103.19166644414264" style="visibility: inherit;" fill="rgb(0, 0, 0)" stroke="rgb(204, 204, 204)" stroke-width="1px"></line><line x1="72.29800224304199" y1="88.44999980926514" x2="67.29800224304199" y2="88.44999980926514" style="visibility: inherit;" fill="rgb(0, 0, 0)" stroke="rgb(204, 204, 204)" stroke-width="1px"></line><line x1="72.29800224304199" y1="73.7083331743876" x2="67.29800224304199" y2="73.7083331743876" style="visibility: inherit;" fill="rgb(0, 0, 0)" stroke="rgb(204, 204, 204)" stroke-width="1px"></line><line x1="72.29800224304199" y1="58.9666665395101" x2="67.29800224304199" y2="58.9666665395101" style="visibility: inherit;" fill="rgb(0, 0, 0)" stroke="rgb(204, 204, 204)" stroke-width="1px"></line><line x1="72.29800224304199" y1="44.22499990463257" x2="67.29800224304199" y2="44.22499990463257" style="visibility: inherit;" fill="rgb(0, 0, 0)" stroke="rgb(204, 204, 204)" stroke-width="1px"></line><line x1="72.29800224304199" y1="29.48333326975504" x2="67.29800224304199" y2="29.48333326975504" style="visibility: inherit;" fill="rgb(0, 0, 0)" stroke="rgb(204, 204, 204)" stroke-width="1px"></line><line x1="72.29800224304199" y1="14.741666634877529" x2="67.29800224304199" y2="14.741666634877529" style="visibility: inherit;" fill="rgb(0, 0, 0)" stroke="rgb(204, 204, 204)" stroke-width="1px"></line><line x1="72.29800224304199" y1="0" x2="67.29800224304199" y2="0" style="visibility: inherit;" fill="rgb(0, 0, 0)" stroke="rgb(204, 204, 204)" stroke-width="1px"></line></g><g transform="translate(62.29800224304199, 0)"><text style="text-anchor: end; visibility: hidden; font-family: Roboto, sans-serif; font-size: 12px; font-weight: 200;" x="0" y="176.89999961853027" dx="0em" dy="0.3em" fill="rgb(33, 33, 33)" stroke="none" stroke-width="1px">2e+4</text><text style="text-anchor: end; visibility: inherit; font-family: Roboto, sans-serif; font-size: 12px; font-weight: 200;" x="0" y="162.15833298365274" dx="0em" dy="0.3em" fill="rgb(33, 33, 33)" stroke="none" stroke-width="1px">4e+4</text><text style="text-anchor: end; visibility: hidden; font-family: Roboto, sans-serif; font-size: 12px; font-weight: 200;" x="0" y="147.41666634877524" dx="0em" dy="0.3em" fill="rgb(33, 33, 33)" stroke="none" stroke-width="1px">6e+4</text><text style="text-anchor: end; visibility: inherit; font-family: Roboto, sans-serif; font-size: 12px; font-weight: 200;" x="0" y="132.6749997138977" dx="0em" dy="0.3em" fill="rgb(33, 33, 33)" stroke="none" stroke-width="1px">8e+4</text><text style="text-anchor: end; visibility: hidden; font-family: Roboto, sans-serif; font-size: 12px; font-weight: 200;" x="0" y="117.9333330790202" dx="0em" dy="0.3em" fill="rgb(33, 33, 33)" stroke="none" stroke-width="1px">1e+5</text><text style="text-anchor: end; visibility: inherit; font-family: Roboto, sans-serif; font-size: 12px; font-weight: 200;" x="0" y="103.19166644414264" dx="0em" dy="0.3em" fill="rgb(33, 33, 33)" stroke="none" stroke-width="1px">1.2e+5</text><text style="text-anchor: end; visibility: hidden; font-family: Roboto, sans-serif; font-size: 12px; font-weight: 200;" x="0" y="88.44999980926514" dx="0em" dy="0.3em" fill="rgb(33, 33, 33)" stroke="none" stroke-width="1px">1.4e+5</text><text style="text-anchor: end; visibility: inherit; font-family: Roboto, sans-serif; font-size: 12px; font-weight: 200;" x="0" y="73.7083331743876" dx="0em" dy="0.3em" fill="rgb(33, 33, 33)" stroke="none" stroke-width="1px">1.6e+5</text><text style="text-anchor: end; visibility: hidden; font-family: Roboto, sans-serif; font-size: 12px; font-weight: 200;" x="0" y="58.9666665395101" dx="0em" dy="0.3em" fill="rgb(33, 33, 33)" stroke="none" stroke-width="1px">1.8e+5</text><text style="text-anchor: end; visibility: inherit; font-family: Roboto, sans-serif; font-size: 12px; font-weight: 200;" x="0" y="44.22499990463257" dx="0em" dy="0.3em" fill="rgb(33, 33, 33)" stroke="none" stroke-width="1px">2e+5</text><text style="text-anchor: end; visibility: hidden; font-family: Roboto, sans-serif; font-size: 12px; font-weight: 200;" x="0" y="29.48333326975504" dx="0em" dy="0.3em" fill="rgb(33, 33, 33)" stroke="none" stroke-width="1px">2.2e+5</text><text style="text-anchor: end; visibility: inherit; font-family: Roboto, sans-serif; font-size: 12px; font-weight: 200;" x="0" y="14.741666634877529" dx="0em" dy="0.3em" fill="rgb(33, 33, 33)" stroke="none" stroke-width="1px">2.4e+5</text><text style="text-anchor: end; visibility: hidden; font-family: Roboto, sans-serif; font-size: 12px; font-weight: 200;" x="0" y="0" dx="0em" dy="0.3em" fill="rgb(33, 33, 33)" stroke="none" stroke-width="1px">2.6e+5</text></g><line x1="72.29800224304199" y1="0" x2="72.29800224304199" y2="176.89999961853027" fill="rgb(0, 0, 0)" stroke="rgb(204, 204, 204)" stroke-width="1px"></line></g></g><g transform="translate(72, 0)" clip-path="url(#clip_0)"><clipPath id="clip_0"><rect width="257" height="176"></rect></clipPath><g><g><g><line x1="0" y1="0" x2="0" y2="176.89999961853027" fill="rgb(0, 0, 0)" stroke="rgb(66, 66, 66)" stroke-width="1px" opacity="0.25"></line><line x1="25.7701997756958" y1="0" x2="25.7701997756958" y2="176.89999961853027" fill="rgb(0, 0, 0)" stroke="rgb(66, 66, 66)" stroke-width="1px" opacity="0.25"></line><line x1="51.5403995513916" y1="0" x2="51.5403995513916" y2="176.89999961853027" fill="rgb(0, 0, 0)" stroke="rgb(66, 66, 66)" stroke-width="1px" opacity="0.25"></line><line x1="77.3105993270874" y1="0" x2="77.3105993270874" y2="176.89999961853027" fill="rgb(0, 0, 0)" stroke="rgb(66, 66, 66)" stroke-width="1px" opacity="0.25"></line><line x1="103.0807991027832" y1="0" x2="103.0807991027832" y2="176.89999961853027" fill="rgb(0, 0, 0)" stroke="rgb(66, 66, 66)" stroke-width="1px" opacity="0.25"></line><line x1="128.850998878479" y1="0" x2="128.850998878479" y2="176.89999961853027" fill="rgb(0, 0, 0)" stroke="rgb(66, 66, 66)" stroke-width="1px" opacity="0.25"></line><line x1="154.6211986541748" y1="0" x2="154.6211986541748" y2="176.89999961853027" fill="rgb(0, 0, 0)" stroke="rgb(66, 66, 66)" stroke-width="1px" opacity="0.25"></line><line x1="180.3913984298706" y1="0" x2="180.3913984298706" y2="176.89999961853027" fill="rgb(0, 0, 0)" stroke="rgb(66, 66, 66)" stroke-width="1px" opacity="0.25"></line><line x1="206.1615982055664" y1="0" x2="206.1615982055664" y2="176.89999961853027" fill="rgb(0, 0, 0)" stroke="rgb(66, 66, 66)" stroke-width="1px" opacity="0.25"></line><line x1="231.9317979812622" y1="0" x2="231.9317979812622" y2="176.89999961853027" fill="rgb(0, 0, 0)" stroke="rgb(66, 66, 66)" stroke-width="1px" opacity="0.25"></line><line x1="257.701997756958" y1="0" x2="257.701997756958" y2="176.89999961853027" fill="rgb(0, 0, 0)" stroke="rgb(66, 66, 66)" stroke-width="1px" opacity="0.25"></line></g><g><line x1="0" y1="176.89999961853027" x2="257.701997756958" y2="176.89999961853027" fill="rgb(0, 0, 0)" stroke="rgb(66, 66, 66)" stroke-width="1px" opacity="0.25"></line><line x1="0" y1="162.15833298365274" x2="257.701997756958" y2="162.15833298365274" fill="rgb(0, 0, 0)" stroke="rgb(66, 66, 66)" stroke-width="1px" opacity="0.25"></line><line x1="0" y1="147.41666634877524" x2="257.701997756958" y2="147.41666634877524" fill="rgb(0, 0, 0)" stroke="rgb(66, 66, 66)" stroke-width="1px" opacity="0.25"></line><line x1="0" y1="132.6749997138977" x2="257.701997756958" y2="132.6749997138977" fill="rgb(0, 0, 0)" stroke="rgb(66, 66, 66)" stroke-width="1px" opacity="0.25"></line><line x1="0" y1="117.9333330790202" x2="257.701997756958" y2="117.9333330790202" fill="rgb(0, 0, 0)" stroke="rgb(66, 66, 66)" stroke-width="1px" opacity="0.25"></line><line x1="0" y1="103.19166644414264" x2="257.701997756958" y2="103.19166644414264" fill="rgb(0, 0, 0)" stroke="rgb(66, 66, 66)" stroke-width="1px" opacity="0.25"></line><line x1="0" y1="88.44999980926514" x2="257.701997756958" y2="88.44999980926514" fill="rgb(0, 0, 0)" stroke="rgb(66, 66, 66)" stroke-width="1px" opacity="0.25"></line><line x1="0" y1="73.7083331743876" x2="257.701997756958" y2="73.7083331743876" fill="rgb(0, 0, 0)" stroke="rgb(66, 66, 66)" stroke-width="1px" opacity="0.25"></line><line x1="0" y1="58.9666665395101" x2="257.701997756958" y2="58.9666665395101" fill="rgb(0, 0, 0)" stroke="rgb(66, 66, 66)" stroke-width="1px" opacity="0.25"></line><line x1="0" y1="44.22499990463257" x2="257.701997756958" y2="44.22499990463257" fill="rgb(0, 0, 0)" stroke="rgb(66, 66, 66)" stroke-width="1px" opacity="0.25"></line><line x1="0" y1="29.48333326975504" x2="257.701997756958" y2="29.48333326975504" fill="rgb(0, 0, 0)" stroke="rgb(66, 66, 66)" stroke-width="1px" opacity="0.25"></line><line x1="0" y1="14.741666634877529" x2="257.701997756958" y2="14.741666634877529" fill="rgb(0, 0, 0)" stroke="rgb(66, 66, 66)" stroke-width="1px" opacity="0.25"></line><line x1="0" y1="0" x2="257.701997756958" y2="0" fill="rgb(0, 0, 0)" stroke="rgb(66, 66, 66)" stroke-width="1px" opacity="0.25"></line></g></g></g><g><g><line x1="0" y1="191.64166625340778" x2="257.701997756958" y2="191.64166625340778" fill="rgb(0, 0, 0)" stroke="rgb(153, 153, 153)" stroke-width="1.5px"></line></g></g><g><g><line x1="25.7701997756958" y1="0" x2="25.7701997756958" y2="176.89999961853027" fill="rgb(0, 0, 0)" stroke="rgb(153, 153, 153)" stroke-width="1.5px"></line></g></g><g><g><g><g><g><path style="fill: none;" stroke="rgb(0, 153, 136)" stroke-width="2px" d="M25.7701997756958,177.46324069478965L26.107974938195802,172.8261983484251L26.4457501006958,171.53732236820628L26.7835252631958,170.90255171792913L27.1213004256958,138.9726817009359L27.4590755881958,84.4484640816815L27.7968507506958,53.49743927842138L28.1346259131958,35.226988139035356L28.472401075695803,24.53121763663371L28.8101762381958,18.338583018118886L29.147951400695803,14.838135845786068L29.4857265631958,12.916904581422902L29.8235017256958,11.919718522744002L30.1612768881958,11.567508876624554L30.4990520506958,11.616469833994307L30.8368272131958,12.213541386828421L31.1746023756958,13.02231799732664L31.5123775381958,13.648680563230373L31.8501527006958,14.500900231725788L32.1879278631958,15.038080580637994L32.525703025695805,15.79343139085526L32.8634781881958,16.33285733640996L33.2012533506958,17.301410693481987L33.5390285131958,18.18478947827539L33.876803675695804,18.95117433285623L34.2145788381958,20.034089094953277L34.55235400069581,20.788719228649757L34.8901291631958,21.76822149365269L35.227904325695796,22.750428039280816L35.565679488195805,23.650151414972456L35.9034546506958,24.375269660182013L36.2412298131958,24.983859189394643L36.579004975695796,25.72837586457488L36.916780138195804,26.551776901180826L37.2545553006958,27.002905437088234L37.5923304631958,27.670266986593003L37.9301056256958,28.66625646116694L38.267880788195804,29.4887066266915L38.6056559506958,30.024476093846438L38.9434311131958,30.630590142933798L39.2812062756958,31.129918759183926L39.618981438195796,31.58462129560537L39.956756600695805,32.065724139845855L40.2945317631958,32.380478596249496L40.6323069256958,33.17547174797939L40.9700820881958,33.28790161629035L41.307857250695804,33.45794771674254L41.6456324131958,33.41856133304072L41.98340757569581,33.18224871421346L42.3211827381958,32.860972138096386L42.658957900695796,32.71694122096882L42.996733063195805,32.38266458008064L43.3345082256958,32.16448230391964L43.6722833881958,32.104429680258086L44.0100585506958,31.805908911314543L44.347833713195804,31.70195591593233L44.6856088756958,31.48553370236855L45.0233840381958,31.01125054684795L45.3611592006958,31.023997035707044L45.6989343631958,30.714533252622992L46.0367095256958,30.593331347216854L46.3744846881958,30.552028380988755L46.7122598506958,30.230436963871096L47.050035013195796,29.87404770509876L47.387810175695805,29.8094919515968L47.7255853381958,29.27602356045828L48.0633605006958,29.12467472072385L48.4011356631958,29.14267734373187L48.738910825695804,29.147513149320396L49.0766859881958,29.07837855730799L49.4144611506958,29.089226111883534L49.7522363131958,29.232666300583613L50.090011475695796,29.526458923772367L50.427786638195805,29.661089289442096L50.7655618006958,29.736749386459113L51.1033369631958,31.9320701066999L51.4411121256958,31.125347704882703L51.778887288195804,30.494459623484087L52.1166624506958,30.154107691229253L52.45443761319581,30.400097817363875L52.7922127756958,30.45620603126277L53.1299879381958,30.025913856435885L53.467763100695805,32.50430783730525L53.8055382631958,32.80391219192913L54.1433134256958,34.27922314305557L54.481088588195796,41.39704355706212L54.818863750695805,41.52271083523775L55.1566389131958,38.215792422978495L55.4944140756958,38.21158540781169L55.8321892381958,36.99027548258982L56.1699644006958,35.02344157959698L56.5077395631958,35.47887847646189L56.8455147256958,35.629024664325485L57.1832898881958,35.994362326970936L57.521065050695796,38.30401617525865L57.858840213195805,37.35703187467839L58.1966153756958,37.8409079743532L58.5343905381958,35.887450623371635L58.8721657006958,36.01114567613427L59.209940863195804,37.21494291368937L59.5477160256958,33.76110518970704L59.8854911881958,32.150474700155414L60.2232663506958,30.76733106357315L60.561041513195796,30.063218938644244L60.898816675695805,30.292255013844454L61.2365918381958,29.92486671213651L61.5743670006958,29.955346110779015L61.9121421631958,29.61141257366229L62.249917325695804,29.108652816614764L62.5876924881958,28.83001699619074L62.9254676506958,28.490929243890363L63.2632428131958,29.537814082001407L63.6010179756958,28.959440919761438L63.9387931381958,28.52100947573955L64.2765683006958,28.53707946028698L64.6143434631958,28.015883249035138L64.9521186256958,27.921839719729174L65.2898937881958,27.620982949026864L65.6276689506958,28.04205787489153L65.9654441131958,27.992208437833447L66.30321927569581,27.770961156219567L66.6409944381958,27.79290815150096L66.9787696006958,27.856446780852863L67.3165447631958,27.590850164848103L67.65431992569579,27.88578429322394L67.99209508819581,28.304250123895315L68.3298702506958,27.866953678470058L68.6676454131958,27.581666339910154L69.0054205756958,28.06764058119045L69.3431957381958,27.762408752245634L69.6809709006958,27.980242987347403L70.0187460631958,30.656935311980753L70.3565212256958,29.334643012554583L70.6942963881958,28.951984285659027L71.0320715506958,29.032862369164697L71.3698467131958,28.899592222264264L71.70762187569579,28.996811146762777L72.0453970381958,28.732392137574525L72.38317220069581,29.274508889404615L72.7209473631958,28.964496030414242L73.0587225256958,28.513663487466125L73.3964976881958,28.271652232469137L73.7342728506958,28.259125085955638L74.07204801319581,28.04617906671974L74.4098231756958,28.023957181513097L74.7475983381958,28.446866820281713L75.0853735006958,28.236019766003064L75.4231486631958,27.89133947401052L75.7609238256958,27.423580765523546L76.09869898819579,27.5006366880975L76.4364741506958,28.727903470865918L76.77424931319581,29.256406040975165L77.1120244756958,28.76901798060887L77.4497996381958,28.31963706920672L77.7875748006958,27.76606559589437L78.12534996319579,27.061479111147595L78.46312512569581,27.46144120810876L78.8009002881958,27.40826199816762L79.1386754506958,28.771745354610562L79.4764506131958,28.131460715371208L79.8142257756958,29.096203103397933L80.1520009381958,31.971127609387683L80.4897761006958,33.04764707219233L80.8275512631958,29.96960184644717L81.1653264256958,28.317562801725867L81.5031015881958,80.99341937179481L81.8408767506958,116.7398645923415L82.1786519131958,138.16828654502396L82.5164270756958,151.01803452980025L82.85420223819581,158.75646948531792L83.1919774006958,163.37663020086538L83.5297525631958,166.16805433718343L83.8675277256958,167.83835905693982L84.2053028881958,168.81345925896923L84.54307805069581,169.42269398592902L84.8808532131958,169.8029321485706L85.2186283756958,169.99734945280377L85.5564035381958,170.13455063998688L85.8941787006958,170.22079747273096L86.2319538631958,170.27143015799183L86.56972902569579,170.32519488954063L86.9075041881958,170.33847037759935L87.24527935069581,170.33711099044172L87.5830545131958,170.35994651955443L87.9208296756958,170.3611531228563L88.2586048381958,166.26407612231984L88.59638000069579,110.36587639530954L88.93415516319581,79.24702226221805L89.2719303256958,62.63109429355588L89.6097054881958,48.396828636138395L89.9474806506958,90.63528629429668L90.2852558131958,122.61934177754021L90.6230309756958,141.72141777893987L90.9608061381958,153.21242657437696L91.2985813006958,160.07894436992893L91.6363564631958,164.1784257461974L91.9741316256958,166.63164263479797L92.3119067881958,168.12680298568165L92.6496819506958,169.02004735995715L92.9874571131958,169.53903934035327L93.32523227569581,169.88286274010957L93.6630074381958,170.15660451158874L94.0007826006958,170.21413142496678L94.3385577631958,111.92840714634735L94.6763329256958,76.53767351237154L95.0141080881958,55.375089743289436L95.3518832506958,42.58844914088646L95.6896584131958,34.92685765442226L96.0274335756958,30.24721122626374L96.3652087381958,27.457002806830715L96.7029839006958,25.736759372457872L97.0407590631958,24.746926501847074L97.3785342256958,23.98887832150121L97.71630938819581,23.964579787365302L98.0540845506958,24.254342374560807L98.3918597131958,23.833230868265293L98.7296348756958,23.838386500390317L99.06741003819579,23.64613897644076L99.40518520069581,23.117724356190912L99.7429603631958,23.255396111706286L100.0807355256958,23.577399224395094L100.4185106881958,23.321344194539652L100.7562858506958,23.031171096191677L101.0940610131958,23.425644105748468L101.4318361756958,22.982626517114937L101.7696113381958,24.58666738698596L102.1073865006958,24.834660069303375L102.4451616631958,24.516167880222298L102.7829368256958,24.4201332827145L103.1207119881958,24.436589399050078L103.45848715069579,24.162497108526274L103.79626231319581,23.836998239767606L104.1340374756958,23.79520112911887L104.4718126381958,24.00936168513041L104.8095878006958,23.815554511619865L105.1473629631958,23.803899186454565L105.4851381256958,23.870278030259644L105.8229132881958,23.949322776562315L106.1606884506958,23.894893921438545L106.4984636131958,23.529563260123346L106.8362387756958,23.88342411991098L107.1740139381958,23.330344090559066L107.5117891006958,23.0179504661351L107.8495642631958,23.17039262928951L108.18733942569581,22.97826972206453L108.5251145881958,22.54965263986355L108.8628897506958,22.370401312249935L109.2006649131958,22.40055610913483L109.53844007569579,22.142482289944635L109.87621523819581,21.68331932460755L110.2139904006958,21.408342110508393L110.5517655631958,20.6824169395085L110.8895407256958,20.507416187909186L111.2273158881958,20.471162577947194L111.5650910506958,20.400293021450917L111.90286621319581,20.2622591080716L112.2406413756958,19.947427961065163L112.5784165381958,20.089875871105114L112.9161917006958,19.822456758515056L113.2539668631958,19.577613856247165L113.5917420256958,19.406895716500287L113.92951718819579,19.141076491858676L114.26729235069581,19.08344526674988L114.6050675131958,18.90678911272014L114.9428426756958,18.448294530437426L115.2806178381958,18.48410413716821L115.6183930006958,18.414279096716076L115.9561681631958,18.359448259972684L116.2939433256958,18.166238740043198L116.6317184881958,18.26600203803704L116.9694936506958,17.889746236523795L117.3072688131958,17.521827808005746L117.6450439756958,18.015342746750513L117.9828191381958,17.95304033316606L118.3205943006958,17.84780115078673L118.65836946319581,17.323630444436642L118.9961446256958,17.207748944677444L119.3339197881958,17.44695200509367L119.6716949506958,17.12468324338948L120.00947011319579,16.933860317090673L120.34724527569581,16.918831350159426L120.6850204381958,16.76122257709191L121.0227956006958,16.964858195420874L121.3605707631958,16.935919056327457L121.6983459256958,17.124556543781324L122.0361210881958,17.06157151319608L122.3738962506958,17.018897317772126L122.7116714131958,16.830678397222563L123.04944657569581,19.606906400641765L123.3872217381958,24.669335106826946L123.7249969006958,25.22483005464019L124.0627720631958,25.65182874187609L124.40054722569579,25.990452297789897L124.73832238819581,26.676830623004527L125.0760975506958,26.29964676566805L125.4138727131958,23.661470800217142L125.7516478756958,22.723310438306278L126.0894230381958,23.787719160358947L126.4271982006958,22.318508762719283L126.76497336319581,19.89082124621966L127.1027485256958,19.68331621800131L127.4405236881958,18.446844680030637L127.7782988506958,19.047351741332648L128.1160740131958,18.15191013967595L128.4538491756958,17.699391334749176L128.7916243381958,17.049102141151582L129.1293995006958,16.676572557246637L129.4671746631958,16.250384531299073L129.80494982569581,16.25571438443843L130.1427249881958,16.254148895290623L130.4805001506958,17.908403931566006L130.81827531319578,16.857923194716044L131.1560504756958,17.67820092916553L131.4938256381958,18.64414170162607L131.8316008006958,17.60983917639505L132.16937596319582,24.173604288993182L132.5071511256958,22.77351889931375L132.8449262881958,20.8892371026537L133.1827014506958,22.75392131246952L133.5204766131958,19.80049384714045L133.85825177569578,21.585472537355887L134.19602693819579,20.287344933677268L134.53380210069582,20.90149598044531L134.8715772631958,20.40635067547269L135.2093524256958,19.31064752285709L135.5471275881958,17.01240442649268L135.8849027506958,16.60101864471258L136.2226779131958,17.308558066815653L136.5604530756958,17.300639536114197L136.8982282381958,19.895143685525763L137.2360034006958,20.270292380845625L137.57377856319582,19.470863407538477L137.9115537256958,20.57685654096821L138.2493288881958,23.401843335636L138.5871040506958,23.46069468679823L138.9248792131958,19.467670032224003L139.2626543756958,17.43357427776194L139.60042953819578,20.967520833061396L139.9382047006958,20.12445444450649L140.2759798631958,19.684680311751883L140.6137550256958,21.180491724137884L140.95153018819582,18.906456411741928L141.2893053506958,16.19431059960642L141.6270805131958,14.670417476685516L141.9648556756958,14.528881228870656L142.3026308381958,17.549908864109035L142.6404060006958,17.451811964997344L142.97818116319579,19.85713396604986L143.31595632569582,17.509341747772993L143.6537314881958,16.033711609659544L143.9915066506958,17.372302816266547L144.3292818131958,17.87691115024952L144.6670569756958,21.48154689091495L145.0048321381958,18.948591553773483L145.3426073006958,19.229204277293732L145.6803824631958,16.926237455797594L146.01815762569578,16.770116381090237L146.35593278819582,15.92686684204888L146.69370795069582,15.190223856100705L147.0314831131958,15.53188663575859L147.3692582756958,15.470000249441332L147.7070334381958,17.95844299293397L148.0448086006958,16.986273547991434L148.38258376319578,15.458910942957543L148.7203589256958,14.255431669618712L149.0581340881958,13.587376920603075L149.3959092506958,14.306334889091465L149.73368441319582,13.71122438854386L150.0714595756958,16.00059590282098L150.4092347381958,16.069420077221782L150.7470099006958,14.389445338178193L151.0847850631958,13.711369780498949L151.4225602256958,17.64998080110411L151.76033538819578,19.997889788500142L152.0981105506958,20.686435664261644L152.4358857131958,18.879587970547387L152.7736608756958,17.8226408750936L153.11143603819582,15.918888039829906L153.4492112006958,15.003759353806899L153.7869863631958,14.238541668700888L154.1247615256958,14.32226832469581L154.4625366881958,15.9344345727371L154.80031185069578,16.31178664314653L155.1380870131958,15.577059647881475L155.47586217569582,18.78983035690625L155.8136373381958,21.360386077809796L156.1514125006958,20.502776182193816L156.4891876631958,22.675597645279126L156.8269628256958,23.272630305904173L157.16473798819578,22.559950743130177L157.5025131506958,22.32263028109706L157.8402883131958,20.497651814797248L158.1780634756958,18.360622388306105L158.51583863819582,19.029210939142168L158.8536138006958,21.538118351556957L159.1913889631958,23.00446187721491L159.52916412569581,24.044454627680924L159.8669392881958,21.23073047287368L160.2047144506958,22.111581505699334L160.54248961319578,19.944859394227585L160.8802647756958,19.265067930694535L161.2180399381958,21.294156391069603L161.5558151006958,20.37093980784833L161.89359026319582,20.6402213769737L162.2313654256958,18.756900031191908L162.5691405881958,21.400640285897573L162.9069157506958,21.57710200426106L163.2446909131958,21.981976888801036L163.5824660756958,26.456741385920292L163.92024123819579,26.664903347345103L164.25801640069582,22.194072130464455L164.5957915631958,24.281027728592804L164.9335667256958,26.299122804568167L165.2713418881958,26.49441722213506L165.6091170506958,23.383638770260998L165.9468922131958,24.037973659846497L166.2846673756958,23.82554895427747L166.6224425381958,25.682322459990583L166.96021770069578,26.083129450373203L167.29799286319582,23.873640785302566L167.6357680256958,23.270128014390384L167.9735431881958,24.74733809787673L168.3113183506958,25.66949100466212L168.6490935131958,22.178922465786936L168.9868686756958,24.08027322967878L169.32464383819578,20.88350491090918L169.6624190006958,23.000929093236902L170.0001941631958,21.037131044503735L170.3379693256958,19.647530424052885L170.67574448819582,19.09530824388359L171.0135196506958,17.337497563858093L171.3512948131958,18.665737072579223L171.6890699756958,17.831156036538456L172.0268451381958,16.721378491748183L172.3646203006958,16.11096827204608L172.70239546319578,20.657115353589997L173.0401706256958,19.260799327555247L173.3779457881958,18.21350298842786L173.7157209506958,19.287994985966808L174.05349611319582,17.73725062672445L174.3912712756958,18.19831599255337L174.7290464381958,16.53351457040395L175.0668216006958,16.37956616060476L175.4045967631958,15.846421282342401L175.74237192569578,15.347966704728387L176.08014708819582,17.69342917641562L176.41792225069582,17.84879365431507L176.7556974131958,18.528656964789732L177.0934725756958,20.154462346885733L177.4312477381958,25.545811816620905L177.7690229006958,25.578215547034397L178.10679806319578,22.087201675664986L178.4445732256958,23.988584680163825L178.7823483881958,25.71357605712427L179.1201235506958,26.82268000553655L179.45789871319582,26.514266415746505L179.7956738756958,26.959696309992076L180.1334490381958,24.08871139914009L180.47122420069581,23.587872929160973L180.8089993631958,24.01901718934576L181.1467745256958,20.990809617127876L181.48454968819578,21.068751262419365L181.8223248506958,19.628132760614175L182.1601000131958,22.61742680226263L182.4978751756958,19.328454326753445L182.83565033819582,17.392666698137692L183.1734255006958,15.646825242020052L183.5112006631958,14.802967279368655L183.8489758256958,14.433289324399853L184.1867509881958,14.36176462921947L184.52452615069578,15.993507748604157L184.8623013131958,15.654602555368701L185.20007647569582,15.255794153390582L185.5378516381958,15.38176154370776L185.8756268006958,15.11295821822403L186.2134019631958,19.474838762659136L186.5511771256958,20.161204942442048L186.8889522881958,22.0970273605671L187.2267274506958,21.736581934515723L187.5645026131958,20.19958112444129L187.90227777569578,22.767207628266934L188.24005293819582,22.3826370373179L188.5778281006958,20.330469634592898L188.9156032631958,22.49653368563178L189.25337842569581,26.605371750822282L189.5911535881958,27.861097808690786L189.9289287506958,23.501625923187444L190.26670391319578,21.08081841125688L190.6044790756958,23.336328346623393L190.9422542381958,23.497194714060505L191.2800294006958,22.36793113352027L191.61780456319582,25.29080393576544L191.9555797256958,26.62179189927413L192.2933548881958,23.576789935667705L192.6311300506958,21.763171426745842L192.9689052131958,19.60965692785671L193.3066803756958,18.146848942432985L193.64445553819579,18.25809964383786L193.9822307006958,21.37722270393196L194.3200058631958,23.502571073295137L194.6577810256958,24.793028506338477L194.9955561881958,25.695085575263924L195.3333313506958,27.436402043198L195.6711065131958,27.423417454885268L196.0088816756958,28.06509385935128L196.3466568381958,24.658234389895217L196.68443200069578,24.861817474207935L197.02220716319582,26.412370326923668L197.35998232569582,24.909589960466597L197.6977574881958,21.995255815244978L198.0355326506958,19.724339652155L198.3733078131958,19.563793204313175L198.7110829756958,18.61871387910499L199.04885813819578,18.6065840770543L199.3866333006958,19.983673075651094L199.7244084631958,21.99429039933853L200.0621836256958,25.15426331017157L200.39995878819582,24.86100821243394L200.7377339506958,27.07739270332L201.0755091131958,25.484830797382706L201.41328427569582,23.736182775322263L201.7510594381958,20.944925148134292L202.0888346006958,19.63477805541024L202.42660976319578,18.29099873066595L202.7643849256958,18.048632131999184L203.1021600881958,20.14308864192739L203.4399352506958,20.500037172220296L203.77771041319582,20.335179614130038L204.1154855756958,19.169115831577106L204.4532607381958,20.97158524675392L204.7910359006958,24.851776913262366L205.1288110631958,25.000285826721722L205.46658622569578,22.620825388453916L205.8043613881958,25.794225980154735L206.14213655069582,22.08773082383635L206.4799117131958,19.90576455807991L206.8176868756958,18.436402770325635L207.1554620381958,17.510201369644218L207.4932372006958,17.213989143259088L207.8310123631958,16.89221729732197L208.1687875256958,16.46689923192722L208.5065626881958,16.130117874637115L208.84433785069578,16.621593800954983L209.18211301319582,16.23494907436121L209.5198881756958,16.000732561326398L209.8576633381958,15.797592031244713L210.19543850069581,75.18273580167076L210.5332136631958,113.21407231819055L210.8709888256958,136.05552744778012L211.20876398819578,149.73047091134063L211.5465391506958,157.94379539928963L211.88431431319577,162.91280186931434L212.2220894756958,165.85459155317238L212.55986463819582,167.62275881009515L212.8976398006958,168.69650744807524L213.2354149631958,169.35235244887215L213.5731901256958,169.74579437871245L213.9109652881958,169.9709052114449L214.2487404506958,170.11126776999222L214.5865156131958,170.17378799038877L214.9242907756958,170.20939234365946L215.2620659381958,170.26523318015688L215.5998411006958,170.4583358021539L215.9376162631958,170.56978984736682L216.2753914256958,170.58474051223675L216.6131665881958,170.4802432665466L216.9509417506958,168.22722348375163L217.2887169131958,107.7228676303039L217.62649207569578,71.23014189989524L217.96426723819582,49.47817782331937L218.30204240069583,35.85464034996226L218.6398175631958,27.705675441414567L218.9775927256958,23.04739515464181L219.3153678881958,19.67248060362039L219.6531430506958,18.08207935123716L219.99091821319578,16.5392314917015L220.3286933756958,16.65711299768802L220.6664685381958,16.42805628994722L221.0042437006958,15.776068998183188L221.34201886319582,15.986880220784908L221.6797940256958,15.176778198553134L222.0175691881958,14.812731917242596L222.3553443506958,14.807335051642733L222.6931195131958,14.87361310400791L223.0308946756958,15.737379212295956L223.36866983819579,15.14835083538574L223.7064450006958,14.625418463250991L224.0442201631958,14.928482619369158L224.3819953256958,14.330353351701186L224.71977048819582,14.244638873844686L225.0575456506958,13.889310729452772L225.3953208131958,14.20750485729672L225.7330959756958,14.06472067586852L226.0708711381958,13.825418966822069L226.40864630069578,13.790318180743613L226.7464214631958,13.725525633670001L227.08419662569582,13.359076452486379L227.4219717881958,13.285264612732073L227.7597469506958,13.961015788576805L228.0975221131958,13.55718124322462L228.4352972756958,13.654394918927016L228.77307243819578,13.15325384170075L229.1108476006958,12.650078583822463L229.4486227631958,12.538423850560209L229.78639792569578,12.420286640921471L230.12417308819582,12.991325581983176L230.4619482506958,14.061740421613294L230.7997234131958,14.511126864869729L231.13749857569582,14.362339557246715L231.4752737381958,14.034685209645284L231.8130489006958,13.581550747470958L232.15082406319578,13.16339127621097L232.4885992256958,13.595444761253102L232.82637438819577,14.112725119951074L233.1641495506958,18.536428328903995L233.50192471319582,17.77927657152791L233.8396998756958,15.747829885086563L234.1774750381958,21.75701754253094L234.5152502006958,23.281697823776355" fill="none"></path></g></g></g></g><g opacity="0.2"><g><g><g><path style="fill: none;" stroke="rgb(0, 153, 136)" stroke-width="2px" d="M25.7701997756958,177.46324069478965L26.107974938195802,170.04397294060635L26.4457501006958,170.3000014271962L26.7835252631958,170.1560614332032L27.1213004256958,97.28504340674958L27.4590755881958,9.021842395909747L27.7968507506958,9.236978593362505L28.1346259131958,8.588494981479641L28.472401075695803,8.7570336920537L28.8101762381958,9.14324232403337L29.147951400695803,9.619213885506989L29.4857265631958,10.045512940577295L29.8235017256958,10.427195420222972L30.1612768881958,11.039884422808013L30.4990520506958,11.689853718281421L30.8368272131958,13.108727614961321L31.1746023756958,14.235140665917713L31.5123775381958,14.588065378698339L31.8501527006958,15.779099907379978L32.1879278631958,15.843802003594607L32.525703025695805,16.92641618094754L32.8634781881958,17.141978504701466L33.2012533506958,18.754221606693545L33.5390285131958,19.509847191001604L33.876803675695804,20.10074616759195L34.2145788381958,21.65845661996205L34.55235400069581,21.920662498302885L34.8901291631958,23.237473387390366L35.227904325695796,24.223736952971908L35.565679488195805,24.99973598124645L35.9034546506958,25.46294678753924L36.2412298131958,25.896743362124635L36.579004975695796,26.845150788464903L36.916780138195804,27.786878397111217L37.2545553006958,27.67959822156131L37.5923304631958,28.671309293641514L37.9301056256958,30.160240657618274L38.267880788195804,30.722381867343568L38.6056559506958,30.828130291594693L38.9434311131958,31.539761214539286L39.2812062756958,31.87891168255794L39.618981438195796,32.26667509969051L39.956756600695805,32.78737840585933L40.2945317631958,32.85261028071865L40.6323069256958,34.36796147536759L40.9700820881958,33.45654641873924L41.307857250695804,33.713016867404924L41.6456324131958,33.35948175749021L41.98340757569581,32.827779785980525L42.3211827381958,32.37905727392734L42.658957900695796,32.50089484527918L42.996733063195805,31.881249618750807L43.3345082256958,31.837208889679122L43.6722833881958,32.01435074476588L44.0100585506958,31.3581277578997L44.347833713195804,31.5460264228591L44.6856088756958,31.160900382022927L45.0233840381958,30.29982581356727L45.3611592006958,31.043116768995674L45.6989343631958,30.250337577996902L46.0367095256958,30.41152848910763L46.3744846881958,30.490073931646602L46.7122598506958,29.748049838194614L47.050035013195796,29.3394638169403L47.387810175695805,29.712658321343866L47.7255853381958,28.47582097375058L48.0633605006958,28.89765146112218L48.4011356631958,29.1696812782439L48.738910825695804,29.15476685770315L49.0766859881958,28.97467666928942L49.4144611506958,29.10549744374689L49.7522363131958,29.4478265836337L50.090011475695796,29.96714785855549L50.427786638195805,29.863034837946667L50.7655618006958,29.850239531984673L51.1033369631958,35.22505118706101L51.4411121256958,29.915264102156954L51.778887288195804,29.54812750138616L52.1166624506958,29.643579792846978L52.45443761319581,30.76908300656577L52.7922127756958,30.540368352111052L53.1299879381958,29.380475594195605L53.467763100695805,36.221898808609325L53.8055382631958,33.253318723864986L54.1433134256958,36.49218956974522L54.481088588195796,52.07377417807194L54.818863750695805,41.71121175250124L55.1566389131958,33.25541480458963L55.4944140756958,38.2052748850615L55.8321892381958,35.15831059475703L56.1699644006958,32.07319072510774L56.5077395631958,36.162033821759245L56.8455147256958,35.85424394612089L57.1832898881958,36.54236882093908L57.521065050695796,41.76849694769023L57.858840213195805,35.93655542380797L58.1966153756958,38.566722123865404L58.5343905381958,32.95726459689923L58.8721657006958,36.19668825527827L59.209940863195804,39.020638770021996L59.5477160256958,28.5803486037335L59.8854911881958,29.73452896582794L60.2232663506958,28.692615608699736L60.561041513195796,29.007050751250862L60.898816675695805,30.635809126644823L61.2365918381958,29.37378425957462L61.5743670006958,30.001065208742762L61.9121421631958,29.095512267987186L62.249917325695804,28.35451318104341L62.5876924881958,28.41206326555474L62.9254676506958,27.98229761543982L63.2632428131958,31.108141339167954L63.6010179756958,28.091881176401422L63.9387931381958,27.863362309706716L64.2765683006958,28.561184437108174L64.6143434631958,27.234088932157437L64.9521186256958,27.780774425770225L65.2898937881958,27.16969779297337L65.6276689506958,28.673670263688518L65.9654441131958,27.917434282246365L66.30321927569581,27.439090233798694L66.6409944381958,27.825828644423055L66.9787696006958,27.95175472488069L67.3165447631958,27.19245524084097L67.65431992569579,28.328185485787692L67.99209508819581,28.931948869902385L68.3298702506958,27.21100901033221L68.6676454131958,27.15373533207029L69.0054205756958,28.79660194311092L69.3431957381958,27.30456100882838L69.6809709006958,28.30699434000006L70.0187460631958,34.67197379893078L70.3565212256958,27.351204563415294L70.6942963881958,28.377996195315692L71.0320715506958,29.154179494423175L71.3698467131958,28.699687001913652L71.70762187569579,29.14263953351055L72.0453970381958,28.335763623792182L72.38317220069581,30.087684017149726L72.7209473631958,28.499476741928735L73.0587225256958,27.837414673043913L73.3964976881958,27.908635349973654L73.7342728506958,28.24033436618546L74.07204801319581,27.726760037865866L74.4098231756958,27.990624353703105L74.7475983381958,29.081231278434643L75.0853735006958,27.91974918458511L75.4231486631958,27.374319036021713L75.7609238256958,26.721942702793086L76.09869898819579,27.616220571958404L76.4364741506958,30.568803645018495L76.77424931319581,30.049159896139056L77.1120244756958,28.037935890059412L77.4497996381958,27.645565702103447L77.7875748006958,26.935708385925864L78.12534996319579,26.004599384027465L78.46312512569581,28.061384353550526L78.8009002881958,27.328493183255947L79.1386754506958,30.816970389275003L79.4764506131958,27.17103375651216L79.8142257756958,30.54331668543803L80.1520009381958,36.283514368372295L80.4897761006958,34.662426266399265L80.8275512631958,25.35253400782942L81.1653264256958,25.839504234643904L81.5031015881958,160.00720422689827L81.8408767506958,170.3595324231616L82.1786519131958,170.31091947404764L82.5164270756958,170.29265650696462L82.85420223819581,170.3641219185944L83.1919774006958,170.3068712741866L83.5297525631958,170.3551905416605L83.8675277256958,170.34381613657436L84.2053028881958,170.27610956201335L84.54307805069581,170.3365460763687L84.8808532131958,170.37328939253294L85.2186283756958,170.28897540915355L85.5564035381958,170.34035242076152L85.8941787006958,170.35016772184713L86.2319538631958,170.34737918588309L86.56972902569579,170.4058419868638L86.9075041881958,170.35838360968748L87.24527935069581,170.3350719097052L87.5830545131958,170.39419981322354L87.9208296756958,170.36296302780914L88.2586048381958,160.1184606215151L88.59638000069579,26.518576804794133L88.93415516319581,32.56874106258079L89.2719303256958,37.707202340562645L89.6097054881958,27.045430150012173L89.9474806506958,153.9929727815341L90.2852558131958,170.5954250024055L90.6230309756958,170.3745317810394L90.9608061381958,170.44893976753258L91.2985813006958,170.3787210632569L91.6363564631958,170.32764781060013L91.9741316256958,170.31146796769883L92.3119067881958,170.36954351200717L92.6496819506958,170.3599139213704L92.9874571131958,170.31752731094747L93.32523227569581,170.398597839744L93.6630074381958,170.56721716880747L94.0007826006958,170.30042179503383L94.3385577631958,24.499820728418236L94.6763329256958,23.451573061407863L95.0141080881958,23.631214089666308L95.3518832506958,23.408488237282015L95.6896584131958,23.434470424725983L96.0274335756958,23.227741584025935L96.3652087381958,23.27169017768117L96.7029839006958,23.15639422089856L97.0407590631958,23.26217719593085L97.3785342256958,22.851806050982454L97.71630938819581,23.928131986161453L98.0540845506958,24.68898625535407L98.3918597131958,23.201563608821974L98.7296348756958,23.846119948577886L99.06741003819579,23.357767690516393L99.40518520069581,22.325102425816166L99.7429603631958,23.461903744979335L100.0807355256958,24.060403893428305L100.4185106881958,22.937261649756497L100.7562858506958,22.595911448669685L101.0940610131958,24.017353620083625L101.4318361756958,22.31810013416458L101.7696113381958,26.992728691792486L102.1073865006958,25.20664909277944L102.4451616631958,24.03842959660069L102.7829368256958,24.27608138645278L103.1207119881958,24.46127357355343L103.45848715069579,23.75135867274056L103.79626231319581,23.348749936629574L104.1340374756958,23.73250546314579L104.4718126381958,24.330602519147714L104.8095878006958,23.524843751354023L105.1473629631958,23.786416198706632L105.4851381256958,23.969846295967322L105.8229132881958,24.06788989601632L106.1606884506958,23.813250638752923L106.4984636131958,22.98156726815055L106.8362387756958,24.414215409592416L107.1740139381958,22.50072404653119L107.5117891006958,22.54936002949924L107.8495642631958,23.399055874021094L108.18733942569581,22.690085361227016L108.5251145881958,21.906727016562094L108.8628897506958,22.101524320829533L109.2006649131958,22.445788304462155L109.53844007569579,21.755371561159315L109.87621523819581,20.994574876602L110.2139904006958,20.995876289359607L110.5517655631958,19.59352918300864L110.8895407256958,20.244915060510245L111.2273158881958,20.41678216300421L111.5650910506958,20.29398868670649L111.90286621319581,20.05520823800265L112.2406413756958,19.475181240555514L112.5784165381958,20.30354773616505L112.9161917006958,19.421328089629977L113.2539668631958,19.21034950284535L113.5917420256958,19.15081850687999L113.92951718819579,18.74234765489622L114.26729235069581,18.99699842908669L114.6050675131958,18.641804881675533L114.9428426756958,17.76055265701339L115.2806178381958,18.53781854726437L115.6183930006958,18.309541536037873L115.9561681631958,18.277202004857617L116.2939433256958,17.876424460148943L116.6317184881958,18.415646985027813L116.9694936506958,17.32536253425392L117.3072688131958,16.969950165228674L117.6450439756958,18.75561515486762L117.9828191381958,17.85958671278941L118.3205943006958,17.68994237721774L118.65836946319581,16.537374384911484L118.9961446256958,17.033926695038623L119.3339197881958,17.80575659571799L119.6716949506958,16.641280100833246L120.00947011319579,16.647625927642483L120.34724527569581,16.89628789976251L120.6850204381958,16.52480941749067L121.0227956006958,17.2703116229143L121.3605707631958,16.892510347687335L121.6983459256958,17.407512774962193L122.0361210881958,16.96709396731817L122.3738962506958,16.95488602463615L122.7116714131958,16.548350016398235L123.04944657569581,23.77124840577059L123.3872217381958,32.262978166104716L123.7249969006958,26.05807247636007L124.0627720631958,26.29232677272992L124.40054722569579,26.498387631660574L124.73832238819581,27.70639811082643L125.0760975506958,25.733870979663347L125.4138727131958,19.70420685204081L125.7516478756958,21.316069895439973L126.0894230381958,25.384332243437935L126.4271982006958,20.114693166259794L126.76497336319581,16.249289971470215L127.1027485256958,19.37205867567374L127.4405236881958,16.592137373074642L127.7782988506958,19.948112333285685L128.1160740131958,16.808747737190878L128.4538491756958,17.02061312735901L128.7916243381958,16.07366835075517L129.1293995006958,16.11777818138923L129.4671746631958,15.611102492377658L129.80494982569581,16.26370916414746L130.1427249881958,16.25180066156897L130.4805001506958,20.38978648597908L130.81827531319578,15.282202089441071L131.1560504756958,18.908617530839766L131.4938256381958,20.093052860316874L131.8316008006958,16.058385388548558L132.16937596319582,34.01925195789038L132.5071511256958,20.67339081479459L132.8449262881958,18.062814407663677L133.1827014506958,25.55094762719323L133.5204766131958,15.370352649146815L133.85825177569578,24.26294057267904L134.19602693819579,18.340153528159355L134.53380210069582,21.82272255059741L134.8715772631958,19.66363271801372L135.2093524256958,17.667092793933666L135.5471275881958,13.56503978194607L135.8849027506958,15.983939972042409L136.2226779131958,18.369867199970283L136.5604530756958,17.288761740062014L136.8982282381958,23.786899909643086L137.2360034006958,20.83301542382539L137.57377856319582,18.271719947577765L137.9115537256958,22.235846241112807L138.2493288881958,27.63932352763775L138.5871040506958,23.54897171354156L138.9248792131958,13.478133050362644L139.2626543756958,14.382430646068853L139.60042953819578,26.268440666010605L139.9382047006958,18.85985486167408L140.2759798631958,19.02501911262001L140.6137550256958,23.424208842716865L140.95153018819582,15.495403443147994L141.2893053506958,12.1260918814032L141.6270805131958,12.384577792304128L141.9648556756958,14.316576857148355L142.3026308381958,22.081450316966563L142.6404060006958,17.304666616329808L142.97818116319579,23.465116967628653L143.31595632569582,13.98765342035765L143.6537314881958,13.820266402489443L143.9915066506958,19.38018962617703L144.3292818131958,18.633823651223995L144.6670569756958,26.888500501913075L145.0048321381958,15.149158548061303L145.3426073006958,19.650123362574114L145.6803824631958,13.471787223553408L146.01815762569578,16.535934769029172L146.35593278819582,14.661992533486826L146.69370795069582,14.085259377178431L147.0314831131958,16.04438080524541L147.3692582756958,15.377170669965436L147.7070334381958,21.691107108172904L148.0448086006958,15.528019380577662L148.38258376319578,13.167867035406697L148.7203589256958,12.450212759610517L149.0581340881958,12.585294797079637L149.3959092506958,15.384771841824062L149.73368441319582,12.818558637722463L150.0714595756958,19.43465317423666L150.4092347381958,16.172656338822957L150.7470099006958,11.869483229612799L151.0847850631958,12.69425644398008L151.4225602256958,23.557897332011912L151.76033538819578,23.519753269594155L152.0981105506958,21.719254477903863L152.4358857131958,16.169316429976L152.7736608756958,16.2372202319129L153.11143603819582,13.063258786934373L153.4492112006958,13.63106632477244L153.7869863631958,13.090715141041821L154.1247615256958,14.447858308688183L154.4625366881958,18.352683944799004L154.80031185069578,16.877814748760695L155.1380870131958,14.474969154983883L155.47586217569582,23.608986420443415L155.8136373381958,25.21621965916505L156.1514125006958,19.21636133876989L156.4891876631958,25.934829839907085L156.8269628256958,24.168179296841714L157.16473798819578,21.490931398969153L157.5025131506958,21.966649588047474L157.8402883131958,17.760184115347524L158.1780634756958,15.155078248569371L158.51583863819582,20.032093765396255L158.8536138006958,25.3014794701791L159.1913889631958,25.20397716570186L159.52916412569581,25.604443753379954L159.8669392881958,17.010144240662832L160.2047144506958,23.4328580549378L160.54248961319578,16.694776227019968L160.8802647756958,18.24538073539498L161.2180399381958,24.33778908163222L161.5558151006958,18.986114933016392L161.89359026319582,21.044143730661773L162.2313654256958,15.931918012519183L162.5691405881958,25.366250667956102L162.9069157506958,21.841794581806287L163.2446909131958,22.589289215611053L163.5824660756958,33.16888813159913L163.92024123819579,26.97714628948234L164.25801640069582,15.487825305143486L164.5957915631958,27.411461125785355L164.9335667256958,29.326265418531253L165.2713418881958,26.787358848485347L165.6091170506958,18.717471092449884L165.9468922131958,25.019475994224724L166.2846673756958,23.506911895923945L166.6224425381958,28.467482718560227L166.96021770069578,26.684339935947087L167.29799286319582,20.559407787696653L167.6357680256958,22.364858858022085L167.9735431881958,26.963153223106264L168.3113183506958,27.0527203648402L168.6490935131958,16.94306965747413L168.9868686756958,26.932299375516553L169.32464383819578,16.08835243275476L169.6624190006958,26.177065366728474L170.0001941631958,18.091433971404044L170.3379693256958,17.56312949337662L170.67574448819582,18.266974973629665L171.0135196506958,14.70078154381986L171.3512948131958,20.658096335660908L171.6890699756958,16.579284482477366L172.0268451381958,15.056712174562744L172.3646203006958,15.195352942492931L172.70239546319578,27.476335975905876L173.0401706256958,17.166325288503113L173.3779457881958,16.642558479736753L173.7157209506958,20.899732982275253L174.05349611319582,15.411134087860965L174.3912712756958,18.889914041296773L174.7290464381958,14.0363124371798L175.0668216006958,16.14864354590601L175.4045967631958,15.0467039649489L175.74237192569578,14.600284838307408L176.08014708819582,21.211622883946454L176.41792225069582,18.0818403711643L176.7556974131958,19.548451930501678L177.0934725756958,22.593170420029768L177.4312477381958,33.632836021223675L177.7690229006958,25.62682114265462L178.10679806319578,16.850680868610855L178.4445732256958,26.840659186912077L178.7823483881958,28.301063122564923L179.1201235506958,28.486335928154993L179.45789871319582,26.05164603106143L179.7956738756958,27.627841151360432L180.1334490381958,19.782234032862142L180.47122420069581,22.83661522419229L180.8089993631958,24.665733579622948L181.1467745256958,16.44849825880106L181.48454968819578,21.1856637303566L181.8223248506958,17.467205007906376L182.1601000131958,27.101367864735302L182.4978751756958,14.39499561348967L182.83565033819582,14.48898525521408L183.1734255006958,13.028063057843594L183.5112006631958,13.53718033539157L183.8489758256958,13.87877239194661L184.1867509881958,14.254477586448935L184.52452615069578,18.44112242768121L184.8623013131958,15.146244765515496L185.20007647569582,14.657581550423423L185.5378516381958,15.57071262918351L185.8756268006958,14.709753229998423L186.2134019631958,26.017659579311804L186.5511771256958,21.19075421211645L186.8889522881958,25.00076098775466L187.2267274506958,21.195913795438653L187.5645026131958,17.89407990932961L187.90227777569578,26.618647384005413L188.24005293819582,21.805781150894354L188.5778281006958,17.252218530505395L188.9156032631958,25.745629762190084L189.25337842569581,32.76862884860808L189.5911535881958,29.74468689549354L189.9289287506958,16.96241809493242L190.26670391319578,17.449607143360996L190.6044790756958,26.719593249673153L190.9422542381958,23.738494265216215L191.2800294006958,20.674035762709867L191.61780456319582,29.675113139133153L191.9555797256958,28.61827384453715L192.2933548881958,19.009286990258094L192.6311300506958,19.04274366336303L192.9689052131958,16.379385179523005L193.3066803756958,15.952636964297414L193.64445553819579,18.42497569594519L193.9822307006958,26.055907294073076L194.3200058631958,26.690593627339855L194.6577810256958,26.72871465590347L194.9955561881958,27.04817117865209L195.3333313506958,30.048376745099073L195.6711065131958,27.40394057241617L196.0088816756958,29.027608466050285L196.3466568381958,19.547945185711104L196.68443200069578,25.167192100677013L197.02220716319582,28.738199605997274L197.35998232569582,22.655419410780944L197.6977574881958,17.623754597412542L198.0355326506958,16.31796540752003L198.3733078131958,19.322973532550417L198.7110829756958,17.201094891292726L199.04885813819578,18.588389373978234L199.3866333006958,22.0493065735463L199.7244084631958,25.010216384869697L200.0621836256958,29.894222676421073L200.39995878819582,24.42112556582751L200.7377339506958,30.401969439649093L201.0755091131958,23.095987938476725L201.41328427569582,21.11321074223159L201.7510594381958,16.758038707352306L202.0888346006958,17.66955741632419L202.42660976319578,16.27532974354947L202.7643849256958,17.685082233999047L203.1021600881958,23.284773406819625L203.4399352506958,21.03545996765965L203.77771041319582,20.087893276994674L204.1154855756958,17.420020157747725L204.4532607381958,23.67528936951918L204.7910359006958,30.67206441302498L205.1288110631958,25.223049196910736L205.46658622569578,19.051634731052193L205.8043613881958,30.554326867705964L206.14213655069582,16.5279880893588L206.4799117131958,16.632815159445254L206.8176868756958,16.23236008869421L207.1554620381958,16.12089926862208L207.4932372006958,16.769670803681382L207.8310123631958,16.40955952841627L208.1687875256958,15.828922133835025L208.5065626881958,15.62494583870198L208.84433785069578,17.358807690431806L209.18211301319582,15.654981984470538L209.5198881756958,15.649407791774216L209.8576633381958,15.492881236122168L210.19543850069581,164.2604514573098L210.5332136631958,170.26107709297025L210.8709888256958,170.31771014216451L211.20876398819578,170.24288610668134L211.5465391506958,170.2637821312131L211.88431431319577,170.36631157435139L212.2220894756958,170.26727607895947L212.55986463819582,170.27500969547927L212.8976398006958,170.3071304050454L213.2354149631958,170.33611995006754L213.5731901256958,170.33595727347284L213.9109652881958,170.3085714605436L214.2487404506958,170.32181160781323L214.5865156131958,170.26756832098357L214.9242907756958,170.2627988735655L215.2620659381958,170.34899443490306L215.5998411006958,170.74798973514942L215.9376162631958,170.7369709151862L216.2753914256958,170.60716650954166L216.6131665881958,170.32349739801143L216.9509417506958,164.8476938095591L217.2887169131958,16.966333850132305L217.62649207569578,16.4910533042822L217.96426723819582,16.85023170845559L218.30204240069583,15.419334139926614L218.6398175631958,15.482228078593067L218.9775927256958,16.059974724482622L219.3153678881958,14.610108777088309L219.6531430506958,15.696477472662298L219.99091821319578,14.224959702398015L220.3286933756958,16.833935256667814L220.6664685381958,16.084471228336046L221.0042437006958,14.79808806053711L221.34201886319582,16.303097054687516L221.6797940256958,13.961625165205445L222.0175691881958,14.266662495276837L222.3553443506958,14.799239753242958L222.6931195131958,14.97303018255569L223.0308946756958,17.03302837472807L223.36866983819579,14.264808270020406L223.7064450006958,13.841019905048856L224.0442201631958,15.383078853546456L224.3819953256958,13.433159450199199L224.71977048819582,14.116067157059906L225.0575456506958,13.356318512864902L225.3953208131958,14.684796049062664L225.7330959756958,13.850544403726227L226.0708711381958,13.466466403252381L226.40864630069578,13.737667001625901L226.7464214631958,13.628336813059574L227.08419662569582,12.809402680710956L227.4219717881958,13.174546853100633L227.7597469506958,14.974642552343873L228.0975221131958,12.951429425196357L228.4352972756958,13.80021543248059L228.77307243819578,12.401542225861299L229.1108476006958,11.895315697005014L229.4486227631958,12.370941750666866L229.78639792569578,12.243080826463418L230.12417308819582,13.847883993575714L230.4619482506958,15.667362681058412L230.7997234131958,15.185206529754401L231.13749857569582,14.139158595812205L231.4752737381958,13.543203688243159L231.8130489006958,12.901849054209517L232.15082406319578,12.536152069321036L232.4885992256958,14.243524988816302L232.82637438819577,14.88864565799807L233.1641495506958,25.17198314233335L233.50192471319582,16.643548935463777L233.8396998756958,12.700659855424622L234.1774750381958,30.770799028697493L234.5152502006958,25.568718245644504" fill="none"></path></g></g></g></g></g></g><g transform="translate(72, 176)" clip-path="url(#clip_1)"><clipPath id="clip_1"><rect width="257" height="23"></rect></clipPath><g><g><line x1="0" y1="0" x2="0" y2="5" style="visibility: inherit;" fill="rgb(0, 0, 0)" stroke="rgb(204, 204, 204)" stroke-width="1px"></line><line x1="25.7701997756958" y1="0" x2="25.7701997756958" y2="5" style="visibility: inherit;" fill="rgb(0, 0, 0)" stroke="rgb(204, 204, 204)" stroke-width="1px"></line><line x1="51.5403995513916" y1="0" x2="51.5403995513916" y2="5" style="visibility: inherit;" fill="rgb(0, 0, 0)" stroke="rgb(204, 204, 204)" stroke-width="1px"></line><line x1="77.3105993270874" y1="0" x2="77.3105993270874" y2="5" style="visibility: inherit;" fill="rgb(0, 0, 0)" stroke="rgb(204, 204, 204)" stroke-width="1px"></line><line x1="103.0807991027832" y1="0" x2="103.0807991027832" y2="5" style="visibility: inherit;" fill="rgb(0, 0, 0)" stroke="rgb(204, 204, 204)" stroke-width="1px"></line><line x1="128.850998878479" y1="0" x2="128.850998878479" y2="5" style="visibility: inherit;" fill="rgb(0, 0, 0)" stroke="rgb(204, 204, 204)" stroke-width="1px"></line><line x1="154.6211986541748" y1="0" x2="154.6211986541748" y2="5" style="visibility: inherit;" fill="rgb(0, 0, 0)" stroke="rgb(204, 204, 204)" stroke-width="1px"></line><line x1="180.3913984298706" y1="0" x2="180.3913984298706" y2="5" style="visibility: inherit;" fill="rgb(0, 0, 0)" stroke="rgb(204, 204, 204)" stroke-width="1px"></line><line x1="206.1615982055664" y1="0" x2="206.1615982055664" y2="5" style="visibility: inherit;" fill="rgb(0, 0, 0)" stroke="rgb(204, 204, 204)" stroke-width="1px"></line><line x1="231.9317979812622" y1="0" x2="231.9317979812622" y2="5" style="visibility: inherit;" fill="rgb(0, 0, 0)" stroke="rgb(204, 204, 204)" stroke-width="1px"></line><line x1="257.701997756958" y1="0" x2="257.701997756958" y2="5" style="visibility: inherit;" fill="rgb(0, 0, 0)" stroke="rgb(204, 204, 204)" stroke-width="1px"></line></g><g transform="translate(0, 8)"><text style="text-anchor: middle; visibility: hidden; font-family: Roboto, sans-serif; font-size: 12px; font-weight: 200;" x="0" y="0" dx="0em" dy="0.95em" fill="rgb(33, 33, 33)" stroke="none" stroke-width="1px">-10M</text><text style="text-anchor: middle; visibility: inherit; font-family: Roboto, sans-serif; font-size: 12px; font-weight: 200;" x="25.7701997756958" y="0" dx="0em" dy="0.95em" fill="rgb(33, 33, 33)" stroke="none" stroke-width="1px">0</text><text style="text-anchor: middle; visibility: hidden; font-family: Roboto, sans-serif; font-size: 12px; font-weight: 200;" x="51.5403995513916" y="0" dx="0em" dy="0.95em" fill="rgb(33, 33, 33)" stroke="none" stroke-width="1px">10M</text><text style="text-anchor: middle; visibility: inherit; font-family: Roboto, sans-serif; font-size: 12px; font-weight: 200;" x="77.3105993270874" y="0" dx="0em" dy="0.95em" fill="rgb(33, 33, 33)" stroke="none" stroke-width="1px">20M</text><text style="text-anchor: middle; visibility: hidden; font-family: Roboto, sans-serif; font-size: 12px; font-weight: 200;" x="103.0807991027832" y="0" dx="0em" dy="0.95em" fill="rgb(33, 33, 33)" stroke="none" stroke-width="1px">30M</text><text style="text-anchor: middle; visibility: inherit; font-family: Roboto, sans-serif; font-size: 12px; font-weight: 200;" x="128.850998878479" y="0" dx="0em" dy="0.95em" fill="rgb(33, 33, 33)" stroke="none" stroke-width="1px">40M</text><text style="text-anchor: middle; visibility: hidden; font-family: Roboto, sans-serif; font-size: 12px; font-weight: 200;" x="154.6211986541748" y="0" dx="0em" dy="0.95em" fill="rgb(33, 33, 33)" stroke="none" stroke-width="1px">50M</text><text style="text-anchor: middle; visibility: inherit; font-family: Roboto, sans-serif; font-size: 12px; font-weight: 200;" x="180.3913984298706" y="0" dx="0em" dy="0.95em" fill="rgb(33, 33, 33)" stroke="none" stroke-width="1px">60M</text><text style="text-anchor: middle; visibility: hidden; font-family: Roboto, sans-serif; font-size: 12px; font-weight: 200;" x="206.1615982055664" y="0" dx="0em" dy="0.95em" fill="rgb(33, 33, 33)" stroke="none" stroke-width="1px">70M</text><text style="text-anchor: middle; visibility: inherit; font-family: Roboto, sans-serif; font-size: 12px; font-weight: 200;" x="231.9317979812622" y="0" dx="0em" dy="0.95em" fill="rgb(33, 33, 33)" stroke="none" stroke-width="1px">80M</text><text style="text-anchor: middle; visibility: hidden; font-family: Roboto, sans-serif; font-size: 12px; font-weight: 200;" x="257.701997756958" y="0" dx="0em" dy="0.95em" fill="rgb(33, 33, 33)" stroke="none" stroke-width="1px">90M</text></g><line x1="0" y1="0" x2="257.701997756958" y2="0" fill="rgb(0, 0, 0)" stroke="rgb(204, 204, 204)" stroke-width="1px"></line></g></g></g></g></svg>