<svg viewBox="0 0 330 200" xmlns="http://www.w3.org/2000/svg"><g><g><g><g><g><line x1="41.149001121520996" y1="176.89999961853027" x2="36.149001121520996" y2="176.89999961853027" style="visibility: inherit;" fill="rgb(0, 0, 0)" stroke="rgb(204, 204, 204)" stroke-width="1px"></line><line x1="41.149001121520996" y1="159.20999965667724" x2="36.149001121520996" y2="159.20999965667724" style="visibility: inherit;" fill="rgb(0, 0, 0)" stroke="rgb(204, 204, 204)" stroke-width="1px"></line><line x1="41.149001121520996" y1="141.51999969482424" x2="36.149001121520996" y2="141.51999969482424" style="visibility: inherit;" fill="rgb(0, 0, 0)" stroke="rgb(204, 204, 204)" stroke-width="1px"></line><line x1="41.149001121520996" y1="123.82999973297119" x2="36.149001121520996" y2="123.82999973297119" style="visibility: inherit;" fill="rgb(0, 0, 0)" stroke="rgb(204, 204, 204)" stroke-width="1px"></line><line x1="41.149001121520996" y1="106.13999977111816" x2="36.149001121520996" y2="106.13999977111816" style="visibility: inherit;" fill="rgb(0, 0, 0)" stroke="rgb(204, 204, 204)" stroke-width="1px"></line><line x1="41.149001121520996" y1="88.44999980926514" x2="36.149001121520996" y2="88.44999980926514" style="visibility: inherit;" fill="rgb(0, 0, 0)" stroke="rgb(204, 204, 204)" stroke-width="1px"></line><line x1="41.149001121520996" y1="70.75999984741212" x2="36.149001121520996" y2="70.75999984741212" style="visibility: inherit;" fill="rgb(0, 0, 0)" stroke="rgb(204, 204, 204)" stroke-width="1px"></line><line x1="41.149001121520996" y1="53.06999988555909" x2="36.149001121520996" y2="53.06999988555909" style="visibility: inherit;" fill="rgb(0, 0, 0)" stroke="rgb(204, 204, 204)" stroke-width="1px"></line><line x1="41.149001121520996" y1="35.379999923706045" x2="36.149001121520996" y2="35.379999923706045" style="visibility: inherit;" fill="rgb(0, 0, 0)" stroke="rgb(204, 204, 204)" stroke-width="1px"></line><line x1="41.149001121520996" y1="17.689999961853022" x2="36.149001121520996" y2="17.689999961853022" style="visibility: inherit;" fill="rgb(0, 0, 0)" stroke="rgb(204, 204, 204)" stroke-width="1px"></line><line x1="41.149001121520996" y1="0" x2="36.149001121520996" y2="0" style="visibility: inherit;" fill="rgb(0, 0, 0)" stroke="rgb(204, 204, 204)" stroke-width="1px"></line></g><g transform="translate(31.149001121520996, 0)"><text style="text-anchor: end; visibility: hidden; font-family: Roboto, sans-serif; font-size: 12px; font-weight: 200;" x="0" y="176.89999961853027" dx="0em" dy="0.3em" fill="rgb(33, 33, 33)" stroke="none" stroke-width="1px">0</text><text style="text-anchor: end; visibility: inherit; font-family: Roboto, sans-serif; font-size: 12px; font-weight: 200;" x="0" y="159.20999965667724" dx="0em" dy="0.3em" fill="rgb(33, 33, 33)" stroke="none" stroke-width="1px">0.5</text><text style="text-anchor: end; visibility: hidden; font-family: Roboto, sans-serif; font-size: 12px; font-weight: 200;" x="0" y="141.51999969482424" dx="0em" dy="0.3em" fill="rgb(33, 33, 33)" stroke="none" stroke-width="1px">1</text><text style="text-anchor: end; visibility: inherit; font-family: Roboto, sans-serif; font-size: 12px; font-weight: 200;" x="0" y="123.82999973297119" dx="0em" dy="0.3em" fill="rgb(33, 33, 33)" stroke="none" stroke-width="1px">1.5</text><text style="text-anchor: end; visibility: hidden; font-family: Roboto, sans-serif; font-size: 12px; font-weight: 200;" x="0" y="106.13999977111816" dx="0em" dy="0.3em" fill="rgb(33, 33, 33)" stroke="none" stroke-width="1px">2</text><text style="text-anchor: end; visibility: inherit; font-family: Roboto, sans-serif; font-size: 12px; font-weight: 200;" x="0" y="88.44999980926514" dx="0em" dy="0.3em" fill="rgb(33, 33, 33)" stroke="none" stroke-width="1px">2.5</text><text style="text-anchor: end; visibility: hidden; font-family: Roboto, sans-serif; font-size: 12px; font-weight: 200;" x="0" y="70.75999984741212" dx="0em" dy="0.3em" fill="rgb(33, 33, 33)" stroke="none" stroke-width="1px">3</text><text style="text-anchor: end; visibility: inherit; font-family: Roboto, sans-serif; font-size: 12px; font-weight: 200;" x="0" y="53.06999988555909" dx="0em" dy="0.3em" fill="rgb(33, 33, 33)" stroke="none" stroke-width="1px">3.5</text><text style="text-anchor: end; visibility: hidden; font-family: Roboto, sans-serif; font-size: 12px; font-weight: 200;" x="0" y="35.379999923706045" dx="0em" dy="0.3em" fill="rgb(33, 33, 33)" stroke="none" stroke-width="1px">4</text><text style="text-anchor: end; visibility: inherit; font-family: Roboto, sans-serif; font-size: 12px; font-weight: 200;" x="0" y="17.689999961853022" dx="0em" dy="0.3em" fill="rgb(33, 33, 33)" stroke="none" stroke-width="1px">4.5</text><text style="text-anchor: end; visibility: hidden; font-family: Roboto, sans-serif; font-size: 12px; font-weight: 200;" x="0" y="0" dx="0em" dy="0.3em" fill="rgb(33, 33, 33)" stroke="none" stroke-width="1px">5</text></g><line x1="41.149001121520996" y1="0" x2="41.149001121520996" y2="176.89999961853027" fill="rgb(0, 0, 0)" stroke="rgb(204, 204, 204)" stroke-width="1px"></line></g></g><g transform="translate(41, 0)" clip-path="url(#clip_0)"><clipPath id="clip_0"><rect width="288" height="176"></rect></clipPath><g><g><g><line x1="0" y1="0" x2="0" y2="176.89999961853027" fill="rgb(0, 0, 0)" stroke="rgb(66, 66, 66)" stroke-width="1px" opacity="0.25"></line><line x1="28.8850998878479" y1="0" x2="28.8850998878479" y2="176.89999961853027" fill="rgb(0, 0, 0)" stroke="rgb(66, 66, 66)" stroke-width="1px" opacity="0.25"></line><line x1="57.7701997756958" y1="0" x2="57.7701997756958" y2="176.89999961853027" fill="rgb(0, 0, 0)" stroke="rgb(66, 66, 66)" stroke-width="1px" opacity="0.25"></line><line x1="86.6552996635437" y1="0" x2="86.6552996635437" y2="176.89999961853027" fill="rgb(0, 0, 0)" stroke="rgb(66, 66, 66)" stroke-width="1px" opacity="0.25"></line><line x1="115.5403995513916" y1="0" x2="115.5403995513916" y2="176.89999961853027" fill="rgb(0, 0, 0)" stroke="rgb(66, 66, 66)" stroke-width="1px" opacity="0.25"></line><line x1="144.4254994392395" y1="0" x2="144.4254994392395" y2="176.89999961853027" fill="rgb(0, 0, 0)" stroke="rgb(66, 66, 66)" stroke-width="1px" opacity="0.25"></line><line x1="173.3105993270874" y1="0" x2="173.3105993270874" y2="176.89999961853027" fill="rgb(0, 0, 0)" stroke="rgb(66, 66, 66)" stroke-width="1px" opacity="0.25"></line><line x1="202.1956992149353" y1="0" x2="202.1956992149353" y2="176.89999961853027" fill="rgb(0, 0, 0)" stroke="rgb(66, 66, 66)" stroke-width="1px" opacity="0.25"></line><line x1="231.0807991027832" y1="0" x2="231.0807991027832" y2="176.89999961853027" fill="rgb(0, 0, 0)" stroke="rgb(66, 66, 66)" stroke-width="1px" opacity="0.25"></line><line x1="259.9658989906311" y1="0" x2="259.9658989906311" y2="176.89999961853027" fill="rgb(0, 0, 0)" stroke="rgb(66, 66, 66)" stroke-width="1px" opacity="0.25"></line><line x1="288.850998878479" y1="0" x2="288.850998878479" y2="176.89999961853027" fill="rgb(0, 0, 0)" stroke="rgb(66, 66, 66)" stroke-width="1px" opacity="0.25"></line></g><g><line x1="0" y1="176.89999961853027" x2="288.850998878479" y2="176.89999961853027" fill="rgb(0, 0, 0)" stroke="rgb(66, 66, 66)" stroke-width="1px" opacity="0.25"></line><line x1="0" y1="159.20999965667724" x2="288.850998878479" y2="159.20999965667724" fill="rgb(0, 0, 0)" stroke="rgb(66, 66, 66)" stroke-width="1px" opacity="0.25"></line><line x1="0" y1="141.51999969482424" x2="288.850998878479" y2="141.51999969482424" fill="rgb(0, 0, 0)" stroke="rgb(66, 66, 66)" stroke-width="1px" opacity="0.25"></line><line x1="0" y1="123.82999973297119" x2="288.850998878479" y2="123.82999973297119" fill="rgb(0, 0, 0)" stroke="rgb(66, 66, 66)" stroke-width="1px" opacity="0.25"></line><line x1="0" y1="106.13999977111816" x2="288.850998878479" y2="106.13999977111816" fill="rgb(0, 0, 0)" stroke="rgb(66, 66, 66)" stroke-width="1px" opacity="0.25"></line><line x1="0" y1="88.44999980926514" x2="288.850998878479" y2="88.44999980926514" fill="rgb(0, 0, 0)" stroke="rgb(66, 66, 66)" stroke-width="1px" opacity="0.25"></line><line x1="0" y1="70.75999984741212" x2="288.850998878479" y2="70.75999984741212" fill="rgb(0, 0, 0)" stroke="rgb(66, 66, 66)" stroke-width="1px" opacity="0.25"></line><line x1="0" y1="53.06999988555909" x2="288.850998878479" y2="53.06999988555909" fill="rgb(0, 0, 0)" stroke="rgb(66, 66, 66)" stroke-width="1px" opacity="0.25"></line><line x1="0" y1="35.379999923706045" x2="288.850998878479" y2="35.379999923706045" fill="rgb(0, 0, 0)" stroke="rgb(66, 66, 66)" stroke-width="1px" opacity="0.25"></line><line x1="0" y1="17.689999961853022" x2="288.850998878479" y2="17.689999961853022" fill="rgb(0, 0, 0)" stroke="rgb(66, 66, 66)" stroke-width="1px" opacity="0.25"></line><line x1="0" y1="0" x2="288.850998878479" y2="0" fill="rgb(0, 0, 0)" stroke="rgb(66, 66, 66)" stroke-width="1px" opacity="0.25"></line></g></g></g><g><g><line x1="0" y1="176.89999961853027" x2="288.850998878479" y2="176.89999961853027" fill="rgb(0, 0, 0)" stroke="rgb(153, 153, 153)" stroke-width="1.5px"></line></g></g><g><g><line x1="28.8850998878479" y1="0" x2="28.8850998878479" y2="176.89999961853027" fill="rgb(0, 0, 0)" stroke="rgb(153, 153, 153)" stroke-width="1.5px"></line></g></g><g><g><g><g><g><path style="fill: none;" stroke="rgb(0, 153, 136)" stroke-width="2px" d="M29.263702669097903,-7.103500584543061L29.642305450347898,5.455367691965736L30.0209082315979,11.447609818399991L30.3995110128479,67.78891866283283L30.7781137940979,105.99835521419443L31.1567165753479,127.73839741259656L31.5353193565979,140.4161497816831L31.9139221378479,147.87690239180563L32.2925249190979,152.28750662212548L32.6711277003479,154.8969926862775L33.049730481597905,156.4397454136128L33.4283332628479,157.34750447885253L33.806936044097895,157.86703056622352L34.1855388253479,158.14831027243048L34.5641416065979,158.2602284327426L34.9427443878479,158.2791080734231L35.3213471690979,158.27795174982305L35.6999499503479,158.2148468792442L36.0785527315979,158.18253026655387L36.457155512847905,158.10951193767082L36.8357582940979,158.0578806994007L37.2143610753479,157.95402463589272L37.5929638565979,157.85793325031435L37.9715666378479,157.77275610067383L38.3501694190979,157.6488705106741L38.728772200347905,157.56470378116063L39.1073749815979,157.45288962074437L39.485977762847895,157.3366877547587L39.864580544097905,157.23053312569303L40.2431833253479,157.13693908755133L40.6217861065979,157.05989699365693L41.0003888878479,156.96397124993413L41.3789916690979,156.86021088368545L41.7575944503479,156.80449367121673L42.136197231597905,156.71970954601696L42.5148000128479,156.59362363994012L42.8934027940979,156.48793923503706L43.2720055753479,156.42015575909411L43.6506083565979,156.34080836843512L44.0292111378479,156.27420375264532L44.4078139190979,156.21611531947866L44.7864167003479,156.1524710666419L45.165019481597895,156.10752956730266L45.543622262847904,155.99982920949577L45.9222250440979,155.98143753514253L46.3008278253479,155.95886648357396L46.6794306065979,155.96842293934554L47.05803338784791,155.99832886323262L47.4366361690979,156.0446216034473L47.8152389503479,156.06602019909718L48.1938417315979,156.11046117450368L48.572444512847895,156.13904562249056L48.951047294097904,156.14522034487993L49.3296500753479,156.18265267915638L49.7082528565979,156.19685228359742L50.0868556378479,156.22605527757125L50.46545841909791,156.28779802494049L50.8440612003479,156.288794791909L51.2226639815979,156.32889681166068L51.6012667628479,156.3450862488552L51.979869544097895,156.35189481130942L52.358472325347904,156.39314565724368L52.7370751065979,156.44035079846856L53.1156778878479,156.44988689593933L53.4942806690979,156.51919346372375L53.872883450347906,156.53581918873473L54.2514862315979,156.53045259229552L54.630089012847904,156.53058311545809L55.0086917940979,156.54071287243394L55.387294575347894,156.53909777924835L55.765897356597904,156.5213931887051L56.1445001378479,156.4824077520978L56.5231029190979,156.46290345301563L56.9017057003479,156.45556021040997L57.280308481597906,156.15999645144856L57.6589112628479,156.2700876292745L58.037514044097904,156.3519736118759L58.4161168253479,156.39711364146305L58.7947196065979,156.36943939479178L59.173322387847904,156.36028485898L59.5519251690979,156.41772584554812L59.9305279503479,156.08007447530926L60.3091307315979,156.05931726140116L60.6877335128479,155.86233679324118L61.0663362940979,154.815997786121L61.444939075347904,154.82995827168506L61.8235418565979,155.29482663700554L62.2021446378479,155.30860415167314L62.580747419097904,155.48530234460452L62.9593502003479,155.75631136277548L63.3379529815979,155.70072386681522L63.7165557628479,155.6743017700725L64.0951585440979,155.62577710439774L64.4737613253479,155.29907008342087L64.8523641065979,155.43350182372018L65.2309668878479,155.3702487664645L65.60956966909791,155.63406291504188L65.9881724503479,155.6318218616115L66.3667752315979,155.45521974168048L66.7453780128479,155.91817554651323L67.1239807940979,156.13190524254844L67.5025835753479,156.31520499356827L67.8811863565979,156.40682299348123L68.2597891378479,156.384533657945L68.6383919190979,156.4333447145397L69.01699470034791,156.4287621354653L69.3955974815979,156.47598975313505L69.7742002628479,156.54211286654785L70.1528030440979,156.57645228293165L70.5314058253479,156.61969951601083L70.9100086065979,156.5016176609327L71.2886113878479,156.56730149322436L71.6672141690979,156.61740768872497L72.0458169503479,156.6148404875929L72.4244197315979,156.67929080931893L72.8030225128479,156.6885051117626L73.1816252940979,156.73338581831175L73.5602280753479,156.68195752434687L73.93883085659789,156.68741260919944L74.31743363784791,156.7153402067955L74.69603641909791,156.70902467143927L75.0746392003479,156.70198609219113L75.4532419815979,156.73197294174562L75.8318447628479,156.69713339799725L76.2104475440979,156.6487510035946L76.5890503253479,156.70156035576275L76.9676531065979,156.73718691554146L77.34625588784789,156.676491249718L77.72485866909791,156.71319059124667L78.10346145034791,156.68881969905627L78.4820642315979,156.33576821320838L78.8606670128479,156.509073934715L79.2392697940979,156.55880859225374L79.6178725753479,156.550508563495L79.9964753565979,156.56913374791003L80.3750781378479,156.58930083432395L80.75368091909789,156.60873300487293L81.13228370034791,156.53153876506602L81.51088648159791,156.56556628381384L81.8894892628479,156.61934251903537L82.2680920440979,156.6466280889754L82.64669482534791,156.65020821888513L83.0252976065979,156.6789475767571L83.4039003878479,156.68051849826153L83.7825031690979,156.6326277058563L84.16110595034789,156.65791594109683L84.53970873159791,156.70186657878858L84.91831151284791,156.76069580075017L85.2969142940979,156.7463265859873L85.6755170753479,156.58616749031773L86.05411985659791,156.52161986533696L86.4327226378479,156.58299408096514L86.8113254190979,156.6385212451131L87.1899282003479,156.712093927411L87.56853098159789,156.81641797946997L87.94713376284791,156.75893494972163L88.32573654409791,156.75937043811751L88.7043393253479,156.58214733746428L89.0829421065979,156.66546150026875L89.46154488784791,156.5473962129897L89.8401476690979,156.18068898400932L90.2187504503479,156.04042499000073L90.59735323159789,156.43182907921863L90.97595601284789,156.64121732443022L91.35455879409791,121.79547744314611L91.7331615753479,79.86169675246617L92.1117643565979,54.85219661013297L92.4903671378479,39.89376766186868L92.8689699190979,30.70714749200523L93.2475727003479,25.367686360784468L93.6261754815979,22.01802588338614L94.00477826284789,20.044170507208975L94.3833810440979,19.060663452486892L94.76198382534791,18.290699459757093L95.1405866065979,17.72024375798714L95.5191893878479,17.634266951973075L95.8977921690979,17.422546095455566L96.2763949503479,17.267454568238836L96.6549977315979,17.17930559290777L97.0336005128479,16.962563176904016L97.41220329409789,16.963675731779688L97.7908060753479,17.037264307943815L98.1694088565979,16.901058326986565L98.5480116378479,16.913087473347982L98.9266144190979,37.80631966374554L99.3052172003479,85.43887163995689L99.6838199815979,113.71208518222497L100.0624227628479,130.39463026108874L100.4410255440979,140.9588694253596L100.81962832534789,119.28886602730415L101.1982311065979,77.63828411517525L101.5768338878479,53.324016826028625L101.9554366690979,38.51059969872256L102.3340394503479,29.833896280861435L102.7126422315979,24.781469997788363L103.0912450128479,21.798756472559912L103.4698477940979,19.839897011657378L103.8484505753479,18.68999505423835L104.22705335659789,18.124652634401023L104.6056561378479,17.543551225073475L104.9842589190979,16.675535453533882L105.3628617003479,16.967067492001718L105.7414644815979,73.0308545965007L106.12006726284791,106.71883747043631L106.4986700440979,126.92175795310445L106.8772728253479,139.051587837445L107.2558756065979,146.33199609824413L107.63447838784789,150.7098437425386L108.0130811690979,153.33499012094296L108.3916839503479,154.91154568136562L108.77028673159789,155.8549518169258L109.1488895128479,156.44017725519382L109.52749229409791,156.77263687618134L109.9060950753479,156.90643917174262L110.2846978565979,157.05564665824474L110.6633006378479,157.11684220886187L111.04190341909789,157.17425289284049L111.4205062003479,157.25434749839593L111.7991089815979,157.2503587734839L112.17771176284789,157.22186012897077L112.5563145440979,157.25812907760007L112.93491732534791,157.2971354704679L113.3135201065979,157.24895778054034L113.6921228878479,157.3022374876651L114.0707256690979,157.10497572487938L114.44932845034789,157.07330266322157L114.8279312315979,157.11446239840853L115.2065340128479,157.13038558023788L115.58513679409789,157.1267062702173L115.96373957534789,157.1616812631653L116.34234235659791,157.20242498691883L116.7209451378479,157.2045886665925L117.0995479190979,157.18142465139653L117.4781507003479,157.20479992193182L117.8567534815979,157.20713045460903L118.2353562628479,157.1999113235198L118.6139590440979,157.19066040746847L118.99256182534789,157.19626800562548L119.37116460659789,157.2406514948664L119.74976738784791,157.1953491563914L120.1283701690979,157.26158645236947L120.5069729503479,157.2997227584876L120.8855757315979,157.28274967621658L121.2641785128479,157.30505840719775L121.6427812940979,157.3590171949696L122.0213840753479,157.39280958951682L122.39998685659789,157.3828126035199L122.77858963784789,157.4120670058399L123.15719241909791,157.4708848868585L123.5357952003479,157.4979360639432L123.9143979815979,157.57826116855435L124.2930007628479,157.5991867573503L124.6716035440979,157.60167379705098L125.0502063253479,157.6094114794608L125.4288091065979,157.6251784956973L125.80741188784789,157.66102416528219L126.18601466909789,157.65491118669107L126.56461745034791,157.68533192904968L126.9432202315979,157.70994792654466L127.3218230128479,157.7283615527437L127.7004257940979,157.75399596157075L128.0790285753479,157.76147783941266L128.45763135659791,157.78107281058294L128.8362341378479,157.8327150261245L129.2148369190979,157.83258778189287L129.59343970034791,157.84032585031508L129.9720424815979,157.85512135743843L130.3506452628479,157.87452247875214L130.7292480440979,157.85955500111552L131.1078508253479,157.90282244876235L131.4864536065979,157.94129407912766L131.86505638784791,157.88272046992222L132.2436591690979,157.88963108336102L132.6222619503479,157.9022396935325L133.00086473159791,157.95901273001266L133.3794675128479,157.9748462910911L133.7580702940979,157.94884077634072L134.1366730753479,157.98367688426708L134.5152758565979,158.002999470352L134.8938786378479,158.0055538088419L135.27248141909791,158.02380170196938L135.6510842003479,158.00387405127L136.0296869815979,158.0103366712446L136.40828976284791,157.9917022498697L136.7868925440979,157.9980466710121L137.1654953253479,158.0016508777141L137.5440981065979,158.0169352755626L137.9227008878479,157.6998844565401L138.3013036690979,157.10963419822798L138.67990645034791,157.05268824334442L139.0585092315979,157.0045721421546L139.4371120128479,156.96219933434455L139.81571479409791,156.88357621930757L140.1943175753479,156.93265866721646L140.5729203565979,157.24275225461932L140.9515231378479,157.35547909775565L141.3301259190979,157.23718543833712L141.7087287003479,157.40038525994223L142.08733148159791,157.67675453911718L142.4659342628479,157.69602545920256L142.8445370440979,157.83386706753058L143.22313982534791,157.7697312125315L143.6017426065979,157.87143004667243L143.9803453878479,157.9251815363511L144.35894816909789,157.99340370731767L144.7375509503479,158.03543021820826L145.1161537315979,158.083981398435L145.4947565128479,158.0836865828765L145.8733592940979,158.0852237362013L146.2519620753479,157.89497628602422L146.63056485659789,158.01127545297896L147.0091676378479,157.92771224298752L147.3877704190979,157.82618340409383L147.7663732003479,157.94150545165016L148.1449759815979,157.1584078380582L148.5235787628479,157.33556663300976L148.90218154409789,157.56063359437118L149.2807843253479,157.3453511191267L149.6593871065979,157.68662898442122L150.03798988784789,157.5052671052637L150.4165926690979,157.65613418894017L150.7951954503479,157.5918676142998L151.1737982315979,157.64305534807872L151.5524010128479,157.76134612078664L151.9310037940979,158.00898169776946L152.30960657534789,158.05383984433846L152.6882093565979,157.98399904858954L153.0668121378479,157.9806774014861L153.44541491909789,157.67297410771567L153.82401770034792,157.6366336920315L154.2026204815979,157.72732530152447L154.5812232628479,157.61332882768784L154.9598260440979,157.29686038346546L155.3384288253479,157.28401495535948L155.71703160659789,157.73126455710346L156.0956343878479,157.9552584031759L156.4742371690979,157.55394214941353L156.85283995034789,157.66841135711394L157.23144273159792,157.7185083404534L157.6100455128479,157.5406106421574L157.9886482940979,157.79560250640853L158.3672510753479,158.09267168318124L158.7458538565979,158.26197519907552L159.12445663784789,158.28119216024544L159.5030594190979,157.9669833754763L159.8816622003479,157.97444943529268L160.26026498159789,157.698480650309L160.63886776284792,157.95697985135044L161.0174705440979,158.11283854441325L161.3960733253479,157.97923298551794L161.7746761065979,157.9210890249807L162.1532788878479,157.5188070519927L162.53188166909788,157.80007241907484L162.9104844503479,157.76487405919752L163.2890872315979,158.01978001940626L163.66769001284788,158.04464951820148L164.04629279409792,158.13030921819583L164.4248955753479,158.21184587102843L164.8034983565979,158.17042634261338L165.1821011378479,158.17490904856626L165.5607039190979,157.9050793856163L165.93930670034788,158.01231665234468L166.3179094815979,158.17851633485492L166.69651226284788,158.30453050351153L167.07511504409788,158.3780875520732L167.45371782534792,158.3151346041645L167.8323206065979,158.3727250159235L168.2109233878479,158.12487386426537L168.5895261690979,158.12318956875114L168.9681289503479,158.29653896878884L169.34673173159788,158.37023569688947L169.7253345128479,157.94550785768593L170.10393729409788,157.67875720803772L170.48254007534788,157.6068045620469L170.86114285659792,157.8014057820146L171.2397456378479,157.9206903405889L171.6183484190979,158.13521830694683L171.9969512003479,158.2313041683291L172.3755539815979,158.31138670012479L172.75415676284788,158.2975518561612L173.1327595440979,158.1285661986189L173.51136232534787,158.08501362156525L173.88996510659788,158.1659321372818L174.26856788784792,157.8178004644403L174.6471706690979,157.52273683148093L175.0257734503479,157.63203150249777L175.4043762315979,157.37898869405484L175.7829790128479,157.31890478048925L176.16158179409788,157.39963539790313L176.5401845753479,157.44750354549805L176.91878735659787,157.650611404199L177.2973901378479,157.88355823053865L177.67599291909792,157.8075391525829L178.0545957003479,157.52731980378854L178.4331984815979,157.34992291666933L178.8118012628479,157.23238399630532L179.1904040440979,157.5480870913131L179.56900682534788,157.44935408367428L179.9476096065979,157.68597221340477L180.32621238784787,157.76041385936352L180.7048151690979,157.52550431789385L181.08341795034792,157.63774091401453L181.4620207315979,157.60227742719124L181.8406235128479,157.81577931620413L182.2192262940979,157.5188282368596L182.5978290753479,157.51693742934216L182.97643185659788,157.47446684911085L183.3550346378479,156.92617787101122L183.73363741909787,156.90973047110262L184.1122402003479,157.41840042496727L184.49084298159792,157.17298306329886L184.8694457628479,156.9308462138547L185.2480485440979,156.9184766405227L185.6266513253479,157.28421682961772L186.0052541065979,157.2213061558571L186.38385688784788,157.25748965065696L186.7624596690979,157.03373736670332L187.14106245034787,156.97759640494564L187.5196652315979,157.24869088187552L187.89826801284792,157.31432195636523L188.2768707940979,157.14634867660996L188.6554735753479,157.04035172468298L189.0340763565979,157.43791200742734L189.4126791378479,157.2071682651373L189.79128191909788,157.56661429736087L190.1698847003479,157.34204962928376L190.54848748159787,157.56159129947528L190.9270902628479,157.71468110104362L191.30569304409792,157.77458563169648L191.6842958253479,157.96918189321835L192.0628986065979,157.81529298895668L192.4415013878479,157.91466587042783L192.8201041690979,158.0517859217752L193.19870695034788,158.11477834675975L193.5773097315979,157.60162043189058L193.95591251284787,157.75597059698083L194.3345152940979,157.87099484050265L194.71311807534792,157.7599775476332L195.0917208565979,157.9291323901379L195.4703236378479,157.8967747595829L195.8489264190979,158.06740297411403L196.2275292003479,158.07941476402002L196.60613198159788,158.13398744989146L196.9847347628479,158.18642905560404L197.3633375440979,157.9283186584042L197.7419403253479,157.91429071667085L198.12054310659792,157.8399170502228L198.4991458878479,157.65338833825456L198.8777486690979,156.9816067438422L199.2563514503479,156.9999291017463L199.6349542315979,157.40653908324734L200.01355701284788,157.19447524982812L200.3921597940979,157.00080092620772L200.7707625753479,156.8769404997613L201.1493653565979,156.91759669199456L201.52796813784792,156.8714818453985L201.9065709190979,157.2087791823051L202.2851737003479,157.2681801086374L202.6637764815979,157.22250823518405L203.0423792628479,157.56251757827624L203.42098204409788,157.5450877674338L203.7995848253479,157.71192869913423L204.1781876065979,157.38400508944557L204.5567903878479,157.74403811191536L204.93539316909792,157.96009504049417L205.3139959503479,158.14692693616558L205.6925987315979,158.2402998200993L206.0712015128479,158.28228054740754L206.4498042940979,158.28826698226223L206.82840707534788,158.11837613175715L207.2070098565979,158.15178013549027L207.5856126378479,158.19827547956763L207.9642154190979,158.1818032746412L208.34281820034792,158.21267232815387L208.7214209815979,157.74887632699063L209.1000237628479,157.65903882178782L209.4786265440979,157.44537269672674L209.8572293253479,157.48723777008738L210.23583210659788,157.65446039808688L210.6144348878479,157.3556615962154L210.9930376690979,157.4018497809607L211.3716404503479,157.63150593439914L211.75024323159792,157.3854924087382L212.1288460128479,156.88474089391093L212.5074487940979,156.74322695252155L212.8860515753479,157.24757473761656L213.2646543565979,157.53113661573065L213.64325713784788,157.2790726441138L214.0218599190979,157.2727181032995L214.4004627003479,157.40232065600432L214.7790654815979,157.0495504369229L215.15766826284792,156.91513157045947L215.5362710440979,157.2681094248325L215.9148738253479,157.46941955781278L216.2934766065979,157.71466942822607L216.6720793878479,157.87405383607393L217.05068216909788,157.865752086979L217.4292849503479,157.51061034224753L217.8078877315979,157.25376322198613L218.1864905128479,157.11382954277053L218.5650932940979,157.00425317013529L218.9436960753479,156.79827976201767L219.3222988565979,156.79371708491715L219.7009016378479,156.7285687560589L220.0795044190979,157.1232573933829L220.45810720034788,157.10102406945416L220.83670998159792,156.9043962298806L221.2153127628479,157.08262836682158L221.5939155440979,157.42211397607562L221.9725183253479,157.6825846917864L222.3511211065979,157.713249388482L222.7297238878479,157.823885970659L223.1083266690979,157.82938229044257L223.4869294503479,157.67899321397653L223.86553223159788,157.4478911046128L224.24413501284792,157.08236549584063L224.6227377940979,157.1276234122486L225.0013405753479,156.87200498650992L225.3799433565979,157.04327968422712L225.7585461378479,157.24503721466485L226.1371489190979,157.55736607219092L226.5157517003479,157.70467233378398L226.8943544815979,157.85776794934964L227.27295726284788,157.88899274664573L227.65156004409792,157.65068533393642L228.0301628253479,157.60871130975332L228.4087656065979,157.62503169595047L228.7873683878479,157.7606845955797L229.1659711690979,157.54804041489453L229.5445739503479,157.07719999334418L229.9231767315979,157.05950183496626L230.3017795128479,157.34915419669252L230.68038229409788,156.94963883319576L231.05898507534792,157.39107937101411L231.4375878565979,157.65446921212566L231.8161906378479,157.82452166001008L232.1947934190979,157.93750208234567L232.5733962003479,157.97573659626303L232.9519989815979,158.0151766522646L233.3306017628479,158.0624357652367L233.7092045440979,158.09757992166496L234.08780732534788,158.04499969624413L234.46641010659792,158.08549871240183L234.8450128878479,158.11128947417453L235.2236156690979,158.12976350589292L235.6022184503479,115.97735209566468L235.9808212315979,76.66599453604711L236.35942401284788,52.91562389024716L236.7380267940979,38.887349782623055L237.1166295753479,30.410717738526365L237.49523235659788,25.013929941876803L237.87383513784792,22.07041616980706L238.2524379190979,20.28151248882869L238.6310407003479,19.10976128768654L239.0096434815979,18.32192618913232L239.3882462628479,17.846208684846378L239.76684904409788,17.64718212801134L240.1454518253479,17.48579239334165L240.5240546065979,17.55352689248648L240.90265738784788,17.609857155690765L241.28126016909792,17.385293749534256L241.6598629503479,16.044085615668582L242.0384657315979,15.259193693527802L242.4170685128479,15.196828275843034L242.7956712940979,16.018549289797928L243.17427407534788,29.614078270749616L243.5528768565979,80.96563171691751L243.9314796378479,111.79982820221642L244.3100824190979,130.29477882885087L244.68868520034792,141.45071834571084L245.0672879815979,148.13683541773557L245.4458907628479,152.1280080051261L245.8244935440979,154.58344197849573L246.2030963253479,156.00695126208464L246.58169910659788,156.92406477048712L246.9603018878479,157.35811875872903L247.3389046690979,157.66178011734024L247.7175074503479,157.90002072892545L248.09611023159792,157.978114899178L248.4747130128479,158.1204246825263L248.8533157940979,158.1892167300918L249.2319185753479,158.20985596471812L249.6105213565979,158.2152348744665L249.98912413784788,158.12539105352403L250.3677269190979,158.1951218971513L250.7463297003479,158.2579034403156L251.1249324815979,158.22518189776855L251.50353526284792,158.28929075329447L251.8821380440979,158.30239295898343L252.2607408253479,158.34388730844736L252.6393436065979,158.3114917048093L253.0179463878479,158.3238586066265L253.39654916909788,158.34800753414925L253.7751519503479,158.35802283442862L254.1537547315979,158.35973003744795L254.5323575128479,158.39850378697355L254.91096029409792,158.40567695510435L255.2895630753479,158.33528503628918L255.6681658565979,158.38049305345163L256.0467686378479,158.3677731201064L256.42537141909787,158.4184186105351L256.8039742003479,158.47166880452332L257.1825769815979,158.4832191139839L257.56117976284787,158.49744747736364L257.9397825440979,158.43899174536807L258.3183853253479,158.3309837665331L258.6969881065979,158.27778250818355L259.0755908878479,158.29368286856445L259.4541936690979,158.32755034380426L259.83279645034787,158.3780049135847L260.2113992315979,158.42599167900488L260.5900020128479,158.38127897576592L260.96860479409787,158.3192594936995L261.3472075753479,157.81840938726177L261.7258103565979,157.90588705068137L262.1044131378479,158.13412038106597L262.4830159190979,157.42900318163439L262.8616187003479,157.2855343838182" fill="none"></path></g></g></g></g><g opacity="0.2"><g><g><g><path style="fill: none;" stroke="rgb(0, 153, 136)" stroke-width="2px" d="M28.8850998878479,-51.10829830592703L29.263702669097903,19.29937804828732L29.642305450347898,17.511881237414133L30.0209082315979,18.49448655908672L30.3995110128479,141.34813149012436L30.7781137940979,158.855761361886L31.1567165753479,158.82700559698677L31.5353193565979,158.900434442234L31.9139221378479,158.88006331514933L32.2925249190979,158.836739874691L32.6711277003479,158.78755393596194L33.049730481597905,158.74547891240152L33.4283332628479,158.70617908586428L33.806936044097895,158.64530189159095L34.1855388253479,158.56989919800506L34.5641416065979,158.42802673985307L34.9427443878479,158.30741954521264L35.3213471690979,158.27621755801337L35.6999499503479,158.1201991867678L36.0785527315979,158.1340583013848L36.457155512847905,157.99998844884496L36.8357582940979,157.98043554094338L37.2143610753479,157.79824259108753L37.5929638565979,157.7137973102409L37.9715666378479,157.6449909816158L38.3501694190979,157.46304265398996L38.728772200347905,157.43845390225007L39.1073749815979,157.28516855178103L39.485977762847895,157.16238506281852L39.864580544097905,157.07130124076457L40.2431833253479,156.9965480613756L40.6217861065979,156.94433386814407L41.0003888878479,156.82008264580153L41.3789916690979,156.70457034174458L41.7575944503479,156.7209178549082L42.136197231597905,156.59253336040356L42.5148000128479,156.4044947827756L42.8934027940979,156.3294126286635L43.2720055753479,156.3184805455572L43.6506083565979,156.22178728271183L44.0292111378479,156.17429682909415L44.4078139190979,156.12898266979855L44.7864167003479,156.0570046874327L45.165019481597895,156.04011731831324L45.543622262847904,155.83827867281343L45.9222250440979,155.95385002361556L46.3008278253479,155.9250099062232L46.6794306065979,155.98275762300236L47.05803338784791,156.04318774906224L47.4366361690979,156.1140607137684L47.8152389503479,156.0981180925717L48.1938417315979,156.17712263761314L48.572444512847895,156.18192229447075L48.951047294097904,156.15448242846398L49.3296500753479,156.23880118057096L49.7082528565979,156.21815169025902L50.0868556378479,156.26985976853192L50.46545841909791,156.38041214599434L50.8440612003479,156.2902899423618L51.2226639815979,156.3890498412882L51.6012667628479,156.36937040464701L51.979869544097895,156.36210765499072L52.358472325347904,156.45502192614504L52.7370751065979,156.5111585103059L53.1156778878479,156.46419104214547L53.4942806690979,156.6231533154004L53.872883450347906,156.5607577762512L54.2514862315979,156.5224026976367L54.630089012847904,156.53077890020197L55.0086917940979,156.5559075078977L55.387294575347894,156.53667513946993L55.765897356597904,156.49483630289023L56.1445001378479,156.4239295971868L56.5231029190979,156.43364700439244L56.9017057003479,156.44454534650149L57.280308481597906,155.71665081300645L57.6589112628479,156.43522439601347L58.037514044097904,156.47480258577798L58.4161168253479,156.46482368584375L58.7947196065979,156.32792802478488L59.173322387847904,156.34655305526232L59.5519251690979,156.5038873254003L59.9305279503479,155.57359741995097L60.3091307315979,156.028181440539L60.6877335128479,155.56686609100123L61.0663362940979,153.24648927544067L61.444939075347904,154.85089900003115L61.8235418565979,155.99212918498623L62.2021446378479,155.32927042367456L62.580747419097904,155.7503496340016L62.9593502003479,156.16282489003197L63.3379529815979,155.61734262287482L63.7165557628479,155.63466862495844L64.0951585440979,155.55299010588558L64.4737613253479,154.80900955195557L64.8523641065979,155.6351494341691L65.2309668878479,155.27536918058095L65.60956966909791,156.02978413790797L65.9881724503479,155.62846028146598L66.3667752315979,155.19031656178393L66.7453780128479,156.61260925376237L67.1239807940979,156.45249978660124L67.5025835753479,156.59015462009802L67.8811863565979,156.5442499933507L68.2597891378479,156.35109965464062L68.6383919190979,156.50656129943172L69.01699470034791,156.4218882668537L69.3955974815979,156.54683117963967L69.7742002628479,156.6412975366671L70.1528030440979,156.62796140750734L70.5314058253479,156.68457036562958L70.9100086065979,156.32449487831556L71.2886113878479,156.66582724166184L71.6672141690979,156.6925669819759L72.0458169503479,156.61098968589476L72.4244197315979,156.77596629190802L72.8030225128479,156.70232656542802L73.1816252940979,156.80070687813551L73.5602280753479,156.60481508339953L73.93883085659789,156.6955952364783L74.31743363784791,156.75723160318958L74.69603641909791,156.69955136840488L75.0746392003479,156.69142822331898L75.4532419815979,156.77695321607735L75.8318447628479,156.64487408237474L76.2104475440979,156.57617741199064L76.5890503253479,156.78077438401496L76.9676531065979,156.79062675520956L77.34625588784789,156.5854477509828L77.72485866909791,156.76823960353968L78.10346145034791,156.65226336077066L78.4820642315979,155.8061909844366L78.8606670128479,156.76903251697487L79.2392697940979,156.63341057856186L79.6178725753479,156.53805852035683L79.9964753565979,156.59707152453257L80.3750781378479,156.61955146394484L80.75368091909789,156.6378812606964L81.13228370034791,156.4157474053557L81.51088648159791,156.61660756193552L81.8894892628479,156.70000687186766L82.2680920440979,156.68755644388548L82.64669482534791,156.65557841374968L83.0252976065979,156.72205661356512L83.4039003878479,156.6828748805182L83.7825031690979,156.56079151724842L84.16110595034789,156.69584829395762L84.53970873159791,156.7677925353262L84.91831151284791,156.84893963369248L85.2969142940979,156.72477276384305L85.6755170753479,156.34592884681334L86.05411985659791,156.4247984278658L86.4327226378479,156.67505540440743L86.8113254190979,156.7218119913351L87.1899282003479,156.82245295085775L87.56853098159789,156.97290405755848L87.94713376284791,156.67271040509914L88.32573654409791,156.76002367071132L88.7043393253479,156.31631268648445L89.0829421065979,156.7904327444754L89.46154488784791,156.37029828207116L89.8401476690979,155.63062814053873L90.2187504503479,155.83002899898784L90.59735323159789,157.01893521304547L90.97595601284789,156.95529969224762L91.35455879409791,69.52686762121994L91.7331615753479,16.961025716446233L92.1117643565979,17.337946396633203L92.4903671378479,17.456124239472235L92.8689699190979,16.927217237210055L93.2475727003479,17.358494663953383L93.6261754815979,16.993535167288616L94.00477826284789,17.083387442943245L94.3833810440979,17.585402870403772L94.76198382534791,17.135753470662355L95.1405866065979,16.864560205332243L95.5191893878479,17.505301742952003L95.8977921690979,17.10496481067931L96.2763949503479,17.034817277413822L96.6549977315979,17.04708212991117L97.0336005128479,16.637449552898392L97.41220329409789,16.96534456409317L97.7908060753479,17.14764717219005L98.1694088565979,16.69674935555067L98.5480116378479,16.931131192890103L98.9266144190979,69.14616794934192L99.3052172003479,156.88769960427388L99.6838199815979,156.1219054956271L100.0624227628479,155.41844787938433L100.4410255440979,156.8052281717659L100.81962832534789,86.783860930221L101.1982311065979,15.16241124698191L101.5768338878479,16.852615892308677L101.9554366690979,16.290474007763446L102.3340394503479,16.818841154069748L102.7126422315979,17.20283057317884L103.0912450128479,17.324686184717205L103.4698477940979,16.90160782030362L103.8484505753479,16.965142118109725L104.22705335659789,17.276639004645045L104.6056561378479,16.671899111082173L104.9842589190979,15.373511796224554L105.3628617003479,17.40436554970347L105.7414644815979,157.12653525324922L106.12006726284791,157.2508117813397L106.4986700440979,157.22613867710672L106.8772728253479,157.24633266395585L107.2558756065979,157.2526084894428L107.63447838784789,157.27661520898027L108.0130811690979,157.27270968854955L108.3916839503479,157.2763790219996L108.77028673159789,157.27006102026607L109.1488895128479,157.31801541259583L109.52749229409791,157.27132630766263L109.9060950753479,157.10714261508454L110.2846978565979,157.2794578879979L110.6633006378479,157.2086355347876L111.04190341909789,157.26036891880838L111.4205062003479,157.3744894067291L111.7991089815979,157.24437568611583L112.17771176284789,157.1791121622011L112.5563145440979,157.31253250054405L112.93491732534791,157.3556450597696L113.3135201065979,157.17669124564898L113.6921228878479,157.3821570483523L114.0707256690979,156.80908308070073L114.44932845034789,157.02579307073484L114.8279312315979,157.176202001189L115.2065340128479,157.1542703529819L115.58513679409789,157.1211873051864L115.96373957534789,157.21414375258726L116.34234235659791,157.26354057254912L116.7209451378479,157.2078341861031L117.0995479190979,157.14667862860253L117.4781507003479,157.23986282773475L117.8567534815979,157.21062625362484L118.2353562628479,157.189082626886L118.6139590440979,157.1767840333914L118.99256182534789,157.204679402861L119.37116460659789,157.30722672872778L119.74976738784791,157.12739564867888L120.1283701690979,157.36094239633658L120.5069729503479,157.35692721766483L120.8855757315979,157.25729005281008L121.2641785128479,157.33852150366945L121.6427812940979,157.4399553766273L122.0213840753479,157.44349818133767L122.39998685659789,157.36781712452458L122.77858963784789,157.45594860931988L123.15719241909791,157.55911170838635L123.5357952003479,157.5385128295703L123.9143979815979,157.69874882547109L124.2930007628479,157.63057514054427L124.6716035440979,157.60540435660195L125.0502063253479,157.62101800307553L125.4288091065979,157.64882902005203L125.80741188784789,157.71479266965954L126.18601466909789,157.6457417188044L126.56461745034791,157.7309630425876L126.9432202315979,157.74687192278705L127.3218230128479,157.7559819920423L127.7004257940979,157.7924475748113L128.0790285753479,157.7727006561756L128.45763135659791,157.81046526733834L128.8362341378479,157.91017834943685L129.2148369190979,157.83239691554544L129.59343970034791,157.85193295294837L129.9720424815979,157.87731461812345L130.3506452628479,157.90362416072267L130.7292480440979,157.83710378466068L131.1078508253479,157.9677236202326L131.4864536065979,157.9990015246756L131.86505638784791,157.79486005611406L132.2436591690979,157.8999970035192L132.6222619503479,157.92115260878973L133.00086473159791,158.04417228473292L133.3794675128479,157.99859663270874L133.7580702940979,157.90983250421513L134.1366730753479,158.03593104615666L134.5152758565979,158.03198334947936L134.8938786378479,158.00938531657675L135.27248141909791,158.05117354166057L135.6510842003479,157.9739825752209L136.0296869815979,158.0200306012065L136.40828976284791,157.96375061780736L136.7868925440979,158.00756330272569L137.1654953253479,158.00705718776706L137.5440981065979,158.0398618723353L137.9227008878479,157.22430822800632L138.3013036690979,156.22425881075978L138.67990645034791,156.96726931101912L139.0585092315979,156.93239799036982L139.4371120128479,156.89864012262953L139.81571479409791,156.76564154675205L140.1943175753479,157.00628233907983L140.5729203565979,157.7078926357236L140.9515231378479,157.52456936246017L141.3301259190979,157.0597449492093L141.7087287003479,157.6451849923499L142.08733148159791,158.0913084578796L142.4659342628479,157.72493183933065L142.8445370440979,158.04062948002255L143.22313982534791,157.67352743003292L143.6017426065979,158.0239782978838L143.9803453878479,158.00580877086915L144.35894816909789,158.09573696376756L144.7375509503479,158.09846998454415L145.1161537315979,158.15680816877503L145.4947565128479,158.08324435953884L145.8733592940979,158.0875294661885L146.2519620753479,157.60960511075857L146.63056485659789,158.18572420341116L147.0091676378479,157.80236742800034L147.3877704190979,157.6738901457533L147.7663732003479,158.11448852298463L148.1449759815979,155.9837614176703L148.5235787628479,157.6013048254371L148.90218154409789,157.8982340364133L149.2807843253479,157.02242740626L149.6593871065979,158.198545782363L150.03798988784789,157.23322428652747L150.4165926690979,157.88243481445488L150.7951954503479,157.4954677523392L151.1737982315979,157.71983694874714L151.5524010128479,157.9387822798485L151.9310037940979,158.38043506324365L152.30960657534789,158.12112706419194L152.6882093565979,157.87923785496625L153.0668121378479,157.97569493083094L153.44541491909789,157.21141916706003L153.82401770034792,157.58212306850518L154.2026204815979,157.863362715764L154.5812232628479,157.44233411693287L154.9598260440979,156.8221577171319L155.3384288253479,157.2647468132005L155.71703160659789,158.4021389597194L156.0956343878479,158.29124917228455L156.4742371690979,156.95196776877L156.85283995034789,157.84011516866448L157.23144273159792,157.79365381546268L157.6100455128479,157.27376409471336L157.9886482940979,158.17809030278522L158.3672510753479,158.5382754483403L158.7458538565979,158.515930472917L159.12445663784789,158.31001760200024L159.5030594190979,157.49567019832264L159.8816622003479,157.98564852501724L160.26026498159789,157.28452747283345L160.63886776284792,158.34472865291264L161.0174705440979,158.34662658400748L161.3960733253479,157.77882464717496L161.7746761065979,157.83387308417477L162.1532788878479,156.91538409251072L162.53188166909788,158.22197046969805L162.9104844503479,157.71207651938155L163.2890872315979,158.4021389597194L163.66769001284788,158.08195376639432L164.04629279409792,158.25879876818735L164.4248955753479,158.33415085027738L164.8034983565979,158.1082970499908L165.1821011378479,158.1816331074956L165.5607039190979,157.50033489119133L165.93930670034788,158.17317255243725L166.3179094815979,158.4278158586203L166.69651226284788,158.49355175649643L167.07511504409788,158.4884231249157L167.45371782534792,158.2207051823015L167.8323206065979,158.45911063356198L168.2109233878479,157.75309713677817L168.5895261690979,158.12066312547987L168.9681289503479,158.5565630688453L169.34673173159788,158.48078078904044L169.7253345128479,157.30841609888057L170.10393729409788,157.27863123356545L170.48254007534788,157.4988755930606L170.86114285659792,158.09330761196614L171.2397456378479,158.09961717845036L171.6183484190979,158.4570102564837L171.9969512003479,158.37543296040258L172.3755539815979,158.43151049781827L172.75415676284788,158.2767995902158L173.1327595440979,157.8750877123055L173.51136232534787,158.0196847559848L173.88996510659788,158.28730991085658L174.26856788784792,157.29560295517805L174.6471706690979,157.0801413820419L175.0257734503479,157.79597350902304L175.4043762315979,156.99942448139043L175.7829790128479,157.22877891014085L176.16158179409788,157.52073132402393L176.5401845753479,157.51930576689048L176.91878735659787,157.9552731922504L177.2973901378479,158.23297847004815L177.67599291909792,157.69351053564932L178.0545957003479,157.106990780597L178.4331984815979,157.08382758599055L178.8118012628479,157.05607561575926L179.1904040440979,158.0216417338248L179.56900682534788,157.30125457221604L179.9476096065979,158.0408994080005L180.32621238784787,157.8720763283017L180.7048151690979,157.1731400056893L181.08341795034792,157.80609580819555L181.4620207315979,157.54908219695628L181.8406235128479,158.13603214972343L182.2192262940979,157.07340161784285L182.5978290753479,157.51410121806592L182.97643185659788,157.41076097876393L183.3550346378479,156.10374440386178L183.73363741909787,156.88505937123975L184.1122402003479,158.1814053557642L184.49084298159792,156.80485702079622L184.8694457628479,156.56764093968852L185.2480485440979,156.8999222805247L185.6266513253479,157.83282711326027L186.0052541065979,157.12694014521614L186.38385688784788,157.31176489285681L186.7624596690979,156.6981089407728L187.14106245034787,156.8933849623091L187.5196652315979,157.65533259727036L187.89826801284792,157.41276856809984L188.2768707940979,156.89438875697707L188.6554735753479,156.88135629679246L189.0340763565979,158.03425243154388L189.4126791378479,156.86105265170227L189.79128191909788,158.10578334569627L190.1698847003479,157.00520262716807L190.54848748159787,157.89090380476253L190.9270902628479,157.94431580339617L191.30569304409792,157.86444242767575L191.6842958253479,158.26107628550116L192.0628986065979,157.58445963256418L192.4415013878479,158.0637251926345L192.8201041690979,158.2574659987963L193.19870695034788,158.20926698423656L193.5773097315979,156.83188355958683L193.95591251284787,157.9874958446162L194.3345152940979,158.04353120578534L194.71311807534792,157.5934516083291L195.0917208565979,158.18286465389494L195.4703236378479,157.84823831375044L195.8489264190979,158.3233452959107L196.2275292003479,158.09743244887895L196.60613198159788,158.2158464786987L196.9847347628479,158.2650914641729L197.3633375440979,157.54115306260448L197.7419403253479,157.89324880407085L198.12054310659792,157.72835655055067L198.4991458878479,157.37359527030222L198.8777486690979,155.97393435222367L199.2563514503479,157.02741263860244L199.6349542315979,158.01645405549888L200.01355701284788,156.8763794996993L200.3921597940979,156.71028944077707L200.7707625753479,156.6911498600917L201.1493653565979,156.9785809803444L201.52796813784792,156.8023095755045L201.9065709190979,157.71472518766504L202.2851737003479,157.35728149813585L202.6637764815979,157.15400042500394L203.0423792628479,158.0725315929146L203.42098204409788,157.5189430511701L203.7995848253479,157.96219009668494L204.1781876065979,156.89211967491255L204.5567903878479,158.28408764562002L204.93539316909792,158.28418043336242L205.3139959503479,158.4271747796727L205.6925987315979,158.38035914599985L206.0712015128479,158.3452516383699L206.4498042940979,158.29724663454428L206.82840707534788,157.86353985599953L207.2070098565979,158.20188614108994L207.5856126378479,158.26801849568366L207.9642154190979,158.1570949672516L208.34281820034792,158.25897590842285L208.7214209815979,157.05318232524579L209.1000237628479,157.52428256398363L209.4786265440979,157.12487350913509L209.8572293253479,157.55003538012832L210.23583210659788,157.90529434008613L210.6144348878479,156.90746339340822L210.9930376690979,157.47113205807864L211.3716404503479,157.9759901645568L211.75024323159792,157.01647212024682L212.1288460128479,156.13361362166998L212.5074487940979,156.53095604043747L212.8860515753479,158.0040964152591L213.2646543565979,157.95647943290177L213.64325713784788,156.9009766866885L214.0218599190979,157.26318629207807L214.4004627003479,157.59672448506151L214.7790654815979,156.52039510830082L215.15766826284792,156.71350327076433L215.5362710440979,157.79757620639202L215.9148738253479,157.77138475728316L216.2934766065979,158.08254423384605L216.6720793878479,158.11313044784563L217.05068216909788,157.8532994633367L217.4292849503479,156.97789772515026L217.8078877315979,156.86849254159407L218.1864905128479,156.90392902394714L218.5650932940979,156.83988861118243L218.9436960753479,156.48931964984124L219.3222988565979,156.78687306926642L219.7009016378479,156.63084626277148L220.0795044190979,157.71529034936884L220.45810720034788,157.0676740835611L220.83670998159792,156.60945447052026L221.2153127628479,157.34997657223303L221.5939155440979,157.9313423899567L221.9725183253479,158.07329076535254L222.3511211065979,157.75924643352548L222.7297238878479,157.9898408439245L223.1083266690979,157.8376267701179L223.4869294503479,157.45340959927742L223.86553223159788,157.10123794056724L224.24413501284792,156.53407708268233L224.6227377940979,157.19551028686055L225.0013405753479,156.4885773479019L225.3799433565979,157.3001917308029L225.7585461378479,157.5476735103214L226.1371489190979,158.02585935848L226.5157517003479,157.92563172617358L226.8943544815979,158.08741137269817L227.27295726284788,157.93582994258986L227.65156004409792,157.29322421487248L228.0301628253479,157.54575027347866L228.4087656065979,157.64951227524617L228.7873683878479,157.96416394502356L229.1659711690979,157.2290741438667L229.5445739503479,156.37093936101874L229.9231767315979,157.03295459739937L230.3017795128479,157.7836327392819L230.68038229409788,156.3503657879506L231.05898507534792,158.05324017774163L231.4375878565979,158.049553973793L231.8161906378479,158.0796003318367L232.1947934190979,158.10697271584903L232.5733962003479,158.03308836713904L232.9519989815979,158.074336736267L233.3306017628479,158.1333244346948L233.7092045440979,158.15029615630738L234.08780732534788,157.9661293581129L234.46641010659792,158.14624723663837L234.8450128878479,158.1499756168336L235.2236156690979,158.15747455347056L235.6022184503479,52.7487349803223L235.9808212315979,17.69895819662069L236.35942401284788,17.290067921547234L236.7380267940979,17.844938621186884L237.1166295753479,17.695769672381363L237.49523235659788,16.918748246902396L237.87383513784792,17.655145511702358L238.2524379190979,17.59815696736113L238.6310407003479,17.352134485973334L239.0096434815979,17.14017354130101L239.3882462628479,17.132632428417498L239.76684904409788,17.348642292758807L240.1454518253479,17.24370779133714L240.5240546065979,17.655128641203742L240.90265738784788,17.69435255049721L241.28126016909792,17.048448640299473L241.6598629503479,14.03227341487L242.0384657315979,14.081855810316673L242.4170685128479,15.103280149315841L242.7956712940979,17.251130810730313L243.17427407534788,50.00737174217712L243.5528768565979,157.99296188616935L243.9314796378479,158.05112293016472L244.3100824190979,158.03720476880252L244.68868520034792,158.1846276210008L245.0672879815979,158.1660110257727L245.4458907628479,158.11476688621187L245.8244935440979,158.2665929385502L246.2030963253479,158.142215187468L246.58169910659788,158.29973503309085L246.9603018878479,158.00919974109192L247.3389046690979,158.11727215525707L247.7175074503479,158.2573816463032L248.09611023159792,158.09525615455686L248.4747130128479,158.33388935754874L248.8533157940979,158.29240480144009L249.2319185753479,158.24081481665755L249.6105213565979,158.2233032390891L249.98912413784788,157.9906253221104L250.3677269190979,158.2997181625922L250.7463297003479,158.35207575506203L251.1249324815979,158.17609958394794L251.50353526284792,158.38545403658335L251.8821380440979,158.32204626751692L252.2607408253479,158.4061288326432L252.6393436065979,158.2628982993522L253.0179463878479,158.34240895935227L253.39654916909788,158.38423092543334L253.7751519503479,158.37304578484773L254.1537547315979,158.36229084197694L254.5323575128479,158.45666441126195L254.91096029409792,158.41643670730056L255.2895630753479,158.2296971580664L255.6681658565979,158.4483050791953L256.0467686378479,158.34869322008853L256.42537141909787,158.49438684617817L256.8039742003479,158.5515440955056L257.1825769815979,158.50054457817478L257.56117976284787,158.51879002243322L257.9397825440979,158.35130814737477L258.3183853253479,158.16897179828064L258.6969881065979,158.1979806206592L259.0755908878479,158.31753340913585L259.4541936690979,158.378351556664L259.83279645034787,158.45368676825538L260.2113992315979,158.4979718271351L260.5900020128479,158.31420992090753L260.96860479409787,158.2262302705998L261.3472075753479,157.06713422760524L261.7258103565979,158.03710354581082L262.1044131378479,158.47647037664282L262.4830159190979,156.371327382487L262.8616187003479,157.07033118709387" fill="none"></path></g></g></g></g></g><g><g><circle r="4" cx="55.765897356597904" cy="156.5213931887051" style="stroke: none;" fill="rgb(0, 153, 136)" stroke="none" stroke-width="1px"></circle></g></g></g><g transform="translate(41, 176)" clip-path="url(#clip_1)"><clipPath id="clip_1"><rect width="288" height="23"></rect></clipPath><g><g><line x1="0" y1="0" x2="0" y2="5" style="visibility: inherit;" fill="rgb(0, 0, 0)" stroke="rgb(204, 204, 204)" stroke-width="1px"></line><line x1="28.8850998878479" y1="0" x2="28.8850998878479" y2="5" style="visibility: inherit;" fill="rgb(0, 0, 0)" stroke="rgb(204, 204, 204)" stroke-width="1px"></line><line x1="57.7701997756958" y1="0" x2="57.7701997756958" y2="5" style="visibility: inherit;" fill="rgb(0, 0, 0)" stroke="rgb(204, 204, 204)" stroke-width="1px"></line><line x1="86.6552996635437" y1="0" x2="86.6552996635437" y2="5" style="visibility: inherit;" fill="rgb(0, 0, 0)" stroke="rgb(204, 204, 204)" stroke-width="1px"></line><line x1="115.5403995513916" y1="0" x2="115.5403995513916" y2="5" style="visibility: inherit;" fill="rgb(0, 0, 0)" stroke="rgb(204, 204, 204)" stroke-width="1px"></line><line x1="144.4254994392395" y1="0" x2="144.4254994392395" y2="5" style="visibility: inherit;" fill="rgb(0, 0, 0)" stroke="rgb(204, 204, 204)" stroke-width="1px"></line><line x1="173.3105993270874" y1="0" x2="173.3105993270874" y2="5" style="visibility: inherit;" fill="rgb(0, 0, 0)" stroke="rgb(204, 204, 204)" stroke-width="1px"></line><line x1="202.1956992149353" y1="0" x2="202.1956992149353" y2="5" style="visibility: inherit;" fill="rgb(0, 0, 0)" stroke="rgb(204, 204, 204)" stroke-width="1px"></line><line x1="231.0807991027832" y1="0" x2="231.0807991027832" y2="5" style="visibility: inherit;" fill="rgb(0, 0, 0)" stroke="rgb(204, 204, 204)" stroke-width="1px"></line><line x1="259.9658989906311" y1="0" x2="259.9658989906311" y2="5" style="visibility: inherit;" fill="rgb(0, 0, 0)" stroke="rgb(204, 204, 204)" stroke-width="1px"></line><line x1="288.850998878479" y1="0" x2="288.850998878479" y2="5" style="visibility: inherit;" fill="rgb(0, 0, 0)" stroke="rgb(204, 204, 204)" stroke-width="1px"></line></g><g transform="translate(0, 8)"><text style="text-anchor: middle; visibility: hidden; font-family: Roboto, sans-serif; font-size: 12px; font-weight: 200;" x="0" y="0" dx="0em" dy="0.95em" fill="rgb(33, 33, 33)" stroke="none" stroke-width="1px">-10M</text><text style="text-anchor: middle; visibility: inherit; font-family: Roboto, sans-serif; font-size: 12px; font-weight: 200;" x="28.8850998878479" y="0" dx="0em" dy="0.95em" fill="rgb(33, 33, 33)" stroke="none" stroke-width="1px">0</text><text style="text-anchor: middle; visibility: hidden; font-family: Roboto, sans-serif; font-size: 12px; font-weight: 200;" x="57.7701997756958" y="0" dx="0em" dy="0.95em" fill="rgb(33, 33, 33)" stroke="none" stroke-width="1px">10M</text><text style="text-anchor: middle; visibility: inherit; font-family: Roboto, sans-serif; font-size: 12px; font-weight: 200;" x="86.6552996635437" y="0" dx="0em" dy="0.95em" fill="rgb(33, 33, 33)" stroke="none" stroke-width="1px">20M</text><text style="text-anchor: middle; visibility: hidden; font-family: Roboto, sans-serif; font-size: 12px; font-weight: 200;" x="115.5403995513916" y="0" dx="0em" dy="0.95em" fill="rgb(33, 33, 33)" stroke="none" stroke-width="1px">30M</text><text style="text-anchor: middle; visibility: inherit; font-family: Roboto, sans-serif; font-size: 12px; font-weight: 200;" x="144.4254994392395" y="0" dx="0em" dy="0.95em" fill="rgb(33, 33, 33)" stroke="none" stroke-width="1px">40M</text><text style="text-anchor: middle; visibility: hidden; font-family: Roboto, sans-serif; font-size: 12px; font-weight: 200;" x="173.3105993270874" y="0" dx="0em" dy="0.95em" fill="rgb(33, 33, 33)" stroke="none" stroke-width="1px">50M</text><text style="text-anchor: middle; visibility: inherit; font-family: Roboto, sans-serif; font-size: 12px; font-weight: 200;" x="202.1956992149353" y="0" dx="0em" dy="0.95em" fill="rgb(33, 33, 33)" stroke="none" stroke-width="1px">60M</text><text style="text-anchor: middle; visibility: hidden; font-family: Roboto, sans-serif; font-size: 12px; font-weight: 200;" x="231.0807991027832" y="0" dx="0em" dy="0.95em" fill="rgb(33, 33, 33)" stroke="none" stroke-width="1px">70M</text><text style="text-anchor: middle; visibility: inherit; font-family: Roboto, sans-serif; font-size: 12px; font-weight: 200;" x="259.9658989906311" y="0" dx="0em" dy="0.95em" fill="rgb(33, 33, 33)" stroke="none" stroke-width="1px">80M</text><text style="text-anchor: middle; visibility: hidden; font-family: Roboto, sans-serif; font-size: 12px; font-weight: 200;" x="288.850998878479" y="0" dx="0em" dy="0.95em" fill="rgb(33, 33, 33)" stroke="none" stroke-width="1px">90M</text></g><line x1="0" y1="0" x2="288.850998878479" y2="0" fill="rgb(0, 0, 0)" stroke="rgb(204, 204, 204)" stroke-width="1px"></line></g></g></g></g></svg>