<svg viewBox="0 0 330 200" xmlns="http://www.w3.org/2000/svg"><g><g><g><g><g><line x1="61.91500186920166" y1="176.89999961853027" x2="56.91500186920166" y2="176.89999961853027" style="visibility: inherit;" fill="rgb(0, 0, 0)" stroke="rgb(204, 204, 204)" stroke-width="1px"></line><line x1="61.91500186920166" y1="157.2444441053602" x2="56.91500186920166" y2="157.2444441053602" style="visibility: inherit;" fill="rgb(0, 0, 0)" stroke="rgb(204, 204, 204)" stroke-width="1px"></line><line x1="61.91500186920166" y1="137.58888859219016" x2="56.91500186920166" y2="137.58888859219016" style="visibility: inherit;" fill="rgb(0, 0, 0)" stroke="rgb(204, 204, 204)" stroke-width="1px"></line><line x1="61.91500186920166" y1="117.93333307902007" x2="56.91500186920166" y2="117.93333307902007" style="visibility: inherit;" fill="rgb(0, 0, 0)" stroke="rgb(204, 204, 204)" stroke-width="1px"></line><line x1="61.91500186920166" y1="98.27777756585004" x2="56.91500186920166" y2="98.27777756585004" style="visibility: inherit;" fill="rgb(0, 0, 0)" stroke="rgb(204, 204, 204)" stroke-width="1px"></line><line x1="61.91500186920166" y1="78.62222205267997" x2="56.91500186920166" y2="78.62222205267997" style="visibility: inherit;" fill="rgb(0, 0, 0)" stroke="rgb(204, 204, 204)" stroke-width="1px"></line><line x1="61.91500186920166" y1="58.9666665395099" x2="56.91500186920166" y2="58.9666665395099" style="visibility: inherit;" fill="rgb(0, 0, 0)" stroke="rgb(204, 204, 204)" stroke-width="1px"></line><line x1="61.91500186920166" y1="39.311111026339844" x2="56.91500186920166" y2="39.311111026339844" style="visibility: inherit;" fill="rgb(0, 0, 0)" stroke="rgb(204, 204, 204)" stroke-width="1px"></line><line x1="61.91500186920166" y1="19.655555513169784" x2="56.91500186920166" y2="19.655555513169784" style="visibility: inherit;" fill="rgb(0, 0, 0)" stroke="rgb(204, 204, 204)" stroke-width="1px"></line><line x1="61.91500186920166" y1="0" x2="56.91500186920166" y2="0" style="visibility: inherit;" fill="rgb(0, 0, 0)" stroke="rgb(204, 204, 204)" stroke-width="1px"></line></g><g transform="translate(51.91500186920166, 0)"><text style="text-anchor: end; visibility: hidden; font-family: Roboto, sans-serif; font-size: 12px; font-weight: 200;" x="0" y="176.89999961853027" dx="0em" dy="0.3em" fill="rgb(33, 33, 33)" stroke="none" stroke-width="1px">0.154</text><text style="text-anchor: end; visibility: inherit; font-family: Roboto, sans-serif; font-size: 12px; font-weight: 200;" x="0" y="157.2444441053602" dx="0em" dy="0.3em" fill="rgb(33, 33, 33)" stroke="none" stroke-width="1px">0.156</text><text style="text-anchor: end; visibility: hidden; font-family: Roboto, sans-serif; font-size: 12px; font-weight: 200;" x="0" y="137.58888859219016" dx="0em" dy="0.3em" fill="rgb(33, 33, 33)" stroke="none" stroke-width="1px">0.158</text><text style="text-anchor: end; visibility: inherit; font-family: Roboto, sans-serif; font-size: 12px; font-weight: 200;" x="0" y="117.93333307902007" dx="0em" dy="0.3em" fill="rgb(33, 33, 33)" stroke="none" stroke-width="1px">0.16</text><text style="text-anchor: end; visibility: hidden; font-family: Roboto, sans-serif; font-size: 12px; font-weight: 200;" x="0" y="98.27777756585004" dx="0em" dy="0.3em" fill="rgb(33, 33, 33)" stroke="none" stroke-width="1px">0.162</text><text style="text-anchor: end; visibility: inherit; font-family: Roboto, sans-serif; font-size: 12px; font-weight: 200;" x="0" y="78.62222205267997" dx="0em" dy="0.3em" fill="rgb(33, 33, 33)" stroke="none" stroke-width="1px">0.164</text><text style="text-anchor: end; visibility: hidden; font-family: Roboto, sans-serif; font-size: 12px; font-weight: 200;" x="0" y="58.9666665395099" dx="0em" dy="0.3em" fill="rgb(33, 33, 33)" stroke="none" stroke-width="1px">0.166</text><text style="text-anchor: end; visibility: inherit; font-family: Roboto, sans-serif; font-size: 12px; font-weight: 200;" x="0" y="39.311111026339844" dx="0em" dy="0.3em" fill="rgb(33, 33, 33)" stroke="none" stroke-width="1px">0.168</text><text style="text-anchor: end; visibility: hidden; font-family: Roboto, sans-serif; font-size: 12px; font-weight: 200;" x="0" y="19.655555513169784" dx="0em" dy="0.3em" fill="rgb(33, 33, 33)" stroke="none" stroke-width="1px">0.17</text><text style="text-anchor: end; visibility: hidden; font-family: Roboto, sans-serif; font-size: 12px; font-weight: 200;" x="0" y="0" dx="0em" dy="0.3em" fill="rgb(33, 33, 33)" stroke="none" stroke-width="1px">0.172</text></g><line x1="61.91500186920166" y1="0" x2="61.91500186920166" y2="176.89999961853027" fill="rgb(0, 0, 0)" stroke="rgb(204, 204, 204)" stroke-width="1px"></line></g></g><g transform="translate(61, 0)" clip-path="url(#clip_0)"><clipPath id="clip_0"><rect width="268" height="176"></rect></clipPath><g><g><g><line x1="0" y1="0" x2="0" y2="176.89999961853027" fill="rgb(0, 0, 0)" stroke="rgb(66, 66, 66)" stroke-width="1px" opacity="0.25"></line><line x1="26.808499813079834" y1="0" x2="26.808499813079834" y2="176.89999961853027" fill="rgb(0, 0, 0)" stroke="rgb(66, 66, 66)" stroke-width="1px" opacity="0.25"></line><line x1="53.61699962615967" y1="0" x2="53.61699962615967" y2="176.89999961853027" fill="rgb(0, 0, 0)" stroke="rgb(66, 66, 66)" stroke-width="1px" opacity="0.25"></line><line x1="80.4254994392395" y1="0" x2="80.4254994392395" y2="176.89999961853027" fill="rgb(0, 0, 0)" stroke="rgb(66, 66, 66)" stroke-width="1px" opacity="0.25"></line><line x1="107.23399925231934" y1="0" x2="107.23399925231934" y2="176.89999961853027" fill="rgb(0, 0, 0)" stroke="rgb(66, 66, 66)" stroke-width="1px" opacity="0.25"></line><line x1="134.04249906539917" y1="0" x2="134.04249906539917" y2="176.89999961853027" fill="rgb(0, 0, 0)" stroke="rgb(66, 66, 66)" stroke-width="1px" opacity="0.25"></line><line x1="160.850998878479" y1="0" x2="160.850998878479" y2="176.89999961853027" fill="rgb(0, 0, 0)" stroke="rgb(66, 66, 66)" stroke-width="1px" opacity="0.25"></line><line x1="187.65949869155884" y1="0" x2="187.65949869155884" y2="176.89999961853027" fill="rgb(0, 0, 0)" stroke="rgb(66, 66, 66)" stroke-width="1px" opacity="0.25"></line><line x1="214.46799850463867" y1="0" x2="214.46799850463867" y2="176.89999961853027" fill="rgb(0, 0, 0)" stroke="rgb(66, 66, 66)" stroke-width="1px" opacity="0.25"></line><line x1="241.2764983177185" y1="0" x2="241.2764983177185" y2="176.89999961853027" fill="rgb(0, 0, 0)" stroke="rgb(66, 66, 66)" stroke-width="1px" opacity="0.25"></line><line x1="268.08499813079834" y1="0" x2="268.08499813079834" y2="176.89999961853027" fill="rgb(0, 0, 0)" stroke="rgb(66, 66, 66)" stroke-width="1px" opacity="0.25"></line></g><g><line x1="0" y1="176.89999961853027" x2="268.08499813079834" y2="176.89999961853027" fill="rgb(0, 0, 0)" stroke="rgb(66, 66, 66)" stroke-width="1px" opacity="0.25"></line><line x1="0" y1="157.2444441053602" x2="268.08499813079834" y2="157.2444441053602" fill="rgb(0, 0, 0)" stroke="rgb(66, 66, 66)" stroke-width="1px" opacity="0.25"></line><line x1="0" y1="137.58888859219016" x2="268.08499813079834" y2="137.58888859219016" fill="rgb(0, 0, 0)" stroke="rgb(66, 66, 66)" stroke-width="1px" opacity="0.25"></line><line x1="0" y1="117.93333307902007" x2="268.08499813079834" y2="117.93333307902007" fill="rgb(0, 0, 0)" stroke="rgb(66, 66, 66)" stroke-width="1px" opacity="0.25"></line><line x1="0" y1="98.27777756585004" x2="268.08499813079834" y2="98.27777756585004" fill="rgb(0, 0, 0)" stroke="rgb(66, 66, 66)" stroke-width="1px" opacity="0.25"></line><line x1="0" y1="78.62222205267997" x2="268.08499813079834" y2="78.62222205267997" fill="rgb(0, 0, 0)" stroke="rgb(66, 66, 66)" stroke-width="1px" opacity="0.25"></line><line x1="0" y1="58.9666665395099" x2="268.08499813079834" y2="58.9666665395099" fill="rgb(0, 0, 0)" stroke="rgb(66, 66, 66)" stroke-width="1px" opacity="0.25"></line><line x1="0" y1="39.311111026339844" x2="268.08499813079834" y2="39.311111026339844" fill="rgb(0, 0, 0)" stroke="rgb(66, 66, 66)" stroke-width="1px" opacity="0.25"></line><line x1="0" y1="19.655555513169784" x2="268.08499813079834" y2="19.655555513169784" fill="rgb(0, 0, 0)" stroke="rgb(66, 66, 66)" stroke-width="1px" opacity="0.25"></line><line x1="0" y1="0" x2="268.08499813079834" y2="0" fill="rgb(0, 0, 0)" stroke="rgb(66, 66, 66)" stroke-width="1px" opacity="0.25"></line></g></g></g><g><g><line x1="0" y1="1690.3777741326235" x2="268.08499813079834" y2="1690.3777741326235" fill="rgb(0, 0, 0)" stroke="rgb(153, 153, 153)" stroke-width="1.5px"></line></g></g><g><g><line x1="26.808499813079834" y1="0" x2="26.808499813079834" y2="176.89999961853027" fill="rgb(0, 0, 0)" stroke="rgb(153, 153, 153)" stroke-width="1.5px"></line></g></g><g><g><g><g><g><path style="fill: none;" stroke="rgb(0, 153, 136)" stroke-width="2px" d="M26.808499813079834,139.48455154222086L27.159884181829835,148.9800648284683L27.511268550579832,151.51506286740712L27.862652919329832,157.72026494116795L28.214037288079833,158.08343398256432L28.565421656829834,155.9838467184868L28.916806025579834,155.12318541868441L29.268190394329835,146.17276564351008L29.619574763079836,148.2458606376552L29.970959131829837,143.28956001111396L30.322343500579834,143.703542381265L30.673727869329834,145.2058660166933L31.02511223807983,143.86408468983035L31.376496606829832,145.92380645307023L31.727880975579833,143.47348112220922L32.07926534432983,144.5446875213295L32.43064971307983,143.8532854894652L32.782034081829835,144.73861685955865L33.13341845057983,145.89681654216633L33.484802819329836,145.79312504985964L33.83618718807983,145.1113767907687L34.18757155682983,145.10629744091378L34.538955925579835,145.85493024858678L34.89034029432983,150.4373978965976L35.241724663079836,151.10616384334105L35.59310903182983,147.78372189699724L35.94449340057984,147.13334087121535L36.295877769329834,147.01772707795752L36.64726213807983,144.17409805204113L36.998646506829836,145.69581075677792L37.35003087557983,144.67247956576605L37.70141524432984,147.00238318166484L38.052799613079834,146.92415653271533L38.40418398182984,146.56043006255751L38.755568350579836,151.68264434235982L39.10695271932984,151.0454003689509L39.45833708807983,151.7643226558996L39.809721456829834,153.01389521137045L40.16110582557983,148.0201711984131L40.51249019432983,144.3228738541329L40.86387456307983,144.48229850825112L41.21525893182983,147.36533457411488L41.566643300579834,148.62278225122495L41.91802766932983,151.09616721703608L42.269412038079835,151.76853976251664L42.62079640682983,154.35481836144947L42.97218077557984,156.42207297858425L43.323565144329834,154.6604142441613L43.67494951307984,149.37079834948975L44.026333881829835,140.45824753182788L44.37771825057983,145.92189490752216L44.729102619329836,148.99576284962404L45.080486988079834,150.90569110951608L45.43187135682984,149.464838276917L45.783255725579835,149.26202502326518L46.13464009432984,151.6071788694121L46.486024463079836,151.33846831409534L46.83740883182984,148.87254441931285L47.18879320057983,151.52157599493404L47.54017756932983,153.10630869069024L47.89156193807983,153.17050988062576L48.24294630682983,153.42084907727113L48.59433067557983,153.20739962498683L48.94571504432983,153.2995836856105L49.297099413079835,152.65758017899003L49.64848378182983,151.93121910290682L49.999868150579836,151.7559579359566L50.35125251932983,154.3463320154289L50.70263688807984,156.6728503999775L51.054021256829834,157.1858720028821L51.40540562557983,154.96123567165145L51.756789994329836,157.9724817676277L52.10817436307983,156.70317517667903L52.45955873182984,157.09815762756156L52.810943100579834,157.522597082767L53.16232746932984,152.82951841036504L53.513711838079836,154.22848411236544L53.86509620682984,155.4783790000062L54.21648057557984,153.87206962521233L54.567864944329834,148.92965807558653L54.91924931307983,151.85482691425676L55.27063368182983,153.13942875592184L55.62201805057983,103.70264871535755L55.97340241932983,91.52122901198616L56.324786788079834,98.05087230867491L56.67617115682983,-19.27305455187403L57.027555525579835,40.69655567462002L57.37893989432983,68.11935551020672L57.73032426307984,7.607946203409069L58.081708631829834,6.688845976403192L58.43309300057983,11.274452670247626L58.784477369329835,50.058389990912836L59.13586173807983,48.803733638217736L59.487246106829836,54.22741682167737L59.83863047557983,31.18333113162303L60.19001484432984,73.87961084689094L60.541399213079835,77.29955149071073L60.89278358182984,44.91601644208438L61.244167950579836,84.07245087349223L61.59555231932984,108.57479244989457L61.94693668807983,124.2659333148253L62.29832105682983,135.03681847291537L62.64970542557983,139.00251577188405L63.00108979432983,144.257416916196L63.35247416307983,128.91935386441185L63.70385853182983,129.74977646312828L64.05524290057984,140.1931889593474L64.40662726932983,145.13771406511262L64.75801163807984,148.1756601227488L65.10939600682984,149.82784827127497L65.46078037557984,149.1930325433258L65.81216474432983,146.3284308095981L66.16354911307982,145.9377529107917L66.51493348182983,148.54696243904388L66.86631785057983,150.8632253446231L67.21770221932982,151.67563713516813L67.56908658807984,153.0159816397712L67.92047095682983,139.76518849152092L68.27185532557984,144.26888958444925L68.62323969432983,149.53542603057502L68.97462406307984,150.0869813614827L69.32600843182983,151.00182126229333L69.67739280057984,152.45142237914843L70.02877716932983,151.24611171889725L70.38016153807983,136.92717793419067L70.73154590682984,140.38135367865144L71.08293027557984,140.0854285689456L71.43431464432983,146.3270982283546L71.78569901307984,148.38973641153223L72.13708338182984,149.79508705772378L72.48846775057984,150.7891946831029L72.83985211932983,140.44232915294103L73.19123648807982,143.83258630018236L73.54262085682983,145.38874312760322L73.89400522557983,147.8070411026903L74.24538959432984,149.50076761789796L74.59677396307983,150.0849313123443L74.94815833182983,151.17304521871225L75.29954270057983,139.32393683456235L75.65092706932984,144.23282757157895L76.00231143807983,147.4405919923356L76.35369580682983,148.03716750335917L76.70508017557984,147.4878548841413L77.05646454432984,148.5810126963019L77.40784891307983,134.08813687200134L77.75923328182984,140.36872790311605L78.11061765057983,146.38273333820425L78.46200201932984,148.55995596625522L78.81338638807983,149.22146159580012L79.16477075682984,151.7065578028185L79.51615512557983,152.31191434943534L79.86753949432985,136.3829128592841L80.21892386307984,142.42416244001288L80.57030823182983,146.76590837983622L80.92169260057983,140.87384813836374L81.27307696932982,124.4889155439354L81.62446133807984,133.74317617707325L81.97584570682983,142.79729827070474L82.32723007557983,143.7019171470331L82.67861444432982,145.90643258698353L83.02999881307984,108.1298867972946L83.38138318182983,69.24297489953706L83.73276755057984,98.90012667903873L84.08415191932983,120.32532394991554L84.43553628807983,130.5411465282025L84.78692065682984,139.90415231083696L85.13830502557984,145.67191576815858L85.48968939432983,149.2038048367284L85.84107376307983,150.66780058142717L86.19245813182984,151.36437154311102L86.54384250057984,153.4796737313629L86.89522686932983,153.88002436534043L87.24661123807984,153.72658977790738L87.59799560682984,154.19781622939914L87.94937997557984,150.76716790386124L88.30076434432983,153.13259854689375L88.65214871307982,154.89863940436396L89.00353308182983,147.33181562405315L89.35491745057983,149.3224788219811L89.70630181932984,150.11104752391427L90.05768618807983,148.52317616356055L90.40907055682983,152.69252417862214L90.76045492557984,151.6025912812655L91.11183929432984,150.41627358637143L91.46322366307983,152.04667052796245L91.81460803182983,152.23105800781406L92.16599240057982,155.15718926555957L92.51737676932984,80.68352000191072L92.86876113807983,106.98756489047435L93.22014550682984,127.92674090205155L93.57152987557983,138.47609642365344L93.92291424432985,144.986598971827L94.27429861307984,148.6145372734873L94.62568298182984,151.23368221831885L94.97706735057983,149.47699470729387L95.32845171932982,151.55058519499914L95.67983608807984,153.397391188356L96.03122045682983,152.5344381955013L96.38260482557983,155.07397564985536L96.73398919432982,155.25930523188057L97.08537356307984,154.62538929200818L97.43675793182983,155.5018918753378L97.78814230057984,154.5703697944793L98.13952666932983,156.2796013605447L98.49091103807984,153.61706185168205L98.84229540682983,156.17717880647976L99.19367977557984,154.31384350725764L99.54506414432983,156.46778181024533L99.89644851307983,155.32891849078936L100.24783288182984,156.21268237100787L100.59921725057984,156.7157604513609L100.95060161932983,157.15069678869264L101.30198598807984,158.50261750190649L101.65337035682984,157.24994559855114L102.00475472557984,156.35119421856731L102.35613909432983,152.61404665200305L102.70752346307982,153.43000461205494L103.05890783182983,154.54191333721056L103.41029220057983,155.41056730583063L103.76167656932984,135.21478738060296L104.11306093807983,144.50035867578023L104.46444530682983,151.45976858941307L104.81582967557983,152.91832700971327L105.16721404432984,154.2648987733535L105.51859841307983,149.30313130320823L105.86998278182983,149.4986618117637L106.22136715057982,150.93750250886328L106.57275151932984,153.48691953928432L106.92413588807983,153.98840659158844L107.27552025682984,155.93510968842688L107.62690462557983,153.17886611733618L107.97828899432984,153.25059708362548L108.32967336307983,151.8587060307036L108.68105773182984,153.2232969691242L109.03244210057983,154.36259100597266L109.38382646932985,155.09209267432738L109.73521083807984,153.31038585677524L110.08659520682984,155.06154678569553L110.43797957557983,153.98843501666792L110.78936394432982,154.8263600841157L111.14074831307984,154.26721096139423L111.49213268182983,152.52959560238446L111.84351705057983,153.59677596450803L112.19490141932982,151.60341189708322L112.54628578807984,153.95957066623984L112.89767015682983,155.09677720033673L113.24905452557984,153.53907380391587L113.60043889432983,152.26610454372258L113.95182326307983,148.87427420244813L114.30320763182984,147.86077841416832L114.65459200057984,149.7467029873154L115.00597636932983,152.30850111428225L115.35736073807983,155.66759384151388L115.70874510682984,155.19277643143107L116.06012947557984,151.05391430044128L116.41151384432983,151.2361358039411L116.76289821307984,151.1074072255023L117.11428258182983,153.21302514999206L117.46566695057984,150.00102752054454L117.81705131932983,152.95127754414779L118.16843568807982,153.55830040339464L118.51982005682983,153.52043390181234L118.87120442557983,150.13767302554464L119.22258879432984,150.1081078362773L119.57397316307983,147.3807791942247L119.92535753182983,147.50828636479486L120.27674190057984,150.98888238885428L120.62812626932984,152.0050260909429L120.97951063807983,153.02991402825356L121.33089500682983,152.81350610860153L121.68227937557982,152.88610734026054L122.03366374432984,151.38039395590823L122.38504811307983,151.1808406177556L122.73643248182984,154.04250062113684L123.08781685057983,150.45466205683243L123.43920121932985,146.2521933358171L123.79058558807984,148.46851046589566L124.14196995682984,148.91634856604193L124.49335432557983,151.68657147163208L124.84473869432982,150.60350018940466L125.19612306307984,150.7643786037922L125.54750743182983,143.90369947117256L125.89889180057983,146.1334112228093L126.25027616932982,148.85180741093046L126.60166053807984,149.39376071283505L126.95304490682983,148.87915676262912L127.30442927557984,148.97060010978896L127.65581364432983,150.94776571093803L128.00719801307983,39.3735267897342L128.35858238182985,57.42724173845486L128.70996675057984,68.31664295301357L129.06135111932983,59.11854371780921L129.41273548807982,-14.35749601785427L129.76411985682984,-4.511884768098771L130.11550422557983,38.4505949525211L130.46688859432984,8.63416632966254L130.81827296307983,61.70443810499935L131.16965733182985,35.698598649240964L131.52104170057984,77.0873883167001L131.87242606932983,105.9939502841865L132.22381043807982,119.76602800667595L132.5751948068298,132.36874178542064L132.92657917557983,113.50273396311086L133.27796354432982,124.14945572399098L133.62934791307984,136.94359200682385L133.98073228182983,138.70415226014677L134.33211665057985,142.81217416266693L134.68350101932984,141.72106109487396L135.03488538807983,135.27325147778396L135.38626975682982,123.88032332263231L135.73765412557984,135.0491374576783L136.08903849432983,143.67460003140587L136.44042286307982,100.63118076749215L136.79180723182984,117.9120649351777L137.14319160057985,129.3724915965269L137.49457596932984,56.27508613113569L137.84596033807983,73.10357539078038L138.19734470682982,6.690145951256746L138.54872907557984,18.36740282537891L138.90011344432983,69.2211201153565L139.25149781307982,67.80593184939062L139.6028821818298,84.20409197985644L139.95426655057986,103.08651256883344L140.30565091932985,38.68804561293181L140.65703528807984,83.05369315380385L141.00841965682983,62.23417680642949L141.35980402557982,96.60121416732996L141.71118839432984,66.79832795592952L142.06257276307983,97.69670574134427L142.41395713182982,116.83182336386315L142.76534150057984,114.32162708115197L143.11672586932985,73.15577880368495L143.46811023807984,50.02335170909663L143.81949460682983,41.69241499875525L144.17087897557983,77.70509786990557L144.52226334432984,104.72626315004105L144.87364771307983,62.32147761006657L145.22503208182982,52.27106177775803L145.5764164505798,91.051668365112L145.92780081932986,95.63970409462999L146.27918518807985,70.1166325938782L146.63056955682984,101.85086134727541L146.98195392557983,118.49766229500028L147.33333829432985,132.37626729558733L147.68472266307984,123.14686473117816L148.03610703182983,86.93022145052288L148.38749140057982,24.860998779838027L148.7388757693298,57.15216249317068L149.09026013807986,93.09743936653544L149.44164450682985,85.35305138675616L149.79302887557984,110.74434139330643L150.14441324432983,94.26257799004445L150.49579761307984,81.89636840059327L150.84718198182983,107.02077173645904L151.19856635057982,109.62624075732589L151.54995071932981,86.80696541310547L151.90133508807983,104.71478137334283L152.25271945682985,115.33950295929249L152.60410382557984,116.35795259874345L152.95548819432983,115.60719824374257L153.30687256307985,118.91230607372712L153.65825693182984,123.86457852898675L154.00964130057983,131.9645735828799L154.36102566932982,138.44038948312368L154.7124100380798,140.2629919419096L155.06379440682983,131.33828898616835L155.41517877557985,111.62948463615321L155.76656314432984,126.69109057815695L156.11794751307983,73.39718523887082L156.46933188182985,100.99713341497251L156.82071625057984,117.32466433963545L157.17210061932983,62.01417971689186L157.52348498807982,38.55748039785732L157.87486935682983,4.743102920199135L158.22625372557982,51.33007021656426L158.57763809432984,87.31541968767667L158.92902246307983,57.2772800910126L159.28040683182985,90.73003662491122L159.63179120057984,111.35279350019813L159.98317556932983,123.1744074204991L160.33455993807982,101.31385113961298L160.68594430682984,53.97945991838745L161.03732867557983,88.84694401352087L161.38871304432982,100.30402199422936L161.74009741307984,67.7584742551993L162.09148178182986,32.56969939209485L162.44286615057985,23.97246995105373L162.79425051932984,9.504428797491874L163.14563488807983,-4.172875236185938L163.49701925682982,42.67574009289395L163.84840362557983,72.66503263664303L164.19978799432982,13.821922194245861L164.55117236307984,1.597709791895769L164.90255673182983,54.62020291633554L165.25394110057985,35.82876367792252L165.60532546932984,12.771731348060184L165.95670983807983,1.6958384746511286L166.30809420682982,45.34500813904337L166.65947857557984,35.36790989427691L167.01086294432983,8.872748124007394L167.36224731307982,0.5795596902308452L167.71363168182984,46.20108374365479L168.06501605057986,23.920371734863547L168.41640041932985,13.20061281306141L168.76778478807984,8.495171818846893L169.11916915682983,0.4795426467909004L169.47055352557985,-3.329789188195615L170.17332226307983,-1.9700238098972467L170.52470663182982,26.820471602875045L170.87609100057983,40.73191612544974L171.22747536932985,23.196626204845348L171.57885973807984,27.633961029633404L171.93024410682983,29.46970749208476L172.28162847557982,47.92808670063667L172.63301284432984,32.86602561245923L172.98439721307983,18.44428814973267L173.33578158182982,20.335307310125874L173.6871659505798,15.174411071016014L174.03855031932986,6.512483282517356L174.38993468807985,-20.584455100287542L175.09270342557983,-0.6027257578272939L175.44408779432985,50.7496845449836L175.79547216307984,77.19260883379415L176.14685653182983,59.931264865201264L176.49824090057982,37.433322976576186L176.8496252693298,75.76166685656585L177.20100963807985,87.78066483200513L177.55239400682984,103.80783639658446L177.90377837557983,111.16817876975534L178.25516274432982,80.83209428463698L178.60654711307984,102.58072157765474L178.95793148182983,113.42079988405767L179.30931585057982,113.53655139013858L179.6607002193298,75.81233638339724L180.01208458807983,89.5131124089629L180.36346895682985,109.9018937795495L180.71485332557984,82.42200884842808L181.06623769432983,82.96297174765328L181.41762206307985,105.64377190958051L181.76900643182984,119.59153647900072L182.12039080057983,119.37123692279509L182.47177516932982,129.43821085529683L182.82315953807984,133.1840074023628L183.17454390682985,94.11750870799553L183.52592827557984,108.76744637755347L183.87731264432983,64.11448109821582L184.22869701307985,70.97466042958544L184.58008138182984,70.01462244337925L184.93146575057983,86.81052698151093L185.28285011932982,105.55200799611804L185.6342344880798,65.78425777513505L185.98561885682983,32.68982139740188L186.33700322557985,12.027124636654749L186.68838759432984,9.297239539875163L187.03977196307983,2.0920439369279786L187.39115633182985,46.92487330669023L187.74254070057984,74.3213133879392L188.09392506932983,93.37879097253666L188.44530943807982,107.77217553140707L188.79669380682984,84.66448861175918L189.14807817557983,100.97838674289551L189.49946254432984,95.71449185208834L189.85084691307983,109.22889380461778L190.20223128182985,120.0133835073863L190.55361565057984,130.0803052850577L190.90500001932983,131.3292367433403L191.25638438807982,133.56132499709747L191.60776875682984,133.3100648293753L191.95915312557983,133.51827544939644L192.31053749432982,134.0321605396121L192.66192186307984,132.0667232796207L193.01330623182983,127.19750797527755L193.36469060057985,123.49618685641917L193.71607496932984,74.31917302374706L194.06745933807983,57.59705367905215L194.41884370682982,78.54645278942051L194.77022807557984,46.963185615115236L195.12161244432983,57.96492111199879L195.47299681307982,84.10387431291625L195.82438118182984,44.9262592183199L196.17576555057985,28.007619873002554L196.52714991932984,-6.673268728898991L196.87853428807983,6.655652069243742L197.22991865682982,5.339552059498124L197.58130302557984,51.683253450526806L197.93268739432983,70.62590175973585L198.28407176307982,71.19530887784242L198.6354561318298,31.986880881901307L198.98684050057986,11.51538433470987L199.33822486932985,-19.079502596610673L199.68960923807984,35.030792070444484L200.04099360682983,16.949206002927085L200.39237797557982,61.19836560817876L200.74376234432984,81.17680215850993L201.09514671307983,99.62432781056953L201.44653108182982,90.3638923636848L201.7979154505798,54.088327606838824L202.14929981932985,37.31759359442528L202.50068418807984,19.84994154234874L202.85206855682983,26.886551379082103L203.20345292557982,55.58573628012406L203.55483729432984,28.480823844244714L203.90622166307983,39.640871890903384L204.25760603182982,21.22891252146163L204.6089904005798,11.235205813676052L204.96037476932986,28.755519616541694L205.31175913807985,56.9779824504569L205.66314350682984,87.86617426001624L206.01452787557983,100.68655106274846L206.36591224432985,109.99459601229577L206.71729661307984,122.47570791825675L207.06868098182983,111.90825528791038L207.42006535057982,121.07458369203106L207.7714497193298,55.02190983387523L208.12283408807986,29.810832840112315L208.47421845682985,7.422374237503308L208.82560282557984,-2.098619743872389L209.17698719432983,38.87413980080211L209.52837156307984,72.40759504596622L209.87975593182983,93.03659490146022L210.23114030057982,111.66357730385678L210.5825246693298,112.83931006282639L210.93390903807983,114.33766315338764L211.28529340682985,108.97209651984996L211.63667777557984,115.02309553188265L211.98806214432983,118.30128896791135L212.33944651307985,106.80648438001631L212.69083088182984,61.161815294887774L213.04221525057983,38.40784021507963L213.39359961932982,59.90795079349905L213.74498398807984,22.403653511077508L214.09636835682983,25.383026058490447L214.44775272557985,63.686843851761004L214.79913709432984,87.36926022048854L215.15052146307983,105.1543184994214L215.50190583182984,114.62661081477746L215.85329020057983,120.58366318161818L216.20467456932982,122.87479945661471L216.55605893807981,129.74551477231512L216.90744330682983,128.14228417980473L217.25882767557982,132.1936956644602L217.61021204432984,130.09762542532613L217.96159641307983,132.6545904700039L218.31298078182985,132.53077438235061L218.66436515057984,134.36847457345456L219.01574951932983,136.55830459923823L219.36713388807982,139.8366784541138L219.71851825682984,141.21698431500286L220.06990262557983,144.09868241366289L220.42128699432982,144.9035728484056L220.77267136307984,144.03499271973712L221.12405573182986,146.1793834246295L221.47544010057985,148.3460955256194L221.82682446932984,146.46134754656677L222.17820883807983,145.14867227399913L222.52959320682982,146.14184196488128L222.88097757557983,146.59809354082694L223.23236194432982,150.58147968313395L223.5837463130798,150.0172996100233L223.93513068182983,147.89145596227047L224.28651505057985,80.4320464341135L224.63789941932984,64.93879742492318L224.98928378807983,94.72898157414095L225.34066815682982,68.42862867490747L225.69205252557984,96.76945707849877L226.04343689432983,83.72665882700196L226.39482126307982,108.54726920728909L226.74620563182984,112.66875931597433L227.09759000057986,128.0916355725321L227.44897436932985,135.9479216907065L227.80035873807984,138.36918004902276L228.15174310682983,134.76640897729882L228.50312747557984,138.55253434803615L228.85451184432983,142.23758245493636L229.20589621307982,125.11876889927944L229.55728058182981,132.08725585654412L229.90866495057986,136.1549407901738L230.26004931932985,143.22556637185073L230.61143368807984,144.46405571642276L230.96281805682983,145.35429756113655L231.31420242557982,148.47150345680126L231.66558679432984,122.98912523026694L232.01697116307983,131.02784888728402L232.36835553182982,138.99274482466564L232.7197399005798,143.86353287958568L233.07112426932986,140.63014821577556L233.42250863807985,138.22992770510956L233.77389300682984,142.60074492366837L234.12527737557983,136.77767619522285L234.47666174432985,133.5097121896903L234.82804611307984,139.4565113899311L235.17943048182983,142.37976296278984L235.53081485057982,142.44760129434377L235.88219921932983,142.66169552910156L236.23358358807985,144.09386671337822L236.58496795682984,145.17342315593868L236.93635232557983,139.3035210542878L237.28773669432982,139.18754601486177L237.63912106307984,136.9426039190401L237.99050543182983,137.1477245346651L238.34188980057982,138.87911777256062L238.6932741693298,138.18310410712107L239.04465853807983,142.02810855939128L239.39604290682985,133.16590389382935L239.74742727557984,134.38027581052995L240.09881164432983,139.14375988070302L240.45019601307985,143.72264118213292L240.80158038182984,144.5364233710573L241.15296475057983,145.43145915115903L241.50434911932982,143.74532380096176L241.85573348807984,119.0746427749527L242.20711785682983,107.81128987003133L242.55850222557984,49.71353907407167L242.90988659432983,89.11694902561699L243.26127096307985,87.58727380431718L243.61265533182984,38.4085956168348L243.96403970057983,34.10685089381402" fill="none"></path></g></g></g></g><g opacity="0.2"><g><g><g><path style="fill: none;" stroke="rgb(0, 153, 136)" stroke-width="2px" d="M26.808499813079834,139.48455154222086L27.159884181829835,154.67737280021677L27.511268550579832,153.94866098478852L27.862652919329832,165.01758257991077L28.214037288079833,158.55758748301153L28.565421656829834,153.07936168085322L28.916806025579834,153.89242598938569L29.268190394329835,133.12296768727654L29.619574763079836,151.30327307604742L29.970959131829837,135.9300312078008L30.322343500579834,144.3207611468636L30.673727869329834,147.45117589095406L31.02511223807983,141.85579384837322L31.376496606829832,149.00935388857394L31.727880975579833,139.80087339136173L32.07926534432983,146.15074162226378L32.43064971307983,142.8164750198381L32.782034081829835,146.06638912915955L33.13341845057983,147.63393962601324L33.484802819329836,145.63759728921303L33.83618718807983,144.08879179082695L34.18757155682983,145.0986785832693L34.538955925579835,146.97786467964698L34.89034029432983,157.31104508491563L35.241724663079836,152.10930801015454L35.59310903182983,142.80007314617893L35.94449340057984,146.15777099668915L36.295877769329834,146.84430656556526L36.64726213807983,139.90865713255047L36.998646506829836,147.97837897285552L37.35003087557983,143.13748311859587L37.70141524432984,150.49723814194027L38.052799613079834,146.80681656863004L38.40418398182984,146.01484038337364L38.755568350579836,159.3659655419271L39.10695271932984,150.08953442526982L39.45833708807983,152.8427060751997L39.809721456829834,154.88825403297736L40.16110582557983,140.52958520679L40.51249019432983,138.7769278500687L40.86387456307983,144.7214354891087L41.21525893182983,151.6898886694418L41.566643300579834,150.50895376598254L41.91802766932983,154.80624466468157L42.269412038079835,152.77709858056306L42.62079640682983,158.23423625944528L42.97218077557984,159.5229549040933L43.323565144329834,152.01792614262496L43.67494951307984,141.4363745076605L44.026333881829835,127.08942130551537L44.37771825057983,154.11736597099699L44.729102619329836,153.6065647627547L45.080486988079834,153.77058349934626L45.43187135682984,147.30355902802165L45.783255725579835,148.957805142788L46.13464009432984,155.1249096386309L46.486024463079836,150.9354024811206L46.83740883182984,145.17365857713975L47.18879320057983,155.49512335836613L47.54017756932983,155.4834077343239L47.89156193807983,153.2668116655293L48.24294630682983,153.7963578722392L48.59433067557983,152.88722544656025L48.94571504432983,153.43785977654622L49.297099413079835,151.6945749190587L49.64848378182983,150.84167748878258L49.999868150579836,151.49306618553194L50.35125251932983,158.23189313463683L50.70263688807984,160.16262797680042L51.054021256829834,157.95540440723963L51.40540562557983,151.6242811748052L51.756789994329836,162.4893509115922L52.10817436307983,154.7992152902562L52.45955873182984,157.6906313038847L52.810943100579834,158.15925626557487L53.16232746932984,145.78990040176234L53.513711838079836,156.32693266536623L53.86509620682984,157.35322133146775L54.21648057557984,151.46260556302207L54.567864944329834,141.5160407511478L54.91924931307983,156.242580172262L55.27063368182983,155.06633151841962L55.62201805057983,29.547478654511078L55.97340241932983,73.24909945692961L56.324786788079834,107.84533725370775L56.67617115682983,-195.2589448426977L57.027555525579835,130.6509710143608L57.37893989432983,109.25355526358678L57.73032426307984,-83.1591677567877L58.081708631829834,5.310195635894533L58.43309300057983,18.15286271101414L58.784477369329835,108.23429597191063L59.13586173807983,46.921749109174826L59.487246106829836,62.36294159686652L59.83863047557983,-3.3827974034584734L60.19001484432984,137.92403041979253L60.541399213079835,82.4294624564404L60.89278358182984,-3.6592861308556626L61.244167950579836,142.8071025206043L61.59555231932984,145.3283048144975L61.94693668807983,147.8026446122217L62.29832105682983,151.1931462100502L62.64970542557983,144.9510617203369L63.00108979432983,152.13976863266438L63.35247416307983,105.91225928673575L63.70385853182983,130.99541036120308L64.05524290057984,155.85830770367605L64.40662726932983,152.5545017237602L64.75801163807984,152.73257920920247L65.10939600682984,152.3061304940644L65.46078037557984,148.24080895140202L65.81216474432983,142.03152820900704L66.16354911307982,145.351736062582L66.51493348182983,152.4607767314222L66.86631785057983,154.3376197029914L67.21770221932982,152.8942548209856L67.56908658807984,155.02649839667595L67.92047095682983,119.88899876914562L68.27185532557984,151.02444122384173L68.62323969432983,157.4352306997635L68.97462406307984,150.91431435784455L69.32600843182983,152.37408111350948L69.67739280057984,154.62582405443084L70.02877716932983,149.43814572852045L70.38016153807983,115.44877725713107L70.73154590682984,145.5626172953426L71.08293027557984,139.64154090438709L71.43431464432983,155.68960271746758L71.78569901307984,151.48369368629812L72.13708338182984,151.90311302701085L72.48846775057984,152.28035612117145L72.83985211932983,124.92203085769825L73.19123648807982,148.91797202104436L73.54262085682983,147.72297836873437L73.89400522557983,151.43448806532066L74.24538959432984,152.04135739070946L74.59677396307983,150.96117685401356L74.94815833182983,152.80521607826446L75.29954270057983,121.55027425833734L75.65092706932984,151.5961636771038L76.00231143807983,152.25223862347005L76.35369580682983,148.93203076989505L76.70508017557984,146.66388595531456L77.05646454432984,150.22074941454306L77.40784891307983,112.34882313555048L77.75923328182984,149.7896144497881L78.11061765057983,155.40374149083655L78.46200201932984,151.82578990833196L78.81338638807983,150.21372004011772L79.16477075682984,155.43420211334643L79.51615512557983,153.2199491693603L79.86753949432985,112.48941062405754L80.21892386307984,151.48603681110657L80.57030823182983,153.27852728957154L80.92169260057983,132.0357577761553L81.27307696932982,99.91151665229287L81.62446133807984,147.62456712677943L81.97584570682983,156.37848141115214L82.32723007557983,145.05884546152564L82.67861444432982,149.21320574690918L83.02999881307984,51.465068112761195L83.38138318182983,10.91260705290074L83.73276755057984,143.38585434829167L84.08415191932983,152.46311985623063L84.43553628807983,145.86488039563278L84.78692065682984,153.94866098478852L85.13830502557984,154.32356095414067L85.48968939432983,154.50163843958293L85.84107376307983,152.86379419847574L86.19245813182984,152.40922798563625L86.54384250057984,156.6526270137409L86.89522686932983,154.48055031630687L87.24661123807984,153.4964378967575L87.59799560682984,154.9046559066365L87.94937997557984,145.62119541555387L88.30076434432983,156.68074451144233L88.65214871307982,157.54770069056917L89.00353308182983,135.9815799535867L89.35491745057983,152.30847361887285L89.70630181932984,151.2939005768136L90.05768618807983,146.14136912303L90.40907055682983,158.94654620121437L90.76045492557984,149.96769193523036L91.11183929432984,148.63679704403023L91.46322366307983,154.49226594034914L91.81460803182983,152.5076392275912L92.16599240057982,159.54638615217783L92.51737676932984,-31.026983893562697L92.86876113807983,146.44363222332015L93.22014550682984,159.33550491941725L93.57152987557983,154.30012970605617L93.92291424432985,154.7523527940872L94.27429861307984,154.05644472597726L94.62568298182984,155.16239963556612L94.97706735057983,146.8419634407568L95.32845171932982,154.6609709265576L95.67983608807984,156.16760017839155L96.03122045682983,151.24000870621924L96.38260482557983,158.8832818313862L96.73398919432982,155.53729960491825L97.08537356307984,153.67451538219976L97.43675793182983,156.81664575033247L97.78814230057984,153.17308667319125L98.13952666932983,158.84344870964253L98.49091103807984,149.62325258838808L98.84229540682983,160.01735423867646L99.19367977557984,151.5188405584249L99.54506414432983,159.69868926472714L99.89644851307983,153.6206235116054L100.24783288182984,157.53832819133535L100.59921725057984,157.47037757189028L100.95060161932983,157.80310129469032L101.30198598807984,160.5304985717272L101.65337035682984,155.37093774351825L102.00475472557984,155.00306714859144L102.35613909432983,147.00832530215683L102.70752346307982,154.65394155213227L103.05890783182983,156.20977642494367L103.41029220057983,156.71354825876062L103.76167656932984,104.921117492761L104.11306093807983,158.42871561854673L104.46444530682983,161.89888345986256L104.81582967557983,155.10616464016329L105.16721404432984,156.2847564188141L105.51859841307983,141.86048009799012L105.86998278182983,149.79195757459655L106.22136715057982,153.0957635545124L106.57275151932984,157.31104508491563L106.92413588807983,154.74063717004495L107.27552025682984,158.8551643336848L107.62690462557983,149.0445007607007L107.97828899432984,153.35819353305888L108.32967336307983,149.7708694513205L108.68105773182984,155.27018337675486L109.03244210057983,156.07153206124508L109.38382646932985,156.18634517685916L109.73521083807984,150.63782563044734L110.08659520682984,157.6882881790762L110.43797957557983,152.3787673631264L110.78936394432982,156.08324768528732L111.14074831307984,153.4284872773124L111.49213268182983,149.9231725638698L111.84351705057983,155.19754650769286L112.19490141932982,148.61336579594573L112.54628578807984,157.4938088199748L112.89767015682983,156.80258700148175L113.24905452557984,151.20251870928402L113.60043889432983,150.35665065343323L113.95182326307983,143.78652869053678L114.30320763182984,146.3405347317483L114.65459200057984,152.57558984703627L115.00597636932983,156.15119830473242L115.35736073807983,160.70623293236105L115.70874510682984,154.48055031630687L116.06012947557984,144.8456211039566L116.41151384432983,151.50946805919108L116.76289821307984,150.91431435784455L117.11428258182983,156.3714520367268L117.46566695057984,145.18303107637354L117.81705131932983,157.37665257955226L118.16843568807982,154.46883469226464L118.51982005682983,153.46363414943917L118.87120442557983,145.06353171114256L119.22258879432984,150.06376005237686L119.57397316307983,143.2897862311452L119.92535753182983,147.69954712064987L120.27674190057984,156.20977642494367L120.62812626932984,153.5292416440758L120.97951063807983,154.56724593421956L121.33089500682983,152.4888942291236L121.68227937557982,152.995009187749L122.03366374432984,149.12182387937958L122.38504811307983,150.88151061052625L122.73643248182984,158.33499062620868L123.08781685057983,145.07290421037635L123.43920121932985,139.94849025429414L123.79058558807984,151.79298616101366L124.14196995682984,149.5881057162613L124.49335432557983,155.84190583001688L124.84473869432982,148.97889326606406L125.19612306307984,151.00569622537415L125.54750743182983,133.61268077224278L125.89889180057983,149.47797885026412L126.25027616932982,152.92940169311237L126.60166053807984,150.20669066569238L126.95304490682983,148.10725083732032L127.30442927557984,149.1077651305289L127.65581364432983,153.91351411266174L128.00719801307983,-127.98783159207115L128.35858238182985,84.50781416153639L128.70996675057984,84.6507447748519L129.06135111932983,45.32139486500283L129.41273548807982,-124.57155562134967L129.76411985682984,10.256532106534477L130.11550422557983,102.89431453345094L130.46688859432984,-36.09047660462516L130.81827296307983,141.30984576800415L131.16965733182985,-3.3101605343964633L131.52104170057984,139.17057281788843L131.87242606932983,149.35379323541622L132.22381043807982,140.4241445904097L132.5751948068298,151.27281245353754L132.92657917557983,85.20372222964632L133.27796354432982,140.11953836531106L133.62934791307984,156.13479643107326L133.98073228182983,141.3449926401309L134.33211665057985,148.97420701644717L134.68350101932984,140.0843914931843L135.03488538807983,125.60153705214903L135.38626975682982,106.79093108990483L135.73765412557984,151.80235866024745L136.08903849432983,156.61279389199723L136.44042286307982,36.06605187162161L136.79180723182984,143.8333911867058L137.14319160057985,146.56313158855116L137.49457596932984,-53.37102206695088L137.84596033807983,98.34630928024765L138.19734470682982,-92.92999820802814L138.54872907557984,35.883288136562435L138.90011344432983,145.50169605032286L139.25149781307982,65.68314945044152L139.6028821818298,108.80133217555576L139.95426655057986,131.4101434522989L140.30565091932985,-57.909654820920345L140.65703528807984,149.60216446511203L141.00841965682983,31.00490228536756L141.35980402557982,148.1517702086809L141.71118839432984,22.093998638828644L142.06257276307983,144.04427241946638L142.41395713182982,145.5344997976412L142.76534150057984,110.5563326570855L143.11672586932985,11.407006387483879L143.46811023807984,15.324711067213856L143.81949460682983,29.19600993324345L144.17087897557983,131.72412217663134L144.52226334432984,145.25801107024398L144.87364771307983,-1.2857006998948506L145.22503208182982,37.195438029294955L145.5764164505798,149.22257824614297L145.92780081932986,102.52175768890723L146.27918518807985,31.832025342750757L146.63056955682984,149.45220447737117L146.98195392557983,143.46786371658746L147.33333829432985,153.1941747964673L147.68472266307984,109.30276088456426L148.03610703182983,32.60525652953956L148.38749140057982,-68.242835226189L148.7388757693298,105.5889080631695L149.09026013807986,147.01535467658218L149.44164450682985,73.7364694170874L149.79302887557984,148.83127640313165L150.14441324432983,69.53993288515177L150.49579761307984,63.347054016415925L150.84718198182983,144.707376740258L151.19856635057982,113.53444428862664L151.54995071932981,52.57805239677539L151.90133508807983,131.57650531369893L152.25271945682985,131.2765853382172L152.60410382557984,117.88562705792006L152.95548819432983,114.48106671124086L153.30687256307985,123.86996781870377L153.65825693182984,131.29298721187635L154.00964130057983,144.11456616371993L154.36102566932982,148.15411333348933L154.7124100380798,142.99689563008883L155.06379440682983,117.9512345525567L155.41517877557985,82.0662781111305L155.76656314432984,149.2834994911627L156.11794751307983,-6.543672770058775L156.46933188182985,142.39705567912537L156.82071625057984,141.81596072662956L157.17210061932983,-20.951547217223645L157.52348498807982,3.3724314193056024L157.87486935682983,-45.97846329628815L158.22625372557982,121.21052116111196L158.57763809432984,141.293443894345L158.92902246307983,12.220070696016364L159.28040683182985,140.90917142575904L159.63179120057984,142.28692881312818L159.98317556932983,140.9068283009506L160.33455993807982,68.52301671828407L160.68594430682984,-17.022126913451405L161.03732867557983,141.14817015622103L161.38871304432982,117.48963896529185L161.74009741307984,18.94015264665367L162.09148178182986,-20.2134629025616L162.44286615057985,11.07662578949231L162.79425051932984,-12.197632932850913L163.14563488807983,-24.688831286702893L163.49701925682982,112.94866308651393L163.84840362557983,117.64897145226652L164.19978799432982,-74.44274346935019L164.55117236307984,-16.73860881162885L164.90255673182983,134.15394260299496L165.25394110057985,7.641604820303228L165.60532546932984,-21.813817146733573L165.95670983807983,-14.918000835462456L166.30809420682982,110.81876263563203L166.65947857557984,20.40226252712705L167.01086294432983,-30.86999453139645L167.36224731307982,-11.860222960433978L167.71363168182984,114.63336982379016L168.06501605057986,-9.500696278323858L168.41640041932985,-2.8790255696414992L168.76778478807984,1.437010327525121L169.11916915682983,-11.543901111293101L169.82193789432984,-14.301759010839863L170.17332226307983,6.652806151136929L170.52470663182982,70.0062147220335L170.87609100057983,61.59908290931152L171.22747536932985,-3.1063086760612446L171.57885973807984,34.28996326681578L171.93024410682983,32.22332718576205L172.28162847557982,75.61565551346506L172.63301284432984,10.272933980193638L172.98439721307983,-3.1883180443570494L173.33578158182982,23.171836050716074L173.6871659505798,7.433066712351092L174.03855031932986,-6.4804084002305995L174.74131905682984,-20.39622663762076L175.09270342557983,29.25693117826316L175.44408779432985,127.77829999919994L175.79547216307984,116.85699526701009L176.14685653182983,34.039248912311535L176.49824090057982,3.6864101436380308L176.8496252693298,133.2541826765498L177.20100963807985,105.8091617951639L177.55239400682984,127.84859374345348L177.90377837557983,122.20869232951205L178.25516274432982,35.327967556959564L178.60654711307984,135.203662517181L178.95793148182983,129.68091734366212L179.30931585057982,113.71017864926048L179.6607002193298,19.22601387328467L180.01208458807983,110.06427644731082L180.36346895682985,140.48506583542942L180.71485332557984,41.202181451746064L181.06623769432983,83.77441609649124L181.41762206307985,139.6649721524716L181.76900643182984,140.51318333313083L182.12039080057983,119.04078758848638L182.47177516932982,144.53867175404955L182.82315953807984,138.80270222296164L183.17454390682985,35.51776066644409L183.52592827557984,130.74235288189038L183.87731264432983,-2.8649668207908063L184.22869701307985,81.26492942664028L184.58008138182984,68.57456546406998L184.93146575057983,112.0043837887082L185.28285011932982,133.66422951802872L185.6342344880798,6.132632443660813L185.98561885682983,-16.95183316919786L186.33700322557985,-18.96692050446568L186.68838759432984,5.202411894705792L187.03977196307983,-8.715749467492797L187.39115633182985,114.17411736133377L187.74254070057984,115.41597350981277L188.09392506932983,121.96500734943314L188.44530943807982,129.3622523697128L188.79669380682984,50.00295823228781L189.14807817557983,125.44923393959971L189.49946254432984,87.81864951587757L189.85084691307983,129.50049673341138L190.20223128182985,136.19011806153884L190.55361565057984,145.1806879515651L190.90500001932983,133.20263393076388L191.25638438807982,136.90945737773328L191.60776875682984,132.93317457779202L191.95915312557983,133.83059137942874L192.31053749432982,134.80298817493588L192.66192186307984,129.11856738963388L193.01330623182983,119.89368501876251L193.36469060057985,117.94420517813134L193.71607496932984,0.553652274739114L194.06745933807983,32.513874662009975L194.41884370682982,109.97055145497276L194.77022807557984,-0.41171514634265827L195.12161244432983,74.46752435732411L195.47299681307982,123.31230411429246L195.82438118182984,-13.840163423575005L196.17576555057985,2.6296608550266587L196.52714991932984,-58.694601631751404L196.87853428807983,26.649033266457273L197.22991865682982,3.3654020448802564L197.58130302557984,121.1988055370697L197.93268739432983,99.03987422354913L198.28407176307982,72.04941955500273L198.6354561318298,-26.825761112010124L199.33822486932985,-64.9718329935915L199.68960923807984,116.19623407102694L200.04099360682983,-10.1731730983493L200.39237797557982,127.57210501605627L200.74376234432984,111.14445698400672L201.09514671307983,127.29561628865903L201.44653108182982,76.47323919335811L201.7979154505798,-0.3250195284299953L202.14929981932985,12.161492575805086L202.50068418807984,-6.35153653576582L202.85206855682983,37.44146613418231L203.20345292557982,98.63451363168711L203.55483729432984,-12.176544809574855L203.90622166307983,56.38094396089129L204.25760603182982,-6.389026532701039L204.6089904005798,-3.75535424800216L204.96037476932986,55.03599032084044L205.31175913807985,99.31167670132945L205.66314350682984,134.19846197435552L206.01452787557983,119.91711626684705L206.36591224432985,123.95666343661645L206.71729661307984,141.1973757771985L207.06868098182983,96.05707634239107L207.42006535057982,134.82407629821193L207.7714497193298,-44.05710095335836L208.82560282557984,-16.380110715935857L209.17698719432983,100.33327911781404L209.52837156307984,122.7077779137121L209.87975593182983,123.98009468470096L210.23114030057982,139.60405090745186L210.5825246693298,114.60290920128031L210.93390903807983,116.58519278922981L211.28529340682985,100.92374656954368L211.63667777557984,124.09959404993197L211.98806214432983,123.2185791219544L212.33944651307985,89.56427749817352L212.69083088182984,-7.305188332805348L213.04221525057983,4.276877595367668L213.39359961932982,92.15811666112873L213.74498398807984,-33.85279241255453L214.09636835682983,29.852084879609713L214.44775272557985,121.14257054166686L214.79913709432984,122.89288477357974L215.15052146307983,131.83190591782008L215.50190583182984,128.8350492878113L215.85329020057983,129.519241731879L216.20467456932982,126.31150386910966L216.55605893807981,140.051587745866L216.90744330682983,125.73743829103918L217.25882767557982,138.27081289144328L217.61021204432984,126.9535200666252L217.96159641307983,136.49003803702055L218.31298078182985,132.34505025087086L218.66436515057984,137.12502486011076L219.01574951932983,139.84304963791385L219.36713388807982,144.75423923642703L219.71851825682984,143.28744310633672L220.06990262557983,148.42122956165275L220.42128699432982,146.1109085005201L220.77267136307984,142.73212252673386L221.12405573182986,149.39596948196834L221.47544010057985,151.5961636771038L221.82682446932984,143.63422557798748L222.17820883807983,143.17965936514798L222.52959320682982,147.6315965012048L222.88097757557983,147.2824709047456L223.23236194432982,156.55655889659442L223.5837463130798,149.17102950035706L223.93513068182983,144.70269049064112L224.28651505057985,-20.757067858122184L224.63789941932984,41.698923911137676L224.98928378807983,139.41425779796734L225.34066815682982,28.9780993260575L225.69205252557984,139.28069968388562L226.04343689432983,64.16246144975686L226.39482126307982,145.7781847777201L226.74620563182984,118.85099447900186L227.09759000057986,151.22594995736853L227.44897436932985,147.73235086796817L227.80035873807984,142.00106758649716L228.15174310682983,129.3622523697128L228.50312747557984,144.23172240414246L228.85451184432983,147.7651546152865L229.20589621307982,99.44054856579424L229.55728058182981,142.5399862924409L229.90866495057986,142.25646819061834L230.26004931932985,153.831504744366L230.61143368807984,146.3217897332807L230.96281805682983,146.6896603282075L231.31420242557982,153.1473123002983L231.66558679432984,84.76555789046598L232.01697116307983,143.08593437280996L232.36835553182982,150.9400887307375L232.7197399005798,151.1697149619657L233.07112426932986,135.7800712200599L233.42250863807985,134.6295969391105L233.77389300682984,149.15697075150635L234.12527737557983,128.0430731025549L234.47666174432985,128.60776618139158L234.82804611307984,148.3767101902922L235.17943048182983,146.76464032207792L235.53081485057982,142.54935879167468L235.88219921932983,142.98283688123811L236.23358358807985,146.24212348979339L236.58496795682984,146.79275781977935L236.93635232557983,130.4986679018115L237.28773669432982,139.01358345572223L237.63912106307984,133.5751907753076L237.99050543182983,137.45540545810235L238.34188980057982,141.47620762940417L238.6932741693298,137.13908360896147L239.04465853807983,147.79561523779634L239.39604290682985,119.87259689548645L239.74742727557984,136.20183368558108L240.09881164432983,146.2889859859624L240.45019601307985,150.59096313427833L240.80158038182984,145.75709665444404L241.15296475057983,146.77401282131174L241.50434911932982,141.2161207756661L241.85573348807984,82.06862123593896L242.20711785682983,90.91626051264971L242.55850222557984,-37.43308711986757L242.90988659432983,148.22206395293443L243.26127096307985,85.29276097236746L243.61265533182984,-35.35942166438848L243.96403970057983,27.654233809282715" fill="none"></path></g></g></g></g></g></g><g transform="translate(61, 176)" clip-path="url(#clip_1)"><clipPath id="clip_1"><rect width="268" height="23"></rect></clipPath><g><g><line x1="0" y1="0" x2="0" y2="5" style="visibility: inherit;" fill="rgb(0, 0, 0)" stroke="rgb(204, 204, 204)" stroke-width="1px"></line><line x1="26.808499813079834" y1="0" x2="26.808499813079834" y2="5" style="visibility: inherit;" fill="rgb(0, 0, 0)" stroke="rgb(204, 204, 204)" stroke-width="1px"></line><line x1="53.61699962615967" y1="0" x2="53.61699962615967" y2="5" style="visibility: inherit;" fill="rgb(0, 0, 0)" stroke="rgb(204, 204, 204)" stroke-width="1px"></line><line x1="80.4254994392395" y1="0" x2="80.4254994392395" y2="5" style="visibility: inherit;" fill="rgb(0, 0, 0)" stroke="rgb(204, 204, 204)" stroke-width="1px"></line><line x1="107.23399925231934" y1="0" x2="107.23399925231934" y2="5" style="visibility: inherit;" fill="rgb(0, 0, 0)" stroke="rgb(204, 204, 204)" stroke-width="1px"></line><line x1="134.04249906539917" y1="0" x2="134.04249906539917" y2="5" style="visibility: inherit;" fill="rgb(0, 0, 0)" stroke="rgb(204, 204, 204)" stroke-width="1px"></line><line x1="160.850998878479" y1="0" x2="160.850998878479" y2="5" style="visibility: inherit;" fill="rgb(0, 0, 0)" stroke="rgb(204, 204, 204)" stroke-width="1px"></line><line x1="187.65949869155884" y1="0" x2="187.65949869155884" y2="5" style="visibility: inherit;" fill="rgb(0, 0, 0)" stroke="rgb(204, 204, 204)" stroke-width="1px"></line><line x1="214.46799850463867" y1="0" x2="214.46799850463867" y2="5" style="visibility: inherit;" fill="rgb(0, 0, 0)" stroke="rgb(204, 204, 204)" stroke-width="1px"></line><line x1="241.2764983177185" y1="0" x2="241.2764983177185" y2="5" style="visibility: inherit;" fill="rgb(0, 0, 0)" stroke="rgb(204, 204, 204)" stroke-width="1px"></line><line x1="268.08499813079834" y1="0" x2="268.08499813079834" y2="5" style="visibility: inherit;" fill="rgb(0, 0, 0)" stroke="rgb(204, 204, 204)" stroke-width="1px"></line></g><g transform="translate(0, 8)"><text style="text-anchor: middle; visibility: hidden; font-family: Roboto, sans-serif; font-size: 12px; font-weight: 200;" x="0" y="0" dx="0em" dy="0.95em" fill="rgb(33, 33, 33)" stroke="none" stroke-width="1px">-10M</text><text style="text-anchor: middle; visibility: inherit; font-family: Roboto, sans-serif; font-size: 12px; font-weight: 200;" x="26.808499813079834" y="0" dx="0em" dy="0.95em" fill="rgb(33, 33, 33)" stroke="none" stroke-width="1px">0</text><text style="text-anchor: middle; visibility: hidden; font-family: Roboto, sans-serif; font-size: 12px; font-weight: 200;" x="53.61699962615967" y="0" dx="0em" dy="0.95em" fill="rgb(33, 33, 33)" stroke="none" stroke-width="1px">10M</text><text style="text-anchor: middle; visibility: inherit; font-family: Roboto, sans-serif; font-size: 12px; font-weight: 200;" x="80.4254994392395" y="0" dx="0em" dy="0.95em" fill="rgb(33, 33, 33)" stroke="none" stroke-width="1px">20M</text><text style="text-anchor: middle; visibility: hidden; font-family: Roboto, sans-serif; font-size: 12px; font-weight: 200;" x="107.23399925231934" y="0" dx="0em" dy="0.95em" fill="rgb(33, 33, 33)" stroke="none" stroke-width="1px">30M</text><text style="text-anchor: middle; visibility: inherit; font-family: Roboto, sans-serif; font-size: 12px; font-weight: 200;" x="134.04249906539917" y="0" dx="0em" dy="0.95em" fill="rgb(33, 33, 33)" stroke="none" stroke-width="1px">40M</text><text style="text-anchor: middle; visibility: hidden; font-family: Roboto, sans-serif; font-size: 12px; font-weight: 200;" x="160.850998878479" y="0" dx="0em" dy="0.95em" fill="rgb(33, 33, 33)" stroke="none" stroke-width="1px">50M</text><text style="text-anchor: middle; visibility: inherit; font-family: Roboto, sans-serif; font-size: 12px; font-weight: 200;" x="187.65949869155884" y="0" dx="0em" dy="0.95em" fill="rgb(33, 33, 33)" stroke="none" stroke-width="1px">60M</text><text style="text-anchor: middle; visibility: hidden; font-family: Roboto, sans-serif; font-size: 12px; font-weight: 200;" x="214.46799850463867" y="0" dx="0em" dy="0.95em" fill="rgb(33, 33, 33)" stroke="none" stroke-width="1px">70M</text><text style="text-anchor: middle; visibility: inherit; font-family: Roboto, sans-serif; font-size: 12px; font-weight: 200;" x="241.2764983177185" y="0" dx="0em" dy="0.95em" fill="rgb(33, 33, 33)" stroke="none" stroke-width="1px">80M</text><text style="text-anchor: middle; visibility: hidden; font-family: Roboto, sans-serif; font-size: 12px; font-weight: 200;" x="268.08499813079834" y="0" dx="0em" dy="0.95em" fill="rgb(33, 33, 33)" stroke="none" stroke-width="1px">90M</text></g><line x1="0" y1="0" x2="268.08499813079834" y2="0" fill="rgb(0, 0, 0)" stroke="rgb(204, 204, 204)" stroke-width="1px"></line></g></g></g></g></svg>