<svg viewBox="0 0 330 200" xmlns="http://www.w3.org/2000/svg"><g><g><g><g><g><line x1="41.149001121520996" y1="176.89999961853027" x2="36.149001121520996" y2="176.89999961853027" style="visibility: inherit;" fill="rgb(0, 0, 0)" stroke="rgb(204, 204, 204)" stroke-width="1px"></line><line x1="41.149001121520996" y1="159.20999965667724" x2="36.149001121520996" y2="159.20999965667724" style="visibility: inherit;" fill="rgb(0, 0, 0)" stroke="rgb(204, 204, 204)" stroke-width="1px"></line><line x1="41.149001121520996" y1="141.51999969482424" x2="36.149001121520996" y2="141.51999969482424" style="visibility: inherit;" fill="rgb(0, 0, 0)" stroke="rgb(204, 204, 204)" stroke-width="1px"></line><line x1="41.149001121520996" y1="123.82999973297119" x2="36.149001121520996" y2="123.82999973297119" style="visibility: inherit;" fill="rgb(0, 0, 0)" stroke="rgb(204, 204, 204)" stroke-width="1px"></line><line x1="41.149001121520996" y1="106.13999977111816" x2="36.149001121520996" y2="106.13999977111816" style="visibility: inherit;" fill="rgb(0, 0, 0)" stroke="rgb(204, 204, 204)" stroke-width="1px"></line><line x1="41.149001121520996" y1="88.44999980926514" x2="36.149001121520996" y2="88.44999980926514" style="visibility: inherit;" fill="rgb(0, 0, 0)" stroke="rgb(204, 204, 204)" stroke-width="1px"></line><line x1="41.149001121520996" y1="70.75999984741212" x2="36.149001121520996" y2="70.75999984741212" style="visibility: inherit;" fill="rgb(0, 0, 0)" stroke="rgb(204, 204, 204)" stroke-width="1px"></line><line x1="41.149001121520996" y1="53.06999988555909" x2="36.149001121520996" y2="53.06999988555909" style="visibility: inherit;" fill="rgb(0, 0, 0)" stroke="rgb(204, 204, 204)" stroke-width="1px"></line><line x1="41.149001121520996" y1="35.379999923706045" x2="36.149001121520996" y2="35.379999923706045" style="visibility: inherit;" fill="rgb(0, 0, 0)" stroke="rgb(204, 204, 204)" stroke-width="1px"></line><line x1="41.149001121520996" y1="17.689999961853022" x2="36.149001121520996" y2="17.689999961853022" style="visibility: inherit;" fill="rgb(0, 0, 0)" stroke="rgb(204, 204, 204)" stroke-width="1px"></line><line x1="41.149001121520996" y1="0" x2="36.149001121520996" y2="0" style="visibility: inherit;" fill="rgb(0, 0, 0)" stroke="rgb(204, 204, 204)" stroke-width="1px"></line></g><g transform="translate(31.149001121520996, 0)"><text style="text-anchor: end; visibility: hidden; font-family: Roboto, sans-serif; font-size: 12px; font-weight: 200;" x="0" y="176.89999961853027" dx="0em" dy="0.3em" fill="rgb(33, 33, 33)" stroke="none" stroke-width="1px">0</text><text style="text-anchor: end; visibility: inherit; font-family: Roboto, sans-serif; font-size: 12px; font-weight: 200;" x="0" y="159.20999965667724" dx="0em" dy="0.3em" fill="rgb(33, 33, 33)" stroke="none" stroke-width="1px">0.5</text><text style="text-anchor: end; visibility: hidden; font-family: Roboto, sans-serif; font-size: 12px; font-weight: 200;" x="0" y="141.51999969482424" dx="0em" dy="0.3em" fill="rgb(33, 33, 33)" stroke="none" stroke-width="1px">1</text><text style="text-anchor: end; visibility: inherit; font-family: Roboto, sans-serif; font-size: 12px; font-weight: 200;" x="0" y="123.82999973297119" dx="0em" dy="0.3em" fill="rgb(33, 33, 33)" stroke="none" stroke-width="1px">1.5</text><text style="text-anchor: end; visibility: hidden; font-family: Roboto, sans-serif; font-size: 12px; font-weight: 200;" x="0" y="106.13999977111816" dx="0em" dy="0.3em" fill="rgb(33, 33, 33)" stroke="none" stroke-width="1px">2</text><text style="text-anchor: end; visibility: inherit; font-family: Roboto, sans-serif; font-size: 12px; font-weight: 200;" x="0" y="88.44999980926514" dx="0em" dy="0.3em" fill="rgb(33, 33, 33)" stroke="none" stroke-width="1px">2.5</text><text style="text-anchor: end; visibility: hidden; font-family: Roboto, sans-serif; font-size: 12px; font-weight: 200;" x="0" y="70.75999984741212" dx="0em" dy="0.3em" fill="rgb(33, 33, 33)" stroke="none" stroke-width="1px">3</text><text style="text-anchor: end; visibility: inherit; font-family: Roboto, sans-serif; font-size: 12px; font-weight: 200;" x="0" y="53.06999988555909" dx="0em" dy="0.3em" fill="rgb(33, 33, 33)" stroke="none" stroke-width="1px">3.5</text><text style="text-anchor: end; visibility: hidden; font-family: Roboto, sans-serif; font-size: 12px; font-weight: 200;" x="0" y="35.379999923706045" dx="0em" dy="0.3em" fill="rgb(33, 33, 33)" stroke="none" stroke-width="1px">4</text><text style="text-anchor: end; visibility: inherit; font-family: Roboto, sans-serif; font-size: 12px; font-weight: 200;" x="0" y="17.689999961853022" dx="0em" dy="0.3em" fill="rgb(33, 33, 33)" stroke="none" stroke-width="1px">4.5</text><text style="text-anchor: end; visibility: hidden; font-family: Roboto, sans-serif; font-size: 12px; font-weight: 200;" x="0" y="0" dx="0em" dy="0.3em" fill="rgb(33, 33, 33)" stroke="none" stroke-width="1px">5</text></g><line x1="41.149001121520996" y1="0" x2="41.149001121520996" y2="176.89999961853027" fill="rgb(0, 0, 0)" stroke="rgb(204, 204, 204)" stroke-width="1px"></line></g></g><g transform="translate(41, 0)" clip-path="url(#clip_0)"><clipPath id="clip_0"><rect width="288" height="176"></rect></clipPath><g><g><g><line x1="0" y1="0" x2="0" y2="176.89999961853027" fill="rgb(0, 0, 0)" stroke="rgb(66, 66, 66)" stroke-width="1px" opacity="0.25"></line><line x1="28.8850998878479" y1="0" x2="28.8850998878479" y2="176.89999961853027" fill="rgb(0, 0, 0)" stroke="rgb(66, 66, 66)" stroke-width="1px" opacity="0.25"></line><line x1="57.7701997756958" y1="0" x2="57.7701997756958" y2="176.89999961853027" fill="rgb(0, 0, 0)" stroke="rgb(66, 66, 66)" stroke-width="1px" opacity="0.25"></line><line x1="86.6552996635437" y1="0" x2="86.6552996635437" y2="176.89999961853027" fill="rgb(0, 0, 0)" stroke="rgb(66, 66, 66)" stroke-width="1px" opacity="0.25"></line><line x1="115.5403995513916" y1="0" x2="115.5403995513916" y2="176.89999961853027" fill="rgb(0, 0, 0)" stroke="rgb(66, 66, 66)" stroke-width="1px" opacity="0.25"></line><line x1="144.4254994392395" y1="0" x2="144.4254994392395" y2="176.89999961853027" fill="rgb(0, 0, 0)" stroke="rgb(66, 66, 66)" stroke-width="1px" opacity="0.25"></line><line x1="173.3105993270874" y1="0" x2="173.3105993270874" y2="176.89999961853027" fill="rgb(0, 0, 0)" stroke="rgb(66, 66, 66)" stroke-width="1px" opacity="0.25"></line><line x1="202.1956992149353" y1="0" x2="202.1956992149353" y2="176.89999961853027" fill="rgb(0, 0, 0)" stroke="rgb(66, 66, 66)" stroke-width="1px" opacity="0.25"></line><line x1="231.0807991027832" y1="0" x2="231.0807991027832" y2="176.89999961853027" fill="rgb(0, 0, 0)" stroke="rgb(66, 66, 66)" stroke-width="1px" opacity="0.25"></line><line x1="259.9658989906311" y1="0" x2="259.9658989906311" y2="176.89999961853027" fill="rgb(0, 0, 0)" stroke="rgb(66, 66, 66)" stroke-width="1px" opacity="0.25"></line><line x1="288.850998878479" y1="0" x2="288.850998878479" y2="176.89999961853027" fill="rgb(0, 0, 0)" stroke="rgb(66, 66, 66)" stroke-width="1px" opacity="0.25"></line></g><g><line x1="0" y1="176.89999961853027" x2="288.850998878479" y2="176.89999961853027" fill="rgb(0, 0, 0)" stroke="rgb(66, 66, 66)" stroke-width="1px" opacity="0.25"></line><line x1="0" y1="159.20999965667724" x2="288.850998878479" y2="159.20999965667724" fill="rgb(0, 0, 0)" stroke="rgb(66, 66, 66)" stroke-width="1px" opacity="0.25"></line><line x1="0" y1="141.51999969482424" x2="288.850998878479" y2="141.51999969482424" fill="rgb(0, 0, 0)" stroke="rgb(66, 66, 66)" stroke-width="1px" opacity="0.25"></line><line x1="0" y1="123.82999973297119" x2="288.850998878479" y2="123.82999973297119" fill="rgb(0, 0, 0)" stroke="rgb(66, 66, 66)" stroke-width="1px" opacity="0.25"></line><line x1="0" y1="106.13999977111816" x2="288.850998878479" y2="106.13999977111816" fill="rgb(0, 0, 0)" stroke="rgb(66, 66, 66)" stroke-width="1px" opacity="0.25"></line><line x1="0" y1="88.44999980926514" x2="288.850998878479" y2="88.44999980926514" fill="rgb(0, 0, 0)" stroke="rgb(66, 66, 66)" stroke-width="1px" opacity="0.25"></line><line x1="0" y1="70.75999984741212" x2="288.850998878479" y2="70.75999984741212" fill="rgb(0, 0, 0)" stroke="rgb(66, 66, 66)" stroke-width="1px" opacity="0.25"></line><line x1="0" y1="53.06999988555909" x2="288.850998878479" y2="53.06999988555909" fill="rgb(0, 0, 0)" stroke="rgb(66, 66, 66)" stroke-width="1px" opacity="0.25"></line><line x1="0" y1="35.379999923706045" x2="288.850998878479" y2="35.379999923706045" fill="rgb(0, 0, 0)" stroke="rgb(66, 66, 66)" stroke-width="1px" opacity="0.25"></line><line x1="0" y1="17.689999961853022" x2="288.850998878479" y2="17.689999961853022" fill="rgb(0, 0, 0)" stroke="rgb(66, 66, 66)" stroke-width="1px" opacity="0.25"></line><line x1="0" y1="0" x2="288.850998878479" y2="0" fill="rgb(0, 0, 0)" stroke="rgb(66, 66, 66)" stroke-width="1px" opacity="0.25"></line></g></g></g><g><g><line x1="0" y1="176.89999961853027" x2="288.850998878479" y2="176.89999961853027" fill="rgb(0, 0, 0)" stroke="rgb(153, 153, 153)" stroke-width="1.5px"></line></g></g><g><g><line x1="28.8850998878479" y1="0" x2="28.8850998878479" y2="176.89999961853027" fill="rgb(0, 0, 0)" stroke="rgb(153, 153, 153)" stroke-width="1.5px"></line></g></g><g><g><g><g><g><path style="fill: none;" stroke="rgb(0, 153, 136)" stroke-width="2px" d="M29.263702669097903,-12.417808873101535L29.642305450347898,2.458248211172353L30.0209082315979,9.514312266175697L30.3995110128479,66.40205996536505L30.7781137940979,104.91111072449064L31.1567165753479,126.82446660803154L31.5353193565979,139.6001835699306L31.9139221378479,147.1199293089814L32.2925249190979,151.56706401020375L32.6711277003479,154.1984111348862L33.049730481597905,155.75342484100335L33.4283332628479,156.66838487090106L33.806936044097895,157.19097949394137L34.1855388253479,157.4769174804407L34.5641416065979,157.58799427591362L34.9427443878479,157.60598791180902L35.3213471690979,157.60141830749183L35.6999499503479,157.54637510915478L36.0785527315979,157.51048999568076L36.457155512847905,157.44076644373055L36.8357582940979,157.38926636852L37.2143610753479,157.28530005066614L37.5929638565979,157.18820450886955L37.9715666378479,157.1025868257905L38.3501694190979,156.97817711040724L38.728772200347905,156.89110459499557L39.1073749815979,156.77587003635102L39.485977762847895,156.65890146524126L39.864580544097905,156.55069086375954L40.2431833253479,156.46289486721702L40.6217861065979,156.38868377059129L41.0003888878479,156.2966835310098L41.3789916690979,156.1938006114044L41.7575944503479,156.13753015497528L42.136197231597905,156.05302479546174L42.5148000128479,155.9249669695564L42.8934027940979,155.81855491622852L43.2720055753479,155.749120175329L43.6506083565979,155.6696694139271L44.0292111378479,155.6038699193214L44.4078139190979,155.54356865318388L44.7864167003479,155.47926814641062L45.165019481597895,155.437151785847L45.543622262847904,155.328919605487L45.9222250440979,155.3140688076866L46.3008278253479,155.2911220741539L46.6794306065979,155.29669099955447L47.05803338784791,155.328951763531L47.4366361690979,155.37256462483384L47.8152389503479,155.39215959535264L48.1938417315979,155.43723918653984L48.572444512847895,155.46664543695928L48.951047294097904,155.47479447058709L49.3296500753479,155.5147509091971L49.7082528565979,155.52871381848144L50.0868556378479,155.55758584577666L50.46545841909791,155.6203784300367L50.8440612003479,155.618833445399L51.2226639815979,155.6597250465977L51.6012667628479,155.6757910170093L51.979869544097895,155.68129732709411L52.358472325347904,155.72348761246607L52.7370751065979,155.77006198605122L53.1156778878479,155.77859204038944L53.4942806690979,155.84771337066013L53.872883450347906,155.8674670888981L54.2514862315979,155.8652526980908L54.630089012847904,155.86469673244326L55.0086917940979,155.87367904239315L55.387294575347894,155.87230335841616L55.765897356597904,155.85372343528135L56.1445001378479,155.81549833111401L56.5231029190979,155.79800569146872L56.9017057003479,155.7881781794269L57.280308481597906,155.49189990174037L57.6589112628479,155.60111698716764L58.037514044097904,155.68579525435868L58.4161168253479,155.73163216577962L58.7947196065979,155.7000875674592L59.173322387847904,155.6932265890806L59.5519251690979,155.74977631509398L59.9305279503479,155.41279474212382L60.3091307315979,155.37548455546298L60.6877335128479,155.17289452539802L61.0663362940979,154.06751038748658L61.444939075347904,154.08135374818934L61.8235418565979,154.57650523971165L62.2021446378479,154.59511818799047L62.580747419097904,154.7797922870737L62.9593502003479,155.05952442331392L63.3379529815979,155.00203120317883L63.7165557628479,154.98490851057755L64.0951585440979,154.93569778419985L64.4737613253479,154.59878074120223L64.8523641065979,154.73831884627083L65.2309668878479,154.67116546604606L65.60956966909791,154.94661156779978L65.9881724503479,154.9323231379306L66.3667752315979,154.76100375391354L66.7453780128479,155.23178883201373L67.1239807940979,155.45448770226017L67.5025835753479,155.64210274229393L67.8811863565979,155.7384490948404L68.2597891378479,155.71121272282056L68.6383919190979,155.76091552760957L69.01699470034791,155.75803881005604L69.3955974815979,155.80343545627167L69.7742002628479,155.8688446341806L70.1528030440979,155.90513780366726L70.5314058253479,155.94890946146114L70.9100086065979,155.81250373433554L71.2886113878479,155.88773138841972L71.6672141690979,155.9445322436167L72.0458169503479,155.94289116295508L72.4244197315979,156.00958083272576L72.8030225128479,156.02184941255635L73.1816252940979,156.06021178872038L73.5602280753479,156.00651230899032L73.93883085659789,156.0130441564844L74.31743363784791,156.0412905239921L74.69603641909791,156.0385808395037L75.0746392003479,156.03053411703556L75.4532419815979,156.06427204340196L75.8318447628479,156.0266962263484L76.2104475440979,155.97308539995586L76.5890503253479,156.0288648134308L76.9676531065979,156.0652274390791L77.34625588784789,156.00318851402332L77.72485866909791,156.04219281995827L78.10346145034791,156.0145351523934L78.4820642315979,155.65851286780247L78.8606670128479,155.83302556241884L79.2392697940979,155.88539414426737L79.6178725753479,155.8768119670467L79.9964753565979,155.89513289839564L80.3750781378479,155.88325243517485L80.75368091909789,155.91769643994388L81.13228370034791,155.84757256742733L81.51088648159791,155.88788701098218L81.8894892628479,155.94594826424603L82.2680920440979,155.97715448490112L82.64669482534791,155.97892674027995L83.0252976065979,156.00620684836406L83.4039003878479,156.00912575171398L83.7825031690979,155.95482654910603L84.16110595034789,155.98191460706346L84.53970873159791,156.02589579337115L84.91831151284791,156.0852089702642L85.2969142940979,156.07559743649506L85.6755170753479,155.91703441022457L86.05411985659791,155.8491930612308L86.4327226378479,155.91250162403153L86.8113254190979,155.9704816766774L87.1899282003479,156.0412004962276L87.56853098159789,156.13029558714294L87.94713376284791,156.07996533417673L88.32573654409791,156.08704761024933L88.7043393253479,155.9108062593479L89.0829421065979,155.99351841480083L89.46154488784791,155.86912988889824L89.8401476690979,155.48091806729158L90.2187504503479,155.33887235039808L90.59735323159789,155.74126643829922L90.97595601284789,155.958554459314L91.35455879409791,121.11521956650269L91.7331615753479,79.18563850838105L92.1117643565979,54.17429880873925L92.4903671378479,39.22233085767135L92.8689699190979,30.03604448141538L93.2475727003479,24.696702647965722L93.6261754815979,21.34763336058757L94.00477826284789,19.37248613775712L94.3833810440979,18.39084252102739L94.76198382534791,17.620323037629767L95.1405866065979,17.047145178854443L95.5191893878479,16.957078734037953L95.8977921690979,16.748599574573372L96.2763949503479,16.593921224313654L96.6549977315979,16.509522470670486L97.0336005128479,16.282120882134784L97.41220329409789,16.289247872276764L97.7908060753479,16.363806563616397L98.1694088565979,16.229964176418807L98.5480116378479,16.244126788177535L98.9266144190979,37.134026663490566L99.3052172003479,84.76029751810121L99.6838199815979,113.02113505901252L100.0624227628479,129.69072776171402L100.4410255440979,140.2678146237019L100.81962832534789,118.60498673652027L101.1982311065979,76.95943893645607L101.5768338878479,52.64685597105751L101.9554366690979,37.833585668470874L102.3340394503479,29.15867763990184L102.7126422315979,24.10781446076435L103.0912450128479,21.125957819503828L103.4698477940979,19.161849526653185L103.8484505753479,18.0124625423657L104.22705335659789,17.45052652995412L104.6056561378479,16.86867521051041L104.9842589190979,16.004602570741994L105.3628617003479,16.297204833978437L105.7414644815979,72.3582127362183L106.12006726284791,106.04580012439443L106.4986700440979,126.24966087641063L106.8772728253479,138.38275082803963L107.2558756065979,145.66134963391963L107.63447838784789,150.03848613033202L108.0130811690979,152.66264909355266L108.3916839503479,154.24270401373073L108.77028673159789,155.18563870115437L109.1488895128479,155.77114137109467L109.52749229409791,156.0704582186086L109.9060950753479,156.2128961150541L110.2846978565979,156.37067593230952L110.6633006378479,156.43416376711173L111.04190341909789,156.49590215886002L111.4205062003479,156.58249722245816L111.7991089815979,156.57987144937917L112.17771176284789,156.54926185740527L112.5563145440979,156.58521235958062L112.93491732534791,156.62314704454806L113.3135201065979,156.57732253043534L113.6921228878479,156.631683481276L114.0707256690979,156.43504684602178L114.44932845034789,156.40617821268427L114.8279312315979,156.4461155050009L115.2065340128479,156.4584945960378L115.58513679409789,156.45687271519972L115.96373957534789,156.4904807347699L116.34234235659791,156.53012759831935L116.7209451378479,156.53534804566692L117.0995479190979,156.50937195575506L117.4781507003479,156.5329528514061L117.8567534815979,156.53442827023272L118.2353562628479,156.5264025241572L118.6139590440979,156.51681609950188L118.99256182534789,156.52344381659668L119.37116460659789,156.56759247816953L119.74976738784791,156.52463258049065L120.1283701690979,156.59135083762197L120.5069729503479,156.62905703719082L120.8855757315979,156.6108440279705L121.2641785128479,156.6340182483505L121.6427812940979,156.6852706904253L122.0213840753479,156.7067670001268L122.39998685659789,156.70325653898908L122.77858963784789,156.73399037492177L123.15719241909791,156.7883108529482L123.5357952003479,156.82084240596905L123.9143979815979,156.90566703794283L124.2930007628479,156.92636025049606L124.6716035440979,156.93076943938257L125.0502063253479,156.93913742584664L125.4288091065979,156.95526237991731L125.80741188784789,156.99178168976525L126.18601466909789,156.97529939491267L126.56461745034791,157.0062872361594L126.9432202315979,157.03459397401335L127.3218230128479,157.05431441160204L127.7004257940979,157.0848729276244L128.0790285753479,157.09154377449133L128.45763135659791,157.11180606918228L128.8362341378479,157.16401738382245L129.2148369190979,157.16003759309285L129.59343970034791,157.16805206810469L129.9720424815979,157.17433186059156L130.3506452628479,157.19628950769663L130.7292480440979,157.18497150606197L131.1078508253479,157.22754715814548L131.4864536065979,157.26905204109093L131.86505638784791,157.21310816736735L132.2436591690979,157.2203178382998L132.6222619503479,157.23231634363202L133.00086473159791,157.29125051790206L133.3794675128479,157.30440607217932L133.7580702940979,157.27753268118784L134.1366730753479,157.3137443074145L134.5152758565979,157.3351878587737L134.8938786378479,157.33693633099807L135.27248141909791,157.3545826108759L135.6510842003479,157.33179041023138L136.0296869815979,157.3350665668589L136.40828976284791,157.31390618132596L136.7868925440979,157.3209956707887L137.1654953253479,157.3257959686217L137.5440981065979,157.34684904843584L137.9227008878479,157.02350154219044L138.3013036690979,156.39554669881807L138.67990645034791,156.34023776991515L139.0585092315979,156.29535440882972L139.4371120128479,156.25810639522194L139.81571479409791,156.17475048994456L140.1943175753479,156.22389498947203L140.5729203565979,156.54238345286277L140.9515231378479,156.6582239847491L141.3301259190979,156.53130508843836L141.7087287003479,156.70779958979827L142.08733148159791,156.98936541865336L142.4659342628479,157.0169976195182L142.8445370440979,157.15961643523346L143.22313982534791,157.09251983444312L143.6017426065979,157.1952528461795L143.9803453878479,157.24740468479695L144.35894816909789,157.32092602011514L144.7375509503479,157.36308184346603L145.1161537315979,157.41079623014366L145.4947565128479,157.41052232391303L145.8733592940979,157.4108877138313L146.2519620753479,157.2227444565808L146.63056485659789,157.3410788081284L147.0091676378479,157.24931959656246L147.3877704190979,157.13961377639055L147.7663732003479,157.25692966911583L148.1449759815979,156.44001870388732L148.5235787628479,156.62697970919706L148.90218154409789,156.85942947115063L149.2807843253479,156.64377870645367L149.6593871065979,156.98982251746907L150.03798988784789,156.7853598824663L150.4165926690979,156.94185193854267L150.7951954503479,156.87395571631487L151.1737982315979,156.93429588841514L151.5524010128479,157.06173564821682L151.9310037940979,157.3192300765987L152.30960657534789,157.36799931877098L152.6882093565979,157.2900825863361L153.0668121378479,157.29226036697534L153.44541491909789,156.98998916087623L153.82401770034792,156.94948835250136L154.2026204815979,157.04344331460914L154.5812232628479,156.9152766556598L154.9598260440979,156.5724638610284L155.3384288253479,156.56964055606554L155.71703160659789,157.02771827200175L156.0956343878479,157.26341522246395L156.4742371690979,156.85045531166134L156.85283995034789,156.9571791526996L157.23144273159792,157.01364197754157L157.6100455128479,156.84038031628026L157.9886482940979,157.10227695261514L158.3672510753479,157.40509843820655L158.7458538565979,157.5758086349592L159.12445663784789,157.59513405090422L159.5030594190979,157.2536398866361L159.8816622003479,157.26967943801384L160.26026498159789,156.99202557012526L160.63886776284792,157.2591400279368L161.0174705440979,157.42665289473157L161.3960733253479,157.27899558009574L161.7746761065979,157.22464155531515L162.1532788878479,156.79607516371576L162.53188166909788,157.09092117313162L162.9104844503479,157.06509937095416L163.2890872315979,157.3252668630126L163.66769001284788,157.34708493742514L164.04629279409792,157.442851347614L164.4248955753479,157.52540437337598L164.8034983565979,157.48902486165633L165.1821011378479,157.49666991571522L165.5607039190979,157.21308183890864L165.93930670034788,157.3244604997097L166.3179094815979,157.4939514284976L166.69651226284788,157.62632667456225L167.07511504409788,157.6999956080716L167.45371782534792,157.62291832769165L167.8323206065979,157.68799025756348L168.2109233878479,157.43328766760013L168.5895261690979,157.42806273195615L168.9681289503479,157.61144125512243L169.34673173159788,157.6864148469878L169.7253345128479,157.23757926287647L170.10393729409788,156.9701235449588L170.48254007534788,156.89582124706376L170.86114285659792,157.10573134002223L171.2397456378479,157.22866095064387L171.6183484190979,157.44095925169128L171.9969512003479,157.54391649851615L172.3755539815979,157.6289350196109L172.75415676284788,157.62129753086225L173.1327595440979,157.44284430472686L173.51136232534787,157.4023568530024L173.88996510659788,157.48416969599367L174.26856788784792,157.1137589571822L174.6471706690979,156.81293310541912L175.0257734503479,156.9183048193918L175.4043762315979,156.66003350375738L175.7829790128479,156.59210899086142L176.16158179409788,156.67980963372267L176.5401845753479,156.70990115558115L176.91878735659787,156.9228913061604L177.2973901378479,157.16675105291964L177.67599291909792,157.09290351987343L178.0545957003479,156.7962089665781L178.4331984815979,156.6230070749073L178.8118012628479,156.49927322632448L179.1904040440979,156.8302859127456L179.56900682534788,156.72994828903688L179.9476096065979,156.98280480951925L180.32621238784787,157.06463099422194L180.7048151690979,156.82659081851673L181.08341795034792,156.93707387578593L181.4620207315979,156.90783282465702L181.8406235128479,157.1234654777176L182.2192262940979,156.81134412064634L182.5978290753479,156.794746766851L182.97643185659788,156.74918485428435L183.3550346378479,156.18191752068333L183.73363741909787,156.1659734349019L184.1122402003479,156.69796685966082L184.49084298159792,156.45364439728348L184.8694457628479,156.20884099918567L185.2480485440979,156.19168634652186L185.6266513253479,156.5684331601833L186.0052541065979,156.4954381639268L186.38385688784788,156.52545971993823L186.7624596690979,156.29626248905439L187.14106245034787,156.2493184835197L187.5196652315979,156.51788728044093L187.89826801284792,156.59379205136173L188.2768707940979,156.41380334015128L188.6554735753479,156.30129219389434L189.0340763565979,156.71450361614177L189.4126791378479,156.48778573899213L189.79128191909788,156.86450345138547L190.1698847003479,156.61567340594104L190.54848748159787,156.85134666080324L190.9270902628479,157.01665948436602L191.30569304409792,157.08396193611028L191.6842958253479,157.28328374876355L192.0628986065979,157.13365404526434L192.4415013878479,157.23018388763424L192.8201041690979,157.35544207535116L193.19870695034788,157.42451348617863L193.5773097315979,156.8862826259631L193.95591251284787,157.05548354740168L194.3345152940979,157.18045746744752L194.71311807534792,157.06064154599986L195.0917208565979,157.23814520014346L195.4703236378479,157.18841645310147L195.8489264190979,157.37486574539494L196.2275292003479,157.3940757941459L196.60613198159788,157.4542158522223L196.9847347628479,157.5098224280722L197.3633375440979,157.24360680727258L197.7419403253479,157.22854196046657L198.12054310659792,157.15236859017116L198.4991458878479,156.96357237279162L198.8777486690979,156.28521729105861L199.2563514503479,156.29548927720603L199.6349542315979,156.71515851239062L200.01355701284788,156.49279444516412L200.3921597940979,156.28519979649207L200.7707625753479,156.15113816836586L201.1493653565979,156.19391319111762L201.52796813784792,156.14022950155538L201.9065709190979,156.48857387340794L202.2851737003479,156.55363127998723L202.6637764815979,156.50394039758805L203.0423792628479,156.85818614335184L203.42098204409788,156.85384646054052L203.7995848253479,157.02248496005475L204.1781876065979,156.6640448212372L204.5567903878479,157.04466454784992L204.93539316909792,157.2689436008521L205.3139959503479,157.46663706439293L205.6925987315979,157.56337210580614L206.0712015128479,157.60666156666002L206.4498042940979,157.61634508970405L206.82840707534788,157.4358441649613L207.2070098565979,157.47491078966848L207.5856126378479,157.5197391826443L207.9642154190979,157.50657215830498L208.34281820034792,157.53645848651237L208.7214209815979,157.02679918006706L209.1000237628479,156.95477472148923L209.4786265440979,156.72816422993503L209.8572293253479,156.77535081622986L210.23583210659788,156.95610121944503L210.6144348878479,156.6485215912843L210.9930376690979,156.6987605436942L211.3716404503479,156.9391103279559L211.75024323159792,156.68192717302654L212.1288460128479,156.16329886235175L212.5074487940979,156.0128639868063L212.8860515753479,156.5405795482598L213.2646543565979,156.83531772612153L213.64325713784788,156.57098022340477L214.0218599190979,156.5595694481419L214.4004627003479,156.6986797888523L214.7790654815979,156.3377196999101L215.15766826284792,156.1758681699711L215.5362710440979,156.5455774452454L215.9148738253479,156.76586779503552L216.2934766065979,157.01841976076878L216.6720793878479,157.18889988425965L217.05068216909788,157.18011259543454L217.4292849503479,156.8110852790762L217.8078877315979,156.55789836625843L218.1864905128479,156.40406972992446L218.5650932940979,156.2956814665395L218.9436960753479,156.07642178421645L219.3222988565979,156.08109862528568L219.7009016378479,156.00078378322232L220.0795044190979,156.41573730252267L220.45810720034788,156.39653934212564L220.83670998159792,156.20498535280518L221.2153127628479,156.3921631003156L221.5939155440979,156.73841295319713L221.9725183253479,157.0046798764423L222.3511211065979,157.02844694100676L222.7297238878479,157.13921992825559L223.1083266690979,157.1428512355414L223.4869294503479,156.98379866459345L223.86553223159788,156.74511297003562L224.24413501284792,156.3541447846549L224.6227377940979,156.39622655440945L225.0013405753479,156.11819466255523L225.3799433565979,156.31893982909452L225.7585461378479,156.53370651270754L226.1371489190979,156.8622322481528L226.5157517003479,157.01838611876852L226.8943544815979,157.17456001983012L227.27295726284788,157.2050809690323L227.65156004409792,156.9619750401244L228.0301628253479,156.92318178932672L228.4087656065979,156.94417065312953L228.7873683878479,157.07880515843436L229.1659711690979,156.8673280917092L229.5445739503479,156.38662700639824L229.9231767315979,156.37631652497635L230.3017795128479,156.66390297680744L230.68038229409788,156.27078028094965L231.05898507534792,156.71474726865844L231.4375878565979,156.976450959066L231.8161906378479,157.1513086644525L232.1947934190979,157.26117309197974L232.5733962003479,157.2981925843586L232.9519989815979,157.3364717426724L233.3306017628479,157.38520723725415L233.7092045440979,157.42346075436646L234.08780732534788,157.3691358586512L234.46641010659792,157.4124919060131L234.8450128878479,157.4387518437101L235.2236156690979,157.46141121436395L235.6022184503479,115.30339292356061L235.9808212315979,75.99437009003208L236.35942401284788,52.23912445439863L236.7380267940979,38.21017250329073L237.1166295753479,29.73035349493105L237.49523235659788,24.334244828311817L237.87383513784792,21.394337180798754L238.2524379190979,19.607246268183136L238.6310407003479,18.43864767708985L239.0096434815979,17.650288289162432L239.3882462628479,17.177765274965726L239.76684904409788,16.976633485313027L240.1454518253479,16.816153531175086L240.5240546065979,16.882605136588456L240.90265738784788,16.93675528986918L241.28126016909792,16.710357458201525L241.6598629503479,15.348296689243872L242.0384657315979,14.565550275249723L242.4170685128479,14.499512235858363L242.7956712940979,15.324806135517141L243.17427407534788,28.927037256618476L243.5528768565979,80.28890805696147L243.9314796378479,111.12727049493091L244.3100824190979,129.61424748762389L244.68868520034792,140.76994773644742L245.0672879815979,147.46059774986801L245.4458907628479,151.44944919710812L245.8244935440979,153.9065339243387L246.2030963253479,155.33309860927537L246.58169910659788,156.25348947316846L246.9603018878479,156.6907076801068L247.3389046690979,156.98642869514023L247.7175074503479,157.22051243852906L248.09611023159792,157.29460089118743L248.4747130128479,157.441812169882L248.8533157940979,157.51690571798056L249.2319185753479,157.5387480407374L249.6105213565979,157.54424821361323L249.98912413784788,157.4562451788027L250.3677269190979,157.52564650172636L250.7463297003479,157.58565926847865L251.1249324815979,157.55439075412983L251.50353526284792,157.620505124082L251.8821380440979,157.630660495766L252.2607408253479,157.6695735867934L252.6393436065979,157.63534917781632L253.0179463878479,157.6510692339663L253.39654916909788,157.6770782196011L253.7751519503479,157.68098560723828L254.1537547315979,157.68805040533474L254.5323575128479,157.72746089971733L254.91096029409792,157.73546487002565L255.2895630753479,157.66220745509196L255.6681658565979,157.70587837596847L256.0467686378479,157.69556304717963L256.42537141909787,157.7493653430021L256.8039742003479,157.80312961343935L257.1825769815979,157.81520768525144L257.56117976284787,157.82789020299435L257.9397825440979,157.7667085684637L258.3183853253479,157.6504889277453L258.6969881065979,157.6019869787787L259.0755908878479,157.61854750096595L259.4541936690979,157.65425856207122L259.83279645034787,157.7032313488825L260.2113992315979,157.74823372859245L260.5900020128479,157.70176413492462L260.96860479409787,157.64575250932353L261.3472075753479,157.13431227922547L261.7258103565979,157.22771084324538L262.1044131378479,157.4559032977839L262.4830159190979,156.73455914596923L262.8616187003479,156.56797587131683" fill="none"></path></g></g></g></g><g opacity="0.2"><g><g><g><path style="fill: none;" stroke="rgb(0, 153, 136)" stroke-width="2px" d="M28.8850998878479,-64.17729999054389L29.263702669097903,18.637885797363918L29.642305450347898,16.739263012075202L30.0209082315979,17.812243594859677L30.3995110128479,140.6747033614267L30.7781137940979,158.1829911826346L31.1567165753479,158.16091613518918L31.5353193565979,158.22730154726221L31.9139221378479,158.21009363866895L32.2925249190979,158.1705407546524L32.6711277003479,158.12156569715606L33.049730481597905,158.0774830842598L33.4283332628479,158.0378374125008L33.806936044097895,157.97384761123195L34.1855388253479,157.90548835082026L34.5641416065979,157.75453112916094L34.9427443878479,157.63297075134844L35.3213471690979,157.59456506123806L35.6999499503479,157.4638186969265L36.0785527315979,157.45666560551126L36.457155512847905,157.3361849396105L36.8357582940979,157.31201795033613L37.2143610753479,157.1293526265189L37.5929638565979,157.04256234636395L37.9715666378479,156.97416090970572L38.3501694190979,156.791563067883L38.728772200347905,156.7604960446727L39.1073749815979,156.60301837529641L39.485977762847895,156.48344871632116L39.864580544097905,156.38837502134336L40.2431833253479,156.33120090151735L40.6217861065979,156.2773671404182L41.0003888878479,156.15868318262054L41.3789916690979,156.03947623936565L41.7575944503479,156.05312447274991L42.136197231597905,155.92626675837047L42.5148000128479,155.7328802326797L42.8934027940979,155.6589368372245L43.2720055753479,155.64496806436645L43.6506083565979,155.5504932720897L44.0292111378479,155.5051706775448L44.4078139190979,155.45311675405017L44.7864167003479,155.38281738629712L45.165019481597895,155.3739772450198L45.543622262847904,155.1665713349751L45.9222250440979,155.29179261098832L46.3008278253479,155.25670197385696L46.6794306065979,155.30504438765502L47.05803338784791,155.37734290949467L47.4366361690979,155.4379839167873L47.8152389503479,155.4215520511306L48.1938417315979,155.50485857332032L48.572444512847895,155.51075481258832L48.951047294097904,155.48701802102877L49.3296500753479,155.57468556711203L49.7082528565979,155.54965818240797L50.0868556378479,155.6008938867195L50.46545841909791,155.71456730642674L50.8440612003479,155.6165159684424L51.2226639815979,155.72106244839577L51.6012667628479,155.6998899726266L51.979869544097895,155.68955679222134L52.358472325347904,155.78677304052397L52.7370751065979,155.83992354642896L53.1156778878479,155.7913871218968L53.4942806690979,155.9513953660662L53.872883450347906,155.897097666255L54.2514862315979,155.86193111187984L54.630089012847904,155.86386278397194L55.0086917940979,155.887152507318L55.387294575347894,155.8702398324506L55.765897356597904,155.82585355057918L56.1445001378479,155.75816067486303L56.5231029190979,155.77176673200074L56.9017057003479,155.7734369113642L57.280308481597906,155.04748248521057L57.6589112628479,155.76494261530863L58.037514044097904,155.81281265514528L58.4161168253479,155.800387532911L58.7947196065979,155.6527706699786L59.173322387847904,155.68293512151266L59.5519251690979,155.83460090411407L59.9305279503479,154.90732238266855L60.3091307315979,155.31951927547172L60.6877335128479,154.8690094803006L61.0663362940979,152.40943418061943L61.444939075347904,154.10211878924346L61.8235418565979,155.31923247699515L62.2021446378479,154.62303761040866L62.580747419097904,155.05680343569858L62.9593502003479,155.47912262767423L63.3379529815979,154.9157913729762L63.7165557628479,154.95922447167558L64.0951585440979,154.8618816946333L64.4737613253479,154.0934051767058L64.8523641065979,154.94762600387375L65.2309668878479,154.57043539570887L65.60956966909791,155.35978072043034L65.9881724503479,154.91089049312686L66.3667752315979,154.50402467788788L66.7453780128479,155.937966449164L67.1239807940979,155.78853600762986L67.5025835753479,155.9235253023446L67.8811863565979,155.88296862366005L68.2597891378479,155.67035816479083L68.6383919190979,155.83546973479307L69.01699470034791,155.75372373372576L69.3955974815979,155.87153042559513L69.7742002628479,155.96695840104394L70.1528030440979,155.95957755789732L70.5314058253479,156.01456694815195L70.9100086065979,155.60789514364714L71.2886113878479,156.00057286954598L71.6672141690979,156.02973352641212L72.0458169503479,155.94042954196266L72.4244197315979,156.10961533738183L72.8030225128479,156.0402522823022L73.1816252940979,156.11775535296638L73.5602280753479,155.92596308939528L73.93883085659789,156.0228419277255L74.31743363784791,156.08366007525365L74.69603641909791,156.0345163127711L75.0746392003479,156.0184640333334L75.4532419815979,156.11487893295154L75.8318447628479,155.9703325007681L76.2104475440979,155.89266916036703L76.5890503253479,156.11253393364322L76.9676531065979,156.1197713775516L77.34625588784789,155.9101301264396L77.72485866909791,156.1006992788607L78.10346145034791,155.97304865104607L78.4820642315979,155.12447944091608L78.8606670128479,156.0947946043434L79.2392697940979,155.9639470170401L79.6178725753479,155.86393870121574L79.9964753565979,155.92261429541904L80.3750781378479,155.86543174034367L80.75368091909789,155.9693624470974L81.13228370034791,155.74238675865254L81.51088648159791,155.94835867631446L81.8894892628479,156.03304014414178L82.2680920440979,156.02396381588377L82.64669482534791,155.9815851233482L83.0252976065979,156.0471270104902L83.4039003878479,156.01350410673885L83.7825031690979,155.87337774519412L84.16110595034789,156.02254669399963L84.53970873159791,156.09186757283268L84.91831151284791,156.17417873560382L85.2969142940979,156.06118013584137L85.6755170753479,155.67918987081885L86.05411985659791,155.74743103774017L86.4327226378479,156.0074644682326L86.8113254190979,156.05745175564616L87.1899282003479,156.14727872555287L87.56853098159789,156.26393822351602L87.94713376284791,156.0044699547274L88.32573654409791,156.09767102435828L88.7043393253479,155.64644423299578L89.0829421065979,156.11758664798018L89.46154488784791,155.6825471000444L89.8401476690979,154.8986003348816L90.2187504503479,155.12580377505785L90.59735323159789,156.3448575701509L90.97595601284789,156.2844864908362L91.35455879409791,68.85021722728571L91.7331615753479,16.291266921198616L92.1117643565979,16.657289259276506L92.4903671378479,16.79437893106952L92.8689699190979,16.256614917031396L93.2475727003479,16.687689897791284L93.6261754815979,16.324029429520312L94.00477826284789,16.40976530351145L94.3833810440979,16.918377095932744L94.76198382534791,16.464543812533332L95.1405866065979,16.187378390691453L95.5191893878479,16.821979066813224L95.8977921690979,16.435880835376526L96.2763949503479,16.361903698924113L96.6549977315979,16.382924340205687L97.0336005128479,15.941018499331221L97.41220329409789,16.299938357489737L97.7908060753479,16.475644600625856L98.1694088565979,16.02920059562238L98.5480116378479,16.265370705815617L98.9266144190979,68.46887647646008L99.3052172003479,156.19970380001715L99.6838199815979,155.41239137037948L100.0624227628479,154.69511681576623L100.4410255440979,156.13344491668377L100.81962832534789,86.11074490574784L101.1982311065979,14.491117236359779L101.5768338878479,16.17798152295963L101.9554366690979,15.613680214590923L102.3340394503479,16.14631559704831L102.7126422315979,16.531519692058094L103.0912450128479,16.653172857613033L103.4698477940979,16.215687087377223L103.8484505753479,16.288382065934456L104.22705335659789,16.607622511336746L104.6056561378479,15.995898231344844L104.9842589190979,14.70849361108939L105.3628617003479,16.736108228833114L105.7414644815979,156.4497245895781L106.12006726284791,156.5771812066586L106.4986700440979,156.55545200443495L106.8772728253479,156.5823857554831L107.2558756065979,156.57924784273965L107.63447838784789,156.60419087495055L108.0130811690979,156.59889353838363L108.3916839503479,156.61278639399788L108.77028673159789,156.60004073228984L109.1488895128479,156.64939537600512L109.52749229409791,156.51943348987945L109.9060950753479,156.42655295972236L110.2846978565979,156.60734565819266L110.6633006378479,156.52939551931505L111.04190341909789,156.5885097464825L111.4205062003479,156.71238981785538L111.7991089815979,156.57593278976063L112.17771176284789,156.50334746944444L112.5563145440979,156.63913811284365L112.93491732534791,156.6800490719992L113.3135201065979,156.50858575926623L113.6921228878479,156.7132249075371L114.0707256690979,156.14009189314038L114.44932845034789,156.362875262678L114.8279312315979,156.50602144347587L115.2065340128479,156.47706323259317L115.58513679409789,156.45443989394263L115.96373957534789,156.54089276412515L116.34234235659791,156.58959789364351L116.7209451378479,156.5431787166883L117.0995479190979,156.47040782088723L117.4781507003479,156.56832419488265L117.8567534815979,156.5366413984727L118.2353562628479,156.51436390504387L118.6139590440979,156.50243646251894L118.99256182534789,156.53338539223887L119.37116460659789,156.6338154705288L119.74976738784791,156.46019273397232L120.1283701690979,156.69142822331898L120.5069729503479,156.6856163365441L120.8855757315979,156.58352451414L121.2641785128479,156.6687795789205L121.6427812940979,156.76214935353755L122.0213840753479,156.73901146467907L122.39998685659789,156.69799084728245L122.77858963784789,156.78009112882083L123.15719241909791,156.86979156998788L123.5357952003479,156.86963973550027L123.9143979815979,157.03290398590352L124.2930007628479,156.95740006932593L124.6716035440979,156.93738322271227L125.0502063253479,156.95168940554277L125.4288091065979,156.9794498110234L125.80741188784789,157.0465606545371L126.18601466909789,156.95057595263378L126.56461745034791,157.05276899802956L126.9432202315979,157.07705408079428L127.3218230128479,157.08389506798503L127.7004257940979,157.13071070165788L128.0790285753479,157.10155004479176L128.45763135659791,157.14219951121868L128.8362341378479,157.24233435578273L129.2148369190979,157.15406790699845L129.59343970034791,157.18007378062248L129.9720424815979,157.18375154932184L130.3506452628479,157.22922597835432L130.7292480440979,157.16799450360995L131.1078508253479,157.29141063627074L131.4864536065979,157.33130936550904L131.86505638784791,157.129192356782L132.2436591690979,157.23113234469847L132.6222619503479,157.25031410163038L133.00086473159791,157.3796517793071L133.3794675128479,157.32413940359518L133.7580702940979,157.2372225947006L134.1366730753479,157.3680617467546L134.5152758565979,157.3673531858125L134.8938786378479,157.33955903933466L135.27248141909791,157.38105203069264L135.6510842003479,157.2976021092646L136.0296869815979,157.33998080180018L136.40828976284791,157.28216560302653L136.7868925440979,157.33162990498286L137.1654953253479,157.33299641537113L137.5440981065979,157.37842866815708L137.9227008878479,156.53848028282235L138.3013036690979,155.4536144337595L138.67990645034791,156.2572743765608L139.0585092315979,156.22802936720154L139.4371120128479,156.20223437481027L139.81571479409791,156.04971663202852L140.1943175753479,156.2976117387632L140.5729203565979,157.02011614794893L140.9515231378479,156.83198478257853L141.3301259190979,156.34092674397223L141.7087287003479,156.97254134183814L142.08733148159791,157.41171416193603L142.4659342628479,157.0584459208155L142.8445370440979,157.37354465880637L143.22313982534791,156.9918749332576L143.6017426065979,157.34935236378405L143.9803453878479,157.32563244272316L144.35894816909789,157.4312080230924L144.7375509503479,157.42631557849236L145.1161537315979,157.48236781016013L145.4947565128479,157.41011146456705L145.8733592940979,157.41143579870877L146.2519620753479,156.94052957070508L146.63056485659789,157.51858033544977L147.0091676378479,157.11168077921357L147.3877704190979,156.97505504613264L147.7663732003479,157.4329035082038L148.1449759815979,155.2146522560445L148.5235787628479,156.90742121716167L148.90218154409789,157.208104114081L149.2807843253479,156.32030255940825L149.6593871065979,157.5088882339921L150.03798988784789,156.47866592996215L150.4165926690979,157.17659002265728L150.7951954503479,156.77211138297318L151.1737982315979,157.0248061465655L151.5524010128479,157.25289528791936L151.9310037940979,157.70547171917153L152.30960657534789,157.4411531820294L152.6882093565979,157.1732074876838L153.0668121378479,157.29552703793425L153.44541491909789,156.5365823517275L153.82401770034792,156.88873713993908L154.2026204815979,157.1843757577708L154.5812232628479,156.7230266672358L154.9598260440979,156.05824466908135L155.3384288253479,156.56540559862125L155.71703160659789,157.7148348459061L156.0956343878479,157.61696064815723L156.4742371690979,156.23101544545742L156.85283995034789,157.11726491425705L157.23144273159792,157.09833621480448L157.6100455128479,156.58048782438826L157.9886482940979,157.49512190711746L158.3672510753479,157.85933066659365L158.7458538565979,157.83187393008822L159.12445663784789,157.6241221748218L159.5030594190979,156.7413986402339L159.8816622003479,157.29373876508043L160.26026498159789,156.57554476829236L160.63886776284792,157.65981171465418L161.0174705440979,157.67792219492367L161.3960733253479,157.05750960814203L161.7746761065979,157.1431105181442L162.1532788878479,156.15322557631671L162.53188166909788,157.53319018725543L162.9104844503479,157.02636666768794L163.2890872315979,157.71551810110023L163.66769001284788,157.37981204904398L164.04629279409792,157.5865009628973L164.4248955753479,157.6492339120189L164.8034983565979,157.43445559407692L165.1821011378479,157.50813749680347L165.5607039190979,156.7876997236988L165.93930670034788,157.49152849091124L166.3179094815979,157.7481878216795L166.69651226284788,157.82488954365917L167.07511504409788,157.8104990083356L167.45371782534792,157.50730240712173L167.8323206065979,157.78559815237122L168.2109233878479,157.0512337826551L168.5895261690979,157.42022532849023L168.9681289503479,157.8865090398718L169.34673173159788,157.7988752347858L169.7253345128479,156.5643258867095L170.10393729409788,156.5689399680823L170.48254007534788,156.7843678002212L170.86114285659792,157.42059647945987L171.2397456378479,157.41305536657637L171.6183484190979,157.75940670326236L171.9969512003479,157.69835236875352L172.3755539815979,157.75646280125304L172.75415676284788,157.60984129773922L173.1327595440979,157.1751644655238L173.51136232534787,157.3416256754157L173.88996510659788,157.60688896048057L174.26856788784792,156.55814284896496L174.6471706690979,156.36169432777453L175.0257734503479,157.07636239035082L175.4043762315979,156.27262653030576L175.7829790128479,156.49022222151743L176.16158179409788,156.81136059801455L176.5401845753479,156.75503843836887L176.91878735659787,157.24237653202928L177.2973901378479,157.53254067305852L177.67599291909792,156.98213222030407L178.0545957003479,156.3511671366351L178.4331984815979,156.36320423740108L178.8118012628479,156.31367245345027L179.1904040440979,157.3268049423773L179.56900682534788,156.57944185347378L179.9476096065979,157.3620895902428L180.32621238784787,157.187370271276L180.7048151690979,156.46953055495896L181.08341795034792,157.10279846168967L181.4620207315979,156.8639712479637L181.8406235128479,157.4469144573084L182.2192262940979,156.3431620850395L182.5978290753479,156.76985073615796L182.97643185659788,156.6808419854344L183.3550346378479,155.3310165202818L183.73363741909787,156.1420573062297L184.1122402003479,157.4959569967992L184.49084298159792,156.08716070371747L184.8694457628479,155.84163590203897L185.2480485440979,156.16595436752615L185.6266513253479,157.1335533806755L186.0052541065979,156.385945669542L186.38385688784788,156.5704920539554L186.7624596690979,155.95246664272864L187.14106245034787,156.17890247521765L187.5196652315979,156.92074047582284L187.89826801284792,156.7076492077429L188.2768707940979,156.1438202733356L188.6554735753479,156.13252547450892L189.0340763565979,157.3343207495129L189.4126791378479,156.1477089232677L189.79128191909788,157.42958001997548L190.1698847003479,156.24242833777444L190.54848748159787,157.2048565430965L190.9270902628479,157.26462871971015L191.30569304409792,157.18491561372664L191.6842958253479,157.58226646774347L192.0628986065979,156.90920949001546L192.4415013878479,157.37497865118914L192.8201041690979,157.54332935692653L193.19870695034788,157.52812060241988L193.5773097315979,156.0789363356398L193.95591251284787,157.30928492955954L194.3345152940979,157.36791834751628L194.71311807534792,156.8809176638283L195.0917208565979,157.50440068135893L195.4703236378479,157.11382333253843L195.8489264190979,157.65453968383517L196.2275292003479,157.42289086727234L196.60613198159788,157.5444259393369L196.9847347628479,157.59323229184702L197.3633375440979,156.84428337607315L197.7419403253479,157.20594469025755L198.12054310659792,157.03810853472805L198.4991458878479,156.68037804672232L198.8777486690979,155.26768466845917L199.2563514503479,156.31089725642713L199.6349542315979,157.34466236516747L200.01355701284788,156.15924834432437L200.3921597940979,155.973807823484L200.7707625753479,155.95004572617654L201.1493653565979,156.25807572524528L201.52796813784792,156.05970396721204L201.9065709190979,157.01109043118677L202.2851737003479,156.65121738985616L202.6637764815979,156.42940407398928L203.0423792628479,157.38955476199752L203.42098204409788,156.8473369363235L203.7995848253479,157.27544270932614L204.1781876065979,156.12638461301094L204.5567903878479,157.61559413776897L204.93539316909792,157.6053621803554L205.3139959503479,157.76317725970412L205.6925987315979,157.70847466792603L206.0712015128479,157.67159575794085L206.4498042940979,157.63087037427013L206.82840707534788,157.16509277784715L207.2070098565979,157.53351072672922L207.5856126378479,157.58698177210798L207.9642154190979,157.48682162179603L208.34281820034792,157.58128797882344L208.7214209815979,156.2623102203991L209.1000237628479,156.84673803362247L209.4786265440979,156.3882484926037L209.8572293253479,156.84613069567214L210.23583210659788,157.22722682426775L210.6144348878479,156.18715214904321L210.9930376690979,156.77411897230903L211.3716404503479,157.2996350043484L211.75024323159792,156.29615244063254L212.1288460128479,155.38535639633957L212.5074487940979,155.78721167348814L212.8860515753479,157.33215289044009L213.2646543565979,157.2774249929141L213.64325713784788,156.17447396932968L214.0218599190979,156.54245328524757L214.4004627003479,156.90734529991786L214.7790654815979,155.79627956649685L215.15766826284792,155.9330908750626L215.5362710440979,157.1001413581569L215.9148738253479,157.09630331972065L216.2934766065979,157.39724770936866L216.6720793878479,157.44462006949598L217.05068216909788,157.16693166219684L217.4292849503479,156.2575443045387L217.8078877315979,156.17811799703176L218.1864905128479,156.17332677542345L218.5650932940979,156.13309907146206L218.9436960753479,155.7475322607319L219.3222988565979,156.08811388688954L219.7009016378479,155.88031152012726L220.0795044190979,157.03816758147323L220.45810720034788,156.36774240153008L220.83670998159792,155.91765436882451L221.2153127628479,156.6729297215812L221.5939155440979,157.2577877325194L221.9725183253479,157.4040802613101L222.3511211065979,157.06409753785348L222.7297238878479,157.30537940912882L223.1083266690979,157.1482981964701L223.4869294503479,156.74521980817153L223.86553223159788,156.3870844281989L224.24413501284792,155.7676925065838L224.6227377940979,156.45934920904128L225.0013405753479,155.70114682477387L225.3799433565979,156.62005757890347L225.7585461378479,156.85585653812703L226.1371489190979,157.35502085132066L226.5157517003479,157.25261692469212L226.8943544815979,157.40882087142253L227.27295726284788,157.25086239283556L227.65156004409792,156.59731614676255L228.0301628253479,156.86499191313024L228.4087656065979,156.9756539488337L228.7873683878479,157.2807569163917L229.1659711690979,156.55011249162143L229.5445739503479,155.66557537843184L229.9231767315979,156.3608508028435L230.3017795128479,157.0952826545541L230.68038229409788,155.68109623716302L231.05898507534792,157.38069775022157L231.4375878565979,157.36900649467734L231.8161906378479,157.41359522253222L232.1947934190979,157.42596973327065L232.5733962003479,157.35372182292687L232.9519989815979,157.39389048014309L233.3306017628479,157.4583104791268L233.7092045440979,157.48084103003495L234.08780732534788,157.2876485150783L234.46641010659792,157.47752597705593L234.8450128878479,157.47814175025562L235.2236156690979,157.49540027034473L235.6022184503479,52.0663654873556L235.9808212315979,17.030835839739307L236.35942401284788,16.606256000948445L236.7380267940979,17.166744576628844L237.1166295753479,17.010624982391523L237.49523235659788,16.240081828382966L237.87383513784792,16.98447570952921L238.2524379190979,16.926609899259706L238.6310407003479,16.685749790449886L239.0096434815979,16.467749207271293L239.3882462628479,16.46898075367062L239.76684904409788,16.674935800833925L240.1454518253479,16.575433599968164L240.5240546065979,16.9822825447085L240.90265738784788,17.01798051979021L241.28126016909792,16.370760710700058L241.6598629503479,13.305205535807355L242.0384657315979,13.391430654258519L242.4170685128479,14.400455176771365L242.7956712940979,16.562746985005294L243.17427407534788,49.33038393827045L243.5528768565979,157.33171425747597L243.9314796378479,157.38481415188508L244.3100824190979,157.34471297666332L244.68868520034792,157.50349810968274L245.0672879815979,157.4965727699989L245.4458907628479,157.43272636796829L245.8244935440979,157.5921610151846L246.2030963253479,157.47294563668038L246.58169910659788,157.6340757690081L246.9603018878479,157.34653499051436L247.3389046690979,157.43001021769032L247.7175074503479,157.57163805361233L248.09611023159792,157.40573357017493L248.4747130128479,157.66262908792388L248.8533157940979,157.6295460401284L249.2319185753479,157.57151152487268L249.6105213565979,157.552498472927L249.98912413784788,157.32424062658694L250.3677269190979,157.62974848611182L250.7463297003479,157.67567841860708L251.1249324815979,157.50748798260656L251.50353526284792,157.71967667901026L251.8821380440979,157.64589355329198L252.2607408253479,157.72794322333448L252.6393436065979,157.58401256435073L253.0179463878479,157.67464931819123L253.39654916909788,157.71609169805333L253.7751519503479,157.6868466886941L254.1537547315979,157.69864760247938L254.5323575128479,157.78657664129125L254.91096029409792,157.7474708254881L255.2895630753479,157.55232133269146L255.6681658565979,157.77138475728316L256.0467686378479,157.68009005399645L256.42537141909787,157.83006878673578L256.8039742003479,157.88377601909522L257.1825769815979,157.8333247929696L257.56117976284787,157.84691397960867L257.9397825440979,157.6749361166678L258.3183853253479,157.47615946666767L258.6969881065979,157.52923405532883L259.0755908878479,157.6433882842468L259.4541936690979,157.70782515372912L259.83279645034787,157.7766905290994L260.2113992315979,157.81573729815736L260.5900020128479,157.6320597444229L260.96860479409787,157.5617350709219L261.3472075753479,156.36715193407835L261.7258103565979,157.36780868927528L262.1044131378479,157.79819197959168L262.4830159190979,155.65254291824724L262.8616187003479,156.31810095933824" fill="none"></path></g></g></g></g></g></g><g transform="translate(41, 176)" clip-path="url(#clip_1)"><clipPath id="clip_1"><rect width="288" height="23"></rect></clipPath><g><g><line x1="0" y1="0" x2="0" y2="5" style="visibility: inherit;" fill="rgb(0, 0, 0)" stroke="rgb(204, 204, 204)" stroke-width="1px"></line><line x1="28.8850998878479" y1="0" x2="28.8850998878479" y2="5" style="visibility: inherit;" fill="rgb(0, 0, 0)" stroke="rgb(204, 204, 204)" stroke-width="1px"></line><line x1="57.7701997756958" y1="0" x2="57.7701997756958" y2="5" style="visibility: inherit;" fill="rgb(0, 0, 0)" stroke="rgb(204, 204, 204)" stroke-width="1px"></line><line x1="86.6552996635437" y1="0" x2="86.6552996635437" y2="5" style="visibility: inherit;" fill="rgb(0, 0, 0)" stroke="rgb(204, 204, 204)" stroke-width="1px"></line><line x1="115.5403995513916" y1="0" x2="115.5403995513916" y2="5" style="visibility: inherit;" fill="rgb(0, 0, 0)" stroke="rgb(204, 204, 204)" stroke-width="1px"></line><line x1="144.4254994392395" y1="0" x2="144.4254994392395" y2="5" style="visibility: inherit;" fill="rgb(0, 0, 0)" stroke="rgb(204, 204, 204)" stroke-width="1px"></line><line x1="173.3105993270874" y1="0" x2="173.3105993270874" y2="5" style="visibility: inherit;" fill="rgb(0, 0, 0)" stroke="rgb(204, 204, 204)" stroke-width="1px"></line><line x1="202.1956992149353" y1="0" x2="202.1956992149353" y2="5" style="visibility: inherit;" fill="rgb(0, 0, 0)" stroke="rgb(204, 204, 204)" stroke-width="1px"></line><line x1="231.0807991027832" y1="0" x2="231.0807991027832" y2="5" style="visibility: inherit;" fill="rgb(0, 0, 0)" stroke="rgb(204, 204, 204)" stroke-width="1px"></line><line x1="259.9658989906311" y1="0" x2="259.9658989906311" y2="5" style="visibility: inherit;" fill="rgb(0, 0, 0)" stroke="rgb(204, 204, 204)" stroke-width="1px"></line><line x1="288.850998878479" y1="0" x2="288.850998878479" y2="5" style="visibility: inherit;" fill="rgb(0, 0, 0)" stroke="rgb(204, 204, 204)" stroke-width="1px"></line></g><g transform="translate(0, 8)"><text style="text-anchor: middle; visibility: hidden; font-family: Roboto, sans-serif; font-size: 12px; font-weight: 200;" x="0" y="0" dx="0em" dy="0.95em" fill="rgb(33, 33, 33)" stroke="none" stroke-width="1px">-10M</text><text style="text-anchor: middle; visibility: inherit; font-family: Roboto, sans-serif; font-size: 12px; font-weight: 200;" x="28.8850998878479" y="0" dx="0em" dy="0.95em" fill="rgb(33, 33, 33)" stroke="none" stroke-width="1px">0</text><text style="text-anchor: middle; visibility: hidden; font-family: Roboto, sans-serif; font-size: 12px; font-weight: 200;" x="57.7701997756958" y="0" dx="0em" dy="0.95em" fill="rgb(33, 33, 33)" stroke="none" stroke-width="1px">10M</text><text style="text-anchor: middle; visibility: inherit; font-family: Roboto, sans-serif; font-size: 12px; font-weight: 200;" x="86.6552996635437" y="0" dx="0em" dy="0.95em" fill="rgb(33, 33, 33)" stroke="none" stroke-width="1px">20M</text><text style="text-anchor: middle; visibility: hidden; font-family: Roboto, sans-serif; font-size: 12px; font-weight: 200;" x="115.5403995513916" y="0" dx="0em" dy="0.95em" fill="rgb(33, 33, 33)" stroke="none" stroke-width="1px">30M</text><text style="text-anchor: middle; visibility: inherit; font-family: Roboto, sans-serif; font-size: 12px; font-weight: 200;" x="144.4254994392395" y="0" dx="0em" dy="0.95em" fill="rgb(33, 33, 33)" stroke="none" stroke-width="1px">40M</text><text style="text-anchor: middle; visibility: hidden; font-family: Roboto, sans-serif; font-size: 12px; font-weight: 200;" x="173.3105993270874" y="0" dx="0em" dy="0.95em" fill="rgb(33, 33, 33)" stroke="none" stroke-width="1px">50M</text><text style="text-anchor: middle; visibility: inherit; font-family: Roboto, sans-serif; font-size: 12px; font-weight: 200;" x="202.1956992149353" y="0" dx="0em" dy="0.95em" fill="rgb(33, 33, 33)" stroke="none" stroke-width="1px">60M</text><text style="text-anchor: middle; visibility: hidden; font-family: Roboto, sans-serif; font-size: 12px; font-weight: 200;" x="231.0807991027832" y="0" dx="0em" dy="0.95em" fill="rgb(33, 33, 33)" stroke="none" stroke-width="1px">70M</text><text style="text-anchor: middle; visibility: inherit; font-family: Roboto, sans-serif; font-size: 12px; font-weight: 200;" x="259.9658989906311" y="0" dx="0em" dy="0.95em" fill="rgb(33, 33, 33)" stroke="none" stroke-width="1px">80M</text><text style="text-anchor: middle; visibility: hidden; font-family: Roboto, sans-serif; font-size: 12px; font-weight: 200;" x="288.850998878479" y="0" dx="0em" dy="0.95em" fill="rgb(33, 33, 33)" stroke="none" stroke-width="1px">90M</text></g><line x1="0" y1="0" x2="288.850998878479" y2="0" fill="rgb(0, 0, 0)" stroke="rgb(204, 204, 204)" stroke-width="1px"></line></g></g></g></g></svg>