<svg viewBox="0 0 330 200" xmlns="http://www.w3.org/2000/svg"><g><g><g><g><g><line x1="72.29800224304199" y1="176.89999961853027" x2="67.29800224304199" y2="176.89999961853027" style="visibility: inherit;" fill="rgb(0, 0, 0)" stroke="rgb(204, 204, 204)" stroke-width="1px"></line><line x1="72.29800224304199" y1="157.24444410536023" x2="67.29800224304199" y2="157.24444410536023" style="visibility: inherit;" fill="rgb(0, 0, 0)" stroke="rgb(204, 204, 204)" stroke-width="1px"></line><line x1="72.29800224304199" y1="137.58888859219022" x2="67.29800224304199" y2="137.58888859219022" style="visibility: inherit;" fill="rgb(0, 0, 0)" stroke="rgb(204, 204, 204)" stroke-width="1px"></line><line x1="72.29800224304199" y1="117.9333330790202" x2="67.29800224304199" y2="117.9333330790202" style="visibility: inherit;" fill="rgb(0, 0, 0)" stroke="rgb(204, 204, 204)" stroke-width="1px"></line><line x1="72.29800224304199" y1="98.27777756585016" x2="67.29800224304199" y2="98.27777756585016" style="visibility: inherit;" fill="rgb(0, 0, 0)" stroke="rgb(204, 204, 204)" stroke-width="1px"></line><line x1="72.29800224304199" y1="78.62222205268012" x2="67.29800224304199" y2="78.62222205268012" style="visibility: inherit;" fill="rgb(0, 0, 0)" stroke="rgb(204, 204, 204)" stroke-width="1px"></line><line x1="72.29800224304199" y1="58.9666665395101" x2="67.29800224304199" y2="58.9666665395101" style="visibility: inherit;" fill="rgb(0, 0, 0)" stroke="rgb(204, 204, 204)" stroke-width="1px"></line><line x1="72.29800224304199" y1="39.31111102634006" x2="67.29800224304199" y2="39.31111102634006" style="visibility: inherit;" fill="rgb(0, 0, 0)" stroke="rgb(204, 204, 204)" stroke-width="1px"></line><line x1="72.29800224304199" y1="19.65555551317004" x2="67.29800224304199" y2="19.65555551317004" style="visibility: inherit;" fill="rgb(0, 0, 0)" stroke="rgb(204, 204, 204)" stroke-width="1px"></line><line x1="72.29800224304199" y1="0" x2="67.29800224304199" y2="0" style="visibility: inherit;" fill="rgb(0, 0, 0)" stroke="rgb(204, 204, 204)" stroke-width="1px"></line></g><g transform="translate(62.29800224304199, 0)"><text style="text-anchor: end; visibility: hidden; font-family: Roboto, sans-serif; font-size: 12px; font-weight: 200;" x="0" y="176.89999961853027" dx="0em" dy="0.3em" fill="rgb(33, 33, 33)" stroke="none" stroke-width="1px">2e+4</text><text style="text-anchor: end; visibility: inherit; font-family: Roboto, sans-serif; font-size: 12px; font-weight: 200;" x="0" y="157.24444410536023" dx="0em" dy="0.3em" fill="rgb(33, 33, 33)" stroke="none" stroke-width="1px">4e+4</text><text style="text-anchor: end; visibility: hidden; font-family: Roboto, sans-serif; font-size: 12px; font-weight: 200;" x="0" y="137.58888859219022" dx="0em" dy="0.3em" fill="rgb(33, 33, 33)" stroke="none" stroke-width="1px">6e+4</text><text style="text-anchor: end; visibility: inherit; font-family: Roboto, sans-serif; font-size: 12px; font-weight: 200;" x="0" y="117.9333330790202" dx="0em" dy="0.3em" fill="rgb(33, 33, 33)" stroke="none" stroke-width="1px">8e+4</text><text style="text-anchor: end; visibility: hidden; font-family: Roboto, sans-serif; font-size: 12px; font-weight: 200;" x="0" y="98.27777756585016" dx="0em" dy="0.3em" fill="rgb(33, 33, 33)" stroke="none" stroke-width="1px">1e+5</text><text style="text-anchor: end; visibility: inherit; font-family: Roboto, sans-serif; font-size: 12px; font-weight: 200;" x="0" y="78.62222205268012" dx="0em" dy="0.3em" fill="rgb(33, 33, 33)" stroke="none" stroke-width="1px">1.2e+5</text><text style="text-anchor: end; visibility: hidden; font-family: Roboto, sans-serif; font-size: 12px; font-weight: 200;" x="0" y="58.9666665395101" dx="0em" dy="0.3em" fill="rgb(33, 33, 33)" stroke="none" stroke-width="1px">1.4e+5</text><text style="text-anchor: end; visibility: inherit; font-family: Roboto, sans-serif; font-size: 12px; font-weight: 200;" x="0" y="39.31111102634006" dx="0em" dy="0.3em" fill="rgb(33, 33, 33)" stroke="none" stroke-width="1px">1.6e+5</text><text style="text-anchor: end; visibility: hidden; font-family: Roboto, sans-serif; font-size: 12px; font-weight: 200;" x="0" y="19.65555551317004" dx="0em" dy="0.3em" fill="rgb(33, 33, 33)" stroke="none" stroke-width="1px">1.8e+5</text><text style="text-anchor: end; visibility: hidden; font-family: Roboto, sans-serif; font-size: 12px; font-weight: 200;" x="0" y="0" dx="0em" dy="0.3em" fill="rgb(33, 33, 33)" stroke="none" stroke-width="1px">2e+5</text></g><line x1="72.29800224304199" y1="0" x2="72.29800224304199" y2="176.89999961853027" fill="rgb(0, 0, 0)" stroke="rgb(204, 204, 204)" stroke-width="1px"></line></g></g><g transform="translate(72, 0)" clip-path="url(#clip_0)"><clipPath id="clip_0"><rect width="257" height="176"></rect></clipPath><g><g><g><line x1="0" y1="0" x2="0" y2="176.89999961853027" fill="rgb(0, 0, 0)" stroke="rgb(66, 66, 66)" stroke-width="1px" opacity="0.25"></line><line x1="25.7701997756958" y1="0" x2="25.7701997756958" y2="176.89999961853027" fill="rgb(0, 0, 0)" stroke="rgb(66, 66, 66)" stroke-width="1px" opacity="0.25"></line><line x1="51.5403995513916" y1="0" x2="51.5403995513916" y2="176.89999961853027" fill="rgb(0, 0, 0)" stroke="rgb(66, 66, 66)" stroke-width="1px" opacity="0.25"></line><line x1="77.3105993270874" y1="0" x2="77.3105993270874" y2="176.89999961853027" fill="rgb(0, 0, 0)" stroke="rgb(66, 66, 66)" stroke-width="1px" opacity="0.25"></line><line x1="103.0807991027832" y1="0" x2="103.0807991027832" y2="176.89999961853027" fill="rgb(0, 0, 0)" stroke="rgb(66, 66, 66)" stroke-width="1px" opacity="0.25"></line><line x1="128.850998878479" y1="0" x2="128.850998878479" y2="176.89999961853027" fill="rgb(0, 0, 0)" stroke="rgb(66, 66, 66)" stroke-width="1px" opacity="0.25"></line><line x1="154.6211986541748" y1="0" x2="154.6211986541748" y2="176.89999961853027" fill="rgb(0, 0, 0)" stroke="rgb(66, 66, 66)" stroke-width="1px" opacity="0.25"></line><line x1="180.3913984298706" y1="0" x2="180.3913984298706" y2="176.89999961853027" fill="rgb(0, 0, 0)" stroke="rgb(66, 66, 66)" stroke-width="1px" opacity="0.25"></line><line x1="206.1615982055664" y1="0" x2="206.1615982055664" y2="176.89999961853027" fill="rgb(0, 0, 0)" stroke="rgb(66, 66, 66)" stroke-width="1px" opacity="0.25"></line><line x1="231.9317979812622" y1="0" x2="231.9317979812622" y2="176.89999961853027" fill="rgb(0, 0, 0)" stroke="rgb(66, 66, 66)" stroke-width="1px" opacity="0.25"></line><line x1="257.701997756958" y1="0" x2="257.701997756958" y2="176.89999961853027" fill="rgb(0, 0, 0)" stroke="rgb(66, 66, 66)" stroke-width="1px" opacity="0.25"></line></g><g><line x1="0" y1="176.89999961853027" x2="257.701997756958" y2="176.89999961853027" fill="rgb(0, 0, 0)" stroke="rgb(66, 66, 66)" stroke-width="1px" opacity="0.25"></line><line x1="0" y1="157.24444410536023" x2="257.701997756958" y2="157.24444410536023" fill="rgb(0, 0, 0)" stroke="rgb(66, 66, 66)" stroke-width="1px" opacity="0.25"></line><line x1="0" y1="137.58888859219022" x2="257.701997756958" y2="137.58888859219022" fill="rgb(0, 0, 0)" stroke="rgb(66, 66, 66)" stroke-width="1px" opacity="0.25"></line><line x1="0" y1="117.9333330790202" x2="257.701997756958" y2="117.9333330790202" fill="rgb(0, 0, 0)" stroke="rgb(66, 66, 66)" stroke-width="1px" opacity="0.25"></line><line x1="0" y1="98.27777756585016" x2="257.701997756958" y2="98.27777756585016" fill="rgb(0, 0, 0)" stroke="rgb(66, 66, 66)" stroke-width="1px" opacity="0.25"></line><line x1="0" y1="78.62222205268012" x2="257.701997756958" y2="78.62222205268012" fill="rgb(0, 0, 0)" stroke="rgb(66, 66, 66)" stroke-width="1px" opacity="0.25"></line><line x1="0" y1="58.9666665395101" x2="257.701997756958" y2="58.9666665395101" fill="rgb(0, 0, 0)" stroke="rgb(66, 66, 66)" stroke-width="1px" opacity="0.25"></line><line x1="0" y1="39.31111102634006" x2="257.701997756958" y2="39.31111102634006" fill="rgb(0, 0, 0)" stroke="rgb(66, 66, 66)" stroke-width="1px" opacity="0.25"></line><line x1="0" y1="19.65555551317004" x2="257.701997756958" y2="19.65555551317004" fill="rgb(0, 0, 0)" stroke="rgb(66, 66, 66)" stroke-width="1px" opacity="0.25"></line><line x1="0" y1="0" x2="257.701997756958" y2="0" fill="rgb(0, 0, 0)" stroke="rgb(66, 66, 66)" stroke-width="1px" opacity="0.25"></line></g></g></g><g><g><line x1="0" y1="196.55555513170032" x2="257.701997756958" y2="196.55555513170032" fill="rgb(0, 0, 0)" stroke="rgb(153, 153, 153)" stroke-width="1.5px"></line></g></g><g><g><line x1="25.7701997756958" y1="0" x2="25.7701997756958" y2="176.89999961853027" fill="rgb(0, 0, 0)" stroke="rgb(153, 153, 153)" stroke-width="1.5px"></line></g></g><g><g><g><g><g><path style="fill: none;" stroke="rgb(0, 153, 136)" stroke-width="2px" d="M25.7701997756958,178.07889530609225L26.107974938195802,172.2362310432466L26.4457501006958,170.61055729460975L26.7835252631958,169.80787726966895L27.1213004256958,134.05162118480962L27.4590755881958,81.42732269708847L27.7968507506958,51.53033858727806L28.1346259131958,34.16333716146058L28.472401075695803,23.780690876217022L28.8101762381958,17.913786339563924L29.147951400695803,14.47439099980622L29.4857265631958,12.51982859092802L29.8235017256958,11.532970268201678L30.1612768881958,11.058348117620392L30.4990520506958,11.081573267211349L30.8368272131958,11.480244558350565L31.1746023756958,12.116245186424784L31.5123775381958,12.576609584166118L31.8501527006958,13.21982059614852L32.1879278631958,13.647583839232308L32.525703025695805,14.269949835598673L32.8634781881958,14.7025984056283L33.2012533506958,15.465542085496638L33.5390285131958,16.063989742479542L33.876803675695804,16.668831515187556L34.2145788381958,17.63422842138798L34.55235400069581,18.265896759155275L34.8901291631958,19.07020083400504L35.227904325695796,19.944813161963193L35.565679488195805,20.647199047627645L35.9034546506958,21.26822652999808L36.2412298131958,21.713734371649387L36.579004975695796,22.33063155252676L36.916780138195804,23.02101413193483L37.2545553006958,23.27372413671417L37.5923304631958,23.84328867493324L37.9301056256958,24.657368823092757L38.267880788195804,25.31562248194515L38.6056559506958,25.877204647926416L38.9434311131958,26.468349418728263L39.2812062756958,26.88309014520567L39.618981438195796,27.199506695349353L39.956756600695805,27.57543945485167L40.2945317631958,27.784494586210776L40.6323069256958,28.440492531969692L40.9700820881958,28.477054275823473L41.307857250695804,28.574339665724576L41.6456324131958,28.579948017831132L41.98340757569581,28.498511591776637L42.3211827381958,28.427340680637048L42.658957900695796,28.18315026285941L42.996733063195805,27.832433217494458L43.3345082256958,27.605688879200144L43.6722833881958,27.58770459888604L44.0100585506958,27.34139747912198L44.347833713195804,27.200744488498227L44.6856088756958,27.025015784598732L45.0233840381958,26.683638187767833L45.3611592006958,26.633568417530036L45.6989343631958,26.337445614988912L46.0367095256958,26.23421120760929L46.3744846881958,26.193781111746276L46.7122598506958,25.92916632210785L47.050035013195796,25.62857033057509L47.387810175695805,25.589235204101332L47.7255853381958,25.160361142979898L48.0633605006958,25.03775096990543L48.4011356631958,24.992372161138828L48.738910825695804,24.942154018289564L49.0766859881958,24.872325052804513L49.4144611506958,24.933109523986502L49.7522363131958,24.983197821249636L50.090011475695796,25.258552132411907L50.427786638195805,25.36218140674208L50.7655618006958,25.41573509635875L51.1033369631958,27.370997573342823L51.4411121256958,26.65974009831906L51.778887288195804,26.10047031497945L52.1166624506958,25.851411316316923L52.45443761319581,26.16990098555481L52.7922127756958,26.149605429914523L53.1299879381958,25.759439479289867L53.467763100695805,28.90535223148747L53.8055382631958,29.43836184406031L54.1433134256958,30.54021916894538L54.481088588195796,38.664670839449045L54.818863750695805,37.660574028039385L55.1566389131958,34.376023256005084L55.4944140756958,35.64432564343871L55.8321892381958,34.690955666401265L56.1699644006958,33.003634463833855L56.5077395631958,32.56496283827849L56.8455147256958,32.72090844190247L57.1832898881958,32.912415751782376L57.521065050695796,35.29964362933802L57.858840213195805,33.610850126490746L58.1966153756958,33.95576676838131L58.5343905381958,33.03813642955183L58.8721657006958,32.29995823360313L59.209940863195804,32.798165456365595L59.5477160256958,29.548967186563186L59.8854911881958,27.953444779473926L60.2232663506958,26.706132040706827L60.561041513195796,25.99569190430919L60.898816675695805,26.53554137247059L61.2365918381958,26.211462669348105L61.5743670006958,25.997108055156424L61.9121421631958,25.59597715181241L62.249917325695804,25.10624429437085L62.5876924881958,24.835573565967064L62.9254676506958,24.568099899984702L63.2632428131958,25.508762916770728L63.6010179756958,25.03556237838543L63.9387931381958,24.60879530566227L64.2765683006958,24.56788968656442L64.6143434631958,24.114646364641253L64.9521186256958,24.004582298221617L65.2898937881958,24.066581375454856L65.6276689506958,24.31106093940337L65.9654441131958,24.145305195807357L66.30321927569581,23.947985510277434L66.6409944381958,23.94458484107263L66.9787696006958,23.96331790478273L67.3165447631958,23.770778771225995L67.65431992569579,24.349907192371788L67.99209508819581,24.61807407856363L68.3298702506958,24.262377072503835L68.6676454131958,23.87810909493082L69.0054205756958,24.234727317537494L69.3431957381958,23.94754915148771L69.6809709006958,24.105572289339957L70.0187460631958,26.580379111363513L70.3565212256958,25.398667696439045L70.6942963881958,25.042580916167744L71.0320715506958,25.053278587104487L71.3698467131958,24.902274617089333L71.70762187569579,24.969635335434027L72.0453970381958,24.723504478864342L72.38317220069581,25.448182515124675L72.7209473631958,25.076540321258825L73.0587225256958,24.626723751956217L73.3964976881958,24.4117526609507L73.7342728506958,24.414492940091087L74.07204801319581,24.21175618440495L74.4098231756958,24.531934164762745L74.7475983381958,24.737830553642134L75.0853735006958,24.421249787224387L75.4231486631958,24.083393272137148L75.7609238256958,23.679216061435902L76.09869898819579,23.684639998369416L76.4364741506958,24.695720684745115L76.77424931319581,25.501424592669075L77.1120244756958,24.955663623670574L77.4497996381958,24.480606105089773L77.7875748006958,24.160584705127825L78.12534996319579,23.965918365156394L78.46312512569581,24.07841290095687L78.8009002881958,23.819381706474612L79.1386754506958,24.934418247462276L79.4764506131958,24.34844523726114L79.8142257756958,26.006003176807937L80.1520009381958,29.229441081562896L80.4897761006958,29.48980870302508L80.8275512631958,26.447548293216304L81.1653264256958,24.84676291143011L81.5031015881958,77.48018429508635L81.8408767506958,114.13765408308107L82.1786519131958,136.10786518379484L82.5164270756958,149.2812819761863L82.85420223819581,157.22105448817612L83.1919774006958,161.9553740062844L83.5297525631958,164.8205658733463L83.8675277256958,166.53424653960215L84.2053028881958,167.52837711998467L84.54307805069581,168.15718578585282L84.8808532131958,168.5501516654614L85.2186283756958,168.74369938949818L85.5564035381958,168.89056977341994L85.8941787006958,168.97969627981246L86.2319538631958,169.03202432991785L86.56972902569579,169.09377747632186L86.9075041881958,169.10413773401348L87.24527935069581,169.10087238647876L87.5830545131958,169.12869441574094L87.9208296756958,169.12842934210218L88.2586048381958,164.10361929312916L88.59638000069579,107.5348074590909L88.93415516319581,77.29494401040839L89.2719303256958,59.33693064218685L89.6097054881958,44.85216722994858L89.9474806506958,86.60701446531682L90.2852558131958,119.73126937333402L90.6230309756958,139.49584411048215L90.9608061381958,151.3914200855041L91.2985813006958,158.49573435591842L91.6363564631958,162.73101167734046L91.9741316256958,165.2637545897431L92.3119067881958,166.81351786923778L92.6496819506958,167.73675974623706L92.9874571131958,168.27037365720267L93.32523227569581,168.63139254405857L93.6630074381958,168.9313449671382L94.0007826006958,168.9791658253508L94.3385577631958,109.79715349096466L94.6763329256958,74.03210446588469L95.0141080881958,52.53033650231777L95.3518832506958,39.63925706096164L95.6896584131958,31.832805194913902L96.0274335756958,27.140568179469973L96.3652087381958,24.301147914699992L96.7029839006958,22.56015634272409L97.0407590631958,21.54715770502594L97.3785342256958,20.777144908173526L97.71630938819581,20.720920031270353L98.0540845506958,20.942136087217605L98.3918597131958,20.662529020286193L98.7296348756958,20.63209568955341L99.06741003819579,20.437519215799533L99.40518520069581,19.975775335763387L99.7429603631958,20.578315116956066L100.0807355256958,20.61541175720457L100.4185106881958,20.232746870699128L100.7562858506958,19.957915591671174L101.0940610131958,20.249904069796933L101.4318361756958,20.008061549932805L101.7696113381958,21.327921444577463L102.1073865006958,21.496025330626118L102.4451616631958,21.169680305537657L102.7829368256958,21.077458068039L103.1207119881958,21.043285159521957L103.45848715069579,20.88415446679397L103.79626231319581,20.61379074597878L104.1340374756958,20.613171891613415L104.4718126381958,20.756408981462275L104.8095878006958,20.568555489434218L105.1473629631958,20.541013373200425L105.4851381256958,20.63923969349048L105.8229132881958,20.66167757602096L106.1606884506958,20.64297890283085L106.4984636131958,20.32130634194737L106.8362387756958,20.62684140156443L107.1740139381958,20.214365695563902L107.5117891006958,19.930671053291668L107.8495642631958,20.104862597046765L108.18733942569581,19.888537433713875L108.5251145881958,19.507962016810502L108.8628897506958,19.399306815021482L109.2006649131958,19.45553588813067L109.53844007569579,19.32816534276028L109.87621523819581,18.97746816543507L110.2139904006958,18.70492601889611L110.5517655631958,18.0467563917616L110.8895407256958,17.81858286512137L111.2273158881958,17.8009265474912L111.5650910506958,17.847432145678848L111.90286621319581,17.73009937643244L112.2406413756958,17.476546791668408L112.5784165381958,17.539551438262723L112.9161917006958,17.402948025206513L113.2539668631958,17.128005276400067L113.5917420256958,16.973285085427435L113.92951718819579,16.757685599580793L114.26729235069581,16.797074994514475L114.6050675131958,16.654072517250697L114.9428426756958,16.351967784831096L115.2806178381958,16.377475247016807L115.6183930006958,16.231088210787984L115.9561681631958,16.160313325819484L116.2939433256958,15.976875065281288L116.6317184881958,16.06353965020078L116.9694936506958,15.756179565121844L117.3072688131958,15.496820566319423L117.6450439756958,15.902586259577413L117.9828191381958,15.777804985354042L118.3205943006958,15.784936741476534L118.65836946319581,15.469782306255539L118.9961446256958,15.317912353376014L119.3339197881958,15.499928894948189L119.6716949506958,15.166581702790245L120.00947011319579,15.04027557830877L120.34724527569581,15.023863965991882L120.6850204381958,15.075047498470145L121.0227956006958,15.181714055293282L121.3605707631958,15.087413059173002L121.6983459256958,15.226067408996466L122.0361210881958,15.188402921928947L122.3738962506958,15.15144953180272L122.7116714131958,14.947500463396747L123.04944657569581,19.841019949036852L123.3872217381958,23.573083360926727L123.7249969006958,23.774636110371407L124.0627720631958,24.338745255610334L124.40054722569579,26.281718308738146L124.73832238819581,26.619094184067873L125.0760975506958,25.32432533402208L125.4138727131958,23.95774207734959L125.7516478756958,21.910554518353646L126.0894230381958,23.38016353269381L126.4271982006958,21.193819572914034L126.76497336319581,18.523888019419264L127.1027485256958,18.025901789802894L127.4405236881958,16.71394601602346L127.7782988506958,17.680736047973504L128.1160740131958,16.693039962885404L128.4538491756958,16.002365659266204L128.7916243381958,15.436189476727558L129.1293995006958,15.030797357623753L129.4671746631958,14.717477746034819L129.80494982569581,14.890583103302815L130.1427249881958,15.185701015167863L130.4805001506958,16.239409538174247L130.81827531319578,15.16236297510845L131.1560504756958,16.90719651127952L131.4938256381958,17.255912874071058L131.8316008006958,16.128749187683347L132.16937596319582,23.10639185865121L132.5071511256958,21.618694990829137L132.8449262881958,21.778871419948995L133.1827014506958,22.99069417432052L133.5204766131958,19.358941124537317L133.85825177569578,20.844053383988186L134.19602693819579,19.405863703014898L134.53380210069582,19.443198906378477L134.8715772631958,20.626236012004906L135.2093524256958,18.639789020778384L135.5471275881958,17.374249347034688L135.8849027506958,16.15906407154926L136.2226779131958,17.47429652337733L136.5604530756958,16.683596150658722L136.8982282381958,18.31433506137687L137.2360034006958,18.67376968344814L137.57377856319582,19.05823482438248L137.9115537256958,20.496631090366503L138.2493288881958,22.954213506240656L138.5871040506958,22.13335647113165L138.9248792131958,18.239147392818357L139.2626543756958,17.71837759469268L139.60042953819578,20.77262368425166L139.9382047006958,19.118957592032555L140.2759798631958,18.654288477230203L140.6137550256958,20.47416595173982L140.95153018819582,17.847666729186294L141.2893053506958,15.254487777708968L141.6270805131958,13.675822958954985L141.9648556756958,13.8141266903618L142.3026308381958,17.135619679166744L142.6404060006958,18.619307595075583L142.97818116319579,19.759010767693933L143.31595632569582,16.959204859332687L143.6537314881958,16.000631062760483L143.9915066506958,16.429117876402923L144.3292818131958,17.246823261990567L144.6670569756958,20.447591341665632L145.0048321381958,17.770243070913228L145.3426073006958,17.935438465752565L145.6803824631958,16.698309615259923L146.01815762569578,16.10443789144988L146.35593278819582,15.14977517789856L146.69370795069582,14.534337279026362L147.0314831131958,14.825961882027912L147.3692582756958,14.689555790333658L147.7070334381958,16.57168295747083L148.0448086006958,15.572895258869911L148.38258376319578,14.17233320740946L148.7203589256958,13.157927605380802L149.0581340881958,12.861752295573117L149.3959092506958,13.94869783612805L149.73368441319582,13.073683778337607L150.0714595756958,16.237347453764613L150.4092347381958,15.598081008242612L150.7470099006958,13.840818935558364L151.0847850631958,14.763331472407085L151.4225602256958,18.451040168313227L151.76033538819578,21.11304666613787L152.0981105506958,20.534779822996093L152.4358857131958,18.186976301286798L152.7736608756958,18.124091647164644L153.11143603819582,15.747417314596209L153.4492112006958,14.488398943861718L153.7869863631958,13.574809838428807L154.1247615256958,14.22159130314783L154.4625366881958,16.692074153183114L154.80031185069578,16.111476457930543L155.1380870131958,15.23970882454656L155.47586217569582,18.606286125017398L155.8136373381958,21.500308916609477L156.1514125006958,21.052873669190657L156.4891876631958,23.121900321254316L156.8269628256958,23.920912754418744L157.16473798819578,22.227023868309498L157.5025131506958,21.318703956549932L157.8402883131958,21.32827508121499L158.1780634756958,19.966249071463494L158.51583863819582,19.16918041001359L158.8536138006958,21.607676234631754L159.1913889631958,23.3120149615213L159.52916412569581,24.397737100296695L159.8669392881958,21.09092847195864L160.2047144506958,22.0472529761151L160.54248961319578,21.012136039717312L160.8802647756958,20.68242263419482L161.2180399381958,21.193939019907226L161.5558151006958,20.998594126723283L161.89359026319582,21.46008359928726L162.2313654256958,20.101825477323946L162.5691405881958,22.365188576674456L162.9069157506958,22.58919758803573L163.2446909131958,23.008037310211336L163.5824660756958,26.44952379635959L163.92024123819579,25.936214898469302L164.25801640069582,22.036975296646048L164.5957915631958,24.099102779532483L164.9335667256958,25.61441938672032L165.2713418881958,25.723001720815034L165.6091170506958,22.78887919371177L165.9468922131958,23.665376578013415L166.2846673756958,23.837831266300988L166.6224425381958,25.28040022221923L166.96021770069578,25.717112655722676L167.29799286319582,24.174084459994983L167.6357680256958,24.32998032842019L167.9735431881958,25.488959520788907L168.3113183506958,25.760302995457845L168.6490935131958,21.712016874062325L168.9868686756958,22.641344277316477L169.32464383819578,20.529765419469236L169.6624190006958,22.73927778129197L170.0001941631958,20.21329482474702L170.3379693256958,18.80870980058066L170.67574448819582,17.967009129828586L171.0135196506958,16.37539276444274L171.3512948131958,18.194792321172972L171.6890699756958,16.978605716437745L172.0268451381958,15.817521876054586L172.3646203006958,15.33278302970105L172.70239546319578,19.89442341628609L173.0401706256958,18.446684598233336L173.3779457881958,17.095202586220672L173.7157209506958,18.645989797531424L174.05349611319582,17.40990394843429L174.3912712756958,17.208700364893936L174.7290464381958,15.513955186913964L175.0668216006958,15.399740328179533L175.4045967631958,14.710323126083317L175.74237192569578,14.213953627920652L176.08014708819582,17.071450540274412L176.41792225069582,16.835245365504313L176.7556974131958,18.49394043384312L177.0934725756958,19.637305082165845L177.4312477381958,24.043819554108797L177.7690229006958,23.657658511169746L178.10679806319578,20.359738221879475L178.4445732256958,22.82649532344116L178.7823483881958,24.98118967320116L179.1201235506958,26.351043775946557L179.45789871319582,26.178151718905696L179.7956738756958,26.703578531935563L180.1334490381958,23.33164896103791L180.47122420069581,22.286348962918435L180.8089993631958,22.19301385178443L181.1467745256958,19.396168416014433L181.48454968819578,20.03175344817429L181.8223248506958,18.467573013332224L182.1601000131958,21.021899963644973L182.4978751756958,18.033595518581574L182.83565033819582,16.19987671274249L183.1734255006958,14.535715256843963L183.5112006631958,13.828378584065923L183.8489758256958,13.473686236498759L184.1867509881958,13.423373133163581L184.52452615069578,14.730948521749948L184.8623013131958,14.44374387874064L185.20007647569582,14.174764898699081L185.5378516381958,14.402403950807482L185.8756268006958,14.28434351803827L186.2134019631958,18.970065699508545L186.5511771256958,19.947604967206445L186.8889522881958,21.014461165678284L187.2267274506958,21.493559030941924L187.5645026131958,20.000869368522192L187.90227777569578,21.45051960073521L188.24005293819582,22.07477499753693L188.5778281006958,20.86825377722185L188.9156032631958,23.375499388759547L189.25337842569581,26.3669615163642L189.5911535881958,27.386463982099055L189.9289287506958,22.761888618664877L190.26670391319578,20.37070313936057L190.6044790756958,22.186252938519104L190.9422542381958,23.244447189609108L191.2800294006958,22.8485772702637L191.61780456319582,25.85484235680039L191.9555797256958,25.689249878246926L192.2933548881958,23.709582527114023L192.6311300506958,21.161009581174234L192.9689052131958,18.94369410328878L193.3066803756958,17.30881569221414L193.64445553819579,17.63862550732618L193.9822307006958,21.00287397289874L194.3200058631958,23.109252673580638L194.6577810256958,24.55443310540426L194.9955561881958,25.122961191531186L195.3333313506958,25.88353988258057L195.6711065131958,26.48675095106021L196.0088816756958,26.750571800692857L196.3466568381958,24.477306249743677L196.68443200069578,24.85548637027851L197.02220716319582,25.689824816289548L197.35998232569582,23.79952611127418L197.6977574881958,20.688661378638606L198.0355326506958,18.549734966728018L198.3733078131958,18.192352339807098L198.7110829756958,17.115565977319715L199.04885813819578,17.37748254675818L199.3866333006958,18.26630440003791L199.7244084631958,21.450560711150278L200.0621836256958,24.58542833892757L200.39995878819582,24.89220918287732L200.7377339506958,26.887021171453572L201.0755091131958,24.650715479641605L201.41328427569582,22.44557407336062L201.7510594381958,19.703014149319685L202.0888346006958,18.189907500165123L202.42660976319578,17.091962004137827L202.7643849256958,16.864781566701854L203.1021600881958,18.69290480347638L203.4399352506958,18.831809966356868L203.77771041319582,18.616615887645615L204.1154855756958,17.9707671706998L204.4532607381958,20.512850923798243L204.7910359006958,24.16467872315485L205.1288110631958,23.786898717336168L205.46658622569578,22.8118085835144L205.8043613881958,25.27992564941523L206.14213655069582,21.35910526171511L206.4799117131958,19.022122490867176L206.8176868756958,17.39842086008606L207.1554620381958,16.419636107321683L207.4932372006958,16.033803987867554L207.8310123631958,15.719825091372948L208.1687875256958,15.201371837521272L208.5065626881958,14.974634503083974L208.84433785069578,15.266149573721792L209.18211301319582,15.010417679533141L209.5198881756958,14.755291755044794L209.8576633381958,14.595428891338646L210.19543850069581,73.40225108949903L210.5332136631958,111.64530171668464L210.8709888256958,134.6181630885974L211.20876398819578,148.36496278595666L211.5465391506958,156.62221929185242L211.88431431319577,161.62820434718824L212.2220894756958,164.5832684243312L212.55986463819582,166.35856188493503L212.8976398006958,167.43921517567367L213.2354149631958,168.10394966961286L213.5731901256958,168.50281647101104L213.9109652881958,168.72743327497193L214.2487404506958,168.86888240724727L214.5865156131958,168.9245073376304L214.9242907756958,168.95727573770182L215.2620659381958,169.02094449162553L215.5998411006958,169.2958646627401L215.9376162631958,169.44110132187495L216.2753914256958,169.44114156580758L216.6131665881958,169.32608780920353L216.9509417506958,166.52702941963508L217.2887169131958,106.83137991117468L217.62649207569578,70.02193746518212L217.96426723819582,48.33144079881779L218.30204240069583,34.51880784238739L218.6398175631958,26.288352026739318L218.9775927256958,21.596503922235712L219.3153678881958,18.448632647056698L219.6531430506958,16.75212893014587L219.99091821319578,15.22331738860112L220.3286933756958,15.64688332189393L220.6664685381958,15.213876945851382L221.0042437006958,14.54300174611234L221.34201886319582,14.503895562985202L221.6797940256958,13.80518981289838L222.0175691881958,13.480005911254578L222.3553443506958,13.387632701991231L222.6931195131958,14.10602342754229L223.0308946756958,14.589845314148024L223.36866983819579,13.904921916964444L223.7064450006958,13.355254937981197L224.0442201631958,13.684087846393192L224.3819953256958,13.268932766372178L224.71977048819582,13.083536002944426L225.0575456506958,12.954399104648617L225.3953208131958,13.295254752963485L225.7330959756958,13.022383837426272L226.0708711381958,12.752674847360263L226.40864630069578,12.722904074563681L226.7464214631958,12.665368100554597L227.08419662569582,12.333580808456855L227.4219717881958,12.245494755875512L227.7597469506958,12.942778973403584L228.0975221131958,12.623279949956029L228.4352972756958,12.761007646288212L228.77307243819578,12.355430976945852L229.1108476006958,11.907132812587998L229.4486227631958,11.83673644826727L229.78639792569578,11.638458088344622L230.12417308819582,12.330933827585687L230.4619482506958,13.156397304968479L230.7997234131958,13.390428489183709L231.13749857569582,13.148558929703887L231.4752737381958,12.86378447209492L231.8130489006958,12.476499846607343L232.15082406319578,12.187078821437856L232.4885992256958,13.183429290618664L232.82637438819577,13.892766422581133L233.1641495506958,18.816468872614372L233.50192471319582,17.236755637133598L233.8396998756958,15.693536349906818L234.1774750381958,21.651711259253524L234.5152502006958,22.996693431892414" fill="none"></path></g></g></g></g><g opacity="0.2"><g><g><g><path style="fill: none;" stroke="rgb(0, 153, 136)" stroke-width="2px" d="M25.7701997756958,178.07889530609225L26.107974938195802,168.73063248553916L26.4457501006958,169.0499104959184L26.7835252631958,168.86392556033854L27.1213004256958,87.36825324041727L27.4590755881958,8.628973141114571L27.7968507506958,8.777172958503334L28.1346259131958,8.842082359405024L28.472401075695803,8.468304330697153L28.8101762381958,9.202116855156422L29.147951400695803,9.346493052761755L29.4857265631958,9.598621619926398L29.8235017256958,10.055905047759742L30.1612768881958,10.347344725950727L30.4990520506958,11.116383691306252L30.8368272131958,12.077970321177117L31.1746023756958,13.069976994385165L31.5123775381958,13.267039294307427L31.8501527006958,14.184539127398372L32.1879278631958,14.28918960460324L32.525703025695805,15.203464698117797L32.8634781881958,15.35155702418735L33.2012533506958,16.609942542307085L33.5390285131958,16.961654138770864L33.876803675695804,17.576089875293107L34.2145788381958,19.08231966371172L34.55235400069581,19.213397649540173L34.8901291631958,20.276655711483457L35.227904325695796,21.256730848258897L35.565679488195805,21.70077748792636L35.9034546506958,22.199767547614215L36.2412298131958,22.38199604548513L36.579004975695796,23.2559772501977L36.916780138195804,24.056587951596253L37.2545553006958,23.652789133022562L37.5923304631958,24.697635467574987L37.9301056256958,25.87848903273691L38.267880788195804,26.30300296411316L38.6056559506958,26.719577893770396L38.9434311131958,27.355066572955582L39.2812062756958,27.50520123409016L39.618981438195796,27.67413152018422L39.956756600695805,28.139338593833816L40.2945317631958,28.098077283158904L40.6323069256958,29.424489450437484L40.9700820881958,28.531896891598414L41.307857250695804,28.720267750567196L41.6456324131958,28.58836054599054L41.98340757569581,28.376356952697698L42.3211827381958,28.320584313929086L42.658957900695796,27.81686463619587L42.996733063195805,27.306357649449506L43.3345082256958,27.26557237175969L43.6722833881958,27.560728178414873L44.0100585506958,26.971936799476214L44.347833713195804,26.989765002562773L44.6856088756958,26.76142272874961L45.0233840381958,26.171571792521576L45.3611592006958,26.55846376217338L45.6989343631958,25.89326141117728L46.0367095256958,26.079359596539863L46.3744846881958,26.133135967951688L46.7122598506958,25.53224413765024L47.050035013195796,25.17767634327593L47.387810175695805,25.530232514390672L47.7255853381958,24.51705005129775L48.0633605006958,24.853835710293716L48.4011356631958,24.92430394798899L48.738910825695804,24.8668268040157L49.0766859881958,24.767581604576947L49.4144611506958,25.02428623075949L49.7522363131958,25.0583302671444L50.090011475695796,25.671583599155316L50.427786638195805,25.51762531823731L50.7655618006958,25.49606563078381L51.1033369631958,30.303891288818907L51.4411121256958,25.592853885783423L51.778887288195804,25.261565639970048L52.1166624506958,25.477822818323133L52.45443761319581,26.647635489411645L52.7922127756958,26.119162096454037L53.1299879381958,25.174190553352908L53.467763100695805,33.6242213597839L53.8055382631958,30.237876262919606L54.1433134256958,32.19300515627299L54.481088588195796,50.85134834520453L54.818863750695805,36.154428810924955L55.1566389131958,29.449197097953657L55.4944140756958,37.546779224589145L55.8321892381958,33.26090070084516L56.1699644006958,30.472652659982764L56.5077395631958,31.90695539994538L56.8455147256958,32.95482684733851L57.1832898881958,33.19967671660218L57.521065050695796,38.88048544567144L57.858840213195805,31.077659872219797L58.1966153756958,34.473141731217176L58.5343905381958,31.661690921307596L58.8721657006958,31.192690939680066L59.209940863195804,33.54547629050927L59.5477160256958,24.675169781859555L59.8854911881958,25.56016116884004L60.2232663506958,24.835162932556198L60.561041513195796,24.930031699712735L60.898816675695805,27.345315574712725L61.2365918381958,25.725344614664383L61.5743670006958,25.67557613386893L61.9121421631958,24.994280796796406L62.249917325695804,24.371645008208517L62.5876924881958,24.429567473361402L62.9254676506958,24.16688940101118L63.2632428131958,26.919757441949834L63.6010179756958,24.32576157080747L63.9387931381958,23.96864469657755L64.2765683006958,24.506531257917647L64.6143434631958,23.434781381756565L64.9521186256958,23.839486198592187L65.2898937881958,24.159579991304703L65.6276689506958,24.677780285326143L65.9654441131958,23.896671580413322L66.30321927569581,23.65200598198258L66.6409944381958,23.939483837265445L66.9787696006958,23.99141750034789L67.3165447631958,23.481970070890924L67.65431992569579,25.218599824090475L67.99209508819581,25.020324407851373L68.3298702506958,23.728831563414136L68.6676454131958,23.3017071285713L69.0054205756958,24.769654651447468L69.3431957381958,23.51678190241306L69.6809709006958,24.342606996118363L70.0187460631958,30.29258934439884L70.3565212256958,23.62610057405234L70.6942963881958,24.50845074576074L71.0320715506958,25.069325093509597L71.3698467131958,24.6757686620666L71.70762187569579,25.070676412951126L72.0453970381958,24.354308194009793L72.38317220069581,26.535199569515225L72.7209473631958,24.519077030460036L73.0587225256958,23.951998898002337L73.3964976881958,24.089296024442373L73.7342728506958,24.4186033588017L74.07204801319581,23.907651050875742L74.4098231756958,25.012201135299435L74.7475983381958,25.046675136961206L75.0853735006958,23.9463786375978L75.4231486631958,23.576608499506282L75.7609238256958,23.07295024538404L76.09869898819579,23.69277590376966L76.4364741506958,26.212341714308657L76.77424931319581,26.70998045455498L77.1120244756958,24.137022170172802L77.4497996381958,23.768019827218513L77.7875748006958,23.68055260518492L78.12534996319579,23.673918855199222L78.46312512569581,24.247154704657525L78.8009002881958,23.430834914751184L79.1386754506958,26.606973058943773L79.4764506131958,23.46948572195951L79.8142257756958,28.492340086128156L80.1520009381958,34.064597938695385L80.4897761006958,29.880360135218343L80.8275512631958,21.884157678503122L81.1653264256958,22.445584838750786L81.5031015881958,156.4303163705707L81.8408767506958,169.12385876507315L82.1786519131958,169.06318183486547L82.5164270756958,169.04140716477355L82.85420223819581,169.13071325616082L83.1919774006958,169.05685328344683L83.5297525631958,169.1183536739392L83.8675277256958,169.10476753898587L84.2053028881958,169.01957299055846L84.54307805069581,169.100398784655L84.8808532131958,169.13960048487428L85.2186283756958,169.03402097555335L85.5564035381958,169.11087534930255L85.8941787006958,169.1133860394013L86.2319538631958,169.11051640507588L86.56972902569579,169.18640719592787L86.9075041881958,169.11967812055093L87.24527935069581,169.09597436517672L87.5830545131958,169.1704274596342L87.9208296756958,169.12803173164403L88.2586048381958,156.5664042196696L88.59638000069579,22.681589708033528L88.93415516319581,31.93514883738458L89.2719303256958,32.39991058985458L89.6097054881958,23.125022111591207L89.9474806506958,149.2392853183692L90.2852558131958,169.41765173535975L90.6230309756958,169.1427062162044L90.9608061381958,169.23478404803708L91.2985813006958,169.15220576153982L91.6363564631958,169.08392765947352L91.9741316256958,169.06286895834705L92.3119067881958,169.13816278847983L92.6496819506958,169.12162256173596L92.9874571131958,169.07079452365113L93.32523227569581,169.17292087434237L93.6630074381958,169.38127360175764L94.0007826006958,169.05089711266973L94.3385577631958,21.024134989385466L94.6763329256958,20.384530928264716L95.0141080881958,20.27768455696736L95.3518832506958,20.302637898927426L95.6896584131958,20.12312739584231L96.0274335756958,20.10221265630407L96.3652087381958,20.042017517544984L96.7029839006958,19.948668984760182L97.0407590631958,20.027659748478733L97.3785342256958,19.62212571289489L97.71630938819581,20.636582715915647L98.0540845506958,21.273960171138413L98.3918597131958,20.243118419889118L98.7296348756958,20.58644569345431L99.06741003819579,20.145654505168732L99.40518520069581,19.283159515709176L99.7429603631958,21.482124788745082L100.0807355256958,20.671056717577414L100.4185106881958,19.65874954094091L100.7562858506958,19.545668673129214L101.0940610131958,20.68788678698557L101.4318361756958,19.64529777013659L101.7696113381958,23.30771128654446L102.1073865006958,21.74818115969912L102.4451616631958,20.680162767904996L102.7829368256958,20.93912471179102L103.1207119881958,20.99202579674639L103.45848715069579,20.64545842770205L103.79626231319581,20.208245164755986L104.1340374756958,20.612243610065338L104.4718126381958,20.971264616235594L104.8095878006958,20.2867752513922L105.1473629631958,20.49970019884971L105.4851381256958,20.786579173925517L105.8229132881958,20.69533439981673L106.1606884506958,20.61493089304566L106.4984636131958,19.838797500622096L106.8362387756958,21.085143990990034L107.1740139381958,19.595652136563086L107.5117891006958,19.50512908988329L107.8495642631958,20.36614991267935L108.18733942569581,19.56404968871458L108.5251145881958,18.937098891455427L108.8628897506958,19.23632401233796L109.2006649131958,19.539879497794473L109.53844007569579,19.137109524704684L109.87621523819581,18.451422399447207L110.2139904006958,18.29611279908767L110.5517655631958,17.05950195105987L110.8895407256958,17.476322575161024L111.2273158881958,17.774442071045925L111.5650910506958,17.917190542960334L111.90286621319581,17.554100222562752L112.2406413756958,17.096217914522366L112.5784165381958,17.634058408154207L112.9161917006958,17.19804290562223L113.2539668631958,16.715591153190378L113.5917420256958,16.74120479896846L113.92951718819579,16.434286370810874L114.26729235069581,16.856159086915017L114.6050675131958,16.439568801355023L114.9428426756958,15.898810686201683L115.2806178381958,16.415736440295305L115.6183930006958,16.011507656444774L115.9561681631958,16.054150998366715L116.2939433256958,15.701717674473922L116.6317184881958,16.19353652758003L116.9694936506958,15.29513943750344L117.3072688131958,15.107782068115801L117.6450439756958,16.51123479946438L117.9828191381958,15.590633074019015L118.3205943006958,15.79563437566029L118.65836946319581,14.997050653424038L118.9961446256958,15.090107424056688L119.3339197881958,15.77295370730642L119.6716949506958,14.666560914553365L120.00947011319579,14.850816391586605L120.34724527569581,14.999246547516526L120.6850204381958,15.151822797187506L121.0227956006958,15.341713890528021L121.3605707631958,14.945961564992533L121.6983459256958,15.434048933731681L122.0361210881958,15.131906191327671L122.3738962506958,15.096019446613397L122.7116714131958,14.641576860787799L123.04944657569581,27.181299177496967L123.3872217381958,29.171178478761515L123.7249969006958,24.076965234538424L124.0627720631958,25.184908973468673L124.40054722569579,29.19617788842982L124.73832238819581,27.125157997062473L125.0760975506958,23.382172058953348L125.4138727131958,21.90786719234089L125.7516478756958,18.839773179859748L126.0894230381958,25.58457705420404L126.4271982006958,17.914303633244334L126.76497336319581,14.51899068917714L127.1027485256958,17.278922445378377L127.4405236881958,14.746012355354269L127.7782988506958,19.130921095898582L128.1160740131958,15.211495835253261L128.4538491756958,14.966354203837444L128.7916243381958,14.586925202919538L129.1293995006958,14.422709178968102L129.4671746631958,14.247498328651488L129.80494982569581,15.150241139204798L130.1427249881958,15.628377882965408L130.4805001506958,17.819972322683867L130.81827531319578,13.546793130509721L131.1560504756958,19.524446815536084L131.4938256381958,17.778987418258346L131.8316008006958,14.438003658101785L132.16937596319582,33.57285586510301L132.5071511256958,19.38714968909605L132.8449262881958,22.019136063628725L133.1827014506958,24.80842830587774L133.5204766131958,13.911311549862566L133.85825177569578,23.071721773164477L134.19602693819579,17.248579181554906L134.53380210069582,19.499201711423865L134.8715772631958,22.40079167044461L135.2093524256958,15.660118533938622L135.5471275881958,15.475939836419133L135.8849027506958,14.336286158321132L136.2226779131958,19.447145201119454L136.5604530756958,15.497545591580867L136.8982282381958,20.7604434274541L137.2360034006958,19.21292161655508L137.57377856319582,19.63493253578395L137.9115537256958,22.65422548934255L138.2493288881958,26.640587130051845L138.5871040506958,20.902070918468137L138.9248792131958,12.397833775348458L139.2626543756958,16.937222897504107L139.60042953819578,25.35399281859018L139.9382047006958,16.63845845370393L140.2759798631958,17.957284805026642L140.6137550256958,23.20398216350426L140.95153018819582,13.907917895355995L141.2893053506958,11.364719350492962L141.6270805131958,11.307825730823978L141.9648556756958,14.021582287471993L142.3026308381958,22.117859162374167L142.6404060006958,20.84483946893877L142.97818116319579,21.468565526621532L143.31595632569582,12.759495996790799L143.6537314881958,14.562770367902191L143.9915066506958,17.07184809686658L144.3292818131958,18.473381340372065L144.6670569756958,25.248743461178243L145.0048321381958,13.754220664784642L145.3426073006958,18.183231558011634L145.6803824631958,14.842616339520937L146.01815762569578,15.213630305734775L146.35593278819582,13.717781107571563L146.69370795069582,13.6111804307181L147.0314831131958,15.263398786530226L147.3692582756958,14.48494665279223L147.7070334381958,19.394873708176622L148.0448086006958,14.07471371096852L148.38258376319578,12.071490130218864L148.7203589256958,11.636319202337823L149.0581340881958,12.417489330861638L149.3959092506958,15.579116146960526L149.73368441319582,11.761162691651943L150.0714595756958,20.982842966905075L150.4092347381958,14.639181339959631L150.7470099006958,11.20492582653198L151.0847850631958,16.147100277680156L151.4225602256958,23.98260321217246L151.76033538819578,25.10605641287483L152.0981105506958,19.667379558283418L152.4358857131958,14.66527101872281L152.7736608756958,18.02976466598146L153.11143603819582,12.18240581574357L153.4492112006958,12.59987138776002L153.7869863631958,12.204426180279421L154.1247615256958,15.191763500226367L154.4625366881958,20.397798428236115L154.80031185069578,15.240579915051653L155.1380870131958,13.932057374470602L155.47586217569582,23.65615207572364L155.8136373381958,25.841343103997577L156.1514125006958,20.381720798062446L156.4891876631958,26.22544029934985L156.8269628256958,25.119431404165418L157.16473798819578,19.686190539145638L157.5025131506958,19.956224088910552L157.8402883131958,21.34263176821256L158.1780634756958,17.923210056836233L158.51583863819582,17.973577417838747L158.8536138006958,25.265419971558952L159.1913889631958,25.86852305185563L159.52916412569581,26.026320308459805L159.8669392881958,16.1307155294516L160.2047144506958,23.481739732349748L160.54248961319578,19.459460635120664L160.8802647756958,20.187852525911058L161.2180399381958,21.961213598475858L161.5558151006958,20.70557678694742L161.89359026319582,22.152317808133198L162.2313654256958,18.06443829437891L162.5691405881958,25.76023322570025L162.9069157506958,22.925211105077633L163.2446909131958,23.636296893474796L163.5824660756958,31.61175352558196L163.92024123819579,25.166251551633913L164.25801640069582,16.188115893911153L164.5957915631958,27.192294003862145L164.9335667256958,27.887394297502116L165.2713418881958,25.885875221957093L165.6091170506958,18.387695403056842L165.9468922131958,24.980122654465834L166.2846673756958,24.096513298732376L166.6224425381958,27.444253656096585L166.96021770069578,26.372181305977875L167.29799286319582,21.85954216640344L167.6357680256958,24.56382413105799L167.9735431881958,27.22742830934193L168.3113183506958,26.167318207461307L168.6490935131958,15.639587691969005L168.9868686756958,24.035335382197626L169.32464383819578,17.362397132698373L169.6624190006958,26.053546324026097L170.0001941631958,16.424320389929576L170.3379693256958,16.701832264331145L170.67574448819582,16.70445812370049L171.0135196506958,13.987968216363921L171.3512948131958,20.92389165626831L171.6890699756958,15.154325809334884L172.0268451381958,14.075896115479868L172.3646203006958,14.605674760170787L172.70239546319578,26.73688399616364L173.0401706256958,16.275076371154192L173.3779457881958,15.067979568201626L173.7157209506958,20.972170614497525L174.05349611319582,15.555775174788641L174.3912712756958,16.906894989583396L174.7290464381958,12.971837419944006L175.0668216006958,15.228418040077887L175.4045967631958,13.676197322939L175.74237192569578,13.469399380676618L176.08014708819582,21.357695908805063L176.41792225069582,16.480937603349165L176.7556974131958,20.98198303635138L177.0934725756958,21.35235205464992L177.4312477381958,30.653591262023145L177.7690229006958,23.078416946761152L178.10679806319578,15.412857787944048L178.4445732256958,26.526630975783693L178.7823483881958,28.21323119784114L179.1201235506958,28.405824930064714L179.45789871319582,25.918813633344413L179.7956738756958,27.49171875148034L180.1334490381958,18.27375460469143L180.47122420069581,20.7183989657392L180.8089993631958,22.053011185083452L181.1467745256958,15.200900262359445L181.48454968819578,20.985130996414036L181.8223248506958,16.12130236106913L182.1601000131958,24.853390389114118L182.4978751756958,13.551138850986462L182.83565033819582,13.44929850398384L183.1734255006958,12.039473072996238L183.5112006631958,12.767373574898798L183.8489758256958,12.941647715148001L184.1867509881958,13.347903478160836L184.52452615069578,16.692311604629467L184.8623013131958,14.01293691422675L185.20007647569582,13.771296428636713L185.5378516381958,14.743862528970018L185.8756268006958,14.107252868884478L186.2134019631958,25.99864897171392L186.5511771256958,21.413913868753273L186.8889522881958,22.614745463386004L187.2267274506958,22.21220582883739L187.5645026131958,17.761834874892564L187.90227777569578,23.62499494905471L188.24005293819582,23.01115809273951L188.5778281006958,19.05847194674926L188.9156032631958,27.13636780606607L189.25337842569581,30.854154707771208L189.5911535881958,28.915717680701274L189.9289287506958,15.825025573513571L190.26670391319578,16.783924920404115L190.6044790756958,24.90957763725685L190.9422542381958,24.831738566244148L191.2800294006958,22.2547723912456L191.61780456319582,30.364239986605437L191.9555797256958,25.440861160416745L192.2933548881958,20.740081500414668L192.6311300506958,17.338150162264533L192.9689052131958,15.617720886460617L193.3066803756958,14.856498075602117L193.64445553819579,18.133340229994236L193.9822307006958,26.049246671257592L194.3200058631958,26.26882072460354L194.6577810256958,26.72220375313974L194.9955561881958,25.975753320721612L195.3333313506958,27.024407919154726L195.6711065131958,27.391567553779655L196.0088816756958,27.14630307514187L196.3466568381958,21.067407923319927L196.68443200069578,25.422756551080774L197.02220716319582,26.94133248530609L197.35998232569582,20.964078053751088L197.6977574881958,16.022364279685245L198.0355326506958,15.341345348862138L198.3733078131958,17.65627839942574L198.7110829756958,15.500386433588632L199.04885813819578,17.77035740091586L199.3866333006958,19.59953717995749L199.7244084631958,26.226945177818823L200.0621836256958,29.287729780593516L200.39995878819582,25.352380448801974L200.7377339506958,29.879239154317972L201.0755091131958,21.29625694192366L201.41328427569582,19.137861963939173L201.7510594381958,15.589174263258275L202.0888346006958,15.920247526433231L202.42660976319578,15.445043760096858L202.7643849256958,16.524010910547943L203.1021600881958,21.435089658638166L203.4399352506958,19.040167710677608L203.77771041319582,18.29382476957871L204.1154855756958,17.001994095281088L204.4532607381958,24.32597655344589L204.7910359006958,29.64242042218977L205.1288110631958,23.22022870860811L205.46658622569578,21.349173382781785L205.8043613881958,28.98210124826646L206.14213655069582,15.477874680164948L206.4799117131958,15.516648334595223L206.8176868756958,14.9628684139144L207.1554620381958,14.951458978175122L207.4932372006958,15.455055808686392L207.8310123631958,15.248856746631033L208.1687875256958,14.423691956743767L208.5065626881958,14.634528501427999L208.84433785069578,15.703422179678578L209.18211301319582,14.626819838250185L209.5198881756958,14.372602868312264L209.8576633381958,14.355634595779403L210.19543850069581,161.61248438673957L210.5332136631958,169.00987765746305L210.8709888256958,169.07745514646663L211.20876398819578,168.98516233199553L211.5465391506958,169.00810405069603L211.88431431319577,169.137181930192L212.2220894756958,169.01586454004564L212.55986463819582,169.02150207584077L212.8976398006958,169.0601951117816L213.2354149631958,169.10105141052165L213.5731901256958,169.10111667310832L213.9109652881958,169.06435848091328L214.2487404506958,169.08105610566025L214.5865156131958,169.00794473320505L214.9242907756958,169.00642833780904L215.2620659381958,169.116447622511L215.5998411006958,169.70824491941192L215.9376162631958,169.65895631057725L216.2753914256958,169.44120193170653L216.6131665881958,169.15350717429743L216.9509417506958,162.32844183528246L217.2887169131958,17.287905648484006L217.62649207569578,14.807773796193302L217.96426723819582,15.795695799271265L218.30204240069583,13.799858407741793L218.6398175631958,13.942668303267157L218.9775927256958,14.558731765480342L219.3153678881958,13.72682573428817L219.6531430506958,14.207373354779685L219.99091821319578,12.930100076284017L220.3286933756958,16.2822322218332L220.6664685381958,14.564367381787637L221.0042437006958,13.536688946503737L221.34201886319582,14.445236288294526L221.6797940256958,12.757131187768108L222.0175691881958,12.992230058788916L222.3553443506958,13.249072888096183L222.6931195131958,15.183609515868955L223.0308946756958,15.315578144056607L223.36866983819579,12.877536821189034L223.7064450006958,12.530754469506276L224.0442201631958,14.177337209011126L224.3819953256958,12.646200146340664L224.71977048819582,12.80544085780282L225.0575456506958,12.760693757204884L225.3953208131958,13.806538225435709L225.7330959756958,12.613077464120423L226.0708711381958,12.34811136226124L226.40864630069578,12.678247915368768L226.7464214631958,12.57906413954099L227.08419662569582,11.835899870310223L227.4219717881958,12.113365677003559L227.7597469506958,13.98870529969567L228.0975221131958,12.144031414784656L228.4352972756958,12.967599190786474L228.77307243819578,11.747065972932345L229.1108476006958,11.234685566051144L229.4486227631958,11.731141901786124L229.78639792569578,11.34104054846069L230.12417308819582,13.369647436447275L230.4619482506958,14.394592521042618L230.7997234131958,13.741475265506574L231.13749857569582,12.785754590484162L231.4752737381958,12.43662278568149L231.8130489006958,11.895572908375998L232.15082406319578,11.752947283683557L232.4885992256958,14.677954994389905L232.82637438819577,14.95677212052477L233.1641495506958,26.202022547664253L233.50192471319582,14.867185783912404L233.8396998756958,13.37870741906662L234.1774750381958,30.588973623273606L234.5152502006958,25.014166690850747" fill="none"></path></g></g></g></g></g></g><g transform="translate(72, 176)" clip-path="url(#clip_1)"><clipPath id="clip_1"><rect width="257" height="23"></rect></clipPath><g><g><line x1="0" y1="0" x2="0" y2="5" style="visibility: inherit;" fill="rgb(0, 0, 0)" stroke="rgb(204, 204, 204)" stroke-width="1px"></line><line x1="25.7701997756958" y1="0" x2="25.7701997756958" y2="5" style="visibility: inherit;" fill="rgb(0, 0, 0)" stroke="rgb(204, 204, 204)" stroke-width="1px"></line><line x1="51.5403995513916" y1="0" x2="51.5403995513916" y2="5" style="visibility: inherit;" fill="rgb(0, 0, 0)" stroke="rgb(204, 204, 204)" stroke-width="1px"></line><line x1="77.3105993270874" y1="0" x2="77.3105993270874" y2="5" style="visibility: inherit;" fill="rgb(0, 0, 0)" stroke="rgb(204, 204, 204)" stroke-width="1px"></line><line x1="103.0807991027832" y1="0" x2="103.0807991027832" y2="5" style="visibility: inherit;" fill="rgb(0, 0, 0)" stroke="rgb(204, 204, 204)" stroke-width="1px"></line><line x1="128.850998878479" y1="0" x2="128.850998878479" y2="5" style="visibility: inherit;" fill="rgb(0, 0, 0)" stroke="rgb(204, 204, 204)" stroke-width="1px"></line><line x1="154.6211986541748" y1="0" x2="154.6211986541748" y2="5" style="visibility: inherit;" fill="rgb(0, 0, 0)" stroke="rgb(204, 204, 204)" stroke-width="1px"></line><line x1="180.3913984298706" y1="0" x2="180.3913984298706" y2="5" style="visibility: inherit;" fill="rgb(0, 0, 0)" stroke="rgb(204, 204, 204)" stroke-width="1px"></line><line x1="206.1615982055664" y1="0" x2="206.1615982055664" y2="5" style="visibility: inherit;" fill="rgb(0, 0, 0)" stroke="rgb(204, 204, 204)" stroke-width="1px"></line><line x1="231.9317979812622" y1="0" x2="231.9317979812622" y2="5" style="visibility: inherit;" fill="rgb(0, 0, 0)" stroke="rgb(204, 204, 204)" stroke-width="1px"></line><line x1="257.701997756958" y1="0" x2="257.701997756958" y2="5" style="visibility: inherit;" fill="rgb(0, 0, 0)" stroke="rgb(204, 204, 204)" stroke-width="1px"></line></g><g transform="translate(0, 8)"><text style="text-anchor: middle; visibility: hidden; font-family: Roboto, sans-serif; font-size: 12px; font-weight: 200;" x="0" y="0" dx="0em" dy="0.95em" fill="rgb(33, 33, 33)" stroke="none" stroke-width="1px">-10M</text><text style="text-anchor: middle; visibility: inherit; font-family: Roboto, sans-serif; font-size: 12px; font-weight: 200;" x="25.7701997756958" y="0" dx="0em" dy="0.95em" fill="rgb(33, 33, 33)" stroke="none" stroke-width="1px">0</text><text style="text-anchor: middle; visibility: hidden; font-family: Roboto, sans-serif; font-size: 12px; font-weight: 200;" x="51.5403995513916" y="0" dx="0em" dy="0.95em" fill="rgb(33, 33, 33)" stroke="none" stroke-width="1px">10M</text><text style="text-anchor: middle; visibility: inherit; font-family: Roboto, sans-serif; font-size: 12px; font-weight: 200;" x="77.3105993270874" y="0" dx="0em" dy="0.95em" fill="rgb(33, 33, 33)" stroke="none" stroke-width="1px">20M</text><text style="text-anchor: middle; visibility: hidden; font-family: Roboto, sans-serif; font-size: 12px; font-weight: 200;" x="103.0807991027832" y="0" dx="0em" dy="0.95em" fill="rgb(33, 33, 33)" stroke="none" stroke-width="1px">30M</text><text style="text-anchor: middle; visibility: inherit; font-family: Roboto, sans-serif; font-size: 12px; font-weight: 200;" x="128.850998878479" y="0" dx="0em" dy="0.95em" fill="rgb(33, 33, 33)" stroke="none" stroke-width="1px">40M</text><text style="text-anchor: middle; visibility: hidden; font-family: Roboto, sans-serif; font-size: 12px; font-weight: 200;" x="154.6211986541748" y="0" dx="0em" dy="0.95em" fill="rgb(33, 33, 33)" stroke="none" stroke-width="1px">50M</text><text style="text-anchor: middle; visibility: inherit; font-family: Roboto, sans-serif; font-size: 12px; font-weight: 200;" x="180.3913984298706" y="0" dx="0em" dy="0.95em" fill="rgb(33, 33, 33)" stroke="none" stroke-width="1px">60M</text><text style="text-anchor: middle; visibility: hidden; font-family: Roboto, sans-serif; font-size: 12px; font-weight: 200;" x="206.1615982055664" y="0" dx="0em" dy="0.95em" fill="rgb(33, 33, 33)" stroke="none" stroke-width="1px">70M</text><text style="text-anchor: middle; visibility: inherit; font-family: Roboto, sans-serif; font-size: 12px; font-weight: 200;" x="231.9317979812622" y="0" dx="0em" dy="0.95em" fill="rgb(33, 33, 33)" stroke="none" stroke-width="1px">80M</text><text style="text-anchor: middle; visibility: hidden; font-family: Roboto, sans-serif; font-size: 12px; font-weight: 200;" x="257.701997756958" y="0" dx="0em" dy="0.95em" fill="rgb(33, 33, 33)" stroke="none" stroke-width="1px">90M</text></g><line x1="0" y1="0" x2="257.701997756958" y2="0" fill="rgb(0, 0, 0)" stroke="rgb(204, 204, 204)" stroke-width="1px"></line></g></g></g></g></svg>