<svg viewBox="0 0 330 200" xmlns="http://www.w3.org/2000/svg"><g><g><g><g><g><line x1="41.149001121520996" y1="176.89999961853027" x2="36.149001121520996" y2="176.89999961853027" style="visibility: inherit;" fill="rgb(0, 0, 0)" stroke="rgb(204, 204, 204)" stroke-width="1px"></line><line x1="41.149001121520996" y1="159.20999965667724" x2="36.149001121520996" y2="159.20999965667724" style="visibility: inherit;" fill="rgb(0, 0, 0)" stroke="rgb(204, 204, 204)" stroke-width="1px"></line><line x1="41.149001121520996" y1="141.51999969482424" x2="36.149001121520996" y2="141.51999969482424" style="visibility: inherit;" fill="rgb(0, 0, 0)" stroke="rgb(204, 204, 204)" stroke-width="1px"></line><line x1="41.149001121520996" y1="123.82999973297119" x2="36.149001121520996" y2="123.82999973297119" style="visibility: inherit;" fill="rgb(0, 0, 0)" stroke="rgb(204, 204, 204)" stroke-width="1px"></line><line x1="41.149001121520996" y1="106.13999977111816" x2="36.149001121520996" y2="106.13999977111816" style="visibility: inherit;" fill="rgb(0, 0, 0)" stroke="rgb(204, 204, 204)" stroke-width="1px"></line><line x1="41.149001121520996" y1="88.44999980926514" x2="36.149001121520996" y2="88.44999980926514" style="visibility: inherit;" fill="rgb(0, 0, 0)" stroke="rgb(204, 204, 204)" stroke-width="1px"></line><line x1="41.149001121520996" y1="70.75999984741212" x2="36.149001121520996" y2="70.75999984741212" style="visibility: inherit;" fill="rgb(0, 0, 0)" stroke="rgb(204, 204, 204)" stroke-width="1px"></line><line x1="41.149001121520996" y1="53.06999988555909" x2="36.149001121520996" y2="53.06999988555909" style="visibility: inherit;" fill="rgb(0, 0, 0)" stroke="rgb(204, 204, 204)" stroke-width="1px"></line><line x1="41.149001121520996" y1="35.379999923706045" x2="36.149001121520996" y2="35.379999923706045" style="visibility: inherit;" fill="rgb(0, 0, 0)" stroke="rgb(204, 204, 204)" stroke-width="1px"></line><line x1="41.149001121520996" y1="17.689999961853022" x2="36.149001121520996" y2="17.689999961853022" style="visibility: inherit;" fill="rgb(0, 0, 0)" stroke="rgb(204, 204, 204)" stroke-width="1px"></line><line x1="41.149001121520996" y1="0" x2="36.149001121520996" y2="0" style="visibility: inherit;" fill="rgb(0, 0, 0)" stroke="rgb(204, 204, 204)" stroke-width="1px"></line></g><g transform="translate(31.149001121520996, 0)"><text style="text-anchor: end; visibility: hidden; font-family: Roboto, sans-serif; font-size: 12px; font-weight: 200;" x="0" y="176.89999961853027" dx="0em" dy="0.3em" fill="rgb(33, 33, 33)" stroke="none" stroke-width="1px">0</text><text style="text-anchor: end; visibility: inherit; font-family: Roboto, sans-serif; font-size: 12px; font-weight: 200;" x="0" y="159.20999965667724" dx="0em" dy="0.3em" fill="rgb(33, 33, 33)" stroke="none" stroke-width="1px">50</text><text style="text-anchor: end; visibility: hidden; font-family: Roboto, sans-serif; font-size: 12px; font-weight: 200;" x="0" y="141.51999969482424" dx="0em" dy="0.3em" fill="rgb(33, 33, 33)" stroke="none" stroke-width="1px">100</text><text style="text-anchor: end; visibility: inherit; font-family: Roboto, sans-serif; font-size: 12px; font-weight: 200;" x="0" y="123.82999973297119" dx="0em" dy="0.3em" fill="rgb(33, 33, 33)" stroke="none" stroke-width="1px">150</text><text style="text-anchor: end; visibility: hidden; font-family: Roboto, sans-serif; font-size: 12px; font-weight: 200;" x="0" y="106.13999977111816" dx="0em" dy="0.3em" fill="rgb(33, 33, 33)" stroke="none" stroke-width="1px">200</text><text style="text-anchor: end; visibility: inherit; font-family: Roboto, sans-serif; font-size: 12px; font-weight: 200;" x="0" y="88.44999980926514" dx="0em" dy="0.3em" fill="rgb(33, 33, 33)" stroke="none" stroke-width="1px">250</text><text style="text-anchor: end; visibility: hidden; font-family: Roboto, sans-serif; font-size: 12px; font-weight: 200;" x="0" y="70.75999984741212" dx="0em" dy="0.3em" fill="rgb(33, 33, 33)" stroke="none" stroke-width="1px">300</text><text style="text-anchor: end; visibility: inherit; font-family: Roboto, sans-serif; font-size: 12px; font-weight: 200;" x="0" y="53.06999988555909" dx="0em" dy="0.3em" fill="rgb(33, 33, 33)" stroke="none" stroke-width="1px">350</text><text style="text-anchor: end; visibility: hidden; font-family: Roboto, sans-serif; font-size: 12px; font-weight: 200;" x="0" y="35.379999923706045" dx="0em" dy="0.3em" fill="rgb(33, 33, 33)" stroke="none" stroke-width="1px">400</text><text style="text-anchor: end; visibility: inherit; font-family: Roboto, sans-serif; font-size: 12px; font-weight: 200;" x="0" y="17.689999961853022" dx="0em" dy="0.3em" fill="rgb(33, 33, 33)" stroke="none" stroke-width="1px">450</text><text style="text-anchor: end; visibility: hidden; font-family: Roboto, sans-serif; font-size: 12px; font-weight: 200;" x="0" y="0" dx="0em" dy="0.3em" fill="rgb(33, 33, 33)" stroke="none" stroke-width="1px">500</text></g><line x1="41.149001121520996" y1="0" x2="41.149001121520996" y2="176.89999961853027" fill="rgb(0, 0, 0)" stroke="rgb(204, 204, 204)" stroke-width="1px"></line></g></g><g transform="translate(41, 0)" clip-path="url(#clip_0)"><clipPath id="clip_0"><rect width="288" height="176"></rect></clipPath><g><g><g><line x1="0" y1="0" x2="0" y2="176.89999961853027" fill="rgb(0, 0, 0)" stroke="rgb(66, 66, 66)" stroke-width="1px" opacity="0.25"></line><line x1="36.106374859809875" y1="0" x2="36.106374859809875" y2="176.89999961853027" fill="rgb(0, 0, 0)" stroke="rgb(66, 66, 66)" stroke-width="1px" opacity="0.25"></line><line x1="72.21274971961975" y1="0" x2="72.21274971961975" y2="176.89999961853027" fill="rgb(0, 0, 0)" stroke="rgb(66, 66, 66)" stroke-width="1px" opacity="0.25"></line><line x1="108.31912457942963" y1="0" x2="108.31912457942963" y2="176.89999961853027" fill="rgb(0, 0, 0)" stroke="rgb(66, 66, 66)" stroke-width="1px" opacity="0.25"></line><line x1="144.4254994392395" y1="0" x2="144.4254994392395" y2="176.89999961853027" fill="rgb(0, 0, 0)" stroke="rgb(66, 66, 66)" stroke-width="1px" opacity="0.25"></line><line x1="180.53187429904938" y1="0" x2="180.53187429904938" y2="176.89999961853027" fill="rgb(0, 0, 0)" stroke="rgb(66, 66, 66)" stroke-width="1px" opacity="0.25"></line><line x1="216.63824915885925" y1="0" x2="216.63824915885925" y2="176.89999961853027" fill="rgb(0, 0, 0)" stroke="rgb(66, 66, 66)" stroke-width="1px" opacity="0.25"></line><line x1="252.74462401866913" y1="0" x2="252.74462401866913" y2="176.89999961853027" fill="rgb(0, 0, 0)" stroke="rgb(66, 66, 66)" stroke-width="1px" opacity="0.25"></line><line x1="288.850998878479" y1="0" x2="288.850998878479" y2="176.89999961853027" fill="rgb(0, 0, 0)" stroke="rgb(66, 66, 66)" stroke-width="1px" opacity="0.25"></line></g><g><line x1="0" y1="176.89999961853027" x2="288.850998878479" y2="176.89999961853027" fill="rgb(0, 0, 0)" stroke="rgb(66, 66, 66)" stroke-width="1px" opacity="0.25"></line><line x1="0" y1="159.20999965667724" x2="288.850998878479" y2="159.20999965667724" fill="rgb(0, 0, 0)" stroke="rgb(66, 66, 66)" stroke-width="1px" opacity="0.25"></line><line x1="0" y1="141.51999969482424" x2="288.850998878479" y2="141.51999969482424" fill="rgb(0, 0, 0)" stroke="rgb(66, 66, 66)" stroke-width="1px" opacity="0.25"></line><line x1="0" y1="123.82999973297119" x2="288.850998878479" y2="123.82999973297119" fill="rgb(0, 0, 0)" stroke="rgb(66, 66, 66)" stroke-width="1px" opacity="0.25"></line><line x1="0" y1="106.13999977111816" x2="288.850998878479" y2="106.13999977111816" fill="rgb(0, 0, 0)" stroke="rgb(66, 66, 66)" stroke-width="1px" opacity="0.25"></line><line x1="0" y1="88.44999980926514" x2="288.850998878479" y2="88.44999980926514" fill="rgb(0, 0, 0)" stroke="rgb(66, 66, 66)" stroke-width="1px" opacity="0.25"></line><line x1="0" y1="70.75999984741212" x2="288.850998878479" y2="70.75999984741212" fill="rgb(0, 0, 0)" stroke="rgb(66, 66, 66)" stroke-width="1px" opacity="0.25"></line><line x1="0" y1="53.06999988555909" x2="288.850998878479" y2="53.06999988555909" fill="rgb(0, 0, 0)" stroke="rgb(66, 66, 66)" stroke-width="1px" opacity="0.25"></line><line x1="0" y1="35.379999923706045" x2="288.850998878479" y2="35.379999923706045" fill="rgb(0, 0, 0)" stroke="rgb(66, 66, 66)" stroke-width="1px" opacity="0.25"></line><line x1="0" y1="17.689999961853022" x2="288.850998878479" y2="17.689999961853022" fill="rgb(0, 0, 0)" stroke="rgb(66, 66, 66)" stroke-width="1px" opacity="0.25"></line><line x1="0" y1="0" x2="288.850998878479" y2="0" fill="rgb(0, 0, 0)" stroke="rgb(66, 66, 66)" stroke-width="1px" opacity="0.25"></line></g></g></g><g><g><line x1="0" y1="176.89999961853027" x2="288.850998878479" y2="176.89999961853027" fill="rgb(0, 0, 0)" stroke="rgb(153, 153, 153)" stroke-width="1.5px"></line></g></g><g><g><line x1="36.106374859809875" y1="0" x2="36.106374859809875" y2="176.89999961853027" fill="rgb(0, 0, 0)" stroke="rgb(153, 153, 153)" stroke-width="1.5px"></line></g></g><g><g><g><g><g><path style="fill: none;" stroke="rgb(0, 153, 136)" stroke-width="2px" d="M37.91169360280037,171.48644893478482L38.63382109999657,166.4470230678424L38.994884848594666,171.96960693634574L39.355948597192764,173.6876189722291L39.71701234579086,172.95114334193912L40.07807609438896,172.61132425622716L41.883394837379456,171.37724454739094L43.32764983177185,170.23089451005578L44.04977732896805,170.31080598906522L44.41084107756615,170.33787119626732L44.771904826164246,170.3782140644044L45.132968574762344,170.2645357246345L45.49403232336044,170.07869695316222L45.85509607195854,169.81101095011576L46.21615982055664,169.58256839386428L46.57722356915474,169.20700702612865L46.93828731775284,168.80979179106083L47.29935106635094,167.8577096072834L47.660414814949036,166.69504910956604L48.021478563547134,165.30746521407949L48.38254231214523,164.24130605947215L48.74360606074333,163.2778583202166L49.10466980934143,162.36839110048115L49.46573355793954,161.36785919402774L49.82679730653762,160.4949539212785L50.18786105513573,159.15274775176218L50.548924803733826,158.6237748228848L50.909988552331924,157.69317891247726L51.27105230093002,158.01449736151324L51.63211604952812,157.93365636502432L51.99317979812622,158.1703884896781L52.35424354672432,158.43974468385824L52.71530729532242,157.50677177149169L53.07637104392052,156.9677509132421L53.437434792518616,155.31669546646316L53.798498541116714,154.5075315588615L54.15956228971481,152.81743642218225L54.52062603831291,151.20808450097127L54.88168978691101,150.62270146061692L55.24275353550911,148.87669654866056L55.60381728410721,147.35680817759473L55.96488103270531,147.0634971755731L56.325944781303406,145.05519411180822L56.687008529901505,143.91411394371553L57.0480722784996,141.83406452321864L57.4091360270977,140.15278211134603L57.7701997756958,138.2124069948769L58.1312635242939,137.06438408198972L58.492327272892005,134.64053267624885L58.85339102149009,133.89321287378684L59.214454770088196,132.45664705645135L59.575518518686295,131.34494860663142L59.93658226728439,129.53186069033399L60.29764601588249,128.18785708661747L60.65870976448059,126.7626655495017L61.01977351307869,125.06232838906493L61.38083726167679,123.68309596906569L61.74190101027489,122.75122179561166L62.102964758872986,119.78036638853666L62.464028507471085,103.20697899894027L62.82509225606918,104.77545688215443L63.18615600466728,108.89715248339805L63.54721975326538,114.49764393285908L63.90828350186348,113.98798570174999L64.26934725046158,113.91818987390376L64.63041099905968,113.31504141527157L64.99147474765778,113.23853531433039L65.35253849625587,113.96892508348816L65.71360224485397,110.96035142067727L66.07466599345207,110.06448876888152L66.43572974205017,109.07956879351495L66.79679349064827,107.12149638277627L67.15785723924637,105.37689327935858L67.51892098784447,97.8244482208877L67.87998473644257,95.10817989526977L68.24104848504066,91.79827271577795L68.60211223363876,89.61029487458298L68.96317598223686,80.38994214321683L69.32423973083496,73.96868275973225L69.68530347943306,68.75661734009226L70.04636722803116,59.964207426696596L70.40743097662926,57.43100947323407L70.76849472522736,50.962935125889324L71.12955847382545,50.096715276606695L71.49062222242355,48.638225685956L71.85168597102165,49.27363593953879L72.21274971961975,46.89353183397121L72.57381346821784,52.532918037030925L72.93487721681595,49.966019876679034L73.29594096541405,48.49119059458487L73.65700471401215,49.28724899338322L74.01806846261024,51.274243546009L74.37913221120834,50.4859679063669L74.74019595980644,51.78481408858511L75.10125970840454,54.409746789053294L75.46232345700264,55.405747606871714L75.82338720560074,55.371682078417116L76.18445095419884,51.02719522184064L76.54551470279694,56.3298204272648L76.90657845139503,53.59361117119063L77.26764219999313,55.38755915261786L77.62870594859123,54.98771558381768L77.98976969718933,55.13435062578607L78.35083344578743,53.94475605313613L78.71189719438553,54.5578356836381L79.07296094298363,53.85982209460879L79.43402469158173,55.49702295775371L79.79508844017982,56.1622925510314L80.15615218877792,55.84208544868597L80.51721593737602,55.755168315958116L80.87827968597414,56.552509455387955L81.23934343457222,55.543662806803795L81.6004071831703,57.65059113992959L81.96147093176842,54.33213982937457L82.32253468036652,54.90884423037546L82.68359842896461,53.42869828848817L83.04466217756271,38.74273466668397L83.40572592616081,45.03235279892764L83.76678967475891,51.44893452462563L84.12785342335701,57.92048454560211L84.48891717195511,58.86606262116274L84.84998092055321,57.84878107636157L85.2110446691513,60.18493300006054L85.5721084177494,60.605105562646465L85.9331721663475,60.72170093642775L86.2942359149456,60.78152614411681L86.6552996635437,60.419499921932065L87.0163634121418,59.39922038175923L87.3774271607399,60.85746503112054L88.4606184065342,59.5432354558292L90.26593714952469,59.72587698102107L91.71019214391708,58.30355799807242L93.51551088690758,55.32582478427089L95.32082962989807,52.67115262397511L96.76508462429047,50.256679925272614L98.57040336728096,48.95294978962525L100.37572211027145,45.20178899491251L101.81997710466385,42.97697105318531L103.62529584765434,39.40628628173981L105.43061459064484,34.50406267091755L106.87486958503723,32.09135113756162L108.68018832802771,28.358924246889096L110.48550707101822,26.969132285458034L111.92976206541061,26.355626309784373L113.73508080840111,26.18762357355804L115.5403995513916,30.42734587509899L117.3457182943821,31.13344048068961L118.78997328877449,31.399550000731377L120.59529203176498,32.097922855149456L121.67848327755928,30.69691074897113L122.03954702615738,32.464313057276925L122.40061077475548,32.987999419003785L122.76167452335358,35.46953855070218L123.84486576914787,38.002336143681134L125.65018451213837,34.83876428232146L127.09443950653076,38.259027230697114L128.89975824952126,36.62843450961716L130.70507699251175,36.50866578918023L132.51039573550224,38.815988624053176L133.95465072989464,40.78527954295395L135.75996947288513,40.957034094030575L137.56528821587563,40.366216442872066L139.00954321026802,39.70748462968852L140.81486195325851,38.6248836633778L142.620180696249,36.1475565274742L144.0644356906414,36.35123330136957L144.4254994392395,38.113703151232194L144.7865631878376,40.238290256602546L145.14762693643567,40.636545346421904L145.5086906850338,37.16441195079663L145.8697544336319,34.94132217739481L146.23081818223,35.62853353360483L146.5918819308281,35.669711537096056L146.9529456794262,36.37052961947111L147.3140094280243,35.71909543946938L147.6750731766224,38.68031285148592L148.0361369252205,38.55171887653503L148.3972006738186,40.19421101568821L148.7582644224167,38.082889550487074L149.11932817101479,38.66934010975282L149.48039191961288,38.64157078060359L149.84145566821098,26.65967566155277L150.20251941680908,30.303305475942043L150.56358316540718,33.59205493690503L150.92464691400528,35.15662501719616L151.28571066260338,37.69966348769253L151.64677441120148,41.28856122130324L152.00783815979958,43.66206175796756L152.36890190839767,42.481858079234456L152.7299656569958,42.476943602411794L153.09102940559387,42.757246539242516L153.45209315419197,41.58298361185302L153.81315690279007,43.2614796100461L154.17422065138814,42.469880816356294L154.53528439998627,41.12288141751118L154.89634814858437,41.123532840913015L155.25741189718246,43.437828379905795L155.61847564578056,41.79473445251479L155.97953939437866,37.776714496661725L156.34060314297676,35.964719387092984L156.70166689157486,31.40582095920925L157.06273064017296,25.431911936318173L157.42379438877106,24.614341252945366L157.78485813736916,21.317770106296855L158.14592188596725,20.835465952680174L158.50698563456535,23.82176960334878L158.86804938316345,27.978578678298394L159.22911313176155,28.525524618189674L159.59017688035965,28.062984598380318L159.95124062895775,28.425068966463094L160.31230437755585,29.662077256012186L160.67336812615395,30.49702948295958L161.03443187475204,32.675056867757704L161.39549562335014,33.229672560512526L161.75655937194827,36.650625348412255L162.11762312054634,34.40354233315834L162.47868686914444,34.99916266141576L162.83975061774254,31.010154557684203L163.2008143663406,33.126088755545496L163.56187811493874,33.65937212741249L163.92294186353683,33.28307480828412L164.28400561213493,32.789173717189975L164.64506936073303,33.005165002346644L165.00613310933113,33.80830997706632L165.36719685792923,38.19161070836789L165.72826060652733,36.30584291714053L166.08932435512543,34.18032603605164L166.45038810372353,35.46641647560535L166.81145185232162,34.5201627108155L167.17251560091972,34.630491126748915L167.53357934951782,32.00494478611738L167.89464309811592,32.20508661169887L168.25570684671402,30.89491188835464L168.61677059531212,32.22429955955186L168.97783434391022,34.092535624317L169.33889809250832,31.4852579450438L169.69996184110641,21.15434754290762L170.0610255897045,28.656727866319326L170.4220893383026,30.015827295169846L170.78315308690074,32.770540241755356L171.1442168354988,32.81167772021338L171.5052805840969,32.82716538064787L171.866344332695,35.07514129239354L172.22740808129308,38.266921652361205L172.5884718298912,39.78655185894064L172.9495355784893,42.46708380475773L173.3105993270874,40.86430519596928L173.6716630756855,38.26680970170424L174.0327268242836,36.89841512202042L174.3937905728817,35.98006609902934L174.7548543214798,36.82536604257524L175.1159180700779,35.431082636338274L175.476981818676,35.54320362326517L175.8380455672741,35.00304756927023L176.1991093158722,34.20640722158369L176.5601730644703,32.033348731959066L176.9212368130684,26.783369586635246L177.2823005616665,26.043756884282242L177.6433643102646,24.881419391373107L178.0044280588627,23.988088053276687L178.36549180746078,23.587364196416193L178.72655555605888,20.741857126687044L179.08761930465698,23.534468219384138L179.44868305325508,25.389189313092608L179.8097468018532,24.446820577265196L180.17081055045128,23.31814818219818L180.53187429904938,25.654040632215196L180.89293804764748,29.708402356270426L181.25400179624555,32.15470150004907L181.61506554484367,35.09213301439708L181.97612929344177,35.517299618760724L182.33719304203987,31.572354795514077L182.69825679063797,29.75300482665471L183.05932053923607,26.90898354296571L183.42038428783417,30.629863624818334L183.78144803643227,29.71313115826007L184.14251178503036,31.67410425103533L184.50357553362846,28.587359246265105L184.86463928222656,26.3952029912067L185.22570303082466,25.918784929722047L185.58676677942276,26.25950387175355L185.94783052802086,29.611571865927047L186.30889427661896,27.711478522916384L186.66995802521706,30.28107079036045L187.03102177381516,31.085473610913002L187.39208552241325,31.009843781010918L187.75314927101135,29.736328134253174L188.11421301960945,30.239187254208645L188.47527676820755,30.339558048881706L188.83634051680568,29.242307762068243L189.19740426540375,19.39921114005972L189.55846801400185,22.4764267070537L189.91953176259995,22.66525574076574L190.28059551119802,27.249376737777816L190.64165925979614,28.78395120140002L191.00272300839424,29.02414050506431L191.36378675699234,28.956488030590652L191.72485050559044,29.705282562270618L192.08591425418854,31.679747371251374L192.44697800278664,30.477260959053165L192.80804175138474,33.0901915825712L193.16910549998283,30.65551836375042L193.53016924858093,32.78031244474545L193.89123299717903,30.705520890311842L194.25229674577713,32.384371930350795L194.61336049437523,28.34911696954492L194.97442424297333,28.527927551907904L195.33548799157143,27.431421496695027L195.69655174016953,25.620683542322826L196.05761548876762,21.961831458840415L196.41867923736572,20.4058996897941L196.77974298596382,20.310810348237872L197.14080673456192,18.88324818180641L197.50187048316002,18.360648500856332L197.86293423175815,17.014063523615476L198.22399798035622,18.970317553282854L198.58506172895432,18.490400482461762L198.9461254775524,22.076236318041424L199.30718922615048,23.31287200349094L199.6682529747486,24.134907574744282L200.0293167233467,24.994384473347118L200.3903804719448,24.548440314289543L200.7514442205429,26.3452613998525L201.112507969141,24.757644674614443L201.4735717177391,23.040932287603784L201.8346354663372,25.849591658643035L202.1956992149353,25.390069134036032L202.5567629635334,24.24987779887036L202.9178267121315,25.25387097752913L203.2788904607296,23.426405459300124L203.6399542093277,25.532628084815755L204.0010179579258,23.328745927856662L204.3620817065239,21.756247383732383L204.723145455122,20.573216329063406L205.0842092037201,22.124854295389273L205.4452729523182,21.585273770250478L205.8063367009163,21.67258473650735L206.1674004495144,23.983370171254712L206.5284641981125,27.4407375165046L206.88952794671061,27.22103787977348L207.25059169530869,25.353918069738558L207.61165544390678,25.328849801961383L207.97271919250488,28.413627189102737L208.33378294110295,29.784026139513514L208.69484668970108,25.083150384951352L209.05591043829918,28.3728312496043L209.41697418689728,26.73631203448224L209.77803793549538,23.51706467038986L210.13910168409348,26.365193580494648L210.50016543269157,26.353092197358503L210.86122918128967,26.368716941157963L211.22229292988777,25.445410724995757L211.58335667848587,28.61059832761038L211.94442042708397,28.42769377208679L212.30548417568207,29.78423004684122L212.66654792428017,31.80847863281439L213.02761167287827,29.711581583043042L213.38867542147636,31.67450039213275L213.74973917007446,31.05263105158445L214.11080291867256,29.64938654420344L214.47186666727066,29.61482681313142L214.83293041586876,27.820150216594804L215.19399416446686,24.941356904160244L215.55505791306496,26.75740172937112L215.91612166166308,25.68618390015343L216.27718541026115,24.62460703897523L216.63824915885925,23.542361816783245L216.99931290745735,21.855325159338562L217.36037665605542,18.844578010489986L217.72144040465355,22.55039158185273L218.08250415325165,20.8555879215964L218.44356790184975,22.361690143830124L218.80463165044785,19.127999083748463L219.16569539904594,20.710504357095207L219.52675914764404,22.543578966951813L219.88782289624214,23.789456928351637L220.24888664484024,26.338344826795325L220.60995039343834,27.865211503855154L220.97101414203644,27.74594825060501L221.33207789063454,27.074066156883077L221.69314163923264,28.255595522721002L222.05420538783073,26.291401260781075L222.41526913642883,28.189916811239556L222.77633288502693,27.275660259712083L223.13739663362503,24.56687919966488L223.49846038222313,23.668900188533073L223.85952413082123,21.502619828820592L224.22058787941933,24.32448771982779L224.58165162801743,24.885236833338823L224.94271537661555,23.933706599632995L225.30377912521362,22.4011754365808L225.66484287381172,26.778166246370986L226.02590662240982,26.160245365705592L226.3869703710079,26.056859738585278L226.74803411960602,27.131389265623888L227.10909786820412,25.379444538284794L227.47016161680222,24.761648150165556L227.83122536540031,24.55648151566759L228.1922891139984,23.797383711633252L228.5533528625965,23.351996581925313L228.9144166111946,26.805175145687144L229.2754803597927,26.94412587453831L229.6365441083908,23.254434398598562L229.9976078569889,22.95830015831347L230.358671605587,24.49499482528928L230.7197353541851,26.652785096930998L231.0807991027832,25.997274967246433L231.4418628513813,27.635084068161245L231.8029265999794,26.0578157744648L232.1639903485775,28.025696581513436L232.5250540971756,27.49737067489679L232.8861178457737,25.67606003163167L233.2471815943718,26.355832372318957L233.6082453429699,26.56741278887336L233.96930909156802,25.889630156752272L234.3303728401661,26.012079878096436L235.7746278345585,29.280244503818526L237.21888282895088,29.12062363538698L239.02420157194138,28.04161362133113L240.82952031493187,26.19200022535337L242.27377530932426,24.55535436907868L244.07909405231476,25.101211036589515L245.88441279530525,23.476744103805316L247.32866778969765,21.01297710164274L249.13398653268814,21.355538749446083L250.93930527567863,20.41844253502566L252.38356027007103,22.813593471871027L254.18887901306152,19.637226194805677L255.99419775605202,21.44329990259335L257.7995164990425,19.748594885210334L259.2437714934349,19.08086864893007L261.0490902364254,17.737592582046187L262.8544089794159,19.859477414117848L264.2986639738083,21.998532947724005L266.1039827167988,20.161033073934142L267.9093014597893,19.12345406748896L269.35355645418167,18.823598003258017L269.71462020277977,20.324795811289604L270.07568395137787,19.78412068818165L270.43674769997597,19.678620726149504L270.79781144857407,20.097248001308966L271.15887519717216,23.00810463166533L271.51993894577026,20.812944565644695L271.88100269436836,22.57801142465932L272.24206644296646,25.766485285476147L272.60313019156456,25.540396855114352L272.96419394016266,24.137796883125432L273.32525768876076,24.178763184650062L273.68632143735886,23.75561234885455L274.04738518595695,24.327545981338623L274.40844893455505,23.486175816703717L274.76951268315315,23.51533604099004L275.13057643175125,24.683770522689322L275.49164018034935,23.08989058677488L275.85270392894745,26.014837585118336L276.21376767754555,24.88247905939364L276.57483142614365,27.128901833157336L276.93589517474174,27.704459161190318L277.29695892333984,27.983127825731962L277.65802267193794,17.731985802294332L278.01908642053604,22.73548043478417L278.38015016913414,23.79451902022591L278.74121391773224,27.93153427819791L279.10227766633034,27.05741144803124L279.46334141492844,29.24026354243296L279.82440516352654,32.7725315374453L280.18546891212463,32.101307797013355L280.54653266072273,32.10080079065632L280.90759640932083,29.792305737327332L281.26866015791893,28.524262433104873L281.62972390651703,30.351289960615915L281.9907876551151,31.983069498428595L282.3518514037132,33.25867793825015" fill="none"></path></g></g></g></g><g opacity="0.2"><g><g><g><path style="fill: none;" stroke="rgb(0, 153, 136)" stroke-width="2px" d="M37.91169360280037,171.48644893478482L38.63382109999657,163.42336754767695L38.994884848594666,177.27128745010896L39.355948597192764,175.70800112642794L39.71701234579086,171.98960075903247L40.07807609438896,172.14123212581669L41.883394837379456,169.61249081847978L43.32764983177185,168.55950515066073L44.04977732896805,170.42865989859845L44.41084107756615,170.37805987467496L44.771904826164246,170.43836245976527L45.132968574762344,170.09463684748462L45.49403232336044,169.8005455917864L45.85509607195854,169.41000637029276L46.21615982055664,169.24017308513655L46.57722356915474,168.64392984949907L46.93828731775284,168.21413702663438L47.29935106635094,166.42982806518057L47.660414814949036,164.95123548261463L48.021478563547134,163.22621620151395L48.38254231214523,162.64212579826298L48.74360606074333,161.83271841399156L49.10466980934143,161.00420822672177L49.46573355793954,159.86707318660189L49.82679730653762,159.18560221639171L50.18786105513573,157.13944422138394L50.548924803733826,157.8303167830655L50.909988552331924,156.2972864755498L51.27105230093002,158.4964747390875L51.63211604952812,157.8123949149706L51.99317979812622,158.5254865981558L52.35424354672432,158.84377892153557L52.71530729532242,156.10731251432006L53.07637104392052,156.1592196644767L53.437434792518616,152.84011236725175L53.798498541116714,153.29378571832422L54.15956228971481,150.2822937433119L54.52062603831291,148.7940566340944L54.88168978691101,149.74462690334585L55.24275353550911,146.25768918656092L55.60381728410721,145.07697562404357L55.96488103270531,146.6235306728936L56.325944781303406,142.04273951761056L56.687008529901505,142.20249369207073L57.0480722784996,138.7139903930138L57.4091360270977,137.6308584937992L57.7701997756958,135.30184432035472L58.1312635242939,135.34234971272343L58.492327272892005,131.00475556771914L58.85339102149009,132.77223317010893L59.214454770088196,130.3017983304655L59.575518518686295,129.67740093190963L59.93658226728439,126.81222881589575L60.29764601588249,126.17185168104619L60.65870976448059,124.62487824383035L61.01977351307869,122.51182264841138L61.38083726167679,121.61424733906762L61.74190101027489,121.35341053543088L62.102964758872986,115.32408327792481L62.464028507471085,78.34689791454771L62.82509225606918,107.12817370697552L63.18615600466728,115.07969588526333L63.54721975326538,122.89838110705045L63.90828350186348,113.22349835508636L64.26934725046158,113.8134961321344L64.63041099905968,112.41031872732331L64.99147474765778,113.12377616291859L65.35253849625587,115.06450973722478L65.71360224485397,106.44749092646096L66.07466599345207,108.7206947911879L66.43572974205017,107.60218883046508L66.79679349064827,104.18438776666828L67.15785723924637,102.75998862423208L67.51892098784447,86.49578063318138L67.87998473644257,91.03377740684286L68.24104848504066,86.83341194654024L68.60211223363876,86.32832811279053L68.96317598223686,66.55941304616758L69.32423973083496,64.3367936845054L69.68530347943306,60.9385192106323L70.04636722803116,46.77559255660313L70.40743097662926,53.63121254304028L70.76849472522736,41.26082360487222L71.12955847382545,48.797385502682765L71.49062222242355,46.45049129997998L71.85168597102165,50.226751319912964L72.21274971961975,43.32337567561982L72.57381346821784,60.99199734162051L72.93487721681595,46.1156726361512L73.29594096541405,46.27894667144364L73.65700471401215,50.481336591580764L74.01806846261024,54.25473537494766L74.37913221120834,49.303554446903746L74.74019595980644,53.73308336191239L75.10125970840454,58.34714583975554L75.46232345700264,56.89974883359938L75.82338720560074,55.32058378573519L76.18445095419884,44.51046493697598L76.54551470279694,64.28375823540101L76.90657845139503,49.489297287079395L77.26764219999313,58.078481124758724L77.62870594859123,54.38795023061742L77.98976969718933,55.35430318873864L78.35083344578743,52.160364194161254L78.71189719438553,55.47745512939105L79.07296094298363,52.812801711064886L79.43402469158173,57.95282425247109L79.79508844017982,57.1601969409479L80.15615218877792,55.361774795167854L80.51721593737602,55.62479261686629L80.87827968597414,57.74852116453276L81.23934343457222,54.03039283392752L81.6004071831703,60.81098363961826L81.96147093176842,49.35446286354202L82.32253468036652,55.773900831876794L82.68359842896461,51.20847937565727L83.04466217756271,16.713789233977682L83.40572592616081,54.466779997293145L83.76678967475891,61.073807113172606L84.12785342335701,67.6278095770668L84.48891717195511,60.284429734503725L84.84998092055321,56.3228587591598L85.2110446691513,63.689160885609L85.5721084177494,61.235364406525385L85.9331721663475,60.896593997099664L86.2942359149456,60.871263955650385L86.6552996635437,59.876460588654965L87.0163634121418,57.86880107149994L87.3774271607399,63.04483200516248L88.4606184065342,57.57189109289216L90.26593714952469,59.99983926880883L91.71019214391708,56.17007952364941L93.51551088690758,50.859224963568614L95.32082962989807,48.68914438353141L96.76508462429047,46.634970877218876L98.57040336728096,46.99735458615422L100.37572211027145,39.57504780284339L101.81997710466385,39.63974414059449L103.62529584765434,34.050259124571575L105.43061459064484,27.150727254684202L106.87486958503723,28.472283837527733L108.68018832802771,22.76028391088032L110.48550707101822,24.884444343311475L111.92976206541061,25.435367346273843L113.73508080840111,25.935619469218533L115.5403995513916,36.78692932741041L117.3457182943821,32.19258238907555L118.78997328877449,31.798714280794034L120.59529203176498,33.14548213677655L121.67848327755928,28.595392589703668L122.03954702615738,35.11541651973559L122.40061077475548,33.77352896159411L122.76167452335358,39.191847248249815L123.84486576914787,41.80153253314958L125.65018451213837,30.093406490281925L127.09443950653076,43.389421653260605L128.89975824952126,34.182545427997255L130.70507699251175,36.32901270852482L132.51039573550224,42.27697287636261L133.95465072989464,43.73921592130512L135.75996947288513,41.21466592064559L137.56528821587563,39.47998996613431L139.00954321026802,38.71938690991315L140.81486195325851,37.00098221391172L142.620180696249,32.43156582361879L144.0644356906414,36.65674846221263L144.4254994392395,40.757407926026154L144.7865631878376,43.42517091465812L145.14762693643567,41.23392798115092L145.5086906850338,31.956211857358696L145.8697544336319,31.60668751729209L146.23081818223,36.65935056791991L146.5918819308281,35.73147854233288L146.9529456794262,37.42175674303365L147.3140094280243,34.741944169466734L147.6750731766224,43.12213896951079L148.0361369252205,38.358827914108645L148.3972006738186,42.657949224418026L148.7582644224167,34.91590735268534L149.11932817101479,39.54901594865148L149.48039191961288,38.599916786879774L149.84145566821098,8.686832982976567L150.20251941680908,35.768750197525954L150.56358316540718,38.52517912834953L150.92464691400528,37.503480137632806L151.28571066260338,41.51422119343711L151.64677441120148,46.6719078217193L152.00783815979958,47.222312562964035L152.36890190839767,40.71155256113479L152.7299656569958,42.46957188717776L153.09102940559387,43.17770094448864L153.45209315419197,39.82158922076877L153.81315690279007,45.77922360733571L154.17422065138814,41.2824826258216L154.53528439998627,39.10238231924352L154.89634814858437,41.12450997601578L155.25741189718246,46.90927168839495L155.61847564578056,39.33009356142826L155.97953939437866,31.749684562882173L156.34060314297676,33.246726722739865L156.70166689157486,24.56747331738367L157.06273064017296,16.4710484019816L157.42379438877106,23.387985227886116L157.78485813736916,16.37291338632408L158.14592188596725,20.112009722255163L158.50698563456535,28.301225079351696L158.86804938316345,34.21379229072284L159.22911313176155,29.345943528026567L159.59017688035965,27.369174568666267L159.95124062895775,28.96819551858725L160.31230437755585,31.5175896903358L160.67336812615395,31.74945782338072L161.03443187475204,35.94209794495488L161.39549562335014,34.061596099644774L161.75655937194827,41.7820545302619L162.11762312054634,31.032917810277425L162.47868686914444,35.89259315380186L162.83975061774254,25.026642402086868L163.2008143663406,36.29999005233741L163.56187811493874,34.459297185212954L163.92294186353683,32.71862882959155L164.28400561213493,32.04832208054873L164.64506936073303,33.32915193008166L165.00613310933113,35.01302743914584L165.36719685792923,44.7665618053202L165.72826060652733,33.477191230299525L166.08932435512543,30.992050714418287L166.45038810372353,37.39555213493586L166.81145185232162,33.10078206363076L167.17251560091972,34.79598375064902L167.53357934951782,28.06662527517008L167.89464309811592,32.50529935007111L168.25570684671402,28.929649803338343L168.61677059531212,34.2183810663477L168.97783434391022,36.89488972146471L169.33889809250832,27.574341426134L169.69996184110641,5.657981939703343L170.0610255897045,39.91029835143685L170.4220893383026,32.05447643844563L170.78315308690074,36.90260966163361L171.1442168354988,32.87338393790042L171.5052805840969,32.850396871299594L171.866344332695,38.44710516001203L172.22740808129308,43.054592192312704L172.5884718298912,42.065997168809766L172.9495355784893,46.487881723483326L173.3105993270874,38.46013728278666L173.6716630756855,34.370566460306634L174.0327268242836,34.84582325249467L174.3937905728817,34.60254256454273L174.7548543214798,38.093315957894085L175.1159180700779,33.339657526982826L175.476981818676,35.711385103655516L175.8380455672741,34.192813488277835L176.1991093158722,33.011446700053874L176.5601730644703,28.77376099752216L176.9212368130684,18.908400868649487L177.2823005616665,24.93433783075272L177.6433643102646,23.13791315200936L178.0044280588627,22.648091046132027L178.36549180746078,22.98627841112541L178.72655555605888,16.47359652209328L179.08761930465698,27.72338485842979L179.44868305325508,28.17127095365537L179.8097468018532,23.03326747352409L180.17081055045128,21.625139589597694L180.53187429904938,29.15787930724071L180.89293804764748,35.789944942353294L181.25400179624555,35.824150215717026L181.61506554484367,39.49828028591909L181.97612929344177,36.15504952530622L182.33719304203987,25.65493756064412L182.69825679063797,27.023979873365732L183.05932053923607,22.642951617432185L183.42038428783417,36.21118374759726L183.78144803643227,28.338032458422713L184.14251178503036,34.615563890198246L184.50357553362846,23.957241739109737L184.86463928222656,23.10696860861906L185.22570303082466,25.204157837495096L185.58676677942276,26.770582284800824L185.94783052802086,34.63967385718727L186.30889427661896,24.86133850840037L186.66995802521706,34.135459191526515L187.03102177381516,32.29207784174185L187.39208552241325,30.896399036157753L187.75314927101135,27.826054664116594L188.11421301960945,30.993475934141774L188.47527676820755,30.4901142408913L188.83634051680568,27.596432331848067L189.19740426540375,4.634566207046969L189.55846801400185,27.092250057544668L189.91953176259995,22.948499291333835L190.28059551119802,34.12555823329592L190.64165925979614,31.085812896833296L191.00272300839424,29.384424460560776L191.36378675699234,28.855009318880153L191.72485050559044,30.82847435979056L192.08591425418854,34.64144458472252L192.44697800278664,28.67353134075588L192.80804175138474,37.00958751784823L193.16910549998283,27.003508535519245L193.53016924858093,35.96750356623798L193.89123299717903,27.593333558661406L194.25229674577713,34.90264849040925L194.61336049437523,22.29623452833609L194.97442424297333,28.796143425452414L195.33548799157143,25.786662413875682L195.69655174016953,22.904576610764494L196.05761548876762,16.473553333616824L196.41867923736572,18.072002036224593L196.77974298596382,20.16817633590359L197.14080673456192,16.741904932159233L197.50187048316002,17.57674897943123L197.86293423175815,14.994186057754206L198.22399798035622,21.90469859778393L198.58506172895432,17.770524876230166L198.9461254775524,27.454990071410904L199.30718922615048,25.16782553166524L199.6682529747486,25.367960931624292L200.0293167233467,26.28359982125136L200.3903804719448,23.879524075703106L200.7514442205429,29.040493028196973L201.112507969141,22.376219586757355L201.4735717177391,20.465863707087824L201.8346354663372,30.062580715201918L202.1956992149353,24.700785347125485L202.5567629635334,22.539590796121868L202.9178267121315,26.759860745517297L203.2788904607296,20.685207181956628L203.6399542093277,28.691962023089168L204.0010179579258,20.02292269241797L204.3620817065239,19.39749956754595L204.723145455122,18.798669747059936L205.0842092037201,24.452311244878107L205.4452729523182,20.7759029825423L205.8063367009163,21.803551185892665L206.1674004495144,27.449548323375755L206.5284641981125,32.62678853437945L206.88952794671061,26.891488424676822L207.25059169530869,22.55323835468618L207.61165544390678,25.291247400295564L207.97271919250488,33.0407932698148L208.33378294110295,31.83962456512963L208.69484668970108,18.031836753108067L209.05591043829918,33.307352546583736L209.41697418689728,24.2815332117991L209.77803793549538,18.688193624251294L210.13910168409348,30.63738694565184L210.50016543269157,26.334940122654313L210.86122918128967,26.392154056857116L211.22229292988777,24.06045140075242L211.58335667848587,33.3583797315323L211.94442042708397,28.153336938801463L212.30548417568207,31.81903445897287L212.66654792428017,34.84485151177413L213.02761167287827,26.566236008386017L213.38867542147636,34.61887860576728L213.74973917007446,30.11982704076206L214.11080291867256,27.544519783131896L214.47186666727066,29.562987216523382L214.83293041586876,25.12813532178988L215.19399416446686,20.623166935508372L215.55505791306496,29.481468967187457L215.91612166166308,24.079357156326886L216.27718541026115,23.03224174720793L216.63824915885925,21.918993983495277L216.99931290745735,19.324770173171544L217.36037665605542,14.328457287217143L217.72144040465355,28.109111938896817L218.08250415325165,18.313382431211885L218.44356790184975,24.620843477180703L218.80463165044785,14.277462493625936L219.16569539904594,23.084262267115296L219.52675914764404,25.293190881736688L219.88782289624214,25.65827387045137L220.24888664484024,30.16167667446088L220.60995039343834,30.15551151944488L220.97101414203644,27.567053370729784L221.33207789063454,26.066243016300135L221.69314163923264,30.0278895714779L222.05420538783073,23.34510986787116L222.41526913642883,31.0376901369273L222.77633288502693,25.904275432420885L223.13739663362503,20.503707609594098L223.49846038222313,22.321931671835376L223.85952413082123,18.253199289251818L224.22058787941933,28.557289556338564L224.58165162801743,25.726360503605335L224.94271537661555,22.506411249074272L225.30377912521362,20.102378692002496L225.66484287381172,33.34365246105625L226.02590662240982,25.233364044707503L226.3869703710079,25.901781297904783L226.74803411960602,28.743183556181844L227.10909786820412,22.75152744727616L227.47016161680222,23.83495356798673L227.83122536540031,24.24873156392063L228.1922891139984,22.658737005581735L228.5533528625965,22.68391588736338L228.9144166111946,31.984942991329945L229.2754803597927,27.152551967815032L229.6365441083908,17.719897184688946L229.9976078569889,22.514098797885815L230.358671605587,26.800036825752944L230.7197353541851,29.88947050439356L231.0807991027832,25.01400977271958L231.4418628513813,30.091797719533446L231.8029265999794,23.69191333392019L232.1639903485775,30.97751779208635L232.5250540971756,26.704881814971806L232.8861178457737,22.944094066733964L233.2471815943718,27.3754908833499L233.6082453429699,26.88478341370494L233.96930909156802,24.87295620857062L234.3303728401661,26.19575446011266L235.7746278345585,34.182491442401655L237.21888282895088,28.8811923327397L239.02420157194138,26.423098600247418L240.82952031493187,23.417580131386753L242.27377530932426,22.100385584666633L244.07909405231476,25.91999603785574L245.88441279530525,21.04004370462895L247.32866778969765,17.317326598398854L249.13398653268814,21.869381221151098L250.93930527567863,19.012798213395065L252.38356027007103,26.40631987713907L254.18887901306152,14.87267527920765L255.99419775605202,24.15241046427482L257.7995164990425,17.206537359135805L259.2437714934349,18.07927929450967L261.0490902364254,15.722678481720378L262.8544089794159,23.042304662225302L264.2986639738083,25.20711624813324L266.1039827167988,17.40478326324933L267.9093014597893,17.5670855578212L269.35355645418167,18.373813906911646L269.71462020277977,22.576592523336995L270.07568395137787,18.9731080035197L270.43674769997597,19.52037078310131L270.79781144857407,20.72518891404814L271.15887519717216,27.374389577199945L271.51993894577026,17.520204466613716L271.88100269436836,25.225611713181245L272.24206644296646,30.549196076701396L272.60313019156456,25.201264209571647L272.96419394016266,22.033896925142027L273.32525768876076,24.240212636937038L273.68632143735886,23.12088609516132L274.04738518595695,25.18544643006474L274.40844893455505,22.224120569751364L274.76951268315315,23.55907637741951L275.13057643175125,26.4364222452382L275.49164018034935,20.699070682903294L275.85270392894745,30.402258082633484L276.21376767754555,23.1839412708066L276.57483142614365,30.498535993802818L276.93589517474174,28.567795153239736L277.29695892333984,28.40113082254445L277.65802267193794,2.355272767137844L278.01908642053604,30.24072238351894L278.38015016913414,25.383076898388566L278.74121391773224,34.137057165155895L279.10227766633034,25.746227202781245L279.46334141492844,32.51454168403556L279.82440516352654,38.07093352996383L280.18546891212463,31.0944721863654L280.54653266072273,32.100040281120805L280.90759640932083,26.32956315733388L281.26866015791893,26.622197476771188L281.62972390651703,33.09183125188248L281.9907876551151,34.430738805147584L282.3518514037132,35.17209059798252" fill="none"></path></g></g></g></g></g></g><g transform="translate(41, 176)" clip-path="url(#clip_1)"><clipPath id="clip_1"><rect width="288" height="23"></rect></clipPath><g><g><line x1="0" y1="0" x2="0" y2="5" style="visibility: inherit;" fill="rgb(0, 0, 0)" stroke="rgb(204, 204, 204)" stroke-width="1px"></line><line x1="36.106374859809875" y1="0" x2="36.106374859809875" y2="5" style="visibility: inherit;" fill="rgb(0, 0, 0)" stroke="rgb(204, 204, 204)" stroke-width="1px"></line><line x1="72.21274971961975" y1="0" x2="72.21274971961975" y2="5" style="visibility: inherit;" fill="rgb(0, 0, 0)" stroke="rgb(204, 204, 204)" stroke-width="1px"></line><line x1="108.31912457942963" y1="0" x2="108.31912457942963" y2="5" style="visibility: inherit;" fill="rgb(0, 0, 0)" stroke="rgb(204, 204, 204)" stroke-width="1px"></line><line x1="144.4254994392395" y1="0" x2="144.4254994392395" y2="5" style="visibility: inherit;" fill="rgb(0, 0, 0)" stroke="rgb(204, 204, 204)" stroke-width="1px"></line><line x1="180.53187429904938" y1="0" x2="180.53187429904938" y2="5" style="visibility: inherit;" fill="rgb(0, 0, 0)" stroke="rgb(204, 204, 204)" stroke-width="1px"></line><line x1="216.63824915885925" y1="0" x2="216.63824915885925" y2="5" style="visibility: inherit;" fill="rgb(0, 0, 0)" stroke="rgb(204, 204, 204)" stroke-width="1px"></line><line x1="252.74462401866913" y1="0" x2="252.74462401866913" y2="5" style="visibility: inherit;" fill="rgb(0, 0, 0)" stroke="rgb(204, 204, 204)" stroke-width="1px"></line><line x1="288.850998878479" y1="0" x2="288.850998878479" y2="5" style="visibility: inherit;" fill="rgb(0, 0, 0)" stroke="rgb(204, 204, 204)" stroke-width="1px"></line></g><g transform="translate(0, 8)"><text style="text-anchor: middle; visibility: hidden; font-family: Roboto, sans-serif; font-size: 12px; font-weight: 200;" x="0" y="0" dx="0em" dy="0.95em" fill="rgb(33, 33, 33)" stroke="none" stroke-width="1px">-100</text><text style="text-anchor: middle; visibility: inherit; font-family: Roboto, sans-serif; font-size: 12px; font-weight: 200;" x="36.106374859809875" y="0" dx="0em" dy="0.95em" fill="rgb(33, 33, 33)" stroke="none" stroke-width="1px">0</text><text style="text-anchor: middle; visibility: inherit; font-family: Roboto, sans-serif; font-size: 12px; font-weight: 200;" x="72.21274971961975" y="0" dx="0em" dy="0.95em" fill="rgb(33, 33, 33)" stroke="none" stroke-width="1px">100</text><text style="text-anchor: middle; visibility: inherit; font-family: Roboto, sans-serif; font-size: 12px; font-weight: 200;" x="108.31912457942963" y="0" dx="0em" dy="0.95em" fill="rgb(33, 33, 33)" stroke="none" stroke-width="1px">200</text><text style="text-anchor: middle; visibility: inherit; font-family: Roboto, sans-serif; font-size: 12px; font-weight: 200;" x="144.4254994392395" y="0" dx="0em" dy="0.95em" fill="rgb(33, 33, 33)" stroke="none" stroke-width="1px">300</text><text style="text-anchor: middle; visibility: inherit; font-family: Roboto, sans-serif; font-size: 12px; font-weight: 200;" x="180.53187429904938" y="0" dx="0em" dy="0.95em" fill="rgb(33, 33, 33)" stroke="none" stroke-width="1px">400</text><text style="text-anchor: middle; visibility: inherit; font-family: Roboto, sans-serif; font-size: 12px; font-weight: 200;" x="216.63824915885925" y="0" dx="0em" dy="0.95em" fill="rgb(33, 33, 33)" stroke="none" stroke-width="1px">500</text><text style="text-anchor: middle; visibility: inherit; font-family: Roboto, sans-serif; font-size: 12px; font-weight: 200;" x="252.74462401866913" y="0" dx="0em" dy="0.95em" fill="rgb(33, 33, 33)" stroke="none" stroke-width="1px">600</text><text style="text-anchor: middle; visibility: hidden; font-family: Roboto, sans-serif; font-size: 12px; font-weight: 200;" x="288.850998878479" y="0" dx="0em" dy="0.95em" fill="rgb(33, 33, 33)" stroke="none" stroke-width="1px">700</text></g><line x1="0" y1="0" x2="288.850998878479" y2="0" fill="rgb(0, 0, 0)" stroke="rgb(204, 204, 204)" stroke-width="1px"></line></g></g></g></g></svg>