<svg viewBox="0 0 330 200" xmlns="http://www.w3.org/2000/svg"><g><g><g><g><g><line x1="41.149001121520996" y1="176.89999961853027" x2="36.149001121520996" y2="176.89999961853027" style="visibility: inherit;" fill="rgb(0, 0, 0)" stroke="rgb(204, 204, 204)" stroke-width="1px"></line><line x1="41.149001121520996" y1="159.20999965667724" x2="36.149001121520996" y2="159.20999965667724" style="visibility: inherit;" fill="rgb(0, 0, 0)" stroke="rgb(204, 204, 204)" stroke-width="1px"></line><line x1="41.149001121520996" y1="141.51999969482424" x2="36.149001121520996" y2="141.51999969482424" style="visibility: inherit;" fill="rgb(0, 0, 0)" stroke="rgb(204, 204, 204)" stroke-width="1px"></line><line x1="41.149001121520996" y1="123.82999973297119" x2="36.149001121520996" y2="123.82999973297119" style="visibility: inherit;" fill="rgb(0, 0, 0)" stroke="rgb(204, 204, 204)" stroke-width="1px"></line><line x1="41.149001121520996" y1="106.13999977111816" x2="36.149001121520996" y2="106.13999977111816" style="visibility: inherit;" fill="rgb(0, 0, 0)" stroke="rgb(204, 204, 204)" stroke-width="1px"></line><line x1="41.149001121520996" y1="88.44999980926514" x2="36.149001121520996" y2="88.44999980926514" style="visibility: inherit;" fill="rgb(0, 0, 0)" stroke="rgb(204, 204, 204)" stroke-width="1px"></line><line x1="41.149001121520996" y1="70.75999984741212" x2="36.149001121520996" y2="70.75999984741212" style="visibility: inherit;" fill="rgb(0, 0, 0)" stroke="rgb(204, 204, 204)" stroke-width="1px"></line><line x1="41.149001121520996" y1="53.06999988555909" x2="36.149001121520996" y2="53.06999988555909" style="visibility: inherit;" fill="rgb(0, 0, 0)" stroke="rgb(204, 204, 204)" stroke-width="1px"></line><line x1="41.149001121520996" y1="35.379999923706045" x2="36.149001121520996" y2="35.379999923706045" style="visibility: inherit;" fill="rgb(0, 0, 0)" stroke="rgb(204, 204, 204)" stroke-width="1px"></line><line x1="41.149001121520996" y1="17.689999961853022" x2="36.149001121520996" y2="17.689999961853022" style="visibility: inherit;" fill="rgb(0, 0, 0)" stroke="rgb(204, 204, 204)" stroke-width="1px"></line><line x1="41.149001121520996" y1="0" x2="36.149001121520996" y2="0" style="visibility: inherit;" fill="rgb(0, 0, 0)" stroke="rgb(204, 204, 204)" stroke-width="1px"></line></g><g transform="translate(31.149001121520996, 0)"><text style="text-anchor: end; visibility: hidden; font-family: Roboto, sans-serif; font-size: 12px; font-weight: 200;" x="0" y="176.89999961853027" dx="0em" dy="0.3em" fill="rgb(33, 33, 33)" stroke="none" stroke-width="1px">0</text><text style="text-anchor: end; visibility: inherit; font-family: Roboto, sans-serif; font-size: 12px; font-weight: 200;" x="0" y="159.20999965667724" dx="0em" dy="0.3em" fill="rgb(33, 33, 33)" stroke="none" stroke-width="1px">50</text><text style="text-anchor: end; visibility: hidden; font-family: Roboto, sans-serif; font-size: 12px; font-weight: 200;" x="0" y="141.51999969482424" dx="0em" dy="0.3em" fill="rgb(33, 33, 33)" stroke="none" stroke-width="1px">100</text><text style="text-anchor: end; visibility: inherit; font-family: Roboto, sans-serif; font-size: 12px; font-weight: 200;" x="0" y="123.82999973297119" dx="0em" dy="0.3em" fill="rgb(33, 33, 33)" stroke="none" stroke-width="1px">150</text><text style="text-anchor: end; visibility: hidden; font-family: Roboto, sans-serif; font-size: 12px; font-weight: 200;" x="0" y="106.13999977111816" dx="0em" dy="0.3em" fill="rgb(33, 33, 33)" stroke="none" stroke-width="1px">200</text><text style="text-anchor: end; visibility: inherit; font-family: Roboto, sans-serif; font-size: 12px; font-weight: 200;" x="0" y="88.44999980926514" dx="0em" dy="0.3em" fill="rgb(33, 33, 33)" stroke="none" stroke-width="1px">250</text><text style="text-anchor: end; visibility: hidden; font-family: Roboto, sans-serif; font-size: 12px; font-weight: 200;" x="0" y="70.75999984741212" dx="0em" dy="0.3em" fill="rgb(33, 33, 33)" stroke="none" stroke-width="1px">300</text><text style="text-anchor: end; visibility: inherit; font-family: Roboto, sans-serif; font-size: 12px; font-weight: 200;" x="0" y="53.06999988555909" dx="0em" dy="0.3em" fill="rgb(33, 33, 33)" stroke="none" stroke-width="1px">350</text><text style="text-anchor: end; visibility: hidden; font-family: Roboto, sans-serif; font-size: 12px; font-weight: 200;" x="0" y="35.379999923706045" dx="0em" dy="0.3em" fill="rgb(33, 33, 33)" stroke="none" stroke-width="1px">400</text><text style="text-anchor: end; visibility: inherit; font-family: Roboto, sans-serif; font-size: 12px; font-weight: 200;" x="0" y="17.689999961853022" dx="0em" dy="0.3em" fill="rgb(33, 33, 33)" stroke="none" stroke-width="1px">450</text><text style="text-anchor: end; visibility: hidden; font-family: Roboto, sans-serif; font-size: 12px; font-weight: 200;" x="0" y="0" dx="0em" dy="0.3em" fill="rgb(33, 33, 33)" stroke="none" stroke-width="1px">500</text></g><line x1="41.149001121520996" y1="0" x2="41.149001121520996" y2="176.89999961853027" fill="rgb(0, 0, 0)" stroke="rgb(204, 204, 204)" stroke-width="1px"></line></g></g><g transform="translate(41, 0)" clip-path="url(#clip_0)"><clipPath id="clip_0"><rect width="288" height="176"></rect></clipPath><g><g><g><line x1="0" y1="0" x2="0" y2="176.89999961853027" fill="rgb(0, 0, 0)" stroke="rgb(66, 66, 66)" stroke-width="1px" opacity="0.25"></line><line x1="20.632214205605642" y1="0" x2="20.632214205605642" y2="176.89999961853027" fill="rgb(0, 0, 0)" stroke="rgb(66, 66, 66)" stroke-width="1px" opacity="0.25"></line><line x1="41.264428411211284" y1="0" x2="41.264428411211284" y2="176.89999961853027" fill="rgb(0, 0, 0)" stroke="rgb(66, 66, 66)" stroke-width="1px" opacity="0.25"></line><line x1="61.896642616816926" y1="0" x2="61.896642616816926" y2="176.89999961853027" fill="rgb(0, 0, 0)" stroke="rgb(66, 66, 66)" stroke-width="1px" opacity="0.25"></line><line x1="82.52885682242257" y1="0" x2="82.52885682242257" y2="176.89999961853027" fill="rgb(0, 0, 0)" stroke="rgb(66, 66, 66)" stroke-width="1px" opacity="0.25"></line><line x1="103.16107102802822" y1="0" x2="103.16107102802822" y2="176.89999961853027" fill="rgb(0, 0, 0)" stroke="rgb(66, 66, 66)" stroke-width="1px" opacity="0.25"></line><line x1="123.79328523363385" y1="0" x2="123.79328523363385" y2="176.89999961853027" fill="rgb(0, 0, 0)" stroke="rgb(66, 66, 66)" stroke-width="1px" opacity="0.25"></line><line x1="144.4254994392395" y1="0" x2="144.4254994392395" y2="176.89999961853027" fill="rgb(0, 0, 0)" stroke="rgb(66, 66, 66)" stroke-width="1px" opacity="0.25"></line><line x1="165.05771364484514" y1="0" x2="165.05771364484514" y2="176.89999961853027" fill="rgb(0, 0, 0)" stroke="rgb(66, 66, 66)" stroke-width="1px" opacity="0.25"></line><line x1="185.6899278504508" y1="0" x2="185.6899278504508" y2="176.89999961853027" fill="rgb(0, 0, 0)" stroke="rgb(66, 66, 66)" stroke-width="1px" opacity="0.25"></line><line x1="206.32214205605644" y1="0" x2="206.32214205605644" y2="176.89999961853027" fill="rgb(0, 0, 0)" stroke="rgb(66, 66, 66)" stroke-width="1px" opacity="0.25"></line><line x1="226.95435626166207" y1="0" x2="226.95435626166207" y2="176.89999961853027" fill="rgb(0, 0, 0)" stroke="rgb(66, 66, 66)" stroke-width="1px" opacity="0.25"></line><line x1="247.5865704672677" y1="0" x2="247.5865704672677" y2="176.89999961853027" fill="rgb(0, 0, 0)" stroke="rgb(66, 66, 66)" stroke-width="1px" opacity="0.25"></line><line x1="268.21878467287337" y1="0" x2="268.21878467287337" y2="176.89999961853027" fill="rgb(0, 0, 0)" stroke="rgb(66, 66, 66)" stroke-width="1px" opacity="0.25"></line><line x1="288.850998878479" y1="0" x2="288.850998878479" y2="176.89999961853027" fill="rgb(0, 0, 0)" stroke="rgb(66, 66, 66)" stroke-width="1px" opacity="0.25"></line></g><g><line x1="0" y1="176.89999961853027" x2="288.850998878479" y2="176.89999961853027" fill="rgb(0, 0, 0)" stroke="rgb(66, 66, 66)" stroke-width="1px" opacity="0.25"></line><line x1="0" y1="159.20999965667724" x2="288.850998878479" y2="159.20999965667724" fill="rgb(0, 0, 0)" stroke="rgb(66, 66, 66)" stroke-width="1px" opacity="0.25"></line><line x1="0" y1="141.51999969482424" x2="288.850998878479" y2="141.51999969482424" fill="rgb(0, 0, 0)" stroke="rgb(66, 66, 66)" stroke-width="1px" opacity="0.25"></line><line x1="0" y1="123.82999973297119" x2="288.850998878479" y2="123.82999973297119" fill="rgb(0, 0, 0)" stroke="rgb(66, 66, 66)" stroke-width="1px" opacity="0.25"></line><line x1="0" y1="106.13999977111816" x2="288.850998878479" y2="106.13999977111816" fill="rgb(0, 0, 0)" stroke="rgb(66, 66, 66)" stroke-width="1px" opacity="0.25"></line><line x1="0" y1="88.44999980926514" x2="288.850998878479" y2="88.44999980926514" fill="rgb(0, 0, 0)" stroke="rgb(66, 66, 66)" stroke-width="1px" opacity="0.25"></line><line x1="0" y1="70.75999984741212" x2="288.850998878479" y2="70.75999984741212" fill="rgb(0, 0, 0)" stroke="rgb(66, 66, 66)" stroke-width="1px" opacity="0.25"></line><line x1="0" y1="53.06999988555909" x2="288.850998878479" y2="53.06999988555909" fill="rgb(0, 0, 0)" stroke="rgb(66, 66, 66)" stroke-width="1px" opacity="0.25"></line><line x1="0" y1="35.379999923706045" x2="288.850998878479" y2="35.379999923706045" fill="rgb(0, 0, 0)" stroke="rgb(66, 66, 66)" stroke-width="1px" opacity="0.25"></line><line x1="0" y1="17.689999961853022" x2="288.850998878479" y2="17.689999961853022" fill="rgb(0, 0, 0)" stroke="rgb(66, 66, 66)" stroke-width="1px" opacity="0.25"></line><line x1="0" y1="0" x2="288.850998878479" y2="0" fill="rgb(0, 0, 0)" stroke="rgb(66, 66, 66)" stroke-width="1px" opacity="0.25"></line></g></g></g><g><g><line x1="0" y1="176.89999961853027" x2="288.850998878479" y2="176.89999961853027" fill="rgb(0, 0, 0)" stroke="rgb(153, 153, 153)" stroke-width="1.5px"></line></g></g><g><g><line x1="20.632214205605642" y1="0" x2="20.632214205605642" y2="176.89999961853027" fill="rgb(0, 0, 0)" stroke="rgb(153, 153, 153)" stroke-width="1.5px"></line></g></g><g><g><g><g><g><path style="fill: none;" stroke="rgb(0, 153, 136)" stroke-width="2px" d="M21.45750277382987,172.14123212581669L21.870147057941985,170.56076880873113L22.282791342054093,169.53971592196052L22.69543562616621,169.6215370428216L23.10807991027832,169.97160767770052L23.520724194390436,170.14214515293483L23.933368478502544,170.22171688251146L24.34601276261466,170.3098555037983L24.75865704672677,170.22289164595045L25.171301330838887,170.14399407891563L25.583945614950995,170.00611446086884L25.99658989906311,169.76715105331388L26.409234183175222,169.55608419808163L26.821878467287338,169.40820640897152L27.23452275139945,169.10235197702116L27.64716703551156,168.7469657385026L28.059811319623673,168.05294994806437L28.47245560373579,167.40363525053831L28.8850998878479,166.42261556397872L29.297744171960012,165.5263927679449L29.710388456072124,164.60630195738582L30.12303274018424,163.82062115247206L30.535677024296355,163.0254537774028L30.948321308408463,162.37578187994498L31.360965592520575,161.82715085888188L31.77360987663269,161.04311845255387L32.1862541607448,160.30011119762824L32.598898444856914,159.72637056881356L33.011542728969026,158.6915996485736L33.424187013081145,158.34708642620748L33.83683129719326,157.88397931984264L34.24947558130537,157.2493021316137L34.66211986541748,157.74817119842518L35.07476414952959,157.7738606857794L35.487408433641704,157.41176335855647L35.90005271775382,157.85725265899114L36.312697001865935,158.25186316645105L36.72534128597805,157.3940429024134L37.13798557009015,156.9001136061383L37.55062985420227,156.4643873551805L37.96327413831438,155.01467735884626L38.3759184224265,154.3263207023062L38.788562706538606,152.7087099182414L39.20120699065072,151.6577761716495L39.61385127476284,150.51228835650838L40.02649555887495,150.20522377522423L40.43913984298707,148.6262099396998L40.85178412709917,148.1550517655805L41.264428411211284,146.92382130894916L41.6770726953234,146.80370505452595L42.089716979435515,144.89931883975055L42.50236126354762,143.77569435938545L42.91500554765974,143.14641409245846L43.32764983177185,141.37344461267875L43.74029411588397,139.876410165126L44.152938399996074,137.73956450597933L44.565582684108186,136.76447643172926L44.978226968220305,136.19562574412686L45.39087125233242,134.1192776735636L45.80351553644452,133.5804598721817L46.21615982055664,133.35364037095414L46.62880410466875,132.13290355475868L47.04144838878087,131.15070250561905L47.454092672892976,129.4153130297297L47.86673695700509,128.28224336783165L48.27938124111721,127.43808669311747L48.69202552522932,126.31280331340261L49.10466980934143,124.79241104740612L49.51731409345354,121.56619326359892L49.929958377565654,121.58541489378639L50.34260266167777,121.49261315044419L50.75524694578988,119.02520120143645L51.16789122990199,117.48830669328632L51.58053551401411,101.83174318179087L51.99317979812622,103.95031539186473L52.40582408223834,108.40206758922417L52.818468366350444,108.68536408734937L53.231112650462556,114.3705708952298L53.643756934574675,113.91174187917242L54.05640121868679,113.87244358035723L54.4690455027989,113.65415583317743L54.88168978691101,113.15662099083576L55.29433407102312,113.14348305966891L55.70697835513524,113.91189373069126L56.119622639247346,110.92613260899913L56.53226692335946,109.50366964124284L56.94491120747158,109.19047970122085L57.35755549158369,108.55516335291854L57.7701997756958,106.80685311841845L58.18284405980791,105.18810732074388L58.595488343920024,101.27009065781978L59.00813262803214,95.36036664796443L59.42077691214425,93.62973095151581L59.83342119625637,90.91120334952558L60.24606548036848,89.07805325483157L60.65870976448059,82.77080550294554L61.07135404859271,76.28624852023437L61.483998332704815,71.50646658594279L61.896642616816926,67.27928763581859L62.309286900929045,60.99839683387754L62.72193118504115,55.309275122967776L63.13457546915327,54.638050090996785L63.54721975326538,49.28715949654695L63.95986403737749,46.583519650502744L64.3725083214896,47.469065991374734L64.78515260560172,47.061636114816835L65.19779688971383,48.327682196855285L65.61044117382595,48.711393028041336L66.02308545793805,46.55618608707273L66.43572974205017,52.33051058889185L66.84837402616229,49.844575407795574L67.2610183102744,52.17045237196054L67.67366259438651,49.81385009175378L68.08630687849862,50.08084469168457L68.49895116261074,51.75040096498981L68.91159544672284,49.89474193728311L69.32423973083496,49.65826694113138L69.73688401494708,51.28819350944378L70.14952829905918,54.1117744415685L70.56217258317129,51.96246387094782L70.97481686728341,53.93737785600844L71.38746115139553,54.49066022789914L71.80010543550765,50.49858211152985L72.21274971961975,54.552001011493715L72.62539400373187,58.44470390105662L73.03803828784397,54.86254125546576L73.4506825719561,56.14891720318294L73.86332685606821,55.341612274730224L74.2759711401803,54.96014745708511L74.68861542429242,55.11780974974652L75.10125970840454,53.934831527512436L75.51390399251666,52.495081602582L75.92654827662876,53.68803101330561L76.33919256074088,53.33793929240932L76.751836844853,55.183893276434034L77.16448112896511,54.96795912429273L77.57712541307721,55.84485425095481L77.98976969718933,55.65162246864003L78.40241398130144,55.64089052793054L78.81505826541355,55.25149914265095L79.22770254952567,56.25030795140369L79.64034683363778,55.362341904413206L80.0529911177499,57.54179859849525L80.46563540186202,60.00576633315413L80.87827968597414,55.745244945309295L81.29092397008623,55.75670729993628L81.70356825419834,53.9374161302247L82.11621253831046,54.055593842781185L82.52885682242257,39.118871999259774L82.94150110653469,45.25803519847311L83.3541453906468,51.58434396435291L83.76678967475891,53.94535189054898L84.17943395887103,59.41833496515612L84.59207824298313,59.76477287289516L85.00472252709524,58.38800722740102L85.41736681120736,59.321943038945975L85.83001109531948,61.068830177611176L86.2426553794316,61.13544386917686L86.6552996635437,61.039903920345985L87.06794394765582,59.71670843033972L87.48058823176794,60.17853064046399L87.89323251588003,60.057702619740375L88.30587679999215,59.182142000444216L88.71852108410427,60.727218002331526L89.13116536821637,59.46508723855577L89.54380965232849,59.67898805065702L89.95645393644061,58.27542463985397L90.36909822055271,55.308944769339845L90.78174250466483,52.66102461501646L91.19438678877695,50.250603119897434L91.60703107288904,48.94930370640014L92.01967535700116,45.19960134497744L92.43231964111328,42.975658463224256L92.8449639252254,39.40549872776319L93.2576082093375,34.50359013853158L93.67025249344962,32.091067618130026L94.08289677756174,28.35875413523014L94.49554106167383,26.96903021846268L94.90818534578595,26.355565069587147L95.32082962989807,26.187586829439685L95.73347391401018,30.42732382862798L96.1461181981223,31.133427252807L96.55876248223441,31.399542064001803L96.97140676634652,32.0979180931117L97.38405105045864,30.69690789174847L97.79669533457076,32.46431134294331L98.20933961868286,32.98799839040363L98.62198390279497,33.832668762267204L99.03462818690709,35.97634015666025L99.4472724710192,38.30641710725598L99.85991675513131,35.02121286046635L100.27256103924343,38.36849637758406L100.68520532335555,36.69411599774933L101.09784960746765,36.54807468205954L101.51049389157976,38.83963395978077L101.92313817569188,40.79946674439052L102.33578245980398,40.96554641489255L102.7484267439161,40.37132383538925L103.16107102802822,39.710549065198826L103.57371531214034,38.626722324683975L103.98635959625244,36.148659724257904L104.39900388036456,36.35189521943981L104.81164816447668,38.11410030207435L105.22429244858877,40.23852854710785L105.63693673270089,38.15464657803051L106.04958101681301,39.38635913927867L106.46222530092511,36.414300226510676L106.87486958503723,34.49125514282323L107.28751386914935,36.72846201840377L107.70015815326146,36.70081743821022L108.11280243737357,36.31308187985929L108.52544672148568,42.00994195784352L108.9380910055978,40.17466787191957L109.3507352897099,38.001578390938455L109.76337957382202,40.049802622367366L110.17602385793414,40.5488044015683L110.58866814204625,39.67281380658443L111.00131242615836,40.86686797371787L111.41395671027048,38.48648372530487L111.82660099438257,39.33150886715575L112.23924527849469,39.41851169975403L112.65188956260681,39.091073734604336L113.06453384671892,41.611731894479476L113.47717813083104,28.441772329878297L113.88982241494315,31.37256347693738L114.30246669905527,34.23360973750223L114.71511098316738,38.2152528234295L115.1277552672795,37.93054374911084L115.5403995513916,39.36401472684135L115.9530438355037,42.287171964792535L116.36568811961583,40.052277954348305L116.77833240372794,42.92029179779461L117.19097668784005,42.036796103130676L117.60362097195217,42.20990641674951L118.01626525606429,43.6753325140941L118.42890954017639,43.47627988625191L118.8415538242885,42.01440362005863L119.25419810840062,40.939051391043584L119.66684239251273,42.87512027756046L120.07948667662484,42.23806521686492L120.49213096073696,40.98379205781636L120.90477524484908,39.838493751613036L121.31741952896118,40.352900241374115L121.7300638130733,42.97544882018246L122.14270809718542,41.51730671668078L122.55535238129751,40.82981625398034L122.96799666540963,37.197763577541075L123.38064094952175,35.6173488356206L123.79328523363385,31.72602558031088L124.20592951774597,28.86260467513999L124.61857380185809,23.90598216587663L125.03121808597021,23.698783390680408L125.4438623700823,25.848402194389593L125.85650665419442,22.058206671163386L126.26915093830654,21.2797278916001L126.68179522241864,24.08832676670074L127.09443950653076,25.484503358009263L127.50708379064288,28.976218931094692L127.91972807475499,29.124108769867444L128.3323723588671,29.309273903391926L128.7450166429792,28.533234169501657L129.1576609270913,28.707218709135883L129.57030521120345,29.83136710161585L129.98294949531555,31.891294954917022L130.39559377942766,31.8345601023025L130.80823806353976,33.477575239363446L131.2208823476519,33.41541594007083L131.633526631764,33.67388800390041L132.0461709158761,36.91715461444501L132.45881519998824,34.563459892777985L132.87145948410034,33.95192718158631L133.28410376821245,34.72819357047255L133.69674805232458,30.84757310311828L134.10939233643668,33.02430309326429L134.5220366205488,34.33457787689353L134.9346809046609,34.38446560022129L135.34732518877303,33.718130891969416L135.75996947288513,33.98293593716712L136.17261375699724,33.20909039451978L136.58525804110937,33.25711500874453L136.99790232522147,32.80456397509475L137.41054660933358,33.68794936071517L137.82319089344568,38.1193943385572L138.23583517755782,39.17258719054133L138.64847946166992,36.89442880644461L139.06112374578203,34.53347756963408L139.47376802989416,35.67830739575479L139.88641231400626,36.582572893497556L140.29905659811837,35.18985656155084L140.7117008822305,35.03230743719012L141.12434516634258,32.246034572382094L141.5369894504547,29.568316221877474L141.94963373456682,30.743109473154927L142.36227801867895,30.01772560522827L142.77492230279105,31.697987789676052L143.18756658690316,36.26387790761418L143.6002108710153,36.5162826331544L144.0128551551274,32.93950615034625L144.4254994392395,22.02689646608908L144.8381437233516,27.85704435931205L145.25078800746374,32.67834595616197L145.66343229157584,32.42879814907544L146.07607657568795,33.54085103680962L146.48872085980005,34.88555448673923L146.9013651439122,34.080686267203696L147.3140094280243,33.58857050884207L147.72665371213643,37.13603029846824L148.13929799624853,37.660460243085765L148.5519422803606,39.818113022776544L148.96458656447274,40.55209667178037L149.37723084858484,41.157656870592135L149.78987513269698,43.289746811748614L150.20251941680908,41.35790300016383L150.61516370092122,42.50884898606354L151.02780798503332,39.25353597576078L151.4404522691454,37.490450886454326L151.85309655325753,36.33528755768968L152.26574083736963,34.119623010979815L152.67838512148177,35.70910018974552L153.09102940559387,34.761323124640455L153.503673689706,34.02989679315493L153.91631797381808,34.702492117355156L154.32896225793021,34.49862066572421L154.74160654204232,33.90375107945608L155.15425082615442,32.4043904727369L155.56689511026656,30.952138682650997L155.97953939437866,26.134643557050396L156.3921836784908,26.92486279455365L156.80482796260287,26.12865280903329L157.217472246715,24.932356946223702L157.6301165308271,24.018650586187043L158.04276081493924,25.550534956597446L158.45540509905135,24.524832338408636L158.86804938316345,21.304338011882503L159.28069366727556,23.87195675050141L159.69333795138766,25.837299616291936L160.1059822354998,26.770888151237305L160.5186265196119,25.27583988015201L160.93127080372403,23.815559763930295L161.34391508783614,25.058054233573856L161.75655937194827,26.69798426304061L162.16920365606035,30.334768534765676L162.58184794017245,30.239692125172144L162.99449222428458,32.4734753613901L163.4071365083967,35.283397331201705L163.81978079250882,35.63205820884352L164.23242507662093,31.32961372953257L164.64506936073303,29.059743261977204L165.05771364484514,28.24543790653261L165.47035792895724,28.238470988614015L165.88300221306937,26.00026324014129L166.29564649718148,30.08463144312369L166.7082907812936,29.385991849243286L167.12093506540572,28.50891090884389L167.53357934951782,30.95157210138563L167.94622363362993,28.15383995647528L168.35886791774206,27.88144337645756L168.77151220185416,25.971653469322167L169.18415648596627,25.66465521659133L169.5968007700784,26.107026043875134L170.00944505419048,28.977218976522977L170.4220893383026,31.242200928788694L170.83473362241472,28.689855960633377L171.24737790652685,28.885737545351365L171.66002219063895,30.985626203821422L172.0726664747511,31.50820685898961L172.4853107588632,31.743765501282134L172.89795504297527,31.404818915232394L173.3105993270874,29.973313214786067L173.7232436111995,30.38137830252837L174.13588789531164,28.202868752001024L174.54853217942374,29.11776694755714L174.96117646353588,28.50923310127351L175.37382074764795,18.959366343582865L175.78646503176006,21.79083186376832L176.1991093158722,23.911399141278842L176.6117535999843,23.52623920130082L177.02439788409643,26.840195907892095L177.43704216820854,29.754340838053626L177.84968645232067,30.286929661565484L178.26233073643274,33.8837411590547L178.67497502054485,32.08401447965712L179.08761930465698,30.792412415346345L179.5002635887691,30.80683719312405L179.91290787288122,31.039039932843735L180.32555215699333,32.480001793595264L180.73819644110543,30.95741361245951L181.15084072521753,33.37828317461501L181.56348500932967,31.125065195778294L181.97612929344177,29.47644253167468L182.3887735775539,32.072866945499996L182.801417861666,30.281053590764564L183.2140621457781,27.78040466547007L183.62670642989022,30.62930219544573L184.03935071400232,27.296075128601895L184.45199499811446,27.89610244734211L184.86463928222656,26.501435822350516L185.2772835663387,26.21552645896059L185.6899278504508,24.891146519682145L186.10257213456288,27.53903746470721L186.515216418675,23.112843812271045L186.92786070278711,21.096507101852463L187.34050498689925,20.7251747954729L187.75314927101135,17.473157266321973L188.16579355512349,17.180656332656877L188.57843783923556,17.339093391366593L188.99108212334767,16.40113045792166L189.4037264074598,16.942958447425834L189.8163706915719,18.92765450756906L190.22901497568404,18.4648026550335L190.64165925979614,22.060877621584456L191.05430354390828,23.09672783830909L191.46694782802035,23.925166915651563L191.87959211213249,24.502284522040636L192.2922363962446,25.214810641724906L192.7048806803567,24.1767167268522L193.11752496446883,24.057839666392585L193.53016924858093,26.05090101111435L193.94281353269304,24.58102844137155L194.35545781680514,24.61469628182884L194.76810210091728,22.955163251932422L195.18074638502938,25.798130237240223L195.5933906691415,25.35919228119434L196.00603495325362,27.489801309045035L196.41867923736572,25.509717103875765L196.83132352147783,26.009774560532374L197.24396780558993,23.879947609102075L197.65661208970207,23.90763908191287L198.06925637381417,25.821368258383405L198.4819006579263,23.501990031997234L198.8945449420384,22.733473478122647L199.30718922615048,21.39908391389196L199.71983351026262,20.358918247159163L200.13247779437472,21.99627544624674L200.54512207848686,19.61679942382783L200.95776636259896,20.080440847313604L201.3704106467111,20.769684982745204L201.7830549308232,23.211047043127458L202.1956992149353,24.90644755522679L202.6083434990474,27.994583946887843L203.0209877831595,27.553345738003436L203.43363206727165,27.633812623940095L203.84627635138375,25.601582916238527L204.25892063549588,25.477448709861363L204.67156491960796,26.389578699044225L205.0842092037201,29.050064527352458L205.4968534878322,30.165888542463332L205.90949777194433,25.312267826721232L206.32214205605644,16.1000627692599L206.73478634016854,22.98297868018943L207.14743062428067,23.50240049283331L207.56007490839275,21.576717745400515L207.97271919250488,23.149113864984326L208.385363476617,26.144423097251313L208.79800776072912,26.220629907412512L209.21065204484123,26.289239567190346L209.62329632895336,28.70460116115996L210.03594061306543,26.846941256996924L210.44858489717754,29.45151664681106L210.86122918128967,28.932244763607223L211.27387346540178,29.751913078999422L211.6865177495139,30.578761630988787L212.09916203362602,32.285197583302924L212.51180631773815,31.081751683908454L212.92445060185022,29.27554541369949L213.33709488596233,31.412878690526608L213.74973917007446,30.895658030620794L214.16238345418657,32.995022360438014L214.5750277382987,30.814821329515574L214.9876720224108,30.3140876843187L215.4003163065229,29.304933236033555L215.81296059063502,27.634214070336107L216.22560487474715,24.829795216405014L216.63824915885925,26.690464716717983L217.05089344297136,24.493640850319977L217.4635377270835,24.327927372722762L217.8761820111956,23.809653122516846L218.2888262953077,21.550547094660686L218.7014705794198,21.697925850194512L219.11411486353194,20.748663579385315L219.52675914764404,18.18058106251806L219.93940343175618,20.727196936649833L220.35204771586828,23.679962937548645L220.76469199998036,21.533330735013923L221.1773362840925,22.76833583188064L221.5899805682046,23.415434185613307L222.00262485231673,19.760245508818354L222.41526913642883,21.089852212137142L222.82791342054097,22.771187679976993L223.24055770465307,21.314203360529355L223.65320198876515,23.05183156449817L224.06584627287728,25.895769608483256L224.47849055698939,27.599666372867897L224.89113484110152,27.07872900758053L225.30377912521362,27.27405875284025L225.71642340932576,26.7909324582242L226.12906769343783,28.085715303525685L226.54171197754997,28.4251893964154L226.95435626166207,26.393157584997695L227.36700054577418,28.250970605769513L227.7796448298863,27.31229253643008L228.1922891139984,23.567019212430445L228.60493339811055,22.341694571295903L229.01757768222262,22.333789411511695L229.43022196633476,20.701553362607758L229.84286625044686,22.787444749116418L230.255510534559,25.095382672005265L230.6681548186711,25.34777380464529L231.0807991027832,24.21122878241688L231.4934433868953,25.909060242952002L231.9060876710074,23.586387622572182L232.31873195511955,27.48929355796581L232.73137623923165,26.19677433162882L233.14402052334378,25.8114102168603L233.5566648074559,25.8475586492781L233.96930909156802,27.005808612039605L234.3819533756801,25.592452646977254L234.7945976597922,24.456082567096814L235.20724194390434,24.20763096745277L235.61988622801644,24.224071206039916L236.03253051212857,22.921662129365746L236.44517479624068,22.816492079852125L236.85781908035278,22.763461602856616L237.2704633644649,14.460475666038363L237.683107648577,21.470262596154985L238.09575193268913,23.743178344819007L238.50839621680123,21.333865880766965L238.92104050091336,23.597214065724486L239.33368478502547,23.163967958589016L239.74632906913757,24.618395505454586L240.15897335324968,26.726825505030195L240.5716176373618,27.944738963861575L240.98426192147392,26.772447287404784L241.39690620558602,28.10018746025625L241.80955048969815,26.3368778097218L242.22219477381023,24.915439395673197L242.63483905792236,27.340270754238453L243.04748334203447,27.08611517853181L243.4601276261466,24.282721785113292L243.8727719102587,23.74727069776155L244.28541619437084,25.19855877199691L244.69806047848294,25.873048628680134L245.11070476259502,24.756346400951305L245.52334904670715,24.80299032399904L245.93599333081926,25.36009597844448L246.3486376149314,28.889054164027353L246.7612818990435,28.88590943151227L247.17392618315563,27.900785099006328L247.5865704672677,26.107503111958497L247.9992147513798,24.50465610104174L248.41185903549194,25.070792075767336L248.82450331960405,23.458492727312006L249.23714760371618,21.002026275746747L249.6497918878283,21.348968253908478L250.06243617194042,20.4145002377031L250.4750804560525,22.811228093477496L250.8877247401646,19.63580696776956L251.30036902427673,21.442448366371654L251.71301330838884,19.748083963477317L252.12565759250097,19.080562095890254L252.53830187661308,17.737408650222307L252.95094616072518,19.859367055023508L253.36359044483729,21.998466732267413L253.77623472894942,20.16099334466016L254.18887901306152,19.123430229924594L254.60152329717366,19.81202108628325L255.01416758128576,19.236738214534604L255.42681186539784,20.57267993805556L255.83945614950997,19.932851164241214L256.2521004336221,22.81246089242685L256.6647447177342,21.495624848696636L257.0773890018463,21.187450474837238L257.4900332859584,21.615394650469582L257.9026775700706,23.918992621161728L258.3153218541826,21.359477359342506L258.72796613829473,23.8394888893922L259.1406104224069,24.393938018907818L259.553254706519,26.856041242025253L259.9658989906311,26.1941304290438L260.3785432747432,21.484195637566817L260.7911875588553,21.70407615259692L261.2038318429674,22.718530746332966L261.6164761270795,23.178298273403517L262.0291204111917,23.155333402106645L262.4417646953038,23.967378613289867L262.8544089794159,23.27007539587445L263.267053263528,21.089137189929165L263.6796975476401,22.077112864925287L264.0923418317522,23.820836617050475L264.50498611586437,22.322457660922172L264.9176303999765,21.673102869714608L265.3302746840886,25.164764954882163L265.7429189682007,27.530804446609153L266.1555632523128,25.79205917628813L266.5682075364249,27.674649903293993L266.980851820537,28.031908003272303L267.39349610464916,25.57823426549702L267.80614038876126,26.707392888315983L268.21878467287337,16.96654483984473L268.6314289569855,19.565469537476318L269.0440732410976,23.83557067589337L269.4567175252097,24.454573164891425L269.8693618093218,25.679728779984398L270.28200609343395,29.062660134053008L270.69465037754605,27.736086961544302L271.10729466165816,29.64746885054081L271.51993894577026,29.960013227436985L271.93258322988237,33.204381348447725L272.3452275139945,32.36041768361478L272.7578717981066,32.71796881146531L273.17051608221874,32.47079739932751L273.58316036633084,30.014303702530064L273.99580465044295,28.657461212226504L274.40844893455505,26.59776550588663L274.82109321866716,29.195391804284963L275.23373750277926,31.289530604630016L275.64638178689137,31.21681510108226L276.05902607100353,32.798925299842374" fill="none"></path></g></g></g></g><g opacity="0.2"><g><g><g><path style="fill: none;" stroke="rgb(0, 153, 136)" stroke-width="2px" d="M21.45750277382987,172.14123212581669L21.870147057941985,169.61249081847978L22.282791342054093,168.55950515066073L22.69543562616621,169.7177586809542L23.10807991027832,170.42865989859845L23.520724194390436,170.37805987467496L23.933368478502544,170.33550572895373L24.34601276261466,170.43836245976527L24.75865704672677,170.09463684748462L25.171301330838887,170.02684038690697L25.583945614950995,169.8005455917864L25.99658989906311,169.41000637029276L26.409234183175222,169.24017308513655L26.821878467287338,169.1866794332896L27.23452275139945,168.64392984949907L27.64716703551156,168.21413702663438L28.059811319623673,167.01221994663038L28.47245560373579,166.42982806518057L28.8850998878479,164.95123548261463L29.297744171960012,164.1821404922077L29.710388456072124,163.22621620151395L30.12303274018424,162.64212579826298L30.535677024296355,161.83271841399156L30.948321308408463,161.40128172974124L31.360965592520575,161.00420822672177L31.77360987663269,159.86707318660189L32.1862541607448,159.18560221639171L32.598898444856914,158.8657605064186L33.011542728969026,157.13944422138394L33.424187013081145,157.8303167830655L33.83683129719326,157.18931881386672L34.24947558130537,156.2972864755498L34.66211986541748,158.4964747390875L35.07476414952959,157.8123949149706L35.487408433641704,156.86861738328386L35.90005271775382,158.5254865981558L36.312697001865935,158.84377892153557L36.72534128597805,156.10731251432006L37.13798557009015,156.1592196644767L37.55062985420227,155.81079798019996L37.96327413831438,152.84011236725175L38.3759184224265,153.29378571832422L38.788562706538606,150.2822937433119L39.20120699065072,150.08137555221683L39.61385127476284,148.7940566340944L40.02649555887495,149.74462690334585L40.43913984298707,146.25768918656092L40.85178412709917,147.44831450442803L41.264428411211284,145.07697562404357L41.6770726953234,146.6235306728936L42.089716979435515,142.04273951761056L42.50236126354762,142.09025763884597L42.91500554765974,142.20249369207073L43.32764983177185,138.7139903930138L43.74029411588397,137.6308584937992L44.152938399996074,134.53429601726134L44.565582684108186,135.30184432035472L44.978226968220305,135.34234971272343L45.39087125233242,131.00475556771914L45.80351553644452,132.77223317010893L46.21615982055664,133.01341111911276L46.62880410466875,130.3017983304655L47.04144838878087,129.67740093190963L47.454092672892976,126.81222881589575L47.86673695700509,126.58263887498458L48.27938124111721,126.17185168104619L48.69202552522932,124.62487824383035L49.10466980934143,122.51182264841138L49.51731409345354,116.7268665878881L49.929958377565654,121.61424733906762L50.34260266167777,121.35341053543088L50.75524694578988,115.32408327792481L51.16789122990199,115.18296493106115L51.58053551401411,78.34689791454771L51.99317979812622,107.12817370697552L52.40582408223834,115.07969588526333L52.818468366350444,109.11030883453716L53.231112650462556,122.89838110705045L53.643756934574675,113.22349835508636L54.05640121868679,113.8134961321344L54.4690455027989,113.32672421240771L54.88168978691101,112.41031872732331L55.29433407102312,113.12377616291859L55.70697835513524,115.06450973722478L56.119622639247346,106.44749092646096L56.53226692335946,107.3699751896084L56.94491120747158,108.7206947911879L57.35755549158369,107.60218883046508L57.7701997756958,104.18438776666828L58.18284405980791,102.75998862423208L58.595488343920024,95.39306566343362L59.00813262803214,86.49578063318138L59.42077691214425,91.03377740684286L59.83342119625637,86.83341194654024L60.24606548036848,86.32832811279053L60.65870976448059,73.30993387511651L61.07135404859271,66.55941304616758L61.483998332704815,64.3367936845054L61.896642616816926,60.9385192106323L62.309286900929045,51.577060630965974L62.72193118504115,46.77559255660313L63.13457546915327,53.63121254304028L63.54721975326538,41.26082360487222L63.95986403737749,42.52805988143641L64.3725083214896,48.797385502682765L64.78515260560172,46.45049129997998L65.19779688971383,50.226751319912964L65.61044117382595,49.28695927482041L66.02308545793805,43.32337567561982L66.43572974205017,60.99199734162051L66.84837402616229,46.1156726361512L67.2610183102744,55.65926781820797L67.67366259438651,46.27894667144364L68.08630687849862,50.481336591580764L68.49895116261074,54.25473537494766L68.91159544672284,47.111253395723054L69.32423973083496,49.303554446903746L69.73688401494708,53.73308336191239L70.14952829905918,58.34714583975554L70.56217258317129,48.73849801501679L70.97481686728341,56.89974883359938L71.38746115139553,55.32058378573519L71.80010543550765,44.51046493697598L72.21274971961975,60.6321293614395L72.62539400373187,64.28375823540101L73.03803828784397,49.489297287079395L73.4506825719561,58.078481124758724L73.86332685606821,54.13065488205116L74.2759711401803,54.38795023061742L74.68861542429242,55.35430318873864L75.10125970840454,52.160364194161254L75.51390399251666,50.33545671518635L75.92654827662876,55.47745512939105L76.33919256074088,52.812801711064886L76.751836844853,57.95282425247109L77.16448112896511,54.64405789608078L77.57712541307721,57.1601969409479L77.98976969718933,55.361774795167854L78.40241398130144,55.62479261686629L78.81505826541355,54.66741206473158L79.22770254952567,57.74852116453276L79.64034683363778,54.03039283392752L80.0529911177499,60.81098363961826L80.46563540186202,63.70171793514245L80.87827968597414,49.35446286354202L81.29092397008623,55.773900831876794L81.70356825419834,51.20847937565727L82.11621253831046,54.232860411615924L82.52885682242257,16.713789233977682L82.94150110653469,54.466779997293145L83.3541453906468,61.073807113172606L83.76678967475891,57.48686377984309L84.17943395887103,67.6278095770668L84.59207824298313,60.284429734503725L85.00472252709524,56.3228587591598L85.41736681120736,60.722846756263415L85.83001109531948,63.689160885609L86.2426553794316,61.235364406525385L86.6552996635437,60.896593997099664L87.06794394765582,57.73191519533028L87.48058823176794,60.871263955650385L87.89323251588003,59.876460588654965L88.30587679999215,57.86880107149994L88.71852108410427,63.04483200516248L89.13116536821637,57.57189109289216L89.54380965232849,59.99983926880883L89.95645393644061,56.17007952364941L90.36909822055271,50.859224963568614L90.78174250466483,48.68914438353141L91.19438678877695,46.634970877218876L91.60703107288904,46.99735458615422L92.01967535700116,39.57504780284339L92.43231964111328,39.63974414059449L92.8449639252254,34.050259124571575L93.2576082093375,27.150727254684202L93.67025249344962,28.472283837527733L94.08289677756174,22.76028391088032L94.49554106167383,24.884444343311475L94.90818534578595,25.435367346273843L95.32082962989807,25.935619469218533L95.73347391401018,36.78692932741041L96.1461181981223,32.19258238907555L96.55876248223441,31.798714280794034L96.97140676634652,33.14548213677655L97.38405105045864,28.595392589703668L97.79669533457076,35.11541651973559L98.20933961868286,33.77352896159411L98.62198390279497,35.0996743200625L99.03462818690709,39.191847248249815L99.4472724710192,41.80153253314958L99.85991675513131,30.093406490281925L100.27256103924343,43.389421653260605L100.68520532335555,34.182545427997255L101.09784960746765,36.32901270852482L101.51049389157976,42.27697287636261L101.92313817569188,43.73921592130512L102.33578245980398,41.21466592064559L102.7484267439161,39.47998996613431L103.16107102802822,38.71938690991315L103.57371531214034,37.00098221391172L103.98635959625244,32.43156582361879L104.39900388036456,36.65674846221263L104.81164816447668,40.757407926026154L105.22429244858877,43.42517091465812L105.63693673270089,35.02882362441451L106.04958101681301,41.23392798115092L106.46222530092511,31.956211857358696L106.87486958503723,31.60668751729209L107.28751386914935,40.08427233177458L107.70015815326146,36.65935056791991L108.11280243737357,35.73147854233288L108.52544672148568,50.55523207481986L108.9380910055978,37.42175674303365L109.3507352897099,34.741944169466734L109.76337957382202,43.12213896951079L110.17602385793414,41.29730707036971L110.58866814204625,38.358827914108645L111.00131242615836,42.657949224418026L111.41395671027048,34.91590735268534L111.82660099438257,40.59904657993211L112.23924527849469,39.54901594865148L112.65188956260681,38.599916786879774L113.06453384671892,45.392719134292214L113.47717813083104,8.686832982976567L113.88982241494315,35.768750197525954L114.30246669905527,38.52517912834953L114.71511098316738,44.18771745232039L115.1277552672795,37.503480137632806L115.5403995513916,41.51422119343711L115.9530438355037,46.6719078217193L116.36568811961583,36.699936938682L116.77833240372794,47.222312562964035L117.19097668784005,40.71155256113479L117.60362097195217,42.46957188717776L118.01626525606429,45.87347166011098L118.42890954017639,43.17770094448864L118.8415538242885,39.82158922076877L119.25419810840062,39.32602304752102L119.66684239251273,45.77922360733571L120.07948667662484,41.2824826258216L120.49213096073696,39.10238231924352L120.90477524484908,38.12054629230801L121.31741952896118,41.12450997601578L121.7300638130733,46.90927168839495L122.14270809718542,39.33009356142826L122.55535238129751,39.79858055992972L122.96799666540963,31.749684562882173L123.38064094952175,33.246726722739865L123.79328523363385,25.889040697346317L124.20592951774597,24.56747331738367L124.61857380185809,16.4710484019816L125.03121808597021,23.387985227886116L125.4438623700823,29.07283039995342L125.85650665419442,16.37291338632408L126.26915093830654,20.112009722255163L126.68179522241864,28.301225079351696L127.09443950653076,27.57876824497211L127.50708379064288,34.21379229072284L127.91972807475499,29.345943528026567L128.3323723588671,29.58702160367859L128.7450166429792,27.369174568666267L129.1576609270913,28.96819551858725L129.57030521120345,31.5175896903358L129.98294949531555,34.981186734868785L130.39559377942766,31.74945782338072L130.80823806353976,35.94209794495488L131.2208823476519,33.32217699113185L131.633526631764,34.061596099644774L132.0461709158761,41.7820545302619L132.45881519998824,31.032917810277425L132.87145948410034,33.0346281147988L133.28410376821245,35.89259315380186L133.69674805232458,25.026642402086868L134.10939233643668,36.289398078483295L134.5220366205488,36.29999005233741L134.9346809046609,34.459297185212954L135.34732518877303,32.71862882959155L135.75996947288513,34.38014350496372L136.17261375699724,32.04832208054873L136.58525804110937,33.32915193008166L136.99790232522147,32.12573742462007L137.41054660933358,35.01302743914584L137.82319089344568,44.7665618053202L138.23583517755782,40.75237646851747L138.64847946166992,33.477191230299525L139.06112374578203,30.992050714418287L139.47376802989416,37.39555213493586L139.88641231400626,37.93897114011168L140.29905659811837,33.10078206363076L140.7117008822305,34.79598375064902L141.12434516634258,28.06662527517008L141.5369894504547,25.551738696120555L141.94963373456682,32.50529935007111L142.36227801867895,28.929649803338343L142.77492230279105,34.2183810663477L143.18756658690316,43.11271308452135L143.6002108710153,36.89488972146471L144.0128551551274,27.574341426134L144.4254994392395,5.657981939703343L144.8381437233516,36.60226619914652L145.25078800746374,39.91029835143685L145.66343229157584,32.05447643844563L146.07607657568795,35.20893036841089L146.48872085980005,36.90260966163361L146.9013651439122,32.87338393790042L147.3140094280243,32.850396871299594L147.72665371213643,42.45721998290752L148.13929799624853,38.44710516001203L148.5519422803606,43.054592192312704L148.96458656447274,41.65307214528613L149.37723084858484,42.065997168809766L149.78987513269698,46.487881723483326L150.20251941680908,38.46013728278666L150.61516370092122,44.23526796491315L151.02780798503332,34.370566460306634L151.4404522691454,34.84582325249467L151.85309655325753,34.60254256454273L152.26574083736963,30.796126190915015L152.67838512148177,38.093315957894085L153.09102940559387,33.339657526982826L153.503673689706,32.932757295926685L153.91631797381808,35.711385103655516L154.32896225793021,34.192813488277835L154.74160654204232,33.011446700053874L155.15425082615442,30.155349562658106L155.56689511026656,28.77376099752216L155.97953939437866,18.908400868649487L156.3921836784908,28.110191650808552L156.80482796260287,24.93433783075272L157.217472246715,23.13791315200936L157.6301165308271,22.648091046132027L158.04276081493924,27.84836151221301L158.45540509905135,22.98627841112541L158.86804938316345,16.47359652209328L159.28069366727556,27.72338485842979L159.69333795138766,28.785313914977714L160.1059822354998,28.17127095365537L160.5186265196119,23.03326747352409L160.93127080372403,21.625139589597694L161.34391508783614,26.921795938039207L161.75655937194827,29.15787930724071L162.16920365606035,35.789944942353294L162.58184794017245,30.097077510781823L162.99449222428458,35.824150215717026L163.4071365083967,39.49828028591909L163.81978079250882,36.15504952530622L164.23242507662093,24.875947010566122L164.64506936073303,25.65493756064412L165.05771364484514,27.023979873365732L165.47035792895724,28.22802061173611L165.88300221306937,22.642951617432185L166.29564649718148,36.21118374759726L166.7082907812936,28.338032458422713L167.12093506540572,27.193289498244756L167.53357934951782,34.615563890198246L167.94622363362993,23.957241739109737L168.35886791774206,27.47284850643097L168.77151220185416,23.10696860861906L169.18415648596627,25.204157837495096L169.5968007700784,26.770582284800824L170.00944505419048,33.28250837549474L170.4220893383026,34.63967385718727L170.83473362241472,24.86133850840037L171.24737790652685,29.17955992242833L171.66002219063895,34.135459191526515L172.0726664747511,32.29207784174185L172.4853107588632,32.09710346472088L172.89795504297527,30.896399036157753L173.3105993270874,27.826054664116594L173.7232436111995,30.993475934141774L174.13588789531164,24.935104426210053L174.54853217942374,30.4901142408913L174.96117646353588,27.596432331848067L175.37382074764795,4.634566207046969L175.78646503176006,26.038030144046527L176.1991093158722,27.092250057544668L176.6117535999843,22.948499291333835L177.02439788409643,31.811130967778972L177.43704216820854,34.12555823329592L177.84968645232067,31.085812896833296L178.26233073643274,39.27895840528852L178.67497502054485,29.384424460560776L179.08761930465698,28.855009318880153L179.5002635887691,30.82847435979056L179.91290787288122,31.3873440424233L180.32555215699333,34.64144458472252L180.73819644110543,28.67353134075588L181.15084072521753,37.00958751784823L181.56348500932967,27.745238227523284L181.97612929344177,27.003508535519245L182.3887735775539,35.96750356623798L182.801417861666,27.593333558661406L183.2140621457781,24.029431277528282L183.62670642989022,34.90264849040925L184.03935071400232,22.29623452833609L184.45199499811446,28.796143425452414L184.86463928222656,24.409435884863147L185.2772835663387,25.786662413875682L185.6899278504508,22.904576610764494L186.10257213456288,31.5108738822448L186.515216418675,16.473553333616824L186.92786070278711,18.072002036224593L187.34050498689925,20.16817633590359L187.75314927101135,12.595130972595536L188.16579355512349,16.741904932159233L188.57843783923556,17.57674897943123L188.99108212334767,14.994186057754206L189.4037264074598,17.755700431682058L189.8163706915719,21.90469859778393L190.22901497568404,17.770524876230166L190.64165925979614,27.454990071410904L191.05430354390828,24.65050316339603L191.46694782802035,25.16782553166524L191.87959211213249,25.367960931624292L192.2922363962446,26.28359982125136L192.7048806803567,22.61957585454313L193.11752496446883,23.879524075703106L193.53016924858093,29.040493028196973L193.94281353269304,22.376219586757355L194.35545781680514,24.665198042514742L194.76810210091728,20.465863707087824L195.18074638502938,30.062580715201918L195.5933906691415,24.700785347125485L196.00603495325362,30.685714850821068L196.41867923736572,22.539590796121868L196.83132352147783,26.759860745517297L197.24396780558993,20.685207181956628L197.65661208970207,23.94917629112909L198.06925637381417,28.691962023089168L198.4819006579263,20.02292269241797L198.8945449420384,21.580698647310715L199.30718922615048,19.39749956754595L199.71983351026262,18.798669747059936L200.13247779437472,24.452311244878107L200.54512207848686,16.047585390199437L200.95776636259896,20.7759029825423L201.3704106467111,21.803551185892665L201.7830549308232,26.873090133700874L202.1956992149353,27.449548323375755L202.6083434990474,32.62678853437945L203.0209877831595,26.891488424676822L203.43363206727165,27.754512952845086L203.84627635138375,22.55323835468618L204.25892063549588,25.291247400295564L204.67156491960796,27.75777368281852L205.0842092037201,33.0407932698148L205.4968534878322,31.83962456512963L205.90949777194433,18.031836753108067L206.32214205605644,2.2817551830678706L206.73478634016854,33.307352546583736L207.14743062428067,24.2815332117991L207.56007490839275,18.688193624251294L207.97271919250488,25.50770804436004L208.385363476617,30.63738694565184L208.79800776072912,26.334940122654313L209.21065204484123,26.392154056857116L209.62329632895336,32.327643552114374L210.03594061306543,24.06045140075242L210.44858489717754,33.3583797315323L210.86122918128967,28.153336938801463L211.27387346540178,30.981415552087718L211.6865177495139,31.81903445897287L212.09916203362602,34.84485151177413L212.51180631773815,29.27658283481677L212.92445060185022,26.566236008386017L213.33709488596233,34.61887860576728L213.74973917007446,30.11982704076206L214.16238345418657,36.14406885516388L214.5750277382987,27.544519783131896L214.9876720224108,29.562987216523382L215.4003163065229,27.791201563605807L215.81296059063502,25.12813532178988L216.22560487474715,20.623166935508372L216.63824915885925,29.481468967187457L217.05089344297136,21.198405050722997L217.4635377270835,24.079357156326886L217.8761820111956,23.03224174720793L218.2888262953077,18.161888052876453L218.7014705794198,21.918993983495277L219.11411486353194,19.324770173171544L219.52675914764404,14.328457287217143L219.93940343175618,24.547120747847476L220.35204771586828,28.109111938896817L220.76469199998036,18.313382431211885L221.1773362840925,24.620843477180703L221.5899805682046,24.38608171621233L222.00262485231673,14.277462493625936L222.41526913642883,23.084262267115296L222.82791342054097,25.293190881736688L223.24055770465307,19.128726881357956L223.65320198876515,25.65827387045137L224.06584627287728,30.16167667446088L224.47849055698939,30.15551151944488L224.89113484110152,26.297322959649488L225.30377912521362,27.567053370729784L225.71642340932576,26.066243016300135L226.12906769343783,30.0278895714779L226.54171197754997,28.934400535749962L226.95435626166207,23.34510986787116L227.36700054577418,31.0376901369273L227.7796448298863,25.904275432420885L228.1922891139984,17.94910922643099L228.60493339811055,20.503707609594098L229.01757768222262,22.321931671835376L229.43022196633476,18.253199289251818L229.84286625044686,25.91628182887938L230.255510534559,28.557289556338564L230.6681548186711,25.726360503605335L231.0807991027832,22.506411249074272L231.4934433868953,28.45580743375467L231.9060876710074,20.102378692002496L232.31873195511955,33.34365246105625L232.73137623923165,24.257995492123293L233.14402052334378,25.233364044707503L233.5566648074559,25.901781297904783L233.96930909156802,28.743183556181844L234.3819533756801,23.472418699383727L234.7945976597922,22.75152744727616L235.20724194390434,23.83495356798673L235.61988622801644,24.24873156392063L236.03253051212857,20.968048514354518L236.44517479624068,22.658737005581735L236.85781908035278,22.68391588736338L237.2704633644649,2.0059967608109677L237.683107648577,31.984942991329945L238.09575193268913,27.152551967815032L238.50839621680123,17.719897184688946L238.92104050091336,26.99223634316074L239.33368478502547,22.514098797885815L239.74632906913757,26.800036825752944L240.15897335324968,29.88947050439356L240.5716176373618,29.771609152108663L240.98426192147392,25.01400977271958L241.39690620558602,30.091797719533446L241.80955048969815,23.69191333392019L242.22219477381023,22.783281774600272L242.63483905792236,30.97751779208635L243.04748334203447,26.704881814971806L243.4601276261466,20.077631694985556L243.8727719102587,22.944094066733964L244.28541619437084,27.3754908833499L244.69806047848294,26.88478341370494L245.11070476259502,23.081293059358032L245.52334904670715,24.87295620857062L245.93599333081926,26.19575446011266L246.3486376149314,34.182491442401655L246.7612818990435,28.8811923327397L247.17392618315563,26.423098600247418L247.5865704672677,23.417580131386753L247.9992147513798,22.100385584666633L248.41185903549194,25.91999603785574L248.82450331960405,21.04004370462895L249.23714760371618,17.317326598398854L249.6497918878283,21.869381221151098L250.06243617194042,19.012798213395065L250.4750804560525,26.40631987713907L250.8877247401646,14.87267527920765L251.30036902427673,24.15241046427482L251.71301330838884,17.206537359135805L252.12565759250097,18.07927929450967L252.53830187661308,15.722678481720378L252.95094616072518,23.042304662225302L253.36359044483729,25.20711624813324L253.77623472894942,17.40478326324933L254.18887901306152,17.5670855578212L254.60152329717366,20.844907370821225L255.01416758128576,18.373813906911646L255.42681186539784,22.576592523336995L255.83945614950997,18.9731080035197L256.2521004336221,27.131875484705315L256.6647447177342,19.52037078310131L257.0773890018463,20.72518891404814L257.4900332859584,22.257310913918076L257.9026775700706,27.374389577199945L258.3153218541826,17.520204466613716L258.72796613829473,27.559506184466755L259.1406104224069,25.225611713181245L259.553254706519,30.549196076701396L259.9658989906311,25.201264209571647L260.3785432747432,14.419293450351345L260.7911875588553,22.033896925142027L261.2038318429674,24.240212636937038L261.6164761270795,23.867949564009315L262.0291204111917,23.12088609516132L262.4417646953038,25.18544643006474L262.8544089794159,22.224120569751364L263.267053263528,17.81772988101118L263.6796975476401,23.55907637741951L264.0923418317522,26.4364222452382L264.50498611586437,20.07488922672974L264.9176303999765,20.699070682903294L265.3302746840886,30.402258082633484L265.7429189682007,31.079863684199626L266.1555632523128,23.1839412708066L266.5682075364249,30.498535993802818L266.980851820537,28.567795153239736L267.39349610464916,21.89772365883412L267.80614038876126,28.40113082254445L268.21878467287337,2.355272767137844L268.6314289569855,23.46385658392368L269.0440732410976,30.24072238351894L269.4567175252097,25.383076898388566L269.8693618093218,27.517462202623843L270.28200609343395,34.137057165155895L270.69465037754605,25.746227202781245L271.10729466165816,32.51454168403556L271.51993894577026,30.428829792781276L271.93258322988237,38.07093352996383L272.3452275139945,31.0944721863654L272.7578717981066,33.25429550324113L273.17051608221874,32.100040281120805L273.58316036633084,26.32956315733388L273.99580465044295,26.622197476771188L274.40844893455505,23.508221946376842L274.82109321866716,33.09183125188248L275.23373750277926,34.430738805147584L275.64638178689137,31.107741845760607L276.05902607100353,35.17209059798252" fill="none"></path></g></g></g></g></g></g><g transform="translate(41, 176)" clip-path="url(#clip_1)"><clipPath id="clip_1"><rect width="288" height="23"></rect></clipPath><g><g><line x1="0" y1="0" x2="0" y2="5" style="visibility: inherit;" fill="rgb(0, 0, 0)" stroke="rgb(204, 204, 204)" stroke-width="1px"></line><line x1="20.632214205605642" y1="0" x2="20.632214205605642" y2="5" style="visibility: inherit;" fill="rgb(0, 0, 0)" stroke="rgb(204, 204, 204)" stroke-width="1px"></line><line x1="41.264428411211284" y1="0" x2="41.264428411211284" y2="5" style="visibility: inherit;" fill="rgb(0, 0, 0)" stroke="rgb(204, 204, 204)" stroke-width="1px"></line><line x1="61.896642616816926" y1="0" x2="61.896642616816926" y2="5" style="visibility: inherit;" fill="rgb(0, 0, 0)" stroke="rgb(204, 204, 204)" stroke-width="1px"></line><line x1="82.52885682242257" y1="0" x2="82.52885682242257" y2="5" style="visibility: inherit;" fill="rgb(0, 0, 0)" stroke="rgb(204, 204, 204)" stroke-width="1px"></line><line x1="103.16107102802822" y1="0" x2="103.16107102802822" y2="5" style="visibility: inherit;" fill="rgb(0, 0, 0)" stroke="rgb(204, 204, 204)" stroke-width="1px"></line><line x1="123.79328523363385" y1="0" x2="123.79328523363385" y2="5" style="visibility: inherit;" fill="rgb(0, 0, 0)" stroke="rgb(204, 204, 204)" stroke-width="1px"></line><line x1="144.4254994392395" y1="0" x2="144.4254994392395" y2="5" style="visibility: inherit;" fill="rgb(0, 0, 0)" stroke="rgb(204, 204, 204)" stroke-width="1px"></line><line x1="165.05771364484514" y1="0" x2="165.05771364484514" y2="5" style="visibility: inherit;" fill="rgb(0, 0, 0)" stroke="rgb(204, 204, 204)" stroke-width="1px"></line><line x1="185.6899278504508" y1="0" x2="185.6899278504508" y2="5" style="visibility: inherit;" fill="rgb(0, 0, 0)" stroke="rgb(204, 204, 204)" stroke-width="1px"></line><line x1="206.32214205605644" y1="0" x2="206.32214205605644" y2="5" style="visibility: inherit;" fill="rgb(0, 0, 0)" stroke="rgb(204, 204, 204)" stroke-width="1px"></line><line x1="226.95435626166207" y1="0" x2="226.95435626166207" y2="5" style="visibility: inherit;" fill="rgb(0, 0, 0)" stroke="rgb(204, 204, 204)" stroke-width="1px"></line><line x1="247.5865704672677" y1="0" x2="247.5865704672677" y2="5" style="visibility: inherit;" fill="rgb(0, 0, 0)" stroke="rgb(204, 204, 204)" stroke-width="1px"></line><line x1="268.21878467287337" y1="0" x2="268.21878467287337" y2="5" style="visibility: inherit;" fill="rgb(0, 0, 0)" stroke="rgb(204, 204, 204)" stroke-width="1px"></line><line x1="288.850998878479" y1="0" x2="288.850998878479" y2="5" style="visibility: inherit;" fill="rgb(0, 0, 0)" stroke="rgb(204, 204, 204)" stroke-width="1px"></line></g><g transform="translate(0, 8)"><text style="text-anchor: middle; visibility: hidden; font-family: Roboto, sans-serif; font-size: 12px; font-weight: 200;" x="0" y="0" dx="0em" dy="0.95em" fill="rgb(33, 33, 33)" stroke="none" stroke-width="1px">-50</text><text style="text-anchor: middle; visibility: inherit; font-family: Roboto, sans-serif; font-size: 12px; font-weight: 200;" x="20.632214205605642" y="0" dx="0em" dy="0.95em" fill="rgb(33, 33, 33)" stroke="none" stroke-width="1px">0</text><text style="text-anchor: middle; visibility: hidden; font-family: Roboto, sans-serif; font-size: 12px; font-weight: 200;" x="41.264428411211284" y="0" dx="0em" dy="0.95em" fill="rgb(33, 33, 33)" stroke="none" stroke-width="1px">50</text><text style="text-anchor: middle; visibility: inherit; font-family: Roboto, sans-serif; font-size: 12px; font-weight: 200;" x="61.896642616816926" y="0" dx="0em" dy="0.95em" fill="rgb(33, 33, 33)" stroke="none" stroke-width="1px">100</text><text style="text-anchor: middle; visibility: hidden; font-family: Roboto, sans-serif; font-size: 12px; font-weight: 200;" x="82.52885682242257" y="0" dx="0em" dy="0.95em" fill="rgb(33, 33, 33)" stroke="none" stroke-width="1px">150</text><text style="text-anchor: middle; visibility: inherit; font-family: Roboto, sans-serif; font-size: 12px; font-weight: 200;" x="103.16107102802822" y="0" dx="0em" dy="0.95em" fill="rgb(33, 33, 33)" stroke="none" stroke-width="1px">200</text><text style="text-anchor: middle; visibility: hidden; font-family: Roboto, sans-serif; font-size: 12px; font-weight: 200;" x="123.79328523363385" y="0" dx="0em" dy="0.95em" fill="rgb(33, 33, 33)" stroke="none" stroke-width="1px">250</text><text style="text-anchor: middle; visibility: inherit; font-family: Roboto, sans-serif; font-size: 12px; font-weight: 200;" x="144.4254994392395" y="0" dx="0em" dy="0.95em" fill="rgb(33, 33, 33)" stroke="none" stroke-width="1px">300</text><text style="text-anchor: middle; visibility: hidden; font-family: Roboto, sans-serif; font-size: 12px; font-weight: 200;" x="165.05771364484514" y="0" dx="0em" dy="0.95em" fill="rgb(33, 33, 33)" stroke="none" stroke-width="1px">350</text><text style="text-anchor: middle; visibility: inherit; font-family: Roboto, sans-serif; font-size: 12px; font-weight: 200;" x="185.6899278504508" y="0" dx="0em" dy="0.95em" fill="rgb(33, 33, 33)" stroke="none" stroke-width="1px">400</text><text style="text-anchor: middle; visibility: hidden; font-family: Roboto, sans-serif; font-size: 12px; font-weight: 200;" x="206.32214205605644" y="0" dx="0em" dy="0.95em" fill="rgb(33, 33, 33)" stroke="none" stroke-width="1px">450</text><text style="text-anchor: middle; visibility: inherit; font-family: Roboto, sans-serif; font-size: 12px; font-weight: 200;" x="226.95435626166207" y="0" dx="0em" dy="0.95em" fill="rgb(33, 33, 33)" stroke="none" stroke-width="1px">500</text><text style="text-anchor: middle; visibility: hidden; font-family: Roboto, sans-serif; font-size: 12px; font-weight: 200;" x="247.5865704672677" y="0" dx="0em" dy="0.95em" fill="rgb(33, 33, 33)" stroke="none" stroke-width="1px">550</text><text style="text-anchor: middle; visibility: inherit; font-family: Roboto, sans-serif; font-size: 12px; font-weight: 200;" x="268.21878467287337" y="0" dx="0em" dy="0.95em" fill="rgb(33, 33, 33)" stroke="none" stroke-width="1px">600</text><text style="text-anchor: middle; visibility: hidden; font-family: Roboto, sans-serif; font-size: 12px; font-weight: 200;" x="288.850998878479" y="0" dx="0em" dy="0.95em" fill="rgb(33, 33, 33)" stroke="none" stroke-width="1px">650</text></g><line x1="0" y1="0" x2="288.850998878479" y2="0" fill="rgb(0, 0, 0)" stroke="rgb(204, 204, 204)" stroke-width="1px"></line></g></g></g></g></svg>