<svg viewBox="0 0 330 200" xmlns="http://www.w3.org/2000/svg"><g><g><g><g><g><line x1="41.149001121520996" y1="176.89999961853027" x2="36.149001121520996" y2="176.89999961853027" style="visibility: inherit;" fill="rgb(0, 0, 0)" stroke="rgb(204, 204, 204)" stroke-width="1px"></line><line x1="41.149001121520996" y1="159.20999965667724" x2="36.149001121520996" y2="159.20999965667724" style="visibility: inherit;" fill="rgb(0, 0, 0)" stroke="rgb(204, 204, 204)" stroke-width="1px"></line><line x1="41.149001121520996" y1="141.51999969482424" x2="36.149001121520996" y2="141.51999969482424" style="visibility: inherit;" fill="rgb(0, 0, 0)" stroke="rgb(204, 204, 204)" stroke-width="1px"></line><line x1="41.149001121520996" y1="123.82999973297119" x2="36.149001121520996" y2="123.82999973297119" style="visibility: inherit;" fill="rgb(0, 0, 0)" stroke="rgb(204, 204, 204)" stroke-width="1px"></line><line x1="41.149001121520996" y1="106.13999977111816" x2="36.149001121520996" y2="106.13999977111816" style="visibility: inherit;" fill="rgb(0, 0, 0)" stroke="rgb(204, 204, 204)" stroke-width="1px"></line><line x1="41.149001121520996" y1="88.44999980926514" x2="36.149001121520996" y2="88.44999980926514" style="visibility: inherit;" fill="rgb(0, 0, 0)" stroke="rgb(204, 204, 204)" stroke-width="1px"></line><line x1="41.149001121520996" y1="70.75999984741212" x2="36.149001121520996" y2="70.75999984741212" style="visibility: inherit;" fill="rgb(0, 0, 0)" stroke="rgb(204, 204, 204)" stroke-width="1px"></line><line x1="41.149001121520996" y1="53.06999988555909" x2="36.149001121520996" y2="53.06999988555909" style="visibility: inherit;" fill="rgb(0, 0, 0)" stroke="rgb(204, 204, 204)" stroke-width="1px"></line><line x1="41.149001121520996" y1="35.379999923706045" x2="36.149001121520996" y2="35.379999923706045" style="visibility: inherit;" fill="rgb(0, 0, 0)" stroke="rgb(204, 204, 204)" stroke-width="1px"></line><line x1="41.149001121520996" y1="17.689999961853022" x2="36.149001121520996" y2="17.689999961853022" style="visibility: inherit;" fill="rgb(0, 0, 0)" stroke="rgb(204, 204, 204)" stroke-width="1px"></line><line x1="41.149001121520996" y1="0" x2="36.149001121520996" y2="0" style="visibility: inherit;" fill="rgb(0, 0, 0)" stroke="rgb(204, 204, 204)" stroke-width="1px"></line></g><g transform="translate(31.149001121520996, 0)"><text style="text-anchor: end; visibility: hidden; font-family: Roboto, sans-serif; font-size: 12px; font-weight: 200;" x="0" y="176.89999961853027" dx="0em" dy="0.3em" fill="rgb(33, 33, 33)" stroke="none" stroke-width="1px">0</text><text style="text-anchor: end; visibility: inherit; font-family: Roboto, sans-serif; font-size: 12px; font-weight: 200;" x="0" y="159.20999965667724" dx="0em" dy="0.3em" fill="rgb(33, 33, 33)" stroke="none" stroke-width="1px">50</text><text style="text-anchor: end; visibility: hidden; font-family: Roboto, sans-serif; font-size: 12px; font-weight: 200;" x="0" y="141.51999969482424" dx="0em" dy="0.3em" fill="rgb(33, 33, 33)" stroke="none" stroke-width="1px">100</text><text style="text-anchor: end; visibility: inherit; font-family: Roboto, sans-serif; font-size: 12px; font-weight: 200;" x="0" y="123.82999973297119" dx="0em" dy="0.3em" fill="rgb(33, 33, 33)" stroke="none" stroke-width="1px">150</text><text style="text-anchor: end; visibility: hidden; font-family: Roboto, sans-serif; font-size: 12px; font-weight: 200;" x="0" y="106.13999977111816" dx="0em" dy="0.3em" fill="rgb(33, 33, 33)" stroke="none" stroke-width="1px">200</text><text style="text-anchor: end; visibility: inherit; font-family: Roboto, sans-serif; font-size: 12px; font-weight: 200;" x="0" y="88.44999980926514" dx="0em" dy="0.3em" fill="rgb(33, 33, 33)" stroke="none" stroke-width="1px">250</text><text style="text-anchor: end; visibility: hidden; font-family: Roboto, sans-serif; font-size: 12px; font-weight: 200;" x="0" y="70.75999984741212" dx="0em" dy="0.3em" fill="rgb(33, 33, 33)" stroke="none" stroke-width="1px">300</text><text style="text-anchor: end; visibility: inherit; font-family: Roboto, sans-serif; font-size: 12px; font-weight: 200;" x="0" y="53.06999988555909" dx="0em" dy="0.3em" fill="rgb(33, 33, 33)" stroke="none" stroke-width="1px">350</text><text style="text-anchor: end; visibility: hidden; font-family: Roboto, sans-serif; font-size: 12px; font-weight: 200;" x="0" y="35.379999923706045" dx="0em" dy="0.3em" fill="rgb(33, 33, 33)" stroke="none" stroke-width="1px">400</text><text style="text-anchor: end; visibility: inherit; font-family: Roboto, sans-serif; font-size: 12px; font-weight: 200;" x="0" y="17.689999961853022" dx="0em" dy="0.3em" fill="rgb(33, 33, 33)" stroke="none" stroke-width="1px">450</text><text style="text-anchor: end; visibility: hidden; font-family: Roboto, sans-serif; font-size: 12px; font-weight: 200;" x="0" y="0" dx="0em" dy="0.3em" fill="rgb(33, 33, 33)" stroke="none" stroke-width="1px">500</text></g><line x1="41.149001121520996" y1="0" x2="41.149001121520996" y2="176.89999961853027" fill="rgb(0, 0, 0)" stroke="rgb(204, 204, 204)" stroke-width="1px"></line></g></g><g transform="translate(41, 0)" clip-path="url(#clip_0)"><clipPath id="clip_0"><rect width="288" height="176"></rect></clipPath><g><g><g><line x1="0" y1="0" x2="0" y2="176.89999961853027" fill="rgb(0, 0, 0)" stroke="rgb(66, 66, 66)" stroke-width="1px" opacity="0.25"></line><line x1="28.8850998878479" y1="0" x2="28.8850998878479" y2="176.89999961853027" fill="rgb(0, 0, 0)" stroke="rgb(66, 66, 66)" stroke-width="1px" opacity="0.25"></line><line x1="57.7701997756958" y1="0" x2="57.7701997756958" y2="176.89999961853027" fill="rgb(0, 0, 0)" stroke="rgb(66, 66, 66)" stroke-width="1px" opacity="0.25"></line><line x1="86.6552996635437" y1="0" x2="86.6552996635437" y2="176.89999961853027" fill="rgb(0, 0, 0)" stroke="rgb(66, 66, 66)" stroke-width="1px" opacity="0.25"></line><line x1="115.5403995513916" y1="0" x2="115.5403995513916" y2="176.89999961853027" fill="rgb(0, 0, 0)" stroke="rgb(66, 66, 66)" stroke-width="1px" opacity="0.25"></line><line x1="144.4254994392395" y1="0" x2="144.4254994392395" y2="176.89999961853027" fill="rgb(0, 0, 0)" stroke="rgb(66, 66, 66)" stroke-width="1px" opacity="0.25"></line><line x1="173.3105993270874" y1="0" x2="173.3105993270874" y2="176.89999961853027" fill="rgb(0, 0, 0)" stroke="rgb(66, 66, 66)" stroke-width="1px" opacity="0.25"></line><line x1="202.1956992149353" y1="0" x2="202.1956992149353" y2="176.89999961853027" fill="rgb(0, 0, 0)" stroke="rgb(66, 66, 66)" stroke-width="1px" opacity="0.25"></line><line x1="231.0807991027832" y1="0" x2="231.0807991027832" y2="176.89999961853027" fill="rgb(0, 0, 0)" stroke="rgb(66, 66, 66)" stroke-width="1px" opacity="0.25"></line><line x1="259.9658989906311" y1="0" x2="259.9658989906311" y2="176.89999961853027" fill="rgb(0, 0, 0)" stroke="rgb(66, 66, 66)" stroke-width="1px" opacity="0.25"></line><line x1="288.850998878479" y1="0" x2="288.850998878479" y2="176.89999961853027" fill="rgb(0, 0, 0)" stroke="rgb(66, 66, 66)" stroke-width="1px" opacity="0.25"></line></g><g><line x1="0" y1="176.89999961853027" x2="288.850998878479" y2="176.89999961853027" fill="rgb(0, 0, 0)" stroke="rgb(66, 66, 66)" stroke-width="1px" opacity="0.25"></line><line x1="0" y1="159.20999965667724" x2="288.850998878479" y2="159.20999965667724" fill="rgb(0, 0, 0)" stroke="rgb(66, 66, 66)" stroke-width="1px" opacity="0.25"></line><line x1="0" y1="141.51999969482424" x2="288.850998878479" y2="141.51999969482424" fill="rgb(0, 0, 0)" stroke="rgb(66, 66, 66)" stroke-width="1px" opacity="0.25"></line><line x1="0" y1="123.82999973297119" x2="288.850998878479" y2="123.82999973297119" fill="rgb(0, 0, 0)" stroke="rgb(66, 66, 66)" stroke-width="1px" opacity="0.25"></line><line x1="0" y1="106.13999977111816" x2="288.850998878479" y2="106.13999977111816" fill="rgb(0, 0, 0)" stroke="rgb(66, 66, 66)" stroke-width="1px" opacity="0.25"></line><line x1="0" y1="88.44999980926514" x2="288.850998878479" y2="88.44999980926514" fill="rgb(0, 0, 0)" stroke="rgb(66, 66, 66)" stroke-width="1px" opacity="0.25"></line><line x1="0" y1="70.75999984741212" x2="288.850998878479" y2="70.75999984741212" fill="rgb(0, 0, 0)" stroke="rgb(66, 66, 66)" stroke-width="1px" opacity="0.25"></line><line x1="0" y1="53.06999988555909" x2="288.850998878479" y2="53.06999988555909" fill="rgb(0, 0, 0)" stroke="rgb(66, 66, 66)" stroke-width="1px" opacity="0.25"></line><line x1="0" y1="35.379999923706045" x2="288.850998878479" y2="35.379999923706045" fill="rgb(0, 0, 0)" stroke="rgb(66, 66, 66)" stroke-width="1px" opacity="0.25"></line><line x1="0" y1="17.689999961853022" x2="288.850998878479" y2="17.689999961853022" fill="rgb(0, 0, 0)" stroke="rgb(66, 66, 66)" stroke-width="1px" opacity="0.25"></line><line x1="0" y1="0" x2="288.850998878479" y2="0" fill="rgb(0, 0, 0)" stroke="rgb(66, 66, 66)" stroke-width="1px" opacity="0.25"></line></g></g></g><g><g><line x1="0" y1="176.89999961853027" x2="288.850998878479" y2="176.89999961853027" fill="rgb(0, 0, 0)" stroke="rgb(153, 153, 153)" stroke-width="1.5px"></line></g></g><g><g><line x1="28.8850998878479" y1="0" x2="28.8850998878479" y2="176.89999961853027" fill="rgb(0, 0, 0)" stroke="rgb(153, 153, 153)" stroke-width="1.5px"></line></g></g><g><g><g><g><g><path style="fill: none;" stroke="rgb(0, 153, 136)" stroke-width="2px" d="M29.263702669097903,172.14123212581669L29.642305450347898,170.56076880873113L30.0209082315979,169.53971592196052L30.3995110128479,169.6215370428216L30.7781137940979,169.97160767770052L31.1567165753479,170.14214515293483L31.5353193565979,170.22171688251146L31.9139221378479,170.3098555037983L32.2925249190979,170.22289164595045L32.6711277003479,170.14399407891563L33.049730481597905,170.00611446086884L33.4283332628479,169.76715105331388L33.806936044097895,169.55608419808163L34.1855388253479,169.40820640897152L34.5641416065979,169.10235197702116L34.9427443878479,168.7469657385026L35.3213471690979,168.05294994806437L35.6999499503479,167.40363525053831L36.0785527315979,166.42261556397872L36.457155512847905,165.5263927679449L36.8357582940979,164.60630195738582L37.2143610753479,163.82062115247206L37.5929638565979,163.0254537774028L37.9715666378479,162.37578187994498L38.3501694190979,161.82715085888188L38.728772200347905,161.04311845255387L39.1073749815979,160.30011119762824L39.485977762847895,159.72637056881356L39.864580544097905,158.6915996485736L40.2431833253479,158.34708642620748L40.6217861065979,157.88397931984264L41.0003888878479,157.2493021316137L41.3789916690979,157.74817119842518L41.7575944503479,157.7738606857794L42.136197231597905,157.41176335855647L42.5148000128479,157.85725265899114L42.8934027940979,158.25186316645105L43.2720055753479,157.3940429024134L43.6506083565979,156.9001136061383L44.0292111378479,156.4643873551805L44.4078139190979,155.01467735884626L44.7864167003479,154.3263207023062L45.165019481597895,152.7087099182414L45.543622262847904,151.6577761716495L45.9222250440979,150.51228835650838L46.3008278253479,150.20522377522423L46.6794306065979,148.6262099396998L47.05803338784791,148.1550517655805L47.4366361690979,146.92382130894916L47.8152389503479,146.80370505452595L48.1938417315979,144.89931883975055L48.572444512847895,143.77569435938545L48.951047294097904,143.14641409245846L49.3296500753479,141.37344461267875L49.7082528565979,139.876410165126L50.0868556378479,137.73956450597933L50.46545841909791,136.76447643172926L50.8440612003479,136.19562574412686L51.2226639815979,134.1192776735636L51.6012667628479,133.5804598721817L51.979869544097895,133.35364037095414L52.358472325347904,132.13290355475868L52.7370751065979,131.15070250561905L53.1156778878479,129.4153130297297L53.4942806690979,128.28224336783165L53.872883450347906,127.43808669311747L54.2514862315979,126.31280331340261L54.630089012847904,124.79241104740612L55.0086917940979,121.56619326359892L55.387294575347894,121.58541489378639L55.765897356597904,121.49261315044419L56.1445001378479,119.02520120143645L56.5231029190979,117.48830669328632L56.9017057003479,101.83174318179087L57.280308481597906,103.95031539186473L57.6589112628479,108.40206758922417L58.037514044097904,108.68536408734937L58.4161168253479,114.3705708952298L58.7947196065979,113.91174187917242L59.173322387847904,113.87244358035723L59.5519251690979,113.65415583317743L59.9305279503479,113.15662099083576L60.3091307315979,113.14348305966891L60.6877335128479,113.91189373069126L61.0663362940979,110.92613260899913L61.444939075347904,109.50366964124284L61.8235418565979,109.19047970122085L62.2021446378479,108.55516335291854L62.580747419097904,106.80685311841845L62.9593502003479,105.18810732074388L63.3379529815979,101.27009065781978L63.7165557628479,95.36036664796443L64.0951585440979,93.62973095151581L64.4737613253479,90.91120334952558L64.8523641065979,89.07805325483157L65.2309668878479,82.77080550294554L65.60956966909791,76.28624852023437L65.9881724503479,71.50646658594279L66.3667752315979,67.27928763581859L66.7453780128479,60.99839683387754L67.1239807940979,55.309275122967776L67.5025835753479,54.638050090996785L67.8811863565979,49.28715949654695L68.2597891378479,46.583519650502744L68.6383919190979,47.469065991374734L69.01699470034791,47.061636114816835L69.3955974815979,48.327682196855285L69.7742002628479,48.711393028041336L70.1528030440979,46.55618608707273L70.5314058253479,52.33051058889185L70.9100086065979,49.844575407795574L71.2886113878479,52.17045237196054L71.6672141690979,49.81385009175378L72.0458169503479,50.08084469168457L72.4244197315979,51.75040096498981L72.8030225128479,49.89474193728311L73.1816252940979,49.65826694113138L73.5602280753479,51.28819350944378L73.93883085659789,54.1117744415685L74.31743363784791,51.96246387094782L74.69603641909791,53.93737785600844L75.0746392003479,54.49066022789914L75.4532419815979,50.49858211152985L75.8318447628479,54.552001011493715L76.2104475440979,58.44470390105662L76.5890503253479,54.86254125546576L76.9676531065979,56.14891720318294L77.34625588784789,55.341612274730224L77.72485866909791,54.96014745708511L78.10346145034791,55.11780974974652L78.4820642315979,53.934831527512436L78.8606670128479,52.495081602582L79.2392697940979,53.68803101330561L79.6178725753479,53.33793929240932L79.9964753565979,55.183893276434034L80.3750781378479,54.96795912429273L80.75368091909789,55.84485425095481L81.13228370034791,55.65162246864003L81.51088648159791,55.64089052793054L81.8894892628479,55.25149914265095L82.2680920440979,56.25030795140369L82.64669482534791,55.362341904413206L83.0252976065979,57.54179859849525L83.4039003878479,60.00576633315413L83.7825031690979,55.745244945309295L84.16110595034789,55.75670729993628L84.53970873159791,53.9374161302247L84.91831151284791,54.055593842781185L85.2969142940979,39.118871999259774L85.6755170753479,45.25803519847311L86.05411985659791,51.58434396435291L86.4327226378479,53.94535189054898L86.8113254190979,59.41833496515612L87.1899282003479,59.76477287289516L87.56853098159789,58.38800722740102L87.94713376284791,59.321943038945975L88.32573654409791,61.068830177611176L88.7043393253479,61.13544386917686L89.0829421065979,61.039903920345985L89.46154488784791,59.71670843033972L89.8401476690979,60.17853064046399L90.2187504503479,60.057702619740375L90.59735323159789,59.182142000444216L90.97595601284789,60.727218002331526L91.35455879409791,59.46508723855577L91.7331615753479,59.67898805065702L92.1117643565979,58.27542463985397L92.4903671378479,55.308944769339845L92.8689699190979,52.66102461501646L93.2475727003479,50.250603119897434L93.6261754815979,48.94930370640014L94.00477826284789,45.19960134497744L94.3833810440979,42.975658463224256L94.76198382534791,39.40549872776319L95.1405866065979,34.50359013853158L95.5191893878479,32.091067618130026L95.8977921690979,28.35875413523014L96.2763949503479,26.96903021846268L96.6549977315979,26.355565069587147L97.0336005128479,26.187586829439685L97.41220329409789,30.42732382862798L97.7908060753479,31.133427252807L98.1694088565979,31.399542064001803L98.5480116378479,32.0979180931117L98.9266144190979,30.69690789174847L99.3052172003479,32.46431134294331L99.6838199815979,32.98799839040363L100.0624227628479,33.832668762267204L100.4410255440979,35.97634015666025L100.81962832534789,38.30641710725598L101.1982311065979,35.02121286046635L101.5768338878479,38.36849637758406L101.9554366690979,36.69411599774933L102.3340394503479,36.54807468205954L102.7126422315979,38.83963395978077L103.0912450128479,40.79946674439052L103.4698477940979,40.96554641489255L103.8484505753479,40.37132383538925L104.22705335659789,39.710549065198826L104.6056561378479,38.626722324683975L104.9842589190979,36.148659724257904L105.3628617003479,36.35189521943981L105.7414644815979,38.11410030207435L106.12006726284791,40.23852854710785L106.4986700440979,38.15464657803051L106.8772728253479,39.38635913927867L107.2558756065979,36.414300226510676L107.63447838784789,34.49125514282323L108.0130811690979,36.72846201840377L108.3916839503479,36.70081743821022L108.77028673159789,36.31308187985929L109.1488895128479,42.00994195784352L109.52749229409791,40.17466787191957L109.9060950753479,38.001578390938455L110.2846978565979,40.049802622367366L110.6633006378479,40.5488044015683L111.04190341909789,39.67281380658443L111.4205062003479,40.86686797371787L111.7991089815979,38.48648372530487L112.17771176284789,39.33150886715575L112.5563145440979,39.41851169975403L112.93491732534791,39.091073734604336L113.3135201065979,41.611731894479476L113.6921228878479,28.441772329878297L114.0707256690979,31.37256347693738L114.44932845034789,34.23360973750223L114.8279312315979,38.2152528234295L115.2065340128479,37.93054374911084L115.58513679409789,39.36401472684135L115.96373957534789,42.287171964792535L116.34234235659791,40.052277954348305L116.7209451378479,42.92029179779461L117.0995479190979,42.036796103130676L117.4781507003479,42.20990641674951L117.8567534815979,43.6753325140941L118.2353562628479,43.47627988625191L118.6139590440979,42.01440362005863L118.99256182534789,40.939051391043584L119.37116460659789,42.87512027756046L119.74976738784791,42.23806521686492L120.1283701690979,40.98379205781636L120.5069729503479,39.838493751613036L120.8855757315979,40.352900241374115L121.2641785128479,42.97544882018246L121.6427812940979,41.51730671668078L122.0213840753479,40.82981625398034L122.39998685659789,37.197763577541075L122.77858963784789,35.6173488356206L123.15719241909791,31.72602558031088L123.5357952003479,28.86260467513999L123.9143979815979,23.90598216587663L124.2930007628479,23.698783390680408L124.6716035440979,25.848402194389593L125.0502063253479,22.058206671163386L125.4288091065979,21.2797278916001L125.80741188784789,24.08832676670074L126.18601466909789,25.484503358009263L126.56461745034791,28.976218931094692L126.9432202315979,29.124108769867444L127.3218230128479,29.309273903391926L127.7004257940979,28.533234169501657L128.0790285753479,28.707218709135883L128.45763135659791,29.83136710161585L128.8362341378479,31.891294954917022L129.2148369190979,31.8345601023025L129.59343970034791,33.477575239363446L129.9720424815979,33.41541594007083L130.3506452628479,33.67388800390041L130.7292480440979,36.91715461444501L131.1078508253479,34.563459892777985L131.4864536065979,33.95192718158631L131.86505638784791,34.72819357047255L132.2436591690979,30.84757310311828L132.6222619503479,33.02430309326429L133.00086473159791,34.33457787689353L133.3794675128479,34.38446560022129L133.7580702940979,33.718130891969416L134.1366730753479,33.98293593716712L134.5152758565979,33.20909039451978L134.8938786378479,33.25711500874453L135.27248141909791,32.80456397509475L135.6510842003479,33.68794936071517L136.0296869815979,38.1193943385572L136.40828976284791,39.17258719054133L136.7868925440979,36.89442880644461L137.1654953253479,34.53347756963408L137.5440981065979,35.67830739575479L137.9227008878479,36.582572893497556L138.3013036690979,35.18985656155084L138.67990645034791,35.03230743719012L139.0585092315979,32.246034572382094L139.4371120128479,29.568316221877474L139.81571479409791,30.743109473154927L140.1943175753479,30.01772560522827L140.5729203565979,31.697987789676052L140.9515231378479,36.26387790761418L141.3301259190979,36.5162826331544L141.7087287003479,32.93950615034625L142.08733148159791,22.02689646608908L142.4659342628479,27.85704435931205L142.8445370440979,32.67834595616197L143.22313982534791,32.42879814907544L143.6017426065979,33.54085103680962L143.9803453878479,34.88555448673923L144.35894816909789,34.080686267203696L144.7375509503479,33.58857050884207L145.1161537315979,37.13603029846824L145.4947565128479,37.660460243085765L145.8733592940979,39.818113022776544L146.2519620753479,40.55209667178037L146.63056485659789,41.157656870592135L147.0091676378479,43.289746811748614L147.3877704190979,41.35790300016383L147.7663732003479,42.50884898606354L148.1449759815979,39.25353597576078L148.5235787628479,37.490450886454326L148.90218154409789,36.33528755768968L149.2807843253479,34.119623010979815L149.6593871065979,35.70910018974552L150.03798988784789,34.761323124640455L150.4165926690979,34.02989679315493L150.7951954503479,34.702492117355156L151.1737982315979,34.49862066572421L151.5524010128479,33.90375107945608L151.9310037940979,32.4043904727369L152.30960657534789,30.952138682650997L152.6882093565979,26.134643557050396L153.0668121378479,26.92486279455365L153.44541491909789,26.12865280903329L153.82401770034792,24.932356946223702L154.2026204815979,24.018650586187043L154.5812232628479,25.550534956597446L154.9598260440979,24.524832338408636L155.3384288253479,21.304338011882503L155.71703160659789,23.87195675050141L156.0956343878479,25.837299616291936L156.4742371690979,26.770888151237305L156.85283995034789,25.27583988015201L157.23144273159792,23.815559763930295L157.6100455128479,25.058054233573856L157.9886482940979,26.69798426304061L158.3672510753479,30.334768534765676L158.7458538565979,30.239692125172144L159.12445663784789,32.4734753613901L159.5030594190979,35.283397331201705L159.8816622003479,35.63205820884352L160.26026498159789,31.32961372953257L160.63886776284792,29.059743261977204L161.0174705440979,28.24543790653261L161.3960733253479,28.238470988614015L161.7746761065979,26.00026324014129L162.1532788878479,30.08463144312369L162.53188166909788,29.385991849243286L162.9104844503479,28.50891090884389L163.2890872315979,30.95157210138563L163.66769001284788,28.15383995647528L164.04629279409792,27.88144337645756L164.4248955753479,25.971653469322167L164.8034983565979,25.66465521659133L165.1821011378479,26.107026043875134L165.5607039190979,28.977218976522977L165.93930670034788,31.242200928788694L166.3179094815979,28.689855960633377L166.69651226284788,28.885737545351365L167.07511504409788,30.985626203821422L167.45371782534792,31.50820685898961L167.8323206065979,31.743765501282134L168.2109233878479,31.404818915232394L168.5895261690979,29.973313214786067L168.9681289503479,30.38137830252837L169.34673173159788,28.202868752001024L169.7253345128479,29.11776694755714L170.10393729409788,28.50923310127351L170.48254007534788,18.959366343582865L170.86114285659792,21.79083186376832L171.2397456378479,23.911399141278842L171.6183484190979,23.52623920130082L171.9969512003479,26.840195907892095L172.3755539815979,29.754340838053626L172.75415676284788,30.286929661565484L173.1327595440979,33.8837411590547L173.51136232534787,32.08401447965712L173.88996510659788,30.792412415346345L174.26856788784792,30.80683719312405L174.6471706690979,31.039039932843735L175.0257734503479,32.480001793595264L175.4043762315979,30.95741361245951L175.7829790128479,33.37828317461501L176.16158179409788,31.125065195778294L176.5401845753479,29.47644253167468L176.91878735659787,32.072866945499996L177.2973901378479,30.281053590764564L177.67599291909792,27.78040466547007L178.0545957003479,30.62930219544573L178.4331984815979,27.296075128601895L178.8118012628479,27.89610244734211L179.1904040440979,26.501435822350516L179.56900682534788,26.21552645896059L179.9476096065979,24.891146519682145L180.32621238784787,27.53903746470721L180.7048151690979,23.112843812271045L181.08341795034792,21.096507101852463L181.4620207315979,20.7251747954729L181.8406235128479,17.473157266321973L182.2192262940979,17.180656332656877L182.5978290753479,17.339093391366593L182.97643185659788,16.40113045792166L183.3550346378479,16.942958447425834L183.73363741909787,18.92765450756906L184.1122402003479,18.4648026550335L184.49084298159792,22.060877621584456L184.8694457628479,23.09672783830909L185.2480485440979,23.925166915651563L185.6266513253479,24.502284522040636L186.0052541065979,25.214810641724906L186.38385688784788,24.1767167268522L186.7624596690979,24.057839666392585L187.14106245034787,26.05090101111435L187.5196652315979,24.58102844137155L187.89826801284792,24.61469628182884L188.2768707940979,22.955163251932422L188.6554735753479,25.798130237240223L189.0340763565979,25.35919228119434L189.4126791378479,27.489801309045035L189.79128191909788,25.509717103875765L190.1698847003479,26.009774560532374L190.54848748159787,23.879947609102075L190.9270902628479,23.90763908191287L191.30569304409792,25.821368258383405L191.6842958253479,23.501990031997234L192.0628986065979,22.733473478122647L192.4415013878479,21.39908391389196L192.8201041690979,20.358918247159163L193.19870695034788,21.99627544624674L193.5773097315979,19.61679942382783L193.95591251284787,20.080440847313604L194.3345152940979,20.769684982745204L194.71311807534792,23.211047043127458L195.0917208565979,24.90644755522679L195.4703236378479,27.994583946887843L195.8489264190979,27.553345738003436L196.2275292003479,27.633812623940095L196.60613198159788,25.601582916238527L196.9847347628479,25.477448709861363L197.3633375440979,26.389578699044225L197.7419403253479,29.050064527352458L198.12054310659792,30.165888542463332L198.4991458878479,25.312267826721232L198.8777486690979,16.1000627692599L199.2563514503479,22.98297868018943L199.6349542315979,23.50240049283331L200.01355701284788,21.576717745400515L200.3921597940979,23.149113864984326L200.7707625753479,26.144423097251313L201.1493653565979,26.220629907412512L201.52796813784792,26.289239567190346L201.9065709190979,28.70460116115996L202.2851737003479,26.846941256996924L202.6637764815979,29.45151664681106L203.0423792628479,28.932244763607223L203.42098204409788,29.751913078999422L203.7995848253479,30.578761630988787L204.1781876065979,32.285197583302924L204.5567903878479,31.081751683908454L204.93539316909792,29.27554541369949L205.3139959503479,31.412878690526608L205.6925987315979,30.895658030620794L206.0712015128479,32.995022360438014L206.4498042940979,30.814821329515574L206.82840707534788,30.3140876843187L207.2070098565979,29.304933236033555L207.5856126378479,27.634214070336107L207.9642154190979,24.829795216405014L208.34281820034792,26.690464716717983L208.7214209815979,24.493640850319977L209.1000237628479,24.327927372722762L209.4786265440979,23.809653122516846L209.8572293253479,21.550547094660686L210.23583210659788,21.697925850194512L210.6144348878479,20.748663579385315L210.9930376690979,18.18058106251806L211.3716404503479,20.727196936649833L211.75024323159792,23.679962937548645L212.1288460128479,21.533330735013923L212.5074487940979,22.76833583188064L212.8860515753479,23.415434185613307L213.2646543565979,19.760245508818354L213.64325713784788,21.089852212137142L214.0218599190979,22.771187679976993L214.4004627003479,21.314203360529355L214.7790654815979,23.05183156449817L215.15766826284792,25.895769608483256L215.5362710440979,27.599666372867897L215.9148738253479,27.07872900758053L216.2934766065979,27.27405875284025L216.6720793878479,26.7909324582242L217.05068216909788,28.085715303525685L217.4292849503479,28.4251893964154L217.8078877315979,26.393157584997695L218.1864905128479,28.250970605769513L218.5650932940979,27.31229253643008L218.9436960753479,23.567019212430445L219.3222988565979,22.341694571295903L219.7009016378479,22.333789411511695L220.0795044190979,20.701553362607758L220.45810720034788,22.787444749116418L220.83670998159792,25.095382672005265L221.2153127628479,25.34777380464529L221.5939155440979,24.21122878241688L221.9725183253479,25.909060242952002L222.3511211065979,23.586387622572182L222.7297238878479,27.48929355796581L223.1083266690979,26.19677433162882L223.4869294503479,25.8114102168603L223.86553223159788,25.8475586492781L224.24413501284792,27.005808612039605L224.6227377940979,25.592452646977254L225.0013405753479,24.456082567096814L225.3799433565979,24.20763096745277L225.7585461378479,24.224071206039916L226.1371489190979,22.921662129365746L226.5157517003479,22.816492079852125L226.8943544815979,22.763461602856616L227.27295726284788,14.460475666038363L227.65156004409792,21.470262596154985L228.0301628253479,23.743178344819007L228.4087656065979,21.333865880766965L228.7873683878479,23.597214065724486L229.1659711690979,23.163967958589016L229.5445739503479,24.618395505454586L229.9231767315979,26.726825505030195L230.3017795128479,27.944738963861575L230.68038229409788,26.772447287404784L231.05898507534792,28.10018746025625L231.4375878565979,26.3368778097218L231.8161906378479,24.915439395673197L232.1947934190979,27.340270754238453L232.5733962003479,27.08611517853181L232.9519989815979,24.282721785113292L233.3306017628479,23.74727069776155L233.7092045440979,25.19855877199691L234.08780732534788,25.873048628680134L234.46641010659792,24.756346400951305L234.8450128878479,24.80299032399904L235.2236156690979,25.36009597844448L235.6022184503479,28.889054164027353L235.9808212315979,28.88590943151227L236.35942401284788,27.900785099006328L236.7380267940979,26.107503111958497L237.1166295753479,24.50465610104174L237.49523235659788,25.070792075767336L237.87383513784792,23.458492727312006L238.2524379190979,21.002026275746747L238.6310407003479,21.348968253908478L239.0096434815979,20.4145002377031L239.3882462628479,22.811228093477496L239.76684904409788,19.63580696776956L240.1454518253479,21.442448366371654L240.5240546065979,19.748083963477317L240.90265738784788,19.080562095890254L241.28126016909792,17.737408650222307L241.6598629503479,19.859367055023508L242.0384657315979,21.998466732267413L242.4170685128479,20.16099334466016L242.7956712940979,19.123430229924594L243.17427407534788,19.81202108628325L243.5528768565979,19.236738214534604L243.9314796378479,20.57267993805556L244.3100824190979,19.932851164241214L244.68868520034792,22.81246089242685L245.0672879815979,21.495624848696636L245.4458907628479,21.187450474837238L245.8244935440979,21.615394650469582L246.2030963253479,23.918992621161728L246.58169910659788,21.359477359342506L246.9603018878479,23.8394888893922L247.3389046690979,24.393938018907818L247.7175074503479,26.856041242025253L248.09611023159792,26.1941304290438L248.4747130128479,21.484195637566817L248.8533157940979,21.70407615259692L249.2319185753479,22.718530746332966L249.6105213565979,23.178298273403517L249.98912413784788,23.155333402106645L250.3677269190979,23.967378613289867L250.7463297003479,23.27007539587445L251.1249324815979,21.089137189929165L251.50353526284792,22.077112864925287L251.8821380440979,23.820836617050475L252.2607408253479,22.322457660922172L252.6393436065979,21.673102869714608L253.0179463878479,25.164764954882163L253.39654916909788,27.530804446609153L253.7751519503479,25.79205917628813L254.1537547315979,27.674649903293993L254.5323575128479,28.031908003272303L254.91096029409792,25.57823426549702L255.2895630753479,26.707392888315983L255.6681658565979,16.96654483984473L256.0467686378479,19.565469537476318L256.42537141909787,23.83557067589337L256.8039742003479,24.454573164891425L257.1825769815979,25.679728779984398L257.56117976284787,29.062660134053008L257.9397825440979,27.736086961544302L258.3183853253479,29.64746885054081L258.6969881065979,29.960013227436985L259.0755908878479,33.204381348447725L259.4541936690979,32.36041768361478L259.83279645034787,32.71796881146531L260.2113992315979,32.47079739932751L260.5900020128479,30.014303702530064L260.96860479409787,28.657461212226504L261.3472075753479,26.59776550588663L261.7258103565979,29.195391804284963L262.1044131378479,31.289530604630016L262.4830159190979,31.21681510108226L262.8616187003479,32.798925299842374" fill="none"></path></g></g></g></g><g opacity="0.2"><g><g><g><path style="fill: none;" stroke="rgb(0, 153, 136)" stroke-width="2px" d="M29.263702669097903,172.14123212581669L29.642305450347898,169.61249081847978L30.0209082315979,168.55950515066073L30.3995110128479,169.7177586809542L30.7781137940979,170.42865989859845L31.1567165753479,170.37805987467496L31.5353193565979,170.33550572895373L31.9139221378479,170.43836245976527L32.2925249190979,170.09463684748462L32.6711277003479,170.02684038690697L33.049730481597905,169.8005455917864L33.4283332628479,169.41000637029276L33.806936044097895,169.24017308513655L34.1855388253479,169.1866794332896L34.5641416065979,168.64392984949907L34.9427443878479,168.21413702663438L35.3213471690979,167.01221994663038L35.6999499503479,166.42982806518057L36.0785527315979,164.95123548261463L36.457155512847905,164.1821404922077L36.8357582940979,163.22621620151395L37.2143610753479,162.64212579826298L37.5929638565979,161.83271841399156L37.9715666378479,161.40128172974124L38.3501694190979,161.00420822672177L38.728772200347905,159.86707318660189L39.1073749815979,159.18560221639171L39.485977762847895,158.8657605064186L39.864580544097905,157.13944422138394L40.2431833253479,157.8303167830655L40.6217861065979,157.18931881386672L41.0003888878479,156.2972864755498L41.3789916690979,158.4964747390875L41.7575944503479,157.8123949149706L42.136197231597905,156.86861738328386L42.5148000128479,158.5254865981558L42.8934027940979,158.84377892153557L43.2720055753479,156.10731251432006L43.6506083565979,156.1592196644767L44.0292111378479,155.81079798019996L44.4078139190979,152.84011236725175L44.7864167003479,153.29378571832422L45.165019481597895,150.2822937433119L45.543622262847904,150.08137555221683L45.9222250440979,148.7940566340944L46.3008278253479,149.74462690334585L46.6794306065979,146.25768918656092L47.05803338784791,147.44831450442803L47.4366361690979,145.07697562404357L47.8152389503479,146.6235306728936L48.1938417315979,142.04273951761056L48.572444512847895,142.09025763884597L48.951047294097904,142.20249369207073L49.3296500753479,138.7139903930138L49.7082528565979,137.6308584937992L50.0868556378479,134.53429601726134L50.46545841909791,135.30184432035472L50.8440612003479,135.34234971272343L51.2226639815979,131.00475556771914L51.6012667628479,132.77223317010893L51.979869544097895,133.01341111911276L52.358472325347904,130.3017983304655L52.7370751065979,129.67740093190963L53.1156778878479,126.81222881589575L53.4942806690979,126.58263887498458L53.872883450347906,126.17185168104619L54.2514862315979,124.62487824383035L54.630089012847904,122.51182264841138L55.0086917940979,116.7268665878881L55.387294575347894,121.61424733906762L55.765897356597904,121.35341053543088L56.1445001378479,115.32408327792481L56.5231029190979,115.18296493106115L56.9017057003479,78.34689791454771L57.280308481597906,107.12817370697552L57.6589112628479,115.07969588526333L58.037514044097904,109.11030883453716L58.4161168253479,122.89838110705045L58.7947196065979,113.22349835508636L59.173322387847904,113.8134961321344L59.5519251690979,113.32672421240771L59.9305279503479,112.41031872732331L60.3091307315979,113.12377616291859L60.6877335128479,115.06450973722478L61.0663362940979,106.44749092646096L61.444939075347904,107.3699751896084L61.8235418565979,108.7206947911879L62.2021446378479,107.60218883046508L62.580747419097904,104.18438776666828L62.9593502003479,102.75998862423208L63.3379529815979,95.39306566343362L63.7165557628479,86.49578063318138L64.0951585440979,91.03377740684286L64.4737613253479,86.83341194654024L64.8523641065979,86.32832811279053L65.2309668878479,73.30993387511651L65.60956966909791,66.55941304616758L65.9881724503479,64.3367936845054L66.3667752315979,60.9385192106323L66.7453780128479,51.577060630965974L67.1239807940979,46.77559255660313L67.5025835753479,53.63121254304028L67.8811863565979,41.26082360487222L68.2597891378479,42.52805988143641L68.6383919190979,48.797385502682765L69.01699470034791,46.45049129997998L69.3955974815979,50.226751319912964L69.7742002628479,49.28695927482041L70.1528030440979,43.32337567561982L70.5314058253479,60.99199734162051L70.9100086065979,46.1156726361512L71.2886113878479,55.65926781820797L71.6672141690979,46.27894667144364L72.0458169503479,50.481336591580764L72.4244197315979,54.25473537494766L72.8030225128479,47.111253395723054L73.1816252940979,49.303554446903746L73.5602280753479,53.73308336191239L73.93883085659789,58.34714583975554L74.31743363784791,48.73849801501679L74.69603641909791,56.89974883359938L75.0746392003479,55.32058378573519L75.4532419815979,44.51046493697598L75.8318447628479,60.6321293614395L76.2104475440979,64.28375823540101L76.5890503253479,49.489297287079395L76.9676531065979,58.078481124758724L77.34625588784789,54.13065488205116L77.72485866909791,54.38795023061742L78.10346145034791,55.35430318873864L78.4820642315979,52.160364194161254L78.8606670128479,50.33545671518635L79.2392697940979,55.47745512939105L79.6178725753479,52.812801711064886L79.9964753565979,57.95282425247109L80.3750781378479,54.64405789608078L80.75368091909789,57.1601969409479L81.13228370034791,55.361774795167854L81.51088648159791,55.62479261686629L81.8894892628479,54.66741206473158L82.2680920440979,57.74852116453276L82.64669482534791,54.03039283392752L83.0252976065979,60.81098363961826L83.4039003878479,63.70171793514245L83.7825031690979,49.35446286354202L84.16110595034789,55.773900831876794L84.53970873159791,51.20847937565727L84.91831151284791,54.232860411615924L85.2969142940979,16.713789233977682L85.6755170753479,54.466779997293145L86.05411985659791,61.073807113172606L86.4327226378479,57.48686377984309L86.8113254190979,67.6278095770668L87.1899282003479,60.284429734503725L87.56853098159789,56.3228587591598L87.94713376284791,60.722846756263415L88.32573654409791,63.689160885609L88.7043393253479,61.235364406525385L89.0829421065979,60.896593997099664L89.46154488784791,57.73191519533028L89.8401476690979,60.871263955650385L90.2187504503479,59.876460588654965L90.59735323159789,57.86880107149994L90.97595601284789,63.04483200516248L91.35455879409791,57.57189109289216L91.7331615753479,59.99983926880883L92.1117643565979,56.17007952364941L92.4903671378479,50.859224963568614L92.8689699190979,48.68914438353141L93.2475727003479,46.634970877218876L93.6261754815979,46.99735458615422L94.00477826284789,39.57504780284339L94.3833810440979,39.63974414059449L94.76198382534791,34.050259124571575L95.1405866065979,27.150727254684202L95.5191893878479,28.472283837527733L95.8977921690979,22.76028391088032L96.2763949503479,24.884444343311475L96.6549977315979,25.435367346273843L97.0336005128479,25.935619469218533L97.41220329409789,36.78692932741041L97.7908060753479,32.19258238907555L98.1694088565979,31.798714280794034L98.5480116378479,33.14548213677655L98.9266144190979,28.595392589703668L99.3052172003479,35.11541651973559L99.6838199815979,33.77352896159411L100.0624227628479,35.0996743200625L100.4410255440979,39.191847248249815L100.81962832534789,41.80153253314958L101.1982311065979,30.093406490281925L101.5768338878479,43.389421653260605L101.9554366690979,34.182545427997255L102.3340394503479,36.32901270852482L102.7126422315979,42.27697287636261L103.0912450128479,43.73921592130512L103.4698477940979,41.21466592064559L103.8484505753479,39.47998996613431L104.22705335659789,38.71938690991315L104.6056561378479,37.00098221391172L104.9842589190979,32.43156582361879L105.3628617003479,36.65674846221263L105.7414644815979,40.757407926026154L106.12006726284791,43.42517091465812L106.4986700440979,35.02882362441451L106.8772728253479,41.23392798115092L107.2558756065979,31.956211857358696L107.63447838784789,31.60668751729209L108.0130811690979,40.08427233177458L108.3916839503479,36.65935056791991L108.77028673159789,35.73147854233288L109.1488895128479,50.55523207481986L109.52749229409791,37.42175674303365L109.9060950753479,34.741944169466734L110.2846978565979,43.12213896951079L110.6633006378479,41.29730707036971L111.04190341909789,38.358827914108645L111.4205062003479,42.657949224418026L111.7991089815979,34.91590735268534L112.17771176284789,40.59904657993211L112.5563145440979,39.54901594865148L112.93491732534791,38.599916786879774L113.3135201065979,45.392719134292214L113.6921228878479,8.686832982976567L114.0707256690979,35.768750197525954L114.44932845034789,38.52517912834953L114.8279312315979,44.18771745232039L115.2065340128479,37.503480137632806L115.58513679409789,41.51422119343711L115.96373957534789,46.6719078217193L116.34234235659791,36.699936938682L116.7209451378479,47.222312562964035L117.0995479190979,40.71155256113479L117.4781507003479,42.46957188717776L117.8567534815979,45.87347166011098L118.2353562628479,43.17770094448864L118.6139590440979,39.82158922076877L118.99256182534789,39.32602304752102L119.37116460659789,45.77922360733571L119.74976738784791,41.2824826258216L120.1283701690979,39.10238231924352L120.5069729503479,38.12054629230801L120.8855757315979,41.12450997601578L121.2641785128479,46.90927168839495L121.6427812940979,39.33009356142826L122.0213840753479,39.79858055992972L122.39998685659789,31.749684562882173L122.77858963784789,33.246726722739865L123.15719241909791,25.889040697346317L123.5357952003479,24.56747331738367L123.9143979815979,16.4710484019816L124.2930007628479,23.387985227886116L124.6716035440979,29.07283039995342L125.0502063253479,16.37291338632408L125.4288091065979,20.112009722255163L125.80741188784789,28.301225079351696L126.18601466909789,27.57876824497211L126.56461745034791,34.21379229072284L126.9432202315979,29.345943528026567L127.3218230128479,29.58702160367859L127.7004257940979,27.369174568666267L128.0790285753479,28.96819551858725L128.45763135659791,31.5175896903358L128.8362341378479,34.981186734868785L129.2148369190979,31.74945782338072L129.59343970034791,35.94209794495488L129.9720424815979,33.32217699113185L130.3506452628479,34.061596099644774L130.7292480440979,41.7820545302619L131.1078508253479,31.032917810277425L131.4864536065979,33.0346281147988L131.86505638784791,35.89259315380186L132.2436591690979,25.026642402086868L132.6222619503479,36.289398078483295L133.00086473159791,36.29999005233741L133.3794675128479,34.459297185212954L133.7580702940979,32.71862882959155L134.1366730753479,34.38014350496372L134.5152758565979,32.04832208054873L134.8938786378479,33.32915193008166L135.27248141909791,32.12573742462007L135.6510842003479,35.01302743914584L136.0296869815979,44.7665618053202L136.40828976284791,40.75237646851747L136.7868925440979,33.477191230299525L137.1654953253479,30.992050714418287L137.5440981065979,37.39555213493586L137.9227008878479,37.93897114011168L138.3013036690979,33.10078206363076L138.67990645034791,34.79598375064902L139.0585092315979,28.06662527517008L139.4371120128479,25.551738696120555L139.81571479409791,32.50529935007111L140.1943175753479,28.929649803338343L140.5729203565979,34.2183810663477L140.9515231378479,43.11271308452135L141.3301259190979,36.89488972146471L141.7087287003479,27.574341426134L142.08733148159791,5.657981939703343L142.4659342628479,36.60226619914652L142.8445370440979,39.91029835143685L143.22313982534791,32.05447643844563L143.6017426065979,35.20893036841089L143.9803453878479,36.90260966163361L144.35894816909789,32.87338393790042L144.7375509503479,32.850396871299594L145.1161537315979,42.45721998290752L145.4947565128479,38.44710516001203L145.8733592940979,43.054592192312704L146.2519620753479,41.65307214528613L146.63056485659789,42.065997168809766L147.0091676378479,46.487881723483326L147.3877704190979,38.46013728278666L147.7663732003479,44.23526796491315L148.1449759815979,34.370566460306634L148.5235787628479,34.84582325249467L148.90218154409789,34.60254256454273L149.2807843253479,30.796126190915015L149.6593871065979,38.093315957894085L150.03798988784789,33.339657526982826L150.4165926690979,32.932757295926685L150.7951954503479,35.711385103655516L151.1737982315979,34.192813488277835L151.5524010128479,33.011446700053874L151.9310037940979,30.155349562658106L152.30960657534789,28.77376099752216L152.6882093565979,18.908400868649487L153.0668121378479,28.110191650808552L153.44541491909789,24.93433783075272L153.82401770034792,23.13791315200936L154.2026204815979,22.648091046132027L154.5812232628479,27.84836151221301L154.9598260440979,22.98627841112541L155.3384288253479,16.47359652209328L155.71703160659789,27.72338485842979L156.0956343878479,28.785313914977714L156.4742371690979,28.17127095365537L156.85283995034789,23.03326747352409L157.23144273159792,21.625139589597694L157.6100455128479,26.921795938039207L157.9886482940979,29.15787930724071L158.3672510753479,35.789944942353294L158.7458538565979,30.097077510781823L159.12445663784789,35.824150215717026L159.5030594190979,39.49828028591909L159.8816622003479,36.15504952530622L160.26026498159789,24.875947010566122L160.63886776284792,25.65493756064412L161.0174705440979,27.023979873365732L161.3960733253479,28.22802061173611L161.7746761065979,22.642951617432185L162.1532788878479,36.21118374759726L162.53188166909788,28.338032458422713L162.9104844503479,27.193289498244756L163.2890872315979,34.615563890198246L163.66769001284788,23.957241739109737L164.04629279409792,27.47284850643097L164.4248955753479,23.10696860861906L164.8034983565979,25.204157837495096L165.1821011378479,26.770582284800824L165.5607039190979,33.28250837549474L165.93930670034788,34.63967385718727L166.3179094815979,24.86133850840037L166.69651226284788,29.17955992242833L167.07511504409788,34.135459191526515L167.45371782534792,32.29207784174185L167.8323206065979,32.09710346472088L168.2109233878479,30.896399036157753L168.5895261690979,27.826054664116594L168.9681289503479,30.993475934141774L169.34673173159788,24.935104426210053L169.7253345128479,30.4901142408913L170.10393729409788,27.596432331848067L170.48254007534788,4.634566207046969L170.86114285659792,26.038030144046527L171.2397456378479,27.092250057544668L171.6183484190979,22.948499291333835L171.9969512003479,31.811130967778972L172.3755539815979,34.12555823329592L172.75415676284788,31.085812896833296L173.1327595440979,39.27895840528852L173.51136232534787,29.384424460560776L173.88996510659788,28.855009318880153L174.26856788784792,30.82847435979056L174.6471706690979,31.3873440424233L175.0257734503479,34.64144458472252L175.4043762315979,28.67353134075588L175.7829790128479,37.00958751784823L176.16158179409788,27.745238227523284L176.5401845753479,27.003508535519245L176.91878735659787,35.96750356623798L177.2973901378479,27.593333558661406L177.67599291909792,24.029431277528282L178.0545957003479,34.90264849040925L178.4331984815979,22.29623452833609L178.8118012628479,28.796143425452414L179.1904040440979,24.409435884863147L179.56900682534788,25.786662413875682L179.9476096065979,22.904576610764494L180.32621238784787,31.5108738822448L180.7048151690979,16.473553333616824L181.08341795034792,18.072002036224593L181.4620207315979,20.16817633590359L181.8406235128479,12.595130972595536L182.2192262940979,16.741904932159233L182.5978290753479,17.57674897943123L182.97643185659788,14.994186057754206L183.3550346378479,17.755700431682058L183.73363741909787,21.90469859778393L184.1122402003479,17.770524876230166L184.49084298159792,27.454990071410904L184.8694457628479,24.65050316339603L185.2480485440979,25.16782553166524L185.6266513253479,25.367960931624292L186.0052541065979,26.28359982125136L186.38385688784788,22.61957585454313L186.7624596690979,23.879524075703106L187.14106245034787,29.040493028196973L187.5196652315979,22.376219586757355L187.89826801284792,24.665198042514742L188.2768707940979,20.465863707087824L188.6554735753479,30.062580715201918L189.0340763565979,24.700785347125485L189.4126791378479,30.685714850821068L189.79128191909788,22.539590796121868L190.1698847003479,26.759860745517297L190.54848748159787,20.685207181956628L190.9270902628479,23.94917629112909L191.30569304409792,28.691962023089168L191.6842958253479,20.02292269241797L192.0628986065979,21.580698647310715L192.4415013878479,19.39749956754595L192.8201041690979,18.798669747059936L193.19870695034788,24.452311244878107L193.5773097315979,16.047585390199437L193.95591251284787,20.7759029825423L194.3345152940979,21.803551185892665L194.71311807534792,26.873090133700874L195.0917208565979,27.449548323375755L195.4703236378479,32.62678853437945L195.8489264190979,26.891488424676822L196.2275292003479,27.754512952845086L196.60613198159788,22.55323835468618L196.9847347628479,25.291247400295564L197.3633375440979,27.75777368281852L197.7419403253479,33.0407932698148L198.12054310659792,31.83962456512963L198.4991458878479,18.031836753108067L198.8777486690979,2.2817551830678706L199.2563514503479,33.307352546583736L199.6349542315979,24.2815332117991L200.01355701284788,18.688193624251294L200.3921597940979,25.50770804436004L200.7707625753479,30.63738694565184L201.1493653565979,26.334940122654313L201.52796813784792,26.392154056857116L201.9065709190979,32.327643552114374L202.2851737003479,24.06045140075242L202.6637764815979,33.3583797315323L203.0423792628479,28.153336938801463L203.42098204409788,30.981415552087718L203.7995848253479,31.81903445897287L204.1781876065979,34.84485151177413L204.5567903878479,29.27658283481677L204.93539316909792,26.566236008386017L205.3139959503479,34.61887860576728L205.6925987315979,30.11982704076206L206.0712015128479,36.14406885516388L206.4498042940979,27.544519783131896L206.82840707534788,29.562987216523382L207.2070098565979,27.791201563605807L207.5856126378479,25.12813532178988L207.9642154190979,20.623166935508372L208.34281820034792,29.481468967187457L208.7214209815979,21.198405050722997L209.1000237628479,24.079357156326886L209.4786265440979,23.03224174720793L209.8572293253479,18.161888052876453L210.23583210659788,21.918993983495277L210.6144348878479,19.324770173171544L210.9930376690979,14.328457287217143L211.3716404503479,24.547120747847476L211.75024323159792,28.109111938896817L212.1288460128479,18.313382431211885L212.5074487940979,24.620843477180703L212.8860515753479,24.38608171621233L213.2646543565979,14.277462493625936L213.64325713784788,23.084262267115296L214.0218599190979,25.293190881736688L214.4004627003479,19.128726881357956L214.7790654815979,25.65827387045137L215.15766826284792,30.16167667446088L215.5362710440979,30.15551151944488L215.9148738253479,26.297322959649488L216.2934766065979,27.567053370729784L216.6720793878479,26.066243016300135L217.05068216909788,30.0278895714779L217.4292849503479,28.934400535749962L217.8078877315979,23.34510986787116L218.1864905128479,31.0376901369273L218.5650932940979,25.904275432420885L218.9436960753479,17.94910922643099L219.3222988565979,20.503707609594098L219.7009016378479,22.321931671835376L220.0795044190979,18.253199289251818L220.45810720034788,25.91628182887938L220.83670998159792,28.557289556338564L221.2153127628479,25.726360503605335L221.5939155440979,22.506411249074272L221.9725183253479,28.45580743375467L222.3511211065979,20.102378692002496L222.7297238878479,33.34365246105625L223.1083266690979,24.257995492123293L223.4869294503479,25.233364044707503L223.86553223159788,25.901781297904783L224.24413501284792,28.743183556181844L224.6227377940979,23.472418699383727L225.0013405753479,22.75152744727616L225.3799433565979,23.83495356798673L225.7585461378479,24.24873156392063L226.1371489190979,20.968048514354518L226.5157517003479,22.658737005581735L226.8943544815979,22.68391588736338L227.27295726284788,2.0059967608109677L227.65156004409792,31.984942991329945L228.0301628253479,27.152551967815032L228.4087656065979,17.719897184688946L228.7873683878479,26.99223634316074L229.1659711690979,22.514098797885815L229.5445739503479,26.800036825752944L229.9231767315979,29.88947050439356L230.3017795128479,29.771609152108663L230.68038229409788,25.01400977271958L231.05898507534792,30.091797719533446L231.4375878565979,23.69191333392019L231.8161906378479,22.783281774600272L232.1947934190979,30.97751779208635L232.5733962003479,26.704881814971806L232.9519989815979,20.077631694985556L233.3306017628479,22.944094066733964L233.7092045440979,27.3754908833499L234.08780732534788,26.88478341370494L234.46641010659792,23.081293059358032L234.8450128878479,24.87295620857062L235.2236156690979,26.19575446011266L235.6022184503479,34.182491442401655L235.9808212315979,28.8811923327397L236.35942401284788,26.423098600247418L236.7380267940979,23.417580131386753L237.1166295753479,22.100385584666633L237.49523235659788,25.91999603785574L237.87383513784792,21.04004370462895L238.2524379190979,17.317326598398854L238.6310407003479,21.869381221151098L239.0096434815979,19.012798213395065L239.3882462628479,26.40631987713907L239.76684904409788,14.87267527920765L240.1454518253479,24.15241046427482L240.5240546065979,17.206537359135805L240.90265738784788,18.07927929450967L241.28126016909792,15.722678481720378L241.6598629503479,23.042304662225302L242.0384657315979,25.20711624813324L242.4170685128479,17.40478326324933L242.7956712940979,17.5670855578212L243.17427407534788,20.844907370821225L243.5528768565979,18.373813906911646L243.9314796378479,22.576592523336995L244.3100824190979,18.9731080035197L244.68868520034792,27.131875484705315L245.0672879815979,19.52037078310131L245.4458907628479,20.72518891404814L245.8244935440979,22.257310913918076L246.2030963253479,27.374389577199945L246.58169910659788,17.520204466613716L246.9603018878479,27.559506184466755L247.3389046690979,25.225611713181245L247.7175074503479,30.549196076701396L248.09611023159792,25.201264209571647L248.4747130128479,14.419293450351345L248.8533157940979,22.033896925142027L249.2319185753479,24.240212636937038L249.6105213565979,23.867949564009315L249.98912413784788,23.12088609516132L250.3677269190979,25.18544643006474L250.7463297003479,22.224120569751364L251.1249324815979,17.81772988101118L251.50353526284792,23.55907637741951L251.8821380440979,26.4364222452382L252.2607408253479,20.07488922672974L252.6393436065979,20.699070682903294L253.0179463878479,30.402258082633484L253.39654916909788,31.079863684199626L253.7751519503479,23.1839412708066L254.1537547315979,30.498535993802818L254.5323575128479,28.567795153239736L254.91096029409792,21.89772365883412L255.2895630753479,28.40113082254445L255.6681658565979,2.355272767137844L256.0467686378479,23.46385658392368L256.42537141909787,30.24072238351894L256.8039742003479,25.383076898388566L257.1825769815979,27.517462202623843L257.56117976284787,34.137057165155895L257.9397825440979,25.746227202781245L258.3183853253479,32.51454168403556L258.6969881065979,30.428829792781276L259.0755908878479,38.07093352996383L259.4541936690979,31.0944721863654L259.83279645034787,33.25429550324113L260.2113992315979,32.100040281120805L260.5900020128479,26.32956315733388L260.96860479409787,26.622197476771188L261.3472075753479,23.508221946376842L261.7258103565979,33.09183125188248L262.1044131378479,34.430738805147584L262.4830159190979,31.107741845760607L262.8616187003479,35.17209059798252" fill="none"></path></g></g></g></g></g></g><g transform="translate(41, 176)" clip-path="url(#clip_1)"><clipPath id="clip_1"><rect width="288" height="23"></rect></clipPath><g><g><line x1="0" y1="0" x2="0" y2="5" style="visibility: inherit;" fill="rgb(0, 0, 0)" stroke="rgb(204, 204, 204)" stroke-width="1px"></line><line x1="28.8850998878479" y1="0" x2="28.8850998878479" y2="5" style="visibility: inherit;" fill="rgb(0, 0, 0)" stroke="rgb(204, 204, 204)" stroke-width="1px"></line><line x1="57.7701997756958" y1="0" x2="57.7701997756958" y2="5" style="visibility: inherit;" fill="rgb(0, 0, 0)" stroke="rgb(204, 204, 204)" stroke-width="1px"></line><line x1="86.6552996635437" y1="0" x2="86.6552996635437" y2="5" style="visibility: inherit;" fill="rgb(0, 0, 0)" stroke="rgb(204, 204, 204)" stroke-width="1px"></line><line x1="115.5403995513916" y1="0" x2="115.5403995513916" y2="5" style="visibility: inherit;" fill="rgb(0, 0, 0)" stroke="rgb(204, 204, 204)" stroke-width="1px"></line><line x1="144.4254994392395" y1="0" x2="144.4254994392395" y2="5" style="visibility: inherit;" fill="rgb(0, 0, 0)" stroke="rgb(204, 204, 204)" stroke-width="1px"></line><line x1="173.3105993270874" y1="0" x2="173.3105993270874" y2="5" style="visibility: inherit;" fill="rgb(0, 0, 0)" stroke="rgb(204, 204, 204)" stroke-width="1px"></line><line x1="202.1956992149353" y1="0" x2="202.1956992149353" y2="5" style="visibility: inherit;" fill="rgb(0, 0, 0)" stroke="rgb(204, 204, 204)" stroke-width="1px"></line><line x1="231.0807991027832" y1="0" x2="231.0807991027832" y2="5" style="visibility: inherit;" fill="rgb(0, 0, 0)" stroke="rgb(204, 204, 204)" stroke-width="1px"></line><line x1="259.9658989906311" y1="0" x2="259.9658989906311" y2="5" style="visibility: inherit;" fill="rgb(0, 0, 0)" stroke="rgb(204, 204, 204)" stroke-width="1px"></line><line x1="288.850998878479" y1="0" x2="288.850998878479" y2="5" style="visibility: inherit;" fill="rgb(0, 0, 0)" stroke="rgb(204, 204, 204)" stroke-width="1px"></line></g><g transform="translate(0, 8)"><text style="text-anchor: middle; visibility: hidden; font-family: Roboto, sans-serif; font-size: 12px; font-weight: 200;" x="0" y="0" dx="0em" dy="0.95em" fill="rgb(33, 33, 33)" stroke="none" stroke-width="1px">-10M</text><text style="text-anchor: middle; visibility: inherit; font-family: Roboto, sans-serif; font-size: 12px; font-weight: 200;" x="28.8850998878479" y="0" dx="0em" dy="0.95em" fill="rgb(33, 33, 33)" stroke="none" stroke-width="1px">0</text><text style="text-anchor: middle; visibility: hidden; font-family: Roboto, sans-serif; font-size: 12px; font-weight: 200;" x="57.7701997756958" y="0" dx="0em" dy="0.95em" fill="rgb(33, 33, 33)" stroke="none" stroke-width="1px">10M</text><text style="text-anchor: middle; visibility: inherit; font-family: Roboto, sans-serif; font-size: 12px; font-weight: 200;" x="86.6552996635437" y="0" dx="0em" dy="0.95em" fill="rgb(33, 33, 33)" stroke="none" stroke-width="1px">20M</text><text style="text-anchor: middle; visibility: hidden; font-family: Roboto, sans-serif; font-size: 12px; font-weight: 200;" x="115.5403995513916" y="0" dx="0em" dy="0.95em" fill="rgb(33, 33, 33)" stroke="none" stroke-width="1px">30M</text><text style="text-anchor: middle; visibility: inherit; font-family: Roboto, sans-serif; font-size: 12px; font-weight: 200;" x="144.4254994392395" y="0" dx="0em" dy="0.95em" fill="rgb(33, 33, 33)" stroke="none" stroke-width="1px">40M</text><text style="text-anchor: middle; visibility: hidden; font-family: Roboto, sans-serif; font-size: 12px; font-weight: 200;" x="173.3105993270874" y="0" dx="0em" dy="0.95em" fill="rgb(33, 33, 33)" stroke="none" stroke-width="1px">50M</text><text style="text-anchor: middle; visibility: inherit; font-family: Roboto, sans-serif; font-size: 12px; font-weight: 200;" x="202.1956992149353" y="0" dx="0em" dy="0.95em" fill="rgb(33, 33, 33)" stroke="none" stroke-width="1px">60M</text><text style="text-anchor: middle; visibility: hidden; font-family: Roboto, sans-serif; font-size: 12px; font-weight: 200;" x="231.0807991027832" y="0" dx="0em" dy="0.95em" fill="rgb(33, 33, 33)" stroke="none" stroke-width="1px">70M</text><text style="text-anchor: middle; visibility: inherit; font-family: Roboto, sans-serif; font-size: 12px; font-weight: 200;" x="259.9658989906311" y="0" dx="0em" dy="0.95em" fill="rgb(33, 33, 33)" stroke="none" stroke-width="1px">80M</text><text style="text-anchor: middle; visibility: hidden; font-family: Roboto, sans-serif; font-size: 12px; font-weight: 200;" x="288.850998878479" y="0" dx="0em" dy="0.95em" fill="rgb(33, 33, 33)" stroke="none" stroke-width="1px">90M</text></g><line x1="0" y1="0" x2="288.850998878479" y2="0" fill="rgb(0, 0, 0)" stroke="rgb(204, 204, 204)" stroke-width="1px"></line></g></g></g></g></svg>